%
M48
M72
T01C0.01000
T02C0.01378
T03C0.01575
T04C0.01969
T05C0.02362
T06C0.04000
T07C0.05512
T08C0.07874
T09C0.08661
T10C0.12598
T11C0.16614
%
T01
X106328Y224438
X106328Y227194
X109083Y227194
X109128Y224438
T02
X107706Y239595
X130540Y239595
X145894Y235658
X131328Y214792
X194713Y227824
X157706Y60461
X145107Y60461
T03
X111052Y212824
T04
X74438Y30289
X94024Y18139
X116761Y42154
X127469Y39831
X144310Y43252
X155737Y43965
X167154Y43139
X141072Y24930
X128178Y18729
X101554Y49831
X101111Y68965
X120107Y82446
X120107Y90383
X138020Y84477
X154556Y84477
X159083Y91564
X180737Y73394
X210501Y95737
X204595Y113454
X191761Y128178
X191579Y146569
X217646Y148650
X217981Y131564
X245865Y132051
X263020Y107706
X240053Y97164
X254359Y74241
X221288Y36938
X206392Y27459
X184280Y17253
X132410Y62233
X55934Y119123
X64989Y140284
X86249Y126603
X88217Y158887
X52952Y181308
X50422Y167745
X23650Y163513
X23650Y182263
X24900Y203513
X58572Y244059
X81938Y257804
X107228Y263921
X107228Y251126
X107706Y234871
X125028Y235658
X137873Y229162
X138020Y221190
X125324Y221190
X127391Y205343
X117942Y202489
X137430Y196288
X149438Y206918
X155343Y212430
X167646Y220796
X176997Y224241
X166170Y229654
X169566Y235855
X173060Y239005
X157312Y237036
X157607Y244517
X156869Y261938
X170107Y259674
X181426Y254261
X192745Y254950
X223798Y240284
X193877Y216662
X163217Y193335
X152784Y189595
X116957Y186446
X88750Y209614
X89241Y230146
X222076Y181131
X263463Y176081
X22932Y115560
X25393Y94841
X24930Y72863
T05
X76603Y155737
T06
X129595Y250737
X139595Y250737
X149595Y250737
X149595Y260737
X139595Y260737
X129595Y260737
T07
X209477Y157509
X204162Y139595
X209477Y122076
T08
X207509Y66761
X236249Y66761
X71682Y66761
X42942Y66761
X42942Y212430
X71682Y212430
X207509Y212430
X236249Y212430
T09
X256229Y192450
X239989Y172076
X239989Y107115
T10
X188182Y111544
X91009Y111544
T11
X86446Y86446
X39202Y139595
X86446Y192745
X192745Y192745
X192745Y86446
M30
