G75*
%MOIN*%
%OFA0B0*%
%FSLAX25Y25*%
%IPPOS*%
%LPD*%
%AMOC8*
5,1,8,0,0,1.08239X$1,22.5*
%
%ADD10C,0.01047*%
%ADD11R,0.01339X0.01339*%
%ADD12R,0.02264X0.02315*%
%ADD13R,0.02252X0.02406*%
%ADD14R,0.02390X0.02402*%
%ADD15R,0.02417X0.02339*%
%ADD16R,0.04331X0.03937*%
%ADD17C,0.25984*%
%ADD18R,0.08700X0.02400*%
%ADD19R,0.05906X0.05118*%
%ADD20R,0.03937X0.04331*%
%ADD21R,0.03937X0.05512*%
%ADD22R,0.06299X0.05118*%
%ADD23R,0.06299X0.12598*%
%ADD24R,0.05118X0.07480*%
%ADD25R,0.05512X0.03937*%
%ADD26R,0.01575X0.06299*%
%ADD27R,0.07441X0.06181*%
%ADD28R,0.04921X0.05512*%
D10*
X0104725Y0219882D02*
X0104781Y0219882D01*
X0104725Y0219882D02*
X0104725Y0221238D01*
X0104781Y0221238D01*
X0104781Y0219882D01*
X0104781Y0220928D02*
X0104725Y0220928D01*
X0106693Y0219882D02*
X0106749Y0219882D01*
X0106693Y0219882D02*
X0106693Y0221238D01*
X0106749Y0221238D01*
X0106749Y0219882D01*
X0106749Y0220928D02*
X0106693Y0220928D01*
X0108662Y0219882D02*
X0108718Y0219882D01*
X0108662Y0219882D02*
X0108662Y0221238D01*
X0108718Y0221238D01*
X0108718Y0219882D01*
X0108718Y0220928D02*
X0108662Y0220928D01*
X0110630Y0219882D02*
X0110686Y0219882D01*
X0110630Y0219882D02*
X0110630Y0221238D01*
X0110686Y0221238D01*
X0110686Y0219882D01*
X0110686Y0220928D02*
X0110630Y0220928D01*
X0112283Y0222835D02*
X0112283Y0222891D01*
X0113639Y0222891D01*
X0113639Y0222835D01*
X0112283Y0222835D01*
X0112283Y0224803D02*
X0112283Y0224859D01*
X0113639Y0224859D01*
X0113639Y0224803D01*
X0112283Y0224803D01*
X0112283Y0226772D02*
X0112283Y0226828D01*
X0113639Y0226828D01*
X0113639Y0226772D01*
X0112283Y0226772D01*
X0112283Y0228741D02*
X0112283Y0228797D01*
X0113639Y0228797D01*
X0113639Y0228741D01*
X0112283Y0228741D01*
X0110686Y0231750D02*
X0110630Y0231750D01*
X0110686Y0231750D02*
X0110686Y0230394D01*
X0110630Y0230394D01*
X0110630Y0231750D01*
X0110630Y0231440D02*
X0110686Y0231440D01*
X0108718Y0231750D02*
X0108662Y0231750D01*
X0108718Y0231750D02*
X0108718Y0230394D01*
X0108662Y0230394D01*
X0108662Y0231750D01*
X0108662Y0231440D02*
X0108718Y0231440D01*
X0106749Y0231750D02*
X0106693Y0231750D01*
X0106749Y0231750D02*
X0106749Y0230394D01*
X0106693Y0230394D01*
X0106693Y0231750D01*
X0106693Y0231440D02*
X0106749Y0231440D01*
X0104781Y0231750D02*
X0104725Y0231750D01*
X0104781Y0231750D02*
X0104781Y0230394D01*
X0104725Y0230394D01*
X0104725Y0231750D01*
X0104725Y0231440D02*
X0104781Y0231440D01*
X0103128Y0228797D02*
X0103128Y0228741D01*
X0101772Y0228741D01*
X0101772Y0228797D01*
X0103128Y0228797D01*
X0103128Y0226828D02*
X0103128Y0226772D01*
X0101772Y0226772D01*
X0101772Y0226828D01*
X0103128Y0226828D01*
X0103128Y0224859D02*
X0103128Y0224803D01*
X0101772Y0224803D01*
X0101772Y0224859D01*
X0103128Y0224859D01*
X0103128Y0222891D02*
X0103128Y0222835D01*
X0101772Y0222835D01*
X0101772Y0222891D01*
X0103128Y0222891D01*
D11*
X0102725Y0220796D03*
X0112686Y0220835D03*
X0112686Y0230796D03*
X0102725Y0230796D03*
D12*
X0106176Y0224221D03*
D13*
X0106170Y0227211D03*
D14*
X0109184Y0227198D03*
D15*
X0109158Y0224261D03*
D16*
X0118985Y0230265D03*
X0119359Y0236446D03*
X0119320Y0242745D03*
X0112627Y0242745D03*
X0112666Y0236446D03*
X0102391Y0236446D03*
X0102391Y0242745D03*
X0095698Y0242745D03*
X0095698Y0236446D03*
X0125678Y0230265D03*
X0134674Y0236052D03*
X0141367Y0236052D03*
X0139792Y0205343D03*
X0133099Y0205343D03*
X0145865Y0049467D03*
X0152558Y0049467D03*
X0152538Y0037991D03*
X0145845Y0037991D03*
X0145658Y0029817D03*
X0152351Y0029817D03*
X0160309Y0029817D03*
X0167002Y0029817D03*
X0166908Y0038139D03*
X0160215Y0038139D03*
X0134772Y0028134D03*
X0128080Y0028134D03*
D17*
X0086446Y0086446D03*
X0039202Y0139595D03*
X0086446Y0192745D03*
X0192745Y0192745D03*
X0192745Y0086446D03*
D18*
X0184687Y0217824D03*
X0184687Y0222824D03*
X0184687Y0227824D03*
X0184687Y0232824D03*
X0158187Y0232824D03*
X0158187Y0227824D03*
X0158187Y0222824D03*
X0158187Y0217824D03*
D19*
X0092351Y0216957D03*
X0092351Y0223650D03*
D20*
X0099044Y0217351D03*
X0099044Y0210658D03*
X0161347Y0212430D03*
X0169123Y0212135D03*
X0169123Y0205442D03*
X0161347Y0205737D03*
X0144713Y0074044D03*
X0144713Y0067351D03*
X0137233Y0067351D03*
X0137233Y0074044D03*
X0127784Y0074044D03*
X0127784Y0067351D03*
X0123084Y0051859D03*
X0123084Y0045166D03*
X0160461Y0064989D03*
X0160461Y0071682D03*
D21*
G36*
X0066089Y0170555D02*
X0068872Y0173338D01*
X0072769Y0169441D01*
X0069986Y0166658D01*
X0066089Y0170555D01*
G37*
G36*
X0057320Y0174034D02*
X0060103Y0176817D01*
X0064000Y0172920D01*
X0061217Y0170137D01*
X0057320Y0174034D01*
G37*
G36*
X0062609Y0179324D02*
X0065392Y0182107D01*
X0069289Y0178210D01*
X0066506Y0175427D01*
X0062609Y0179324D01*
G37*
D22*
G36*
X0178209Y0249108D02*
X0183769Y0246152D01*
X0181367Y0241634D01*
X0175807Y0244590D01*
X0178209Y0249108D01*
G37*
G36*
X0186526Y0264751D02*
X0192086Y0261795D01*
X0189684Y0257277D01*
X0184124Y0260233D01*
X0186526Y0264751D01*
G37*
G36*
X0214162Y0250057D02*
X0219722Y0247101D01*
X0217320Y0242583D01*
X0211760Y0245539D01*
X0214162Y0250057D01*
G37*
G36*
X0205845Y0234414D02*
X0211405Y0231458D01*
X0209003Y0226940D01*
X0203443Y0229896D01*
X0205845Y0234414D01*
G37*
D23*
X0185855Y0060107D03*
X0185855Y0041997D03*
D24*
X0117745Y0249753D03*
X0117745Y0262351D03*
X0096091Y0262351D03*
X0096091Y0249753D03*
D25*
X0245107Y0090186D03*
X0245107Y0082706D03*
X0253769Y0086446D03*
D26*
X0139891Y0054502D03*
X0137331Y0054502D03*
X0134772Y0054502D03*
X0132213Y0054502D03*
X0132213Y0037966D03*
X0134772Y0037966D03*
X0137331Y0037966D03*
X0139891Y0037966D03*
D27*
X0136052Y0046234D03*
D28*
X0256229Y0185166D03*
X0256229Y0199733D03*
M02*
