G75*
%MOIN*%
%OFA0B0*%
%FSLAX25Y25*%
%IPPOS*%
%LPD*%
%AMOC8*
5,1,8,0,0,1.08239X$1,22.5*
%
%ADD10R,0.00100X0.01100*%
%ADD11R,0.00100X0.00100*%
%ADD12R,0.00100X0.00300*%
%ADD13R,0.00100X0.00700*%
%ADD14C,0.01100*%
%ADD15C,0.00500*%
%ADD16C,0.01600*%
%ADD17C,0.04000*%
%ADD18C,0.00400*%
%ADD19R,0.00154X0.00154*%
%ADD20R,0.01075X0.00154*%
%ADD21R,0.01228X0.00154*%
%ADD22R,0.01382X0.00154*%
%ADD23R,0.03531X0.00154*%
%ADD24R,0.02303X0.00154*%
%ADD25R,0.02610X0.00154*%
%ADD26R,0.02917X0.00154*%
%ADD27R,0.01535X0.00154*%
%ADD28R,0.02764X0.00154*%
%ADD29R,0.03224X0.00154*%
%ADD30R,0.03071X0.00154*%
%ADD31R,0.01689X0.00154*%
%ADD32R,0.03378X0.00154*%
%ADD33R,0.03839X0.00154*%
%ADD34R,0.03685X0.00154*%
%ADD35R,0.04146X0.00154*%
%ADD36R,0.03992X0.00154*%
%ADD37R,0.04453X0.00154*%
%ADD38R,0.04760X0.00154*%
%ADD39R,0.01996X0.00154*%
%ADD40R,0.04299X0.00154*%
%ADD41R,0.00768X0.00154*%
%ADD42R,0.01843X0.00154*%
%ADD43R,0.00461X0.00154*%
%ADD44R,0.00307X0.00154*%
%ADD45R,0.02457X0.00154*%
%ADD46R,0.04606X0.00154*%
%ADD47R,0.00921X0.00154*%
%ADD48R,0.00614X0.00154*%
%ADD49R,0.19807X0.00154*%
%ADD50R,0.21650X0.00154*%
%ADD51R,0.22878X0.00154*%
%ADD52R,0.23799X0.00154*%
%ADD53R,0.24720X0.00154*%
%ADD54R,0.25335X0.00154*%
%ADD55R,0.25949X0.00154*%
%ADD56R,0.02150X0.00154*%
%ADD57R,0.10748X0.00154*%
%ADD58R,0.05681X0.00154*%
%ADD59R,0.09520X0.00154*%
%ADD60R,0.08445X0.00154*%
%ADD61R,0.05374X0.00154*%
%ADD62R,0.06909X0.00154*%
%ADD63R,0.05067X0.00154*%
%ADD64R,0.05835X0.00154*%
%ADD65R,0.23646X0.00154*%
%ADD66R,0.23953X0.00154*%
%ADD67R,0.23492X0.00154*%
D10*
X0142445Y0042315D03*
D11*
X0142545Y0041915D03*
D12*
X0142545Y0042215D03*
X0142545Y0042615D03*
D13*
X0142645Y0042315D03*
D14*
X0148637Y0238313D02*
X0148637Y0242216D01*
X0146685Y0242216D01*
X0146035Y0241565D01*
X0146035Y0240264D01*
X0146685Y0239614D01*
X0148637Y0239614D01*
X0150639Y0240915D02*
X0153241Y0240915D01*
X0153241Y0241565D02*
X0152590Y0242216D01*
X0151289Y0242216D01*
X0150639Y0241565D01*
X0150639Y0240915D01*
X0151289Y0239614D02*
X0152590Y0239614D01*
X0153241Y0240264D01*
X0153241Y0241565D01*
X0155243Y0241565D02*
X0155243Y0239614D01*
X0155243Y0241565D02*
X0155893Y0242216D01*
X0157194Y0242216D01*
X0157845Y0241565D01*
X0159613Y0242216D02*
X0160914Y0242216D01*
X0160263Y0242867D02*
X0160263Y0240264D01*
X0159613Y0239614D01*
X0157845Y0239614D02*
X0157845Y0243517D01*
X0162565Y0240264D02*
X0162565Y0239614D01*
X0163216Y0239614D01*
X0163216Y0240264D01*
X0162565Y0240264D01*
X0165218Y0240264D02*
X0165868Y0239614D01*
X0166519Y0240264D01*
X0167169Y0239614D01*
X0167820Y0240264D01*
X0167820Y0242216D01*
X0169822Y0242216D02*
X0169822Y0240264D01*
X0170472Y0239614D01*
X0171123Y0240264D01*
X0171773Y0239614D01*
X0172424Y0240264D01*
X0172424Y0242216D01*
X0174426Y0242216D02*
X0174426Y0240264D01*
X0175076Y0239614D01*
X0175727Y0240264D01*
X0176377Y0239614D01*
X0177028Y0240264D01*
X0177028Y0242216D01*
X0165218Y0242216D02*
X0165218Y0240264D01*
X0144033Y0240264D02*
X0143382Y0239614D01*
X0141431Y0239614D01*
X0141431Y0242216D01*
X0139429Y0242216D02*
X0137477Y0242216D01*
X0136827Y0241565D01*
X0136827Y0240264D01*
X0137477Y0239614D01*
X0139429Y0239614D01*
X0139429Y0243517D01*
X0134825Y0243517D02*
X0134175Y0243517D01*
X0134175Y0239614D01*
X0134825Y0239614D02*
X0133524Y0239614D01*
X0131756Y0239614D02*
X0130455Y0239614D01*
X0131105Y0239614D02*
X0131105Y0242216D01*
X0131756Y0242216D01*
X0131105Y0243517D02*
X0131105Y0244168D01*
X0128687Y0241565D02*
X0128036Y0242216D01*
X0126084Y0242216D01*
X0124083Y0242216D02*
X0124083Y0239614D01*
X0124083Y0240915D02*
X0122782Y0242216D01*
X0122131Y0242216D01*
X0119595Y0242216D02*
X0118294Y0242216D01*
X0117644Y0241565D01*
X0117644Y0239614D01*
X0119595Y0239614D01*
X0120246Y0240264D01*
X0119595Y0240915D01*
X0117644Y0240915D01*
X0115642Y0241565D02*
X0114992Y0242216D01*
X0113040Y0242216D01*
X0113040Y0243517D02*
X0113040Y0239614D01*
X0114992Y0239614D01*
X0115642Y0240264D01*
X0115642Y0241565D01*
X0111038Y0240264D02*
X0111038Y0239614D01*
X0110388Y0239614D01*
X0110388Y0240264D01*
X0111038Y0240264D01*
X0108736Y0239614D02*
X0107435Y0239614D01*
X0108086Y0239614D02*
X0108086Y0242216D01*
X0108736Y0242216D01*
X0108086Y0243517D02*
X0108086Y0244168D01*
X0105667Y0241565D02*
X0105667Y0240264D01*
X0105016Y0239614D01*
X0103715Y0239614D01*
X0103065Y0240264D01*
X0103065Y0241565D01*
X0103715Y0242216D01*
X0105016Y0242216D01*
X0105667Y0241565D01*
X0126084Y0239614D02*
X0128036Y0239614D01*
X0128687Y0240264D01*
X0128687Y0241565D01*
X0144033Y0242216D02*
X0144033Y0240264D01*
D15*
X0077595Y0039261D02*
X0030595Y0039261D01*
X0030595Y0048261D01*
X0077595Y0048261D01*
X0077595Y0039261D01*
X0030595Y0048261D02*
X0030595Y0085261D01*
X0077595Y0085261D01*
X0077595Y0094261D01*
X0030595Y0094261D01*
X0030595Y0085261D01*
X0030595Y0184930D02*
X0077595Y0184930D01*
X0077595Y0193930D01*
X0030595Y0193930D01*
X0030595Y0230930D01*
X0077595Y0230930D01*
X0077595Y0239930D01*
X0030595Y0239930D01*
X0030595Y0230930D01*
X0030595Y0193930D02*
X0030595Y0184930D01*
X0116826Y0256944D02*
X0117276Y0256494D01*
X0118627Y0256494D01*
X0118627Y0255593D02*
X0118627Y0258296D01*
X0117276Y0258296D01*
X0116826Y0257845D01*
X0116826Y0256944D01*
X0119772Y0256494D02*
X0119772Y0256044D01*
X0120223Y0255593D01*
X0121123Y0255593D01*
X0121574Y0256044D01*
X0121123Y0256944D02*
X0120223Y0256944D01*
X0119772Y0256494D01*
X0119772Y0257845D02*
X0120223Y0258296D01*
X0121123Y0258296D01*
X0121574Y0257845D01*
X0121574Y0257395D01*
X0121123Y0256944D01*
X0122637Y0255593D02*
X0123538Y0255593D01*
X0123088Y0255593D02*
X0123088Y0258296D01*
X0123538Y0258296D02*
X0122637Y0258296D01*
X0201595Y0239930D02*
X0201595Y0230930D01*
X0248595Y0230930D01*
X0248595Y0239930D01*
X0201595Y0239930D01*
X0248595Y0230930D02*
X0248595Y0193930D01*
X0201595Y0193930D01*
X0201595Y0184930D01*
X0248595Y0184930D01*
X0248595Y0193930D01*
X0248595Y0094261D02*
X0201595Y0094261D01*
X0201595Y0085261D01*
X0248595Y0085261D01*
X0248595Y0048261D01*
X0201595Y0048261D01*
X0201595Y0039261D01*
X0248595Y0039261D01*
X0248595Y0048261D01*
X0248595Y0085261D02*
X0248595Y0094261D01*
D16*
X0189595Y0080761D02*
X0189595Y0052761D01*
X0189593Y0052701D01*
X0189588Y0052640D01*
X0189579Y0052581D01*
X0189566Y0052522D01*
X0189550Y0052463D01*
X0189530Y0052406D01*
X0189507Y0052351D01*
X0189480Y0052296D01*
X0189451Y0052244D01*
X0189418Y0052193D01*
X0189382Y0052144D01*
X0189344Y0052098D01*
X0189302Y0052054D01*
X0189258Y0052012D01*
X0189212Y0051974D01*
X0189163Y0051938D01*
X0189112Y0051905D01*
X0189060Y0051876D01*
X0189005Y0051849D01*
X0188950Y0051826D01*
X0188893Y0051806D01*
X0188834Y0051790D01*
X0188775Y0051777D01*
X0188716Y0051768D01*
X0188655Y0051763D01*
X0188595Y0051761D01*
X0124595Y0051761D01*
X0095595Y0051761D01*
X0095535Y0051763D01*
X0095474Y0051768D01*
X0095415Y0051777D01*
X0095356Y0051790D01*
X0095297Y0051806D01*
X0095240Y0051826D01*
X0095185Y0051849D01*
X0095130Y0051876D01*
X0095078Y0051905D01*
X0095027Y0051938D01*
X0094978Y0051974D01*
X0094932Y0052012D01*
X0094888Y0052054D01*
X0094846Y0052098D01*
X0094808Y0052144D01*
X0094772Y0052193D01*
X0094739Y0052244D01*
X0094710Y0052296D01*
X0094683Y0052351D01*
X0094660Y0052406D01*
X0094640Y0052463D01*
X0094624Y0052522D01*
X0094611Y0052581D01*
X0094602Y0052640D01*
X0094597Y0052701D01*
X0094595Y0052761D01*
X0094595Y0059261D01*
X0090595Y0059261D01*
X0090535Y0059263D01*
X0090474Y0059268D01*
X0090415Y0059277D01*
X0090356Y0059290D01*
X0090297Y0059306D01*
X0090240Y0059326D01*
X0090185Y0059349D01*
X0090130Y0059376D01*
X0090078Y0059405D01*
X0090027Y0059438D01*
X0089978Y0059474D01*
X0089932Y0059512D01*
X0089888Y0059554D01*
X0089846Y0059598D01*
X0089808Y0059644D01*
X0089772Y0059693D01*
X0089739Y0059744D01*
X0089710Y0059796D01*
X0089683Y0059851D01*
X0089660Y0059906D01*
X0089640Y0059963D01*
X0089624Y0060022D01*
X0089611Y0060081D01*
X0089602Y0060140D01*
X0089597Y0060201D01*
X0089595Y0060261D01*
X0089595Y0073261D01*
X0089597Y0073321D01*
X0089602Y0073382D01*
X0089611Y0073441D01*
X0089624Y0073500D01*
X0089640Y0073559D01*
X0089660Y0073616D01*
X0089683Y0073671D01*
X0089710Y0073726D01*
X0089739Y0073778D01*
X0089772Y0073829D01*
X0089808Y0073878D01*
X0089846Y0073924D01*
X0089888Y0073968D01*
X0089932Y0074010D01*
X0089978Y0074048D01*
X0090027Y0074084D01*
X0090078Y0074117D01*
X0090130Y0074146D01*
X0090185Y0074173D01*
X0090240Y0074196D01*
X0090297Y0074216D01*
X0090356Y0074232D01*
X0090415Y0074245D01*
X0090474Y0074254D01*
X0090535Y0074259D01*
X0090595Y0074261D01*
X0094595Y0074261D01*
X0094595Y0059261D01*
X0094595Y0074261D02*
X0094595Y0080761D01*
X0094597Y0080821D01*
X0094602Y0080882D01*
X0094611Y0080941D01*
X0094624Y0081000D01*
X0094640Y0081059D01*
X0094660Y0081116D01*
X0094683Y0081171D01*
X0094710Y0081226D01*
X0094739Y0081278D01*
X0094772Y0081329D01*
X0094808Y0081378D01*
X0094846Y0081424D01*
X0094888Y0081468D01*
X0094932Y0081510D01*
X0094978Y0081548D01*
X0095027Y0081584D01*
X0095078Y0081617D01*
X0095130Y0081646D01*
X0095185Y0081673D01*
X0095240Y0081696D01*
X0095297Y0081716D01*
X0095356Y0081732D01*
X0095415Y0081745D01*
X0095474Y0081754D01*
X0095535Y0081759D01*
X0095595Y0081761D01*
X0124595Y0081761D01*
X0188595Y0081761D01*
X0188655Y0081759D01*
X0188716Y0081754D01*
X0188775Y0081745D01*
X0188834Y0081732D01*
X0188893Y0081716D01*
X0188950Y0081696D01*
X0189005Y0081673D01*
X0189060Y0081646D01*
X0189112Y0081617D01*
X0189163Y0081584D01*
X0189212Y0081548D01*
X0189258Y0081510D01*
X0189302Y0081468D01*
X0189344Y0081424D01*
X0189382Y0081378D01*
X0189418Y0081329D01*
X0189451Y0081278D01*
X0189480Y0081226D01*
X0189507Y0081171D01*
X0189530Y0081116D01*
X0189550Y0081059D01*
X0189566Y0081000D01*
X0189579Y0080941D01*
X0189588Y0080882D01*
X0189593Y0080821D01*
X0189595Y0080761D01*
X0124595Y0081761D02*
X0124595Y0051761D01*
X0154595Y0197430D02*
X0090595Y0197430D01*
X0090535Y0197432D01*
X0090474Y0197437D01*
X0090415Y0197446D01*
X0090356Y0197459D01*
X0090297Y0197475D01*
X0090240Y0197495D01*
X0090185Y0197518D01*
X0090130Y0197545D01*
X0090078Y0197574D01*
X0090027Y0197607D01*
X0089978Y0197643D01*
X0089932Y0197681D01*
X0089888Y0197723D01*
X0089846Y0197767D01*
X0089808Y0197813D01*
X0089772Y0197862D01*
X0089739Y0197913D01*
X0089710Y0197965D01*
X0089683Y0198020D01*
X0089660Y0198075D01*
X0089640Y0198132D01*
X0089624Y0198191D01*
X0089611Y0198250D01*
X0089602Y0198309D01*
X0089597Y0198370D01*
X0089595Y0198430D01*
X0089595Y0226430D01*
X0089597Y0226490D01*
X0089602Y0226551D01*
X0089611Y0226610D01*
X0089624Y0226669D01*
X0089640Y0226728D01*
X0089660Y0226785D01*
X0089683Y0226840D01*
X0089710Y0226895D01*
X0089739Y0226947D01*
X0089772Y0226998D01*
X0089808Y0227047D01*
X0089846Y0227093D01*
X0089888Y0227137D01*
X0089932Y0227179D01*
X0089978Y0227217D01*
X0090027Y0227253D01*
X0090078Y0227286D01*
X0090130Y0227315D01*
X0090185Y0227342D01*
X0090240Y0227365D01*
X0090297Y0227385D01*
X0090356Y0227401D01*
X0090415Y0227414D01*
X0090474Y0227423D01*
X0090535Y0227428D01*
X0090595Y0227430D01*
X0154595Y0227430D01*
X0183595Y0227430D01*
X0183655Y0227428D01*
X0183716Y0227423D01*
X0183775Y0227414D01*
X0183834Y0227401D01*
X0183893Y0227385D01*
X0183950Y0227365D01*
X0184005Y0227342D01*
X0184060Y0227315D01*
X0184112Y0227286D01*
X0184163Y0227253D01*
X0184212Y0227217D01*
X0184258Y0227179D01*
X0184302Y0227137D01*
X0184344Y0227093D01*
X0184382Y0227047D01*
X0184418Y0226998D01*
X0184451Y0226947D01*
X0184480Y0226895D01*
X0184507Y0226840D01*
X0184530Y0226785D01*
X0184550Y0226728D01*
X0184566Y0226669D01*
X0184579Y0226610D01*
X0184588Y0226551D01*
X0184593Y0226490D01*
X0184595Y0226430D01*
X0184595Y0219930D01*
X0188595Y0219930D01*
X0188655Y0219928D01*
X0188716Y0219923D01*
X0188775Y0219914D01*
X0188834Y0219901D01*
X0188893Y0219885D01*
X0188950Y0219865D01*
X0189005Y0219842D01*
X0189060Y0219815D01*
X0189112Y0219786D01*
X0189163Y0219753D01*
X0189212Y0219717D01*
X0189258Y0219679D01*
X0189302Y0219637D01*
X0189344Y0219593D01*
X0189382Y0219547D01*
X0189418Y0219498D01*
X0189451Y0219447D01*
X0189480Y0219395D01*
X0189507Y0219340D01*
X0189530Y0219285D01*
X0189550Y0219228D01*
X0189566Y0219169D01*
X0189579Y0219110D01*
X0189588Y0219051D01*
X0189593Y0218990D01*
X0189595Y0218930D01*
X0189595Y0205930D01*
X0189593Y0205870D01*
X0189588Y0205809D01*
X0189579Y0205750D01*
X0189566Y0205691D01*
X0189550Y0205632D01*
X0189530Y0205575D01*
X0189507Y0205520D01*
X0189480Y0205465D01*
X0189451Y0205413D01*
X0189418Y0205362D01*
X0189382Y0205313D01*
X0189344Y0205267D01*
X0189302Y0205223D01*
X0189258Y0205181D01*
X0189212Y0205143D01*
X0189163Y0205107D01*
X0189112Y0205074D01*
X0189060Y0205045D01*
X0189005Y0205018D01*
X0188950Y0204995D01*
X0188893Y0204975D01*
X0188834Y0204959D01*
X0188775Y0204946D01*
X0188716Y0204937D01*
X0188655Y0204932D01*
X0188595Y0204930D01*
X0184595Y0204930D01*
X0184595Y0219930D01*
X0184595Y0204930D02*
X0184595Y0198430D01*
X0184593Y0198370D01*
X0184588Y0198309D01*
X0184579Y0198250D01*
X0184566Y0198191D01*
X0184550Y0198132D01*
X0184530Y0198075D01*
X0184507Y0198020D01*
X0184480Y0197965D01*
X0184451Y0197913D01*
X0184418Y0197862D01*
X0184382Y0197813D01*
X0184344Y0197767D01*
X0184302Y0197723D01*
X0184258Y0197681D01*
X0184212Y0197643D01*
X0184163Y0197607D01*
X0184112Y0197574D01*
X0184060Y0197545D01*
X0184005Y0197518D01*
X0183950Y0197495D01*
X0183893Y0197475D01*
X0183834Y0197459D01*
X0183775Y0197446D01*
X0183716Y0197437D01*
X0183655Y0197432D01*
X0183595Y0197430D01*
X0154595Y0197430D01*
X0154595Y0227430D01*
D17*
X0169595Y0220430D02*
X0169595Y0204430D01*
X0161595Y0212430D02*
X0177595Y0212430D01*
X0109595Y0074761D02*
X0109595Y0058761D01*
X0117595Y0066761D02*
X0101595Y0066761D01*
D18*
X0133489Y0089692D02*
X0134823Y0088358D01*
X0134823Y0088024D01*
X0136366Y0088024D02*
X0136366Y0090026D01*
X0137033Y0090026D02*
X0135699Y0090026D01*
X0134823Y0090026D02*
X0133489Y0090026D01*
X0133489Y0089692D01*
X0152780Y0089539D02*
X0153114Y0089205D01*
X0153781Y0089205D01*
X0154115Y0089539D01*
X0154115Y0090206D01*
X0153114Y0090206D01*
X0152780Y0089872D01*
X0152780Y0089539D01*
X0153447Y0090873D02*
X0154115Y0090206D01*
X0153447Y0090873D02*
X0152780Y0091207D01*
X0154990Y0091207D02*
X0156324Y0091207D01*
X0155657Y0091207D02*
X0155657Y0089205D01*
X0206722Y0100611D02*
X0207055Y0100278D01*
X0207723Y0100278D01*
X0208056Y0100611D01*
X0208056Y0101278D01*
X0207055Y0101278D01*
X0206722Y0100945D01*
X0206722Y0100611D01*
X0208056Y0101278D02*
X0207389Y0101946D01*
X0206722Y0102279D01*
X0209599Y0102279D02*
X0209599Y0100278D01*
X0210266Y0100278D02*
X0208932Y0100278D01*
X0210266Y0101612D02*
X0209599Y0102279D01*
X0211142Y0102279D02*
X0212476Y0102279D01*
X0211809Y0102279D02*
X0211809Y0100278D01*
X0231766Y0130741D02*
X0233101Y0130741D01*
X0231766Y0132075D01*
X0231766Y0132409D01*
X0232100Y0132742D01*
X0232767Y0132742D01*
X0233101Y0132409D01*
X0233976Y0132742D02*
X0235311Y0132742D01*
X0234643Y0132742D02*
X0234643Y0130741D01*
X0249364Y0131117D02*
X0250698Y0131117D01*
X0249698Y0132118D01*
X0249698Y0130117D01*
X0251574Y0130117D02*
X0252908Y0130117D01*
X0252241Y0130117D02*
X0252241Y0132118D01*
X0252908Y0131451D01*
X0253784Y0132118D02*
X0255118Y0132118D01*
X0254451Y0132118D02*
X0254451Y0130117D01*
X0249210Y0151311D02*
X0249210Y0153313D01*
X0248543Y0153313D02*
X0249878Y0153313D01*
X0247668Y0152645D02*
X0247000Y0153313D01*
X0247000Y0151311D01*
X0246333Y0151311D02*
X0247668Y0151311D01*
X0245458Y0151645D02*
X0245124Y0151311D01*
X0244457Y0151311D01*
X0244123Y0151645D01*
X0244123Y0152312D01*
X0244457Y0152645D01*
X0244791Y0152645D01*
X0245458Y0152312D01*
X0245458Y0153313D01*
X0244123Y0153313D01*
X0196482Y0161679D02*
X0195147Y0161679D01*
X0195815Y0161679D02*
X0195815Y0159677D01*
X0194272Y0159677D02*
X0192938Y0159677D01*
X0193605Y0159677D02*
X0193605Y0161679D01*
X0194272Y0161012D01*
X0192062Y0161679D02*
X0190728Y0161679D01*
X0190728Y0161345D01*
X0192062Y0160011D01*
X0192062Y0159677D01*
X0192385Y0239993D02*
X0192052Y0240326D01*
X0192052Y0241661D01*
X0192385Y0241994D01*
X0193053Y0241994D01*
X0193386Y0241661D01*
X0193386Y0241327D01*
X0193053Y0240993D01*
X0192052Y0240993D01*
X0192385Y0239993D02*
X0193053Y0239993D01*
X0193386Y0240326D01*
X0194929Y0239993D02*
X0194929Y0241994D01*
X0195596Y0241994D02*
X0194262Y0241994D01*
X0194338Y0244422D02*
X0194338Y0246423D01*
X0193671Y0246423D02*
X0195006Y0246423D01*
X0192796Y0246090D02*
X0192796Y0245756D01*
X0192462Y0245423D01*
X0191795Y0245423D01*
X0191461Y0245089D01*
X0191461Y0244755D01*
X0191795Y0244422D01*
X0192462Y0244422D01*
X0192796Y0244755D01*
X0192796Y0245089D01*
X0192462Y0245423D01*
X0191795Y0245423D02*
X0191461Y0245756D01*
X0191461Y0246090D01*
X0191795Y0246423D01*
X0192462Y0246423D01*
X0192796Y0246090D01*
X0192870Y0259264D02*
X0193204Y0259598D01*
X0191869Y0260932D01*
X0191869Y0259598D01*
X0192203Y0259264D01*
X0192870Y0259264D01*
X0193204Y0259598D02*
X0193204Y0260932D01*
X0192870Y0261266D01*
X0192203Y0261266D01*
X0191869Y0260932D01*
X0194079Y0259264D02*
X0195414Y0259264D01*
X0194747Y0259264D02*
X0194747Y0261266D01*
X0195414Y0260599D01*
X0196289Y0261266D02*
X0197624Y0261266D01*
X0196956Y0261266D02*
X0196956Y0259264D01*
X0178886Y0265091D02*
X0178886Y0267093D01*
X0179553Y0267093D02*
X0178218Y0267093D01*
X0177343Y0266425D02*
X0176676Y0267093D01*
X0176676Y0265091D01*
X0177343Y0265091D02*
X0176008Y0265091D01*
X0175133Y0265425D02*
X0174799Y0265091D01*
X0174132Y0265091D01*
X0173799Y0265425D01*
X0173799Y0265758D01*
X0174132Y0266092D01*
X0174466Y0266092D01*
X0174132Y0266092D02*
X0173799Y0266425D01*
X0173799Y0266759D01*
X0174132Y0267093D01*
X0174799Y0267093D01*
X0175133Y0266759D01*
X0164789Y0266699D02*
X0163455Y0266699D01*
X0164122Y0266699D02*
X0164122Y0264697D01*
X0162579Y0265031D02*
X0162245Y0264697D01*
X0161578Y0264697D01*
X0161245Y0265031D01*
X0161245Y0265698D01*
X0161578Y0266032D01*
X0161912Y0266032D01*
X0162579Y0265698D01*
X0162579Y0266699D01*
X0161245Y0266699D01*
X0160588Y0254888D02*
X0160588Y0252886D01*
X0161255Y0252886D02*
X0159921Y0252886D01*
X0161255Y0254221D02*
X0160588Y0254888D01*
X0162798Y0254888D02*
X0162798Y0252886D01*
X0163465Y0252886D02*
X0162130Y0252886D01*
X0163465Y0254221D02*
X0162798Y0254888D01*
X0164340Y0254888D02*
X0165675Y0254888D01*
X0165008Y0254888D02*
X0165008Y0252886D01*
X0171535Y0252788D02*
X0172869Y0252788D01*
X0171535Y0254122D01*
X0171535Y0254456D01*
X0171868Y0254790D01*
X0172536Y0254790D01*
X0172869Y0254456D01*
X0174412Y0254790D02*
X0174412Y0252788D01*
X0175079Y0252788D02*
X0173745Y0252788D01*
X0175079Y0254122D02*
X0174412Y0254790D01*
X0175955Y0254790D02*
X0177289Y0254790D01*
X0176622Y0254790D02*
X0176622Y0252788D01*
X0053175Y0179002D02*
X0051840Y0179002D01*
X0052508Y0179002D02*
X0052508Y0177000D01*
X0050965Y0177000D02*
X0049630Y0177000D01*
X0050298Y0177000D02*
X0050298Y0179002D01*
X0050965Y0178334D01*
D19*
X0147733Y0047481D03*
X0148040Y0046867D03*
X0148040Y0046560D03*
X0148040Y0045639D03*
X0148040Y0045331D03*
X0148040Y0044410D03*
X0148040Y0044103D03*
X0148040Y0043182D03*
X0148040Y0042875D03*
X0148040Y0041954D03*
X0148040Y0041646D03*
X0148040Y0040725D03*
X0148040Y0040418D03*
X0148040Y0039497D03*
X0148040Y0039190D03*
X0148040Y0038269D03*
X0148040Y0037961D03*
X0148040Y0037040D03*
X0146198Y0037347D03*
X0146198Y0037654D03*
X0146198Y0038576D03*
X0146198Y0038883D03*
X0146198Y0039804D03*
X0146198Y0040111D03*
X0146198Y0041032D03*
X0146198Y0041339D03*
X0146198Y0042261D03*
X0146198Y0042568D03*
X0146198Y0043489D03*
X0146198Y0043796D03*
X0146198Y0044717D03*
X0146198Y0045024D03*
X0146198Y0045946D03*
X0146198Y0046253D03*
X0146198Y0047174D03*
X0151418Y0036426D03*
X0151418Y0036119D03*
X0151418Y0035198D03*
X0151418Y0034891D03*
X0151418Y0033969D03*
X0151418Y0033662D03*
X0151418Y0032741D03*
X0151418Y0032434D03*
X0151725Y0032127D03*
X0152646Y0031206D03*
X0152954Y0030898D03*
X0153261Y0030284D03*
X0153261Y0029977D03*
X0153568Y0029670D03*
X0153568Y0029363D03*
X0153568Y0028442D03*
X0153568Y0028135D03*
X0153568Y0027213D03*
X0153568Y0026906D03*
X0153568Y0025985D03*
X0153568Y0025678D03*
X0151725Y0026292D03*
X0151725Y0026599D03*
X0151725Y0027520D03*
X0151725Y0027828D03*
X0151725Y0028749D03*
X0151418Y0029363D03*
X0151418Y0029670D03*
X0151111Y0029977D03*
X0149115Y0031052D03*
X0148808Y0031052D03*
X0148654Y0031206D03*
X0148347Y0031206D03*
X0148040Y0031206D03*
X0147733Y0031206D03*
X0147426Y0031206D03*
X0147119Y0031206D03*
X0146812Y0031206D03*
X0146505Y0031206D03*
X0146198Y0031206D03*
X0145891Y0031206D03*
X0145583Y0031206D03*
X0145276Y0031206D03*
X0144969Y0031206D03*
X0144662Y0031206D03*
X0144355Y0031206D03*
X0144048Y0031206D03*
X0143741Y0031206D03*
X0143434Y0031206D03*
X0143127Y0031206D03*
X0142820Y0031206D03*
X0142513Y0031206D03*
X0142513Y0031513D03*
X0142206Y0031206D03*
X0141898Y0031206D03*
X0143434Y0031820D03*
X0143587Y0031973D03*
X0144509Y0032280D03*
X0145430Y0032587D03*
X0145891Y0032741D03*
X0146198Y0032741D03*
X0146351Y0032894D03*
X0146812Y0033048D03*
X0147119Y0033048D03*
X0148654Y0033662D03*
X0148808Y0034737D03*
X0148194Y0034737D03*
X0147580Y0034737D03*
X0147272Y0034737D03*
X0146965Y0034737D03*
X0146351Y0034737D03*
X0145737Y0034737D03*
X0145123Y0034737D03*
X0144509Y0034737D03*
X0143894Y0034737D03*
X0143280Y0034737D03*
X0142666Y0034737D03*
X0142052Y0034737D03*
X0141438Y0034737D03*
X0140824Y0034737D03*
X0140209Y0034737D03*
X0139595Y0034737D03*
X0138981Y0034737D03*
X0138367Y0034737D03*
X0137753Y0034737D03*
X0137139Y0034737D03*
X0136524Y0034737D03*
X0135910Y0034737D03*
X0135296Y0034737D03*
X0134682Y0034737D03*
X0134068Y0034737D03*
X0133454Y0034737D03*
X0132839Y0034737D03*
X0132225Y0034737D03*
X0131611Y0034737D03*
X0130997Y0034737D03*
X0130383Y0034737D03*
X0129769Y0034737D03*
X0129154Y0034737D03*
X0128540Y0034737D03*
X0128387Y0034891D03*
X0127772Y0036119D03*
X0127772Y0036426D03*
X0128080Y0036733D03*
X0128233Y0036887D03*
X0128540Y0036887D03*
X0130229Y0037347D03*
X0130229Y0037654D03*
X0130229Y0038576D03*
X0130229Y0038883D03*
X0130229Y0039804D03*
X0133914Y0039497D03*
X0133914Y0039190D03*
X0133914Y0038269D03*
X0133914Y0037961D03*
X0133914Y0037040D03*
X0131918Y0033202D03*
X0132072Y0033048D03*
X0132379Y0032434D03*
X0132072Y0031820D03*
X0131457Y0031206D03*
X0131150Y0031206D03*
X0130843Y0031206D03*
X0130536Y0031206D03*
X0130076Y0031052D03*
X0128387Y0030591D03*
X0128080Y0030284D03*
X0127772Y0029670D03*
X0127465Y0029056D03*
X0127465Y0028749D03*
X0127465Y0027828D03*
X0127465Y0027520D03*
X0127465Y0026599D03*
X0127465Y0026292D03*
X0125623Y0025985D03*
X0125623Y0025678D03*
X0125623Y0026906D03*
X0125623Y0027213D03*
X0125623Y0028135D03*
X0125623Y0028442D03*
X0125623Y0029363D03*
X0125623Y0029670D03*
X0126544Y0031513D03*
X0126851Y0031820D03*
X0127772Y0032434D03*
X0128387Y0032741D03*
X0129001Y0033048D03*
X0129308Y0033048D03*
X0129461Y0033202D03*
X0129769Y0033202D03*
X0128387Y0024450D03*
X0128694Y0024143D03*
X0129615Y0023528D03*
X0130076Y0023375D03*
X0130229Y0023221D03*
X0130229Y0021072D03*
X0130536Y0021072D03*
X0131765Y0019229D03*
X0132072Y0019229D03*
X0132993Y0019229D03*
X0133300Y0019229D03*
X0132839Y0018154D03*
X0132532Y0018154D03*
X0131611Y0017847D03*
X0130997Y0017540D03*
X0130997Y0015391D03*
X0132532Y0014776D03*
X0132839Y0014776D03*
X0133300Y0013702D03*
X0131765Y0013702D03*
X0125316Y0013702D03*
X0125009Y0013702D03*
X0124702Y0013702D03*
X0124394Y0013702D03*
X0122552Y0013702D03*
X0122245Y0013702D03*
X0121938Y0013702D03*
X0121631Y0013702D03*
X0121324Y0013702D03*
X0120402Y0013702D03*
X0120095Y0013702D03*
X0119788Y0013702D03*
X0119481Y0013702D03*
X0118560Y0014930D03*
X0118253Y0014930D03*
X0117946Y0014930D03*
X0117639Y0014930D03*
X0117331Y0014930D03*
X0117024Y0014930D03*
X0116717Y0014930D03*
X0115796Y0013702D03*
X0115489Y0013702D03*
X0115182Y0013702D03*
X0114875Y0013702D03*
X0113646Y0013702D03*
X0113339Y0013702D03*
X0113032Y0013702D03*
X0112725Y0013702D03*
X0112418Y0013702D03*
X0112111Y0013702D03*
X0111804Y0013702D03*
X0110576Y0014009D03*
X0107812Y0013702D03*
X0107505Y0013702D03*
X0107198Y0013702D03*
X0103513Y0013702D03*
X0103052Y0014776D03*
X0102438Y0014776D03*
X0101977Y0013702D03*
X0102438Y0018154D03*
X0102745Y0018154D03*
X0103513Y0018001D03*
X0103513Y0019229D03*
X0103206Y0019229D03*
X0102898Y0019229D03*
X0102591Y0019229D03*
X0102284Y0019229D03*
X0101977Y0019229D03*
X0111036Y0019076D03*
X0111497Y0018001D03*
X0117639Y0019536D03*
X0123013Y0019076D03*
X0122706Y0016005D03*
X0128080Y0021993D03*
X0126851Y0023221D03*
X0136985Y0013702D03*
X0137292Y0013702D03*
X0137599Y0013702D03*
X0137906Y0013702D03*
X0139442Y0013702D03*
X0139749Y0013702D03*
X0140056Y0013702D03*
X0140363Y0013702D03*
X0140670Y0013702D03*
X0140977Y0013702D03*
X0141284Y0013702D03*
X0141591Y0013702D03*
X0141898Y0013702D03*
X0145276Y0013702D03*
X0145583Y0013702D03*
X0145891Y0013702D03*
X0146198Y0013702D03*
X0146505Y0013702D03*
X0146812Y0013702D03*
X0150190Y0013702D03*
X0150650Y0014776D03*
X0150957Y0014776D03*
X0152493Y0014162D03*
X0155717Y0015851D03*
X0156178Y0016926D03*
X0151572Y0022146D03*
X0151111Y0021993D03*
X0152032Y0022607D03*
X0152339Y0023221D03*
X0149576Y0023528D03*
X0148961Y0023221D03*
X0148654Y0023221D03*
X0148654Y0021072D03*
X0144816Y0019076D03*
X0156639Y0013702D03*
X0156946Y0013702D03*
X0157253Y0013702D03*
X0157560Y0013702D03*
X0163394Y0013702D03*
X0163702Y0013702D03*
X0164009Y0013702D03*
X0164316Y0013702D03*
X0164623Y0013702D03*
X0164930Y0013702D03*
X0165237Y0013702D03*
X0165544Y0013702D03*
X0165851Y0013702D03*
X0166158Y0013702D03*
X0166465Y0013702D03*
X0168308Y0013702D03*
X0168615Y0013702D03*
X0168922Y0013702D03*
X0169229Y0013702D03*
X0171686Y0013702D03*
X0171993Y0013702D03*
X0172300Y0013702D03*
X0172607Y0013702D03*
X0175678Y0013702D03*
X0175985Y0013702D03*
X0176292Y0013702D03*
X0176599Y0013702D03*
X0171225Y0017233D03*
X0170918Y0017233D03*
X0170611Y0017233D03*
X0170304Y0017233D03*
X0169997Y0017233D03*
X0169690Y0017233D03*
X0165391Y0017233D03*
X0165083Y0017233D03*
X0164776Y0017233D03*
X0164469Y0017233D03*
X0164162Y0017233D03*
X0163855Y0017233D03*
X0163548Y0017233D03*
X0163394Y0016158D03*
X0163702Y0016158D03*
X0164009Y0016158D03*
X0164316Y0016158D03*
X0164623Y0016158D03*
X0164930Y0016158D03*
X0165237Y0016158D03*
D20*
X0172146Y0015851D03*
X0172146Y0015544D03*
X0172146Y0015237D03*
X0172146Y0014930D03*
X0172146Y0014623D03*
X0172146Y0014316D03*
X0172146Y0014009D03*
X0172146Y0017387D03*
X0172146Y0017694D03*
X0172146Y0018001D03*
X0172146Y0018308D03*
X0172146Y0018615D03*
X0172146Y0018922D03*
X0157099Y0018001D03*
X0157099Y0017694D03*
X0157099Y0017387D03*
X0157099Y0017080D03*
X0157099Y0015544D03*
X0157099Y0015237D03*
X0157099Y0014930D03*
X0157099Y0014623D03*
X0157099Y0014316D03*
X0157099Y0014009D03*
X0152493Y0015851D03*
X0152493Y0016158D03*
X0152493Y0016465D03*
X0152493Y0016772D03*
X0152493Y0017080D03*
X0152493Y0017387D03*
X0152493Y0017694D03*
X0152493Y0018001D03*
X0152493Y0018308D03*
X0152493Y0018615D03*
X0152493Y0018922D03*
X0149115Y0018922D03*
X0149115Y0018615D03*
X0149115Y0018308D03*
X0149115Y0018001D03*
X0149115Y0017694D03*
X0149115Y0017387D03*
X0149115Y0017080D03*
X0149115Y0016772D03*
X0149115Y0016465D03*
X0149115Y0016158D03*
X0149115Y0015851D03*
X0149115Y0015544D03*
X0150957Y0013702D03*
X0143894Y0015237D03*
X0143894Y0015544D03*
X0134989Y0015851D03*
X0134989Y0017080D03*
X0132532Y0013702D03*
X0124855Y0014009D03*
X0124855Y0014316D03*
X0124855Y0014623D03*
X0124855Y0014930D03*
X0124855Y0015237D03*
X0124855Y0015544D03*
X0124855Y0017080D03*
X0124855Y0017387D03*
X0124855Y0017694D03*
X0124855Y0018001D03*
X0117639Y0018769D03*
X0107505Y0018769D03*
X0107505Y0019076D03*
X0107505Y0018461D03*
X0107505Y0018154D03*
X0107505Y0017847D03*
X0107505Y0017540D03*
X0107505Y0017233D03*
X0107505Y0016926D03*
X0107505Y0016619D03*
X0107505Y0016312D03*
X0107505Y0016005D03*
X0107505Y0015698D03*
X0107505Y0015391D03*
X0107505Y0015083D03*
X0107505Y0014776D03*
X0107505Y0014469D03*
X0107505Y0014162D03*
X0107505Y0013855D03*
X0105202Y0016158D03*
X0105202Y0016465D03*
X0105202Y0016772D03*
X0100288Y0015851D03*
X0102745Y0013702D03*
X0147119Y0047635D03*
D21*
X0141515Y0019076D03*
X0141515Y0018922D03*
X0141515Y0018769D03*
X0141515Y0018615D03*
X0141515Y0018461D03*
X0141515Y0018308D03*
X0141515Y0018154D03*
X0141515Y0018001D03*
X0141515Y0017847D03*
X0141515Y0017694D03*
X0141515Y0017540D03*
X0141515Y0017387D03*
X0141515Y0017233D03*
X0141515Y0017080D03*
X0141515Y0016926D03*
X0141515Y0016772D03*
X0141515Y0016619D03*
X0141515Y0016465D03*
X0141515Y0016312D03*
X0141515Y0016158D03*
X0141515Y0016005D03*
X0141515Y0015851D03*
X0141515Y0015698D03*
X0141515Y0015544D03*
X0141515Y0015391D03*
X0141515Y0015237D03*
X0141515Y0015083D03*
X0141515Y0014930D03*
X0143971Y0015698D03*
X0144432Y0017387D03*
X0144432Y0017540D03*
X0144432Y0017694D03*
X0146428Y0017694D03*
X0146428Y0017847D03*
X0146428Y0018001D03*
X0146428Y0017540D03*
X0146428Y0017387D03*
X0146428Y0017233D03*
X0146428Y0017080D03*
X0146428Y0015851D03*
X0146428Y0015698D03*
X0146428Y0015544D03*
X0146428Y0015391D03*
X0146428Y0015237D03*
X0146428Y0015083D03*
X0146428Y0014930D03*
X0149192Y0015237D03*
X0152263Y0015083D03*
X0152416Y0015544D03*
X0154873Y0017080D03*
X0154873Y0017233D03*
X0154873Y0017387D03*
X0154873Y0017540D03*
X0154873Y0017694D03*
X0166235Y0017694D03*
X0166235Y0017847D03*
X0166235Y0018001D03*
X0166235Y0017540D03*
X0166235Y0017387D03*
X0166235Y0017233D03*
X0166235Y0016005D03*
X0166235Y0015851D03*
X0166235Y0015698D03*
X0166235Y0015544D03*
X0166235Y0015391D03*
X0166235Y0015237D03*
X0166235Y0015083D03*
X0166235Y0014930D03*
X0168845Y0014930D03*
X0168845Y0015083D03*
X0168845Y0015237D03*
X0168845Y0015391D03*
X0168845Y0015544D03*
X0168845Y0015698D03*
X0168845Y0015851D03*
X0168845Y0016005D03*
X0168845Y0017233D03*
X0168845Y0017387D03*
X0168845Y0017540D03*
X0168845Y0017694D03*
X0168845Y0017847D03*
X0168845Y0018001D03*
X0168845Y0018154D03*
X0168845Y0018308D03*
X0168845Y0018461D03*
X0168845Y0018615D03*
X0168845Y0018769D03*
X0168845Y0018922D03*
X0168845Y0019076D03*
X0168845Y0014776D03*
X0168845Y0014623D03*
X0168845Y0014469D03*
X0168845Y0014316D03*
X0168845Y0014162D03*
X0168845Y0014009D03*
X0168845Y0013855D03*
X0176062Y0013855D03*
X0176062Y0014009D03*
X0176062Y0014162D03*
X0176062Y0014316D03*
X0176062Y0014469D03*
X0176062Y0014623D03*
X0176062Y0014776D03*
X0176062Y0014930D03*
X0176062Y0015083D03*
X0176062Y0015237D03*
X0176062Y0015391D03*
X0176062Y0015544D03*
X0176062Y0015698D03*
X0176062Y0015851D03*
X0176062Y0016005D03*
X0176062Y0016158D03*
X0176062Y0016312D03*
X0176062Y0016465D03*
X0176062Y0016619D03*
X0176062Y0016772D03*
X0176062Y0016926D03*
X0176062Y0017080D03*
X0176062Y0017233D03*
X0176062Y0017387D03*
X0176062Y0017540D03*
X0176062Y0017694D03*
X0176062Y0017847D03*
X0176062Y0018001D03*
X0137369Y0018001D03*
X0137369Y0018154D03*
X0137369Y0018308D03*
X0137369Y0018461D03*
X0137369Y0018615D03*
X0137369Y0018769D03*
X0137369Y0018922D03*
X0137369Y0019076D03*
X0137369Y0017847D03*
X0137369Y0017694D03*
X0137369Y0017540D03*
X0137369Y0017387D03*
X0137369Y0017233D03*
X0137369Y0017080D03*
X0137369Y0016926D03*
X0137369Y0016772D03*
X0137369Y0016619D03*
X0137369Y0016465D03*
X0137369Y0016312D03*
X0137369Y0016158D03*
X0137369Y0016005D03*
X0137369Y0015851D03*
X0137369Y0015698D03*
X0137369Y0015544D03*
X0137369Y0015391D03*
X0137369Y0015237D03*
X0137369Y0015083D03*
X0137369Y0014930D03*
X0137369Y0014776D03*
X0137369Y0014623D03*
X0137369Y0014469D03*
X0137369Y0014316D03*
X0137369Y0014162D03*
X0137369Y0014009D03*
X0137369Y0013855D03*
X0135066Y0016158D03*
X0135066Y0016312D03*
X0135066Y0016465D03*
X0135066Y0016619D03*
X0135066Y0016772D03*
X0122475Y0017233D03*
X0122475Y0017387D03*
X0122475Y0017540D03*
X0122475Y0017694D03*
X0118790Y0016158D03*
X0118483Y0016772D03*
X0116641Y0016619D03*
X0116641Y0016465D03*
X0115719Y0014623D03*
X0115566Y0014316D03*
X0113109Y0014930D03*
X0113109Y0015083D03*
X0113109Y0015237D03*
X0113109Y0015391D03*
X0113109Y0015544D03*
X0113109Y0015698D03*
X0113109Y0015851D03*
X0113109Y0016005D03*
X0113109Y0016158D03*
X0113109Y0016312D03*
X0113109Y0016465D03*
X0113109Y0016619D03*
X0113109Y0016772D03*
X0113109Y0016926D03*
X0113109Y0017080D03*
X0113109Y0017233D03*
X0113109Y0017387D03*
X0113109Y0017540D03*
X0113109Y0017694D03*
X0113109Y0017847D03*
X0113109Y0018001D03*
X0109578Y0016926D03*
X0109578Y0016619D03*
X0109578Y0016465D03*
X0109578Y0016312D03*
X0109578Y0016158D03*
X0109578Y0016005D03*
X0105125Y0015851D03*
X0105125Y0015698D03*
X0105125Y0017080D03*
X0105125Y0017233D03*
X0100365Y0017080D03*
X0100211Y0016772D03*
X0100211Y0016465D03*
X0100211Y0016312D03*
X0100211Y0016158D03*
X0117562Y0018461D03*
X0117562Y0018615D03*
X0119404Y0014930D03*
X0119711Y0014316D03*
X0119865Y0014009D03*
D22*
X0119788Y0014162D03*
X0119942Y0013855D03*
X0119635Y0014469D03*
X0119481Y0014623D03*
X0119481Y0014776D03*
X0118713Y0016312D03*
X0118560Y0016465D03*
X0118560Y0016619D03*
X0118406Y0016926D03*
X0116871Y0016926D03*
X0116717Y0016772D03*
X0116564Y0016312D03*
X0116410Y0016158D03*
X0115796Y0014930D03*
X0115796Y0014776D03*
X0115643Y0014469D03*
X0115489Y0014009D03*
X0115335Y0013855D03*
X0109961Y0015237D03*
X0109808Y0015544D03*
X0109808Y0015698D03*
X0109654Y0015851D03*
X0109654Y0016772D03*
X0109654Y0017080D03*
X0109808Y0017233D03*
X0109808Y0017387D03*
X0109961Y0017694D03*
X0107505Y0017694D03*
X0107505Y0018001D03*
X0107505Y0018308D03*
X0107505Y0018615D03*
X0107505Y0018922D03*
X0107505Y0017387D03*
X0107505Y0017080D03*
X0107505Y0016772D03*
X0107505Y0016465D03*
X0107505Y0016158D03*
X0107505Y0015851D03*
X0107505Y0015544D03*
X0107505Y0015237D03*
X0107505Y0014930D03*
X0107505Y0014623D03*
X0107505Y0014316D03*
X0107505Y0014009D03*
X0105048Y0015544D03*
X0104894Y0015391D03*
X0105202Y0016005D03*
X0105202Y0016312D03*
X0105202Y0016619D03*
X0105202Y0016926D03*
X0105048Y0017387D03*
X0104894Y0017540D03*
X0100442Y0017387D03*
X0100288Y0017233D03*
X0100288Y0016926D03*
X0100288Y0016619D03*
X0100288Y0016005D03*
X0100288Y0015698D03*
X0100442Y0015544D03*
X0117639Y0018308D03*
X0122552Y0017847D03*
X0122552Y0017080D03*
X0123166Y0015237D03*
X0123013Y0015083D03*
X0122245Y0014009D03*
X0124855Y0014162D03*
X0124855Y0013855D03*
X0124855Y0014469D03*
X0124855Y0014776D03*
X0124855Y0015083D03*
X0124855Y0015391D03*
X0124855Y0016926D03*
X0124855Y0017233D03*
X0124855Y0017540D03*
X0124855Y0017847D03*
X0131611Y0018154D03*
X0134835Y0017387D03*
X0134989Y0017233D03*
X0134989Y0016926D03*
X0134989Y0016005D03*
X0134989Y0015698D03*
X0134835Y0015544D03*
X0131611Y0014776D03*
X0143894Y0015083D03*
X0144048Y0014930D03*
X0143894Y0015391D03*
X0144048Y0015851D03*
X0144662Y0017080D03*
X0144509Y0017233D03*
X0144509Y0017847D03*
X0144662Y0018001D03*
X0149115Y0018154D03*
X0149115Y0017847D03*
X0149115Y0017540D03*
X0149115Y0017233D03*
X0149115Y0016926D03*
X0149115Y0016619D03*
X0149115Y0016312D03*
X0149115Y0016005D03*
X0149115Y0015698D03*
X0149115Y0015391D03*
X0149269Y0015083D03*
X0152339Y0015237D03*
X0152493Y0015391D03*
X0152493Y0015698D03*
X0152493Y0016005D03*
X0152493Y0016312D03*
X0152493Y0016619D03*
X0152493Y0016926D03*
X0152493Y0017233D03*
X0152493Y0017540D03*
X0152493Y0017847D03*
X0152493Y0018154D03*
X0152493Y0018461D03*
X0152493Y0018769D03*
X0152493Y0019076D03*
X0154950Y0017847D03*
X0155103Y0018001D03*
X0157099Y0017847D03*
X0157099Y0017540D03*
X0157099Y0017233D03*
X0157099Y0016926D03*
X0157099Y0015698D03*
X0157099Y0015391D03*
X0157099Y0015083D03*
X0157099Y0014776D03*
X0157099Y0014469D03*
X0157099Y0014162D03*
X0157099Y0013855D03*
X0149115Y0018461D03*
X0149115Y0018769D03*
X0149115Y0019076D03*
X0166158Y0016158D03*
X0172146Y0016005D03*
X0172146Y0015698D03*
X0172146Y0015391D03*
X0172146Y0015083D03*
X0172146Y0014776D03*
X0172146Y0014469D03*
X0172146Y0014162D03*
X0172146Y0013855D03*
X0172146Y0017233D03*
X0172146Y0017540D03*
X0172146Y0017847D03*
X0172146Y0018154D03*
X0172146Y0018461D03*
X0172146Y0018769D03*
X0172146Y0019076D03*
D23*
X0165083Y0019076D03*
X0165083Y0018922D03*
X0165083Y0018769D03*
X0165083Y0018615D03*
X0165083Y0018461D03*
X0165083Y0018308D03*
X0165083Y0018154D03*
X0165083Y0017080D03*
X0165083Y0016926D03*
X0165083Y0016772D03*
X0165083Y0016619D03*
X0165083Y0016465D03*
X0165083Y0016312D03*
X0165083Y0014776D03*
X0165083Y0014623D03*
X0165083Y0014469D03*
X0165083Y0014316D03*
X0165083Y0014162D03*
X0165083Y0014009D03*
X0165083Y0013855D03*
X0156024Y0018154D03*
X0145276Y0016005D03*
X0145276Y0014776D03*
X0145276Y0014623D03*
X0145276Y0014469D03*
X0132686Y0014162D03*
X0132686Y0018769D03*
X0128080Y0023375D03*
X0123780Y0018461D03*
X0123780Y0018154D03*
X0123780Y0016619D03*
X0111957Y0018615D03*
X0111957Y0014316D03*
X0132072Y0037194D03*
X0132072Y0038422D03*
X0132072Y0039650D03*
X0132072Y0039957D03*
X0132072Y0040265D03*
X0151111Y0031052D03*
D24*
X0152339Y0029824D03*
X0152493Y0029517D03*
X0152646Y0028902D03*
X0152646Y0028595D03*
X0152646Y0028288D03*
X0152646Y0027981D03*
X0152646Y0027674D03*
X0152646Y0027367D03*
X0152646Y0027060D03*
X0152646Y0026753D03*
X0152646Y0026446D03*
X0152646Y0026139D03*
X0152646Y0025831D03*
X0152339Y0025217D03*
X0152339Y0024910D03*
X0156639Y0019076D03*
X0150804Y0013855D03*
X0126851Y0024910D03*
X0126544Y0025831D03*
X0126544Y0026139D03*
X0126544Y0026446D03*
X0126544Y0026753D03*
X0126544Y0027060D03*
X0126544Y0027674D03*
X0126544Y0027981D03*
X0126544Y0028288D03*
X0126544Y0028902D03*
X0126544Y0029209D03*
X0126544Y0029517D03*
X0124394Y0019076D03*
X0117639Y0017540D03*
X0104127Y0018154D03*
X0147119Y0036887D03*
X0147119Y0037194D03*
X0147119Y0037501D03*
X0147119Y0037808D03*
X0147119Y0038115D03*
X0147119Y0038422D03*
X0147119Y0038729D03*
X0147119Y0039036D03*
X0147119Y0039343D03*
X0147119Y0039650D03*
X0147119Y0039957D03*
X0147119Y0040265D03*
X0147119Y0040572D03*
X0147119Y0040879D03*
X0147119Y0041186D03*
X0147119Y0041493D03*
X0147119Y0041800D03*
X0147119Y0042107D03*
X0147119Y0042414D03*
X0147119Y0042721D03*
X0147119Y0043028D03*
X0147119Y0043335D03*
X0147119Y0043643D03*
X0147119Y0043950D03*
X0147119Y0044257D03*
X0147119Y0044564D03*
X0147119Y0044871D03*
X0147119Y0045178D03*
X0147119Y0045485D03*
X0147119Y0045792D03*
X0147119Y0046099D03*
X0147119Y0046406D03*
X0147119Y0046713D03*
D25*
X0151879Y0030438D03*
X0152186Y0030131D03*
X0152186Y0024603D03*
X0151879Y0024296D03*
X0156331Y0018922D03*
X0156331Y0016158D03*
X0156485Y0016005D03*
X0150804Y0014009D03*
X0145737Y0013855D03*
X0145737Y0018769D03*
X0132532Y0019076D03*
X0132532Y0013855D03*
X0124241Y0016005D03*
X0124087Y0018922D03*
X0117639Y0017080D03*
X0127005Y0024603D03*
X0127312Y0024296D03*
X0102745Y0019076D03*
X0102745Y0013855D03*
D26*
X0102745Y0018922D03*
X0112265Y0018922D03*
X0112265Y0014009D03*
X0124087Y0015698D03*
X0127772Y0023682D03*
X0127465Y0023989D03*
X0132532Y0018922D03*
X0140670Y0014776D03*
X0140670Y0014623D03*
X0140670Y0014469D03*
X0140670Y0014316D03*
X0140670Y0014162D03*
X0140670Y0014009D03*
X0140670Y0013855D03*
X0145583Y0014009D03*
X0145583Y0018461D03*
X0151418Y0023682D03*
X0151725Y0023989D03*
X0156331Y0018769D03*
X0156178Y0018615D03*
X0127465Y0030745D03*
X0132072Y0040572D03*
D27*
X0134605Y0017694D03*
X0134759Y0017540D03*
X0134759Y0015391D03*
X0134759Y0015237D03*
X0123396Y0015544D03*
X0123243Y0015391D03*
X0122936Y0014930D03*
X0122782Y0014776D03*
X0122629Y0014623D03*
X0122475Y0014316D03*
X0122015Y0013855D03*
X0115566Y0014162D03*
X0104818Y0015237D03*
X0104818Y0017694D03*
X0100672Y0017694D03*
X0100519Y0017540D03*
X0100519Y0015391D03*
X0100672Y0015237D03*
X0149345Y0014930D03*
X0152263Y0014930D03*
D28*
X0145660Y0018615D03*
X0127081Y0030438D03*
X0124011Y0016158D03*
X0112341Y0013855D03*
D29*
X0123780Y0016465D03*
X0123934Y0016312D03*
X0123780Y0018308D03*
X0132686Y0014009D03*
X0145430Y0014162D03*
X0145430Y0016465D03*
X0145430Y0016619D03*
X0145430Y0018154D03*
X0156024Y0018308D03*
X0156178Y0018461D03*
X0156024Y0016772D03*
X0151572Y0030745D03*
D30*
X0145507Y0018308D03*
X0145507Y0016926D03*
X0145507Y0016772D03*
X0150727Y0014162D03*
X0156101Y0016465D03*
X0156255Y0016312D03*
X0124011Y0018769D03*
X0123857Y0018615D03*
X0102668Y0014009D03*
D31*
X0100902Y0014930D03*
X0100749Y0015083D03*
X0100749Y0017847D03*
X0100902Y0018001D03*
X0104587Y0018001D03*
X0104741Y0017847D03*
X0104741Y0015083D03*
X0104587Y0014930D03*
X0109961Y0015391D03*
X0110269Y0015083D03*
X0109961Y0017540D03*
X0110269Y0017847D03*
X0110422Y0018001D03*
X0117639Y0018154D03*
X0122706Y0018001D03*
X0122859Y0016926D03*
X0122552Y0014469D03*
X0122245Y0014162D03*
X0134375Y0014930D03*
X0134528Y0015083D03*
X0134528Y0017847D03*
X0134375Y0018001D03*
X0149576Y0014776D03*
X0152032Y0014776D03*
X0155103Y0016926D03*
X0156792Y0015851D03*
X0130843Y0033202D03*
X0147119Y0047328D03*
D32*
X0149806Y0033509D03*
X0145353Y0016312D03*
X0145353Y0016158D03*
X0145353Y0014316D03*
X0150727Y0014316D03*
X0156101Y0016619D03*
X0123704Y0016772D03*
X0112034Y0018769D03*
X0112034Y0014162D03*
D33*
X0111804Y0018308D03*
X0117639Y0016005D03*
X0117639Y0015851D03*
X0102745Y0014162D03*
X0102745Y0018769D03*
X0127926Y0031052D03*
X0130383Y0032894D03*
X0132072Y0037501D03*
X0132072Y0037808D03*
X0132072Y0038115D03*
X0132072Y0038729D03*
X0132072Y0039036D03*
X0132072Y0039343D03*
X0150957Y0023375D03*
X0150804Y0014623D03*
X0132839Y0014469D03*
X0132839Y0018461D03*
X0175985Y0018615D03*
X0176139Y0018769D03*
X0175985Y0018922D03*
X0176139Y0019076D03*
X0176139Y0018461D03*
X0175985Y0018308D03*
X0176139Y0018154D03*
D34*
X0150727Y0014469D03*
X0132763Y0014316D03*
X0132763Y0018615D03*
D35*
X0117639Y0015698D03*
X0111650Y0018154D03*
X0102745Y0018615D03*
X0102745Y0014316D03*
X0132072Y0036887D03*
X0149269Y0033202D03*
D36*
X0132916Y0018308D03*
X0132916Y0014623D03*
X0111727Y0014623D03*
X0111727Y0014469D03*
X0111727Y0018461D03*
D37*
X0117639Y0015391D03*
X0117639Y0015237D03*
X0102745Y0014469D03*
X0102745Y0018461D03*
X0130076Y0032587D03*
X0170457Y0017080D03*
X0170457Y0016772D03*
X0170457Y0016465D03*
X0170457Y0016158D03*
D38*
X0148961Y0032894D03*
X0117639Y0015083D03*
X0102745Y0014623D03*
X0102745Y0018308D03*
D39*
X0101209Y0018154D03*
X0101209Y0014776D03*
X0104280Y0014776D03*
X0117639Y0017694D03*
X0134068Y0018154D03*
X0134068Y0014776D03*
X0146044Y0019076D03*
X0150343Y0034123D03*
X0150343Y0034430D03*
D40*
X0117562Y0015544D03*
X0111574Y0014776D03*
D41*
X0117639Y0018922D03*
X0131304Y0014930D03*
D42*
X0117562Y0017847D03*
X0117562Y0018001D03*
X0110345Y0014930D03*
D43*
X0117639Y0019383D03*
X0126391Y0023835D03*
X0126391Y0024143D03*
X0126698Y0024450D03*
X0126698Y0024757D03*
X0127005Y0025064D03*
X0127005Y0025371D03*
X0127312Y0025678D03*
X0127312Y0025985D03*
X0127005Y0026292D03*
X0127005Y0026599D03*
X0127312Y0026906D03*
X0127312Y0027213D03*
X0127005Y0027520D03*
X0127005Y0027828D03*
X0127312Y0028135D03*
X0127312Y0028442D03*
X0127005Y0028749D03*
X0127005Y0029056D03*
X0127312Y0029363D03*
X0127312Y0029670D03*
X0127619Y0029977D03*
X0127619Y0030284D03*
X0127926Y0030591D03*
X0127926Y0030898D03*
X0128233Y0031206D03*
X0128233Y0031513D03*
X0127926Y0031820D03*
X0127926Y0032127D03*
X0128233Y0032434D03*
X0128540Y0032127D03*
X0128540Y0031820D03*
X0128847Y0031513D03*
X0128847Y0031206D03*
X0128540Y0030898D03*
X0129154Y0030898D03*
X0129461Y0031206D03*
X0129461Y0031513D03*
X0129154Y0031820D03*
X0129154Y0032127D03*
X0128847Y0032434D03*
X0128847Y0032741D03*
X0129461Y0032741D03*
X0129461Y0032434D03*
X0129769Y0032127D03*
X0129769Y0031820D03*
X0130076Y0031513D03*
X0130076Y0031206D03*
X0130383Y0031820D03*
X0130383Y0032127D03*
X0130690Y0032434D03*
X0130690Y0032741D03*
X0130997Y0033048D03*
X0131304Y0032741D03*
X0131304Y0032434D03*
X0131611Y0032127D03*
X0131611Y0031820D03*
X0131304Y0031513D03*
X0130997Y0031820D03*
X0130997Y0032127D03*
X0130690Y0031513D03*
X0130076Y0032434D03*
X0130076Y0032741D03*
X0130383Y0033048D03*
X0129769Y0033048D03*
X0131611Y0033048D03*
X0131918Y0032741D03*
X0131918Y0032434D03*
X0132225Y0032127D03*
X0131918Y0031513D03*
X0131918Y0034891D03*
X0131918Y0035198D03*
X0131611Y0035505D03*
X0131611Y0035812D03*
X0131304Y0036119D03*
X0131304Y0036426D03*
X0131611Y0036733D03*
X0131611Y0037040D03*
X0131304Y0037347D03*
X0131304Y0037654D03*
X0131611Y0037961D03*
X0131611Y0038269D03*
X0131304Y0038576D03*
X0131304Y0038883D03*
X0131611Y0039190D03*
X0131611Y0039497D03*
X0131304Y0039804D03*
X0131304Y0040111D03*
X0131611Y0040418D03*
X0131918Y0040111D03*
X0131918Y0039804D03*
X0132225Y0039497D03*
X0132225Y0039190D03*
X0131918Y0038883D03*
X0131918Y0038576D03*
X0132225Y0038269D03*
X0132225Y0037961D03*
X0131918Y0037654D03*
X0131918Y0037347D03*
X0132225Y0037040D03*
X0132225Y0036733D03*
X0131918Y0036426D03*
X0131918Y0036119D03*
X0132225Y0035812D03*
X0132225Y0035505D03*
X0132532Y0035198D03*
X0132532Y0034891D03*
X0133146Y0034891D03*
X0133146Y0035198D03*
X0132839Y0035505D03*
X0132839Y0035812D03*
X0132532Y0036119D03*
X0132532Y0036426D03*
X0132839Y0036733D03*
X0132839Y0037040D03*
X0132532Y0037347D03*
X0132532Y0037654D03*
X0132839Y0037961D03*
X0132839Y0038269D03*
X0132532Y0038576D03*
X0132532Y0038883D03*
X0132839Y0039190D03*
X0132839Y0039497D03*
X0132532Y0039804D03*
X0132532Y0040111D03*
X0132225Y0040418D03*
X0132839Y0040418D03*
X0133146Y0040111D03*
X0133146Y0039804D03*
X0133454Y0039497D03*
X0133454Y0039190D03*
X0133761Y0038883D03*
X0133761Y0038576D03*
X0133454Y0038269D03*
X0133454Y0037961D03*
X0133761Y0037654D03*
X0133761Y0037347D03*
X0133454Y0037040D03*
X0133454Y0036733D03*
X0133761Y0036426D03*
X0133761Y0036119D03*
X0134068Y0035812D03*
X0134068Y0035505D03*
X0134375Y0035198D03*
X0134375Y0034891D03*
X0134989Y0034891D03*
X0134989Y0035198D03*
X0135296Y0035505D03*
X0135296Y0035812D03*
X0134989Y0036119D03*
X0134989Y0036426D03*
X0135296Y0036733D03*
X0135143Y0036887D03*
X0134682Y0036733D03*
X0134528Y0036887D03*
X0134068Y0036733D03*
X0134375Y0036426D03*
X0134375Y0036119D03*
X0134682Y0035812D03*
X0134682Y0035505D03*
X0135603Y0035198D03*
X0135603Y0034891D03*
X0136217Y0034891D03*
X0136217Y0035198D03*
X0135910Y0035505D03*
X0135910Y0035812D03*
X0135603Y0036119D03*
X0135603Y0036426D03*
X0135910Y0036733D03*
X0135757Y0036887D03*
X0136371Y0036887D03*
X0136524Y0036733D03*
X0136217Y0036426D03*
X0136217Y0036119D03*
X0136524Y0035812D03*
X0136524Y0035505D03*
X0136831Y0035198D03*
X0136831Y0034891D03*
X0137446Y0034891D03*
X0137446Y0035198D03*
X0137753Y0035505D03*
X0137753Y0035812D03*
X0138060Y0036119D03*
X0138060Y0036426D03*
X0138367Y0036733D03*
X0138213Y0036887D03*
X0137753Y0036733D03*
X0137599Y0036887D03*
X0137139Y0036733D03*
X0136985Y0036887D03*
X0136831Y0036426D03*
X0136831Y0036119D03*
X0137139Y0035812D03*
X0137139Y0035505D03*
X0137446Y0036119D03*
X0137446Y0036426D03*
X0138367Y0035812D03*
X0138367Y0035505D03*
X0138674Y0035198D03*
X0138674Y0034891D03*
X0138060Y0034891D03*
X0138060Y0035198D03*
X0138981Y0035505D03*
X0138981Y0035812D03*
X0138674Y0036119D03*
X0138674Y0036426D03*
X0138981Y0036733D03*
X0138828Y0036887D03*
X0139442Y0036887D03*
X0139595Y0036733D03*
X0139288Y0036426D03*
X0139288Y0036119D03*
X0139595Y0035812D03*
X0139595Y0035505D03*
X0139288Y0035198D03*
X0139288Y0034891D03*
X0139902Y0034891D03*
X0139902Y0035198D03*
X0140209Y0035505D03*
X0140209Y0035812D03*
X0139902Y0036119D03*
X0139902Y0036426D03*
X0140209Y0036733D03*
X0140056Y0036887D03*
X0140670Y0036887D03*
X0140824Y0036733D03*
X0141131Y0036426D03*
X0141131Y0036119D03*
X0141438Y0035812D03*
X0141438Y0035505D03*
X0141745Y0035198D03*
X0141745Y0034891D03*
X0142359Y0034891D03*
X0142359Y0035198D03*
X0142052Y0035505D03*
X0142052Y0035812D03*
X0142359Y0036119D03*
X0142359Y0036426D03*
X0142052Y0036733D03*
X0141898Y0036887D03*
X0141438Y0036733D03*
X0141284Y0036887D03*
X0141745Y0036426D03*
X0141745Y0036119D03*
X0142666Y0035812D03*
X0142666Y0035505D03*
X0142973Y0035198D03*
X0142973Y0034891D03*
X0143587Y0034891D03*
X0143587Y0035198D03*
X0143280Y0035505D03*
X0143280Y0035812D03*
X0142973Y0036119D03*
X0142973Y0036426D03*
X0142666Y0036733D03*
X0142513Y0036887D03*
X0143127Y0036887D03*
X0143280Y0036733D03*
X0143587Y0036426D03*
X0143587Y0036119D03*
X0143894Y0035812D03*
X0143894Y0035505D03*
X0144202Y0035198D03*
X0144202Y0034891D03*
X0144816Y0034891D03*
X0144816Y0035198D03*
X0145123Y0035505D03*
X0145123Y0035812D03*
X0145430Y0036119D03*
X0145430Y0036426D03*
X0145737Y0036733D03*
X0145583Y0036887D03*
X0145123Y0036733D03*
X0144969Y0036887D03*
X0144509Y0036733D03*
X0144355Y0036887D03*
X0143894Y0036733D03*
X0143741Y0036887D03*
X0144202Y0036426D03*
X0144202Y0036119D03*
X0144509Y0035812D03*
X0144509Y0035505D03*
X0144816Y0036119D03*
X0144816Y0036426D03*
X0145737Y0035812D03*
X0145737Y0035505D03*
X0145430Y0035198D03*
X0145430Y0034891D03*
X0146044Y0034891D03*
X0146044Y0035198D03*
X0146351Y0035505D03*
X0146351Y0035812D03*
X0146044Y0036119D03*
X0146044Y0036426D03*
X0146351Y0036733D03*
X0146351Y0037040D03*
X0146658Y0037347D03*
X0146658Y0037654D03*
X0146351Y0037961D03*
X0146351Y0038269D03*
X0146658Y0038576D03*
X0146658Y0038883D03*
X0146351Y0039190D03*
X0146351Y0039497D03*
X0146658Y0039804D03*
X0146658Y0040111D03*
X0146351Y0040418D03*
X0146351Y0040725D03*
X0146658Y0041032D03*
X0146658Y0041339D03*
X0146351Y0041646D03*
X0146351Y0041954D03*
X0146658Y0042261D03*
X0146658Y0042568D03*
X0146351Y0042875D03*
X0146351Y0043182D03*
X0146658Y0043489D03*
X0146658Y0043796D03*
X0146351Y0044103D03*
X0146351Y0044410D03*
X0146658Y0044717D03*
X0146658Y0045024D03*
X0146351Y0045331D03*
X0146351Y0045639D03*
X0146658Y0045946D03*
X0146658Y0046253D03*
X0146351Y0046560D03*
X0146351Y0046867D03*
X0146658Y0047174D03*
X0146658Y0047481D03*
X0147272Y0047481D03*
X0147272Y0047174D03*
X0146965Y0046867D03*
X0146965Y0046560D03*
X0147272Y0046253D03*
X0147272Y0045946D03*
X0146965Y0045639D03*
X0146965Y0045331D03*
X0147272Y0045024D03*
X0147272Y0044717D03*
X0146965Y0044410D03*
X0146965Y0044103D03*
X0147272Y0043796D03*
X0147272Y0043489D03*
X0146965Y0043182D03*
X0146965Y0042875D03*
X0147272Y0042568D03*
X0147272Y0042261D03*
X0146965Y0041954D03*
X0146965Y0041646D03*
X0147272Y0041339D03*
X0147272Y0041032D03*
X0146965Y0040725D03*
X0146965Y0040418D03*
X0147272Y0040111D03*
X0147272Y0039804D03*
X0146965Y0039497D03*
X0146965Y0039190D03*
X0147272Y0038883D03*
X0147272Y0038576D03*
X0146965Y0038269D03*
X0146965Y0037961D03*
X0147272Y0037654D03*
X0147272Y0037347D03*
X0146965Y0037040D03*
X0146965Y0036733D03*
X0146658Y0036426D03*
X0146658Y0036119D03*
X0146965Y0035812D03*
X0146965Y0035505D03*
X0146658Y0035198D03*
X0146658Y0034891D03*
X0147272Y0034891D03*
X0147272Y0035198D03*
X0147580Y0035505D03*
X0147580Y0035812D03*
X0147887Y0036119D03*
X0147887Y0036426D03*
X0148194Y0036733D03*
X0148501Y0036426D03*
X0148501Y0036119D03*
X0148808Y0035812D03*
X0148808Y0035505D03*
X0149115Y0035198D03*
X0149115Y0034891D03*
X0149729Y0034891D03*
X0149729Y0035198D03*
X0149422Y0035505D03*
X0149422Y0035812D03*
X0149115Y0036119D03*
X0149115Y0036426D03*
X0149422Y0036733D03*
X0149269Y0036887D03*
X0148808Y0036733D03*
X0148654Y0036887D03*
X0147887Y0037347D03*
X0147887Y0037654D03*
X0147580Y0037961D03*
X0147580Y0038269D03*
X0147887Y0038576D03*
X0147887Y0038883D03*
X0147580Y0039190D03*
X0147580Y0039497D03*
X0147887Y0039804D03*
X0147887Y0040111D03*
X0147580Y0040418D03*
X0147580Y0040725D03*
X0147887Y0041032D03*
X0147887Y0041339D03*
X0147580Y0041646D03*
X0147580Y0041954D03*
X0147887Y0042261D03*
X0147887Y0042568D03*
X0147580Y0042875D03*
X0147580Y0043182D03*
X0147887Y0043489D03*
X0147887Y0043796D03*
X0147580Y0044103D03*
X0147580Y0044410D03*
X0147887Y0044717D03*
X0147887Y0045024D03*
X0147580Y0045331D03*
X0147580Y0045639D03*
X0147887Y0045946D03*
X0147887Y0046253D03*
X0147580Y0046560D03*
X0147580Y0046867D03*
X0147887Y0047174D03*
X0147580Y0037040D03*
X0147580Y0036733D03*
X0147272Y0036426D03*
X0147272Y0036119D03*
X0148194Y0035812D03*
X0148194Y0035505D03*
X0148501Y0035198D03*
X0148501Y0034891D03*
X0147887Y0034891D03*
X0147887Y0035198D03*
X0148194Y0033355D03*
X0148194Y0033048D03*
X0148501Y0032741D03*
X0148501Y0032434D03*
X0148808Y0032127D03*
X0148808Y0031820D03*
X0149115Y0031513D03*
X0149115Y0031206D03*
X0149729Y0031206D03*
X0149729Y0031513D03*
X0149422Y0031820D03*
X0149422Y0032127D03*
X0149115Y0032434D03*
X0149115Y0032741D03*
X0149422Y0033048D03*
X0149422Y0033355D03*
X0149115Y0033662D03*
X0148808Y0033355D03*
X0148808Y0033048D03*
X0149729Y0032741D03*
X0149729Y0032434D03*
X0150036Y0032127D03*
X0150036Y0031820D03*
X0150343Y0031513D03*
X0150343Y0031206D03*
X0150036Y0030898D03*
X0150650Y0030898D03*
X0150650Y0030591D03*
X0150957Y0030284D03*
X0151265Y0030591D03*
X0151265Y0030898D03*
X0151572Y0031206D03*
X0151572Y0031513D03*
X0151879Y0031820D03*
X0152186Y0031513D03*
X0152186Y0031206D03*
X0152493Y0030898D03*
X0152493Y0030591D03*
X0152800Y0030284D03*
X0152800Y0029977D03*
X0152493Y0029670D03*
X0152493Y0029363D03*
X0152800Y0029056D03*
X0152800Y0028749D03*
X0152493Y0028442D03*
X0152493Y0028135D03*
X0152800Y0027828D03*
X0152800Y0027520D03*
X0152493Y0027213D03*
X0152493Y0026906D03*
X0152800Y0026599D03*
X0152800Y0026292D03*
X0152493Y0025985D03*
X0152493Y0025678D03*
X0152800Y0025371D03*
X0152800Y0025064D03*
X0152493Y0024757D03*
X0152493Y0024450D03*
X0152800Y0024143D03*
X0152800Y0023835D03*
X0152493Y0023528D03*
X0152186Y0023835D03*
X0152186Y0024143D03*
X0151879Y0024450D03*
X0151879Y0024757D03*
X0152186Y0025064D03*
X0152186Y0025371D03*
X0151879Y0025678D03*
X0151879Y0025985D03*
X0152186Y0026292D03*
X0152186Y0026599D03*
X0151879Y0026906D03*
X0151879Y0027213D03*
X0152186Y0027520D03*
X0152186Y0027828D03*
X0151879Y0028135D03*
X0151879Y0028442D03*
X0152186Y0028749D03*
X0152186Y0029056D03*
X0151879Y0029363D03*
X0151879Y0029670D03*
X0152186Y0029977D03*
X0152186Y0030284D03*
X0151879Y0030591D03*
X0151879Y0030898D03*
X0151572Y0030284D03*
X0151572Y0029977D03*
X0150957Y0031206D03*
X0150957Y0031513D03*
X0150650Y0031820D03*
X0150650Y0032127D03*
X0150343Y0032434D03*
X0150343Y0032741D03*
X0150036Y0033048D03*
X0150036Y0033355D03*
X0149729Y0033662D03*
X0149729Y0033969D03*
X0150036Y0034276D03*
X0150036Y0034583D03*
X0150343Y0034891D03*
X0150343Y0035198D03*
X0150036Y0035505D03*
X0150036Y0035812D03*
X0149729Y0036119D03*
X0149729Y0036426D03*
X0150036Y0036733D03*
X0149883Y0036887D03*
X0150497Y0036887D03*
X0150650Y0036733D03*
X0150343Y0036426D03*
X0150343Y0036119D03*
X0150650Y0035812D03*
X0150650Y0035505D03*
X0150957Y0035198D03*
X0150957Y0034891D03*
X0150650Y0034583D03*
X0150650Y0034276D03*
X0150343Y0033969D03*
X0150343Y0033662D03*
X0150650Y0033355D03*
X0150650Y0033048D03*
X0150957Y0032741D03*
X0150957Y0032434D03*
X0151265Y0032127D03*
X0151265Y0031820D03*
X0151265Y0033048D03*
X0151265Y0033355D03*
X0150957Y0033662D03*
X0150957Y0033969D03*
X0151265Y0034276D03*
X0151265Y0034583D03*
X0151265Y0035505D03*
X0151265Y0035812D03*
X0150957Y0036119D03*
X0150957Y0036426D03*
X0151265Y0036733D03*
X0151111Y0036887D03*
X0147580Y0033048D03*
X0147887Y0032741D03*
X0147887Y0032434D03*
X0148194Y0032127D03*
X0148194Y0031820D03*
X0148501Y0031513D03*
X0147887Y0031513D03*
X0147580Y0031820D03*
X0147580Y0032127D03*
X0147272Y0032434D03*
X0147272Y0032741D03*
X0146658Y0032741D03*
X0146658Y0032434D03*
X0146351Y0032127D03*
X0146351Y0031820D03*
X0146044Y0031513D03*
X0145737Y0031820D03*
X0145737Y0032127D03*
X0145430Y0032434D03*
X0145123Y0032127D03*
X0145123Y0031820D03*
X0145430Y0031513D03*
X0144816Y0031513D03*
X0144509Y0031820D03*
X0144509Y0032127D03*
X0144202Y0031513D03*
X0143894Y0031820D03*
X0143587Y0031513D03*
X0142973Y0031513D03*
X0146044Y0032434D03*
X0146965Y0032127D03*
X0146965Y0031820D03*
X0146658Y0031513D03*
X0147272Y0031513D03*
X0141131Y0034891D03*
X0141131Y0035198D03*
X0140824Y0035505D03*
X0140824Y0035812D03*
X0140517Y0036119D03*
X0140517Y0036426D03*
X0140517Y0035198D03*
X0140517Y0034891D03*
X0133761Y0034891D03*
X0133761Y0035198D03*
X0133454Y0035505D03*
X0133454Y0035812D03*
X0133146Y0036119D03*
X0133146Y0036426D03*
X0133146Y0037347D03*
X0133146Y0037654D03*
X0133146Y0038576D03*
X0133146Y0038883D03*
X0133761Y0039804D03*
X0133454Y0040418D03*
X0130997Y0040418D03*
X0130690Y0040111D03*
X0130690Y0039804D03*
X0130997Y0039497D03*
X0130997Y0039190D03*
X0130690Y0038883D03*
X0130690Y0038576D03*
X0130997Y0038269D03*
X0130997Y0037961D03*
X0130690Y0037654D03*
X0130690Y0037347D03*
X0130997Y0037040D03*
X0130997Y0036733D03*
X0130690Y0036426D03*
X0130690Y0036119D03*
X0130997Y0035812D03*
X0130997Y0035505D03*
X0131304Y0035198D03*
X0131304Y0034891D03*
X0130690Y0034891D03*
X0130690Y0035198D03*
X0130383Y0035505D03*
X0130383Y0035812D03*
X0130076Y0036119D03*
X0130076Y0036426D03*
X0130383Y0036733D03*
X0130383Y0037040D03*
X0129769Y0036733D03*
X0129615Y0036887D03*
X0129154Y0036733D03*
X0129001Y0036887D03*
X0128540Y0036733D03*
X0128233Y0036426D03*
X0128233Y0036119D03*
X0127926Y0035812D03*
X0127926Y0035505D03*
X0128233Y0035198D03*
X0128540Y0035505D03*
X0128540Y0035812D03*
X0128847Y0036119D03*
X0128847Y0036426D03*
X0129461Y0036426D03*
X0129461Y0036119D03*
X0129154Y0035812D03*
X0129154Y0035505D03*
X0128847Y0035198D03*
X0128847Y0034891D03*
X0129461Y0034891D03*
X0129461Y0035198D03*
X0129769Y0035505D03*
X0129769Y0035812D03*
X0130076Y0035198D03*
X0130076Y0034891D03*
X0130383Y0037961D03*
X0130383Y0038269D03*
X0130383Y0039190D03*
X0130383Y0039497D03*
X0127312Y0032127D03*
X0127312Y0031820D03*
X0127619Y0031513D03*
X0127619Y0031206D03*
X0127312Y0030898D03*
X0127312Y0030591D03*
X0127005Y0030284D03*
X0127005Y0029977D03*
X0126698Y0029670D03*
X0126698Y0029363D03*
X0126391Y0029056D03*
X0126391Y0028749D03*
X0126698Y0028442D03*
X0126698Y0028135D03*
X0126391Y0027828D03*
X0126391Y0027520D03*
X0126698Y0027213D03*
X0126698Y0026906D03*
X0126391Y0026599D03*
X0126391Y0026292D03*
X0126698Y0025985D03*
X0126698Y0025678D03*
X0126391Y0025371D03*
X0126391Y0025064D03*
X0126083Y0024757D03*
X0126083Y0024450D03*
X0125776Y0025371D03*
X0126083Y0025678D03*
X0126083Y0025985D03*
X0125776Y0026292D03*
X0125776Y0026599D03*
X0126083Y0026906D03*
X0126083Y0027213D03*
X0125776Y0027520D03*
X0125776Y0027828D03*
X0126083Y0028135D03*
X0126083Y0028442D03*
X0125776Y0028749D03*
X0125776Y0029056D03*
X0126083Y0029363D03*
X0126083Y0029670D03*
X0125776Y0029977D03*
X0126391Y0029977D03*
X0126391Y0030284D03*
X0126698Y0030591D03*
X0126698Y0030898D03*
X0127005Y0031206D03*
X0127005Y0031513D03*
X0126391Y0031206D03*
X0126083Y0030591D03*
X0127619Y0025371D03*
X0127619Y0025064D03*
X0127926Y0024757D03*
X0127926Y0024450D03*
X0128233Y0024143D03*
X0128233Y0023835D03*
X0127926Y0023528D03*
X0127926Y0023221D03*
X0128233Y0022914D03*
X0128233Y0022607D03*
X0127926Y0022300D03*
X0127619Y0022607D03*
X0127619Y0022914D03*
X0127312Y0023221D03*
X0127312Y0023528D03*
X0127619Y0023835D03*
X0127619Y0024143D03*
X0127312Y0024450D03*
X0127312Y0024757D03*
X0127005Y0024143D03*
X0127005Y0023835D03*
X0126698Y0023528D03*
X0127005Y0022914D03*
X0128540Y0023221D03*
X0128540Y0023528D03*
X0128847Y0023835D03*
X0129154Y0023528D03*
X0129154Y0023221D03*
X0128847Y0022914D03*
X0128847Y0022607D03*
X0128540Y0022300D03*
X0128540Y0021993D03*
X0128847Y0021686D03*
X0129154Y0021993D03*
X0129154Y0022300D03*
X0129461Y0022607D03*
X0129461Y0022914D03*
X0129769Y0023221D03*
X0130076Y0022914D03*
X0130076Y0022607D03*
X0130383Y0022300D03*
X0130383Y0021993D03*
X0130690Y0021686D03*
X0130690Y0021379D03*
X0130997Y0021072D03*
X0131304Y0021379D03*
X0131304Y0021686D03*
X0131611Y0021993D03*
X0131611Y0022300D03*
X0131304Y0022607D03*
X0131304Y0022914D03*
X0131918Y0022914D03*
X0131918Y0022607D03*
X0132225Y0022300D03*
X0132225Y0021993D03*
X0131918Y0021686D03*
X0131918Y0021379D03*
X0131611Y0021072D03*
X0132225Y0021072D03*
X0132532Y0021379D03*
X0132532Y0021686D03*
X0132839Y0021993D03*
X0132839Y0022300D03*
X0132532Y0022607D03*
X0132532Y0022914D03*
X0133146Y0022914D03*
X0133146Y0022607D03*
X0133454Y0022300D03*
X0133454Y0021993D03*
X0133761Y0021686D03*
X0133761Y0021379D03*
X0134068Y0021072D03*
X0134375Y0021379D03*
X0134375Y0021686D03*
X0134682Y0021993D03*
X0134682Y0022300D03*
X0134989Y0022607D03*
X0134989Y0022914D03*
X0135603Y0022914D03*
X0135603Y0022607D03*
X0135296Y0022300D03*
X0135296Y0021993D03*
X0134989Y0021686D03*
X0134989Y0021379D03*
X0135296Y0021072D03*
X0135603Y0021379D03*
X0135603Y0021686D03*
X0135910Y0021993D03*
X0135910Y0022300D03*
X0136217Y0022607D03*
X0136217Y0022914D03*
X0136831Y0022914D03*
X0136831Y0022607D03*
X0136524Y0022300D03*
X0136524Y0021993D03*
X0136217Y0021686D03*
X0136217Y0021379D03*
X0135910Y0021072D03*
X0136524Y0021072D03*
X0136831Y0021379D03*
X0136831Y0021686D03*
X0137139Y0021993D03*
X0137139Y0022300D03*
X0137446Y0022607D03*
X0137446Y0022914D03*
X0138060Y0022914D03*
X0138060Y0022607D03*
X0138367Y0022300D03*
X0138367Y0021993D03*
X0138674Y0021686D03*
X0138674Y0021379D03*
X0138367Y0021072D03*
X0138060Y0021379D03*
X0138060Y0021686D03*
X0137753Y0021993D03*
X0137753Y0022300D03*
X0137446Y0021686D03*
X0137446Y0021379D03*
X0137753Y0021072D03*
X0137139Y0021072D03*
X0138981Y0021072D03*
X0139288Y0021379D03*
X0139288Y0021686D03*
X0138981Y0021993D03*
X0138981Y0022300D03*
X0138674Y0022607D03*
X0138674Y0022914D03*
X0139288Y0022914D03*
X0139288Y0022607D03*
X0139595Y0022300D03*
X0139595Y0021993D03*
X0139902Y0021686D03*
X0139902Y0021379D03*
X0139595Y0021072D03*
X0140209Y0021072D03*
X0140517Y0021379D03*
X0140517Y0021686D03*
X0140824Y0021993D03*
X0140824Y0022300D03*
X0141131Y0022607D03*
X0141131Y0022914D03*
X0141745Y0022914D03*
X0141745Y0022607D03*
X0142052Y0022300D03*
X0142052Y0021993D03*
X0142359Y0021686D03*
X0142359Y0021379D03*
X0142052Y0021072D03*
X0141745Y0021379D03*
X0141745Y0021686D03*
X0141438Y0021993D03*
X0141438Y0022300D03*
X0141131Y0021686D03*
X0141131Y0021379D03*
X0141438Y0021072D03*
X0140824Y0021072D03*
X0140209Y0021993D03*
X0140209Y0022300D03*
X0139902Y0022607D03*
X0139902Y0022914D03*
X0140517Y0022914D03*
X0140517Y0022607D03*
X0142359Y0022607D03*
X0142359Y0022914D03*
X0142973Y0022914D03*
X0142973Y0022607D03*
X0142666Y0022300D03*
X0142666Y0021993D03*
X0142973Y0021686D03*
X0142973Y0021379D03*
X0142666Y0021072D03*
X0143280Y0021072D03*
X0143587Y0021379D03*
X0143587Y0021686D03*
X0143280Y0021993D03*
X0143280Y0022300D03*
X0143587Y0022607D03*
X0143587Y0022914D03*
X0144202Y0022914D03*
X0144202Y0022607D03*
X0144509Y0022300D03*
X0144509Y0021993D03*
X0144816Y0021686D03*
X0144816Y0021379D03*
X0145123Y0021072D03*
X0145430Y0021379D03*
X0145430Y0021686D03*
X0145737Y0021993D03*
X0145737Y0022300D03*
X0145430Y0022607D03*
X0145430Y0022914D03*
X0146044Y0022914D03*
X0146044Y0022607D03*
X0146351Y0022300D03*
X0146351Y0021993D03*
X0146044Y0021686D03*
X0146044Y0021379D03*
X0145737Y0021072D03*
X0146351Y0021072D03*
X0146658Y0021379D03*
X0146658Y0021686D03*
X0146965Y0021993D03*
X0146965Y0022300D03*
X0146658Y0022607D03*
X0146658Y0022914D03*
X0147272Y0022914D03*
X0147272Y0022607D03*
X0147580Y0022300D03*
X0147580Y0021993D03*
X0147887Y0021686D03*
X0147887Y0021379D03*
X0148194Y0021072D03*
X0148501Y0021379D03*
X0148501Y0021686D03*
X0148808Y0021993D03*
X0148808Y0022300D03*
X0149115Y0022607D03*
X0149115Y0022914D03*
X0149422Y0023221D03*
X0149729Y0022914D03*
X0149729Y0022607D03*
X0149422Y0022300D03*
X0149422Y0021993D03*
X0149115Y0021686D03*
X0149115Y0021379D03*
X0149729Y0021379D03*
X0149729Y0021686D03*
X0150036Y0021993D03*
X0150036Y0022300D03*
X0150343Y0022607D03*
X0150343Y0022914D03*
X0150036Y0023221D03*
X0150036Y0023528D03*
X0150343Y0023835D03*
X0150650Y0023528D03*
X0150650Y0023221D03*
X0150957Y0022914D03*
X0150957Y0022607D03*
X0150650Y0022300D03*
X0150650Y0021993D03*
X0150343Y0021686D03*
X0151265Y0022300D03*
X0151572Y0022607D03*
X0151572Y0022914D03*
X0151879Y0023221D03*
X0151879Y0023528D03*
X0151572Y0023835D03*
X0151572Y0024143D03*
X0151265Y0024450D03*
X0151265Y0024757D03*
X0151572Y0025064D03*
X0151572Y0025371D03*
X0150957Y0024143D03*
X0150957Y0023835D03*
X0151265Y0023528D03*
X0151265Y0023221D03*
X0153107Y0024450D03*
X0153107Y0024757D03*
X0153414Y0025371D03*
X0153107Y0025678D03*
X0153107Y0025985D03*
X0153414Y0026292D03*
X0153414Y0026599D03*
X0153107Y0026906D03*
X0153107Y0027213D03*
X0153414Y0027520D03*
X0153414Y0027828D03*
X0153107Y0028135D03*
X0153107Y0028442D03*
X0153414Y0028749D03*
X0153414Y0029056D03*
X0153107Y0029363D03*
X0153107Y0029670D03*
X0148501Y0022914D03*
X0148501Y0022607D03*
X0148194Y0022300D03*
X0148194Y0021993D03*
X0147887Y0022607D03*
X0147887Y0022914D03*
X0147272Y0021686D03*
X0147272Y0021379D03*
X0146965Y0021072D03*
X0147580Y0021072D03*
X0145123Y0021993D03*
X0145123Y0022300D03*
X0144816Y0022607D03*
X0144816Y0022914D03*
X0143894Y0022300D03*
X0143894Y0021993D03*
X0144202Y0021686D03*
X0144202Y0021379D03*
X0144509Y0021072D03*
X0143894Y0021072D03*
X0134682Y0021072D03*
X0134068Y0021993D03*
X0134068Y0022300D03*
X0134375Y0022607D03*
X0134375Y0022914D03*
X0133761Y0022914D03*
X0133761Y0022607D03*
X0133146Y0021686D03*
X0133146Y0021379D03*
X0132839Y0021072D03*
X0133454Y0021072D03*
X0132532Y0019229D03*
X0131150Y0017847D03*
X0131150Y0015083D03*
X0130076Y0021379D03*
X0130076Y0021686D03*
X0129769Y0021993D03*
X0129769Y0022300D03*
X0129461Y0021686D03*
X0129461Y0021379D03*
X0130997Y0021993D03*
X0130997Y0022300D03*
X0130690Y0022607D03*
X0130690Y0022914D03*
D44*
X0125853Y0025064D03*
X0125853Y0030284D03*
X0126160Y0030898D03*
X0133684Y0040111D03*
X0149499Y0034583D03*
X0149499Y0034276D03*
X0153030Y0030591D03*
X0151648Y0029056D03*
X0153337Y0025064D03*
X0152109Y0022914D03*
X0131074Y0017694D03*
X0131074Y0015237D03*
D45*
X0124164Y0015851D03*
X0117562Y0017233D03*
X0117562Y0017387D03*
X0112495Y0019076D03*
X0126774Y0025217D03*
X0126774Y0029824D03*
X0126928Y0030131D03*
X0145814Y0018922D03*
X0150267Y0033816D03*
D46*
X0170534Y0016926D03*
X0170534Y0016619D03*
X0170534Y0016312D03*
D47*
X0131381Y0018001D03*
D48*
X0117562Y0019076D03*
X0117562Y0019229D03*
D49*
X0139595Y0021225D03*
D50*
X0139595Y0021532D03*
D51*
X0139595Y0021839D03*
D52*
X0139442Y0022146D03*
X0139442Y0035658D03*
D53*
X0139595Y0022454D03*
D54*
X0139595Y0022761D03*
D55*
X0139595Y0023068D03*
D56*
X0126621Y0025524D03*
X0126467Y0027367D03*
X0126467Y0028595D03*
X0150420Y0034737D03*
X0152570Y0029209D03*
X0152570Y0025524D03*
X0147196Y0047020D03*
D57*
X0147349Y0031359D03*
D58*
X0129461Y0031666D03*
X0129154Y0031359D03*
D59*
X0147656Y0031666D03*
D60*
X0148040Y0031973D03*
D61*
X0129615Y0031973D03*
D62*
X0148194Y0032280D03*
D63*
X0129769Y0032280D03*
D64*
X0148578Y0032587D03*
D65*
X0139672Y0035044D03*
X0139519Y0035351D03*
D66*
X0139519Y0035965D03*
X0139519Y0036272D03*
D67*
X0139595Y0036580D03*
M02*
