%
M48
M72
T01C0.0236
T02C0.0315
T03C0.0400
T04C0.0433
T05C0.2598
%
T01
X22227Y12385
X25180Y15928
X29708Y16519
X31676Y17109
X32070Y18290
X36204Y15141
X39550Y14550
X43487Y12582
X39944Y24589
X39353Y29314
X41125Y31282
X36692Y34723
X31873Y30101
X32463Y27936
X31676Y27739
X31282Y26952
X26755Y25771
X25771Y28133
X26164Y30495
X25967Y32857
X30889Y32267
X23015Y28133
X20849Y27936
X22030Y24589
X19078Y20062
X18290Y18684
T02
X7857Y7660
X30101Y8054
X8251Y29708
X28723Y32267
T03
X23802Y31479
X23802Y30495
X23802Y29511
X22621Y30298
X21440Y30298
X21440Y31479
X20078Y31586
X19078Y31586
X18078Y31586
X18078Y30586
X19078Y30586
X20078Y30586
X22818Y31479
X29708Y21440
X28526Y19471
X30495Y17897
X26164Y16322
X24786Y20849
X19865Y14156
X17897Y14156
X9471Y23251
X41873Y20078
X42873Y20078
X42873Y19078
X41873Y19078
X41873Y18078
X42873Y18078
X42897Y16141
X42897Y15141
X42897Y21723
X42897Y22723
X42897Y23723
X42897Y24723
X42897Y25723
X42897Y26723
X42897Y27723
X42897Y28723
X42897Y29723
X42897Y30723
X42897Y31723
X42897Y32723
X42897Y33723
X42897Y34723
X42897Y35723
T04
X42700Y7660
X42700Y5692
X40731Y5692
X40731Y7660
T05
X19078Y2975
X34078Y34471
X4078Y34471
M30
