G75*
%MOIN*%
%OFA0B0*%
%FSLAX24Y24*%
%IPPOS*%
%LPD*%
%AMOC8*
5,1,8,0,0,1.08239X$1,22.5*
%
%ADD10C,0.0098*%
%ADD11C,0.0006*%
%ADD12C,0.0060*%
%ADD13C,0.0100*%
%ADD14C,0.0039*%
%ADD15C,0.0050*%
%ADD16C,0.0080*%
%ADD17R,0.0079X0.0079*%
D10*
X001951Y013960D02*
X001953Y014048D01*
X001959Y014136D01*
X001969Y014224D01*
X001983Y014312D01*
X002000Y014398D01*
X002022Y014484D01*
X002047Y014568D01*
X002077Y014652D01*
X002109Y014734D01*
X002146Y014814D01*
X002186Y014893D01*
X002230Y014970D01*
X002277Y015045D01*
X002327Y015117D01*
X002381Y015188D01*
X002437Y015255D01*
X002497Y015321D01*
X002559Y015383D01*
X002625Y015443D01*
X002692Y015499D01*
X002763Y015553D01*
X002835Y015603D01*
X002910Y015650D01*
X002987Y015694D01*
X003066Y015734D01*
X003146Y015771D01*
X003228Y015803D01*
X003312Y015833D01*
X003396Y015858D01*
X003482Y015880D01*
X003568Y015897D01*
X003656Y015911D01*
X003744Y015921D01*
X003832Y015927D01*
X003920Y015929D01*
X004008Y015927D01*
X004096Y015921D01*
X004184Y015911D01*
X004272Y015897D01*
X004358Y015880D01*
X004444Y015858D01*
X004528Y015833D01*
X004612Y015803D01*
X004694Y015771D01*
X004774Y015734D01*
X004853Y015694D01*
X004930Y015650D01*
X005005Y015603D01*
X005077Y015553D01*
X005148Y015499D01*
X005215Y015443D01*
X005281Y015383D01*
X005343Y015321D01*
X005403Y015255D01*
X005459Y015188D01*
X005513Y015117D01*
X005563Y015045D01*
X005610Y014970D01*
X005654Y014893D01*
X005694Y014814D01*
X005731Y014734D01*
X005763Y014652D01*
X005793Y014568D01*
X005818Y014484D01*
X005840Y014398D01*
X005857Y014312D01*
X005871Y014224D01*
X005881Y014136D01*
X005887Y014048D01*
X005889Y013960D01*
X005887Y013872D01*
X005881Y013784D01*
X005871Y013696D01*
X005857Y013608D01*
X005840Y013522D01*
X005818Y013436D01*
X005793Y013352D01*
X005763Y013268D01*
X005731Y013186D01*
X005694Y013106D01*
X005654Y013027D01*
X005610Y012950D01*
X005563Y012875D01*
X005513Y012803D01*
X005459Y012732D01*
X005403Y012665D01*
X005343Y012599D01*
X005281Y012537D01*
X005215Y012477D01*
X005148Y012421D01*
X005077Y012367D01*
X005005Y012317D01*
X004930Y012270D01*
X004853Y012226D01*
X004774Y012186D01*
X004694Y012149D01*
X004612Y012117D01*
X004528Y012087D01*
X004444Y012062D01*
X004358Y012040D01*
X004272Y012023D01*
X004184Y012009D01*
X004096Y011999D01*
X004008Y011993D01*
X003920Y011991D01*
X003832Y011993D01*
X003744Y011999D01*
X003656Y012009D01*
X003568Y012023D01*
X003482Y012040D01*
X003396Y012062D01*
X003312Y012087D01*
X003228Y012117D01*
X003146Y012149D01*
X003066Y012186D01*
X002987Y012226D01*
X002910Y012270D01*
X002835Y012317D01*
X002763Y012367D01*
X002692Y012421D01*
X002625Y012477D01*
X002559Y012537D01*
X002497Y012599D01*
X002437Y012665D01*
X002381Y012732D01*
X002327Y012803D01*
X002277Y012875D01*
X002230Y012950D01*
X002186Y013027D01*
X002146Y013106D01*
X002109Y013186D01*
X002077Y013268D01*
X002047Y013352D01*
X002022Y013436D01*
X002000Y013522D01*
X001983Y013608D01*
X001969Y013696D01*
X001959Y013784D01*
X001953Y013872D01*
X001951Y013960D01*
D11*
X013473Y003938D02*
X013473Y003884D01*
X013472Y003885D02*
X013457Y003883D01*
X013443Y003877D01*
X013430Y003869D01*
X013420Y003859D01*
X013412Y003846D01*
X013406Y003832D01*
X013404Y003817D01*
X013351Y003816D01*
X013350Y003817D01*
X013352Y003838D01*
X013358Y003858D01*
X013367Y003877D01*
X013379Y003895D01*
X013394Y003910D01*
X013412Y003922D01*
X013431Y003931D01*
X013451Y003937D01*
X013472Y003939D01*
X013472Y003934D01*
X013452Y003932D01*
X013432Y003926D01*
X013414Y003917D01*
X013398Y003906D01*
X013383Y003891D01*
X013372Y003875D01*
X013363Y003857D01*
X013357Y003837D01*
X013355Y003817D01*
X013360Y003817D01*
X013362Y003836D01*
X013368Y003855D01*
X013376Y003872D01*
X013387Y003888D01*
X013401Y003902D01*
X013417Y003913D01*
X013434Y003921D01*
X013453Y003927D01*
X013472Y003929D01*
X013472Y003924D01*
X013454Y003922D01*
X013436Y003917D01*
X013419Y003909D01*
X013404Y003898D01*
X013391Y003885D01*
X013380Y003870D01*
X013372Y003853D01*
X013367Y003835D01*
X013365Y003817D01*
X013370Y003817D01*
X013372Y003837D01*
X013379Y003856D01*
X013388Y003873D01*
X013401Y003888D01*
X013416Y003901D01*
X013433Y003910D01*
X013452Y003917D01*
X013472Y003919D01*
X013472Y003914D01*
X013453Y003912D01*
X013435Y003906D01*
X013419Y003897D01*
X013404Y003885D01*
X013392Y003870D01*
X013383Y003854D01*
X013377Y003836D01*
X013375Y003817D01*
X013380Y003817D01*
X013382Y003835D01*
X013388Y003852D01*
X013396Y003867D01*
X013408Y003881D01*
X013422Y003893D01*
X013437Y003901D01*
X013454Y003907D01*
X013472Y003909D01*
X013472Y003904D01*
X013455Y003902D01*
X013439Y003897D01*
X013424Y003888D01*
X013411Y003878D01*
X013401Y003865D01*
X013392Y003850D01*
X013387Y003834D01*
X013385Y003817D01*
X013390Y003817D01*
X013392Y003833D01*
X013397Y003848D01*
X013405Y003862D01*
X013415Y003874D01*
X013427Y003884D01*
X013441Y003892D01*
X013456Y003897D01*
X013472Y003899D01*
X013472Y003894D01*
X013455Y003891D01*
X013439Y003886D01*
X013425Y003876D01*
X013413Y003864D01*
X013403Y003850D01*
X013398Y003834D01*
X013395Y003817D01*
X013400Y003817D01*
X013402Y003833D01*
X013408Y003848D01*
X013417Y003861D01*
X013428Y003872D01*
X013441Y003881D01*
X013456Y003887D01*
X013472Y003889D01*
X013351Y002839D02*
X013405Y002839D01*
X013404Y002838D02*
X013406Y002823D01*
X013412Y002809D01*
X013420Y002796D01*
X013430Y002786D01*
X013443Y002778D01*
X013457Y002772D01*
X013472Y002770D01*
X013473Y002717D01*
X013472Y002716D01*
X013451Y002718D01*
X013431Y002724D01*
X013412Y002733D01*
X013394Y002745D01*
X013379Y002760D01*
X013367Y002778D01*
X013358Y002797D01*
X013352Y002817D01*
X013350Y002838D01*
X013355Y002838D01*
X013357Y002818D01*
X013363Y002798D01*
X013372Y002780D01*
X013383Y002764D01*
X013398Y002749D01*
X013414Y002738D01*
X013432Y002729D01*
X013452Y002723D01*
X013472Y002721D01*
X013472Y002726D01*
X013453Y002728D01*
X013434Y002734D01*
X013417Y002742D01*
X013401Y002753D01*
X013387Y002767D01*
X013376Y002783D01*
X013368Y002800D01*
X013362Y002819D01*
X013360Y002838D01*
X013365Y002838D01*
X013367Y002820D01*
X013372Y002802D01*
X013380Y002785D01*
X013391Y002770D01*
X013404Y002757D01*
X013419Y002746D01*
X013436Y002738D01*
X013454Y002733D01*
X013472Y002731D01*
X013472Y002736D01*
X013452Y002738D01*
X013433Y002745D01*
X013416Y002754D01*
X013401Y002767D01*
X013388Y002782D01*
X013379Y002799D01*
X013372Y002818D01*
X013370Y002838D01*
X013375Y002838D01*
X013377Y002819D01*
X013383Y002801D01*
X013392Y002785D01*
X013404Y002770D01*
X013419Y002758D01*
X013435Y002749D01*
X013453Y002743D01*
X013472Y002741D01*
X013472Y002746D01*
X013454Y002748D01*
X013437Y002754D01*
X013422Y002762D01*
X013408Y002774D01*
X013396Y002788D01*
X013388Y002803D01*
X013382Y002820D01*
X013380Y002838D01*
X013385Y002838D01*
X013387Y002821D01*
X013392Y002805D01*
X013401Y002790D01*
X013411Y002777D01*
X013424Y002767D01*
X013439Y002758D01*
X013455Y002753D01*
X013472Y002751D01*
X013472Y002756D01*
X013456Y002758D01*
X013441Y002763D01*
X013427Y002771D01*
X013415Y002781D01*
X013405Y002793D01*
X013397Y002807D01*
X013392Y002822D01*
X013390Y002838D01*
X013395Y002838D01*
X013398Y002821D01*
X013403Y002805D01*
X013413Y002791D01*
X013425Y002779D01*
X013439Y002769D01*
X013455Y002764D01*
X013472Y002761D01*
X013472Y002766D01*
X013456Y002768D01*
X013441Y002774D01*
X013428Y002783D01*
X013417Y002794D01*
X013408Y002807D01*
X013402Y002822D01*
X013400Y002838D01*
D12*
X013377Y002845D02*
X013377Y003814D01*
X013479Y003912D02*
X014448Y003912D01*
X014444Y003912D02*
X014461Y003911D01*
X014478Y003906D01*
X014493Y003899D01*
X014507Y003889D01*
X014519Y003877D01*
X014529Y003863D01*
X014536Y003848D01*
X014541Y003831D01*
X014542Y003814D01*
X014542Y002841D01*
X014541Y002824D01*
X014536Y002807D01*
X014529Y002792D01*
X014519Y002778D01*
X014507Y002766D01*
X014493Y002756D01*
X014478Y002749D01*
X014461Y002744D01*
X014444Y002743D01*
X014448Y002743D02*
X013479Y002743D01*
X017182Y006092D02*
X017382Y006092D01*
X017282Y005992D02*
X017282Y006192D01*
X016982Y006492D02*
X016984Y006555D01*
X016990Y006617D01*
X017000Y006679D01*
X017013Y006741D01*
X017031Y006801D01*
X017052Y006860D01*
X017077Y006918D01*
X017106Y006974D01*
X017138Y007028D01*
X017173Y007080D01*
X017211Y007129D01*
X017253Y007177D01*
X017297Y007221D01*
X017345Y007263D01*
X017394Y007301D01*
X017446Y007336D01*
X017500Y007368D01*
X017556Y007397D01*
X017614Y007422D01*
X017673Y007443D01*
X017733Y007461D01*
X017795Y007474D01*
X017857Y007484D01*
X017919Y007490D01*
X017982Y007492D01*
X018045Y007490D01*
X018107Y007484D01*
X018169Y007474D01*
X018231Y007461D01*
X018291Y007443D01*
X018350Y007422D01*
X018408Y007397D01*
X018464Y007368D01*
X018518Y007336D01*
X018570Y007301D01*
X018619Y007263D01*
X018667Y007221D01*
X018711Y007177D01*
X018753Y007129D01*
X018791Y007080D01*
X018826Y007028D01*
X018858Y006974D01*
X018887Y006918D01*
X018912Y006860D01*
X018933Y006801D01*
X018951Y006741D01*
X018964Y006679D01*
X018974Y006617D01*
X018980Y006555D01*
X018982Y006492D01*
X018980Y006429D01*
X018974Y006367D01*
X018964Y006305D01*
X018951Y006243D01*
X018933Y006183D01*
X018912Y006124D01*
X018887Y006066D01*
X018858Y006010D01*
X018826Y005956D01*
X018791Y005904D01*
X018753Y005855D01*
X018711Y005807D01*
X018667Y005763D01*
X018619Y005721D01*
X018570Y005683D01*
X018518Y005648D01*
X018464Y005616D01*
X018408Y005587D01*
X018350Y005562D01*
X018291Y005541D01*
X018231Y005523D01*
X018169Y005510D01*
X018107Y005500D01*
X018045Y005494D01*
X017982Y005492D01*
X017919Y005494D01*
X017857Y005500D01*
X017795Y005510D01*
X017733Y005523D01*
X017673Y005541D01*
X017614Y005562D01*
X017556Y005587D01*
X017500Y005616D01*
X017446Y005648D01*
X017394Y005683D01*
X017345Y005721D01*
X017297Y005763D01*
X017253Y005807D01*
X017211Y005855D01*
X017173Y005904D01*
X017138Y005956D01*
X017106Y006010D01*
X017077Y006066D01*
X017052Y006124D01*
X017031Y006183D01*
X017013Y006243D01*
X017000Y006305D01*
X016990Y006367D01*
X016984Y006429D01*
X016982Y006492D01*
X020622Y004017D02*
X020622Y003817D01*
X020622Y004017D02*
X020822Y004017D01*
X021422Y004017D02*
X021622Y004017D01*
X021622Y003817D01*
X021622Y003217D02*
X021622Y003017D01*
X021422Y003017D01*
X020822Y003017D02*
X020622Y003017D01*
X020622Y003217D01*
X010133Y025601D02*
X010135Y025664D01*
X010141Y025726D01*
X010151Y025788D01*
X010164Y025850D01*
X010182Y025910D01*
X010203Y025969D01*
X010228Y026027D01*
X010257Y026083D01*
X010289Y026137D01*
X010324Y026189D01*
X010362Y026238D01*
X010404Y026286D01*
X010448Y026330D01*
X010496Y026372D01*
X010545Y026410D01*
X010597Y026445D01*
X010651Y026477D01*
X010707Y026506D01*
X010765Y026531D01*
X010824Y026552D01*
X010884Y026570D01*
X010946Y026583D01*
X011008Y026593D01*
X011070Y026599D01*
X011133Y026601D01*
X011196Y026599D01*
X011258Y026593D01*
X011320Y026583D01*
X011382Y026570D01*
X011442Y026552D01*
X011501Y026531D01*
X011559Y026506D01*
X011615Y026477D01*
X011669Y026445D01*
X011721Y026410D01*
X011770Y026372D01*
X011818Y026330D01*
X011862Y026286D01*
X011904Y026238D01*
X011942Y026189D01*
X011977Y026137D01*
X012009Y026083D01*
X012038Y026027D01*
X012063Y025969D01*
X012084Y025910D01*
X012102Y025850D01*
X012115Y025788D01*
X012125Y025726D01*
X012131Y025664D01*
X012133Y025601D01*
X012131Y025538D01*
X012125Y025476D01*
X012115Y025414D01*
X012102Y025352D01*
X012084Y025292D01*
X012063Y025233D01*
X012038Y025175D01*
X012009Y025119D01*
X011977Y025065D01*
X011942Y025013D01*
X011904Y024964D01*
X011862Y024916D01*
X011818Y024872D01*
X011770Y024830D01*
X011721Y024792D01*
X011669Y024757D01*
X011615Y024725D01*
X011559Y024696D01*
X011501Y024671D01*
X011442Y024650D01*
X011382Y024632D01*
X011320Y024619D01*
X011258Y024609D01*
X011196Y024603D01*
X011133Y024601D01*
X011070Y024603D01*
X011008Y024609D01*
X010946Y024619D01*
X010884Y024632D01*
X010824Y024650D01*
X010765Y024671D01*
X010707Y024696D01*
X010651Y024725D01*
X010597Y024757D01*
X010545Y024792D01*
X010496Y024830D01*
X010448Y024872D01*
X010404Y024916D01*
X010362Y024964D01*
X010324Y025013D01*
X010289Y025065D01*
X010257Y025119D01*
X010228Y025175D01*
X010203Y025233D01*
X010182Y025292D01*
X010164Y025352D01*
X010151Y025414D01*
X010141Y025476D01*
X010135Y025538D01*
X010133Y025601D01*
X011733Y026001D02*
X011933Y026001D01*
X011833Y026101D02*
X011833Y025901D01*
D13*
X013576Y003074D02*
X013578Y003096D01*
X013584Y003118D01*
X013593Y003138D01*
X013606Y003156D01*
X013622Y003172D01*
X013640Y003185D01*
X013660Y003194D01*
X013682Y003200D01*
X013704Y003202D01*
X013726Y003200D01*
X013748Y003194D01*
X013768Y003185D01*
X013786Y003172D01*
X013802Y003156D01*
X013815Y003138D01*
X013824Y003118D01*
X013830Y003096D01*
X013832Y003074D01*
X013830Y003052D01*
X013824Y003030D01*
X013815Y003010D01*
X013802Y002992D01*
X013786Y002976D01*
X013768Y002963D01*
X013748Y002954D01*
X013726Y002948D01*
X013704Y002946D01*
X013682Y002948D01*
X013660Y002954D01*
X013640Y002963D01*
X013622Y002976D01*
X013606Y002992D01*
X013593Y003010D01*
X013584Y003030D01*
X013578Y003052D01*
X013576Y003074D01*
D14*
X019865Y013960D02*
X019867Y014088D01*
X019873Y014216D01*
X019883Y014343D01*
X019897Y014471D01*
X019914Y014597D01*
X019936Y014723D01*
X019962Y014849D01*
X019991Y014973D01*
X020024Y015097D01*
X020061Y015219D01*
X020102Y015340D01*
X020147Y015460D01*
X020195Y015579D01*
X020247Y015696D01*
X020303Y015811D01*
X020362Y015925D01*
X020424Y016036D01*
X020490Y016146D01*
X020559Y016253D01*
X020632Y016359D01*
X020708Y016462D01*
X020787Y016562D01*
X020869Y016661D01*
X020954Y016756D01*
X021042Y016849D01*
X021133Y016939D01*
X021226Y017026D01*
X021323Y017111D01*
X021421Y017192D01*
X021523Y017270D01*
X021626Y017345D01*
X021732Y017417D01*
X021840Y017486D01*
X021950Y017551D01*
X022063Y017612D01*
X022177Y017671D01*
X022292Y017725D01*
X022410Y017776D01*
X022528Y017824D01*
X022649Y017867D01*
X022770Y017907D01*
X022893Y017943D01*
X023017Y017976D01*
X023142Y018004D01*
X023267Y018029D01*
X023393Y018049D01*
X023520Y018066D01*
X023648Y018079D01*
X023775Y018088D01*
X023903Y018093D01*
X024031Y018094D01*
X024159Y018091D01*
X024287Y018084D01*
X024414Y018073D01*
X024541Y018058D01*
X024668Y018040D01*
X024794Y018017D01*
X024919Y017990D01*
X025043Y017960D01*
X025166Y017926D01*
X025289Y017888D01*
X025410Y017846D01*
X025529Y017800D01*
X025647Y017751D01*
X025764Y017698D01*
X025879Y017642D01*
X025992Y017582D01*
X026103Y017519D01*
X026212Y017452D01*
X026319Y017382D01*
X026424Y017308D01*
X026526Y017232D01*
X026626Y017152D01*
X026724Y017069D01*
X026819Y016983D01*
X026911Y016894D01*
X027000Y016803D01*
X027087Y016709D01*
X027170Y016612D01*
X027251Y016512D01*
X027328Y016411D01*
X027403Y016306D01*
X027474Y016200D01*
X027541Y016091D01*
X027606Y015981D01*
X027666Y015868D01*
X027724Y015754D01*
X027777Y015638D01*
X027827Y015520D01*
X027874Y015401D01*
X027917Y015280D01*
X027956Y015158D01*
X027991Y015035D01*
X028022Y014911D01*
X028050Y014786D01*
X028073Y014660D01*
X028093Y014534D01*
X028109Y014407D01*
X028121Y014280D01*
X028129Y014152D01*
X028133Y014024D01*
X028133Y013896D01*
X028129Y013768D01*
X028121Y013640D01*
X028109Y013513D01*
X028093Y013386D01*
X028073Y013260D01*
X028050Y013134D01*
X028022Y013009D01*
X027991Y012885D01*
X027956Y012762D01*
X027917Y012640D01*
X027874Y012519D01*
X027827Y012400D01*
X027777Y012282D01*
X027724Y012166D01*
X027666Y012052D01*
X027606Y011939D01*
X027541Y011829D01*
X027474Y011720D01*
X027403Y011614D01*
X027328Y011509D01*
X027251Y011408D01*
X027170Y011308D01*
X027087Y011211D01*
X027000Y011117D01*
X026911Y011026D01*
X026819Y010937D01*
X026724Y010851D01*
X026626Y010768D01*
X026526Y010688D01*
X026424Y010612D01*
X026319Y010538D01*
X026212Y010468D01*
X026103Y010401D01*
X025992Y010338D01*
X025879Y010278D01*
X025764Y010222D01*
X025647Y010169D01*
X025529Y010120D01*
X025410Y010074D01*
X025289Y010032D01*
X025166Y009994D01*
X025043Y009960D01*
X024919Y009930D01*
X024794Y009903D01*
X024668Y009880D01*
X024541Y009862D01*
X024414Y009847D01*
X024287Y009836D01*
X024159Y009829D01*
X024031Y009826D01*
X023903Y009827D01*
X023775Y009832D01*
X023648Y009841D01*
X023520Y009854D01*
X023393Y009871D01*
X023267Y009891D01*
X023142Y009916D01*
X023017Y009944D01*
X022893Y009977D01*
X022770Y010013D01*
X022649Y010053D01*
X022528Y010096D01*
X022410Y010144D01*
X022292Y010195D01*
X022177Y010249D01*
X022063Y010308D01*
X021950Y010369D01*
X021840Y010434D01*
X021732Y010503D01*
X021626Y010575D01*
X021523Y010650D01*
X021421Y010728D01*
X021323Y010809D01*
X021226Y010894D01*
X021133Y010981D01*
X021042Y011071D01*
X020954Y011164D01*
X020869Y011259D01*
X020787Y011358D01*
X020708Y011458D01*
X020632Y011561D01*
X020559Y011667D01*
X020490Y011774D01*
X020424Y011884D01*
X020362Y011995D01*
X020303Y012109D01*
X020247Y012224D01*
X020195Y012341D01*
X020147Y012460D01*
X020102Y012580D01*
X020061Y012701D01*
X020024Y012823D01*
X019991Y012947D01*
X019962Y013071D01*
X019936Y013197D01*
X019914Y013323D01*
X019897Y013449D01*
X019883Y013577D01*
X019873Y013704D01*
X019867Y013832D01*
X019865Y013960D01*
D15*
X007660Y020259D02*
X007660Y007660D01*
X020259Y007660D01*
X020259Y020259D01*
X007660Y020259D01*
X007413Y024083D02*
X007413Y024183D01*
X007063Y024183D01*
X007063Y024683D01*
X007413Y024683D01*
X007413Y025883D01*
X010113Y025883D01*
X010113Y024083D01*
X007413Y024083D01*
X007413Y024183D02*
X007413Y024683D01*
X012798Y024245D02*
X012798Y020839D01*
X014334Y020839D01*
X014334Y024245D01*
X012798Y024245D01*
X013054Y023950D02*
X013056Y023972D01*
X013062Y023994D01*
X013071Y024014D01*
X013084Y024032D01*
X013100Y024048D01*
X013118Y024061D01*
X013138Y024070D01*
X013160Y024076D01*
X013182Y024078D01*
X013204Y024076D01*
X013226Y024070D01*
X013246Y024061D01*
X013264Y024048D01*
X013280Y024032D01*
X013293Y024014D01*
X013302Y023994D01*
X013308Y023972D01*
X013310Y023950D01*
X013308Y023928D01*
X013302Y023906D01*
X013293Y023886D01*
X013280Y023868D01*
X013264Y023852D01*
X013246Y023839D01*
X013226Y023830D01*
X013204Y023824D01*
X013182Y023822D01*
X013160Y023824D01*
X013138Y023830D01*
X013118Y023839D01*
X013100Y023852D01*
X013084Y023868D01*
X013071Y023886D01*
X013062Y023906D01*
X013056Y023928D01*
X013054Y023950D01*
D16*
X013202Y026373D02*
X012702Y026373D01*
X012452Y026623D01*
X012202Y026373D01*
X011702Y026373D01*
X011452Y026623D01*
X011452Y027123D01*
X011702Y027373D01*
X012202Y027373D01*
X012452Y027123D01*
X012702Y027373D01*
X013202Y027373D01*
X013452Y027123D01*
X013702Y027373D01*
X014202Y027373D01*
X014452Y027123D01*
X014702Y027373D01*
X015202Y027373D01*
X015452Y027123D01*
X015702Y027373D01*
X016202Y027373D01*
X016452Y027123D01*
X016452Y026623D01*
X016202Y026373D01*
X015702Y026373D01*
X015452Y026623D01*
X015202Y026373D01*
X014702Y026373D01*
X014452Y026623D01*
X014202Y026373D01*
X013702Y026373D01*
X013452Y026623D01*
X013202Y026373D01*
X004935Y017852D02*
X004620Y017852D01*
X004620Y017616D01*
X004620Y016986D02*
X004620Y016750D01*
X004935Y016750D01*
X021007Y009708D02*
X021007Y009393D01*
X021243Y009393D01*
X021873Y009393D02*
X022109Y009393D01*
X022109Y009708D01*
D17*
X016873Y025456D03*
M02*
