G75*
%MOIN*%
%OFA0B0*%
%FSLAX24Y24*%
%IPPOS*%
%LPD*%
%AMOC8*
5,1,8,0,0,1.08239X$1,22.5*
%
%ADD10R,0.0217X0.0690*%
%ADD11R,0.0804X0.0678*%
%ADD12R,0.0493X0.0454*%
%ADD13R,0.0454X0.0493*%
%ADD14R,0.1044X0.0454*%
%ADD15R,0.2422X0.1044*%
%ADD16C,0.3997*%
%ADD17C,0.1005*%
%ADD18C,0.1562*%
%ADD19C,0.0620*%
%ADD20C,0.1110*%
%ADD21R,0.0651X0.0572*%
%ADD22OC8,0.1060*%
%ADD23R,0.0414X0.0375*%
%ADD24C,0.1444*%
%ADD25C,0.1484*%
%ADD26R,0.0532X0.0532*%
%ADD27R,0.0375X0.0414*%
%ADD28R,0.0710X0.0217*%
%ADD29C,0.0800*%
%ADD30C,0.0536*%
%ADD31C,0.0457*%
%ADD32C,0.0654*%
%ADD33C,0.0496*%
D10*
X013576Y002503D03*
X013832Y002503D03*
X014087Y002503D03*
X014343Y002503D03*
X014343Y004156D03*
X014087Y004156D03*
X013832Y004156D03*
X013576Y004156D03*
D11*
X013960Y003330D03*
D12*
X015062Y003152D03*
X015062Y002483D03*
X015928Y002483D03*
X015928Y003152D03*
X012818Y002089D03*
X012818Y001420D03*
X020064Y002852D03*
X020064Y003522D03*
X018920Y020593D03*
X018920Y021263D03*
X018605Y025003D03*
X018605Y025672D03*
X017739Y025672D03*
X017739Y025003D03*
X010298Y023664D03*
X010298Y022995D03*
X009432Y022995D03*
X009432Y023664D03*
X008584Y023664D03*
X008584Y022995D03*
X006873Y022995D03*
X006873Y023664D03*
D13*
X007737Y023664D03*
X007737Y022995D03*
X010723Y022129D03*
X010723Y021460D03*
X011597Y021460D03*
X011597Y022129D03*
X014274Y024609D03*
X014274Y025278D03*
X015141Y025278D03*
X015141Y024609D03*
X016007Y024412D03*
X016007Y023743D03*
X015967Y023152D03*
X015967Y022483D03*
X015967Y021893D03*
X015967Y021223D03*
X018054Y021263D03*
X018054Y020593D03*
X017739Y023743D03*
X017739Y024412D03*
X016873Y024412D03*
X016873Y023743D03*
X018605Y023743D03*
X018605Y024412D03*
X015928Y004412D03*
X015928Y003743D03*
X015062Y003743D03*
X015062Y004412D03*
X012818Y003349D03*
X012818Y002680D03*
X011834Y002680D03*
X011834Y002089D03*
X011834Y001420D03*
X010967Y001420D03*
X010967Y002089D03*
X010967Y002680D03*
X010967Y003349D03*
X010101Y003349D03*
X010101Y002680D03*
X011834Y003349D03*
D14*
X016991Y021845D03*
X016991Y022845D03*
D15*
X018991Y022345D03*
D16*
X003920Y013960D03*
D17*
X019865Y013960D02*
X020810Y013960D01*
X020420Y016026D02*
X021365Y016026D01*
X021365Y011893D02*
X020420Y011893D01*
D18*
X023248Y009826D02*
X024750Y009826D01*
X024750Y018093D02*
X023248Y018093D01*
D19*
X018262Y006892D02*
X017702Y006892D01*
X017702Y006092D02*
X018262Y006092D01*
X009043Y024483D02*
X008483Y024483D01*
X008043Y025483D02*
X007483Y025483D01*
X009483Y025483D02*
X010043Y025483D01*
X010853Y025201D02*
X011413Y025201D01*
X011413Y026001D02*
X010853Y026001D01*
D20*
X007885Y021046D02*
X006835Y021046D01*
X004885Y021046D02*
X003835Y021046D01*
X003835Y006873D02*
X004885Y006873D01*
X006835Y006873D02*
X007885Y006873D01*
X020035Y006873D02*
X021085Y006873D01*
X023035Y006873D02*
X024085Y006873D01*
X024085Y021046D02*
X023035Y021046D01*
X021085Y021046D02*
X020035Y021046D01*
D21*
X019166Y003522D03*
X019166Y002852D03*
D22*
X021122Y003517D03*
D23*
X005290Y016927D03*
X005290Y017675D03*
X004463Y017301D03*
D24*
X009038Y011125D02*
X009730Y009926D01*
D25*
X018169Y009892D02*
X018881Y011125D01*
D26*
X016873Y025003D03*
X016873Y025830D03*
D27*
X021184Y010062D03*
X021932Y010062D03*
X021558Y009235D03*
D28*
X014609Y021135D03*
X014609Y021391D03*
X014609Y021647D03*
X014609Y021902D03*
X014609Y022158D03*
X014609Y022414D03*
X014609Y022670D03*
X014609Y022926D03*
X014609Y023182D03*
X014609Y023438D03*
X014609Y023694D03*
X014609Y023950D03*
X012523Y023950D03*
X012523Y023694D03*
X012523Y023438D03*
X012523Y023182D03*
X012523Y022926D03*
X012523Y022670D03*
X012523Y022414D03*
X012523Y022158D03*
X012523Y021902D03*
X012523Y021647D03*
X012523Y021391D03*
X012523Y021135D03*
D29*
X012952Y026823D03*
X011952Y026923D03*
X013952Y026923D03*
X014952Y026823D03*
X015952Y026923D03*
D30*
X019629Y025692D03*
X019511Y023605D03*
X021912Y024314D03*
X017109Y021125D03*
X016676Y005849D03*
X015298Y005731D03*
D31*
X005849Y003999D03*
X009314Y005889D03*
X010731Y004471D03*
X012897Y004235D03*
X013723Y001755D03*
X012306Y000849D03*
X009747Y001834D03*
X010101Y008448D03*
X006440Y011086D03*
X007936Y012936D03*
X008723Y016204D03*
X005023Y018448D03*
X003251Y018566D03*
X002188Y017227D03*
X008763Y021597D03*
X009786Y022306D03*
X009668Y024865D03*
X008723Y025534D03*
X009511Y026440D03*
X011204Y026912D03*
X012109Y025416D03*
X013369Y025062D03*
X013448Y026204D03*
X014432Y026204D03*
X015652Y024904D03*
X015456Y022936D03*
X013487Y022503D03*
X014511Y020534D03*
X012818Y019904D03*
X016164Y019314D03*
X017936Y019865D03*
X018054Y018290D03*
X019865Y017306D03*
X021715Y018369D03*
X024117Y016400D03*
X026204Y017857D03*
X025495Y019708D03*
X021558Y014865D03*
X019865Y015141D03*
X021715Y013015D03*
X020377Y010652D03*
X019156Y012306D03*
X017463Y008566D03*
X018290Y007542D03*
X018369Y004629D03*
X017621Y001558D03*
X022188Y003881D03*
X025810Y008645D03*
X024432Y011952D03*
X026282Y013920D03*
X017188Y026676D03*
X006597Y024904D03*
X002700Y010180D03*
D32*
X013960Y007267D03*
X005849Y023802D03*
D33*
X016184Y025278D03*
X020062Y024708D03*
X019589Y020023D03*
X013969Y004816D03*
X012483Y004816D03*
M02*
