G75*
%MOIN*%
%OFA0B0*%
%FSLAX24Y24*%
%IPPOS*%
%LPD*%
%AMOC8*
5,1,8,0,0,1.08239X$1,22.5*
%
%ADD10C,0.3937*%
%ADD11C,0.0945*%
%ADD12C,0.1502*%
%ADD13C,0.0560*%
%ADD14C,0.1050*%
%ADD15OC8,0.1000*%
%ADD16C,0.1384*%
%ADD17C,0.1424*%
%ADD18C,0.0740*%
%ADD19C,0.0160*%
%ADD20C,0.0476*%
%ADD21C,0.0397*%
%ADD22C,0.0594*%
%ADD23C,0.0436*%
%ADD24C,0.0240*%
%ADD25C,0.0500*%
D10*
X003920Y013960D03*
D11*
X019865Y013960D02*
X020810Y013960D01*
X020420Y016026D02*
X021365Y016026D01*
X021365Y011893D02*
X020420Y011893D01*
D12*
X023248Y009826D02*
X024750Y009826D01*
X024750Y018093D02*
X023248Y018093D01*
D13*
X018262Y006892D02*
X017702Y006892D01*
X017702Y006092D02*
X018262Y006092D01*
X009043Y024483D02*
X008483Y024483D01*
X008043Y025483D02*
X007483Y025483D01*
X009483Y025483D02*
X010043Y025483D01*
X010853Y025201D02*
X011413Y025201D01*
X011413Y026001D02*
X010853Y026001D01*
D14*
X007885Y021046D02*
X006835Y021046D01*
X004885Y021046D02*
X003835Y021046D01*
X003835Y006873D02*
X004885Y006873D01*
X006835Y006873D02*
X007885Y006873D01*
X020035Y006873D02*
X021085Y006873D01*
X023035Y006873D02*
X024085Y006873D01*
X024085Y021046D02*
X023035Y021046D01*
X021085Y021046D02*
X020035Y021046D01*
D15*
X021122Y003517D03*
D16*
X009730Y009926D02*
X009038Y011125D01*
D17*
X018169Y009892D02*
X018881Y011125D01*
D18*
X015952Y026923D03*
X014952Y026823D03*
X013952Y026923D03*
X012952Y026823D03*
X011952Y026923D03*
D19*
X012251Y004460D02*
X004507Y004460D01*
X004349Y004618D02*
X012113Y004618D01*
X012129Y004579D02*
X012246Y004461D01*
X012400Y004398D01*
X012566Y004398D01*
X012720Y004461D01*
X012754Y004496D01*
X013698Y004496D01*
X013733Y004461D01*
X013886Y004398D01*
X014053Y004398D01*
X014206Y004461D01*
X014324Y004579D01*
X014387Y004733D01*
X014387Y004899D01*
X014324Y005053D01*
X014206Y005170D01*
X014053Y005234D01*
X013886Y005234D01*
X013733Y005170D01*
X013698Y005136D01*
X012754Y005136D01*
X012720Y005170D01*
X012566Y005234D01*
X012400Y005234D01*
X012246Y005170D01*
X012129Y005053D01*
X012065Y004899D01*
X012065Y004733D01*
X012129Y004579D01*
X012065Y004777D02*
X008146Y004777D01*
X008160Y004790D02*
X008160Y006202D01*
X008295Y006258D01*
X008499Y006462D01*
X008610Y006729D01*
X008610Y007017D01*
X008499Y007284D01*
X008295Y007488D01*
X008160Y007544D01*
X008160Y008956D01*
X008042Y009073D01*
X002877Y009073D01*
X002760Y008956D01*
X002760Y006600D01*
X002338Y007250D01*
X001700Y008501D01*
X001197Y009813D01*
X000833Y011169D01*
X000614Y012557D01*
X000540Y013960D01*
X000614Y015362D01*
X000833Y016750D01*
X001197Y018106D01*
X001700Y019418D01*
X002338Y020669D01*
X002760Y021319D01*
X002760Y018963D01*
X002877Y018846D01*
X008042Y018846D01*
X008160Y018963D01*
X008160Y020375D01*
X008295Y020432D01*
X008499Y020635D01*
X008610Y020902D01*
X008610Y021190D01*
X008499Y021457D01*
X008295Y021661D01*
X008160Y021717D01*
X008160Y023129D01*
X008042Y023246D01*
X004294Y023246D01*
X004980Y023932D01*
X006072Y024816D01*
X007003Y025421D01*
X007003Y025388D01*
X007076Y025211D01*
X007211Y025076D01*
X007387Y025003D01*
X008138Y025003D01*
X008315Y025076D01*
X008450Y025211D01*
X008523Y025388D01*
X008523Y025579D01*
X008461Y025727D01*
X009064Y025727D01*
X009003Y025579D01*
X009003Y025388D01*
X009076Y025211D01*
X009211Y025076D01*
X009387Y025003D01*
X010138Y025003D01*
X010315Y025076D01*
X010413Y025174D01*
X010413Y025167D01*
X010424Y025098D01*
X010445Y025032D01*
X010476Y024971D01*
X010517Y024915D01*
X010566Y024866D01*
X010622Y024825D01*
X010684Y024793D01*
X010750Y024772D01*
X010806Y024763D01*
X009441Y024763D01*
X009315Y024890D01*
X009138Y024963D01*
X008387Y024963D01*
X008211Y024890D01*
X008076Y024755D01*
X008003Y024579D01*
X008003Y024388D01*
X008076Y024211D01*
X008211Y024076D01*
X008387Y024003D01*
X009138Y024003D01*
X009315Y024076D01*
X009441Y024203D01*
X013555Y024203D01*
X013658Y024246D01*
X013736Y024325D01*
X014110Y024699D01*
X014189Y024777D01*
X014232Y024880D01*
X014232Y026422D01*
X014275Y026440D01*
X014435Y026600D01*
X014453Y026643D01*
X014460Y026619D01*
X014498Y026545D01*
X014547Y026478D01*
X014606Y026419D01*
X014674Y026370D01*
X014748Y026332D01*
X014828Y026306D01*
X014910Y026293D01*
X014932Y026293D01*
X014932Y026803D01*
X014972Y026803D01*
X014972Y026293D01*
X014993Y026293D01*
X015076Y026306D01*
X015155Y026332D01*
X015229Y026370D01*
X015297Y026419D01*
X015356Y026478D01*
X015405Y026545D01*
X015443Y026619D01*
X015451Y026643D01*
X015468Y026600D01*
X015629Y026440D01*
X015838Y026353D01*
X016065Y026353D01*
X016108Y026371D01*
X018008Y024470D01*
X018111Y024428D01*
X019751Y024428D01*
X019825Y024353D01*
X019979Y024289D01*
X020145Y024289D01*
X020299Y024353D01*
X020416Y024471D01*
X020480Y024624D01*
X020480Y024791D01*
X020416Y024944D01*
X020299Y025062D01*
X020145Y025126D01*
X019979Y025126D01*
X019825Y025062D01*
X019751Y024988D01*
X018283Y024988D01*
X016504Y026767D01*
X016522Y026810D01*
X016522Y027036D01*
X016484Y027128D01*
X016750Y027086D01*
X018106Y026722D01*
X019418Y026219D01*
X020669Y025581D01*
X021847Y024816D01*
X022939Y023932D01*
X023625Y023246D01*
X019877Y023246D01*
X019760Y023129D01*
X019760Y021717D01*
X019624Y021661D01*
X019436Y021473D01*
X019436Y022362D01*
X019394Y022465D01*
X016602Y025256D01*
X016602Y025362D01*
X016538Y025515D01*
X016421Y025633D01*
X016267Y025697D01*
X016101Y025697D01*
X015947Y025633D01*
X015829Y025515D01*
X015766Y025362D01*
X015766Y025195D01*
X015829Y025042D01*
X015947Y024924D01*
X016101Y024860D01*
X016206Y024860D01*
X018876Y022190D01*
X018876Y015643D01*
X018864Y015692D01*
X018864Y015692D01*
X018500Y016496D01*
X018006Y017227D01*
X018006Y017227D01*
X017396Y017864D01*
X017396Y017864D01*
X016687Y018389D01*
X016687Y018389D01*
X015899Y018786D01*
X015055Y019044D01*
X014180Y019156D01*
X013299Y019119D01*
X013299Y019119D01*
X012436Y018933D01*
X011618Y018604D01*
X010867Y018141D01*
X010204Y017558D01*
X009650Y016872D01*
X009220Y016102D01*
X009220Y016102D01*
X008926Y015270D01*
X008777Y014401D01*
X008777Y013518D01*
X008926Y012649D01*
X009149Y012019D01*
X009098Y012033D01*
X008746Y011986D01*
X008439Y011809D01*
X008222Y011527D01*
X008131Y011184D01*
X008177Y010832D01*
X009047Y009326D01*
X009328Y009110D01*
X009671Y009018D01*
X010023Y009065D01*
X010330Y009242D01*
X010546Y009524D01*
X010638Y009867D01*
X010621Y009994D01*
X010867Y009778D01*
X010867Y009778D01*
X011618Y009315D01*
X012436Y008986D01*
X012436Y008986D01*
X013299Y008800D01*
X014180Y008763D01*
X014180Y008763D01*
X015055Y008875D01*
X015055Y008875D01*
X015899Y009133D01*
X016687Y009531D01*
X017257Y009953D01*
X017241Y009831D01*
X017335Y009481D01*
X017556Y009193D01*
X017870Y009012D01*
X018230Y008964D01*
X018580Y009058D01*
X018868Y009279D01*
X019761Y010826D01*
X019808Y011186D01*
X019715Y011536D01*
X019494Y011824D01*
X019180Y012005D01*
X018820Y012053D01*
X018780Y012042D01*
X018864Y012227D01*
X019034Y012882D01*
X019790Y012127D01*
X019748Y012026D01*
X019748Y011759D01*
X019850Y011512D01*
X020039Y011323D01*
X020286Y011220D01*
X021499Y011220D01*
X021746Y011323D01*
X021935Y011512D01*
X022037Y011759D01*
X022037Y012026D01*
X021935Y012274D01*
X021746Y012463D01*
X021499Y012565D01*
X020286Y012565D01*
X020185Y012523D01*
X019436Y013272D01*
X019436Y013437D01*
X019484Y013389D01*
X019731Y013287D01*
X020944Y013287D01*
X021191Y013389D01*
X021380Y013579D01*
X021482Y013826D01*
X021482Y014093D01*
X021380Y014340D01*
X021191Y014530D01*
X020944Y014632D01*
X019731Y014632D01*
X019484Y014530D01*
X019436Y014482D01*
X019436Y020619D01*
X019624Y020432D01*
X019760Y020375D01*
X019760Y018963D01*
X019877Y018846D01*
X022655Y018846D01*
X022441Y018632D01*
X022297Y018283D01*
X022297Y017904D01*
X022441Y017555D01*
X022709Y017287D01*
X023059Y017142D01*
X024939Y017142D01*
X025289Y017287D01*
X025556Y017555D01*
X025701Y017904D01*
X025701Y018283D01*
X025556Y018632D01*
X025289Y018900D01*
X025152Y018956D01*
X025160Y018963D01*
X025160Y021319D01*
X025581Y020669D01*
X026219Y019418D01*
X026722Y018106D01*
X027086Y016750D01*
X027306Y015362D01*
X027379Y013960D01*
X027306Y012557D01*
X027306Y012557D01*
X027086Y011169D01*
X026722Y009813D01*
X026219Y008501D01*
X025581Y007250D01*
X025160Y006600D01*
X025160Y008956D01*
X025152Y008963D01*
X025289Y009019D01*
X025556Y009287D01*
X025701Y009636D01*
X025701Y010015D01*
X025556Y010364D01*
X025289Y010632D01*
X024939Y010777D01*
X023059Y010777D01*
X022709Y010632D01*
X022441Y010364D01*
X022297Y010015D01*
X022297Y009636D01*
X022441Y009287D01*
X022655Y009073D01*
X019877Y009073D01*
X019760Y008956D01*
X019760Y007500D01*
X019731Y007489D01*
X019653Y007444D01*
X019582Y007389D01*
X019518Y007326D01*
X019464Y007254D01*
X019419Y007177D01*
X019384Y007094D01*
X019361Y007007D01*
X019354Y006953D01*
X019760Y006953D01*
X019760Y006793D01*
X019354Y006793D01*
X019361Y006739D01*
X019384Y006652D01*
X019419Y006569D01*
X019464Y006492D01*
X019518Y006420D01*
X019582Y006357D01*
X019653Y006302D01*
X019731Y006257D01*
X019760Y006245D01*
X019760Y004790D01*
X019877Y004673D01*
X023625Y004673D01*
X022939Y003987D01*
X021847Y003103D01*
X021421Y002826D01*
X021822Y003227D01*
X021822Y003807D01*
X021412Y004217D01*
X020832Y004217D01*
X020422Y003807D01*
X020422Y003227D01*
X020832Y002817D01*
X021407Y002817D01*
X020669Y002338D01*
X019418Y001700D01*
X018106Y001197D01*
X016750Y000833D01*
X015362Y000614D01*
X013960Y000540D01*
X012557Y000614D01*
X011169Y000833D01*
X009813Y001197D01*
X008501Y001700D01*
X007250Y002338D01*
X006072Y003103D01*
X004980Y003987D01*
X004294Y004673D01*
X008042Y004673D01*
X008160Y004790D01*
X008160Y004935D02*
X012080Y004935D01*
X012170Y005094D02*
X008160Y005094D01*
X008160Y005252D02*
X019760Y005252D01*
X019760Y005094D02*
X014283Y005094D01*
X014373Y004935D02*
X019760Y004935D01*
X019773Y004777D02*
X014387Y004777D01*
X014340Y004618D02*
X023570Y004618D01*
X023412Y004460D02*
X014202Y004460D01*
X013737Y004460D02*
X012715Y004460D01*
X010650Y000973D02*
X017269Y000973D01*
X017861Y001131D02*
X010058Y001131D01*
X009571Y001290D02*
X018348Y001290D01*
X018761Y001448D02*
X009158Y001448D01*
X008745Y001607D02*
X019174Y001607D01*
X019545Y001765D02*
X008374Y001765D01*
X008063Y001924D02*
X019856Y001924D01*
X020167Y002082D02*
X007752Y002082D01*
X007441Y002241D02*
X020478Y002241D01*
X020763Y002399D02*
X007156Y002399D01*
X006912Y002558D02*
X021007Y002558D01*
X021252Y002716D02*
X006667Y002716D01*
X006423Y002875D02*
X020774Y002875D01*
X020616Y003033D02*
X006179Y003033D01*
X005962Y003192D02*
X020457Y003192D01*
X020422Y003350D02*
X005767Y003350D01*
X005571Y003509D02*
X020422Y003509D01*
X020422Y003667D02*
X005375Y003667D01*
X005179Y003826D02*
X020440Y003826D01*
X020599Y003984D02*
X004984Y003984D01*
X004824Y004143D02*
X020757Y004143D01*
X021486Y004143D02*
X023095Y004143D01*
X023253Y004301D02*
X004666Y004301D01*
X002760Y006679D02*
X002709Y006679D01*
X002760Y006837D02*
X002606Y006837D01*
X002503Y006996D02*
X002760Y006996D01*
X002760Y007154D02*
X002400Y007154D01*
X002306Y007313D02*
X002760Y007313D01*
X002760Y007471D02*
X002225Y007471D01*
X002144Y007630D02*
X002760Y007630D01*
X002760Y007788D02*
X002064Y007788D01*
X001983Y007947D02*
X002760Y007947D01*
X002760Y008105D02*
X001902Y008105D01*
X001821Y008264D02*
X002760Y008264D01*
X002760Y008422D02*
X001741Y008422D01*
X001670Y008581D02*
X002760Y008581D01*
X002760Y008739D02*
X001609Y008739D01*
X001548Y008898D02*
X002760Y008898D01*
X002860Y009056D02*
X001487Y009056D01*
X001426Y009215D02*
X009192Y009215D01*
X009020Y009373D02*
X001366Y009373D01*
X001305Y009532D02*
X008928Y009532D01*
X008837Y009690D02*
X001244Y009690D01*
X001187Y009849D02*
X008745Y009849D01*
X008654Y010007D02*
X001145Y010007D01*
X001102Y010166D02*
X008562Y010166D01*
X008471Y010324D02*
X001060Y010324D01*
X001017Y010483D02*
X008379Y010483D01*
X008287Y010641D02*
X000975Y010641D01*
X000932Y010800D02*
X003851Y010800D01*
X004092Y010786D02*
X003406Y010824D01*
X003406Y010824D01*
X002744Y011007D01*
X002744Y011007D01*
X002137Y011329D01*
X002137Y011329D01*
X001613Y011774D01*
X001613Y011774D01*
X001197Y012321D01*
X001197Y012321D01*
X000909Y012945D01*
X000761Y013616D01*
X000761Y014303D01*
X000909Y014974D01*
X000909Y014974D01*
X001197Y015598D01*
X001197Y015598D01*
X001613Y016145D01*
X001613Y016145D01*
X002137Y016590D01*
X002137Y016590D01*
X002744Y016912D01*
X002744Y016912D01*
X003406Y017095D01*
X003406Y017095D01*
X004092Y017133D01*
X004092Y017133D01*
X004770Y017021D01*
X004770Y017021D01*
X005409Y016767D01*
X005409Y016767D01*
X005977Y016381D01*
X005977Y016381D01*
X006450Y015883D01*
X006450Y015883D01*
X006804Y015294D01*
X006804Y015294D01*
X007024Y014643D01*
X007024Y014643D01*
X007098Y013960D01*
X007024Y013276D01*
X006804Y012625D01*
X006804Y012625D01*
X006450Y012036D01*
X006450Y012036D01*
X005977Y011538D01*
X005977Y011538D01*
X005409Y011152D01*
X005409Y011152D01*
X004770Y010898D01*
X004770Y010898D01*
X004092Y010786D01*
X004092Y010786D01*
X004172Y010800D02*
X008196Y010800D01*
X008160Y010958D02*
X004922Y010958D01*
X005320Y011117D02*
X008140Y011117D01*
X008155Y011275D02*
X005590Y011275D01*
X005824Y011434D02*
X008197Y011434D01*
X008272Y011592D02*
X006029Y011592D01*
X006179Y011751D02*
X008394Y011751D01*
X008612Y011909D02*
X006329Y011909D01*
X006469Y012068D02*
X009132Y012068D01*
X009076Y012226D02*
X006564Y012226D01*
X006659Y012385D02*
X009020Y012385D01*
X008964Y012543D02*
X006755Y012543D01*
X006830Y012702D02*
X008917Y012702D01*
X008890Y012860D02*
X006883Y012860D01*
X006937Y013019D02*
X008863Y013019D01*
X008836Y013177D02*
X006990Y013177D01*
X007024Y013276D02*
X007024Y013276D01*
X007030Y013336D02*
X008808Y013336D01*
X008781Y013494D02*
X007047Y013494D01*
X007065Y013653D02*
X008777Y013653D01*
X008777Y013811D02*
X007082Y013811D01*
X007097Y013970D02*
X008777Y013970D01*
X008777Y014128D02*
X007080Y014128D01*
X007062Y014287D02*
X008777Y014287D01*
X008785Y014445D02*
X007045Y014445D01*
X007028Y014604D02*
X008812Y014604D01*
X008839Y014762D02*
X006983Y014762D01*
X006930Y014921D02*
X008866Y014921D01*
X008893Y015079D02*
X006877Y015079D01*
X006823Y015238D02*
X008921Y015238D01*
X008926Y015270D02*
X008926Y015270D01*
X008971Y015396D02*
X006743Y015396D01*
X006647Y015555D02*
X009027Y015555D01*
X009083Y015713D02*
X006552Y015713D01*
X006457Y015872D02*
X009139Y015872D01*
X009195Y016030D02*
X006310Y016030D01*
X006160Y016189D02*
X009268Y016189D01*
X009357Y016347D02*
X006010Y016347D01*
X005794Y016506D02*
X009445Y016506D01*
X009534Y016664D02*
X005561Y016664D01*
X005270Y016823D02*
X009623Y016823D01*
X009650Y016872D02*
X009650Y016872D01*
X009738Y016981D02*
X004872Y016981D01*
X002994Y016981D02*
X000895Y016981D01*
X000853Y016823D02*
X002576Y016823D01*
X002277Y016664D02*
X000820Y016664D01*
X000795Y016506D02*
X002038Y016506D01*
X001851Y016347D02*
X000769Y016347D01*
X000744Y016189D02*
X001665Y016189D01*
X001526Y016030D02*
X000719Y016030D01*
X000694Y015872D02*
X001405Y015872D01*
X001285Y015713D02*
X000669Y015713D01*
X000644Y015555D02*
X001177Y015555D01*
X001104Y015396D02*
X000619Y015396D01*
X000607Y015238D02*
X001031Y015238D01*
X000957Y015079D02*
X000599Y015079D01*
X000590Y014921D02*
X000897Y014921D01*
X000862Y014762D02*
X000582Y014762D01*
X000574Y014604D02*
X000827Y014604D01*
X000792Y014445D02*
X000565Y014445D01*
X000557Y014287D02*
X000761Y014287D01*
X000761Y014128D02*
X000549Y014128D01*
X000541Y013970D02*
X000761Y013970D01*
X000761Y013811D02*
X000548Y013811D01*
X000556Y013653D02*
X000761Y013653D01*
X000788Y013494D02*
X000564Y013494D01*
X000573Y013336D02*
X000823Y013336D01*
X000858Y013177D02*
X000581Y013177D01*
X000589Y013019D02*
X000893Y013019D01*
X000948Y012860D02*
X000598Y012860D01*
X000606Y012702D02*
X001021Y012702D01*
X001095Y012543D02*
X000616Y012543D01*
X000641Y012385D02*
X001168Y012385D01*
X001270Y012226D02*
X000666Y012226D01*
X000691Y012068D02*
X001390Y012068D01*
X001511Y011909D02*
X000716Y011909D01*
X000741Y011751D02*
X001641Y011751D01*
X001828Y011592D02*
X000766Y011592D01*
X000791Y011434D02*
X002014Y011434D01*
X002239Y011275D02*
X000817Y011275D01*
X000847Y011117D02*
X002538Y011117D01*
X002922Y010958D02*
X000890Y010958D01*
X000938Y017140D02*
X009866Y017140D01*
X009994Y017298D02*
X000980Y017298D01*
X001023Y017457D02*
X010122Y017457D01*
X010204Y017558D02*
X010204Y017558D01*
X010269Y017615D02*
X001065Y017615D01*
X001108Y017774D02*
X010449Y017774D01*
X010629Y017932D02*
X001150Y017932D01*
X001193Y018091D02*
X010809Y018091D01*
X010867Y018141D02*
X010867Y018141D01*
X011042Y018249D02*
X001252Y018249D01*
X001312Y018408D02*
X011299Y018408D01*
X011556Y018566D02*
X001373Y018566D01*
X001434Y018725D02*
X011918Y018725D01*
X011618Y018604D02*
X011618Y018604D01*
X012313Y018883D02*
X008079Y018883D01*
X008160Y019042D02*
X012941Y019042D01*
X012436Y018933D02*
X012436Y018933D01*
X014180Y019156D02*
X014180Y019156D01*
X015055Y019044D02*
X015055Y019044D01*
X015064Y019042D02*
X018876Y019042D01*
X018876Y019200D02*
X008160Y019200D01*
X008160Y019359D02*
X018876Y019359D01*
X018876Y019517D02*
X008160Y019517D01*
X008160Y019676D02*
X018876Y019676D01*
X018876Y019834D02*
X008160Y019834D01*
X008160Y019993D02*
X018876Y019993D01*
X018876Y020151D02*
X008160Y020151D01*
X008160Y020310D02*
X018876Y020310D01*
X018876Y020468D02*
X008332Y020468D01*
X008490Y020627D02*
X018876Y020627D01*
X018876Y020785D02*
X008561Y020785D01*
X008610Y020944D02*
X018876Y020944D01*
X018876Y021102D02*
X008610Y021102D01*
X008580Y021261D02*
X018876Y021261D01*
X018876Y021419D02*
X008515Y021419D01*
X008378Y021578D02*
X018876Y021578D01*
X018876Y021736D02*
X008160Y021736D01*
X008160Y021895D02*
X018876Y021895D01*
X018876Y022053D02*
X008160Y022053D01*
X008160Y022212D02*
X018855Y022212D01*
X018696Y022370D02*
X008160Y022370D01*
X008160Y022529D02*
X018538Y022529D01*
X018379Y022687D02*
X008160Y022687D01*
X008160Y022846D02*
X018221Y022846D01*
X018062Y023004D02*
X008160Y023004D01*
X008126Y023163D02*
X017904Y023163D01*
X017745Y023321D02*
X004369Y023321D01*
X004527Y023480D02*
X017587Y023480D01*
X017428Y023638D02*
X004686Y023638D01*
X004844Y023797D02*
X017270Y023797D01*
X017111Y023955D02*
X005008Y023955D01*
X005204Y024114D02*
X008173Y024114D01*
X008051Y024272D02*
X005400Y024272D01*
X005596Y024431D02*
X008003Y024431D01*
X008007Y024589D02*
X005791Y024589D01*
X005987Y024748D02*
X008073Y024748D01*
X008249Y024906D02*
X006210Y024906D01*
X006454Y025065D02*
X007239Y025065D01*
X007071Y025223D02*
X006698Y025223D01*
X006942Y025382D02*
X007005Y025382D01*
X007763Y025483D02*
X007763Y025562D01*
X008208Y026007D01*
X009708Y026007D01*
X010180Y026479D01*
X011597Y026479D01*
X011755Y026322D01*
X012450Y026322D01*
X012952Y026823D01*
X013474Y026594D02*
X013629Y026440D01*
X013672Y026422D01*
X013672Y025052D01*
X013383Y024763D01*
X011459Y024763D01*
X011516Y024772D01*
X011582Y024793D01*
X011643Y024825D01*
X011699Y024866D01*
X011748Y024915D01*
X011789Y024971D01*
X011821Y025032D01*
X011842Y025098D01*
X011853Y025167D01*
X011853Y025201D01*
X011133Y025201D01*
X011133Y025201D01*
X011853Y025201D01*
X011853Y025236D01*
X011842Y025304D01*
X011821Y025370D01*
X011789Y025432D01*
X011748Y025488D01*
X011699Y025537D01*
X011644Y025577D01*
X011685Y025594D01*
X011820Y025729D01*
X011893Y025906D01*
X011893Y026042D01*
X012506Y026042D01*
X012609Y026084D01*
X012795Y026271D01*
X012838Y026253D01*
X013065Y026253D01*
X013275Y026340D01*
X013435Y026500D01*
X013474Y026594D01*
X013426Y026491D02*
X013577Y026491D01*
X013672Y026333D02*
X013257Y026333D01*
X013672Y026174D02*
X012699Y026174D01*
X011893Y026016D02*
X013672Y026016D01*
X013672Y025857D02*
X011873Y025857D01*
X011789Y025699D02*
X013672Y025699D01*
X013672Y025540D02*
X011695Y025540D01*
X011815Y025382D02*
X013672Y025382D01*
X013672Y025223D02*
X011853Y025223D01*
X011831Y025065D02*
X013672Y025065D01*
X013526Y024906D02*
X011740Y024906D01*
X010526Y024906D02*
X009276Y024906D01*
X009239Y025065D02*
X008286Y025065D01*
X008454Y025223D02*
X009071Y025223D01*
X009005Y025382D02*
X008520Y025382D01*
X008523Y025540D02*
X009003Y025540D01*
X009052Y025699D02*
X008473Y025699D01*
X008678Y026287D02*
X009813Y026722D01*
X011169Y027086D01*
X011419Y027125D01*
X011382Y027036D01*
X011382Y026810D01*
X011402Y026759D01*
X010124Y026759D01*
X010021Y026717D01*
X009943Y026638D01*
X009592Y026287D01*
X008678Y026287D01*
X008797Y026333D02*
X009637Y026333D01*
X009796Y026491D02*
X009210Y026491D01*
X009623Y026650D02*
X009954Y026650D01*
X010133Y026808D02*
X011382Y026808D01*
X011382Y026967D02*
X010724Y026967D01*
X011417Y027125D02*
X011418Y027125D01*
X010435Y025065D02*
X010286Y025065D01*
X009352Y024114D02*
X016953Y024114D01*
X016794Y024272D02*
X013684Y024272D01*
X013736Y024325D02*
X013736Y024325D01*
X013842Y024431D02*
X016636Y024431D01*
X016477Y024589D02*
X014001Y024589D01*
X014159Y024748D02*
X016319Y024748D01*
X015990Y024906D02*
X014232Y024906D01*
X014232Y025065D02*
X015820Y025065D01*
X015766Y025223D02*
X014232Y025223D01*
X014232Y025382D02*
X015774Y025382D01*
X015854Y025540D02*
X014232Y025540D01*
X014232Y025699D02*
X016780Y025699D01*
X016622Y025857D02*
X014232Y025857D01*
X014232Y026016D02*
X016463Y026016D01*
X016305Y026174D02*
X014232Y026174D01*
X014232Y026333D02*
X014747Y026333D01*
X014932Y026333D02*
X014972Y026333D01*
X014972Y026491D02*
X014932Y026491D01*
X014932Y026650D02*
X014972Y026650D01*
X015157Y026333D02*
X016146Y026333D01*
X016621Y026650D02*
X018296Y026650D01*
X018709Y026491D02*
X016780Y026491D01*
X016938Y026333D02*
X019122Y026333D01*
X019506Y026174D02*
X017097Y026174D01*
X017255Y026016D02*
X019817Y026016D01*
X020128Y025857D02*
X017414Y025857D01*
X017572Y025699D02*
X020439Y025699D01*
X020733Y025540D02*
X017731Y025540D01*
X017889Y025382D02*
X020977Y025382D01*
X021221Y025223D02*
X018048Y025223D01*
X018206Y025065D02*
X019831Y025065D01*
X020062Y024708D02*
X018167Y024708D01*
X015952Y026923D01*
X015577Y026491D02*
X015366Y026491D01*
X014538Y026491D02*
X014326Y026491D01*
X013952Y026923D02*
X013952Y024936D01*
X013499Y024483D01*
X008763Y024483D01*
X002840Y018883D02*
X001495Y018883D01*
X001556Y019042D02*
X002760Y019042D01*
X002760Y019200D02*
X001617Y019200D01*
X001677Y019359D02*
X002760Y019359D01*
X002760Y019517D02*
X001751Y019517D01*
X001832Y019676D02*
X002760Y019676D01*
X002760Y019834D02*
X001912Y019834D01*
X001993Y019993D02*
X002760Y019993D01*
X002760Y020151D02*
X002074Y020151D01*
X002155Y020310D02*
X002760Y020310D01*
X002760Y020468D02*
X002235Y020468D01*
X002316Y020627D02*
X002760Y020627D01*
X002760Y020785D02*
X002413Y020785D01*
X002516Y020944D02*
X002760Y020944D01*
X002760Y021102D02*
X002619Y021102D01*
X002722Y021261D02*
X002760Y021261D01*
X010633Y009849D02*
X010786Y009849D01*
X010591Y009690D02*
X011009Y009690D01*
X011267Y009532D02*
X010548Y009532D01*
X010431Y009373D02*
X011524Y009373D01*
X011618Y009315D02*
X011618Y009315D01*
X011868Y009215D02*
X010282Y009215D01*
X009956Y009056D02*
X012263Y009056D01*
X012848Y008898D02*
X008160Y008898D01*
X008160Y008739D02*
X019760Y008739D01*
X019760Y008581D02*
X008160Y008581D01*
X008160Y008422D02*
X019760Y008422D01*
X019760Y008264D02*
X008160Y008264D01*
X008160Y008105D02*
X019760Y008105D01*
X019760Y007947D02*
X008160Y007947D01*
X008160Y007788D02*
X019760Y007788D01*
X019760Y007630D02*
X008160Y007630D01*
X008312Y007471D02*
X019700Y007471D01*
X019508Y007313D02*
X018392Y007313D01*
X018365Y007321D02*
X018297Y007332D01*
X017982Y007332D01*
X017982Y006892D01*
X017982Y006892D01*
X018702Y006892D01*
X018702Y006858D01*
X018691Y006789D01*
X018670Y006723D01*
X018638Y006662D01*
X018598Y006606D01*
X018549Y006557D01*
X018493Y006516D01*
X018534Y006499D01*
X018669Y006364D01*
X018742Y006188D01*
X018742Y005997D01*
X018669Y005820D01*
X018534Y005685D01*
X018357Y005612D01*
X017606Y005612D01*
X017430Y005685D01*
X017295Y005820D01*
X017222Y005997D01*
X017222Y006188D01*
X017295Y006364D01*
X017430Y006499D01*
X017471Y006516D01*
X017415Y006557D01*
X017366Y006606D01*
X017326Y006662D01*
X017294Y006723D01*
X017273Y006789D01*
X017262Y006858D01*
X017262Y006892D01*
X017982Y006892D01*
X017982Y006892D01*
X018702Y006892D01*
X018702Y006927D01*
X018691Y006995D01*
X018670Y007061D01*
X018638Y007123D01*
X018598Y007179D01*
X018549Y007228D01*
X018492Y007269D01*
X018431Y007300D01*
X018365Y007321D01*
X018616Y007154D02*
X019410Y007154D01*
X019360Y006996D02*
X018691Y006996D01*
X018699Y006837D02*
X019760Y006837D01*
X019377Y006679D02*
X018647Y006679D01*
X018498Y006520D02*
X019447Y006520D01*
X019577Y006362D02*
X018670Y006362D01*
X018736Y006203D02*
X019760Y006203D01*
X019760Y006045D02*
X018742Y006045D01*
X018696Y005886D02*
X019760Y005886D01*
X019760Y005728D02*
X018576Y005728D01*
X017388Y005728D02*
X008160Y005728D01*
X008160Y005886D02*
X017268Y005886D01*
X017222Y006045D02*
X008160Y006045D01*
X008162Y006203D02*
X017228Y006203D01*
X017294Y006362D02*
X008398Y006362D01*
X008523Y006520D02*
X017466Y006520D01*
X017317Y006679D02*
X008589Y006679D01*
X008610Y006837D02*
X017265Y006837D01*
X017262Y006892D02*
X017982Y006892D01*
X017982Y006892D01*
X017982Y007332D01*
X017667Y007332D01*
X017599Y007321D01*
X017533Y007300D01*
X017471Y007269D01*
X017415Y007228D01*
X017366Y007179D01*
X017326Y007123D01*
X017294Y007061D01*
X017273Y006995D01*
X017262Y006927D01*
X017262Y006892D01*
X017273Y006996D02*
X008610Y006996D01*
X008553Y007154D02*
X017348Y007154D01*
X017571Y007313D02*
X008470Y007313D01*
X008160Y005569D02*
X019760Y005569D01*
X019760Y005411D02*
X008160Y005411D01*
X008059Y009056D02*
X009531Y009056D01*
X013299Y008800D02*
X013299Y008800D01*
X015129Y008898D02*
X019760Y008898D01*
X019860Y009056D02*
X018572Y009056D01*
X018784Y009215D02*
X022514Y009215D01*
X022406Y009373D02*
X018922Y009373D01*
X019014Y009532D02*
X022340Y009532D01*
X022297Y009690D02*
X019105Y009690D01*
X019197Y009849D02*
X022297Y009849D01*
X022297Y010007D02*
X019288Y010007D01*
X019380Y010166D02*
X022359Y010166D01*
X022425Y010324D02*
X019471Y010324D01*
X019563Y010483D02*
X022559Y010483D01*
X022731Y010641D02*
X019654Y010641D01*
X019746Y010800D02*
X026987Y010800D01*
X027029Y010958D02*
X019778Y010958D01*
X019799Y011117D02*
X027072Y011117D01*
X027103Y011275D02*
X021631Y011275D01*
X021857Y011434D02*
X027128Y011434D01*
X027153Y011592D02*
X021968Y011592D01*
X022034Y011751D02*
X027178Y011751D01*
X027203Y011909D02*
X022037Y011909D01*
X022020Y012068D02*
X027228Y012068D01*
X027253Y012226D02*
X021955Y012226D01*
X021824Y012385D02*
X027278Y012385D01*
X027303Y012543D02*
X021552Y012543D01*
X021061Y013336D02*
X027346Y013336D01*
X027355Y013494D02*
X021295Y013494D01*
X021411Y013653D02*
X027363Y013653D01*
X027371Y013811D02*
X021476Y013811D01*
X021482Y013970D02*
X027379Y013970D01*
X027370Y014128D02*
X021468Y014128D01*
X021402Y014287D02*
X027362Y014287D01*
X027354Y014445D02*
X021275Y014445D01*
X021012Y014604D02*
X027345Y014604D01*
X027337Y014762D02*
X019436Y014762D01*
X019436Y014604D02*
X019663Y014604D01*
X019436Y014921D02*
X027329Y014921D01*
X027320Y015079D02*
X019436Y015079D01*
X019436Y015238D02*
X027312Y015238D01*
X027300Y015396D02*
X021427Y015396D01*
X021415Y015394D02*
X021513Y015410D01*
X021608Y015440D01*
X021697Y015486D01*
X021777Y015544D01*
X021847Y015614D01*
X021906Y015695D01*
X021951Y015784D01*
X021982Y015878D01*
X021993Y015949D01*
X020498Y015949D01*
X020498Y016104D01*
X021993Y016104D01*
X021982Y016175D01*
X021951Y016269D01*
X021906Y016358D01*
X021847Y016438D01*
X021777Y016509D01*
X021697Y016567D01*
X021608Y016613D01*
X021513Y016643D01*
X021415Y016659D01*
X020498Y016659D01*
X020498Y016104D01*
X020343Y016104D01*
X020343Y016655D01*
X020272Y016643D01*
X020177Y016613D01*
X020089Y016567D01*
X020008Y016509D01*
X019938Y016438D01*
X019879Y016358D01*
X019834Y016269D01*
X019803Y016175D01*
X019792Y016104D01*
X020343Y016104D01*
X020343Y015949D01*
X020498Y015949D01*
X020498Y015394D01*
X021415Y015394D01*
X021788Y015555D02*
X027275Y015555D01*
X027250Y015713D02*
X021915Y015713D01*
X021980Y015872D02*
X027225Y015872D01*
X027200Y016030D02*
X020498Y016030D01*
X020343Y016030D02*
X019436Y016030D01*
X019436Y015872D02*
X019806Y015872D01*
X019803Y015878D02*
X019834Y015784D01*
X019879Y015695D01*
X019938Y015614D01*
X020008Y015544D01*
X020089Y015486D01*
X020177Y015440D01*
X020272Y015410D01*
X020343Y015398D01*
X020343Y015949D01*
X019792Y015949D01*
X019803Y015878D01*
X019870Y015713D02*
X019436Y015713D01*
X019436Y015555D02*
X019998Y015555D01*
X020343Y015555D02*
X020498Y015555D01*
X020498Y015713D02*
X020343Y015713D01*
X020343Y015872D02*
X020498Y015872D01*
X020498Y015396D02*
X019436Y015396D01*
X018876Y015713D02*
X018854Y015713D01*
X018876Y015872D02*
X018783Y015872D01*
X018711Y016030D02*
X018876Y016030D01*
X018876Y016189D02*
X018639Y016189D01*
X018568Y016347D02*
X018876Y016347D01*
X018876Y016506D02*
X018494Y016506D01*
X018500Y016496D02*
X018500Y016496D01*
X018387Y016664D02*
X018876Y016664D01*
X018876Y016823D02*
X018280Y016823D01*
X018173Y016981D02*
X018876Y016981D01*
X018876Y017140D02*
X018065Y017140D01*
X017938Y017298D02*
X018876Y017298D01*
X018876Y017457D02*
X017786Y017457D01*
X017634Y017615D02*
X018876Y017615D01*
X018876Y017774D02*
X017483Y017774D01*
X017304Y017932D02*
X018876Y017932D01*
X018876Y018091D02*
X017090Y018091D01*
X016875Y018249D02*
X018876Y018249D01*
X018876Y018408D02*
X016649Y018408D01*
X016335Y018566D02*
X018876Y018566D01*
X018876Y018725D02*
X016020Y018725D01*
X015899Y018786D02*
X015899Y018786D01*
X015581Y018883D02*
X018876Y018883D01*
X019436Y018883D02*
X019840Y018883D01*
X019760Y019042D02*
X019436Y019042D01*
X019436Y019200D02*
X019760Y019200D01*
X019760Y019359D02*
X019436Y019359D01*
X019436Y019517D02*
X019760Y019517D01*
X019760Y019676D02*
X019436Y019676D01*
X019436Y019834D02*
X019760Y019834D01*
X019760Y019993D02*
X019436Y019993D01*
X019436Y020151D02*
X019760Y020151D01*
X019760Y020310D02*
X019436Y020310D01*
X019436Y020468D02*
X019587Y020468D01*
X019541Y021578D02*
X019436Y021578D01*
X019436Y021736D02*
X019760Y021736D01*
X019760Y021895D02*
X019436Y021895D01*
X019436Y022053D02*
X019760Y022053D01*
X019760Y022212D02*
X019436Y022212D01*
X019433Y022370D02*
X019760Y022370D01*
X019760Y022529D02*
X019330Y022529D01*
X019171Y022687D02*
X019760Y022687D01*
X019760Y022846D02*
X019013Y022846D01*
X018854Y023004D02*
X019760Y023004D01*
X019793Y023163D02*
X018696Y023163D01*
X018537Y023321D02*
X023550Y023321D01*
X023392Y023480D02*
X018379Y023480D01*
X018220Y023638D02*
X023233Y023638D01*
X023075Y023797D02*
X018062Y023797D01*
X017903Y023955D02*
X022911Y023955D01*
X022715Y024114D02*
X017745Y024114D01*
X017586Y024272D02*
X022519Y024272D01*
X022324Y024431D02*
X020376Y024431D01*
X020465Y024589D02*
X022128Y024589D01*
X021932Y024748D02*
X020480Y024748D01*
X020432Y024906D02*
X021709Y024906D01*
X021465Y025065D02*
X020293Y025065D01*
X018104Y024431D02*
X017428Y024431D01*
X017269Y024589D02*
X017890Y024589D01*
X017731Y024748D02*
X017111Y024748D01*
X016952Y024906D02*
X017573Y024906D01*
X017414Y025065D02*
X016794Y025065D01*
X016635Y025223D02*
X017256Y025223D01*
X017097Y025382D02*
X016594Y025382D01*
X016514Y025540D02*
X016939Y025540D01*
X016184Y025278D02*
X019156Y022306D01*
X019156Y013156D01*
X020420Y011893D01*
X020154Y011275D02*
X019785Y011275D01*
X019742Y011434D02*
X019928Y011434D01*
X019817Y011592D02*
X019672Y011592D01*
X019751Y011751D02*
X019550Y011751D01*
X019748Y011909D02*
X019346Y011909D01*
X019765Y012068D02*
X018792Y012068D01*
X018863Y012226D02*
X019691Y012226D01*
X019532Y012385D02*
X018905Y012385D01*
X018946Y012543D02*
X019374Y012543D01*
X019215Y012702D02*
X018987Y012702D01*
X019029Y012860D02*
X019057Y012860D01*
X019532Y013177D02*
X027338Y013177D01*
X027330Y013019D02*
X019690Y013019D01*
X019849Y012860D02*
X027321Y012860D01*
X027313Y012702D02*
X020007Y012702D01*
X020166Y012543D02*
X020233Y012543D01*
X019614Y013336D02*
X019436Y013336D01*
X018864Y012227D02*
X018864Y012227D01*
X017244Y009849D02*
X017117Y009849D01*
X017279Y009690D02*
X016902Y009690D01*
X016688Y009532D02*
X017322Y009532D01*
X017418Y009373D02*
X016374Y009373D01*
X016060Y009215D02*
X017540Y009215D01*
X017793Y009056D02*
X015646Y009056D01*
X015899Y009133D02*
X015899Y009133D01*
X016687Y009531D02*
X016687Y009531D01*
X017982Y007313D02*
X017982Y007313D01*
X017982Y007154D02*
X017982Y007154D01*
X017982Y006996D02*
X017982Y006996D01*
X021645Y003984D02*
X022935Y003984D01*
X022740Y003826D02*
X021803Y003826D01*
X021822Y003667D02*
X022544Y003667D01*
X022348Y003509D02*
X021822Y003509D01*
X021822Y003350D02*
X022152Y003350D01*
X021957Y003192D02*
X021786Y003192D01*
X021740Y003033D02*
X021628Y003033D01*
X021496Y002875D02*
X021469Y002875D01*
X025160Y006679D02*
X025210Y006679D01*
X025160Y006837D02*
X025313Y006837D01*
X025416Y006996D02*
X025160Y006996D01*
X025160Y007154D02*
X025519Y007154D01*
X025613Y007313D02*
X025160Y007313D01*
X025160Y007471D02*
X025694Y007471D01*
X025775Y007630D02*
X025160Y007630D01*
X025160Y007788D02*
X025855Y007788D01*
X025936Y007947D02*
X025160Y007947D01*
X025160Y008105D02*
X026017Y008105D01*
X026098Y008264D02*
X025160Y008264D01*
X025160Y008422D02*
X026178Y008422D01*
X026249Y008581D02*
X025160Y008581D01*
X025160Y008739D02*
X026310Y008739D01*
X026371Y008898D02*
X025160Y008898D01*
X025326Y009056D02*
X026432Y009056D01*
X026493Y009215D02*
X025484Y009215D01*
X025592Y009373D02*
X026553Y009373D01*
X026614Y009532D02*
X025658Y009532D01*
X025701Y009690D02*
X026675Y009690D01*
X026732Y009849D02*
X025701Y009849D01*
X025701Y010007D02*
X026774Y010007D01*
X026817Y010166D02*
X025639Y010166D01*
X025573Y010324D02*
X026859Y010324D01*
X026902Y010483D02*
X025438Y010483D01*
X025267Y010641D02*
X026944Y010641D01*
X027175Y016189D02*
X021977Y016189D01*
X021912Y016347D02*
X027150Y016347D01*
X027124Y016506D02*
X021780Y016506D01*
X022698Y017298D02*
X019436Y017298D01*
X019436Y017140D02*
X026981Y017140D01*
X026939Y017298D02*
X025300Y017298D01*
X025458Y017457D02*
X026896Y017457D01*
X026854Y017615D02*
X025581Y017615D01*
X025647Y017774D02*
X026811Y017774D01*
X026769Y017932D02*
X025701Y017932D01*
X025701Y018091D02*
X026727Y018091D01*
X026668Y018249D02*
X025701Y018249D01*
X025650Y018408D02*
X026607Y018408D01*
X026546Y018566D02*
X025584Y018566D01*
X025464Y018725D02*
X026485Y018725D01*
X026424Y018883D02*
X025306Y018883D01*
X025160Y019042D02*
X026363Y019042D01*
X026302Y019200D02*
X025160Y019200D01*
X025160Y019359D02*
X026242Y019359D01*
X026168Y019517D02*
X025160Y019517D01*
X025160Y019676D02*
X026088Y019676D01*
X026007Y019834D02*
X025160Y019834D01*
X025160Y019993D02*
X025926Y019993D01*
X025845Y020151D02*
X025160Y020151D01*
X025160Y020310D02*
X025764Y020310D01*
X025684Y020468D02*
X025160Y020468D01*
X025160Y020627D02*
X025603Y020627D01*
X025506Y020785D02*
X025160Y020785D01*
X025160Y020944D02*
X025403Y020944D01*
X025300Y021102D02*
X025160Y021102D01*
X025160Y021261D02*
X025197Y021261D01*
X022534Y018725D02*
X019436Y018725D01*
X019436Y018566D02*
X022414Y018566D01*
X022348Y018408D02*
X019436Y018408D01*
X019436Y018249D02*
X022297Y018249D01*
X022297Y018091D02*
X019436Y018091D01*
X019436Y017932D02*
X022297Y017932D01*
X022351Y017774D02*
X019436Y017774D01*
X019436Y017615D02*
X022416Y017615D01*
X022539Y017457D02*
X019436Y017457D01*
X019436Y016981D02*
X027024Y016981D01*
X027066Y016823D02*
X019436Y016823D01*
X019436Y016664D02*
X027099Y016664D01*
X020498Y016506D02*
X020343Y016506D01*
X020343Y016347D02*
X020498Y016347D01*
X020498Y016189D02*
X020343Y016189D01*
X020005Y016506D02*
X019436Y016506D01*
X019436Y016347D02*
X019874Y016347D01*
X019808Y016189D02*
X019436Y016189D01*
X017786Y026808D02*
X016521Y026808D01*
X016522Y026967D02*
X017195Y026967D01*
X016502Y027125D02*
X016485Y027125D01*
X016628Y000814D02*
X011291Y000814D01*
X012292Y000656D02*
X015627Y000656D01*
D20*
X015298Y005731D03*
X016676Y005849D03*
X017109Y021125D03*
X019511Y023605D03*
X019629Y025692D03*
X021912Y024314D03*
D21*
X017936Y019865D03*
X018054Y018290D03*
X016164Y019314D03*
X014511Y020534D03*
X012818Y019904D03*
X013487Y022503D03*
X015456Y022936D03*
X015652Y024904D03*
X014432Y026204D03*
X013448Y026204D03*
X013369Y025062D03*
X012109Y025416D03*
X011204Y026912D03*
X009511Y026440D03*
X008723Y025534D03*
X009668Y024865D03*
X009786Y022306D03*
X008763Y021597D03*
X006597Y024904D03*
X005023Y018448D03*
X003251Y018566D03*
X002188Y017227D03*
X007936Y012936D03*
X006440Y011086D03*
X002700Y010180D03*
X005849Y003999D03*
X009314Y005889D03*
X010731Y004471D03*
X012897Y004235D03*
X013723Y001755D03*
X012306Y000849D03*
X009747Y001834D03*
X010101Y008448D03*
X017463Y008566D03*
X018290Y007542D03*
X018369Y004629D03*
X017621Y001558D03*
X022188Y003881D03*
X025810Y008645D03*
X024432Y011952D03*
X026282Y013920D03*
X024117Y016400D03*
X026204Y017857D03*
X025495Y019708D03*
X021715Y018369D03*
X019865Y017306D03*
X019865Y015141D03*
X021558Y014865D03*
X021715Y013015D03*
X020377Y010652D03*
X019156Y012306D03*
X008723Y016204D03*
X017188Y026676D03*
D22*
X005849Y023802D03*
X013960Y007267D03*
D23*
X013969Y004816D03*
X012483Y004816D03*
X019589Y020023D03*
X020062Y024708D03*
X016184Y025278D03*
D24*
X013969Y004816D02*
X012483Y004816D01*
D25*
X020560Y021046D02*
X023560Y021046D01*
M02*
