G75*
%MOIN*%
%OFA0B0*%
%FSLAX25Y25*%
%IPPOS*%
%LPD*%
%AMOC8*
5,1,8,0,0,1.08239X$1,22.5*
%
%ADD10C,0.25984*%
%ADD11C,0.08268*%
%ADD12C,0.12661*%
%ADD13R,0.07400X0.07400*%
%ADD14OC8,0.07400*%
%ADD15C,0.11811*%
%ADD16C,0.07874*%
%ADD17C,0.16598*%
%ADD18C,0.18583*%
%ADD19C,0.03369*%
%ADD20C,0.02400*%
%ADD21C,0.02975*%
%ADD22C,0.01200*%
%ADD23C,0.01000*%
%ADD24C,0.03762*%
%ADD25C,0.01600*%
%ADD26C,0.02778*%
%ADD27C,0.02000*%
%ADD28C,0.03200*%
%ADD29C,0.02400*%
D10*
X0039202Y0139595D03*
D11*
X0204162Y0139595D02*
X0212430Y0139595D01*
X0209477Y0122076D02*
X0217745Y0122076D01*
X0217745Y0157509D02*
X0209477Y0157509D01*
D12*
X0233658Y0172076D02*
X0246320Y0172076D01*
X0246320Y0107115D02*
X0233658Y0107115D01*
D13*
X0149595Y0250737D03*
D14*
X0139595Y0250737D03*
X0129595Y0250737D03*
X0129595Y0260737D03*
X0139595Y0260737D03*
X0149595Y0260737D03*
D15*
X0207509Y0212430D02*
X0219320Y0212430D01*
X0224438Y0212430D02*
X0236249Y0212430D01*
X0071682Y0212430D02*
X0059871Y0212430D01*
X0054753Y0212430D02*
X0042942Y0212430D01*
X0042942Y0066761D02*
X0054753Y0066761D01*
X0059871Y0066761D02*
X0071682Y0066761D01*
X0207509Y0066761D02*
X0219320Y0066761D01*
X0224438Y0066761D02*
X0236249Y0066761D01*
D16*
X0210461Y0108099D03*
X0234083Y0139595D03*
X0253769Y0123847D03*
X0245894Y0159280D03*
X0196682Y0153375D03*
X0147469Y0086446D03*
X0127784Y0086446D03*
X0043532Y0177391D03*
X0163217Y0247863D03*
X0175028Y0247863D03*
X0186839Y0249831D03*
X0186839Y0239989D03*
X0186839Y0259674D03*
X0176997Y0259674D03*
X0163217Y0259674D03*
D17*
X0188182Y0111544D03*
X0091009Y0111544D03*
D18*
X0086446Y0086446D03*
X0192745Y0086446D03*
X0192745Y0192745D03*
X0086446Y0192745D03*
D19*
X0088750Y0209614D03*
X0089241Y0230146D03*
X0107706Y0234871D03*
X0107228Y0251126D03*
X0107228Y0263921D03*
X0081938Y0257804D03*
X0058572Y0244059D03*
X0024900Y0203513D03*
X0023650Y0182263D03*
X0023650Y0163513D03*
X0050422Y0167745D03*
X0052952Y0181308D03*
X0088217Y0158887D03*
X0064989Y0140284D03*
X0086249Y0126603D03*
X0055934Y0119123D03*
X0022932Y0115560D03*
X0025393Y0094841D03*
X0024930Y0072863D03*
X0074438Y0030289D03*
X0094024Y0018139D03*
X0116761Y0042154D03*
X0127469Y0039831D03*
X0144310Y0043252D03*
X0155737Y0043965D03*
X0167154Y0043139D03*
X0141072Y0024930D03*
X0128178Y0018729D03*
X0101554Y0049831D03*
X0101111Y0068965D03*
X0120107Y0082446D03*
X0120107Y0090383D03*
X0138020Y0084477D03*
X0154556Y0084477D03*
X0159083Y0091564D03*
X0180737Y0073394D03*
X0210501Y0095737D03*
X0204595Y0113454D03*
X0191761Y0128178D03*
X0191579Y0146569D03*
X0217646Y0148650D03*
X0217981Y0131564D03*
X0245865Y0132051D03*
X0263020Y0107706D03*
X0240053Y0097164D03*
X0254359Y0074241D03*
X0221288Y0036938D03*
X0206392Y0027459D03*
X0184280Y0017253D03*
X0132410Y0062233D03*
X0263463Y0176081D03*
X0222076Y0181131D03*
X0193877Y0216662D03*
X0176997Y0224241D03*
X0167646Y0220796D03*
X0166170Y0229654D03*
X0169566Y0235855D03*
X0173060Y0239005D03*
X0157312Y0237036D03*
X0157607Y0244517D03*
X0137873Y0229162D03*
X0138020Y0221190D03*
X0125324Y0221190D03*
X0125028Y0235658D03*
X0155343Y0212430D03*
X0149438Y0206918D03*
X0137430Y0196288D03*
X0127391Y0205343D03*
X0117942Y0202489D03*
X0116957Y0186446D03*
X0152784Y0189595D03*
X0163217Y0193335D03*
X0223798Y0240284D03*
X0192745Y0254950D03*
X0181426Y0254261D03*
X0170107Y0259674D03*
X0156869Y0261938D03*
D20*
X0109083Y0227194D03*
X0106328Y0227194D03*
X0106328Y0224438D03*
X0109128Y0224438D03*
D21*
X0111052Y0212824D03*
D22*
X0124061Y0038954D02*
X0049228Y0038954D01*
X0047902Y0040152D02*
X0123985Y0040152D01*
X0123985Y0040525D02*
X0123985Y0039138D01*
X0124515Y0037858D01*
X0125069Y0037304D01*
X0125069Y0026244D01*
X0125435Y0025362D01*
X0128702Y0022094D01*
X0129378Y0021419D01*
X0130260Y0021054D01*
X0140073Y0021054D01*
X0140955Y0021419D01*
X0140982Y0021446D01*
X0141765Y0021446D01*
X0143045Y0021976D01*
X0144025Y0022956D01*
X0144556Y0024237D01*
X0144556Y0025623D01*
X0144025Y0026904D01*
X0143045Y0027884D01*
X0141765Y0028414D01*
X0140379Y0028414D01*
X0139098Y0027884D01*
X0138118Y0026904D01*
X0137683Y0025854D01*
X0131731Y0025854D01*
X0129869Y0027715D01*
X0129869Y0037304D01*
X0130423Y0037858D01*
X0130954Y0039138D01*
X0130954Y0040525D01*
X0130423Y0041805D01*
X0129443Y0042785D01*
X0128162Y0043316D01*
X0126776Y0043316D01*
X0125496Y0042785D01*
X0124515Y0041805D01*
X0123985Y0040525D01*
X0124327Y0041351D02*
X0046576Y0041351D01*
X0045250Y0042549D02*
X0125260Y0042549D01*
X0127469Y0039831D02*
X0127469Y0026721D01*
X0130737Y0023454D01*
X0139595Y0023454D01*
X0141072Y0024930D01*
X0144198Y0023373D02*
X0208585Y0023373D01*
X0206555Y0022175D02*
X0143244Y0022175D01*
X0144556Y0024572D02*
X0210615Y0024572D01*
X0212645Y0025770D02*
X0144495Y0025770D01*
X0143960Y0026969D02*
X0214675Y0026969D01*
X0214762Y0027020D02*
X0203299Y0020253D01*
X0191214Y0014674D01*
X0185371Y0012496D01*
X0093820Y0012496D01*
X0087976Y0014674D01*
X0075891Y0020253D01*
X0064429Y0027020D01*
X0053706Y0034906D01*
X0043832Y0043832D01*
X0042811Y0044961D01*
X0080341Y0044961D01*
X0081395Y0046015D01*
X0081395Y0076554D01*
X0082165Y0076110D01*
X0084985Y0075354D01*
X0087906Y0075354D01*
X0090727Y0076110D01*
X0093256Y0077570D01*
X0095321Y0079635D01*
X0096781Y0082165D01*
X0097537Y0084985D01*
X0097537Y0087906D01*
X0096781Y0090727D01*
X0095321Y0093256D01*
X0093256Y0095321D01*
X0090727Y0096781D01*
X0087906Y0097537D01*
X0084985Y0097537D01*
X0082165Y0096781D01*
X0079635Y0095321D01*
X0077570Y0093256D01*
X0076110Y0090727D01*
X0075530Y0088561D01*
X0028850Y0088561D01*
X0027795Y0087506D01*
X0027795Y0063374D01*
X0027020Y0064429D01*
X0020253Y0075891D01*
X0014674Y0087976D01*
X0012496Y0093820D01*
X0012496Y0185371D01*
X0014674Y0191214D01*
X0020253Y0203299D01*
X0027020Y0214762D01*
X0027795Y0215816D01*
X0027795Y0191684D01*
X0028850Y0190630D01*
X0075530Y0190630D01*
X0076110Y0188464D01*
X0077570Y0185935D01*
X0079635Y0183870D01*
X0082165Y0182409D01*
X0084985Y0181654D01*
X0087906Y0181654D01*
X0090727Y0182409D01*
X0093256Y0183870D01*
X0095321Y0185935D01*
X0096781Y0188464D01*
X0097537Y0191285D01*
X0097537Y0194205D01*
X0096781Y0197026D01*
X0095321Y0199555D01*
X0093256Y0201620D01*
X0090727Y0203080D01*
X0087906Y0203836D01*
X0084985Y0203836D01*
X0082165Y0203080D01*
X0081395Y0202636D01*
X0081395Y0233176D01*
X0080341Y0234230D01*
X0042811Y0234230D01*
X0043832Y0235359D01*
X0053706Y0244285D01*
X0064429Y0252171D01*
X0075891Y0258938D01*
X0087976Y0264516D01*
X0093820Y0266694D01*
X0139229Y0266694D01*
X0138772Y0266237D01*
X0137317Y0266237D01*
X0134454Y0263374D01*
X0131791Y0266037D01*
X0129995Y0266037D01*
X0129995Y0261137D01*
X0129195Y0261137D01*
X0129195Y0260337D01*
X0124295Y0260337D01*
X0124295Y0258542D01*
X0126959Y0255878D01*
X0124095Y0253015D01*
X0124095Y0248459D01*
X0127317Y0245237D01*
X0131873Y0245237D01*
X0134595Y0247959D01*
X0137317Y0245237D01*
X0141873Y0245237D01*
X0144095Y0247459D01*
X0144095Y0246291D01*
X0145150Y0245237D01*
X0150350Y0245237D01*
X0150091Y0244977D01*
X0150091Y0238973D01*
X0150018Y0238901D01*
X0150018Y0238311D01*
X0148766Y0237058D01*
X0148598Y0237465D01*
X0147701Y0238362D01*
X0146529Y0238847D01*
X0145260Y0238847D01*
X0144088Y0238362D01*
X0143191Y0237465D01*
X0142706Y0236293D01*
X0142706Y0235024D01*
X0143191Y0233852D01*
X0144088Y0232955D01*
X0145260Y0232469D01*
X0145407Y0232469D01*
X0145657Y0232219D01*
X0145657Y0213688D01*
X0146053Y0212732D01*
X0146784Y0212001D01*
X0147582Y0211203D01*
X0147654Y0211029D01*
X0148019Y0210664D01*
X0148416Y0210266D01*
X0147464Y0209872D01*
X0146484Y0208892D01*
X0145954Y0207611D01*
X0145954Y0206225D01*
X0146484Y0204944D01*
X0147038Y0204391D01*
X0147038Y0201613D01*
X0138601Y0193176D01*
X0107622Y0193176D01*
X0106740Y0192811D01*
X0075244Y0161315D01*
X0074569Y0160640D01*
X0074203Y0159758D01*
X0074203Y0158543D01*
X0073482Y0157822D01*
X0072922Y0156469D01*
X0072922Y0155005D01*
X0073482Y0153652D01*
X0074518Y0152616D01*
X0075871Y0152056D01*
X0077335Y0152056D01*
X0078688Y0152616D01*
X0079724Y0153652D01*
X0080284Y0155005D01*
X0080284Y0156469D01*
X0079724Y0157822D01*
X0079131Y0158415D01*
X0109093Y0188376D01*
X0130761Y0188376D01*
X0122633Y0186198D01*
X0114798Y0182545D01*
X0107717Y0177587D01*
X0101604Y0171474D01*
X0101604Y0171474D01*
X0096646Y0164392D01*
X0092992Y0156557D01*
X0090755Y0148207D01*
X0090001Y0139595D01*
X0090755Y0130983D01*
X0092992Y0122633D01*
X0093613Y0121302D01*
X0092338Y0121643D01*
X0089679Y0121643D01*
X0087111Y0120955D01*
X0084808Y0119625D01*
X0082927Y0117745D01*
X0081598Y0115442D01*
X0080909Y0112874D01*
X0080909Y0110214D01*
X0081598Y0107646D01*
X0082927Y0105343D01*
X0084808Y0103463D01*
X0087111Y0102133D01*
X0089679Y0101445D01*
X0092338Y0101445D01*
X0094907Y0102133D01*
X0097210Y0103463D01*
X0099090Y0105343D01*
X0100420Y0107646D01*
X0100761Y0108921D01*
X0101604Y0107717D01*
X0101604Y0107717D01*
X0107717Y0101604D01*
X0114798Y0096646D01*
X0122633Y0092992D01*
X0126255Y0092022D01*
X0124534Y0091309D01*
X0122921Y0089695D01*
X0122674Y0089099D01*
X0122408Y0088989D01*
X0119302Y0085884D01*
X0118133Y0085399D01*
X0117153Y0084419D01*
X0116623Y0083139D01*
X0116623Y0081753D01*
X0117153Y0080472D01*
X0118133Y0079492D01*
X0119414Y0078961D01*
X0120800Y0078961D01*
X0122081Y0079492D01*
X0123061Y0080472D01*
X0123545Y0081641D01*
X0124010Y0082106D01*
X0124534Y0081582D01*
X0126643Y0080709D01*
X0128925Y0080709D01*
X0131034Y0081582D01*
X0132648Y0083196D01*
X0133521Y0085305D01*
X0133521Y0087587D01*
X0132648Y0089695D01*
X0131647Y0090697D01*
X0139595Y0090001D01*
X0143229Y0090319D01*
X0142606Y0089695D01*
X0141732Y0087587D01*
X0141732Y0085305D01*
X0142606Y0083196D01*
X0144220Y0081582D01*
X0146328Y0080709D01*
X0148610Y0080709D01*
X0150719Y0081582D01*
X0151621Y0082484D01*
X0152582Y0081523D01*
X0153863Y0080993D01*
X0155249Y0080993D01*
X0156530Y0081523D01*
X0157510Y0082503D01*
X0158040Y0083784D01*
X0158040Y0085170D01*
X0157510Y0086451D01*
X0156530Y0087431D01*
X0155360Y0087915D01*
X0154287Y0088989D01*
X0153184Y0089446D01*
X0152436Y0089446D01*
X0152333Y0089695D01*
X0150719Y0091309D01*
X0150545Y0091381D01*
X0156557Y0092992D01*
X0156557Y0092992D01*
X0164392Y0096646D01*
X0164392Y0096646D01*
X0171474Y0101604D01*
X0177587Y0107717D01*
X0178429Y0108921D01*
X0178771Y0107646D01*
X0180101Y0105343D01*
X0181981Y0103463D01*
X0183085Y0102825D01*
X0182385Y0102825D01*
X0181430Y0102429D01*
X0165682Y0086681D01*
X0164950Y0085950D01*
X0164554Y0084994D01*
X0164554Y0045466D01*
X0164201Y0045112D01*
X0163670Y0043832D01*
X0163670Y0042446D01*
X0164201Y0041165D01*
X0165181Y0040185D01*
X0166461Y0039654D01*
X0167847Y0039654D01*
X0169128Y0040185D01*
X0170108Y0041165D01*
X0170639Y0042446D01*
X0170639Y0043832D01*
X0170108Y0045112D01*
X0169754Y0045466D01*
X0169754Y0083400D01*
X0183979Y0097625D01*
X0191294Y0097625D01*
X0192249Y0098021D01*
X0192981Y0098752D01*
X0200855Y0106626D01*
X0201250Y0107582D01*
X0201250Y0134379D01*
X0202982Y0133661D01*
X0213610Y0133661D01*
X0215791Y0134565D01*
X0217460Y0136234D01*
X0218364Y0138415D01*
X0218364Y0140776D01*
X0217460Y0142957D01*
X0215791Y0144626D01*
X0213610Y0145529D01*
X0202982Y0145529D01*
X0201250Y0144812D01*
X0201250Y0149830D01*
X0201545Y0150125D01*
X0202419Y0152234D01*
X0202419Y0154516D01*
X0201545Y0156625D01*
X0199932Y0158238D01*
X0197823Y0159112D01*
X0195541Y0159112D01*
X0193432Y0158238D01*
X0191818Y0156625D01*
X0190945Y0154516D01*
X0190945Y0152234D01*
X0191818Y0150125D01*
X0193432Y0148511D01*
X0195541Y0147638D01*
X0196050Y0147638D01*
X0196050Y0117958D01*
X0194383Y0119625D01*
X0192080Y0120955D01*
X0189511Y0121643D01*
X0186852Y0121643D01*
X0185578Y0121302D01*
X0186198Y0122633D01*
X0188436Y0130983D01*
X0188436Y0130983D01*
X0189189Y0139595D01*
X0189189Y0139595D01*
X0188436Y0148207D01*
X0188436Y0148207D01*
X0186198Y0156557D01*
X0182545Y0164392D01*
X0182545Y0164392D01*
X0177587Y0171474D01*
X0171474Y0177587D01*
X0164392Y0182545D01*
X0156557Y0186198D01*
X0148207Y0188436D01*
X0141257Y0189044D01*
X0150797Y0198584D01*
X0151472Y0199259D01*
X0151838Y0200141D01*
X0151838Y0204391D01*
X0152065Y0204618D01*
X0164564Y0204618D01*
X0173028Y0213083D01*
X0174376Y0214430D01*
X0174376Y0221935D01*
X0175023Y0221287D01*
X0176304Y0220757D01*
X0177690Y0220757D01*
X0178971Y0221287D01*
X0179951Y0222267D01*
X0180481Y0223548D01*
X0180481Y0224934D01*
X0179951Y0226215D01*
X0179297Y0226868D01*
X0179297Y0236084D01*
X0181383Y0238170D01*
X0181976Y0236739D01*
X0183590Y0235125D01*
X0185698Y0234252D01*
X0187981Y0234252D01*
X0188930Y0234645D01*
X0192413Y0231162D01*
X0192413Y0230034D01*
X0192010Y0229630D01*
X0191524Y0228458D01*
X0191524Y0227189D01*
X0192010Y0226017D01*
X0192907Y0225120D01*
X0194079Y0224635D01*
X0195348Y0224635D01*
X0196520Y0225120D01*
X0197417Y0226017D01*
X0197795Y0226931D01*
X0197795Y0202636D01*
X0197026Y0203080D01*
X0194205Y0203836D01*
X0191285Y0203836D01*
X0188464Y0203080D01*
X0185935Y0201620D01*
X0183870Y0199555D01*
X0182409Y0197026D01*
X0181654Y0194205D01*
X0181654Y0191285D01*
X0182409Y0188464D01*
X0183870Y0185935D01*
X0185935Y0183870D01*
X0188464Y0182409D01*
X0191285Y0181654D01*
X0194205Y0181654D01*
X0197026Y0182409D01*
X0199555Y0183870D01*
X0201620Y0185935D01*
X0203080Y0188464D01*
X0203661Y0190630D01*
X0250022Y0190630D01*
X0250777Y0188807D01*
X0252586Y0186998D01*
X0254950Y0186019D01*
X0257508Y0186019D01*
X0259872Y0186998D01*
X0261681Y0188807D01*
X0262660Y0191170D01*
X0262660Y0193729D01*
X0261681Y0196092D01*
X0259872Y0197901D01*
X0257508Y0198880D01*
X0254950Y0198880D01*
X0252586Y0197901D01*
X0251395Y0196710D01*
X0251395Y0215816D01*
X0252171Y0214762D01*
X0258938Y0203299D01*
X0264516Y0191214D01*
X0266694Y0185371D01*
X0266694Y0093820D01*
X0264516Y0087976D01*
X0258938Y0075891D01*
X0252171Y0064429D01*
X0251395Y0063374D01*
X0251395Y0087506D01*
X0250341Y0088561D01*
X0203661Y0088561D01*
X0203080Y0090727D01*
X0201620Y0093256D01*
X0199555Y0095321D01*
X0197026Y0096781D01*
X0194205Y0097537D01*
X0191285Y0097537D01*
X0188464Y0096781D01*
X0185935Y0095321D01*
X0183870Y0093256D01*
X0182409Y0090727D01*
X0181654Y0087906D01*
X0181654Y0084985D01*
X0182409Y0082165D01*
X0183870Y0079635D01*
X0185935Y0077570D01*
X0188464Y0076110D01*
X0191285Y0075354D01*
X0194205Y0075354D01*
X0197026Y0076110D01*
X0197795Y0076554D01*
X0197795Y0046015D01*
X0198850Y0044961D01*
X0236379Y0044961D01*
X0235359Y0043832D01*
X0225484Y0034906D01*
X0214762Y0027020D01*
X0216322Y0028167D02*
X0142361Y0028167D01*
X0139782Y0028167D02*
X0129869Y0028167D01*
X0129869Y0029366D02*
X0217952Y0029366D01*
X0219581Y0030564D02*
X0129869Y0030564D01*
X0129869Y0031763D02*
X0221211Y0031763D01*
X0222840Y0032961D02*
X0129869Y0032961D01*
X0129869Y0034160D02*
X0224470Y0034160D01*
X0225985Y0035358D02*
X0129869Y0035358D01*
X0129869Y0036557D02*
X0227311Y0036557D01*
X0228637Y0037755D02*
X0130321Y0037755D01*
X0130877Y0038954D02*
X0229963Y0038954D01*
X0231289Y0040152D02*
X0169050Y0040152D01*
X0170185Y0041351D02*
X0232614Y0041351D01*
X0233940Y0042549D02*
X0170639Y0042549D01*
X0170639Y0043748D02*
X0235266Y0043748D01*
X0236367Y0044946D02*
X0170177Y0044946D01*
X0169754Y0046145D02*
X0197795Y0046145D01*
X0197795Y0047343D02*
X0169754Y0047343D01*
X0169754Y0048542D02*
X0197795Y0048542D01*
X0197795Y0049740D02*
X0169754Y0049740D01*
X0169754Y0050939D02*
X0197795Y0050939D01*
X0197795Y0052137D02*
X0169754Y0052137D01*
X0169754Y0053336D02*
X0197795Y0053336D01*
X0197795Y0054534D02*
X0169754Y0054534D01*
X0169754Y0055733D02*
X0197795Y0055733D01*
X0197795Y0056932D02*
X0169754Y0056932D01*
X0169754Y0058130D02*
X0197795Y0058130D01*
X0197795Y0059329D02*
X0169754Y0059329D01*
X0169754Y0060527D02*
X0197795Y0060527D01*
X0197795Y0061726D02*
X0169754Y0061726D01*
X0169754Y0062924D02*
X0197795Y0062924D01*
X0197795Y0064123D02*
X0169754Y0064123D01*
X0169754Y0065321D02*
X0197795Y0065321D01*
X0197795Y0066520D02*
X0169754Y0066520D01*
X0169754Y0067718D02*
X0197795Y0067718D01*
X0197795Y0068917D02*
X0169754Y0068917D01*
X0169754Y0070115D02*
X0197795Y0070115D01*
X0197795Y0071314D02*
X0169754Y0071314D01*
X0169754Y0072512D02*
X0197795Y0072512D01*
X0197795Y0073711D02*
X0169754Y0073711D01*
X0169754Y0074909D02*
X0197795Y0074909D01*
X0197795Y0076108D02*
X0197017Y0076108D01*
X0188473Y0076108D02*
X0169754Y0076108D01*
X0169754Y0077306D02*
X0186392Y0077306D01*
X0185000Y0078505D02*
X0169754Y0078505D01*
X0169754Y0079703D02*
X0183830Y0079703D01*
X0183138Y0080902D02*
X0169754Y0080902D01*
X0169754Y0082100D02*
X0182447Y0082100D01*
X0182105Y0083299D02*
X0169754Y0083299D01*
X0170851Y0084497D02*
X0181784Y0084497D01*
X0181654Y0085696D02*
X0172050Y0085696D01*
X0173248Y0086894D02*
X0181654Y0086894D01*
X0181704Y0088093D02*
X0174447Y0088093D01*
X0175645Y0089291D02*
X0182025Y0089291D01*
X0182346Y0090490D02*
X0176844Y0090490D01*
X0178042Y0091688D02*
X0182965Y0091688D01*
X0183657Y0092887D02*
X0179241Y0092887D01*
X0180439Y0094085D02*
X0184699Y0094085D01*
X0185898Y0095284D02*
X0181638Y0095284D01*
X0182837Y0096482D02*
X0187946Y0096482D01*
X0191428Y0097681D02*
X0266694Y0097681D01*
X0266694Y0098879D02*
X0193108Y0098879D01*
X0194306Y0100078D02*
X0229401Y0100078D01*
X0229053Y0100222D02*
X0232041Y0098984D01*
X0247937Y0098984D01*
X0250925Y0100222D01*
X0253213Y0102509D01*
X0254450Y0105498D01*
X0254450Y0108732D01*
X0253213Y0111721D01*
X0250982Y0113951D01*
X0252205Y0115175D01*
X0255304Y0118274D01*
X0257018Y0118984D01*
X0258632Y0120597D01*
X0259505Y0122706D01*
X0259505Y0124988D01*
X0258632Y0127097D01*
X0257018Y0128711D01*
X0254910Y0129584D01*
X0252627Y0129584D01*
X0250519Y0128711D01*
X0248905Y0127097D01*
X0248031Y0124988D01*
X0248031Y0122706D01*
X0248905Y0120597D01*
X0249307Y0120196D01*
X0248245Y0119134D01*
X0244357Y0115246D01*
X0232041Y0115246D01*
X0229053Y0114008D01*
X0226765Y0111721D01*
X0225528Y0108732D01*
X0225528Y0105498D01*
X0226765Y0102509D01*
X0229053Y0100222D01*
X0227998Y0101276D02*
X0195505Y0101276D01*
X0196703Y0102475D02*
X0209048Y0102475D01*
X0209320Y0102362D02*
X0211603Y0102362D01*
X0213711Y0103236D01*
X0215325Y0104849D01*
X0216198Y0106958D01*
X0216198Y0109240D01*
X0215325Y0111349D01*
X0213711Y0112963D01*
X0213061Y0113232D01*
X0213061Y0116142D01*
X0218925Y0116142D01*
X0221106Y0117045D01*
X0222775Y0118714D01*
X0223679Y0120895D01*
X0223679Y0123256D01*
X0222775Y0125437D01*
X0221106Y0127106D01*
X0218925Y0128009D01*
X0208297Y0128009D01*
X0206116Y0127106D01*
X0204447Y0125437D01*
X0203543Y0123256D01*
X0203543Y0120895D01*
X0204447Y0118714D01*
X0206116Y0117045D01*
X0207861Y0116322D01*
X0207861Y0113232D01*
X0207212Y0112963D01*
X0205598Y0111349D01*
X0204724Y0109240D01*
X0204724Y0106958D01*
X0205598Y0104849D01*
X0207212Y0103236D01*
X0209320Y0102362D01*
X0211875Y0102475D02*
X0226800Y0102475D01*
X0226283Y0103673D02*
X0214149Y0103673D01*
X0215334Y0104872D02*
X0225787Y0104872D01*
X0225528Y0106070D02*
X0215831Y0106070D01*
X0216198Y0107269D02*
X0225528Y0107269D01*
X0225528Y0108468D02*
X0216198Y0108468D01*
X0216022Y0109666D02*
X0225914Y0109666D01*
X0226411Y0110865D02*
X0215526Y0110865D01*
X0214611Y0112063D02*
X0227108Y0112063D01*
X0228306Y0113262D02*
X0213061Y0113262D01*
X0213061Y0114460D02*
X0230144Y0114460D01*
X0222999Y0119254D02*
X0248365Y0119254D01*
X0249050Y0120453D02*
X0223495Y0120453D01*
X0223679Y0121651D02*
X0248468Y0121651D01*
X0248031Y0122850D02*
X0223679Y0122850D01*
X0223351Y0124048D02*
X0248031Y0124048D01*
X0248138Y0125247D02*
X0222854Y0125247D01*
X0221767Y0126445D02*
X0248635Y0126445D01*
X0249452Y0127644D02*
X0219808Y0127644D01*
X0216061Y0134835D02*
X0231230Y0134835D01*
X0231181Y0134860D02*
X0231958Y0134464D01*
X0232787Y0134195D01*
X0233483Y0134084D01*
X0233483Y0138995D01*
X0228572Y0138995D01*
X0228683Y0138299D01*
X0228952Y0137470D01*
X0229348Y0136693D01*
X0229860Y0135988D01*
X0230476Y0135372D01*
X0231181Y0134860D01*
X0229827Y0136033D02*
X0217260Y0136033D01*
X0217874Y0137232D02*
X0229073Y0137232D01*
X0228662Y0138430D02*
X0218364Y0138430D01*
X0218364Y0139629D02*
X0233483Y0139629D01*
X0233483Y0140195D02*
X0233483Y0138995D01*
X0234683Y0138995D01*
X0234683Y0134084D01*
X0235380Y0134195D01*
X0236209Y0134464D01*
X0236985Y0134860D01*
X0237691Y0135372D01*
X0238307Y0135988D01*
X0238819Y0136693D01*
X0239215Y0137470D01*
X0239484Y0138299D01*
X0239594Y0138995D01*
X0234684Y0138995D01*
X0234684Y0140195D01*
X0239594Y0140195D01*
X0239484Y0140892D01*
X0239215Y0141721D01*
X0238819Y0142497D01*
X0238307Y0143202D01*
X0237691Y0143819D01*
X0236985Y0144331D01*
X0236209Y0144727D01*
X0235380Y0144996D01*
X0234683Y0145106D01*
X0234683Y0140195D01*
X0233483Y0140195D01*
X0228572Y0140195D01*
X0228683Y0140892D01*
X0228952Y0141721D01*
X0229348Y0142497D01*
X0229860Y0143202D01*
X0230476Y0143819D01*
X0231181Y0144331D01*
X0231958Y0144727D01*
X0232787Y0144996D01*
X0233483Y0145106D01*
X0233483Y0140195D01*
X0233483Y0140827D02*
X0234683Y0140827D01*
X0234684Y0139629D02*
X0266694Y0139629D01*
X0266694Y0140827D02*
X0239494Y0140827D01*
X0239059Y0142026D02*
X0266694Y0142026D01*
X0266694Y0143224D02*
X0238285Y0143224D01*
X0236805Y0144423D02*
X0266694Y0144423D01*
X0266694Y0145621D02*
X0201250Y0145621D01*
X0201250Y0146820D02*
X0266694Y0146820D01*
X0266694Y0148018D02*
X0201250Y0148018D01*
X0201250Y0149217D02*
X0266694Y0149217D01*
X0266694Y0150415D02*
X0201666Y0150415D01*
X0202162Y0151614D02*
X0266694Y0151614D01*
X0266694Y0152812D02*
X0221036Y0152812D01*
X0220750Y0152605D02*
X0221480Y0153135D01*
X0222118Y0153773D01*
X0222649Y0154503D01*
X0223059Y0155308D01*
X0223338Y0156166D01*
X0223455Y0156909D01*
X0210077Y0156909D01*
X0210077Y0158109D01*
X0208877Y0158109D01*
X0208877Y0163219D01*
X0208134Y0163101D01*
X0207276Y0162822D01*
X0206472Y0162413D01*
X0205742Y0161882D01*
X0205104Y0161244D01*
X0204573Y0160514D01*
X0204163Y0159710D01*
X0203884Y0158851D01*
X0203767Y0158109D01*
X0208877Y0158109D01*
X0208877Y0156909D01*
X0203767Y0156909D01*
X0203884Y0156166D01*
X0204163Y0155308D01*
X0204573Y0154503D01*
X0205104Y0153773D01*
X0205742Y0153135D01*
X0206472Y0152605D01*
X0207276Y0152195D01*
X0208134Y0151916D01*
X0208877Y0151798D01*
X0208877Y0156909D01*
X0210077Y0156909D01*
X0210077Y0151775D01*
X0218196Y0151775D01*
X0219088Y0151916D01*
X0219946Y0152195D01*
X0220750Y0152605D01*
X0222291Y0154011D02*
X0243624Y0154011D01*
X0242645Y0154417D02*
X0244753Y0153543D01*
X0247036Y0153543D01*
X0249144Y0154417D01*
X0250758Y0156031D01*
X0251631Y0158139D01*
X0251631Y0160421D01*
X0250758Y0162530D01*
X0249294Y0163994D01*
X0249294Y0164507D01*
X0250925Y0165183D01*
X0253213Y0167470D01*
X0254450Y0170458D01*
X0254450Y0173693D01*
X0253213Y0176681D01*
X0250925Y0178968D01*
X0247937Y0180206D01*
X0232041Y0180206D01*
X0229053Y0178968D01*
X0226765Y0176681D01*
X0225528Y0173693D01*
X0225528Y0170458D01*
X0226765Y0167470D01*
X0229053Y0165183D01*
X0232041Y0163945D01*
X0242446Y0163945D01*
X0241031Y0162530D01*
X0240157Y0160421D01*
X0240157Y0158139D01*
X0241031Y0156031D01*
X0242645Y0154417D01*
X0241852Y0155209D02*
X0223009Y0155209D01*
X0223376Y0156408D02*
X0240875Y0156408D01*
X0240378Y0157606D02*
X0210077Y0157606D01*
X0210077Y0158109D02*
X0223455Y0158109D01*
X0223338Y0158851D01*
X0223059Y0159710D01*
X0222649Y0160514D01*
X0222118Y0161244D01*
X0221480Y0161882D01*
X0220750Y0162413D01*
X0219946Y0162822D01*
X0219088Y0163101D01*
X0218196Y0163243D01*
X0210077Y0163243D01*
X0210077Y0158109D01*
X0210077Y0158805D02*
X0208877Y0158805D01*
X0208877Y0160003D02*
X0210077Y0160003D01*
X0210077Y0161202D02*
X0208877Y0161202D01*
X0208877Y0162401D02*
X0210077Y0162401D01*
X0206455Y0162401D02*
X0183474Y0162401D01*
X0182915Y0163599D02*
X0242100Y0163599D01*
X0240977Y0162401D02*
X0220767Y0162401D01*
X0222149Y0161202D02*
X0240481Y0161202D01*
X0240157Y0160003D02*
X0222909Y0160003D01*
X0223345Y0158805D02*
X0240157Y0158805D01*
X0248165Y0154011D02*
X0266694Y0154011D01*
X0266694Y0155209D02*
X0249937Y0155209D01*
X0250914Y0156408D02*
X0266694Y0156408D01*
X0266694Y0157606D02*
X0251411Y0157606D01*
X0251631Y0158805D02*
X0266694Y0158805D01*
X0266694Y0160003D02*
X0251631Y0160003D01*
X0251308Y0161202D02*
X0266694Y0161202D01*
X0266694Y0162401D02*
X0250812Y0162401D01*
X0249689Y0163599D02*
X0266694Y0163599D01*
X0266694Y0164798D02*
X0249995Y0164798D01*
X0251739Y0165996D02*
X0266694Y0165996D01*
X0266694Y0167195D02*
X0252937Y0167195D01*
X0253595Y0168393D02*
X0266694Y0168393D01*
X0266694Y0169592D02*
X0254091Y0169592D01*
X0254450Y0170790D02*
X0266694Y0170790D01*
X0266694Y0171989D02*
X0254450Y0171989D01*
X0254450Y0173187D02*
X0266694Y0173187D01*
X0266694Y0174386D02*
X0254163Y0174386D01*
X0253667Y0175584D02*
X0266694Y0175584D01*
X0266694Y0176783D02*
X0253111Y0176783D01*
X0251913Y0177981D02*
X0266694Y0177981D01*
X0266694Y0179180D02*
X0250415Y0179180D01*
X0254101Y0186371D02*
X0201872Y0186371D01*
X0202564Y0187569D02*
X0252015Y0187569D01*
X0250817Y0188768D02*
X0203162Y0188768D01*
X0203483Y0189966D02*
X0250297Y0189966D01*
X0251395Y0197157D02*
X0251842Y0197157D01*
X0251395Y0198356D02*
X0253684Y0198356D01*
X0251395Y0199554D02*
X0260666Y0199554D01*
X0261220Y0198356D02*
X0258774Y0198356D01*
X0260616Y0197157D02*
X0261773Y0197157D01*
X0261736Y0195959D02*
X0262326Y0195959D01*
X0262233Y0194760D02*
X0262879Y0194760D01*
X0262660Y0193562D02*
X0263432Y0193562D01*
X0263986Y0192363D02*
X0262660Y0192363D01*
X0262657Y0191165D02*
X0264535Y0191165D01*
X0264981Y0189966D02*
X0262161Y0189966D01*
X0261642Y0188768D02*
X0265428Y0188768D01*
X0265875Y0187569D02*
X0260443Y0187569D01*
X0258358Y0186371D02*
X0266322Y0186371D01*
X0266694Y0185172D02*
X0200858Y0185172D01*
X0199659Y0183974D02*
X0266694Y0183974D01*
X0266694Y0182775D02*
X0197660Y0182775D01*
X0187830Y0182775D02*
X0163899Y0182775D01*
X0164392Y0182545D02*
X0164392Y0182545D01*
X0165775Y0181577D02*
X0266694Y0181577D01*
X0266694Y0180378D02*
X0167487Y0180378D01*
X0169199Y0179180D02*
X0229562Y0179180D01*
X0228065Y0177981D02*
X0170910Y0177981D01*
X0171474Y0177587D02*
X0171474Y0177587D01*
X0172278Y0176783D02*
X0226867Y0176783D01*
X0226311Y0175584D02*
X0173476Y0175584D01*
X0174675Y0174386D02*
X0225815Y0174386D01*
X0225528Y0173187D02*
X0175873Y0173187D01*
X0177072Y0171989D02*
X0225528Y0171989D01*
X0225528Y0170790D02*
X0178065Y0170790D01*
X0177587Y0171474D02*
X0177587Y0171474D01*
X0178904Y0169592D02*
X0225887Y0169592D01*
X0226383Y0168393D02*
X0179744Y0168393D01*
X0180583Y0167195D02*
X0227041Y0167195D01*
X0228239Y0165996D02*
X0181422Y0165996D01*
X0182261Y0164798D02*
X0229982Y0164798D01*
X0210077Y0156408D02*
X0208877Y0156408D01*
X0208877Y0157606D02*
X0200564Y0157606D01*
X0201635Y0156408D02*
X0203846Y0156408D01*
X0204213Y0155209D02*
X0202132Y0155209D01*
X0202419Y0154011D02*
X0204931Y0154011D01*
X0206186Y0152812D02*
X0202419Y0152812D01*
X0203877Y0158805D02*
X0198564Y0158805D01*
X0194800Y0158805D02*
X0185150Y0158805D01*
X0184592Y0160003D02*
X0204313Y0160003D01*
X0205073Y0161202D02*
X0184033Y0161202D01*
X0185709Y0157606D02*
X0192800Y0157606D01*
X0191729Y0156408D02*
X0186239Y0156408D01*
X0186198Y0156557D02*
X0186198Y0156557D01*
X0186560Y0155209D02*
X0191232Y0155209D01*
X0190945Y0154011D02*
X0186881Y0154011D01*
X0187202Y0152812D02*
X0190945Y0152812D01*
X0191202Y0151614D02*
X0187523Y0151614D01*
X0187844Y0150415D02*
X0191698Y0150415D01*
X0192726Y0149217D02*
X0188165Y0149217D01*
X0188452Y0148018D02*
X0194622Y0148018D01*
X0196050Y0146820D02*
X0188557Y0146820D01*
X0188662Y0145621D02*
X0196050Y0145621D01*
X0196050Y0144423D02*
X0188767Y0144423D01*
X0188872Y0143224D02*
X0196050Y0143224D01*
X0196050Y0142026D02*
X0188977Y0142026D01*
X0189082Y0140827D02*
X0196050Y0140827D01*
X0196050Y0139629D02*
X0189186Y0139629D01*
X0189087Y0138430D02*
X0196050Y0138430D01*
X0196050Y0137232D02*
X0188983Y0137232D01*
X0188878Y0136033D02*
X0196050Y0136033D01*
X0196050Y0134835D02*
X0188773Y0134835D01*
X0188668Y0133636D02*
X0196050Y0133636D01*
X0196050Y0132438D02*
X0188563Y0132438D01*
X0188458Y0131239D02*
X0196050Y0131239D01*
X0196050Y0130041D02*
X0188183Y0130041D01*
X0187862Y0128842D02*
X0196050Y0128842D01*
X0196050Y0127644D02*
X0187541Y0127644D01*
X0187220Y0126445D02*
X0196050Y0126445D01*
X0196050Y0125247D02*
X0186899Y0125247D01*
X0186578Y0124048D02*
X0196050Y0124048D01*
X0196050Y0122850D02*
X0186256Y0122850D01*
X0186198Y0122633D02*
X0186198Y0122633D01*
X0185741Y0121651D02*
X0196050Y0121651D01*
X0196050Y0120453D02*
X0192950Y0120453D01*
X0194754Y0119254D02*
X0196050Y0119254D01*
X0196050Y0118056D02*
X0195953Y0118056D01*
X0201250Y0118056D02*
X0205105Y0118056D01*
X0204223Y0119254D02*
X0201250Y0119254D01*
X0201250Y0120453D02*
X0203727Y0120453D01*
X0203543Y0121651D02*
X0201250Y0121651D01*
X0201250Y0122850D02*
X0203543Y0122850D01*
X0203871Y0124048D02*
X0201250Y0124048D01*
X0201250Y0125247D02*
X0204368Y0125247D01*
X0205455Y0126445D02*
X0201250Y0126445D01*
X0201250Y0127644D02*
X0207414Y0127644D01*
X0201250Y0128842D02*
X0250836Y0128842D01*
X0256701Y0128842D02*
X0266694Y0128842D01*
X0266694Y0127644D02*
X0258085Y0127644D01*
X0258902Y0126445D02*
X0266694Y0126445D01*
X0266694Y0125247D02*
X0259399Y0125247D01*
X0259505Y0124048D02*
X0266694Y0124048D01*
X0266694Y0122850D02*
X0259505Y0122850D01*
X0259069Y0121651D02*
X0266694Y0121651D01*
X0266694Y0120453D02*
X0258487Y0120453D01*
X0257289Y0119254D02*
X0266694Y0119254D01*
X0266694Y0118056D02*
X0255086Y0118056D01*
X0253888Y0116857D02*
X0266694Y0116857D01*
X0266694Y0115659D02*
X0252689Y0115659D01*
X0251491Y0114460D02*
X0266694Y0114460D01*
X0266694Y0113262D02*
X0251672Y0113262D01*
X0252870Y0112063D02*
X0266694Y0112063D01*
X0266694Y0110865D02*
X0253567Y0110865D01*
X0254064Y0109666D02*
X0266694Y0109666D01*
X0266694Y0108468D02*
X0254450Y0108468D01*
X0254450Y0107269D02*
X0266694Y0107269D01*
X0266694Y0106070D02*
X0254450Y0106070D01*
X0254191Y0104872D02*
X0266694Y0104872D01*
X0266694Y0103673D02*
X0253695Y0103673D01*
X0253178Y0102475D02*
X0266694Y0102475D01*
X0266694Y0101276D02*
X0251980Y0101276D01*
X0250577Y0100078D02*
X0266694Y0100078D01*
X0266694Y0096482D02*
X0197543Y0096482D01*
X0199592Y0095284D02*
X0266694Y0095284D01*
X0266694Y0094085D02*
X0200791Y0094085D01*
X0201833Y0092887D02*
X0266347Y0092887D01*
X0265900Y0091688D02*
X0202525Y0091688D01*
X0203144Y0090490D02*
X0265453Y0090490D01*
X0265006Y0089291D02*
X0203465Y0089291D01*
X0181540Y0102475D02*
X0172345Y0102475D01*
X0171474Y0101604D02*
X0171474Y0101604D01*
X0171006Y0101276D02*
X0180277Y0101276D01*
X0179078Y0100078D02*
X0169294Y0100078D01*
X0167583Y0098879D02*
X0177880Y0098879D01*
X0176681Y0097681D02*
X0165871Y0097681D01*
X0164042Y0096482D02*
X0175483Y0096482D01*
X0174284Y0095284D02*
X0161472Y0095284D01*
X0158902Y0094085D02*
X0173086Y0094085D01*
X0171887Y0092887D02*
X0156165Y0092887D01*
X0151692Y0091688D02*
X0170689Y0091688D01*
X0169490Y0090490D02*
X0151538Y0090490D01*
X0153557Y0089291D02*
X0168292Y0089291D01*
X0167093Y0088093D02*
X0155183Y0088093D01*
X0157066Y0086894D02*
X0165895Y0086894D01*
X0164845Y0085696D02*
X0157822Y0085696D01*
X0158040Y0084497D02*
X0164554Y0084497D01*
X0164554Y0083299D02*
X0157839Y0083299D01*
X0157106Y0082100D02*
X0164554Y0082100D01*
X0164554Y0080902D02*
X0149077Y0080902D01*
X0151237Y0082100D02*
X0152005Y0082100D01*
X0145862Y0080902D02*
X0129392Y0080902D01*
X0131552Y0082100D02*
X0143701Y0082100D01*
X0142563Y0083299D02*
X0132690Y0083299D01*
X0133187Y0084497D02*
X0142067Y0084497D01*
X0141732Y0085696D02*
X0133521Y0085696D01*
X0133521Y0086894D02*
X0141732Y0086894D01*
X0141942Y0088093D02*
X0133312Y0088093D01*
X0132815Y0089291D02*
X0142438Y0089291D01*
X0134010Y0090490D02*
X0131853Y0090490D01*
X0125450Y0091688D02*
X0096226Y0091688D01*
X0096845Y0090490D02*
X0123715Y0090490D01*
X0122753Y0089291D02*
X0097166Y0089291D01*
X0097487Y0088093D02*
X0121512Y0088093D01*
X0120313Y0086894D02*
X0097537Y0086894D01*
X0097537Y0085696D02*
X0118849Y0085696D01*
X0117231Y0084497D02*
X0097406Y0084497D01*
X0097085Y0083299D02*
X0116689Y0083299D01*
X0116623Y0082100D02*
X0096744Y0082100D01*
X0096052Y0080902D02*
X0116975Y0080902D01*
X0117922Y0079703D02*
X0095360Y0079703D01*
X0094190Y0078505D02*
X0164554Y0078505D01*
X0164554Y0079703D02*
X0122292Y0079703D01*
X0123239Y0080902D02*
X0126177Y0080902D01*
X0124016Y0082100D02*
X0124004Y0082100D01*
X0123026Y0092887D02*
X0095534Y0092887D01*
X0094491Y0094085D02*
X0120288Y0094085D01*
X0117718Y0095284D02*
X0093293Y0095284D01*
X0091244Y0096482D02*
X0115148Y0096482D01*
X0113320Y0097681D02*
X0012496Y0097681D01*
X0012496Y0098879D02*
X0111608Y0098879D01*
X0109896Y0100078D02*
X0012496Y0100078D01*
X0012496Y0101276D02*
X0108185Y0101276D01*
X0106846Y0102475D02*
X0095499Y0102475D01*
X0097420Y0103673D02*
X0105647Y0103673D01*
X0104449Y0104872D02*
X0098619Y0104872D01*
X0099510Y0106070D02*
X0103250Y0106070D01*
X0102052Y0107269D02*
X0100202Y0107269D01*
X0100640Y0108468D02*
X0101078Y0108468D01*
X0101604Y0107717D02*
X0101604Y0107717D01*
X0086518Y0102475D02*
X0012496Y0102475D01*
X0012496Y0103673D02*
X0084597Y0103673D01*
X0083398Y0104872D02*
X0012496Y0104872D01*
X0012496Y0106070D02*
X0082507Y0106070D01*
X0081815Y0107269D02*
X0012496Y0107269D01*
X0012496Y0108468D02*
X0081378Y0108468D01*
X0081056Y0109666D02*
X0012496Y0109666D01*
X0012496Y0110865D02*
X0080909Y0110865D01*
X0080909Y0112063D02*
X0012496Y0112063D01*
X0012496Y0113262D02*
X0081013Y0113262D01*
X0081335Y0114460D02*
X0012496Y0114460D01*
X0012496Y0115659D02*
X0081723Y0115659D01*
X0082415Y0116857D02*
X0012496Y0116857D01*
X0012496Y0118056D02*
X0037718Y0118056D01*
X0039202Y0117860D02*
X0033576Y0118601D01*
X0033576Y0118601D01*
X0028334Y0120772D01*
X0028334Y0120772D01*
X0023833Y0124226D01*
X0023833Y0124226D01*
X0023833Y0124226D01*
X0020378Y0128728D01*
X0020378Y0128728D01*
X0018207Y0133970D01*
X0018207Y0133970D01*
X0017467Y0139595D01*
X0017467Y0139595D01*
X0018207Y0145221D01*
X0018207Y0145221D01*
X0020378Y0150463D01*
X0020378Y0150463D01*
X0023833Y0154964D01*
X0023833Y0154964D01*
X0023833Y0154964D01*
X0028334Y0158418D01*
X0028334Y0158418D01*
X0033576Y0160590D01*
X0033576Y0160590D01*
X0039202Y0161330D01*
X0039202Y0161330D01*
X0044827Y0160590D01*
X0044827Y0160590D01*
X0050069Y0158418D01*
X0050069Y0158418D01*
X0054571Y0154964D01*
X0054571Y0154964D01*
X0058025Y0150463D01*
X0058025Y0150463D01*
X0060196Y0145221D01*
X0060937Y0139595D01*
X0060196Y0133970D01*
X0060196Y0133970D01*
X0058025Y0128728D01*
X0058025Y0128728D01*
X0054571Y0124226D01*
X0054571Y0124226D01*
X0054571Y0124226D01*
X0050069Y0120772D01*
X0050069Y0120772D01*
X0044827Y0118601D01*
X0044827Y0118601D01*
X0039202Y0117860D01*
X0039202Y0117860D01*
X0040685Y0118056D02*
X0083238Y0118056D01*
X0084436Y0119254D02*
X0046404Y0119254D01*
X0049298Y0120453D02*
X0086240Y0120453D01*
X0092992Y0122633D02*
X0092992Y0122633D01*
X0092934Y0122850D02*
X0052776Y0122850D01*
X0051215Y0121651D02*
X0093450Y0121651D01*
X0092613Y0124048D02*
X0054338Y0124048D01*
X0055354Y0125247D02*
X0092292Y0125247D01*
X0091971Y0126445D02*
X0056273Y0126445D01*
X0057193Y0127644D02*
X0091649Y0127644D01*
X0091328Y0128842D02*
X0058072Y0128842D01*
X0058568Y0130041D02*
X0091007Y0130041D01*
X0090755Y0130983D02*
X0090755Y0130983D01*
X0090732Y0131239D02*
X0059065Y0131239D01*
X0059561Y0132438D02*
X0090627Y0132438D01*
X0090523Y0133636D02*
X0060058Y0133636D01*
X0060310Y0134835D02*
X0090418Y0134835D01*
X0090313Y0136033D02*
X0060468Y0136033D01*
X0060625Y0137232D02*
X0090208Y0137232D01*
X0090103Y0138430D02*
X0060783Y0138430D01*
X0060932Y0139629D02*
X0090004Y0139629D01*
X0090001Y0139595D02*
X0090001Y0139595D01*
X0090109Y0140827D02*
X0060774Y0140827D01*
X0060617Y0142026D02*
X0090214Y0142026D01*
X0090319Y0143224D02*
X0060459Y0143224D01*
X0060301Y0144423D02*
X0090424Y0144423D01*
X0090528Y0145621D02*
X0060030Y0145621D01*
X0059534Y0146820D02*
X0090633Y0146820D01*
X0090738Y0148018D02*
X0059037Y0148018D01*
X0058541Y0149217D02*
X0091025Y0149217D01*
X0090755Y0148207D02*
X0090755Y0148207D01*
X0091346Y0150415D02*
X0058044Y0150415D01*
X0057141Y0151614D02*
X0091667Y0151614D01*
X0091989Y0152812D02*
X0078884Y0152812D01*
X0079873Y0154011D02*
X0092310Y0154011D01*
X0092631Y0155209D02*
X0080284Y0155209D01*
X0080284Y0156408D02*
X0092952Y0156408D01*
X0092992Y0156557D02*
X0092992Y0156557D01*
X0093481Y0157606D02*
X0079813Y0157606D01*
X0079522Y0158805D02*
X0094040Y0158805D01*
X0094599Y0160003D02*
X0080720Y0160003D01*
X0081919Y0161202D02*
X0095158Y0161202D01*
X0095717Y0162401D02*
X0083117Y0162401D01*
X0084316Y0163599D02*
X0096276Y0163599D01*
X0096646Y0164392D02*
X0096646Y0164392D01*
X0096929Y0164798D02*
X0085514Y0164798D01*
X0086713Y0165996D02*
X0097768Y0165996D01*
X0098608Y0167195D02*
X0087912Y0167195D01*
X0089110Y0168393D02*
X0099447Y0168393D01*
X0100286Y0169592D02*
X0090309Y0169592D01*
X0091507Y0170790D02*
X0101125Y0170790D01*
X0102119Y0171989D02*
X0092706Y0171989D01*
X0093904Y0173187D02*
X0103317Y0173187D01*
X0104516Y0174386D02*
X0095103Y0174386D01*
X0096301Y0175584D02*
X0105714Y0175584D01*
X0106913Y0176783D02*
X0097500Y0176783D01*
X0098698Y0177981D02*
X0108280Y0177981D01*
X0107717Y0177587D02*
X0107717Y0177587D01*
X0109992Y0179180D02*
X0099897Y0179180D01*
X0101095Y0180378D02*
X0111704Y0180378D01*
X0113415Y0181577D02*
X0102294Y0181577D01*
X0103492Y0182775D02*
X0115292Y0182775D01*
X0114798Y0182545D02*
X0114798Y0182545D01*
X0117862Y0183974D02*
X0104691Y0183974D01*
X0105889Y0185172D02*
X0120432Y0185172D01*
X0122633Y0186198D02*
X0122633Y0186198D01*
X0123276Y0186371D02*
X0107088Y0186371D01*
X0108286Y0187569D02*
X0127749Y0187569D01*
X0139595Y0190776D02*
X0149438Y0200619D01*
X0149438Y0206918D01*
X0146234Y0205547D02*
X0130875Y0205547D01*
X0130875Y0206036D02*
X0130344Y0207317D01*
X0129364Y0208297D01*
X0128084Y0208828D01*
X0126697Y0208828D01*
X0125417Y0208297D01*
X0124763Y0207643D01*
X0122438Y0207643D01*
X0120242Y0209839D01*
X0120242Y0231099D01*
X0118894Y0232446D01*
X0114170Y0237171D01*
X0110333Y0237171D01*
X0110209Y0237295D01*
X0128330Y0237295D01*
X0128734Y0236892D01*
X0129028Y0236770D01*
X0129028Y0217002D01*
X0128624Y0216599D01*
X0128139Y0215426D01*
X0128139Y0214158D01*
X0128624Y0212986D01*
X0129521Y0212089D01*
X0130693Y0211603D01*
X0131962Y0211603D01*
X0133134Y0212089D01*
X0134031Y0212986D01*
X0134517Y0214158D01*
X0134517Y0215426D01*
X0134031Y0216599D01*
X0133628Y0217002D01*
X0133628Y0238716D01*
X0133729Y0238961D01*
X0133729Y0240230D01*
X0133244Y0241402D01*
X0132347Y0242299D01*
X0131174Y0242784D01*
X0129906Y0242784D01*
X0128734Y0242299D01*
X0128330Y0241895D01*
X0109915Y0241895D01*
X0109512Y0242299D01*
X0108340Y0242784D01*
X0107071Y0242784D01*
X0105899Y0242299D01*
X0105002Y0241402D01*
X0104517Y0240230D01*
X0104517Y0238961D01*
X0105002Y0237789D01*
X0105349Y0237442D01*
X0104752Y0236845D01*
X0104221Y0235564D01*
X0104221Y0234178D01*
X0104752Y0232897D01*
X0105732Y0231917D01*
X0107012Y0231387D01*
X0108399Y0231387D01*
X0109679Y0231917D01*
X0110333Y0232571D01*
X0112265Y0232571D01*
X0115642Y0229194D01*
X0115642Y0207934D01*
X0119185Y0204391D01*
X0120532Y0203043D01*
X0124763Y0203043D01*
X0125417Y0202389D01*
X0126697Y0201859D01*
X0128084Y0201859D01*
X0129364Y0202389D01*
X0130344Y0203370D01*
X0130875Y0204650D01*
X0130875Y0206036D01*
X0130581Y0206745D02*
X0145954Y0206745D01*
X0146091Y0207944D02*
X0129717Y0207944D01*
X0130750Y0204348D02*
X0147038Y0204348D01*
X0147038Y0203150D02*
X0130125Y0203150D01*
X0128307Y0201951D02*
X0147038Y0201951D01*
X0146178Y0200753D02*
X0094123Y0200753D01*
X0095321Y0199554D02*
X0144979Y0199554D01*
X0143781Y0198356D02*
X0096013Y0198356D01*
X0096705Y0197157D02*
X0142582Y0197157D01*
X0141384Y0195959D02*
X0097067Y0195959D01*
X0097388Y0194760D02*
X0140185Y0194760D01*
X0138987Y0193562D02*
X0097537Y0193562D01*
X0097537Y0192363D02*
X0106292Y0192363D01*
X0105094Y0191165D02*
X0097505Y0191165D01*
X0097184Y0189966D02*
X0103895Y0189966D01*
X0102696Y0188768D02*
X0096863Y0188768D01*
X0096265Y0187569D02*
X0101498Y0187569D01*
X0100299Y0186371D02*
X0095573Y0186371D01*
X0094559Y0185172D02*
X0099101Y0185172D01*
X0097902Y0183974D02*
X0093360Y0183974D01*
X0091360Y0182775D02*
X0096704Y0182775D01*
X0095505Y0181577D02*
X0047177Y0181577D01*
X0047139Y0181614D02*
X0046434Y0182126D01*
X0045658Y0182522D01*
X0044829Y0182791D01*
X0044132Y0182902D01*
X0044132Y0177991D01*
X0042932Y0177991D01*
X0042932Y0182902D01*
X0042236Y0182791D01*
X0041407Y0182522D01*
X0040630Y0182126D01*
X0039925Y0181614D01*
X0039309Y0180998D01*
X0038797Y0180293D01*
X0038401Y0179516D01*
X0038132Y0178687D01*
X0038021Y0177991D01*
X0042932Y0177991D01*
X0042932Y0176791D01*
X0038021Y0176791D01*
X0038132Y0176094D01*
X0038401Y0175265D01*
X0038797Y0174489D01*
X0039309Y0173783D01*
X0039925Y0173167D01*
X0040630Y0172655D01*
X0041407Y0172259D01*
X0042236Y0171990D01*
X0042932Y0171880D01*
X0042932Y0176791D01*
X0044132Y0176791D01*
X0044132Y0177991D01*
X0049043Y0177991D01*
X0048933Y0178687D01*
X0048664Y0179516D01*
X0048268Y0180293D01*
X0047756Y0180998D01*
X0047139Y0181614D01*
X0048206Y0180378D02*
X0094307Y0180378D01*
X0093108Y0179180D02*
X0048773Y0179180D01*
X0049043Y0176791D02*
X0044132Y0176791D01*
X0044132Y0171880D01*
X0044829Y0171990D01*
X0045658Y0172259D01*
X0046434Y0172655D01*
X0047139Y0173167D01*
X0047756Y0173783D01*
X0048268Y0174489D01*
X0048664Y0175265D01*
X0048933Y0176094D01*
X0049043Y0176791D01*
X0049042Y0176783D02*
X0090711Y0176783D01*
X0089513Y0175584D02*
X0048767Y0175584D01*
X0048193Y0174386D02*
X0088314Y0174386D01*
X0087116Y0173187D02*
X0047159Y0173187D01*
X0044821Y0171989D02*
X0085917Y0171989D01*
X0084719Y0170790D02*
X0012496Y0170790D01*
X0012496Y0169592D02*
X0083520Y0169592D01*
X0082322Y0168393D02*
X0012496Y0168393D01*
X0012496Y0167195D02*
X0081123Y0167195D01*
X0079925Y0165996D02*
X0012496Y0165996D01*
X0012496Y0164798D02*
X0078726Y0164798D01*
X0077528Y0163599D02*
X0012496Y0163599D01*
X0012496Y0162401D02*
X0076329Y0162401D01*
X0075131Y0161202D02*
X0040176Y0161202D01*
X0038227Y0161202D02*
X0012496Y0161202D01*
X0012496Y0160003D02*
X0032161Y0160003D01*
X0029267Y0158805D02*
X0012496Y0158805D01*
X0012496Y0157606D02*
X0027276Y0157606D01*
X0025714Y0156408D02*
X0012496Y0156408D01*
X0012496Y0155209D02*
X0024152Y0155209D01*
X0023101Y0154011D02*
X0012496Y0154011D01*
X0012496Y0152812D02*
X0022181Y0152812D01*
X0021262Y0151614D02*
X0012496Y0151614D01*
X0012496Y0150415D02*
X0020359Y0150415D01*
X0019862Y0149217D02*
X0012496Y0149217D01*
X0012496Y0148018D02*
X0019366Y0148018D01*
X0018870Y0146820D02*
X0012496Y0146820D01*
X0012496Y0145621D02*
X0018373Y0145621D01*
X0018102Y0144423D02*
X0012496Y0144423D01*
X0012496Y0143224D02*
X0017944Y0143224D01*
X0017787Y0142026D02*
X0012496Y0142026D01*
X0012496Y0140827D02*
X0017629Y0140827D01*
X0017471Y0139629D02*
X0012496Y0139629D01*
X0012496Y0138430D02*
X0017620Y0138430D01*
X0017778Y0137232D02*
X0012496Y0137232D01*
X0012496Y0136033D02*
X0017935Y0136033D01*
X0018093Y0134835D02*
X0012496Y0134835D01*
X0012496Y0133636D02*
X0018345Y0133636D01*
X0018842Y0132438D02*
X0012496Y0132438D01*
X0012496Y0131239D02*
X0019338Y0131239D01*
X0019835Y0130041D02*
X0012496Y0130041D01*
X0012496Y0128842D02*
X0020331Y0128842D01*
X0021210Y0127644D02*
X0012496Y0127644D01*
X0012496Y0126445D02*
X0022130Y0126445D01*
X0023050Y0125247D02*
X0012496Y0125247D01*
X0012496Y0124048D02*
X0024065Y0124048D01*
X0025627Y0122850D02*
X0012496Y0122850D01*
X0012496Y0121651D02*
X0027189Y0121651D01*
X0029106Y0120453D02*
X0012496Y0120453D01*
X0012496Y0119254D02*
X0031999Y0119254D01*
X0012496Y0096482D02*
X0081647Y0096482D01*
X0079598Y0095284D02*
X0012496Y0095284D01*
X0012496Y0094085D02*
X0078400Y0094085D01*
X0077357Y0092887D02*
X0012844Y0092887D01*
X0013291Y0091688D02*
X0076665Y0091688D01*
X0076047Y0090490D02*
X0013737Y0090490D01*
X0014184Y0089291D02*
X0075726Y0089291D01*
X0081395Y0076108D02*
X0082174Y0076108D01*
X0081395Y0074909D02*
X0164554Y0074909D01*
X0164554Y0073711D02*
X0081395Y0073711D01*
X0081395Y0072512D02*
X0164554Y0072512D01*
X0164554Y0071314D02*
X0081395Y0071314D01*
X0081395Y0070115D02*
X0164554Y0070115D01*
X0164554Y0068917D02*
X0081395Y0068917D01*
X0081395Y0067718D02*
X0164554Y0067718D01*
X0164554Y0066520D02*
X0081395Y0066520D01*
X0081395Y0065321D02*
X0164554Y0065321D01*
X0164554Y0064123D02*
X0081395Y0064123D01*
X0081395Y0062924D02*
X0143060Y0062924D01*
X0143301Y0063165D02*
X0142404Y0062268D01*
X0141918Y0061096D01*
X0141918Y0059827D01*
X0142404Y0058655D01*
X0143301Y0057758D01*
X0144473Y0057272D01*
X0145741Y0057272D01*
X0146913Y0057758D01*
X0147017Y0057861D01*
X0155796Y0057861D01*
X0155899Y0057758D01*
X0157071Y0057272D01*
X0158340Y0057272D01*
X0159512Y0057758D01*
X0160409Y0058655D01*
X0160894Y0059827D01*
X0160894Y0061096D01*
X0160409Y0062268D01*
X0159512Y0063165D01*
X0158340Y0063650D01*
X0157071Y0063650D01*
X0155899Y0063165D01*
X0155796Y0063061D01*
X0147017Y0063061D01*
X0146913Y0063165D01*
X0145741Y0063650D01*
X0144473Y0063650D01*
X0143301Y0063165D01*
X0142179Y0061726D02*
X0081395Y0061726D01*
X0081395Y0060527D02*
X0141918Y0060527D01*
X0142125Y0059329D02*
X0081395Y0059329D01*
X0081395Y0058130D02*
X0142929Y0058130D01*
X0159884Y0058130D02*
X0164554Y0058130D01*
X0164554Y0056932D02*
X0081395Y0056932D01*
X0081395Y0055733D02*
X0164554Y0055733D01*
X0164554Y0054534D02*
X0081395Y0054534D01*
X0081395Y0053336D02*
X0164554Y0053336D01*
X0164554Y0052137D02*
X0081395Y0052137D01*
X0081395Y0050939D02*
X0164554Y0050939D01*
X0164554Y0049740D02*
X0081395Y0049740D01*
X0081395Y0048542D02*
X0164554Y0048542D01*
X0164554Y0047343D02*
X0081395Y0047343D01*
X0081395Y0046145D02*
X0164554Y0046145D01*
X0164132Y0044946D02*
X0042824Y0044946D01*
X0043924Y0043748D02*
X0163670Y0043748D01*
X0163670Y0042549D02*
X0129679Y0042549D01*
X0130611Y0041351D02*
X0164123Y0041351D01*
X0165259Y0040152D02*
X0130954Y0040152D01*
X0125069Y0036557D02*
X0051880Y0036557D01*
X0053206Y0035358D02*
X0125069Y0035358D01*
X0125069Y0034160D02*
X0054721Y0034160D01*
X0056350Y0032961D02*
X0125069Y0032961D01*
X0125069Y0031763D02*
X0057980Y0031763D01*
X0059609Y0030564D02*
X0125069Y0030564D01*
X0125069Y0029366D02*
X0061239Y0029366D01*
X0062868Y0028167D02*
X0125069Y0028167D01*
X0125069Y0026969D02*
X0064515Y0026969D01*
X0066545Y0025770D02*
X0125265Y0025770D01*
X0126225Y0024572D02*
X0068575Y0024572D01*
X0070606Y0023373D02*
X0127423Y0023373D01*
X0128622Y0022175D02*
X0072636Y0022175D01*
X0074666Y0020976D02*
X0204525Y0020976D01*
X0202270Y0019778D02*
X0076921Y0019778D01*
X0079517Y0018579D02*
X0199673Y0018579D01*
X0197077Y0017381D02*
X0082114Y0017381D01*
X0084710Y0016182D02*
X0194481Y0016182D01*
X0191884Y0014984D02*
X0087306Y0014984D01*
X0090362Y0013785D02*
X0188829Y0013785D01*
X0185614Y0012587D02*
X0093577Y0012587D01*
X0124618Y0037755D02*
X0050554Y0037755D01*
X0027795Y0064123D02*
X0027245Y0064123D01*
X0027795Y0065321D02*
X0026493Y0065321D01*
X0025785Y0066520D02*
X0027795Y0066520D01*
X0027795Y0067718D02*
X0025078Y0067718D01*
X0024370Y0068917D02*
X0027795Y0068917D01*
X0027795Y0070115D02*
X0023663Y0070115D01*
X0022955Y0071314D02*
X0027795Y0071314D01*
X0027795Y0072512D02*
X0022248Y0072512D01*
X0021540Y0073711D02*
X0027795Y0073711D01*
X0027795Y0074909D02*
X0020833Y0074909D01*
X0020153Y0076108D02*
X0027795Y0076108D01*
X0027795Y0077306D02*
X0019600Y0077306D01*
X0019046Y0078505D02*
X0027795Y0078505D01*
X0027795Y0079703D02*
X0018493Y0079703D01*
X0017940Y0080902D02*
X0027795Y0080902D01*
X0027795Y0082100D02*
X0017387Y0082100D01*
X0016834Y0083299D02*
X0027795Y0083299D01*
X0027795Y0084497D02*
X0016280Y0084497D01*
X0015727Y0085696D02*
X0027795Y0085696D01*
X0027795Y0086894D02*
X0015174Y0086894D01*
X0014631Y0088093D02*
X0028382Y0088093D01*
X0090717Y0076108D02*
X0164554Y0076108D01*
X0164554Y0077306D02*
X0092798Y0077306D01*
X0130616Y0026969D02*
X0138183Y0026969D01*
X0160688Y0059329D02*
X0164554Y0059329D01*
X0164554Y0060527D02*
X0160894Y0060527D01*
X0160634Y0061726D02*
X0164554Y0061726D01*
X0164554Y0062924D02*
X0159753Y0062924D01*
X0173543Y0103673D02*
X0181770Y0103673D01*
X0180572Y0104872D02*
X0174742Y0104872D01*
X0175940Y0106070D02*
X0179680Y0106070D01*
X0178989Y0107269D02*
X0177139Y0107269D01*
X0177587Y0107717D02*
X0177587Y0107717D01*
X0178112Y0108468D02*
X0178551Y0108468D01*
X0197902Y0103673D02*
X0206774Y0103673D01*
X0205588Y0104872D02*
X0199100Y0104872D01*
X0200299Y0106070D02*
X0205092Y0106070D01*
X0204724Y0107269D02*
X0201121Y0107269D01*
X0201250Y0108468D02*
X0204724Y0108468D01*
X0204901Y0109666D02*
X0201250Y0109666D01*
X0201250Y0110865D02*
X0205397Y0110865D01*
X0206312Y0112063D02*
X0201250Y0112063D01*
X0201250Y0113262D02*
X0207861Y0113262D01*
X0207861Y0114460D02*
X0201250Y0114460D01*
X0201250Y0115659D02*
X0207861Y0115659D01*
X0206570Y0116857D02*
X0201250Y0116857D01*
X0213061Y0115659D02*
X0244770Y0115659D01*
X0245968Y0116857D02*
X0220652Y0116857D01*
X0222117Y0118056D02*
X0247167Y0118056D01*
X0266694Y0130041D02*
X0201250Y0130041D01*
X0201250Y0131239D02*
X0266694Y0131239D01*
X0266694Y0132438D02*
X0201250Y0132438D01*
X0201250Y0133636D02*
X0266694Y0133636D01*
X0266694Y0134835D02*
X0236937Y0134835D01*
X0238340Y0136033D02*
X0266694Y0136033D01*
X0266694Y0137232D02*
X0239094Y0137232D01*
X0239505Y0138430D02*
X0266694Y0138430D01*
X0234683Y0138430D02*
X0233483Y0138430D01*
X0233483Y0137232D02*
X0234683Y0137232D01*
X0234683Y0136033D02*
X0233483Y0136033D01*
X0233483Y0134835D02*
X0234683Y0134835D01*
X0234683Y0142026D02*
X0233483Y0142026D01*
X0233483Y0143224D02*
X0234683Y0143224D01*
X0234683Y0144423D02*
X0233483Y0144423D01*
X0231362Y0144423D02*
X0215994Y0144423D01*
X0217193Y0143224D02*
X0229882Y0143224D01*
X0229108Y0142026D02*
X0217846Y0142026D01*
X0218342Y0140827D02*
X0228673Y0140827D01*
X0210077Y0152812D02*
X0208877Y0152812D01*
X0208877Y0154011D02*
X0210077Y0154011D01*
X0210077Y0155209D02*
X0208877Y0155209D01*
X0185831Y0183974D02*
X0161328Y0183974D01*
X0158758Y0185172D02*
X0184632Y0185172D01*
X0183618Y0186371D02*
X0155915Y0186371D01*
X0156557Y0186198D02*
X0156557Y0186198D01*
X0151442Y0187569D02*
X0182926Y0187569D01*
X0182328Y0188768D02*
X0144414Y0188768D01*
X0142179Y0189966D02*
X0182007Y0189966D01*
X0181686Y0191165D02*
X0143378Y0191165D01*
X0144576Y0192363D02*
X0181654Y0192363D01*
X0181654Y0193562D02*
X0145775Y0193562D01*
X0146973Y0194760D02*
X0181802Y0194760D01*
X0182123Y0195959D02*
X0148172Y0195959D01*
X0149370Y0197157D02*
X0182485Y0197157D01*
X0183177Y0198356D02*
X0150569Y0198356D01*
X0150797Y0198584D02*
X0150797Y0198584D01*
X0151595Y0199554D02*
X0183869Y0199554D01*
X0185067Y0200753D02*
X0151838Y0200753D01*
X0151838Y0201951D02*
X0186508Y0201951D01*
X0188723Y0203150D02*
X0151838Y0203150D01*
X0151838Y0204348D02*
X0197795Y0204348D01*
X0197795Y0203150D02*
X0196766Y0203150D01*
X0197795Y0205547D02*
X0165493Y0205547D01*
X0166691Y0206745D02*
X0197795Y0206745D01*
X0197795Y0207944D02*
X0167890Y0207944D01*
X0169088Y0209142D02*
X0197795Y0209142D01*
X0197795Y0210341D02*
X0170287Y0210341D01*
X0171485Y0211539D02*
X0197795Y0211539D01*
X0197795Y0212738D02*
X0172684Y0212738D01*
X0173882Y0213937D02*
X0197795Y0213937D01*
X0197795Y0215135D02*
X0174376Y0215135D01*
X0174376Y0216334D02*
X0197795Y0216334D01*
X0197795Y0217532D02*
X0174376Y0217532D01*
X0174376Y0218731D02*
X0197795Y0218731D01*
X0197795Y0219929D02*
X0174376Y0219929D01*
X0174376Y0221128D02*
X0175408Y0221128D01*
X0178585Y0221128D02*
X0197795Y0221128D01*
X0197795Y0222326D02*
X0179975Y0222326D01*
X0180471Y0223525D02*
X0197795Y0223525D01*
X0197795Y0224723D02*
X0195561Y0224723D01*
X0193865Y0224723D02*
X0180481Y0224723D01*
X0180072Y0225922D02*
X0192105Y0225922D01*
X0191553Y0227120D02*
X0179297Y0227120D01*
X0179297Y0228319D02*
X0191524Y0228319D01*
X0191963Y0229517D02*
X0179297Y0229517D01*
X0179297Y0230716D02*
X0192413Y0230716D01*
X0191661Y0231914D02*
X0179297Y0231914D01*
X0179297Y0233113D02*
X0190463Y0233113D01*
X0189264Y0234311D02*
X0188124Y0234311D01*
X0185555Y0234311D02*
X0179297Y0234311D01*
X0179297Y0235510D02*
X0183205Y0235510D01*
X0182007Y0236708D02*
X0179922Y0236708D01*
X0181120Y0237907D02*
X0181492Y0237907D01*
X0170760Y0236377D02*
X0170760Y0232083D01*
X0170688Y0232011D01*
X0170631Y0231954D01*
X0168798Y0231954D01*
X0168144Y0232608D01*
X0166863Y0233139D01*
X0165477Y0233139D01*
X0164196Y0232608D01*
X0163216Y0231628D01*
X0162686Y0230347D01*
X0162686Y0228961D01*
X0163216Y0227681D01*
X0164196Y0226701D01*
X0165477Y0226170D01*
X0166863Y0226170D01*
X0168144Y0226701D01*
X0168798Y0227354D01*
X0169776Y0227354D01*
X0169776Y0223594D01*
X0169620Y0223750D01*
X0168340Y0224280D01*
X0166953Y0224280D01*
X0165673Y0223750D01*
X0165019Y0223096D01*
X0161217Y0223096D01*
X0160596Y0223717D01*
X0160596Y0234997D01*
X0160596Y0234997D01*
X0160596Y0235860D01*
X0160796Y0236343D01*
X0160796Y0237098D01*
X0167516Y0237098D01*
X0169576Y0239158D01*
X0169576Y0238312D01*
X0170106Y0237031D01*
X0170760Y0236377D01*
X0170429Y0236708D02*
X0160796Y0236708D01*
X0160596Y0235510D02*
X0170760Y0235510D01*
X0170760Y0234311D02*
X0160596Y0234311D01*
X0160596Y0233113D02*
X0165415Y0233113D01*
X0166926Y0233113D02*
X0170760Y0233113D01*
X0170688Y0232011D02*
X0170688Y0232011D01*
X0169776Y0227120D02*
X0168563Y0227120D01*
X0169776Y0225922D02*
X0160596Y0225922D01*
X0160596Y0227120D02*
X0163777Y0227120D01*
X0162952Y0228319D02*
X0160596Y0228319D01*
X0160596Y0229517D02*
X0162686Y0229517D01*
X0162838Y0230716D02*
X0160596Y0230716D01*
X0160596Y0231914D02*
X0163502Y0231914D01*
X0168325Y0237907D02*
X0169743Y0237907D01*
X0169576Y0239105D02*
X0169523Y0239105D01*
X0166613Y0242701D02*
X0165746Y0242701D01*
X0166467Y0242999D02*
X0164358Y0242126D01*
X0162076Y0242126D01*
X0160635Y0242723D01*
X0160561Y0242543D01*
X0159716Y0241698D01*
X0165611Y0241698D01*
X0169685Y0245772D01*
X0169291Y0246722D01*
X0169291Y0249004D01*
X0170165Y0251113D01*
X0171779Y0252727D01*
X0173887Y0253600D01*
X0176170Y0253600D01*
X0178278Y0252727D01*
X0178299Y0252706D01*
X0177942Y0253568D01*
X0177942Y0253937D01*
X0175856Y0253937D01*
X0173747Y0254810D01*
X0172133Y0256424D01*
X0171260Y0258533D01*
X0171260Y0260815D01*
X0171387Y0261123D01*
X0167349Y0264264D01*
X0166741Y0264264D01*
X0168081Y0262924D01*
X0168954Y0260815D01*
X0168954Y0258533D01*
X0168081Y0256424D01*
X0166467Y0254810D01*
X0164358Y0253937D01*
X0162076Y0253937D01*
X0159968Y0254810D01*
X0159557Y0255221D01*
X0158135Y0253800D01*
X0157880Y0253544D01*
X0157880Y0249968D01*
X0158354Y0251113D01*
X0159968Y0252727D01*
X0162076Y0253600D01*
X0164358Y0253600D01*
X0166467Y0252727D01*
X0168081Y0251113D01*
X0168954Y0249004D01*
X0168954Y0246722D01*
X0168081Y0244613D01*
X0166467Y0242999D01*
X0167367Y0243899D02*
X0167812Y0243899D01*
X0168282Y0245098D02*
X0169010Y0245098D01*
X0168778Y0246296D02*
X0169468Y0246296D01*
X0169291Y0247495D02*
X0168954Y0247495D01*
X0168954Y0248693D02*
X0169291Y0248693D01*
X0169659Y0249892D02*
X0168587Y0249892D01*
X0168090Y0251090D02*
X0170155Y0251090D01*
X0171341Y0252289D02*
X0166905Y0252289D01*
X0166166Y0254686D02*
X0174048Y0254686D01*
X0173615Y0253487D02*
X0164630Y0253487D01*
X0161804Y0253487D02*
X0157880Y0253487D01*
X0158135Y0253800D02*
X0158135Y0253800D01*
X0159021Y0254686D02*
X0160268Y0254686D01*
X0159530Y0252289D02*
X0157880Y0252289D01*
X0157880Y0251090D02*
X0158344Y0251090D01*
X0150211Y0245098D02*
X0054812Y0245098D01*
X0053280Y0243899D02*
X0150091Y0243899D01*
X0150091Y0242701D02*
X0131376Y0242701D01*
X0129704Y0242701D02*
X0108541Y0242701D01*
X0106870Y0242701D02*
X0051954Y0242701D01*
X0050628Y0241502D02*
X0105103Y0241502D01*
X0104547Y0240304D02*
X0049302Y0240304D01*
X0047976Y0239105D02*
X0104517Y0239105D01*
X0104953Y0237907D02*
X0046650Y0237907D01*
X0045324Y0236708D02*
X0104695Y0236708D01*
X0104221Y0235510D02*
X0043998Y0235510D01*
X0042885Y0234311D02*
X0104221Y0234311D01*
X0104662Y0233113D02*
X0081395Y0233113D01*
X0081395Y0231914D02*
X0105739Y0231914D01*
X0109672Y0231914D02*
X0112921Y0231914D01*
X0114120Y0230716D02*
X0081395Y0230716D01*
X0081395Y0229517D02*
X0115318Y0229517D01*
X0115642Y0228319D02*
X0081395Y0228319D01*
X0081395Y0227120D02*
X0115642Y0227120D01*
X0115642Y0225922D02*
X0081395Y0225922D01*
X0081395Y0224723D02*
X0115642Y0224723D01*
X0115642Y0223525D02*
X0081395Y0223525D01*
X0081395Y0222326D02*
X0115642Y0222326D01*
X0115642Y0221128D02*
X0081395Y0221128D01*
X0081395Y0219929D02*
X0115642Y0219929D01*
X0115642Y0218731D02*
X0081395Y0218731D01*
X0081395Y0217532D02*
X0115642Y0217532D01*
X0115642Y0216334D02*
X0081395Y0216334D01*
X0081395Y0215135D02*
X0115642Y0215135D01*
X0115642Y0213937D02*
X0081395Y0213937D01*
X0081395Y0212738D02*
X0115642Y0212738D01*
X0115642Y0211539D02*
X0081395Y0211539D01*
X0081395Y0210341D02*
X0115642Y0210341D01*
X0115642Y0209142D02*
X0081395Y0209142D01*
X0081395Y0207944D02*
X0115642Y0207944D01*
X0116830Y0206745D02*
X0081395Y0206745D01*
X0081395Y0205547D02*
X0118029Y0205547D01*
X0119227Y0204348D02*
X0081395Y0204348D01*
X0081395Y0203150D02*
X0082424Y0203150D01*
X0090467Y0203150D02*
X0120426Y0203150D01*
X0122137Y0207944D02*
X0125064Y0207944D01*
X0120939Y0209142D02*
X0146735Y0209142D01*
X0148342Y0210341D02*
X0120242Y0210341D01*
X0120242Y0211539D02*
X0147245Y0211539D01*
X0146050Y0212738D02*
X0133783Y0212738D01*
X0134425Y0213937D02*
X0145657Y0213937D01*
X0145657Y0215135D02*
X0134517Y0215135D01*
X0134141Y0216334D02*
X0145657Y0216334D01*
X0145657Y0217532D02*
X0133628Y0217532D01*
X0133628Y0218731D02*
X0145657Y0218731D01*
X0145657Y0219929D02*
X0133628Y0219929D01*
X0133628Y0221128D02*
X0145657Y0221128D01*
X0145657Y0222326D02*
X0133628Y0222326D01*
X0133628Y0223525D02*
X0145657Y0223525D01*
X0145657Y0224723D02*
X0133628Y0224723D01*
X0133628Y0225922D02*
X0145657Y0225922D01*
X0145657Y0227120D02*
X0133628Y0227120D01*
X0133628Y0228319D02*
X0145657Y0228319D01*
X0145657Y0229517D02*
X0133628Y0229517D01*
X0133628Y0230716D02*
X0145657Y0230716D01*
X0145657Y0231914D02*
X0133628Y0231914D01*
X0133628Y0233113D02*
X0143930Y0233113D01*
X0143001Y0234311D02*
X0133628Y0234311D01*
X0133628Y0235510D02*
X0142706Y0235510D01*
X0142878Y0236708D02*
X0133628Y0236708D01*
X0133628Y0237907D02*
X0143633Y0237907D01*
X0148156Y0237907D02*
X0149615Y0237907D01*
X0150091Y0239105D02*
X0133729Y0239105D01*
X0133698Y0240304D02*
X0150091Y0240304D01*
X0150091Y0241502D02*
X0133143Y0241502D01*
X0132933Y0246296D02*
X0136258Y0246296D01*
X0135059Y0247495D02*
X0134131Y0247495D01*
X0126258Y0246296D02*
X0056441Y0246296D01*
X0058071Y0247495D02*
X0125059Y0247495D01*
X0124095Y0248693D02*
X0059700Y0248693D01*
X0061330Y0249892D02*
X0124095Y0249892D01*
X0124095Y0251090D02*
X0062960Y0251090D01*
X0064629Y0252289D02*
X0124095Y0252289D01*
X0124567Y0253487D02*
X0066659Y0253487D01*
X0068689Y0254686D02*
X0125766Y0254686D01*
X0126953Y0255884D02*
X0070719Y0255884D01*
X0072749Y0257083D02*
X0125754Y0257083D01*
X0124556Y0258281D02*
X0074780Y0258281D01*
X0077066Y0259480D02*
X0124295Y0259480D01*
X0124295Y0261137D02*
X0129195Y0261137D01*
X0129195Y0266037D01*
X0127400Y0266037D01*
X0124295Y0262932D01*
X0124295Y0261137D01*
X0124295Y0261877D02*
X0082259Y0261877D01*
X0084855Y0263075D02*
X0124438Y0263075D01*
X0125637Y0264274D02*
X0087452Y0264274D01*
X0090542Y0265472D02*
X0126835Y0265472D01*
X0129195Y0265472D02*
X0129995Y0265472D01*
X0129995Y0264274D02*
X0129195Y0264274D01*
X0129195Y0263075D02*
X0129995Y0263075D01*
X0129995Y0261877D02*
X0129195Y0261877D01*
X0129195Y0260678D02*
X0079662Y0260678D01*
X0093757Y0266671D02*
X0139206Y0266671D01*
X0136553Y0265472D02*
X0132355Y0265472D01*
X0133554Y0264274D02*
X0135354Y0264274D01*
X0153847Y0264264D02*
X0159694Y0264264D01*
X0158354Y0262924D01*
X0157480Y0260815D01*
X0157480Y0259650D01*
X0155707Y0257877D01*
X0155095Y0258490D01*
X0155095Y0263015D01*
X0153847Y0264264D01*
X0155035Y0263075D02*
X0158505Y0263075D01*
X0157920Y0261877D02*
X0155095Y0261877D01*
X0155095Y0260678D02*
X0157480Y0260678D01*
X0157310Y0259480D02*
X0155095Y0259480D01*
X0155304Y0258281D02*
X0156111Y0258281D01*
X0167541Y0255884D02*
X0172673Y0255884D01*
X0171860Y0257083D02*
X0168354Y0257083D01*
X0168850Y0258281D02*
X0171364Y0258281D01*
X0171260Y0259480D02*
X0168954Y0259480D01*
X0168954Y0260678D02*
X0171260Y0260678D01*
X0170418Y0261877D02*
X0168515Y0261877D01*
X0168877Y0263075D02*
X0167929Y0263075D01*
X0171717Y0266694D02*
X0185371Y0266694D01*
X0191214Y0264516D01*
X0203299Y0258938D01*
X0214762Y0252171D01*
X0225484Y0244285D01*
X0235359Y0235359D01*
X0236379Y0234230D01*
X0198850Y0234230D01*
X0197795Y0233176D01*
X0197795Y0228716D01*
X0197417Y0229630D01*
X0197013Y0230034D01*
X0197013Y0233068D01*
X0195666Y0234415D01*
X0192183Y0237898D01*
X0192576Y0238848D01*
X0192576Y0241130D01*
X0191703Y0243239D01*
X0190089Y0244853D01*
X0189950Y0244910D01*
X0190089Y0244968D01*
X0191703Y0246582D01*
X0192576Y0248690D01*
X0192576Y0250973D01*
X0192414Y0251366D01*
X0192513Y0251465D01*
X0193438Y0251465D01*
X0194719Y0251996D01*
X0195699Y0252976D01*
X0196229Y0254257D01*
X0196229Y0255643D01*
X0195699Y0256923D01*
X0194719Y0257903D01*
X0193438Y0258434D01*
X0192535Y0258434D01*
X0192576Y0258533D01*
X0192576Y0260815D01*
X0191703Y0262924D01*
X0190089Y0264538D01*
X0187981Y0265411D01*
X0185698Y0265411D01*
X0183590Y0264538D01*
X0181976Y0262924D01*
X0181918Y0262785D01*
X0181860Y0262924D01*
X0180247Y0264538D01*
X0178138Y0265411D01*
X0175856Y0265411D01*
X0174232Y0264738D01*
X0171717Y0266694D01*
X0171747Y0266671D02*
X0185434Y0266671D01*
X0183326Y0264274D02*
X0180510Y0264274D01*
X0181709Y0263075D02*
X0182127Y0263075D01*
X0188649Y0265472D02*
X0173288Y0265472D01*
X0176441Y0253487D02*
X0177975Y0253487D01*
X0192528Y0251090D02*
X0216231Y0251090D01*
X0217860Y0249892D02*
X0192576Y0249892D01*
X0192576Y0248693D02*
X0219490Y0248693D01*
X0221120Y0247495D02*
X0192081Y0247495D01*
X0191418Y0246296D02*
X0222749Y0246296D01*
X0224379Y0245098D02*
X0190219Y0245098D01*
X0191042Y0243899D02*
X0225911Y0243899D01*
X0227237Y0242701D02*
X0191926Y0242701D01*
X0192422Y0241502D02*
X0228563Y0241502D01*
X0229888Y0240304D02*
X0192576Y0240304D01*
X0192576Y0239105D02*
X0231214Y0239105D01*
X0232540Y0237907D02*
X0192187Y0237907D01*
X0193373Y0236708D02*
X0233866Y0236708D01*
X0235192Y0235510D02*
X0194571Y0235510D01*
X0195770Y0234311D02*
X0236306Y0234311D01*
X0251395Y0215135D02*
X0251896Y0215135D01*
X0251395Y0213937D02*
X0252658Y0213937D01*
X0253366Y0212738D02*
X0251395Y0212738D01*
X0251395Y0211539D02*
X0254073Y0211539D01*
X0254781Y0210341D02*
X0251395Y0210341D01*
X0251395Y0209142D02*
X0255488Y0209142D01*
X0256196Y0207944D02*
X0251395Y0207944D01*
X0251395Y0206745D02*
X0256903Y0206745D01*
X0257611Y0205547D02*
X0251395Y0205547D01*
X0251395Y0204348D02*
X0258318Y0204348D01*
X0259007Y0203150D02*
X0251395Y0203150D01*
X0251395Y0201951D02*
X0259560Y0201951D01*
X0260113Y0200753D02*
X0251395Y0200753D01*
X0197795Y0225922D02*
X0197321Y0225922D01*
X0197464Y0229517D02*
X0197795Y0229517D01*
X0197795Y0230716D02*
X0197013Y0230716D01*
X0197013Y0231914D02*
X0197795Y0231914D01*
X0197795Y0233113D02*
X0196968Y0233113D01*
X0195012Y0252289D02*
X0214562Y0252289D01*
X0212532Y0253487D02*
X0195911Y0253487D01*
X0196229Y0254686D02*
X0210502Y0254686D01*
X0208471Y0255884D02*
X0196129Y0255884D01*
X0195539Y0257083D02*
X0206441Y0257083D01*
X0204411Y0258281D02*
X0193806Y0258281D01*
X0192576Y0259480D02*
X0202125Y0259480D01*
X0199528Y0260678D02*
X0192576Y0260678D01*
X0192137Y0261877D02*
X0196932Y0261877D01*
X0194335Y0263075D02*
X0191551Y0263075D01*
X0191739Y0264274D02*
X0190353Y0264274D01*
X0160688Y0242701D02*
X0160626Y0242701D01*
X0144095Y0246296D02*
X0142933Y0246296D01*
X0129028Y0236708D02*
X0114633Y0236708D01*
X0115831Y0235510D02*
X0129028Y0235510D01*
X0129028Y0234311D02*
X0117030Y0234311D01*
X0118228Y0233113D02*
X0129028Y0233113D01*
X0129028Y0231914D02*
X0119427Y0231914D01*
X0120242Y0230716D02*
X0129028Y0230716D01*
X0129028Y0229517D02*
X0120242Y0229517D01*
X0120242Y0228319D02*
X0129028Y0228319D01*
X0129028Y0227120D02*
X0120242Y0227120D01*
X0120242Y0225922D02*
X0129028Y0225922D01*
X0129028Y0224723D02*
X0120242Y0224723D01*
X0120242Y0223525D02*
X0129028Y0223525D01*
X0129028Y0222326D02*
X0120242Y0222326D01*
X0120242Y0221128D02*
X0129028Y0221128D01*
X0129028Y0219929D02*
X0120242Y0219929D01*
X0120242Y0218731D02*
X0129028Y0218731D01*
X0129028Y0217532D02*
X0120242Y0217532D01*
X0120242Y0216334D02*
X0128514Y0216334D01*
X0128139Y0215135D02*
X0120242Y0215135D01*
X0120242Y0213937D02*
X0128230Y0213937D01*
X0128872Y0212738D02*
X0120242Y0212738D01*
X0126475Y0201951D02*
X0092682Y0201951D01*
X0108099Y0190776D02*
X0076603Y0159280D01*
X0076603Y0155737D01*
X0073334Y0154011D02*
X0055302Y0154011D01*
X0056222Y0152812D02*
X0074322Y0152812D01*
X0072922Y0155209D02*
X0054251Y0155209D01*
X0052689Y0156408D02*
X0072922Y0156408D01*
X0073393Y0157606D02*
X0051127Y0157606D01*
X0049136Y0158805D02*
X0074203Y0158805D01*
X0074305Y0160003D02*
X0046242Y0160003D01*
X0044132Y0171989D02*
X0042932Y0171989D01*
X0042244Y0171989D02*
X0012496Y0171989D01*
X0012496Y0173187D02*
X0039905Y0173187D01*
X0038871Y0174386D02*
X0012496Y0174386D01*
X0012496Y0175584D02*
X0038297Y0175584D01*
X0038023Y0176783D02*
X0012496Y0176783D01*
X0012496Y0177981D02*
X0042932Y0177981D01*
X0042932Y0176783D02*
X0044132Y0176783D01*
X0044132Y0177981D02*
X0091910Y0177981D01*
X0081531Y0182775D02*
X0044878Y0182775D01*
X0044132Y0182775D02*
X0042932Y0182775D01*
X0042186Y0182775D02*
X0012496Y0182775D01*
X0012496Y0181577D02*
X0039888Y0181577D01*
X0038859Y0180378D02*
X0012496Y0180378D01*
X0012496Y0179180D02*
X0038292Y0179180D01*
X0042932Y0179180D02*
X0044132Y0179180D01*
X0044132Y0180378D02*
X0042932Y0180378D01*
X0042932Y0181577D02*
X0044132Y0181577D01*
X0044132Y0175584D02*
X0042932Y0175584D01*
X0042932Y0174386D02*
X0044132Y0174386D01*
X0044132Y0173187D02*
X0042932Y0173187D01*
X0028315Y0191165D02*
X0014656Y0191165D01*
X0014209Y0189966D02*
X0075708Y0189966D01*
X0076029Y0188768D02*
X0013762Y0188768D01*
X0013316Y0187569D02*
X0076627Y0187569D01*
X0077319Y0186371D02*
X0012869Y0186371D01*
X0012496Y0185172D02*
X0078333Y0185172D01*
X0079531Y0183974D02*
X0012496Y0183974D01*
X0015205Y0192363D02*
X0027795Y0192363D01*
X0027795Y0193562D02*
X0015758Y0193562D01*
X0016311Y0194760D02*
X0027795Y0194760D01*
X0027795Y0195959D02*
X0016864Y0195959D01*
X0017418Y0197157D02*
X0027795Y0197157D01*
X0027795Y0198356D02*
X0017971Y0198356D01*
X0018524Y0199554D02*
X0027795Y0199554D01*
X0027795Y0200753D02*
X0019077Y0200753D01*
X0019631Y0201951D02*
X0027795Y0201951D01*
X0027795Y0203150D02*
X0020184Y0203150D01*
X0020872Y0204348D02*
X0027795Y0204348D01*
X0027795Y0205547D02*
X0021580Y0205547D01*
X0022287Y0206745D02*
X0027795Y0206745D01*
X0027795Y0207944D02*
X0022995Y0207944D01*
X0023702Y0209142D02*
X0027795Y0209142D01*
X0027795Y0210341D02*
X0024410Y0210341D01*
X0025117Y0211539D02*
X0027795Y0211539D01*
X0027795Y0212738D02*
X0025825Y0212738D01*
X0026532Y0213937D02*
X0027795Y0213937D01*
X0027020Y0214762D02*
X0027020Y0214762D01*
X0027294Y0215135D02*
X0027795Y0215135D01*
X0108099Y0190776D02*
X0139595Y0190776D01*
X0148207Y0188436D02*
X0148207Y0188436D01*
X0160789Y0223525D02*
X0165448Y0223525D01*
X0169776Y0224723D02*
X0160596Y0224723D01*
X0250809Y0088093D02*
X0264560Y0088093D01*
X0264017Y0086894D02*
X0251395Y0086894D01*
X0251395Y0085696D02*
X0263463Y0085696D01*
X0262910Y0084497D02*
X0251395Y0084497D01*
X0251395Y0083299D02*
X0262357Y0083299D01*
X0261804Y0082100D02*
X0251395Y0082100D01*
X0251395Y0080902D02*
X0261251Y0080902D01*
X0260697Y0079703D02*
X0251395Y0079703D01*
X0251395Y0078505D02*
X0260144Y0078505D01*
X0259591Y0077306D02*
X0251395Y0077306D01*
X0251395Y0076108D02*
X0259038Y0076108D01*
X0258358Y0074909D02*
X0251395Y0074909D01*
X0251395Y0073711D02*
X0257650Y0073711D01*
X0256943Y0072512D02*
X0251395Y0072512D01*
X0251395Y0071314D02*
X0256235Y0071314D01*
X0255528Y0070115D02*
X0251395Y0070115D01*
X0251395Y0068917D02*
X0254820Y0068917D01*
X0254113Y0067718D02*
X0251395Y0067718D01*
X0251395Y0066520D02*
X0253405Y0066520D01*
X0252698Y0065321D02*
X0251395Y0065321D01*
X0251395Y0064123D02*
X0251946Y0064123D01*
D23*
X0127391Y0205343D02*
X0121485Y0205343D01*
X0117942Y0208887D01*
X0117942Y0230146D01*
X0113217Y0234871D01*
X0107706Y0234871D01*
X0107706Y0239595D02*
X0130540Y0239595D01*
X0131328Y0238808D01*
X0131328Y0214792D01*
X0149438Y0206918D02*
X0163611Y0206918D01*
X0172076Y0215383D01*
X0172076Y0229162D01*
X0171583Y0229654D01*
X0172988Y0231059D01*
X0173060Y0231233D02*
X0173060Y0239005D01*
X0176997Y0237036D02*
X0180862Y0240901D01*
X0180934Y0241075D02*
X0180934Y0242942D01*
X0186767Y0248775D01*
X0186839Y0248949D02*
X0186839Y0249831D01*
X0188316Y0248355D01*
X0189300Y0248355D01*
X0189300Y0251505D01*
X0192745Y0254950D01*
X0185465Y0259674D02*
X0185437Y0259672D01*
X0185410Y0259668D01*
X0185384Y0259660D01*
X0185358Y0259650D01*
X0185334Y0259636D01*
X0185312Y0259620D01*
X0185291Y0259602D01*
X0185291Y0258227D01*
X0185219Y0258053D02*
X0181426Y0254261D01*
X0185219Y0258053D02*
X0185237Y0258074D01*
X0185253Y0258096D01*
X0185267Y0258120D01*
X0185277Y0258146D01*
X0185285Y0258172D01*
X0185289Y0258199D01*
X0185291Y0258227D01*
X0185465Y0259674D02*
X0186839Y0259674D01*
X0176997Y0259674D02*
X0168139Y0266564D01*
X0142351Y0266564D01*
X0139667Y0263880D01*
X0139667Y0263683D01*
X0139595Y0263509D02*
X0139595Y0260737D01*
X0139595Y0263509D02*
X0139597Y0263537D01*
X0139601Y0263564D01*
X0139609Y0263590D01*
X0139619Y0263616D01*
X0139633Y0263640D01*
X0139649Y0263662D01*
X0139667Y0263683D01*
X0149595Y0260737D02*
X0155580Y0254753D01*
X0155580Y0247213D01*
X0152391Y0244024D01*
X0152391Y0238122D01*
X0152391Y0237430D01*
X0148257Y0233296D01*
X0152318Y0237948D02*
X0152336Y0237969D01*
X0152352Y0237991D01*
X0152366Y0238015D01*
X0152376Y0238041D01*
X0152384Y0238067D01*
X0152388Y0238094D01*
X0152390Y0238122D01*
X0157312Y0237036D02*
X0159674Y0239398D01*
X0166564Y0239398D01*
X0175028Y0247863D01*
X0180934Y0241075D02*
X0180932Y0241047D01*
X0180928Y0241020D01*
X0180920Y0240994D01*
X0180910Y0240968D01*
X0180896Y0240944D01*
X0180880Y0240922D01*
X0180862Y0240901D01*
X0176997Y0237036D02*
X0176997Y0224241D01*
X0171583Y0229654D02*
X0166170Y0229654D01*
X0172988Y0231059D02*
X0173006Y0231080D01*
X0173022Y0231102D01*
X0173036Y0231126D01*
X0173046Y0231152D01*
X0173054Y0231178D01*
X0173058Y0231205D01*
X0173060Y0231233D01*
X0167646Y0220796D02*
X0160265Y0220796D01*
X0158296Y0222765D01*
X0158296Y0235950D01*
X0158224Y0236124D02*
X0157312Y0237036D01*
X0158224Y0236124D02*
X0158242Y0236103D01*
X0158258Y0236081D01*
X0158272Y0236057D01*
X0158282Y0236031D01*
X0158290Y0236005D01*
X0158294Y0235978D01*
X0158296Y0235950D01*
X0157607Y0244517D02*
X0159799Y0246315D01*
X0163145Y0246315D01*
X0163217Y0246489D02*
X0163217Y0247863D01*
X0163217Y0246489D02*
X0163215Y0246461D01*
X0163211Y0246434D01*
X0163203Y0246408D01*
X0163193Y0246382D01*
X0163179Y0246358D01*
X0163163Y0246336D01*
X0163145Y0246315D01*
X0155835Y0254753D02*
X0155580Y0254753D01*
X0155835Y0254753D02*
X0160685Y0259602D01*
X0160859Y0259674D02*
X0163217Y0259674D01*
X0160859Y0259674D02*
X0160831Y0259672D01*
X0160804Y0259668D01*
X0160778Y0259660D01*
X0160752Y0259650D01*
X0160728Y0259636D01*
X0160706Y0259620D01*
X0160685Y0259602D01*
X0186767Y0248775D02*
X0186785Y0248796D01*
X0186801Y0248818D01*
X0186815Y0248842D01*
X0186825Y0248868D01*
X0186833Y0248894D01*
X0186837Y0248921D01*
X0186839Y0248949D01*
X0186839Y0239989D02*
X0188316Y0238513D01*
X0188418Y0238513D01*
X0188390Y0238515D01*
X0188363Y0238519D01*
X0188337Y0238527D01*
X0188311Y0238537D01*
X0188287Y0238551D01*
X0188265Y0238567D01*
X0188244Y0238585D01*
X0186839Y0239989D02*
X0194713Y0232115D01*
X0194713Y0227824D01*
D24*
X0076603Y0155737D03*
D25*
X0148257Y0214205D02*
X0148257Y0233296D01*
X0145894Y0235658D01*
X0146485Y0235068D01*
X0148257Y0214205D02*
X0150032Y0212430D01*
X0155343Y0212430D01*
X0150032Y0212430D02*
X0150004Y0212432D01*
X0149977Y0212436D01*
X0149951Y0212444D01*
X0149925Y0212454D01*
X0149901Y0212468D01*
X0149879Y0212484D01*
X0149858Y0212502D01*
X0196682Y0153375D02*
X0198650Y0151406D01*
X0198650Y0139595D01*
X0204162Y0139595D01*
X0198650Y0139595D02*
X0198650Y0108099D01*
X0190776Y0100225D01*
X0182902Y0100225D01*
X0167154Y0084477D01*
X0167154Y0043139D01*
X0157706Y0060461D02*
X0145107Y0060461D01*
X0210461Y0108099D02*
X0210461Y0121091D01*
X0209477Y0122076D01*
D26*
X0157706Y0060461D03*
X0145107Y0060461D03*
X0131328Y0214792D03*
X0145894Y0235658D03*
X0130540Y0239595D03*
X0107706Y0239595D03*
X0194713Y0227824D03*
D27*
X0253769Y0123847D02*
X0253769Y0120698D01*
X0249831Y0116761D01*
X0240186Y0107115D01*
X0239989Y0107115D01*
X0248650Y0115580D02*
X0249831Y0116761D01*
D28*
X0245894Y0159280D02*
X0245894Y0166170D01*
X0239989Y0172076D01*
D29*
X0152587Y0086446D02*
X0147469Y0086446D01*
X0152587Y0086446D02*
X0154556Y0084477D01*
X0127784Y0086446D02*
X0124107Y0086446D01*
X0120107Y0082446D01*
M02*
