G75*
%MOIN*%
%OFA0B0*%
%FSLAX25Y25*%
%IPPOS*%
%LPD*%
%AMOC8*
5,1,8,0,0,1.08239X$1,22.5*
%
%ADD10C,0.01047*%
%ADD11R,0.01339X0.01339*%
%ADD12C,0.00630*%
%ADD13R,0.04331X0.03937*%
%ADD14C,0.25984*%
%ADD15C,0.08268*%
%ADD16C,0.12661*%
%ADD17R,0.08700X0.02400*%
%ADD18R,0.07400X0.07400*%
%ADD19OC8,0.07400*%
%ADD20R,0.05906X0.05118*%
%ADD21R,0.03937X0.04331*%
%ADD22R,0.03937X0.05512*%
%ADD23C,0.11811*%
%ADD24R,0.06299X0.05118*%
%ADD25R,0.06299X0.12598*%
%ADD26C,0.03937*%
%ADD27R,0.05118X0.07480*%
%ADD28R,0.05512X0.03937*%
%ADD29C,0.16598*%
%ADD30R,0.01575X0.06299*%
%ADD31R,0.07441X0.06181*%
%ADD32R,0.04921X0.05512*%
%ADD33C,0.03369*%
%ADD34C,0.02400*%
%ADD35C,0.02975*%
%ADD36C,0.00787*%
%ADD37C,0.01000*%
%ADD38C,0.01200*%
%ADD39C,0.01600*%
%ADD40C,0.03762*%
%ADD41C,0.03200*%
%ADD42C,0.02000*%
%ADD43C,0.02778*%
%ADD44C,0.02400*%
D10*
X0104725Y0219882D02*
X0104781Y0219882D01*
X0104725Y0219882D02*
X0104725Y0221238D01*
X0104781Y0221238D01*
X0104781Y0219882D01*
X0104781Y0220928D02*
X0104725Y0220928D01*
X0106693Y0219882D02*
X0106749Y0219882D01*
X0106693Y0219882D02*
X0106693Y0221238D01*
X0106749Y0221238D01*
X0106749Y0219882D01*
X0106749Y0220928D02*
X0106693Y0220928D01*
X0108662Y0219882D02*
X0108718Y0219882D01*
X0108662Y0219882D02*
X0108662Y0221238D01*
X0108718Y0221238D01*
X0108718Y0219882D01*
X0108718Y0220928D02*
X0108662Y0220928D01*
X0110630Y0219882D02*
X0110686Y0219882D01*
X0110630Y0219882D02*
X0110630Y0221238D01*
X0110686Y0221238D01*
X0110686Y0219882D01*
X0110686Y0220928D02*
X0110630Y0220928D01*
X0112283Y0222835D02*
X0112283Y0222891D01*
X0113639Y0222891D01*
X0113639Y0222835D01*
X0112283Y0222835D01*
X0112283Y0224803D02*
X0112283Y0224859D01*
X0113639Y0224859D01*
X0113639Y0224803D01*
X0112283Y0224803D01*
X0112283Y0226772D02*
X0112283Y0226828D01*
X0113639Y0226828D01*
X0113639Y0226772D01*
X0112283Y0226772D01*
X0112283Y0228741D02*
X0112283Y0228797D01*
X0113639Y0228797D01*
X0113639Y0228741D01*
X0112283Y0228741D01*
X0110686Y0231750D02*
X0110630Y0231750D01*
X0110686Y0231750D02*
X0110686Y0230394D01*
X0110630Y0230394D01*
X0110630Y0231750D01*
X0110630Y0231440D02*
X0110686Y0231440D01*
X0108718Y0231750D02*
X0108662Y0231750D01*
X0108718Y0231750D02*
X0108718Y0230394D01*
X0108662Y0230394D01*
X0108662Y0231750D01*
X0108662Y0231440D02*
X0108718Y0231440D01*
X0106749Y0231750D02*
X0106693Y0231750D01*
X0106749Y0231750D02*
X0106749Y0230394D01*
X0106693Y0230394D01*
X0106693Y0231750D01*
X0106693Y0231440D02*
X0106749Y0231440D01*
X0104781Y0231750D02*
X0104725Y0231750D01*
X0104781Y0231750D02*
X0104781Y0230394D01*
X0104725Y0230394D01*
X0104725Y0231750D01*
X0104725Y0231440D02*
X0104781Y0231440D01*
X0103128Y0228797D02*
X0103128Y0228741D01*
X0101772Y0228741D01*
X0101772Y0228797D01*
X0103128Y0228797D01*
X0103128Y0226828D02*
X0103128Y0226772D01*
X0101772Y0226772D01*
X0101772Y0226828D01*
X0103128Y0226828D01*
X0103128Y0224859D02*
X0103128Y0224803D01*
X0101772Y0224803D01*
X0101772Y0224859D01*
X0103128Y0224859D01*
X0103128Y0222891D02*
X0103128Y0222835D01*
X0101772Y0222835D01*
X0101772Y0222891D01*
X0103128Y0222891D01*
D11*
X0102725Y0220796D03*
X0112686Y0220835D03*
X0112686Y0230796D03*
X0102725Y0230796D03*
D12*
X0110540Y0228650D02*
X0110540Y0222982D01*
X0104872Y0222982D01*
X0104872Y0228650D01*
X0110540Y0228650D01*
X0110540Y0223611D02*
X0104872Y0223611D01*
X0104872Y0224240D02*
X0110540Y0224240D01*
X0110540Y0224869D02*
X0104872Y0224869D01*
X0104872Y0225498D02*
X0110540Y0225498D01*
X0110540Y0226127D02*
X0104872Y0226127D01*
X0104872Y0226756D02*
X0110540Y0226756D01*
X0110540Y0227385D02*
X0104872Y0227385D01*
X0104872Y0228014D02*
X0110540Y0228014D01*
X0110540Y0228643D02*
X0104872Y0228643D01*
D13*
X0102391Y0236446D03*
X0102391Y0242745D03*
X0095698Y0242745D03*
X0095698Y0236446D03*
X0112666Y0236446D03*
X0112627Y0242745D03*
X0119320Y0242745D03*
X0119359Y0236446D03*
X0118985Y0230265D03*
X0125678Y0230265D03*
X0134674Y0236052D03*
X0141367Y0236052D03*
X0139792Y0205343D03*
X0133099Y0205343D03*
X0145865Y0049467D03*
X0152558Y0049467D03*
X0152538Y0037991D03*
X0145845Y0037991D03*
X0145658Y0029817D03*
X0152351Y0029817D03*
X0160309Y0029817D03*
X0167002Y0029817D03*
X0166908Y0038139D03*
X0160215Y0038139D03*
X0134772Y0028134D03*
X0128080Y0028134D03*
D14*
X0086446Y0086446D03*
X0039202Y0139595D03*
X0086446Y0192745D03*
X0192745Y0192745D03*
X0192745Y0086446D03*
D15*
X0209477Y0122076D02*
X0217745Y0122076D01*
X0212430Y0139595D02*
X0204162Y0139595D01*
X0209477Y0157509D02*
X0217745Y0157509D01*
D16*
X0233658Y0172076D02*
X0246320Y0172076D01*
X0246320Y0107115D02*
X0233658Y0107115D01*
D17*
X0184687Y0217824D03*
X0184687Y0222824D03*
X0184687Y0227824D03*
X0184687Y0232824D03*
X0158187Y0232824D03*
X0158187Y0227824D03*
X0158187Y0222824D03*
X0158187Y0217824D03*
D18*
X0149595Y0250737D03*
D19*
X0139595Y0250737D03*
X0129595Y0250737D03*
X0129595Y0260737D03*
X0139595Y0260737D03*
X0149595Y0260737D03*
D20*
X0092351Y0223650D03*
X0092351Y0216957D03*
D21*
X0099044Y0217351D03*
X0099044Y0210658D03*
X0161347Y0212430D03*
X0169123Y0212135D03*
X0169123Y0205442D03*
X0161347Y0205737D03*
X0144713Y0074044D03*
X0144713Y0067351D03*
X0137233Y0067351D03*
X0137233Y0074044D03*
X0127784Y0074044D03*
X0127784Y0067351D03*
X0123084Y0051859D03*
X0123084Y0045166D03*
X0160461Y0064989D03*
X0160461Y0071682D03*
D22*
G36*
X0066089Y0170555D02*
X0068872Y0173338D01*
X0072769Y0169441D01*
X0069986Y0166658D01*
X0066089Y0170555D01*
G37*
G36*
X0057320Y0174034D02*
X0060103Y0176817D01*
X0064000Y0172920D01*
X0061217Y0170137D01*
X0057320Y0174034D01*
G37*
G36*
X0062609Y0179324D02*
X0065392Y0182107D01*
X0069289Y0178210D01*
X0066506Y0175427D01*
X0062609Y0179324D01*
G37*
D23*
X0059871Y0212430D02*
X0071682Y0212430D01*
X0054753Y0212430D02*
X0042942Y0212430D01*
X0207509Y0212430D02*
X0219320Y0212430D01*
X0224438Y0212430D02*
X0236249Y0212430D01*
X0236249Y0066761D02*
X0224438Y0066761D01*
X0219320Y0066761D02*
X0207509Y0066761D01*
X0071682Y0066761D02*
X0059871Y0066761D01*
X0054753Y0066761D02*
X0042942Y0066761D01*
D24*
G36*
X0205845Y0234414D02*
X0211405Y0231458D01*
X0209003Y0226940D01*
X0203443Y0229896D01*
X0205845Y0234414D01*
G37*
G36*
X0214162Y0250057D02*
X0219722Y0247101D01*
X0217320Y0242583D01*
X0211760Y0245539D01*
X0214162Y0250057D01*
G37*
G36*
X0186526Y0264751D02*
X0192086Y0261795D01*
X0189684Y0257277D01*
X0184124Y0260233D01*
X0186526Y0264751D01*
G37*
G36*
X0178209Y0249108D02*
X0183769Y0246152D01*
X0181367Y0241634D01*
X0175807Y0244590D01*
X0178209Y0249108D01*
G37*
D25*
X0185855Y0060107D03*
X0185855Y0041997D03*
D26*
X0065580Y0035265D03*
X0253769Y0139595D03*
X0073454Y0245501D03*
D27*
X0096091Y0249753D03*
X0096091Y0262351D03*
X0117745Y0262351D03*
X0117745Y0249753D03*
D28*
X0245107Y0090186D03*
X0245107Y0082706D03*
X0253769Y0086446D03*
D29*
X0188182Y0111544D03*
X0091009Y0111544D03*
D30*
X0132213Y0054502D03*
X0134772Y0054502D03*
X0137331Y0054502D03*
X0139891Y0054502D03*
X0139891Y0037966D03*
X0137331Y0037966D03*
X0134772Y0037966D03*
X0132213Y0037966D03*
D31*
X0136052Y0046234D03*
D32*
X0256229Y0185166D03*
X0256229Y0199733D03*
D33*
X0263463Y0176081D03*
X0222076Y0181131D03*
X0217646Y0148650D03*
X0217981Y0131564D03*
X0204595Y0113454D03*
X0191761Y0128178D03*
X0191579Y0146569D03*
X0245865Y0132051D03*
X0263020Y0107706D03*
X0240053Y0097164D03*
X0254359Y0074241D03*
X0210501Y0095737D03*
X0180737Y0073394D03*
X0159083Y0091564D03*
X0154556Y0084477D03*
X0138020Y0084477D03*
X0120107Y0082446D03*
X0120107Y0090383D03*
X0101111Y0068965D03*
X0101554Y0049831D03*
X0116761Y0042154D03*
X0127469Y0039831D03*
X0144310Y0043252D03*
X0155737Y0043965D03*
X0167154Y0043139D03*
X0141072Y0024930D03*
X0128178Y0018729D03*
X0094024Y0018139D03*
X0074438Y0030289D03*
X0024930Y0072863D03*
X0025393Y0094841D03*
X0022932Y0115560D03*
X0055934Y0119123D03*
X0064989Y0140284D03*
X0086249Y0126603D03*
X0088217Y0158887D03*
X0052952Y0181308D03*
X0050422Y0167745D03*
X0023650Y0163513D03*
X0023650Y0182263D03*
X0024900Y0203513D03*
X0058572Y0244059D03*
X0081938Y0257804D03*
X0107228Y0263921D03*
X0107228Y0251126D03*
X0107706Y0234871D03*
X0125028Y0235658D03*
X0137873Y0229162D03*
X0138020Y0221190D03*
X0125324Y0221190D03*
X0127391Y0205343D03*
X0117942Y0202489D03*
X0137430Y0196288D03*
X0149438Y0206918D03*
X0155343Y0212430D03*
X0167646Y0220796D03*
X0176997Y0224241D03*
X0166170Y0229654D03*
X0169566Y0235855D03*
X0173060Y0239005D03*
X0157312Y0237036D03*
X0157607Y0244517D03*
X0156869Y0261938D03*
X0170107Y0259674D03*
X0181426Y0254261D03*
X0192745Y0254950D03*
X0223798Y0240284D03*
X0193877Y0216662D03*
X0163217Y0193335D03*
X0152784Y0189595D03*
X0116957Y0186446D03*
X0088750Y0209614D03*
X0089241Y0230146D03*
X0132410Y0062233D03*
X0184280Y0017253D03*
X0206392Y0027459D03*
X0221288Y0036938D03*
D34*
X0109128Y0224438D03*
X0109083Y0227194D03*
X0106328Y0227194D03*
X0106328Y0224438D03*
D35*
X0111052Y0212824D03*
D36*
X0108690Y0224000D02*
X0109128Y0224438D01*
X0109083Y0227194D02*
X0110068Y0228178D01*
X0110068Y0229359D01*
X0110658Y0229950D01*
X0110658Y0231072D01*
X0106328Y0227194D02*
X0105400Y0228121D01*
X0105400Y0229500D01*
X0104753Y0230147D01*
X0104753Y0231072D01*
X0105500Y0228021D02*
X0106328Y0227194D01*
D37*
X0106328Y0227172D01*
X0106400Y0227100D01*
X0107706Y0225816D02*
X0109083Y0227194D01*
X0106328Y0224438D02*
X0106721Y0224044D01*
X0106721Y0220560D01*
X0104753Y0220560D02*
X0104753Y0218139D01*
X0103965Y0217351D01*
X0099044Y0217351D01*
X0108690Y0217548D02*
X0111052Y0212824D01*
X0108690Y0217548D02*
X0108690Y0220560D01*
X0110658Y0220560D02*
X0110658Y0219320D01*
X0119123Y0210855D01*
X0145501Y0210855D01*
X0149438Y0206918D01*
X0142794Y0217597D02*
X0147469Y0222272D01*
X0157635Y0222272D01*
X0158187Y0222824D01*
X0164950Y0222824D01*
X0169812Y0227686D01*
X0169812Y0230639D01*
X0165678Y0234772D01*
X0165678Y0241363D01*
X0162525Y0244517D01*
X0157607Y0244517D01*
X0141957Y0244517D01*
X0139667Y0246807D01*
X0139595Y0246981D02*
X0139595Y0250737D01*
X0139595Y0246981D02*
X0139597Y0246953D01*
X0139601Y0246926D01*
X0139609Y0246900D01*
X0139619Y0246874D01*
X0139633Y0246850D01*
X0139649Y0246828D01*
X0139667Y0246807D01*
X0134674Y0244910D02*
X0137922Y0241662D01*
X0160757Y0241662D01*
X0162824Y0239595D01*
X0162824Y0235461D01*
X0160186Y0232824D01*
X0158187Y0232824D01*
X0157872Y0232509D01*
X0149438Y0232509D01*
X0141761Y0224831D01*
X0112961Y0224831D01*
X0112961Y0222863D02*
X0114891Y0222863D01*
X0120156Y0217597D01*
X0142794Y0217597D01*
X0131328Y0214792D02*
X0130934Y0214398D01*
X0119123Y0214398D01*
X0112686Y0220835D01*
X0112961Y0226800D02*
X0129359Y0226800D01*
X0130737Y0228178D01*
X0130737Y0235461D01*
X0123454Y0242745D01*
X0123847Y0243139D01*
X0123847Y0253667D01*
X0123775Y0253841D02*
X0121879Y0255737D01*
X0102178Y0255737D01*
X0102004Y0255665D02*
X0096091Y0249753D01*
X0090383Y0247076D02*
X0090383Y0256541D01*
X0090455Y0256715D02*
X0096091Y0262351D01*
X0090455Y0256715D02*
X0090437Y0256694D01*
X0090421Y0256672D01*
X0090407Y0256648D01*
X0090397Y0256622D01*
X0090389Y0256596D01*
X0090385Y0256569D01*
X0090383Y0256541D01*
X0090383Y0247076D02*
X0094320Y0243139D01*
X0095698Y0242745D01*
X0093926Y0242745D01*
X0091564Y0240383D01*
X0091564Y0234083D01*
X0096879Y0228769D01*
X0102450Y0228769D01*
X0102725Y0230796D02*
X0102587Y0230934D01*
X0100619Y0230934D01*
X0095698Y0235855D01*
X0095698Y0236446D01*
X0095698Y0238217D01*
X0097076Y0239595D01*
X0107706Y0239595D01*
X0117942Y0239595D01*
X0119123Y0238414D01*
X0119123Y0236682D01*
X0119359Y0236446D01*
X0119359Y0230639D01*
X0118985Y0230265D01*
X0117194Y0230265D01*
X0115698Y0228769D01*
X0112961Y0228769D01*
X0112686Y0230796D02*
X0112686Y0232056D01*
X0113887Y0233257D01*
X0116170Y0233257D01*
X0119359Y0236446D01*
X0119320Y0242745D02*
X0123454Y0242745D01*
X0119320Y0242745D02*
X0118729Y0243139D01*
X0112627Y0242745D02*
X0112627Y0245727D01*
X0107228Y0251126D01*
X0102178Y0255737D02*
X0102150Y0255735D01*
X0102123Y0255731D01*
X0102097Y0255723D01*
X0102071Y0255713D01*
X0102047Y0255699D01*
X0102025Y0255683D01*
X0102004Y0255665D01*
X0095107Y0243139D02*
X0095698Y0242745D01*
X0095501Y0242745D01*
X0102391Y0236446D02*
X0104753Y0234083D01*
X0104753Y0231072D01*
X0106721Y0231072D02*
X0106721Y0233887D01*
X0107706Y0234871D01*
X0110658Y0233493D02*
X0110658Y0231072D01*
X0112430Y0236446D02*
X0112666Y0236446D01*
X0130540Y0239595D02*
X0131131Y0239595D01*
X0134674Y0236052D01*
X0135461Y0239202D02*
X0129595Y0245068D01*
X0129595Y0250737D01*
X0134674Y0254533D02*
X0134674Y0244910D01*
X0135461Y0239202D02*
X0155343Y0239202D01*
X0157312Y0237233D01*
X0157312Y0237036D01*
X0158042Y0232679D02*
X0158021Y0232661D01*
X0157999Y0232645D01*
X0157975Y0232631D01*
X0157949Y0232621D01*
X0157923Y0232613D01*
X0157896Y0232609D01*
X0157868Y0232607D01*
X0158042Y0232679D02*
X0158187Y0232824D01*
X0159887Y0232824D01*
X0159915Y0232826D01*
X0159942Y0232830D01*
X0159968Y0232838D01*
X0159994Y0232848D01*
X0160018Y0232862D01*
X0160040Y0232878D01*
X0160061Y0232896D01*
X0164339Y0227824D02*
X0166170Y0229654D01*
X0164339Y0227824D02*
X0158187Y0227824D01*
X0158187Y0222824D02*
X0158128Y0222765D01*
X0167646Y0220796D02*
X0173060Y0220796D01*
X0175520Y0218335D01*
X0184175Y0218335D01*
X0184687Y0217824D01*
X0185021Y0222469D02*
X0184687Y0222824D01*
X0178414Y0222824D01*
X0176997Y0224241D01*
X0184687Y0227824D02*
X0194713Y0227824D01*
X0197036Y0227824D01*
X0200619Y0224241D01*
X0239989Y0224241D01*
X0253769Y0210461D01*
X0253769Y0202587D01*
X0256229Y0200127D01*
X0256229Y0199733D01*
X0215741Y0246320D02*
X0195247Y0257641D01*
X0192745Y0255138D01*
X0192745Y0254950D01*
X0195247Y0257641D02*
X0189141Y0261014D01*
X0188105Y0261014D01*
X0181426Y0254261D02*
X0166154Y0254261D01*
X0165980Y0254189D02*
X0161741Y0249950D01*
X0150383Y0249950D01*
X0149595Y0250737D01*
X0161741Y0249950D02*
X0162013Y0249950D01*
X0162187Y0249878D02*
X0173060Y0239005D01*
X0162187Y0249878D02*
X0162166Y0249896D01*
X0162144Y0249912D01*
X0162120Y0249926D01*
X0162094Y0249936D01*
X0162068Y0249944D01*
X0162041Y0249948D01*
X0162013Y0249950D01*
X0165980Y0254189D02*
X0166001Y0254207D01*
X0166023Y0254223D01*
X0166047Y0254237D01*
X0166073Y0254247D01*
X0166099Y0254255D01*
X0166126Y0254259D01*
X0166154Y0254261D01*
X0139595Y0259454D02*
X0139595Y0260737D01*
X0139595Y0259454D02*
X0134674Y0254533D01*
X0123847Y0253667D02*
X0123845Y0253695D01*
X0123841Y0253722D01*
X0123833Y0253748D01*
X0123823Y0253774D01*
X0123809Y0253798D01*
X0123793Y0253820D01*
X0123775Y0253841D01*
X0141367Y0236052D02*
X0141761Y0235658D01*
X0145894Y0235658D01*
X0184687Y0227824D02*
X0185041Y0228178D01*
X0133099Y0205343D02*
X0127391Y0205343D01*
X0120304Y0187233D02*
X0119320Y0187233D01*
X0132213Y0054930D02*
X0132213Y0054502D01*
X0134772Y0054502D02*
X0134772Y0047514D01*
X0136052Y0046234D01*
X0127469Y0039831D02*
X0123611Y0043690D01*
X0123084Y0045166D01*
X0132213Y0037966D02*
X0132213Y0036741D01*
X0134477Y0035796D02*
X0134772Y0037966D01*
X0145845Y0037991D02*
X0147036Y0036977D01*
X0139935Y0054502D02*
X0139891Y0054502D01*
D38*
X0140230Y0054162D01*
X0145865Y0049467D02*
X0145865Y0047066D01*
X0148139Y0044792D01*
X0148139Y0040284D01*
X0145845Y0037991D01*
X0145821Y0037966D01*
X0139891Y0037966D01*
X0137331Y0037966D02*
X0137233Y0035993D01*
X0137391Y0035835D01*
X0137391Y0031839D01*
X0139413Y0029817D01*
X0140087Y0029817D01*
X0141072Y0028832D01*
X0141072Y0024930D01*
X0140087Y0029817D02*
X0145658Y0029817D01*
X0152351Y0029817D02*
X0160309Y0029817D01*
X0160068Y0037991D02*
X0152538Y0037991D01*
X0160068Y0037991D02*
X0160215Y0038139D01*
X0152558Y0049467D02*
X0151997Y0050028D01*
X0136052Y0046234D02*
X0134772Y0045639D01*
X0132213Y0037966D02*
X0132213Y0037725D01*
X0129753Y0035265D01*
X0114005Y0035265D01*
X0110560Y0038709D01*
X0110560Y0085954D01*
X0095107Y0101406D01*
X0083296Y0101406D01*
X0076603Y0108099D01*
X0076603Y0155737D01*
X0110658Y0233493D02*
X0112666Y0235501D01*
X0112666Y0236446D01*
X0134477Y0035796D02*
X0134871Y0035402D01*
X0134772Y0035304D01*
X0134772Y0028134D01*
D39*
X0060309Y0038566D02*
X0049955Y0038566D01*
X0048187Y0040164D02*
X0061751Y0040164D01*
X0061764Y0040177D02*
X0061597Y0040011D01*
X0061404Y0039875D01*
X0061255Y0039849D01*
X0061148Y0039696D01*
X0060995Y0039589D01*
X0060969Y0039440D01*
X0060833Y0039247D01*
X0060667Y0039080D01*
X0060525Y0039029D01*
X0060446Y0038859D01*
X0060314Y0038727D01*
X0060314Y0038576D01*
X0060214Y0038362D01*
X0060079Y0038169D01*
X0059948Y0038094D01*
X0059899Y0037913D01*
X0059792Y0037760D01*
X0059819Y0037611D01*
X0059758Y0037384D01*
X0059658Y0037170D01*
X0059542Y0037073D01*
X0059526Y0036887D01*
X0059447Y0036717D01*
X0059499Y0036575D01*
X0059478Y0036340D01*
X0059417Y0036113D01*
X0059320Y0035997D01*
X0059336Y0035811D01*
X0059288Y0035630D01*
X0059363Y0035499D01*
X0059384Y0035265D01*
X0059363Y0035030D01*
X0059288Y0034899D01*
X0059336Y0034718D01*
X0059320Y0034532D01*
X0059417Y0034416D01*
X0059478Y0034189D01*
X0059499Y0033954D01*
X0059447Y0033812D01*
X0059526Y0033642D01*
X0059542Y0033456D01*
X0059658Y0033359D01*
X0059758Y0033146D01*
X0059819Y0032918D01*
X0059792Y0032769D01*
X0059899Y0032616D01*
X0059948Y0032435D01*
X0060079Y0032360D01*
X0060214Y0032167D01*
X0060314Y0031953D01*
X0060314Y0031802D01*
X0060446Y0031670D01*
X0060525Y0031501D01*
X0060667Y0031449D01*
X0060833Y0031282D01*
X0060969Y0031089D01*
X0060995Y0030940D01*
X0061148Y0030833D01*
X0061255Y0030680D01*
X0061404Y0030654D01*
X0061597Y0030518D01*
X0061764Y0030352D01*
X0061815Y0030210D01*
X0061985Y0030131D01*
X0062117Y0029999D01*
X0062268Y0029999D01*
X0062482Y0029899D01*
X0062675Y0029764D01*
X0062750Y0029633D01*
X0062931Y0029585D01*
X0063084Y0029477D01*
X0063233Y0029504D01*
X0063461Y0029443D01*
X0063674Y0029343D01*
X0063771Y0029227D01*
X0063957Y0029211D01*
X0064127Y0029132D01*
X0064269Y0029184D01*
X0064504Y0029163D01*
X0064731Y0029102D01*
X0064847Y0029005D01*
X0065033Y0029021D01*
X0065214Y0028973D01*
X0065345Y0029048D01*
X0065580Y0029069D01*
X0065814Y0029048D01*
X0065945Y0028973D01*
X0066126Y0029021D01*
X0066312Y0029005D01*
X0066428Y0029102D01*
X0066655Y0029163D01*
X0066890Y0029184D01*
X0067032Y0029132D01*
X0067202Y0029211D01*
X0067388Y0029227D01*
X0067485Y0029343D01*
X0067699Y0029443D01*
X0067926Y0029504D01*
X0068075Y0029477D01*
X0068228Y0029585D01*
X0068409Y0029633D01*
X0068484Y0029764D01*
X0068677Y0029899D01*
X0068891Y0029999D01*
X0069042Y0029999D01*
X0069174Y0030131D01*
X0069344Y0030210D01*
X0069395Y0030352D01*
X0069562Y0030518D01*
X0069755Y0030654D01*
X0069904Y0030680D01*
X0070011Y0030833D01*
X0070164Y0030940D01*
X0070190Y0031089D01*
X0070326Y0031282D01*
X0070492Y0031449D01*
X0070634Y0031501D01*
X0070713Y0031670D01*
X0070845Y0031802D01*
X0070845Y0031953D01*
X0070945Y0032167D01*
X0071080Y0032360D01*
X0071211Y0032435D01*
X0071260Y0032616D01*
X0071367Y0032769D01*
X0071340Y0032918D01*
X0071401Y0033146D01*
X0071501Y0033359D01*
X0071617Y0033456D01*
X0071633Y0033642D01*
X0071712Y0033812D01*
X0071660Y0033954D01*
X0071681Y0034189D01*
X0071742Y0034416D01*
X0071839Y0034532D01*
X0071823Y0034718D01*
X0071871Y0034899D01*
X0071796Y0035030D01*
X0071775Y0035265D01*
X0071796Y0035499D01*
X0071871Y0035630D01*
X0071823Y0035811D01*
X0071839Y0035997D01*
X0071742Y0036113D01*
X0071681Y0036340D01*
X0071660Y0036575D01*
X0071712Y0036717D01*
X0071633Y0036887D01*
X0071617Y0037073D01*
X0071501Y0037170D01*
X0071401Y0037384D01*
X0071340Y0037611D01*
X0071367Y0037760D01*
X0071260Y0037913D01*
X0071211Y0038094D01*
X0071080Y0038169D01*
X0070945Y0038362D01*
X0070845Y0038576D01*
X0070845Y0038727D01*
X0070713Y0038859D01*
X0070634Y0039029D01*
X0070492Y0039080D01*
X0070326Y0039247D01*
X0070190Y0039440D01*
X0070164Y0039589D01*
X0070011Y0039696D01*
X0069904Y0039849D01*
X0069755Y0039875D01*
X0069562Y0040011D01*
X0069395Y0040177D01*
X0069344Y0040319D01*
X0069174Y0040398D01*
X0069042Y0040530D01*
X0068891Y0040530D01*
X0068677Y0040630D01*
X0068484Y0040765D01*
X0068409Y0040896D01*
X0068228Y0040945D01*
X0068075Y0041052D01*
X0067926Y0041026D01*
X0067699Y0041087D01*
X0067485Y0041186D01*
X0067388Y0041302D01*
X0067202Y0041318D01*
X0067032Y0041397D01*
X0066890Y0041345D01*
X0066655Y0041366D01*
X0066428Y0041427D01*
X0066312Y0041524D01*
X0066126Y0041508D01*
X0065945Y0041556D01*
X0065814Y0041481D01*
X0065580Y0041460D01*
X0065345Y0041481D01*
X0065214Y0041556D01*
X0065033Y0041508D01*
X0064847Y0041524D01*
X0064731Y0041427D01*
X0064504Y0041366D01*
X0064269Y0041345D01*
X0064127Y0041397D01*
X0063957Y0041318D01*
X0063771Y0041302D01*
X0063674Y0041186D01*
X0063461Y0041087D01*
X0063233Y0041026D01*
X0063084Y0041052D01*
X0062931Y0040945D01*
X0062750Y0040896D01*
X0062675Y0040765D01*
X0062482Y0040630D01*
X0062268Y0040530D01*
X0062117Y0040530D01*
X0061985Y0040398D01*
X0061815Y0040319D01*
X0061764Y0040177D01*
X0059533Y0036967D02*
X0051724Y0036967D01*
X0053492Y0035369D02*
X0059375Y0035369D01*
X0059466Y0033770D02*
X0055587Y0033770D01*
X0053833Y0035061D02*
X0043973Y0043973D01*
X0035061Y0053833D01*
X0027187Y0064539D01*
X0020430Y0075984D01*
X0014860Y0088051D01*
X0013849Y0090762D01*
X0035400Y0069211D01*
X0035036Y0068333D01*
X0035036Y0065188D01*
X0036240Y0062283D01*
X0038464Y0060059D01*
X0041369Y0058855D01*
X0056325Y0058855D01*
X0057312Y0059264D01*
X0058298Y0058855D01*
X0073254Y0058855D01*
X0076160Y0060059D01*
X0078384Y0062283D01*
X0079587Y0065188D01*
X0079587Y0068333D01*
X0078384Y0071239D01*
X0076160Y0073463D01*
X0073254Y0074666D01*
X0058298Y0074666D01*
X0057312Y0074257D01*
X0056325Y0074666D01*
X0041369Y0074666D01*
X0040491Y0074302D01*
X0019180Y0095614D01*
X0019180Y0131104D01*
X0020205Y0128628D01*
X0020205Y0128628D01*
X0023691Y0124085D01*
X0023691Y0124085D01*
X0023691Y0124085D01*
X0028234Y0120599D01*
X0033524Y0118408D01*
X0033524Y0118408D01*
X0039202Y0117660D01*
X0044879Y0118408D01*
X0050169Y0120599D01*
X0050169Y0120599D01*
X0054712Y0124085D01*
X0058198Y0128628D01*
X0060389Y0133918D01*
X0060389Y0133918D01*
X0061137Y0139595D01*
X0060389Y0145272D01*
X0060389Y0145272D01*
X0058860Y0148964D01*
X0070754Y0160857D01*
X0071140Y0160857D01*
X0073271Y0161740D01*
X0074042Y0162510D01*
X0095398Y0162510D01*
X0095584Y0162587D01*
X0092804Y0156626D01*
X0092804Y0156626D01*
X0090558Y0148242D01*
X0089801Y0139595D01*
X0090558Y0130949D01*
X0092804Y0122565D01*
X0092804Y0122565D01*
X0093251Y0121606D01*
X0092365Y0121843D01*
X0089653Y0121843D01*
X0087033Y0121141D01*
X0084685Y0119786D01*
X0082767Y0117868D01*
X0081411Y0115519D01*
X0080709Y0112900D01*
X0080709Y0110188D01*
X0081411Y0107569D01*
X0082232Y0106147D01*
X0079203Y0109176D01*
X0079203Y0152848D01*
X0079893Y0153539D01*
X0080484Y0154965D01*
X0080484Y0156509D01*
X0079893Y0157935D01*
X0078802Y0159027D01*
X0077375Y0159618D01*
X0075831Y0159618D01*
X0074405Y0159027D01*
X0073313Y0157935D01*
X0072722Y0156509D01*
X0072722Y0154965D01*
X0073313Y0153539D01*
X0074003Y0152848D01*
X0074003Y0107582D01*
X0074399Y0106626D01*
X0080876Y0100149D01*
X0080114Y0099834D01*
X0078832Y0099149D01*
X0077623Y0098341D01*
X0076500Y0097419D01*
X0075472Y0096391D01*
X0074550Y0095268D01*
X0073743Y0094060D01*
X0073058Y0092778D01*
X0072501Y0091435D01*
X0072080Y0090044D01*
X0071796Y0088619D01*
X0071661Y0087246D01*
X0075839Y0087246D01*
X0075839Y0085646D01*
X0071661Y0085646D01*
X0071796Y0084273D01*
X0072080Y0082847D01*
X0072501Y0081456D01*
X0073058Y0080114D01*
X0073743Y0078832D01*
X0074550Y0077623D01*
X0075472Y0076500D01*
X0076500Y0075472D01*
X0077623Y0074550D01*
X0078832Y0073743D01*
X0080114Y0073058D01*
X0081456Y0072501D01*
X0082847Y0072080D01*
X0084273Y0071796D01*
X0085646Y0071661D01*
X0085646Y0075839D01*
X0087246Y0075839D01*
X0087246Y0071661D01*
X0088619Y0071796D01*
X0090044Y0072080D01*
X0091435Y0072501D01*
X0092778Y0073058D01*
X0094060Y0073743D01*
X0095268Y0074550D01*
X0096391Y0075472D01*
X0097419Y0076500D01*
X0098341Y0077623D01*
X0099149Y0078832D01*
X0099834Y0080114D01*
X0100390Y0081456D01*
X0100812Y0082847D01*
X0101095Y0084273D01*
X0101231Y0085646D01*
X0097053Y0085646D01*
X0097053Y0087246D01*
X0101231Y0087246D01*
X0101095Y0088619D01*
X0100812Y0090044D01*
X0100390Y0091435D01*
X0099834Y0092778D01*
X0099575Y0093261D01*
X0107960Y0084877D01*
X0107960Y0038192D01*
X0108356Y0037237D01*
X0109087Y0036505D01*
X0112532Y0033060D01*
X0113488Y0032665D01*
X0130270Y0032665D01*
X0130637Y0032817D01*
X0132172Y0032817D01*
X0132172Y0032102D01*
X0131779Y0032102D01*
X0131267Y0031590D01*
X0130940Y0031779D01*
X0130482Y0031902D01*
X0128264Y0031902D01*
X0128264Y0028318D01*
X0127895Y0028318D01*
X0127895Y0027949D01*
X0128264Y0027949D01*
X0128264Y0024365D01*
X0130482Y0024365D01*
X0130940Y0024488D01*
X0131267Y0024677D01*
X0131779Y0024165D01*
X0137401Y0024165D01*
X0137948Y0022843D01*
X0138985Y0021807D01*
X0140339Y0021246D01*
X0141804Y0021246D01*
X0143159Y0021807D01*
X0144195Y0022843D01*
X0144756Y0024197D01*
X0144756Y0025663D01*
X0144679Y0025848D01*
X0148652Y0025848D01*
X0149005Y0026201D01*
X0149357Y0025848D01*
X0155345Y0025848D01*
X0156330Y0026833D01*
X0157315Y0025848D01*
X0163303Y0025848D01*
X0163814Y0026360D01*
X0164142Y0026171D01*
X0164599Y0026048D01*
X0166817Y0026048D01*
X0166817Y0029632D01*
X0167186Y0029632D01*
X0167186Y0026048D01*
X0169404Y0026048D01*
X0169862Y0026171D01*
X0170272Y0026408D01*
X0170607Y0026743D01*
X0170844Y0027153D01*
X0170967Y0027611D01*
X0170967Y0029632D01*
X0167186Y0029632D01*
X0167186Y0030001D01*
X0166817Y0030001D01*
X0166817Y0033585D01*
X0164599Y0033585D01*
X0164142Y0033463D01*
X0163814Y0033274D01*
X0163303Y0033785D01*
X0157315Y0033785D01*
X0156330Y0032800D01*
X0155345Y0033785D01*
X0149357Y0033785D01*
X0149005Y0033433D01*
X0148652Y0033785D01*
X0142664Y0033785D01*
X0141493Y0032614D01*
X0141493Y0032417D01*
X0140490Y0032417D01*
X0140090Y0032817D01*
X0141506Y0032817D01*
X0142678Y0033988D01*
X0142678Y0034196D01*
X0142851Y0034022D01*
X0148839Y0034022D01*
X0149192Y0034375D01*
X0149544Y0034022D01*
X0155532Y0034022D01*
X0156451Y0034941D01*
X0157222Y0034170D01*
X0163209Y0034170D01*
X0163562Y0034523D01*
X0163914Y0034170D01*
X0169902Y0034170D01*
X0171074Y0035342D01*
X0171074Y0040936D01*
X0170477Y0041532D01*
X0170839Y0042406D01*
X0170839Y0043871D01*
X0170278Y0045226D01*
X0169241Y0046262D01*
X0167887Y0046823D01*
X0166421Y0046823D01*
X0165067Y0046262D01*
X0164031Y0045226D01*
X0163470Y0043871D01*
X0163470Y0042406D01*
X0163688Y0041880D01*
X0163562Y0041754D01*
X0163209Y0042107D01*
X0157222Y0042107D01*
X0156303Y0041188D01*
X0155532Y0041959D01*
X0150739Y0041959D01*
X0150739Y0045309D01*
X0150660Y0045499D01*
X0155552Y0045499D01*
X0156723Y0046670D01*
X0156723Y0052264D01*
X0155552Y0053436D01*
X0155005Y0053436D01*
X0154932Y0053612D01*
X0154144Y0054400D01*
X0153627Y0054917D01*
X0153809Y0054993D01*
X0154710Y0055893D01*
X0155197Y0057069D01*
X0155197Y0058177D01*
X0155786Y0057588D01*
X0157031Y0057072D01*
X0158380Y0057072D01*
X0159625Y0057588D01*
X0159698Y0057661D01*
X0160231Y0057661D01*
X0161260Y0058088D01*
X0162048Y0058875D01*
X0162835Y0059663D01*
X0163261Y0060692D01*
X0163261Y0060827D01*
X0164430Y0061995D01*
X0164430Y0067983D01*
X0164077Y0068335D01*
X0164424Y0068682D01*
X0173038Y0068682D01*
X0180706Y0061014D01*
X0180706Y0052979D01*
X0181877Y0051808D01*
X0189833Y0051808D01*
X0190314Y0052289D01*
X0191661Y0050942D01*
X0192674Y0049929D01*
X0193997Y0049381D01*
X0236768Y0049381D01*
X0238091Y0049929D01*
X0247146Y0058984D01*
X0247146Y0058984D01*
X0248159Y0059997D01*
X0248707Y0061320D01*
X0248707Y0078753D01*
X0249863Y0079909D01*
X0249863Y0082798D01*
X0250184Y0082477D01*
X0257353Y0082477D01*
X0258524Y0083649D01*
X0258524Y0089243D01*
X0257353Y0090414D01*
X0256968Y0090414D01*
X0256968Y0092495D01*
X0256969Y0092495D01*
X0256968Y0093091D01*
X0256968Y0093768D01*
X0256968Y0093817D01*
X0256444Y0095084D01*
X0256048Y0095479D01*
X0254547Y0096980D01*
X0254475Y0097154D01*
X0254064Y0097565D01*
X0251308Y0100322D01*
X0253382Y0102396D01*
X0254650Y0105458D01*
X0254650Y0108772D01*
X0253382Y0111834D01*
X0251039Y0114177D01*
X0247977Y0115446D01*
X0232001Y0115446D01*
X0228939Y0114177D01*
X0228728Y0113966D01*
X0228728Y0165015D01*
X0228579Y0165373D01*
X0228939Y0165013D01*
X0232001Y0163745D01*
X0247977Y0163745D01*
X0251039Y0165013D01*
X0253382Y0167357D01*
X0254650Y0170419D01*
X0254650Y0173733D01*
X0253382Y0176795D01*
X0251039Y0179138D01*
X0247977Y0180406D01*
X0243589Y0180406D01*
X0243589Y0181650D01*
X0243041Y0182973D01*
X0239849Y0186165D01*
X0239849Y0205364D01*
X0240727Y0205728D01*
X0242951Y0207952D01*
X0244154Y0210857D01*
X0244154Y0214002D01*
X0242951Y0216908D01*
X0240727Y0219132D01*
X0237821Y0220335D01*
X0222865Y0220335D01*
X0221879Y0219927D01*
X0220892Y0220335D01*
X0205936Y0220335D01*
X0203031Y0219132D01*
X0200807Y0216908D01*
X0199603Y0214002D01*
X0199603Y0210857D01*
X0200807Y0207952D01*
X0203031Y0205728D01*
X0205936Y0204524D01*
X0220892Y0204524D01*
X0221879Y0204933D01*
X0222865Y0204524D01*
X0232649Y0204524D01*
X0232649Y0183958D01*
X0233197Y0182635D01*
X0235425Y0180406D01*
X0232001Y0180406D01*
X0228939Y0179138D01*
X0226596Y0176795D01*
X0225328Y0173733D01*
X0225328Y0170419D01*
X0226196Y0168322D01*
X0222343Y0172175D01*
X0221020Y0172723D01*
X0196373Y0172723D01*
X0191343Y0177753D01*
X0194719Y0177753D01*
X0198532Y0178774D01*
X0201950Y0180748D01*
X0204742Y0183539D01*
X0206715Y0186958D01*
X0207737Y0190771D01*
X0207737Y0194719D01*
X0206715Y0198532D01*
X0204742Y0201950D01*
X0201950Y0204742D01*
X0198532Y0206715D01*
X0194719Y0207737D01*
X0190771Y0207737D01*
X0186958Y0206715D01*
X0183539Y0204742D01*
X0181153Y0202355D01*
X0181153Y0210228D01*
X0180605Y0211551D01*
X0177982Y0214174D01*
X0176969Y0215187D01*
X0175646Y0215735D01*
X0172485Y0215735D01*
X0171920Y0216300D01*
X0166326Y0216300D01*
X0165316Y0215290D01*
X0165316Y0215424D01*
X0164537Y0216203D01*
X0164537Y0218696D01*
X0165559Y0217673D01*
X0166914Y0217112D01*
X0168379Y0217112D01*
X0169733Y0217673D01*
X0170357Y0218296D01*
X0172024Y0218296D01*
X0173401Y0216919D01*
X0174104Y0216216D01*
X0175023Y0215835D01*
X0178337Y0215835D01*
X0178337Y0215795D01*
X0179508Y0214624D01*
X0184139Y0214624D01*
X0184806Y0214347D01*
X0185920Y0214347D01*
X0186587Y0214624D01*
X0189865Y0214624D01*
X0191037Y0215795D01*
X0191037Y0219852D01*
X0190565Y0220324D01*
X0191037Y0220795D01*
X0191037Y0224852D01*
X0190565Y0225324D01*
X0192421Y0225324D01*
X0192794Y0224951D01*
X0194039Y0224435D01*
X0195387Y0224435D01*
X0196450Y0224875D01*
X0199203Y0222122D01*
X0200122Y0221741D01*
X0238953Y0221741D01*
X0251269Y0209426D01*
X0251269Y0202090D01*
X0251649Y0201171D01*
X0251769Y0201052D01*
X0251769Y0197366D01*
X0250608Y0196206D01*
X0249598Y0193769D01*
X0249598Y0191131D01*
X0250608Y0188694D01*
X0251969Y0187333D01*
X0251969Y0185596D01*
X0255799Y0185596D01*
X0255799Y0184736D01*
X0256659Y0184736D01*
X0256659Y0180610D01*
X0258927Y0180610D01*
X0259385Y0180733D01*
X0259795Y0180970D01*
X0260130Y0181305D01*
X0260367Y0181715D01*
X0260490Y0182173D01*
X0260490Y0184736D01*
X0256660Y0184736D01*
X0256660Y0185596D01*
X0260490Y0185596D01*
X0260490Y0187333D01*
X0261850Y0188694D01*
X0262860Y0191131D01*
X0262860Y0193769D01*
X0261850Y0196206D01*
X0260690Y0197366D01*
X0260690Y0199027D01*
X0264331Y0191140D01*
X0266494Y0185335D01*
X0266494Y0093856D01*
X0264331Y0088051D01*
X0258761Y0075984D01*
X0252004Y0064539D01*
X0244130Y0053833D01*
X0235217Y0043973D01*
X0225358Y0035061D01*
X0214651Y0027187D01*
X0203207Y0020430D01*
X0191140Y0014860D01*
X0185335Y0012696D01*
X0093856Y0012696D01*
X0088051Y0014860D01*
X0075984Y0020430D01*
X0064539Y0027187D01*
X0053833Y0035061D01*
X0057761Y0032172D02*
X0060211Y0032172D01*
X0059934Y0030573D02*
X0061519Y0030573D01*
X0062108Y0028975D02*
X0065207Y0028975D01*
X0065217Y0028975D02*
X0065942Y0028975D01*
X0065952Y0028975D02*
X0124114Y0028975D01*
X0124114Y0028318D02*
X0127895Y0028318D01*
X0127895Y0031902D01*
X0125677Y0031902D01*
X0125219Y0031779D01*
X0124809Y0031543D01*
X0124474Y0031207D01*
X0124237Y0030797D01*
X0124114Y0030339D01*
X0124114Y0028318D01*
X0124114Y0027949D02*
X0124114Y0025928D01*
X0124237Y0025470D01*
X0124474Y0025060D01*
X0124809Y0024725D01*
X0125219Y0024488D01*
X0125677Y0024365D01*
X0127895Y0024365D01*
X0127895Y0027949D01*
X0124114Y0027949D01*
X0124114Y0027376D02*
X0064281Y0027376D01*
X0066926Y0025778D02*
X0124154Y0025778D01*
X0127895Y0025778D02*
X0128264Y0025778D01*
X0128264Y0027376D02*
X0127895Y0027376D01*
X0127895Y0028975D02*
X0128264Y0028975D01*
X0128264Y0030573D02*
X0127895Y0030573D01*
X0124177Y0030573D02*
X0069640Y0030573D01*
X0070949Y0032172D02*
X0132172Y0032172D01*
X0124296Y0037865D02*
X0115082Y0037865D01*
X0113160Y0039786D01*
X0113160Y0084867D01*
X0116499Y0081528D01*
X0116907Y0080544D01*
X0116907Y0062384D01*
X0117394Y0061208D01*
X0119884Y0058718D01*
X0119884Y0055621D01*
X0119116Y0054853D01*
X0119116Y0048865D01*
X0119469Y0048513D01*
X0119116Y0048160D01*
X0119116Y0042172D01*
X0120288Y0041001D01*
X0122764Y0041001D01*
X0123785Y0039980D01*
X0123785Y0039099D01*
X0124296Y0037865D01*
X0124006Y0038566D02*
X0114380Y0038566D01*
X0113160Y0040164D02*
X0123601Y0040164D01*
X0119526Y0041763D02*
X0113160Y0041763D01*
X0113160Y0043361D02*
X0119116Y0043361D01*
X0119116Y0044960D02*
X0113160Y0044960D01*
X0113160Y0046558D02*
X0119116Y0046558D01*
X0119116Y0048157D02*
X0113160Y0048157D01*
X0113160Y0049755D02*
X0119116Y0049755D01*
X0119116Y0051354D02*
X0113160Y0051354D01*
X0113160Y0052952D02*
X0119116Y0052952D01*
X0119116Y0054551D02*
X0113160Y0054551D01*
X0113160Y0056149D02*
X0119884Y0056149D01*
X0119884Y0057748D02*
X0113160Y0057748D01*
X0113160Y0059346D02*
X0119256Y0059346D01*
X0117657Y0060945D02*
X0113160Y0060945D01*
X0113160Y0062543D02*
X0116907Y0062543D01*
X0116907Y0064142D02*
X0113160Y0064142D01*
X0113160Y0065740D02*
X0116907Y0065740D01*
X0116907Y0067339D02*
X0113160Y0067339D01*
X0113160Y0068937D02*
X0116907Y0068937D01*
X0116907Y0070536D02*
X0113160Y0070536D01*
X0113160Y0072134D02*
X0116907Y0072134D01*
X0116907Y0073733D02*
X0113160Y0073733D01*
X0113160Y0075332D02*
X0116907Y0075332D01*
X0116907Y0076930D02*
X0113160Y0076930D01*
X0113160Y0078529D02*
X0116907Y0078529D01*
X0116907Y0080127D02*
X0113160Y0080127D01*
X0113160Y0081726D02*
X0116302Y0081726D01*
X0114703Y0083324D02*
X0113160Y0083324D01*
X0107960Y0083324D02*
X0100907Y0083324D01*
X0101159Y0084923D02*
X0107914Y0084923D01*
X0106315Y0086521D02*
X0097053Y0086521D01*
X0101144Y0088120D02*
X0104717Y0088120D01*
X0103118Y0089718D02*
X0100877Y0089718D01*
X0100426Y0091317D02*
X0101520Y0091317D01*
X0099921Y0092915D02*
X0099760Y0092915D01*
X0107769Y0099309D02*
X0110647Y0099309D01*
X0109368Y0097711D02*
X0112930Y0097711D01*
X0114698Y0096472D02*
X0122565Y0092804D01*
X0130949Y0090558D01*
X0139595Y0089801D01*
X0139595Y0089801D01*
X0148242Y0090558D01*
X0156626Y0092804D01*
X0164492Y0096472D01*
X0164492Y0096472D01*
X0171602Y0101451D01*
X0171602Y0101451D01*
X0177740Y0107588D01*
X0177740Y0107588D01*
X0178347Y0108455D01*
X0178585Y0107569D01*
X0178986Y0106874D01*
X0157971Y0085859D01*
X0157679Y0086564D01*
X0156643Y0087601D01*
X0155289Y0088161D01*
X0153823Y0088161D01*
X0152469Y0087601D01*
X0151433Y0086564D01*
X0150872Y0085210D01*
X0150872Y0083744D01*
X0151433Y0082390D01*
X0152469Y0081354D01*
X0153174Y0081062D01*
X0149284Y0077172D01*
X0148797Y0075996D01*
X0148797Y0058465D01*
X0148081Y0057750D01*
X0147188Y0057750D01*
X0147980Y0058542D01*
X0148496Y0059787D01*
X0148496Y0061136D01*
X0147980Y0062381D01*
X0147513Y0062848D01*
X0147513Y0063189D01*
X0148682Y0064357D01*
X0148682Y0070345D01*
X0148170Y0070857D01*
X0148359Y0071184D01*
X0148482Y0071642D01*
X0148482Y0073860D01*
X0144898Y0073860D01*
X0144898Y0074228D01*
X0148482Y0074228D01*
X0148482Y0076446D01*
X0148359Y0076904D01*
X0148122Y0077315D01*
X0147787Y0077650D01*
X0147377Y0077887D01*
X0146919Y0078009D01*
X0144898Y0078009D01*
X0144898Y0074228D01*
X0144529Y0074228D01*
X0144529Y0073860D01*
X0140945Y0073860D01*
X0137417Y0073860D01*
X0137417Y0074228D01*
X0137049Y0074228D01*
X0137049Y0073860D01*
X0133465Y0073860D01*
X0133465Y0071642D01*
X0133587Y0071184D01*
X0133776Y0070857D01*
X0133265Y0070345D01*
X0133265Y0070151D01*
X0131753Y0070151D01*
X0131753Y0070345D01*
X0131241Y0070857D01*
X0131430Y0071184D01*
X0131553Y0071642D01*
X0131553Y0073860D01*
X0127969Y0073860D01*
X0127969Y0074228D01*
X0131553Y0074228D01*
X0131553Y0076446D01*
X0131430Y0076904D01*
X0131193Y0077315D01*
X0130858Y0077650D01*
X0130448Y0077887D01*
X0129990Y0078009D01*
X0127969Y0078009D01*
X0127969Y0074228D01*
X0127600Y0074228D01*
X0127600Y0073860D01*
X0124016Y0073860D01*
X0124016Y0071642D01*
X0124138Y0071184D01*
X0124327Y0070857D01*
X0123816Y0070345D01*
X0123816Y0064357D01*
X0124987Y0063186D01*
X0130581Y0063186D01*
X0131753Y0064357D01*
X0131753Y0064551D01*
X0133265Y0064551D01*
X0133265Y0064357D01*
X0134436Y0063186D01*
X0134531Y0063186D01*
X0134531Y0059451D01*
X0134029Y0059451D01*
X0133829Y0059651D01*
X0131452Y0059651D01*
X0129474Y0061629D01*
X0129474Y0061629D01*
X0128686Y0062417D01*
X0127657Y0062843D01*
X0124810Y0062843D01*
X0123307Y0064346D01*
X0123307Y0080544D01*
X0123791Y0081713D01*
X0123791Y0083179D01*
X0123230Y0084533D01*
X0122194Y0085569D01*
X0121025Y0086053D01*
X0100205Y0106874D01*
X0100606Y0107569D01*
X0100844Y0108455D01*
X0101451Y0107588D01*
X0107588Y0101451D01*
X0107588Y0101451D01*
X0114698Y0096472D01*
X0114698Y0096472D01*
X0115471Y0096112D02*
X0110966Y0096112D01*
X0112565Y0094514D02*
X0118899Y0094514D01*
X0122327Y0092915D02*
X0114163Y0092915D01*
X0115762Y0091317D02*
X0128116Y0091317D01*
X0130949Y0090558D02*
X0130949Y0090558D01*
X0122565Y0092804D02*
X0122565Y0092804D01*
X0117360Y0089718D02*
X0161830Y0089718D01*
X0160232Y0088120D02*
X0155390Y0088120D01*
X0153722Y0088120D02*
X0118959Y0088120D01*
X0120557Y0086521D02*
X0151415Y0086521D01*
X0150872Y0084923D02*
X0122840Y0084923D01*
X0123731Y0083324D02*
X0151046Y0083324D01*
X0152097Y0081726D02*
X0123791Y0081726D01*
X0123307Y0080127D02*
X0152239Y0080127D01*
X0150641Y0078529D02*
X0123307Y0078529D01*
X0123307Y0076930D02*
X0124153Y0076930D01*
X0124138Y0076904D02*
X0124016Y0076446D01*
X0124016Y0074228D01*
X0127600Y0074228D01*
X0127600Y0078009D01*
X0125579Y0078009D01*
X0125121Y0077887D01*
X0124711Y0077650D01*
X0124375Y0077315D01*
X0124138Y0076904D01*
X0124016Y0075332D02*
X0123307Y0075332D01*
X0123307Y0073733D02*
X0124016Y0073733D01*
X0124016Y0072134D02*
X0123307Y0072134D01*
X0123307Y0070536D02*
X0124007Y0070536D01*
X0123816Y0068937D02*
X0123307Y0068937D01*
X0123307Y0067339D02*
X0123816Y0067339D01*
X0123816Y0065740D02*
X0123307Y0065740D01*
X0123511Y0064142D02*
X0124031Y0064142D01*
X0123084Y0060043D02*
X0127100Y0060043D01*
X0132213Y0054930D01*
X0132213Y0054502D02*
X0132213Y0052725D01*
X0129413Y0052952D02*
X0127053Y0052952D01*
X0127053Y0051354D02*
X0129426Y0051354D01*
X0129426Y0052138D02*
X0129426Y0050524D01*
X0130531Y0049418D01*
X0130531Y0046979D01*
X0135307Y0046979D01*
X0135307Y0045489D01*
X0130531Y0045489D01*
X0130531Y0043050D01*
X0129996Y0042515D01*
X0129556Y0042955D01*
X0128202Y0043516D01*
X0127321Y0043516D01*
X0127053Y0043783D01*
X0127053Y0048160D01*
X0126700Y0048513D01*
X0127053Y0048865D01*
X0127053Y0054853D01*
X0126284Y0055621D01*
X0126284Y0056899D01*
X0129413Y0053770D01*
X0129413Y0052168D01*
X0129426Y0052138D01*
X0130194Y0049755D02*
X0127053Y0049755D01*
X0127053Y0048157D02*
X0130531Y0048157D01*
X0130531Y0044960D02*
X0127053Y0044960D01*
X0127053Y0046558D02*
X0135307Y0046558D01*
X0134772Y0045639D02*
X0134772Y0044064D01*
X0134871Y0043965D01*
X0136797Y0045489D02*
X0136797Y0046979D01*
X0141572Y0046979D01*
X0141572Y0049418D01*
X0141700Y0049545D01*
X0141700Y0046670D01*
X0142871Y0045499D01*
X0143755Y0045499D01*
X0145539Y0043715D01*
X0145539Y0041959D01*
X0142851Y0041959D01*
X0142678Y0041786D01*
X0142678Y0041944D01*
X0141572Y0043050D01*
X0141572Y0045489D01*
X0136797Y0045489D01*
X0136797Y0046558D02*
X0141812Y0046558D01*
X0141700Y0048157D02*
X0141572Y0048157D01*
X0141572Y0044960D02*
X0144294Y0044960D01*
X0145539Y0043361D02*
X0141572Y0043361D01*
X0150739Y0043361D02*
X0163470Y0043361D01*
X0163553Y0041763D02*
X0163570Y0041763D01*
X0166908Y0042893D02*
X0166908Y0038139D01*
X0171074Y0038566D02*
X0180906Y0038566D01*
X0180906Y0040164D02*
X0171074Y0040164D01*
X0170572Y0041763D02*
X0185080Y0041763D01*
X0185080Y0041222D02*
X0180906Y0041222D01*
X0180906Y0035461D01*
X0181028Y0035003D01*
X0181265Y0034592D01*
X0181600Y0034257D01*
X0182011Y0034020D01*
X0182469Y0033898D01*
X0185080Y0033898D01*
X0185080Y0041222D01*
X0185080Y0042772D01*
X0185080Y0050096D01*
X0182469Y0050096D01*
X0182011Y0049973D01*
X0181600Y0049736D01*
X0181265Y0049401D01*
X0181028Y0048991D01*
X0180906Y0048533D01*
X0180906Y0042772D01*
X0185080Y0042772D01*
X0186630Y0042772D01*
X0186630Y0050096D01*
X0189242Y0050096D01*
X0189699Y0049973D01*
X0190110Y0049736D01*
X0190445Y0049401D01*
X0190682Y0048991D01*
X0190805Y0048533D01*
X0190805Y0042772D01*
X0186630Y0042772D01*
X0186630Y0041222D01*
X0190805Y0041222D01*
X0190805Y0035461D01*
X0190682Y0035003D01*
X0190445Y0034592D01*
X0190110Y0034257D01*
X0189699Y0034020D01*
X0189242Y0033898D01*
X0186630Y0033898D01*
X0186630Y0041222D01*
X0185080Y0041222D01*
X0185080Y0040164D02*
X0186630Y0040164D01*
X0186630Y0038566D02*
X0185080Y0038566D01*
X0185080Y0036967D02*
X0186630Y0036967D01*
X0186630Y0035369D02*
X0185080Y0035369D01*
X0180930Y0035369D02*
X0171074Y0035369D01*
X0171074Y0036967D02*
X0180906Y0036967D01*
X0180906Y0043361D02*
X0170839Y0043361D01*
X0170388Y0044960D02*
X0180906Y0044960D01*
X0180906Y0046558D02*
X0168526Y0046558D01*
X0165783Y0046558D02*
X0156611Y0046558D01*
X0156723Y0048157D02*
X0180906Y0048157D01*
X0181633Y0049755D02*
X0156723Y0049755D01*
X0156723Y0051354D02*
X0191249Y0051354D01*
X0190077Y0049755D02*
X0193094Y0049755D01*
X0190805Y0048157D02*
X0238999Y0048157D01*
X0237672Y0049755D02*
X0240444Y0049755D01*
X0239516Y0051354D02*
X0241889Y0051354D01*
X0241114Y0052952D02*
X0243334Y0052952D01*
X0242713Y0054551D02*
X0244658Y0054551D01*
X0244311Y0056149D02*
X0245834Y0056149D01*
X0245910Y0057748D02*
X0247009Y0057748D01*
X0247508Y0059346D02*
X0248185Y0059346D01*
X0248552Y0060945D02*
X0249361Y0060945D01*
X0248707Y0062543D02*
X0250536Y0062543D01*
X0251712Y0064142D02*
X0248707Y0064142D01*
X0248707Y0065740D02*
X0252713Y0065740D01*
X0253657Y0067339D02*
X0248707Y0067339D01*
X0248707Y0068937D02*
X0254601Y0068937D01*
X0255544Y0070536D02*
X0248707Y0070536D01*
X0248707Y0072134D02*
X0256488Y0072134D01*
X0257432Y0073733D02*
X0248707Y0073733D01*
X0248707Y0075332D02*
X0258375Y0075332D01*
X0259197Y0076930D02*
X0248707Y0076930D01*
X0248707Y0078529D02*
X0259935Y0078529D01*
X0260673Y0080127D02*
X0249863Y0080127D01*
X0249863Y0081726D02*
X0261411Y0081726D01*
X0262149Y0083324D02*
X0258200Y0083324D01*
X0258524Y0084923D02*
X0262887Y0084923D01*
X0263624Y0086521D02*
X0258524Y0086521D01*
X0258524Y0088120D02*
X0264356Y0088120D01*
X0264952Y0089718D02*
X0258049Y0089718D01*
X0256968Y0091317D02*
X0265548Y0091317D01*
X0266144Y0092915D02*
X0256969Y0092915D01*
X0256968Y0093768D02*
X0256968Y0093768D01*
X0256680Y0094514D02*
X0266494Y0094514D01*
X0266494Y0096112D02*
X0255415Y0096112D01*
X0254475Y0097154D02*
X0254475Y0097154D01*
X0253919Y0097711D02*
X0266494Y0097711D01*
X0266494Y0099309D02*
X0252320Y0099309D01*
X0251894Y0100908D02*
X0266494Y0100908D01*
X0266494Y0102506D02*
X0253428Y0102506D01*
X0254090Y0104105D02*
X0266494Y0104105D01*
X0266494Y0105703D02*
X0254650Y0105703D01*
X0254650Y0107302D02*
X0266494Y0107302D01*
X0266494Y0108900D02*
X0254597Y0108900D01*
X0253935Y0110499D02*
X0266494Y0110499D01*
X0266494Y0112097D02*
X0253119Y0112097D01*
X0251520Y0113696D02*
X0266494Y0113696D01*
X0266494Y0115294D02*
X0248342Y0115294D01*
X0231636Y0115294D02*
X0228728Y0115294D01*
X0228728Y0116893D02*
X0266494Y0116893D01*
X0266494Y0118491D02*
X0228728Y0118491D01*
X0228728Y0120090D02*
X0266494Y0120090D01*
X0266494Y0121688D02*
X0228728Y0121688D01*
X0228728Y0123287D02*
X0266494Y0123287D01*
X0266494Y0124885D02*
X0228728Y0124885D01*
X0228728Y0126484D02*
X0266494Y0126484D01*
X0266494Y0128082D02*
X0228728Y0128082D01*
X0228728Y0129681D02*
X0266494Y0129681D01*
X0266494Y0131279D02*
X0228728Y0131279D01*
X0228728Y0132878D02*
X0266494Y0132878D01*
X0266494Y0134476D02*
X0257395Y0134476D01*
X0257363Y0134461D02*
X0257533Y0134540D01*
X0257584Y0134682D01*
X0257751Y0134849D01*
X0257944Y0134984D01*
X0258093Y0135011D01*
X0258200Y0135164D01*
X0258353Y0135271D01*
X0258379Y0135420D01*
X0258515Y0135613D01*
X0258681Y0135780D01*
X0258823Y0135831D01*
X0258902Y0136001D01*
X0259034Y0136133D01*
X0259034Y0136284D01*
X0259134Y0136497D01*
X0259269Y0136691D01*
X0259400Y0136766D01*
X0259449Y0136947D01*
X0259556Y0137100D01*
X0259529Y0137249D01*
X0259590Y0137476D01*
X0259690Y0137690D01*
X0259806Y0137787D01*
X0259822Y0137973D01*
X0259901Y0138142D01*
X0259849Y0138285D01*
X0259870Y0138519D01*
X0259931Y0138747D01*
X0260028Y0138863D01*
X0260012Y0139049D01*
X0260060Y0139230D01*
X0259985Y0139360D01*
X0259964Y0139595D01*
X0259985Y0139830D01*
X0260060Y0139961D01*
X0260012Y0140141D01*
X0260028Y0140328D01*
X0259931Y0140443D01*
X0259870Y0140671D01*
X0259849Y0140906D01*
X0259901Y0141048D01*
X0259822Y0141217D01*
X0259806Y0141403D01*
X0259690Y0141501D01*
X0259590Y0141714D01*
X0259529Y0141942D01*
X0259556Y0142091D01*
X0259449Y0142244D01*
X0259400Y0142424D01*
X0259269Y0142500D01*
X0259134Y0142693D01*
X0259034Y0142907D01*
X0259034Y0143058D01*
X0258902Y0143190D01*
X0258823Y0143359D01*
X0258681Y0143411D01*
X0258515Y0143578D01*
X0258379Y0143771D01*
X0258353Y0143920D01*
X0258200Y0144027D01*
X0258093Y0144180D01*
X0257944Y0144206D01*
X0257751Y0144341D01*
X0257584Y0144508D01*
X0257533Y0144650D01*
X0257363Y0144729D01*
X0257231Y0144861D01*
X0257080Y0144861D01*
X0256866Y0144961D01*
X0256673Y0145096D01*
X0256598Y0145227D01*
X0256417Y0145275D01*
X0256264Y0145382D01*
X0256115Y0145356D01*
X0255887Y0145417D01*
X0255674Y0145517D01*
X0255577Y0145633D01*
X0255391Y0145649D01*
X0255221Y0145728D01*
X0255079Y0145676D01*
X0254844Y0145697D01*
X0254617Y0145758D01*
X0254501Y0145855D01*
X0254315Y0145839D01*
X0254134Y0145887D01*
X0254003Y0145811D01*
X0253768Y0145791D01*
X0253534Y0145811D01*
X0253403Y0145887D01*
X0253222Y0145839D01*
X0253036Y0145855D01*
X0252920Y0145758D01*
X0252693Y0145697D01*
X0252458Y0145676D01*
X0252316Y0145728D01*
X0252146Y0145649D01*
X0251960Y0145633D01*
X0251863Y0145517D01*
X0251649Y0145417D01*
X0251422Y0145356D01*
X0251273Y0145382D01*
X0251120Y0145275D01*
X0250939Y0145227D01*
X0250864Y0145096D01*
X0250671Y0144961D01*
X0250457Y0144861D01*
X0250306Y0144861D01*
X0250174Y0144729D01*
X0250004Y0144650D01*
X0249953Y0144508D01*
X0249786Y0144341D01*
X0249593Y0144206D01*
X0249444Y0144180D01*
X0249337Y0144027D01*
X0249184Y0143920D01*
X0249158Y0143771D01*
X0249022Y0143578D01*
X0248856Y0143411D01*
X0248714Y0143359D01*
X0248635Y0143190D01*
X0248503Y0143058D01*
X0248503Y0142907D01*
X0248403Y0142693D01*
X0248268Y0142500D01*
X0248137Y0142424D01*
X0248088Y0142244D01*
X0247981Y0142091D01*
X0248008Y0141942D01*
X0247947Y0141714D01*
X0247847Y0141501D01*
X0247731Y0141403D01*
X0247715Y0141217D01*
X0247636Y0141048D01*
X0247688Y0140906D01*
X0247667Y0140671D01*
X0247606Y0140443D01*
X0247509Y0140328D01*
X0247525Y0140141D01*
X0247477Y0139961D01*
X0247552Y0139830D01*
X0247573Y0139595D01*
X0247552Y0139360D01*
X0247477Y0139230D01*
X0247525Y0139049D01*
X0247509Y0138863D01*
X0247606Y0138747D01*
X0247667Y0138519D01*
X0247688Y0138285D01*
X0247636Y0138142D01*
X0247715Y0137973D01*
X0247731Y0137787D01*
X0247847Y0137690D01*
X0247947Y0137476D01*
X0248008Y0137249D01*
X0247981Y0137100D01*
X0248088Y0136947D01*
X0248137Y0136766D01*
X0248268Y0136691D01*
X0248403Y0136497D01*
X0248503Y0136284D01*
X0248503Y0136133D01*
X0248635Y0136001D01*
X0248714Y0135831D01*
X0248856Y0135780D01*
X0249022Y0135613D01*
X0249158Y0135420D01*
X0249184Y0135271D01*
X0249337Y0135164D01*
X0249444Y0135011D01*
X0249593Y0134984D01*
X0249786Y0134849D01*
X0249953Y0134682D01*
X0250004Y0134540D01*
X0250174Y0134461D01*
X0250306Y0134329D01*
X0250457Y0134329D01*
X0250671Y0134230D01*
X0250864Y0134094D01*
X0250939Y0133964D01*
X0251120Y0133915D01*
X0251273Y0133808D01*
X0251422Y0133834D01*
X0251649Y0133773D01*
X0251863Y0133674D01*
X0251960Y0133558D01*
X0252146Y0133542D01*
X0252316Y0133463D01*
X0252458Y0133514D01*
X0252693Y0133494D01*
X0252920Y0133433D01*
X0253036Y0133336D01*
X0253222Y0133352D01*
X0253403Y0133304D01*
X0253534Y0133379D01*
X0253769Y0133400D01*
X0254003Y0133379D01*
X0254134Y0133304D01*
X0254315Y0133352D01*
X0254501Y0133336D01*
X0254617Y0133433D01*
X0254844Y0133494D01*
X0255079Y0133514D01*
X0255221Y0133463D01*
X0255391Y0133542D01*
X0255577Y0133558D01*
X0255674Y0133674D01*
X0255887Y0133773D01*
X0256115Y0133834D01*
X0256264Y0133808D01*
X0256417Y0133915D01*
X0256598Y0133964D01*
X0256673Y0134094D01*
X0256866Y0134230D01*
X0257080Y0134329D01*
X0257231Y0134329D01*
X0257363Y0134461D01*
X0258977Y0136075D02*
X0266494Y0136075D01*
X0266494Y0137673D02*
X0259682Y0137673D01*
X0260036Y0139272D02*
X0266494Y0139272D01*
X0266494Y0140870D02*
X0259853Y0140870D01*
X0259323Y0142469D02*
X0266494Y0142469D01*
X0266494Y0144068D02*
X0258172Y0144068D01*
X0255354Y0145666D02*
X0266494Y0145666D01*
X0266494Y0147265D02*
X0228728Y0147265D01*
X0228728Y0148863D02*
X0266494Y0148863D01*
X0266494Y0150462D02*
X0228728Y0150462D01*
X0228728Y0152060D02*
X0266494Y0152060D01*
X0266494Y0153659D02*
X0228728Y0153659D01*
X0228728Y0155257D02*
X0266494Y0155257D01*
X0266494Y0156856D02*
X0228728Y0156856D01*
X0228728Y0158454D02*
X0266494Y0158454D01*
X0266494Y0160053D02*
X0228728Y0160053D01*
X0228728Y0161651D02*
X0266494Y0161651D01*
X0266494Y0163250D02*
X0228728Y0163250D01*
X0228728Y0164848D02*
X0229338Y0164848D01*
X0225648Y0169644D02*
X0224874Y0169644D01*
X0225328Y0171242D02*
X0223276Y0171242D01*
X0225328Y0172841D02*
X0196255Y0172841D01*
X0194657Y0174439D02*
X0225620Y0174439D01*
X0226282Y0176038D02*
X0193058Y0176038D01*
X0191460Y0177636D02*
X0227438Y0177636D01*
X0229173Y0179235D02*
X0199329Y0179235D01*
X0202035Y0180833D02*
X0234998Y0180833D01*
X0233400Y0182432D02*
X0203634Y0182432D01*
X0205025Y0184030D02*
X0232649Y0184030D01*
X0232649Y0185629D02*
X0205948Y0185629D01*
X0206787Y0187227D02*
X0232649Y0187227D01*
X0232649Y0188826D02*
X0207216Y0188826D01*
X0207644Y0190424D02*
X0232649Y0190424D01*
X0232649Y0192023D02*
X0207737Y0192023D01*
X0207737Y0193621D02*
X0232649Y0193621D01*
X0232649Y0195220D02*
X0207603Y0195220D01*
X0207174Y0196818D02*
X0232649Y0196818D01*
X0232649Y0198417D02*
X0206746Y0198417D01*
X0205859Y0200015D02*
X0232649Y0200015D01*
X0232649Y0201614D02*
X0204936Y0201614D01*
X0203479Y0203212D02*
X0232649Y0203212D01*
X0239849Y0203212D02*
X0251269Y0203212D01*
X0251269Y0204811D02*
X0239849Y0204811D01*
X0241408Y0206409D02*
X0251269Y0206409D01*
X0251269Y0208008D02*
X0242974Y0208008D01*
X0243636Y0209606D02*
X0251088Y0209606D01*
X0249489Y0211205D02*
X0244154Y0211205D01*
X0244154Y0212803D02*
X0247891Y0212803D01*
X0246292Y0214402D02*
X0243989Y0214402D01*
X0243327Y0216001D02*
X0244694Y0216001D01*
X0243095Y0217599D02*
X0242260Y0217599D01*
X0241497Y0219198D02*
X0240568Y0219198D01*
X0239898Y0220796D02*
X0191037Y0220796D01*
X0191037Y0219198D02*
X0203189Y0219198D01*
X0201498Y0217599D02*
X0191037Y0217599D01*
X0191037Y0216001D02*
X0200431Y0216001D01*
X0199769Y0214402D02*
X0186052Y0214402D01*
X0184674Y0214402D02*
X0177754Y0214402D01*
X0177982Y0214174D02*
X0177982Y0214174D01*
X0179352Y0212803D02*
X0199603Y0212803D01*
X0199603Y0211205D02*
X0180748Y0211205D01*
X0181153Y0209606D02*
X0200121Y0209606D01*
X0200783Y0208008D02*
X0181153Y0208008D01*
X0181153Y0206409D02*
X0186428Y0206409D01*
X0183660Y0204811D02*
X0181153Y0204811D01*
X0181153Y0203212D02*
X0182010Y0203212D01*
X0173953Y0203212D02*
X0172891Y0203212D01*
X0172891Y0203039D02*
X0172891Y0205257D01*
X0169307Y0205257D01*
X0169307Y0201476D01*
X0171328Y0201476D01*
X0171786Y0201599D01*
X0172197Y0201836D01*
X0172532Y0202171D01*
X0172769Y0202582D01*
X0172891Y0203039D01*
X0172891Y0204811D02*
X0173953Y0204811D01*
X0172891Y0205626D02*
X0172891Y0207844D01*
X0172769Y0208302D01*
X0172634Y0208535D01*
X0173439Y0208535D01*
X0173953Y0208021D01*
X0173953Y0185736D01*
X0174501Y0184413D01*
X0191830Y0167084D01*
X0191830Y0167084D01*
X0192843Y0166071D01*
X0194166Y0165523D01*
X0218813Y0165523D01*
X0221528Y0162808D01*
X0221528Y0162095D01*
X0220855Y0162584D01*
X0220023Y0163008D01*
X0219134Y0163296D01*
X0218212Y0163443D01*
X0210055Y0163443D01*
X0210055Y0158087D01*
X0208899Y0158087D01*
X0208899Y0163425D01*
X0208088Y0163296D01*
X0207199Y0163008D01*
X0206367Y0162584D01*
X0205612Y0162035D01*
X0204951Y0161374D01*
X0204402Y0160619D01*
X0203978Y0159786D01*
X0203689Y0158898D01*
X0203561Y0158087D01*
X0208899Y0158087D01*
X0208899Y0156931D01*
X0203561Y0156931D01*
X0203689Y0156119D01*
X0203978Y0155231D01*
X0204402Y0154399D01*
X0204951Y0153643D01*
X0205612Y0152983D01*
X0206367Y0152434D01*
X0207199Y0152010D01*
X0208088Y0151721D01*
X0208899Y0151592D01*
X0208899Y0156931D01*
X0210055Y0156931D01*
X0210055Y0151575D01*
X0218212Y0151575D01*
X0219134Y0151721D01*
X0220023Y0152010D01*
X0220855Y0152434D01*
X0221528Y0152922D01*
X0221528Y0126967D01*
X0221219Y0127276D01*
X0218965Y0128209D01*
X0208257Y0128209D01*
X0207583Y0127930D01*
X0201421Y0134091D01*
X0202942Y0133461D01*
X0213650Y0133461D01*
X0215904Y0134395D01*
X0217630Y0136121D01*
X0218564Y0138375D01*
X0218564Y0140815D01*
X0217630Y0143070D01*
X0215904Y0144795D01*
X0213650Y0145729D01*
X0202942Y0145729D01*
X0200688Y0144795D01*
X0199236Y0143343D01*
X0199236Y0154178D01*
X0198810Y0155207D01*
X0198022Y0155995D01*
X0157717Y0196299D01*
X0157717Y0196299D01*
X0156929Y0197087D01*
X0155900Y0197513D01*
X0151582Y0197513D01*
X0143957Y0205138D01*
X0143957Y0208140D01*
X0143743Y0208355D01*
X0144465Y0208355D01*
X0145754Y0207067D01*
X0145754Y0206185D01*
X0146314Y0204831D01*
X0147351Y0203795D01*
X0148705Y0203234D01*
X0150171Y0203234D01*
X0151525Y0203795D01*
X0152561Y0204831D01*
X0153122Y0206185D01*
X0153122Y0207651D01*
X0152561Y0209005D01*
X0151525Y0210041D01*
X0150171Y0210602D01*
X0149289Y0210602D01*
X0147620Y0212271D01*
X0146917Y0212975D01*
X0145998Y0213355D01*
X0134401Y0213355D01*
X0134717Y0214118D01*
X0134717Y0215097D01*
X0143291Y0215097D01*
X0144210Y0215478D01*
X0148505Y0219772D01*
X0151837Y0219772D01*
X0151837Y0215795D01*
X0152667Y0214964D01*
X0152220Y0214517D01*
X0151659Y0213163D01*
X0151659Y0211697D01*
X0152220Y0210343D01*
X0153256Y0209307D01*
X0154610Y0208746D01*
X0156076Y0208746D01*
X0157430Y0209307D01*
X0157469Y0209346D01*
X0157890Y0208924D01*
X0157701Y0208597D01*
X0157579Y0208139D01*
X0157579Y0205921D01*
X0161163Y0205921D01*
X0161163Y0205553D01*
X0157579Y0205553D01*
X0157579Y0203335D01*
X0157701Y0202877D01*
X0157938Y0202466D01*
X0158274Y0202131D01*
X0158684Y0201894D01*
X0159142Y0201772D01*
X0161163Y0201772D01*
X0161163Y0205553D01*
X0161531Y0205553D01*
X0161531Y0201772D01*
X0163553Y0201772D01*
X0164011Y0201894D01*
X0164421Y0202131D01*
X0164756Y0202466D01*
X0164993Y0202877D01*
X0165116Y0203335D01*
X0165116Y0205553D01*
X0161532Y0205553D01*
X0161532Y0205921D01*
X0165116Y0205921D01*
X0165116Y0208139D01*
X0164993Y0208597D01*
X0164804Y0208924D01*
X0165154Y0209275D01*
X0165154Y0209141D01*
X0165666Y0208629D01*
X0165477Y0208302D01*
X0165354Y0207844D01*
X0165354Y0205626D01*
X0168938Y0205626D01*
X0168938Y0205257D01*
X0165354Y0205257D01*
X0165354Y0203039D01*
X0165477Y0202582D01*
X0165714Y0202171D01*
X0166049Y0201836D01*
X0166460Y0201599D01*
X0166917Y0201476D01*
X0168939Y0201476D01*
X0168939Y0205257D01*
X0169307Y0205257D01*
X0169307Y0205626D01*
X0172891Y0205626D01*
X0172891Y0206409D02*
X0173953Y0206409D01*
X0173953Y0208008D02*
X0172847Y0208008D01*
X0169307Y0204811D02*
X0168939Y0204811D01*
X0168939Y0203212D02*
X0169307Y0203212D01*
X0169307Y0201614D02*
X0168939Y0201614D01*
X0166434Y0201614D02*
X0147481Y0201614D01*
X0145883Y0203212D02*
X0157611Y0203212D01*
X0157579Y0204811D02*
X0152541Y0204811D01*
X0153122Y0206409D02*
X0157579Y0206409D01*
X0157579Y0208008D02*
X0152974Y0208008D01*
X0152956Y0209606D02*
X0151960Y0209606D01*
X0151863Y0211205D02*
X0148686Y0211205D01*
X0147088Y0212803D02*
X0151659Y0212803D01*
X0152172Y0214402D02*
X0134717Y0214402D01*
X0141759Y0220097D02*
X0121192Y0220097D01*
X0118958Y0222331D01*
X0142258Y0222331D01*
X0143177Y0222712D01*
X0150473Y0230009D01*
X0151993Y0230009D01*
X0151837Y0229852D01*
X0151837Y0225795D01*
X0152308Y0225324D01*
X0151837Y0224852D01*
X0151837Y0224772D01*
X0146972Y0224772D01*
X0146053Y0224392D01*
X0145350Y0223689D01*
X0141759Y0220097D01*
X0142457Y0220796D02*
X0120493Y0220796D01*
X0110442Y0216001D02*
X0106150Y0216001D01*
X0106169Y0216019D02*
X0106872Y0216722D01*
X0107240Y0217611D01*
X0107427Y0217648D01*
X0107705Y0217764D01*
X0107984Y0217648D01*
X0108302Y0217585D01*
X0108567Y0217320D01*
X0109123Y0217320D01*
X0117707Y0208736D01*
X0118626Y0208355D01*
X0125192Y0208355D01*
X0124267Y0207430D01*
X0123706Y0206076D01*
X0123706Y0204610D01*
X0124267Y0203256D01*
X0125304Y0202220D01*
X0126658Y0201659D01*
X0128123Y0201659D01*
X0129324Y0202156D01*
X0130105Y0201375D01*
X0136093Y0201375D01*
X0136446Y0201727D01*
X0136798Y0201375D01*
X0139801Y0201375D01*
X0148048Y0193127D01*
X0148836Y0192340D01*
X0149865Y0191913D01*
X0154184Y0191913D01*
X0162406Y0183691D01*
X0156626Y0186386D01*
X0148242Y0188633D01*
X0139595Y0189389D01*
X0130949Y0188633D01*
X0122565Y0186386D01*
X0122565Y0186386D01*
X0115105Y0182908D01*
X0115105Y0203469D01*
X0113979Y0206189D01*
X0106813Y0213355D01*
X0106813Y0213977D01*
X0106026Y0215876D01*
X0106169Y0216019D01*
X0106637Y0214402D02*
X0112040Y0214402D01*
X0113639Y0212803D02*
X0107364Y0212803D01*
X0108963Y0211205D02*
X0115237Y0211205D01*
X0116836Y0209606D02*
X0110561Y0209606D01*
X0112160Y0208008D02*
X0124845Y0208008D01*
X0123844Y0206409D02*
X0113758Y0206409D01*
X0114550Y0204811D02*
X0123706Y0204811D01*
X0124311Y0203212D02*
X0115105Y0203212D01*
X0115105Y0201614D02*
X0129866Y0201614D01*
X0136332Y0201614D02*
X0136559Y0201614D01*
X0141160Y0200015D02*
X0115105Y0200015D01*
X0115105Y0198417D02*
X0142759Y0198417D01*
X0144357Y0196818D02*
X0115105Y0196818D01*
X0115105Y0195220D02*
X0145956Y0195220D01*
X0147554Y0193621D02*
X0115105Y0193621D01*
X0115105Y0192023D02*
X0149601Y0192023D01*
X0148048Y0193127D02*
X0148048Y0193127D01*
X0150422Y0194713D02*
X0155343Y0194713D01*
X0196436Y0153621D01*
X0196436Y0135117D01*
X0209477Y0122076D01*
X0204387Y0118491D02*
X0195800Y0118491D01*
X0196423Y0117868D02*
X0194506Y0119786D01*
X0192157Y0121141D01*
X0189538Y0121843D01*
X0186826Y0121843D01*
X0185939Y0121606D01*
X0186386Y0122565D01*
X0188633Y0130949D01*
X0189389Y0139595D01*
X0189389Y0139595D01*
X0188633Y0148242D01*
X0186386Y0156626D01*
X0183691Y0162406D01*
X0193636Y0152461D01*
X0193636Y0134560D01*
X0194062Y0133531D01*
X0194850Y0132743D01*
X0203623Y0123970D01*
X0203343Y0123296D01*
X0203343Y0120855D01*
X0204277Y0118601D01*
X0206003Y0116876D01*
X0208257Y0115942D01*
X0218965Y0115942D01*
X0221219Y0116876D01*
X0221528Y0117184D01*
X0221528Y0101614D01*
X0222076Y0100290D01*
X0223088Y0099278D01*
X0223088Y0099278D01*
X0232846Y0089520D01*
X0232846Y0084548D01*
X0233394Y0083225D01*
X0235953Y0080666D01*
X0236965Y0079654D01*
X0238289Y0079106D01*
X0241154Y0079106D01*
X0241507Y0078753D01*
X0241507Y0072400D01*
X0241340Y0072566D01*
X0240539Y0073181D01*
X0239664Y0073686D01*
X0238731Y0074073D01*
X0237755Y0074334D01*
X0237049Y0074427D01*
X0237049Y0067561D01*
X0235449Y0067561D01*
X0235449Y0074466D01*
X0223933Y0074466D01*
X0222931Y0074334D01*
X0221956Y0074073D01*
X0221879Y0074041D01*
X0221802Y0074073D01*
X0220826Y0074334D01*
X0219825Y0074466D01*
X0208309Y0074466D01*
X0208309Y0067561D01*
X0206709Y0067561D01*
X0206709Y0074427D01*
X0206002Y0074334D01*
X0205026Y0074073D01*
X0204093Y0073686D01*
X0203219Y0073181D01*
X0202417Y0072566D01*
X0201703Y0071852D01*
X0201088Y0071051D01*
X0200583Y0070176D01*
X0200196Y0069243D01*
X0199935Y0068267D01*
X0199842Y0067561D01*
X0206709Y0067561D01*
X0206709Y0065961D01*
X0208309Y0065961D01*
X0208309Y0067561D01*
X0235449Y0067561D01*
X0235449Y0065961D01*
X0216771Y0065961D01*
X0208309Y0065961D01*
X0208309Y0059055D01*
X0219825Y0059055D01*
X0220826Y0059187D01*
X0221802Y0059448D01*
X0221879Y0059480D01*
X0221956Y0059448D01*
X0222931Y0059187D01*
X0223933Y0059055D01*
X0235449Y0059055D01*
X0235449Y0065961D01*
X0237049Y0065961D01*
X0237049Y0059094D01*
X0237077Y0059098D01*
X0234561Y0056581D01*
X0196205Y0056581D01*
X0191005Y0061781D01*
X0191005Y0067235D01*
X0189833Y0068406D01*
X0181877Y0068406D01*
X0181838Y0068367D01*
X0175980Y0074225D01*
X0174877Y0074682D01*
X0164424Y0074682D01*
X0163258Y0075847D01*
X0157664Y0075847D01*
X0156493Y0074676D01*
X0156493Y0068688D01*
X0156846Y0068335D01*
X0156493Y0067983D01*
X0156493Y0063627D01*
X0155786Y0063334D01*
X0155197Y0062745D01*
X0155197Y0074034D01*
X0159058Y0077894D01*
X0159958Y0078794D01*
X0183511Y0102348D01*
X0184207Y0101947D01*
X0186826Y0101245D01*
X0189538Y0101245D01*
X0192157Y0101947D01*
X0194506Y0103303D01*
X0196423Y0105220D01*
X0197779Y0107569D01*
X0198481Y0110188D01*
X0198481Y0112900D01*
X0197779Y0115519D01*
X0196423Y0117868D01*
X0196986Y0116893D02*
X0205985Y0116893D01*
X0203660Y0120090D02*
X0193979Y0120090D01*
X0190116Y0121688D02*
X0203343Y0121688D01*
X0203343Y0123287D02*
X0186580Y0123287D01*
X0186386Y0122565D02*
X0186386Y0122565D01*
X0186248Y0121688D02*
X0185978Y0121688D01*
X0187008Y0124885D02*
X0202708Y0124885D01*
X0201109Y0126484D02*
X0187437Y0126484D01*
X0187865Y0128082D02*
X0199511Y0128082D01*
X0197912Y0129681D02*
X0188293Y0129681D01*
X0188633Y0130949D02*
X0188633Y0130949D01*
X0188662Y0131279D02*
X0196314Y0131279D01*
X0194715Y0132878D02*
X0188802Y0132878D01*
X0188942Y0134476D02*
X0193670Y0134476D01*
X0193636Y0136075D02*
X0189081Y0136075D01*
X0189221Y0137673D02*
X0193636Y0137673D01*
X0193636Y0139272D02*
X0189361Y0139272D01*
X0189278Y0140870D02*
X0193636Y0140870D01*
X0193636Y0142469D02*
X0189138Y0142469D01*
X0188998Y0144068D02*
X0193636Y0144068D01*
X0193636Y0145666D02*
X0188858Y0145666D01*
X0188718Y0147265D02*
X0193636Y0147265D01*
X0193636Y0148863D02*
X0188466Y0148863D01*
X0188633Y0148242D02*
X0188633Y0148242D01*
X0188038Y0150462D02*
X0193636Y0150462D01*
X0193636Y0152060D02*
X0187610Y0152060D01*
X0187181Y0153659D02*
X0192438Y0153659D01*
X0190840Y0155257D02*
X0186753Y0155257D01*
X0186386Y0156626D02*
X0186386Y0156626D01*
X0186279Y0156856D02*
X0189241Y0156856D01*
X0187643Y0158454D02*
X0185534Y0158454D01*
X0186044Y0160053D02*
X0184788Y0160053D01*
X0184446Y0161651D02*
X0184043Y0161651D01*
X0187570Y0166447D02*
X0192467Y0166447D01*
X0190868Y0168045D02*
X0185971Y0168045D01*
X0184373Y0169644D02*
X0189270Y0169644D01*
X0187671Y0171242D02*
X0182774Y0171242D01*
X0181176Y0172841D02*
X0186073Y0172841D01*
X0184474Y0174439D02*
X0179577Y0174439D01*
X0177979Y0176038D02*
X0182876Y0176038D01*
X0181277Y0177636D02*
X0176380Y0177636D01*
X0174782Y0179235D02*
X0179679Y0179235D01*
X0178080Y0180833D02*
X0173183Y0180833D01*
X0171585Y0182432D02*
X0176482Y0182432D01*
X0174883Y0184030D02*
X0169986Y0184030D01*
X0168388Y0185629D02*
X0173997Y0185629D01*
X0173953Y0187227D02*
X0166789Y0187227D01*
X0165191Y0188826D02*
X0173953Y0188826D01*
X0173953Y0190424D02*
X0163592Y0190424D01*
X0161994Y0192023D02*
X0173953Y0192023D01*
X0173953Y0193621D02*
X0160395Y0193621D01*
X0158797Y0195220D02*
X0173953Y0195220D01*
X0173953Y0196818D02*
X0157198Y0196818D01*
X0155673Y0190424D02*
X0115105Y0190424D01*
X0115105Y0188826D02*
X0133154Y0188826D01*
X0125703Y0187227D02*
X0115105Y0187227D01*
X0115105Y0185629D02*
X0120940Y0185629D01*
X0117512Y0184030D02*
X0115105Y0184030D01*
X0092452Y0178901D02*
X0090861Y0177310D01*
X0073103Y0177310D01*
X0072158Y0178255D01*
X0071014Y0178729D01*
X0070967Y0178905D01*
X0070730Y0179315D01*
X0068744Y0181301D01*
X0066210Y0178767D01*
X0065949Y0179027D01*
X0065689Y0178767D01*
X0062598Y0181858D01*
X0061168Y0180429D01*
X0060931Y0180018D01*
X0060809Y0179561D01*
X0060809Y0179087D01*
X0060931Y0178629D01*
X0061114Y0178313D01*
X0060798Y0178495D01*
X0060340Y0178618D01*
X0059866Y0178618D01*
X0059408Y0178495D01*
X0058998Y0178258D01*
X0057569Y0176829D01*
X0060660Y0173738D01*
X0063154Y0176232D01*
X0065689Y0178767D01*
X0065949Y0178506D01*
X0065777Y0178334D01*
X0065587Y0178255D01*
X0061172Y0173840D01*
X0061093Y0173650D01*
X0060921Y0173477D01*
X0060660Y0173738D01*
X0060399Y0173477D01*
X0060660Y0173217D01*
X0058126Y0170682D01*
X0058887Y0169921D01*
X0048323Y0159356D01*
X0044879Y0160783D01*
X0044879Y0160783D01*
X0039202Y0161530D01*
X0033524Y0160783D01*
X0028234Y0158592D01*
X0023691Y0155106D01*
X0020205Y0150563D01*
X0020205Y0150563D01*
X0019180Y0148086D01*
X0019180Y0183577D01*
X0040491Y0204888D01*
X0041369Y0204524D01*
X0056325Y0204524D01*
X0057312Y0204933D01*
X0058298Y0204524D01*
X0073254Y0204524D01*
X0076160Y0205728D01*
X0078384Y0207952D01*
X0079587Y0210857D01*
X0079587Y0214002D01*
X0078384Y0216908D01*
X0076160Y0219132D01*
X0073254Y0220335D01*
X0058298Y0220335D01*
X0057312Y0219927D01*
X0056325Y0220335D01*
X0041369Y0220335D01*
X0038464Y0219132D01*
X0036240Y0216908D01*
X0035036Y0214002D01*
X0035036Y0210857D01*
X0035400Y0209979D01*
X0013849Y0188429D01*
X0014860Y0191140D01*
X0020430Y0203207D01*
X0027187Y0214651D01*
X0035061Y0225358D01*
X0043973Y0235217D01*
X0053833Y0244130D01*
X0064539Y0252004D01*
X0075984Y0258761D01*
X0088051Y0264331D01*
X0091532Y0265628D01*
X0091532Y0261328D01*
X0088618Y0258413D01*
X0088301Y0258096D01*
X0087883Y0257087D01*
X0087883Y0257038D01*
X0087883Y0257038D01*
X0087883Y0246578D01*
X0088263Y0245659D01*
X0090784Y0243139D01*
X0089444Y0241799D01*
X0089064Y0240880D01*
X0089064Y0233586D01*
X0089444Y0232667D01*
X0094102Y0228009D01*
X0092831Y0228009D01*
X0092831Y0224130D01*
X0097104Y0224130D01*
X0097104Y0226269D01*
X0099250Y0226269D01*
X0099437Y0225816D01*
X0099249Y0225361D01*
X0099249Y0224302D01*
X0099437Y0223847D01*
X0099249Y0223393D01*
X0099249Y0222333D01*
X0099587Y0221517D01*
X0097104Y0221517D01*
X0097104Y0223171D01*
X0092831Y0223171D01*
X0092831Y0224130D01*
X0091872Y0224130D01*
X0091872Y0228009D01*
X0089161Y0228009D01*
X0088704Y0227887D01*
X0088293Y0227650D01*
X0087958Y0227315D01*
X0087721Y0226904D01*
X0087598Y0226446D01*
X0087598Y0224130D01*
X0091872Y0224130D01*
X0091872Y0223171D01*
X0087598Y0223171D01*
X0087598Y0220854D01*
X0087664Y0220610D01*
X0087398Y0220345D01*
X0087398Y0213570D01*
X0088570Y0212398D01*
X0091276Y0212398D01*
X0091276Y0207339D01*
X0091447Y0206926D01*
X0088419Y0207737D01*
X0084472Y0207737D01*
X0080659Y0206715D01*
X0077240Y0204742D01*
X0074449Y0201950D01*
X0072475Y0198532D01*
X0071454Y0194719D01*
X0071454Y0190771D01*
X0072475Y0186958D01*
X0074449Y0183539D01*
X0077240Y0180748D01*
X0080659Y0178774D01*
X0084472Y0177753D01*
X0088419Y0177753D01*
X0092232Y0178774D01*
X0092452Y0178901D01*
X0091187Y0177636D02*
X0072777Y0177636D01*
X0070777Y0179235D02*
X0079862Y0179235D01*
X0077155Y0180833D02*
X0069212Y0180833D01*
X0068276Y0180833D02*
X0067755Y0180833D01*
X0068484Y0181562D02*
X0065949Y0179027D01*
X0062858Y0182119D01*
X0064287Y0183548D01*
X0064698Y0183785D01*
X0065156Y0183907D01*
X0065630Y0183907D01*
X0066087Y0183785D01*
X0066498Y0183548D01*
X0068484Y0181562D01*
X0067614Y0182432D02*
X0075557Y0182432D01*
X0074166Y0184030D02*
X0019633Y0184030D01*
X0019180Y0182432D02*
X0063171Y0182432D01*
X0063622Y0180833D02*
X0064143Y0180833D01*
X0065221Y0179235D02*
X0065742Y0179235D01*
X0066157Y0179235D02*
X0066678Y0179235D01*
X0064968Y0177636D02*
X0064558Y0177636D01*
X0063370Y0176038D02*
X0062960Y0176038D01*
X0061771Y0174439D02*
X0061361Y0174439D01*
X0060399Y0173477D02*
X0057308Y0176569D01*
X0055879Y0175139D01*
X0055642Y0174729D01*
X0055519Y0174271D01*
X0055519Y0173797D01*
X0055642Y0173339D01*
X0055879Y0172929D01*
X0057865Y0170943D01*
X0060399Y0173477D01*
X0060284Y0172841D02*
X0059763Y0172841D01*
X0059959Y0174439D02*
X0059438Y0174439D01*
X0058360Y0176038D02*
X0057839Y0176038D01*
X0056777Y0176038D02*
X0019180Y0176038D01*
X0019180Y0177636D02*
X0058376Y0177636D01*
X0060809Y0179235D02*
X0019180Y0179235D01*
X0019180Y0180833D02*
X0061573Y0180833D01*
X0055564Y0174439D02*
X0019180Y0174439D01*
X0019180Y0172841D02*
X0055967Y0172841D01*
X0057566Y0171242D02*
X0019180Y0171242D01*
X0019180Y0169644D02*
X0058610Y0169644D01*
X0058685Y0171242D02*
X0058164Y0171242D01*
X0057012Y0168045D02*
X0019180Y0168045D01*
X0019180Y0166447D02*
X0055413Y0166447D01*
X0053815Y0164848D02*
X0019180Y0164848D01*
X0019180Y0163250D02*
X0052216Y0163250D01*
X0050618Y0161651D02*
X0019180Y0161651D01*
X0019180Y0160053D02*
X0031761Y0160053D01*
X0033524Y0160783D02*
X0033524Y0160783D01*
X0028234Y0158592D02*
X0028234Y0158592D01*
X0028055Y0158454D02*
X0019180Y0158454D01*
X0019180Y0156856D02*
X0025972Y0156856D01*
X0023888Y0155257D02*
X0019180Y0155257D01*
X0019180Y0153659D02*
X0022581Y0153659D01*
X0023691Y0155106D02*
X0023691Y0155106D01*
X0023691Y0155106D01*
X0021354Y0152060D02*
X0019180Y0152060D01*
X0019180Y0150462D02*
X0020163Y0150462D01*
X0019501Y0148863D02*
X0019180Y0148863D01*
X0039202Y0161530D02*
X0039202Y0161530D01*
X0046642Y0160053D02*
X0049019Y0160053D01*
X0060358Y0150462D02*
X0074003Y0150462D01*
X0074003Y0152060D02*
X0061957Y0152060D01*
X0063555Y0153659D02*
X0073263Y0153659D01*
X0072722Y0155257D02*
X0065154Y0155257D01*
X0066752Y0156856D02*
X0072866Y0156856D01*
X0073832Y0158454D02*
X0068351Y0158454D01*
X0069949Y0160053D02*
X0094402Y0160053D01*
X0095147Y0161651D02*
X0073057Y0161651D01*
X0079375Y0158454D02*
X0093657Y0158454D01*
X0092911Y0156856D02*
X0080341Y0156856D01*
X0080484Y0155257D02*
X0092437Y0155257D01*
X0092009Y0153659D02*
X0079943Y0153659D01*
X0079203Y0152060D02*
X0091581Y0152060D01*
X0091152Y0150462D02*
X0079203Y0150462D01*
X0079203Y0148863D02*
X0090724Y0148863D01*
X0090558Y0148242D02*
X0090558Y0148242D01*
X0090472Y0147265D02*
X0079203Y0147265D01*
X0079203Y0145666D02*
X0090332Y0145666D01*
X0090192Y0144068D02*
X0079203Y0144068D01*
X0079203Y0142469D02*
X0090053Y0142469D01*
X0089913Y0140870D02*
X0079203Y0140870D01*
X0079203Y0139272D02*
X0089829Y0139272D01*
X0089801Y0139595D02*
X0089801Y0139595D01*
X0089969Y0137673D02*
X0079203Y0137673D01*
X0079203Y0136075D02*
X0090109Y0136075D01*
X0090249Y0134476D02*
X0079203Y0134476D01*
X0079203Y0132878D02*
X0090389Y0132878D01*
X0090529Y0131279D02*
X0079203Y0131279D01*
X0079203Y0129681D02*
X0090897Y0129681D01*
X0090558Y0130949D02*
X0090558Y0130949D01*
X0091326Y0128082D02*
X0079203Y0128082D01*
X0079203Y0126484D02*
X0091754Y0126484D01*
X0092182Y0124885D02*
X0079203Y0124885D01*
X0079203Y0123287D02*
X0092611Y0123287D01*
X0092943Y0121688D02*
X0093213Y0121688D01*
X0089074Y0121688D02*
X0079203Y0121688D01*
X0079203Y0120090D02*
X0085212Y0120090D01*
X0083391Y0118491D02*
X0079203Y0118491D01*
X0079203Y0116893D02*
X0082204Y0116893D01*
X0081351Y0115294D02*
X0079203Y0115294D01*
X0079203Y0113696D02*
X0080923Y0113696D01*
X0080709Y0112097D02*
X0079203Y0112097D01*
X0079203Y0110499D02*
X0080709Y0110499D01*
X0081055Y0108900D02*
X0079479Y0108900D01*
X0081078Y0107302D02*
X0081565Y0107302D01*
X0076921Y0104105D02*
X0019180Y0104105D01*
X0019180Y0105703D02*
X0075322Y0105703D01*
X0074119Y0107302D02*
X0019180Y0107302D01*
X0019180Y0108900D02*
X0074003Y0108900D01*
X0074003Y0110499D02*
X0019180Y0110499D01*
X0019180Y0112097D02*
X0074003Y0112097D01*
X0074003Y0113696D02*
X0019180Y0113696D01*
X0019180Y0115294D02*
X0074003Y0115294D01*
X0074003Y0116893D02*
X0019180Y0116893D01*
X0019180Y0118491D02*
X0033322Y0118491D01*
X0029463Y0120090D02*
X0019180Y0120090D01*
X0019180Y0121688D02*
X0026814Y0121688D01*
X0028234Y0120599D02*
X0028234Y0120599D01*
X0024731Y0123287D02*
X0019180Y0123287D01*
X0019180Y0124885D02*
X0023077Y0124885D01*
X0021850Y0126484D02*
X0019180Y0126484D01*
X0019180Y0128082D02*
X0020624Y0128082D01*
X0019769Y0129681D02*
X0019180Y0129681D01*
X0039202Y0117660D02*
X0039202Y0117660D01*
X0044879Y0118408D02*
X0044879Y0118408D01*
X0045081Y0118491D02*
X0074003Y0118491D01*
X0074003Y0120090D02*
X0048940Y0120090D01*
X0051589Y0121688D02*
X0074003Y0121688D01*
X0074003Y0123287D02*
X0053672Y0123287D01*
X0054712Y0124085D02*
X0054712Y0124085D01*
X0055326Y0124885D02*
X0074003Y0124885D01*
X0074003Y0126484D02*
X0056553Y0126484D01*
X0057779Y0128082D02*
X0074003Y0128082D01*
X0074003Y0129681D02*
X0058634Y0129681D01*
X0058198Y0128628D02*
X0058198Y0128628D01*
X0059296Y0131279D02*
X0074003Y0131279D01*
X0074003Y0132878D02*
X0059958Y0132878D01*
X0060463Y0134476D02*
X0074003Y0134476D01*
X0074003Y0136075D02*
X0060673Y0136075D01*
X0060884Y0137673D02*
X0074003Y0137673D01*
X0074003Y0139272D02*
X0061094Y0139272D01*
X0060969Y0140870D02*
X0074003Y0140870D01*
X0074003Y0142469D02*
X0060758Y0142469D01*
X0060548Y0144068D02*
X0074003Y0144068D01*
X0074003Y0145666D02*
X0060226Y0145666D01*
X0059564Y0147265D02*
X0074003Y0147265D01*
X0074003Y0148863D02*
X0058902Y0148863D01*
X0073243Y0185629D02*
X0021232Y0185629D01*
X0022830Y0187227D02*
X0072403Y0187227D01*
X0071975Y0188826D02*
X0024429Y0188826D01*
X0026027Y0190424D02*
X0071546Y0190424D01*
X0071454Y0192023D02*
X0027626Y0192023D01*
X0029224Y0193621D02*
X0071454Y0193621D01*
X0071588Y0195220D02*
X0030823Y0195220D01*
X0032421Y0196818D02*
X0072016Y0196818D01*
X0072445Y0198417D02*
X0034020Y0198417D01*
X0035618Y0200015D02*
X0073332Y0200015D01*
X0074255Y0201614D02*
X0037217Y0201614D01*
X0038815Y0203212D02*
X0075711Y0203212D01*
X0077360Y0204811D02*
X0073946Y0204811D01*
X0076841Y0206409D02*
X0080129Y0206409D01*
X0078407Y0208008D02*
X0091276Y0208008D01*
X0091276Y0209606D02*
X0079069Y0209606D01*
X0079587Y0211205D02*
X0091276Y0211205D01*
X0088165Y0212803D02*
X0079587Y0212803D01*
X0079422Y0214402D02*
X0087398Y0214402D01*
X0087398Y0216001D02*
X0078760Y0216001D01*
X0077693Y0217599D02*
X0087398Y0217599D01*
X0087398Y0219198D02*
X0076001Y0219198D01*
X0087614Y0220796D02*
X0031706Y0220796D01*
X0032881Y0222395D02*
X0087598Y0222395D01*
X0087598Y0225592D02*
X0035272Y0225592D01*
X0034057Y0223993D02*
X0091872Y0223993D01*
X0092831Y0223993D02*
X0099377Y0223993D01*
X0099344Y0225592D02*
X0097104Y0225592D01*
X0097104Y0222395D02*
X0099249Y0222395D01*
X0092831Y0225592D02*
X0091872Y0225592D01*
X0091872Y0227190D02*
X0092831Y0227190D01*
X0093323Y0228789D02*
X0038162Y0228789D01*
X0039607Y0230387D02*
X0091725Y0230387D01*
X0090126Y0231986D02*
X0041052Y0231986D01*
X0042497Y0233584D02*
X0089065Y0233584D01*
X0089064Y0235183D02*
X0043942Y0235183D01*
X0045703Y0236781D02*
X0089064Y0236781D01*
X0089064Y0238380D02*
X0047471Y0238380D01*
X0049240Y0239978D02*
X0070561Y0239978D01*
X0070549Y0240000D02*
X0070624Y0239869D01*
X0070805Y0239821D01*
X0070958Y0239714D01*
X0071107Y0239740D01*
X0071335Y0239679D01*
X0071548Y0239579D01*
X0071645Y0239463D01*
X0071831Y0239447D01*
X0072001Y0239368D01*
X0072143Y0239420D01*
X0072378Y0239399D01*
X0072605Y0239338D01*
X0072721Y0239241D01*
X0072907Y0239257D01*
X0073088Y0239209D01*
X0073219Y0239285D01*
X0073454Y0239305D01*
X0073688Y0239285D01*
X0073819Y0239209D01*
X0074000Y0239257D01*
X0074186Y0239241D01*
X0074302Y0239338D01*
X0074529Y0239399D01*
X0074764Y0239420D01*
X0074906Y0239368D01*
X0075076Y0239447D01*
X0075262Y0239463D01*
X0075359Y0239579D01*
X0075573Y0239679D01*
X0075800Y0239740D01*
X0075949Y0239714D01*
X0076102Y0239821D01*
X0076283Y0239869D01*
X0076358Y0240000D01*
X0076551Y0240135D01*
X0076765Y0240235D01*
X0076916Y0240235D01*
X0077048Y0240367D01*
X0077218Y0240446D01*
X0077269Y0240588D01*
X0077436Y0240755D01*
X0077629Y0240890D01*
X0077778Y0240916D01*
X0077885Y0241069D01*
X0078038Y0241176D01*
X0078064Y0241325D01*
X0078200Y0241518D01*
X0078366Y0241685D01*
X0078508Y0241737D01*
X0078587Y0241906D01*
X0078719Y0242038D01*
X0078719Y0242189D01*
X0078819Y0242403D01*
X0078954Y0242596D01*
X0079085Y0242672D01*
X0079134Y0242852D01*
X0079241Y0243005D01*
X0079214Y0243154D01*
X0079276Y0243382D01*
X0079375Y0243595D01*
X0079491Y0243693D01*
X0079507Y0243879D01*
X0079586Y0244048D01*
X0079534Y0244190D01*
X0079555Y0244425D01*
X0079616Y0244653D01*
X0079713Y0244768D01*
X0079697Y0244955D01*
X0079745Y0245135D01*
X0079670Y0245266D01*
X0079649Y0245501D01*
X0079670Y0245736D01*
X0079745Y0245867D01*
X0079697Y0246047D01*
X0079713Y0246233D01*
X0079616Y0246349D01*
X0079555Y0246577D01*
X0079534Y0246811D01*
X0079586Y0246954D01*
X0079507Y0247123D01*
X0079491Y0247309D01*
X0079375Y0247406D01*
X0079276Y0247620D01*
X0079214Y0247848D01*
X0079241Y0247996D01*
X0079134Y0248149D01*
X0079085Y0248330D01*
X0078954Y0248405D01*
X0078819Y0248599D01*
X0078719Y0248812D01*
X0078719Y0248963D01*
X0078587Y0249096D01*
X0078508Y0249265D01*
X0078366Y0249317D01*
X0078200Y0249483D01*
X0078064Y0249676D01*
X0078038Y0249825D01*
X0077885Y0249932D01*
X0077778Y0250085D01*
X0077629Y0250112D01*
X0077436Y0250247D01*
X0077269Y0250414D01*
X0077218Y0250556D01*
X0077048Y0250635D01*
X0076916Y0250767D01*
X0076765Y0250767D01*
X0076551Y0250866D01*
X0076358Y0251002D01*
X0076283Y0251132D01*
X0076102Y0251181D01*
X0075949Y0251288D01*
X0075800Y0251262D01*
X0075573Y0251323D01*
X0075359Y0251422D01*
X0075262Y0251538D01*
X0075076Y0251554D01*
X0074906Y0251633D01*
X0074764Y0251582D01*
X0074529Y0251602D01*
X0074302Y0251663D01*
X0074186Y0251760D01*
X0074000Y0251744D01*
X0073819Y0251793D01*
X0073688Y0251717D01*
X0073454Y0251696D01*
X0073219Y0251717D01*
X0073088Y0251793D01*
X0072907Y0251744D01*
X0072721Y0251760D01*
X0072605Y0251663D01*
X0072378Y0251602D01*
X0072143Y0251582D01*
X0072001Y0251633D01*
X0071831Y0251554D01*
X0071645Y0251538D01*
X0071548Y0251422D01*
X0071335Y0251323D01*
X0071107Y0251262D01*
X0070958Y0251288D01*
X0070805Y0251181D01*
X0070624Y0251132D01*
X0070549Y0251002D01*
X0070356Y0250866D01*
X0070142Y0250767D01*
X0069991Y0250767D01*
X0069859Y0250635D01*
X0069689Y0250556D01*
X0069638Y0250414D01*
X0069471Y0250247D01*
X0069278Y0250112D01*
X0069129Y0250085D01*
X0069022Y0249932D01*
X0068869Y0249825D01*
X0068843Y0249676D01*
X0068707Y0249483D01*
X0068541Y0249317D01*
X0068399Y0249265D01*
X0068320Y0249096D01*
X0068188Y0248963D01*
X0068188Y0248812D01*
X0068088Y0248599D01*
X0067953Y0248405D01*
X0067822Y0248330D01*
X0067773Y0248149D01*
X0067666Y0247996D01*
X0067693Y0247848D01*
X0067632Y0247620D01*
X0067532Y0247406D01*
X0067416Y0247309D01*
X0067400Y0247123D01*
X0067321Y0246954D01*
X0067373Y0246811D01*
X0067352Y0246577D01*
X0067291Y0246349D01*
X0067194Y0246233D01*
X0067210Y0246047D01*
X0067162Y0245867D01*
X0067237Y0245736D01*
X0067258Y0245501D01*
X0067237Y0245266D01*
X0067162Y0245135D01*
X0067210Y0244955D01*
X0067194Y0244768D01*
X0067291Y0244653D01*
X0067352Y0244425D01*
X0067373Y0244190D01*
X0067321Y0244048D01*
X0067400Y0243879D01*
X0067416Y0243693D01*
X0067532Y0243595D01*
X0067632Y0243382D01*
X0067693Y0243154D01*
X0067666Y0243005D01*
X0067773Y0242852D01*
X0067822Y0242672D01*
X0067953Y0242596D01*
X0068088Y0242403D01*
X0068188Y0242189D01*
X0068188Y0242038D01*
X0068320Y0241906D01*
X0068399Y0241737D01*
X0068541Y0241685D01*
X0068707Y0241518D01*
X0068843Y0241325D01*
X0068869Y0241176D01*
X0069022Y0241069D01*
X0069129Y0240916D01*
X0069278Y0240890D01*
X0069471Y0240755D01*
X0069638Y0240588D01*
X0069689Y0240446D01*
X0069859Y0240367D01*
X0069991Y0240235D01*
X0070142Y0240235D01*
X0070356Y0240135D01*
X0070549Y0240000D01*
X0068649Y0241577D02*
X0051008Y0241577D01*
X0052777Y0243175D02*
X0067687Y0243175D01*
X0067194Y0244774D02*
X0054708Y0244774D01*
X0056882Y0246372D02*
X0067297Y0246372D01*
X0067671Y0247971D02*
X0059055Y0247971D01*
X0061229Y0249569D02*
X0068768Y0249569D01*
X0070756Y0251168D02*
X0063402Y0251168D01*
X0065830Y0252766D02*
X0087883Y0252766D01*
X0087883Y0251168D02*
X0076151Y0251168D01*
X0078139Y0249569D02*
X0087883Y0249569D01*
X0087883Y0247971D02*
X0079236Y0247971D01*
X0079610Y0246372D02*
X0087968Y0246372D01*
X0089149Y0244774D02*
X0079713Y0244774D01*
X0079220Y0243175D02*
X0090748Y0243175D01*
X0089352Y0241577D02*
X0078258Y0241577D01*
X0076346Y0239978D02*
X0089064Y0239978D01*
X0100650Y0246513D02*
X0100650Y0250776D01*
X0103111Y0253237D01*
X0113186Y0253237D01*
X0113186Y0246513D01*
X0112811Y0246513D01*
X0112811Y0242929D01*
X0112442Y0242929D01*
X0112442Y0242561D01*
X0109402Y0242561D01*
X0108380Y0242984D01*
X0107031Y0242984D01*
X0106009Y0242561D01*
X0102575Y0242561D01*
X0102575Y0242929D01*
X0106356Y0242929D01*
X0106356Y0244950D01*
X0106233Y0245408D01*
X0105996Y0245819D01*
X0105661Y0246154D01*
X0105251Y0246391D01*
X0104793Y0246513D01*
X0102575Y0246513D01*
X0102575Y0242929D01*
X0102206Y0242929D01*
X0102206Y0246513D01*
X0100650Y0246513D01*
X0100650Y0247971D02*
X0113186Y0247971D01*
X0113186Y0249569D02*
X0100650Y0249569D01*
X0101042Y0251168D02*
X0113186Y0251168D01*
X0113186Y0252766D02*
X0102640Y0252766D01*
X0100650Y0257831D02*
X0100650Y0266494D01*
X0113186Y0266494D01*
X0113186Y0258237D01*
X0101680Y0258237D01*
X0101631Y0258237D01*
X0100650Y0257831D01*
X0101631Y0258237D02*
X0101631Y0258237D01*
X0101680Y0258237D02*
X0101680Y0258237D01*
X0100650Y0259160D02*
X0113186Y0259160D01*
X0113186Y0260759D02*
X0100650Y0260759D01*
X0100650Y0262357D02*
X0113186Y0262357D01*
X0113186Y0263956D02*
X0100650Y0263956D01*
X0100650Y0265554D02*
X0113186Y0265554D01*
X0122304Y0265554D02*
X0126634Y0265554D01*
X0127317Y0266237D02*
X0124095Y0263015D01*
X0124095Y0260937D01*
X0129395Y0260937D01*
X0129395Y0260537D01*
X0124095Y0260537D01*
X0124095Y0258459D01*
X0126676Y0255878D01*
X0125956Y0255158D01*
X0125929Y0255222D01*
X0125929Y0255222D01*
X0125543Y0255608D01*
X0125378Y0255774D01*
X0123998Y0257153D01*
X0123998Y0257153D01*
X0123295Y0257856D01*
X0122376Y0258237D01*
X0122304Y0258237D01*
X0122304Y0266494D01*
X0185335Y0266494D01*
X0185358Y0266486D01*
X0185149Y0266422D01*
X0181968Y0260440D01*
X0182453Y0258856D01*
X0189061Y0255342D01*
X0189061Y0254217D01*
X0189622Y0252863D01*
X0190658Y0251826D01*
X0192012Y0251265D01*
X0193478Y0251265D01*
X0194832Y0251826D01*
X0195868Y0252863D01*
X0196400Y0254148D01*
X0210059Y0246602D01*
X0209604Y0245746D01*
X0210088Y0244162D01*
X0217113Y0240427D01*
X0218698Y0240911D01*
X0221800Y0246746D01*
X0225358Y0244130D01*
X0235217Y0235217D01*
X0244130Y0225358D01*
X0248918Y0218847D01*
X0241405Y0226360D01*
X0240486Y0226741D01*
X0210937Y0226741D01*
X0211569Y0227930D01*
X0207622Y0230028D01*
X0208072Y0230875D01*
X0212019Y0228777D01*
X0213107Y0230822D01*
X0213213Y0231284D01*
X0213197Y0231757D01*
X0213058Y0232211D01*
X0212807Y0232612D01*
X0212460Y0232936D01*
X0209893Y0234300D01*
X0208072Y0230875D01*
X0207225Y0231325D01*
X0206775Y0230479D01*
X0202828Y0232577D01*
X0201741Y0230532D01*
X0201634Y0230070D01*
X0201651Y0229596D01*
X0201789Y0229143D01*
X0202040Y0228741D01*
X0202387Y0228418D01*
X0204954Y0227053D01*
X0206775Y0230478D01*
X0207622Y0230028D01*
X0205874Y0226741D01*
X0201654Y0226741D01*
X0199156Y0229240D01*
X0198452Y0229943D01*
X0197534Y0230324D01*
X0197006Y0230324D01*
X0196633Y0230697D01*
X0195387Y0231213D01*
X0194039Y0231213D01*
X0192794Y0230697D01*
X0192421Y0230324D01*
X0190565Y0230324D01*
X0190424Y0230465D01*
X0190477Y0230518D01*
X0190714Y0230929D01*
X0190837Y0231387D01*
X0190837Y0232824D01*
X0190837Y0234261D01*
X0190714Y0234718D01*
X0190477Y0235129D01*
X0190142Y0235464D01*
X0189731Y0235701D01*
X0189274Y0235824D01*
X0184687Y0235824D01*
X0184687Y0232824D01*
X0184687Y0232824D01*
X0190837Y0232824D01*
X0184687Y0232824D01*
X0184687Y0232824D01*
X0184687Y0235824D01*
X0180100Y0235824D01*
X0179642Y0235701D01*
X0179231Y0235464D01*
X0178896Y0235129D01*
X0178659Y0234718D01*
X0178537Y0234261D01*
X0178537Y0232824D01*
X0184686Y0232824D01*
X0184686Y0232824D01*
X0178537Y0232824D01*
X0178537Y0231387D01*
X0178659Y0230929D01*
X0178896Y0230518D01*
X0178950Y0230465D01*
X0178337Y0229852D01*
X0178337Y0227674D01*
X0177730Y0227925D01*
X0176264Y0227925D01*
X0174910Y0227364D01*
X0173873Y0226328D01*
X0173313Y0224974D01*
X0173313Y0223508D01*
X0173400Y0223296D01*
X0170357Y0223296D01*
X0169733Y0223919D01*
X0169626Y0223964D01*
X0171228Y0225566D01*
X0171931Y0226270D01*
X0172312Y0227189D01*
X0172312Y0231136D01*
X0171931Y0232055D01*
X0168178Y0235808D01*
X0168178Y0240351D01*
X0169376Y0239153D01*
X0169376Y0238272D01*
X0169936Y0236918D01*
X0170973Y0235881D01*
X0172327Y0235320D01*
X0173793Y0235320D01*
X0175147Y0235881D01*
X0176183Y0236918D01*
X0176744Y0238272D01*
X0176744Y0239738D01*
X0176183Y0241092D01*
X0175147Y0242128D01*
X0173793Y0242689D01*
X0172911Y0242689D01*
X0165463Y0250137D01*
X0167087Y0251761D01*
X0178716Y0251761D01*
X0179339Y0251137D01*
X0180693Y0250576D01*
X0182159Y0250576D01*
X0183513Y0251137D01*
X0184549Y0252174D01*
X0185110Y0253528D01*
X0185110Y0254993D01*
X0184549Y0256348D01*
X0183513Y0257384D01*
X0182159Y0257945D01*
X0180693Y0257945D01*
X0179339Y0257384D01*
X0178716Y0256761D01*
X0165657Y0256761D01*
X0165657Y0256761D01*
X0165608Y0256761D01*
X0164598Y0256343D01*
X0164229Y0255973D01*
X0160705Y0252450D01*
X0155295Y0252450D01*
X0155295Y0255265D01*
X0154124Y0256437D01*
X0153356Y0256437D01*
X0155295Y0258376D01*
X0155295Y0263098D01*
X0151956Y0266437D01*
X0147234Y0266437D01*
X0144595Y0263798D01*
X0141956Y0266437D01*
X0137234Y0266437D01*
X0134454Y0263657D01*
X0131873Y0266237D01*
X0129795Y0266237D01*
X0129795Y0260937D01*
X0129395Y0260937D01*
X0129395Y0266237D01*
X0127317Y0266237D01*
X0129395Y0265554D02*
X0129795Y0265554D01*
X0129795Y0263956D02*
X0129395Y0263956D01*
X0129395Y0262357D02*
X0129795Y0262357D01*
X0129395Y0260759D02*
X0122304Y0260759D01*
X0122304Y0262357D02*
X0124095Y0262357D01*
X0125036Y0263956D02*
X0122304Y0263956D01*
X0122304Y0259160D02*
X0124095Y0259160D01*
X0123589Y0257562D02*
X0124992Y0257562D01*
X0125188Y0255963D02*
X0126591Y0255963D01*
X0134155Y0263956D02*
X0134753Y0263956D01*
X0136352Y0265554D02*
X0132556Y0265554D01*
X0142839Y0265554D02*
X0146352Y0265554D01*
X0144753Y0263956D02*
X0144437Y0263956D01*
X0152839Y0265554D02*
X0184688Y0265554D01*
X0183838Y0263956D02*
X0154437Y0263956D01*
X0155295Y0262357D02*
X0182988Y0262357D01*
X0182138Y0260759D02*
X0155295Y0260759D01*
X0155295Y0259160D02*
X0182360Y0259160D01*
X0183084Y0257562D02*
X0184887Y0257562D01*
X0184709Y0255963D02*
X0187893Y0255963D01*
X0189061Y0254365D02*
X0185110Y0254365D01*
X0184795Y0252766D02*
X0189718Y0252766D01*
X0195772Y0252766D02*
X0198901Y0252766D01*
X0201795Y0251168D02*
X0183543Y0251168D01*
X0182258Y0248995D02*
X0180437Y0245569D01*
X0184383Y0243471D01*
X0185471Y0245516D01*
X0185578Y0245978D01*
X0185561Y0246451D01*
X0185422Y0246905D01*
X0185171Y0247307D01*
X0184825Y0247630D01*
X0182258Y0248995D01*
X0181411Y0249445D02*
X0179590Y0246020D01*
X0180437Y0245569D01*
X0179986Y0244722D01*
X0178165Y0241297D01*
X0180732Y0239932D01*
X0181194Y0239826D01*
X0181667Y0239842D01*
X0182120Y0239981D01*
X0182522Y0240232D01*
X0182846Y0240578D01*
X0183933Y0242624D01*
X0179986Y0244722D01*
X0179139Y0245173D01*
X0175193Y0247271D01*
X0174105Y0245226D01*
X0173999Y0244764D01*
X0174015Y0244290D01*
X0174154Y0243837D01*
X0174405Y0243435D01*
X0174751Y0243112D01*
X0177318Y0241747D01*
X0179139Y0245173D01*
X0179590Y0246019D01*
X0175643Y0248118D01*
X0176730Y0250163D01*
X0177054Y0250510D01*
X0177456Y0250761D01*
X0177909Y0250900D01*
X0178383Y0250916D01*
X0178844Y0250810D01*
X0181411Y0249445D01*
X0181177Y0249569D02*
X0204688Y0249569D01*
X0207582Y0247971D02*
X0184184Y0247971D01*
X0185564Y0246372D02*
X0209937Y0246372D01*
X0209901Y0244774D02*
X0185076Y0244774D01*
X0182896Y0243175D02*
X0211944Y0243175D01*
X0214950Y0241577D02*
X0183376Y0241577D01*
X0182112Y0239978D02*
X0229951Y0239978D01*
X0231719Y0238380D02*
X0176744Y0238380D01*
X0176644Y0239978D02*
X0180645Y0239978D01*
X0178314Y0241577D02*
X0175698Y0241577D01*
X0174684Y0243175D02*
X0172425Y0243175D01*
X0174001Y0244774D02*
X0170826Y0244774D01*
X0169228Y0246372D02*
X0174715Y0246372D01*
X0175920Y0247971D02*
X0167629Y0247971D01*
X0166031Y0249569D02*
X0176415Y0249569D01*
X0176883Y0246372D02*
X0178926Y0246372D01*
X0179777Y0246372D02*
X0180864Y0246372D01*
X0180627Y0247971D02*
X0181714Y0247971D01*
X0181933Y0244774D02*
X0180014Y0244774D01*
X0179890Y0244774D02*
X0178927Y0244774D01*
X0179164Y0243175D02*
X0178077Y0243175D01*
X0179309Y0251168D02*
X0166495Y0251168D01*
X0162621Y0254365D02*
X0155295Y0254365D01*
X0155295Y0252766D02*
X0161022Y0252766D01*
X0164219Y0255963D02*
X0154597Y0255963D01*
X0154481Y0257562D02*
X0179768Y0257562D01*
X0168551Y0239978D02*
X0168178Y0239978D01*
X0168178Y0238380D02*
X0169376Y0238380D01*
X0170073Y0236781D02*
X0168178Y0236781D01*
X0168803Y0235183D02*
X0178950Y0235183D01*
X0178537Y0233584D02*
X0170402Y0233584D01*
X0171960Y0231986D02*
X0178537Y0231986D01*
X0178872Y0230387D02*
X0172312Y0230387D01*
X0172312Y0228789D02*
X0178337Y0228789D01*
X0174736Y0227190D02*
X0172312Y0227190D01*
X0171253Y0225592D02*
X0173569Y0225592D01*
X0173313Y0223993D02*
X0169655Y0223993D01*
X0169556Y0217599D02*
X0172721Y0217599D01*
X0172219Y0216001D02*
X0174625Y0216001D01*
X0169123Y0212135D02*
X0168828Y0212430D01*
X0161347Y0212430D01*
X0155343Y0212430D01*
X0158187Y0215273D01*
X0158187Y0217824D01*
X0151837Y0217599D02*
X0146331Y0217599D01*
X0144733Y0216001D02*
X0151837Y0216001D01*
X0151837Y0219198D02*
X0147930Y0219198D01*
X0144056Y0222395D02*
X0142410Y0222395D01*
X0144458Y0223993D02*
X0145654Y0223993D01*
X0146056Y0225592D02*
X0152040Y0225592D01*
X0151837Y0227190D02*
X0147655Y0227190D01*
X0149253Y0228789D02*
X0151837Y0228789D01*
X0145663Y0232269D02*
X0140725Y0227331D01*
X0133092Y0227331D01*
X0133237Y0227681D01*
X0133237Y0232083D01*
X0137668Y0232083D01*
X0138020Y0232436D01*
X0138373Y0232083D01*
X0144361Y0232083D01*
X0144744Y0232467D01*
X0145220Y0232269D01*
X0145663Y0232269D01*
X0145379Y0231986D02*
X0133237Y0231986D01*
X0133237Y0230387D02*
X0143781Y0230387D01*
X0142182Y0228789D02*
X0133237Y0228789D01*
X0128237Y0233991D02*
X0128237Y0234426D01*
X0123524Y0239138D01*
X0123524Y0234033D01*
X0125494Y0234033D01*
X0125494Y0230449D01*
X0125862Y0230449D01*
X0125862Y0234033D01*
X0128080Y0234033D01*
X0128237Y0233991D01*
X0127480Y0235183D02*
X0123524Y0235183D01*
X0123524Y0236781D02*
X0125882Y0236781D01*
X0124283Y0238380D02*
X0123524Y0238380D01*
X0125494Y0233584D02*
X0125862Y0233584D01*
X0125862Y0231986D02*
X0125494Y0231986D01*
X0112850Y0235533D02*
X0112482Y0235381D01*
X0112482Y0236261D01*
X0112850Y0236261D01*
X0112850Y0235533D01*
X0112482Y0236261D02*
X0111117Y0236261D01*
X0110965Y0236630D01*
X0112482Y0236630D01*
X0112482Y0236261D01*
X0112442Y0242929D02*
X0108661Y0242929D01*
X0108661Y0244950D01*
X0108784Y0245408D01*
X0109021Y0245819D01*
X0109356Y0246154D01*
X0109767Y0246391D01*
X0110224Y0246513D01*
X0112442Y0246513D01*
X0112442Y0242929D01*
X0112442Y0243175D02*
X0112811Y0243175D01*
X0112811Y0244774D02*
X0112442Y0244774D01*
X0112442Y0246372D02*
X0112811Y0246372D01*
X0109735Y0246372D02*
X0105283Y0246372D01*
X0106356Y0244774D02*
X0108661Y0244774D01*
X0108661Y0243175D02*
X0106356Y0243175D01*
X0102575Y0243175D02*
X0102206Y0243175D01*
X0102206Y0244774D02*
X0102575Y0244774D01*
X0102575Y0246372D02*
X0102206Y0246372D01*
X0087883Y0254365D02*
X0068538Y0254365D01*
X0071246Y0255963D02*
X0087883Y0255963D01*
X0088079Y0257562D02*
X0073953Y0257562D01*
X0076850Y0259160D02*
X0089365Y0259160D01*
X0088301Y0258096D02*
X0088301Y0258096D01*
X0090963Y0260759D02*
X0080313Y0260759D01*
X0083776Y0262357D02*
X0091532Y0262357D01*
X0091532Y0263956D02*
X0087239Y0263956D01*
X0091334Y0265554D02*
X0091532Y0265554D01*
X0087886Y0227190D02*
X0036717Y0227190D01*
X0038622Y0219198D02*
X0030530Y0219198D01*
X0029354Y0217599D02*
X0036931Y0217599D01*
X0035864Y0216001D02*
X0028179Y0216001D01*
X0027039Y0214402D02*
X0035202Y0214402D01*
X0035036Y0212803D02*
X0026096Y0212803D01*
X0025152Y0211205D02*
X0035036Y0211205D01*
X0035027Y0209606D02*
X0024208Y0209606D01*
X0023265Y0208008D02*
X0033429Y0208008D01*
X0031830Y0206409D02*
X0022321Y0206409D01*
X0021377Y0204811D02*
X0030232Y0204811D01*
X0028633Y0203212D02*
X0020433Y0203212D01*
X0019695Y0201614D02*
X0027035Y0201614D01*
X0025436Y0200015D02*
X0018957Y0200015D01*
X0018219Y0198417D02*
X0023838Y0198417D01*
X0022239Y0196818D02*
X0017481Y0196818D01*
X0016743Y0195220D02*
X0020641Y0195220D01*
X0019042Y0193621D02*
X0016006Y0193621D01*
X0015268Y0192023D02*
X0017444Y0192023D01*
X0015845Y0190424D02*
X0014593Y0190424D01*
X0014246Y0188826D02*
X0013997Y0188826D01*
X0040414Y0204811D02*
X0040677Y0204811D01*
X0057017Y0204811D02*
X0057607Y0204811D01*
X0099044Y0210658D02*
X0099635Y0210658D01*
X0107235Y0217599D02*
X0108232Y0217599D01*
X0139792Y0205343D02*
X0150422Y0194713D01*
X0150678Y0198417D02*
X0173953Y0198417D01*
X0173953Y0200015D02*
X0149080Y0200015D01*
X0146335Y0204811D02*
X0144284Y0204811D01*
X0143957Y0206409D02*
X0145754Y0206409D01*
X0144812Y0208008D02*
X0143957Y0208008D01*
X0161163Y0204811D02*
X0161531Y0204811D01*
X0161531Y0203212D02*
X0161163Y0203212D01*
X0165083Y0203212D02*
X0165354Y0203212D01*
X0165354Y0204811D02*
X0165116Y0204811D01*
X0165116Y0206409D02*
X0165354Y0206409D01*
X0165398Y0208008D02*
X0165116Y0208008D01*
X0171812Y0201614D02*
X0173953Y0201614D01*
X0166026Y0216001D02*
X0164739Y0216001D01*
X0164537Y0217599D02*
X0165737Y0217599D01*
X0184687Y0217824D02*
X0185363Y0217147D01*
X0191037Y0222395D02*
X0198930Y0222395D01*
X0197331Y0223993D02*
X0191037Y0223993D01*
X0190565Y0225324D02*
X0190565Y0225324D01*
X0190502Y0230387D02*
X0192484Y0230387D01*
X0190837Y0231986D02*
X0202514Y0231986D01*
X0203941Y0231986D02*
X0205984Y0231986D01*
X0207225Y0231325D02*
X0203279Y0233424D01*
X0204366Y0235469D01*
X0204689Y0235816D01*
X0205091Y0236067D01*
X0205544Y0236206D01*
X0206018Y0236222D01*
X0206480Y0236116D01*
X0209047Y0234751D01*
X0207225Y0231325D01*
X0207576Y0231986D02*
X0208663Y0231986D01*
X0208426Y0233584D02*
X0209513Y0233584D01*
X0211241Y0233584D02*
X0236694Y0233584D01*
X0238139Y0231986D02*
X0213127Y0231986D01*
X0212875Y0230387D02*
X0239584Y0230387D01*
X0241029Y0228789D02*
X0212025Y0228789D01*
X0211996Y0228789D02*
X0209953Y0228789D01*
X0208990Y0230387D02*
X0207813Y0230387D01*
X0206947Y0230387D02*
X0206726Y0230387D01*
X0206963Y0228789D02*
X0205877Y0228789D01*
X0206113Y0227190D02*
X0205027Y0227190D01*
X0204696Y0227190D02*
X0201205Y0227190D01*
X0202011Y0228789D02*
X0199607Y0228789D01*
X0201707Y0230387D02*
X0196943Y0230387D01*
X0190837Y0233584D02*
X0203364Y0233584D01*
X0204214Y0235183D02*
X0190423Y0235183D01*
X0184687Y0235183D02*
X0184687Y0235183D01*
X0184687Y0233584D02*
X0184687Y0233584D01*
X0176047Y0236781D02*
X0233488Y0236781D01*
X0235249Y0235183D02*
X0208234Y0235183D01*
X0219051Y0241577D02*
X0228182Y0241577D01*
X0226414Y0243175D02*
X0219901Y0243175D01*
X0220751Y0244774D02*
X0224482Y0244774D01*
X0222309Y0246372D02*
X0221601Y0246372D01*
X0211175Y0227190D02*
X0242474Y0227190D01*
X0242174Y0225592D02*
X0243919Y0225592D01*
X0243772Y0223993D02*
X0245134Y0223993D01*
X0245371Y0222395D02*
X0246309Y0222395D01*
X0246969Y0220796D02*
X0247485Y0220796D01*
X0248568Y0219198D02*
X0248661Y0219198D01*
X0251466Y0201614D02*
X0239849Y0201614D01*
X0239849Y0200015D02*
X0251769Y0200015D01*
X0251769Y0198417D02*
X0239849Y0198417D01*
X0239849Y0196818D02*
X0251221Y0196818D01*
X0250200Y0195220D02*
X0239849Y0195220D01*
X0239849Y0193621D02*
X0249598Y0193621D01*
X0249598Y0192023D02*
X0239849Y0192023D01*
X0239849Y0190424D02*
X0249891Y0190424D01*
X0250553Y0188826D02*
X0239849Y0188826D01*
X0239849Y0187227D02*
X0251969Y0187227D01*
X0251969Y0185629D02*
X0240385Y0185629D01*
X0241984Y0184030D02*
X0251969Y0184030D01*
X0251969Y0184736D02*
X0251969Y0182173D01*
X0252091Y0181715D01*
X0252328Y0181305D01*
X0252663Y0180970D01*
X0253074Y0180733D01*
X0253532Y0180610D01*
X0255799Y0180610D01*
X0255799Y0184736D01*
X0251969Y0184736D01*
X0251969Y0182432D02*
X0243265Y0182432D01*
X0243589Y0180833D02*
X0252900Y0180833D01*
X0250805Y0179235D02*
X0266494Y0179235D01*
X0266494Y0180833D02*
X0259558Y0180833D01*
X0260490Y0182432D02*
X0266494Y0182432D01*
X0266494Y0184030D02*
X0260490Y0184030D01*
X0260490Y0185629D02*
X0266385Y0185629D01*
X0265789Y0187227D02*
X0260490Y0187227D01*
X0261905Y0188826D02*
X0265193Y0188826D01*
X0264597Y0190424D02*
X0262567Y0190424D01*
X0262860Y0192023D02*
X0263923Y0192023D01*
X0263185Y0193621D02*
X0262860Y0193621D01*
X0262447Y0195220D02*
X0262259Y0195220D01*
X0261709Y0196818D02*
X0261238Y0196818D01*
X0260971Y0198417D02*
X0260690Y0198417D01*
X0256659Y0184030D02*
X0255799Y0184030D01*
X0255799Y0182432D02*
X0256659Y0182432D01*
X0256659Y0180833D02*
X0255799Y0180833D01*
X0252540Y0177636D02*
X0266494Y0177636D01*
X0266494Y0176038D02*
X0253696Y0176038D01*
X0254358Y0174439D02*
X0266494Y0174439D01*
X0266494Y0172841D02*
X0254650Y0172841D01*
X0254650Y0171242D02*
X0266494Y0171242D01*
X0266494Y0169644D02*
X0254329Y0169644D01*
X0253667Y0168045D02*
X0266494Y0168045D01*
X0266494Y0166447D02*
X0252472Y0166447D01*
X0250640Y0164848D02*
X0266494Y0164848D01*
X0252183Y0145666D02*
X0228728Y0145666D01*
X0228728Y0144068D02*
X0249365Y0144068D01*
X0248214Y0142469D02*
X0228728Y0142469D01*
X0228728Y0140870D02*
X0247684Y0140870D01*
X0247501Y0139272D02*
X0228728Y0139272D01*
X0228728Y0137673D02*
X0247855Y0137673D01*
X0248560Y0136075D02*
X0228728Y0136075D01*
X0228728Y0134476D02*
X0250142Y0134476D01*
X0221528Y0134476D02*
X0215986Y0134476D01*
X0217584Y0136075D02*
X0221528Y0136075D01*
X0221528Y0137673D02*
X0218273Y0137673D01*
X0218564Y0139272D02*
X0221528Y0139272D01*
X0221528Y0140870D02*
X0218541Y0140870D01*
X0217879Y0142469D02*
X0221528Y0142469D01*
X0221528Y0144068D02*
X0216632Y0144068D01*
X0213802Y0145666D02*
X0221528Y0145666D01*
X0221528Y0147265D02*
X0199236Y0147265D01*
X0199236Y0148863D02*
X0221528Y0148863D01*
X0221528Y0150462D02*
X0199236Y0150462D01*
X0199236Y0152060D02*
X0207100Y0152060D01*
X0208899Y0152060D02*
X0210055Y0152060D01*
X0210055Y0153659D02*
X0208899Y0153659D01*
X0208899Y0155257D02*
X0210055Y0155257D01*
X0210055Y0156856D02*
X0208899Y0156856D01*
X0208899Y0158454D02*
X0210055Y0158454D01*
X0210055Y0160053D02*
X0208899Y0160053D01*
X0208899Y0161651D02*
X0210055Y0161651D01*
X0210055Y0163250D02*
X0208899Y0163250D01*
X0207944Y0163250D02*
X0190767Y0163250D01*
X0189168Y0164848D02*
X0219487Y0164848D01*
X0219278Y0163250D02*
X0221086Y0163250D01*
X0221528Y0152060D02*
X0220122Y0152060D01*
X0204940Y0153659D02*
X0199236Y0153659D01*
X0198759Y0155257D02*
X0203970Y0155257D01*
X0203573Y0156856D02*
X0197161Y0156856D01*
X0198022Y0155995D02*
X0198022Y0155995D01*
X0195562Y0158454D02*
X0203619Y0158454D01*
X0204114Y0160053D02*
X0193964Y0160053D01*
X0192365Y0161651D02*
X0205228Y0161651D01*
X0202790Y0145666D02*
X0199236Y0145666D01*
X0199236Y0144068D02*
X0199960Y0144068D01*
X0202635Y0132878D02*
X0221528Y0132878D01*
X0221528Y0131279D02*
X0204233Y0131279D01*
X0205832Y0129681D02*
X0221528Y0129681D01*
X0221528Y0128082D02*
X0219272Y0128082D01*
X0207950Y0128082D02*
X0207430Y0128082D01*
X0197840Y0115294D02*
X0221528Y0115294D01*
X0221528Y0113696D02*
X0198268Y0113696D01*
X0198481Y0112097D02*
X0221528Y0112097D01*
X0221528Y0110499D02*
X0198481Y0110499D01*
X0198136Y0108900D02*
X0221528Y0108900D01*
X0221528Y0107302D02*
X0197625Y0107302D01*
X0196702Y0105703D02*
X0221528Y0105703D01*
X0221528Y0104105D02*
X0195308Y0104105D01*
X0193126Y0102506D02*
X0221528Y0102506D01*
X0221820Y0100908D02*
X0196697Y0100908D01*
X0198532Y0100416D02*
X0194719Y0101438D01*
X0190771Y0101438D01*
X0186958Y0100416D01*
X0183539Y0098442D01*
X0180748Y0095651D01*
X0178774Y0092232D01*
X0177753Y0088419D01*
X0177753Y0084472D01*
X0178774Y0080659D01*
X0180748Y0077240D01*
X0183539Y0074449D01*
X0186958Y0072475D01*
X0190771Y0071454D01*
X0194719Y0071454D01*
X0198532Y0072475D01*
X0201950Y0074449D01*
X0204742Y0077240D01*
X0206715Y0080659D01*
X0207737Y0084472D01*
X0207737Y0088419D01*
X0206715Y0092232D01*
X0204742Y0095651D01*
X0201950Y0098442D01*
X0198532Y0100416D01*
X0200449Y0099309D02*
X0223057Y0099309D01*
X0224655Y0097711D02*
X0202682Y0097711D01*
X0204280Y0096112D02*
X0226254Y0096112D01*
X0227852Y0094514D02*
X0205398Y0094514D01*
X0206321Y0092915D02*
X0229451Y0092915D01*
X0231049Y0091317D02*
X0206961Y0091317D01*
X0207389Y0089718D02*
X0232648Y0089718D01*
X0232846Y0088120D02*
X0207737Y0088120D01*
X0207737Y0086521D02*
X0232846Y0086521D01*
X0232846Y0084923D02*
X0207737Y0084923D01*
X0207429Y0083324D02*
X0233353Y0083324D01*
X0234893Y0081726D02*
X0207001Y0081726D01*
X0206408Y0080127D02*
X0236492Y0080127D01*
X0241507Y0078529D02*
X0205485Y0078529D01*
X0204431Y0076930D02*
X0241507Y0076930D01*
X0241507Y0075332D02*
X0202833Y0075332D01*
X0204206Y0073733D02*
X0200710Y0073733D01*
X0201985Y0072134D02*
X0197260Y0072134D01*
X0200791Y0070536D02*
X0179669Y0070536D01*
X0181267Y0068937D02*
X0200115Y0068937D01*
X0199842Y0065961D02*
X0199935Y0065254D01*
X0200196Y0064278D01*
X0200583Y0063345D01*
X0201088Y0062470D01*
X0201703Y0061669D01*
X0202417Y0060955D01*
X0203219Y0060340D01*
X0204093Y0059835D01*
X0205026Y0059448D01*
X0206002Y0059187D01*
X0206709Y0059094D01*
X0206709Y0065961D01*
X0199842Y0065961D01*
X0199871Y0065740D02*
X0191005Y0065740D01*
X0191005Y0064142D02*
X0200253Y0064142D01*
X0201046Y0062543D02*
X0191005Y0062543D01*
X0191841Y0060945D02*
X0202430Y0060945D01*
X0205407Y0059346D02*
X0193439Y0059346D01*
X0195038Y0057748D02*
X0235728Y0057748D01*
X0235449Y0059346D02*
X0237049Y0059346D01*
X0237049Y0060945D02*
X0235449Y0060945D01*
X0235449Y0062543D02*
X0237049Y0062543D01*
X0237049Y0064142D02*
X0235449Y0064142D01*
X0235449Y0065740D02*
X0237049Y0065740D01*
X0235449Y0067339D02*
X0208309Y0067339D01*
X0208309Y0068937D02*
X0206709Y0068937D01*
X0206709Y0067339D02*
X0190900Y0067339D01*
X0188230Y0072134D02*
X0178070Y0072134D01*
X0176472Y0073733D02*
X0184780Y0073733D01*
X0182657Y0075332D02*
X0163774Y0075332D01*
X0159692Y0078529D02*
X0180004Y0078529D01*
X0179082Y0080127D02*
X0161290Y0080127D01*
X0162889Y0081726D02*
X0178489Y0081726D01*
X0178060Y0083324D02*
X0164487Y0083324D01*
X0166086Y0084923D02*
X0177753Y0084923D01*
X0177753Y0086521D02*
X0167684Y0086521D01*
X0169283Y0088120D02*
X0177753Y0088120D01*
X0178101Y0089718D02*
X0170881Y0089718D01*
X0172480Y0091317D02*
X0178529Y0091317D01*
X0179169Y0092915D02*
X0174078Y0092915D01*
X0175677Y0094514D02*
X0180092Y0094514D01*
X0181209Y0096112D02*
X0177275Y0096112D01*
X0178874Y0097711D02*
X0182808Y0097711D01*
X0185041Y0099309D02*
X0180472Y0099309D01*
X0182071Y0100908D02*
X0188793Y0100908D01*
X0178739Y0107302D02*
X0177453Y0107302D01*
X0177816Y0105703D02*
X0175855Y0105703D01*
X0176217Y0104105D02*
X0174256Y0104105D01*
X0174619Y0102506D02*
X0172658Y0102506D01*
X0173020Y0100908D02*
X0170827Y0100908D01*
X0171422Y0099309D02*
X0168544Y0099309D01*
X0169823Y0097711D02*
X0166261Y0097711D01*
X0168224Y0096112D02*
X0163720Y0096112D01*
X0166626Y0094514D02*
X0160292Y0094514D01*
X0156864Y0092915D02*
X0165027Y0092915D01*
X0163429Y0091317D02*
X0151074Y0091317D01*
X0148242Y0090558D02*
X0148242Y0090558D01*
X0156626Y0092804D02*
X0156626Y0092804D01*
X0157697Y0086521D02*
X0158633Y0086521D01*
X0158093Y0076930D02*
X0181058Y0076930D01*
X0174381Y0067339D02*
X0164430Y0067339D01*
X0164430Y0065740D02*
X0175979Y0065740D01*
X0177578Y0064142D02*
X0164430Y0064142D01*
X0164430Y0062543D02*
X0179176Y0062543D01*
X0180706Y0060945D02*
X0163380Y0060945D01*
X0162519Y0059346D02*
X0180706Y0059346D01*
X0180706Y0057748D02*
X0160440Y0057748D01*
X0159674Y0060461D02*
X0157706Y0060461D01*
X0159674Y0060461D02*
X0160461Y0061249D01*
X0160461Y0064989D01*
X0156493Y0065740D02*
X0155197Y0065740D01*
X0155197Y0064142D02*
X0156493Y0064142D01*
X0156493Y0067339D02*
X0155197Y0067339D01*
X0155197Y0068937D02*
X0156493Y0068937D01*
X0156493Y0070536D02*
X0155197Y0070536D01*
X0155197Y0072134D02*
X0156493Y0072134D01*
X0156493Y0073733D02*
X0155197Y0073733D01*
X0156495Y0075332D02*
X0157149Y0075332D01*
X0149184Y0076930D02*
X0148344Y0076930D01*
X0148482Y0075332D02*
X0148797Y0075332D01*
X0148797Y0073733D02*
X0148482Y0073733D01*
X0148482Y0072134D02*
X0148797Y0072134D01*
X0148797Y0070536D02*
X0148491Y0070536D01*
X0148682Y0068937D02*
X0148797Y0068937D01*
X0148797Y0067339D02*
X0148682Y0067339D01*
X0148682Y0065740D02*
X0148797Y0065740D01*
X0148797Y0064142D02*
X0148466Y0064142D01*
X0148797Y0062543D02*
X0147818Y0062543D01*
X0148496Y0060945D02*
X0148797Y0060945D01*
X0148797Y0059346D02*
X0148313Y0059346D01*
X0145107Y0060461D02*
X0144713Y0060855D01*
X0144713Y0067351D01*
X0137233Y0067351D01*
X0137331Y0065678D01*
X0137331Y0054502D01*
X0140230Y0054162D02*
X0141018Y0054950D01*
X0149635Y0054950D01*
X0149635Y0055343D01*
X0151997Y0057706D01*
X0155197Y0057748D02*
X0155626Y0057748D01*
X0154816Y0056149D02*
X0180706Y0056149D01*
X0180706Y0054551D02*
X0153993Y0054551D01*
X0156035Y0052952D02*
X0180733Y0052952D01*
X0185080Y0049755D02*
X0186630Y0049755D01*
X0186630Y0048157D02*
X0185080Y0048157D01*
X0185080Y0046558D02*
X0186630Y0046558D01*
X0186630Y0044960D02*
X0185080Y0044960D01*
X0185080Y0043361D02*
X0186630Y0043361D01*
X0186630Y0041763D02*
X0232772Y0041763D01*
X0231004Y0040164D02*
X0190805Y0040164D01*
X0190805Y0038566D02*
X0229235Y0038566D01*
X0227467Y0036967D02*
X0190805Y0036967D01*
X0190780Y0035369D02*
X0225699Y0035369D01*
X0223603Y0033770D02*
X0163318Y0033770D01*
X0166817Y0032172D02*
X0167186Y0032172D01*
X0167186Y0033585D02*
X0167186Y0030001D01*
X0170967Y0030001D01*
X0170967Y0032022D01*
X0170844Y0032480D01*
X0170607Y0032890D01*
X0170272Y0033226D01*
X0169862Y0033463D01*
X0169404Y0033585D01*
X0167186Y0033585D01*
X0170927Y0032172D02*
X0221430Y0032172D01*
X0219256Y0030573D02*
X0170967Y0030573D01*
X0170967Y0028975D02*
X0217083Y0028975D01*
X0214909Y0027376D02*
X0170904Y0027376D01*
X0167186Y0027376D02*
X0166817Y0027376D01*
X0166817Y0028975D02*
X0167186Y0028975D01*
X0167186Y0030573D02*
X0166817Y0030573D01*
X0157300Y0033770D02*
X0155360Y0033770D01*
X0149342Y0033770D02*
X0148667Y0033770D01*
X0142649Y0033770D02*
X0142460Y0033770D01*
X0144708Y0025778D02*
X0212265Y0025778D01*
X0209557Y0024179D02*
X0144748Y0024179D01*
X0143933Y0022581D02*
X0206850Y0022581D01*
X0204142Y0020982D02*
X0075049Y0020982D01*
X0072341Y0022581D02*
X0138211Y0022581D01*
X0131765Y0024179D02*
X0069633Y0024179D01*
X0078251Y0019384D02*
X0200940Y0019384D01*
X0197477Y0017785D02*
X0081714Y0017785D01*
X0085177Y0016187D02*
X0194014Y0016187D01*
X0190410Y0014588D02*
X0088780Y0014588D01*
X0093068Y0012990D02*
X0186122Y0012990D01*
X0156877Y0041763D02*
X0155729Y0041763D01*
X0150739Y0044960D02*
X0163921Y0044960D01*
X0166908Y0042893D02*
X0167154Y0043139D01*
X0153769Y0048473D02*
X0152558Y0049467D01*
X0152558Y0052026D01*
X0149635Y0054950D01*
X0134531Y0060945D02*
X0130158Y0060945D01*
X0128381Y0062543D02*
X0134531Y0062543D01*
X0133480Y0064142D02*
X0131537Y0064142D01*
X0127784Y0067351D02*
X0137233Y0067351D01*
X0133456Y0070536D02*
X0131562Y0070536D01*
X0131553Y0072134D02*
X0133465Y0072134D01*
X0133465Y0073733D02*
X0131553Y0073733D01*
X0131553Y0075332D02*
X0133465Y0075332D01*
X0133465Y0074228D02*
X0137049Y0074228D01*
X0137049Y0078009D01*
X0135028Y0078009D01*
X0134570Y0077887D01*
X0134159Y0077650D01*
X0133824Y0077315D01*
X0133587Y0076904D01*
X0133465Y0076446D01*
X0133465Y0074228D01*
X0133602Y0076930D02*
X0131415Y0076930D01*
X0127969Y0076930D02*
X0127600Y0076930D01*
X0127600Y0075332D02*
X0127969Y0075332D01*
X0137049Y0075332D02*
X0137417Y0075332D01*
X0137417Y0074228D02*
X0137417Y0078009D01*
X0139439Y0078009D01*
X0139896Y0077887D01*
X0140307Y0077650D01*
X0140642Y0077315D01*
X0140879Y0076904D01*
X0140973Y0076552D01*
X0141068Y0076904D01*
X0141305Y0077315D01*
X0141640Y0077650D01*
X0142050Y0077887D01*
X0142508Y0078009D01*
X0144529Y0078009D01*
X0144529Y0074228D01*
X0137417Y0074228D01*
X0137417Y0076930D02*
X0137049Y0076930D01*
X0140864Y0076930D02*
X0141082Y0076930D01*
X0144529Y0076930D02*
X0144898Y0076930D01*
X0144898Y0075332D02*
X0144529Y0075332D01*
X0127034Y0056149D02*
X0126284Y0056149D01*
X0127053Y0054551D02*
X0128633Y0054551D01*
X0128575Y0043361D02*
X0130531Y0043361D01*
X0111822Y0033770D02*
X0071693Y0033770D01*
X0071784Y0035369D02*
X0110224Y0035369D01*
X0108625Y0036967D02*
X0071626Y0036967D01*
X0070850Y0038566D02*
X0107960Y0038566D01*
X0107960Y0040164D02*
X0069408Y0040164D01*
X0046418Y0041763D02*
X0107960Y0041763D01*
X0107960Y0043361D02*
X0044650Y0043361D01*
X0043081Y0044960D02*
X0107960Y0044960D01*
X0107960Y0046558D02*
X0041636Y0046558D01*
X0040191Y0048157D02*
X0107960Y0048157D01*
X0107960Y0049755D02*
X0038746Y0049755D01*
X0037301Y0051354D02*
X0107960Y0051354D01*
X0107960Y0052952D02*
X0035856Y0052952D01*
X0034533Y0054551D02*
X0107960Y0054551D01*
X0107960Y0056149D02*
X0033357Y0056149D01*
X0032181Y0057748D02*
X0107960Y0057748D01*
X0107960Y0059346D02*
X0074440Y0059346D01*
X0077046Y0060945D02*
X0107960Y0060945D01*
X0107960Y0062543D02*
X0078492Y0062543D01*
X0079154Y0064142D02*
X0107960Y0064142D01*
X0107960Y0065740D02*
X0079587Y0065740D01*
X0079587Y0067339D02*
X0107960Y0067339D01*
X0107960Y0068937D02*
X0079337Y0068937D01*
X0078675Y0070536D02*
X0107960Y0070536D01*
X0107960Y0072134D02*
X0090225Y0072134D01*
X0087246Y0072134D02*
X0085646Y0072134D01*
X0085646Y0073733D02*
X0087246Y0073733D01*
X0087246Y0075332D02*
X0085646Y0075332D01*
X0082666Y0072134D02*
X0077488Y0072134D01*
X0078850Y0073733D02*
X0075507Y0073733D01*
X0076671Y0075332D02*
X0039462Y0075332D01*
X0037863Y0076930D02*
X0075119Y0076930D01*
X0073945Y0078529D02*
X0036265Y0078529D01*
X0034666Y0080127D02*
X0073052Y0080127D01*
X0072420Y0081726D02*
X0033068Y0081726D01*
X0031469Y0083324D02*
X0071985Y0083324D01*
X0071732Y0084923D02*
X0029871Y0084923D01*
X0028272Y0086521D02*
X0075839Y0086521D01*
X0071747Y0088120D02*
X0026674Y0088120D01*
X0025075Y0089718D02*
X0072015Y0089718D01*
X0072466Y0091317D02*
X0023477Y0091317D01*
X0021878Y0092915D02*
X0073131Y0092915D01*
X0074046Y0094514D02*
X0020280Y0094514D01*
X0019180Y0096112D02*
X0075243Y0096112D01*
X0076855Y0097711D02*
X0019180Y0097711D01*
X0019180Y0099309D02*
X0079132Y0099309D01*
X0080118Y0100908D02*
X0019180Y0100908D01*
X0019180Y0102506D02*
X0078519Y0102506D01*
X0100452Y0107302D02*
X0101737Y0107302D01*
X0101451Y0107588D02*
X0101451Y0107588D01*
X0101375Y0105703D02*
X0103336Y0105703D01*
X0102973Y0104105D02*
X0104934Y0104105D01*
X0104572Y0102506D02*
X0106533Y0102506D01*
X0106171Y0100908D02*
X0108364Y0100908D01*
X0107960Y0081726D02*
X0100472Y0081726D01*
X0099839Y0080127D02*
X0107960Y0080127D01*
X0107960Y0078529D02*
X0098946Y0078529D01*
X0097772Y0076930D02*
X0107960Y0076930D01*
X0107960Y0075332D02*
X0096220Y0075332D01*
X0094041Y0073733D02*
X0107960Y0073733D01*
X0040183Y0059346D02*
X0031006Y0059346D01*
X0029830Y0060945D02*
X0037577Y0060945D01*
X0036132Y0062543D02*
X0028654Y0062543D01*
X0027479Y0064142D02*
X0035470Y0064142D01*
X0035036Y0065740D02*
X0026477Y0065740D01*
X0025534Y0067339D02*
X0035036Y0067339D01*
X0035287Y0068937D02*
X0024590Y0068937D01*
X0023646Y0070536D02*
X0034075Y0070536D01*
X0032477Y0072134D02*
X0022703Y0072134D01*
X0021759Y0073733D02*
X0030878Y0073733D01*
X0029280Y0075332D02*
X0020815Y0075332D01*
X0019993Y0076930D02*
X0027681Y0076930D01*
X0026083Y0078529D02*
X0019255Y0078529D01*
X0018518Y0080127D02*
X0024484Y0080127D01*
X0022886Y0081726D02*
X0017780Y0081726D01*
X0017042Y0083324D02*
X0021287Y0083324D01*
X0019689Y0084923D02*
X0016304Y0084923D01*
X0015566Y0086521D02*
X0018090Y0086521D01*
X0016492Y0088120D02*
X0014834Y0088120D01*
X0014893Y0089718D02*
X0014238Y0089718D01*
X0146036Y0188826D02*
X0157271Y0188826D01*
X0158870Y0187227D02*
X0153488Y0187227D01*
X0158251Y0185629D02*
X0160468Y0185629D01*
X0161679Y0184030D02*
X0162067Y0184030D01*
X0199061Y0206409D02*
X0202349Y0206409D01*
X0201830Y0204811D02*
X0205244Y0204811D01*
X0221584Y0204811D02*
X0222174Y0204811D01*
X0221528Y0116893D02*
X0221237Y0116893D01*
X0233764Y0098784D02*
X0243794Y0098784D01*
X0249015Y0093563D01*
X0249026Y0093537D01*
X0248968Y0093595D01*
X0248558Y0093832D01*
X0248100Y0093954D01*
X0245291Y0093954D01*
X0245291Y0090370D01*
X0244923Y0090370D01*
X0244923Y0093954D01*
X0242114Y0093954D01*
X0241656Y0093832D01*
X0241246Y0093595D01*
X0240911Y0093260D01*
X0240674Y0092849D01*
X0240551Y0092391D01*
X0240551Y0090370D01*
X0244923Y0090370D01*
X0244923Y0090002D01*
X0240551Y0090002D01*
X0240551Y0087980D01*
X0240674Y0087523D01*
X0240911Y0087112D01*
X0241246Y0086777D01*
X0241487Y0086638D01*
X0241154Y0086305D01*
X0240496Y0086305D01*
X0240046Y0086756D01*
X0240046Y0091728D01*
X0239498Y0093051D01*
X0238485Y0094063D01*
X0233764Y0098784D01*
X0234838Y0097711D02*
X0244868Y0097711D01*
X0246466Y0096112D02*
X0236436Y0096112D01*
X0238035Y0094514D02*
X0248065Y0094514D01*
X0249421Y0093055D02*
X0249454Y0093022D01*
X0250569Y0091908D01*
X0250569Y0090414D01*
X0250184Y0090414D01*
X0249663Y0089893D01*
X0249663Y0090002D01*
X0245291Y0090002D01*
X0245291Y0090370D01*
X0249663Y0090370D01*
X0249663Y0092391D01*
X0249540Y0092849D01*
X0249421Y0093055D01*
X0249502Y0092915D02*
X0249561Y0092915D01*
X0249663Y0091317D02*
X0250569Y0091317D01*
X0245291Y0091317D02*
X0244923Y0091317D01*
X0244923Y0092915D02*
X0245291Y0092915D01*
X0240712Y0092915D02*
X0239554Y0092915D01*
X0240046Y0091317D02*
X0240551Y0091317D01*
X0240551Y0089718D02*
X0240046Y0089718D01*
X0240046Y0088120D02*
X0240551Y0088120D01*
X0240280Y0086521D02*
X0241370Y0086521D01*
X0241507Y0073733D02*
X0239551Y0073733D01*
X0237049Y0073733D02*
X0235449Y0073733D01*
X0235449Y0072134D02*
X0237049Y0072134D01*
X0237049Y0070536D02*
X0235449Y0070536D01*
X0235449Y0068937D02*
X0237049Y0068937D01*
X0222336Y0059346D02*
X0221421Y0059346D01*
X0208309Y0059346D02*
X0206709Y0059346D01*
X0206709Y0060945D02*
X0208309Y0060945D01*
X0208309Y0062543D02*
X0206709Y0062543D01*
X0206709Y0064142D02*
X0208309Y0064142D01*
X0208309Y0065740D02*
X0206709Y0065740D01*
X0206709Y0070536D02*
X0208309Y0070536D01*
X0208309Y0072134D02*
X0206709Y0072134D01*
X0206709Y0073733D02*
X0208309Y0073733D01*
X0190805Y0046558D02*
X0237554Y0046558D01*
X0236109Y0044960D02*
X0190805Y0044960D01*
X0190805Y0043361D02*
X0234541Y0043361D01*
X0256444Y0095084D02*
X0256444Y0095084D01*
D40*
X0076603Y0155737D03*
D41*
X0069517Y0169910D02*
X0093926Y0169910D01*
X0107706Y0183690D01*
X0107706Y0201997D01*
X0099044Y0210658D01*
X0099044Y0217351D02*
X0092745Y0217351D01*
X0092351Y0216957D01*
X0071682Y0212430D02*
X0042942Y0212430D01*
X0015580Y0185068D01*
X0015580Y0094123D01*
X0042942Y0066761D01*
X0071682Y0066761D01*
X0039202Y0139595D02*
X0039202Y0139770D01*
X0069429Y0169998D01*
X0069517Y0169910D01*
X0169123Y0212135D02*
X0174930Y0212135D01*
X0177553Y0209512D01*
X0177553Y0186452D01*
X0194882Y0169123D01*
X0220304Y0169123D01*
X0225128Y0164299D01*
X0225128Y0102330D01*
X0236446Y0091012D01*
X0236446Y0085265D01*
X0239005Y0082706D01*
X0245107Y0082706D01*
X0244752Y0082706D01*
X0245107Y0082706D02*
X0245107Y0062036D01*
X0236052Y0052981D01*
X0194713Y0052981D01*
X0187587Y0060107D01*
X0185855Y0060107D01*
X0239989Y0172076D02*
X0239989Y0180934D01*
X0236249Y0184674D01*
X0236249Y0212430D01*
X0207509Y0212430D01*
D42*
X0174280Y0071682D02*
X0160461Y0071682D01*
X0174280Y0071682D02*
X0185855Y0060107D01*
X0183139Y0062824D01*
D43*
X0157706Y0060461D03*
X0145107Y0060461D03*
X0131328Y0214792D03*
X0145894Y0235658D03*
X0130540Y0239595D03*
X0107706Y0239595D03*
X0194713Y0227824D03*
D44*
X0188182Y0111544D02*
X0157245Y0080607D01*
X0157245Y0081788D01*
X0154556Y0084477D01*
X0157245Y0080607D02*
X0151997Y0075359D01*
X0151997Y0057706D01*
X0123084Y0060043D02*
X0123084Y0051859D01*
X0123084Y0060043D02*
X0120107Y0063020D01*
X0120107Y0082446D01*
X0091009Y0111544D01*
X0239989Y0107115D02*
X0251728Y0095376D01*
X0251800Y0095202D02*
X0253696Y0093306D01*
X0253769Y0093132D02*
X0253769Y0086446D01*
X0253768Y0093132D02*
X0253766Y0093160D01*
X0253762Y0093187D01*
X0253754Y0093213D01*
X0253744Y0093239D01*
X0253730Y0093263D01*
X0253714Y0093285D01*
X0253696Y0093306D01*
X0251800Y0095202D02*
X0251798Y0095230D01*
X0251794Y0095257D01*
X0251786Y0095283D01*
X0251776Y0095309D01*
X0251762Y0095333D01*
X0251746Y0095355D01*
X0251728Y0095376D01*
M02*
