G75*
%MOIN*%
%OFA0B0*%
%FSLAX24Y24*%
%IPPOS*%
%LPD*%
%AMOC8*
5,1,8,0,0,1.08239X$1,22.5*
%
%ADD10R,0.0214X0.0214*%
%ADD11C,0.0181*%
%ADD12C,0.0050*%
%ADD13R,0.1064X0.0474*%
%ADD14R,0.2442X0.1064*%
%ADD15C,0.0820*%
%ADD16R,0.0710X0.0237*%
%ADD17R,0.0698X0.0824*%
%ADD18R,0.0513X0.0474*%
%ADD19R,0.0474X0.0513*%
%ADD20C,0.4017*%
%ADD21C,0.1025*%
%ADD22C,0.1582*%
%ADD23R,0.0395X0.0434*%
%ADD24R,0.0320X0.0950*%
%ADD25R,0.0474X0.0474*%
%ADD26R,0.0820X0.0820*%
%ADD27OC8,0.0820*%
%ADD28R,0.0395X0.0395*%
%ADD29R,0.0552X0.0395*%
%ADD30R,0.0395X0.0552*%
%ADD31C,0.0820*%
%ADD32R,0.0336X0.0946*%
%ADD33C,0.1130*%
%ADD34R,0.0634X0.0634*%
%ADD35C,0.0634*%
%ADD36R,0.1891X0.0474*%
%ADD37R,0.1419X0.0710*%
%ADD38C,0.0867*%
%ADD39C,0.1340*%
%ADD40C,0.0476*%
D10*
X010102Y014442D03*
X011102Y014442D03*
X011099Y015438D03*
X010102Y015438D03*
D11*
X010005Y015240D02*
X010005Y015230D01*
X010005Y015240D02*
X010145Y015240D01*
X010145Y015230D01*
X010005Y015230D01*
X010005Y015043D02*
X010005Y015033D01*
X010005Y015043D02*
X010145Y015043D01*
X010145Y015033D01*
X010005Y015033D01*
X010005Y014846D02*
X010005Y014836D01*
X010005Y014846D02*
X010145Y014846D01*
X010145Y014836D01*
X010005Y014836D01*
X010005Y014650D02*
X010005Y014640D01*
X010005Y014650D02*
X010145Y014650D01*
X010145Y014640D01*
X010005Y014640D01*
X010300Y014484D02*
X010310Y014484D01*
X010310Y014344D01*
X010300Y014344D01*
X010300Y014484D01*
X010497Y014484D02*
X010507Y014484D01*
X010507Y014344D01*
X010497Y014344D01*
X010497Y014484D01*
X010694Y014484D02*
X010704Y014484D01*
X010704Y014344D01*
X010694Y014344D01*
X010694Y014484D01*
X010891Y014484D02*
X010901Y014484D01*
X010901Y014344D01*
X010891Y014344D01*
X010891Y014484D01*
X011196Y014640D02*
X011196Y014650D01*
X011196Y014640D02*
X011056Y014640D01*
X011056Y014650D01*
X011196Y014650D01*
X011196Y014836D02*
X011196Y014846D01*
X011196Y014836D02*
X011056Y014836D01*
X011056Y014846D01*
X011196Y014846D01*
X011196Y015033D02*
X011196Y015043D01*
X011196Y015033D02*
X011056Y015033D01*
X011056Y015043D01*
X011196Y015043D01*
X011196Y015230D02*
X011196Y015240D01*
X011196Y015230D02*
X011056Y015230D01*
X011056Y015240D01*
X011196Y015240D01*
X010901Y015395D02*
X010891Y015395D01*
X010891Y015535D01*
X010901Y015535D01*
X010901Y015395D01*
X010704Y015395D02*
X010694Y015395D01*
X010694Y015535D01*
X010704Y015535D01*
X010704Y015395D01*
X010507Y015395D02*
X010497Y015395D01*
X010497Y015535D01*
X010507Y015535D01*
X010507Y015395D01*
X010310Y015395D02*
X010300Y015395D01*
X010300Y015535D01*
X010310Y015535D01*
X010310Y015395D01*
D12*
X010313Y015227D02*
X010888Y015227D01*
X010888Y014652D01*
X010313Y014652D01*
X010313Y015227D01*
X010313Y015215D02*
X010888Y015215D01*
X010888Y015167D02*
X010313Y015167D01*
X010313Y015118D02*
X010888Y015118D01*
X010888Y015070D02*
X010313Y015070D01*
X010313Y015021D02*
X010888Y015021D01*
X010888Y014973D02*
X010313Y014973D01*
X010313Y014924D02*
X010888Y014924D01*
X010888Y014876D02*
X010313Y014876D01*
X010313Y014827D02*
X010888Y014827D01*
X010888Y014779D02*
X010313Y014779D01*
X010313Y014730D02*
X010888Y014730D01*
X010888Y014682D02*
X010313Y014682D01*
X008359Y004741D02*
X008290Y004747D01*
X008222Y004741D01*
X008156Y004723D01*
X008093Y004694D01*
X008037Y004655D01*
X007989Y004606D01*
X007949Y004550D01*
X007920Y004488D01*
X007903Y004422D01*
X007897Y004353D01*
X007903Y004285D01*
X007920Y004219D01*
X007949Y004156D01*
X007989Y004100D01*
X008037Y004052D01*
X008093Y004012D01*
X008156Y003983D01*
X008222Y003966D01*
X008290Y003960D01*
X008359Y003966D01*
X008425Y003983D01*
X008487Y004012D01*
X008543Y004052D01*
X008592Y004100D01*
X008631Y004156D01*
X008660Y004219D01*
X008678Y004285D01*
X008684Y004353D01*
X008678Y004422D01*
X008660Y004488D01*
X008631Y004550D01*
X008592Y004606D01*
X008543Y004655D01*
X008487Y004694D01*
X008425Y004723D01*
X008359Y004741D01*
X008366Y004739D02*
X008215Y004739D01*
X008088Y004691D02*
X008492Y004691D01*
X008556Y004642D02*
X008024Y004642D01*
X007980Y004594D02*
X008601Y004594D01*
X008634Y004545D02*
X007947Y004545D01*
X007924Y004497D02*
X008656Y004497D01*
X008671Y004448D02*
X007910Y004448D01*
X007901Y004400D02*
X008680Y004400D01*
X008684Y004351D02*
X007897Y004351D01*
X007901Y004303D02*
X008679Y004303D01*
X008670Y004254D02*
X007911Y004254D01*
X007926Y004206D02*
X008654Y004206D01*
X008631Y004157D02*
X007949Y004157D01*
X007983Y004109D02*
X008598Y004109D01*
X008552Y004060D02*
X008029Y004060D01*
X008095Y004012D02*
X008485Y004012D01*
X008330Y003963D02*
X008250Y003963D01*
X050422Y016726D02*
X050416Y016794D01*
X050422Y016863D01*
X050440Y016929D01*
X050469Y016991D01*
X050508Y017047D01*
X050557Y017096D01*
X050613Y017135D01*
X050675Y017164D01*
X050742Y017182D01*
X050810Y017188D01*
X050878Y017182D01*
X050945Y017164D01*
X051007Y017135D01*
X051063Y017096D01*
X051112Y017047D01*
X051151Y016991D01*
X051180Y016929D01*
X051198Y016863D01*
X051204Y016794D01*
X051198Y016726D01*
X051180Y016660D01*
X051151Y016597D01*
X051112Y016541D01*
X051063Y016493D01*
X051007Y016453D01*
X050945Y016424D01*
X050878Y016406D01*
X050810Y016400D01*
X050742Y016406D01*
X050675Y016424D01*
X050613Y016453D01*
X050557Y016493D01*
X050508Y016541D01*
X050469Y016597D01*
X050440Y016660D01*
X050422Y016726D01*
X050424Y016719D02*
X051196Y016719D01*
X051201Y016767D02*
X050419Y016767D01*
X050418Y016816D02*
X051202Y016816D01*
X051197Y016864D02*
X050423Y016864D01*
X050436Y016913D02*
X051184Y016913D01*
X051165Y016961D02*
X050455Y016961D01*
X050482Y017010D02*
X051138Y017010D01*
X051101Y017058D02*
X050519Y017058D01*
X050572Y017107D02*
X051048Y017107D01*
X050964Y017155D02*
X050656Y017155D01*
X050437Y016670D02*
X051183Y016670D01*
X051162Y016622D02*
X050458Y016622D01*
X050486Y016573D02*
X051134Y016573D01*
X051095Y016525D02*
X050525Y016525D01*
X050580Y016476D02*
X051039Y016476D01*
X050952Y016428D02*
X050668Y016428D01*
X002952Y035754D02*
X002969Y035820D01*
X002975Y035889D01*
X002969Y035957D01*
X002952Y036023D01*
X002923Y036086D01*
X002883Y036142D01*
X002835Y036190D01*
X002778Y036230D01*
X002716Y036259D01*
X002650Y036276D01*
X002582Y036282D01*
X002513Y036276D01*
X002447Y036259D01*
X002385Y036230D01*
X002329Y036190D01*
X002280Y036142D01*
X002241Y036086D01*
X002212Y036023D01*
X002194Y035957D01*
X002188Y035889D01*
X002194Y035820D01*
X002212Y035754D01*
X002241Y035692D01*
X002280Y035636D01*
X002329Y035587D01*
X002385Y035548D01*
X002447Y035519D01*
X002513Y035501D01*
X002582Y035495D01*
X002650Y035501D01*
X002716Y035519D01*
X002778Y035548D01*
X002835Y035587D01*
X002883Y035636D01*
X002923Y035692D01*
X002952Y035754D01*
X002941Y035731D02*
X002222Y035731D01*
X002205Y035779D02*
X002958Y035779D01*
X002970Y035828D02*
X002193Y035828D01*
X002189Y035876D02*
X002974Y035876D01*
X002972Y035925D02*
X002191Y035925D01*
X002198Y035973D02*
X002965Y035973D01*
X002952Y036022D02*
X002211Y036022D01*
X002233Y036070D02*
X002930Y036070D01*
X002899Y036119D02*
X002264Y036119D01*
X002305Y036167D02*
X002858Y036167D01*
X002798Y036216D02*
X002365Y036216D01*
X002468Y036264D02*
X002695Y036264D01*
X002916Y035682D02*
X002247Y035682D01*
X002282Y035634D02*
X002881Y035634D01*
X002832Y035585D02*
X002331Y035585D01*
X002408Y035537D02*
X002755Y035537D01*
D13*
X008054Y015440D03*
X008054Y014440D03*
D14*
X006054Y014940D03*
D15*
X002170Y015680D03*
X002070Y016680D03*
X002170Y017680D03*
X002070Y018680D03*
X002170Y019680D03*
X002070Y020680D03*
X002170Y021680D03*
X010734Y021869D03*
X014926Y020589D03*
X013274Y025833D03*
X002070Y014680D03*
X002170Y013680D03*
X002070Y012680D03*
X008234Y008367D03*
X003790Y005713D03*
X012546Y002319D03*
X054377Y003309D03*
X054751Y030984D03*
D16*
X049708Y005931D03*
X049708Y005675D03*
X049708Y005419D03*
X049708Y005163D03*
X048054Y005163D03*
X048054Y005419D03*
X048054Y005675D03*
X048054Y005931D03*
D17*
X048881Y005547D03*
D18*
X050742Y004318D03*
X050742Y003649D03*
X050984Y006332D03*
X050984Y007001D03*
X052125Y007021D03*
X052125Y006352D03*
X046035Y007156D03*
X045366Y007156D03*
X045495Y022227D03*
X045495Y022897D03*
X046415Y022882D03*
X046415Y022212D03*
X010659Y011898D03*
X009989Y011898D03*
D19*
X051004Y008523D03*
X051004Y007853D03*
X052125Y007873D03*
X052125Y008542D03*
X051862Y004345D03*
X051862Y003676D03*
D20*
X018954Y015180D03*
D21*
X034920Y015180D02*
X035865Y015180D01*
X035475Y013113D02*
X036420Y013113D01*
X036420Y017247D02*
X035475Y017247D01*
D22*
X038303Y019314D02*
X039805Y019314D01*
X039805Y011046D02*
X038303Y011046D01*
D23*
X039466Y008937D03*
X039840Y008111D03*
X039092Y008111D03*
X015668Y016268D03*
X014920Y016268D03*
X015294Y015441D03*
D24*
X045404Y025050D03*
X045904Y025050D03*
X046404Y025050D03*
X046904Y025050D03*
X046904Y027700D03*
X046404Y027700D03*
X045904Y027700D03*
X045404Y027700D03*
D25*
X053838Y020757D03*
X054468Y020757D03*
X054468Y019182D03*
X053838Y019182D03*
D26*
X053754Y027480D03*
D27*
X054754Y027480D03*
X054754Y026480D03*
X053754Y026480D03*
X053754Y025480D03*
X054754Y025480D03*
D28*
X046415Y020952D03*
X046415Y020362D03*
D29*
X014083Y016652D03*
X014083Y015944D03*
X014084Y015440D03*
X014084Y014731D03*
X013256Y015072D03*
X013256Y015781D03*
X012497Y018415D03*
X011887Y018408D03*
X011296Y018408D03*
X010705Y018396D03*
X010115Y018396D03*
X009486Y018396D03*
X008895Y018389D03*
X008246Y018389D03*
X008246Y019097D03*
X008895Y019097D03*
X009486Y019104D03*
X010115Y019104D03*
X010705Y019104D03*
X011296Y019117D03*
X011887Y019117D03*
X012497Y019124D03*
X003781Y004892D03*
X003781Y004183D03*
X003775Y003671D03*
X003775Y002963D03*
D30*
X008275Y009629D03*
X008984Y009629D03*
X008797Y011811D03*
X008088Y011811D03*
X008088Y012687D03*
X008797Y012687D03*
X008310Y013689D03*
X007601Y013689D03*
X007601Y016160D03*
X008310Y016160D03*
X008147Y016798D03*
X008147Y017419D03*
X008856Y017419D03*
X008856Y016798D03*
X011864Y014649D03*
X012573Y014649D03*
X044000Y025780D03*
X044708Y025780D03*
X044708Y026680D03*
X044000Y026680D03*
X048119Y007775D03*
X048828Y007775D03*
X048828Y006905D03*
X048119Y006905D03*
X046071Y006164D03*
X045363Y006164D03*
X045377Y005141D03*
X046086Y005141D03*
X047074Y004114D03*
X047782Y004114D03*
X047763Y003263D03*
X047054Y003263D03*
D31*
X034215Y031104D02*
X034215Y031844D01*
X033215Y031844D02*
X033215Y031104D01*
D32*
X036578Y008916D03*
X036578Y007460D03*
D33*
X036279Y035480D02*
X035229Y035480D01*
X038229Y035480D02*
X039279Y035480D01*
X031679Y035480D02*
X030629Y035480D01*
X028679Y035480D02*
X027629Y035480D01*
X015479Y035480D02*
X014429Y035480D01*
X012479Y035480D02*
X011429Y035480D01*
X051429Y035480D02*
X052479Y035480D01*
X054429Y035480D02*
X055479Y035480D01*
D34*
X014727Y011834D03*
D35*
X012956Y013605D03*
D36*
X042601Y003113D03*
X042601Y002326D03*
D37*
X040554Y001381D03*
X040554Y004058D03*
D38*
X033924Y010310D03*
X024184Y010310D03*
X024184Y020050D03*
X033924Y020050D03*
D39*
X033974Y012350D03*
X024134Y012350D03*
D40*
X001322Y001341D03*
X003802Y002424D03*
X010121Y001341D03*
X018684Y001381D03*
X026735Y004156D03*
X028487Y001263D03*
X031184Y003507D03*
X031086Y008074D03*
X029235Y009668D03*
X022050Y007975D03*
X014196Y013664D03*
X015377Y014412D03*
X013231Y016519D03*
X012562Y017089D03*
X011794Y016617D03*
X012463Y015790D03*
X011814Y015337D03*
X011499Y014058D03*
X011676Y013133D03*
X011086Y013093D03*
X010377Y013349D03*
X009609Y012798D03*
X009649Y014038D03*
X009117Y014255D03*
X009097Y014944D03*
X009058Y015652D03*
X009708Y015830D03*
X010160Y016676D03*
X010416Y017365D03*
X010692Y017818D03*
X009491Y017109D03*
X007680Y017897D03*
X007227Y016991D03*
X007050Y016145D03*
X005593Y017149D03*
X005593Y018152D03*
X005593Y019176D03*
X007149Y021007D03*
X008408Y021007D03*
X008448Y019589D03*
X009471Y019629D03*
X013034Y019668D03*
X014097Y017345D03*
X015731Y016932D03*
X011676Y011145D03*
X008920Y010633D03*
X007778Y010278D03*
X007523Y012227D03*
X007070Y013684D03*
X001223Y009747D03*
X001046Y022542D03*
X001263Y030790D03*
X001420Y038448D03*
X016223Y038526D03*
X026873Y038526D03*
X039609Y038664D03*
X050771Y038448D03*
X057129Y038487D03*
X057247Y030908D03*
X047660Y028960D03*
X046400Y028960D03*
X044904Y028251D03*
X045672Y026538D03*
X043605Y026204D03*
X047523Y025003D03*
X047582Y027641D03*
X057070Y022582D03*
X046637Y015141D03*
X049334Y008290D03*
X049353Y006519D03*
X047024Y006905D03*
X047030Y005633D03*
X048881Y004708D03*
X048507Y004117D03*
X046381Y003704D03*
X047306Y001243D03*
X056991Y001538D03*
X056991Y008034D03*
X056912Y014806D03*
X038172Y008251D03*
M02*
