G75*
%MOIN*%
%OFA0B0*%
%FSLAX24Y24*%
%IPPOS*%
%LPD*%
%AMOC8*
5,1,8,0,0,1.08239X$1,22.5*
%
%ADD10C,0.0160*%
%ADD11C,0.0080*%
%ADD12C,0.0006*%
%ADD13C,0.0060*%
%ADD14C,0.0100*%
%ADD15C,0.0039*%
%ADD16C,0.0050*%
%ADD17C,0.0040*%
%ADD18R,0.0089X0.0098*%
%ADD19C,0.0400*%
%ADD20C,0.0070*%
D10*
X015254Y015180D02*
X015258Y015519D01*
X015271Y015857D01*
X015291Y016195D01*
X015320Y016533D01*
X015358Y016869D01*
X015403Y017205D01*
X015457Y017539D01*
X015519Y017872D01*
X015589Y018204D01*
X015668Y018533D01*
X015754Y018861D01*
X015848Y019186D01*
X015951Y019509D01*
X016061Y019829D01*
X016179Y020147D01*
X016304Y020461D01*
X016438Y020772D01*
X016579Y021080D01*
X016728Y021385D01*
X016883Y021685D01*
X017047Y021982D01*
X017217Y022275D01*
X017395Y022563D01*
X017580Y022847D01*
X017771Y023126D01*
X017970Y023401D01*
X018175Y023670D01*
X018386Y023935D01*
X018605Y024194D01*
X018829Y024448D01*
X019059Y024696D01*
X019296Y024938D01*
X019538Y025175D01*
X019786Y025405D01*
X020040Y025629D01*
X020299Y025848D01*
X020564Y026059D01*
X020833Y026264D01*
X021108Y026463D01*
X021387Y026654D01*
X021671Y026839D01*
X021959Y027017D01*
X022252Y027187D01*
X022549Y027351D01*
X022849Y027506D01*
X023154Y027655D01*
X023462Y027796D01*
X023773Y027930D01*
X024087Y028055D01*
X024405Y028173D01*
X024725Y028283D01*
X025048Y028386D01*
X025373Y028480D01*
X025701Y028566D01*
X026030Y028645D01*
X026362Y028715D01*
X026695Y028777D01*
X027029Y028831D01*
X027365Y028876D01*
X027701Y028914D01*
X028039Y028943D01*
X028377Y028963D01*
X028715Y028976D01*
X029054Y028980D01*
X029393Y028976D01*
X029731Y028963D01*
X030069Y028943D01*
X030407Y028914D01*
X030743Y028876D01*
X031079Y028831D01*
X031413Y028777D01*
X031746Y028715D01*
X032078Y028645D01*
X032407Y028566D01*
X032735Y028480D01*
X033060Y028386D01*
X033383Y028283D01*
X033703Y028173D01*
X034021Y028055D01*
X034335Y027930D01*
X034646Y027796D01*
X034954Y027655D01*
X035259Y027506D01*
X035559Y027351D01*
X035856Y027187D01*
X036149Y027017D01*
X036437Y026839D01*
X036721Y026654D01*
X037000Y026463D01*
X037275Y026264D01*
X037544Y026059D01*
X037809Y025848D01*
X038068Y025629D01*
X038322Y025405D01*
X038570Y025175D01*
X038812Y024938D01*
X039049Y024696D01*
X039279Y024448D01*
X039503Y024194D01*
X039722Y023935D01*
X039933Y023670D01*
X040138Y023401D01*
X040337Y023126D01*
X040528Y022847D01*
X040713Y022563D01*
X040891Y022275D01*
X041061Y021982D01*
X041225Y021685D01*
X041380Y021385D01*
X041529Y021080D01*
X041670Y020772D01*
X041804Y020461D01*
X041929Y020147D01*
X042047Y019829D01*
X042157Y019509D01*
X042260Y019186D01*
X042354Y018861D01*
X042440Y018533D01*
X042519Y018204D01*
X042589Y017872D01*
X042651Y017539D01*
X042705Y017205D01*
X042750Y016869D01*
X042788Y016533D01*
X042817Y016195D01*
X042837Y015857D01*
X042850Y015519D01*
X042854Y015180D01*
X042850Y014841D01*
X042837Y014503D01*
X042817Y014165D01*
X042788Y013827D01*
X042750Y013491D01*
X042705Y013155D01*
X042651Y012821D01*
X042589Y012488D01*
X042519Y012156D01*
X042440Y011827D01*
X042354Y011499D01*
X042260Y011174D01*
X042157Y010851D01*
X042047Y010531D01*
X041929Y010213D01*
X041804Y009899D01*
X041670Y009588D01*
X041529Y009280D01*
X041380Y008975D01*
X041225Y008675D01*
X041061Y008378D01*
X040891Y008085D01*
X040713Y007797D01*
X040528Y007513D01*
X040337Y007234D01*
X040138Y006959D01*
X039933Y006690D01*
X039722Y006425D01*
X039503Y006166D01*
X039279Y005912D01*
X039049Y005664D01*
X038812Y005422D01*
X038570Y005185D01*
X038322Y004955D01*
X038068Y004731D01*
X037809Y004512D01*
X037544Y004301D01*
X037275Y004096D01*
X037000Y003897D01*
X036721Y003706D01*
X036437Y003521D01*
X036149Y003343D01*
X035856Y003173D01*
X035559Y003009D01*
X035259Y002854D01*
X034954Y002705D01*
X034646Y002564D01*
X034335Y002430D01*
X034021Y002305D01*
X033703Y002187D01*
X033383Y002077D01*
X033060Y001974D01*
X032735Y001880D01*
X032407Y001794D01*
X032078Y001715D01*
X031746Y001645D01*
X031413Y001583D01*
X031079Y001529D01*
X030743Y001484D01*
X030407Y001446D01*
X030069Y001417D01*
X029731Y001397D01*
X029393Y001384D01*
X029054Y001380D01*
X028715Y001384D01*
X028377Y001397D01*
X028039Y001417D01*
X027701Y001446D01*
X027365Y001484D01*
X027029Y001529D01*
X026695Y001583D01*
X026362Y001645D01*
X026030Y001715D01*
X025701Y001794D01*
X025373Y001880D01*
X025048Y001974D01*
X024725Y002077D01*
X024405Y002187D01*
X024087Y002305D01*
X023773Y002430D01*
X023462Y002564D01*
X023154Y002705D01*
X022849Y002854D01*
X022549Y003009D01*
X022252Y003173D01*
X021959Y003343D01*
X021671Y003521D01*
X021387Y003706D01*
X021108Y003897D01*
X020833Y004096D01*
X020564Y004301D01*
X020299Y004512D01*
X020040Y004731D01*
X019786Y004955D01*
X019538Y005185D01*
X019296Y005422D01*
X019059Y005664D01*
X018829Y005912D01*
X018605Y006166D01*
X018386Y006425D01*
X018175Y006690D01*
X017970Y006959D01*
X017771Y007234D01*
X017580Y007513D01*
X017395Y007797D01*
X017217Y008085D01*
X017047Y008378D01*
X016883Y008675D01*
X016728Y008975D01*
X016579Y009280D01*
X016438Y009588D01*
X016304Y009899D01*
X016179Y010213D01*
X016061Y010531D01*
X015951Y010851D01*
X015848Y011174D01*
X015754Y011499D01*
X015668Y011827D01*
X015589Y012156D01*
X015519Y012488D01*
X015457Y012821D01*
X015403Y013155D01*
X015358Y013491D01*
X015320Y013827D01*
X015291Y014165D01*
X015271Y014503D01*
X015258Y014841D01*
X015254Y015180D01*
D11*
X014979Y015599D02*
X014743Y015599D01*
X014743Y015914D01*
X015609Y015599D02*
X015845Y015599D01*
X015845Y015914D01*
X011250Y015589D02*
X011250Y015373D01*
X011250Y015589D02*
X011034Y015589D01*
X010167Y015589D02*
X009951Y015589D01*
X009951Y015373D01*
X009951Y014507D02*
X009951Y014290D01*
X010167Y014290D01*
X011034Y014290D02*
X011250Y014507D01*
X008484Y008867D02*
X007984Y008867D01*
X007734Y008617D01*
X007734Y008117D01*
X007984Y007867D01*
X008484Y007867D01*
X008734Y008117D01*
X008734Y008617D01*
X008484Y008867D01*
X004290Y005963D02*
X004290Y005463D01*
X004040Y005213D01*
X003540Y005213D01*
X003290Y005463D01*
X003290Y005963D01*
X003540Y006213D01*
X004040Y006213D01*
X004290Y005963D01*
X012046Y002569D02*
X012046Y002069D01*
X012296Y001819D01*
X012796Y001819D01*
X013046Y002069D01*
X013046Y002569D01*
X012796Y002819D01*
X012296Y002819D01*
X012046Y002569D01*
X002370Y012180D02*
X001870Y012180D01*
X001620Y012430D01*
X001620Y012930D01*
X001870Y013180D01*
X001620Y013430D01*
X001620Y013930D01*
X001870Y014180D01*
X001620Y014430D01*
X001620Y014930D01*
X001870Y015180D01*
X001620Y015430D01*
X001620Y015930D01*
X001870Y016180D01*
X001620Y016430D01*
X001620Y016930D01*
X001870Y017180D01*
X001620Y017430D01*
X001620Y017930D01*
X001870Y018180D01*
X001620Y018430D01*
X001620Y018930D01*
X001870Y019180D01*
X001620Y019430D01*
X001620Y019930D01*
X001870Y020180D01*
X001620Y020430D01*
X001620Y020930D01*
X001870Y021180D01*
X001620Y021430D01*
X001620Y021930D01*
X001870Y022180D01*
X002370Y022180D01*
X002620Y021930D01*
X002620Y021430D01*
X002370Y021180D01*
X002620Y020930D01*
X002620Y020430D01*
X002370Y020180D01*
X002620Y019930D01*
X002620Y019430D01*
X002370Y019180D01*
X002620Y018930D01*
X002620Y018430D01*
X002370Y018180D01*
X002620Y017930D01*
X002620Y017430D01*
X002370Y017180D01*
X002620Y016930D01*
X002620Y016430D01*
X002370Y016180D01*
X002620Y015930D01*
X002620Y015430D01*
X002370Y015180D01*
X002620Y014930D01*
X002620Y014430D01*
X002370Y014180D01*
X002620Y013930D01*
X002620Y013430D01*
X002370Y013180D01*
X002620Y012930D01*
X002620Y012430D01*
X002370Y012180D01*
X014426Y020339D02*
X014676Y020089D01*
X015176Y020089D01*
X015426Y020339D01*
X015426Y020839D01*
X015176Y021089D01*
X014676Y021089D01*
X014426Y020839D01*
X014426Y020339D01*
X011234Y021619D02*
X011234Y022119D01*
X010984Y022369D01*
X010484Y022369D01*
X010234Y022119D01*
X010234Y021619D01*
X010484Y021369D01*
X010984Y021369D01*
X011234Y021619D01*
X013024Y025333D02*
X013524Y025333D01*
X013774Y025583D01*
X013774Y026083D01*
X013524Y026333D01*
X013024Y026333D01*
X012774Y026083D01*
X012774Y025583D01*
X013024Y025333D01*
X016654Y033980D02*
X023054Y033980D01*
X025954Y033980D01*
X025971Y033982D01*
X025988Y033986D01*
X026004Y033993D01*
X026018Y034003D01*
X026031Y034016D01*
X026041Y034030D01*
X026048Y034046D01*
X026052Y034063D01*
X026054Y034080D01*
X026054Y034730D01*
X026454Y034730D01*
X026471Y034732D01*
X026488Y034736D01*
X026504Y034743D01*
X026518Y034753D01*
X026531Y034766D01*
X026541Y034780D01*
X026548Y034796D01*
X026552Y034813D01*
X026554Y034830D01*
X026554Y036130D01*
X026552Y036147D01*
X026548Y036164D01*
X026541Y036180D01*
X026531Y036194D01*
X026518Y036207D01*
X026504Y036217D01*
X026488Y036224D01*
X026471Y036228D01*
X026454Y036230D01*
X026054Y036230D01*
X026054Y034730D01*
X026054Y036230D02*
X026054Y036880D01*
X026052Y036897D01*
X026048Y036914D01*
X026041Y036930D01*
X026031Y036944D01*
X026018Y036957D01*
X026004Y036967D01*
X025988Y036974D01*
X025971Y036978D01*
X025954Y036980D01*
X023054Y036980D01*
X016654Y036980D01*
X016637Y036978D01*
X016620Y036974D01*
X016604Y036967D01*
X016590Y036957D01*
X016577Y036944D01*
X016567Y036930D01*
X016560Y036914D01*
X016556Y036897D01*
X016554Y036880D01*
X016554Y034080D01*
X016556Y034063D01*
X016560Y034046D01*
X016567Y034030D01*
X016577Y034016D01*
X016590Y034003D01*
X016604Y033993D01*
X016620Y033986D01*
X016637Y033982D01*
X016654Y033980D01*
X023054Y033980D02*
X023054Y036980D01*
X040354Y036880D02*
X040354Y034080D01*
X040356Y034063D01*
X040360Y034046D01*
X040367Y034030D01*
X040377Y034016D01*
X040390Y034003D01*
X040404Y033993D01*
X040420Y033986D01*
X040437Y033982D01*
X040454Y033980D01*
X046854Y033980D01*
X049754Y033980D01*
X049771Y033982D01*
X049788Y033986D01*
X049804Y033993D01*
X049818Y034003D01*
X049831Y034016D01*
X049841Y034030D01*
X049848Y034046D01*
X049852Y034063D01*
X049854Y034080D01*
X049854Y034730D01*
X050254Y034730D01*
X050271Y034732D01*
X050288Y034736D01*
X050304Y034743D01*
X050318Y034753D01*
X050331Y034766D01*
X050341Y034780D01*
X050348Y034796D01*
X050352Y034813D01*
X050354Y034830D01*
X050354Y036130D01*
X050352Y036147D01*
X050348Y036164D01*
X050341Y036180D01*
X050331Y036194D01*
X050318Y036207D01*
X050304Y036217D01*
X050288Y036224D01*
X050271Y036228D01*
X050254Y036230D01*
X049854Y036230D01*
X049854Y034730D01*
X049854Y036230D02*
X049854Y036880D01*
X049852Y036897D01*
X049848Y036914D01*
X049841Y036930D01*
X049831Y036944D01*
X049818Y036957D01*
X049804Y036967D01*
X049788Y036974D01*
X049771Y036978D01*
X049754Y036980D01*
X046854Y036980D01*
X040454Y036980D01*
X040437Y036978D01*
X040420Y036974D01*
X040404Y036967D01*
X040390Y036957D01*
X040377Y036944D01*
X040367Y036930D01*
X040360Y036914D01*
X040356Y036897D01*
X040354Y036880D01*
X046854Y036980D02*
X046854Y033980D01*
X054251Y031234D02*
X054251Y030734D01*
X054501Y030484D01*
X055001Y030484D01*
X055251Y030734D01*
X055251Y031234D01*
X055001Y031484D01*
X054501Y031484D01*
X054251Y031234D01*
X045387Y025690D02*
X045389Y025705D01*
X045395Y025718D01*
X045404Y025730D01*
X045415Y025739D01*
X045429Y025745D01*
X045444Y025747D01*
X045459Y025745D01*
X045472Y025739D01*
X045484Y025730D01*
X045493Y025719D01*
X045499Y025705D01*
X045501Y025690D01*
X045499Y025675D01*
X045493Y025662D01*
X045484Y025650D01*
X045473Y025641D01*
X045459Y025635D01*
X045444Y025633D01*
X045429Y025635D01*
X045416Y025641D01*
X045404Y025650D01*
X045395Y025661D01*
X045389Y025675D01*
X045387Y025690D01*
X037622Y009231D02*
X036795Y009231D01*
X036362Y009231D02*
X035535Y009231D01*
X035535Y007578D01*
X035968Y007145D01*
X036382Y007145D01*
X036795Y007145D02*
X037189Y007145D01*
X037622Y007578D01*
X037622Y009231D01*
X038915Y008780D02*
X038915Y008465D01*
X038915Y008780D02*
X039151Y008780D01*
X039781Y008780D02*
X040017Y008780D01*
X040017Y008465D01*
X036795Y009153D02*
X036854Y009138D01*
X036911Y009120D01*
X036968Y009098D01*
X037023Y009073D01*
X037076Y009044D01*
X037128Y009012D01*
X037177Y008977D01*
X037224Y008939D01*
X037269Y008898D01*
X037311Y008854D01*
X037350Y008808D01*
X037386Y008760D01*
X037420Y008709D01*
X037450Y008656D01*
X037476Y008602D01*
X037500Y008546D01*
X037519Y008489D01*
X037535Y008430D01*
X037548Y008371D01*
X037557Y008311D01*
X037562Y008251D01*
X037563Y008190D01*
X037560Y008129D01*
X037554Y008069D01*
X037544Y008009D01*
X037530Y007950D01*
X037513Y007892D01*
X037492Y007835D01*
X037468Y007780D01*
X037440Y007726D01*
X037409Y007674D01*
X037375Y007624D01*
X037337Y007576D01*
X037297Y007531D01*
X037254Y007488D01*
X037209Y007448D01*
X037161Y007411D01*
X037111Y007377D01*
X037059Y007346D01*
X037005Y007319D01*
X036949Y007294D01*
X036892Y007274D01*
X036834Y007257D01*
X036775Y007243D01*
X036381Y007223D02*
X036321Y007238D01*
X036262Y007256D01*
X036204Y007279D01*
X036147Y007305D01*
X036093Y007334D01*
X036040Y007367D01*
X035989Y007403D01*
X035941Y007442D01*
X035895Y007484D01*
X035853Y007529D01*
X035812Y007576D01*
X035776Y007626D01*
X035742Y007678D01*
X035711Y007732D01*
X035684Y007788D01*
X035661Y007846D01*
X035641Y007905D01*
X035625Y007965D01*
X035613Y008025D01*
X035604Y008087D01*
X035600Y008149D01*
X035599Y008211D01*
X035602Y008273D01*
X035610Y008335D01*
X035621Y008396D01*
X035635Y008456D01*
X035654Y008515D01*
X035676Y008573D01*
X035702Y008630D01*
X035731Y008684D01*
X035764Y008737D01*
X035800Y008788D01*
X035839Y008836D01*
X035881Y008882D01*
X035926Y008925D01*
X035973Y008965D01*
X036023Y009002D01*
X036075Y009036D01*
X036129Y009066D01*
X036185Y009093D01*
X036243Y009117D01*
X036302Y009137D01*
X036362Y009153D01*
X053877Y003559D02*
X053877Y003059D01*
X054127Y002809D01*
X054627Y002809D01*
X054877Y003059D01*
X054877Y003559D01*
X054627Y003809D01*
X054127Y003809D01*
X053877Y003559D01*
D12*
X049371Y004939D02*
X049371Y004993D01*
X049372Y004992D02*
X049387Y004994D01*
X049401Y005000D01*
X049414Y005008D01*
X049424Y005018D01*
X049432Y005031D01*
X049438Y005045D01*
X049440Y005060D01*
X049493Y005061D01*
X049494Y005060D01*
X049492Y005039D01*
X049486Y005019D01*
X049477Y005000D01*
X049465Y004982D01*
X049450Y004967D01*
X049432Y004955D01*
X049413Y004946D01*
X049393Y004940D01*
X049372Y004938D01*
X049372Y004943D01*
X049392Y004945D01*
X049412Y004951D01*
X049430Y004960D01*
X049446Y004971D01*
X049461Y004986D01*
X049472Y005002D01*
X049481Y005020D01*
X049487Y005040D01*
X049489Y005060D01*
X049484Y005060D01*
X049482Y005041D01*
X049476Y005022D01*
X049468Y005005D01*
X049457Y004989D01*
X049443Y004975D01*
X049427Y004964D01*
X049410Y004956D01*
X049391Y004950D01*
X049372Y004948D01*
X049372Y004953D01*
X049390Y004955D01*
X049408Y004960D01*
X049425Y004968D01*
X049440Y004979D01*
X049453Y004992D01*
X049464Y005007D01*
X049472Y005024D01*
X049477Y005042D01*
X049479Y005060D01*
X049474Y005060D01*
X049472Y005040D01*
X049465Y005021D01*
X049456Y005004D01*
X049443Y004989D01*
X049428Y004976D01*
X049411Y004967D01*
X049392Y004960D01*
X049372Y004958D01*
X049372Y004963D01*
X049391Y004965D01*
X049409Y004971D01*
X049425Y004980D01*
X049440Y004992D01*
X049452Y005007D01*
X049461Y005023D01*
X049467Y005041D01*
X049469Y005060D01*
X049464Y005060D01*
X049462Y005042D01*
X049456Y005025D01*
X049448Y005010D01*
X049436Y004996D01*
X049422Y004984D01*
X049407Y004976D01*
X049390Y004970D01*
X049372Y004968D01*
X049372Y004973D01*
X049389Y004975D01*
X049405Y004980D01*
X049420Y004989D01*
X049433Y004999D01*
X049443Y005012D01*
X049452Y005027D01*
X049457Y005043D01*
X049459Y005060D01*
X049454Y005060D01*
X049452Y005044D01*
X049447Y005029D01*
X049439Y005015D01*
X049429Y005003D01*
X049417Y004993D01*
X049403Y004985D01*
X049388Y004980D01*
X049372Y004978D01*
X049372Y004983D01*
X049389Y004986D01*
X049405Y004991D01*
X049419Y005001D01*
X049431Y005013D01*
X049441Y005027D01*
X049446Y005043D01*
X049449Y005060D01*
X049444Y005060D01*
X049442Y005044D01*
X049436Y005029D01*
X049427Y005016D01*
X049416Y005005D01*
X049403Y004996D01*
X049388Y004990D01*
X049372Y004988D01*
X048273Y005061D02*
X048327Y005061D01*
X048326Y005060D02*
X048328Y005045D01*
X048334Y005031D01*
X048342Y005018D01*
X048352Y005008D01*
X048365Y005000D01*
X048379Y004994D01*
X048394Y004992D01*
X048395Y004939D01*
X048394Y004938D01*
X048373Y004940D01*
X048353Y004946D01*
X048334Y004955D01*
X048316Y004967D01*
X048301Y004982D01*
X048289Y005000D01*
X048280Y005019D01*
X048274Y005039D01*
X048272Y005060D01*
X048277Y005060D01*
X048279Y005040D01*
X048285Y005020D01*
X048294Y005002D01*
X048305Y004986D01*
X048320Y004971D01*
X048336Y004960D01*
X048354Y004951D01*
X048374Y004945D01*
X048394Y004943D01*
X048394Y004948D01*
X048375Y004950D01*
X048356Y004956D01*
X048339Y004964D01*
X048323Y004975D01*
X048309Y004989D01*
X048298Y005005D01*
X048290Y005022D01*
X048284Y005041D01*
X048282Y005060D01*
X048287Y005060D01*
X048289Y005042D01*
X048294Y005024D01*
X048302Y005007D01*
X048313Y004992D01*
X048326Y004979D01*
X048341Y004968D01*
X048358Y004960D01*
X048376Y004955D01*
X048394Y004953D01*
X048394Y004958D01*
X048374Y004960D01*
X048355Y004967D01*
X048338Y004976D01*
X048323Y004989D01*
X048310Y005004D01*
X048301Y005021D01*
X048294Y005040D01*
X048292Y005060D01*
X048297Y005060D01*
X048299Y005041D01*
X048305Y005023D01*
X048314Y005007D01*
X048326Y004992D01*
X048341Y004980D01*
X048357Y004971D01*
X048375Y004965D01*
X048394Y004963D01*
X048394Y004968D01*
X048376Y004970D01*
X048359Y004976D01*
X048344Y004984D01*
X048330Y004996D01*
X048318Y005010D01*
X048310Y005025D01*
X048304Y005042D01*
X048302Y005060D01*
X048307Y005060D01*
X048309Y005043D01*
X048314Y005027D01*
X048323Y005012D01*
X048333Y004999D01*
X048346Y004989D01*
X048361Y004980D01*
X048377Y004975D01*
X048394Y004973D01*
X048394Y004978D01*
X048378Y004980D01*
X048363Y004985D01*
X048349Y004993D01*
X048337Y005003D01*
X048327Y005015D01*
X048319Y005029D01*
X048314Y005044D01*
X048312Y005060D01*
X048317Y005060D01*
X048320Y005043D01*
X048325Y005027D01*
X048335Y005013D01*
X048347Y005001D01*
X048361Y004991D01*
X048377Y004986D01*
X048394Y004983D01*
X048394Y004988D01*
X048378Y004990D01*
X048363Y004996D01*
X048350Y005005D01*
X048339Y005016D01*
X048330Y005029D01*
X048324Y005044D01*
X048322Y005060D01*
D13*
X003539Y003435D02*
X003539Y003199D01*
X004011Y003199D02*
X004011Y003435D01*
X004017Y004419D02*
X004017Y004656D01*
X003545Y004656D02*
X003545Y004419D01*
X008511Y009393D02*
X008748Y009393D01*
X008748Y009865D02*
X008511Y009865D01*
X008560Y011575D02*
X008324Y011575D01*
X008324Y012048D02*
X008560Y012048D01*
X008560Y012451D02*
X008324Y012451D01*
X008324Y012923D02*
X008560Y012923D01*
X008074Y013452D02*
X007837Y013452D01*
X007837Y013925D02*
X008074Y013925D01*
X008074Y015923D02*
X007837Y015923D01*
X007837Y016396D02*
X008074Y016396D01*
X008383Y016562D02*
X008619Y016562D01*
X008619Y017034D02*
X008383Y017034D01*
X008383Y017183D02*
X008619Y017183D01*
X008619Y017656D02*
X008383Y017656D01*
X008482Y018625D02*
X008482Y018861D01*
X008659Y018861D02*
X008659Y018625D01*
X009131Y018625D02*
X009131Y018861D01*
X009250Y018868D02*
X009250Y018632D01*
X009723Y018632D02*
X009723Y018868D01*
X009879Y018868D02*
X009879Y018632D01*
X010352Y018632D02*
X010352Y018868D01*
X010469Y018868D02*
X010469Y018632D01*
X010941Y018632D02*
X010941Y018868D01*
X011060Y018881D02*
X011060Y018645D01*
X011532Y018645D02*
X011532Y018881D01*
X011651Y018881D02*
X011651Y018645D01*
X012123Y018645D02*
X012123Y018881D01*
X012261Y018888D02*
X012261Y018652D01*
X012734Y018652D02*
X012734Y018888D01*
X013847Y016416D02*
X013847Y016180D01*
X014319Y016180D02*
X014319Y016416D01*
X013493Y015545D02*
X013493Y015308D01*
X013848Y015204D02*
X013848Y014967D01*
X014320Y014967D02*
X014320Y015204D01*
X013020Y015308D02*
X013020Y015545D01*
X012337Y014885D02*
X012100Y014885D01*
X012100Y014412D02*
X012337Y014412D01*
X008010Y018625D02*
X008010Y018861D01*
X044236Y025544D02*
X044472Y025544D01*
X044472Y026016D02*
X044236Y026016D01*
X044236Y026444D02*
X044472Y026444D01*
X044472Y026916D02*
X044236Y026916D01*
X045224Y027380D02*
X045224Y025370D01*
X047084Y025370D02*
X047084Y027380D01*
X048356Y008011D02*
X048592Y008011D01*
X048592Y007539D02*
X048356Y007539D01*
X048356Y007141D02*
X048592Y007141D01*
X048592Y006669D02*
X048356Y006669D01*
X048397Y006130D02*
X049369Y006130D01*
X049369Y006129D02*
X049386Y006128D01*
X049403Y006123D01*
X049418Y006116D01*
X049432Y006106D01*
X049444Y006094D01*
X049454Y006080D01*
X049461Y006065D01*
X049466Y006048D01*
X049467Y006031D01*
X049467Y006035D02*
X049467Y005067D01*
X049365Y004964D02*
X048397Y004964D01*
X048298Y005067D02*
X048298Y006035D01*
X048299Y006031D02*
X048300Y006048D01*
X048305Y006065D01*
X048312Y006080D01*
X048322Y006094D01*
X048334Y006106D01*
X048348Y006116D01*
X048363Y006123D01*
X048380Y006128D01*
X048397Y006129D01*
X045835Y005928D02*
X045599Y005928D01*
X045613Y005377D02*
X045849Y005377D01*
X045849Y004904D02*
X045613Y004904D01*
X047310Y004350D02*
X047546Y004350D01*
X047546Y003878D02*
X047310Y003878D01*
X047290Y003500D02*
X047526Y003500D01*
X047526Y003027D02*
X047290Y003027D01*
X045835Y006400D02*
X045599Y006400D01*
D14*
X049009Y005291D02*
X049011Y005313D01*
X049017Y005335D01*
X049026Y005355D01*
X049039Y005373D01*
X049055Y005389D01*
X049073Y005402D01*
X049093Y005411D01*
X049115Y005417D01*
X049137Y005419D01*
X049159Y005417D01*
X049181Y005411D01*
X049201Y005402D01*
X049219Y005389D01*
X049235Y005373D01*
X049248Y005355D01*
X049257Y005335D01*
X049263Y005313D01*
X049265Y005291D01*
X049263Y005269D01*
X049257Y005247D01*
X049248Y005227D01*
X049235Y005209D01*
X049219Y005193D01*
X049201Y005180D01*
X049181Y005171D01*
X049159Y005165D01*
X049137Y005163D01*
X049115Y005165D01*
X049093Y005171D01*
X049073Y005180D01*
X049055Y005193D01*
X049039Y005209D01*
X049026Y005227D01*
X049017Y005247D01*
X049011Y005269D01*
X049009Y005291D01*
D15*
X034920Y015180D02*
X034922Y015308D01*
X034928Y015436D01*
X034938Y015563D01*
X034952Y015691D01*
X034969Y015817D01*
X034991Y015943D01*
X035017Y016069D01*
X035046Y016193D01*
X035079Y016317D01*
X035116Y016439D01*
X035157Y016560D01*
X035202Y016680D01*
X035250Y016799D01*
X035302Y016916D01*
X035358Y017031D01*
X035417Y017145D01*
X035479Y017256D01*
X035545Y017366D01*
X035614Y017473D01*
X035687Y017579D01*
X035763Y017682D01*
X035842Y017782D01*
X035924Y017881D01*
X036009Y017976D01*
X036097Y018069D01*
X036188Y018159D01*
X036281Y018246D01*
X036378Y018331D01*
X036476Y018412D01*
X036578Y018490D01*
X036681Y018565D01*
X036787Y018637D01*
X036895Y018706D01*
X037005Y018771D01*
X037118Y018832D01*
X037232Y018891D01*
X037347Y018945D01*
X037465Y018996D01*
X037583Y019044D01*
X037704Y019087D01*
X037825Y019127D01*
X037948Y019163D01*
X038072Y019196D01*
X038197Y019224D01*
X038322Y019249D01*
X038448Y019269D01*
X038575Y019286D01*
X038703Y019299D01*
X038830Y019308D01*
X038958Y019313D01*
X039086Y019314D01*
X039214Y019311D01*
X039342Y019304D01*
X039469Y019293D01*
X039596Y019278D01*
X039723Y019260D01*
X039849Y019237D01*
X039974Y019210D01*
X040098Y019180D01*
X040221Y019146D01*
X040344Y019108D01*
X040465Y019066D01*
X040584Y019020D01*
X040702Y018971D01*
X040819Y018918D01*
X040934Y018862D01*
X041047Y018802D01*
X041158Y018739D01*
X041267Y018672D01*
X041374Y018602D01*
X041479Y018528D01*
X041581Y018452D01*
X041681Y018372D01*
X041779Y018289D01*
X041874Y018203D01*
X041966Y018114D01*
X042055Y018023D01*
X042142Y017929D01*
X042225Y017832D01*
X042306Y017732D01*
X042383Y017631D01*
X042458Y017526D01*
X042529Y017420D01*
X042596Y017311D01*
X042661Y017201D01*
X042721Y017088D01*
X042779Y016974D01*
X042832Y016858D01*
X042882Y016740D01*
X042929Y016621D01*
X042972Y016500D01*
X043011Y016378D01*
X043046Y016255D01*
X043077Y016131D01*
X043105Y016006D01*
X043128Y015880D01*
X043148Y015754D01*
X043164Y015627D01*
X043176Y015500D01*
X043184Y015372D01*
X043188Y015244D01*
X043188Y015116D01*
X043184Y014988D01*
X043176Y014860D01*
X043164Y014733D01*
X043148Y014606D01*
X043128Y014480D01*
X043105Y014354D01*
X043077Y014229D01*
X043046Y014105D01*
X043011Y013982D01*
X042972Y013860D01*
X042929Y013739D01*
X042882Y013620D01*
X042832Y013502D01*
X042779Y013386D01*
X042721Y013272D01*
X042661Y013159D01*
X042596Y013049D01*
X042529Y012940D01*
X042458Y012834D01*
X042383Y012729D01*
X042306Y012628D01*
X042225Y012528D01*
X042142Y012431D01*
X042055Y012337D01*
X041966Y012246D01*
X041874Y012157D01*
X041779Y012071D01*
X041681Y011988D01*
X041581Y011908D01*
X041479Y011832D01*
X041374Y011758D01*
X041267Y011688D01*
X041158Y011621D01*
X041047Y011558D01*
X040934Y011498D01*
X040819Y011442D01*
X040702Y011389D01*
X040584Y011340D01*
X040465Y011294D01*
X040344Y011252D01*
X040221Y011214D01*
X040098Y011180D01*
X039974Y011150D01*
X039849Y011123D01*
X039723Y011100D01*
X039596Y011082D01*
X039469Y011067D01*
X039342Y011056D01*
X039214Y011049D01*
X039086Y011046D01*
X038958Y011047D01*
X038830Y011052D01*
X038703Y011061D01*
X038575Y011074D01*
X038448Y011091D01*
X038322Y011111D01*
X038197Y011136D01*
X038072Y011164D01*
X037948Y011197D01*
X037825Y011233D01*
X037704Y011273D01*
X037583Y011316D01*
X037465Y011364D01*
X037347Y011415D01*
X037232Y011469D01*
X037118Y011528D01*
X037005Y011589D01*
X036895Y011654D01*
X036787Y011723D01*
X036681Y011795D01*
X036578Y011870D01*
X036476Y011948D01*
X036378Y012029D01*
X036281Y012114D01*
X036188Y012201D01*
X036097Y012291D01*
X036009Y012384D01*
X035924Y012479D01*
X035842Y012578D01*
X035763Y012678D01*
X035687Y012781D01*
X035614Y012887D01*
X035545Y012994D01*
X035479Y013104D01*
X035417Y013215D01*
X035358Y013329D01*
X035302Y013444D01*
X035250Y013561D01*
X035202Y013680D01*
X035157Y013800D01*
X035116Y013921D01*
X035079Y014043D01*
X035046Y014167D01*
X035017Y014291D01*
X034991Y014417D01*
X034969Y014543D01*
X034952Y014669D01*
X034938Y014797D01*
X034928Y014924D01*
X034922Y015052D01*
X034920Y015180D01*
D16*
X035354Y008880D02*
X035354Y021480D01*
X022754Y021480D01*
X022754Y008880D01*
X035354Y008880D01*
X041341Y004294D02*
X042916Y004294D01*
X042916Y003960D01*
X041932Y003960D01*
X041932Y003408D01*
X041932Y002030D02*
X041932Y001479D01*
X042916Y001479D01*
X042916Y001145D01*
X041341Y001145D01*
X039963Y001834D02*
X039963Y003605D01*
X053602Y019143D02*
X054704Y019143D01*
X054704Y020797D01*
X053602Y020797D01*
X053602Y019143D01*
X054074Y019537D02*
X054232Y019537D01*
X054260Y019539D01*
X054288Y019544D01*
X054316Y019552D01*
X054342Y019564D01*
X054366Y019579D01*
X054388Y019596D01*
X054409Y019617D01*
X054426Y019639D01*
X054441Y019663D01*
X054453Y019689D01*
X054461Y019717D01*
X054466Y019745D01*
X054468Y019773D01*
X054468Y020167D01*
X054466Y020195D01*
X054461Y020223D01*
X054453Y020251D01*
X054441Y020277D01*
X054426Y020301D01*
X054409Y020323D01*
X054388Y020344D01*
X054366Y020361D01*
X054342Y020376D01*
X054316Y020388D01*
X054288Y020396D01*
X054260Y020401D01*
X054232Y020403D01*
X054074Y020403D01*
X054046Y020401D01*
X054018Y020396D01*
X053990Y020388D01*
X053964Y020376D01*
X053940Y020361D01*
X053918Y020344D01*
X053897Y020323D01*
X053880Y020301D01*
X053865Y020277D01*
X053853Y020251D01*
X053845Y020223D01*
X053840Y020195D01*
X053838Y020167D01*
X053838Y019773D01*
X053840Y019745D01*
X053845Y019717D01*
X053853Y019689D01*
X053865Y019663D01*
X053880Y019639D01*
X053897Y019617D01*
X053918Y019596D01*
X053940Y019579D01*
X053964Y019564D01*
X053990Y019552D01*
X054018Y019544D01*
X054046Y019539D01*
X054074Y019537D01*
X056254Y032730D02*
X051554Y032730D01*
X051554Y033630D01*
X056254Y033630D01*
X056254Y032730D01*
X056254Y033630D02*
X056254Y037330D01*
X051554Y037330D01*
X051554Y038230D01*
X056254Y038230D01*
X056254Y037330D01*
X039154Y037330D02*
X034454Y037330D01*
X034454Y033630D01*
X039154Y033630D01*
X039154Y032730D01*
X034454Y032730D01*
X034454Y033630D01*
X032454Y033630D02*
X032454Y032730D01*
X027754Y032730D01*
X027754Y033630D01*
X032454Y033630D01*
X032454Y037330D01*
X027754Y037330D01*
X027754Y038230D01*
X032454Y038230D01*
X032454Y037330D01*
X034454Y037330D02*
X034454Y038230D01*
X039154Y038230D01*
X039154Y037330D01*
X015354Y037330D02*
X010654Y037330D01*
X010654Y033630D01*
X015354Y033630D01*
X015354Y032730D01*
X010654Y032730D01*
X010654Y033630D01*
X010654Y037330D02*
X010654Y038230D01*
X015354Y038230D01*
X015354Y037330D01*
X015219Y014097D02*
X012463Y014097D01*
X012463Y011341D01*
X015219Y011341D01*
X015219Y014097D01*
D17*
X046278Y020578D02*
X046278Y020736D01*
X046553Y020736D02*
X046553Y020578D01*
D18*
X046302Y020608D03*
D19*
X048354Y034680D02*
X048354Y036280D01*
X047554Y035480D02*
X049154Y035480D01*
X025354Y035480D02*
X023754Y035480D01*
X024554Y036280D02*
X024554Y034680D01*
D20*
X043264Y003981D02*
X043264Y003654D01*
X043101Y003818D02*
X043428Y003818D01*
X043264Y001731D02*
X043264Y001404D01*
M02*
