G75*
%MOIN*%
%OFA0B0*%
%FSLAX24Y24*%
%IPPOS*%
%LPD*%
%AMOC8*
5,1,8,0,0,1.08239X$1,22.5*
%
%ADD10C,0.1320*%
%ADD11R,0.0800X0.0800*%
%ADD12OC8,0.0800*%
%ADD13C,0.0916*%
%ADD14OC8,0.0720*%
%ADD15C,0.0800*%
%ADD16C,0.0800*%
%ADD17C,0.0414*%
D10*
X002153Y002129D03*
X011799Y013940D03*
X023019Y017680D03*
X023019Y002129D03*
D11*
X022716Y007034D03*
D12*
X023716Y007034D03*
X023716Y008034D03*
X022716Y008034D03*
X022716Y009034D03*
X023716Y009034D03*
D13*
X013374Y008034D02*
X012517Y008034D01*
X012517Y006066D02*
X013374Y006066D01*
X013374Y004097D02*
X012517Y004097D01*
X005175Y016892D02*
X004318Y016892D01*
X003137Y016892D02*
X002281Y016892D01*
X002281Y018073D02*
X003137Y018073D01*
X004318Y018073D02*
X005175Y018073D01*
X007793Y018073D02*
X008649Y018073D01*
D14*
X022716Y015145D03*
X023716Y015145D03*
X023691Y011823D03*
X022691Y011823D03*
D15*
X022797Y004826D02*
X023537Y004826D01*
X023537Y003826D02*
X022797Y003826D01*
D16*
X020928Y010823D03*
X020928Y011823D03*
X020977Y014145D03*
X020977Y015145D03*
D17*
X018738Y011602D03*
X017065Y008452D03*
X014875Y007911D03*
X014555Y006312D03*
X017630Y004761D03*
X008649Y007911D03*
X004614Y010470D03*
X003310Y007862D03*
X001636Y013300D03*
X007370Y014604D03*
X013152Y015785D03*
X015490Y016646D03*
X013423Y012242D03*
M02*
