G75*
%MOIN*%
%OFA0B0*%
%FSLAX24Y24*%
%IPPOS*%
%LPD*%
%AMOC8*
5,1,8,0,0,1.08239X$1,22.5*
%
%ADD10C,0.0160*%
%ADD11C,0.0000*%
%ADD12C,0.0105*%
%ADD13R,0.0134X0.0134*%
%ADD14C,0.0063*%
%ADD15R,0.0433X0.0394*%
%ADD16R,0.0394X0.0433*%
%ADD17C,0.3937*%
%ADD18C,0.0945*%
%ADD19C,0.1502*%
%ADD20R,0.0870X0.0240*%
%ADD21R,0.0740X0.0740*%
%ADD22OC8,0.0740*%
%ADD23R,0.0591X0.0512*%
%ADD24R,0.0394X0.0551*%
%ADD25C,0.1050*%
%ADD26R,0.0512X0.0591*%
%ADD27R,0.0394X0.1811*%
%ADD28R,0.0630X0.1339*%
%ADD29R,0.0610X0.0512*%
%ADD30R,0.1024X0.0394*%
%ADD31C,0.0394*%
%ADD32R,0.0512X0.0748*%
%ADD33R,0.0551X0.0394*%
%ADD34C,0.0050*%
%ADD35C,0.1969*%
%ADD36R,0.0630X0.0157*%
%ADD37R,0.0618X0.0744*%
%ADD38C,0.0297*%
%ADD39C,0.0354*%
%ADD40C,0.0200*%
%ADD41C,0.0079*%
%ADD42C,0.0100*%
%ADD43C,0.0120*%
%ADD44C,0.0240*%
%ADD45C,0.0218*%
%ADD46C,0.0320*%
D10*
X004437Y004460D02*
X007914Y004460D01*
X007914Y004618D02*
X004278Y004618D01*
X004120Y004777D02*
X007914Y004777D01*
X007914Y004935D02*
X003961Y004935D01*
X003950Y004947D02*
X003062Y006042D01*
X002295Y007225D01*
X001655Y008481D01*
X001149Y009797D01*
X000784Y011159D01*
X000564Y012552D01*
X000490Y013960D01*
X000564Y015367D01*
X000784Y016760D01*
X001149Y018122D01*
X001655Y019438D01*
X002295Y020694D01*
X003062Y021877D01*
X003950Y022972D01*
X004947Y023969D01*
X006042Y024857D01*
X007225Y025624D01*
X008481Y026265D01*
X009410Y026621D01*
X009410Y026108D01*
X009045Y025743D01*
X009045Y024511D01*
X009156Y024399D01*
X009203Y024353D01*
X008966Y024117D01*
X008966Y023330D01*
X009498Y022798D01*
X009609Y022687D01*
X003719Y022687D01*
X003847Y022846D02*
X009450Y022846D01*
X009292Y023004D02*
X003981Y023004D01*
X004140Y023163D02*
X009133Y023163D01*
X008975Y023321D02*
X004298Y023321D01*
X004457Y023480D02*
X008966Y023480D01*
X008966Y023638D02*
X004615Y023638D01*
X004774Y023797D02*
X008966Y023797D01*
X008966Y023955D02*
X004932Y023955D01*
X005125Y024114D02*
X008966Y024114D01*
X009121Y024272D02*
X005320Y024272D01*
X005516Y024431D02*
X009125Y024431D01*
X009156Y024399D02*
X009156Y024399D01*
X009045Y024589D02*
X005712Y024589D01*
X005908Y024748D02*
X009045Y024748D01*
X009045Y024906D02*
X006118Y024906D01*
X006363Y025065D02*
X009045Y025065D01*
X009045Y025223D02*
X006607Y025223D01*
X006851Y025382D02*
X009045Y025382D01*
X009045Y025540D02*
X007095Y025540D01*
X007370Y025699D02*
X009045Y025699D01*
X009159Y025857D02*
X007681Y025857D01*
X007992Y026016D02*
X009318Y026016D01*
X009410Y026174D02*
X008303Y026174D01*
X008658Y026333D02*
X009410Y026333D01*
X009410Y026491D02*
X009071Y026491D01*
X009743Y026749D02*
X009797Y026770D01*
X011159Y027135D01*
X012552Y027355D01*
X013960Y027429D01*
X015367Y027355D01*
X016760Y027135D01*
X018122Y026770D01*
X019438Y026265D01*
X020060Y025948D01*
X020036Y025944D01*
X019993Y025924D01*
X019957Y025893D01*
X019824Y025703D01*
X020182Y025453D01*
X020404Y025771D01*
X020395Y025777D01*
X020694Y025624D01*
X021877Y024857D01*
X022945Y023991D01*
X022738Y024136D01*
X022694Y024153D01*
X022646Y024157D01*
X022600Y024148D01*
X022557Y024128D01*
X022520Y024098D01*
X022388Y023908D01*
X022746Y023657D01*
X022691Y023579D01*
X022333Y023830D01*
X022200Y023640D01*
X022183Y023595D01*
X022179Y023548D01*
X022188Y023501D01*
X022208Y023459D01*
X022238Y023422D01*
X022468Y023261D01*
X022691Y023579D01*
X022769Y023524D01*
X022547Y023206D01*
X022777Y023045D01*
X022821Y023029D01*
X022869Y023025D01*
X022915Y023033D01*
X022958Y023053D01*
X022994Y023083D01*
X023127Y023273D01*
X022769Y023524D01*
X022824Y023602D01*
X023182Y023352D01*
X023315Y023541D01*
X023331Y023586D01*
X023333Y023608D01*
X023969Y022972D01*
X024857Y021877D01*
X024980Y021686D01*
X024593Y022074D01*
X024475Y022191D01*
X023255Y022191D01*
X021837Y023609D01*
X021720Y023726D01*
X020743Y023726D01*
X020714Y023756D01*
X020597Y023804D01*
X020471Y023804D01*
X020355Y023756D01*
X020265Y023667D01*
X020217Y023550D01*
X020217Y023453D01*
X019862Y023097D01*
X019862Y023083D01*
X019580Y022801D01*
X019566Y022801D01*
X019369Y022605D01*
X019369Y022741D01*
X018754Y022741D01*
X018754Y023041D01*
X018411Y023041D01*
X018441Y023071D01*
X018489Y023188D01*
X018489Y023314D01*
X018441Y023431D01*
X018352Y023520D01*
X018243Y023565D01*
X018683Y024005D01*
X018633Y023933D01*
X018653Y023819D01*
X019228Y023416D01*
X019202Y023391D01*
X019154Y023275D01*
X019154Y023148D01*
X019199Y023041D01*
X018754Y023041D01*
X018754Y022741D01*
X018754Y022741D01*
X018754Y022741D01*
X019369Y022741D01*
X019369Y022885D01*
X019361Y022914D01*
X019408Y022894D01*
X019534Y022894D01*
X019651Y022943D01*
X019740Y023032D01*
X019789Y023148D01*
X019789Y023275D01*
X019740Y023391D01*
X019661Y023470D01*
X019661Y023719D01*
X019608Y023773D01*
X019722Y023936D01*
X019702Y024051D01*
X019130Y024451D01*
X019228Y024550D01*
X019228Y025420D01*
X018919Y025729D01*
X018934Y025744D01*
X018934Y026167D01*
X018635Y026466D01*
X018213Y026466D01*
X017924Y026177D01*
X017635Y026466D01*
X017213Y026466D01*
X016952Y026205D01*
X016652Y026506D01*
X016444Y026506D01*
X016444Y025976D01*
X016404Y025976D01*
X016404Y026506D01*
X016196Y026506D01*
X015874Y026183D01*
X015874Y025976D01*
X016404Y025976D01*
X016404Y025936D01*
X015874Y025936D01*
X015874Y025728D01*
X016001Y025601D01*
X015935Y025534D01*
X015699Y025298D01*
X015699Y023001D01*
X015611Y023001D01*
X015539Y022929D01*
X015298Y022929D01*
X015187Y022818D01*
X015101Y022732D01*
X014854Y022732D01*
X014887Y022746D01*
X014976Y022835D01*
X015025Y022952D01*
X015025Y023012D01*
X015125Y023012D01*
X015242Y023061D01*
X015331Y023150D01*
X015379Y023267D01*
X015379Y023393D01*
X015331Y023509D01*
X015322Y023518D01*
X015322Y024011D01*
X015282Y024107D01*
X015209Y024180D01*
X014520Y024869D01*
X014425Y024909D01*
X014178Y024909D01*
X014178Y024923D01*
X014096Y025005D01*
X013587Y025005D01*
X013505Y024923D01*
X013505Y024374D01*
X013565Y024314D01*
X013505Y024254D01*
X013505Y024247D01*
X013432Y024277D01*
X013306Y024277D01*
X013189Y024228D01*
X013100Y024139D01*
X013052Y024023D01*
X013052Y023896D01*
X013100Y023780D01*
X013189Y023691D01*
X013306Y023642D01*
X013432Y023642D01*
X013527Y023682D01*
X013587Y023623D01*
X013867Y023623D01*
X014054Y023435D01*
X014054Y023351D01*
X013941Y023351D01*
X013881Y023291D01*
X013821Y023351D01*
X013272Y023351D01*
X013190Y023269D01*
X013190Y022671D01*
X012982Y022463D01*
X012982Y022345D01*
X012975Y022339D01*
X012030Y022339D01*
X011879Y022490D01*
X012814Y022490D01*
X012925Y022601D01*
X013008Y022684D01*
X013008Y023585D01*
X012289Y024305D01*
X012289Y024465D01*
X012367Y024543D01*
X012367Y025407D01*
X012285Y025489D01*
X011657Y025489D01*
X011575Y025407D01*
X011575Y024841D01*
X011400Y025016D01*
X010202Y025016D01*
X010202Y025407D01*
X010120Y025489D01*
X009492Y025489D01*
X009425Y025422D01*
X009425Y025586D01*
X009561Y025721D01*
X010120Y025721D01*
X010202Y025803D01*
X010202Y026667D01*
X010120Y026749D01*
X009743Y026749D01*
X009940Y026808D02*
X012740Y026808D01*
X012720Y026779D01*
X012722Y026769D01*
X012721Y026767D01*
X012712Y026762D01*
X012703Y026729D01*
X012689Y026698D01*
X012692Y026688D01*
X012692Y026685D01*
X012684Y026679D01*
X012681Y026645D01*
X012672Y026611D01*
X012677Y026602D01*
X012677Y026600D01*
X012670Y026592D01*
X012673Y026558D01*
X012670Y026524D01*
X012677Y026516D01*
X012677Y026513D01*
X012672Y026504D01*
X012681Y026471D01*
X012684Y026437D01*
X012692Y026430D01*
X012692Y026428D01*
X012689Y026418D01*
X012703Y026387D01*
X012712Y026354D01*
X012721Y026349D01*
X012722Y026347D01*
X012720Y026337D01*
X012740Y026308D01*
X012754Y026277D01*
X012764Y026274D01*
X012766Y026272D01*
X012766Y026261D01*
X012790Y026237D01*
X012809Y026209D01*
X012820Y026207D01*
X012821Y026206D01*
X012823Y026195D01*
X012851Y026176D01*
X012876Y026151D01*
X012886Y026151D01*
X012888Y026150D01*
X012891Y026140D01*
X012923Y026126D01*
X012951Y026106D01*
X012961Y026108D01*
X012963Y026107D01*
X012968Y026098D01*
X013001Y026089D01*
X013033Y026074D01*
X013042Y026078D01*
X013045Y026077D01*
X013051Y026069D01*
X013085Y026066D01*
X013119Y026058D01*
X013128Y026063D01*
X013130Y026063D01*
X013138Y026056D01*
X013172Y026059D01*
X013206Y026056D01*
X013214Y026063D01*
X013217Y026063D01*
X013226Y026058D01*
X013259Y026066D01*
X013293Y026069D01*
X013300Y026077D01*
X013302Y026078D01*
X013312Y026074D01*
X013343Y026089D01*
X013376Y026098D01*
X013381Y026107D01*
X013383Y026108D01*
X013394Y026106D01*
X013422Y026126D01*
X013453Y026140D01*
X013456Y026150D01*
X013458Y026151D01*
X013469Y026151D01*
X013493Y026176D01*
X013521Y026195D01*
X013523Y026206D01*
X013525Y026207D01*
X013535Y026209D01*
X013554Y026237D01*
X013579Y026261D01*
X013579Y026272D01*
X013580Y026274D01*
X013590Y026277D01*
X013604Y026308D01*
X013624Y026337D01*
X013622Y026347D01*
X013623Y026349D01*
X013632Y026354D01*
X013641Y026387D01*
X013656Y026418D01*
X013652Y026428D01*
X013653Y026430D01*
X013661Y026437D01*
X013664Y026471D01*
X013673Y026504D01*
X013667Y026513D01*
X013668Y026516D01*
X013674Y026524D01*
X013671Y026558D01*
X013674Y026592D01*
X013668Y026600D01*
X013667Y026602D01*
X013673Y026611D01*
X013664Y026645D01*
X013661Y026679D01*
X013653Y026685D01*
X013652Y026688D01*
X013656Y026698D01*
X013641Y026729D01*
X013632Y026762D01*
X013623Y026767D01*
X013622Y026769D01*
X013624Y026779D01*
X013604Y026808D01*
X017979Y026808D01*
X018435Y026650D02*
X013663Y026650D01*
X013669Y026491D02*
X016182Y026491D01*
X016404Y026491D02*
X016444Y026491D01*
X016444Y026333D02*
X016404Y026333D01*
X016404Y026174D02*
X016444Y026174D01*
X016444Y026016D02*
X016404Y026016D01*
X016825Y026333D02*
X017080Y026333D01*
X016666Y026491D02*
X018848Y026491D01*
X018768Y026333D02*
X019261Y026333D01*
X018927Y026174D02*
X019616Y026174D01*
X019927Y026016D02*
X018934Y026016D01*
X018934Y025857D02*
X019931Y025857D01*
X019831Y025699D02*
X018950Y025699D01*
X019108Y025540D02*
X019709Y025540D01*
X019769Y025625D02*
X019636Y025435D01*
X019620Y025391D01*
X019615Y025343D01*
X019624Y025297D01*
X019644Y025254D01*
X019674Y025217D01*
X019904Y025056D01*
X020127Y025374D01*
X020205Y025319D01*
X019983Y025001D01*
X020213Y024840D01*
X020257Y024824D01*
X020305Y024820D01*
X020351Y024828D01*
X020394Y024848D01*
X020431Y024879D01*
X020563Y025068D01*
X020205Y025319D01*
X020260Y025398D01*
X020182Y025453D01*
X020127Y025374D01*
X019769Y025625D01*
X019890Y025540D02*
X020057Y025540D01*
X020116Y025382D02*
X020132Y025382D01*
X020249Y025382D02*
X020283Y025382D01*
X020260Y025398D02*
X020618Y025147D01*
X020751Y025337D01*
X020768Y025381D01*
X020772Y025428D01*
X020763Y025475D01*
X020743Y025518D01*
X020713Y025554D01*
X020483Y025715D01*
X020260Y025398D01*
X020243Y025540D02*
X020360Y025540D01*
X020354Y025699D02*
X020471Y025699D01*
X020507Y025699D02*
X020549Y025699D01*
X020725Y025540D02*
X020824Y025540D01*
X020768Y025382D02*
X021068Y025382D01*
X021312Y025223D02*
X020672Y025223D01*
X020510Y025223D02*
X020343Y025223D01*
X020138Y025223D02*
X020021Y025223D01*
X020027Y025065D02*
X019910Y025065D01*
X019893Y025065D02*
X019228Y025065D01*
X019228Y025223D02*
X019669Y025223D01*
X019619Y025382D02*
X019228Y025382D01*
X019228Y024906D02*
X020119Y024906D01*
X020450Y024906D02*
X021801Y024906D01*
X022011Y024748D02*
X019228Y024748D01*
X019228Y024589D02*
X022207Y024589D01*
X022403Y024431D02*
X019159Y024431D01*
X019386Y024272D02*
X022599Y024272D01*
X022539Y024114D02*
X019612Y024114D01*
X019719Y023955D02*
X022420Y023955D01*
X022380Y023797D02*
X022547Y023797D01*
X022606Y023638D02*
X022732Y023638D01*
X022738Y023480D02*
X022621Y023480D01*
X022627Y023321D02*
X022510Y023321D01*
X022383Y023321D02*
X022125Y023321D01*
X022198Y023480D02*
X021966Y023480D01*
X021808Y023638D02*
X022199Y023638D01*
X022309Y023797D02*
X020616Y023797D01*
X020453Y023797D02*
X019624Y023797D01*
X019661Y023638D02*
X020254Y023638D01*
X020217Y023480D02*
X019661Y023480D01*
X019769Y023321D02*
X020085Y023321D01*
X019927Y023163D02*
X019789Y023163D01*
X019783Y023004D02*
X019712Y023004D01*
X019624Y022846D02*
X019369Y022846D01*
X019369Y022687D02*
X019451Y022687D01*
X019154Y023163D02*
X018479Y023163D01*
X018486Y023321D02*
X019173Y023321D01*
X019137Y023480D02*
X018392Y023480D01*
X018316Y023638D02*
X018911Y023638D01*
X018684Y023797D02*
X018475Y023797D01*
X018633Y023955D02*
X018648Y023955D01*
X018754Y023004D02*
X018754Y023004D01*
X018754Y022846D02*
X018754Y022846D01*
X018754Y021241D02*
X019137Y020858D01*
X019137Y020652D01*
X019493Y020627D02*
X019785Y020627D01*
X019902Y020578D02*
X021217Y020578D01*
X021461Y020679D01*
X021648Y020866D01*
X021680Y020943D01*
X022439Y020943D01*
X022471Y020866D01*
X022658Y020679D01*
X022902Y020578D01*
X023260Y020578D01*
X023260Y018985D01*
X023070Y018985D01*
X022743Y018849D01*
X022492Y018598D01*
X022357Y018271D01*
X022357Y017916D01*
X022492Y017589D01*
X022743Y017338D01*
X023070Y017202D01*
X024927Y017202D01*
X025255Y017338D01*
X025506Y017589D01*
X025641Y017916D01*
X025641Y018271D01*
X025506Y018598D01*
X025255Y018849D01*
X024927Y018985D01*
X023860Y018985D01*
X023860Y020578D01*
X024217Y020578D01*
X024461Y020679D01*
X024648Y020866D01*
X024744Y021097D01*
X024744Y020853D01*
X024507Y020616D01*
X024447Y020556D01*
X024335Y020556D01*
X024253Y020474D01*
X024253Y019925D01*
X024313Y019865D01*
X024253Y019805D01*
X024253Y019256D01*
X024335Y019174D01*
X024844Y019174D01*
X024926Y019256D01*
X024926Y019556D01*
X025079Y019709D01*
X025079Y019549D01*
X025437Y019549D01*
X025437Y019512D01*
X025079Y019512D01*
X025079Y019290D01*
X025091Y019244D01*
X025115Y019203D01*
X025148Y019170D01*
X025189Y019146D01*
X025235Y019134D01*
X025437Y019134D01*
X025437Y019512D01*
X025474Y019512D01*
X025474Y019549D01*
X025832Y019549D01*
X025832Y019771D01*
X025820Y019816D01*
X025796Y019857D01*
X025763Y019891D01*
X025760Y019893D01*
X025792Y019925D01*
X025792Y020365D01*
X026265Y019438D01*
X026770Y018122D01*
X027135Y016760D01*
X027355Y015367D01*
X027429Y013960D01*
X027355Y012552D01*
X027135Y011159D01*
X026770Y009797D01*
X026265Y008481D01*
X025624Y007225D01*
X024857Y006042D01*
X023969Y004947D01*
X023056Y004033D01*
X018676Y004033D01*
X018286Y003907D01*
X017954Y003666D01*
X017954Y003666D01*
X017954Y003666D01*
X017713Y003334D01*
X017587Y002944D01*
X017587Y001006D01*
X016760Y000784D01*
X015367Y000564D01*
X013960Y000490D01*
X012552Y000564D01*
X011159Y000784D01*
X009797Y001149D01*
X009200Y001379D01*
X009569Y001379D01*
X009651Y001461D01*
X009651Y003388D01*
X009574Y003464D01*
X009574Y004324D01*
X010485Y005235D01*
X010628Y005235D01*
X010591Y005199D01*
X010591Y003744D01*
X010673Y003662D01*
X011419Y003662D01*
X011501Y003744D01*
X011501Y005027D01*
X011694Y004834D01*
X011694Y004591D01*
X011735Y004549D01*
X011729Y004542D01*
X011705Y004501D01*
X011693Y004456D01*
X011693Y004254D01*
X012071Y004254D01*
X012071Y004217D01*
X011693Y004217D01*
X011693Y004015D01*
X011697Y003999D01*
X011693Y003983D01*
X011693Y003781D01*
X012071Y003781D01*
X012071Y003744D01*
X012108Y003744D01*
X012108Y003269D01*
X012071Y003269D01*
X012071Y003232D01*
X012108Y003232D01*
X012108Y002954D01*
X012071Y002954D01*
X012071Y003232D01*
X011693Y003232D01*
X011693Y003030D01*
X011705Y002985D01*
X011729Y002943D01*
X011749Y002923D01*
X011697Y002872D01*
X011697Y002779D01*
X010438Y002779D01*
X010438Y003388D01*
X010356Y003470D01*
X009846Y003470D01*
X009764Y003388D01*
X009764Y001461D01*
X009846Y001379D01*
X010356Y001379D01*
X010438Y001461D01*
X010438Y002259D01*
X011259Y002259D01*
X011259Y002101D01*
X011250Y002092D01*
X011201Y001975D01*
X011201Y001849D01*
X011250Y001733D01*
X011339Y001643D01*
X011455Y001595D01*
X011582Y001595D01*
X011698Y001643D01*
X011787Y001733D01*
X011836Y001849D01*
X011836Y001975D01*
X011791Y002083D01*
X012407Y002083D01*
X012428Y002104D01*
X012449Y002083D01*
X013077Y002083D01*
X013159Y002165D01*
X013159Y002306D01*
X013280Y002427D01*
X013526Y002674D01*
X013662Y002538D01*
X013662Y002169D01*
X013744Y002087D01*
X014293Y002087D01*
X014353Y002147D01*
X014413Y002087D01*
X014803Y002087D01*
X014725Y002010D01*
X014725Y001975D01*
X013772Y001975D01*
X013756Y002013D01*
X013667Y002102D01*
X013550Y002151D01*
X013424Y002151D01*
X013307Y002102D01*
X013218Y002013D01*
X013170Y001897D01*
X013170Y001770D01*
X013218Y001654D01*
X013307Y001565D01*
X013424Y001516D01*
X013550Y001516D01*
X013595Y001535D01*
X014725Y001535D01*
X014725Y001500D01*
X014807Y001418D01*
X015356Y001418D01*
X015416Y001478D01*
X015476Y001418D01*
X016025Y001418D01*
X016107Y001500D01*
X016107Y002010D01*
X016025Y002092D01*
X016000Y002092D01*
X016000Y002705D01*
X016067Y002638D01*
X016616Y002638D01*
X016648Y002671D01*
X016650Y002668D01*
X016684Y002634D01*
X016725Y002611D01*
X016770Y002598D01*
X016992Y002598D01*
X016992Y002957D01*
X017029Y002957D01*
X017029Y002598D01*
X017251Y002598D01*
X017297Y002611D01*
X017338Y002634D01*
X017371Y002668D01*
X017395Y002709D01*
X017407Y002755D01*
X017407Y002957D01*
X017029Y002957D01*
X017029Y002994D01*
X017407Y002994D01*
X017407Y003196D01*
X017395Y003242D01*
X017371Y003283D01*
X017367Y003287D01*
X017367Y003583D01*
X017487Y003583D01*
X017533Y003595D01*
X017574Y003619D01*
X017608Y003652D01*
X017631Y003693D01*
X017643Y003739D01*
X017643Y003941D01*
X017265Y003941D01*
X017265Y003978D01*
X017229Y003978D01*
X017229Y004336D01*
X017007Y004336D01*
X016961Y004324D01*
X016920Y004300D01*
X016886Y004267D01*
X016885Y004264D01*
X016852Y004296D01*
X016383Y004296D01*
X016383Y004726D01*
X016362Y004747D01*
X016383Y004768D01*
X016383Y005277D01*
X016301Y005359D01*
X016246Y005359D01*
X016246Y005365D01*
X016276Y005394D01*
X016324Y005511D01*
X016324Y005637D01*
X016276Y005753D01*
X016186Y005843D01*
X016070Y005891D01*
X015944Y005891D01*
X015827Y005843D01*
X015738Y005753D01*
X015690Y005637D01*
X015690Y005511D01*
X015738Y005394D01*
X015773Y005359D01*
X015752Y005359D01*
X015692Y005299D01*
X015632Y005359D01*
X015083Y005359D01*
X015001Y005277D01*
X015001Y004768D01*
X015021Y004747D01*
X015001Y004726D01*
X015001Y004691D01*
X014962Y004729D01*
X014413Y004729D01*
X014353Y004669D01*
X014293Y004729D01*
X013993Y004729D01*
X013884Y004838D01*
X013769Y004953D01*
X013804Y005038D01*
X013804Y005164D01*
X013756Y005281D01*
X013727Y005310D01*
X013727Y006064D01*
X013781Y006064D01*
X013841Y006124D01*
X013902Y006064D01*
X014451Y006064D01*
X014527Y006140D01*
X016175Y006140D01*
X016354Y005961D01*
X016339Y005947D01*
X016339Y005437D01*
X016421Y005355D01*
X017561Y005355D01*
X017643Y005437D01*
X017643Y005919D01*
X018021Y006297D01*
X018665Y006297D01*
X018775Y006343D01*
X018860Y006427D01*
X018860Y006427D01*
X019387Y006955D01*
X019366Y006903D01*
X019342Y006814D01*
X019334Y006756D01*
X020480Y006756D01*
X020480Y007381D01*
X019988Y007381D01*
X019897Y007369D01*
X019807Y007345D01*
X019756Y007324D01*
X021105Y008673D01*
X022032Y007746D01*
X022116Y007662D01*
X022227Y007616D01*
X022723Y007616D01*
X022799Y007540D01*
X023466Y007540D01*
X023548Y007622D01*
X023548Y008132D01*
X023466Y008214D01*
X023120Y008214D01*
X023114Y008216D01*
X023065Y008216D01*
X023016Y008220D01*
X023005Y008216D01*
X022411Y008216D01*
X021529Y009097D01*
X022357Y009924D01*
X022357Y009648D01*
X022492Y009321D01*
X022743Y009070D01*
X022908Y009002D01*
X022833Y009002D01*
X022788Y008989D01*
X022747Y008966D01*
X022713Y008932D01*
X022689Y008891D01*
X022677Y008845D01*
X022677Y008643D01*
X023114Y008643D01*
X023114Y008606D01*
X023151Y008606D01*
X023151Y008248D01*
X023432Y008248D01*
X023478Y008260D01*
X023519Y008284D01*
X023552Y008318D01*
X023576Y008359D01*
X023583Y008386D01*
X023583Y007996D01*
X023665Y007914D01*
X024332Y007914D01*
X024414Y007996D01*
X024414Y008506D01*
X024332Y008588D01*
X024299Y008588D01*
X024299Y008934D01*
X024927Y008934D01*
X025255Y009070D01*
X025506Y009321D01*
X025641Y009648D01*
X025641Y010003D01*
X025506Y010330D01*
X025255Y010581D01*
X024927Y010717D01*
X023070Y010717D01*
X022743Y010581D01*
X022567Y010405D01*
X022567Y016874D01*
X022521Y016984D01*
X019391Y020114D01*
X019307Y020198D01*
X019196Y020244D01*
X018767Y020244D01*
X018767Y020341D01*
X018802Y020376D01*
X018862Y020316D01*
X019411Y020316D01*
X019493Y020398D01*
X019493Y020844D01*
X019658Y020679D01*
X019902Y020578D01*
X019552Y020785D02*
X019493Y020785D01*
X019493Y020468D02*
X023260Y020468D01*
X023260Y020310D02*
X018767Y020310D01*
X018467Y020652D02*
X017879Y021241D01*
X016479Y021241D01*
X016104Y021241D01*
X016309Y020981D02*
X016309Y020871D01*
X016224Y020871D01*
X016192Y020839D01*
X016190Y020842D01*
X016157Y020875D01*
X016116Y020899D01*
X016070Y020911D01*
X015848Y020911D01*
X015848Y020553D01*
X015811Y020553D01*
X015811Y020911D01*
X015589Y020911D01*
X015544Y020899D01*
X015503Y020875D01*
X015469Y020842D01*
X015445Y020801D01*
X015433Y020755D01*
X015433Y020553D01*
X015811Y020553D01*
X015811Y020516D01*
X015433Y020516D01*
X015433Y020314D01*
X015445Y020268D01*
X015469Y020227D01*
X015503Y020193D01*
X015544Y020170D01*
X015589Y020157D01*
X015811Y020157D01*
X015811Y020516D01*
X015848Y020516D01*
X015848Y020157D01*
X016070Y020157D01*
X016116Y020170D01*
X016157Y020193D01*
X016190Y020227D01*
X016192Y020230D01*
X016224Y020197D01*
X017285Y020197D01*
X017318Y020230D01*
X017319Y020227D01*
X017353Y020193D01*
X017394Y020170D01*
X017440Y020157D01*
X017662Y020157D01*
X017662Y020516D01*
X017698Y020516D01*
X017698Y020157D01*
X017920Y020157D01*
X017966Y020170D01*
X018007Y020193D01*
X018041Y020227D01*
X018064Y020268D01*
X018077Y020314D01*
X018077Y020516D01*
X017698Y020516D01*
X017698Y020553D01*
X017662Y020553D01*
X017662Y020911D01*
X017440Y020911D01*
X017394Y020899D01*
X017353Y020875D01*
X017319Y020842D01*
X017318Y020839D01*
X017285Y020871D01*
X016689Y020871D01*
X016689Y021021D01*
X017788Y021021D01*
X017898Y020911D01*
X017698Y020911D01*
X017698Y020553D01*
X018077Y020553D01*
X018077Y020732D01*
X018111Y020698D01*
X018111Y020398D01*
X018167Y020341D01*
X018167Y019884D01*
X018213Y019774D01*
X018297Y019689D01*
X018408Y019644D01*
X019012Y019644D01*
X021967Y016690D01*
X021967Y016279D01*
X021951Y016316D01*
X021909Y016390D01*
X021857Y016458D01*
X021796Y016518D01*
X021728Y016570D01*
X021654Y016613D01*
X021575Y016646D01*
X021493Y016668D01*
X021408Y016679D01*
X020498Y016679D01*
X020498Y016104D01*
X020343Y016104D01*
X020343Y016674D01*
X020293Y016668D01*
X020210Y016646D01*
X020131Y016613D01*
X020057Y016570D01*
X019989Y016518D01*
X019929Y016458D01*
X019877Y016390D01*
X019834Y016316D01*
X019801Y016237D01*
X019779Y016154D01*
X019772Y016104D01*
X020343Y016104D01*
X020343Y015949D01*
X020498Y015949D01*
X020498Y015374D01*
X021408Y015374D01*
X021493Y015385D01*
X021575Y015407D01*
X021654Y015440D01*
X021728Y015483D01*
X021796Y015535D01*
X021857Y015595D01*
X021909Y015663D01*
X021951Y015737D01*
X021967Y015774D01*
X021967Y012041D01*
X021884Y012240D01*
X021712Y012412D01*
X021487Y012505D01*
X021344Y012505D01*
X021688Y012850D01*
X021817Y012979D01*
X021817Y014444D01*
X021227Y015035D01*
X021098Y015164D01*
X020153Y015164D01*
X019298Y016019D01*
X019298Y016807D01*
X016384Y019720D01*
X016255Y019849D01*
X014976Y019849D01*
X014336Y020489D01*
X014336Y020659D01*
X014627Y020659D01*
X014627Y020629D01*
X014675Y020512D01*
X014764Y020423D01*
X014881Y020375D01*
X015007Y020375D01*
X015123Y020423D01*
X015213Y020512D01*
X015261Y020629D01*
X015261Y020755D01*
X015213Y020871D01*
X015151Y020934D01*
X015244Y020972D01*
X015252Y020981D01*
X016309Y020981D01*
X016309Y020944D02*
X015174Y020944D01*
X015248Y020785D02*
X015441Y020785D01*
X015433Y020627D02*
X015260Y020627D01*
X015169Y020468D02*
X015433Y020468D01*
X015434Y020310D02*
X014515Y020310D01*
X014357Y020468D02*
X014719Y020468D01*
X014628Y020627D02*
X014336Y020627D01*
X013979Y020534D02*
X014885Y019629D01*
X016164Y019629D01*
X019078Y016715D01*
X019078Y015928D01*
X020062Y014944D01*
X021007Y014944D01*
X021597Y014353D01*
X021597Y013070D01*
X020420Y011893D01*
X020006Y012345D02*
X020006Y013347D01*
X020932Y013347D01*
X021157Y013440D01*
X021329Y013613D01*
X021377Y013729D01*
X021377Y013161D01*
X020721Y012505D01*
X020298Y012505D01*
X020073Y012412D01*
X020006Y012345D01*
X020006Y012385D02*
X020046Y012385D01*
X020006Y012543D02*
X020759Y012543D01*
X020918Y012702D02*
X020006Y012702D01*
X020006Y012860D02*
X021076Y012860D01*
X021235Y013019D02*
X020006Y013019D01*
X020006Y013177D02*
X021377Y013177D01*
X021377Y013336D02*
X020006Y013336D01*
X019566Y013336D02*
X018688Y013336D01*
X018703Y013494D02*
X019464Y013494D01*
X019518Y013440D02*
X019346Y013613D01*
X019253Y013838D01*
X019253Y014081D01*
X019346Y014306D01*
X019518Y014479D01*
X019743Y014572D01*
X020932Y014572D01*
X021157Y014479D01*
X021329Y014306D01*
X021377Y014190D01*
X021377Y014262D01*
X020916Y014724D01*
X019971Y014724D01*
X019842Y014853D01*
X018858Y015837D01*
X018858Y016624D01*
X016073Y019409D01*
X014794Y019409D01*
X014005Y020197D01*
X013705Y020197D01*
X013645Y020258D01*
X013584Y020197D01*
X013035Y020197D01*
X012953Y020279D01*
X012953Y020300D01*
X012919Y020265D01*
X012802Y020217D01*
X012676Y020217D01*
X012559Y020265D01*
X012522Y020303D01*
X012513Y020268D01*
X012489Y020227D01*
X012456Y020193D01*
X012415Y020170D01*
X012369Y020157D01*
X012147Y020157D01*
X012147Y020516D01*
X012110Y020516D01*
X012110Y020157D01*
X011889Y020157D01*
X011843Y020170D01*
X011802Y020193D01*
X011768Y020227D01*
X011767Y020230D01*
X011734Y020197D01*
X011185Y020197D01*
X011103Y020279D01*
X011103Y020789D01*
X011124Y020810D01*
X011103Y020831D01*
X011103Y021340D01*
X011185Y021422D01*
X011270Y021422D01*
X011270Y021460D01*
X011052Y021677D01*
X011009Y021575D01*
X010996Y021562D01*
X010996Y020616D01*
X010940Y020479D01*
X010940Y018320D01*
X010827Y018048D01*
X009351Y016572D01*
X009142Y016364D01*
X008871Y016251D01*
X007404Y016251D01*
X007327Y016174D01*
X007114Y016086D01*
X007075Y016086D01*
X006521Y015531D01*
X006675Y015286D01*
X006675Y015286D01*
X006901Y014640D01*
X006901Y014640D01*
X006978Y013960D01*
X006901Y013279D01*
X006901Y013279D01*
X006675Y012633D01*
X006675Y012633D01*
X006311Y012053D01*
X006311Y012053D01*
X005827Y011569D01*
X005827Y011569D01*
X005247Y011205D01*
X005247Y011205D01*
X004601Y010978D01*
X004601Y010978D01*
X003920Y010902D01*
X003920Y010902D01*
X003240Y010978D01*
X002593Y011205D01*
X002014Y011569D01*
X001530Y012053D01*
X001530Y012053D01*
X001165Y012633D01*
X001165Y012633D01*
X000939Y013279D01*
X000939Y013279D01*
X000862Y013960D01*
X000862Y013960D01*
X000939Y014640D01*
X000939Y014640D01*
X001165Y015286D01*
X001165Y015286D01*
X001530Y015866D01*
X001530Y015866D01*
X002014Y016350D01*
X002014Y016350D01*
X002593Y016714D01*
X002593Y016714D01*
X003240Y016941D01*
X003240Y016941D01*
X003920Y017017D01*
X003920Y017017D01*
X004601Y016941D01*
X004601Y016941D01*
X005247Y016714D01*
X005247Y016714D01*
X005471Y016574D01*
X005889Y016992D01*
X005813Y017068D01*
X006066Y017322D01*
X006040Y017348D01*
X005731Y017657D01*
X005588Y017514D01*
X005564Y017473D01*
X005552Y017427D01*
X005552Y017380D01*
X005564Y017334D01*
X005588Y017293D01*
X005786Y017094D01*
X006040Y017348D01*
X006066Y017374D01*
X006315Y017623D01*
X006569Y017877D01*
X006260Y018186D01*
X006117Y018043D01*
X006093Y018002D01*
X006081Y017956D01*
X006081Y017909D01*
X006093Y017863D01*
X006111Y017831D01*
X006080Y017850D01*
X006034Y017862D01*
X005987Y017862D01*
X005941Y017850D01*
X005900Y017826D01*
X005757Y017683D01*
X006066Y017374D01*
X006092Y017348D01*
X006109Y017365D01*
X006117Y017384D01*
X006559Y017826D01*
X006578Y017833D01*
X006595Y017851D01*
X006569Y017877D01*
X006595Y017903D01*
X006848Y018156D01*
X006650Y018355D01*
X006609Y018378D01*
X006563Y018391D01*
X006516Y018391D01*
X006470Y018378D01*
X006429Y018355D01*
X006286Y018212D01*
X006595Y017903D01*
X006621Y017877D01*
X006874Y018130D01*
X007073Y017932D01*
X008618Y017932D01*
X008776Y018091D02*
X006914Y018091D01*
X006835Y018091D02*
X006783Y018091D01*
X006756Y018249D02*
X008861Y018249D01*
X008913Y018227D02*
X008417Y017731D01*
X007310Y017731D01*
X007216Y017826D01*
X007101Y017873D01*
X007097Y017890D01*
X007073Y017932D01*
X007268Y017774D02*
X008459Y017774D01*
X008736Y018301D02*
X008913Y018227D01*
X008736Y018301D02*
X008561Y018476D01*
X008466Y018705D01*
X008466Y018954D01*
X008561Y019183D01*
X008736Y019358D01*
X008965Y019453D01*
X009214Y019453D01*
X009443Y019358D01*
X009460Y019341D01*
X009460Y020479D01*
X009430Y020551D01*
X009317Y020551D01*
X009317Y020511D01*
X009304Y020465D01*
X009281Y020424D01*
X009247Y020390D01*
X009206Y020367D01*
X009160Y020354D01*
X008889Y020354D01*
X008889Y020624D01*
X008793Y020624D01*
X008793Y020354D01*
X008522Y020354D01*
X008477Y020367D01*
X008436Y020390D01*
X008402Y020424D01*
X008378Y020465D01*
X008366Y020511D01*
X008366Y020650D01*
X008272Y020690D01*
X008261Y020679D01*
X008017Y020578D01*
X006702Y020578D01*
X006458Y020679D01*
X006271Y020866D01*
X006170Y021111D01*
X006170Y021375D01*
X006271Y021620D01*
X006458Y021807D01*
X006702Y021908D01*
X007998Y021908D01*
X008054Y022044D01*
X008218Y022207D01*
X008431Y022295D01*
X009252Y022295D01*
X009271Y022288D01*
X009311Y022328D01*
X009543Y022424D01*
X009913Y022424D01*
X009936Y022482D01*
X009985Y022530D01*
X009985Y022566D01*
X010001Y022582D01*
X009985Y022598D01*
X009985Y022687D01*
X009609Y022687D01*
X009412Y022370D02*
X003462Y022370D01*
X003590Y022529D02*
X009983Y022529D01*
X011010Y021578D02*
X011152Y021578D01*
X011182Y021419D02*
X010996Y021419D01*
X010996Y021261D02*
X011103Y021261D01*
X011103Y021102D02*
X010996Y021102D01*
X010996Y020944D02*
X011103Y020944D01*
X011103Y020785D02*
X010996Y020785D01*
X010996Y020627D02*
X011103Y020627D01*
X011103Y020468D02*
X010940Y020468D01*
X010940Y020310D02*
X011103Y020310D01*
X010940Y020151D02*
X014051Y020151D01*
X014210Y019993D02*
X010940Y019993D01*
X010940Y019834D02*
X014368Y019834D01*
X014527Y019676D02*
X010940Y019676D01*
X010940Y019517D02*
X014685Y019517D01*
X014832Y019993D02*
X018167Y019993D01*
X018167Y020151D02*
X014674Y020151D01*
X013866Y020871D02*
X013705Y020871D01*
X013645Y020811D01*
X013584Y020871D01*
X013035Y020871D01*
X012953Y020789D01*
X012953Y020769D01*
X012919Y020803D01*
X012802Y020851D01*
X012676Y020851D01*
X012559Y020803D01*
X012522Y020766D01*
X012513Y020801D01*
X012489Y020842D01*
X012485Y020846D01*
X012485Y020896D01*
X013841Y020896D01*
X013866Y020871D01*
X013190Y021472D02*
X013190Y021762D01*
X012918Y021762D01*
X012918Y021509D01*
X012956Y021472D01*
X013190Y021472D01*
X013190Y021578D02*
X012918Y021578D01*
X012918Y021736D02*
X013190Y021736D01*
X012982Y022370D02*
X011999Y022370D01*
X012402Y023045D02*
X012402Y023403D01*
X012292Y023403D01*
X012292Y023763D01*
X012628Y023428D01*
X012628Y023403D01*
X012439Y023403D01*
X012439Y023045D01*
X012402Y023045D01*
X012402Y023163D02*
X012439Y023163D01*
X012439Y023321D02*
X012402Y023321D01*
X012292Y023480D02*
X012576Y023480D01*
X012418Y023638D02*
X012292Y023638D01*
X012638Y023955D02*
X013052Y023955D01*
X013089Y024114D02*
X012480Y024114D01*
X012321Y024272D02*
X013295Y024272D01*
X013443Y024272D02*
X013523Y024272D01*
X013505Y024431D02*
X012289Y024431D01*
X012367Y024589D02*
X013505Y024589D01*
X013505Y024748D02*
X012367Y024748D01*
X012367Y024906D02*
X013505Y024906D01*
X014118Y024314D02*
X014178Y024374D01*
X014178Y024389D01*
X014265Y024389D01*
X014802Y023852D01*
X014802Y023518D01*
X014793Y023509D01*
X014745Y023393D01*
X014745Y023332D01*
X014644Y023332D01*
X014549Y023292D01*
X014494Y023347D01*
X014494Y023618D01*
X014366Y023746D01*
X014178Y023934D01*
X014178Y024254D01*
X014118Y024314D01*
X014160Y024272D02*
X014382Y024272D01*
X014540Y024114D02*
X014178Y024114D01*
X014178Y023955D02*
X014699Y023955D01*
X014802Y023797D02*
X014316Y023797D01*
X014474Y023638D02*
X014802Y023638D01*
X014781Y023480D02*
X014494Y023480D01*
X014520Y023321D02*
X014618Y023321D01*
X014274Y023526D02*
X014274Y023034D01*
X013910Y023321D02*
X013851Y023321D01*
X014010Y023480D02*
X013008Y023480D01*
X013008Y023321D02*
X013241Y023321D01*
X013190Y023163D02*
X013008Y023163D01*
X013008Y023004D02*
X013190Y023004D01*
X013190Y022846D02*
X013008Y022846D01*
X013008Y022687D02*
X013190Y022687D01*
X013047Y022529D02*
X012852Y022529D01*
X012955Y023638D02*
X013571Y023638D01*
X013369Y023960D02*
X013822Y023960D01*
X013841Y023979D01*
X013841Y023960D02*
X014274Y023526D01*
X015025Y023004D02*
X015699Y023004D01*
X015699Y023163D02*
X015336Y023163D01*
X015379Y023321D02*
X015699Y023321D01*
X015699Y023480D02*
X015343Y023480D01*
X015322Y023638D02*
X015699Y023638D01*
X015699Y023797D02*
X015322Y023797D01*
X015322Y023955D02*
X015699Y023955D01*
X015699Y024114D02*
X015276Y024114D01*
X015117Y024272D02*
X015699Y024272D01*
X015699Y024431D02*
X014959Y024431D01*
X014800Y024589D02*
X015699Y024589D01*
X015699Y024748D02*
X014642Y024748D01*
X014431Y024906D02*
X015699Y024906D01*
X015699Y025065D02*
X012367Y025065D01*
X012367Y025223D02*
X015699Y025223D01*
X015782Y025382D02*
X012367Y025382D01*
X012285Y025721D02*
X011657Y025721D01*
X011575Y025803D01*
X011575Y026667D01*
X011657Y026749D01*
X012285Y026749D01*
X012367Y026667D01*
X012367Y025803D01*
X012285Y025721D01*
X012367Y025857D02*
X015874Y025857D01*
X015874Y026016D02*
X012367Y026016D01*
X012367Y026174D02*
X012853Y026174D01*
X012723Y026333D02*
X012367Y026333D01*
X012367Y026491D02*
X012675Y026491D01*
X012681Y026650D02*
X012367Y026650D01*
X012740Y026808D02*
X012754Y026839D01*
X012764Y026842D01*
X012766Y026844D01*
X012766Y026855D01*
X012790Y026879D01*
X012809Y026907D01*
X012820Y026909D01*
X012821Y026910D01*
X012823Y026921D01*
X012851Y026940D01*
X012876Y026965D01*
X012886Y026965D01*
X012888Y026966D01*
X012891Y026976D01*
X012923Y026990D01*
X012951Y027010D01*
X012961Y027008D01*
X012963Y027009D01*
X012968Y027018D01*
X013001Y027027D01*
X013033Y027041D01*
X013042Y027038D01*
X013045Y027039D01*
X013051Y027046D01*
X013085Y027049D01*
X013119Y027058D01*
X013128Y027053D01*
X013130Y027053D01*
X013138Y027060D01*
X013172Y027057D01*
X013206Y027060D01*
X013214Y027053D01*
X013217Y027053D01*
X013226Y027058D01*
X013259Y027049D01*
X013293Y027046D01*
X013300Y027039D01*
X013302Y027038D01*
X013312Y027041D01*
X013343Y027027D01*
X013376Y027018D01*
X013381Y027009D01*
X013383Y027008D01*
X013394Y027010D01*
X013422Y026990D01*
X013453Y026976D01*
X013456Y026966D01*
X013458Y026965D01*
X013469Y026965D01*
X013493Y026940D01*
X013521Y026921D01*
X013523Y026910D01*
X013525Y026909D01*
X013535Y026907D01*
X013554Y026879D01*
X013579Y026855D01*
X013579Y026844D01*
X013580Y026842D01*
X013590Y026839D01*
X013604Y026808D01*
X013456Y026967D02*
X017388Y026967D01*
X016796Y027125D02*
X011123Y027125D01*
X010531Y026967D02*
X012888Y026967D01*
X012099Y027284D02*
X015820Y027284D01*
X016023Y026333D02*
X013621Y026333D01*
X013491Y026174D02*
X015874Y026174D01*
X015903Y025699D02*
X009538Y025699D01*
X009425Y025540D02*
X015941Y025540D01*
X016079Y024580D02*
X016213Y024446D01*
X016635Y024446D01*
X016924Y024734D01*
X017213Y024446D01*
X017431Y024446D01*
X017431Y024409D01*
X017369Y024434D01*
X017243Y024434D01*
X017126Y024386D01*
X017037Y024297D01*
X016989Y024180D01*
X016989Y024054D01*
X017037Y023937D01*
X017126Y023848D01*
X017155Y023836D01*
X017155Y022431D01*
X016667Y022431D01*
X016607Y022491D01*
X016679Y022563D01*
X016679Y022919D01*
X016597Y023001D01*
X016113Y023001D01*
X016079Y023035D01*
X016079Y024580D01*
X016079Y024431D02*
X017234Y024431D01*
X017378Y024431D02*
X017431Y024431D01*
X017069Y024589D02*
X016779Y024589D01*
X017027Y024272D02*
X016079Y024272D01*
X016079Y024114D02*
X016989Y024114D01*
X017030Y023955D02*
X016079Y023955D01*
X016079Y023797D02*
X017155Y023797D01*
X017155Y023638D02*
X016079Y023638D01*
X016079Y023480D02*
X017155Y023480D01*
X017155Y023321D02*
X016079Y023321D01*
X016079Y023163D02*
X017155Y023163D01*
X017155Y023004D02*
X016110Y023004D01*
X016679Y022846D02*
X017155Y022846D01*
X017155Y022687D02*
X016679Y022687D01*
X016645Y022529D02*
X017155Y022529D01*
X016689Y020944D02*
X017865Y020944D01*
X017698Y020785D02*
X017662Y020785D01*
X017662Y020627D02*
X017698Y020627D01*
X017698Y020468D02*
X017662Y020468D01*
X017662Y020310D02*
X017698Y020310D01*
X018075Y020310D02*
X018167Y020310D01*
X018111Y020468D02*
X018077Y020468D01*
X018077Y020627D02*
X018111Y020627D01*
X018188Y019834D02*
X016270Y019834D01*
X016429Y019676D02*
X018331Y019676D01*
X018476Y019358D02*
X018301Y019183D01*
X018206Y018954D01*
X018206Y018705D01*
X018301Y018476D01*
X018476Y018301D01*
X018705Y018206D01*
X018954Y018206D01*
X019183Y018301D01*
X019358Y018476D01*
X019453Y018705D01*
X019453Y018954D01*
X019358Y019183D01*
X019183Y019358D01*
X018954Y019453D01*
X018705Y019453D01*
X018476Y019358D01*
X018477Y019359D02*
X016746Y019359D01*
X016587Y019517D02*
X019139Y019517D01*
X019182Y019359D02*
X019298Y019359D01*
X019341Y019200D02*
X019456Y019200D01*
X019417Y019042D02*
X019615Y019042D01*
X019773Y018883D02*
X019453Y018883D01*
X019453Y018725D02*
X019932Y018725D01*
X020090Y018566D02*
X019395Y018566D01*
X019290Y018408D02*
X020249Y018408D01*
X020407Y018249D02*
X019058Y018249D01*
X018601Y018249D02*
X017855Y018249D01*
X017697Y018408D02*
X018369Y018408D01*
X018264Y018566D02*
X017538Y018566D01*
X017380Y018725D02*
X018206Y018725D01*
X018206Y018883D02*
X017221Y018883D01*
X017063Y019042D02*
X018242Y019042D01*
X018318Y019200D02*
X016904Y019200D01*
X016599Y018883D02*
X010940Y018883D01*
X010940Y018725D02*
X013633Y018725D01*
X013745Y018740D02*
X012895Y018625D01*
X012079Y018359D01*
X011323Y017953D01*
X010653Y017418D01*
X010088Y016772D01*
X009648Y016036D01*
X009347Y015233D01*
X009347Y015233D01*
X009194Y014388D01*
X009194Y013531D01*
X009347Y012687D01*
X009347Y012687D01*
X009648Y011883D01*
X010088Y011147D01*
X010653Y010501D01*
X011323Y009966D01*
X011323Y009966D01*
X012079Y009560D01*
X012895Y009294D01*
X013745Y009179D01*
X014602Y009218D01*
X015438Y009409D01*
X015438Y009409D01*
X016227Y009746D01*
X016943Y010218D01*
X017563Y010811D01*
X017563Y010811D01*
X018067Y011505D01*
X018439Y012278D01*
X018668Y013105D01*
X018745Y013960D01*
X018668Y014814D01*
X018439Y015641D01*
X018067Y016414D01*
X017563Y017108D01*
X016943Y017701D01*
X016227Y018173D01*
X015438Y018510D01*
X014602Y018701D01*
X014602Y018701D01*
X013745Y018740D01*
X013745Y018740D01*
X014083Y018725D02*
X016757Y018725D01*
X016916Y018566D02*
X015194Y018566D01*
X015438Y018510D02*
X015438Y018510D01*
X015679Y018408D02*
X017074Y018408D01*
X017233Y018249D02*
X016050Y018249D01*
X016227Y018173D02*
X016227Y018173D01*
X016352Y018091D02*
X017391Y018091D01*
X017550Y017932D02*
X016592Y017932D01*
X016832Y017774D02*
X017708Y017774D01*
X017867Y017615D02*
X017032Y017615D01*
X016943Y017701D02*
X016943Y017701D01*
X017198Y017457D02*
X018025Y017457D01*
X018184Y017298D02*
X017364Y017298D01*
X017530Y017140D02*
X018342Y017140D01*
X018501Y016981D02*
X017655Y016981D01*
X017563Y017108D02*
X017563Y017108D01*
X017563Y017108D01*
X017770Y016823D02*
X018659Y016823D01*
X018818Y016664D02*
X017885Y016664D01*
X018001Y016506D02*
X018858Y016506D01*
X018858Y016347D02*
X018099Y016347D01*
X018067Y016414D02*
X018067Y016414D01*
X018176Y016189D02*
X018858Y016189D01*
X018858Y016030D02*
X018252Y016030D01*
X018328Y015872D02*
X018858Y015872D01*
X018982Y015713D02*
X018405Y015713D01*
X018439Y015641D02*
X018439Y015641D01*
X018463Y015555D02*
X019140Y015555D01*
X019299Y015396D02*
X018507Y015396D01*
X018551Y015238D02*
X019457Y015238D01*
X019616Y015079D02*
X018594Y015079D01*
X018638Y014921D02*
X019774Y014921D01*
X019933Y014762D02*
X018672Y014762D01*
X018668Y014814D02*
X018668Y014814D01*
X018687Y014604D02*
X021036Y014604D01*
X021191Y014445D02*
X021194Y014445D01*
X021337Y014287D02*
X021353Y014287D01*
X021658Y014604D02*
X021967Y014604D01*
X021967Y014762D02*
X021500Y014762D01*
X021341Y014921D02*
X021967Y014921D01*
X021967Y015079D02*
X021183Y015079D01*
X021533Y015396D02*
X021967Y015396D01*
X021967Y015238D02*
X020079Y015238D01*
X020131Y015440D02*
X020057Y015483D01*
X019989Y015535D01*
X019929Y015595D01*
X019877Y015663D01*
X019834Y015737D01*
X019801Y015816D01*
X019779Y015899D01*
X019772Y015949D01*
X020343Y015949D01*
X020343Y015379D01*
X020293Y015385D01*
X020210Y015407D01*
X020131Y015440D01*
X020252Y015396D02*
X019921Y015396D01*
X019969Y015555D02*
X019762Y015555D01*
X019848Y015713D02*
X019604Y015713D01*
X019445Y015872D02*
X019786Y015872D01*
X019788Y016189D02*
X019298Y016189D01*
X019298Y016347D02*
X019852Y016347D01*
X019977Y016506D02*
X019298Y016506D01*
X019298Y016664D02*
X020279Y016664D01*
X020343Y016664D02*
X020498Y016664D01*
X020498Y016506D02*
X020343Y016506D01*
X020343Y016347D02*
X020498Y016347D01*
X020498Y016189D02*
X020343Y016189D01*
X020343Y016030D02*
X019298Y016030D01*
X019282Y016823D02*
X021834Y016823D01*
X021967Y016664D02*
X021506Y016664D01*
X021809Y016506D02*
X021967Y016506D01*
X021967Y016347D02*
X021933Y016347D01*
X022567Y016347D02*
X027200Y016347D01*
X027225Y016189D02*
X022567Y016189D01*
X022567Y016030D02*
X027250Y016030D01*
X027275Y015872D02*
X022567Y015872D01*
X022567Y015713D02*
X027301Y015713D01*
X027326Y015555D02*
X022567Y015555D01*
X022567Y015396D02*
X027351Y015396D01*
X027362Y015238D02*
X022567Y015238D01*
X022567Y015079D02*
X027370Y015079D01*
X027379Y014921D02*
X022567Y014921D01*
X022567Y014762D02*
X027387Y014762D01*
X027395Y014604D02*
X022567Y014604D01*
X022567Y014445D02*
X027404Y014445D01*
X027412Y014287D02*
X026744Y014287D01*
X026749Y014283D02*
X026721Y014302D01*
X026697Y014327D01*
X026687Y014327D01*
X026685Y014328D01*
X026681Y014338D01*
X026650Y014352D01*
X026622Y014372D01*
X026612Y014370D01*
X026610Y014371D01*
X026604Y014380D01*
X026571Y014389D01*
X026540Y014404D01*
X026530Y014400D01*
X026528Y014401D01*
X026521Y014409D01*
X026487Y014412D01*
X026454Y014421D01*
X026445Y014415D01*
X026443Y014416D01*
X026435Y014422D01*
X026400Y014419D01*
X026366Y014422D01*
X026358Y014416D01*
X026356Y014415D01*
X026347Y014421D01*
X026314Y014412D01*
X026280Y014409D01*
X026273Y014401D01*
X026271Y014400D01*
X026261Y014404D01*
X026230Y014389D01*
X026197Y014380D01*
X026191Y014371D01*
X026189Y014370D01*
X026179Y014372D01*
X026151Y014352D01*
X026120Y014338D01*
X026116Y014328D01*
X026114Y014327D01*
X026104Y014327D01*
X026080Y014302D01*
X026052Y014283D01*
X026050Y014273D01*
X026048Y014271D01*
X026038Y014269D01*
X026018Y014241D01*
X025994Y014217D01*
X025994Y014206D01*
X025992Y014204D01*
X025983Y014201D01*
X025968Y014170D01*
X025949Y014142D01*
X025950Y014131D01*
X025949Y014129D01*
X025940Y014124D01*
X025931Y014091D01*
X025917Y014060D01*
X025921Y014050D01*
X025920Y014048D01*
X025912Y014041D01*
X025909Y014007D01*
X025900Y013974D01*
X025905Y013965D01*
X025905Y013962D01*
X025898Y013954D01*
X025901Y013920D01*
X025898Y013886D01*
X025905Y013878D01*
X025905Y013876D01*
X025900Y013867D01*
X025909Y013833D01*
X025912Y013799D01*
X025920Y013793D01*
X025921Y013790D01*
X025917Y013781D01*
X025931Y013749D01*
X025940Y013716D01*
X025949Y013711D01*
X025950Y013709D01*
X025949Y013699D01*
X025968Y013671D01*
X025983Y013640D01*
X025992Y013636D01*
X025994Y013634D01*
X025994Y013624D01*
X026018Y013599D01*
X026038Y013571D01*
X026048Y013569D01*
X026050Y013568D01*
X026052Y013558D01*
X026080Y013538D01*
X026104Y013514D01*
X026114Y013514D01*
X026116Y013512D01*
X026120Y013502D01*
X026151Y013488D01*
X026179Y013468D01*
X026189Y013470D01*
X026191Y013469D01*
X026197Y013460D01*
X026230Y013451D01*
X026261Y013437D01*
X026271Y013440D01*
X026273Y013440D01*
X026280Y013432D01*
X026314Y013429D01*
X026347Y013420D01*
X026356Y013425D01*
X026358Y013425D01*
X026366Y013418D01*
X026400Y013421D01*
X026435Y013418D01*
X026443Y013425D01*
X026445Y013425D01*
X026454Y013420D01*
X026487Y013429D01*
X026521Y013432D01*
X026528Y013440D01*
X026530Y013440D01*
X026540Y013437D01*
X026571Y013451D01*
X026604Y013460D01*
X026610Y013469D01*
X026612Y013470D01*
X026622Y013468D01*
X026650Y013488D01*
X026681Y013502D01*
X026685Y013512D01*
X026687Y013514D01*
X026697Y013514D01*
X026721Y013538D01*
X026749Y013558D01*
X026751Y013568D01*
X026753Y013569D01*
X026763Y013571D01*
X026783Y013599D01*
X026807Y013624D01*
X026807Y013634D01*
X026808Y013636D01*
X026818Y013640D01*
X026833Y013671D01*
X026852Y013699D01*
X026851Y013709D01*
X026852Y013711D01*
X026861Y013716D01*
X026869Y013749D01*
X026884Y013781D01*
X026880Y013790D01*
X026881Y013793D01*
X026889Y013799D01*
X026892Y013833D01*
X026901Y013867D01*
X026896Y013876D01*
X026896Y013878D01*
X026903Y013886D01*
X026900Y013920D01*
X026903Y013954D01*
X026896Y013962D01*
X026896Y013965D01*
X026901Y013974D01*
X026892Y014007D01*
X026889Y014041D01*
X026881Y014048D01*
X026880Y014050D01*
X026884Y014060D01*
X026869Y014091D01*
X026861Y014124D01*
X026852Y014129D01*
X026851Y014131D01*
X026852Y014142D01*
X026833Y014170D01*
X026818Y014201D01*
X026808Y014204D01*
X026807Y014206D01*
X026807Y014217D01*
X026783Y014241D01*
X026763Y014269D01*
X026753Y014271D01*
X026751Y014273D01*
X026749Y014283D01*
X026854Y014128D02*
X027420Y014128D01*
X027429Y013970D02*
X026898Y013970D01*
X026890Y013811D02*
X027421Y013811D01*
X027413Y013653D02*
X026824Y013653D01*
X026663Y013494D02*
X027405Y013494D01*
X027396Y013336D02*
X022567Y013336D01*
X022567Y013494D02*
X026138Y013494D01*
X025977Y013653D02*
X022567Y013653D01*
X022567Y013811D02*
X025911Y013811D01*
X025902Y013970D02*
X022567Y013970D01*
X022567Y014128D02*
X025947Y014128D01*
X026057Y014287D02*
X022567Y014287D01*
X021967Y014287D02*
X021817Y014287D01*
X021817Y014445D02*
X021967Y014445D01*
X021967Y014128D02*
X021817Y014128D01*
X021817Y013970D02*
X021967Y013970D01*
X021967Y013811D02*
X021817Y013811D01*
X021817Y013653D02*
X021967Y013653D01*
X021967Y013494D02*
X021817Y013494D01*
X021817Y013336D02*
X021967Y013336D01*
X021967Y013177D02*
X021817Y013177D01*
X021817Y013019D02*
X021967Y013019D01*
X021967Y012860D02*
X021699Y012860D01*
X021540Y012702D02*
X021967Y012702D01*
X021967Y012543D02*
X021382Y012543D01*
X021739Y012385D02*
X021967Y012385D01*
X021967Y012226D02*
X021890Y012226D01*
X021955Y012068D02*
X021967Y012068D01*
X021967Y011745D02*
X021967Y010383D01*
X020935Y009352D01*
X020851Y009267D01*
X020361Y008777D01*
X020361Y011280D01*
X021487Y011280D01*
X021712Y011373D01*
X021884Y011546D01*
X021967Y011745D01*
X021967Y011592D02*
X021903Y011592D01*
X021967Y011434D02*
X021772Y011434D01*
X021967Y011275D02*
X020361Y011275D01*
X020361Y011117D02*
X021967Y011117D01*
X021967Y010958D02*
X020361Y010958D01*
X020361Y010800D02*
X021967Y010800D01*
X021967Y010641D02*
X020361Y010641D01*
X020361Y010483D02*
X021967Y010483D01*
X021908Y010324D02*
X020361Y010324D01*
X020361Y010166D02*
X021749Y010166D01*
X021591Y010007D02*
X020361Y010007D01*
X020361Y009849D02*
X021432Y009849D01*
X021274Y009690D02*
X020361Y009690D01*
X020361Y009532D02*
X021115Y009532D01*
X020957Y009373D02*
X020361Y009373D01*
X020361Y009215D02*
X020798Y009215D01*
X020851Y009267D02*
X020851Y009267D01*
X020935Y009352D02*
X020935Y009352D01*
X020640Y009056D02*
X020361Y009056D01*
X020361Y008898D02*
X020481Y008898D01*
X020141Y008723D02*
X018802Y007385D01*
X016834Y007385D01*
X017062Y007605D02*
X017013Y007654D01*
X016897Y007702D01*
X016770Y007702D01*
X016654Y007654D01*
X016565Y007564D01*
X016516Y007448D01*
X016516Y007322D01*
X016565Y007205D01*
X016654Y007116D01*
X016770Y007068D01*
X016897Y007068D01*
X017013Y007116D01*
X017062Y007165D01*
X018748Y007165D01*
X018481Y006897D01*
X017837Y006897D01*
X017727Y006852D01*
X016963Y006088D01*
X016430Y006621D01*
X016334Y006660D01*
X014527Y006660D01*
X014456Y006732D01*
X014456Y006960D01*
X014465Y006969D01*
X014513Y007085D01*
X014513Y007212D01*
X014465Y007328D01*
X014375Y007417D01*
X014259Y007466D01*
X014133Y007466D01*
X014016Y007417D01*
X013927Y007328D01*
X013879Y007212D01*
X013879Y007085D01*
X013927Y006969D01*
X013936Y006960D01*
X013936Y006737D01*
X013902Y006737D01*
X013841Y006677D01*
X013781Y006737D01*
X013232Y006737D01*
X013150Y006655D01*
X013150Y006146D01*
X013232Y006064D01*
X013287Y006064D01*
X013287Y005349D01*
X013218Y005281D01*
X013170Y005164D01*
X013170Y005038D01*
X013199Y004967D01*
X013155Y004967D01*
X013155Y005297D01*
X013073Y005379D01*
X012445Y005379D01*
X012424Y005358D01*
X012403Y005379D01*
X011884Y005379D01*
X011660Y005603D01*
X011660Y005858D01*
X011669Y005866D01*
X011718Y005983D01*
X011718Y006109D01*
X011669Y006226D01*
X011580Y006315D01*
X011464Y006363D01*
X011337Y006363D01*
X011221Y006315D01*
X011132Y006226D01*
X011083Y006109D01*
X011083Y005983D01*
X011132Y005866D01*
X011140Y005858D01*
X011140Y005755D01*
X010325Y005755D01*
X010230Y005715D01*
X009167Y004652D01*
X009093Y004579D01*
X009054Y004484D01*
X009054Y003464D01*
X008977Y003388D01*
X008977Y001464D01*
X008481Y001655D01*
X007225Y002295D01*
X006042Y003062D01*
X004947Y003950D01*
X003950Y004947D01*
X003831Y005094D02*
X007914Y005094D01*
X007914Y005199D02*
X007914Y003744D01*
X007996Y003662D01*
X008742Y003662D01*
X008824Y003744D01*
X008824Y005199D01*
X008742Y005281D01*
X007996Y005281D01*
X007914Y005199D01*
X007967Y005252D02*
X003702Y005252D01*
X003574Y005411D02*
X009925Y005411D01*
X010083Y005569D02*
X003446Y005569D01*
X003317Y005728D02*
X010259Y005728D01*
X010343Y005094D02*
X010591Y005094D01*
X010591Y004935D02*
X010185Y004935D01*
X010026Y004777D02*
X010591Y004777D01*
X010591Y004618D02*
X009868Y004618D01*
X009709Y004460D02*
X010591Y004460D01*
X010591Y004301D02*
X009574Y004301D01*
X009574Y004143D02*
X010591Y004143D01*
X010591Y003984D02*
X009574Y003984D01*
X009574Y003826D02*
X010591Y003826D01*
X010668Y003667D02*
X009574Y003667D01*
X009574Y003509D02*
X011702Y003509D01*
X011702Y003507D02*
X011693Y003471D01*
X011693Y003269D01*
X012071Y003269D01*
X012071Y003628D01*
X012071Y003744D01*
X011693Y003744D01*
X011693Y003542D01*
X011702Y003507D01*
X011693Y003350D02*
X010438Y003350D01*
X010438Y003192D02*
X011693Y003192D01*
X011693Y003033D02*
X010438Y003033D01*
X010438Y002875D02*
X011700Y002875D01*
X012071Y003033D02*
X012108Y003033D01*
X012108Y003192D02*
X012071Y003192D01*
X012071Y003350D02*
X012108Y003350D01*
X012108Y003509D02*
X012071Y003509D01*
X012071Y003667D02*
X012108Y003667D01*
X012108Y003781D02*
X012071Y003781D01*
X012071Y004217D01*
X012108Y004217D01*
X012108Y004140D01*
X012108Y003781D01*
X012108Y003826D02*
X012071Y003826D01*
X012071Y003984D02*
X012108Y003984D01*
X012108Y004143D02*
X012071Y004143D01*
X011693Y004143D02*
X011501Y004143D01*
X011501Y004301D02*
X011693Y004301D01*
X011694Y004460D02*
X011501Y004460D01*
X011501Y004618D02*
X011694Y004618D01*
X011694Y004777D02*
X011501Y004777D01*
X011501Y004935D02*
X011593Y004935D01*
X011853Y005411D02*
X013287Y005411D01*
X013287Y005569D02*
X011694Y005569D01*
X011660Y005728D02*
X013287Y005728D01*
X013287Y005886D02*
X011677Y005886D01*
X011718Y006045D02*
X013287Y006045D01*
X013150Y006203D02*
X011679Y006203D01*
X011468Y006362D02*
X013150Y006362D01*
X013150Y006520D02*
X008540Y006520D01*
X008550Y006544D02*
X008550Y006808D01*
X008448Y007053D01*
X008261Y007240D01*
X008017Y007341D01*
X006702Y007341D01*
X006458Y007240D01*
X006271Y007053D01*
X006170Y006808D01*
X006170Y006544D01*
X006271Y006299D01*
X006458Y006112D01*
X006702Y006011D01*
X008017Y006011D01*
X008261Y006112D01*
X008448Y006299D01*
X008550Y006544D01*
X008550Y006679D02*
X013173Y006679D01*
X013196Y006732D02*
X012974Y006732D01*
X012974Y007091D01*
X012974Y007128D01*
X012937Y007128D01*
X012937Y007486D01*
X012715Y007486D01*
X012670Y007474D01*
X012629Y007450D01*
X012595Y007417D01*
X012593Y007414D01*
X012561Y007446D01*
X012261Y007446D01*
X010397Y009310D01*
X010194Y009310D01*
X010137Y009523D01*
X009989Y009780D01*
X009780Y009989D01*
X009523Y010137D01*
X009238Y010214D01*
X008942Y010214D01*
X008656Y010137D01*
X008399Y009989D01*
X008190Y009780D01*
X008042Y009523D01*
X007965Y009238D01*
X007965Y008942D01*
X008042Y008656D01*
X008190Y008399D01*
X008399Y008190D01*
X008656Y008042D01*
X008942Y007965D01*
X009238Y007965D01*
X009523Y008042D01*
X009780Y008190D01*
X009989Y008399D01*
X010137Y008656D01*
X010194Y008870D01*
X010215Y008870D01*
X011930Y007155D01*
X011930Y006854D01*
X012012Y006772D01*
X012561Y006772D01*
X012593Y006805D01*
X012595Y006802D01*
X012629Y006768D01*
X012670Y006745D01*
X012715Y006732D01*
X012937Y006732D01*
X012937Y007091D01*
X012974Y007091D01*
X013352Y007091D01*
X013352Y006889D01*
X013340Y006843D01*
X013316Y006802D01*
X013283Y006768D01*
X013242Y006745D01*
X013196Y006732D01*
X013337Y006837D02*
X013936Y006837D01*
X013916Y006996D02*
X013352Y006996D01*
X013352Y007128D02*
X013352Y007330D01*
X013340Y007375D01*
X013316Y007417D01*
X013283Y007450D01*
X013242Y007474D01*
X013196Y007486D01*
X012974Y007486D01*
X012974Y007128D01*
X013352Y007128D01*
X013352Y007154D02*
X013879Y007154D01*
X013920Y007313D02*
X013352Y007313D01*
X013246Y007471D02*
X016526Y007471D01*
X016520Y007313D02*
X014471Y007313D01*
X014513Y007154D02*
X016616Y007154D01*
X017051Y007154D02*
X018738Y007154D01*
X018579Y006996D02*
X014476Y006996D01*
X014456Y006837D02*
X017712Y006837D01*
X017553Y006679D02*
X014509Y006679D01*
X013843Y006679D02*
X013840Y006679D01*
X013507Y006400D02*
X013507Y005121D01*
X013487Y005101D01*
X013487Y005219D01*
X013206Y005252D02*
X013155Y005252D01*
X013155Y005094D02*
X013170Y005094D01*
X012936Y004747D02*
X012759Y004924D01*
X012759Y004944D01*
X012936Y004747D02*
X013664Y004747D01*
X014019Y004393D01*
X014019Y004245D01*
X013526Y003753D01*
X013526Y003497D02*
X012965Y003497D01*
X012759Y003251D01*
X012759Y003763D01*
X012759Y004235D01*
X012798Y004196D01*
X013251Y004196D01*
X013369Y004314D01*
X013946Y004777D02*
X015001Y004777D01*
X015001Y004935D02*
X013787Y004935D01*
X013804Y005094D02*
X015001Y005094D01*
X015001Y005252D02*
X013768Y005252D01*
X013727Y005411D02*
X015731Y005411D01*
X015690Y005569D02*
X013727Y005569D01*
X013727Y005728D02*
X015727Y005728D01*
X015932Y005886D02*
X013727Y005886D01*
X013727Y006045D02*
X016271Y006045D01*
X016339Y005886D02*
X016082Y005886D01*
X016286Y005728D02*
X016339Y005728D01*
X016324Y005569D02*
X016339Y005569D01*
X016366Y005411D02*
X016282Y005411D01*
X016383Y005252D02*
X024217Y005252D01*
X024345Y005411D02*
X019473Y005411D01*
X019482Y005425D02*
X019494Y005471D01*
X019494Y005673D01*
X018820Y005673D01*
X018820Y005315D01*
X019338Y005315D01*
X019383Y005327D01*
X019424Y005351D01*
X019458Y005384D01*
X019482Y005425D01*
X019494Y005569D02*
X024473Y005569D01*
X024602Y005728D02*
X019494Y005728D01*
X019494Y005710D02*
X019494Y005912D01*
X019482Y005958D01*
X019458Y005999D01*
X019424Y006033D01*
X019383Y006056D01*
X019338Y006069D01*
X018820Y006069D01*
X018820Y005710D01*
X018784Y005710D01*
X018784Y006069D01*
X018267Y006069D01*
X018221Y006056D01*
X018180Y006033D01*
X018146Y005999D01*
X018123Y005958D01*
X018110Y005912D01*
X018110Y005710D01*
X018784Y005710D01*
X018784Y005673D01*
X018820Y005673D01*
X018820Y005710D01*
X019494Y005710D01*
X019494Y005886D02*
X024730Y005886D01*
X024858Y006045D02*
X024401Y006045D01*
X024397Y006042D02*
X024477Y006089D01*
X024550Y006145D01*
X024616Y006210D01*
X024672Y006284D01*
X024718Y006364D01*
X024754Y006449D01*
X024777Y006538D01*
X024785Y006596D01*
X023640Y006596D01*
X023640Y006756D01*
X024785Y006756D01*
X024777Y006814D01*
X024754Y006903D01*
X024718Y006989D01*
X024672Y007069D01*
X024616Y007142D01*
X024550Y007207D01*
X024477Y007264D01*
X024397Y007310D01*
X024312Y007345D01*
X024222Y007369D01*
X024131Y007381D01*
X023640Y007381D01*
X023640Y006756D01*
X023480Y006756D01*
X023480Y007381D01*
X022988Y007381D01*
X022897Y007369D01*
X022807Y007345D01*
X022722Y007310D01*
X022642Y007264D01*
X022569Y007207D01*
X022503Y007142D01*
X022447Y007069D01*
X022401Y006989D01*
X022366Y006903D01*
X022342Y006814D01*
X022334Y006756D01*
X023480Y006756D01*
X023480Y006596D01*
X023640Y006596D01*
X023640Y005971D01*
X024131Y005971D01*
X024222Y005983D01*
X024312Y006007D01*
X024397Y006042D01*
X024608Y006203D02*
X024961Y006203D01*
X025064Y006362D02*
X024717Y006362D01*
X024773Y006520D02*
X025167Y006520D01*
X025270Y006679D02*
X023640Y006679D01*
X023640Y006837D02*
X023480Y006837D01*
X023480Y006679D02*
X020640Y006679D01*
X020640Y006756D02*
X020640Y006596D01*
X021785Y006596D01*
X021777Y006538D01*
X021754Y006449D01*
X021718Y006364D01*
X021672Y006284D01*
X021616Y006210D01*
X021550Y006145D01*
X021477Y006089D01*
X021397Y006042D01*
X021312Y006007D01*
X021222Y005983D01*
X021131Y005971D01*
X020640Y005971D01*
X020640Y006596D01*
X020480Y006596D01*
X020480Y005971D01*
X019988Y005971D01*
X019897Y005983D01*
X019807Y006007D01*
X019722Y006042D01*
X019642Y006089D01*
X019569Y006145D01*
X019503Y006210D01*
X019447Y006284D01*
X019401Y006364D01*
X019366Y006449D01*
X019342Y006538D01*
X019334Y006596D01*
X020480Y006596D01*
X020480Y006756D01*
X020640Y006756D01*
X021785Y006756D01*
X021777Y006814D01*
X021754Y006903D01*
X021718Y006989D01*
X021672Y007069D01*
X021616Y007142D01*
X021550Y007207D01*
X021477Y007264D01*
X021397Y007310D01*
X021312Y007345D01*
X021222Y007369D01*
X021131Y007381D01*
X020640Y007381D01*
X020640Y006756D01*
X020640Y006837D02*
X020480Y006837D01*
X020480Y006679D02*
X019111Y006679D01*
X019269Y006837D02*
X019348Y006837D01*
X019346Y006520D02*
X018952Y006520D01*
X018794Y006362D02*
X019402Y006362D01*
X019511Y006203D02*
X017926Y006203D01*
X017768Y006045D02*
X018200Y006045D01*
X018110Y005886D02*
X017643Y005886D01*
X017643Y005728D02*
X018110Y005728D01*
X018110Y005673D02*
X018110Y005471D01*
X018123Y005425D01*
X018146Y005384D01*
X018180Y005351D01*
X018221Y005327D01*
X018267Y005315D01*
X018784Y005315D01*
X018784Y005673D01*
X018110Y005673D01*
X018110Y005569D02*
X017643Y005569D01*
X017616Y005411D02*
X018131Y005411D01*
X018784Y005411D02*
X018820Y005411D01*
X018820Y005569D02*
X018784Y005569D01*
X018784Y005728D02*
X018820Y005728D01*
X018820Y005886D02*
X018784Y005886D01*
X018784Y006045D02*
X018820Y006045D01*
X019404Y006045D02*
X019718Y006045D01*
X020480Y006045D02*
X020640Y006045D01*
X020640Y006203D02*
X020480Y006203D01*
X020480Y006362D02*
X020640Y006362D01*
X020640Y006520D02*
X020480Y006520D01*
X020480Y006996D02*
X020640Y006996D01*
X020640Y007154D02*
X020480Y007154D01*
X020480Y007313D02*
X020640Y007313D01*
X020220Y007788D02*
X021990Y007788D01*
X021832Y007947D02*
X020379Y007947D01*
X020537Y008105D02*
X021673Y008105D01*
X021515Y008264D02*
X020696Y008264D01*
X020854Y008422D02*
X021356Y008422D01*
X021198Y008581D02*
X021013Y008581D01*
X021571Y009056D02*
X022777Y009056D01*
X022693Y008898D02*
X021729Y008898D01*
X021888Y008739D02*
X022677Y008739D01*
X022677Y008606D02*
X022677Y008404D01*
X022689Y008359D01*
X022713Y008318D01*
X022747Y008284D01*
X022788Y008260D01*
X022833Y008248D01*
X023114Y008248D01*
X023114Y008606D01*
X022677Y008606D01*
X022677Y008581D02*
X022046Y008581D01*
X022205Y008422D02*
X022677Y008422D01*
X022782Y008264D02*
X022363Y008264D01*
X022195Y007630D02*
X020062Y007630D01*
X019903Y007471D02*
X025750Y007471D01*
X025831Y007630D02*
X023548Y007630D01*
X023548Y007788D02*
X025911Y007788D01*
X025992Y007947D02*
X024365Y007947D01*
X024414Y008105D02*
X026073Y008105D01*
X026154Y008264D02*
X024414Y008264D01*
X024414Y008422D02*
X026235Y008422D01*
X026303Y008581D02*
X024340Y008581D01*
X024299Y008739D02*
X026364Y008739D01*
X026424Y008898D02*
X024299Y008898D01*
X023699Y008898D02*
X023572Y008898D01*
X023576Y008891D02*
X023552Y008932D01*
X023550Y008934D01*
X023699Y008934D01*
X023699Y008588D01*
X023665Y008588D01*
X023588Y008511D01*
X023588Y008606D01*
X023151Y008606D01*
X023151Y008643D01*
X023588Y008643D01*
X023588Y008845D01*
X023576Y008891D01*
X023588Y008739D02*
X023699Y008739D01*
X023658Y008581D02*
X023588Y008581D01*
X023583Y008264D02*
X023483Y008264D01*
X023548Y008105D02*
X023583Y008105D01*
X023548Y007947D02*
X023633Y007947D01*
X023151Y008264D02*
X023114Y008264D01*
X023114Y008422D02*
X023151Y008422D01*
X023151Y008581D02*
X023114Y008581D01*
X022599Y009215D02*
X021647Y009215D01*
X021805Y009373D02*
X022471Y009373D01*
X022405Y009532D02*
X021964Y009532D01*
X022122Y009690D02*
X022357Y009690D01*
X022357Y009849D02*
X022281Y009849D01*
X022567Y010483D02*
X022644Y010483D01*
X022567Y010641D02*
X022887Y010641D01*
X022567Y010800D02*
X027038Y010800D01*
X027081Y010958D02*
X022567Y010958D01*
X022567Y011117D02*
X027123Y011117D01*
X027153Y011275D02*
X022567Y011275D01*
X022567Y011434D02*
X027178Y011434D01*
X027203Y011592D02*
X022567Y011592D01*
X022567Y011751D02*
X027228Y011751D01*
X027253Y011909D02*
X022567Y011909D01*
X022567Y012068D02*
X027279Y012068D01*
X027304Y012226D02*
X022567Y012226D01*
X022567Y012385D02*
X027329Y012385D01*
X027354Y012543D02*
X022567Y012543D01*
X022567Y012702D02*
X027363Y012702D01*
X027355Y012552D02*
X027355Y012552D01*
X027371Y012860D02*
X022567Y012860D01*
X022567Y013019D02*
X027380Y013019D01*
X027388Y013177D02*
X022567Y013177D01*
X021377Y013494D02*
X021211Y013494D01*
X021346Y013653D02*
X021377Y013653D01*
X019865Y013960D02*
X019786Y013881D01*
X019786Y011597D01*
X020141Y011243D01*
X020141Y008723D01*
X019921Y008814D02*
X018711Y007605D01*
X017062Y007605D01*
X017037Y007630D02*
X018736Y007630D01*
X018894Y007788D02*
X011919Y007788D01*
X012077Y007630D02*
X016630Y007630D01*
X016531Y006520D02*
X017395Y006520D01*
X017236Y006362D02*
X016689Y006362D01*
X016848Y006203D02*
X017078Y006203D01*
X016026Y005554D02*
X016026Y005023D01*
X016383Y005094D02*
X024088Y005094D01*
X023958Y004935D02*
X016383Y004935D01*
X016383Y004777D02*
X023799Y004777D01*
X023641Y004618D02*
X016383Y004618D01*
X016383Y004460D02*
X023482Y004460D01*
X023324Y004301D02*
X017573Y004301D01*
X017574Y004300D02*
X017533Y004324D01*
X017487Y004336D01*
X017265Y004336D01*
X017265Y003978D01*
X017643Y003978D01*
X017643Y004180D01*
X017631Y004226D01*
X017608Y004267D01*
X017574Y004300D01*
X017643Y004143D02*
X023165Y004143D01*
X023133Y003723D02*
X018881Y003723D01*
X018524Y003984D02*
X017643Y003984D01*
X017643Y003826D02*
X018174Y003826D01*
X018286Y003907D02*
X018286Y003907D01*
X017956Y003667D02*
X017616Y003667D01*
X017840Y003509D02*
X017367Y003509D01*
X017367Y003350D02*
X017725Y003350D01*
X017713Y003334D02*
X017713Y003334D01*
X017667Y003192D02*
X017407Y003192D01*
X017407Y003033D02*
X017615Y003033D01*
X017587Y002875D02*
X017407Y002875D01*
X017397Y002716D02*
X017587Y002716D01*
X017587Y002558D02*
X016000Y002558D01*
X016000Y002399D02*
X017587Y002399D01*
X017587Y002241D02*
X016000Y002241D01*
X016035Y002082D02*
X017587Y002082D01*
X017587Y001924D02*
X016107Y001924D01*
X016107Y001765D02*
X017587Y001765D01*
X017587Y001607D02*
X016107Y001607D01*
X016055Y001448D02*
X017587Y001448D01*
X017587Y001290D02*
X009432Y001290D01*
X009638Y001448D02*
X009777Y001448D01*
X009764Y001607D02*
X009651Y001607D01*
X009651Y001765D02*
X009764Y001765D01*
X009764Y001924D02*
X009651Y001924D01*
X009651Y002082D02*
X009764Y002082D01*
X009764Y002241D02*
X009651Y002241D01*
X009651Y002399D02*
X009764Y002399D01*
X009764Y002558D02*
X009651Y002558D01*
X009651Y002716D02*
X009764Y002716D01*
X009764Y002875D02*
X009651Y002875D01*
X009651Y003033D02*
X009764Y003033D01*
X009764Y003192D02*
X009651Y003192D01*
X009651Y003350D02*
X009764Y003350D01*
X009054Y003509D02*
X007324Y003509D01*
X007323Y003512D02*
X007324Y003514D01*
X007333Y003519D01*
X007342Y003553D01*
X007356Y003584D01*
X007353Y003593D01*
X007353Y003596D01*
X007361Y003602D01*
X007364Y003637D01*
X007373Y003670D01*
X007368Y003679D01*
X007368Y003681D01*
X007375Y003689D01*
X007372Y003723D01*
X007375Y003757D01*
X007368Y003765D01*
X007368Y003768D01*
X007373Y003777D01*
X007364Y003810D01*
X007361Y003844D01*
X007353Y003851D01*
X007353Y003853D01*
X007356Y003863D01*
X007342Y003894D01*
X007333Y003927D01*
X007324Y003932D01*
X007323Y003935D01*
X007325Y003945D01*
X007305Y003973D01*
X007291Y004004D01*
X007281Y004008D01*
X007280Y004009D01*
X007280Y004020D01*
X007255Y004044D01*
X007236Y004072D01*
X007225Y004074D01*
X007224Y004076D01*
X007222Y004086D01*
X007194Y004106D01*
X007169Y004130D01*
X007159Y004130D01*
X007157Y004131D01*
X007154Y004141D01*
X007122Y004156D01*
X007094Y004175D01*
X007084Y004173D01*
X007082Y004174D01*
X007077Y004183D01*
X007044Y004192D01*
X007013Y004207D01*
X007003Y004203D01*
X007000Y004204D01*
X006994Y004212D01*
X006960Y004215D01*
X006926Y004224D01*
X006917Y004219D01*
X006915Y004219D01*
X006907Y004225D01*
X006873Y004222D01*
X006839Y004225D01*
X006831Y004219D01*
X006828Y004219D01*
X006819Y004224D01*
X006786Y004215D01*
X006752Y004212D01*
X006745Y004204D01*
X006743Y004203D01*
X006733Y004207D01*
X006702Y004192D01*
X006669Y004183D01*
X006664Y004174D01*
X006662Y004173D01*
X006651Y004175D01*
X006623Y004156D01*
X006592Y004141D01*
X006589Y004131D01*
X006587Y004130D01*
X006576Y004130D01*
X006552Y004106D01*
X006524Y004086D01*
X006522Y004076D01*
X006520Y004074D01*
X006510Y004072D01*
X006491Y004044D01*
X006466Y004020D01*
X006466Y004009D01*
X006465Y004008D01*
X006455Y004004D01*
X006441Y003973D01*
X006421Y003945D01*
X006423Y003935D01*
X006422Y003932D01*
X006413Y003927D01*
X006404Y003894D01*
X006389Y003863D01*
X006393Y003853D01*
X006392Y003851D01*
X006384Y003844D01*
X006381Y003810D01*
X006373Y003777D01*
X006378Y003768D01*
X006377Y003765D01*
X006371Y003757D01*
X006374Y003723D01*
X006371Y003689D01*
X006377Y003681D01*
X006378Y003679D01*
X006373Y003670D01*
X006381Y003637D01*
X006384Y003602D01*
X006392Y003596D01*
X006393Y003593D01*
X006389Y003584D01*
X006404Y003553D01*
X006413Y003519D01*
X006422Y003514D01*
X006423Y003512D01*
X006421Y003502D01*
X006441Y003474D01*
X006455Y003443D01*
X006465Y003439D01*
X006466Y003437D01*
X006466Y003427D01*
X006491Y003402D01*
X006510Y003374D01*
X006520Y003373D01*
X006522Y003371D01*
X006524Y003361D01*
X006552Y003341D01*
X006576Y003317D01*
X006587Y003317D01*
X006589Y003315D01*
X006592Y003306D01*
X006623Y003291D01*
X006651Y003271D01*
X006662Y003273D01*
X006664Y003272D01*
X006669Y003263D01*
X006702Y003254D01*
X006733Y003240D01*
X006743Y003243D01*
X006745Y003243D01*
X006752Y003235D01*
X006786Y003232D01*
X006819Y003223D01*
X006828Y003228D01*
X006831Y003228D01*
X006839Y003221D01*
X006873Y003224D01*
X006907Y003221D01*
X006915Y003228D01*
X006917Y003228D01*
X006926Y003223D01*
X006960Y003232D01*
X006994Y003235D01*
X007000Y003243D01*
X007003Y003243D01*
X007013Y003240D01*
X007044Y003254D01*
X007077Y003263D01*
X007082Y003272D01*
X007084Y003273D01*
X007094Y003271D01*
X007122Y003291D01*
X007154Y003306D01*
X007157Y003315D01*
X007159Y003317D01*
X007169Y003317D01*
X007194Y003341D01*
X007222Y003361D01*
X007224Y003371D01*
X007225Y003373D01*
X007236Y003374D01*
X007255Y003402D01*
X007280Y003427D01*
X007280Y003437D01*
X007281Y003439D01*
X007291Y003443D01*
X007305Y003474D01*
X007325Y003502D01*
X007323Y003512D01*
X007373Y003667D02*
X007991Y003667D01*
X007914Y003826D02*
X007363Y003826D01*
X007300Y003984D02*
X007914Y003984D01*
X007914Y004143D02*
X007150Y004143D01*
X006595Y004143D02*
X004754Y004143D01*
X004595Y004301D02*
X007914Y004301D01*
X008747Y003667D02*
X009054Y003667D01*
X009054Y003826D02*
X008824Y003826D01*
X008824Y003984D02*
X009054Y003984D01*
X009054Y004143D02*
X008824Y004143D01*
X008824Y004301D02*
X009054Y004301D01*
X009054Y004460D02*
X008824Y004460D01*
X008824Y004618D02*
X009132Y004618D01*
X009291Y004777D02*
X008824Y004777D01*
X008824Y004935D02*
X009449Y004935D01*
X009608Y005094D02*
X008824Y005094D01*
X008771Y005252D02*
X009766Y005252D01*
X011124Y005886D02*
X003189Y005886D01*
X003061Y006045D02*
X003622Y006045D01*
X003702Y006011D02*
X003458Y006112D01*
X003271Y006299D01*
X003170Y006544D01*
X003170Y006808D01*
X003271Y007053D01*
X003458Y007240D01*
X003702Y007341D01*
X005017Y007341D01*
X005261Y007240D01*
X005448Y007053D01*
X005550Y006808D01*
X005550Y006544D01*
X005448Y006299D01*
X005261Y006112D01*
X005017Y006011D01*
X003702Y006011D01*
X003367Y006203D02*
X002958Y006203D01*
X002855Y006362D02*
X003245Y006362D01*
X003179Y006520D02*
X002752Y006520D01*
X002649Y006679D02*
X003170Y006679D01*
X003181Y006837D02*
X002546Y006837D01*
X002443Y006996D02*
X003247Y006996D01*
X003372Y007154D02*
X002341Y007154D01*
X002250Y007313D02*
X003633Y007313D01*
X002169Y007471D02*
X011613Y007471D01*
X011455Y007630D02*
X002088Y007630D01*
X002008Y007788D02*
X011296Y007788D01*
X011138Y007947D02*
X001927Y007947D01*
X001846Y008105D02*
X008546Y008105D01*
X008326Y008264D02*
X001765Y008264D01*
X001685Y008422D02*
X008177Y008422D01*
X008085Y008581D02*
X001616Y008581D01*
X001555Y008739D02*
X008020Y008739D01*
X007977Y008898D02*
X001495Y008898D01*
X001434Y009056D02*
X007965Y009056D01*
X007965Y009215D02*
X001373Y009215D01*
X001312Y009373D02*
X008002Y009373D01*
X008047Y009532D02*
X001251Y009532D01*
X001190Y009690D02*
X005596Y009690D01*
X005598Y009687D02*
X005914Y009556D01*
X006257Y009556D01*
X006573Y009687D01*
X006815Y009929D01*
X006945Y010245D01*
X006945Y010587D01*
X006815Y010903D01*
X006573Y011145D01*
X006257Y011276D01*
X005914Y011276D01*
X005598Y011145D01*
X005357Y010903D01*
X005226Y010587D01*
X005226Y010245D01*
X005357Y009929D01*
X005598Y009687D01*
X005437Y009849D02*
X001135Y009849D01*
X001093Y010007D02*
X005324Y010007D01*
X005259Y010166D02*
X001051Y010166D01*
X001008Y010324D02*
X005226Y010324D01*
X005226Y010483D02*
X000966Y010483D01*
X000923Y010641D02*
X005248Y010641D01*
X005314Y010800D02*
X000881Y010800D01*
X000838Y010958D02*
X003421Y010958D01*
X002845Y011117D02*
X000796Y011117D01*
X000766Y011275D02*
X002481Y011275D01*
X002229Y011434D02*
X000741Y011434D01*
X000716Y011592D02*
X001991Y011592D01*
X001832Y011751D02*
X000691Y011751D01*
X000666Y011909D02*
X001674Y011909D01*
X001520Y012068D02*
X000640Y012068D01*
X000615Y012226D02*
X001421Y012226D01*
X001321Y012385D02*
X000590Y012385D01*
X000565Y012543D02*
X001222Y012543D01*
X001141Y012702D02*
X000556Y012702D01*
X000548Y012860D02*
X001086Y012860D01*
X001030Y013019D02*
X000539Y013019D01*
X000531Y013177D02*
X000975Y013177D01*
X000933Y013336D02*
X000523Y013336D01*
X000514Y013494D02*
X000915Y013494D01*
X000897Y013653D02*
X000506Y013653D01*
X000498Y013811D02*
X000879Y013811D01*
X000864Y013970D02*
X000491Y013970D01*
X000499Y014128D02*
X000881Y014128D01*
X000899Y014287D02*
X000507Y014287D01*
X000515Y014445D02*
X000917Y014445D01*
X000935Y014604D02*
X000524Y014604D01*
X000532Y014762D02*
X000982Y014762D01*
X001037Y014921D02*
X000540Y014921D01*
X000549Y015079D02*
X001093Y015079D01*
X001148Y015238D02*
X000557Y015238D01*
X000568Y015396D02*
X001234Y015396D01*
X001334Y015555D02*
X000593Y015555D01*
X000619Y015713D02*
X001433Y015713D01*
X001535Y015872D02*
X000644Y015872D01*
X000669Y016030D02*
X001694Y016030D01*
X001852Y016189D02*
X000694Y016189D01*
X000719Y016347D02*
X002011Y016347D01*
X002261Y016506D02*
X000744Y016506D01*
X000769Y016664D02*
X002513Y016664D01*
X002902Y016823D02*
X000801Y016823D01*
X000844Y016981D02*
X003598Y016981D01*
X004242Y016981D02*
X005878Y016981D01*
X005884Y017140D02*
X005832Y017140D01*
X005741Y017140D02*
X000886Y017140D01*
X000929Y017298D02*
X005585Y017298D01*
X005560Y017457D02*
X000971Y017457D01*
X001013Y017615D02*
X005689Y017615D01*
X005773Y017615D02*
X005825Y017615D01*
X005847Y017774D02*
X001056Y017774D01*
X001098Y017932D02*
X006081Y017932D01*
X006164Y018091D02*
X001141Y018091D01*
X001198Y018249D02*
X006323Y018249D01*
X006355Y018091D02*
X006407Y018091D01*
X006514Y017932D02*
X006566Y017932D01*
X006624Y017932D02*
X006676Y017932D01*
X006507Y017774D02*
X006466Y017774D01*
X006348Y017615D02*
X006307Y017615D01*
X006190Y017457D02*
X006149Y017457D01*
X005983Y017457D02*
X005931Y017457D01*
X005990Y017298D02*
X006042Y017298D01*
X005719Y016823D02*
X004938Y016823D01*
X005327Y016664D02*
X005561Y016664D01*
X006544Y015555D02*
X009468Y015555D01*
X009527Y015713D02*
X006703Y015713D01*
X006861Y015872D02*
X009587Y015872D01*
X009646Y016030D02*
X007020Y016030D01*
X007342Y016189D02*
X009740Y016189D01*
X009648Y016036D02*
X009648Y016036D01*
X009834Y016347D02*
X009102Y016347D01*
X009284Y016506D02*
X009929Y016506D01*
X010024Y016664D02*
X009443Y016664D01*
X009601Y016823D02*
X010132Y016823D01*
X010271Y016981D02*
X009760Y016981D01*
X009918Y017140D02*
X010409Y017140D01*
X010548Y017298D02*
X010077Y017298D01*
X010235Y017457D02*
X010701Y017457D01*
X010653Y017418D02*
X010653Y017418D01*
X010900Y017615D02*
X010394Y017615D01*
X010552Y017774D02*
X011098Y017774D01*
X011297Y017932D02*
X010711Y017932D01*
X010845Y018091D02*
X011579Y018091D01*
X011323Y017953D02*
X011323Y017953D01*
X010910Y018249D02*
X011874Y018249D01*
X012227Y018408D02*
X010940Y018408D01*
X010940Y018566D02*
X012715Y018566D01*
X012147Y020310D02*
X012110Y020310D01*
X012110Y020468D02*
X012147Y020468D01*
X012517Y020785D02*
X012541Y020785D01*
X012937Y020785D02*
X012953Y020785D01*
X010940Y019359D02*
X016123Y019359D01*
X016282Y019200D02*
X010940Y019200D01*
X010940Y019042D02*
X016440Y019042D01*
X015848Y020310D02*
X015811Y020310D01*
X015811Y020468D02*
X015848Y020468D01*
X015848Y020627D02*
X015811Y020627D01*
X015811Y020785D02*
X015848Y020785D01*
X015215Y022846D02*
X014981Y022846D01*
X013093Y023797D02*
X012797Y023797D01*
X011575Y024906D02*
X011510Y024906D01*
X011575Y025065D02*
X010202Y025065D01*
X010202Y025223D02*
X011575Y025223D01*
X011575Y025382D02*
X010202Y025382D01*
X010202Y025857D02*
X011575Y025857D01*
X011575Y026016D02*
X010202Y026016D01*
X010202Y026174D02*
X011575Y026174D01*
X011575Y026333D02*
X010202Y026333D01*
X010202Y026491D02*
X011575Y026491D01*
X011575Y026650D02*
X010202Y026650D01*
X010585Y024636D02*
X010917Y024636D01*
X010902Y024621D01*
X010878Y024580D01*
X010866Y024534D01*
X010866Y024332D01*
X011244Y024332D01*
X011244Y024295D01*
X010866Y024295D01*
X010866Y024241D01*
X010859Y024244D01*
X010745Y024244D01*
X010639Y024200D01*
X010636Y024197D01*
X010636Y024295D01*
X010257Y024295D01*
X010257Y024332D01*
X010636Y024332D01*
X010636Y024534D01*
X010623Y024580D01*
X010600Y024621D01*
X010585Y024636D01*
X010618Y024589D02*
X010884Y024589D01*
X010866Y024431D02*
X010636Y024431D01*
X010636Y024272D02*
X010866Y024272D01*
X011041Y023663D02*
X011248Y023663D01*
X011248Y023626D01*
X011056Y023626D01*
X011041Y023663D01*
X011051Y023638D02*
X011248Y023638D01*
X008228Y022212D02*
X003334Y022212D01*
X003205Y022053D02*
X008063Y022053D01*
X006670Y021895D02*
X005049Y021895D01*
X005017Y021908D02*
X005261Y021807D01*
X005448Y021620D01*
X005550Y021375D01*
X005550Y021111D01*
X005448Y020866D01*
X005261Y020679D01*
X005017Y020578D01*
X003702Y020578D01*
X003458Y020679D01*
X003271Y020866D01*
X003170Y021111D01*
X003170Y021375D01*
X003271Y021620D01*
X003458Y021807D01*
X003702Y021908D01*
X005017Y021908D01*
X005332Y021736D02*
X006387Y021736D01*
X006253Y021578D02*
X005466Y021578D01*
X005531Y021419D02*
X006188Y021419D01*
X006170Y021261D02*
X005550Y021261D01*
X005546Y021102D02*
X006173Y021102D01*
X006239Y020944D02*
X005480Y020944D01*
X005367Y020785D02*
X006352Y020785D01*
X006585Y020627D02*
X005134Y020627D01*
X003585Y020627D02*
X002260Y020627D01*
X002179Y020468D02*
X008378Y020468D01*
X008366Y020627D02*
X008134Y020627D01*
X008793Y020468D02*
X008889Y020468D01*
X009305Y020468D02*
X009460Y020468D01*
X009460Y020310D02*
X002099Y020310D01*
X002018Y020151D02*
X009460Y020151D01*
X009460Y019993D02*
X001937Y019993D01*
X001856Y019834D02*
X009460Y019834D01*
X009460Y019676D02*
X001775Y019676D01*
X001695Y019517D02*
X009460Y019517D01*
X009460Y019359D02*
X009442Y019359D01*
X008737Y019359D02*
X001624Y019359D01*
X001563Y019200D02*
X008578Y019200D01*
X008502Y019042D02*
X001502Y019042D01*
X001441Y018883D02*
X008466Y018883D01*
X008466Y018725D02*
X001381Y018725D01*
X001320Y018566D02*
X008524Y018566D01*
X008629Y018408D02*
X001259Y018408D01*
X002354Y020785D02*
X003352Y020785D01*
X003239Y020944D02*
X002456Y020944D01*
X002559Y021102D02*
X003173Y021102D01*
X003170Y021261D02*
X002662Y021261D01*
X002765Y021419D02*
X003188Y021419D01*
X003253Y021578D02*
X002868Y021578D01*
X002971Y021736D02*
X003387Y021736D01*
X003670Y021895D02*
X003077Y021895D01*
X006606Y015396D02*
X009408Y015396D01*
X009349Y015238D02*
X006692Y015238D01*
X006748Y015079D02*
X009319Y015079D01*
X009290Y014921D02*
X006803Y014921D01*
X006859Y014762D02*
X009262Y014762D01*
X009233Y014604D02*
X006905Y014604D01*
X006923Y014445D02*
X009204Y014445D01*
X009194Y014287D02*
X006941Y014287D01*
X006959Y014128D02*
X009194Y014128D01*
X009194Y013970D02*
X006977Y013970D01*
X006961Y013811D02*
X009194Y013811D01*
X009194Y013653D02*
X006943Y013653D01*
X006925Y013494D02*
X009200Y013494D01*
X009229Y013336D02*
X006908Y013336D01*
X006866Y013177D02*
X009258Y013177D01*
X009287Y013019D02*
X006810Y013019D01*
X006755Y012860D02*
X009315Y012860D01*
X009344Y012702D02*
X006699Y012702D01*
X006619Y012543D02*
X009401Y012543D01*
X009460Y012385D02*
X006519Y012385D01*
X006419Y012226D02*
X009520Y012226D01*
X009579Y012068D02*
X006320Y012068D01*
X006167Y011909D02*
X008674Y011909D01*
X008552Y011859D02*
X008311Y011617D01*
X008180Y011301D01*
X008180Y010958D01*
X006760Y010958D01*
X006858Y010800D02*
X008245Y010800D01*
X008311Y010642D02*
X008552Y010401D01*
X008868Y010270D01*
X009211Y010270D01*
X009527Y010401D01*
X009769Y010642D01*
X009899Y010958D01*
X010253Y010958D01*
X010115Y011117D02*
X009899Y011117D01*
X009899Y011275D02*
X010012Y011275D01*
X009899Y011301D02*
X009769Y011617D01*
X009527Y011859D01*
X009211Y011989D01*
X008868Y011989D01*
X008552Y011859D01*
X008444Y011751D02*
X006008Y011751D01*
X005850Y011592D02*
X008300Y011592D01*
X008235Y011434D02*
X005611Y011434D01*
X005359Y011275D02*
X005912Y011275D01*
X005570Y011117D02*
X004995Y011117D01*
X005411Y010958D02*
X004419Y010958D01*
X006259Y011275D02*
X008180Y011275D01*
X008180Y011117D02*
X006601Y011117D01*
X006923Y010641D02*
X008312Y010641D01*
X008311Y010642D02*
X008180Y010958D01*
X008470Y010483D02*
X006945Y010483D01*
X006945Y010324D02*
X008737Y010324D01*
X008761Y010166D02*
X006912Y010166D01*
X006847Y010007D02*
X008430Y010007D01*
X008259Y009849D02*
X006734Y009849D01*
X006575Y009690D02*
X008138Y009690D01*
X009090Y009090D02*
X010306Y009090D01*
X012286Y007109D01*
X011930Y007154D02*
X008347Y007154D01*
X008472Y006996D02*
X011930Y006996D01*
X011947Y006837D02*
X008538Y006837D01*
X008474Y006362D02*
X011333Y006362D01*
X011122Y006203D02*
X008352Y006203D01*
X008098Y006045D02*
X011083Y006045D01*
X011772Y007313D02*
X008086Y007313D01*
X006633Y007313D02*
X005086Y007313D01*
X005347Y007154D02*
X006372Y007154D01*
X006247Y006996D02*
X005472Y006996D01*
X005538Y006837D02*
X006181Y006837D01*
X006170Y006679D02*
X005550Y006679D01*
X005540Y006520D02*
X006179Y006520D01*
X006245Y006362D02*
X005474Y006362D01*
X005352Y006203D02*
X006367Y006203D01*
X006622Y006045D02*
X005098Y006045D01*
X004912Y003984D02*
X006446Y003984D01*
X006383Y003826D02*
X005100Y003826D01*
X005296Y003667D02*
X006373Y003667D01*
X006422Y003509D02*
X005492Y003509D01*
X005687Y003350D02*
X006539Y003350D01*
X006332Y002875D02*
X008977Y002875D01*
X008977Y003033D02*
X006088Y003033D01*
X005883Y003192D02*
X008977Y003192D01*
X008977Y003350D02*
X007207Y003350D01*
X006820Y002558D02*
X008977Y002558D01*
X008977Y002716D02*
X006576Y002716D01*
X007064Y002399D02*
X008977Y002399D01*
X008977Y002241D02*
X007331Y002241D01*
X007642Y002082D02*
X008977Y002082D01*
X008977Y001924D02*
X007953Y001924D01*
X008264Y001765D02*
X008977Y001765D01*
X008977Y001607D02*
X008606Y001607D01*
X009865Y001131D02*
X017587Y001131D01*
X017462Y000973D02*
X010457Y000973D01*
X010426Y001448D02*
X014777Y001448D01*
X015082Y001755D02*
X013566Y001755D01*
X013487Y001834D01*
X013266Y001607D02*
X011609Y001607D01*
X011428Y001607D02*
X010438Y001607D01*
X010438Y001765D02*
X011236Y001765D01*
X011201Y001924D02*
X010438Y001924D01*
X010438Y002082D02*
X011246Y002082D01*
X011259Y002241D02*
X010438Y002241D01*
X011792Y002082D02*
X013287Y002082D01*
X013181Y001924D02*
X011836Y001924D01*
X011801Y001765D02*
X013172Y001765D01*
X013159Y002241D02*
X013662Y002241D01*
X013662Y002399D02*
X013251Y002399D01*
X013410Y002558D02*
X013643Y002558D01*
X014019Y002493D02*
X013526Y002985D01*
X013060Y002519D01*
X012763Y002519D01*
X013526Y003241D02*
X014383Y003241D01*
X014393Y003251D01*
X014428Y003294D02*
X014279Y003294D01*
X014279Y002817D01*
X014020Y002817D01*
X014000Y002822D01*
X014062Y002761D01*
X014293Y002761D01*
X014353Y002701D01*
X014413Y002761D01*
X014962Y002761D01*
X015044Y002679D01*
X015044Y002624D01*
X015050Y002624D01*
X015118Y002693D01*
X015235Y002741D01*
X015361Y002741D01*
X015478Y002693D01*
X015567Y002604D01*
X015615Y002487D01*
X015615Y002361D01*
X015567Y002244D01*
X015478Y002155D01*
X015361Y002107D01*
X015235Y002107D01*
X015118Y002155D01*
X015050Y002224D01*
X015044Y002224D01*
X015044Y002169D01*
X014967Y002092D01*
X015356Y002092D01*
X015416Y002032D01*
X015476Y002092D01*
X015620Y002092D01*
X015620Y002582D01*
X015435Y002766D01*
X015292Y002766D01*
X015281Y002755D01*
X015099Y002755D01*
X015088Y002766D01*
X014807Y002766D01*
X014740Y002834D01*
X014732Y002829D01*
X014686Y002817D01*
X014428Y002817D01*
X014428Y003294D01*
X014428Y003192D02*
X014279Y003192D01*
X014279Y003033D02*
X014428Y003033D01*
X014428Y002875D02*
X014279Y002875D01*
X014338Y002716D02*
X014368Y002716D01*
X014019Y002493D02*
X014019Y002424D01*
X013687Y002082D02*
X014797Y002082D01*
X015366Y002082D02*
X015467Y002082D01*
X015563Y002241D02*
X015620Y002241D01*
X015615Y002399D02*
X015620Y002399D01*
X015620Y002558D02*
X015586Y002558D01*
X015486Y002716D02*
X015422Y002716D01*
X015174Y002716D02*
X015007Y002716D01*
X015190Y002975D02*
X015180Y002985D01*
X014428Y003444D02*
X014279Y003444D01*
X014279Y003921D01*
X014020Y003921D01*
X014000Y003916D01*
X014140Y004056D01*
X014293Y004056D01*
X014353Y004116D01*
X014413Y004056D01*
X014714Y004056D01*
X014802Y003967D01*
X014740Y003904D01*
X014732Y003909D01*
X014686Y003921D01*
X014428Y003921D01*
X014428Y003444D01*
X014428Y003509D02*
X014279Y003509D01*
X014279Y003667D02*
X014428Y003667D01*
X014428Y003826D02*
X014279Y003826D01*
X014069Y003984D02*
X014785Y003984D01*
X015190Y003891D02*
X014688Y004393D01*
X015190Y003891D02*
X015190Y003763D01*
X015180Y003753D01*
X015801Y003800D02*
X016105Y004104D01*
X016135Y004134D01*
X016221Y004134D01*
X016221Y003862D01*
X016210Y003788D01*
X016213Y003785D01*
X016067Y003785D01*
X015992Y003710D01*
X015950Y003752D01*
X015834Y003800D01*
X015801Y003800D01*
X015826Y003826D02*
X016216Y003826D01*
X016221Y003984D02*
X015985Y003984D01*
X016383Y004301D02*
X016921Y004301D01*
X017229Y004301D02*
X017265Y004301D01*
X017265Y004143D02*
X017229Y004143D01*
X017229Y003984D02*
X017265Y003984D01*
X017029Y002875D02*
X016992Y002875D01*
X016992Y002716D02*
X017029Y002716D01*
X017897Y002739D02*
X017897Y000771D01*
X016871Y000814D02*
X011048Y000814D01*
X011973Y000656D02*
X015947Y000656D01*
X015446Y001448D02*
X015386Y001448D01*
X015751Y001755D02*
X015810Y001814D01*
X014093Y000497D02*
X013826Y000497D01*
X013517Y003487D02*
X013526Y003497D01*
X011693Y003667D02*
X011424Y003667D01*
X011501Y003826D02*
X011693Y003826D01*
X011693Y003984D02*
X011501Y003984D01*
X012937Y006837D02*
X012974Y006837D01*
X012974Y006996D02*
X012937Y006996D01*
X012937Y007154D02*
X012974Y007154D01*
X012974Y007313D02*
X012937Y007313D01*
X012937Y007471D02*
X012974Y007471D01*
X012665Y007471D02*
X012236Y007471D01*
X011760Y007947D02*
X019053Y007947D01*
X019211Y008105D02*
X011602Y008105D01*
X011443Y008264D02*
X019370Y008264D01*
X019528Y008422D02*
X011285Y008422D01*
X011126Y008581D02*
X018456Y008581D01*
X018476Y008561D02*
X018705Y008466D01*
X018954Y008466D01*
X019183Y008561D01*
X019358Y008736D01*
X019453Y008965D01*
X019453Y009214D01*
X019358Y009443D01*
X019183Y009618D01*
X018954Y009713D01*
X018705Y009713D01*
X018476Y009618D01*
X018301Y009443D01*
X018206Y009214D01*
X018206Y008965D01*
X018301Y008736D01*
X018476Y008561D01*
X018300Y008739D02*
X010968Y008739D01*
X010809Y008898D02*
X018234Y008898D01*
X018206Y009056D02*
X010651Y009056D01*
X010492Y009215D02*
X013485Y009215D01*
X013745Y009179D02*
X013745Y009179D01*
X014528Y009215D02*
X018206Y009215D01*
X018272Y009373D02*
X015282Y009373D01*
X015725Y009532D02*
X018389Y009532D01*
X018649Y009690D02*
X016096Y009690D01*
X016227Y009746D02*
X016227Y009746D01*
X016382Y009849D02*
X019921Y009849D01*
X019921Y010007D02*
X016623Y010007D01*
X016863Y010166D02*
X019921Y010166D01*
X019921Y010324D02*
X019182Y010324D01*
X019051Y010270D02*
X019367Y010401D01*
X019609Y010642D01*
X019739Y010958D01*
X019921Y010958D01*
X019921Y010800D02*
X019674Y010800D01*
X019739Y010958D02*
X019739Y011301D01*
X019716Y011356D01*
X019921Y011152D01*
X019921Y008814D01*
X019921Y008898D02*
X019425Y008898D01*
X019453Y009056D02*
X019921Y009056D01*
X019921Y009215D02*
X019453Y009215D01*
X019387Y009373D02*
X019921Y009373D01*
X019921Y009532D02*
X019270Y009532D01*
X019010Y009690D02*
X019921Y009690D01*
X019921Y010483D02*
X019449Y010483D01*
X019607Y010641D02*
X019921Y010641D01*
X019921Y011117D02*
X019739Y011117D01*
X019739Y011275D02*
X019797Y011275D01*
X019566Y011659D02*
X019367Y011859D01*
X019051Y011989D01*
X018708Y011989D01*
X018392Y011859D01*
X018151Y011617D01*
X018020Y011301D01*
X018020Y010958D01*
X017670Y010958D01*
X017785Y011117D02*
X018020Y011117D01*
X018020Y011275D02*
X017900Y011275D01*
X018015Y011434D02*
X018075Y011434D01*
X018067Y011505D02*
X018067Y011505D01*
X018109Y011592D02*
X018140Y011592D01*
X018185Y011751D02*
X018284Y011751D01*
X018262Y011909D02*
X018514Y011909D01*
X018338Y012068D02*
X019566Y012068D01*
X019566Y012226D02*
X018414Y012226D01*
X018439Y012278D02*
X018439Y012278D01*
X018469Y012385D02*
X019566Y012385D01*
X019566Y012543D02*
X018512Y012543D01*
X018556Y012702D02*
X019566Y012702D01*
X019566Y012860D02*
X018600Y012860D01*
X018644Y013019D02*
X019566Y013019D01*
X019566Y013177D02*
X018674Y013177D01*
X018668Y013105D02*
X018668Y013105D01*
X018717Y013653D02*
X019329Y013653D01*
X019264Y013811D02*
X018731Y013811D01*
X018745Y013960D02*
X018745Y013960D01*
X018744Y013970D02*
X019253Y013970D01*
X019272Y014128D02*
X018729Y014128D01*
X018715Y014287D02*
X019338Y014287D01*
X019484Y014445D02*
X018701Y014445D01*
X019518Y013440D02*
X019566Y013420D01*
X019566Y011659D01*
X019566Y011751D02*
X019475Y011751D01*
X019566Y011909D02*
X019245Y011909D01*
X018020Y010958D02*
X018151Y010642D01*
X018392Y010401D01*
X018708Y010270D01*
X019051Y010270D01*
X018577Y010324D02*
X017053Y010324D01*
X016943Y010218D02*
X016943Y010218D01*
X017219Y010483D02*
X018310Y010483D01*
X018152Y010641D02*
X017385Y010641D01*
X017551Y010800D02*
X018085Y010800D01*
X019359Y008739D02*
X019845Y008739D01*
X019687Y008581D02*
X019203Y008581D01*
X021390Y007313D02*
X022729Y007313D01*
X022515Y007154D02*
X021604Y007154D01*
X021714Y006996D02*
X022405Y006996D01*
X022348Y006837D02*
X021771Y006837D01*
X021773Y006520D02*
X022346Y006520D01*
X022342Y006538D02*
X022366Y006449D01*
X022401Y006364D01*
X022447Y006284D01*
X022503Y006210D01*
X022569Y006145D01*
X022642Y006089D01*
X022722Y006042D01*
X022807Y006007D01*
X022897Y005983D01*
X022988Y005971D01*
X023480Y005971D01*
X023480Y006596D01*
X022334Y006596D01*
X022342Y006538D01*
X022402Y006362D02*
X021717Y006362D01*
X021608Y006203D02*
X022511Y006203D01*
X022718Y006045D02*
X021401Y006045D01*
X023480Y006045D02*
X023640Y006045D01*
X023640Y006203D02*
X023480Y006203D01*
X023480Y006362D02*
X023640Y006362D01*
X023640Y006520D02*
X023480Y006520D01*
X023480Y006996D02*
X023640Y006996D01*
X023640Y007154D02*
X023480Y007154D01*
X023480Y007313D02*
X023640Y007313D01*
X024390Y007313D02*
X025669Y007313D01*
X025579Y007154D02*
X024604Y007154D01*
X024714Y006996D02*
X025476Y006996D01*
X025373Y006837D02*
X024771Y006837D01*
X025221Y009056D02*
X026485Y009056D01*
X026546Y009215D02*
X025399Y009215D01*
X025527Y009373D02*
X026607Y009373D01*
X026668Y009532D02*
X025593Y009532D01*
X025641Y009690D02*
X026729Y009690D01*
X026784Y009849D02*
X025641Y009849D01*
X025640Y010007D02*
X026826Y010007D01*
X026868Y010166D02*
X025574Y010166D01*
X025508Y010324D02*
X026911Y010324D01*
X026953Y010483D02*
X025354Y010483D01*
X025110Y010641D02*
X026996Y010641D01*
X021967Y015555D02*
X021816Y015555D01*
X021937Y015713D02*
X021967Y015713D01*
X022567Y016506D02*
X027175Y016506D01*
X027150Y016664D02*
X022567Y016664D01*
X022567Y016823D02*
X027118Y016823D01*
X027075Y016981D02*
X022522Y016981D01*
X022365Y017140D02*
X027033Y017140D01*
X026991Y017298D02*
X025159Y017298D01*
X025374Y017457D02*
X026948Y017457D01*
X026906Y017615D02*
X025517Y017615D01*
X025582Y017774D02*
X026863Y017774D01*
X026821Y017932D02*
X025641Y017932D01*
X025641Y018091D02*
X026778Y018091D01*
X026721Y018249D02*
X025641Y018249D01*
X025585Y018408D02*
X026660Y018408D01*
X026599Y018566D02*
X025519Y018566D01*
X025379Y018725D02*
X026538Y018725D01*
X026478Y018883D02*
X025172Y018883D01*
X025118Y019200D02*
X024870Y019200D01*
X024926Y019359D02*
X025079Y019359D01*
X024926Y019517D02*
X025437Y019517D01*
X025474Y019517D02*
X026224Y019517D01*
X026295Y019359D02*
X025832Y019359D01*
X025832Y019290D02*
X025832Y019512D01*
X025474Y019512D01*
X025474Y019134D01*
X025676Y019134D01*
X025722Y019146D01*
X025763Y019170D01*
X025796Y019203D01*
X025820Y019244D01*
X025832Y019290D01*
X025793Y019200D02*
X026356Y019200D01*
X026417Y019042D02*
X023860Y019042D01*
X023860Y019200D02*
X024308Y019200D01*
X024253Y019359D02*
X023860Y019359D01*
X023860Y019517D02*
X024253Y019517D01*
X024253Y019676D02*
X023860Y019676D01*
X023860Y019834D02*
X024282Y019834D01*
X024253Y019993D02*
X023860Y019993D01*
X023860Y020151D02*
X024253Y020151D01*
X024253Y020310D02*
X023860Y020310D01*
X023860Y020468D02*
X024253Y020468D01*
X024334Y020627D02*
X024517Y020627D01*
X024567Y020785D02*
X024675Y020785D01*
X024680Y020944D02*
X024744Y020944D01*
X024930Y021736D02*
X024948Y021736D01*
X024842Y021895D02*
X024772Y021895D01*
X024714Y022053D02*
X024613Y022053D01*
X024585Y022212D02*
X023234Y022212D01*
X023076Y022370D02*
X024457Y022370D01*
X024329Y022529D02*
X022917Y022529D01*
X022759Y022687D02*
X024200Y022687D01*
X024072Y022846D02*
X022600Y022846D01*
X022442Y023004D02*
X023938Y023004D01*
X023779Y023163D02*
X023050Y023163D01*
X023059Y023321D02*
X023621Y023321D01*
X023462Y023480D02*
X023272Y023480D01*
X023000Y023480D02*
X022833Y023480D01*
X022609Y023163D02*
X022283Y023163D01*
X022771Y024114D02*
X022794Y024114D01*
X021557Y025065D02*
X020561Y025065D01*
X018080Y026333D02*
X017768Y026333D01*
X021567Y020785D02*
X022552Y020785D01*
X022785Y020627D02*
X021334Y020627D01*
X020146Y019359D02*
X023260Y019359D01*
X023260Y019517D02*
X019988Y019517D01*
X019829Y019676D02*
X023260Y019676D01*
X023260Y019834D02*
X019671Y019834D01*
X019512Y019993D02*
X023260Y019993D01*
X023260Y020151D02*
X019354Y020151D01*
X019391Y020114D02*
X019391Y020114D01*
X020305Y019200D02*
X023260Y019200D01*
X023260Y019042D02*
X020463Y019042D01*
X020622Y018883D02*
X022825Y018883D01*
X022619Y018725D02*
X020780Y018725D01*
X020939Y018566D02*
X022479Y018566D01*
X022413Y018408D02*
X021097Y018408D01*
X021256Y018249D02*
X022357Y018249D01*
X022357Y018091D02*
X021414Y018091D01*
X021573Y017932D02*
X022357Y017932D01*
X022416Y017774D02*
X021731Y017774D01*
X021890Y017615D02*
X022481Y017615D01*
X022624Y017457D02*
X022048Y017457D01*
X022207Y017298D02*
X022839Y017298D01*
X021675Y016981D02*
X019123Y016981D01*
X018965Y017140D02*
X021517Y017140D01*
X021358Y017298D02*
X018806Y017298D01*
X018648Y017457D02*
X021200Y017457D01*
X021041Y017615D02*
X018489Y017615D01*
X018331Y017774D02*
X020883Y017774D01*
X020724Y017932D02*
X018172Y017932D01*
X018014Y018091D02*
X020566Y018091D01*
X020498Y015872D02*
X020343Y015872D01*
X020343Y015713D02*
X020498Y015713D01*
X020498Y015555D02*
X020343Y015555D01*
X020343Y015396D02*
X020498Y015396D01*
X024589Y019530D02*
X025259Y020200D01*
X025456Y020200D01*
X025792Y020151D02*
X025901Y020151D01*
X025821Y020310D02*
X025792Y020310D01*
X025792Y019993D02*
X025982Y019993D01*
X026063Y019834D02*
X025810Y019834D01*
X025832Y019676D02*
X026144Y019676D01*
X025474Y019359D02*
X025437Y019359D01*
X025437Y019200D02*
X025474Y019200D01*
X025079Y019676D02*
X025046Y019676D01*
X014602Y009218D02*
X014602Y009218D01*
X012895Y009294D02*
X012895Y009294D01*
X012653Y009373D02*
X010177Y009373D01*
X010133Y009532D02*
X012165Y009532D01*
X012079Y009560D02*
X012079Y009560D01*
X011837Y009690D02*
X010041Y009690D01*
X009920Y009849D02*
X011542Y009849D01*
X011272Y010007D02*
X009749Y010007D01*
X009418Y010166D02*
X011073Y010166D01*
X010875Y010324D02*
X009342Y010324D01*
X009609Y010483D02*
X010676Y010483D01*
X010653Y010501D02*
X010653Y010501D01*
X010653Y010501D01*
X010530Y010641D02*
X009767Y010641D01*
X009834Y010800D02*
X010392Y010800D01*
X010088Y011147D02*
X010088Y011147D01*
X009899Y011301D02*
X009899Y010958D01*
X009917Y011434D02*
X009844Y011434D01*
X009822Y011592D02*
X009779Y011592D01*
X009728Y011751D02*
X009635Y011751D01*
X009648Y011883D02*
X009648Y011883D01*
X009639Y011909D02*
X009405Y011909D01*
X010160Y008739D02*
X010345Y008739D01*
X010504Y008581D02*
X010094Y008581D01*
X010002Y008422D02*
X010662Y008422D01*
X010821Y008264D02*
X009853Y008264D01*
X009633Y008105D02*
X010979Y008105D01*
X015357Y005023D02*
X015357Y004471D01*
X016026Y005554D02*
X016007Y005574D01*
X017897Y002739D02*
X017899Y002801D01*
X017905Y002862D01*
X017914Y002923D01*
X017928Y002984D01*
X017945Y003043D01*
X017966Y003101D01*
X017991Y003158D01*
X018019Y003213D01*
X018050Y003266D01*
X018085Y003317D01*
X018123Y003366D01*
X018164Y003413D01*
X018207Y003456D01*
X018254Y003497D01*
X018303Y003535D01*
X018354Y003570D01*
X018407Y003601D01*
X018462Y003629D01*
X018519Y003654D01*
X018577Y003675D01*
X018636Y003692D01*
X018697Y003706D01*
X018758Y003715D01*
X018819Y003721D01*
X018881Y003723D01*
X000180Y013960D02*
X000184Y014298D01*
X000197Y014636D01*
X000217Y014974D01*
X000246Y015311D01*
X000284Y015647D01*
X000329Y015982D01*
X000383Y016316D01*
X000445Y016648D01*
X000515Y016979D01*
X000593Y017308D01*
X000679Y017635D01*
X000773Y017960D01*
X000876Y018283D01*
X000986Y018602D01*
X001103Y018919D01*
X001229Y019233D01*
X001362Y019544D01*
X001503Y019852D01*
X001651Y020156D01*
X001807Y020456D01*
X001970Y020752D01*
X002140Y021044D01*
X002318Y021332D01*
X002502Y021616D01*
X002694Y021895D01*
X002892Y022169D01*
X003097Y022438D01*
X003308Y022702D01*
X003526Y022961D01*
X003750Y023214D01*
X003980Y023462D01*
X004216Y023704D01*
X004458Y023940D01*
X004706Y024170D01*
X004959Y024394D01*
X005218Y024612D01*
X005482Y024823D01*
X005751Y025028D01*
X006025Y025226D01*
X006304Y025418D01*
X006588Y025602D01*
X006876Y025780D01*
X007168Y025950D01*
X007464Y026113D01*
X007764Y026269D01*
X008068Y026417D01*
X008376Y026558D01*
X008687Y026691D01*
X009001Y026817D01*
X009318Y026934D01*
X009637Y027044D01*
X009960Y027147D01*
X010285Y027241D01*
X010612Y027327D01*
X010941Y027405D01*
X011272Y027475D01*
X011604Y027537D01*
X011938Y027591D01*
X012273Y027636D01*
X012609Y027674D01*
X012946Y027703D01*
X013284Y027723D01*
X013622Y027736D01*
X013960Y027740D01*
X014298Y027736D01*
X014636Y027723D01*
X014974Y027703D01*
X015311Y027674D01*
X015647Y027636D01*
X015982Y027591D01*
X016316Y027537D01*
X016648Y027475D01*
X016979Y027405D01*
X017308Y027327D01*
X017635Y027241D01*
X017960Y027147D01*
X018283Y027044D01*
X018602Y026934D01*
X018919Y026817D01*
X019233Y026691D01*
X019544Y026558D01*
X019852Y026417D01*
X020156Y026269D01*
X020456Y026113D01*
X020752Y025950D01*
X021044Y025780D01*
X021332Y025602D01*
X021616Y025418D01*
X021895Y025226D01*
X022169Y025028D01*
X022438Y024823D01*
X022702Y024612D01*
X022961Y024394D01*
X023214Y024170D01*
X023462Y023940D01*
X023704Y023704D01*
X023940Y023462D01*
X024170Y023214D01*
X024394Y022961D01*
X024612Y022702D01*
X024823Y022438D01*
X025028Y022169D01*
X025226Y021895D01*
X025418Y021616D01*
X025602Y021332D01*
X025780Y021044D01*
X025950Y020752D01*
X026113Y020456D01*
X026269Y020156D01*
X026417Y019852D01*
X026558Y019544D01*
X026691Y019233D01*
X026817Y018919D01*
X026934Y018602D01*
X027044Y018283D01*
X027147Y017960D01*
X027241Y017635D01*
X027327Y017308D01*
X027405Y016979D01*
X027475Y016648D01*
X027537Y016316D01*
X027591Y015982D01*
X027636Y015647D01*
X027674Y015311D01*
X027703Y014974D01*
X027723Y014636D01*
X027736Y014298D01*
X027740Y013960D01*
X027736Y013622D01*
X027723Y013284D01*
X027703Y012946D01*
X027674Y012609D01*
X027636Y012273D01*
X027591Y011938D01*
X027537Y011604D01*
X027475Y011272D01*
X027405Y010941D01*
X027327Y010612D01*
X027241Y010285D01*
X027147Y009960D01*
X027044Y009637D01*
X026934Y009318D01*
X026817Y009001D01*
X026691Y008687D01*
X026558Y008376D01*
X026417Y008068D01*
X026269Y007764D01*
X026113Y007464D01*
X025950Y007168D01*
X025780Y006876D01*
X025602Y006588D01*
X025418Y006304D01*
X025226Y006025D01*
X025028Y005751D01*
X024823Y005482D01*
X024612Y005218D01*
X024394Y004959D01*
X024170Y004706D01*
X023940Y004458D01*
X023704Y004216D01*
X023462Y003980D01*
X023214Y003750D01*
X022961Y003526D01*
X022702Y003308D01*
X022438Y003097D01*
X022169Y002892D01*
X021895Y002694D01*
X021616Y002502D01*
X021332Y002318D01*
X021044Y002140D01*
X020752Y001970D01*
X020456Y001807D01*
X020156Y001651D01*
X019852Y001503D01*
X019544Y001362D01*
X019233Y001229D01*
X018919Y001103D01*
X018602Y000986D01*
X018283Y000876D01*
X017960Y000773D01*
X017635Y000679D01*
X017308Y000593D01*
X016979Y000515D01*
X016648Y000445D01*
X016316Y000383D01*
X015982Y000329D01*
X015647Y000284D01*
X015311Y000246D01*
X014974Y000217D01*
X014636Y000197D01*
X014298Y000184D01*
X013960Y000180D01*
X013622Y000184D01*
X013284Y000197D01*
X012946Y000217D01*
X012609Y000246D01*
X012273Y000284D01*
X011938Y000329D01*
X011604Y000383D01*
X011272Y000445D01*
X010941Y000515D01*
X010612Y000593D01*
X010285Y000679D01*
X009960Y000773D01*
X009637Y000876D01*
X009318Y000986D01*
X009001Y001103D01*
X008687Y001229D01*
X008376Y001362D01*
X008068Y001503D01*
X007764Y001651D01*
X007464Y001807D01*
X007168Y001970D01*
X006876Y002140D01*
X006588Y002318D01*
X006304Y002502D01*
X006025Y002694D01*
X005751Y002892D01*
X005482Y003097D01*
X005218Y003308D01*
X004959Y003526D01*
X004706Y003750D01*
X004458Y003980D01*
X004216Y004216D01*
X003980Y004458D01*
X003750Y004706D01*
X003526Y004959D01*
X003308Y005218D01*
X003097Y005482D01*
X002892Y005751D01*
X002694Y006025D01*
X002502Y006304D01*
X002318Y006588D01*
X002140Y006876D01*
X001970Y007168D01*
X001807Y007464D01*
X001651Y007764D01*
X001503Y008068D01*
X001362Y008376D01*
X001229Y008687D01*
X001103Y009001D01*
X000986Y009318D01*
X000876Y009637D01*
X000773Y009960D01*
X000679Y010285D01*
X000593Y010612D01*
X000515Y010941D01*
X000445Y011272D01*
X000383Y011604D01*
X000329Y011938D01*
X000284Y012273D01*
X000246Y012609D01*
X000217Y012946D01*
X000197Y013284D01*
X000184Y013622D01*
X000180Y013960D01*
D11*
X005456Y010416D02*
X005458Y010466D01*
X005464Y010516D01*
X005474Y010565D01*
X005488Y010613D01*
X005505Y010660D01*
X005526Y010705D01*
X005551Y010749D01*
X005579Y010790D01*
X005611Y010829D01*
X005645Y010866D01*
X005682Y010900D01*
X005722Y010930D01*
X005764Y010957D01*
X005808Y010981D01*
X005854Y011002D01*
X005901Y011018D01*
X005949Y011031D01*
X005999Y011040D01*
X006048Y011045D01*
X006099Y011046D01*
X006149Y011043D01*
X006198Y011036D01*
X006247Y011025D01*
X006295Y011010D01*
X006341Y010992D01*
X006386Y010970D01*
X006429Y010944D01*
X006470Y010915D01*
X006509Y010883D01*
X006545Y010848D01*
X006577Y010810D01*
X006607Y010770D01*
X006634Y010727D01*
X006657Y010683D01*
X006676Y010637D01*
X006692Y010589D01*
X006704Y010540D01*
X006712Y010491D01*
X006716Y010441D01*
X006716Y010391D01*
X006712Y010341D01*
X006704Y010292D01*
X006692Y010243D01*
X006676Y010195D01*
X006657Y010149D01*
X006634Y010105D01*
X006607Y010062D01*
X006577Y010022D01*
X006545Y009984D01*
X006509Y009949D01*
X006470Y009917D01*
X006429Y009888D01*
X006386Y009862D01*
X006341Y009840D01*
X006295Y009822D01*
X006247Y009807D01*
X006198Y009796D01*
X006149Y009789D01*
X006099Y009786D01*
X006048Y009787D01*
X005999Y009792D01*
X005949Y009801D01*
X005901Y009814D01*
X005854Y009830D01*
X005808Y009851D01*
X005764Y009875D01*
X005722Y009902D01*
X005682Y009932D01*
X005645Y009966D01*
X005611Y010003D01*
X005579Y010042D01*
X005551Y010083D01*
X005526Y010127D01*
X005505Y010172D01*
X005488Y010219D01*
X005474Y010267D01*
X005464Y010316D01*
X005458Y010366D01*
X005456Y010416D01*
X008410Y011130D02*
X008412Y011180D01*
X008418Y011230D01*
X008428Y011279D01*
X008442Y011327D01*
X008459Y011374D01*
X008480Y011419D01*
X008505Y011463D01*
X008533Y011504D01*
X008565Y011543D01*
X008599Y011580D01*
X008636Y011614D01*
X008676Y011644D01*
X008718Y011671D01*
X008762Y011695D01*
X008808Y011716D01*
X008855Y011732D01*
X008903Y011745D01*
X008953Y011754D01*
X009002Y011759D01*
X009053Y011760D01*
X009103Y011757D01*
X009152Y011750D01*
X009201Y011739D01*
X009249Y011724D01*
X009295Y011706D01*
X009340Y011684D01*
X009383Y011658D01*
X009424Y011629D01*
X009463Y011597D01*
X009499Y011562D01*
X009531Y011524D01*
X009561Y011484D01*
X009588Y011441D01*
X009611Y011397D01*
X009630Y011351D01*
X009646Y011303D01*
X009658Y011254D01*
X009666Y011205D01*
X009670Y011155D01*
X009670Y011105D01*
X009666Y011055D01*
X009658Y011006D01*
X009646Y010957D01*
X009630Y010909D01*
X009611Y010863D01*
X009588Y010819D01*
X009561Y010776D01*
X009531Y010736D01*
X009499Y010698D01*
X009463Y010663D01*
X009424Y010631D01*
X009383Y010602D01*
X009340Y010576D01*
X009295Y010554D01*
X009249Y010536D01*
X009201Y010521D01*
X009152Y010510D01*
X009103Y010503D01*
X009053Y010500D01*
X009002Y010501D01*
X008953Y010506D01*
X008903Y010515D01*
X008855Y010528D01*
X008808Y010544D01*
X008762Y010565D01*
X008718Y010589D01*
X008676Y010616D01*
X008636Y010646D01*
X008599Y010680D01*
X008565Y010717D01*
X008533Y010756D01*
X008505Y010797D01*
X008480Y010841D01*
X008459Y010886D01*
X008442Y010933D01*
X008428Y010981D01*
X008418Y011030D01*
X008412Y011080D01*
X008410Y011130D01*
X008696Y018830D02*
X008698Y018869D01*
X008704Y018908D01*
X008714Y018946D01*
X008727Y018983D01*
X008744Y019018D01*
X008764Y019052D01*
X008788Y019083D01*
X008815Y019112D01*
X008844Y019138D01*
X008876Y019161D01*
X008910Y019181D01*
X008946Y019197D01*
X008983Y019209D01*
X009022Y019218D01*
X009061Y019223D01*
X009100Y019224D01*
X009139Y019221D01*
X009178Y019214D01*
X009215Y019203D01*
X009252Y019189D01*
X009287Y019171D01*
X009320Y019150D01*
X009351Y019125D01*
X009379Y019098D01*
X009404Y019068D01*
X009426Y019035D01*
X009445Y019001D01*
X009460Y018965D01*
X009472Y018927D01*
X009480Y018889D01*
X009484Y018850D01*
X009484Y018810D01*
X009480Y018771D01*
X009472Y018733D01*
X009460Y018695D01*
X009445Y018659D01*
X009426Y018625D01*
X009404Y018592D01*
X009379Y018562D01*
X009351Y018535D01*
X009320Y018510D01*
X009287Y018489D01*
X009252Y018471D01*
X009215Y018457D01*
X009178Y018446D01*
X009139Y018439D01*
X009100Y018436D01*
X009061Y018437D01*
X009022Y018442D01*
X008983Y018451D01*
X008946Y018463D01*
X008910Y018479D01*
X008876Y018499D01*
X008844Y018522D01*
X008815Y018548D01*
X008788Y018577D01*
X008764Y018608D01*
X008744Y018642D01*
X008727Y018677D01*
X008714Y018714D01*
X008704Y018752D01*
X008698Y018791D01*
X008696Y018830D01*
X018436Y018830D02*
X018438Y018869D01*
X018444Y018908D01*
X018454Y018946D01*
X018467Y018983D01*
X018484Y019018D01*
X018504Y019052D01*
X018528Y019083D01*
X018555Y019112D01*
X018584Y019138D01*
X018616Y019161D01*
X018650Y019181D01*
X018686Y019197D01*
X018723Y019209D01*
X018762Y019218D01*
X018801Y019223D01*
X018840Y019224D01*
X018879Y019221D01*
X018918Y019214D01*
X018955Y019203D01*
X018992Y019189D01*
X019027Y019171D01*
X019060Y019150D01*
X019091Y019125D01*
X019119Y019098D01*
X019144Y019068D01*
X019166Y019035D01*
X019185Y019001D01*
X019200Y018965D01*
X019212Y018927D01*
X019220Y018889D01*
X019224Y018850D01*
X019224Y018810D01*
X019220Y018771D01*
X019212Y018733D01*
X019200Y018695D01*
X019185Y018659D01*
X019166Y018625D01*
X019144Y018592D01*
X019119Y018562D01*
X019091Y018535D01*
X019060Y018510D01*
X019027Y018489D01*
X018992Y018471D01*
X018955Y018457D01*
X018918Y018446D01*
X018879Y018439D01*
X018840Y018436D01*
X018801Y018437D01*
X018762Y018442D01*
X018723Y018451D01*
X018686Y018463D01*
X018650Y018479D01*
X018616Y018499D01*
X018584Y018522D01*
X018555Y018548D01*
X018528Y018577D01*
X018504Y018608D01*
X018484Y018642D01*
X018467Y018677D01*
X018454Y018714D01*
X018444Y018752D01*
X018438Y018791D01*
X018436Y018830D01*
X018250Y011130D02*
X018252Y011180D01*
X018258Y011230D01*
X018268Y011279D01*
X018282Y011327D01*
X018299Y011374D01*
X018320Y011419D01*
X018345Y011463D01*
X018373Y011504D01*
X018405Y011543D01*
X018439Y011580D01*
X018476Y011614D01*
X018516Y011644D01*
X018558Y011671D01*
X018602Y011695D01*
X018648Y011716D01*
X018695Y011732D01*
X018743Y011745D01*
X018793Y011754D01*
X018842Y011759D01*
X018893Y011760D01*
X018943Y011757D01*
X018992Y011750D01*
X019041Y011739D01*
X019089Y011724D01*
X019135Y011706D01*
X019180Y011684D01*
X019223Y011658D01*
X019264Y011629D01*
X019303Y011597D01*
X019339Y011562D01*
X019371Y011524D01*
X019401Y011484D01*
X019428Y011441D01*
X019451Y011397D01*
X019470Y011351D01*
X019486Y011303D01*
X019498Y011254D01*
X019506Y011205D01*
X019510Y011155D01*
X019510Y011105D01*
X019506Y011055D01*
X019498Y011006D01*
X019486Y010957D01*
X019470Y010909D01*
X019451Y010863D01*
X019428Y010819D01*
X019401Y010776D01*
X019371Y010736D01*
X019339Y010698D01*
X019303Y010663D01*
X019264Y010631D01*
X019223Y010602D01*
X019180Y010576D01*
X019135Y010554D01*
X019089Y010536D01*
X019041Y010521D01*
X018992Y010510D01*
X018943Y010503D01*
X018893Y010500D01*
X018842Y010501D01*
X018793Y010506D01*
X018743Y010515D01*
X018695Y010528D01*
X018648Y010544D01*
X018602Y010565D01*
X018558Y010589D01*
X018516Y010616D01*
X018476Y010646D01*
X018439Y010680D01*
X018405Y010717D01*
X018373Y010756D01*
X018345Y010797D01*
X018320Y010841D01*
X018299Y010886D01*
X018282Y010933D01*
X018268Y010981D01*
X018258Y011030D01*
X018252Y011080D01*
X018250Y011130D01*
X018436Y009090D02*
X018438Y009129D01*
X018444Y009168D01*
X018454Y009206D01*
X018467Y009243D01*
X018484Y009278D01*
X018504Y009312D01*
X018528Y009343D01*
X018555Y009372D01*
X018584Y009398D01*
X018616Y009421D01*
X018650Y009441D01*
X018686Y009457D01*
X018723Y009469D01*
X018762Y009478D01*
X018801Y009483D01*
X018840Y009484D01*
X018879Y009481D01*
X018918Y009474D01*
X018955Y009463D01*
X018992Y009449D01*
X019027Y009431D01*
X019060Y009410D01*
X019091Y009385D01*
X019119Y009358D01*
X019144Y009328D01*
X019166Y009295D01*
X019185Y009261D01*
X019200Y009225D01*
X019212Y009187D01*
X019220Y009149D01*
X019224Y009110D01*
X019224Y009070D01*
X019220Y009031D01*
X019212Y008993D01*
X019200Y008955D01*
X019185Y008919D01*
X019166Y008885D01*
X019144Y008852D01*
X019119Y008822D01*
X019091Y008795D01*
X019060Y008770D01*
X019027Y008749D01*
X018992Y008731D01*
X018955Y008717D01*
X018918Y008706D01*
X018879Y008699D01*
X018840Y008696D01*
X018801Y008697D01*
X018762Y008702D01*
X018723Y008711D01*
X018686Y008723D01*
X018650Y008739D01*
X018616Y008759D01*
X018584Y008782D01*
X018555Y008808D01*
X018528Y008837D01*
X018504Y008868D01*
X018484Y008902D01*
X018467Y008937D01*
X018454Y008974D01*
X018444Y009012D01*
X018438Y009051D01*
X018436Y009090D01*
D12*
X011069Y021988D02*
X011063Y021988D01*
X011063Y022124D01*
X011069Y022124D01*
X011069Y021988D01*
X011069Y022092D02*
X011063Y022092D01*
X010872Y021988D02*
X010866Y021988D01*
X010866Y022124D01*
X010872Y022124D01*
X010872Y021988D01*
X010872Y022092D02*
X010866Y022092D01*
X010675Y021988D02*
X010669Y021988D01*
X010669Y022124D01*
X010675Y022124D01*
X010675Y021988D01*
X010675Y022092D02*
X010669Y022092D01*
X010478Y021988D02*
X010472Y021988D01*
X010472Y022124D01*
X010478Y022124D01*
X010478Y021988D01*
X010478Y022092D02*
X010472Y022092D01*
X010313Y022283D02*
X010313Y022289D01*
X010313Y022283D02*
X010177Y022283D01*
X010177Y022289D01*
X010313Y022289D01*
X010313Y022480D02*
X010313Y022486D01*
X010313Y022480D02*
X010177Y022480D01*
X010177Y022486D01*
X010313Y022486D01*
X010313Y022677D02*
X010313Y022683D01*
X010313Y022677D02*
X010177Y022677D01*
X010177Y022683D01*
X010313Y022683D01*
X010313Y022874D02*
X010313Y022880D01*
X010313Y022874D02*
X010177Y022874D01*
X010177Y022880D01*
X010313Y022880D01*
X010472Y023175D02*
X010478Y023175D01*
X010478Y023039D01*
X010472Y023039D01*
X010472Y023175D01*
X010478Y023143D02*
X010472Y023143D01*
X010669Y023175D02*
X010675Y023175D01*
X010675Y023039D01*
X010669Y023039D01*
X010669Y023175D01*
X010675Y023143D02*
X010669Y023143D01*
X010866Y023175D02*
X010872Y023175D01*
X010872Y023039D01*
X010866Y023039D01*
X010866Y023175D01*
X010872Y023143D02*
X010866Y023143D01*
X011063Y023175D02*
X011069Y023175D01*
X011069Y023039D01*
X011063Y023039D01*
X011063Y023175D01*
X011069Y023143D02*
X011063Y023143D01*
X011228Y022880D02*
X011228Y022874D01*
X011228Y022880D02*
X011364Y022880D01*
X011364Y022874D01*
X011228Y022874D01*
X011228Y022683D02*
X011228Y022677D01*
X011228Y022683D02*
X011364Y022683D01*
X011364Y022677D01*
X011228Y022677D01*
X011228Y022486D02*
X011228Y022480D01*
X011228Y022486D02*
X011364Y022486D01*
X011364Y022480D01*
X011228Y022480D01*
X011228Y022289D02*
X011228Y022283D01*
X011228Y022289D02*
X011364Y022289D01*
X011364Y022283D01*
X011228Y022283D01*
D13*
X011269Y022084D03*
X011269Y023080D03*
X010273Y023080D03*
X010273Y022080D03*
D14*
X011055Y022298D02*
X011055Y022866D01*
X011055Y022298D02*
X010487Y022298D01*
X010487Y022866D01*
X011055Y022866D01*
X011055Y022360D02*
X010487Y022360D01*
X010487Y022422D02*
X011055Y022422D01*
X011055Y022484D02*
X010487Y022484D01*
X010487Y022546D02*
X011055Y022546D01*
X011055Y022608D02*
X010487Y022608D01*
X010487Y022670D02*
X011055Y022670D01*
X011055Y022732D02*
X010487Y022732D01*
X010487Y022794D02*
X011055Y022794D01*
X011055Y022856D02*
X010487Y022856D01*
D15*
X010239Y023645D03*
X010239Y024314D03*
X009570Y024314D03*
X009570Y023645D03*
X011267Y023645D03*
X011751Y023026D03*
X011936Y023645D03*
X012420Y023026D03*
X013546Y023015D03*
X013546Y022542D03*
X013546Y022070D03*
X013546Y021597D03*
X014215Y021597D03*
X014215Y022070D03*
X014215Y022542D03*
X014215Y023015D03*
X012562Y021597D03*
X011893Y021597D03*
X012129Y021086D03*
X012129Y020534D03*
X011460Y020534D03*
X011460Y021086D03*
X010200Y020928D03*
X010200Y021440D03*
X009530Y021440D03*
X009530Y020928D03*
X011263Y024314D03*
X011932Y024314D03*
X013310Y020534D03*
X013979Y020534D03*
X015830Y020534D03*
X016499Y020534D03*
X017011Y020534D03*
X017680Y020534D03*
X018467Y020652D03*
X019137Y020652D03*
X012956Y007109D03*
X012286Y007109D03*
X013507Y006400D03*
X014176Y006400D03*
X015357Y005023D03*
X015357Y004471D03*
X016026Y004471D03*
X016026Y005023D03*
X016578Y003960D03*
X016341Y003448D03*
X016341Y002975D03*
X017011Y002975D03*
X017011Y003448D03*
X017247Y003960D03*
X015751Y001755D03*
X015082Y001755D03*
X014688Y002424D03*
X014019Y002424D03*
X012759Y003251D03*
X012759Y003763D03*
X012759Y004235D03*
X012089Y004235D03*
X012089Y003763D03*
X012089Y003251D03*
X014019Y004393D03*
X014688Y004393D03*
D16*
X024589Y019530D03*
X024589Y020200D03*
X025456Y020200D03*
X025456Y019530D03*
X013841Y023979D03*
X013841Y024649D03*
D17*
X003920Y013960D03*
D18*
X019865Y013960D02*
X020810Y013960D01*
X020420Y016026D02*
X021365Y016026D01*
X021365Y011893D02*
X020420Y011893D01*
D19*
X023248Y009826D02*
X024750Y009826D01*
X024750Y018093D02*
X023248Y018093D01*
D20*
X018754Y021241D03*
X018754Y021741D03*
X018754Y022241D03*
X018754Y022741D03*
X016104Y022741D03*
X016104Y022241D03*
X016104Y021741D03*
X016104Y021241D03*
D21*
X018424Y024956D03*
D22*
X018424Y025956D03*
X017424Y025956D03*
X016424Y025956D03*
X016424Y024956D03*
X017424Y024956D03*
D23*
X008841Y021460D03*
X008841Y020790D03*
D24*
G36*
X006262Y017932D02*
X006540Y018210D01*
X006928Y017822D01*
X006650Y017544D01*
X006262Y017932D01*
G37*
G36*
X005733Y017403D02*
X006011Y017681D01*
X006399Y017293D01*
X006121Y017015D01*
X005733Y017403D01*
G37*
G36*
X006610Y017055D02*
X006888Y017333D01*
X007276Y016945D01*
X006998Y016667D01*
X006610Y017055D01*
G37*
D25*
X006835Y021243D02*
X007885Y021243D01*
X004885Y021243D02*
X003835Y021243D01*
X003835Y006676D02*
X004885Y006676D01*
X006835Y006676D02*
X007885Y006676D01*
X020035Y006676D02*
X021085Y006676D01*
X023035Y006676D02*
X024085Y006676D01*
X024085Y021243D02*
X023035Y021243D01*
X021085Y021243D02*
X020035Y021243D01*
D26*
X012759Y004944D03*
X012089Y004944D03*
X012093Y002519D03*
X012763Y002519D03*
D27*
X010101Y002424D03*
X009314Y002424D03*
D28*
X008369Y004471D03*
X011046Y004471D03*
D29*
G36*
X021844Y021755D02*
X021345Y022105D01*
X021638Y022523D01*
X022137Y022173D01*
X021844Y021755D01*
G37*
G36*
X022860Y023207D02*
X022361Y023557D01*
X022654Y023975D01*
X023153Y023625D01*
X022860Y023207D01*
G37*
G36*
X020297Y025002D02*
X019798Y025352D01*
X020091Y025770D01*
X020590Y025420D01*
X020297Y025002D01*
G37*
G36*
X019280Y023551D02*
X018781Y023901D01*
X019074Y024319D01*
X019573Y023969D01*
X019280Y023551D01*
G37*
D30*
X018802Y005692D03*
X016991Y005692D03*
D31*
X026400Y013920D03*
X013172Y026558D03*
X006873Y003723D03*
D32*
X009806Y024975D03*
X009806Y026235D03*
X011971Y026235D03*
X011971Y024975D03*
D33*
X023133Y008625D03*
X023133Y007877D03*
X023999Y008251D03*
D34*
X009430Y013960D02*
X009432Y014094D01*
X009438Y014228D01*
X009448Y014362D01*
X009462Y014496D01*
X009480Y014629D01*
X009501Y014761D01*
X009527Y014893D01*
X009557Y015024D01*
X009590Y015154D01*
X009628Y015283D01*
X009669Y015411D01*
X009713Y015537D01*
X009762Y015662D01*
X009814Y015786D01*
X009870Y015908D01*
X009930Y016029D01*
X009993Y016147D01*
X010059Y016264D01*
X010129Y016378D01*
X010203Y016491D01*
X010279Y016601D01*
X010359Y016709D01*
X010442Y016814D01*
X010528Y016917D01*
X010618Y017018D01*
X010710Y017115D01*
X010805Y017210D01*
X010902Y017302D01*
X011003Y017392D01*
X011106Y017478D01*
X011211Y017561D01*
X011319Y017641D01*
X011429Y017717D01*
X011542Y017791D01*
X011656Y017861D01*
X011773Y017927D01*
X011891Y017990D01*
X012012Y018050D01*
X012134Y018106D01*
X012258Y018158D01*
X012383Y018207D01*
X012509Y018251D01*
X012637Y018292D01*
X012766Y018330D01*
X012896Y018363D01*
X013027Y018393D01*
X013159Y018419D01*
X013291Y018440D01*
X013424Y018458D01*
X013558Y018472D01*
X013692Y018482D01*
X013826Y018488D01*
X013960Y018490D01*
X014094Y018488D01*
X014228Y018482D01*
X014362Y018472D01*
X014496Y018458D01*
X014629Y018440D01*
X014761Y018419D01*
X014893Y018393D01*
X015024Y018363D01*
X015154Y018330D01*
X015283Y018292D01*
X015411Y018251D01*
X015537Y018207D01*
X015662Y018158D01*
X015786Y018106D01*
X015908Y018050D01*
X016029Y017990D01*
X016147Y017927D01*
X016264Y017861D01*
X016378Y017791D01*
X016491Y017717D01*
X016601Y017641D01*
X016709Y017561D01*
X016814Y017478D01*
X016917Y017392D01*
X017018Y017302D01*
X017115Y017210D01*
X017210Y017115D01*
X017302Y017018D01*
X017392Y016917D01*
X017478Y016814D01*
X017561Y016709D01*
X017641Y016601D01*
X017717Y016491D01*
X017791Y016378D01*
X017861Y016264D01*
X017927Y016147D01*
X017990Y016029D01*
X018050Y015908D01*
X018106Y015786D01*
X018158Y015662D01*
X018207Y015537D01*
X018251Y015411D01*
X018292Y015283D01*
X018330Y015154D01*
X018363Y015024D01*
X018393Y014893D01*
X018419Y014761D01*
X018440Y014629D01*
X018458Y014496D01*
X018472Y014362D01*
X018482Y014228D01*
X018488Y014094D01*
X018490Y013960D01*
X018488Y013826D01*
X018482Y013692D01*
X018472Y013558D01*
X018458Y013424D01*
X018440Y013291D01*
X018419Y013159D01*
X018393Y013027D01*
X018363Y012896D01*
X018330Y012766D01*
X018292Y012637D01*
X018251Y012509D01*
X018207Y012383D01*
X018158Y012258D01*
X018106Y012134D01*
X018050Y012012D01*
X017990Y011891D01*
X017927Y011773D01*
X017861Y011656D01*
X017791Y011542D01*
X017717Y011429D01*
X017641Y011319D01*
X017561Y011211D01*
X017478Y011106D01*
X017392Y011003D01*
X017302Y010902D01*
X017210Y010805D01*
X017115Y010710D01*
X017018Y010618D01*
X016917Y010528D01*
X016814Y010442D01*
X016709Y010359D01*
X016601Y010279D01*
X016491Y010203D01*
X016378Y010129D01*
X016264Y010059D01*
X016147Y009993D01*
X016029Y009930D01*
X015908Y009870D01*
X015786Y009814D01*
X015662Y009762D01*
X015537Y009713D01*
X015411Y009669D01*
X015283Y009628D01*
X015154Y009590D01*
X015024Y009557D01*
X014893Y009527D01*
X014761Y009501D01*
X014629Y009480D01*
X014496Y009462D01*
X014362Y009448D01*
X014228Y009438D01*
X014094Y009432D01*
X013960Y009430D01*
X013826Y009432D01*
X013692Y009438D01*
X013558Y009448D01*
X013424Y009462D01*
X013291Y009480D01*
X013159Y009501D01*
X013027Y009527D01*
X012896Y009557D01*
X012766Y009590D01*
X012637Y009628D01*
X012509Y009669D01*
X012383Y009713D01*
X012258Y009762D01*
X012134Y009814D01*
X012012Y009870D01*
X011891Y009930D01*
X011773Y009993D01*
X011656Y010059D01*
X011542Y010129D01*
X011429Y010203D01*
X011319Y010279D01*
X011211Y010359D01*
X011106Y010442D01*
X011003Y010528D01*
X010902Y010618D01*
X010805Y010710D01*
X010710Y010805D01*
X010618Y010902D01*
X010528Y011003D01*
X010442Y011106D01*
X010359Y011211D01*
X010279Y011319D01*
X010203Y011429D01*
X010129Y011542D01*
X010059Y011656D01*
X009993Y011773D01*
X009930Y011891D01*
X009870Y012012D01*
X009814Y012134D01*
X009762Y012258D01*
X009713Y012383D01*
X009669Y012509D01*
X009628Y012637D01*
X009590Y012766D01*
X009557Y012896D01*
X009527Y013027D01*
X009501Y013159D01*
X009480Y013291D01*
X009462Y013424D01*
X009448Y013558D01*
X009438Y013692D01*
X009432Y013826D01*
X009430Y013960D01*
D35*
X009090Y009090D03*
D36*
X013526Y003753D03*
X013526Y003497D03*
X013526Y003241D03*
X013526Y002985D03*
X015180Y002985D03*
X015180Y003241D03*
X015180Y003497D03*
X015180Y003753D03*
D37*
X014353Y003369D03*
D38*
X014432Y021125D03*
X015416Y022227D03*
X013814Y025239D03*
X014117Y027089D03*
X010802Y023956D03*
X018802Y023349D03*
X019471Y021952D03*
X021715Y024767D03*
D39*
X020534Y023487D03*
X019944Y023467D03*
X019471Y023211D03*
X018172Y023251D03*
X017306Y024117D03*
X016794Y024019D03*
X016794Y023113D03*
X015534Y023586D03*
X015062Y023330D03*
X014708Y023015D03*
X014708Y022070D03*
X015064Y021241D03*
X014944Y020692D03*
X014550Y020515D03*
X015141Y020121D03*
X013920Y019097D03*
X012739Y020534D03*
X012089Y019629D03*
X011381Y019235D03*
X011263Y020023D03*
X011479Y018389D03*
X009393Y015987D03*
X007956Y015889D03*
X007168Y015259D03*
X005475Y016952D03*
X006420Y018881D03*
X003487Y017956D03*
X002582Y019885D03*
X001400Y016420D03*
X001400Y011538D03*
X002503Y008428D03*
X006794Y012070D03*
X009215Y012227D03*
X011420Y009471D03*
X014196Y007149D03*
X012897Y005849D03*
X013487Y005101D03*
X013369Y004314D03*
X014393Y005377D03*
X016007Y005574D03*
X017050Y006794D03*
X016834Y007385D03*
X016007Y007345D03*
X015908Y009274D03*
X019078Y012286D03*
X020593Y013015D03*
X021774Y012660D03*
X021656Y014944D03*
X020790Y017149D03*
X021617Y018802D03*
X018428Y016243D03*
X018960Y014058D03*
X021086Y010023D03*
X022227Y009078D03*
X025278Y007306D03*
X025436Y008743D03*
X026853Y011282D03*
X027011Y015731D03*
X026105Y018960D03*
X019471Y026026D03*
X017109Y026853D03*
X015613Y026263D03*
X015416Y025318D03*
X015534Y024452D03*
X013369Y023960D03*
X013259Y023526D03*
X012774Y024436D03*
X012975Y025463D03*
X010991Y025719D03*
X010578Y026751D03*
X008834Y024747D03*
X007989Y024111D03*
X008924Y023015D03*
X009353Y022582D03*
X010771Y023487D03*
X010731Y024515D03*
X007897Y025672D03*
X006755Y024963D03*
X005731Y024255D03*
X013054Y021617D03*
X016361Y018428D03*
X016637Y019924D03*
X010554Y006400D03*
X011400Y006046D03*
X008763Y005652D03*
X005731Y003625D03*
X007778Y002306D03*
X011519Y001912D03*
X012188Y000849D03*
X013487Y001834D03*
X013723Y000810D03*
X015318Y000889D03*
X015298Y002424D03*
X015771Y003483D03*
X016066Y003881D03*
X017798Y005219D03*
X019570Y004235D03*
X021538Y004235D03*
X017247Y001243D03*
D40*
X012956Y020849D03*
X012759Y022385D03*
X013113Y022936D03*
X012089Y022424D03*
X011105Y021519D03*
X010913Y022444D03*
X010908Y022719D03*
X010633Y022719D03*
X010633Y022444D03*
X014176Y024314D03*
X014609Y023487D03*
D41*
X011066Y023107D02*
X011066Y022995D01*
X011007Y022936D01*
X011007Y022818D01*
X010908Y022719D01*
X010633Y022719D02*
X010540Y022812D01*
X010540Y022950D01*
X010475Y023015D01*
X010475Y023107D01*
X010550Y022802D02*
X010633Y022719D01*
X010913Y022444D02*
X010869Y022400D01*
D42*
X010672Y022404D02*
X010633Y022444D01*
X010672Y022404D02*
X010672Y022056D01*
X010475Y022056D02*
X010475Y021932D01*
X010337Y021794D01*
X009668Y021794D01*
X009550Y021676D01*
X009550Y021460D01*
X009530Y021440D01*
X010869Y021755D02*
X011105Y021519D01*
X010869Y021755D02*
X010869Y022056D01*
X011066Y022056D02*
X011066Y021932D01*
X011460Y021538D01*
X011460Y021086D01*
X012129Y021086D02*
X013920Y021086D01*
X014156Y020849D01*
X014786Y020849D01*
X014944Y020692D01*
X014432Y021125D02*
X014274Y021282D01*
X012877Y021282D01*
X012562Y021597D01*
X011893Y021597D02*
X011406Y022084D01*
X011269Y022084D01*
X011296Y022286D02*
X011499Y022286D01*
X011834Y021952D01*
X013428Y021952D01*
X013546Y022070D01*
X013546Y021597D01*
X013054Y022149D02*
X013172Y022267D01*
X013172Y022385D01*
X013330Y022542D01*
X013546Y022542D01*
X013507Y022621D01*
X013546Y022542D02*
X013546Y023015D01*
X012818Y022763D02*
X012818Y023507D01*
X012011Y024314D01*
X011932Y024314D01*
X011834Y024314D01*
X011322Y024826D01*
X009924Y024826D01*
X009806Y024975D01*
X009235Y024589D02*
X009235Y025664D01*
X009806Y026235D01*
X009235Y024589D02*
X009511Y024314D01*
X009570Y024314D01*
X009432Y024314D01*
X009156Y024038D01*
X009156Y023408D01*
X009688Y022877D01*
X010245Y022877D01*
X010273Y023080D02*
X010115Y023080D01*
X010062Y023093D02*
X010259Y023093D01*
X010273Y023080D01*
X010475Y023107D02*
X010475Y023408D01*
X010239Y023645D01*
X010672Y023389D02*
X010771Y023487D01*
X010672Y023389D02*
X010672Y023107D01*
X010633Y022719D02*
X010633Y022717D01*
X010640Y022710D01*
X010771Y022582D02*
X010908Y022719D01*
X011296Y022680D02*
X012735Y022680D01*
X012818Y022763D01*
X013054Y022149D02*
X011952Y022149D01*
X011617Y022483D01*
X011296Y022483D01*
X011296Y022877D02*
X011570Y022877D01*
X011660Y022967D01*
X011660Y023282D01*
X011617Y023326D01*
X011936Y023645D01*
X011952Y023660D01*
X011952Y023841D01*
X011837Y023956D01*
X010802Y023956D01*
X009881Y023956D01*
X009570Y023645D01*
X009570Y023586D01*
X010062Y023093D01*
X011066Y023107D02*
X011066Y023507D01*
X011204Y023645D01*
X011267Y023645D01*
X011389Y023326D02*
X011269Y023206D01*
X011269Y023080D01*
X011296Y022877D02*
X011625Y022877D01*
X011751Y023026D01*
X011617Y023326D02*
X011389Y023326D01*
X011341Y022877D02*
X011296Y022877D01*
X011936Y023645D02*
X011912Y023668D01*
X011932Y024314D02*
X011873Y024314D01*
X014215Y023015D02*
X014708Y023015D01*
X015180Y022542D02*
X014215Y022542D01*
X014215Y022070D02*
X014708Y022070D01*
X015180Y022542D02*
X015377Y022739D01*
X016102Y022739D01*
X016104Y022741D01*
X015889Y022956D01*
X015889Y025219D01*
X016125Y025456D01*
X016924Y025456D01*
X017424Y025956D01*
X017424Y024956D02*
X017621Y024759D01*
X017621Y021834D01*
X017528Y021741D01*
X016104Y021741D01*
X015521Y021741D01*
X015377Y021597D01*
X014215Y021597D01*
X015416Y022227D02*
X015430Y022241D01*
X016104Y022241D01*
X016322Y022241D01*
X016308Y022227D01*
X016322Y022241D02*
X017241Y022241D01*
X017345Y022345D01*
X017345Y024078D01*
X017306Y024117D01*
X017818Y023408D02*
X019038Y024629D01*
X019038Y025341D01*
X018424Y025956D01*
X019177Y023935D02*
X019471Y023641D01*
X019471Y023211D01*
X020062Y023015D02*
X019649Y022601D01*
X019471Y021952D02*
X021553Y021952D01*
X021741Y022139D01*
X019471Y021952D02*
X019261Y021741D01*
X018754Y021741D01*
X018754Y021241D02*
X018213Y021241D01*
X018054Y021400D01*
X018054Y023133D01*
X018172Y023251D01*
X017818Y023408D02*
X017818Y021400D01*
X017658Y021241D01*
X016479Y021241D01*
X016499Y021221D01*
X016499Y020534D01*
X017011Y020534D01*
X016079Y021715D02*
X016104Y021741D01*
X018754Y022241D02*
X018819Y022306D01*
X013310Y020534D02*
X012739Y020534D01*
X009550Y024274D02*
X009570Y024314D01*
X016026Y004471D02*
X016026Y004294D01*
X015495Y003763D01*
X015190Y003763D01*
X015643Y003497D02*
X015757Y003497D01*
X015771Y003483D01*
X016306Y003483D01*
X016341Y003448D01*
X016578Y003881D02*
X016578Y003960D01*
X016578Y003881D02*
X017011Y003448D01*
X016341Y002975D02*
X015771Y002975D01*
X015692Y003054D01*
X015495Y003251D01*
X015495Y002975D02*
X015190Y002975D01*
X015495Y002975D02*
X015810Y002660D01*
X015810Y001814D01*
X013290Y003211D02*
X013093Y003211D01*
X013089Y003208D01*
X013089Y003011D01*
X013015Y002936D01*
X012109Y002936D01*
X012089Y002956D02*
X012089Y003251D01*
D43*
X012089Y002956D02*
X012109Y002936D01*
X013290Y003211D02*
X013497Y003211D01*
X013526Y003241D01*
X014225Y003241D01*
X014353Y003369D01*
X015180Y003497D02*
X015643Y003497D01*
X015495Y003251D02*
X015190Y003251D01*
X015180Y003241D01*
X015190Y003487D02*
X015180Y003497D01*
X015298Y002424D02*
X014688Y002424D01*
X016420Y003841D02*
X016578Y003960D01*
X024589Y020200D02*
X024589Y020416D01*
X024944Y020771D01*
X024944Y021440D01*
X024393Y021991D01*
X023172Y021991D01*
X021637Y023526D01*
X020574Y023526D01*
X020534Y023487D01*
X020062Y023015D01*
X019649Y022601D02*
X019274Y022227D01*
X018768Y022227D01*
X018754Y022241D01*
X011460Y021086D02*
X011460Y020534D01*
D44*
X010200Y020928D02*
X010200Y021440D01*
X009530Y021440D02*
X008861Y021440D01*
X008841Y021460D01*
X008841Y020790D02*
X009393Y020790D01*
X009530Y020928D01*
X013841Y023960D02*
X013841Y023979D01*
X013841Y024649D02*
X014373Y024649D01*
X015062Y023960D01*
X015062Y023330D01*
X014274Y023034D02*
X014215Y023015D01*
X015064Y021241D02*
X016104Y021241D01*
X014196Y007149D02*
X014196Y006420D01*
X014176Y006400D01*
X016282Y006400D01*
X016991Y005692D01*
X012089Y004944D02*
X011952Y004944D01*
X011400Y005495D01*
X011400Y006046D01*
X011400Y005495D02*
X010377Y005495D01*
X009314Y004432D01*
X009314Y002424D01*
X009314Y002188D01*
X010101Y002424D02*
X010196Y002519D01*
X011637Y002519D01*
X011519Y002400D01*
X011519Y001912D01*
X011637Y002519D02*
X012093Y002519D01*
D45*
X012424Y023448D03*
D46*
X010200Y020928D02*
X010200Y018467D01*
X008723Y016991D01*
X006952Y016991D01*
X006943Y017000D01*
X003920Y013977D01*
X003920Y013960D01*
X016991Y005692D02*
X017897Y006597D01*
X018605Y006597D01*
X021105Y009097D01*
X022286Y007916D01*
X023054Y007916D01*
X023133Y007877D01*
X023999Y008251D02*
X023999Y009826D01*
X022267Y010259D02*
X022267Y016814D01*
X019137Y019944D01*
X018467Y019944D01*
X018467Y020652D01*
X020560Y021243D02*
X023560Y021243D01*
X023560Y018533D01*
X023999Y018093D01*
X022267Y010259D02*
X021105Y009097D01*
M02*
