%
M48
M72
T01C0.0100
T02C0.0118
T03C0.0197
T04C0.0236
T05C0.0400
T06C0.0630
T07C0.0700
T08C0.0787
T09C0.1102
T10C0.1260
%
T01
X12956Y20849
X12759Y22385
X13113Y22936
X12089Y22424
X11105Y21519
X10913Y22444
X10908Y22719
X10633Y22719
X10633Y22444
X14176Y24314
X14609Y23487
T02
X12424Y23448
T03
X10802Y23956
X13814Y25239
X14117Y27089
X18802Y23349
X19471Y21952
X21715Y24767
X15416Y22227
X14432Y21125
T04
X5731Y3625
X7778Y2306
X8763Y5652
X10554Y6400
X11400Y6046
X12897Y5849
X13487Y5101
X13369Y4314
X14393Y5377
X16007Y5574
X17050Y6794
X16834Y7385
X16007Y7345
X14196Y7149
X15908Y9274
X19078Y12286
X20593Y13015
X21774Y12660
X21656Y14944
X20790Y17149
X21617Y18802
X18428Y16243
X18960Y14058
X21086Y10023
X22227Y9078
X25278Y7306
X25436Y8743
X26853Y11282
X27011Y15731
X26105Y18960
X20534Y23487
X19944Y23467
X19471Y23211
X18172Y23251
X17306Y24117
X16794Y24019
X16794Y23113
X15534Y23586
X15062Y23330
X14708Y23015
X14708Y22070
X15064Y21241
X14944Y20692
X14550Y20515
X15141Y20121
X13920Y19097
X12739Y20534
X12089Y19629
X11381Y19235
X11263Y20023
X11479Y18389
X9393Y15987
X7956Y15889
X7168Y15259
X5475Y16952
X6420Y18881
X3487Y17956
X2582Y19885
X1400Y16420
X1400Y11538
X2503Y8428
X6794Y12070
X9215Y12227
X11420Y9471
X16066Y3881
X15771Y3483
X15298Y2424
X15318Y889
X13723Y810
X13487Y1834
X12188Y849
X11519Y1912
X17247Y1243
X19570Y4235
X21538Y4235
X17798Y5219
X16361Y18428
X16637Y19924
X13054Y21617
X13259Y23526
X13369Y23960
X12774Y24436
X12975Y25463
X10991Y25719
X10578Y26751
X8834Y24747
X7989Y24111
X8924Y23015
X9353Y22582
X10771Y23487
X10731Y24515
X7897Y25672
X6755Y24963
X5731Y24255
X15416Y25318
X15534Y24452
X15613Y26263
X17109Y26853
X19471Y26026
T05
X18424Y25956
X18424Y24956
X17424Y24956
X17424Y25956
X16424Y25956
X16424Y24956
T06
X20420Y16026
X19865Y13960
X20420Y11893
T07
X20560Y6676
X23560Y6676
X23560Y21243
X20560Y21243
X7360Y21243
X4360Y21243
X4360Y6676
X7360Y6676
T08
X9090Y9090
X18830Y9090
X18830Y18830
X9090Y18830
T09
X23999Y18093
X23999Y9826
T10
X18880Y11130
X9040Y11130
X6086Y10416
X3920Y13960
M30
