G75*
%MOIN*%
%OFA0B0*%
%FSLAX24Y24*%
%IPPOS*%
%LPD*%
%AMOC8*
5,1,8,0,0,1.08239X$1,22.5*
%
%ADD10C,0.1340*%
%ADD11C,0.0181*%
%ADD12R,0.0214X0.0214*%
%ADD13C,0.0050*%
%ADD14R,0.0513X0.0474*%
%ADD15C,0.2521*%
%ADD16C,0.0907*%
%ADD17C,0.1261*%
%ADD18R,0.0950X0.0320*%
%ADD19R,0.0820X0.0820*%
%ADD20OC8,0.0820*%
%ADD21R,0.0671X0.0592*%
%ADD22R,0.0474X0.0513*%
%ADD23R,0.0474X0.0631*%
%ADD24C,0.1130*%
%ADD25R,0.0710X0.0592*%
%ADD26R,0.0710X0.1340*%
%ADD27R,0.0592X0.0828*%
%ADD28R,0.0631X0.0474*%
%ADD29C,0.1740*%
%ADD30R,0.0237X0.0710*%
%ADD31R,0.0824X0.0698*%
%ADD32R,0.0572X0.0631*%
%ADD33C,0.0946*%
%ADD34C,0.1741*%
%ADD35C,0.0320*%
D10*
X006086Y010416D03*
D11*
X010470Y021986D02*
X010480Y021986D01*
X010470Y021986D02*
X010470Y022126D01*
X010480Y022126D01*
X010480Y021986D01*
X010667Y021986D02*
X010677Y021986D01*
X010667Y021986D02*
X010667Y022126D01*
X010677Y022126D01*
X010677Y021986D01*
X010864Y021986D02*
X010874Y021986D01*
X010864Y021986D02*
X010864Y022126D01*
X010874Y022126D01*
X010874Y021986D01*
X011061Y021986D02*
X011071Y021986D01*
X011061Y021986D02*
X011061Y022126D01*
X011071Y022126D01*
X011071Y021986D01*
X011226Y022281D02*
X011226Y022291D01*
X011366Y022291D01*
X011366Y022281D01*
X011226Y022281D01*
X011226Y022478D02*
X011226Y022488D01*
X011366Y022488D01*
X011366Y022478D01*
X011226Y022478D01*
X011226Y022675D02*
X011226Y022685D01*
X011366Y022685D01*
X011366Y022675D01*
X011226Y022675D01*
X011226Y022872D02*
X011226Y022882D01*
X011366Y022882D01*
X011366Y022872D01*
X011226Y022872D01*
X011071Y023177D02*
X011061Y023177D01*
X011071Y023177D02*
X011071Y023037D01*
X011061Y023037D01*
X011061Y023177D01*
X010874Y023177D02*
X010864Y023177D01*
X010874Y023177D02*
X010874Y023037D01*
X010864Y023037D01*
X010864Y023177D01*
X010677Y023177D02*
X010667Y023177D01*
X010677Y023177D02*
X010677Y023037D01*
X010667Y023037D01*
X010667Y023177D01*
X010480Y023177D02*
X010470Y023177D01*
X010480Y023177D02*
X010480Y023037D01*
X010470Y023037D01*
X010470Y023177D01*
X010315Y022882D02*
X010315Y022872D01*
X010175Y022872D01*
X010175Y022882D01*
X010315Y022882D01*
X010315Y022685D02*
X010315Y022675D01*
X010175Y022675D01*
X010175Y022685D01*
X010315Y022685D01*
X010315Y022488D02*
X010315Y022478D01*
X010175Y022478D01*
X010175Y022488D01*
X010315Y022488D01*
X010315Y022291D02*
X010315Y022281D01*
X010175Y022281D01*
X010175Y022291D01*
X010315Y022291D01*
D12*
X010273Y022080D03*
X011269Y022084D03*
X011269Y023080D03*
X010273Y023080D03*
D13*
X006217Y003330D02*
X006256Y003273D01*
X006305Y003225D01*
X006361Y003186D01*
X006423Y003156D01*
X006490Y003139D01*
X006558Y003133D01*
X006626Y003139D01*
X006693Y003156D01*
X006755Y003186D01*
X006811Y003225D01*
X006860Y003273D01*
X006899Y003330D01*
X006928Y003392D01*
X006946Y003458D01*
X006952Y003526D01*
X006946Y003595D01*
X006928Y003661D01*
X006899Y003723D01*
X006860Y003780D01*
X006811Y003828D01*
X006755Y003867D01*
X006693Y003896D01*
X006626Y003914D01*
X006558Y003920D01*
X006490Y003914D01*
X006423Y003896D01*
X006361Y003867D01*
X006305Y003828D01*
X006256Y003780D01*
X006217Y003723D01*
X006188Y003661D01*
X006170Y003595D01*
X006164Y003526D01*
X006170Y003458D01*
X006188Y003392D01*
X006217Y003330D01*
X006216Y003333D02*
X006900Y003333D01*
X006923Y003381D02*
X006193Y003381D01*
X006178Y003430D02*
X006938Y003430D01*
X006947Y003478D02*
X006168Y003478D01*
X006164Y003527D02*
X006952Y003527D01*
X006947Y003575D02*
X006169Y003575D01*
X006178Y003624D02*
X006938Y003624D01*
X006923Y003672D02*
X006193Y003672D01*
X006216Y003721D02*
X006900Y003721D01*
X006867Y003769D02*
X006249Y003769D01*
X006294Y003818D02*
X006822Y003818D01*
X006757Y003866D02*
X006359Y003866D01*
X006494Y003915D02*
X006622Y003915D01*
X006867Y003284D02*
X006249Y003284D01*
X006294Y003236D02*
X006822Y003236D01*
X006757Y003187D02*
X006359Y003187D01*
X006492Y003139D02*
X006624Y003139D01*
X024248Y013763D02*
X024288Y013706D01*
X024336Y013658D01*
X024393Y013619D01*
X024455Y013590D01*
X024521Y013572D01*
X024589Y013566D01*
X024658Y013572D01*
X024724Y013590D01*
X024786Y013619D01*
X024843Y013658D01*
X024891Y013706D01*
X024930Y013763D01*
X024959Y013825D01*
X024977Y013891D01*
X024983Y013960D01*
X024977Y014028D01*
X024959Y014094D01*
X024930Y014156D01*
X024891Y014213D01*
X024843Y014261D01*
X024786Y014300D01*
X024724Y014329D01*
X024658Y014347D01*
X024589Y014353D01*
X024521Y014347D01*
X024455Y014329D01*
X024393Y014300D01*
X024336Y014261D01*
X024288Y014213D01*
X024248Y014156D01*
X024219Y014094D01*
X024202Y014028D01*
X024196Y013960D01*
X024202Y013891D01*
X024219Y013825D01*
X024248Y013763D01*
X024250Y013760D02*
X024929Y013760D01*
X024952Y013809D02*
X024227Y013809D01*
X024211Y013857D02*
X024968Y013857D01*
X024978Y013906D02*
X024200Y013906D01*
X024196Y013954D02*
X024983Y013954D01*
X024979Y014003D02*
X024200Y014003D01*
X024208Y014051D02*
X024971Y014051D01*
X024957Y014100D02*
X024222Y014100D01*
X024245Y014148D02*
X024934Y014148D01*
X024902Y014197D02*
X024277Y014197D01*
X024320Y014245D02*
X024859Y014245D01*
X024796Y014294D02*
X024383Y014294D01*
X024502Y014342D02*
X024677Y014342D01*
X024895Y013712D02*
X024284Y013712D01*
X024331Y013663D02*
X024848Y013663D01*
X024778Y013615D02*
X024401Y013615D01*
X024587Y013566D02*
X024592Y013566D01*
X011058Y022294D02*
X010483Y022294D01*
X010483Y022869D01*
X011058Y022869D01*
X011058Y022294D01*
X011058Y022296D02*
X010483Y022296D01*
X010483Y022345D02*
X011058Y022345D01*
X011058Y022393D02*
X010483Y022393D01*
X010483Y022442D02*
X011058Y022442D01*
X011058Y022490D02*
X010483Y022490D01*
X010483Y022539D02*
X011058Y022539D01*
X011058Y022587D02*
X010483Y022587D01*
X010483Y022636D02*
X011058Y022636D01*
X011058Y022684D02*
X010483Y022684D01*
X010483Y022733D02*
X011058Y022733D01*
X011058Y022781D02*
X010483Y022781D01*
X010483Y022830D02*
X011058Y022830D01*
X007700Y024382D02*
X006991Y024382D01*
X007004Y024353D02*
X007044Y024297D01*
X007092Y024248D01*
X007149Y024209D01*
X007211Y024180D01*
X007277Y024162D01*
X007345Y024156D01*
X007414Y024162D01*
X007480Y024180D01*
X007542Y024209D01*
X007598Y024248D01*
X007647Y024297D01*
X007686Y024353D01*
X007715Y024415D01*
X007733Y024482D01*
X007739Y024550D01*
X007733Y024618D01*
X007715Y024685D01*
X007686Y024747D01*
X007647Y024803D01*
X007598Y024852D01*
X007542Y024891D01*
X007480Y024920D01*
X007414Y024938D01*
X007345Y024944D01*
X007277Y024938D01*
X007211Y024920D01*
X007149Y024891D01*
X007092Y024852D01*
X007044Y024803D01*
X007004Y024747D01*
X006975Y024685D01*
X006958Y024618D01*
X006952Y024550D01*
X006958Y024482D01*
X006975Y024415D01*
X007004Y024353D01*
X007018Y024333D02*
X007672Y024333D01*
X007635Y024285D02*
X007056Y024285D01*
X007110Y024236D02*
X007581Y024236D01*
X007496Y024188D02*
X007195Y024188D01*
X006971Y024430D02*
X007719Y024430D01*
X007732Y024479D02*
X006958Y024479D01*
X006954Y024527D02*
X007737Y024527D01*
X007737Y024576D02*
X006954Y024576D01*
X006959Y024624D02*
X007732Y024624D01*
X007719Y024673D02*
X006972Y024673D01*
X006992Y024721D02*
X007698Y024721D01*
X007670Y024770D02*
X007020Y024770D01*
X007059Y024818D02*
X007632Y024818D01*
X007577Y024867D02*
X007114Y024867D01*
X007200Y024915D02*
X007491Y024915D01*
D14*
X009570Y024274D03*
X010239Y024274D03*
X010239Y023645D03*
X009570Y023645D03*
X011267Y023645D03*
X011263Y024274D03*
X011932Y024274D03*
X011936Y023645D03*
X011899Y023026D03*
X012568Y023026D03*
X013310Y020534D03*
X013979Y020534D03*
X014586Y004947D03*
X015256Y004947D03*
X015254Y003799D03*
X014585Y003799D03*
X014566Y002982D03*
X015235Y002982D03*
X016031Y002982D03*
X016700Y002982D03*
X016691Y003814D03*
X016022Y003814D03*
X013477Y002813D03*
X012808Y002813D03*
D15*
X008645Y008645D03*
X003920Y013960D03*
X008645Y019274D03*
X019274Y019274D03*
X019274Y008645D03*
D16*
X021243Y012385D02*
X022070Y012385D01*
X021676Y013960D02*
X020849Y013960D01*
X021243Y015534D02*
X022070Y015534D01*
D17*
X023408Y017208D02*
X024589Y017208D01*
X024589Y010711D02*
X023408Y010711D01*
D18*
X018469Y021782D03*
X018469Y022282D03*
X018469Y022782D03*
X018469Y023282D03*
X015819Y023282D03*
X015819Y022782D03*
X015819Y022282D03*
X015819Y021782D03*
D19*
X014960Y025074D03*
D20*
X013960Y025074D03*
X012960Y025074D03*
X012960Y026074D03*
X013960Y026074D03*
X014960Y026074D03*
D21*
X009235Y022365D03*
X009235Y021696D03*
D22*
X009904Y021735D03*
X009904Y021066D03*
X016135Y021243D03*
X016912Y021213D03*
X016912Y020544D03*
X016135Y020574D03*
X014488Y007222D03*
X014488Y006553D03*
X013700Y006553D03*
X013700Y007222D03*
X012913Y007222D03*
X012913Y006553D03*
X012308Y005186D03*
X012308Y004517D03*
D23*
G36*
X006553Y017055D02*
X006888Y017390D01*
X007333Y016945D01*
X006998Y016610D01*
X006553Y017055D01*
G37*
G36*
X005676Y017403D02*
X006011Y017738D01*
X006456Y017293D01*
X006121Y016958D01*
X005676Y017403D01*
G37*
G36*
X006205Y017932D02*
X006540Y018267D01*
X006985Y017822D01*
X006650Y017487D01*
X006205Y017932D01*
G37*
D24*
X006835Y021243D02*
X007885Y021243D01*
X004885Y021243D02*
X003835Y021243D01*
X020035Y021243D02*
X021085Y021243D01*
X023035Y021243D02*
X024085Y021243D01*
X024085Y006676D02*
X023035Y006676D01*
X021085Y006676D02*
X020035Y006676D01*
X007885Y006676D02*
X006835Y006676D01*
X004885Y006676D02*
X003835Y006676D01*
D25*
G36*
X020568Y023496D02*
X021194Y023162D01*
X020916Y022640D01*
X020290Y022974D01*
X020568Y023496D01*
G37*
G36*
X021400Y025060D02*
X022026Y024726D01*
X021748Y024204D01*
X021122Y024538D01*
X021400Y025060D01*
G37*
G36*
X018637Y026529D02*
X019263Y026195D01*
X018985Y025673D01*
X018359Y026007D01*
X018637Y026529D01*
G37*
G36*
X017805Y024965D02*
X018431Y024631D01*
X018153Y024109D01*
X017527Y024443D01*
X017805Y024965D01*
G37*
D26*
X018586Y004830D03*
X018586Y003019D03*
D27*
X011774Y024975D03*
X011774Y026235D03*
X009609Y026235D03*
X009609Y024975D03*
D28*
X024511Y009019D03*
X025377Y008645D03*
X024511Y008271D03*
D29*
X018818Y011154D03*
X009101Y011154D03*
D30*
X013221Y005450D03*
X013477Y005450D03*
X013733Y005450D03*
X013989Y005450D03*
X013989Y003797D03*
X013733Y003797D03*
X013477Y003797D03*
X013221Y003797D03*
D31*
X013605Y004623D03*
D32*
X025623Y018517D03*
X025623Y019973D03*
D33*
X025623Y019245D03*
D34*
X019274Y019274D03*
X008645Y019274D03*
X008645Y008645D03*
X019274Y008645D03*
D35*
X010913Y022444D03*
X010908Y022719D03*
X010633Y022719D03*
X010633Y022444D03*
M02*
