G75*
%MOIN*%
%OFA0B0*%
%FSLAX24Y24*%
%IPPOS*%
%LPD*%
%AMOC8*
5,1,8,0,0,1.08239X$1,22.5*
%
%ADD10C,0.2441*%
%ADD11C,0.0827*%
%ADD12C,0.1181*%
%ADD13R,0.0740X0.0740*%
%ADD14OC8,0.0740*%
%ADD15C,0.1050*%
%ADD16C,0.0787*%
%ADD17C,0.1660*%
%ADD18C,0.0354*%
%ADD19C,0.0200*%
%ADD20C,0.0257*%
%ADD21C,0.0218*%
%ADD22C,0.0297*%
%ADD23C,0.0120*%
%ADD24C,0.0100*%
%ADD25C,0.0320*%
%ADD26C,0.0160*%
%ADD27C,0.0240*%
D10*
X003920Y013960D03*
D11*
X020849Y013960D02*
X021676Y013960D01*
X022070Y015534D02*
X021243Y015534D01*
X021243Y012385D02*
X022070Y012385D01*
D12*
X023408Y010711D02*
X024589Y010711D01*
X024589Y017208D02*
X023408Y017208D01*
D13*
X014960Y025074D03*
D14*
X013960Y025074D03*
X012960Y025074D03*
X012960Y026074D03*
X013960Y026074D03*
X014960Y026074D03*
D15*
X020035Y021243D02*
X021085Y021243D01*
X023035Y021243D02*
X024085Y021243D01*
X007885Y021243D02*
X006835Y021243D01*
X004885Y021243D02*
X003835Y021243D01*
X003835Y006676D02*
X004885Y006676D01*
X006835Y006676D02*
X007885Y006676D01*
X020035Y006676D02*
X021085Y006676D01*
X023035Y006676D02*
X024085Y006676D01*
D16*
X021046Y010810D03*
X023408Y011991D03*
X024589Y011991D03*
X023408Y013960D03*
X023408Y015928D03*
X024589Y015928D03*
X019078Y014747D03*
X014747Y008448D03*
X012778Y008448D03*
X004353Y017739D03*
X016322Y024786D03*
X017503Y024786D03*
X018684Y024983D03*
X018684Y023999D03*
X018684Y025967D03*
X017503Y025967D03*
X016322Y025967D03*
D17*
X018818Y011154D03*
X009101Y011154D03*
D18*
X011774Y009708D03*
X012011Y008245D03*
X011056Y008251D03*
X010111Y006897D03*
X010155Y004983D03*
X012747Y003983D03*
X014431Y004325D03*
X015574Y004397D03*
X016715Y004314D03*
X015999Y005582D03*
X014486Y005806D03*
X018034Y006906D03*
X015456Y008448D03*
X016056Y009619D03*
X017404Y010593D03*
X019748Y012492D03*
X018728Y013761D03*
X019836Y016125D03*
X022375Y016715D03*
X022208Y018113D03*
X026307Y017333D03*
X026398Y015528D03*
X026398Y012329D03*
X026368Y010110D03*
X025278Y007306D03*
X022129Y003694D03*
X020639Y002746D03*
X017523Y001765D03*
X013241Y001666D03*
X013023Y002743D03*
X009402Y001814D03*
X007444Y003029D03*
X013782Y008920D03*
X008841Y013448D03*
X006578Y014816D03*
X007611Y015790D03*
X009393Y015987D03*
X011952Y018536D03*
X013428Y018950D03*
X014137Y019629D03*
X014944Y020692D03*
X015534Y021243D03*
X016765Y022080D03*
X017700Y022424D03*
X016617Y022965D03*
X015731Y023704D03*
X015780Y024393D03*
X017306Y023900D03*
X018143Y025426D03*
X019521Y024983D03*
X019471Y023408D03*
X022380Y024028D03*
X016322Y019334D03*
X016952Y018290D03*
X012739Y020534D03*
X012385Y021440D03*
X012532Y022119D03*
X013960Y022119D03*
X013866Y022995D03*
X014649Y023211D03*
X012975Y023960D03*
X010771Y023487D03*
X010723Y025113D03*
X010723Y026392D03*
X008194Y025780D03*
X006785Y025128D03*
X005542Y023973D03*
X008088Y023717D03*
X008924Y023015D03*
X011794Y020249D03*
X005295Y018131D03*
X005042Y016774D03*
X002365Y016351D03*
X002365Y018226D03*
X002490Y020351D03*
X006430Y013192D03*
X005593Y011912D03*
X002293Y011556D03*
X002539Y009484D03*
X022209Y013254D03*
D19*
X010913Y022444D03*
X010908Y022719D03*
X010633Y022719D03*
X010633Y022444D03*
D20*
X011105Y021479D03*
D21*
X012424Y023408D03*
D22*
X010802Y023956D03*
X021759Y011109D03*
D23*
X012479Y003854D02*
X004969Y003854D01*
X004838Y003972D02*
X012450Y003972D01*
X012450Y003924D02*
X012495Y003815D01*
X012577Y003733D01*
X012577Y002948D01*
X012725Y002800D01*
X012725Y002684D01*
X012771Y002575D01*
X012854Y002491D01*
X012963Y002446D01*
X013082Y002446D01*
X013191Y002491D01*
X013274Y002575D01*
X013320Y002684D01*
X013320Y002802D01*
X013274Y002911D01*
X013191Y002995D01*
X013082Y003040D01*
X012966Y003040D01*
X012917Y003089D01*
X012917Y003733D01*
X012999Y003815D01*
X013044Y003924D01*
X013044Y004042D01*
X012999Y004151D01*
X012915Y004235D01*
X012806Y004280D01*
X012688Y004280D01*
X012579Y004235D01*
X012495Y004151D01*
X012450Y004042D01*
X012450Y003924D01*
X012470Y004091D02*
X004707Y004091D01*
X004576Y004209D02*
X012553Y004209D01*
X012941Y004209D02*
X016437Y004209D01*
X016418Y004255D02*
X016464Y004146D01*
X016547Y004062D01*
X016656Y004017D01*
X016775Y004017D01*
X016884Y004062D01*
X016967Y004146D01*
X017013Y004255D01*
X017013Y004373D01*
X016967Y004482D01*
X016895Y004554D01*
X016895Y010442D01*
X016885Y010452D01*
X016885Y010543D01*
X017997Y011654D01*
X017868Y011343D01*
X017868Y010965D01*
X018013Y010616D01*
X018280Y010349D01*
X018629Y010204D01*
X019007Y010204D01*
X019356Y010349D01*
X019623Y010616D01*
X019768Y010965D01*
X019768Y011343D01*
X019623Y011692D01*
X019356Y011960D01*
X019007Y012104D01*
X018629Y012104D01*
X018318Y011976D01*
X019925Y013583D01*
X019940Y013583D01*
X020045Y013688D01*
X020045Y013760D01*
X020355Y013760D01*
X020397Y013657D01*
X020547Y013507D01*
X020743Y013426D01*
X021782Y013426D01*
X021978Y013507D01*
X022128Y013657D01*
X022209Y013853D01*
X022209Y014066D01*
X022128Y014262D01*
X021978Y014412D01*
X021782Y014493D01*
X020743Y014493D01*
X020547Y014412D01*
X020397Y014262D01*
X020355Y014160D01*
X019948Y014160D01*
X019554Y014554D01*
X019591Y014645D01*
X019591Y014849D01*
X019513Y015038D01*
X019369Y015182D01*
X019180Y015261D01*
X018975Y015261D01*
X018787Y015182D01*
X018642Y015038D01*
X018564Y014849D01*
X018564Y014645D01*
X018642Y014456D01*
X018787Y014311D01*
X018975Y014233D01*
X019180Y014233D01*
X019271Y014271D01*
X019685Y013857D01*
X019685Y013823D01*
X017594Y011732D01*
X017924Y012372D01*
X018153Y013151D01*
X018153Y013151D01*
X018230Y013960D01*
X018153Y014768D01*
X017924Y015547D01*
X017552Y016268D01*
X017552Y016268D01*
X017050Y016906D01*
X017050Y016906D01*
X016437Y017438D01*
X016437Y017438D01*
X015734Y017844D01*
X015734Y017844D01*
X014966Y018110D01*
X014163Y018225D01*
X014163Y018225D01*
X014097Y018222D01*
X015018Y019144D01*
X015124Y019249D01*
X015124Y020452D01*
X015194Y020522D01*
X016432Y020522D01*
X017278Y021368D01*
X017378Y021468D01*
X017378Y022944D01*
X017419Y022985D01*
X017419Y022986D01*
X017476Y023043D01*
X017476Y023053D01*
X017476Y023125D01*
X017476Y023194D01*
X017476Y023650D01*
X017530Y023704D01*
X017530Y022674D01*
X017448Y022592D01*
X017403Y022483D01*
X017403Y022365D01*
X017448Y022256D01*
X017531Y022172D01*
X017641Y022127D01*
X017759Y022127D01*
X017868Y022172D01*
X017952Y022256D01*
X017997Y022365D01*
X017997Y022483D01*
X017952Y022592D01*
X017870Y022674D01*
X017870Y023633D01*
X018170Y023934D01*
X018170Y023897D01*
X018248Y023708D01*
X018393Y023563D01*
X018582Y023485D01*
X018786Y023485D01*
X018975Y023563D01*
X019075Y023663D01*
X019202Y023535D01*
X019174Y023467D01*
X019174Y023349D01*
X019219Y023240D01*
X019303Y023156D01*
X019412Y023111D01*
X019530Y023111D01*
X019640Y023156D01*
X019723Y023240D01*
X019769Y023349D01*
X019769Y023467D01*
X019723Y023577D01*
X019640Y023660D01*
X019530Y023706D01*
X019513Y023706D01*
X019297Y023922D01*
X019198Y024021D01*
X019198Y024101D01*
X019119Y024290D01*
X018975Y024434D01*
X018838Y024491D01*
X018975Y024548D01*
X019119Y024692D01*
X019170Y024813D01*
X019270Y024813D01*
X019352Y024731D01*
X019461Y024686D01*
X019580Y024686D01*
X019689Y024731D01*
X019772Y024815D01*
X019818Y024924D01*
X019818Y025042D01*
X019772Y025151D01*
X019689Y025235D01*
X019580Y025280D01*
X019461Y025280D01*
X019352Y025235D01*
X019270Y025153D01*
X019170Y025153D01*
X019119Y025274D01*
X018975Y025419D01*
X018838Y025475D01*
X018975Y025532D01*
X019119Y025676D01*
X019198Y025865D01*
X019198Y026070D01*
X019119Y026258D01*
X018975Y026403D01*
X018786Y026481D01*
X018582Y026481D01*
X018393Y026403D01*
X018248Y026258D01*
X018170Y026070D01*
X018170Y025865D01*
X018220Y025744D01*
X018199Y025723D01*
X018083Y025723D01*
X017974Y025678D01*
X017891Y025594D01*
X017845Y025485D01*
X017845Y025367D01*
X017891Y025258D01*
X017974Y025174D01*
X018083Y025129D01*
X018188Y025129D01*
X018170Y025085D01*
X018170Y024881D01*
X018248Y024692D01*
X018250Y024691D01*
X017923Y024365D01*
X017923Y024168D01*
X017916Y024161D01*
X017916Y024161D01*
X017603Y023848D01*
X017603Y023960D01*
X017558Y024069D01*
X017474Y024152D01*
X017365Y024198D01*
X017247Y024198D01*
X017138Y024152D01*
X017054Y024069D01*
X017009Y023960D01*
X017009Y023841D01*
X017054Y023732D01*
X017136Y023650D01*
X017136Y023183D01*
X017129Y023176D01*
X017088Y023135D01*
X016867Y023135D01*
X016785Y023217D01*
X016676Y023263D01*
X016558Y023263D01*
X016449Y023217D01*
X016365Y023134D01*
X016320Y023025D01*
X016320Y022906D01*
X016365Y022797D01*
X016449Y022714D01*
X016558Y022668D01*
X016676Y022668D01*
X016785Y022714D01*
X016867Y022795D01*
X017038Y022795D01*
X017038Y022197D01*
X017017Y022248D01*
X016933Y022332D01*
X016824Y022377D01*
X016706Y022377D01*
X016596Y022332D01*
X016514Y022250D01*
X016097Y022250D01*
X016000Y022347D01*
X016000Y023525D01*
X016000Y023534D01*
X016329Y023534D01*
X016329Y023534D01*
X016393Y023534D01*
X016470Y023534D01*
X016477Y023541D01*
X016488Y023541D01*
X016510Y023563D01*
X016684Y023738D01*
X016695Y023738D01*
X016717Y023760D01*
X016744Y023787D01*
X016745Y023788D01*
X017280Y024323D01*
X017401Y024273D01*
X017605Y024273D01*
X017794Y024351D01*
X017938Y024495D01*
X018017Y024684D01*
X018017Y024888D01*
X017938Y025077D01*
X017794Y025222D01*
X017605Y025300D01*
X017401Y025300D01*
X017212Y025222D01*
X017067Y025077D01*
X016989Y024888D01*
X016989Y024684D01*
X017039Y024563D01*
X016554Y024078D01*
X016554Y024078D01*
X016547Y024070D01*
X016536Y024070D01*
X016492Y024026D01*
X016347Y023881D01*
X016347Y023881D01*
X016340Y023874D01*
X015981Y023874D01*
X015900Y023956D01*
X015790Y024001D01*
X015672Y024001D01*
X015563Y023956D01*
X015479Y023872D01*
X015434Y023763D01*
X015434Y023645D01*
X015479Y023535D01*
X015563Y023452D01*
X015660Y023412D01*
X015660Y022206D01*
X015856Y022009D01*
X015956Y021910D01*
X016514Y021910D01*
X016596Y021828D01*
X016706Y021782D01*
X016824Y021782D01*
X016933Y021828D01*
X017017Y021911D01*
X017038Y021962D01*
X017038Y021609D01*
X016291Y020862D01*
X015194Y020862D01*
X015112Y020944D01*
X015003Y020989D01*
X014885Y020989D01*
X014775Y020944D01*
X014692Y020860D01*
X014647Y020751D01*
X014647Y020633D01*
X014692Y020523D01*
X014764Y020452D01*
X014764Y019398D01*
X013843Y018477D01*
X013836Y018470D01*
X013483Y018470D01*
X013475Y018476D01*
X013410Y018470D01*
X013344Y018470D01*
X013337Y018463D01*
X012992Y018431D01*
X012992Y018431D01*
X012200Y018207D01*
X012200Y018207D01*
X011461Y017844D01*
X010801Y017354D01*
X010801Y017354D01*
X010239Y016753D01*
X009794Y016061D01*
X009794Y016061D01*
X009482Y015299D01*
X009313Y014494D01*
X009291Y013672D01*
X009291Y013672D01*
X009417Y012859D01*
X009689Y012082D01*
X010095Y011367D01*
X010624Y010737D01*
X010624Y010737D01*
X010876Y010528D01*
X010876Y008491D01*
X010804Y008419D01*
X010759Y008310D01*
X010759Y008192D01*
X010804Y008083D01*
X010888Y007999D01*
X010997Y007954D01*
X011115Y007954D01*
X011224Y007999D01*
X011308Y008083D01*
X011353Y008192D01*
X011353Y008310D01*
X011308Y008419D01*
X011236Y008491D01*
X011236Y010548D01*
X011242Y010556D01*
X011236Y010622D01*
X011236Y010680D01*
X011824Y010261D01*
X011824Y010261D01*
X012563Y009924D01*
X013352Y009733D01*
X014163Y009694D01*
X014966Y009809D01*
X015734Y010075D01*
X016437Y010481D01*
X016545Y010575D01*
X016545Y010452D01*
X016535Y010442D01*
X016535Y004554D01*
X016464Y004482D01*
X016418Y004373D01*
X016418Y004255D01*
X016418Y004328D02*
X004445Y004328D01*
X004383Y004383D02*
X004173Y004616D01*
X007984Y004616D01*
X008020Y004651D01*
X008020Y006034D01*
X008250Y006129D01*
X008431Y006311D01*
X008530Y006548D01*
X008530Y006804D01*
X008431Y007041D01*
X008250Y007223D01*
X008020Y007318D01*
X008020Y007804D01*
X008243Y007675D01*
X008508Y007604D01*
X008782Y007604D01*
X009046Y007675D01*
X009284Y007812D01*
X009477Y008006D01*
X009614Y008243D01*
X009685Y008508D01*
X009685Y008782D01*
X009614Y009046D01*
X009477Y009284D01*
X009284Y009477D01*
X009046Y009614D01*
X008782Y009685D01*
X008508Y009685D01*
X008243Y009614D01*
X008006Y009477D01*
X007812Y009284D01*
X007675Y009046D01*
X007604Y008782D01*
X007604Y008736D01*
X002935Y008736D01*
X002900Y008701D01*
X002900Y006174D01*
X002702Y006443D01*
X002025Y007589D01*
X001467Y008798D01*
X001250Y009382D01*
X001250Y018537D01*
X001467Y019121D01*
X002025Y020330D01*
X002702Y021476D01*
X002900Y021745D01*
X002900Y019218D01*
X002935Y019183D01*
X007604Y019183D01*
X007604Y019137D01*
X007675Y018873D01*
X007812Y018635D01*
X008006Y018442D01*
X008243Y018305D01*
X008508Y018234D01*
X008782Y018234D01*
X009046Y018305D01*
X009284Y018442D01*
X009477Y018635D01*
X009614Y018873D01*
X009685Y019137D01*
X009685Y019411D01*
X009614Y019676D01*
X009477Y019913D01*
X009284Y020107D01*
X009046Y020244D01*
X008782Y020315D01*
X008508Y020315D01*
X008243Y020244D01*
X008020Y020115D01*
X008020Y020601D01*
X008250Y020696D01*
X008431Y020878D01*
X008530Y021115D01*
X008530Y021371D01*
X008431Y021608D01*
X008250Y021790D01*
X008020Y021885D01*
X008020Y023268D01*
X007984Y023303D01*
X004173Y023303D01*
X004383Y023536D01*
X005371Y024428D01*
X006443Y025217D01*
X007589Y025894D01*
X008798Y026452D01*
X009382Y026669D01*
X014027Y026669D01*
X013922Y026564D01*
X013757Y026564D01*
X013488Y026295D01*
X013179Y026604D01*
X013000Y026604D01*
X013000Y026114D01*
X012920Y026114D01*
X012920Y026604D01*
X012740Y026604D01*
X012430Y026293D01*
X012430Y026114D01*
X012920Y026114D01*
X012920Y026034D01*
X012430Y026034D01*
X012430Y025854D01*
X012738Y025545D01*
X012470Y025277D01*
X012470Y024871D01*
X012757Y024584D01*
X013162Y024584D01*
X013450Y024871D01*
X013450Y025277D01*
X013181Y025545D01*
X013488Y025852D01*
X013757Y025584D01*
X014162Y025584D01*
X014450Y025871D01*
X014450Y026277D01*
X014338Y026388D01*
X014581Y026388D01*
X014470Y026277D01*
X014470Y025871D01*
X014757Y025584D01*
X015162Y025584D01*
X015199Y025620D01*
X015255Y025564D01*
X014540Y025564D01*
X014470Y025493D01*
X014470Y024654D01*
X014540Y024584D01*
X015288Y024584D01*
X015117Y024413D01*
X015069Y024365D01*
X015069Y024354D01*
X005288Y024354D01*
X005157Y024236D02*
X012865Y024236D01*
X012916Y024257D02*
X012807Y024211D01*
X012751Y024156D01*
X010982Y024156D01*
X010954Y024183D01*
X010855Y024224D01*
X010749Y024224D01*
X010650Y024183D01*
X010574Y024108D01*
X010534Y024009D01*
X010534Y023902D01*
X010574Y023804D01*
X010628Y023750D01*
X010602Y023739D01*
X010519Y023655D01*
X010473Y023546D01*
X010473Y023428D01*
X010519Y023319D01*
X010602Y023235D01*
X010711Y023190D01*
X010830Y023190D01*
X010939Y023235D01*
X011021Y023317D01*
X011251Y023317D01*
X011467Y023102D01*
X011467Y020936D01*
X011566Y020837D01*
X012039Y020364D01*
X012489Y020364D01*
X012571Y020282D01*
X012680Y020237D01*
X012798Y020237D01*
X012907Y020282D01*
X012991Y020366D01*
X013036Y020475D01*
X013036Y020593D01*
X012991Y020703D01*
X012907Y020786D01*
X012798Y020831D01*
X012680Y020831D01*
X012571Y020786D01*
X012489Y020704D01*
X012180Y020704D01*
X011807Y021077D01*
X011807Y023243D01*
X011492Y023558D01*
X011392Y023657D01*
X011021Y023657D01*
X010951Y023727D01*
X010954Y023728D01*
X010982Y023756D01*
X012759Y023756D01*
X012807Y023708D01*
X012916Y023662D01*
X012992Y023662D01*
X012992Y021662D01*
X012985Y021655D01*
X012950Y021620D01*
X012625Y021620D01*
X012553Y021692D01*
X012444Y021737D01*
X012326Y021737D01*
X012216Y021692D01*
X012133Y021608D01*
X012088Y021499D01*
X012088Y021381D01*
X012133Y021272D01*
X012216Y021188D01*
X012326Y021143D01*
X012444Y021143D01*
X012553Y021188D01*
X012625Y021260D01*
X013099Y021260D01*
X013294Y021455D01*
X013352Y021513D01*
X013352Y021523D01*
X013352Y021523D01*
X013352Y021601D01*
X013352Y021672D01*
X013352Y023877D01*
X013272Y023956D01*
X013272Y024019D01*
X013227Y024128D01*
X013144Y024211D01*
X013034Y024257D01*
X012916Y024257D01*
X013085Y024236D02*
X015069Y024236D01*
X015069Y024214D02*
X015069Y024214D01*
X015069Y024284D01*
X015069Y024354D01*
X015069Y024354D01*
X015069Y024214D02*
X015069Y023872D01*
X015062Y023865D01*
X014705Y023509D01*
X014589Y023509D01*
X014480Y023463D01*
X014397Y023380D01*
X014351Y023271D01*
X014351Y023152D01*
X014397Y023043D01*
X014480Y022960D01*
X014589Y022914D01*
X014663Y022914D01*
X014687Y022890D01*
X014687Y022890D01*
X014695Y022883D01*
X014695Y021259D01*
X014850Y021103D01*
X014876Y021077D01*
X014903Y021050D01*
X014913Y021050D01*
X014920Y021043D01*
X015005Y021043D01*
X015086Y021043D01*
X015314Y021043D01*
X015366Y020991D01*
X015475Y020946D01*
X015593Y020946D01*
X015703Y020991D01*
X015786Y021075D01*
X015831Y021184D01*
X015831Y021302D01*
X015786Y021411D01*
X015703Y021495D01*
X015593Y021540D01*
X015475Y021540D01*
X015366Y021495D01*
X015314Y021443D01*
X015095Y021443D01*
X015095Y022872D01*
X015095Y022955D01*
X015095Y023038D01*
X015095Y023038D01*
X015095Y023048D01*
X015032Y023111D01*
X014946Y023197D01*
X014946Y023268D01*
X015358Y023681D01*
X015409Y023732D01*
X015409Y023742D01*
X015409Y023742D01*
X015409Y023812D01*
X015409Y023883D01*
X015409Y024224D01*
X015416Y024231D01*
X015494Y024308D01*
X015528Y024224D01*
X015612Y024141D01*
X015721Y024095D01*
X015840Y024095D01*
X015949Y024141D01*
X016031Y024223D01*
X016146Y024223D01*
X016203Y024279D01*
X016220Y024273D01*
X016424Y024273D01*
X016613Y024351D01*
X016757Y024495D01*
X016835Y024684D01*
X016835Y024888D01*
X016757Y025077D01*
X016613Y025222D01*
X016424Y025300D01*
X016220Y025300D01*
X016031Y025222D01*
X015886Y025077D01*
X015808Y024888D01*
X015808Y024690D01*
X015754Y024690D01*
X015754Y025405D01*
X015956Y025607D01*
X016031Y025532D01*
X016220Y025454D01*
X016424Y025454D01*
X016613Y025532D01*
X016757Y025676D01*
X016835Y025865D01*
X016835Y026070D01*
X016757Y026258D01*
X016628Y026388D01*
X016842Y026388D01*
X017039Y026191D01*
X016989Y026070D01*
X016989Y025865D01*
X017067Y025676D01*
X017212Y025532D01*
X017401Y025454D01*
X017605Y025454D01*
X017794Y025532D01*
X017938Y025676D01*
X018017Y025865D01*
X018017Y026070D01*
X017938Y026258D01*
X017794Y026403D01*
X017605Y026481D01*
X017401Y026481D01*
X017280Y026431D01*
X017041Y026669D01*
X018537Y026669D01*
X019121Y026452D01*
X020330Y025894D01*
X021476Y025217D01*
X022548Y024428D01*
X023536Y023536D01*
X023746Y023303D01*
X019935Y023303D01*
X019900Y023268D01*
X019900Y021885D01*
X019669Y021790D01*
X019488Y021608D01*
X019390Y021371D01*
X019390Y021115D01*
X019488Y020878D01*
X019669Y020696D01*
X019900Y020601D01*
X019900Y020115D01*
X019676Y020244D01*
X019411Y020315D01*
X019137Y020315D01*
X018873Y020244D01*
X018635Y020107D01*
X018442Y019913D01*
X018305Y019676D01*
X018234Y019411D01*
X018234Y019137D01*
X018305Y018873D01*
X018442Y018635D01*
X018635Y018442D01*
X018873Y018305D01*
X019137Y018234D01*
X019411Y018234D01*
X019676Y018305D01*
X019913Y018442D01*
X020107Y018635D01*
X020244Y018873D01*
X020315Y019137D01*
X020315Y019183D01*
X024980Y019183D01*
X024980Y019117D01*
X025078Y018881D01*
X025259Y018700D01*
X025495Y018602D01*
X025751Y018602D01*
X025987Y018700D01*
X026168Y018881D01*
X026266Y019117D01*
X026266Y019373D01*
X026168Y019609D01*
X025987Y019790D01*
X025751Y019888D01*
X025495Y019888D01*
X025259Y019790D01*
X025078Y019609D01*
X025020Y019469D01*
X025020Y021745D01*
X025217Y021476D01*
X025894Y020330D01*
X026452Y019121D01*
X026669Y018537D01*
X026669Y009382D01*
X026452Y008798D01*
X025894Y007589D01*
X025217Y006443D01*
X025020Y006174D01*
X025020Y008701D01*
X024984Y008736D01*
X020315Y008736D01*
X020315Y008782D01*
X020244Y009046D01*
X020107Y009284D01*
X019913Y009477D01*
X019676Y009614D01*
X019411Y009685D01*
X019137Y009685D01*
X018873Y009614D01*
X018635Y009477D01*
X018442Y009284D01*
X018305Y009046D01*
X018234Y008782D01*
X018234Y008508D01*
X018305Y008243D01*
X018442Y008006D01*
X018635Y007812D01*
X018873Y007675D01*
X019137Y007604D01*
X019411Y007604D01*
X019676Y007675D01*
X019900Y007804D01*
X019900Y007349D01*
X019814Y007326D01*
X019731Y007292D01*
X019653Y007247D01*
X019582Y007192D01*
X019518Y007129D01*
X019464Y007057D01*
X019419Y006980D01*
X019384Y006897D01*
X019361Y006810D01*
X019352Y006736D01*
X019900Y006736D01*
X019900Y006616D01*
X019352Y006616D01*
X019361Y006542D01*
X019384Y006455D01*
X019419Y006372D01*
X019464Y006295D01*
X019518Y006223D01*
X019582Y006160D01*
X019653Y006105D01*
X019731Y006060D01*
X019814Y006026D01*
X019900Y006003D01*
X019900Y004651D01*
X019935Y004616D01*
X023746Y004616D01*
X023536Y004383D01*
X022548Y003491D01*
X021476Y002702D01*
X020330Y002025D01*
X019121Y001467D01*
X018537Y001250D01*
X009382Y001250D01*
X008798Y001467D01*
X007589Y002025D01*
X006443Y002702D01*
X005371Y003491D01*
X004383Y004383D01*
X004326Y004446D02*
X016449Y004446D01*
X016535Y004565D02*
X004219Y004565D01*
X005100Y003735D02*
X012575Y003735D01*
X012577Y003617D02*
X005231Y003617D01*
X005362Y003498D02*
X012577Y003498D01*
X012577Y003380D02*
X005522Y003380D01*
X005683Y003261D02*
X012577Y003261D01*
X012577Y003143D02*
X005844Y003143D01*
X006005Y003024D02*
X012577Y003024D01*
X012620Y002906D02*
X006166Y002906D01*
X006327Y002787D02*
X012725Y002787D01*
X012732Y002669D02*
X006500Y002669D01*
X006700Y002550D02*
X012795Y002550D01*
X013250Y002550D02*
X021219Y002550D01*
X021419Y002669D02*
X013313Y002669D01*
X013320Y002787D02*
X021592Y002787D01*
X021753Y002906D02*
X013277Y002906D01*
X013121Y003024D02*
X021914Y003024D01*
X022075Y003143D02*
X012917Y003143D01*
X012917Y003261D02*
X022236Y003261D01*
X022397Y003380D02*
X012917Y003380D01*
X012917Y003498D02*
X022557Y003498D01*
X022688Y003617D02*
X012917Y003617D01*
X012919Y003735D02*
X022819Y003735D01*
X022950Y003854D02*
X013015Y003854D01*
X013044Y003972D02*
X023081Y003972D01*
X023212Y004091D02*
X016912Y004091D01*
X016994Y004209D02*
X023343Y004209D01*
X023474Y004328D02*
X017013Y004328D01*
X016982Y004446D02*
X023593Y004446D01*
X023700Y004565D02*
X016895Y004565D01*
X016895Y004683D02*
X019900Y004683D01*
X019900Y004802D02*
X016895Y004802D01*
X016895Y004920D02*
X019900Y004920D01*
X019900Y005039D02*
X016895Y005039D01*
X016895Y005157D02*
X019900Y005157D01*
X019900Y005276D02*
X016895Y005276D01*
X016895Y005394D02*
X019900Y005394D01*
X019900Y005513D02*
X016895Y005513D01*
X016895Y005631D02*
X019900Y005631D01*
X019900Y005750D02*
X016895Y005750D01*
X016895Y005868D02*
X019900Y005868D01*
X019900Y005987D02*
X016895Y005987D01*
X016895Y006105D02*
X019654Y006105D01*
X019518Y006224D02*
X016895Y006224D01*
X016895Y006342D02*
X019436Y006342D01*
X019383Y006461D02*
X016895Y006461D01*
X016895Y006579D02*
X019356Y006579D01*
X019363Y006816D02*
X016895Y006816D01*
X016895Y006698D02*
X019900Y006698D01*
X019400Y006935D02*
X016895Y006935D01*
X016895Y007053D02*
X019461Y007053D01*
X019561Y007172D02*
X016895Y007172D01*
X016895Y007290D02*
X019728Y007290D01*
X019900Y007409D02*
X016895Y007409D01*
X016895Y007527D02*
X019900Y007527D01*
X019900Y007646D02*
X019567Y007646D01*
X019831Y007764D02*
X019900Y007764D01*
X018982Y007646D02*
X016895Y007646D01*
X016895Y007764D02*
X018718Y007764D01*
X018565Y007883D02*
X016895Y007883D01*
X016895Y008001D02*
X018446Y008001D01*
X018376Y008120D02*
X016895Y008120D01*
X016895Y008238D02*
X018308Y008238D01*
X018274Y008357D02*
X016895Y008357D01*
X016895Y008475D02*
X018242Y008475D01*
X018234Y008594D02*
X016895Y008594D01*
X016895Y008712D02*
X018234Y008712D01*
X018247Y008831D02*
X016895Y008831D01*
X016895Y008949D02*
X018279Y008949D01*
X018317Y009068D02*
X016895Y009068D01*
X016895Y009186D02*
X018385Y009186D01*
X018463Y009305D02*
X016895Y009305D01*
X016895Y009423D02*
X018581Y009423D01*
X018747Y009542D02*
X016895Y009542D01*
X016895Y009660D02*
X019043Y009660D01*
X019506Y009660D02*
X026669Y009660D01*
X026669Y009542D02*
X019802Y009542D01*
X019968Y009423D02*
X026669Y009423D01*
X026641Y009305D02*
X020086Y009305D01*
X020164Y009186D02*
X026596Y009186D01*
X026552Y009068D02*
X020232Y009068D01*
X020270Y008949D02*
X026508Y008949D01*
X026464Y008831D02*
X020302Y008831D01*
X020944Y010296D02*
X021148Y010296D01*
X021337Y010374D01*
X021482Y010519D01*
X021560Y010708D01*
X021560Y010912D01*
X021482Y011101D01*
X021337Y011245D01*
X021246Y011283D01*
X021246Y011851D01*
X022176Y011851D01*
X022372Y011933D01*
X022522Y012083D01*
X022603Y012279D01*
X022603Y012491D01*
X022522Y012687D01*
X022372Y012837D01*
X022176Y012918D01*
X021137Y012918D01*
X020941Y012837D01*
X020791Y012687D01*
X020710Y012491D01*
X020710Y012279D01*
X020791Y012083D01*
X020846Y012027D01*
X020846Y011283D01*
X020755Y011245D01*
X020611Y011101D01*
X020532Y010912D01*
X020532Y010708D01*
X020611Y010519D01*
X020755Y010374D01*
X020944Y010296D01*
X020763Y010371D02*
X019378Y010371D01*
X019497Y010490D02*
X020640Y010490D01*
X020574Y010608D02*
X019615Y010608D01*
X019669Y010727D02*
X020532Y010727D01*
X020532Y010845D02*
X019718Y010845D01*
X019767Y010964D02*
X020554Y010964D01*
X020603Y011082D02*
X019768Y011082D01*
X019768Y011201D02*
X020710Y011201D01*
X020846Y011319D02*
X019768Y011319D01*
X019729Y011438D02*
X020846Y011438D01*
X020846Y011556D02*
X019680Y011556D01*
X019631Y011675D02*
X020846Y011675D01*
X020846Y011793D02*
X019523Y011793D01*
X019404Y011912D02*
X020846Y011912D01*
X020843Y012030D02*
X019187Y012030D01*
X018728Y012386D02*
X020710Y012386D01*
X020715Y012504D02*
X018847Y012504D01*
X018965Y012623D02*
X020764Y012623D01*
X020845Y012741D02*
X019084Y012741D01*
X019202Y012860D02*
X020995Y012860D01*
X020681Y013452D02*
X019795Y013452D01*
X019913Y013571D02*
X020484Y013571D01*
X020384Y013689D02*
X020045Y013689D01*
X019865Y013763D02*
X019865Y013960D01*
X019944Y014163D02*
X020356Y014163D01*
X020417Y014282D02*
X019826Y014282D01*
X019707Y014400D02*
X020535Y014400D01*
X020942Y015044D02*
X021023Y015003D01*
X021109Y014975D01*
X021183Y014963D01*
X021183Y015474D01*
X021303Y015474D01*
X021303Y014961D01*
X022115Y014961D01*
X022204Y014975D01*
X022290Y015003D01*
X022370Y015044D01*
X022443Y015097D01*
X022507Y015161D01*
X022560Y015234D01*
X022601Y015314D01*
X022629Y015400D01*
X022641Y015474D01*
X021303Y015474D01*
X021303Y015594D01*
X022641Y015594D01*
X022629Y015669D01*
X022601Y015754D01*
X022560Y015835D01*
X022507Y015908D01*
X022443Y015972D01*
X022370Y016025D01*
X022290Y016066D01*
X022204Y016094D01*
X022115Y016108D01*
X021303Y016108D01*
X021303Y015594D01*
X021183Y015594D01*
X021183Y015474D01*
X020672Y015474D01*
X020684Y015400D01*
X020712Y015314D01*
X020753Y015234D01*
X020806Y015161D01*
X020869Y015097D01*
X020942Y015044D01*
X020855Y015111D02*
X019440Y015111D01*
X019532Y014993D02*
X021055Y014993D01*
X021183Y014993D02*
X021303Y014993D01*
X021303Y015111D02*
X021183Y015111D01*
X021183Y015230D02*
X021303Y015230D01*
X021303Y015348D02*
X021183Y015348D01*
X021183Y015467D02*
X021303Y015467D01*
X021303Y015585D02*
X023025Y015585D01*
X022973Y015637D02*
X023117Y015493D01*
X023306Y015414D01*
X023511Y015414D01*
X023699Y015493D01*
X023844Y015637D01*
X023922Y015826D01*
X023922Y016030D01*
X023844Y016219D01*
X023699Y016364D01*
X023511Y016442D01*
X023306Y016442D01*
X023121Y016365D01*
X022644Y016842D01*
X022627Y016884D01*
X022543Y016967D01*
X022434Y017013D01*
X022316Y017013D01*
X022207Y016967D01*
X022123Y016884D01*
X022078Y016775D01*
X022078Y016656D01*
X022123Y016547D01*
X022207Y016464D01*
X022248Y016446D01*
X022913Y015781D01*
X022973Y015637D01*
X022945Y015704D02*
X022618Y015704D01*
X022567Y015822D02*
X022872Y015822D01*
X022754Y015941D02*
X022474Y015941D01*
X022635Y016059D02*
X022303Y016059D01*
X022517Y016178D02*
X017599Y016178D01*
X017660Y016059D02*
X021010Y016059D01*
X021023Y016066D02*
X020942Y016025D01*
X020869Y015972D01*
X020806Y015908D01*
X020753Y015835D01*
X020712Y015754D01*
X020684Y015669D01*
X020672Y015594D01*
X021183Y015594D01*
X021183Y016105D01*
X021109Y016094D01*
X021023Y016066D01*
X021183Y016059D02*
X021303Y016059D01*
X021303Y015941D02*
X021183Y015941D01*
X021183Y015822D02*
X021303Y015822D01*
X021303Y015704D02*
X021183Y015704D01*
X021183Y015585D02*
X017904Y015585D01*
X017924Y015547D02*
X017924Y015547D01*
X017948Y015467D02*
X020673Y015467D01*
X020701Y015348D02*
X017982Y015348D01*
X018017Y015230D02*
X018900Y015230D01*
X018715Y015111D02*
X018052Y015111D01*
X018087Y014993D02*
X018623Y014993D01*
X018574Y014874D02*
X018122Y014874D01*
X018153Y014768D02*
X018153Y014768D01*
X018154Y014756D02*
X018564Y014756D01*
X018567Y014637D02*
X018165Y014637D01*
X018177Y014519D02*
X018616Y014519D01*
X018698Y014400D02*
X018188Y014400D01*
X018199Y014282D02*
X018859Y014282D01*
X019379Y014163D02*
X018211Y014163D01*
X018222Y014045D02*
X019497Y014045D01*
X019616Y013926D02*
X018227Y013926D01*
X018230Y013960D02*
X018230Y013960D01*
X018215Y013808D02*
X019669Y013808D01*
X019551Y013689D02*
X018204Y013689D01*
X018193Y013571D02*
X019432Y013571D01*
X019314Y013452D02*
X018181Y013452D01*
X018170Y013334D02*
X019195Y013334D01*
X019077Y013215D02*
X018159Y013215D01*
X018137Y013097D02*
X018958Y013097D01*
X018840Y012978D02*
X018102Y012978D01*
X018067Y012860D02*
X018721Y012860D01*
X018603Y012741D02*
X018032Y012741D01*
X017998Y012623D02*
X018484Y012623D01*
X018366Y012504D02*
X017963Y012504D01*
X017928Y012386D02*
X018247Y012386D01*
X018129Y012267D02*
X017870Y012267D01*
X017924Y012372D02*
X017924Y012372D01*
X018010Y012149D02*
X017809Y012149D01*
X017748Y012030D02*
X017892Y012030D01*
X017773Y011912D02*
X017686Y011912D01*
X017655Y011793D02*
X017625Y011793D01*
X017899Y011556D02*
X017956Y011556D01*
X017907Y011438D02*
X017780Y011438D01*
X017868Y011319D02*
X017662Y011319D01*
X017543Y011201D02*
X017868Y011201D01*
X017868Y011082D02*
X017425Y011082D01*
X017306Y010964D02*
X017869Y010964D01*
X017918Y010845D02*
X017188Y010845D01*
X017069Y010727D02*
X017967Y010727D01*
X018021Y010608D02*
X016951Y010608D01*
X016885Y010490D02*
X018140Y010490D01*
X018258Y010371D02*
X016895Y010371D01*
X016895Y010253D02*
X018513Y010253D01*
X019123Y010253D02*
X022862Y010253D01*
X022806Y010309D02*
X023006Y010109D01*
X023267Y010001D01*
X024731Y010001D01*
X024992Y010109D01*
X025192Y010309D01*
X025300Y010570D01*
X025300Y010853D01*
X025192Y011114D01*
X024992Y011314D01*
X024789Y011398D01*
X024789Y011518D01*
X024880Y011556D01*
X025025Y011700D01*
X025103Y011889D01*
X025103Y012093D01*
X025025Y012282D01*
X024880Y012427D01*
X024692Y012505D01*
X024487Y012505D01*
X024298Y012427D01*
X024154Y012282D01*
X024076Y012093D01*
X024076Y011889D01*
X024154Y011700D01*
X024298Y011556D01*
X023752Y011556D01*
X023769Y011569D02*
X023831Y011630D01*
X023882Y011701D01*
X023921Y011778D01*
X023948Y011861D01*
X023959Y011931D01*
X023468Y011931D01*
X023468Y011440D01*
X023538Y011451D01*
X023621Y011478D01*
X023699Y011517D01*
X023769Y011569D01*
X023863Y011675D02*
X024179Y011675D01*
X024115Y011793D02*
X023926Y011793D01*
X023956Y011912D02*
X024076Y011912D01*
X024076Y012030D02*
X023468Y012030D01*
X023468Y012051D02*
X023959Y012051D01*
X023948Y012121D01*
X023921Y012204D01*
X023882Y012281D01*
X023831Y012352D01*
X023769Y012413D01*
X023699Y012465D01*
X023621Y012504D01*
X024486Y012504D01*
X024693Y012504D02*
X026669Y012504D01*
X026669Y012386D02*
X024921Y012386D01*
X025031Y012267D02*
X026669Y012267D01*
X026669Y012149D02*
X025080Y012149D01*
X025103Y012030D02*
X026669Y012030D01*
X026669Y011912D02*
X025103Y011912D01*
X025063Y011793D02*
X026669Y011793D01*
X026669Y011675D02*
X024999Y011675D01*
X024881Y011556D02*
X026669Y011556D01*
X026669Y011438D02*
X024789Y011438D01*
X024980Y011319D02*
X026669Y011319D01*
X026669Y011201D02*
X025105Y011201D01*
X025205Y011082D02*
X026669Y011082D01*
X026669Y010964D02*
X025254Y010964D01*
X025300Y010845D02*
X026669Y010845D01*
X026669Y010727D02*
X025300Y010727D01*
X025300Y010608D02*
X026669Y010608D01*
X026669Y010490D02*
X025267Y010490D01*
X025218Y010371D02*
X026669Y010371D01*
X026669Y010253D02*
X025135Y010253D01*
X025017Y010134D02*
X026669Y010134D01*
X026669Y010016D02*
X024766Y010016D01*
X025008Y008712D02*
X026412Y008712D01*
X026357Y008594D02*
X025020Y008594D01*
X025020Y008475D02*
X026303Y008475D01*
X026248Y008357D02*
X025020Y008357D01*
X025020Y008238D02*
X026193Y008238D01*
X026139Y008120D02*
X025020Y008120D01*
X025020Y008001D02*
X026084Y008001D01*
X026029Y007883D02*
X025020Y007883D01*
X025020Y007764D02*
X025975Y007764D01*
X025920Y007646D02*
X025020Y007646D01*
X025020Y007527D02*
X025857Y007527D01*
X025787Y007409D02*
X025020Y007409D01*
X025020Y007290D02*
X025717Y007290D01*
X025647Y007172D02*
X025020Y007172D01*
X025020Y007053D02*
X025577Y007053D01*
X025507Y006935D02*
X025020Y006935D01*
X025020Y006816D02*
X025437Y006816D01*
X025367Y006698D02*
X025020Y006698D01*
X025020Y006579D02*
X025297Y006579D01*
X025227Y006461D02*
X025020Y006461D01*
X025020Y006342D02*
X025143Y006342D01*
X025056Y006224D02*
X025020Y006224D01*
X026669Y009779D02*
X016895Y009779D01*
X016895Y009897D02*
X026669Y009897D01*
X024389Y011422D02*
X024389Y011518D01*
X024298Y011556D01*
X024389Y011438D02*
X021246Y011438D01*
X021246Y011556D02*
X023065Y011556D01*
X023048Y011569D02*
X023118Y011517D01*
X023196Y011478D01*
X023279Y011451D01*
X023348Y011440D01*
X023348Y011931D01*
X022857Y011931D01*
X022868Y011861D01*
X022895Y011778D01*
X022935Y011701D01*
X022986Y011630D01*
X023048Y011569D01*
X022954Y011675D02*
X021246Y011675D01*
X021246Y011793D02*
X022890Y011793D01*
X022860Y011912D02*
X022321Y011912D01*
X022469Y012030D02*
X023348Y012030D01*
X023348Y012051D02*
X023348Y011931D01*
X023468Y011931D01*
X023468Y012051D01*
X023348Y012051D01*
X022857Y012051D01*
X022868Y012121D01*
X022895Y012204D01*
X022935Y012281D01*
X022986Y012352D01*
X023048Y012413D01*
X023118Y012465D01*
X023196Y012504D01*
X023279Y012531D01*
X023348Y012542D01*
X023348Y012051D01*
X023348Y012149D02*
X023468Y012149D01*
X023468Y012051D02*
X023468Y012542D01*
X023538Y012531D01*
X023621Y012504D01*
X023468Y012504D02*
X023348Y012504D01*
X023348Y012386D02*
X023468Y012386D01*
X023468Y012267D02*
X023348Y012267D01*
X023196Y012504D02*
X022598Y012504D01*
X022603Y012386D02*
X023020Y012386D01*
X022928Y012267D02*
X022598Y012267D01*
X022549Y012149D02*
X022877Y012149D01*
X023348Y011912D02*
X023468Y011912D01*
X023468Y011793D02*
X023348Y011793D01*
X023348Y011675D02*
X023468Y011675D01*
X023468Y011556D02*
X023348Y011556D01*
X023267Y011422D02*
X023006Y011314D01*
X022806Y011114D01*
X022698Y010853D01*
X022698Y010570D01*
X022806Y010309D01*
X022780Y010371D02*
X021329Y010371D01*
X021452Y010490D02*
X022731Y010490D01*
X022698Y010608D02*
X021519Y010608D01*
X021560Y010727D02*
X022698Y010727D01*
X022698Y010845D02*
X021560Y010845D01*
X021539Y010964D02*
X022744Y010964D01*
X022793Y011082D02*
X021489Y011082D01*
X021382Y011201D02*
X022893Y011201D01*
X023018Y011319D02*
X021246Y011319D01*
X020763Y012149D02*
X018491Y012149D01*
X018450Y012030D02*
X018373Y012030D01*
X018610Y012267D02*
X020714Y012267D01*
X019439Y013097D02*
X026669Y013097D01*
X026669Y013215D02*
X019558Y013215D01*
X019676Y013334D02*
X026669Y013334D01*
X026669Y013452D02*
X023632Y013452D01*
X023621Y013446D02*
X023699Y013486D01*
X023769Y013537D01*
X023831Y013599D01*
X023882Y013669D01*
X023921Y013747D01*
X023948Y013830D01*
X023959Y013900D01*
X023468Y013900D01*
X023468Y014020D01*
X023348Y014020D01*
X023348Y014511D01*
X023279Y014500D01*
X023196Y014473D01*
X023118Y014433D01*
X023048Y014382D01*
X022986Y014320D01*
X022935Y014250D01*
X022895Y014172D01*
X022868Y014089D01*
X022857Y014020D01*
X023348Y014020D01*
X023348Y013900D01*
X022857Y013900D01*
X022868Y013830D01*
X022895Y013747D01*
X022935Y013669D01*
X022986Y013599D01*
X023048Y013537D01*
X023118Y013486D01*
X023196Y013446D01*
X023279Y013419D01*
X023348Y013408D01*
X023348Y013900D01*
X023468Y013900D01*
X023468Y013408D01*
X023538Y013419D01*
X023621Y013446D01*
X023468Y013452D02*
X023348Y013452D01*
X023348Y013571D02*
X023468Y013571D01*
X023468Y013689D02*
X023348Y013689D01*
X023348Y013808D02*
X023468Y013808D01*
X023468Y013926D02*
X026669Y013926D01*
X026669Y013808D02*
X023941Y013808D01*
X023892Y013689D02*
X026669Y013689D01*
X026669Y013571D02*
X023802Y013571D01*
X023348Y013926D02*
X022209Y013926D01*
X022209Y014045D02*
X022861Y014045D01*
X022892Y014163D02*
X022169Y014163D01*
X022108Y014282D02*
X022958Y014282D01*
X023073Y014400D02*
X021990Y014400D01*
X022190Y013808D02*
X022876Y013808D01*
X022925Y013689D02*
X022141Y013689D01*
X022041Y013571D02*
X023014Y013571D01*
X023185Y013452D02*
X021845Y013452D01*
X022317Y012860D02*
X026669Y012860D01*
X026669Y012978D02*
X019321Y012978D01*
X019589Y014519D02*
X026669Y014519D01*
X026669Y014637D02*
X019588Y014637D01*
X019591Y014756D02*
X026669Y014756D01*
X026669Y014874D02*
X019581Y014874D01*
X019255Y015230D02*
X020756Y015230D01*
X020695Y015704D02*
X017843Y015704D01*
X017782Y015822D02*
X020746Y015822D01*
X020838Y015941D02*
X017721Y015941D01*
X017530Y016296D02*
X022398Y016296D01*
X022280Y016415D02*
X017437Y016415D01*
X017344Y016533D02*
X022137Y016533D01*
X022080Y016652D02*
X017251Y016652D01*
X017157Y016770D02*
X022078Y016770D01*
X022128Y016889D02*
X017064Y016889D01*
X017050Y016906D02*
X017050Y016906D01*
X016934Y017007D02*
X022302Y017007D01*
X022447Y017007D02*
X022722Y017007D01*
X022698Y017066D02*
X022806Y016805D01*
X023006Y016605D01*
X023267Y016497D01*
X023719Y016497D01*
X023719Y016463D01*
X023762Y016360D01*
X023840Y016281D01*
X024080Y016041D01*
X024076Y016030D01*
X024076Y015826D01*
X024154Y015637D01*
X024298Y015493D01*
X024487Y015414D01*
X024692Y015414D01*
X024880Y015493D01*
X025025Y015637D01*
X025103Y015826D01*
X025103Y016030D01*
X025025Y016219D01*
X024880Y016364D01*
X024692Y016442D01*
X024487Y016442D01*
X024476Y016437D01*
X024416Y016497D01*
X024731Y016497D01*
X024992Y016605D01*
X025192Y016805D01*
X025300Y017066D01*
X025300Y017349D01*
X025192Y017610D01*
X024992Y017810D01*
X024731Y017918D01*
X023267Y017918D01*
X023006Y017810D01*
X022806Y017610D01*
X022698Y017349D01*
X022698Y017066D01*
X022698Y017126D02*
X016797Y017126D01*
X016661Y017244D02*
X022698Y017244D01*
X022703Y017363D02*
X016524Y017363D01*
X016362Y017481D02*
X022753Y017481D01*
X022802Y017600D02*
X016157Y017600D01*
X015952Y017718D02*
X022914Y017718D01*
X023070Y017837D02*
X015747Y017837D01*
X015413Y017955D02*
X026669Y017955D01*
X026669Y017837D02*
X024928Y017837D01*
X025084Y017718D02*
X026669Y017718D01*
X026669Y017600D02*
X025196Y017600D01*
X025245Y017481D02*
X026669Y017481D01*
X026669Y017363D02*
X025294Y017363D01*
X025300Y017244D02*
X026669Y017244D01*
X026669Y017126D02*
X025300Y017126D01*
X025275Y017007D02*
X026669Y017007D01*
X026669Y016889D02*
X025226Y016889D01*
X025157Y016770D02*
X026669Y016770D01*
X026669Y016652D02*
X025038Y016652D01*
X024818Y016533D02*
X026669Y016533D01*
X026669Y016415D02*
X024757Y016415D01*
X024948Y016296D02*
X026669Y016296D01*
X026669Y016178D02*
X025042Y016178D01*
X025091Y016059D02*
X026669Y016059D01*
X026669Y015941D02*
X025103Y015941D01*
X025102Y015822D02*
X026669Y015822D01*
X026669Y015704D02*
X025052Y015704D01*
X024973Y015585D02*
X026669Y015585D01*
X026669Y015467D02*
X024818Y015467D01*
X024361Y015467D02*
X023637Y015467D01*
X023792Y015585D02*
X024206Y015585D01*
X024126Y015704D02*
X023871Y015704D01*
X023920Y015822D02*
X024077Y015822D01*
X024076Y015941D02*
X023922Y015941D01*
X023910Y016059D02*
X024062Y016059D01*
X023944Y016178D02*
X023861Y016178D01*
X023825Y016296D02*
X023767Y016296D01*
X023739Y016415D02*
X023576Y016415D01*
X023241Y016415D02*
X023072Y016415D01*
X023180Y016533D02*
X022953Y016533D01*
X022959Y016652D02*
X022835Y016652D01*
X022841Y016770D02*
X022716Y016770D01*
X022771Y016889D02*
X022622Y016889D01*
X022640Y015467D02*
X023180Y015467D01*
X022612Y015348D02*
X026669Y015348D01*
X026669Y015230D02*
X022557Y015230D01*
X022457Y015111D02*
X026669Y015111D01*
X026669Y014993D02*
X022258Y014993D01*
X023348Y014400D02*
X023468Y014400D01*
X023468Y014511D02*
X023468Y014020D01*
X023959Y014020D01*
X023948Y014089D01*
X023921Y014172D01*
X023882Y014250D01*
X023831Y014320D01*
X023769Y014382D01*
X023699Y014433D01*
X023621Y014473D01*
X023538Y014500D01*
X023468Y014511D01*
X023468Y014282D02*
X023348Y014282D01*
X023348Y014163D02*
X023468Y014163D01*
X023468Y014045D02*
X023348Y014045D01*
X023744Y014400D02*
X026669Y014400D01*
X026669Y014282D02*
X023859Y014282D01*
X023924Y014163D02*
X026669Y014163D01*
X026669Y014045D02*
X023955Y014045D01*
X022468Y012741D02*
X026669Y012741D01*
X026669Y012623D02*
X022549Y012623D01*
X023797Y012386D02*
X024257Y012386D01*
X024148Y012267D02*
X023889Y012267D01*
X023939Y012149D02*
X024099Y012149D01*
X024389Y011422D02*
X023267Y011422D01*
X022981Y010134D02*
X016895Y010134D01*
X016895Y010016D02*
X023232Y010016D01*
X016715Y010367D02*
X016715Y004314D01*
X016519Y004091D02*
X013024Y004091D01*
X014318Y005554D02*
X014427Y005509D01*
X014545Y005509D01*
X014654Y005554D01*
X014726Y005626D01*
X015700Y005626D01*
X015702Y005624D01*
X015702Y005522D01*
X015747Y005413D01*
X015831Y005330D01*
X015940Y005284D01*
X016058Y005284D01*
X016167Y005330D01*
X016251Y005413D01*
X016296Y005522D01*
X016296Y005641D01*
X016251Y005750D01*
X016167Y005833D01*
X016058Y005879D01*
X015956Y005879D01*
X015849Y005986D01*
X014726Y005986D01*
X014654Y006058D01*
X014545Y006103D01*
X014427Y006103D01*
X014318Y006058D01*
X014234Y005974D01*
X014189Y005865D01*
X014189Y005747D01*
X014234Y005638D01*
X014318Y005554D01*
X014418Y005513D02*
X008020Y005513D01*
X008020Y005631D02*
X014241Y005631D01*
X014189Y005750D02*
X008020Y005750D01*
X008020Y005868D02*
X014190Y005868D01*
X014246Y005987D02*
X008020Y005987D01*
X008191Y006105D02*
X016535Y006105D01*
X016535Y005987D02*
X014726Y005987D01*
X014486Y005806D02*
X015774Y005806D01*
X015999Y005582D01*
X016232Y005394D02*
X016535Y005394D01*
X016535Y005276D02*
X008020Y005276D01*
X008020Y005394D02*
X015766Y005394D01*
X015706Y005513D02*
X014554Y005513D01*
X014482Y005802D02*
X014486Y005806D01*
X016084Y005868D02*
X016535Y005868D01*
X016535Y005750D02*
X016251Y005750D01*
X016296Y005631D02*
X016535Y005631D01*
X016535Y005513D02*
X016292Y005513D01*
X016535Y005157D02*
X008020Y005157D01*
X008020Y005039D02*
X016535Y005039D01*
X016535Y004920D02*
X008020Y004920D01*
X008020Y004802D02*
X016535Y004802D01*
X016535Y004683D02*
X008020Y004683D01*
X008344Y006224D02*
X016535Y006224D01*
X016535Y006342D02*
X008444Y006342D01*
X008493Y006461D02*
X016535Y006461D01*
X016535Y006579D02*
X008530Y006579D01*
X008530Y006698D02*
X016535Y006698D01*
X016535Y006816D02*
X008525Y006816D01*
X008476Y006935D02*
X016535Y006935D01*
X016535Y007053D02*
X008420Y007053D01*
X008301Y007172D02*
X016535Y007172D01*
X016535Y007290D02*
X008088Y007290D01*
X008020Y007409D02*
X016535Y007409D01*
X016535Y007527D02*
X008020Y007527D01*
X008020Y007646D02*
X008352Y007646D01*
X008088Y007764D02*
X008020Y007764D01*
X008937Y007646D02*
X016535Y007646D01*
X016535Y007764D02*
X009201Y007764D01*
X009354Y007883D02*
X016535Y007883D01*
X016535Y008001D02*
X015011Y008001D01*
X015038Y008012D02*
X015182Y008157D01*
X015204Y008208D01*
X015275Y008208D01*
X015287Y008196D01*
X015396Y008151D01*
X015515Y008151D01*
X015624Y008196D01*
X015708Y008279D01*
X015753Y008389D01*
X015753Y008507D01*
X015708Y008616D01*
X015624Y008700D01*
X015515Y008745D01*
X015396Y008745D01*
X015287Y008700D01*
X015275Y008688D01*
X015204Y008688D01*
X015182Y008739D01*
X015038Y008883D01*
X014849Y008961D01*
X014645Y008961D01*
X014456Y008883D01*
X014311Y008739D01*
X014233Y008550D01*
X014233Y008346D01*
X014311Y008157D01*
X014456Y008012D01*
X014645Y007934D01*
X014849Y007934D01*
X015038Y008012D01*
X015145Y008120D02*
X016535Y008120D01*
X016535Y008238D02*
X015666Y008238D01*
X015739Y008357D02*
X016535Y008357D01*
X016535Y008475D02*
X015753Y008475D01*
X015717Y008594D02*
X016535Y008594D01*
X016535Y008712D02*
X015594Y008712D01*
X015317Y008712D02*
X015193Y008712D01*
X015091Y008831D02*
X016535Y008831D01*
X016535Y008949D02*
X014879Y008949D01*
X014615Y008949D02*
X012911Y008949D01*
X012881Y008961D02*
X012676Y008961D01*
X012487Y008883D01*
X012343Y008739D01*
X012322Y008688D01*
X012166Y008688D01*
X012078Y008651D01*
X011968Y008542D01*
X011952Y008542D01*
X011842Y008496D01*
X011759Y008413D01*
X011714Y008304D01*
X011714Y008185D01*
X011759Y008076D01*
X011842Y007993D01*
X011952Y007947D01*
X012070Y007947D01*
X012179Y007993D01*
X012263Y008076D01*
X012308Y008185D01*
X012308Y008202D01*
X012313Y008208D01*
X012322Y008208D01*
X012343Y008157D01*
X012487Y008012D01*
X012676Y007934D01*
X012881Y007934D01*
X013069Y008012D01*
X013214Y008157D01*
X013292Y008346D01*
X013292Y008550D01*
X013214Y008739D01*
X013069Y008883D01*
X012881Y008961D01*
X012646Y008949D02*
X011236Y008949D01*
X011236Y008831D02*
X012435Y008831D01*
X012332Y008712D02*
X011236Y008712D01*
X011236Y008594D02*
X012020Y008594D01*
X011821Y008475D02*
X011252Y008475D01*
X011334Y008357D02*
X011735Y008357D01*
X011714Y008238D02*
X011353Y008238D01*
X011323Y008120D02*
X011741Y008120D01*
X011834Y008001D02*
X011226Y008001D01*
X011056Y008251D02*
X011056Y010613D01*
X011237Y010608D02*
X011337Y010608D01*
X011236Y010490D02*
X011504Y010490D01*
X011670Y010371D02*
X011236Y010371D01*
X011236Y010253D02*
X011843Y010253D01*
X012103Y010134D02*
X011236Y010134D01*
X011236Y010016D02*
X012362Y010016D01*
X012563Y009924D02*
X012563Y009924D01*
X012674Y009897D02*
X011236Y009897D01*
X011236Y009779D02*
X013162Y009779D01*
X013352Y009733D02*
X013352Y009733D01*
X013122Y008831D02*
X014403Y008831D01*
X014300Y008712D02*
X013225Y008712D01*
X013274Y008594D02*
X014251Y008594D01*
X014233Y008475D02*
X013292Y008475D01*
X013292Y008357D02*
X014233Y008357D01*
X014278Y008238D02*
X013248Y008238D01*
X013177Y008120D02*
X014349Y008120D01*
X014483Y008001D02*
X013042Y008001D01*
X012514Y008001D02*
X012187Y008001D01*
X012281Y008120D02*
X012380Y008120D01*
X011236Y009068D02*
X016535Y009068D01*
X016535Y009186D02*
X011236Y009186D01*
X011236Y009305D02*
X016535Y009305D01*
X016535Y009423D02*
X011236Y009423D01*
X011236Y009542D02*
X016535Y009542D01*
X016535Y009660D02*
X011236Y009660D01*
X010876Y009660D02*
X008876Y009660D01*
X009172Y009542D02*
X010876Y009542D01*
X010876Y009423D02*
X009338Y009423D01*
X009456Y009305D02*
X010876Y009305D01*
X010876Y009186D02*
X009534Y009186D01*
X009602Y009068D02*
X010876Y009068D01*
X010876Y008949D02*
X009640Y008949D01*
X009672Y008831D02*
X010876Y008831D01*
X010876Y008712D02*
X009685Y008712D01*
X009685Y008594D02*
X010876Y008594D01*
X010860Y008475D02*
X009677Y008475D01*
X009645Y008357D02*
X010778Y008357D01*
X010759Y008238D02*
X009612Y008238D01*
X009543Y008120D02*
X010789Y008120D01*
X010886Y008001D02*
X009473Y008001D01*
X007649Y008949D02*
X001411Y008949D01*
X001455Y008831D02*
X007617Y008831D01*
X007687Y009068D02*
X001367Y009068D01*
X001323Y009186D02*
X007755Y009186D01*
X007833Y009305D02*
X001278Y009305D01*
X001250Y009423D02*
X007951Y009423D01*
X008117Y009542D02*
X001250Y009542D01*
X001250Y009660D02*
X005716Y009660D01*
X005610Y009704D02*
X005918Y009576D01*
X006253Y009576D01*
X006561Y009704D01*
X006798Y009940D01*
X006925Y010249D01*
X006925Y010583D01*
X006798Y010892D01*
X006561Y011128D01*
X006253Y011256D01*
X005918Y011256D01*
X005610Y011128D01*
X005373Y010892D01*
X005246Y010583D01*
X005246Y010249D01*
X005373Y009940D01*
X005610Y009704D01*
X005535Y009779D02*
X001250Y009779D01*
X001250Y009897D02*
X005417Y009897D01*
X005342Y010016D02*
X001250Y010016D01*
X001250Y010134D02*
X005293Y010134D01*
X005246Y010253D02*
X001250Y010253D01*
X001250Y010371D02*
X005246Y010371D01*
X005246Y010490D02*
X001250Y010490D01*
X001250Y010608D02*
X005256Y010608D01*
X005305Y010727D02*
X001250Y010727D01*
X001250Y010845D02*
X005354Y010845D01*
X005445Y010964D02*
X001250Y010964D01*
X001250Y011082D02*
X005563Y011082D01*
X005784Y011201D02*
X001250Y011201D01*
X001250Y011319D02*
X008151Y011319D01*
X008151Y011343D02*
X008151Y010965D01*
X008296Y010616D01*
X008563Y010349D01*
X008912Y010204D01*
X009290Y010204D01*
X009639Y010349D01*
X009906Y010616D01*
X010051Y010965D01*
X010051Y011343D01*
X009906Y011692D01*
X009639Y011960D01*
X009290Y012104D01*
X008912Y012104D01*
X008563Y011960D01*
X008296Y011692D01*
X008151Y011343D01*
X008190Y011438D02*
X001250Y011438D01*
X001250Y011556D02*
X008239Y011556D01*
X008288Y011675D02*
X001250Y011675D01*
X001250Y011793D02*
X008396Y011793D01*
X008515Y011912D02*
X003790Y011912D01*
X003780Y011911D02*
X004338Y011949D01*
X004865Y012136D01*
X005322Y012459D01*
X005675Y012893D01*
X005898Y013405D01*
X005974Y013960D01*
X005898Y014514D01*
X005675Y015026D01*
X005322Y015460D01*
X004865Y015783D01*
X004338Y015970D01*
X004338Y015970D01*
X003780Y016008D01*
X003232Y015894D01*
X002736Y015637D01*
X002327Y015255D01*
X002037Y014778D01*
X002037Y014778D01*
X001886Y014239D01*
X001886Y013680D01*
X002037Y013141D01*
X002327Y012664D01*
X002327Y012664D01*
X002736Y012282D01*
X003232Y012025D01*
X003780Y011911D01*
X003780Y011911D01*
X003777Y011912D02*
X001250Y011912D01*
X001250Y012030D02*
X003222Y012030D01*
X003232Y012025D02*
X003232Y012025D01*
X002993Y012149D02*
X001250Y012149D01*
X001250Y012267D02*
X002765Y012267D01*
X002736Y012282D02*
X002736Y012282D01*
X002625Y012386D02*
X001250Y012386D01*
X001250Y012504D02*
X002498Y012504D01*
X002371Y012623D02*
X001250Y012623D01*
X001250Y012741D02*
X002280Y012741D01*
X002208Y012860D02*
X001250Y012860D01*
X001250Y012978D02*
X002136Y012978D01*
X002064Y013097D02*
X001250Y013097D01*
X001250Y013215D02*
X002016Y013215D01*
X002037Y013141D02*
X002037Y013141D01*
X001983Y013334D02*
X001250Y013334D01*
X001250Y013452D02*
X001950Y013452D01*
X001916Y013571D02*
X001250Y013571D01*
X001250Y013689D02*
X001886Y013689D01*
X001886Y013808D02*
X001250Y013808D01*
X001250Y013926D02*
X001886Y013926D01*
X001886Y014045D02*
X001250Y014045D01*
X001250Y014163D02*
X001886Y014163D01*
X001898Y014282D02*
X001250Y014282D01*
X001250Y014400D02*
X001931Y014400D01*
X001964Y014519D02*
X001250Y014519D01*
X001250Y014637D02*
X001997Y014637D01*
X002030Y014756D02*
X001250Y014756D01*
X001250Y014874D02*
X002095Y014874D01*
X002167Y014993D02*
X001250Y014993D01*
X001250Y015111D02*
X002239Y015111D01*
X002311Y015230D02*
X001250Y015230D01*
X001250Y015348D02*
X002426Y015348D01*
X002327Y015255D02*
X002327Y015255D01*
X002553Y015467D02*
X001250Y015467D01*
X001250Y015585D02*
X002680Y015585D01*
X002736Y015637D02*
X002736Y015637D01*
X002864Y015704D02*
X001250Y015704D01*
X001250Y015822D02*
X003093Y015822D01*
X003232Y015894D02*
X003232Y015894D01*
X003454Y015941D02*
X001250Y015941D01*
X001250Y016059D02*
X009794Y016059D01*
X009745Y015941D02*
X004421Y015941D01*
X004755Y015822D02*
X009697Y015822D01*
X009648Y015704D02*
X004977Y015704D01*
X005145Y015585D02*
X009600Y015585D01*
X009551Y015467D02*
X005313Y015467D01*
X005322Y015460D02*
X005322Y015460D01*
X005413Y015348D02*
X009502Y015348D01*
X009482Y015299D02*
X009482Y015299D01*
X009468Y015230D02*
X005510Y015230D01*
X005606Y015111D02*
X009443Y015111D01*
X009418Y014993D02*
X005689Y014993D01*
X005741Y014874D02*
X009393Y014874D01*
X009368Y014756D02*
X005792Y014756D01*
X005844Y014637D02*
X009343Y014637D01*
X009318Y014519D02*
X005895Y014519D01*
X005898Y014514D02*
X005898Y014514D01*
X005913Y014400D02*
X009310Y014400D01*
X009313Y014494D02*
X009313Y014494D01*
X009307Y014282D02*
X005929Y014282D01*
X005946Y014163D02*
X009304Y014163D01*
X009301Y014045D02*
X005962Y014045D01*
X005969Y013926D02*
X009297Y013926D01*
X009294Y013808D02*
X005953Y013808D01*
X005936Y013689D02*
X009291Y013689D01*
X009306Y013571D02*
X005920Y013571D01*
X005904Y013452D02*
X009325Y013452D01*
X009343Y013334D02*
X005866Y013334D01*
X005898Y013405D02*
X005898Y013405D01*
X005815Y013215D02*
X009362Y013215D01*
X009380Y013097D02*
X005763Y013097D01*
X005712Y012978D02*
X009399Y012978D01*
X009417Y012860D02*
X005648Y012860D01*
X005675Y012893D02*
X005675Y012893D01*
X005551Y012741D02*
X009458Y012741D01*
X009417Y012859D02*
X009417Y012859D01*
X009500Y012623D02*
X005455Y012623D01*
X005359Y012504D02*
X009541Y012504D01*
X009583Y012386D02*
X005218Y012386D01*
X005322Y012459D02*
X005322Y012459D01*
X005322Y012459D01*
X005050Y012267D02*
X009624Y012267D01*
X009665Y012149D02*
X004882Y012149D01*
X004865Y012136D02*
X004865Y012136D01*
X004566Y012030D02*
X008733Y012030D01*
X009469Y012030D02*
X009718Y012030D01*
X009689Y012082D02*
X009689Y012082D01*
X009687Y011912D02*
X009785Y011912D01*
X009806Y011793D02*
X009853Y011793D01*
X009914Y011675D02*
X009920Y011675D01*
X009963Y011556D02*
X009988Y011556D01*
X010012Y011438D02*
X010055Y011438D01*
X010095Y011367D02*
X010095Y011367D01*
X010135Y011319D02*
X010051Y011319D01*
X010051Y011201D02*
X010235Y011201D01*
X010334Y011082D02*
X010051Y011082D01*
X010050Y010964D02*
X010434Y010964D01*
X010533Y010845D02*
X010001Y010845D01*
X009952Y010727D02*
X010636Y010727D01*
X010624Y010737D02*
X010624Y010737D01*
X010780Y010608D02*
X009898Y010608D01*
X009779Y010490D02*
X010876Y010490D01*
X010876Y010371D02*
X009661Y010371D01*
X009406Y010253D02*
X010876Y010253D01*
X010876Y010134D02*
X006878Y010134D01*
X006925Y010253D02*
X008796Y010253D01*
X008541Y010371D02*
X006925Y010371D01*
X006925Y010490D02*
X008422Y010490D01*
X008304Y010608D02*
X006915Y010608D01*
X006866Y010727D02*
X008250Y010727D01*
X008201Y010845D02*
X006817Y010845D01*
X006726Y010964D02*
X008152Y010964D01*
X008151Y011082D02*
X006608Y011082D01*
X006387Y011201D02*
X008151Y011201D01*
X006829Y010016D02*
X010876Y010016D01*
X010876Y009897D02*
X006754Y009897D01*
X006636Y009779D02*
X010876Y009779D01*
X008413Y009660D02*
X006455Y009660D01*
X004338Y011949D02*
X004338Y011949D01*
X002911Y008712D02*
X001507Y008712D01*
X001562Y008594D02*
X002900Y008594D01*
X002900Y008475D02*
X001616Y008475D01*
X001671Y008357D02*
X002900Y008357D01*
X002900Y008238D02*
X001726Y008238D01*
X001780Y008120D02*
X002900Y008120D01*
X002900Y008001D02*
X001835Y008001D01*
X001890Y007883D02*
X002900Y007883D01*
X002900Y007764D02*
X001945Y007764D01*
X001999Y007646D02*
X002900Y007646D01*
X002900Y007527D02*
X002062Y007527D01*
X002132Y007409D02*
X002900Y007409D01*
X002900Y007290D02*
X002202Y007290D01*
X002272Y007172D02*
X002900Y007172D01*
X002900Y007053D02*
X002342Y007053D01*
X002412Y006935D02*
X002900Y006935D01*
X002900Y006816D02*
X002482Y006816D01*
X002552Y006698D02*
X002900Y006698D01*
X002900Y006579D02*
X002622Y006579D01*
X002692Y006461D02*
X002900Y006461D01*
X002900Y006342D02*
X002776Y006342D01*
X002863Y006224D02*
X002900Y006224D01*
X006901Y002432D02*
X021018Y002432D01*
X020817Y002313D02*
X007102Y002313D01*
X007302Y002195D02*
X020617Y002195D01*
X020416Y002076D02*
X007503Y002076D01*
X007736Y001958D02*
X020183Y001958D01*
X019926Y001839D02*
X007993Y001839D01*
X008249Y001721D02*
X019670Y001721D01*
X019413Y001602D02*
X008506Y001602D01*
X008763Y001484D02*
X019156Y001484D01*
X018847Y001365D02*
X009072Y001365D01*
X014751Y009779D02*
X016535Y009779D01*
X016535Y009897D02*
X015219Y009897D01*
X015562Y010016D02*
X016535Y010016D01*
X016535Y010134D02*
X015836Y010134D01*
X016041Y010253D02*
X016535Y010253D01*
X016535Y010371D02*
X016246Y010371D01*
X016437Y010481D02*
X016437Y010481D01*
X016447Y010490D02*
X016545Y010490D01*
X011056Y010613D02*
X010956Y010698D01*
X010859Y010786D01*
X010764Y010877D01*
X010672Y010971D01*
X010584Y011068D01*
X010498Y011167D01*
X010415Y011269D01*
X010335Y011373D01*
X010258Y011480D01*
X010185Y011589D01*
X010115Y011700D01*
X010048Y011813D01*
X009985Y011928D01*
X009925Y012045D01*
X009869Y012164D01*
X009817Y012284D01*
X009768Y012406D01*
X009723Y012529D01*
X009681Y012654D01*
X009644Y012780D01*
X009610Y012907D01*
X009580Y013034D01*
X009554Y013163D01*
X009532Y013293D01*
X009514Y013423D01*
X009499Y013553D01*
X009489Y013684D01*
X009482Y013815D01*
X009480Y013946D01*
X009482Y014078D01*
X009487Y014209D01*
X009496Y014340D01*
X009510Y014471D01*
X009527Y014601D01*
X009548Y014730D01*
X009574Y014859D01*
X009603Y014987D01*
X009636Y015114D01*
X009672Y015240D01*
X009713Y015365D01*
X009757Y015489D01*
X009805Y015611D01*
X009857Y015732D01*
X009912Y015851D01*
X009971Y015968D01*
X010033Y016084D01*
X010099Y016198D01*
X010168Y016309D01*
X010241Y016419D01*
X010317Y016526D01*
X010396Y016631D01*
X010478Y016733D01*
X010563Y016833D01*
X010651Y016930D01*
X010742Y017025D01*
X010836Y017117D01*
X010933Y017205D01*
X011032Y017291D01*
X011134Y017374D01*
X011238Y017454D01*
X011345Y017531D01*
X011454Y017604D01*
X011565Y017674D01*
X011678Y017741D01*
X011793Y017804D01*
X011910Y017864D01*
X012029Y017920D01*
X012149Y017972D01*
X012271Y018021D01*
X012394Y018066D01*
X012519Y018108D01*
X012645Y018145D01*
X012772Y018179D01*
X012899Y018209D01*
X013028Y018235D01*
X013158Y018257D01*
X013288Y018275D01*
X013418Y018290D01*
X013900Y018290D01*
X013918Y018297D02*
X014944Y019324D01*
X014944Y020692D01*
X014667Y020799D02*
X012877Y020799D01*
X013000Y020681D02*
X014647Y020681D01*
X014676Y020562D02*
X013036Y020562D01*
X013023Y020444D02*
X014764Y020444D01*
X014764Y020325D02*
X012950Y020325D01*
X012528Y020325D02*
X008020Y020325D01*
X008020Y020207D02*
X008178Y020207D01*
X008020Y020444D02*
X011960Y020444D01*
X011841Y020562D02*
X008020Y020562D01*
X008212Y020681D02*
X011723Y020681D01*
X011604Y020799D02*
X008353Y020799D01*
X008448Y020918D02*
X011486Y020918D01*
X011566Y020837D02*
X011566Y020837D01*
X011467Y021036D02*
X008497Y021036D01*
X008530Y021155D02*
X011467Y021155D01*
X011467Y021273D02*
X008530Y021273D01*
X008521Y021392D02*
X011467Y021392D01*
X011467Y021510D02*
X008472Y021510D01*
X008411Y021629D02*
X011467Y021629D01*
X011467Y021747D02*
X008293Y021747D01*
X008067Y021866D02*
X011467Y021866D01*
X011467Y021984D02*
X008020Y021984D01*
X008020Y022103D02*
X011467Y022103D01*
X011467Y022221D02*
X008020Y022221D01*
X008020Y022340D02*
X011467Y022340D01*
X011467Y022458D02*
X008020Y022458D01*
X008020Y022577D02*
X011467Y022577D01*
X011467Y022695D02*
X008020Y022695D01*
X008020Y022814D02*
X011467Y022814D01*
X011467Y022932D02*
X008020Y022932D01*
X008020Y023051D02*
X011467Y023051D01*
X011399Y023169D02*
X008020Y023169D01*
X008000Y023288D02*
X010550Y023288D01*
X010482Y023406D02*
X004266Y023406D01*
X004373Y023525D02*
X010473Y023525D01*
X010514Y023643D02*
X004502Y023643D01*
X004633Y023762D02*
X010616Y023762D01*
X010543Y023880D02*
X004764Y023880D01*
X004895Y023999D02*
X010534Y023999D01*
X010584Y024117D02*
X005026Y024117D01*
X005431Y024473D02*
X015177Y024473D01*
X015416Y024231D02*
X015416Y024231D01*
X015421Y024236D02*
X015524Y024236D01*
X015409Y024117D02*
X015669Y024117D01*
X015667Y023999D02*
X015409Y023999D01*
X015409Y023883D02*
X015409Y023883D01*
X015409Y023880D02*
X015487Y023880D01*
X015434Y023762D02*
X015409Y023762D01*
X015435Y023643D02*
X015320Y023643D01*
X015202Y023525D02*
X015490Y023525D01*
X015660Y023406D02*
X015083Y023406D01*
X014965Y023288D02*
X015660Y023288D01*
X015660Y023169D02*
X014974Y023169D01*
X015092Y023051D02*
X015660Y023051D01*
X015660Y022932D02*
X015095Y022932D01*
X015095Y022872D02*
X015095Y022872D01*
X015095Y022814D02*
X015660Y022814D01*
X015660Y022695D02*
X015095Y022695D01*
X015095Y022577D02*
X015660Y022577D01*
X015660Y022458D02*
X015095Y022458D01*
X015095Y022340D02*
X015660Y022340D01*
X015660Y022221D02*
X015095Y022221D01*
X015095Y022103D02*
X015763Y022103D01*
X015882Y021984D02*
X015095Y021984D01*
X015095Y021866D02*
X016558Y021866D01*
X016971Y021866D02*
X017038Y021866D01*
X017038Y021747D02*
X015095Y021747D01*
X015095Y021629D02*
X017038Y021629D01*
X016939Y021510D02*
X015666Y021510D01*
X015794Y021392D02*
X016820Y021392D01*
X016702Y021273D02*
X015831Y021273D01*
X015819Y021155D02*
X016583Y021155D01*
X016465Y021036D02*
X015748Y021036D01*
X015321Y021036D02*
X011848Y021036D01*
X011807Y021155D02*
X012297Y021155D01*
X012472Y021155D02*
X014799Y021155D01*
X014876Y021077D02*
X014876Y021077D01*
X014749Y020918D02*
X011966Y020918D01*
X012085Y020799D02*
X012602Y020799D01*
X012132Y021273D02*
X011807Y021273D01*
X011807Y021392D02*
X012088Y021392D01*
X012092Y021510D02*
X011807Y021510D01*
X011807Y021629D02*
X012153Y021629D01*
X012385Y021440D02*
X013024Y021440D01*
X013165Y021580D01*
X013172Y021598D02*
X013172Y023802D01*
X013022Y023952D01*
X013004Y023960D02*
X012975Y023960D01*
X013004Y023960D02*
X013010Y023959D01*
X013017Y023957D01*
X013022Y023953D01*
X013272Y023999D02*
X015069Y023999D01*
X015069Y024117D02*
X013232Y024117D01*
X013349Y023880D02*
X015069Y023880D01*
X015062Y023865D02*
X015062Y023865D01*
X014958Y023762D02*
X013352Y023762D01*
X013352Y023643D02*
X014840Y023643D01*
X014721Y023525D02*
X013352Y023525D01*
X013352Y023406D02*
X014423Y023406D01*
X014358Y023288D02*
X013352Y023288D01*
X013352Y023169D02*
X014351Y023169D01*
X014394Y023051D02*
X013352Y023051D01*
X013352Y022932D02*
X014547Y022932D01*
X014695Y022814D02*
X013352Y022814D01*
X013352Y022695D02*
X014695Y022695D01*
X014695Y022577D02*
X013352Y022577D01*
X013352Y022458D02*
X014695Y022458D01*
X014695Y022340D02*
X013352Y022340D01*
X013352Y022221D02*
X014695Y022221D01*
X014695Y022103D02*
X013352Y022103D01*
X013352Y021984D02*
X014695Y021984D01*
X014695Y021866D02*
X013352Y021866D01*
X013352Y021747D02*
X014695Y021747D01*
X014695Y021629D02*
X013352Y021629D01*
X013352Y021672D02*
X013352Y021672D01*
X013349Y021510D02*
X014695Y021510D01*
X014695Y021392D02*
X013231Y021392D01*
X013112Y021273D02*
X014695Y021273D01*
X015086Y021043D02*
X015086Y021043D01*
X015138Y020918D02*
X016346Y020918D01*
X016590Y020681D02*
X019707Y020681D01*
X019566Y020799D02*
X016709Y020799D01*
X016827Y020918D02*
X019471Y020918D01*
X019422Y021036D02*
X016946Y021036D01*
X017064Y021155D02*
X019390Y021155D01*
X019390Y021273D02*
X017183Y021273D01*
X017301Y021392D02*
X019398Y021392D01*
X019447Y021510D02*
X017378Y021510D01*
X017378Y021629D02*
X019508Y021629D01*
X019626Y021747D02*
X017378Y021747D01*
X017378Y021866D02*
X019852Y021866D01*
X019900Y021984D02*
X017378Y021984D01*
X017378Y022103D02*
X019900Y022103D01*
X019900Y022221D02*
X017917Y022221D01*
X017986Y022340D02*
X019900Y022340D01*
X019900Y022458D02*
X017997Y022458D01*
X017958Y022577D02*
X019900Y022577D01*
X019900Y022695D02*
X017870Y022695D01*
X017870Y022814D02*
X019900Y022814D01*
X019900Y022932D02*
X017870Y022932D01*
X017870Y023051D02*
X019900Y023051D01*
X019900Y023169D02*
X019652Y023169D01*
X019743Y023288D02*
X019919Y023288D01*
X019769Y023406D02*
X023653Y023406D01*
X023546Y023525D02*
X019745Y023525D01*
X019657Y023643D02*
X023417Y023643D01*
X023286Y023762D02*
X019457Y023762D01*
X019338Y023880D02*
X023155Y023880D01*
X023024Y023999D02*
X019220Y023999D01*
X019191Y024117D02*
X022893Y024117D01*
X022762Y024236D02*
X019142Y024236D01*
X019055Y024354D02*
X022631Y024354D01*
X022488Y024473D02*
X018883Y024473D01*
X019018Y024591D02*
X022327Y024591D01*
X022166Y024710D02*
X019637Y024710D01*
X019778Y024828D02*
X022005Y024828D01*
X021844Y024947D02*
X019818Y024947D01*
X019808Y025065D02*
X021683Y025065D01*
X021522Y025184D02*
X019740Y025184D01*
X019301Y025184D02*
X019157Y025184D01*
X019092Y025302D02*
X021332Y025302D01*
X021132Y025421D02*
X018970Y025421D01*
X018982Y025539D02*
X020931Y025539D01*
X020730Y025658D02*
X019101Y025658D01*
X019161Y025776D02*
X020529Y025776D01*
X020328Y025895D02*
X019198Y025895D01*
X019198Y026013D02*
X020072Y026013D01*
X019815Y026132D02*
X019172Y026132D01*
X019123Y026250D02*
X019558Y026250D01*
X019301Y026369D02*
X019009Y026369D01*
X019026Y026487D02*
X017224Y026487D01*
X017105Y026606D02*
X018708Y026606D01*
X018359Y026369D02*
X017828Y026369D01*
X017942Y026250D02*
X018245Y026250D01*
X018196Y026132D02*
X017991Y026132D01*
X018017Y026013D02*
X018170Y026013D01*
X018170Y025895D02*
X018017Y025895D01*
X017980Y025776D02*
X018207Y025776D01*
X017954Y025658D02*
X017919Y025658D01*
X017868Y025539D02*
X017801Y025539D01*
X017845Y025421D02*
X015769Y025421D01*
X015754Y025302D02*
X017872Y025302D01*
X017832Y025184D02*
X017965Y025184D01*
X017943Y025065D02*
X018170Y025065D01*
X018170Y024947D02*
X017992Y024947D01*
X018017Y024828D02*
X018192Y024828D01*
X018241Y024710D02*
X018017Y024710D01*
X017978Y024591D02*
X018150Y024591D01*
X018031Y024473D02*
X017916Y024473D01*
X017923Y024354D02*
X017797Y024354D01*
X017923Y024236D02*
X017193Y024236D01*
X017102Y024117D02*
X017074Y024117D01*
X017025Y023999D02*
X016955Y023999D01*
X017009Y023880D02*
X016837Y023880D01*
X016719Y023762D02*
X017042Y023762D01*
X017136Y023643D02*
X016590Y023643D01*
X016346Y023880D02*
X015975Y023880D01*
X015796Y023999D02*
X016464Y023999D01*
X016536Y024070D02*
X016536Y024070D01*
X016536Y024070D01*
X016593Y024117D02*
X015892Y024117D01*
X016159Y024236D02*
X016712Y024236D01*
X016616Y024354D02*
X016830Y024354D01*
X016734Y024473D02*
X016949Y024473D01*
X017028Y024591D02*
X016797Y024591D01*
X016835Y024710D02*
X016989Y024710D01*
X016989Y024828D02*
X016835Y024828D01*
X016811Y024947D02*
X017013Y024947D01*
X017062Y025065D02*
X016762Y025065D01*
X016651Y025184D02*
X017174Y025184D01*
X017205Y025539D02*
X016620Y025539D01*
X016738Y025658D02*
X017086Y025658D01*
X017026Y025776D02*
X016798Y025776D01*
X016835Y025895D02*
X016989Y025895D01*
X016989Y026013D02*
X016835Y026013D01*
X016810Y026132D02*
X017015Y026132D01*
X016980Y026250D02*
X016761Y026250D01*
X016861Y026369D02*
X016647Y026369D01*
X016024Y025539D02*
X015888Y025539D01*
X015993Y025184D02*
X015754Y025184D01*
X015754Y025065D02*
X015881Y025065D01*
X015832Y024947D02*
X015754Y024947D01*
X015754Y024828D02*
X015808Y024828D01*
X015808Y024710D02*
X015754Y024710D01*
X014532Y024591D02*
X014170Y024591D01*
X014162Y024584D02*
X014450Y024871D01*
X014450Y025277D01*
X014162Y025564D01*
X013757Y025564D01*
X013470Y025277D01*
X013470Y024871D01*
X013757Y024584D01*
X014162Y024584D01*
X014288Y024710D02*
X014470Y024710D01*
X014470Y024828D02*
X014407Y024828D01*
X014450Y024947D02*
X014470Y024947D01*
X014470Y025065D02*
X014450Y025065D01*
X014450Y025184D02*
X014470Y025184D01*
X014470Y025302D02*
X014424Y025302D01*
X014470Y025421D02*
X014306Y025421D01*
X014187Y025539D02*
X014515Y025539D01*
X014683Y025658D02*
X014236Y025658D01*
X014355Y025776D02*
X014564Y025776D01*
X014470Y025895D02*
X014450Y025895D01*
X014450Y026013D02*
X014470Y026013D01*
X014470Y026132D02*
X014450Y026132D01*
X014450Y026250D02*
X014470Y026250D01*
X014561Y026369D02*
X014358Y026369D01*
X013964Y026606D02*
X009211Y026606D01*
X008893Y026487D02*
X012623Y026487D01*
X012505Y026369D02*
X008618Y026369D01*
X008361Y026250D02*
X012430Y026250D01*
X012430Y026132D02*
X008104Y026132D01*
X007848Y026013D02*
X012430Y026013D01*
X012430Y025895D02*
X007591Y025895D01*
X007390Y025776D02*
X012508Y025776D01*
X012626Y025658D02*
X007189Y025658D01*
X006988Y025539D02*
X012732Y025539D01*
X012613Y025421D02*
X006788Y025421D01*
X006587Y025302D02*
X012495Y025302D01*
X012470Y025184D02*
X006397Y025184D01*
X006236Y025065D02*
X012470Y025065D01*
X012470Y024947D02*
X006075Y024947D01*
X005914Y024828D02*
X012512Y024828D01*
X012631Y024710D02*
X005753Y024710D01*
X005592Y024591D02*
X012749Y024591D01*
X013170Y024591D02*
X013749Y024591D01*
X013631Y024710D02*
X013288Y024710D01*
X013407Y024828D02*
X013512Y024828D01*
X013470Y024947D02*
X013450Y024947D01*
X013450Y025065D02*
X013470Y025065D01*
X013470Y025184D02*
X013450Y025184D01*
X013424Y025302D02*
X013495Y025302D01*
X013613Y025421D02*
X013306Y025421D01*
X013187Y025539D02*
X013732Y025539D01*
X013683Y025658D02*
X013293Y025658D01*
X013411Y025776D02*
X013564Y025776D01*
X013000Y026132D02*
X012920Y026132D01*
X012920Y026250D02*
X013000Y026250D01*
X013000Y026369D02*
X012920Y026369D01*
X012920Y026487D02*
X013000Y026487D01*
X013296Y026487D02*
X013680Y026487D01*
X013561Y026369D02*
X013414Y026369D01*
X012992Y023643D02*
X011406Y023643D01*
X011525Y023525D02*
X012992Y023525D01*
X012992Y023406D02*
X011643Y023406D01*
X011762Y023288D02*
X012992Y023288D01*
X012992Y023169D02*
X011807Y023169D01*
X011807Y023051D02*
X012992Y023051D01*
X012992Y022932D02*
X011807Y022932D01*
X011807Y022814D02*
X012992Y022814D01*
X012992Y022695D02*
X011807Y022695D01*
X011807Y022577D02*
X012992Y022577D01*
X012992Y022458D02*
X011807Y022458D01*
X011807Y022340D02*
X012992Y022340D01*
X012992Y022221D02*
X011807Y022221D01*
X011807Y022103D02*
X012992Y022103D01*
X012992Y021984D02*
X011807Y021984D01*
X011807Y021866D02*
X012992Y021866D01*
X012992Y021747D02*
X011807Y021747D01*
X012616Y021629D02*
X012959Y021629D01*
X013166Y021580D02*
X013171Y021588D01*
X013173Y021598D01*
X015095Y021510D02*
X015403Y021510D01*
X016007Y022340D02*
X016616Y022340D01*
X016914Y022340D02*
X017038Y022340D01*
X017038Y022458D02*
X016000Y022458D01*
X016000Y022577D02*
X017038Y022577D01*
X017038Y022695D02*
X016741Y022695D01*
X016493Y022695D02*
X016000Y022695D01*
X016000Y022814D02*
X016358Y022814D01*
X016320Y022932D02*
X016000Y022932D01*
X016000Y023051D02*
X016331Y023051D01*
X016400Y023169D02*
X016000Y023169D01*
X016000Y023288D02*
X017136Y023288D01*
X017129Y023176D02*
X017129Y023176D01*
X017122Y023169D02*
X016834Y023169D01*
X017136Y023406D02*
X016000Y023406D01*
X016000Y023525D02*
X017136Y023525D01*
X017476Y023525D02*
X017530Y023525D01*
X017530Y023643D02*
X017476Y023643D01*
X017476Y023406D02*
X017530Y023406D01*
X017530Y023288D02*
X017476Y023288D01*
X017476Y023194D02*
X017476Y023194D01*
X017476Y023169D02*
X017530Y023169D01*
X017530Y023051D02*
X017476Y023051D01*
X017476Y023053D02*
X017476Y023053D01*
X017530Y022932D02*
X017378Y022932D01*
X017378Y022814D02*
X017530Y022814D01*
X017530Y022695D02*
X017378Y022695D01*
X017378Y022577D02*
X017441Y022577D01*
X017403Y022458D02*
X017378Y022458D01*
X017378Y022340D02*
X017413Y022340D01*
X017378Y022221D02*
X017482Y022221D01*
X017038Y022221D02*
X017028Y022221D01*
X017870Y023169D02*
X019290Y023169D01*
X019200Y023288D02*
X017870Y023288D01*
X017870Y023406D02*
X019174Y023406D01*
X019198Y023525D02*
X018881Y023525D01*
X019055Y023643D02*
X019095Y023643D01*
X018487Y023525D02*
X017870Y023525D01*
X017880Y023643D02*
X018313Y023643D01*
X018226Y023762D02*
X017998Y023762D01*
X018117Y023880D02*
X018177Y023880D01*
X017873Y024117D02*
X017510Y024117D01*
X017587Y023999D02*
X017754Y023999D01*
X017636Y023880D02*
X017603Y023880D01*
X019127Y024710D02*
X019405Y024710D01*
X016000Y023525D02*
X016000Y023525D01*
X016472Y020562D02*
X019900Y020562D01*
X019900Y020444D02*
X015124Y020444D01*
X015124Y020325D02*
X019900Y020325D01*
X019900Y020207D02*
X019742Y020207D01*
X018807Y020207D02*
X015124Y020207D01*
X015124Y020088D02*
X018616Y020088D01*
X018498Y019970D02*
X015124Y019970D01*
X015124Y019851D02*
X018406Y019851D01*
X018337Y019733D02*
X015124Y019733D01*
X015124Y019614D02*
X018288Y019614D01*
X018256Y019496D02*
X015124Y019496D01*
X015124Y019377D02*
X018234Y019377D01*
X018234Y019259D02*
X015124Y019259D01*
X015015Y019140D02*
X018234Y019140D01*
X018265Y019022D02*
X014896Y019022D01*
X014778Y018903D02*
X018297Y018903D01*
X018356Y018785D02*
X014659Y018785D01*
X014541Y018666D02*
X018424Y018666D01*
X018530Y018548D02*
X014422Y018548D01*
X014304Y018429D02*
X018657Y018429D01*
X018863Y018311D02*
X014185Y018311D01*
X014393Y018192D02*
X026669Y018192D01*
X026669Y018074D02*
X015070Y018074D01*
X014966Y018110D02*
X014966Y018110D01*
X014269Y018903D02*
X009622Y018903D01*
X009654Y019022D02*
X014387Y019022D01*
X014506Y019140D02*
X009685Y019140D01*
X009685Y019259D02*
X014624Y019259D01*
X014743Y019377D02*
X009685Y019377D01*
X009663Y019496D02*
X014764Y019496D01*
X014764Y019614D02*
X009631Y019614D01*
X009582Y019733D02*
X014764Y019733D01*
X014764Y019851D02*
X009513Y019851D01*
X009421Y019970D02*
X014764Y019970D01*
X014764Y020088D02*
X009303Y020088D01*
X009112Y020207D02*
X014764Y020207D01*
X014150Y018785D02*
X009563Y018785D01*
X009495Y018666D02*
X014032Y018666D01*
X013913Y018548D02*
X009389Y018548D01*
X009262Y018429D02*
X012986Y018429D01*
X012566Y018311D02*
X009056Y018311D01*
X008233Y018311D02*
X001250Y018311D01*
X001250Y018429D02*
X008028Y018429D01*
X007900Y018548D02*
X001254Y018548D01*
X001298Y018666D02*
X007794Y018666D01*
X007726Y018785D02*
X001342Y018785D01*
X001386Y018903D02*
X007667Y018903D01*
X007635Y019022D02*
X001430Y019022D01*
X001476Y019140D02*
X007604Y019140D01*
X004866Y017952D02*
X004827Y018029D01*
X004776Y018100D01*
X004714Y018161D01*
X004643Y018213D01*
X004566Y018252D01*
X004483Y018279D01*
X004413Y018290D01*
X004413Y017799D01*
X004293Y017799D01*
X004293Y017679D01*
X003802Y017679D01*
X003813Y017609D01*
X003840Y017527D01*
X003880Y017449D01*
X003931Y017378D01*
X003993Y017317D01*
X004063Y017265D01*
X004141Y017226D01*
X004224Y017199D01*
X004293Y017188D01*
X004293Y017679D01*
X004413Y017679D01*
X004413Y017188D01*
X004483Y017199D01*
X004566Y017226D01*
X004643Y017265D01*
X004714Y017317D01*
X004776Y017378D01*
X004827Y017449D01*
X004866Y017527D01*
X004893Y017609D01*
X004904Y017679D01*
X004413Y017679D01*
X004413Y017799D01*
X004904Y017799D01*
X004893Y017869D01*
X004866Y017952D01*
X004865Y017955D02*
X011687Y017955D01*
X011461Y017844D02*
X011461Y017844D01*
X011451Y017837D02*
X004898Y017837D01*
X004890Y017600D02*
X011132Y017600D01*
X011291Y017718D02*
X004413Y017718D01*
X004413Y017600D02*
X004293Y017600D01*
X004293Y017718D02*
X001250Y017718D01*
X001250Y017600D02*
X003816Y017600D01*
X003863Y017481D02*
X001250Y017481D01*
X001250Y017363D02*
X003947Y017363D01*
X004105Y017244D02*
X001250Y017244D01*
X001250Y017126D02*
X010587Y017126D01*
X010698Y017244D02*
X004601Y017244D01*
X004413Y017244D02*
X004293Y017244D01*
X004293Y017363D02*
X004413Y017363D01*
X004413Y017481D02*
X004293Y017481D01*
X004293Y017799D02*
X003802Y017799D01*
X003813Y017869D01*
X003840Y017952D01*
X003880Y018029D01*
X003931Y018100D01*
X003993Y018161D01*
X004063Y018213D01*
X004141Y018252D01*
X004224Y018279D01*
X004293Y018290D01*
X004293Y017799D01*
X004293Y017837D02*
X004413Y017837D01*
X004413Y017955D02*
X004293Y017955D01*
X004293Y018074D02*
X004413Y018074D01*
X004413Y018192D02*
X004293Y018192D01*
X004035Y018192D02*
X001250Y018192D01*
X001250Y018074D02*
X003912Y018074D01*
X003842Y017955D02*
X001250Y017955D01*
X001250Y017837D02*
X003808Y017837D01*
X004672Y018192D02*
X012170Y018192D01*
X011928Y018074D02*
X004795Y018074D01*
X004843Y017481D02*
X010972Y017481D01*
X010812Y017363D02*
X004760Y017363D01*
X003780Y016008D02*
X003780Y016008D01*
X001250Y016178D02*
X009870Y016178D01*
X009946Y016296D02*
X001250Y016296D01*
X001250Y016415D02*
X010022Y016415D01*
X010098Y016533D02*
X001250Y016533D01*
X001250Y016652D02*
X010174Y016652D01*
X010239Y016753D02*
X010239Y016753D01*
X010255Y016770D02*
X001250Y016770D01*
X001250Y016889D02*
X010365Y016889D01*
X010476Y017007D02*
X001250Y017007D01*
X001531Y019259D02*
X002900Y019259D01*
X002900Y019377D02*
X001585Y019377D01*
X001640Y019496D02*
X002900Y019496D01*
X002900Y019614D02*
X001695Y019614D01*
X001750Y019733D02*
X002900Y019733D01*
X002900Y019851D02*
X001804Y019851D01*
X001859Y019970D02*
X002900Y019970D01*
X002900Y020088D02*
X001914Y020088D01*
X001968Y020207D02*
X002900Y020207D01*
X002900Y020325D02*
X002023Y020325D01*
X002092Y020444D02*
X002900Y020444D01*
X002900Y020562D02*
X002162Y020562D01*
X002232Y020681D02*
X002900Y020681D01*
X002900Y020799D02*
X002302Y020799D01*
X002372Y020918D02*
X002900Y020918D01*
X002900Y021036D02*
X002442Y021036D01*
X002512Y021155D02*
X002900Y021155D01*
X002900Y021273D02*
X002582Y021273D01*
X002652Y021392D02*
X002900Y021392D01*
X002900Y021510D02*
X002727Y021510D01*
X002814Y021629D02*
X002900Y021629D01*
X010991Y023288D02*
X011281Y023288D01*
X013843Y018477D02*
X013843Y018477D01*
X013900Y018290D02*
X013910Y018292D01*
X013918Y018297D01*
X019686Y018311D02*
X026669Y018311D01*
X026669Y018429D02*
X019892Y018429D01*
X020019Y018548D02*
X026666Y018548D01*
X026621Y018666D02*
X025906Y018666D01*
X026072Y018785D02*
X026577Y018785D01*
X026533Y018903D02*
X026177Y018903D01*
X026226Y019022D02*
X026489Y019022D01*
X026443Y019140D02*
X026266Y019140D01*
X026266Y019259D02*
X026388Y019259D01*
X026334Y019377D02*
X026264Y019377D01*
X026279Y019496D02*
X026215Y019496D01*
X026224Y019614D02*
X026163Y019614D01*
X026170Y019733D02*
X026045Y019733D01*
X026115Y019851D02*
X025840Y019851D01*
X026060Y019970D02*
X025020Y019970D01*
X025020Y020088D02*
X026005Y020088D01*
X025951Y020207D02*
X025020Y020207D01*
X025020Y020325D02*
X025896Y020325D01*
X025827Y020444D02*
X025020Y020444D01*
X025020Y020562D02*
X025757Y020562D01*
X025687Y020681D02*
X025020Y020681D01*
X025020Y020799D02*
X025617Y020799D01*
X025547Y020918D02*
X025020Y020918D01*
X025020Y021036D02*
X025477Y021036D01*
X025407Y021155D02*
X025020Y021155D01*
X025020Y021273D02*
X025337Y021273D01*
X025267Y021392D02*
X025020Y021392D01*
X025020Y021510D02*
X025192Y021510D01*
X025105Y021629D02*
X025020Y021629D01*
X025020Y019851D02*
X025406Y019851D01*
X025201Y019733D02*
X025020Y019733D01*
X025020Y019614D02*
X025083Y019614D01*
X025031Y019496D02*
X025020Y019496D01*
X024980Y019140D02*
X020315Y019140D01*
X020284Y019022D02*
X025019Y019022D01*
X025068Y018903D02*
X020252Y018903D01*
X020193Y018785D02*
X025174Y018785D01*
X025340Y018666D02*
X020125Y018666D01*
D24*
X017208Y021538D02*
X016361Y020692D01*
X014944Y020692D01*
X016026Y022080D02*
X015830Y022276D01*
X015830Y023595D01*
X015822Y023612D02*
X015731Y023704D01*
X016400Y023704D01*
X016417Y023711D02*
X016607Y023900D01*
X016624Y023908D02*
X017503Y024786D01*
X018093Y024294D02*
X018093Y024108D01*
X018086Y024090D02*
X017700Y023704D01*
X017700Y022424D01*
X017208Y022916D02*
X017158Y022965D01*
X017299Y023106D01*
X017306Y023123D02*
X017306Y023900D01*
X016625Y023907D02*
X016620Y023903D01*
X016613Y023901D01*
X016607Y023900D01*
X016418Y023710D02*
X016413Y023706D01*
X016406Y023704D01*
X016400Y023703D01*
X015830Y023595D02*
X015828Y023605D01*
X015823Y023613D01*
X015239Y023812D02*
X015239Y024284D01*
X015246Y024301D02*
X015584Y024639D01*
X015584Y025475D01*
X016068Y025960D01*
X016086Y025967D02*
X016322Y025967D01*
X016086Y025968D02*
X016080Y025967D01*
X016073Y025965D01*
X016068Y025961D01*
X015584Y025475D02*
X015071Y025988D01*
X015054Y025995D02*
X014960Y026074D01*
X015054Y025995D02*
X015060Y025994D01*
X015067Y025992D01*
X015072Y025988D01*
X014156Y026558D02*
X016912Y026558D01*
X017503Y025967D01*
X018143Y025426D02*
X018522Y025805D01*
X018529Y025823D02*
X018529Y025960D01*
X018546Y025967D02*
X018684Y025967D01*
X018546Y025968D02*
X018540Y025967D01*
X018533Y025965D01*
X018528Y025961D01*
X018529Y025823D02*
X018527Y025813D01*
X018522Y025805D01*
X018684Y024983D02*
X019521Y024983D01*
X018930Y024836D02*
X018832Y024836D01*
X018684Y024983D01*
X018684Y024895D01*
X018677Y024878D02*
X018093Y024294D01*
X018094Y024108D02*
X018092Y024098D01*
X018087Y024090D01*
X018684Y023999D02*
X018824Y023858D01*
X018842Y023851D02*
X019127Y023851D01*
X019464Y023514D01*
X019471Y023497D02*
X019471Y023408D01*
X019472Y023497D02*
X019470Y023507D01*
X019465Y023515D01*
X018842Y023851D02*
X018836Y023852D01*
X018829Y023854D01*
X018824Y023858D01*
X018677Y024877D02*
X018682Y024885D01*
X018684Y024895D01*
X017306Y023123D02*
X017304Y023113D01*
X017299Y023105D01*
X017158Y022965D02*
X016617Y022965D01*
X017208Y022916D02*
X017208Y021538D01*
X016765Y022080D02*
X016026Y022080D01*
X014649Y023211D02*
X015232Y023795D01*
X015232Y023794D02*
X015237Y023802D01*
X015239Y023812D01*
X015239Y024284D02*
X015241Y024294D01*
X015246Y024302D01*
X015780Y024393D02*
X016076Y024393D01*
X016315Y024631D01*
X016322Y024649D02*
X016322Y024786D01*
X016322Y024649D02*
X016320Y024639D01*
X016315Y024631D01*
X013960Y026074D02*
X013960Y026351D01*
X013967Y026368D02*
X014156Y026558D01*
X013966Y026369D02*
X013961Y026361D01*
X013959Y026351D01*
X011322Y023487D02*
X010771Y023487D01*
X011322Y023487D02*
X011637Y023172D01*
X011637Y021007D01*
X012109Y020534D01*
X012739Y020534D01*
X019865Y013763D02*
X016715Y010613D01*
X016715Y010367D01*
X012747Y003983D02*
X012747Y003019D01*
X013023Y002743D01*
D25*
X023162Y015928D02*
X022375Y016715D01*
X023162Y015928D02*
X023408Y015928D01*
X023999Y016519D02*
X023999Y017208D01*
X023999Y016519D02*
X024589Y015928D01*
D26*
X020849Y013960D02*
X019865Y013960D01*
X019078Y014747D01*
X021243Y012385D02*
X021046Y012188D01*
X021046Y010810D01*
X023999Y010711D02*
X024589Y011302D01*
X024589Y011991D01*
X015534Y021243D02*
X015003Y021243D01*
X014986Y021250D02*
X014895Y021341D01*
X014895Y022955D01*
X014887Y022973D02*
X014649Y023211D01*
X014888Y022973D02*
X014893Y022965D01*
X014895Y022955D01*
X012975Y023960D02*
X012893Y023956D01*
X010802Y023956D01*
X014985Y021250D02*
X014990Y021246D01*
X014997Y021244D01*
X015003Y021243D01*
D27*
X014747Y008448D02*
X015456Y008448D01*
X012778Y008448D02*
X012214Y008448D01*
X012011Y008245D01*
M02*
