G75*
%MOIN*%
%OFA0B0*%
%FSLAX24Y24*%
%IPPOS*%
%LPD*%
%AMOC8*
5,1,8,0,0,1.08239X$1,22.5*
%
%ADD10R,0.0010X0.0110*%
%ADD11R,0.0010X0.0010*%
%ADD12R,0.0010X0.0030*%
%ADD13R,0.0010X0.0070*%
%ADD14C,0.0070*%
%ADD15C,0.0050*%
%ADD16C,0.0080*%
%ADD17C,0.0400*%
%ADD18C,0.0040*%
%ADD19R,0.0015X0.0015*%
%ADD20R,0.0107X0.0015*%
%ADD21R,0.0123X0.0015*%
%ADD22R,0.0138X0.0015*%
%ADD23R,0.0353X0.0015*%
%ADD24R,0.0230X0.0015*%
%ADD25R,0.0261X0.0015*%
%ADD26R,0.0292X0.0015*%
%ADD27R,0.0154X0.0015*%
%ADD28R,0.0276X0.0015*%
%ADD29R,0.0322X0.0015*%
%ADD30R,0.0307X0.0015*%
%ADD31R,0.0169X0.0015*%
%ADD32R,0.0338X0.0015*%
%ADD33R,0.0384X0.0015*%
%ADD34R,0.0369X0.0015*%
%ADD35R,0.0415X0.0015*%
%ADD36R,0.0399X0.0015*%
%ADD37R,0.0445X0.0015*%
%ADD38R,0.0476X0.0015*%
%ADD39R,0.0200X0.0015*%
%ADD40R,0.0430X0.0015*%
%ADD41R,0.0077X0.0015*%
%ADD42R,0.0184X0.0015*%
%ADD43R,0.0046X0.0015*%
%ADD44R,0.0031X0.0015*%
%ADD45R,0.0246X0.0015*%
%ADD46R,0.0461X0.0015*%
%ADD47R,0.0092X0.0015*%
%ADD48R,0.0061X0.0015*%
%ADD49R,0.1981X0.0015*%
%ADD50R,0.2165X0.0015*%
%ADD51R,0.2288X0.0015*%
%ADD52R,0.2380X0.0015*%
%ADD53R,0.2472X0.0015*%
%ADD54R,0.2533X0.0015*%
%ADD55R,0.2595X0.0015*%
%ADD56R,0.0215X0.0015*%
%ADD57R,0.1075X0.0015*%
%ADD58R,0.0568X0.0015*%
%ADD59R,0.0952X0.0015*%
%ADD60R,0.0844X0.0015*%
%ADD61R,0.0537X0.0015*%
%ADD62R,0.0691X0.0015*%
%ADD63R,0.0507X0.0015*%
%ADD64R,0.0583X0.0015*%
%ADD65R,0.2365X0.0015*%
%ADD66R,0.2395X0.0015*%
%ADD67R,0.2349X0.0015*%
D10*
X014244Y004231D03*
D11*
X014254Y004191D03*
D12*
X014254Y004221D03*
X014254Y004261D03*
D13*
X014264Y004231D03*
D14*
X025264Y011220D02*
X025514Y011220D01*
X025431Y011262D02*
X025431Y011345D01*
X025389Y011387D01*
X025264Y011387D01*
X025306Y011556D02*
X025264Y011598D01*
X025306Y011556D02*
X025472Y011556D01*
X025431Y011515D02*
X025431Y011598D01*
X025431Y011711D02*
X025431Y011794D01*
X025472Y011753D02*
X025306Y011753D01*
X025264Y011794D01*
X025264Y011907D02*
X025264Y012033D01*
X025306Y012074D01*
X025389Y012074D01*
X025431Y012033D01*
X025431Y011907D01*
X025181Y011907D01*
X025264Y012202D02*
X025306Y012202D01*
X025306Y012244D01*
X025264Y012244D01*
X025264Y012202D01*
X025389Y012202D02*
X025431Y012202D01*
X025431Y012244D01*
X025389Y012244D01*
X025389Y012202D01*
X025264Y012349D02*
X025514Y012516D01*
X025264Y012644D02*
X025514Y012811D01*
X025431Y012939D02*
X025431Y013022D01*
X025472Y012980D02*
X025306Y012980D01*
X025264Y013022D01*
X025264Y013135D02*
X025514Y013135D01*
X025431Y013177D02*
X025431Y013260D01*
X025389Y013302D01*
X025264Y013302D01*
X025306Y013430D02*
X025389Y013430D01*
X025431Y013471D01*
X025431Y013555D01*
X025389Y013597D01*
X025347Y013597D01*
X025347Y013430D01*
X025306Y013430D02*
X025264Y013471D01*
X025264Y013555D01*
X025264Y013724D02*
X025264Y013850D01*
X025306Y013891D01*
X025389Y013891D01*
X025431Y013850D01*
X025431Y013724D01*
X025181Y013724D01*
X025306Y014019D02*
X025264Y014061D01*
X025264Y014186D01*
X025431Y014186D01*
X025431Y014314D02*
X025431Y014439D01*
X025389Y014481D01*
X025306Y014481D01*
X025264Y014439D01*
X025264Y014314D01*
X025514Y014314D01*
X025744Y014363D02*
X025744Y014446D01*
X025744Y014405D02*
X025911Y014405D01*
X025911Y014363D01*
X025994Y014405D02*
X026036Y014405D01*
X025911Y014559D02*
X025744Y014559D01*
X025911Y014559D02*
X025911Y014684D01*
X025869Y014726D01*
X025744Y014726D01*
X025556Y014847D02*
X025514Y014847D01*
X025431Y014847D02*
X025264Y014847D01*
X025264Y014888D02*
X025264Y014805D01*
X025264Y014692D02*
X025264Y014608D01*
X025264Y014650D02*
X025514Y014650D01*
X025514Y014608D01*
X025431Y014805D02*
X025431Y014847D01*
X025389Y015001D02*
X025306Y015001D01*
X025264Y015043D01*
X025264Y015168D01*
X025264Y015296D02*
X025431Y015296D01*
X025431Y015379D02*
X025347Y015296D01*
X025431Y015379D02*
X025431Y015421D01*
X025431Y015583D02*
X025431Y015667D01*
X025389Y015708D01*
X025264Y015708D01*
X025264Y015583D01*
X025306Y015541D01*
X025347Y015583D01*
X025347Y015708D01*
X025306Y015836D02*
X025389Y015836D01*
X025431Y015878D01*
X025431Y016003D01*
X025514Y016003D02*
X025264Y016003D01*
X025264Y015878D01*
X025306Y015836D01*
X025306Y016131D02*
X025306Y016172D01*
X025264Y016172D01*
X025264Y016131D01*
X025306Y016131D01*
X025264Y016278D02*
X025264Y016361D01*
X025264Y016320D02*
X025431Y016320D01*
X025431Y016278D01*
X025514Y016320D02*
X025556Y016320D01*
X025744Y016278D02*
X025994Y016278D01*
X025911Y016403D02*
X025827Y016278D01*
X025744Y016403D01*
X025744Y016524D02*
X025744Y016607D01*
X025744Y016565D02*
X025994Y016565D01*
X025994Y016524D01*
X025911Y016720D02*
X025786Y016720D01*
X025744Y016762D01*
X025744Y016887D01*
X025702Y016887D02*
X025661Y016845D01*
X025661Y016803D01*
X025702Y016887D02*
X025911Y016887D01*
X025911Y017015D02*
X025911Y017140D01*
X025869Y017182D01*
X025744Y017182D01*
X025744Y017015D02*
X025911Y017015D01*
X025431Y016600D02*
X025431Y016516D01*
X025389Y016475D01*
X025306Y016475D01*
X025264Y016516D01*
X025264Y016600D01*
X025306Y016641D01*
X025389Y016641D01*
X025431Y016600D01*
X025786Y016150D02*
X025869Y016150D01*
X025911Y016109D01*
X025911Y016025D01*
X025869Y015983D01*
X025786Y015983D01*
X025744Y016025D01*
X025744Y016109D01*
X025786Y016150D01*
X025786Y015856D02*
X025869Y015856D01*
X025911Y015814D01*
X025911Y015730D01*
X025869Y015689D01*
X025786Y015689D01*
X025744Y015730D01*
X025744Y015814D01*
X025786Y015856D01*
X025911Y015568D02*
X025911Y015527D01*
X025827Y015443D01*
X025744Y015443D02*
X025911Y015443D01*
X025911Y015315D02*
X025869Y015274D01*
X025869Y015149D01*
X025869Y015274D02*
X025827Y015315D01*
X025786Y015315D01*
X025744Y015274D01*
X025744Y015149D01*
X025994Y015149D01*
X025994Y015274D01*
X025952Y015315D01*
X025911Y015315D01*
X026266Y014898D02*
X026224Y014856D01*
X026224Y014731D01*
X026474Y014731D01*
X026474Y014856D01*
X026432Y014898D01*
X026391Y014898D01*
X026349Y014856D01*
X026349Y014731D01*
X026349Y014856D02*
X026307Y014898D01*
X026266Y014898D01*
X026266Y014603D02*
X026224Y014562D01*
X026224Y014478D01*
X026266Y014437D01*
X026349Y014437D02*
X026391Y014520D01*
X026391Y014562D01*
X026349Y014603D01*
X026266Y014603D01*
X026349Y014437D02*
X026474Y014437D01*
X026474Y014603D01*
X026432Y014309D02*
X026474Y014267D01*
X026474Y014184D01*
X026432Y014142D01*
X026432Y014014D02*
X026266Y013847D01*
X026224Y013889D01*
X026224Y013972D01*
X026266Y014014D01*
X026432Y014014D01*
X026474Y013972D01*
X026474Y013889D01*
X026432Y013847D01*
X026266Y013847D01*
X026266Y013719D02*
X026432Y013719D01*
X026474Y013678D01*
X026474Y013594D01*
X026432Y013553D01*
X026391Y013553D01*
X026349Y013594D01*
X026349Y013719D01*
X026266Y013719D02*
X026224Y013678D01*
X026224Y013594D01*
X026266Y013553D01*
X026224Y013425D02*
X026307Y013341D01*
X026307Y013383D02*
X026307Y013258D01*
X026224Y013258D02*
X026474Y013258D01*
X026474Y013383D01*
X026432Y013425D01*
X026349Y013425D01*
X026307Y013383D01*
X026349Y013130D02*
X026307Y013088D01*
X026307Y012963D01*
X026224Y012963D02*
X026474Y012963D01*
X026474Y013088D01*
X026432Y013130D01*
X026349Y013130D01*
X025911Y013184D02*
X025911Y013309D01*
X025869Y013351D01*
X025744Y013351D01*
X025786Y013479D02*
X025869Y013479D01*
X025911Y013521D01*
X025911Y013604D01*
X025869Y013646D01*
X025827Y013646D01*
X025827Y013479D01*
X025786Y013479D02*
X025744Y013521D01*
X025744Y013604D01*
X025786Y013774D02*
X025869Y013774D01*
X025911Y013815D01*
X025911Y013940D01*
X025994Y013940D02*
X025744Y013940D01*
X025744Y013815D01*
X025786Y013774D01*
X025431Y014019D02*
X025306Y014019D01*
X026224Y014142D02*
X026391Y014309D01*
X026432Y014309D01*
X026224Y014309D02*
X026224Y014142D01*
X025911Y013184D02*
X025744Y013184D01*
X025744Y013056D02*
X025911Y013056D01*
X025911Y012890D02*
X025786Y012890D01*
X025744Y012931D01*
X025744Y013056D01*
X025744Y012777D02*
X025786Y012735D01*
X025952Y012735D01*
X025911Y012693D02*
X025911Y012777D01*
X025869Y012271D02*
X025869Y012104D01*
X025952Y012187D02*
X025786Y012187D01*
X025744Y011681D02*
X025869Y011681D01*
X025911Y011640D01*
X025911Y011515D01*
X025744Y011515D01*
X025911Y011394D02*
X025911Y011352D01*
X025827Y011269D01*
X025744Y011269D02*
X025911Y011269D01*
X025869Y011141D02*
X025911Y011099D01*
X025911Y011016D01*
X025869Y010974D01*
X025786Y010974D01*
X025744Y011016D01*
X025744Y011099D01*
X025786Y011141D01*
X025869Y011141D01*
X025827Y010847D02*
X025786Y010847D01*
X025744Y010805D01*
X025744Y010680D01*
X025994Y010680D01*
X025994Y010805D01*
X025952Y010847D01*
X025911Y010847D01*
X025869Y010805D01*
X025869Y010680D01*
X025869Y010805D02*
X025827Y010847D01*
X025431Y011262D02*
X025389Y011220D01*
X025389Y013135D02*
X025431Y013177D01*
X025389Y015001D02*
X025431Y015043D01*
X025431Y015168D01*
D15*
X007760Y003926D02*
X003060Y003926D01*
X003060Y004826D01*
X007760Y004826D01*
X007760Y003926D01*
X003060Y004826D02*
X003060Y008526D01*
X007760Y008526D01*
X007760Y009426D01*
X003060Y009426D01*
X003060Y008526D01*
X003060Y018493D02*
X007760Y018493D01*
X007760Y019393D01*
X003060Y019393D01*
X003060Y023093D01*
X007760Y023093D01*
X007760Y023993D01*
X003060Y023993D01*
X003060Y023093D01*
X003060Y019393D02*
X003060Y018493D01*
X013494Y024435D02*
X013539Y024390D01*
X013674Y024390D01*
X013674Y024299D02*
X013674Y024570D01*
X013539Y024570D01*
X013494Y024525D01*
X013494Y024435D01*
X013788Y024390D02*
X013788Y024345D01*
X013833Y024299D01*
X013923Y024299D01*
X013968Y024345D01*
X013923Y024435D02*
X013833Y024435D01*
X013788Y024390D01*
X013788Y024525D02*
X013833Y024570D01*
X013923Y024570D01*
X013968Y024525D01*
X013968Y024480D01*
X013923Y024435D01*
X014075Y024570D02*
X014165Y024570D01*
X014120Y024570D02*
X014120Y024299D01*
X014165Y024299D02*
X014075Y024299D01*
X020160Y023993D02*
X020160Y023093D01*
X024860Y023093D01*
X024860Y023993D01*
X020160Y023993D01*
X024860Y023093D02*
X024860Y019393D01*
X020160Y019393D01*
X020160Y018493D01*
X024860Y018493D01*
X024860Y019393D01*
X024860Y009426D02*
X020160Y009426D01*
X020160Y008526D01*
X024860Y008526D01*
X024860Y004826D01*
X020160Y004826D01*
X020160Y003926D01*
X024860Y003926D01*
X024860Y004826D01*
X024860Y008526D02*
X024860Y009426D01*
D16*
X018960Y008076D02*
X018960Y005276D01*
X018958Y005259D01*
X018954Y005242D01*
X018947Y005226D01*
X018937Y005212D01*
X018924Y005199D01*
X018910Y005189D01*
X018894Y005182D01*
X018877Y005178D01*
X018860Y005176D01*
X012460Y005176D01*
X009560Y005176D01*
X009543Y005178D01*
X009526Y005182D01*
X009510Y005189D01*
X009496Y005199D01*
X009483Y005212D01*
X009473Y005226D01*
X009466Y005242D01*
X009462Y005259D01*
X009460Y005276D01*
X009460Y005926D01*
X009060Y005926D01*
X009043Y005928D01*
X009026Y005932D01*
X009010Y005939D01*
X008996Y005949D01*
X008983Y005962D01*
X008973Y005976D01*
X008966Y005992D01*
X008962Y006009D01*
X008960Y006026D01*
X008960Y007326D01*
X008962Y007343D01*
X008966Y007360D01*
X008973Y007376D01*
X008983Y007390D01*
X008996Y007403D01*
X009010Y007413D01*
X009026Y007420D01*
X009043Y007424D01*
X009060Y007426D01*
X009460Y007426D01*
X009460Y005926D01*
X009460Y007426D02*
X009460Y008076D01*
X009462Y008093D01*
X009466Y008110D01*
X009473Y008126D01*
X009483Y008140D01*
X009496Y008153D01*
X009510Y008163D01*
X009526Y008170D01*
X009543Y008174D01*
X009560Y008176D01*
X012460Y008176D01*
X018860Y008176D01*
X018877Y008174D01*
X018894Y008170D01*
X018910Y008163D01*
X018924Y008153D01*
X018937Y008140D01*
X018947Y008126D01*
X018954Y008110D01*
X018958Y008093D01*
X018960Y008076D01*
X012460Y008176D02*
X012460Y005176D01*
X015460Y019743D02*
X009060Y019743D01*
X009043Y019745D01*
X009026Y019749D01*
X009010Y019756D01*
X008996Y019766D01*
X008983Y019779D01*
X008973Y019793D01*
X008966Y019809D01*
X008962Y019826D01*
X008960Y019843D01*
X008960Y022643D01*
X008962Y022660D01*
X008966Y022677D01*
X008973Y022693D01*
X008983Y022707D01*
X008996Y022720D01*
X009010Y022730D01*
X009026Y022737D01*
X009043Y022741D01*
X009060Y022743D01*
X015460Y022743D01*
X018360Y022743D01*
X018377Y022741D01*
X018394Y022737D01*
X018410Y022730D01*
X018424Y022720D01*
X018437Y022707D01*
X018447Y022693D01*
X018454Y022677D01*
X018458Y022660D01*
X018460Y022643D01*
X018460Y021993D01*
X018860Y021993D01*
X018877Y021991D01*
X018894Y021987D01*
X018910Y021980D01*
X018924Y021970D01*
X018937Y021957D01*
X018947Y021943D01*
X018954Y021927D01*
X018958Y021910D01*
X018960Y021893D01*
X018960Y020593D01*
X018958Y020576D01*
X018954Y020559D01*
X018947Y020543D01*
X018937Y020529D01*
X018924Y020516D01*
X018910Y020506D01*
X018894Y020499D01*
X018877Y020495D01*
X018860Y020493D01*
X018460Y020493D01*
X018460Y021993D01*
X018460Y020493D02*
X018460Y019843D01*
X018458Y019826D01*
X018454Y019809D01*
X018447Y019793D01*
X018437Y019779D01*
X018424Y019766D01*
X018410Y019756D01*
X018394Y019749D01*
X018377Y019745D01*
X018360Y019743D01*
X015460Y019743D01*
X015460Y022743D01*
D17*
X016960Y022043D02*
X016960Y020443D01*
X016160Y021243D02*
X017760Y021243D01*
X010960Y007476D02*
X010960Y005876D01*
X011760Y006676D02*
X010160Y006676D01*
D18*
X012026Y008527D02*
X012026Y008560D01*
X011892Y008694D01*
X011892Y008727D01*
X012026Y008727D01*
X012113Y008727D02*
X012247Y008727D01*
X012180Y008727D02*
X012180Y008527D01*
X014058Y008915D02*
X014058Y008948D01*
X014091Y008981D01*
X014191Y008981D01*
X014191Y008915D01*
X014158Y008881D01*
X014091Y008881D01*
X014058Y008915D01*
X014124Y009048D02*
X014058Y009081D01*
X014124Y009048D02*
X014191Y008981D01*
X014279Y009081D02*
X014412Y009081D01*
X014345Y009081D02*
X014345Y008881D01*
X020672Y010061D02*
X020706Y010028D01*
X020772Y010028D01*
X020806Y010061D01*
X020806Y010128D01*
X020706Y010128D01*
X020672Y010094D01*
X020672Y010061D01*
X020739Y010195D02*
X020806Y010128D01*
X020739Y010195D02*
X020672Y010228D01*
X020960Y010228D02*
X020960Y010028D01*
X021027Y010028D02*
X020893Y010028D01*
X021027Y010161D02*
X020960Y010228D01*
X021114Y010228D02*
X021248Y010228D01*
X021181Y010228D02*
X021181Y010028D01*
X023205Y012626D02*
X023272Y012626D01*
X023305Y012660D01*
X023238Y012726D02*
X023205Y012726D01*
X023172Y012693D01*
X023172Y012660D01*
X023205Y012626D01*
X023205Y012726D02*
X023172Y012760D01*
X023172Y012793D01*
X023205Y012826D01*
X023272Y012826D01*
X023305Y012793D01*
X023393Y012826D02*
X023526Y012826D01*
X023459Y012826D02*
X023459Y012626D01*
X023464Y013074D02*
X023464Y013274D01*
X023398Y013274D02*
X023531Y013274D01*
X023310Y013241D02*
X023277Y013274D01*
X023210Y013274D01*
X023177Y013241D01*
X023177Y013208D01*
X023310Y013074D01*
X023177Y013074D01*
X024149Y012718D02*
X024282Y012718D01*
X024182Y012818D01*
X024182Y012618D01*
X024370Y012618D02*
X024503Y012618D01*
X024437Y012618D02*
X024437Y012818D01*
X024503Y012751D01*
X024591Y012818D02*
X024724Y012818D01*
X024658Y012818D02*
X024658Y012618D01*
X024724Y015131D02*
X024724Y015331D01*
X024791Y015331D02*
X024657Y015331D01*
X024570Y015265D02*
X024503Y015331D01*
X024503Y015131D01*
X024570Y015131D02*
X024436Y015131D01*
X024349Y015164D02*
X024316Y015131D01*
X024249Y015131D01*
X024215Y015164D01*
X024215Y015231D01*
X024249Y015265D01*
X024282Y015265D01*
X024349Y015231D01*
X024349Y015331D01*
X024215Y015331D01*
X023580Y015376D02*
X023447Y015376D01*
X023514Y015376D02*
X023514Y015175D01*
X023359Y015276D02*
X023226Y015276D01*
X023259Y015376D02*
X023359Y015276D01*
X023259Y015376D02*
X023259Y015175D01*
X019058Y015577D02*
X018924Y015577D01*
X018991Y015577D02*
X018991Y015377D01*
X018837Y015377D02*
X018703Y015377D01*
X018770Y015377D02*
X018770Y015577D01*
X018837Y015511D01*
X018616Y015577D02*
X018482Y015577D01*
X018482Y015544D01*
X018616Y015411D01*
X018616Y015377D01*
X019239Y023999D02*
X019205Y024033D01*
X019205Y024166D01*
X019239Y024199D01*
X019305Y024199D01*
X019339Y024166D01*
X019339Y024133D01*
X019305Y024099D01*
X019205Y024099D01*
X019239Y023999D02*
X019305Y023999D01*
X019339Y024033D01*
X019493Y023999D02*
X019493Y024199D01*
X019560Y024199D02*
X019426Y024199D01*
X019473Y024954D02*
X019473Y025154D01*
X019540Y025154D02*
X019406Y025154D01*
X019319Y025121D02*
X019286Y025154D01*
X019219Y025154D01*
X019185Y025121D01*
X019185Y025087D01*
X019219Y025054D01*
X019286Y025054D01*
X019319Y025087D01*
X019319Y025121D01*
X019286Y025054D02*
X019319Y025021D01*
X019319Y024987D01*
X019286Y024954D01*
X019219Y024954D01*
X019185Y024987D01*
X019185Y025021D01*
X019219Y025054D01*
X019220Y025926D02*
X019287Y025926D01*
X019320Y025960D01*
X019187Y026093D01*
X019187Y025960D01*
X019220Y025926D01*
X019320Y025960D02*
X019320Y026093D01*
X019287Y026127D01*
X019220Y026127D01*
X019187Y026093D01*
X019408Y025926D02*
X019541Y025926D01*
X019475Y025926D02*
X019475Y026127D01*
X019541Y026060D01*
X019629Y026127D02*
X019762Y026127D01*
X019696Y026127D02*
X019696Y025926D01*
X017729Y025479D02*
X017595Y025479D01*
X017662Y025479D02*
X017662Y025279D01*
X017508Y025279D02*
X017374Y025279D01*
X017441Y025279D02*
X017441Y025479D01*
X017508Y025412D01*
X017287Y025446D02*
X017254Y025479D01*
X017187Y025479D01*
X017153Y025446D01*
X017153Y025412D01*
X017287Y025279D01*
X017153Y025279D01*
X016567Y025489D02*
X016434Y025489D01*
X016501Y025489D02*
X016501Y025289D01*
X016346Y025289D02*
X016213Y025289D01*
X016280Y025289D02*
X016280Y025489D01*
X016346Y025422D01*
X016126Y025422D02*
X016059Y025489D01*
X016059Y025289D01*
X016126Y025289D02*
X015992Y025289D01*
X016158Y026470D02*
X016225Y026470D01*
X016258Y026503D01*
X016258Y026570D02*
X016191Y026603D01*
X016158Y026603D01*
X016124Y026570D01*
X016124Y026503D01*
X016158Y026470D01*
X016258Y026570D02*
X016258Y026670D01*
X016124Y026670D01*
X016345Y026670D02*
X016479Y026670D01*
X016412Y026670D02*
X016412Y026470D01*
X017183Y026542D02*
X017216Y026509D01*
X017283Y026509D01*
X017316Y026542D01*
X017404Y026509D02*
X017537Y026509D01*
X017471Y026509D02*
X017471Y026709D01*
X017537Y026643D01*
X017625Y026709D02*
X017758Y026709D01*
X017692Y026709D02*
X017692Y026509D01*
X017316Y026676D02*
X017283Y026709D01*
X017216Y026709D01*
X017183Y026676D01*
X017183Y026643D01*
X017216Y026609D01*
X017183Y026576D01*
X017183Y026542D01*
X017216Y026609D02*
X017250Y026609D01*
X005317Y017900D02*
X005184Y017900D01*
X005251Y017900D02*
X005251Y017700D01*
X005096Y017700D02*
X004963Y017700D01*
X005030Y017700D02*
X005030Y017900D01*
X005096Y017833D01*
D19*
X014620Y004875D03*
X014620Y004783D03*
X014620Y004752D03*
X014620Y004660D03*
X014620Y004629D03*
X014620Y004537D03*
X014620Y004506D03*
X014620Y004414D03*
X014620Y004384D03*
X014620Y004291D03*
X014620Y004261D03*
X014620Y004169D03*
X014620Y004138D03*
X014620Y004046D03*
X014620Y004015D03*
X014620Y003923D03*
X014620Y003892D03*
X014804Y003861D03*
X014804Y003954D03*
X014804Y003984D03*
X014804Y004076D03*
X014804Y004107D03*
X014804Y004199D03*
X014804Y004230D03*
X014804Y004322D03*
X014804Y004353D03*
X014804Y004445D03*
X014804Y004476D03*
X014804Y004568D03*
X014804Y004599D03*
X014804Y004691D03*
X014804Y004721D03*
X014804Y004813D03*
X014804Y004844D03*
X014773Y004906D03*
X013391Y004107D03*
X013391Y004076D03*
X013391Y003984D03*
X013391Y003954D03*
X013391Y003861D03*
X013407Y003631D03*
X013468Y003631D03*
X013530Y003631D03*
X013591Y003631D03*
X013652Y003631D03*
X013714Y003631D03*
X013775Y003631D03*
X013837Y003631D03*
X013898Y003631D03*
X013960Y003631D03*
X014021Y003631D03*
X014082Y003631D03*
X014144Y003631D03*
X014205Y003631D03*
X014267Y003631D03*
X014328Y003631D03*
X014389Y003631D03*
X014451Y003631D03*
X014512Y003631D03*
X014574Y003631D03*
X014635Y003631D03*
X014697Y003631D03*
X014727Y003631D03*
X014758Y003631D03*
X014819Y003631D03*
X014881Y003631D03*
X014865Y003524D03*
X014712Y003462D03*
X014681Y003462D03*
X014635Y003447D03*
X014620Y003432D03*
X014589Y003432D03*
X014543Y003416D03*
X014451Y003386D03*
X014359Y003355D03*
X014343Y003339D03*
X014343Y003278D03*
X014313Y003278D03*
X014282Y003278D03*
X014251Y003278D03*
X014221Y003278D03*
X014190Y003278D03*
X014251Y003309D03*
X014374Y003278D03*
X014405Y003278D03*
X014436Y003278D03*
X014466Y003278D03*
X014497Y003278D03*
X014528Y003278D03*
X014558Y003278D03*
X014589Y003278D03*
X014620Y003278D03*
X014650Y003278D03*
X014681Y003278D03*
X014712Y003278D03*
X014743Y003278D03*
X014773Y003278D03*
X014804Y003278D03*
X014835Y003278D03*
X014865Y003278D03*
X014881Y003263D03*
X014911Y003263D03*
X015111Y003155D03*
X015142Y003124D03*
X015142Y003094D03*
X015173Y003032D03*
X015173Y002940D03*
X015173Y002910D03*
X015173Y002817D03*
X015173Y002787D03*
X015357Y002756D03*
X015357Y002725D03*
X015357Y002848D03*
X015357Y002879D03*
X015357Y002971D03*
X015357Y003002D03*
X015357Y003094D03*
X015357Y003124D03*
X015326Y003155D03*
X015326Y003186D03*
X015295Y003247D03*
X015265Y003278D03*
X015173Y003370D03*
X015142Y003401D03*
X015142Y003432D03*
X015142Y003524D03*
X015142Y003554D03*
X015142Y003647D03*
X015142Y003677D03*
X015142Y003769D03*
X015142Y003800D03*
X013345Y003631D03*
X013284Y003631D03*
X013223Y003631D03*
X013161Y003631D03*
X013100Y003631D03*
X013038Y003631D03*
X012977Y003631D03*
X012915Y003631D03*
X012854Y003631D03*
X012839Y003647D03*
X012777Y003769D03*
X012777Y003800D03*
X012808Y003831D03*
X012823Y003846D03*
X012854Y003846D03*
X013023Y003892D03*
X013023Y003923D03*
X013023Y004015D03*
X013023Y004046D03*
X013023Y004138D03*
X012977Y003478D03*
X012946Y003478D03*
X012931Y003462D03*
X012900Y003462D03*
X012839Y003432D03*
X012777Y003401D03*
X012685Y003339D03*
X012654Y003309D03*
X012808Y003186D03*
X012839Y003217D03*
X012777Y003124D03*
X012747Y003063D03*
X012747Y003032D03*
X012747Y002940D03*
X012747Y002910D03*
X012747Y002817D03*
X012747Y002787D03*
X012562Y002756D03*
X012562Y002725D03*
X012562Y002848D03*
X012562Y002879D03*
X012562Y002971D03*
X012562Y003002D03*
X012562Y003094D03*
X012562Y003124D03*
X013008Y003263D03*
X013054Y003278D03*
X013084Y003278D03*
X013115Y003278D03*
X013146Y003278D03*
X013207Y003339D03*
X013238Y003401D03*
X013207Y003462D03*
X013192Y003478D03*
X012839Y002602D03*
X012869Y002572D03*
X012961Y002510D03*
X013008Y002495D03*
X013023Y002480D03*
X013023Y002265D03*
X013054Y002265D03*
X013176Y002080D03*
X013207Y002080D03*
X013299Y002080D03*
X013330Y002080D03*
X013284Y001973D03*
X013253Y001973D03*
X013161Y001942D03*
X013100Y001911D03*
X013100Y001697D03*
X013253Y001635D03*
X013284Y001635D03*
X013330Y001528D03*
X013176Y001528D03*
X013699Y001528D03*
X013729Y001528D03*
X013760Y001528D03*
X013791Y001528D03*
X013944Y001528D03*
X013975Y001528D03*
X014006Y001528D03*
X014036Y001528D03*
X014067Y001528D03*
X014098Y001528D03*
X014128Y001528D03*
X014159Y001528D03*
X014190Y001528D03*
X014528Y001528D03*
X014558Y001528D03*
X014589Y001528D03*
X014620Y001528D03*
X014650Y001528D03*
X014681Y001528D03*
X015019Y001528D03*
X015065Y001635D03*
X015096Y001635D03*
X015249Y001574D03*
X015572Y001743D03*
X015618Y001850D03*
X015664Y001528D03*
X015695Y001528D03*
X015725Y001528D03*
X015756Y001528D03*
X016339Y001528D03*
X016370Y001528D03*
X016401Y001528D03*
X016432Y001528D03*
X016462Y001528D03*
X016493Y001528D03*
X016524Y001528D03*
X016554Y001528D03*
X016585Y001528D03*
X016616Y001528D03*
X016647Y001528D03*
X016831Y001528D03*
X016861Y001528D03*
X016892Y001528D03*
X016923Y001528D03*
X017169Y001528D03*
X017199Y001528D03*
X017230Y001528D03*
X017261Y001528D03*
X017568Y001528D03*
X017599Y001528D03*
X017629Y001528D03*
X017660Y001528D03*
X017123Y001881D03*
X017092Y001881D03*
X017061Y001881D03*
X017030Y001881D03*
X017000Y001881D03*
X016969Y001881D03*
X016539Y001881D03*
X016508Y001881D03*
X016478Y001881D03*
X016447Y001881D03*
X016416Y001881D03*
X016386Y001881D03*
X016355Y001881D03*
X016370Y001773D03*
X016339Y001773D03*
X016401Y001773D03*
X016432Y001773D03*
X016462Y001773D03*
X016493Y001773D03*
X016524Y001773D03*
X015203Y002418D03*
X015157Y002372D03*
X015111Y002357D03*
X015234Y002480D03*
X014958Y002510D03*
X014896Y002480D03*
X014865Y002480D03*
X014865Y002265D03*
X014482Y002065D03*
X012808Y002357D03*
X012685Y002480D03*
X012301Y002065D03*
X012271Y001758D03*
X012255Y001528D03*
X012224Y001528D03*
X012194Y001528D03*
X012163Y001528D03*
X012132Y001528D03*
X012040Y001528D03*
X012010Y001528D03*
X011979Y001528D03*
X011948Y001528D03*
X011856Y001650D03*
X011825Y001650D03*
X011795Y001650D03*
X011764Y001650D03*
X011733Y001650D03*
X011702Y001650D03*
X011672Y001650D03*
X011580Y001528D03*
X011549Y001528D03*
X011518Y001528D03*
X011487Y001528D03*
X011365Y001528D03*
X011334Y001528D03*
X011303Y001528D03*
X011273Y001528D03*
X011242Y001528D03*
X011211Y001528D03*
X011180Y001528D03*
X011058Y001558D03*
X010781Y001528D03*
X010750Y001528D03*
X010720Y001528D03*
X010351Y001528D03*
X010305Y001635D03*
X010244Y001635D03*
X010198Y001528D03*
X010244Y001973D03*
X010274Y001973D03*
X010351Y001958D03*
X010351Y002080D03*
X010321Y002080D03*
X010290Y002080D03*
X010259Y002080D03*
X010228Y002080D03*
X010198Y002080D03*
X011104Y002065D03*
X011150Y001958D03*
X011764Y002111D03*
X012439Y001528D03*
X012470Y001528D03*
X012501Y001528D03*
X012532Y001528D03*
D20*
X012486Y001558D03*
X012486Y001589D03*
X012486Y001620D03*
X012486Y001650D03*
X012486Y001681D03*
X012486Y001712D03*
X012486Y001865D03*
X012486Y001896D03*
X012486Y001927D03*
X012486Y001958D03*
X011764Y002034D03*
X010750Y002034D03*
X010750Y002004D03*
X010750Y001973D03*
X010750Y001942D03*
X010750Y001911D03*
X010750Y001881D03*
X010750Y001850D03*
X010750Y001819D03*
X010750Y001789D03*
X010750Y001758D03*
X010750Y001727D03*
X010750Y001697D03*
X010750Y001666D03*
X010750Y001635D03*
X010750Y001604D03*
X010750Y001574D03*
X010750Y001543D03*
X010520Y001773D03*
X010520Y001804D03*
X010520Y001835D03*
X010750Y002065D03*
X010274Y001528D03*
X010029Y001743D03*
X013253Y001528D03*
X013499Y001743D03*
X013499Y001865D03*
X014389Y001712D03*
X014389Y001681D03*
X014911Y001712D03*
X014911Y001743D03*
X014911Y001773D03*
X014911Y001804D03*
X014911Y001835D03*
X014911Y001865D03*
X014911Y001896D03*
X014911Y001927D03*
X014911Y001958D03*
X014911Y001988D03*
X014911Y002019D03*
X014911Y002050D03*
X015249Y002050D03*
X015249Y002019D03*
X015249Y001988D03*
X015249Y001958D03*
X015249Y001927D03*
X015249Y001896D03*
X015249Y001865D03*
X015249Y001835D03*
X015249Y001804D03*
X015249Y001773D03*
X015249Y001743D03*
X015096Y001528D03*
X015710Y001558D03*
X015710Y001589D03*
X015710Y001620D03*
X015710Y001650D03*
X015710Y001681D03*
X015710Y001712D03*
X015710Y001865D03*
X015710Y001896D03*
X015710Y001927D03*
X015710Y001958D03*
X017215Y001958D03*
X017215Y001988D03*
X017215Y002019D03*
X017215Y002050D03*
X017215Y001927D03*
X017215Y001896D03*
X017215Y001743D03*
X017215Y001712D03*
X017215Y001681D03*
X017215Y001650D03*
X017215Y001620D03*
X017215Y001589D03*
X017215Y001558D03*
X014712Y004921D03*
D21*
X014151Y002065D03*
X014151Y002050D03*
X014151Y002034D03*
X014151Y002019D03*
X014151Y002004D03*
X014151Y001988D03*
X014151Y001973D03*
X014151Y001958D03*
X014151Y001942D03*
X014151Y001927D03*
X014151Y001911D03*
X014151Y001896D03*
X014151Y001881D03*
X014151Y001865D03*
X014151Y001850D03*
X014151Y001835D03*
X014151Y001819D03*
X014151Y001804D03*
X014151Y001789D03*
X014151Y001773D03*
X014151Y001758D03*
X014151Y001743D03*
X014151Y001727D03*
X014151Y001712D03*
X014151Y001697D03*
X014151Y001681D03*
X014151Y001666D03*
X014151Y001650D03*
X014397Y001727D03*
X014443Y001896D03*
X014443Y001911D03*
X014443Y001927D03*
X014643Y001927D03*
X014643Y001942D03*
X014643Y001958D03*
X014643Y001911D03*
X014643Y001896D03*
X014643Y001881D03*
X014643Y001865D03*
X014643Y001743D03*
X014643Y001727D03*
X014643Y001712D03*
X014643Y001697D03*
X014643Y001681D03*
X014643Y001666D03*
X014643Y001650D03*
X014919Y001681D03*
X015226Y001666D03*
X015242Y001712D03*
X015487Y001865D03*
X015487Y001881D03*
X015487Y001896D03*
X015487Y001911D03*
X015487Y001927D03*
X016624Y001927D03*
X016624Y001942D03*
X016624Y001958D03*
X016624Y001911D03*
X016624Y001896D03*
X016624Y001881D03*
X016624Y001758D03*
X016624Y001743D03*
X016624Y001727D03*
X016624Y001712D03*
X016624Y001697D03*
X016624Y001681D03*
X016624Y001666D03*
X016624Y001650D03*
X016885Y001650D03*
X016885Y001635D03*
X016885Y001620D03*
X016885Y001604D03*
X016885Y001589D03*
X016885Y001574D03*
X016885Y001558D03*
X016885Y001543D03*
X016885Y001666D03*
X016885Y001681D03*
X016885Y001697D03*
X016885Y001712D03*
X016885Y001727D03*
X016885Y001743D03*
X016885Y001758D03*
X016885Y001881D03*
X016885Y001896D03*
X016885Y001911D03*
X016885Y001927D03*
X016885Y001942D03*
X016885Y001958D03*
X016885Y001973D03*
X016885Y001988D03*
X016885Y002004D03*
X016885Y002019D03*
X016885Y002034D03*
X016885Y002050D03*
X016885Y002065D03*
X017606Y001958D03*
X017606Y001942D03*
X017606Y001927D03*
X017606Y001911D03*
X017606Y001896D03*
X017606Y001881D03*
X017606Y001865D03*
X017606Y001850D03*
X017606Y001835D03*
X017606Y001819D03*
X017606Y001804D03*
X017606Y001789D03*
X017606Y001773D03*
X017606Y001758D03*
X017606Y001743D03*
X017606Y001727D03*
X017606Y001712D03*
X017606Y001697D03*
X017606Y001681D03*
X017606Y001666D03*
X017606Y001650D03*
X017606Y001635D03*
X017606Y001620D03*
X017606Y001604D03*
X017606Y001589D03*
X017606Y001574D03*
X017606Y001558D03*
X017606Y001543D03*
X013737Y001543D03*
X013737Y001558D03*
X013737Y001574D03*
X013737Y001589D03*
X013737Y001604D03*
X013737Y001620D03*
X013737Y001635D03*
X013737Y001650D03*
X013737Y001666D03*
X013737Y001681D03*
X013737Y001697D03*
X013737Y001712D03*
X013737Y001727D03*
X013737Y001743D03*
X013737Y001758D03*
X013737Y001773D03*
X013737Y001789D03*
X013737Y001804D03*
X013737Y001819D03*
X013737Y001835D03*
X013737Y001850D03*
X013737Y001865D03*
X013737Y001881D03*
X013737Y001896D03*
X013737Y001911D03*
X013737Y001927D03*
X013737Y001942D03*
X013737Y001958D03*
X013737Y001973D03*
X013737Y001988D03*
X013737Y002004D03*
X013737Y002019D03*
X013737Y002034D03*
X013737Y002050D03*
X013737Y002065D03*
X013507Y001835D03*
X013507Y001819D03*
X013507Y001804D03*
X013507Y001789D03*
X013507Y001773D03*
X012248Y001881D03*
X012248Y001896D03*
X012248Y001911D03*
X012248Y001927D03*
X011879Y001773D03*
X011848Y001835D03*
X011664Y001819D03*
X011664Y001804D03*
X011572Y001620D03*
X011557Y001589D03*
X011311Y001650D03*
X011311Y001666D03*
X011311Y001681D03*
X011311Y001697D03*
X011311Y001712D03*
X011311Y001727D03*
X011311Y001743D03*
X011311Y001758D03*
X011311Y001773D03*
X011311Y001789D03*
X011311Y001804D03*
X011311Y001819D03*
X011311Y001835D03*
X011311Y001850D03*
X011311Y001865D03*
X011311Y001881D03*
X011311Y001896D03*
X011311Y001911D03*
X011311Y001927D03*
X011311Y001942D03*
X011311Y001958D03*
X010958Y001850D03*
X010958Y001819D03*
X010958Y001804D03*
X010958Y001789D03*
X010958Y001773D03*
X010958Y001758D03*
X010512Y001743D03*
X010512Y001727D03*
X010512Y001865D03*
X010512Y001881D03*
X010036Y001865D03*
X010021Y001835D03*
X010021Y001804D03*
X010021Y001789D03*
X010021Y001773D03*
X011756Y002004D03*
X011756Y002019D03*
X011940Y001650D03*
X011971Y001589D03*
X011986Y001558D03*
D22*
X011994Y001543D03*
X011979Y001574D03*
X011963Y001604D03*
X011948Y001620D03*
X011948Y001635D03*
X011871Y001789D03*
X011856Y001804D03*
X011856Y001819D03*
X011841Y001850D03*
X011687Y001850D03*
X011672Y001835D03*
X011656Y001789D03*
X011641Y001773D03*
X011580Y001650D03*
X011580Y001635D03*
X011564Y001604D03*
X011549Y001558D03*
X011534Y001543D03*
X011764Y001988D03*
X012255Y001942D03*
X012255Y001865D03*
X012317Y001681D03*
X012301Y001666D03*
X012224Y001558D03*
X012486Y001543D03*
X012486Y001574D03*
X012486Y001604D03*
X012486Y001635D03*
X012486Y001666D03*
X012486Y001697D03*
X012486Y001850D03*
X012486Y001881D03*
X012486Y001911D03*
X012486Y001942D03*
X013161Y001973D03*
X013484Y001896D03*
X013499Y001881D03*
X013499Y001850D03*
X013499Y001758D03*
X013499Y001727D03*
X013484Y001712D03*
X013161Y001635D03*
X014389Y001666D03*
X014405Y001650D03*
X014389Y001697D03*
X014405Y001743D03*
X014466Y001865D03*
X014451Y001881D03*
X014451Y001942D03*
X014466Y001958D03*
X014911Y001973D03*
X014911Y002004D03*
X014911Y002034D03*
X014911Y002065D03*
X014911Y001942D03*
X014911Y001911D03*
X014911Y001881D03*
X014911Y001850D03*
X014911Y001819D03*
X014911Y001789D03*
X014911Y001758D03*
X014911Y001727D03*
X014911Y001697D03*
X014927Y001666D03*
X015234Y001681D03*
X015249Y001697D03*
X015249Y001727D03*
X015249Y001758D03*
X015249Y001789D03*
X015249Y001819D03*
X015249Y001850D03*
X015249Y001881D03*
X015249Y001911D03*
X015249Y001942D03*
X015249Y001973D03*
X015249Y002004D03*
X015249Y002034D03*
X015249Y002065D03*
X015495Y001942D03*
X015510Y001958D03*
X015710Y001942D03*
X015710Y001911D03*
X015710Y001881D03*
X015710Y001850D03*
X015710Y001727D03*
X015710Y001697D03*
X015710Y001666D03*
X015710Y001635D03*
X015710Y001604D03*
X015710Y001574D03*
X015710Y001543D03*
X016616Y001773D03*
X017215Y001758D03*
X017215Y001727D03*
X017215Y001697D03*
X017215Y001666D03*
X017215Y001635D03*
X017215Y001604D03*
X017215Y001574D03*
X017215Y001543D03*
X017215Y001881D03*
X017215Y001911D03*
X017215Y001942D03*
X017215Y001973D03*
X017215Y002004D03*
X017215Y002034D03*
X017215Y002065D03*
X010996Y001927D03*
X010981Y001896D03*
X010981Y001881D03*
X010965Y001865D03*
X010965Y001835D03*
X010965Y001743D03*
X010981Y001727D03*
X010981Y001712D03*
X010996Y001681D03*
X010750Y001681D03*
X010750Y001650D03*
X010750Y001620D03*
X010750Y001589D03*
X010750Y001558D03*
X010750Y001712D03*
X010750Y001743D03*
X010750Y001773D03*
X010750Y001804D03*
X010750Y001835D03*
X010750Y001865D03*
X010750Y001896D03*
X010750Y001927D03*
X010750Y001958D03*
X010750Y001988D03*
X010750Y002019D03*
X010750Y002050D03*
X010505Y001896D03*
X010489Y001911D03*
X010520Y001850D03*
X010520Y001819D03*
X010520Y001789D03*
X010520Y001758D03*
X010505Y001712D03*
X010489Y001697D03*
X010044Y001712D03*
X010029Y001727D03*
X010029Y001758D03*
X010029Y001819D03*
X010029Y001850D03*
X010029Y001881D03*
X010044Y001896D03*
D23*
X011196Y002019D03*
X011196Y001589D03*
X012378Y001819D03*
X012378Y001973D03*
X012378Y002004D03*
X012808Y002495D03*
X013269Y002034D03*
X013269Y001574D03*
X014528Y001604D03*
X014528Y001620D03*
X014528Y001635D03*
X014528Y001758D03*
X015602Y001973D03*
X016508Y001973D03*
X016508Y001988D03*
X016508Y002004D03*
X016508Y002019D03*
X016508Y002034D03*
X016508Y002050D03*
X016508Y002065D03*
X016508Y001865D03*
X016508Y001850D03*
X016508Y001835D03*
X016508Y001819D03*
X016508Y001804D03*
X016508Y001789D03*
X016508Y001635D03*
X016508Y001620D03*
X016508Y001604D03*
X016508Y001589D03*
X016508Y001574D03*
X016508Y001558D03*
X016508Y001543D03*
X015111Y003263D03*
X013207Y003877D03*
X013207Y004000D03*
X013207Y004123D03*
X013207Y004153D03*
X013207Y004184D03*
D24*
X012654Y003109D03*
X012654Y003078D03*
X012654Y003048D03*
X012654Y002986D03*
X012654Y002956D03*
X012654Y002925D03*
X012654Y002863D03*
X012654Y002833D03*
X012654Y002802D03*
X012654Y002771D03*
X012654Y002741D03*
X012685Y002649D03*
X012439Y002065D03*
X011764Y001911D03*
X010413Y001973D03*
X014712Y003846D03*
X014712Y003877D03*
X014712Y003908D03*
X014712Y003938D03*
X014712Y003969D03*
X014712Y004000D03*
X014712Y004030D03*
X014712Y004061D03*
X014712Y004092D03*
X014712Y004123D03*
X014712Y004153D03*
X014712Y004184D03*
X014712Y004215D03*
X014712Y004245D03*
X014712Y004276D03*
X014712Y004307D03*
X014712Y004337D03*
X014712Y004368D03*
X014712Y004399D03*
X014712Y004430D03*
X014712Y004460D03*
X014712Y004491D03*
X014712Y004522D03*
X014712Y004552D03*
X014712Y004583D03*
X014712Y004614D03*
X014712Y004645D03*
X014712Y004675D03*
X014712Y004706D03*
X014712Y004737D03*
X014712Y004767D03*
X014712Y004798D03*
X014712Y004829D03*
X015234Y003140D03*
X015249Y003109D03*
X015265Y003048D03*
X015265Y003017D03*
X015265Y002986D03*
X015265Y002956D03*
X015265Y002925D03*
X015265Y002894D03*
X015265Y002863D03*
X015265Y002833D03*
X015265Y002802D03*
X015265Y002771D03*
X015265Y002741D03*
X015234Y002679D03*
X015234Y002649D03*
X015664Y002065D03*
X015080Y001543D03*
D25*
X015080Y001558D03*
X014574Y001543D03*
X014574Y002034D03*
X015188Y002587D03*
X015219Y002618D03*
X015219Y003171D03*
X015188Y003201D03*
X015633Y002050D03*
X015633Y001773D03*
X015649Y001758D03*
X013253Y001543D03*
X013253Y002065D03*
X012731Y002587D03*
X012700Y002618D03*
X012409Y002050D03*
X012424Y001758D03*
X011764Y001865D03*
X010274Y002065D03*
X010274Y001543D03*
D26*
X010274Y002050D03*
X011226Y002050D03*
X011226Y001558D03*
X012409Y001727D03*
X013253Y002050D03*
X012777Y002526D03*
X012747Y002556D03*
X012747Y003232D03*
X013207Y004215D03*
X015142Y002526D03*
X015173Y002556D03*
X015633Y002034D03*
X015618Y002019D03*
X014558Y002004D03*
X014558Y001558D03*
X014067Y001558D03*
X014067Y001543D03*
X014067Y001574D03*
X014067Y001589D03*
X014067Y001604D03*
X014067Y001620D03*
X014067Y001635D03*
D27*
X013476Y001681D03*
X013476Y001697D03*
X013476Y001911D03*
X013461Y001927D03*
X012340Y001712D03*
X012324Y001697D03*
X012294Y001650D03*
X012278Y001635D03*
X012263Y001620D03*
X012248Y001589D03*
X012201Y001543D03*
X011557Y001574D03*
X010482Y001681D03*
X010482Y001927D03*
X010067Y001927D03*
X010052Y001911D03*
X010052Y001697D03*
X010067Y001681D03*
X014935Y001650D03*
X015226Y001650D03*
D28*
X014566Y002019D03*
X012708Y003201D03*
X012401Y001773D03*
X011234Y001543D03*
D29*
X012378Y001804D03*
X012393Y001789D03*
X012378Y001988D03*
X013269Y001558D03*
X014543Y001574D03*
X014543Y001804D03*
X014543Y001819D03*
X014543Y001973D03*
X015602Y001988D03*
X015618Y002004D03*
X015602Y001835D03*
X015157Y003232D03*
D30*
X014551Y001988D03*
X014551Y001850D03*
X014551Y001835D03*
X015073Y001574D03*
X015610Y001804D03*
X015625Y001789D03*
X012401Y002034D03*
X012386Y002019D03*
X010267Y001558D03*
D31*
X010090Y001650D03*
X010075Y001666D03*
X010075Y001942D03*
X010090Y001958D03*
X010459Y001958D03*
X010474Y001942D03*
X010474Y001666D03*
X010459Y001650D03*
X010996Y001697D03*
X011027Y001666D03*
X010996Y001911D03*
X011027Y001942D03*
X011042Y001958D03*
X011764Y001973D03*
X012271Y001958D03*
X012286Y001850D03*
X012255Y001604D03*
X012224Y001574D03*
X013437Y001650D03*
X013453Y001666D03*
X013453Y001942D03*
X013437Y001958D03*
X014958Y001635D03*
X015203Y001635D03*
X015510Y001850D03*
X015679Y001743D03*
X013084Y003478D03*
X014712Y004890D03*
D32*
X014981Y003508D03*
X014535Y001789D03*
X014535Y001773D03*
X014535Y001589D03*
X015073Y001589D03*
X015610Y001819D03*
X012370Y001835D03*
X011203Y002034D03*
X011203Y001574D03*
D33*
X011764Y001743D03*
X011764Y001758D03*
X011180Y001988D03*
X010274Y002034D03*
X010274Y001574D03*
X012793Y003263D03*
X013038Y003447D03*
X013207Y003908D03*
X013207Y003938D03*
X013207Y003969D03*
X013207Y004030D03*
X013207Y004061D03*
X013207Y004092D03*
X015096Y002495D03*
X015080Y001620D03*
X013284Y001604D03*
X013284Y002004D03*
X017599Y002019D03*
X017614Y002034D03*
X017599Y002050D03*
X017614Y002065D03*
X017614Y002004D03*
X017599Y001988D03*
X017614Y001973D03*
D34*
X015073Y001604D03*
X013276Y001589D03*
X013276Y002019D03*
D35*
X011764Y001727D03*
X011165Y001973D03*
X010274Y002019D03*
X010274Y001589D03*
X013207Y003846D03*
X014927Y003478D03*
D36*
X013292Y001988D03*
X013292Y001620D03*
X011173Y001620D03*
X011173Y001604D03*
X011173Y002004D03*
D37*
X011764Y001697D03*
X011764Y001681D03*
X010274Y001604D03*
X010274Y002004D03*
X013008Y003416D03*
X017046Y001865D03*
X017046Y001835D03*
X017046Y001804D03*
X017046Y001773D03*
D38*
X014896Y003447D03*
X011764Y001666D03*
X010274Y001620D03*
X010274Y001988D03*
D39*
X010121Y001973D03*
X010121Y001635D03*
X010428Y001635D03*
X011764Y001927D03*
X013407Y001973D03*
X013407Y001635D03*
X014604Y002065D03*
X015034Y003570D03*
X015034Y003600D03*
D40*
X011756Y001712D03*
X011157Y001635D03*
D41*
X011764Y002050D03*
X013130Y001650D03*
D42*
X011756Y001942D03*
X011756Y001958D03*
X011035Y001650D03*
D43*
X011764Y002096D03*
X012639Y002541D03*
X012639Y002572D03*
X012608Y002602D03*
X012608Y002633D03*
X012639Y002664D03*
X012639Y002695D03*
X012608Y002725D03*
X012608Y002756D03*
X012578Y002787D03*
X012578Y002817D03*
X012608Y002848D03*
X012608Y002879D03*
X012578Y002910D03*
X012578Y002940D03*
X012608Y002971D03*
X012608Y003002D03*
X012578Y003032D03*
X012578Y003063D03*
X012608Y003094D03*
X012608Y003124D03*
X012578Y003155D03*
X012639Y003155D03*
X012639Y003186D03*
X012608Y003217D03*
X012670Y003217D03*
X012670Y003247D03*
X012700Y003278D03*
X012700Y003309D03*
X012731Y003339D03*
X012731Y003370D03*
X012793Y003370D03*
X012793Y003339D03*
X012823Y003309D03*
X012823Y003278D03*
X012793Y003247D03*
X012793Y003217D03*
X012762Y003186D03*
X012762Y003155D03*
X012731Y003124D03*
X012731Y003094D03*
X012700Y003063D03*
X012700Y003032D03*
X012670Y003002D03*
X012670Y002971D03*
X012700Y002940D03*
X012700Y002910D03*
X012670Y002879D03*
X012670Y002848D03*
X012700Y002817D03*
X012700Y002787D03*
X012670Y002756D03*
X012670Y002725D03*
X012700Y002695D03*
X012700Y002664D03*
X012670Y002633D03*
X012670Y002602D03*
X012700Y002572D03*
X012700Y002541D03*
X012670Y002510D03*
X012731Y002510D03*
X012731Y002480D03*
X012700Y002449D03*
X012762Y002449D03*
X012762Y002418D03*
X012793Y002387D03*
X012823Y002418D03*
X012823Y002449D03*
X012793Y002480D03*
X012793Y002510D03*
X012823Y002541D03*
X012823Y002572D03*
X012793Y002602D03*
X012793Y002633D03*
X012762Y002664D03*
X012762Y002695D03*
X012731Y002725D03*
X012731Y002756D03*
X012731Y002848D03*
X012731Y002879D03*
X012731Y002971D03*
X012731Y003002D03*
X012639Y003032D03*
X012639Y003063D03*
X012670Y003094D03*
X012670Y003124D03*
X012700Y003155D03*
X012700Y003186D03*
X012731Y003217D03*
X012731Y003247D03*
X012762Y003278D03*
X012762Y003309D03*
X012854Y003339D03*
X012854Y003370D03*
X012823Y003401D03*
X012885Y003401D03*
X012885Y003432D03*
X012946Y003432D03*
X012946Y003401D03*
X012915Y003370D03*
X012915Y003339D03*
X012885Y003309D03*
X012885Y003278D03*
X012915Y003247D03*
X012946Y003278D03*
X012946Y003309D03*
X012977Y003339D03*
X012977Y003370D03*
X013008Y003401D03*
X013008Y003432D03*
X013038Y003462D03*
X013069Y003432D03*
X013069Y003401D03*
X013100Y003370D03*
X013100Y003339D03*
X013130Y003309D03*
X013161Y003339D03*
X013161Y003370D03*
X013130Y003401D03*
X013130Y003432D03*
X013100Y003462D03*
X013161Y003462D03*
X013192Y003432D03*
X013192Y003401D03*
X013223Y003370D03*
X013192Y003309D03*
X013069Y003309D03*
X013038Y003339D03*
X013038Y003370D03*
X013008Y003309D03*
X013008Y003278D03*
X012854Y003247D03*
X012639Y003278D03*
X012639Y002940D03*
X012639Y002910D03*
X012639Y002817D03*
X012639Y002787D03*
X012578Y002695D03*
X012731Y002633D03*
X012731Y002602D03*
X012762Y002572D03*
X012762Y002541D03*
X012854Y002510D03*
X012854Y002480D03*
X012885Y002449D03*
X012885Y002418D03*
X012915Y002387D03*
X012915Y002357D03*
X012885Y002326D03*
X012854Y002357D03*
X012854Y002387D03*
X012946Y002418D03*
X012946Y002449D03*
X012915Y002480D03*
X012915Y002510D03*
X012885Y002541D03*
X012977Y002480D03*
X013008Y002449D03*
X013008Y002418D03*
X013038Y002387D03*
X013038Y002357D03*
X013008Y002326D03*
X013008Y002295D03*
X013069Y002295D03*
X013069Y002326D03*
X013100Y002357D03*
X013100Y002387D03*
X013130Y002418D03*
X013130Y002449D03*
X013069Y002449D03*
X013069Y002418D03*
X013161Y002387D03*
X013161Y002357D03*
X013130Y002326D03*
X013130Y002295D03*
X013100Y002265D03*
X013161Y002265D03*
X013192Y002295D03*
X013192Y002326D03*
X013223Y002357D03*
X013223Y002387D03*
X013253Y002418D03*
X013253Y002449D03*
X013192Y002449D03*
X013192Y002418D03*
X013284Y002387D03*
X013284Y002357D03*
X013315Y002326D03*
X013315Y002295D03*
X013345Y002265D03*
X013376Y002295D03*
X013376Y002326D03*
X013345Y002357D03*
X013345Y002387D03*
X013315Y002418D03*
X013315Y002449D03*
X013376Y002449D03*
X013376Y002418D03*
X013407Y002387D03*
X013407Y002357D03*
X013437Y002326D03*
X013437Y002295D03*
X013407Y002265D03*
X013468Y002265D03*
X013499Y002295D03*
X013499Y002326D03*
X013530Y002357D03*
X013530Y002387D03*
X013560Y002418D03*
X013560Y002449D03*
X013499Y002449D03*
X013499Y002418D03*
X013468Y002387D03*
X013468Y002357D03*
X013437Y002418D03*
X013437Y002449D03*
X013591Y002387D03*
X013591Y002357D03*
X013560Y002326D03*
X013560Y002295D03*
X013530Y002265D03*
X013591Y002265D03*
X013622Y002295D03*
X013622Y002326D03*
X013652Y002357D03*
X013652Y002387D03*
X013622Y002418D03*
X013622Y002449D03*
X013683Y002449D03*
X013683Y002418D03*
X013714Y002387D03*
X013714Y002357D03*
X013745Y002326D03*
X013745Y002295D03*
X013775Y002265D03*
X013806Y002295D03*
X013806Y002326D03*
X013837Y002357D03*
X013837Y002387D03*
X013867Y002418D03*
X013867Y002449D03*
X013806Y002449D03*
X013806Y002418D03*
X013775Y002387D03*
X013775Y002357D03*
X013745Y002418D03*
X013745Y002449D03*
X013683Y002326D03*
X013683Y002295D03*
X013652Y002265D03*
X013714Y002265D03*
X013837Y002265D03*
X013867Y002295D03*
X013867Y002326D03*
X013898Y002357D03*
X013898Y002387D03*
X013929Y002418D03*
X013929Y002449D03*
X013990Y002449D03*
X013990Y002418D03*
X013960Y002387D03*
X013960Y002357D03*
X013990Y002326D03*
X013990Y002295D03*
X013960Y002265D03*
X013929Y002295D03*
X013929Y002326D03*
X013898Y002265D03*
X014021Y002265D03*
X014052Y002295D03*
X014052Y002326D03*
X014082Y002357D03*
X014082Y002387D03*
X014052Y002418D03*
X014052Y002449D03*
X014113Y002449D03*
X014113Y002418D03*
X014144Y002387D03*
X014144Y002357D03*
X014174Y002326D03*
X014174Y002295D03*
X014144Y002265D03*
X014113Y002295D03*
X014113Y002326D03*
X014082Y002265D03*
X014021Y002357D03*
X014021Y002387D03*
X014174Y002418D03*
X014174Y002449D03*
X014236Y002449D03*
X014236Y002418D03*
X014267Y002387D03*
X014267Y002357D03*
X014297Y002326D03*
X014297Y002295D03*
X014267Y002265D03*
X014236Y002295D03*
X014236Y002326D03*
X014205Y002357D03*
X014205Y002387D03*
X014297Y002418D03*
X014297Y002449D03*
X014359Y002449D03*
X014359Y002418D03*
X014389Y002387D03*
X014389Y002357D03*
X014359Y002326D03*
X014359Y002295D03*
X014389Y002265D03*
X014420Y002295D03*
X014420Y002326D03*
X014451Y002357D03*
X014451Y002387D03*
X014482Y002418D03*
X014482Y002449D03*
X014543Y002449D03*
X014543Y002418D03*
X014574Y002387D03*
X014574Y002357D03*
X014604Y002326D03*
X014604Y002295D03*
X014574Y002265D03*
X014543Y002295D03*
X014543Y002326D03*
X014512Y002357D03*
X014512Y002387D03*
X014482Y002326D03*
X014482Y002295D03*
X014512Y002265D03*
X014451Y002265D03*
X014328Y002265D03*
X014328Y002357D03*
X014328Y002387D03*
X014420Y002418D03*
X014420Y002449D03*
X014604Y002449D03*
X014604Y002418D03*
X014635Y002387D03*
X014635Y002357D03*
X014666Y002326D03*
X014666Y002295D03*
X014697Y002265D03*
X014727Y002295D03*
X014727Y002326D03*
X014697Y002357D03*
X014697Y002387D03*
X014727Y002418D03*
X014727Y002449D03*
X014666Y002449D03*
X014666Y002418D03*
X014758Y002387D03*
X014758Y002357D03*
X014789Y002326D03*
X014789Y002295D03*
X014819Y002265D03*
X014850Y002295D03*
X014850Y002326D03*
X014819Y002357D03*
X014819Y002387D03*
X014789Y002418D03*
X014789Y002449D03*
X014850Y002449D03*
X014850Y002418D03*
X014881Y002387D03*
X014881Y002357D03*
X014911Y002326D03*
X014911Y002295D03*
X014973Y002295D03*
X014973Y002326D03*
X015004Y002357D03*
X015004Y002387D03*
X015034Y002418D03*
X015034Y002449D03*
X015004Y002480D03*
X015004Y002510D03*
X015034Y002541D03*
X015065Y002510D03*
X015065Y002480D03*
X015096Y002449D03*
X015096Y002418D03*
X015126Y002387D03*
X015157Y002418D03*
X015157Y002449D03*
X015126Y002480D03*
X015126Y002510D03*
X015096Y002541D03*
X015096Y002572D03*
X015126Y002602D03*
X015126Y002633D03*
X015157Y002664D03*
X015157Y002695D03*
X015188Y002725D03*
X015188Y002756D03*
X015219Y002787D03*
X015219Y002817D03*
X015249Y002848D03*
X015249Y002879D03*
X015219Y002910D03*
X015219Y002940D03*
X015249Y002971D03*
X015249Y003002D03*
X015219Y003032D03*
X015219Y003063D03*
X015249Y003094D03*
X015249Y003124D03*
X015219Y003155D03*
X015219Y003186D03*
X015249Y003217D03*
X015249Y003247D03*
X015219Y003278D03*
X015219Y003309D03*
X015188Y003339D03*
X015157Y003309D03*
X015157Y003278D03*
X015126Y003247D03*
X015126Y003217D03*
X015096Y003186D03*
X015065Y003217D03*
X015065Y003247D03*
X015034Y003278D03*
X015034Y003309D03*
X015004Y003339D03*
X015004Y003370D03*
X015034Y003401D03*
X015034Y003432D03*
X015004Y003462D03*
X015004Y003493D03*
X015034Y003524D03*
X015034Y003554D03*
X015004Y003585D03*
X015004Y003616D03*
X015034Y003647D03*
X015034Y003677D03*
X015004Y003708D03*
X015004Y003739D03*
X015034Y003769D03*
X015034Y003800D03*
X015004Y003831D03*
X014988Y003846D03*
X014942Y003831D03*
X014927Y003846D03*
X014911Y003800D03*
X014911Y003769D03*
X014881Y003739D03*
X014881Y003708D03*
X014911Y003677D03*
X014911Y003647D03*
X014850Y003647D03*
X014850Y003677D03*
X014819Y003708D03*
X014819Y003739D03*
X014789Y003769D03*
X014789Y003800D03*
X014819Y003831D03*
X014850Y003800D03*
X014850Y003769D03*
X014881Y003831D03*
X014865Y003846D03*
X014789Y003892D03*
X014789Y003923D03*
X014758Y003954D03*
X014758Y003984D03*
X014789Y004015D03*
X014789Y004046D03*
X014758Y004076D03*
X014758Y004107D03*
X014789Y004138D03*
X014789Y004169D03*
X014758Y004199D03*
X014758Y004230D03*
X014789Y004261D03*
X014789Y004291D03*
X014758Y004322D03*
X014758Y004353D03*
X014789Y004384D03*
X014789Y004414D03*
X014758Y004445D03*
X014758Y004476D03*
X014789Y004506D03*
X014789Y004537D03*
X014758Y004568D03*
X014758Y004599D03*
X014789Y004629D03*
X014789Y004660D03*
X014758Y004691D03*
X014758Y004721D03*
X014789Y004752D03*
X014789Y004783D03*
X014758Y004813D03*
X014758Y004844D03*
X014789Y004875D03*
X014727Y004875D03*
X014727Y004906D03*
X014666Y004906D03*
X014666Y004875D03*
X014697Y004844D03*
X014697Y004813D03*
X014727Y004783D03*
X014727Y004752D03*
X014697Y004721D03*
X014697Y004691D03*
X014727Y004660D03*
X014727Y004629D03*
X014697Y004599D03*
X014697Y004568D03*
X014727Y004537D03*
X014727Y004506D03*
X014697Y004476D03*
X014697Y004445D03*
X014727Y004414D03*
X014727Y004384D03*
X014697Y004353D03*
X014697Y004322D03*
X014727Y004291D03*
X014727Y004261D03*
X014697Y004230D03*
X014697Y004199D03*
X014727Y004169D03*
X014727Y004138D03*
X014697Y004107D03*
X014697Y004076D03*
X014727Y004046D03*
X014727Y004015D03*
X014697Y003984D03*
X014697Y003954D03*
X014727Y003923D03*
X014727Y003892D03*
X014697Y003861D03*
X014697Y003831D03*
X014727Y003800D03*
X014727Y003769D03*
X014697Y003739D03*
X014697Y003708D03*
X014727Y003677D03*
X014727Y003647D03*
X014666Y003647D03*
X014666Y003677D03*
X014635Y003708D03*
X014635Y003739D03*
X014604Y003769D03*
X014604Y003800D03*
X014574Y003831D03*
X014558Y003846D03*
X014512Y003831D03*
X014497Y003846D03*
X014482Y003800D03*
X014482Y003769D03*
X014512Y003739D03*
X014512Y003708D03*
X014482Y003677D03*
X014482Y003647D03*
X014543Y003647D03*
X014543Y003677D03*
X014574Y003708D03*
X014574Y003739D03*
X014543Y003769D03*
X014543Y003800D03*
X014635Y003831D03*
X014635Y003861D03*
X014666Y003892D03*
X014666Y003923D03*
X014635Y003954D03*
X014635Y003984D03*
X014666Y004015D03*
X014666Y004046D03*
X014635Y004076D03*
X014635Y004107D03*
X014666Y004138D03*
X014666Y004169D03*
X014635Y004199D03*
X014635Y004230D03*
X014666Y004261D03*
X014666Y004291D03*
X014635Y004322D03*
X014635Y004353D03*
X014666Y004384D03*
X014666Y004414D03*
X014635Y004445D03*
X014635Y004476D03*
X014666Y004506D03*
X014666Y004537D03*
X014635Y004568D03*
X014635Y004599D03*
X014666Y004629D03*
X014666Y004660D03*
X014635Y004691D03*
X014635Y004721D03*
X014666Y004752D03*
X014666Y004783D03*
X014635Y004813D03*
X014635Y004844D03*
X013345Y004199D03*
X013315Y004169D03*
X013315Y004138D03*
X013345Y004107D03*
X013345Y004076D03*
X013315Y004046D03*
X013315Y004015D03*
X013345Y003984D03*
X013345Y003954D03*
X013315Y003923D03*
X013315Y003892D03*
X013345Y003861D03*
X013345Y003831D03*
X013315Y003800D03*
X013315Y003769D03*
X013345Y003739D03*
X013345Y003708D03*
X013315Y003677D03*
X013315Y003647D03*
X013376Y003647D03*
X013376Y003677D03*
X013407Y003708D03*
X013407Y003739D03*
X013437Y003769D03*
X013437Y003800D03*
X013407Y003831D03*
X013376Y003800D03*
X013376Y003769D03*
X013284Y003739D03*
X013284Y003708D03*
X013253Y003677D03*
X013253Y003647D03*
X013192Y003647D03*
X013192Y003677D03*
X013223Y003708D03*
X013223Y003739D03*
X013253Y003769D03*
X013253Y003800D03*
X013223Y003831D03*
X013223Y003861D03*
X013253Y003892D03*
X013253Y003923D03*
X013223Y003954D03*
X013223Y003984D03*
X013253Y004015D03*
X013253Y004046D03*
X013223Y004076D03*
X013223Y004107D03*
X013253Y004138D03*
X013253Y004169D03*
X013223Y004199D03*
X013192Y004169D03*
X013192Y004138D03*
X013161Y004107D03*
X013161Y004076D03*
X013130Y004046D03*
X013130Y004015D03*
X013100Y003984D03*
X013100Y003954D03*
X013130Y003923D03*
X013130Y003892D03*
X013100Y003861D03*
X013100Y003831D03*
X013130Y003800D03*
X013130Y003769D03*
X013100Y003739D03*
X013100Y003708D03*
X013130Y003677D03*
X013130Y003647D03*
X013069Y003647D03*
X013069Y003677D03*
X013038Y003708D03*
X013038Y003739D03*
X013008Y003769D03*
X013008Y003800D03*
X013038Y003831D03*
X013038Y003861D03*
X013069Y003892D03*
X013069Y003923D03*
X013038Y003954D03*
X013038Y003984D03*
X013069Y004015D03*
X013069Y004046D03*
X013100Y004076D03*
X013100Y004107D03*
X013130Y004138D03*
X013130Y004169D03*
X013100Y004199D03*
X013069Y004169D03*
X013069Y004138D03*
X013038Y004107D03*
X013038Y004076D03*
X013161Y003984D03*
X013161Y003954D03*
X013192Y003923D03*
X013192Y003892D03*
X013161Y003861D03*
X013161Y003831D03*
X013192Y003800D03*
X013192Y003769D03*
X013161Y003739D03*
X013161Y003708D03*
X013069Y003769D03*
X013069Y003800D03*
X012977Y003831D03*
X012961Y003846D03*
X012915Y003831D03*
X012900Y003846D03*
X012885Y003800D03*
X012885Y003769D03*
X012915Y003739D03*
X012915Y003708D03*
X012885Y003677D03*
X012885Y003647D03*
X012946Y003647D03*
X012946Y003677D03*
X012977Y003708D03*
X012977Y003739D03*
X012946Y003769D03*
X012946Y003800D03*
X012854Y003831D03*
X012823Y003800D03*
X012823Y003769D03*
X012793Y003739D03*
X012793Y003708D03*
X012823Y003677D03*
X012854Y003708D03*
X012854Y003739D03*
X013008Y003677D03*
X013008Y003647D03*
X012977Y003462D03*
X013284Y003831D03*
X013284Y003861D03*
X013284Y003954D03*
X013284Y003984D03*
X013284Y004076D03*
X013284Y004107D03*
X013284Y004199D03*
X013376Y004138D03*
X013376Y004046D03*
X013376Y004015D03*
X013376Y003923D03*
X013376Y003892D03*
X013453Y003846D03*
X013468Y003831D03*
X013499Y003800D03*
X013499Y003769D03*
X013530Y003739D03*
X013530Y003708D03*
X013560Y003677D03*
X013560Y003647D03*
X013499Y003647D03*
X013499Y003677D03*
X013468Y003708D03*
X013468Y003739D03*
X013437Y003677D03*
X013437Y003647D03*
X013591Y003708D03*
X013591Y003739D03*
X013560Y003769D03*
X013560Y003800D03*
X013530Y003831D03*
X013514Y003846D03*
X013576Y003846D03*
X013591Y003831D03*
X013622Y003800D03*
X013622Y003769D03*
X013652Y003739D03*
X013652Y003708D03*
X013622Y003677D03*
X013622Y003647D03*
X013683Y003647D03*
X013683Y003677D03*
X013714Y003708D03*
X013714Y003739D03*
X013745Y003769D03*
X013745Y003800D03*
X013775Y003831D03*
X013760Y003846D03*
X013714Y003831D03*
X013699Y003846D03*
X013683Y003800D03*
X013683Y003769D03*
X013652Y003831D03*
X013637Y003846D03*
X013775Y003739D03*
X013775Y003708D03*
X013745Y003677D03*
X013745Y003647D03*
X013806Y003647D03*
X013806Y003677D03*
X013837Y003708D03*
X013837Y003739D03*
X013867Y003769D03*
X013867Y003800D03*
X013837Y003831D03*
X013821Y003846D03*
X013806Y003800D03*
X013806Y003769D03*
X013898Y003739D03*
X013898Y003708D03*
X013867Y003677D03*
X013867Y003647D03*
X013929Y003647D03*
X013929Y003677D03*
X013960Y003708D03*
X013960Y003739D03*
X013990Y003769D03*
X013990Y003800D03*
X013960Y003831D03*
X013944Y003846D03*
X013898Y003831D03*
X013883Y003846D03*
X013929Y003800D03*
X013929Y003769D03*
X014021Y003739D03*
X014021Y003708D03*
X014052Y003677D03*
X014052Y003647D03*
X014113Y003647D03*
X014113Y003677D03*
X014082Y003708D03*
X014082Y003739D03*
X014052Y003769D03*
X014052Y003800D03*
X014082Y003831D03*
X014067Y003846D03*
X014021Y003831D03*
X014006Y003846D03*
X014113Y003800D03*
X014113Y003769D03*
X014144Y003739D03*
X014144Y003708D03*
X014174Y003677D03*
X014174Y003647D03*
X014236Y003647D03*
X014236Y003677D03*
X014267Y003708D03*
X014267Y003739D03*
X014297Y003769D03*
X014297Y003800D03*
X014267Y003831D03*
X014251Y003846D03*
X014205Y003831D03*
X014190Y003846D03*
X014174Y003800D03*
X014174Y003769D03*
X014205Y003739D03*
X014205Y003708D03*
X014236Y003769D03*
X014236Y003800D03*
X014313Y003846D03*
X014328Y003831D03*
X014359Y003800D03*
X014359Y003769D03*
X014389Y003739D03*
X014389Y003708D03*
X014359Y003677D03*
X014359Y003647D03*
X014420Y003647D03*
X014420Y003677D03*
X014451Y003708D03*
X014451Y003739D03*
X014420Y003769D03*
X014420Y003800D03*
X014389Y003831D03*
X014374Y003846D03*
X014436Y003846D03*
X014451Y003831D03*
X014328Y003739D03*
X014328Y003708D03*
X014297Y003677D03*
X014297Y003647D03*
X014144Y003831D03*
X014128Y003846D03*
X013990Y003677D03*
X013990Y003647D03*
X014451Y003370D03*
X014451Y003339D03*
X014482Y003309D03*
X014512Y003339D03*
X014512Y003370D03*
X014543Y003401D03*
X014574Y003370D03*
X014574Y003339D03*
X014604Y003309D03*
X014635Y003339D03*
X014635Y003370D03*
X014604Y003401D03*
X014666Y003401D03*
X014666Y003432D03*
X014727Y003432D03*
X014727Y003401D03*
X014697Y003370D03*
X014697Y003339D03*
X014727Y003309D03*
X014758Y003339D03*
X014758Y003370D03*
X014789Y003401D03*
X014789Y003432D03*
X014819Y003462D03*
X014819Y003493D03*
X014881Y003493D03*
X014881Y003462D03*
X014911Y003432D03*
X014911Y003401D03*
X014881Y003370D03*
X014881Y003339D03*
X014911Y003309D03*
X014911Y003278D03*
X014973Y003278D03*
X014973Y003309D03*
X014942Y003339D03*
X014942Y003370D03*
X014973Y003401D03*
X014973Y003432D03*
X014942Y003462D03*
X014942Y003493D03*
X014911Y003524D03*
X014973Y003524D03*
X014973Y003554D03*
X014973Y003647D03*
X014973Y003677D03*
X014942Y003708D03*
X014942Y003739D03*
X014973Y003769D03*
X014973Y003800D03*
X015050Y003846D03*
X015065Y003831D03*
X015096Y003800D03*
X015096Y003769D03*
X015126Y003739D03*
X015126Y003708D03*
X015096Y003677D03*
X015096Y003647D03*
X015126Y003616D03*
X015126Y003585D03*
X015096Y003554D03*
X015096Y003524D03*
X015126Y003493D03*
X015126Y003462D03*
X015096Y003432D03*
X015096Y003401D03*
X015126Y003370D03*
X015126Y003339D03*
X015096Y003309D03*
X015096Y003278D03*
X015065Y003339D03*
X015065Y003370D03*
X015065Y003462D03*
X015065Y003493D03*
X015065Y003585D03*
X015065Y003616D03*
X015065Y003708D03*
X015065Y003739D03*
X015126Y003831D03*
X015111Y003846D03*
X014758Y003831D03*
X014758Y003861D03*
X014666Y003800D03*
X014666Y003769D03*
X014758Y003739D03*
X014758Y003708D03*
X014789Y003677D03*
X014789Y003647D03*
X014604Y003647D03*
X014604Y003677D03*
X014758Y003462D03*
X014850Y003432D03*
X014850Y003401D03*
X014819Y003370D03*
X014819Y003339D03*
X014789Y003309D03*
X014850Y003309D03*
X015004Y003247D03*
X015157Y003186D03*
X015157Y003155D03*
X015188Y003124D03*
X015188Y003094D03*
X015188Y003002D03*
X015188Y002971D03*
X015188Y002879D03*
X015188Y002848D03*
X015280Y002817D03*
X015280Y002787D03*
X015249Y002756D03*
X015249Y002725D03*
X015219Y002695D03*
X015219Y002664D03*
X015249Y002633D03*
X015249Y002602D03*
X015219Y002572D03*
X015219Y002541D03*
X015249Y002510D03*
X015280Y002541D03*
X015280Y002572D03*
X015311Y002602D03*
X015311Y002633D03*
X015280Y002664D03*
X015280Y002695D03*
X015311Y002725D03*
X015311Y002756D03*
X015341Y002787D03*
X015341Y002817D03*
X015311Y002848D03*
X015311Y002879D03*
X015341Y002910D03*
X015341Y002940D03*
X015311Y002971D03*
X015311Y003002D03*
X015341Y003032D03*
X015341Y003063D03*
X015311Y003094D03*
X015311Y003124D03*
X015280Y003155D03*
X015280Y003186D03*
X015188Y003217D03*
X015188Y003247D03*
X015280Y003063D03*
X015280Y003032D03*
X015280Y002940D03*
X015280Y002910D03*
X015341Y002695D03*
X015188Y002633D03*
X015188Y002602D03*
X015157Y002572D03*
X015157Y002541D03*
X015188Y002510D03*
X015188Y002480D03*
X015065Y002387D03*
X015065Y002357D03*
X015034Y002326D03*
X014942Y002357D03*
X014942Y002387D03*
X014911Y002418D03*
X014911Y002449D03*
X014942Y002480D03*
X014973Y002449D03*
X014973Y002418D03*
X014758Y002265D03*
X014635Y002265D03*
X014205Y002265D03*
X013284Y002265D03*
X013253Y002295D03*
X013253Y002326D03*
X013223Y002265D03*
X013253Y002080D03*
X013115Y001942D03*
X013115Y001666D03*
X012946Y002295D03*
X012946Y002326D03*
X012977Y002357D03*
X012977Y002387D03*
X014297Y003309D03*
X014359Y003309D03*
X014389Y003339D03*
X014420Y003309D03*
X014543Y003309D03*
X014666Y003309D03*
X013192Y004015D03*
X013192Y004046D03*
X013161Y004199D03*
D44*
X013368Y004169D03*
X012616Y003247D03*
X012585Y003186D03*
X012585Y002664D03*
X013107Y001927D03*
X013107Y001681D03*
X015211Y002449D03*
X015334Y002664D03*
X015165Y003063D03*
X015303Y003217D03*
X014950Y003585D03*
X014950Y003616D03*
D45*
X015027Y003539D03*
X014581Y002050D03*
X012677Y002679D03*
X012677Y003140D03*
X012693Y003171D03*
X011249Y002065D03*
X011756Y001896D03*
X011756Y001881D03*
X012416Y001743D03*
D46*
X017053Y001789D03*
X017053Y001819D03*
X017053Y001850D03*
D47*
X013138Y001958D03*
D48*
X011756Y002065D03*
X011756Y002080D03*
D49*
X013960Y002280D03*
D50*
X013960Y002311D03*
D51*
X013960Y002341D03*
D52*
X013944Y002372D03*
X013944Y003723D03*
D53*
X013960Y002403D03*
D54*
X013960Y002434D03*
D55*
X013960Y002464D03*
D56*
X012662Y002710D03*
X012647Y002894D03*
X012647Y003017D03*
X015042Y003631D03*
X015257Y003078D03*
X015257Y002710D03*
X014720Y004860D03*
D57*
X014735Y003293D03*
D58*
X012946Y003324D03*
X012915Y003293D03*
D59*
X014766Y003324D03*
D60*
X014804Y003355D03*
D61*
X012961Y003355D03*
D62*
X014819Y003386D03*
D63*
X012977Y003386D03*
D64*
X014858Y003416D03*
D65*
X013967Y003662D03*
X013952Y003693D03*
D66*
X013952Y003754D03*
X013952Y003785D03*
D67*
X013960Y003815D03*
M02*
