%
M48
M72
T01C0.0100
T02C0.0118
T03C0.0157
T04C0.0197
T05C0.0236
T06C0.0400
T07C0.0551
T08C0.0700
T09C0.0787
T10C0.0866
T11C0.1260
T12C0.1661
%
T01
X10633Y22444
X10633Y22719
X10908Y22719
X10913Y22444
T02
X12424Y23408
T03
X11105Y21479
T04
X10802Y23956
X21759Y11109
T05
X7444Y3029
X9402Y1814
X12747Y3983
X14431Y4325
X15574Y4397
X16715Y4314
X15999Y5582
X14486Y5806
X12011Y8245
X11056Y8251
X11774Y9708
X13782Y8920
X15456Y8448
X16056Y9619
X17404Y10593
X19748Y12492
X18728Y13761
X19836Y16125
X22375Y16715
X22208Y18113
X26307Y17333
X26398Y15528
X26398Y12329
X26368Y10110
X25278Y7306
X22129Y3694
X20639Y2746
X17523Y1765
X13241Y1666
X13023Y2743
X10155Y4983
X10111Y6897
X5593Y11912
X6430Y13192
X6578Y14816
X7611Y15790
X9393Y15987
X8841Y13448
X5042Y16774
X5295Y18131
X2365Y18226
X2365Y16351
X2490Y20351
X5542Y23973
X6785Y25128
X8194Y25780
X10723Y26392
X10723Y25113
X10771Y23487
X8924Y23015
X8088Y23717
X12532Y22119
X12385Y21440
X12739Y20534
X11794Y20249
X13428Y18950
X14137Y19629
X14944Y20692
X15534Y21243
X16765Y22080
X17700Y22424
X16617Y22965
X15731Y23704
X15780Y24393
X17306Y23900
X18143Y25426
X19521Y24983
X19471Y23408
X22380Y24028
X16322Y19334
X16952Y18290
X11952Y18536
X13960Y22119
X13866Y22995
X14649Y23211
X12975Y23960
X22209Y13254
X18034Y6906
X2539Y9484
X2293Y11556
T06
X12960Y25074
X13960Y25074
X14960Y25074
X14960Y26074
X13960Y26074
X12960Y26074
T07
X21243Y15534
X20849Y13960
X21243Y12385
T08
X20560Y6676
X23560Y6676
X7360Y6676
X4360Y6676
X4360Y21243
X7360Y21243
X20560Y21243
X23560Y21243
T09
X23999Y17208
X23999Y10711
T10
X25623Y19245
T11
X18818Y11154
X9101Y11154
X6086Y10416
T12
X8645Y8645
X3920Y13960
X8645Y19274
X19274Y19274
X19274Y8645
M30
