G75*
%MOIN*%
%OFA0B0*%
%FSLAX24Y24*%
%IPPOS*%
%LPD*%
%AMOC8*
5,1,8,0,0,1.08239X$1,22.5*
%
%ADD10C,0.1320*%
%ADD11C,0.2501*%
%ADD12C,0.0887*%
%ADD13C,0.1241*%
%ADD14R,0.0800X0.0800*%
%ADD15OC8,0.0800*%
%ADD16C,0.1110*%
%ADD17C,0.0847*%
%ADD18C,0.1720*%
%ADD19C,0.0926*%
%ADD20C,0.1721*%
D10*
X006086Y010416D03*
D11*
X003920Y013960D03*
D12*
X020849Y013960D02*
X021676Y013960D01*
X022070Y015534D02*
X021243Y015534D01*
X021243Y012385D02*
X022070Y012385D01*
D13*
X023408Y010711D02*
X024589Y010711D01*
X024589Y017208D02*
X023408Y017208D01*
D14*
X014960Y025074D03*
D15*
X013960Y025074D03*
X012960Y025074D03*
X012960Y026074D03*
X013960Y026074D03*
X014960Y026074D03*
D16*
X004885Y006676D02*
X003835Y006676D01*
X006835Y006676D02*
X007885Y006676D01*
X020035Y006676D02*
X021085Y006676D01*
X023035Y006676D02*
X024085Y006676D01*
X024085Y021243D02*
X023035Y021243D01*
X021085Y021243D02*
X020035Y021243D01*
X007885Y021243D02*
X006835Y021243D01*
X004885Y021243D02*
X003835Y021243D01*
D17*
X004353Y017739D03*
X016322Y024786D03*
X017503Y024786D03*
X018684Y024983D03*
X018684Y023999D03*
X018684Y025967D03*
X017503Y025967D03*
X016322Y025967D03*
X023408Y015928D03*
X024589Y015928D03*
X023408Y013960D03*
X023408Y011991D03*
X024589Y011991D03*
X021046Y010810D03*
X019078Y014747D03*
X014747Y008448D03*
X012778Y008448D03*
D18*
X009101Y011154D03*
X018818Y011154D03*
D19*
X025623Y019245D03*
D20*
X019274Y019274D03*
X008645Y019274D03*
X008645Y008645D03*
X019274Y008645D03*
M02*
