G75*
%MOIN*%
%OFA0B0*%
%FSLAX24Y24*%
%IPPOS*%
%LPD*%
%AMOC8*
5,1,8,0,0,1.08239X$1,22.5*
%
%ADD10R,0.0740X0.0740*%
%ADD11OC8,0.0740*%
%ADD12C,0.0856*%
%ADD13OC8,0.0660*%
%ADD14C,0.0740*%
%ADD15C,0.0740*%
%ADD16OC8,0.0827*%
%ADD17R,0.0827X0.0827*%
%ADD18C,0.0120*%
%ADD19C,0.0354*%
%ADD20C,0.0160*%
%ADD21C,0.0100*%
D10*
X023716Y007034D03*
D11*
X022716Y007034D03*
X022716Y008034D03*
X023716Y008034D03*
X023716Y009034D03*
X022716Y009034D03*
D12*
X013374Y008034D02*
X012517Y008034D01*
X012517Y006066D02*
X013374Y006066D01*
X013374Y004097D02*
X012517Y004097D01*
X007468Y016036D02*
X007468Y016892D01*
X006287Y016892D02*
X006287Y016036D01*
X006287Y018073D02*
X006287Y018930D01*
X007468Y018930D02*
X007468Y018073D01*
X008649Y018073D02*
X009505Y018073D01*
D13*
X022716Y015145D03*
X023716Y015145D03*
X023691Y011823D03*
X022691Y011823D03*
D14*
X022797Y004826D02*
X023537Y004826D01*
X023537Y003826D02*
X022797Y003826D01*
D15*
X020928Y010823D03*
X020928Y011823D03*
X020977Y014145D03*
X020977Y015145D03*
D16*
X004531Y018180D03*
X003531Y018180D03*
X002531Y018180D03*
X002531Y017180D03*
X003531Y017180D03*
D17*
X004531Y017180D03*
D18*
X000455Y019575D02*
X000455Y000627D01*
X024521Y000627D01*
X024521Y019575D01*
X000455Y019575D01*
X000455Y019541D02*
X024521Y019541D01*
X024521Y019423D02*
X007711Y019423D01*
X007779Y019394D02*
X007577Y019478D01*
X007359Y019478D01*
X007158Y019394D01*
X007003Y019240D01*
X006920Y019039D01*
X006920Y017964D01*
X007003Y017763D01*
X007083Y017683D01*
X007053Y017653D01*
X006642Y017653D01*
X006752Y017763D01*
X006835Y017964D01*
X006835Y019039D01*
X006752Y019240D01*
X006597Y019394D01*
X006396Y019478D01*
X006178Y019478D01*
X005976Y019394D01*
X005822Y019240D01*
X005739Y019039D01*
X005739Y017964D01*
X005822Y017763D01*
X005932Y017653D01*
X005742Y017653D01*
X005596Y017799D01*
X005596Y018611D01*
X005496Y018711D01*
X005176Y019031D01*
X004142Y019031D01*
X004042Y018931D01*
X003788Y018677D01*
X003752Y018713D01*
X003310Y018713D01*
X003059Y018462D01*
X002769Y018753D01*
X002591Y018753D01*
X002591Y018240D01*
X002471Y018240D01*
X002471Y018753D01*
X002294Y018753D01*
X001958Y018417D01*
X001958Y018240D01*
X002471Y018240D01*
X002471Y018120D01*
X001958Y018120D01*
X001958Y017942D01*
X002248Y017651D01*
X001998Y017401D01*
X001998Y016959D01*
X002310Y016646D01*
X002331Y016646D01*
X002331Y013454D01*
X005398Y010387D01*
X005515Y010270D01*
X007297Y010270D01*
X007349Y010218D01*
X007458Y010173D01*
X007576Y010173D01*
X007686Y010218D01*
X007769Y010302D01*
X007814Y010411D01*
X007814Y010529D01*
X007769Y010638D01*
X007717Y010690D01*
X007717Y015546D01*
X007779Y015571D01*
X007933Y015725D01*
X008016Y015927D01*
X008016Y017001D01*
X007933Y017203D01*
X007779Y017357D01*
X007577Y017440D01*
X007359Y017440D01*
X007295Y017414D01*
X007406Y017525D01*
X007577Y017525D01*
X007779Y017609D01*
X007933Y017763D01*
X008016Y017964D01*
X008016Y019039D01*
X007933Y019240D01*
X007779Y019394D01*
X007869Y019304D02*
X024521Y019304D01*
X024521Y019186D02*
X007955Y019186D01*
X008004Y019067D02*
X024521Y019067D01*
X024521Y018949D02*
X008016Y018949D01*
X008016Y018830D02*
X024521Y018830D01*
X024521Y018712D02*
X008016Y018712D01*
X008016Y018593D02*
X008471Y018593D01*
X008540Y018622D02*
X008339Y018538D01*
X008184Y018384D01*
X008101Y018182D01*
X008101Y017964D01*
X008184Y017763D01*
X008339Y017609D01*
X008449Y017563D01*
X008449Y012419D01*
X008424Y012444D01*
X008315Y012490D01*
X008196Y012490D01*
X008087Y012444D01*
X008004Y012361D01*
X007958Y012252D01*
X007958Y012133D01*
X008004Y012024D01*
X008087Y011941D01*
X008196Y011895D01*
X008270Y011895D01*
X008449Y011716D01*
X008449Y008131D01*
X008397Y008079D01*
X008352Y007970D01*
X008352Y007852D01*
X008397Y007743D01*
X008481Y007659D01*
X008590Y007614D01*
X008708Y007614D01*
X008818Y007659D01*
X008901Y007743D01*
X008946Y007852D01*
X008946Y007970D01*
X008901Y008079D01*
X008849Y008131D01*
X008849Y017525D01*
X009615Y017525D01*
X009816Y017609D01*
X009970Y017763D01*
X010054Y017964D01*
X010054Y018182D01*
X009970Y018384D01*
X009816Y018538D01*
X009615Y018622D01*
X008540Y018622D01*
X008275Y018475D02*
X008016Y018475D01*
X008016Y018356D02*
X008173Y018356D01*
X008124Y018238D02*
X008016Y018238D01*
X008016Y018119D02*
X008101Y018119D01*
X008101Y018001D02*
X008016Y018001D01*
X007982Y017882D02*
X008135Y017882D01*
X008184Y017764D02*
X007933Y017764D01*
X007815Y017645D02*
X008302Y017645D01*
X008449Y017527D02*
X007580Y017527D01*
X007655Y017408D02*
X008449Y017408D01*
X008449Y017290D02*
X007846Y017290D01*
X007946Y017171D02*
X008449Y017171D01*
X008449Y017053D02*
X007995Y017053D01*
X008016Y016934D02*
X008449Y016934D01*
X008449Y016816D02*
X008016Y016816D01*
X008016Y016697D02*
X008449Y016697D01*
X008449Y016579D02*
X008016Y016579D01*
X008016Y016460D02*
X008449Y016460D01*
X008449Y016342D02*
X008016Y016342D01*
X008016Y016223D02*
X008449Y016223D01*
X008449Y016105D02*
X008016Y016105D01*
X008016Y015986D02*
X008449Y015986D01*
X008449Y015868D02*
X007992Y015868D01*
X007943Y015749D02*
X008449Y015749D01*
X008449Y015631D02*
X007838Y015631D01*
X007717Y015512D02*
X008449Y015512D01*
X008449Y015394D02*
X007717Y015394D01*
X007717Y015275D02*
X008449Y015275D01*
X008449Y015157D02*
X007717Y015157D01*
X007717Y015038D02*
X008449Y015038D01*
X008449Y014920D02*
X007717Y014920D01*
X007717Y014801D02*
X008449Y014801D01*
X008449Y014683D02*
X007717Y014683D01*
X007717Y014564D02*
X008449Y014564D01*
X008449Y014446D02*
X007717Y014446D01*
X007717Y014327D02*
X008449Y014327D01*
X008449Y014209D02*
X007717Y014209D01*
X007717Y014090D02*
X008449Y014090D01*
X008449Y013972D02*
X007717Y013972D01*
X007717Y013853D02*
X008449Y013853D01*
X008449Y013735D02*
X007717Y013735D01*
X007717Y013616D02*
X008449Y013616D01*
X008449Y013498D02*
X007717Y013498D01*
X007717Y013379D02*
X008449Y013379D01*
X008449Y013261D02*
X007717Y013261D01*
X007717Y013142D02*
X008449Y013142D01*
X008449Y013024D02*
X007717Y013024D01*
X007717Y012905D02*
X008449Y012905D01*
X008449Y012787D02*
X007717Y012787D01*
X007717Y012668D02*
X008449Y012668D01*
X008449Y012550D02*
X007717Y012550D01*
X007717Y012431D02*
X008074Y012431D01*
X007984Y012313D02*
X007717Y012313D01*
X007717Y012194D02*
X007958Y012194D01*
X007982Y012076D02*
X007717Y012076D01*
X007717Y011957D02*
X008071Y011957D01*
X008327Y011839D02*
X007717Y011839D01*
X007717Y011720D02*
X008445Y011720D01*
X008449Y011602D02*
X007717Y011602D01*
X007717Y011483D02*
X008449Y011483D01*
X008449Y011365D02*
X007717Y011365D01*
X007717Y011246D02*
X008449Y011246D01*
X008449Y011128D02*
X007717Y011128D01*
X007717Y011009D02*
X008449Y011009D01*
X008449Y010891D02*
X007717Y010891D01*
X007717Y010772D02*
X008449Y010772D01*
X008449Y010654D02*
X007754Y010654D01*
X007812Y010535D02*
X008449Y010535D01*
X008449Y010417D02*
X007814Y010417D01*
X007766Y010298D02*
X008449Y010298D01*
X008449Y010180D02*
X007592Y010180D01*
X007442Y010180D02*
X000455Y010180D01*
X000455Y010298D02*
X005487Y010298D01*
X005369Y010417D02*
X000455Y010417D01*
X000455Y010535D02*
X005250Y010535D01*
X005132Y010654D02*
X000455Y010654D01*
X000455Y010772D02*
X005013Y010772D01*
X004895Y010891D02*
X000455Y010891D01*
X000455Y011009D02*
X004776Y011009D01*
X004658Y011128D02*
X000455Y011128D01*
X000455Y011246D02*
X004539Y011246D01*
X004421Y011365D02*
X000455Y011365D01*
X000455Y011483D02*
X004302Y011483D01*
X004184Y011602D02*
X000455Y011602D01*
X000455Y011720D02*
X004065Y011720D01*
X003947Y011839D02*
X000455Y011839D01*
X000455Y011957D02*
X003828Y011957D01*
X003710Y012076D02*
X000455Y012076D01*
X000455Y012194D02*
X003591Y012194D01*
X003473Y012313D02*
X000455Y012313D01*
X000455Y012431D02*
X003354Y012431D01*
X003236Y012550D02*
X000455Y012550D01*
X000455Y012668D02*
X003117Y012668D01*
X002999Y012787D02*
X000455Y012787D01*
X000455Y012905D02*
X002880Y012905D01*
X002762Y013024D02*
X000455Y013024D01*
X000455Y013142D02*
X002643Y013142D01*
X002525Y013261D02*
X000455Y013261D01*
X000455Y013379D02*
X002406Y013379D01*
X002331Y013498D02*
X000455Y013498D01*
X000455Y013616D02*
X002331Y013616D01*
X002331Y013735D02*
X000455Y013735D01*
X000455Y013853D02*
X002331Y013853D01*
X002331Y013972D02*
X000455Y013972D01*
X000455Y014090D02*
X002331Y014090D01*
X002331Y014209D02*
X000455Y014209D01*
X000455Y014327D02*
X002331Y014327D01*
X002331Y014446D02*
X000455Y014446D01*
X000455Y014564D02*
X002331Y014564D01*
X002331Y014683D02*
X000455Y014683D01*
X000455Y014801D02*
X002331Y014801D01*
X002331Y014920D02*
X000455Y014920D01*
X000455Y015038D02*
X002331Y015038D01*
X002331Y015157D02*
X000455Y015157D01*
X000455Y015275D02*
X002331Y015275D01*
X002331Y015394D02*
X000455Y015394D01*
X000455Y015512D02*
X002331Y015512D01*
X002331Y015631D02*
X000455Y015631D01*
X000455Y015749D02*
X002331Y015749D01*
X002331Y015868D02*
X000455Y015868D01*
X000455Y015986D02*
X002331Y015986D01*
X002331Y016105D02*
X000455Y016105D01*
X000455Y016223D02*
X002331Y016223D01*
X002331Y016342D02*
X000455Y016342D01*
X000455Y016460D02*
X002331Y016460D01*
X002331Y016579D02*
X000455Y016579D01*
X000455Y016697D02*
X002259Y016697D01*
X002141Y016816D02*
X000455Y016816D01*
X000455Y016934D02*
X002022Y016934D01*
X001998Y017053D02*
X000455Y017053D01*
X000455Y017171D02*
X001998Y017171D01*
X001998Y017290D02*
X000455Y017290D01*
X000455Y017408D02*
X002005Y017408D01*
X002124Y017527D02*
X000455Y017527D01*
X000455Y017645D02*
X002242Y017645D01*
X002136Y017764D02*
X000455Y017764D01*
X000455Y017882D02*
X002018Y017882D01*
X001958Y018001D02*
X000455Y018001D01*
X000455Y018119D02*
X001958Y018119D01*
X001958Y018356D02*
X000455Y018356D01*
X000455Y018238D02*
X002471Y018238D01*
X002471Y018356D02*
X002591Y018356D01*
X002591Y018475D02*
X002471Y018475D01*
X002471Y018593D02*
X002591Y018593D01*
X002591Y018712D02*
X002471Y018712D01*
X002252Y018712D02*
X000455Y018712D01*
X000455Y018830D02*
X003941Y018830D01*
X003823Y018712D02*
X003754Y018712D01*
X003309Y018712D02*
X002810Y018712D01*
X002929Y018593D02*
X003190Y018593D01*
X003072Y018475D02*
X003047Y018475D01*
X002134Y018593D02*
X000455Y018593D01*
X000455Y018475D02*
X002015Y018475D01*
X000455Y018949D02*
X004060Y018949D01*
X004774Y018691D02*
X005035Y018691D01*
X005256Y018470D01*
X005256Y017658D01*
X005502Y017412D01*
X005601Y017313D01*
X005932Y017313D01*
X005822Y017203D01*
X005739Y017001D01*
X005739Y015927D01*
X005822Y015725D01*
X005976Y015571D01*
X006178Y015488D01*
X006396Y015488D01*
X006597Y015571D01*
X006752Y015725D01*
X006835Y015927D01*
X006835Y017001D01*
X006752Y017203D01*
X006642Y017313D01*
X007113Y017313D01*
X007003Y017203D01*
X006920Y017001D01*
X006920Y015927D01*
X007003Y015725D01*
X007158Y015571D01*
X007317Y015505D01*
X007317Y010690D01*
X007297Y010670D01*
X005681Y010670D01*
X002731Y013620D01*
X002731Y016646D01*
X002752Y016646D01*
X003031Y016925D01*
X003310Y016646D01*
X003752Y016646D01*
X003998Y016892D01*
X003998Y016717D01*
X004068Y016646D01*
X004331Y016646D01*
X004331Y012734D01*
X004858Y012207D01*
X004858Y012133D01*
X004903Y012024D01*
X004987Y011941D01*
X005096Y011895D01*
X005214Y011895D01*
X005323Y011941D01*
X005407Y012024D01*
X005452Y012133D01*
X005452Y012252D01*
X005407Y012361D01*
X005323Y012444D01*
X005214Y012490D01*
X005141Y012490D01*
X004731Y012899D01*
X004731Y016646D01*
X004994Y016646D01*
X005064Y016717D01*
X005064Y017643D01*
X004994Y017713D01*
X004819Y017713D01*
X005064Y017959D01*
X005064Y018401D01*
X004774Y018691D01*
X004872Y018593D02*
X005133Y018593D01*
X005252Y018475D02*
X004991Y018475D01*
X005064Y018356D02*
X005256Y018356D01*
X005256Y018238D02*
X005064Y018238D01*
X005064Y018119D02*
X005256Y018119D01*
X005256Y018001D02*
X005064Y018001D01*
X004988Y017882D02*
X005256Y017882D01*
X005256Y017764D02*
X004869Y017764D01*
X005062Y017645D02*
X005269Y017645D01*
X005388Y017527D02*
X005064Y017527D01*
X005064Y017408D02*
X005506Y017408D01*
X005632Y017764D02*
X005822Y017764D01*
X005773Y017882D02*
X005596Y017882D01*
X005596Y018001D02*
X005739Y018001D01*
X005739Y018119D02*
X005596Y018119D01*
X005596Y018238D02*
X005739Y018238D01*
X005739Y018356D02*
X005596Y018356D01*
X005596Y018475D02*
X005739Y018475D01*
X005739Y018593D02*
X005596Y018593D01*
X005496Y018712D02*
X005739Y018712D01*
X005739Y018830D02*
X005377Y018830D01*
X005259Y018949D02*
X005739Y018949D01*
X005751Y019067D02*
X000455Y019067D01*
X000455Y019186D02*
X005800Y019186D01*
X005886Y019304D02*
X000455Y019304D01*
X000455Y019423D02*
X006044Y019423D01*
X006529Y019423D02*
X007226Y019423D01*
X007067Y019304D02*
X006688Y019304D01*
X006774Y019186D02*
X006981Y019186D01*
X006932Y019067D02*
X006823Y019067D01*
X006835Y018949D02*
X006920Y018949D01*
X006920Y018830D02*
X006835Y018830D01*
X006835Y018712D02*
X006920Y018712D01*
X006920Y018593D02*
X006835Y018593D01*
X006835Y018475D02*
X006920Y018475D01*
X006920Y018356D02*
X006835Y018356D01*
X006835Y018238D02*
X006920Y018238D01*
X006920Y018119D02*
X006835Y018119D01*
X006835Y018001D02*
X006920Y018001D01*
X006954Y017882D02*
X006801Y017882D01*
X006752Y017764D02*
X007003Y017764D01*
X007090Y017290D02*
X006665Y017290D01*
X006765Y017171D02*
X006990Y017171D01*
X006941Y017053D02*
X006814Y017053D01*
X006835Y016934D02*
X006920Y016934D01*
X006920Y016816D02*
X006835Y016816D01*
X006835Y016697D02*
X006920Y016697D01*
X006920Y016579D02*
X006835Y016579D01*
X006835Y016460D02*
X006920Y016460D01*
X006920Y016342D02*
X006835Y016342D01*
X006835Y016223D02*
X006920Y016223D01*
X006920Y016105D02*
X006835Y016105D01*
X006835Y015986D02*
X006920Y015986D01*
X006945Y015868D02*
X006811Y015868D01*
X006761Y015749D02*
X006994Y015749D01*
X007098Y015631D02*
X006657Y015631D01*
X006454Y015512D02*
X007301Y015512D01*
X007317Y015394D02*
X004731Y015394D01*
X004731Y015512D02*
X006120Y015512D01*
X005917Y015631D02*
X004731Y015631D01*
X004731Y015749D02*
X005813Y015749D01*
X005763Y015868D02*
X004731Y015868D01*
X004731Y015986D02*
X005739Y015986D01*
X005739Y016105D02*
X004731Y016105D01*
X004731Y016223D02*
X005739Y016223D01*
X005739Y016342D02*
X004731Y016342D01*
X004731Y016460D02*
X005739Y016460D01*
X005739Y016579D02*
X004731Y016579D01*
X004331Y016579D02*
X002731Y016579D01*
X002731Y016460D02*
X004331Y016460D01*
X004331Y016342D02*
X002731Y016342D01*
X002731Y016223D02*
X004331Y016223D01*
X004331Y016105D02*
X002731Y016105D01*
X002731Y015986D02*
X004331Y015986D01*
X004331Y015868D02*
X002731Y015868D01*
X002731Y015749D02*
X004331Y015749D01*
X004331Y015631D02*
X002731Y015631D01*
X002731Y015512D02*
X004331Y015512D01*
X004331Y015394D02*
X002731Y015394D01*
X002731Y015275D02*
X004331Y015275D01*
X004331Y015157D02*
X002731Y015157D01*
X002731Y015038D02*
X004331Y015038D01*
X004331Y014920D02*
X002731Y014920D01*
X002731Y014801D02*
X004331Y014801D01*
X004331Y014683D02*
X002731Y014683D01*
X002731Y014564D02*
X004331Y014564D01*
X004331Y014446D02*
X002731Y014446D01*
X002731Y014327D02*
X004331Y014327D01*
X004331Y014209D02*
X002731Y014209D01*
X002731Y014090D02*
X004331Y014090D01*
X004331Y013972D02*
X002731Y013972D01*
X002731Y013853D02*
X004331Y013853D01*
X004331Y013735D02*
X002731Y013735D01*
X002735Y013616D02*
X004331Y013616D01*
X004331Y013498D02*
X002853Y013498D01*
X002972Y013379D02*
X004331Y013379D01*
X004331Y013261D02*
X003090Y013261D01*
X003209Y013142D02*
X004331Y013142D01*
X004331Y013024D02*
X003327Y013024D01*
X003446Y012905D02*
X004331Y012905D01*
X004331Y012787D02*
X003564Y012787D01*
X003683Y012668D02*
X004397Y012668D01*
X004515Y012550D02*
X003801Y012550D01*
X003920Y012431D02*
X004634Y012431D01*
X004752Y012313D02*
X004038Y012313D01*
X004157Y012194D02*
X004858Y012194D01*
X004882Y012076D02*
X004275Y012076D01*
X004394Y011957D02*
X004970Y011957D01*
X004631Y011720D02*
X007317Y011720D01*
X007317Y011602D02*
X004749Y011602D01*
X004868Y011483D02*
X007317Y011483D01*
X007317Y011365D02*
X004986Y011365D01*
X005105Y011246D02*
X007317Y011246D01*
X007317Y011128D02*
X005223Y011128D01*
X005342Y011009D02*
X007317Y011009D01*
X007317Y010891D02*
X005460Y010891D01*
X005579Y010772D02*
X007317Y010772D01*
X008449Y010061D02*
X000455Y010061D01*
X000455Y009943D02*
X008449Y009943D01*
X008449Y009824D02*
X000455Y009824D01*
X000455Y009706D02*
X008449Y009706D01*
X008449Y009587D02*
X000455Y009587D01*
X000455Y009469D02*
X008449Y009469D01*
X008449Y009350D02*
X000455Y009350D01*
X000455Y009232D02*
X008449Y009232D01*
X008449Y009113D02*
X000455Y009113D01*
X000455Y008995D02*
X008449Y008995D01*
X008449Y008876D02*
X000455Y008876D01*
X000455Y008758D02*
X008449Y008758D01*
X008449Y008639D02*
X000455Y008639D01*
X000455Y008521D02*
X008449Y008521D01*
X008449Y008402D02*
X000455Y008402D01*
X000455Y008284D02*
X008449Y008284D01*
X008449Y008165D02*
X000455Y008165D01*
X000455Y008047D02*
X008384Y008047D01*
X008352Y007928D02*
X000455Y007928D01*
X000455Y007810D02*
X008370Y007810D01*
X008449Y007691D02*
X000455Y007691D01*
X000455Y007573D02*
X012204Y007573D01*
X012207Y007569D02*
X012408Y007486D01*
X013483Y007486D01*
X013684Y007569D01*
X013838Y007724D01*
X013922Y007925D01*
X013922Y008143D01*
X013838Y008345D01*
X013684Y008499D01*
X013483Y008582D01*
X012408Y008582D01*
X012207Y008499D01*
X012053Y008345D01*
X011969Y008143D01*
X011969Y007925D01*
X012053Y007724D01*
X012207Y007569D01*
X012085Y007691D02*
X008849Y007691D01*
X008929Y007810D02*
X012017Y007810D01*
X011969Y007928D02*
X008946Y007928D01*
X008915Y008047D02*
X011969Y008047D01*
X011978Y008165D02*
X008849Y008165D01*
X008849Y008284D02*
X012027Y008284D01*
X012110Y008402D02*
X008849Y008402D01*
X008849Y008521D02*
X012259Y008521D01*
X013631Y008521D02*
X014675Y008521D01*
X014675Y008639D02*
X008849Y008639D01*
X008849Y008758D02*
X014675Y008758D01*
X014675Y008876D02*
X008849Y008876D01*
X008849Y008995D02*
X014675Y008995D01*
X014675Y009113D02*
X008849Y009113D01*
X008849Y009232D02*
X014675Y009232D01*
X014675Y009350D02*
X008849Y009350D01*
X008849Y009469D02*
X014675Y009469D01*
X014675Y009587D02*
X008849Y009587D01*
X008849Y009706D02*
X014675Y009706D01*
X014675Y009824D02*
X008849Y009824D01*
X008849Y009943D02*
X014675Y009943D01*
X014675Y010061D02*
X008849Y010061D01*
X008849Y010180D02*
X014675Y010180D01*
X014675Y010298D02*
X008849Y010298D01*
X008849Y010417D02*
X014675Y010417D01*
X014675Y010535D02*
X008849Y010535D01*
X008849Y010654D02*
X014675Y010654D01*
X014675Y010772D02*
X008849Y010772D01*
X008849Y010891D02*
X014675Y010891D01*
X014675Y011009D02*
X008849Y011009D01*
X008849Y011128D02*
X014675Y011128D01*
X014675Y011246D02*
X008849Y011246D01*
X008849Y011365D02*
X014675Y011365D01*
X014675Y011483D02*
X008849Y011483D01*
X008849Y011602D02*
X014675Y011602D01*
X014675Y011720D02*
X008849Y011720D01*
X008849Y011839D02*
X014675Y011839D01*
X014675Y011957D02*
X008849Y011957D01*
X008849Y012076D02*
X014675Y012076D01*
X014675Y012194D02*
X008849Y012194D01*
X008849Y012313D02*
X014675Y012313D01*
X014675Y012431D02*
X008849Y012431D01*
X008849Y012550D02*
X014675Y012550D01*
X014675Y012668D02*
X008849Y012668D01*
X008849Y012787D02*
X014675Y012787D01*
X014675Y012905D02*
X008849Y012905D01*
X008849Y013024D02*
X014675Y013024D01*
X014675Y013142D02*
X012068Y013142D01*
X011966Y013100D02*
X012275Y013227D01*
X012511Y013464D01*
X012639Y013772D01*
X012639Y014107D01*
X012511Y014415D01*
X012275Y014652D01*
X011966Y014779D01*
X011632Y014779D01*
X011323Y014652D01*
X011087Y014415D01*
X010959Y014107D01*
X010959Y013772D01*
X011087Y013464D01*
X011323Y013227D01*
X011632Y013100D01*
X011966Y013100D01*
X012308Y013261D02*
X014675Y013261D01*
X014675Y013379D02*
X012426Y013379D01*
X012525Y013498D02*
X014675Y013498D01*
X014675Y013616D02*
X012574Y013616D01*
X012623Y013735D02*
X014675Y013735D01*
X014675Y013853D02*
X012639Y013853D01*
X012639Y013972D02*
X014675Y013972D01*
X014675Y013980D02*
X014675Y006180D01*
X014792Y006062D01*
X014996Y005858D01*
X014996Y005785D01*
X015041Y005676D01*
X015125Y005592D01*
X015234Y005547D01*
X015352Y005547D01*
X015461Y005592D01*
X015545Y005676D01*
X015590Y005785D01*
X015590Y005903D01*
X015545Y006012D01*
X015461Y006096D01*
X015352Y006141D01*
X015279Y006141D01*
X015075Y006345D01*
X015075Y014145D01*
X014957Y014263D01*
X013449Y015771D01*
X013449Y015844D01*
X013404Y015953D01*
X013320Y016037D01*
X013211Y016082D01*
X013093Y016082D01*
X012984Y016037D01*
X012900Y015953D01*
X012855Y015844D01*
X012855Y015726D01*
X012900Y015617D01*
X012984Y015533D01*
X013093Y015488D01*
X013166Y015488D01*
X014675Y013980D01*
X014564Y014090D02*
X012639Y014090D01*
X012596Y014209D02*
X014446Y014209D01*
X014327Y014327D02*
X012547Y014327D01*
X012481Y014446D02*
X014209Y014446D01*
X014090Y014564D02*
X012362Y014564D01*
X012200Y014683D02*
X013972Y014683D01*
X013853Y014801D02*
X008849Y014801D01*
X008849Y014683D02*
X011398Y014683D01*
X011235Y014564D02*
X008849Y014564D01*
X008849Y014446D02*
X011117Y014446D01*
X011050Y014327D02*
X008849Y014327D01*
X008849Y014209D02*
X011001Y014209D01*
X010959Y014090D02*
X008849Y014090D01*
X008849Y013972D02*
X010959Y013972D01*
X010959Y013853D02*
X008849Y013853D01*
X008849Y013735D02*
X010975Y013735D01*
X011024Y013616D02*
X008849Y013616D01*
X008849Y013498D02*
X011073Y013498D01*
X011171Y013379D02*
X008849Y013379D01*
X008849Y013261D02*
X011290Y013261D01*
X011529Y013142D02*
X008849Y013142D01*
X008449Y012431D02*
X008437Y012431D01*
X007317Y012431D02*
X005337Y012431D01*
X005427Y012313D02*
X007317Y012313D01*
X007317Y012194D02*
X005452Y012194D01*
X005428Y012076D02*
X007317Y012076D01*
X007317Y011957D02*
X005340Y011957D01*
X005081Y012550D02*
X007317Y012550D01*
X007317Y012668D02*
X004962Y012668D01*
X004844Y012787D02*
X007317Y012787D01*
X007317Y012905D02*
X004731Y012905D01*
X004731Y013024D02*
X007317Y013024D01*
X007317Y013142D02*
X004731Y013142D01*
X004731Y013261D02*
X007317Y013261D01*
X007317Y013379D02*
X004731Y013379D01*
X004731Y013498D02*
X007317Y013498D01*
X007317Y013616D02*
X004731Y013616D01*
X004731Y013735D02*
X007317Y013735D01*
X007317Y013853D02*
X004731Y013853D01*
X004731Y013972D02*
X007317Y013972D01*
X007317Y014090D02*
X004731Y014090D01*
X004731Y014209D02*
X007317Y014209D01*
X007317Y014327D02*
X004731Y014327D01*
X004731Y014446D02*
X007317Y014446D01*
X007317Y014564D02*
X004731Y014564D01*
X004731Y014683D02*
X007317Y014683D01*
X007317Y014801D02*
X004731Y014801D01*
X004731Y014920D02*
X007317Y014920D01*
X007317Y015038D02*
X004731Y015038D01*
X004731Y015157D02*
X007317Y015157D01*
X007317Y015275D02*
X004731Y015275D01*
X005045Y016697D02*
X005739Y016697D01*
X005739Y016816D02*
X005064Y016816D01*
X005064Y016934D02*
X005739Y016934D01*
X005760Y017053D02*
X005064Y017053D01*
X005064Y017171D02*
X005809Y017171D01*
X005909Y017290D02*
X005064Y017290D01*
X003998Y016816D02*
X003921Y016816D01*
X004017Y016697D02*
X003803Y016697D01*
X003259Y016697D02*
X002803Y016697D01*
X002921Y016816D02*
X003141Y016816D01*
X008849Y016816D02*
X015239Y016816D01*
X015238Y016815D02*
X015193Y016705D01*
X015193Y016587D01*
X015238Y016478D01*
X015321Y016394D01*
X015431Y016349D01*
X015504Y016349D01*
X016865Y014989D01*
X016865Y008673D01*
X016813Y008621D01*
X016767Y008511D01*
X016767Y008393D01*
X016813Y008284D01*
X016896Y008200D01*
X017005Y008155D01*
X017124Y008155D01*
X017233Y008200D01*
X017316Y008284D01*
X017362Y008393D01*
X017362Y008511D01*
X017316Y008621D01*
X017265Y008673D01*
X017265Y015154D01*
X017147Y015271D01*
X015787Y016632D01*
X015787Y016705D01*
X015742Y016815D01*
X015658Y016898D01*
X015549Y016943D01*
X015431Y016943D01*
X015321Y016898D01*
X015238Y016815D01*
X015193Y016697D02*
X008849Y016697D01*
X008849Y016579D02*
X015196Y016579D01*
X015256Y016460D02*
X008849Y016460D01*
X008849Y016342D02*
X015512Y016342D01*
X015630Y016223D02*
X008849Y016223D01*
X008849Y016105D02*
X015749Y016105D01*
X015867Y015986D02*
X013371Y015986D01*
X013440Y015868D02*
X015986Y015868D01*
X016104Y015749D02*
X013471Y015749D01*
X013589Y015631D02*
X016223Y015631D01*
X016341Y015512D02*
X013708Y015512D01*
X013826Y015394D02*
X016460Y015394D01*
X016578Y015275D02*
X013945Y015275D01*
X014063Y015157D02*
X016697Y015157D01*
X016815Y015038D02*
X014182Y015038D01*
X014300Y014920D02*
X016865Y014920D01*
X016865Y014801D02*
X014419Y014801D01*
X014537Y014683D02*
X016865Y014683D01*
X016865Y014564D02*
X014656Y014564D01*
X014774Y014446D02*
X016865Y014446D01*
X016865Y014327D02*
X014893Y014327D01*
X014957Y014263D02*
X014957Y014263D01*
X015011Y014209D02*
X016865Y014209D01*
X016865Y014090D02*
X015075Y014090D01*
X015075Y013972D02*
X016865Y013972D01*
X016865Y013853D02*
X015075Y013853D01*
X015075Y013735D02*
X016865Y013735D01*
X016865Y013616D02*
X015075Y013616D01*
X015075Y013498D02*
X016865Y013498D01*
X016865Y013379D02*
X015075Y013379D01*
X015075Y013261D02*
X016865Y013261D01*
X016865Y013142D02*
X015075Y013142D01*
X015075Y013024D02*
X016865Y013024D01*
X016865Y012905D02*
X015075Y012905D01*
X015075Y012787D02*
X016865Y012787D01*
X016865Y012668D02*
X015075Y012668D01*
X015075Y012550D02*
X016865Y012550D01*
X016865Y012431D02*
X015075Y012431D01*
X015075Y012313D02*
X016865Y012313D01*
X016865Y012194D02*
X015075Y012194D01*
X015075Y012076D02*
X016865Y012076D01*
X016865Y011957D02*
X015075Y011957D01*
X015075Y011839D02*
X016865Y011839D01*
X016865Y011720D02*
X015075Y011720D01*
X015075Y011602D02*
X016865Y011602D01*
X016865Y011483D02*
X015075Y011483D01*
X015075Y011365D02*
X016865Y011365D01*
X016865Y011246D02*
X015075Y011246D01*
X015075Y011128D02*
X016865Y011128D01*
X016865Y011009D02*
X015075Y011009D01*
X015075Y010891D02*
X016865Y010891D01*
X016865Y010772D02*
X015075Y010772D01*
X015075Y010654D02*
X016865Y010654D01*
X016865Y010535D02*
X015075Y010535D01*
X015075Y010417D02*
X016865Y010417D01*
X016865Y010298D02*
X015075Y010298D01*
X015075Y010180D02*
X016865Y010180D01*
X016865Y010061D02*
X015075Y010061D01*
X015075Y009943D02*
X016865Y009943D01*
X016865Y009824D02*
X015075Y009824D01*
X015075Y009706D02*
X016865Y009706D01*
X016865Y009587D02*
X015075Y009587D01*
X015075Y009469D02*
X016865Y009469D01*
X016865Y009350D02*
X015075Y009350D01*
X015075Y009232D02*
X016865Y009232D01*
X016865Y009113D02*
X015075Y009113D01*
X015075Y008995D02*
X016865Y008995D01*
X016865Y008876D02*
X015075Y008876D01*
X015075Y008758D02*
X016865Y008758D01*
X016831Y008639D02*
X015075Y008639D01*
X015075Y008521D02*
X016771Y008521D01*
X016767Y008402D02*
X015075Y008402D01*
X015075Y008284D02*
X016813Y008284D01*
X016982Y008165D02*
X015075Y008165D01*
X015075Y008047D02*
X019866Y008047D01*
X019866Y008165D02*
X017147Y008165D01*
X017316Y008284D02*
X019866Y008284D01*
X019866Y008402D02*
X017362Y008402D01*
X017358Y008521D02*
X019866Y008521D01*
X019866Y008639D02*
X017298Y008639D01*
X017265Y008758D02*
X019866Y008758D01*
X019866Y008876D02*
X017265Y008876D01*
X017265Y008995D02*
X019866Y008995D01*
X019866Y009113D02*
X017265Y009113D01*
X017265Y009232D02*
X019866Y009232D01*
X019866Y009350D02*
X017265Y009350D01*
X017265Y009469D02*
X019866Y009469D01*
X019866Y009587D02*
X017265Y009587D01*
X017265Y009706D02*
X019866Y009706D01*
X019866Y009824D02*
X017265Y009824D01*
X017265Y009943D02*
X019866Y009943D01*
X019866Y010045D02*
X019866Y004482D01*
X019984Y004365D01*
X020722Y003626D01*
X022349Y003626D01*
X022381Y003549D01*
X022519Y003411D01*
X022699Y003336D01*
X023634Y003336D01*
X023814Y003411D01*
X023952Y003549D01*
X024027Y003729D01*
X024027Y003924D01*
X023952Y004104D01*
X023814Y004242D01*
X023634Y004316D01*
X022699Y004316D01*
X022519Y004242D01*
X022381Y004104D01*
X022349Y004026D01*
X020888Y004026D01*
X020266Y004647D01*
X020266Y009879D01*
X020753Y010366D01*
X020830Y010333D01*
X021025Y010333D01*
X021205Y010408D01*
X021343Y010546D01*
X021418Y010726D01*
X021418Y010921D01*
X021343Y011101D01*
X021205Y011239D01*
X021025Y011313D01*
X020830Y011313D01*
X020650Y011239D01*
X020512Y011101D01*
X020438Y010921D01*
X020438Y010726D01*
X020470Y010648D01*
X019866Y010045D01*
X019883Y010061D02*
X017265Y010061D01*
X017265Y010180D02*
X020001Y010180D01*
X020120Y010298D02*
X017265Y010298D01*
X017265Y010417D02*
X020238Y010417D01*
X020357Y010535D02*
X017265Y010535D01*
X017265Y010654D02*
X020468Y010654D01*
X020438Y010772D02*
X017265Y010772D01*
X017265Y010891D02*
X020438Y010891D01*
X020474Y011009D02*
X017265Y011009D01*
X017265Y011128D02*
X020539Y011128D01*
X020668Y011246D02*
X017265Y011246D01*
X017265Y011365D02*
X020755Y011365D01*
X020830Y011333D02*
X021025Y011333D01*
X021205Y011408D01*
X021343Y011546D01*
X021418Y011726D01*
X021418Y011921D01*
X021343Y012101D01*
X021205Y012239D01*
X021025Y012313D01*
X020830Y012313D01*
X020650Y012239D01*
X020512Y012101D01*
X020438Y011921D01*
X020438Y011726D01*
X020512Y011546D01*
X020650Y011408D01*
X020830Y011333D01*
X021100Y011365D02*
X021786Y011365D01*
X021786Y011483D02*
X021280Y011483D01*
X021366Y011602D02*
X021786Y011602D01*
X021786Y011720D02*
X021415Y011720D01*
X021418Y011839D02*
X021786Y011839D01*
X021786Y011957D02*
X021403Y011957D01*
X021354Y012076D02*
X021786Y012076D01*
X021786Y012194D02*
X021250Y012194D01*
X021027Y012313D02*
X021786Y012313D01*
X021786Y012431D02*
X017265Y012431D01*
X017265Y012313D02*
X020828Y012313D01*
X020605Y012194D02*
X017265Y012194D01*
X017265Y012076D02*
X020502Y012076D01*
X020453Y011957D02*
X017265Y011957D01*
X017265Y011839D02*
X020438Y011839D01*
X020440Y011720D02*
X017265Y011720D01*
X017265Y011602D02*
X020489Y011602D01*
X020575Y011483D02*
X017265Y011483D01*
X017265Y012550D02*
X021786Y012550D01*
X021786Y012668D02*
X017265Y012668D01*
X017265Y012787D02*
X021786Y012787D01*
X021786Y012905D02*
X017265Y012905D01*
X017265Y013024D02*
X021786Y013024D01*
X021786Y013054D02*
X021786Y010454D01*
X021417Y010085D01*
X021417Y005269D01*
X021534Y005152D01*
X022059Y004626D01*
X022349Y004626D01*
X022381Y004549D01*
X022519Y004411D01*
X022699Y004336D01*
X023634Y004336D01*
X023814Y004411D01*
X023952Y004549D01*
X024027Y004729D01*
X024027Y004924D01*
X023952Y005104D01*
X023814Y005242D01*
X023634Y005316D01*
X022699Y005316D01*
X022519Y005242D01*
X022381Y005104D01*
X022349Y005026D01*
X022225Y005026D01*
X021817Y005435D01*
X021817Y009920D01*
X022069Y010172D01*
X022186Y010289D01*
X022186Y013219D01*
X021435Y013970D01*
X021467Y014048D01*
X021467Y014243D01*
X021392Y014423D01*
X021254Y014561D01*
X021074Y014635D01*
X020879Y014635D01*
X020699Y014561D01*
X020562Y014423D01*
X020487Y014243D01*
X020487Y014048D01*
X020562Y013868D01*
X020699Y013730D01*
X020879Y013655D01*
X021074Y013655D01*
X021152Y013687D01*
X021786Y013054D01*
X021697Y013142D02*
X017265Y013142D01*
X017265Y013261D02*
X021579Y013261D01*
X021460Y013379D02*
X017265Y013379D01*
X017265Y013498D02*
X021342Y013498D01*
X021223Y013616D02*
X017265Y013616D01*
X017265Y013735D02*
X020695Y013735D01*
X020576Y013853D02*
X017265Y013853D01*
X017265Y013972D02*
X020519Y013972D01*
X020487Y014090D02*
X017265Y014090D01*
X017265Y014209D02*
X020487Y014209D01*
X020522Y014327D02*
X017265Y014327D01*
X017265Y014446D02*
X020584Y014446D01*
X020708Y014564D02*
X017265Y014564D01*
X017265Y014683D02*
X020814Y014683D01*
X020879Y014655D02*
X020699Y014730D01*
X020562Y014868D01*
X020487Y015048D01*
X020487Y015243D01*
X020562Y015423D01*
X020699Y015561D01*
X020879Y015635D01*
X021074Y015635D01*
X021254Y015561D01*
X021392Y015423D01*
X021467Y015243D01*
X021467Y015048D01*
X021392Y014868D01*
X021254Y014730D01*
X021074Y014655D01*
X020879Y014655D01*
X021140Y014683D02*
X023486Y014683D01*
X023513Y014655D02*
X023696Y014655D01*
X023696Y015125D01*
X023736Y015125D01*
X023736Y014655D01*
X023919Y014655D01*
X024206Y014942D01*
X024206Y015125D01*
X023736Y015125D01*
X023736Y015165D01*
X024206Y015165D01*
X024206Y015348D01*
X023919Y015635D01*
X023736Y015635D01*
X023736Y015165D01*
X023696Y015165D01*
X023696Y015125D01*
X023226Y015125D01*
X023226Y014942D01*
X023513Y014655D01*
X023696Y014683D02*
X023736Y014683D01*
X023736Y014801D02*
X023696Y014801D01*
X023696Y014920D02*
X023736Y014920D01*
X023736Y015038D02*
X023696Y015038D01*
X023696Y015157D02*
X023166Y015157D01*
X023226Y015165D02*
X023696Y015165D01*
X023696Y015635D01*
X023513Y015635D01*
X023226Y015348D01*
X023226Y015165D01*
X023226Y015275D02*
X023166Y015275D01*
X023166Y015332D02*
X022902Y015595D01*
X022530Y015595D01*
X022266Y015332D01*
X022266Y014959D01*
X022530Y014695D01*
X022902Y014695D01*
X023166Y014959D01*
X023166Y015332D01*
X023104Y015394D02*
X023271Y015394D01*
X023390Y015512D02*
X022986Y015512D01*
X023166Y015038D02*
X023226Y015038D01*
X023249Y014920D02*
X023127Y014920D01*
X023008Y014801D02*
X023367Y014801D01*
X023736Y015157D02*
X024521Y015157D01*
X024521Y015275D02*
X024206Y015275D01*
X024161Y015394D02*
X024521Y015394D01*
X024521Y015512D02*
X024042Y015512D01*
X023924Y015631D02*
X024521Y015631D01*
X024521Y015749D02*
X016670Y015749D01*
X016788Y015631D02*
X020868Y015631D01*
X021086Y015631D02*
X023508Y015631D01*
X023696Y015631D02*
X023736Y015631D01*
X023736Y015512D02*
X023696Y015512D01*
X023696Y015394D02*
X023736Y015394D01*
X023736Y015275D02*
X023696Y015275D01*
X024206Y015038D02*
X024521Y015038D01*
X024521Y014920D02*
X024183Y014920D01*
X024065Y014801D02*
X024521Y014801D01*
X024521Y014683D02*
X023946Y014683D01*
X024521Y014564D02*
X021246Y014564D01*
X021370Y014446D02*
X024521Y014446D01*
X024521Y014327D02*
X021432Y014327D01*
X021467Y014209D02*
X024521Y014209D01*
X024521Y014090D02*
X021467Y014090D01*
X021435Y013972D02*
X024521Y013972D01*
X024521Y013853D02*
X021552Y013853D01*
X021670Y013735D02*
X024521Y013735D01*
X024521Y013616D02*
X021789Y013616D01*
X021907Y013498D02*
X024521Y013498D01*
X024521Y013379D02*
X022026Y013379D01*
X022144Y013261D02*
X024521Y013261D01*
X024521Y013142D02*
X022186Y013142D01*
X022186Y013024D02*
X024521Y013024D01*
X024521Y012905D02*
X022186Y012905D01*
X022186Y012787D02*
X024521Y012787D01*
X024521Y012668D02*
X022186Y012668D01*
X022186Y012550D02*
X024521Y012550D01*
X024521Y012431D02*
X022186Y012431D01*
X022186Y012313D02*
X023488Y012313D01*
X023489Y012313D02*
X023201Y012026D01*
X023201Y011843D01*
X023671Y011843D01*
X023671Y011803D01*
X023201Y011803D01*
X023201Y011620D01*
X023489Y011333D01*
X023671Y011333D01*
X023671Y011803D01*
X023711Y011803D01*
X023711Y011333D01*
X023894Y011333D01*
X024181Y011620D01*
X024181Y011803D01*
X023712Y011803D01*
X023712Y011843D01*
X024181Y011843D01*
X024181Y012026D01*
X023894Y012313D01*
X023711Y012313D01*
X023711Y011843D01*
X023671Y011843D01*
X023671Y012313D01*
X023489Y012313D01*
X023369Y012194D02*
X022957Y012194D01*
X022878Y012273D02*
X022505Y012273D01*
X022241Y012010D01*
X022241Y011637D01*
X022505Y011373D01*
X022878Y011373D01*
X023141Y011637D01*
X023141Y012010D01*
X022878Y012273D01*
X023076Y012076D02*
X023251Y012076D01*
X023201Y011957D02*
X023141Y011957D01*
X023141Y011839D02*
X023671Y011839D01*
X023712Y011839D02*
X024521Y011839D01*
X024521Y011957D02*
X024181Y011957D01*
X024132Y012076D02*
X024521Y012076D01*
X024521Y012194D02*
X024014Y012194D01*
X023895Y012313D02*
X024521Y012313D01*
X024521Y011720D02*
X024181Y011720D01*
X024163Y011602D02*
X024521Y011602D01*
X024521Y011483D02*
X024044Y011483D01*
X023926Y011365D02*
X024521Y011365D01*
X024521Y011246D02*
X022186Y011246D01*
X022186Y011128D02*
X024521Y011128D01*
X024521Y011009D02*
X022186Y011009D01*
X022186Y010891D02*
X024521Y010891D01*
X024521Y010772D02*
X022186Y010772D01*
X022186Y010654D02*
X024521Y010654D01*
X024521Y010535D02*
X022186Y010535D01*
X022186Y010417D02*
X024521Y010417D01*
X024521Y010298D02*
X022186Y010298D01*
X022077Y010180D02*
X024521Y010180D01*
X024521Y010061D02*
X021958Y010061D01*
X021840Y009943D02*
X024521Y009943D01*
X024521Y009824D02*
X021817Y009824D01*
X021817Y009706D02*
X024521Y009706D01*
X024521Y009587D02*
X021817Y009587D01*
X021817Y009469D02*
X022401Y009469D01*
X022497Y009564D02*
X022186Y009254D01*
X022186Y009074D01*
X022676Y009074D01*
X022676Y008994D01*
X022186Y008994D01*
X022186Y008814D01*
X022495Y008506D01*
X022226Y008237D01*
X022226Y007831D01*
X022513Y007544D01*
X022919Y007544D01*
X023206Y007831D01*
X023206Y008237D01*
X022937Y008506D01*
X023244Y008813D01*
X023513Y008544D01*
X023919Y008544D01*
X024206Y008831D01*
X024206Y009237D01*
X023919Y009524D01*
X023513Y009524D01*
X023244Y009255D01*
X022936Y009564D01*
X022756Y009564D01*
X022756Y009074D01*
X022676Y009074D01*
X022676Y009564D01*
X022497Y009564D01*
X022676Y009469D02*
X022756Y009469D01*
X022756Y009350D02*
X022676Y009350D01*
X022676Y009232D02*
X022756Y009232D01*
X022756Y009113D02*
X022676Y009113D01*
X022676Y008995D02*
X021817Y008995D01*
X021817Y009113D02*
X022186Y009113D01*
X022186Y009232D02*
X021817Y009232D01*
X021817Y009350D02*
X022283Y009350D01*
X022186Y008876D02*
X021817Y008876D01*
X021817Y008758D02*
X022243Y008758D01*
X022362Y008639D02*
X021817Y008639D01*
X021817Y008521D02*
X022480Y008521D01*
X022391Y008402D02*
X021817Y008402D01*
X021817Y008284D02*
X022273Y008284D01*
X022226Y008165D02*
X021817Y008165D01*
X021817Y008047D02*
X022226Y008047D01*
X022226Y007928D02*
X021817Y007928D01*
X021817Y007810D02*
X022248Y007810D01*
X022366Y007691D02*
X021817Y007691D01*
X021817Y007573D02*
X022485Y007573D01*
X022513Y007524D02*
X022226Y007237D01*
X022226Y006831D01*
X022513Y006544D01*
X022919Y006544D01*
X023206Y006831D01*
X023206Y007237D01*
X022919Y007524D01*
X022513Y007524D01*
X022443Y007454D02*
X021817Y007454D01*
X021817Y007336D02*
X022325Y007336D01*
X022226Y007217D02*
X021817Y007217D01*
X021817Y007099D02*
X022226Y007099D01*
X022226Y006980D02*
X021817Y006980D01*
X021817Y006862D02*
X022226Y006862D01*
X022314Y006743D02*
X021817Y006743D01*
X021817Y006625D02*
X022433Y006625D01*
X023000Y006625D02*
X023226Y006625D01*
X023226Y006614D02*
X023296Y006544D01*
X024136Y006544D01*
X024206Y006614D01*
X024206Y007454D01*
X024521Y007454D01*
X024521Y007336D02*
X024206Y007336D01*
X024206Y007454D02*
X024136Y007524D01*
X023296Y007524D01*
X023226Y007454D01*
X023226Y006614D01*
X023226Y006743D02*
X023118Y006743D01*
X023206Y006862D02*
X023226Y006862D01*
X023226Y006980D02*
X023206Y006980D01*
X023206Y007099D02*
X023226Y007099D01*
X023226Y007217D02*
X023206Y007217D01*
X023226Y007336D02*
X023108Y007336D01*
X023226Y007454D02*
X022989Y007454D01*
X022948Y007573D02*
X023485Y007573D01*
X023513Y007544D02*
X023919Y007544D01*
X024206Y007831D01*
X024206Y008237D01*
X023919Y008524D01*
X023513Y008524D01*
X023226Y008237D01*
X023226Y007831D01*
X023513Y007544D01*
X023366Y007691D02*
X023066Y007691D01*
X023185Y007810D02*
X023248Y007810D01*
X023226Y007928D02*
X023206Y007928D01*
X023206Y008047D02*
X023226Y008047D01*
X023226Y008165D02*
X023206Y008165D01*
X023160Y008284D02*
X023273Y008284D01*
X023391Y008402D02*
X023041Y008402D01*
X022952Y008521D02*
X023510Y008521D01*
X023418Y008639D02*
X023071Y008639D01*
X023189Y008758D02*
X023300Y008758D01*
X023339Y009350D02*
X023150Y009350D01*
X023031Y009469D02*
X023458Y009469D01*
X023975Y009469D02*
X024521Y009469D01*
X024521Y009350D02*
X024093Y009350D01*
X024206Y009232D02*
X024521Y009232D01*
X024521Y009113D02*
X024206Y009113D01*
X024206Y008995D02*
X024521Y008995D01*
X024521Y008876D02*
X024206Y008876D01*
X024133Y008758D02*
X024521Y008758D01*
X024521Y008639D02*
X024014Y008639D01*
X023923Y008521D02*
X024521Y008521D01*
X024521Y008402D02*
X024041Y008402D01*
X024160Y008284D02*
X024521Y008284D01*
X024521Y008165D02*
X024206Y008165D01*
X024206Y008047D02*
X024521Y008047D01*
X024521Y007928D02*
X024206Y007928D01*
X024185Y007810D02*
X024521Y007810D01*
X024521Y007691D02*
X024066Y007691D01*
X023948Y007573D02*
X024521Y007573D01*
X024521Y007217D02*
X024206Y007217D01*
X024206Y007099D02*
X024521Y007099D01*
X024521Y006980D02*
X024206Y006980D01*
X024206Y006862D02*
X024521Y006862D01*
X024521Y006743D02*
X024206Y006743D01*
X024206Y006625D02*
X024521Y006625D01*
X024521Y006506D02*
X021817Y006506D01*
X021817Y006388D02*
X024521Y006388D01*
X024521Y006269D02*
X021817Y006269D01*
X021817Y006151D02*
X024521Y006151D01*
X024521Y006032D02*
X021817Y006032D01*
X021817Y005914D02*
X024521Y005914D01*
X024521Y005795D02*
X021817Y005795D01*
X021817Y005677D02*
X024521Y005677D01*
X024521Y005558D02*
X021817Y005558D01*
X021817Y005440D02*
X024521Y005440D01*
X024521Y005321D02*
X021930Y005321D01*
X022049Y005203D02*
X022480Y005203D01*
X022373Y005084D02*
X022167Y005084D01*
X021839Y004847D02*
X020266Y004847D01*
X020266Y004729D02*
X021957Y004729D01*
X021720Y004966D02*
X020266Y004966D01*
X020266Y005084D02*
X021602Y005084D01*
X021483Y005203D02*
X020266Y005203D01*
X020266Y005321D02*
X021417Y005321D01*
X021417Y005440D02*
X020266Y005440D01*
X020266Y005558D02*
X021417Y005558D01*
X021417Y005677D02*
X020266Y005677D01*
X020266Y005795D02*
X021417Y005795D01*
X021417Y005914D02*
X020266Y005914D01*
X020266Y006032D02*
X021417Y006032D01*
X021417Y006151D02*
X020266Y006151D01*
X020266Y006269D02*
X021417Y006269D01*
X021417Y006388D02*
X020266Y006388D01*
X020266Y006506D02*
X021417Y006506D01*
X021417Y006625D02*
X020266Y006625D01*
X020266Y006743D02*
X021417Y006743D01*
X021417Y006862D02*
X020266Y006862D01*
X020266Y006980D02*
X021417Y006980D01*
X021417Y007099D02*
X020266Y007099D01*
X020266Y007217D02*
X021417Y007217D01*
X021417Y007336D02*
X020266Y007336D01*
X020266Y007454D02*
X021417Y007454D01*
X021417Y007573D02*
X020266Y007573D01*
X020266Y007691D02*
X021417Y007691D01*
X021417Y007810D02*
X020266Y007810D01*
X020266Y007928D02*
X021417Y007928D01*
X021417Y008047D02*
X020266Y008047D01*
X020266Y008165D02*
X021417Y008165D01*
X021417Y008284D02*
X020266Y008284D01*
X020266Y008402D02*
X021417Y008402D01*
X021417Y008521D02*
X020266Y008521D01*
X020266Y008639D02*
X021417Y008639D01*
X021417Y008758D02*
X020266Y008758D01*
X020266Y008876D02*
X021417Y008876D01*
X021417Y008995D02*
X020266Y008995D01*
X020266Y009113D02*
X021417Y009113D01*
X021417Y009232D02*
X020266Y009232D01*
X020266Y009350D02*
X021417Y009350D01*
X021417Y009469D02*
X020266Y009469D01*
X020266Y009587D02*
X021417Y009587D01*
X021417Y009706D02*
X020266Y009706D01*
X020266Y009824D02*
X021417Y009824D01*
X021417Y009943D02*
X020330Y009943D01*
X020448Y010061D02*
X021417Y010061D01*
X021511Y010180D02*
X020567Y010180D01*
X020685Y010298D02*
X021629Y010298D01*
X021748Y010417D02*
X021214Y010417D01*
X021332Y010535D02*
X021786Y010535D01*
X021786Y010654D02*
X021388Y010654D01*
X021418Y010772D02*
X021786Y010772D01*
X021786Y010891D02*
X021418Y010891D01*
X021381Y011009D02*
X021786Y011009D01*
X021786Y011128D02*
X021317Y011128D01*
X021188Y011246D02*
X021786Y011246D01*
X022186Y011365D02*
X023457Y011365D01*
X023339Y011483D02*
X022988Y011483D01*
X023106Y011602D02*
X023220Y011602D01*
X023201Y011720D02*
X023141Y011720D01*
X023671Y011720D02*
X023711Y011720D01*
X023711Y011602D02*
X023671Y011602D01*
X023671Y011483D02*
X023711Y011483D01*
X023711Y011365D02*
X023671Y011365D01*
X023671Y011957D02*
X023711Y011957D01*
X023711Y012076D02*
X023671Y012076D01*
X023671Y012194D02*
X023711Y012194D01*
X023711Y012313D02*
X023671Y012313D01*
X022426Y012194D02*
X022186Y012194D01*
X022186Y012076D02*
X022307Y012076D01*
X022241Y011957D02*
X022186Y011957D01*
X022186Y011839D02*
X022241Y011839D01*
X022241Y011720D02*
X022186Y011720D01*
X022186Y011602D02*
X022277Y011602D01*
X022186Y011483D02*
X022395Y011483D01*
X022424Y014801D02*
X021326Y014801D01*
X021414Y014920D02*
X022305Y014920D01*
X022266Y015038D02*
X021463Y015038D01*
X021467Y015157D02*
X022266Y015157D01*
X022266Y015275D02*
X021454Y015275D01*
X021404Y015394D02*
X022328Y015394D01*
X022447Y015512D02*
X021303Y015512D01*
X020651Y015512D02*
X016907Y015512D01*
X017025Y015394D02*
X020549Y015394D01*
X020500Y015275D02*
X017144Y015275D01*
X017147Y015271D02*
X017147Y015271D01*
X017262Y015157D02*
X020487Y015157D01*
X020491Y015038D02*
X017265Y015038D01*
X017265Y014920D02*
X020540Y014920D01*
X020628Y014801D02*
X017265Y014801D01*
X016551Y015868D02*
X024521Y015868D01*
X024521Y015986D02*
X016433Y015986D01*
X016314Y016105D02*
X024521Y016105D01*
X024521Y016223D02*
X016196Y016223D01*
X016077Y016342D02*
X024521Y016342D01*
X024521Y016460D02*
X015959Y016460D01*
X015840Y016579D02*
X024521Y016579D01*
X024521Y016697D02*
X015787Y016697D01*
X015741Y016816D02*
X024521Y016816D01*
X024521Y016934D02*
X023414Y016934D01*
X023495Y016968D02*
X023731Y017204D01*
X023859Y017513D01*
X023859Y017847D01*
X023731Y018155D01*
X023495Y018392D01*
X023186Y018520D01*
X022852Y018520D01*
X022543Y018392D01*
X022307Y018155D01*
X022179Y017847D01*
X022179Y017513D01*
X022307Y017204D01*
X022543Y016968D01*
X022852Y016840D01*
X023186Y016840D01*
X023495Y016968D01*
X023580Y017053D02*
X024521Y017053D01*
X024521Y017171D02*
X023698Y017171D01*
X023767Y017290D02*
X024521Y017290D01*
X024521Y017408D02*
X023816Y017408D01*
X023859Y017527D02*
X024521Y017527D01*
X024521Y017645D02*
X023859Y017645D01*
X023859Y017764D02*
X024521Y017764D01*
X024521Y017882D02*
X023845Y017882D01*
X023795Y018001D02*
X024521Y018001D01*
X024521Y018119D02*
X023746Y018119D01*
X023649Y018238D02*
X024521Y018238D01*
X024521Y018356D02*
X023531Y018356D01*
X023295Y018475D02*
X024521Y018475D01*
X024521Y018593D02*
X009683Y018593D01*
X009880Y018475D02*
X022743Y018475D01*
X022508Y018356D02*
X009982Y018356D01*
X010031Y018238D02*
X022389Y018238D01*
X022292Y018119D02*
X010054Y018119D01*
X010054Y018001D02*
X022243Y018001D01*
X022194Y017882D02*
X010020Y017882D01*
X009970Y017764D02*
X022179Y017764D01*
X022179Y017645D02*
X009852Y017645D01*
X009618Y017527D02*
X022179Y017527D01*
X022223Y017408D02*
X008849Y017408D01*
X008849Y017290D02*
X022272Y017290D01*
X022340Y017171D02*
X008849Y017171D01*
X008849Y017053D02*
X022459Y017053D01*
X022625Y016934D02*
X015571Y016934D01*
X015408Y016934D02*
X008849Y016934D01*
X008849Y015986D02*
X012933Y015986D01*
X012865Y015868D02*
X008849Y015868D01*
X008849Y015749D02*
X012855Y015749D01*
X012894Y015631D02*
X008849Y015631D01*
X008849Y015512D02*
X013035Y015512D01*
X013261Y015394D02*
X008849Y015394D01*
X008849Y015275D02*
X013379Y015275D01*
X013498Y015157D02*
X008849Y015157D01*
X008849Y015038D02*
X013616Y015038D01*
X013735Y014920D02*
X008849Y014920D01*
X007317Y011839D02*
X004512Y011839D01*
X000455Y007454D02*
X014675Y007454D01*
X014675Y007336D02*
X000455Y007336D01*
X000455Y007217D02*
X014675Y007217D01*
X014675Y007099D02*
X000455Y007099D01*
X000455Y006980D02*
X014675Y006980D01*
X014675Y006862D02*
X000455Y006862D01*
X000455Y006743D02*
X014675Y006743D01*
X014675Y006625D02*
X013556Y006625D01*
X013599Y006611D02*
X013511Y006639D01*
X013434Y006651D01*
X013434Y006126D01*
X013314Y006126D01*
X013314Y006654D01*
X012471Y006654D01*
X012380Y006639D01*
X012292Y006611D01*
X012209Y006569D01*
X012134Y006514D01*
X012069Y006449D01*
X012014Y006374D01*
X011972Y006291D01*
X011944Y006203D01*
X011931Y006126D01*
X013314Y006126D01*
X013314Y006006D01*
X013434Y006006D01*
X013434Y006126D01*
X013960Y006126D01*
X013947Y006203D01*
X013919Y006291D01*
X013877Y006374D01*
X013822Y006449D01*
X013757Y006514D01*
X013682Y006569D01*
X013599Y006611D01*
X013434Y006625D02*
X013314Y006625D01*
X013314Y006506D02*
X013434Y006506D01*
X013434Y006388D02*
X013314Y006388D01*
X013314Y006269D02*
X013434Y006269D01*
X013434Y006151D02*
X013314Y006151D01*
X013314Y006032D02*
X000455Y006032D01*
X000455Y005914D02*
X011948Y005914D01*
X011944Y005928D02*
X011972Y005840D01*
X012014Y005757D01*
X012069Y005682D01*
X012134Y005617D01*
X012209Y005562D01*
X012292Y005520D01*
X012380Y005492D01*
X012471Y005477D01*
X013314Y005477D01*
X013314Y006006D01*
X011931Y006006D01*
X011944Y005928D01*
X011995Y005795D02*
X000455Y005795D01*
X000455Y005677D02*
X012075Y005677D01*
X012218Y005558D02*
X000455Y005558D01*
X000455Y005440D02*
X019866Y005440D01*
X019866Y005558D02*
X015379Y005558D01*
X015207Y005558D02*
X013673Y005558D01*
X013682Y005562D02*
X013757Y005617D01*
X013822Y005682D01*
X013877Y005757D01*
X013919Y005840D01*
X013947Y005928D01*
X013960Y006006D01*
X013434Y006006D01*
X013434Y005480D01*
X013511Y005492D01*
X013599Y005520D01*
X013682Y005562D01*
X013816Y005677D02*
X015041Y005677D01*
X014996Y005795D02*
X013896Y005795D01*
X013943Y005914D02*
X014941Y005914D01*
X014822Y006032D02*
X013434Y006032D01*
X013434Y005914D02*
X013314Y005914D01*
X013314Y005795D02*
X013434Y005795D01*
X013434Y005677D02*
X013314Y005677D01*
X013314Y005558D02*
X013434Y005558D01*
X013956Y006151D02*
X014704Y006151D01*
X014675Y006269D02*
X013926Y006269D01*
X013867Y006388D02*
X014675Y006388D01*
X014675Y006506D02*
X013765Y006506D01*
X014792Y006062D02*
X014792Y006062D01*
X015075Y006388D02*
X019866Y006388D01*
X019866Y006506D02*
X015075Y006506D01*
X015075Y006625D02*
X019866Y006625D01*
X019866Y006743D02*
X015075Y006743D01*
X015075Y006862D02*
X019866Y006862D01*
X019866Y006980D02*
X015075Y006980D01*
X015075Y007099D02*
X019866Y007099D01*
X019866Y007217D02*
X015075Y007217D01*
X015075Y007336D02*
X019866Y007336D01*
X019866Y007454D02*
X015075Y007454D01*
X015075Y007573D02*
X019866Y007573D01*
X019866Y007691D02*
X015075Y007691D01*
X015075Y007810D02*
X019866Y007810D01*
X019866Y007928D02*
X015075Y007928D01*
X014675Y007928D02*
X013922Y007928D01*
X013922Y008047D02*
X014675Y008047D01*
X014675Y008165D02*
X013913Y008165D01*
X013864Y008284D02*
X014675Y008284D01*
X014675Y008402D02*
X013781Y008402D01*
X013874Y007810D02*
X014675Y007810D01*
X014675Y007691D02*
X013806Y007691D01*
X013687Y007573D02*
X014675Y007573D01*
X015151Y006269D02*
X019866Y006269D01*
X019866Y006151D02*
X015269Y006151D01*
X015525Y006032D02*
X019866Y006032D01*
X019866Y005914D02*
X015586Y005914D01*
X015590Y005795D02*
X019866Y005795D01*
X019866Y005677D02*
X015545Y005677D01*
X013877Y004405D02*
X013822Y004480D01*
X013757Y004546D01*
X013682Y004600D01*
X013599Y004642D01*
X013511Y004671D01*
X013434Y004683D01*
X013434Y004157D01*
X013960Y004157D01*
X013947Y004235D01*
X013919Y004323D01*
X013877Y004405D01*
X013893Y004373D02*
X019975Y004373D01*
X019866Y004492D02*
X013811Y004492D01*
X013662Y004610D02*
X019866Y004610D01*
X019866Y004729D02*
X000455Y004729D01*
X000455Y004847D02*
X019866Y004847D01*
X019866Y004966D02*
X000455Y004966D01*
X000455Y005084D02*
X019866Y005084D01*
X019866Y005203D02*
X000455Y005203D01*
X000455Y005321D02*
X019866Y005321D01*
X020304Y004610D02*
X022356Y004610D01*
X022439Y004492D02*
X020422Y004492D01*
X020541Y004373D02*
X022611Y004373D01*
X022550Y004255D02*
X020659Y004255D01*
X020778Y004136D02*
X022414Y004136D01*
X022387Y003544D02*
X013573Y003544D01*
X013599Y003552D02*
X013511Y003523D01*
X013434Y003511D01*
X013434Y004037D01*
X013434Y004157D01*
X013314Y004157D01*
X013314Y004685D01*
X012471Y004685D01*
X012380Y004671D01*
X012292Y004642D01*
X012209Y004600D01*
X012134Y004546D01*
X012069Y004480D01*
X012014Y004405D01*
X011972Y004323D01*
X011944Y004235D01*
X011931Y004157D01*
X013314Y004157D01*
X013314Y004037D01*
X013434Y004037D01*
X013960Y004037D01*
X013947Y003959D01*
X013919Y003871D01*
X013877Y003789D01*
X013822Y003714D01*
X013757Y003648D01*
X013682Y003594D01*
X013599Y003552D01*
X013434Y003544D02*
X013314Y003544D01*
X013314Y003509D02*
X013314Y004037D01*
X011931Y004037D01*
X011944Y003959D01*
X011972Y003871D01*
X012014Y003789D01*
X012069Y003714D01*
X012134Y003648D01*
X012209Y003594D01*
X012292Y003552D01*
X012380Y003523D01*
X012471Y003509D01*
X013314Y003509D01*
X013314Y003662D02*
X013434Y003662D01*
X013434Y003781D02*
X013314Y003781D01*
X013314Y003899D02*
X013434Y003899D01*
X013434Y004018D02*
X013314Y004018D01*
X013314Y004136D02*
X000455Y004136D01*
X000455Y004018D02*
X011934Y004018D01*
X011963Y003899D02*
X000455Y003899D01*
X000455Y003781D02*
X012020Y003781D01*
X012121Y003662D02*
X000455Y003662D01*
X000455Y003544D02*
X012317Y003544D01*
X011950Y004255D02*
X000455Y004255D01*
X000455Y004373D02*
X011998Y004373D01*
X012080Y004492D02*
X000455Y004492D01*
X000455Y004610D02*
X012229Y004610D01*
X013314Y004610D02*
X013434Y004610D01*
X013434Y004492D02*
X013314Y004492D01*
X013314Y004373D02*
X013434Y004373D01*
X013434Y004255D02*
X013314Y004255D01*
X013434Y004136D02*
X020212Y004136D01*
X020094Y004255D02*
X013941Y004255D01*
X013956Y004018D02*
X020331Y004018D01*
X020449Y003899D02*
X013928Y003899D01*
X013871Y003781D02*
X020568Y003781D01*
X020686Y003662D02*
X013770Y003662D01*
X011935Y006151D02*
X000455Y006151D01*
X000455Y006269D02*
X011965Y006269D01*
X012024Y006388D02*
X000455Y006388D01*
X000455Y006506D02*
X012126Y006506D01*
X012334Y006625D02*
X000455Y006625D01*
X000455Y003425D02*
X022505Y003425D01*
X022810Y002951D02*
X002362Y002951D01*
X002320Y002968D02*
X001986Y002968D01*
X001677Y002841D01*
X001441Y002604D01*
X001313Y002296D01*
X001313Y001961D01*
X001441Y001653D01*
X001677Y001416D01*
X001986Y001289D01*
X002320Y001289D01*
X002629Y001416D01*
X002865Y001653D01*
X002993Y001961D01*
X002993Y002296D01*
X002865Y002604D01*
X002629Y002841D01*
X002320Y002968D01*
X002637Y002833D02*
X022535Y002833D01*
X022543Y002841D02*
X022307Y002604D01*
X022179Y002296D01*
X022179Y001961D01*
X022307Y001653D01*
X022543Y001416D01*
X022852Y001289D01*
X023186Y001289D01*
X023495Y001416D01*
X023731Y001653D01*
X023859Y001961D01*
X023859Y002296D01*
X023731Y002604D01*
X023495Y002841D01*
X023186Y002968D01*
X022852Y002968D01*
X022543Y002841D01*
X022417Y002714D02*
X002755Y002714D01*
X002869Y002596D02*
X022304Y002596D01*
X022254Y002477D02*
X002918Y002477D01*
X002967Y002359D02*
X022205Y002359D01*
X022179Y002240D02*
X002993Y002240D01*
X002993Y002122D02*
X022179Y002122D01*
X022179Y002003D02*
X002993Y002003D01*
X002961Y001885D02*
X022211Y001885D01*
X022260Y001766D02*
X002912Y001766D01*
X002860Y001648D02*
X022312Y001648D01*
X022431Y001529D02*
X002741Y001529D01*
X002615Y001411D02*
X022558Y001411D01*
X022844Y001292D02*
X002328Y001292D01*
X001978Y001292D02*
X000455Y001292D01*
X000455Y001174D02*
X024521Y001174D01*
X024521Y001292D02*
X023195Y001292D01*
X023481Y001411D02*
X024521Y001411D01*
X024521Y001529D02*
X023608Y001529D01*
X023726Y001648D02*
X024521Y001648D01*
X024521Y001766D02*
X023778Y001766D01*
X023827Y001885D02*
X024521Y001885D01*
X024521Y002003D02*
X023859Y002003D01*
X023859Y002122D02*
X024521Y002122D01*
X024521Y002240D02*
X023859Y002240D01*
X023833Y002359D02*
X024521Y002359D01*
X024521Y002477D02*
X023784Y002477D01*
X023735Y002596D02*
X024521Y002596D01*
X024521Y002714D02*
X023622Y002714D01*
X023503Y002833D02*
X024521Y002833D01*
X024521Y002951D02*
X023228Y002951D01*
X023829Y003425D02*
X024521Y003425D01*
X024521Y003307D02*
X000455Y003307D01*
X000455Y003188D02*
X024521Y003188D01*
X024521Y003070D02*
X000455Y003070D01*
X000455Y002951D02*
X001944Y002951D01*
X001669Y002833D02*
X000455Y002833D01*
X000455Y002714D02*
X001551Y002714D01*
X001437Y002596D02*
X000455Y002596D01*
X000455Y002477D02*
X001388Y002477D01*
X001339Y002359D02*
X000455Y002359D01*
X000455Y002240D02*
X001313Y002240D01*
X001313Y002122D02*
X000455Y002122D01*
X000455Y002003D02*
X001313Y002003D01*
X001345Y001885D02*
X000455Y001885D01*
X000455Y001766D02*
X001394Y001766D01*
X001446Y001648D02*
X000455Y001648D01*
X000455Y001529D02*
X001565Y001529D01*
X001692Y001411D02*
X000455Y001411D01*
X000455Y001055D02*
X024521Y001055D01*
X024521Y000937D02*
X000455Y000937D01*
X000455Y000818D02*
X024521Y000818D01*
X024521Y000700D02*
X000455Y000700D01*
X023723Y004373D02*
X024521Y004373D01*
X024521Y004255D02*
X023784Y004255D01*
X023920Y004136D02*
X024521Y004136D01*
X024521Y004018D02*
X023988Y004018D01*
X024027Y003899D02*
X024521Y003899D01*
X024521Y003781D02*
X024027Y003781D01*
X023999Y003662D02*
X024521Y003662D01*
X024521Y003544D02*
X023947Y003544D01*
X023895Y004492D02*
X024521Y004492D01*
X024521Y004610D02*
X023978Y004610D01*
X024027Y004729D02*
X024521Y004729D01*
X024521Y004847D02*
X024027Y004847D01*
X024010Y004966D02*
X024521Y004966D01*
X024521Y005084D02*
X023961Y005084D01*
X023854Y005203D02*
X024521Y005203D01*
D19*
X021472Y000995D03*
X017472Y000995D03*
X012972Y000995D03*
X008472Y000995D03*
X003972Y000995D03*
X000972Y005495D03*
X000972Y010495D03*
X004614Y010470D03*
X005155Y012192D03*
X006312Y013570D03*
X008255Y012192D03*
X007517Y010470D03*
X008649Y007911D03*
X013423Y012242D03*
X013152Y015785D03*
X015490Y016646D03*
X014972Y018995D03*
X019472Y018995D03*
X023972Y018995D03*
X018738Y011602D03*
X017065Y008452D03*
X015293Y005844D03*
X017630Y004761D03*
X000972Y014495D03*
X000972Y018995D03*
D20*
X002531Y017180D02*
X002531Y013537D01*
X005598Y010470D01*
X007517Y010470D01*
X007517Y016843D01*
X007468Y016892D01*
X008649Y018073D02*
X008649Y011799D01*
X008255Y012192D01*
X008255Y012217D01*
X008649Y011799D02*
X008649Y007911D01*
X005155Y012192D02*
X004531Y012816D01*
X004531Y017180D01*
X013152Y015785D02*
X014875Y014063D01*
X014875Y006262D01*
X015293Y005844D01*
X017065Y008452D02*
X017065Y015071D01*
X015490Y016646D01*
X020977Y014145D02*
X021986Y013136D01*
X021986Y010372D01*
X021617Y010003D01*
X021617Y005352D01*
X022142Y004826D01*
X023167Y004826D01*
X023167Y003826D02*
X020805Y003826D01*
X020066Y004565D01*
X020066Y009962D01*
X020928Y010823D01*
D21*
X007468Y017827D02*
X007468Y018073D01*
X007468Y017827D02*
X007124Y017483D01*
X005672Y017483D01*
X005426Y017729D01*
X005426Y018541D01*
X005106Y018861D01*
X004212Y018861D01*
X003531Y018180D01*
M02*
