G75*
%MOIN*%
%OFA0B0*%
%FSLAX24Y24*%
%IPPOS*%
%LPD*%
%AMOC8*
5,1,8,0,0,1.08239X$1,22.5*
%
%ADD10C,0.0120*%
%ADD11C,0.0000*%
%ADD12R,0.0740X0.0740*%
%ADD13OC8,0.0740*%
%ADD14C,0.0856*%
%ADD15OC8,0.0660*%
%ADD16C,0.0740*%
%ADD17C,0.0740*%
%ADD18OC8,0.0827*%
%ADD19R,0.0827X0.0827*%
%ADD20C,0.0354*%
%ADD21C,0.0160*%
D10*
X000185Y000357D02*
X000185Y019845D01*
X024791Y019845D01*
X024791Y000357D01*
X000185Y000357D01*
X000455Y000627D02*
X000455Y019575D01*
X002191Y019575D01*
X002076Y019460D01*
X001461Y018845D01*
X001461Y018680D01*
X001461Y011716D01*
X001578Y011599D01*
X003965Y009212D01*
X012454Y009212D01*
X013084Y008582D01*
X012408Y008582D01*
X012207Y008499D01*
X012053Y008345D01*
X011969Y008143D01*
X011969Y007925D01*
X012053Y007724D01*
X012207Y007569D01*
X012408Y007486D01*
X013483Y007486D01*
X013593Y007532D01*
X014300Y006825D01*
X015031Y006825D01*
X015040Y006834D01*
X022226Y006834D01*
X022226Y006831D01*
X022472Y006585D01*
X014391Y006585D01*
X013924Y007053D01*
X009790Y007053D01*
X008946Y007897D01*
X008946Y007970D01*
X008901Y008079D01*
X008818Y008163D01*
X008708Y008208D01*
X008590Y008208D01*
X008481Y008163D01*
X008397Y008079D01*
X008352Y007970D01*
X008352Y007852D01*
X008397Y007743D01*
X008481Y007659D01*
X008590Y007614D01*
X008663Y007614D01*
X009507Y006770D01*
X009624Y006653D01*
X012466Y006653D01*
X012380Y006639D01*
X012292Y006611D01*
X012209Y006569D01*
X012134Y006514D01*
X012069Y006449D01*
X012014Y006374D01*
X011972Y006291D01*
X011944Y006203D01*
X011931Y006126D01*
X013314Y006126D01*
X013314Y006653D01*
X013758Y006653D01*
X014109Y006303D01*
X014226Y006185D01*
X023150Y006185D01*
X023509Y006544D01*
X024125Y006544D01*
X023625Y006044D01*
X015513Y006044D01*
X015461Y006096D01*
X015352Y006141D01*
X015234Y006141D01*
X015125Y006096D01*
X015041Y006012D01*
X014996Y005903D01*
X014996Y005785D01*
X015041Y005676D01*
X015125Y005592D01*
X015234Y005547D01*
X015352Y005547D01*
X015461Y005592D01*
X015513Y005644D01*
X023791Y005644D01*
X024455Y006308D01*
X024521Y006374D01*
X024521Y000627D01*
X000455Y000627D01*
X000455Y000700D02*
X024521Y000700D01*
X024521Y000818D02*
X000455Y000818D01*
X000455Y000937D02*
X024521Y000937D01*
X024521Y001055D02*
X000455Y001055D01*
X000455Y001174D02*
X024521Y001174D01*
X024521Y001292D02*
X023195Y001292D01*
X023186Y001289D02*
X023495Y001416D01*
X023731Y001653D01*
X023859Y001961D01*
X023859Y002296D01*
X023731Y002604D01*
X023495Y002841D01*
X023186Y002968D01*
X022852Y002968D01*
X022543Y002841D01*
X022307Y002604D01*
X022179Y002296D01*
X022179Y001961D01*
X022307Y001653D01*
X022543Y001416D01*
X022852Y001289D01*
X023186Y001289D01*
X023481Y001411D02*
X024521Y001411D01*
X024521Y001529D02*
X023608Y001529D01*
X023726Y001648D02*
X024521Y001648D01*
X024521Y001766D02*
X023778Y001766D01*
X023827Y001885D02*
X024521Y001885D01*
X024521Y002003D02*
X023859Y002003D01*
X023859Y002122D02*
X024521Y002122D01*
X024521Y002240D02*
X023859Y002240D01*
X023833Y002359D02*
X024521Y002359D01*
X024521Y002477D02*
X023784Y002477D01*
X023735Y002596D02*
X024521Y002596D01*
X024521Y002714D02*
X023622Y002714D01*
X023503Y002833D02*
X024521Y002833D01*
X024521Y002951D02*
X023228Y002951D01*
X022810Y002951D02*
X002362Y002951D01*
X002320Y002968D02*
X001986Y002968D01*
X001677Y002841D01*
X001441Y002604D01*
X001313Y002296D01*
X001313Y001961D01*
X001441Y001653D01*
X001677Y001416D01*
X001986Y001289D01*
X002320Y001289D01*
X002629Y001416D01*
X002865Y001653D01*
X002993Y001961D01*
X002993Y002296D01*
X002865Y002604D01*
X002629Y002841D01*
X002320Y002968D01*
X002637Y002833D02*
X022535Y002833D01*
X022417Y002714D02*
X002755Y002714D01*
X002869Y002596D02*
X022304Y002596D01*
X022254Y002477D02*
X002918Y002477D01*
X002967Y002359D02*
X022205Y002359D01*
X022179Y002240D02*
X002993Y002240D01*
X002993Y002122D02*
X022179Y002122D01*
X022179Y002003D02*
X002993Y002003D01*
X002961Y001885D02*
X022211Y001885D01*
X022260Y001766D02*
X002912Y001766D01*
X002860Y001648D02*
X022312Y001648D01*
X022431Y001529D02*
X002741Y001529D01*
X002615Y001411D02*
X022558Y001411D01*
X022844Y001292D02*
X002328Y001292D01*
X001978Y001292D02*
X000455Y001292D01*
X000455Y001411D02*
X001692Y001411D01*
X001565Y001529D02*
X000455Y001529D01*
X000455Y001648D02*
X001446Y001648D01*
X001394Y001766D02*
X000455Y001766D01*
X000455Y001885D02*
X001345Y001885D01*
X001313Y002003D02*
X000455Y002003D01*
X000455Y002122D02*
X001313Y002122D01*
X001313Y002240D02*
X000455Y002240D01*
X000455Y002359D02*
X001339Y002359D01*
X001388Y002477D02*
X000455Y002477D01*
X000455Y002596D02*
X001437Y002596D01*
X001551Y002714D02*
X000455Y002714D01*
X000455Y002833D02*
X001669Y002833D01*
X001944Y002951D02*
X000455Y002951D01*
X000455Y003070D02*
X024521Y003070D01*
X024521Y003188D02*
X000455Y003188D01*
X000455Y003307D02*
X024521Y003307D01*
X024521Y003425D02*
X023829Y003425D01*
X023814Y003411D02*
X023952Y003549D01*
X024027Y003729D01*
X024027Y003924D01*
X023952Y004104D01*
X023814Y004242D01*
X023634Y004316D01*
X022699Y004316D01*
X022519Y004242D01*
X022381Y004104D01*
X022307Y003924D01*
X022307Y003729D01*
X022381Y003549D01*
X022519Y003411D01*
X022699Y003336D01*
X023634Y003336D01*
X023814Y003411D01*
X023947Y003544D02*
X024521Y003544D01*
X024521Y003662D02*
X023999Y003662D01*
X024027Y003781D02*
X024521Y003781D01*
X024521Y003899D02*
X024027Y003899D01*
X023988Y004018D02*
X024521Y004018D01*
X024521Y004136D02*
X023920Y004136D01*
X023784Y004255D02*
X024521Y004255D01*
X024521Y004373D02*
X023723Y004373D01*
X023634Y004336D02*
X023814Y004411D01*
X023952Y004549D01*
X024027Y004729D01*
X024027Y004924D01*
X023952Y005104D01*
X023814Y005242D01*
X023634Y005316D01*
X022699Y005316D01*
X022519Y005242D01*
X022381Y005104D01*
X022307Y004924D01*
X022307Y004729D01*
X022381Y004549D01*
X022519Y004411D01*
X022699Y004336D01*
X023634Y004336D01*
X023895Y004492D02*
X024521Y004492D01*
X024521Y004610D02*
X023978Y004610D01*
X024027Y004729D02*
X024521Y004729D01*
X024521Y004847D02*
X024027Y004847D01*
X024010Y004966D02*
X024521Y004966D01*
X024521Y005084D02*
X023961Y005084D01*
X023854Y005203D02*
X024521Y005203D01*
X024521Y005321D02*
X000455Y005321D01*
X000455Y005203D02*
X022480Y005203D01*
X022373Y005084D02*
X000455Y005084D01*
X000455Y004966D02*
X022324Y004966D01*
X022307Y004847D02*
X000455Y004847D01*
X000455Y004729D02*
X022307Y004729D01*
X022356Y004610D02*
X013662Y004610D01*
X013682Y004600D02*
X013599Y004642D01*
X013511Y004671D01*
X013434Y004683D01*
X013434Y004157D01*
X013960Y004157D01*
X013947Y004235D01*
X013919Y004323D01*
X013877Y004405D01*
X013822Y004480D01*
X013757Y004546D01*
X013682Y004600D01*
X013811Y004492D02*
X022439Y004492D01*
X022611Y004373D02*
X013893Y004373D01*
X013941Y004255D02*
X022550Y004255D01*
X022414Y004136D02*
X013434Y004136D01*
X013434Y004157D02*
X013434Y004037D01*
X013960Y004037D01*
X013947Y003959D01*
X013919Y003871D01*
X013877Y003789D01*
X013822Y003714D01*
X013757Y003648D01*
X013682Y003594D01*
X013599Y003552D01*
X013511Y003523D01*
X013434Y003511D01*
X013434Y004037D01*
X013314Y004037D01*
X013314Y003509D01*
X012471Y003509D01*
X012380Y003523D01*
X012292Y003552D01*
X012209Y003594D01*
X012134Y003648D01*
X012069Y003714D01*
X012014Y003789D01*
X011972Y003871D01*
X011944Y003959D01*
X011931Y004037D01*
X013314Y004037D01*
X013314Y004157D01*
X013314Y004685D01*
X012471Y004685D01*
X012380Y004671D01*
X012292Y004642D01*
X012209Y004600D01*
X012134Y004546D01*
X012069Y004480D01*
X012014Y004405D01*
X011972Y004323D01*
X011944Y004235D01*
X011931Y004157D01*
X013314Y004157D01*
X013434Y004157D01*
X013434Y004255D02*
X013314Y004255D01*
X013314Y004373D02*
X013434Y004373D01*
X013434Y004492D02*
X013314Y004492D01*
X013314Y004610D02*
X013434Y004610D01*
X013314Y004136D02*
X000455Y004136D01*
X000455Y004018D02*
X011934Y004018D01*
X011963Y003899D02*
X000455Y003899D01*
X000455Y003781D02*
X012020Y003781D01*
X012121Y003662D02*
X000455Y003662D01*
X000455Y003544D02*
X012317Y003544D01*
X011950Y004255D02*
X000455Y004255D01*
X000455Y004373D02*
X011998Y004373D01*
X012080Y004492D02*
X000455Y004492D01*
X000455Y004610D02*
X012229Y004610D01*
X012380Y005492D02*
X012292Y005520D01*
X012209Y005562D01*
X012134Y005617D01*
X012069Y005682D01*
X012014Y005757D01*
X011972Y005840D01*
X011944Y005928D01*
X011931Y006006D01*
X013314Y006006D01*
X013434Y006006D01*
X013434Y006126D01*
X013314Y006126D01*
X013314Y006006D01*
X013314Y005477D01*
X012471Y005477D01*
X012380Y005492D01*
X012218Y005558D02*
X000455Y005558D01*
X000455Y005440D02*
X024521Y005440D01*
X024521Y005558D02*
X015379Y005558D01*
X015207Y005558D02*
X013673Y005558D01*
X013682Y005562D02*
X013757Y005617D01*
X013822Y005682D01*
X013877Y005757D01*
X013919Y005840D01*
X013947Y005928D01*
X013960Y006006D01*
X013434Y006006D01*
X013434Y005480D01*
X013511Y005492D01*
X013599Y005520D01*
X013682Y005562D01*
X013816Y005677D02*
X015041Y005677D01*
X014996Y005795D02*
X013896Y005795D01*
X013943Y005914D02*
X015000Y005914D01*
X015061Y006032D02*
X013434Y006032D01*
X013434Y006126D02*
X013960Y006126D01*
X013947Y006203D01*
X013919Y006291D01*
X013877Y006374D01*
X013822Y006449D01*
X013757Y006514D01*
X013682Y006569D01*
X013599Y006611D01*
X013511Y006639D01*
X013434Y006651D01*
X013434Y006126D01*
X013434Y006151D02*
X013314Y006151D01*
X013314Y006269D02*
X013434Y006269D01*
X013434Y006388D02*
X013314Y006388D01*
X013314Y006506D02*
X013434Y006506D01*
X013434Y006625D02*
X013314Y006625D01*
X013556Y006625D02*
X013787Y006625D01*
X013765Y006506D02*
X013905Y006506D01*
X013867Y006388D02*
X014024Y006388D01*
X013926Y006269D02*
X014142Y006269D01*
X013956Y006151D02*
X023732Y006151D01*
X023850Y006269D02*
X023234Y006269D01*
X023352Y006388D02*
X023969Y006388D01*
X024087Y006506D02*
X023471Y006506D01*
X023142Y006743D02*
X023118Y006743D01*
X023206Y006831D02*
X022960Y006585D01*
X022985Y006585D01*
X023226Y006827D01*
X023226Y007454D01*
X023296Y007524D01*
X023943Y007524D01*
X023921Y007546D01*
X023919Y007544D01*
X023513Y007544D01*
X023226Y007831D01*
X023226Y008237D01*
X023513Y008524D01*
X023919Y008524D01*
X024206Y008237D01*
X024206Y007831D01*
X024204Y007829D01*
X024521Y007512D01*
X024521Y019575D01*
X005216Y019575D01*
X005743Y019048D01*
X005822Y019240D01*
X005976Y019394D01*
X006178Y019478D01*
X006396Y019478D01*
X006597Y019394D01*
X006752Y019240D01*
X006835Y019039D01*
X006835Y017964D01*
X006752Y017763D01*
X006597Y017609D01*
X006396Y017525D01*
X006178Y017525D01*
X005976Y017609D01*
X005822Y017763D01*
X005776Y017873D01*
X004979Y017873D01*
X004819Y017713D01*
X004994Y017713D01*
X005064Y017643D01*
X005064Y016717D01*
X004994Y016646D01*
X004068Y016646D01*
X003998Y016717D01*
X003998Y016892D01*
X003752Y016646D01*
X003731Y016646D01*
X003731Y016532D01*
X003934Y016329D01*
X005392Y016329D01*
X005739Y016676D01*
X005739Y017001D01*
X005822Y017203D01*
X005976Y017357D01*
X006178Y017440D01*
X006396Y017440D01*
X006597Y017357D01*
X006752Y017203D01*
X006835Y017001D01*
X006835Y015927D01*
X006752Y015725D01*
X006597Y015571D01*
X006462Y015515D01*
X006462Y015302D01*
X006591Y015173D01*
X007927Y015173D01*
X008621Y015868D01*
X008621Y015868D01*
X008739Y015985D01*
X012932Y015985D01*
X012984Y016037D01*
X013093Y016082D01*
X013211Y016082D01*
X013320Y016037D01*
X013404Y015953D01*
X013449Y015844D01*
X013449Y015726D01*
X013404Y015617D01*
X013320Y015533D01*
X013211Y015488D01*
X013093Y015488D01*
X012984Y015533D01*
X012932Y015585D01*
X008904Y015585D01*
X008209Y014890D01*
X008209Y014890D01*
X008092Y014773D01*
X006426Y014773D01*
X006180Y015019D01*
X006062Y015136D01*
X006062Y015536D01*
X005976Y015571D01*
X005822Y015725D01*
X005739Y015927D01*
X005739Y016111D01*
X005675Y016047D01*
X005558Y015929D01*
X003768Y015929D01*
X003448Y016249D01*
X003448Y016249D01*
X003331Y016367D01*
X003331Y016646D01*
X003310Y016646D01*
X003031Y016925D01*
X002752Y016646D01*
X002310Y016646D01*
X001998Y016959D01*
X001998Y017401D01*
X002248Y017651D01*
X001958Y017942D01*
X001958Y018120D01*
X002471Y018120D01*
X002471Y018240D01*
X002471Y018753D01*
X002294Y018753D01*
X001958Y018417D01*
X001958Y018240D01*
X002471Y018240D01*
X002591Y018240D01*
X002591Y018753D01*
X002769Y018753D01*
X003059Y018462D01*
X003310Y018713D01*
X003752Y018713D01*
X004031Y018434D01*
X004310Y018713D01*
X004752Y018713D01*
X005064Y018401D01*
X005064Y018273D01*
X005739Y018273D01*
X005739Y018486D01*
X005048Y019178D01*
X002359Y019178D01*
X001861Y018680D01*
X001861Y011882D01*
X004131Y009612D01*
X012620Y009612D01*
X012737Y009495D01*
X013574Y008658D01*
X013574Y008544D01*
X013684Y008499D01*
X013838Y008345D01*
X013922Y008143D01*
X013922Y007925D01*
X013876Y007814D01*
X014465Y007225D01*
X014866Y007225D01*
X014874Y007234D01*
X022226Y007234D01*
X022226Y007237D01*
X022513Y007524D01*
X022919Y007524D01*
X023206Y007237D01*
X023206Y006831D01*
X023206Y006862D02*
X023226Y006862D01*
X023226Y006980D02*
X023206Y006980D01*
X023206Y007099D02*
X023226Y007099D01*
X023226Y007217D02*
X023206Y007217D01*
X023226Y007336D02*
X023108Y007336D01*
X023226Y007454D02*
X022989Y007454D01*
X022919Y007544D02*
X023206Y007831D01*
X023206Y008237D01*
X022937Y008506D01*
X023244Y008813D01*
X023513Y008544D01*
X023919Y008544D01*
X024206Y008831D01*
X024206Y009237D01*
X023919Y009524D01*
X023884Y009524D01*
X023884Y009790D01*
X023766Y009907D01*
X023545Y010129D01*
X022026Y010129D01*
X021909Y010012D01*
X021131Y009234D01*
X014573Y009234D01*
X013549Y010258D01*
X013432Y010375D01*
X007895Y010375D01*
X007814Y010456D01*
X007814Y010529D01*
X007769Y010638D01*
X007686Y010722D01*
X007576Y010767D01*
X007458Y010767D01*
X007349Y010722D01*
X007265Y010638D01*
X007220Y010529D01*
X007220Y010411D01*
X007265Y010302D01*
X007349Y010218D01*
X007458Y010173D01*
X007532Y010173D01*
X007730Y009975D01*
X013266Y009975D01*
X014290Y008951D01*
X014407Y008834D01*
X021297Y008834D01*
X022192Y009729D01*
X023379Y009729D01*
X023484Y009624D01*
X023484Y009494D01*
X023244Y009255D01*
X022936Y009564D01*
X022756Y009564D01*
X022756Y009074D01*
X022676Y009074D01*
X022676Y008994D01*
X022186Y008994D01*
X022186Y008814D01*
X022495Y008506D01*
X022226Y008237D01*
X022226Y008234D01*
X017566Y008234D01*
X017362Y008438D01*
X017362Y008511D01*
X017316Y008621D01*
X017233Y008704D01*
X017124Y008749D01*
X017005Y008749D01*
X016896Y008704D01*
X016813Y008621D01*
X016767Y008511D01*
X016767Y008393D01*
X016813Y008284D01*
X016896Y008200D01*
X017005Y008155D01*
X017079Y008155D01*
X017400Y007834D01*
X022226Y007834D01*
X022226Y007831D01*
X022513Y007544D01*
X022919Y007544D01*
X022948Y007573D02*
X023485Y007573D01*
X023366Y007691D02*
X023066Y007691D01*
X023185Y007810D02*
X023248Y007810D01*
X023226Y007928D02*
X023206Y007928D01*
X023206Y008047D02*
X023226Y008047D01*
X023226Y008165D02*
X023206Y008165D01*
X023160Y008284D02*
X023273Y008284D01*
X023391Y008402D02*
X023041Y008402D01*
X022952Y008521D02*
X023510Y008521D01*
X023418Y008639D02*
X023071Y008639D01*
X023189Y008758D02*
X023300Y008758D01*
X022756Y009113D02*
X022676Y009113D01*
X022676Y009074D02*
X022676Y009564D01*
X022497Y009564D01*
X022186Y009254D01*
X022186Y009074D01*
X022676Y009074D01*
X022676Y008995D02*
X021457Y008995D01*
X021576Y009113D02*
X022186Y009113D01*
X022186Y009232D02*
X021694Y009232D01*
X021813Y009350D02*
X022283Y009350D01*
X022401Y009469D02*
X021931Y009469D01*
X022050Y009587D02*
X023484Y009587D01*
X023458Y009469D02*
X023031Y009469D01*
X023150Y009350D02*
X023339Y009350D01*
X023403Y009706D02*
X022168Y009706D01*
X021840Y009943D02*
X013864Y009943D01*
X013746Y010061D02*
X021958Y010061D01*
X021721Y009824D02*
X013983Y009824D01*
X014101Y009706D02*
X021603Y009706D01*
X021484Y009587D02*
X014220Y009587D01*
X014338Y009469D02*
X021366Y009469D01*
X021247Y009350D02*
X014457Y009350D01*
X014128Y009113D02*
X013119Y009113D01*
X013237Y008995D02*
X014246Y008995D01*
X014365Y008876D02*
X013356Y008876D01*
X013474Y008758D02*
X022243Y008758D01*
X022186Y008876D02*
X021339Y008876D01*
X022362Y008639D02*
X017298Y008639D01*
X017358Y008521D02*
X022480Y008521D01*
X022391Y008402D02*
X017398Y008402D01*
X017516Y008284D02*
X022273Y008284D01*
X022248Y007810D02*
X013881Y007810D01*
X013922Y007928D02*
X017306Y007928D01*
X017187Y008047D02*
X013922Y008047D01*
X013913Y008165D02*
X016982Y008165D01*
X016813Y008284D02*
X013864Y008284D01*
X013781Y008402D02*
X016767Y008402D01*
X016771Y008521D02*
X013631Y008521D01*
X013574Y008639D02*
X016831Y008639D01*
X014355Y007336D02*
X022325Y007336D01*
X022443Y007454D02*
X014236Y007454D01*
X014118Y007573D02*
X022485Y007573D01*
X022366Y007691D02*
X013999Y007691D01*
X013671Y007454D02*
X009389Y007454D01*
X009507Y007336D02*
X013789Y007336D01*
X013908Y007217D02*
X009626Y007217D01*
X009744Y007099D02*
X014026Y007099D01*
X013997Y006980D02*
X014145Y006980D01*
X014115Y006862D02*
X014263Y006862D01*
X014234Y006743D02*
X022314Y006743D01*
X022433Y006625D02*
X014352Y006625D01*
X013434Y005914D02*
X013314Y005914D01*
X013314Y006032D02*
X000455Y006032D01*
X000455Y005914D02*
X011948Y005914D01*
X011995Y005795D02*
X000455Y005795D01*
X000455Y005677D02*
X012075Y005677D01*
X011935Y006151D02*
X000455Y006151D01*
X000455Y006269D02*
X011965Y006269D01*
X012024Y006388D02*
X000455Y006388D01*
X000455Y006506D02*
X012126Y006506D01*
X012334Y006625D02*
X000455Y006625D01*
X000455Y006743D02*
X009534Y006743D01*
X009416Y006862D02*
X000455Y006862D01*
X000455Y006980D02*
X009297Y006980D01*
X009179Y007099D02*
X000455Y007099D01*
X000455Y007217D02*
X009060Y007217D01*
X008942Y007336D02*
X000455Y007336D01*
X000455Y007454D02*
X008823Y007454D01*
X008705Y007573D02*
X000455Y007573D01*
X000455Y007691D02*
X008449Y007691D01*
X008370Y007810D02*
X000455Y007810D01*
X000455Y007928D02*
X008352Y007928D01*
X008384Y008047D02*
X000455Y008047D01*
X000455Y008165D02*
X008486Y008165D01*
X008812Y008165D02*
X011978Y008165D01*
X011969Y008047D02*
X008915Y008047D01*
X008946Y007928D02*
X011969Y007928D01*
X012017Y007810D02*
X009033Y007810D01*
X009152Y007691D02*
X012085Y007691D01*
X012204Y007573D02*
X009270Y007573D01*
X012027Y008284D02*
X000455Y008284D01*
X000455Y008402D02*
X012110Y008402D01*
X012259Y008521D02*
X000455Y008521D01*
X000455Y008639D02*
X013027Y008639D01*
X012909Y008758D02*
X000455Y008758D01*
X000455Y008876D02*
X012790Y008876D01*
X012672Y008995D02*
X000455Y008995D01*
X000455Y009113D02*
X012553Y009113D01*
X012882Y009350D02*
X013891Y009350D01*
X014009Y009232D02*
X013000Y009232D01*
X012763Y009469D02*
X013772Y009469D01*
X013654Y009587D02*
X012645Y009587D01*
X013298Y009943D02*
X003800Y009943D01*
X003682Y010061D02*
X007643Y010061D01*
X007442Y010180D02*
X003563Y010180D01*
X003445Y010298D02*
X007269Y010298D01*
X007220Y010417D02*
X003326Y010417D01*
X003208Y010535D02*
X007223Y010535D01*
X007281Y010654D02*
X003089Y010654D01*
X002971Y010772D02*
X020438Y010772D01*
X020438Y010726D02*
X020512Y010546D01*
X020650Y010408D01*
X020830Y010333D01*
X021025Y010333D01*
X021205Y010408D01*
X021343Y010546D01*
X021418Y010726D01*
X021418Y010921D01*
X021343Y011101D01*
X021205Y011239D01*
X021025Y011313D01*
X020830Y011313D01*
X020650Y011239D01*
X020512Y011101D01*
X020438Y010921D01*
X020438Y010726D01*
X020468Y010654D02*
X007754Y010654D01*
X007812Y010535D02*
X020523Y010535D01*
X020642Y010417D02*
X007854Y010417D01*
X008196Y011895D02*
X008315Y011895D01*
X008424Y011941D01*
X008507Y012024D01*
X008553Y012133D01*
X008553Y012252D01*
X008507Y012361D01*
X008424Y012444D01*
X008315Y012490D01*
X008196Y012490D01*
X008087Y012444D01*
X008035Y012392D01*
X005375Y012392D01*
X005323Y012444D01*
X005214Y012490D01*
X005096Y012490D01*
X004987Y012444D01*
X004903Y012361D01*
X004858Y012252D01*
X004858Y012133D01*
X004903Y012024D01*
X004987Y011941D01*
X005096Y011895D01*
X005214Y011895D01*
X005323Y011941D01*
X005375Y011992D01*
X008035Y011992D01*
X008087Y011941D01*
X008196Y011895D01*
X008071Y011957D02*
X005340Y011957D01*
X004970Y011957D02*
X001861Y011957D01*
X001861Y012076D02*
X004882Y012076D01*
X004858Y012194D02*
X001861Y012194D01*
X001861Y012313D02*
X004883Y012313D01*
X004973Y012431D02*
X001861Y012431D01*
X001861Y012550D02*
X024521Y012550D01*
X024521Y012668D02*
X001861Y012668D01*
X001861Y012787D02*
X024521Y012787D01*
X024521Y012905D02*
X001861Y012905D01*
X001861Y013024D02*
X024521Y013024D01*
X024521Y013142D02*
X012068Y013142D01*
X011966Y013100D02*
X012275Y013227D01*
X012511Y013464D01*
X012639Y013772D01*
X012639Y014107D01*
X012511Y014415D01*
X012275Y014652D01*
X011966Y014779D01*
X011632Y014779D01*
X011323Y014652D01*
X011087Y014415D01*
X010959Y014107D01*
X010959Y013772D01*
X011087Y013464D01*
X011323Y013227D01*
X011632Y013100D01*
X011966Y013100D01*
X012308Y013261D02*
X024521Y013261D01*
X024521Y013379D02*
X012426Y013379D01*
X012525Y013498D02*
X024521Y013498D01*
X024521Y013616D02*
X012574Y013616D01*
X012623Y013735D02*
X020695Y013735D01*
X020699Y013730D02*
X020879Y013655D01*
X021074Y013655D01*
X021254Y013730D01*
X021392Y013868D01*
X021467Y014048D01*
X021467Y014243D01*
X021392Y014423D01*
X021254Y014561D01*
X021074Y014635D01*
X020879Y014635D01*
X020699Y014561D01*
X020562Y014423D01*
X020487Y014243D01*
X020487Y014048D01*
X020562Y013868D01*
X020699Y013730D01*
X020576Y013853D02*
X012639Y013853D01*
X012639Y013972D02*
X020519Y013972D01*
X020487Y014090D02*
X012639Y014090D01*
X012596Y014209D02*
X020487Y014209D01*
X020522Y014327D02*
X012547Y014327D01*
X012481Y014446D02*
X020584Y014446D01*
X020708Y014564D02*
X012362Y014564D01*
X012200Y014683D02*
X020814Y014683D01*
X020879Y014655D02*
X020699Y014730D01*
X020562Y014868D01*
X020487Y015048D01*
X020487Y015243D01*
X020562Y015423D01*
X020699Y015561D01*
X020879Y015635D01*
X021074Y015635D01*
X021254Y015561D01*
X021392Y015423D01*
X021424Y015345D01*
X022280Y015345D01*
X022530Y015595D01*
X022902Y015595D01*
X023166Y015332D01*
X023166Y014959D01*
X022902Y014695D01*
X022530Y014695D01*
X022280Y014945D01*
X021424Y014945D01*
X021392Y014868D01*
X021254Y014730D01*
X021074Y014655D01*
X020879Y014655D01*
X021140Y014683D02*
X023486Y014683D01*
X023513Y014655D02*
X023696Y014655D01*
X023696Y015125D01*
X023736Y015125D01*
X023736Y014655D01*
X023919Y014655D01*
X024206Y014942D01*
X024206Y015125D01*
X023736Y015125D01*
X023736Y015165D01*
X024206Y015165D01*
X024206Y015348D01*
X023919Y015635D01*
X023736Y015635D01*
X023736Y015165D01*
X023696Y015165D01*
X023696Y015125D01*
X023226Y015125D01*
X023226Y014942D01*
X023513Y014655D01*
X023696Y014683D02*
X023736Y014683D01*
X023736Y014801D02*
X023696Y014801D01*
X023696Y014920D02*
X023736Y014920D01*
X023736Y015038D02*
X023696Y015038D01*
X023696Y015157D02*
X023166Y015157D01*
X023226Y015165D02*
X023696Y015165D01*
X023696Y015635D01*
X023513Y015635D01*
X023226Y015348D01*
X023226Y015165D01*
X023226Y015275D02*
X023166Y015275D01*
X023104Y015394D02*
X023271Y015394D01*
X023390Y015512D02*
X022986Y015512D01*
X023166Y015038D02*
X023226Y015038D01*
X023249Y014920D02*
X023127Y014920D01*
X023008Y014801D02*
X023367Y014801D01*
X023736Y015157D02*
X024521Y015157D01*
X024521Y015275D02*
X024206Y015275D01*
X024161Y015394D02*
X024521Y015394D01*
X024521Y015512D02*
X024042Y015512D01*
X023924Y015631D02*
X024521Y015631D01*
X024521Y015749D02*
X013449Y015749D01*
X013440Y015868D02*
X024521Y015868D01*
X024521Y015986D02*
X013371Y015986D01*
X013410Y015631D02*
X020868Y015631D01*
X021086Y015631D02*
X023508Y015631D01*
X023696Y015631D02*
X023736Y015631D01*
X023736Y015512D02*
X023696Y015512D01*
X023696Y015394D02*
X023736Y015394D01*
X023736Y015275D02*
X023696Y015275D01*
X024206Y015038D02*
X024521Y015038D01*
X024521Y014920D02*
X024183Y014920D01*
X024065Y014801D02*
X024521Y014801D01*
X024521Y014683D02*
X023946Y014683D01*
X024521Y014564D02*
X021246Y014564D01*
X021370Y014446D02*
X024521Y014446D01*
X024521Y014327D02*
X021432Y014327D01*
X021467Y014209D02*
X024521Y014209D01*
X024521Y014090D02*
X021467Y014090D01*
X021435Y013972D02*
X024521Y013972D01*
X024521Y013853D02*
X021378Y013853D01*
X021259Y013735D02*
X024521Y013735D01*
X024521Y012431D02*
X008437Y012431D01*
X008527Y012313D02*
X020828Y012313D01*
X020830Y012313D02*
X020650Y012239D01*
X020512Y012101D01*
X020438Y011921D01*
X020438Y011726D01*
X020512Y011546D01*
X020650Y011408D01*
X020830Y011333D01*
X021025Y011333D01*
X021205Y011408D01*
X021343Y011546D01*
X021375Y011623D01*
X022255Y011623D01*
X022505Y011373D01*
X022878Y011373D01*
X023141Y011637D01*
X023141Y012010D01*
X022878Y012273D01*
X022505Y012273D01*
X022255Y012023D01*
X021375Y012023D01*
X021343Y012101D01*
X021205Y012239D01*
X021025Y012313D01*
X020830Y012313D01*
X021027Y012313D02*
X023488Y012313D01*
X023489Y012313D02*
X023201Y012026D01*
X023201Y011843D01*
X023671Y011843D01*
X023671Y011803D01*
X023201Y011803D01*
X023201Y011620D01*
X023489Y011333D01*
X023671Y011333D01*
X023671Y011803D01*
X023711Y011803D01*
X023711Y011333D01*
X023894Y011333D01*
X024181Y011620D01*
X024181Y011803D01*
X023712Y011803D01*
X023712Y011843D01*
X024181Y011843D01*
X024181Y012026D01*
X023894Y012313D01*
X023711Y012313D01*
X023711Y011843D01*
X023671Y011843D01*
X023671Y012313D01*
X023489Y012313D01*
X023369Y012194D02*
X022957Y012194D01*
X023076Y012076D02*
X023251Y012076D01*
X023201Y011957D02*
X023141Y011957D01*
X023141Y011839D02*
X023671Y011839D01*
X023712Y011839D02*
X024521Y011839D01*
X024521Y011957D02*
X024181Y011957D01*
X024132Y012076D02*
X024521Y012076D01*
X024521Y012194D02*
X024014Y012194D01*
X023895Y012313D02*
X024521Y012313D01*
X024521Y011720D02*
X024181Y011720D01*
X024163Y011602D02*
X024521Y011602D01*
X024521Y011483D02*
X024044Y011483D01*
X023926Y011365D02*
X024521Y011365D01*
X024521Y011246D02*
X021188Y011246D01*
X021100Y011365D02*
X023457Y011365D01*
X023339Y011483D02*
X022988Y011483D01*
X023106Y011602D02*
X023220Y011602D01*
X023201Y011720D02*
X023141Y011720D01*
X023671Y011720D02*
X023711Y011720D01*
X023711Y011602D02*
X023671Y011602D01*
X023671Y011483D02*
X023711Y011483D01*
X023711Y011365D02*
X023671Y011365D01*
X023671Y011957D02*
X023711Y011957D01*
X023711Y012076D02*
X023671Y012076D01*
X023671Y012194D02*
X023711Y012194D01*
X023711Y012313D02*
X023671Y012313D01*
X022426Y012194D02*
X021250Y012194D01*
X021354Y012076D02*
X022307Y012076D01*
X022277Y011602D02*
X021366Y011602D01*
X021280Y011483D02*
X022395Y011483D01*
X021381Y011009D02*
X024521Y011009D01*
X024521Y010891D02*
X021418Y010891D01*
X021418Y010772D02*
X024521Y010772D01*
X024521Y010654D02*
X021388Y010654D01*
X021332Y010535D02*
X024521Y010535D01*
X024521Y010417D02*
X021214Y010417D01*
X021317Y011128D02*
X024521Y011128D01*
X024521Y010298D02*
X013509Y010298D01*
X013549Y010258D02*
X013549Y010258D01*
X013627Y010180D02*
X024521Y010180D01*
X024521Y010061D02*
X023613Y010061D01*
X023731Y009943D02*
X024521Y009943D01*
X024521Y009824D02*
X023850Y009824D01*
X023884Y009706D02*
X024521Y009706D01*
X024521Y009587D02*
X023884Y009587D01*
X023975Y009469D02*
X024521Y009469D01*
X024521Y009350D02*
X024093Y009350D01*
X024206Y009232D02*
X024521Y009232D01*
X024521Y009113D02*
X024206Y009113D01*
X024206Y008995D02*
X024521Y008995D01*
X024521Y008876D02*
X024206Y008876D01*
X024133Y008758D02*
X024521Y008758D01*
X024521Y008639D02*
X024014Y008639D01*
X023923Y008521D02*
X024521Y008521D01*
X024521Y008402D02*
X024041Y008402D01*
X024160Y008284D02*
X024521Y008284D01*
X024521Y008165D02*
X024206Y008165D01*
X024206Y008047D02*
X024521Y008047D01*
X024521Y007928D02*
X024206Y007928D01*
X024223Y007810D02*
X024521Y007810D01*
X024521Y007691D02*
X024342Y007691D01*
X024460Y007573D02*
X024521Y007573D01*
X024521Y006269D02*
X024416Y006269D01*
X024521Y006151D02*
X024298Y006151D01*
X024179Y006032D02*
X024521Y006032D01*
X024521Y005914D02*
X024061Y005914D01*
X023942Y005795D02*
X024521Y005795D01*
X024521Y005677D02*
X023824Y005677D01*
X023024Y006625D02*
X023000Y006625D01*
X022756Y009232D02*
X022676Y009232D01*
X022676Y009350D02*
X022756Y009350D01*
X022756Y009469D02*
X022676Y009469D01*
X020438Y010891D02*
X002852Y010891D01*
X002734Y011009D02*
X020474Y011009D01*
X020539Y011128D02*
X002615Y011128D01*
X002497Y011246D02*
X020668Y011246D01*
X020755Y011365D02*
X002378Y011365D01*
X002260Y011483D02*
X020575Y011483D01*
X020489Y011602D02*
X002141Y011602D01*
X002023Y011720D02*
X020440Y011720D01*
X020438Y011839D02*
X001904Y011839D01*
X001575Y011602D02*
X000455Y011602D01*
X000455Y011720D02*
X001461Y011720D01*
X001461Y011839D02*
X000455Y011839D01*
X000455Y011957D02*
X001461Y011957D01*
X001461Y012076D02*
X000455Y012076D01*
X000455Y012194D02*
X001461Y012194D01*
X001461Y012313D02*
X000455Y012313D01*
X000455Y012431D02*
X001461Y012431D01*
X001461Y012550D02*
X000455Y012550D01*
X000455Y012668D02*
X001461Y012668D01*
X001461Y012787D02*
X000455Y012787D01*
X000455Y012905D02*
X001461Y012905D01*
X001461Y013024D02*
X000455Y013024D01*
X000455Y013142D02*
X001461Y013142D01*
X001461Y013261D02*
X000455Y013261D01*
X000455Y013379D02*
X001461Y013379D01*
X001461Y013498D02*
X000455Y013498D01*
X000455Y013616D02*
X001461Y013616D01*
X001461Y013735D02*
X000455Y013735D01*
X000455Y013853D02*
X001461Y013853D01*
X001461Y013972D02*
X000455Y013972D01*
X000455Y014090D02*
X001461Y014090D01*
X001461Y014209D02*
X000455Y014209D01*
X000455Y014327D02*
X001461Y014327D01*
X001461Y014446D02*
X000455Y014446D01*
X000455Y014564D02*
X001461Y014564D01*
X001461Y014683D02*
X000455Y014683D01*
X000455Y014801D02*
X001461Y014801D01*
X001461Y014920D02*
X000455Y014920D01*
X000455Y015038D02*
X001461Y015038D01*
X001461Y015157D02*
X000455Y015157D01*
X000455Y015275D02*
X001461Y015275D01*
X001461Y015394D02*
X000455Y015394D01*
X000455Y015512D02*
X001461Y015512D01*
X001461Y015631D02*
X000455Y015631D01*
X000455Y015749D02*
X001461Y015749D01*
X001461Y015868D02*
X000455Y015868D01*
X000455Y015986D02*
X001461Y015986D01*
X001461Y016105D02*
X000455Y016105D01*
X000455Y016223D02*
X001461Y016223D01*
X001461Y016342D02*
X000455Y016342D01*
X000455Y016460D02*
X001461Y016460D01*
X001461Y016579D02*
X000455Y016579D01*
X000455Y016697D02*
X001461Y016697D01*
X001461Y016816D02*
X000455Y016816D01*
X000455Y016934D02*
X001461Y016934D01*
X001461Y017053D02*
X000455Y017053D01*
X000455Y017171D02*
X001461Y017171D01*
X001461Y017290D02*
X000455Y017290D01*
X000455Y017408D02*
X001461Y017408D01*
X001461Y017527D02*
X000455Y017527D01*
X000455Y017645D02*
X001461Y017645D01*
X001461Y017764D02*
X000455Y017764D01*
X000455Y017882D02*
X001461Y017882D01*
X001461Y018001D02*
X000455Y018001D01*
X000455Y018119D02*
X001461Y018119D01*
X001461Y018238D02*
X000455Y018238D01*
X000455Y018356D02*
X001461Y018356D01*
X001461Y018475D02*
X000455Y018475D01*
X000455Y018593D02*
X001461Y018593D01*
X001461Y018712D02*
X000455Y018712D01*
X000455Y018830D02*
X001461Y018830D01*
X001564Y018949D02*
X000455Y018949D01*
X000455Y019067D02*
X001683Y019067D01*
X001801Y019186D02*
X000455Y019186D01*
X000455Y019304D02*
X001920Y019304D01*
X002038Y019423D02*
X000455Y019423D01*
X000455Y019541D02*
X002157Y019541D01*
X002249Y019067D02*
X005158Y019067D01*
X005277Y018949D02*
X002130Y018949D01*
X002012Y018830D02*
X005395Y018830D01*
X005514Y018712D02*
X004754Y018712D01*
X004872Y018593D02*
X005632Y018593D01*
X005739Y018475D02*
X004991Y018475D01*
X005064Y018356D02*
X005739Y018356D01*
X005822Y017764D02*
X004869Y017764D01*
X005062Y017645D02*
X005940Y017645D01*
X006175Y017527D02*
X005064Y017527D01*
X005064Y017408D02*
X006100Y017408D01*
X005909Y017290D02*
X005064Y017290D01*
X005064Y017171D02*
X005809Y017171D01*
X005760Y017053D02*
X005064Y017053D01*
X005064Y016934D02*
X005739Y016934D01*
X005739Y016816D02*
X005064Y016816D01*
X005045Y016697D02*
X005739Y016697D01*
X005641Y016579D02*
X003731Y016579D01*
X003803Y016697D02*
X004017Y016697D01*
X003998Y016816D02*
X003921Y016816D01*
X003803Y016460D02*
X005523Y016460D01*
X005404Y016342D02*
X003922Y016342D01*
X003593Y016105D02*
X001861Y016105D01*
X001861Y016223D02*
X003475Y016223D01*
X003356Y016342D02*
X001861Y016342D01*
X001861Y016460D02*
X003331Y016460D01*
X003331Y016579D02*
X001861Y016579D01*
X001861Y016697D02*
X002259Y016697D01*
X002141Y016816D02*
X001861Y016816D01*
X001861Y016934D02*
X002022Y016934D01*
X001998Y017053D02*
X001861Y017053D01*
X001861Y017171D02*
X001998Y017171D01*
X001998Y017290D02*
X001861Y017290D01*
X001861Y017408D02*
X002005Y017408D01*
X002124Y017527D02*
X001861Y017527D01*
X001861Y017645D02*
X002242Y017645D01*
X002136Y017764D02*
X001861Y017764D01*
X001861Y017882D02*
X002018Y017882D01*
X001958Y018001D02*
X001861Y018001D01*
X001861Y018119D02*
X001958Y018119D01*
X001861Y018238D02*
X002471Y018238D01*
X002471Y018356D02*
X002591Y018356D01*
X002591Y018475D02*
X002471Y018475D01*
X002471Y018593D02*
X002591Y018593D01*
X002591Y018712D02*
X002471Y018712D01*
X002252Y018712D02*
X001893Y018712D01*
X001861Y018593D02*
X002134Y018593D01*
X002015Y018475D02*
X001861Y018475D01*
X001861Y018356D02*
X001958Y018356D01*
X002810Y018712D02*
X003309Y018712D01*
X003190Y018593D02*
X002929Y018593D01*
X003047Y018475D02*
X003072Y018475D01*
X003754Y018712D02*
X004309Y018712D01*
X004190Y018593D02*
X003872Y018593D01*
X003991Y018475D02*
X004072Y018475D01*
X005250Y019541D02*
X024521Y019541D01*
X024521Y019423D02*
X007711Y019423D01*
X007779Y019394D02*
X007577Y019478D01*
X007359Y019478D01*
X007158Y019394D01*
X007003Y019240D01*
X006920Y019039D01*
X006920Y017964D01*
X007003Y017763D01*
X007158Y017609D01*
X007359Y017525D01*
X007577Y017525D01*
X007779Y017609D01*
X007933Y017763D01*
X008016Y017964D01*
X008016Y018216D01*
X008535Y018735D01*
X013118Y018735D01*
X015193Y016661D01*
X015193Y016587D01*
X015238Y016478D01*
X015321Y016394D01*
X015431Y016349D01*
X015549Y016349D01*
X015658Y016394D01*
X015742Y016478D01*
X015787Y016587D01*
X015787Y016705D01*
X015742Y016815D01*
X015658Y016898D01*
X015549Y016943D01*
X015475Y016943D01*
X013401Y019017D01*
X013284Y019135D01*
X008369Y019135D01*
X008016Y018781D01*
X008016Y019039D01*
X007933Y019240D01*
X007779Y019394D01*
X007869Y019304D02*
X024521Y019304D01*
X024521Y019186D02*
X007955Y019186D01*
X008004Y019067D02*
X008302Y019067D01*
X008183Y018949D02*
X008016Y018949D01*
X008016Y018830D02*
X008065Y018830D01*
X008339Y018538D02*
X008540Y018622D01*
X009615Y018622D01*
X009816Y018538D01*
X009970Y018384D01*
X010054Y018182D01*
X010054Y017964D01*
X009970Y017763D01*
X009816Y017609D01*
X009615Y017525D01*
X008540Y017525D01*
X008339Y017609D01*
X008184Y017763D01*
X008101Y017964D01*
X008101Y018182D01*
X008184Y018384D01*
X008339Y018538D01*
X008394Y018593D02*
X008471Y018593D01*
X008512Y018712D02*
X013142Y018712D01*
X013260Y018593D02*
X009683Y018593D01*
X009880Y018475D02*
X013379Y018475D01*
X013497Y018356D02*
X009982Y018356D01*
X010031Y018238D02*
X013616Y018238D01*
X013734Y018119D02*
X010054Y018119D01*
X010054Y018001D02*
X013853Y018001D01*
X013971Y017882D02*
X010020Y017882D01*
X009970Y017764D02*
X014090Y017764D01*
X014208Y017645D02*
X009852Y017645D01*
X009618Y017527D02*
X014327Y017527D01*
X014445Y017408D02*
X007655Y017408D01*
X007577Y017440D02*
X007359Y017440D01*
X007158Y017357D01*
X007003Y017203D01*
X006920Y017001D01*
X006920Y015927D01*
X007003Y015725D01*
X007158Y015571D01*
X007359Y015488D01*
X007577Y015488D01*
X007779Y015571D01*
X007933Y015725D01*
X008016Y015927D01*
X008016Y017001D01*
X007933Y017203D01*
X007779Y017357D01*
X007577Y017440D01*
X007580Y017527D02*
X008537Y017527D01*
X008302Y017645D02*
X007815Y017645D01*
X007933Y017764D02*
X008184Y017764D01*
X008135Y017882D02*
X007982Y017882D01*
X008016Y018001D02*
X008101Y018001D01*
X008101Y018119D02*
X008016Y018119D01*
X008038Y018238D02*
X008124Y018238D01*
X008157Y018356D02*
X008173Y018356D01*
X008275Y018475D02*
X008275Y018475D01*
X007121Y017645D02*
X006634Y017645D01*
X006752Y017764D02*
X007003Y017764D01*
X006954Y017882D02*
X006801Y017882D01*
X006835Y018001D02*
X006920Y018001D01*
X006920Y018119D02*
X006835Y018119D01*
X006835Y018238D02*
X006920Y018238D01*
X006920Y018356D02*
X006835Y018356D01*
X006835Y018475D02*
X006920Y018475D01*
X006920Y018593D02*
X006835Y018593D01*
X006835Y018712D02*
X006920Y018712D01*
X006920Y018830D02*
X006835Y018830D01*
X006835Y018949D02*
X006920Y018949D01*
X006932Y019067D02*
X006823Y019067D01*
X006774Y019186D02*
X006981Y019186D01*
X007067Y019304D02*
X006688Y019304D01*
X006529Y019423D02*
X007226Y019423D01*
X006044Y019423D02*
X005368Y019423D01*
X005487Y019304D02*
X005886Y019304D01*
X005800Y019186D02*
X005605Y019186D01*
X005724Y019067D02*
X005751Y019067D01*
X006399Y017527D02*
X007356Y017527D01*
X007281Y017408D02*
X006474Y017408D01*
X006665Y017290D02*
X007090Y017290D01*
X006990Y017171D02*
X006765Y017171D01*
X006814Y017053D02*
X006941Y017053D01*
X006920Y016934D02*
X006835Y016934D01*
X006835Y016816D02*
X006920Y016816D01*
X006920Y016697D02*
X006835Y016697D01*
X006835Y016579D02*
X006920Y016579D01*
X006920Y016460D02*
X006835Y016460D01*
X006835Y016342D02*
X006920Y016342D01*
X006920Y016223D02*
X006835Y016223D01*
X006835Y016105D02*
X006920Y016105D01*
X006920Y015986D02*
X006835Y015986D01*
X006811Y015868D02*
X006945Y015868D01*
X006994Y015749D02*
X006761Y015749D01*
X006657Y015631D02*
X007098Y015631D01*
X007301Y015512D02*
X006462Y015512D01*
X006462Y015394D02*
X008147Y015394D01*
X008266Y015512D02*
X007636Y015512D01*
X007838Y015631D02*
X008384Y015631D01*
X008503Y015749D02*
X007943Y015749D01*
X007992Y015868D02*
X008621Y015868D01*
X008831Y015512D02*
X013035Y015512D01*
X013270Y015512D02*
X020651Y015512D01*
X020549Y015394D02*
X008713Y015394D01*
X008594Y015275D02*
X020500Y015275D01*
X020487Y015157D02*
X008476Y015157D01*
X008357Y015038D02*
X020491Y015038D01*
X020540Y014920D02*
X008239Y014920D01*
X008120Y014801D02*
X020628Y014801D01*
X021326Y014801D02*
X022424Y014801D01*
X022305Y014920D02*
X021414Y014920D01*
X021404Y015394D02*
X022328Y015394D01*
X022447Y015512D02*
X021303Y015512D01*
X022543Y016968D02*
X022852Y016840D01*
X023186Y016840D01*
X023495Y016968D01*
X023731Y017204D01*
X023859Y017513D01*
X023859Y017847D01*
X023731Y018155D01*
X023495Y018392D01*
X023186Y018520D01*
X022852Y018520D01*
X022543Y018392D01*
X022307Y018155D01*
X022179Y017847D01*
X022179Y017513D01*
X022307Y017204D01*
X022543Y016968D01*
X022625Y016934D02*
X015571Y016934D01*
X015741Y016816D02*
X024521Y016816D01*
X024521Y016934D02*
X023414Y016934D01*
X023580Y017053D02*
X024521Y017053D01*
X024521Y017171D02*
X023698Y017171D01*
X023767Y017290D02*
X024521Y017290D01*
X024521Y017408D02*
X023816Y017408D01*
X023859Y017527D02*
X024521Y017527D01*
X024521Y017645D02*
X023859Y017645D01*
X023859Y017764D02*
X024521Y017764D01*
X024521Y017882D02*
X023845Y017882D01*
X023795Y018001D02*
X024521Y018001D01*
X024521Y018119D02*
X023746Y018119D01*
X023649Y018238D02*
X024521Y018238D01*
X024521Y018356D02*
X023531Y018356D01*
X023295Y018475D02*
X024521Y018475D01*
X024521Y018593D02*
X013826Y018593D01*
X013944Y018475D02*
X022743Y018475D01*
X022508Y018356D02*
X014063Y018356D01*
X014181Y018238D02*
X022389Y018238D01*
X022292Y018119D02*
X014300Y018119D01*
X014418Y018001D02*
X022243Y018001D01*
X022194Y017882D02*
X014537Y017882D01*
X014655Y017764D02*
X022179Y017764D01*
X022179Y017645D02*
X014774Y017645D01*
X014892Y017527D02*
X022179Y017527D01*
X022223Y017408D02*
X015011Y017408D01*
X015129Y017290D02*
X022272Y017290D01*
X022340Y017171D02*
X015248Y017171D01*
X015366Y017053D02*
X022459Y017053D01*
X024521Y016697D02*
X015787Y016697D01*
X015783Y016579D02*
X024521Y016579D01*
X024521Y016460D02*
X015724Y016460D01*
X015256Y016460D02*
X008016Y016460D01*
X008016Y016342D02*
X024521Y016342D01*
X024521Y016223D02*
X008016Y016223D01*
X008016Y016105D02*
X024521Y016105D01*
X024521Y018712D02*
X013707Y018712D01*
X013589Y018830D02*
X024521Y018830D01*
X024521Y018949D02*
X013470Y018949D01*
X013352Y019067D02*
X024521Y019067D01*
X020605Y012194D02*
X008553Y012194D01*
X008529Y012076D02*
X020502Y012076D01*
X020453Y011957D02*
X008440Y011957D01*
X008074Y012431D02*
X005337Y012431D01*
X006398Y014801D02*
X001861Y014801D01*
X001861Y014683D02*
X011398Y014683D01*
X011235Y014564D02*
X001861Y014564D01*
X001861Y014446D02*
X011117Y014446D01*
X011050Y014327D02*
X001861Y014327D01*
X001861Y014209D02*
X011001Y014209D01*
X010959Y014090D02*
X001861Y014090D01*
X001861Y013972D02*
X010959Y013972D01*
X010959Y013853D02*
X001861Y013853D01*
X001861Y013735D02*
X010975Y013735D01*
X011024Y013616D02*
X001861Y013616D01*
X001861Y013498D02*
X011073Y013498D01*
X011171Y013379D02*
X001861Y013379D01*
X001861Y013261D02*
X011290Y013261D01*
X011529Y013142D02*
X001861Y013142D01*
X001694Y011483D02*
X000455Y011483D01*
X000455Y011365D02*
X001812Y011365D01*
X001931Y011246D02*
X000455Y011246D01*
X000455Y011128D02*
X002049Y011128D01*
X002168Y011009D02*
X000455Y011009D01*
X000455Y010891D02*
X002286Y010891D01*
X002405Y010772D02*
X000455Y010772D01*
X000455Y010654D02*
X002523Y010654D01*
X002642Y010535D02*
X000455Y010535D01*
X000455Y010417D02*
X002760Y010417D01*
X002879Y010298D02*
X000455Y010298D01*
X000455Y010180D02*
X002997Y010180D01*
X003116Y010061D02*
X000455Y010061D01*
X000455Y009943D02*
X003234Y009943D01*
X003353Y009824D02*
X000455Y009824D01*
X000455Y009706D02*
X003471Y009706D01*
X003590Y009587D02*
X000455Y009587D01*
X000455Y009469D02*
X003708Y009469D01*
X003827Y009350D02*
X000455Y009350D01*
X000455Y009232D02*
X003945Y009232D01*
X004037Y009706D02*
X013535Y009706D01*
X013417Y009824D02*
X003919Y009824D01*
X001861Y014920D02*
X006279Y014920D01*
X006161Y015038D02*
X001861Y015038D01*
X001861Y015157D02*
X006062Y015157D01*
X006062Y015275D02*
X001861Y015275D01*
X001861Y015394D02*
X006062Y015394D01*
X006062Y015512D02*
X001861Y015512D01*
X001861Y015631D02*
X005917Y015631D01*
X005813Y015749D02*
X001861Y015749D01*
X001861Y015868D02*
X005763Y015868D01*
X005739Y015986D02*
X005614Y015986D01*
X005733Y016105D02*
X005739Y016105D01*
X006489Y015275D02*
X008029Y015275D01*
X008016Y015986D02*
X012933Y015986D01*
X014564Y017290D02*
X007846Y017290D01*
X007946Y017171D02*
X014682Y017171D01*
X014801Y017053D02*
X007995Y017053D01*
X008016Y016934D02*
X014919Y016934D01*
X015038Y016816D02*
X008016Y016816D01*
X008016Y016697D02*
X015156Y016697D01*
X015196Y016579D02*
X008016Y016579D01*
X003712Y015986D02*
X001861Y015986D01*
X002803Y016697D02*
X003259Y016697D01*
X003141Y016816D02*
X002921Y016816D01*
X013314Y005795D02*
X013434Y005795D01*
X013434Y005677D02*
X013314Y005677D01*
X013314Y005558D02*
X013434Y005558D01*
X013434Y004018D02*
X013314Y004018D01*
X013314Y003899D02*
X013434Y003899D01*
X013434Y003781D02*
X013314Y003781D01*
X013314Y003662D02*
X013434Y003662D01*
X013434Y003544D02*
X013314Y003544D01*
X013573Y003544D02*
X022387Y003544D01*
X022335Y003662D02*
X013770Y003662D01*
X013871Y003781D02*
X022307Y003781D01*
X022307Y003899D02*
X013928Y003899D01*
X013956Y004018D02*
X022346Y004018D01*
X022505Y003425D02*
X000455Y003425D01*
D11*
X001523Y002129D02*
X001525Y002179D01*
X001531Y002229D01*
X001541Y002278D01*
X001555Y002326D01*
X001572Y002373D01*
X001593Y002418D01*
X001618Y002462D01*
X001646Y002503D01*
X001678Y002542D01*
X001712Y002579D01*
X001749Y002613D01*
X001789Y002643D01*
X001831Y002670D01*
X001875Y002694D01*
X001921Y002715D01*
X001968Y002731D01*
X002016Y002744D01*
X002066Y002753D01*
X002115Y002758D01*
X002166Y002759D01*
X002216Y002756D01*
X002265Y002749D01*
X002314Y002738D01*
X002362Y002723D01*
X002408Y002705D01*
X002453Y002683D01*
X002496Y002657D01*
X002537Y002628D01*
X002576Y002596D01*
X002612Y002561D01*
X002644Y002523D01*
X002674Y002483D01*
X002701Y002440D01*
X002724Y002396D01*
X002743Y002350D01*
X002759Y002302D01*
X002771Y002253D01*
X002779Y002204D01*
X002783Y002154D01*
X002783Y002104D01*
X002779Y002054D01*
X002771Y002005D01*
X002759Y001956D01*
X002743Y001908D01*
X002724Y001862D01*
X002701Y001818D01*
X002674Y001775D01*
X002644Y001735D01*
X002612Y001697D01*
X002576Y001662D01*
X002537Y001630D01*
X002496Y001601D01*
X002453Y001575D01*
X002408Y001553D01*
X002362Y001535D01*
X002314Y001520D01*
X002265Y001509D01*
X002216Y001502D01*
X002166Y001499D01*
X002115Y001500D01*
X002066Y001505D01*
X002016Y001514D01*
X001968Y001527D01*
X001921Y001543D01*
X001875Y001564D01*
X001831Y001588D01*
X001789Y001615D01*
X001749Y001645D01*
X001712Y001679D01*
X001678Y001716D01*
X001646Y001755D01*
X001618Y001796D01*
X001593Y001840D01*
X001572Y001885D01*
X001555Y001932D01*
X001541Y001980D01*
X001531Y002029D01*
X001525Y002079D01*
X001523Y002129D01*
X011169Y013940D02*
X011171Y013990D01*
X011177Y014040D01*
X011187Y014089D01*
X011201Y014137D01*
X011218Y014184D01*
X011239Y014229D01*
X011264Y014273D01*
X011292Y014314D01*
X011324Y014353D01*
X011358Y014390D01*
X011395Y014424D01*
X011435Y014454D01*
X011477Y014481D01*
X011521Y014505D01*
X011567Y014526D01*
X011614Y014542D01*
X011662Y014555D01*
X011712Y014564D01*
X011761Y014569D01*
X011812Y014570D01*
X011862Y014567D01*
X011911Y014560D01*
X011960Y014549D01*
X012008Y014534D01*
X012054Y014516D01*
X012099Y014494D01*
X012142Y014468D01*
X012183Y014439D01*
X012222Y014407D01*
X012258Y014372D01*
X012290Y014334D01*
X012320Y014294D01*
X012347Y014251D01*
X012370Y014207D01*
X012389Y014161D01*
X012405Y014113D01*
X012417Y014064D01*
X012425Y014015D01*
X012429Y013965D01*
X012429Y013915D01*
X012425Y013865D01*
X012417Y013816D01*
X012405Y013767D01*
X012389Y013719D01*
X012370Y013673D01*
X012347Y013629D01*
X012320Y013586D01*
X012290Y013546D01*
X012258Y013508D01*
X012222Y013473D01*
X012183Y013441D01*
X012142Y013412D01*
X012099Y013386D01*
X012054Y013364D01*
X012008Y013346D01*
X011960Y013331D01*
X011911Y013320D01*
X011862Y013313D01*
X011812Y013310D01*
X011761Y013311D01*
X011712Y013316D01*
X011662Y013325D01*
X011614Y013338D01*
X011567Y013354D01*
X011521Y013375D01*
X011477Y013399D01*
X011435Y013426D01*
X011395Y013456D01*
X011358Y013490D01*
X011324Y013527D01*
X011292Y013566D01*
X011264Y013607D01*
X011239Y013651D01*
X011218Y013696D01*
X011201Y013743D01*
X011187Y013791D01*
X011177Y013840D01*
X011171Y013890D01*
X011169Y013940D01*
X022389Y017680D02*
X022391Y017730D01*
X022397Y017780D01*
X022407Y017829D01*
X022421Y017877D01*
X022438Y017924D01*
X022459Y017969D01*
X022484Y018013D01*
X022512Y018054D01*
X022544Y018093D01*
X022578Y018130D01*
X022615Y018164D01*
X022655Y018194D01*
X022697Y018221D01*
X022741Y018245D01*
X022787Y018266D01*
X022834Y018282D01*
X022882Y018295D01*
X022932Y018304D01*
X022981Y018309D01*
X023032Y018310D01*
X023082Y018307D01*
X023131Y018300D01*
X023180Y018289D01*
X023228Y018274D01*
X023274Y018256D01*
X023319Y018234D01*
X023362Y018208D01*
X023403Y018179D01*
X023442Y018147D01*
X023478Y018112D01*
X023510Y018074D01*
X023540Y018034D01*
X023567Y017991D01*
X023590Y017947D01*
X023609Y017901D01*
X023625Y017853D01*
X023637Y017804D01*
X023645Y017755D01*
X023649Y017705D01*
X023649Y017655D01*
X023645Y017605D01*
X023637Y017556D01*
X023625Y017507D01*
X023609Y017459D01*
X023590Y017413D01*
X023567Y017369D01*
X023540Y017326D01*
X023510Y017286D01*
X023478Y017248D01*
X023442Y017213D01*
X023403Y017181D01*
X023362Y017152D01*
X023319Y017126D01*
X023274Y017104D01*
X023228Y017086D01*
X023180Y017071D01*
X023131Y017060D01*
X023082Y017053D01*
X023032Y017050D01*
X022981Y017051D01*
X022932Y017056D01*
X022882Y017065D01*
X022834Y017078D01*
X022787Y017094D01*
X022741Y017115D01*
X022697Y017139D01*
X022655Y017166D01*
X022615Y017196D01*
X022578Y017230D01*
X022544Y017267D01*
X022512Y017306D01*
X022484Y017347D01*
X022459Y017391D01*
X022438Y017436D01*
X022421Y017483D01*
X022407Y017531D01*
X022397Y017580D01*
X022391Y017630D01*
X022389Y017680D01*
X022389Y002129D02*
X022391Y002179D01*
X022397Y002229D01*
X022407Y002278D01*
X022421Y002326D01*
X022438Y002373D01*
X022459Y002418D01*
X022484Y002462D01*
X022512Y002503D01*
X022544Y002542D01*
X022578Y002579D01*
X022615Y002613D01*
X022655Y002643D01*
X022697Y002670D01*
X022741Y002694D01*
X022787Y002715D01*
X022834Y002731D01*
X022882Y002744D01*
X022932Y002753D01*
X022981Y002758D01*
X023032Y002759D01*
X023082Y002756D01*
X023131Y002749D01*
X023180Y002738D01*
X023228Y002723D01*
X023274Y002705D01*
X023319Y002683D01*
X023362Y002657D01*
X023403Y002628D01*
X023442Y002596D01*
X023478Y002561D01*
X023510Y002523D01*
X023540Y002483D01*
X023567Y002440D01*
X023590Y002396D01*
X023609Y002350D01*
X023625Y002302D01*
X023637Y002253D01*
X023645Y002204D01*
X023649Y002154D01*
X023649Y002104D01*
X023645Y002054D01*
X023637Y002005D01*
X023625Y001956D01*
X023609Y001908D01*
X023590Y001862D01*
X023567Y001818D01*
X023540Y001775D01*
X023510Y001735D01*
X023478Y001697D01*
X023442Y001662D01*
X023403Y001630D01*
X023362Y001601D01*
X023319Y001575D01*
X023274Y001553D01*
X023228Y001535D01*
X023180Y001520D01*
X023131Y001509D01*
X023082Y001502D01*
X023032Y001499D01*
X022981Y001500D01*
X022932Y001505D01*
X022882Y001514D01*
X022834Y001527D01*
X022787Y001543D01*
X022741Y001564D01*
X022697Y001588D01*
X022655Y001615D01*
X022615Y001645D01*
X022578Y001679D01*
X022544Y001716D01*
X022512Y001755D01*
X022484Y001796D01*
X022459Y001840D01*
X022438Y001885D01*
X022421Y001932D01*
X022407Y001980D01*
X022397Y002029D01*
X022391Y002079D01*
X022389Y002129D01*
D12*
X023716Y007034D03*
D13*
X022716Y007034D03*
X022716Y008034D03*
X023716Y008034D03*
X023716Y009034D03*
X022716Y009034D03*
D14*
X013374Y008034D02*
X012517Y008034D01*
X012517Y006066D02*
X013374Y006066D01*
X013374Y004097D02*
X012517Y004097D01*
X007468Y016036D02*
X007468Y016892D01*
X006287Y016892D02*
X006287Y016036D01*
X006287Y018073D02*
X006287Y018930D01*
X007468Y018930D02*
X007468Y018073D01*
X008649Y018073D02*
X009505Y018073D01*
D15*
X022716Y015145D03*
X023716Y015145D03*
X023691Y011823D03*
X022691Y011823D03*
D16*
X022797Y004826D02*
X023537Y004826D01*
X023537Y003826D02*
X022797Y003826D01*
D17*
X020928Y010823D03*
X020928Y011823D03*
X020977Y014145D03*
X020977Y015145D03*
D18*
X004531Y018180D03*
X003531Y018180D03*
X002531Y018180D03*
X002531Y017180D03*
X003531Y017180D03*
D19*
X004531Y017180D03*
D20*
X000972Y018995D03*
X000972Y014495D03*
X005155Y012192D03*
X006312Y013570D03*
X008255Y012192D03*
X007517Y010470D03*
X004614Y010470D03*
X000972Y010495D03*
X000972Y005495D03*
X003972Y000995D03*
X008472Y000995D03*
X012972Y000995D03*
X017472Y000995D03*
X021472Y000995D03*
X017630Y004761D03*
X015293Y005844D03*
X017065Y008452D03*
X018738Y011602D03*
X013423Y012242D03*
X013152Y015785D03*
X015490Y016646D03*
X014972Y018995D03*
X019472Y018995D03*
X023972Y018995D03*
X008649Y007911D03*
D21*
X009707Y006853D01*
X013841Y006853D01*
X014309Y006385D01*
X023067Y006385D01*
X023716Y007034D01*
X024373Y007378D02*
X023716Y008034D01*
X024373Y007378D02*
X024373Y006508D01*
X023708Y005844D01*
X015293Y005844D01*
X014948Y007025D02*
X014382Y007025D01*
X013374Y008034D01*
X013374Y008575D01*
X012537Y009412D01*
X004048Y009412D01*
X001661Y011799D01*
X001661Y018762D01*
X002276Y019378D01*
X005130Y019378D01*
X006287Y018221D01*
X006287Y018073D01*
X004637Y018073D01*
X004531Y018180D01*
X003531Y017180D02*
X003531Y016449D01*
X003851Y016129D01*
X005475Y016129D01*
X006213Y016868D01*
X006262Y016868D01*
X006287Y016892D01*
X006262Y016868D02*
X006262Y015219D01*
X006508Y014973D01*
X008009Y014973D01*
X008821Y015785D01*
X013152Y015785D01*
X015490Y016646D02*
X013201Y018935D01*
X008452Y018935D01*
X007591Y018073D01*
X007468Y018073D01*
X008255Y012192D02*
X005155Y012192D01*
X007517Y010470D02*
X007813Y010175D01*
X013349Y010175D01*
X014490Y009034D01*
X021214Y009034D01*
X022109Y009929D01*
X023462Y009929D01*
X023684Y009707D01*
X023684Y009066D01*
X023716Y009034D01*
X022716Y008034D02*
X017483Y008034D01*
X017065Y008452D01*
X014957Y007034D02*
X014948Y007025D01*
X014957Y007034D02*
X022716Y007034D01*
X022691Y011823D02*
X020928Y011823D01*
X020977Y015145D02*
X022716Y015145D01*
M02*
