%
M48
M72
T01C0.0236
T02C0.0320
T03C0.0354
T04C0.0400
T05C0.0440
T06C0.0551
T07C0.0571
T08C0.1260
%
T01
X3972Y995
X8472Y995
X12972Y995
X17472Y995
X21472Y995
X17630Y4761
X15293Y5844
X17065Y8452
X18738Y11602
X13423Y12242
X13152Y15785
X15490Y16646
X14972Y18995
X19472Y18995
X23972Y18995
X8649Y7911
X7517Y10470
X8255Y12192
X6312Y13570
X5155Y12192
X4614Y10470
X972Y10495
X972Y14495
X972Y18995
X972Y5495
T02
X22691Y11823
X23691Y11823
X23716Y15145
X22716Y15145
T03
X20977Y15145
X20977Y14145
X20928Y11823
X20928Y10823
T04
X22716Y9034
X23716Y9034
X23716Y8034
X22716Y8034
X22716Y7034
X23716Y7034
T05
X23167Y4826
X23167Y3826
T06
X4531Y17180
X3531Y17180
X2531Y17180
X2531Y18180
X3531Y18180
X4531Y18180
T07
X6287Y18073
X7468Y18073
X8649Y18073
X7468Y16892
X6287Y16892
X13374Y8034
X13374Y6066
X13374Y4097
T08
X2153Y2129
X11799Y13940
X23019Y17680
X23019Y2129
M30
