G75*
%MOIN*%
%OFA0B0*%
%FSLAX24Y24*%
%IPPOS*%
%LPD*%
%AMOC8*
5,1,8,0,0,1.08239X$1,22.5*
%
%ADD10C,0.0040*%
%ADD11C,0.0050*%
%ADD12C,0.0080*%
%ADD13C,0.0400*%
D10*
X009939Y004781D02*
X009939Y004814D01*
X009972Y004847D01*
X010072Y004847D01*
X010072Y004781D01*
X010039Y004747D01*
X009972Y004747D01*
X009939Y004781D01*
X010006Y004914D02*
X010072Y004847D01*
X010160Y004847D02*
X010193Y004814D01*
X010293Y004814D01*
X010293Y004747D02*
X010293Y004947D01*
X010193Y004947D01*
X010160Y004914D01*
X010160Y004847D01*
X010006Y004914D02*
X009939Y004947D01*
X010381Y004947D02*
X010514Y004947D01*
X010448Y004947D02*
X010448Y004747D01*
X010963Y001483D02*
X010963Y001450D01*
X011096Y001316D01*
X011096Y001283D01*
X011184Y001383D02*
X011217Y001349D01*
X011317Y001349D01*
X011317Y001283D02*
X011317Y001483D01*
X011217Y001483D01*
X011184Y001450D01*
X011184Y001383D01*
X011096Y001483D02*
X010963Y001483D01*
X011405Y001483D02*
X011538Y001483D01*
X011471Y001483D02*
X011471Y001283D01*
X015523Y007267D02*
X015523Y007467D01*
X015624Y007367D01*
X015490Y007367D01*
X015711Y007367D02*
X015744Y007334D01*
X015845Y007334D01*
X015845Y007267D02*
X015845Y007467D01*
X015744Y007467D01*
X015711Y007434D01*
X015711Y007367D01*
X015932Y007467D02*
X016066Y007467D01*
X015999Y007467D02*
X015999Y007267D01*
X018788Y012385D02*
X018788Y012418D01*
X018655Y012552D01*
X018655Y012585D01*
X018788Y012585D01*
X018943Y012585D02*
X018943Y012385D01*
X019009Y012385D02*
X018876Y012385D01*
X019009Y012518D02*
X018943Y012585D01*
X019097Y012552D02*
X019130Y012585D01*
X019230Y012585D01*
X019230Y012385D01*
X019230Y012452D02*
X019130Y012452D01*
X019097Y012485D01*
X019097Y012552D01*
X019318Y012585D02*
X019451Y012585D01*
X019385Y012585D02*
X019385Y012385D01*
X021411Y011207D02*
X021478Y011174D01*
X021544Y011107D01*
X021444Y011107D01*
X021411Y011074D01*
X021411Y011040D01*
X021444Y011007D01*
X021511Y011007D01*
X021544Y011040D01*
X021544Y011107D01*
X021632Y011007D02*
X021765Y011007D01*
X021699Y011007D02*
X021699Y011207D01*
X021765Y011141D01*
X021853Y011174D02*
X021853Y011107D01*
X021886Y011074D01*
X021986Y011074D01*
X021986Y011007D02*
X021986Y011207D01*
X021886Y011207D01*
X021853Y011174D01*
X022074Y011207D02*
X022207Y011207D01*
X022141Y011207D02*
X022141Y011007D01*
X023634Y012700D02*
X023700Y012700D01*
X023734Y012733D01*
X023667Y012800D02*
X023634Y012800D01*
X023600Y012767D01*
X023600Y012733D01*
X023634Y012700D01*
X023634Y012800D02*
X023600Y012833D01*
X023600Y012867D01*
X023634Y012900D01*
X023700Y012900D01*
X023734Y012867D01*
X023821Y012867D02*
X023821Y012800D01*
X023855Y012767D01*
X023955Y012767D01*
X023955Y012700D02*
X023955Y012900D01*
X023855Y012900D01*
X023821Y012867D01*
X024042Y012900D02*
X024176Y012900D01*
X024109Y012900D02*
X024109Y012700D01*
X024148Y014747D02*
X024148Y014947D01*
X024082Y014947D02*
X024215Y014947D01*
X023994Y014947D02*
X023994Y014747D01*
X023994Y014814D02*
X023894Y014814D01*
X023861Y014847D01*
X023861Y014914D01*
X023894Y014947D01*
X023994Y014947D01*
X023773Y014914D02*
X023740Y014947D01*
X023673Y014947D01*
X023640Y014914D01*
X023640Y014881D01*
X023773Y014747D01*
X023640Y014747D01*
X025460Y018684D02*
X025527Y018684D01*
X025560Y018718D01*
X025560Y018784D02*
X025493Y018818D01*
X025460Y018818D01*
X025427Y018784D01*
X025427Y018718D01*
X025460Y018684D01*
X025560Y018784D02*
X025560Y018884D01*
X025427Y018884D01*
X025648Y018684D02*
X025781Y018684D01*
X025714Y018684D02*
X025714Y018884D01*
X025781Y018818D01*
X025869Y018851D02*
X025869Y018784D01*
X025902Y018751D01*
X026002Y018751D01*
X026002Y018684D02*
X026002Y018884D01*
X025902Y018884D01*
X025869Y018851D01*
X026090Y018884D02*
X026223Y018884D01*
X026156Y018884D02*
X026156Y018684D01*
X022180Y024117D02*
X022180Y024318D01*
X022247Y024318D02*
X022113Y024318D01*
X022026Y024318D02*
X022026Y024117D01*
X022026Y024184D02*
X021926Y024184D01*
X021892Y024217D01*
X021892Y024284D01*
X021926Y024318D01*
X022026Y024318D01*
X021805Y024284D02*
X021771Y024318D01*
X021705Y024318D01*
X021671Y024284D01*
X021671Y024151D01*
X021705Y024117D01*
X021771Y024117D01*
X021805Y024151D01*
X021771Y024217D02*
X021671Y024217D01*
X021771Y024217D02*
X021805Y024251D01*
X021805Y024284D01*
X021117Y025141D02*
X021117Y025341D01*
X021184Y025341D02*
X021050Y025341D01*
X020963Y025341D02*
X020863Y025341D01*
X020829Y025308D01*
X020829Y025241D01*
X020863Y025208D01*
X020963Y025208D01*
X020963Y025141D02*
X020963Y025341D01*
X020742Y025274D02*
X020675Y025341D01*
X020675Y025141D01*
X020742Y025141D02*
X020608Y025141D01*
X020521Y025174D02*
X020387Y025308D01*
X020387Y025174D01*
X020421Y025141D01*
X020487Y025141D01*
X020521Y025174D01*
X020521Y025308D01*
X020487Y025341D01*
X020421Y025341D01*
X020387Y025308D01*
X019254Y024199D02*
X019121Y024199D01*
X019188Y024199D02*
X019188Y023999D01*
X019034Y023999D02*
X019034Y024199D01*
X018933Y024199D01*
X018900Y024166D01*
X018900Y024099D01*
X018933Y024066D01*
X019034Y024066D01*
X018813Y024066D02*
X018779Y024099D01*
X018712Y024099D01*
X018679Y024066D01*
X018679Y024033D01*
X018712Y023999D01*
X018779Y023999D01*
X018813Y024033D01*
X018813Y024066D01*
X018779Y024099D02*
X018813Y024133D01*
X018813Y024166D01*
X018779Y024199D01*
X018712Y024199D01*
X018679Y024166D01*
X018679Y024133D01*
X018712Y024099D01*
X017959Y026568D02*
X017892Y026568D01*
X017926Y026568D02*
X017926Y026768D01*
X017959Y026768D02*
X017892Y026768D01*
X017812Y026735D02*
X017812Y026702D01*
X017779Y026668D01*
X017712Y026668D01*
X017678Y026635D01*
X017678Y026601D01*
X017712Y026568D01*
X017779Y026568D01*
X017812Y026601D01*
X017812Y026735D02*
X017779Y026768D01*
X017712Y026768D01*
X017678Y026735D01*
X017591Y026768D02*
X017491Y026768D01*
X017457Y026735D01*
X017457Y026668D01*
X017491Y026635D01*
X017591Y026635D01*
X017591Y026568D02*
X017591Y026768D01*
X015829Y024396D02*
X015696Y024396D01*
X015763Y024396D02*
X015763Y024196D01*
X015608Y024196D02*
X015608Y024396D01*
X015508Y024396D01*
X015475Y024363D01*
X015475Y024296D01*
X015508Y024263D01*
X015608Y024263D01*
X015387Y024296D02*
X015321Y024330D01*
X015287Y024330D01*
X015254Y024296D01*
X015254Y024229D01*
X015287Y024196D01*
X015354Y024196D01*
X015387Y024229D01*
X015387Y024296D02*
X015387Y024396D01*
X015254Y024396D01*
X014109Y025259D02*
X014109Y025459D01*
X014176Y025459D02*
X014042Y025459D01*
X013955Y025459D02*
X013855Y025459D01*
X013821Y025426D01*
X013821Y025359D01*
X013855Y025326D01*
X013955Y025326D01*
X013955Y025259D02*
X013955Y025459D01*
X013734Y025393D02*
X013667Y025459D01*
X013667Y025259D01*
X013734Y025259D02*
X013600Y025259D01*
X013513Y025259D02*
X013379Y025393D01*
X013379Y025426D01*
X013413Y025459D01*
X013479Y025459D01*
X013513Y025426D01*
X013513Y025259D02*
X013379Y025259D01*
X013497Y026007D02*
X013631Y026007D01*
X013564Y026007D02*
X013564Y026207D01*
X013631Y026141D01*
X013718Y026007D02*
X013852Y026007D01*
X013785Y026007D02*
X013785Y026207D01*
X013852Y026141D01*
X013939Y026174D02*
X013939Y026107D01*
X013973Y026074D01*
X014073Y026074D01*
X014073Y026007D02*
X014073Y026207D01*
X013973Y026207D01*
X013939Y026174D01*
X014160Y026207D02*
X014294Y026207D01*
X014227Y026207D02*
X014227Y026007D01*
X014200Y027149D02*
X014267Y027149D01*
X014300Y027182D01*
X014388Y027149D02*
X014521Y027149D01*
X014454Y027149D02*
X014454Y027349D01*
X014521Y027282D01*
X014609Y027249D02*
X014642Y027216D01*
X014742Y027216D01*
X014742Y027149D02*
X014742Y027349D01*
X014642Y027349D01*
X014609Y027316D01*
X014609Y027249D01*
X014830Y027349D02*
X014963Y027349D01*
X014896Y027349D02*
X014896Y027149D01*
X014300Y027316D02*
X014267Y027349D01*
X014200Y027349D01*
X014167Y027316D01*
X014167Y027282D01*
X014200Y027249D01*
X014167Y027216D01*
X014167Y027182D01*
X014200Y027149D01*
X014200Y027249D02*
X014233Y027249D01*
X005357Y018530D02*
X005223Y018530D01*
X005290Y018530D02*
X005290Y018330D01*
X005136Y018330D02*
X005136Y018530D01*
X005036Y018530D01*
X005002Y018497D01*
X005002Y018430D01*
X005036Y018397D01*
X005136Y018397D01*
X004915Y018463D02*
X004848Y018530D01*
X004848Y018330D01*
X004915Y018330D02*
X004781Y018330D01*
X025696Y010735D02*
X025696Y010535D01*
X025663Y010635D02*
X025796Y010635D01*
X025696Y010735D01*
X025951Y010735D02*
X025951Y010535D01*
X026017Y010535D02*
X025884Y010535D01*
X026017Y010668D02*
X025951Y010735D01*
X026105Y010701D02*
X026105Y010635D01*
X026138Y010601D01*
X026238Y010601D01*
X026238Y010535D02*
X026238Y010735D01*
X026138Y010735D01*
X026105Y010701D01*
X026326Y010735D02*
X026459Y010735D01*
X026392Y010735D02*
X026392Y010535D01*
D11*
X007760Y003926D02*
X003060Y003926D01*
X003060Y004826D01*
X007760Y004826D01*
X007760Y003926D01*
X007760Y008526D02*
X003060Y008526D01*
X003060Y004826D01*
X003060Y008526D02*
X003060Y009426D01*
X007760Y009426D01*
X007760Y008526D01*
X007760Y018493D02*
X003060Y018493D01*
X003060Y019393D01*
X003060Y023093D01*
X007760Y023093D01*
X007760Y023993D01*
X003060Y023993D01*
X003060Y023093D01*
X003060Y019393D02*
X007760Y019393D01*
X007760Y018493D01*
X020160Y018493D02*
X020160Y019393D01*
X024860Y019393D01*
X024860Y023093D01*
X020160Y023093D01*
X020160Y023993D01*
X024860Y023993D01*
X024860Y023093D01*
X024860Y019393D02*
X024860Y018493D01*
X020160Y018493D01*
X020160Y009426D02*
X020160Y008526D01*
X024860Y008526D01*
X024860Y004826D01*
X020160Y004826D01*
X020160Y003926D01*
X024860Y003926D01*
X024860Y004826D01*
X024860Y008526D02*
X024860Y009426D01*
X020160Y009426D01*
D12*
X018860Y008176D02*
X012460Y008176D01*
X009560Y008176D01*
X009543Y008174D01*
X009526Y008170D01*
X009510Y008163D01*
X009496Y008153D01*
X009483Y008140D01*
X009473Y008126D01*
X009466Y008110D01*
X009462Y008093D01*
X009460Y008076D01*
X009460Y007426D01*
X009060Y007426D01*
X009043Y007424D01*
X009026Y007420D01*
X009010Y007413D01*
X008996Y007403D01*
X008983Y007390D01*
X008973Y007376D01*
X008966Y007360D01*
X008962Y007343D01*
X008960Y007326D01*
X008960Y006026D01*
X008962Y006009D01*
X008966Y005992D01*
X008973Y005976D01*
X008983Y005962D01*
X008996Y005949D01*
X009010Y005939D01*
X009026Y005932D01*
X009043Y005928D01*
X009060Y005926D01*
X009460Y005926D01*
X009460Y005276D01*
X009462Y005259D01*
X009466Y005242D01*
X009473Y005226D01*
X009483Y005212D01*
X009496Y005199D01*
X009510Y005189D01*
X009526Y005182D01*
X009543Y005178D01*
X009560Y005176D01*
X012460Y005176D01*
X018860Y005176D01*
X018877Y005178D01*
X018894Y005182D01*
X018910Y005189D01*
X018924Y005199D01*
X018937Y005212D01*
X018947Y005226D01*
X018954Y005242D01*
X018958Y005259D01*
X018960Y005276D01*
X018960Y008076D01*
X018958Y008093D01*
X018954Y008110D01*
X018947Y008126D01*
X018937Y008140D01*
X018924Y008153D01*
X018910Y008163D01*
X018894Y008170D01*
X018877Y008174D01*
X018860Y008176D01*
X012460Y008176D02*
X012460Y005176D01*
X009460Y005926D02*
X009460Y007426D01*
X009060Y019743D02*
X015460Y019743D01*
X018360Y019743D01*
X018377Y019745D01*
X018394Y019749D01*
X018410Y019756D01*
X018424Y019766D01*
X018437Y019779D01*
X018447Y019793D01*
X018454Y019809D01*
X018458Y019826D01*
X018460Y019843D01*
X018460Y020493D01*
X018860Y020493D01*
X018877Y020495D01*
X018894Y020499D01*
X018910Y020506D01*
X018924Y020516D01*
X018937Y020529D01*
X018947Y020543D01*
X018954Y020559D01*
X018958Y020576D01*
X018960Y020593D01*
X018960Y021893D01*
X018958Y021910D01*
X018954Y021927D01*
X018947Y021943D01*
X018937Y021957D01*
X018924Y021970D01*
X018910Y021980D01*
X018894Y021987D01*
X018877Y021991D01*
X018860Y021993D01*
X018460Y021993D01*
X018460Y022643D01*
X018458Y022660D01*
X018454Y022677D01*
X018447Y022693D01*
X018437Y022707D01*
X018424Y022720D01*
X018410Y022730D01*
X018394Y022737D01*
X018377Y022741D01*
X018360Y022743D01*
X015460Y022743D01*
X009060Y022743D01*
X009043Y022741D01*
X009026Y022737D01*
X009010Y022730D01*
X008996Y022720D01*
X008983Y022707D01*
X008973Y022693D01*
X008966Y022677D01*
X008962Y022660D01*
X008960Y022643D01*
X008960Y019843D01*
X008962Y019826D01*
X008966Y019809D01*
X008973Y019793D01*
X008983Y019779D01*
X008996Y019766D01*
X009010Y019756D01*
X009026Y019749D01*
X009043Y019745D01*
X009060Y019743D01*
X015460Y019743D02*
X015460Y022743D01*
X018460Y021993D02*
X018460Y020493D01*
D13*
X017760Y021243D02*
X016160Y021243D01*
X016960Y020443D02*
X016960Y022043D01*
X010960Y007476D02*
X010960Y005876D01*
X011760Y006676D02*
X010160Y006676D01*
M02*
