%
M48
M72
T01C0.0039
T02C0.0197
T03C0.0236
T04C0.0400
T05C0.0630
T06C0.0700
T07C0.0787
T08C0.1102
T09C0.1260
%
T01
X11066Y21007
X11066Y21440
X10928Y22444
X10928Y22759
X10613Y22759
X10613Y22444
T02
X13920Y27247
X18802Y23349
X19471Y21952
X21715Y24767
T03
X5731Y3625
X7778Y2306
X9708Y4550
X8763Y5652
X11656Y4983
X12503Y3841
X13920Y5062
X14708Y5062
X15889Y6519
X16834Y7385
X15908Y9274
X17798Y5219
X17798Y3920
X16361Y2030
X17247Y1243
X14727Y3526
X12188Y849
X11204Y2030
X11420Y9471
X9215Y12227
X6794Y12070
X7168Y15259
X7956Y15889
X9393Y15987
X11479Y18389
X11400Y19176
X11263Y20023
X12601Y20219
X12621Y20771
X14078Y21400
X14749Y21241
X15062Y20849
X14550Y20515
X13920Y19097
X16361Y18428
X16637Y19924
X15259Y22227
X14747Y23330
X15337Y23625
X14117Y23054
X13605Y23428
X14117Y22188
X11755Y23487
X10771Y23487
X9786Y23586
X9156Y24806
X7798Y24274
X8330Y22916
X8172Y22365
X5731Y24255
X7897Y25672
X10578Y26751
X10810Y25869
X10849Y25101
X10771Y24609
X13015Y24845
X13920Y24688
X16794Y24019
X17306Y24117
X18172Y23251
X19471Y23211
X19944Y23467
X20534Y23487
X19471Y26026
X17109Y26853
X16794Y23113
X18428Y16243
X18960Y14058
X20593Y13015
X21086Y10023
X22227Y9078
X25278Y7306
X25436Y8743
X26853Y11282
X27011Y15731
X26105Y18960
X21538Y4235
X6026Y18211
X5475Y16952
X2582Y19885
X1400Y16420
X1400Y11538
X2503Y8428
T04
X16424Y24956
X16424Y25956
X17424Y25956
X17424Y24956
X18424Y24956
X18424Y25956
T05
X20420Y16026
X19865Y13960
X20420Y11893
T06
X20560Y6676
X23560Y6676
X23560Y21243
X20560Y21243
X7360Y21243
X4360Y21243
X4360Y6676
X7360Y6676
T07
X9090Y9090
X18830Y9090
X18830Y18830
X9090Y18830
T08
X23999Y18093
X23999Y9826
T09
X18880Y11130
X9040Y11130
X6086Y10416
X3920Y13960
M30
