G75*
%MOIN*%
%OFA0B0*%
%FSLAX24Y24*%
%IPPOS*%
%LPD*%
%AMOC8*
5,1,8,0,0,1.08239X$1,22.5*
%
%ADD10C,0.3937*%
%ADD11C,0.0945*%
%ADD12C,0.1502*%
%ADD13R,0.0740X0.0740*%
%ADD14OC8,0.0740*%
%ADD15C,0.1050*%
%ADD16C,0.0787*%
%ADD17C,0.1969*%
%ADD18C,0.0337*%
%ADD19C,0.0376*%
%ADD20C,0.0179*%
%ADD21C,0.0160*%
%ADD22C,0.0100*%
%ADD23C,0.0240*%
%ADD24C,0.0320*%
D10*
X003920Y013960D03*
D11*
X019865Y013960D02*
X020810Y013960D01*
X020420Y016026D02*
X021365Y016026D01*
X021365Y011893D02*
X020420Y011893D01*
D12*
X023248Y009826D02*
X024750Y009826D01*
X024750Y018093D02*
X023248Y018093D01*
D13*
X018424Y024956D03*
D14*
X018424Y025956D03*
X017424Y025956D03*
X016424Y025956D03*
X016424Y024956D03*
X017424Y024956D03*
D15*
X020035Y021243D02*
X021085Y021243D01*
X023035Y021243D02*
X024085Y021243D01*
X024085Y006676D02*
X023035Y006676D01*
X021085Y006676D02*
X020035Y006676D01*
X007885Y006676D02*
X006835Y006676D01*
X004885Y006676D02*
X003835Y006676D01*
X003835Y021243D02*
X004885Y021243D01*
X006835Y021243D02*
X007885Y021243D01*
D16*
X004353Y017739D03*
X014747Y024196D03*
X014747Y025377D03*
X014747Y026558D03*
X015534Y026952D03*
X019865Y025377D03*
X019865Y024196D03*
X021046Y024196D03*
X026164Y018093D03*
X023999Y013960D03*
X023999Y011991D03*
X026164Y009826D03*
X021046Y010810D03*
X019078Y013172D03*
X015141Y006873D03*
X010416Y004117D03*
X011991Y001755D03*
D17*
X009090Y009090D03*
D18*
X019471Y021952D03*
X018802Y023349D03*
X021715Y024767D03*
X013920Y027247D03*
D19*
X013920Y024688D03*
X013015Y024845D03*
X013605Y023428D03*
X014117Y023054D03*
X014747Y023330D03*
X015337Y023625D03*
X015259Y022227D03*
X014749Y021241D03*
X015062Y020849D03*
X014550Y020515D03*
X014078Y021400D03*
X014117Y022188D03*
X012621Y020771D03*
X012601Y020219D03*
X011400Y019176D03*
X011479Y018389D03*
X011263Y020023D03*
X013920Y019097D03*
X016361Y018428D03*
X016637Y019924D03*
X016794Y023113D03*
X016794Y024019D03*
X017306Y024117D03*
X018172Y023251D03*
X019471Y023211D03*
X019944Y023467D03*
X020534Y023487D03*
X019471Y026026D03*
X017109Y026853D03*
X011755Y023487D03*
X010771Y023487D03*
X009786Y023586D03*
X009156Y024806D03*
X007798Y024274D03*
X008330Y022916D03*
X008172Y022365D03*
X005731Y024255D03*
X007897Y025672D03*
X010578Y026751D03*
X010810Y025869D03*
X010849Y025101D03*
X010771Y024609D03*
X006026Y018211D03*
X005475Y016952D03*
X007168Y015259D03*
X007956Y015889D03*
X009393Y015987D03*
X009215Y012227D03*
X006794Y012070D03*
X011420Y009471D03*
X008763Y005652D03*
X009708Y004550D03*
X011656Y004983D03*
X012503Y003841D03*
X013920Y005062D03*
X014708Y005062D03*
X015889Y006519D03*
X016834Y007385D03*
X015908Y009274D03*
X017798Y005219D03*
X017798Y003920D03*
X016361Y002030D03*
X017247Y001243D03*
X014727Y003526D03*
X012188Y000849D03*
X011204Y002030D03*
X007778Y002306D03*
X005731Y003625D03*
X002503Y008428D03*
X001400Y011538D03*
X001400Y016420D03*
X002582Y019885D03*
X018428Y016243D03*
X018960Y014058D03*
X020593Y013015D03*
X021086Y010023D03*
X022227Y009078D03*
X025278Y007306D03*
X025436Y008743D03*
X026853Y011282D03*
X027011Y015731D03*
X026105Y018960D03*
X021538Y004235D03*
D20*
X011066Y021007D03*
X011066Y021440D03*
X010928Y022444D03*
X010928Y022759D03*
X010613Y022759D03*
X010613Y022444D03*
D21*
X009390Y004460D02*
X004437Y004460D01*
X004300Y004596D02*
X007993Y004596D01*
X008040Y004643D01*
X008040Y006020D01*
X008261Y006112D01*
X008448Y006299D01*
X008550Y006544D01*
X008550Y006808D01*
X008448Y007053D01*
X008374Y007127D01*
X008545Y007056D01*
X009090Y006985D01*
X009634Y007056D01*
X009634Y007056D01*
X010142Y007267D01*
X010578Y007601D01*
X010578Y007601D01*
X010578Y007601D01*
X010913Y008037D01*
X011123Y008545D01*
X011195Y009090D01*
X011123Y009634D01*
X011123Y009634D01*
X010913Y010142D01*
X010578Y010578D01*
X010578Y010578D01*
X010142Y010913D01*
X009899Y011013D01*
X009899Y011301D01*
X009769Y011617D01*
X009527Y011859D01*
X009211Y011989D01*
X008868Y011989D01*
X008552Y011859D01*
X008311Y011617D01*
X008180Y011301D01*
X008180Y010972D01*
X008037Y010913D01*
X008037Y010913D01*
X007601Y010578D01*
X007267Y010142D01*
X007267Y010142D01*
X007056Y009634D01*
X006985Y009090D01*
X007028Y008756D01*
X002926Y008756D01*
X002880Y008709D01*
X002880Y007021D01*
X002633Y007423D01*
X002012Y008642D01*
X001521Y009920D01*
X001167Y011241D01*
X000953Y012593D01*
X000898Y013641D01*
X000939Y013279D01*
X001165Y012633D01*
X001165Y012633D01*
X001530Y012053D01*
X002014Y011569D01*
X002593Y011205D01*
X002593Y011205D01*
X003240Y010978D01*
X003920Y010902D01*
X004601Y010978D01*
X005247Y011205D01*
X005827Y011569D01*
X006311Y012053D01*
X006675Y012633D01*
X006901Y013279D01*
X006901Y013279D01*
X006978Y013960D01*
X006901Y014640D01*
X006675Y015286D01*
X006675Y015286D01*
X006311Y015866D01*
X005827Y016350D01*
X005827Y016350D01*
X005247Y016714D01*
X005247Y016714D01*
X004601Y016941D01*
X004601Y016941D01*
X003920Y017017D01*
X003240Y016941D01*
X003240Y016941D01*
X002593Y016714D01*
X002014Y016350D01*
X002014Y016350D01*
X001530Y015866D01*
X001165Y015286D01*
X000939Y014640D01*
X000939Y014640D01*
X000898Y014278D01*
X000953Y015326D01*
X001167Y016678D01*
X001521Y017999D01*
X002012Y019277D01*
X002633Y020496D01*
X002880Y020898D01*
X002880Y019210D01*
X002926Y019163D01*
X007028Y019163D01*
X006985Y018830D01*
X007056Y018285D01*
X007267Y017777D01*
X007601Y017341D01*
X007601Y017341D01*
X007601Y017341D01*
X008037Y017007D01*
X008545Y016796D01*
X009090Y016725D01*
X009634Y016796D01*
X009634Y016796D01*
X010142Y017007D01*
X010578Y017341D01*
X010578Y017341D01*
X010578Y017341D01*
X010913Y017777D01*
X011123Y018285D01*
X011195Y018830D01*
X011123Y019374D01*
X011123Y019374D01*
X010913Y019882D01*
X010578Y020318D01*
X010578Y020318D01*
X010142Y020653D01*
X009634Y020863D01*
X009090Y020935D01*
X009090Y020935D01*
X008545Y020863D01*
X008374Y020792D01*
X008448Y020866D01*
X008550Y021111D01*
X008550Y021375D01*
X008448Y021620D01*
X008261Y021807D01*
X008040Y021899D01*
X008040Y023276D01*
X007993Y023323D01*
X004300Y023323D01*
X004947Y023969D01*
X006042Y024857D01*
X007225Y025624D01*
X008481Y026265D01*
X009797Y026770D01*
X011159Y027135D01*
X012552Y027355D01*
X013960Y027429D01*
X015192Y027364D01*
X015082Y027254D01*
X015001Y027058D01*
X015001Y027031D01*
X014853Y027092D01*
X014641Y027092D01*
X014445Y027010D01*
X014294Y026860D01*
X014213Y026664D01*
X014213Y026452D01*
X014294Y026256D01*
X014445Y026106D01*
X014641Y026024D01*
X014853Y026024D01*
X014965Y026071D01*
X015771Y025266D01*
X016013Y025266D01*
X015914Y025167D01*
X015914Y025146D01*
X015247Y025146D01*
X015234Y025158D01*
X015281Y025271D01*
X015281Y025483D01*
X015199Y025679D01*
X015049Y025829D01*
X014853Y025911D01*
X014641Y025911D01*
X014445Y025829D01*
X014294Y025679D01*
X014213Y025483D01*
X014213Y025271D01*
X014294Y025075D01*
X014445Y024924D01*
X014641Y024843D01*
X014853Y024843D01*
X014965Y024890D01*
X015089Y024766D01*
X015914Y024766D01*
X015914Y024744D01*
X016213Y024446D01*
X016250Y024446D01*
X016250Y023684D01*
X016519Y023415D01*
X017885Y023415D01*
X017844Y023316D01*
X017844Y023186D01*
X017894Y023065D01*
X017986Y022973D01*
X018107Y022923D01*
X018237Y022923D01*
X018358Y022973D01*
X018450Y023065D01*
X018500Y023186D01*
X018500Y023316D01*
X018450Y023437D01*
X018358Y023529D01*
X018293Y023556D01*
X018165Y023684D01*
X018054Y023795D01*
X017386Y023795D01*
X017492Y023839D01*
X017584Y023931D01*
X017634Y024052D01*
X017634Y024163D01*
X017900Y024163D01*
X018183Y024446D01*
X018852Y024446D01*
X018934Y024528D01*
X018934Y025187D01*
X019366Y025187D01*
X019413Y025075D01*
X019563Y024924D01*
X019759Y024843D01*
X019971Y024843D01*
X020167Y024924D01*
X020317Y025075D01*
X020399Y025271D01*
X020399Y025483D01*
X020317Y025679D01*
X020167Y025829D01*
X019971Y025911D01*
X019759Y025911D01*
X019563Y025829D01*
X019413Y025679D01*
X019366Y025567D01*
X018767Y025567D01*
X018665Y025466D01*
X018655Y025466D01*
X018934Y025744D01*
X018934Y026167D01*
X018635Y026466D01*
X018213Y026466D01*
X017924Y026177D01*
X017635Y026466D01*
X017213Y026466D01*
X017198Y026451D01*
X016618Y027030D01*
X016618Y027030D01*
X016507Y027142D01*
X016033Y027142D01*
X015987Y027254D01*
X015983Y027258D01*
X016760Y027135D01*
X018122Y026770D01*
X019438Y026265D01*
X020694Y025624D01*
X021877Y024857D01*
X022972Y023969D01*
X023619Y023323D01*
X020822Y023323D01*
X020862Y023422D01*
X020862Y023546D01*
X020978Y023662D01*
X021152Y023662D01*
X021348Y023743D01*
X021499Y023893D01*
X021580Y024090D01*
X021580Y024302D01*
X021499Y024498D01*
X021348Y024648D01*
X021152Y024729D01*
X020940Y024729D01*
X020744Y024648D01*
X020594Y024498D01*
X020512Y024302D01*
X020512Y024090D01*
X020594Y023893D01*
X020633Y023854D01*
X020594Y023815D01*
X020469Y023815D01*
X020348Y023765D01*
X020256Y023673D01*
X020206Y023552D01*
X020206Y023422D01*
X020247Y023323D01*
X019926Y023323D01*
X019880Y023276D01*
X019880Y021899D01*
X019763Y021850D01*
X019780Y021890D01*
X019780Y022013D01*
X019733Y022126D01*
X019661Y022198D01*
X019661Y022937D01*
X019749Y023026D01*
X019799Y023146D01*
X019799Y023277D01*
X019749Y023397D01*
X019661Y023486D01*
X019661Y023702D01*
X019759Y023662D01*
X019971Y023662D01*
X020167Y023743D01*
X020317Y023893D01*
X020399Y024090D01*
X020399Y024302D01*
X020317Y024498D01*
X020167Y024648D01*
X019971Y024729D01*
X019759Y024729D01*
X019563Y024648D01*
X019413Y024498D01*
X019331Y024302D01*
X019331Y024090D01*
X019378Y023977D01*
X019281Y023881D01*
X019281Y023486D01*
X019193Y023397D01*
X019143Y023277D01*
X019143Y023146D01*
X019193Y023026D01*
X019281Y022937D01*
X019281Y022198D01*
X019210Y022126D01*
X019163Y022013D01*
X019163Y021890D01*
X019210Y021777D01*
X019297Y021690D01*
X019410Y021643D01*
X019494Y021643D01*
X019471Y021620D01*
X019370Y021375D01*
X019370Y021111D01*
X019471Y020866D01*
X019545Y020792D01*
X019374Y020863D01*
X018830Y020935D01*
X018830Y020935D01*
X018285Y020863D01*
X018285Y020863D01*
X017777Y020653D01*
X017341Y020318D01*
X017007Y019882D01*
X016796Y019374D01*
X016725Y018830D01*
X016796Y018285D01*
X017007Y017777D01*
X017341Y017341D01*
X017341Y017341D01*
X017341Y017341D01*
X017777Y017007D01*
X018285Y016796D01*
X018830Y016725D01*
X019374Y016796D01*
X019374Y016796D01*
X019882Y017007D01*
X020318Y017341D01*
X020318Y017341D01*
X020318Y017341D01*
X020653Y017777D01*
X020863Y018285D01*
X020935Y018830D01*
X020891Y019163D01*
X024993Y019163D01*
X025040Y019210D01*
X025040Y021595D01*
X025624Y020694D01*
X026265Y019438D01*
X026770Y018122D01*
X027135Y016760D01*
X027355Y015367D01*
X027429Y013960D01*
X027355Y012552D01*
X027135Y011159D01*
X026770Y009797D01*
X026265Y008481D01*
X025624Y007225D01*
X025040Y006324D01*
X025040Y008709D01*
X024993Y008756D01*
X020891Y008756D01*
X020935Y009090D01*
X020863Y009634D01*
X020863Y009634D01*
X020653Y010142D01*
X020318Y010578D01*
X020318Y010578D01*
X020318Y010578D01*
X019882Y010913D01*
X019739Y010972D01*
X019739Y011301D01*
X019609Y011617D01*
X019367Y011859D01*
X019051Y011989D01*
X018708Y011989D01*
X018392Y011859D01*
X018151Y011617D01*
X018020Y011301D01*
X018020Y011013D01*
X017777Y010913D01*
X017341Y010578D01*
X017007Y010142D01*
X016796Y009634D01*
X016725Y009090D01*
X016796Y008545D01*
X017007Y008037D01*
X017341Y007601D01*
X017341Y007601D01*
X017777Y007267D01*
X018285Y007056D01*
X018830Y006985D01*
X019374Y007056D01*
X019467Y007095D01*
X019447Y007069D01*
X019401Y006989D01*
X019366Y006903D01*
X019342Y006814D01*
X019334Y006756D01*
X019880Y006756D01*
X019880Y006596D01*
X019334Y006596D01*
X019342Y006538D01*
X019366Y006449D01*
X019401Y006364D01*
X019447Y006284D01*
X019503Y006210D01*
X019569Y006145D01*
X019642Y006089D01*
X019722Y006042D01*
X019807Y006007D01*
X019880Y005988D01*
X019880Y004643D01*
X019926Y004596D01*
X023619Y004596D01*
X023056Y004033D01*
X018676Y004033D01*
X018286Y003907D01*
X017954Y003666D01*
X017954Y003666D01*
X017954Y003666D01*
X017713Y003334D01*
X017587Y002944D01*
X017587Y001006D01*
X016760Y000784D01*
X015367Y000564D01*
X013960Y000490D01*
X012552Y000564D01*
X011159Y000784D01*
X009797Y001149D01*
X008481Y001655D01*
X007225Y002295D01*
X006042Y003062D01*
X004947Y003950D01*
X004300Y004596D01*
X004595Y004301D02*
X009493Y004301D01*
X009522Y004272D02*
X009642Y004222D01*
X009767Y004222D01*
X009883Y004106D01*
X009883Y004011D01*
X009964Y003815D01*
X010114Y003665D01*
X010310Y003583D01*
X010522Y003583D01*
X010719Y003665D01*
X010869Y003815D01*
X010950Y004011D01*
X010950Y004223D01*
X010869Y004419D01*
X010719Y004569D01*
X010522Y004651D01*
X010310Y004651D01*
X010114Y004569D01*
X010036Y004491D01*
X010036Y004615D01*
X009986Y004736D01*
X009893Y004828D01*
X009773Y004878D01*
X009642Y004878D01*
X009522Y004828D01*
X009429Y004736D01*
X009379Y004615D01*
X009379Y004485D01*
X009429Y004364D01*
X009522Y004272D01*
X009846Y004143D02*
X004754Y004143D01*
X004912Y003984D02*
X009894Y003984D01*
X009959Y003826D02*
X005100Y003826D01*
X005296Y003667D02*
X010111Y003667D01*
X010721Y003667D02*
X012220Y003667D01*
X012225Y003656D02*
X012317Y003563D01*
X012438Y003513D01*
X012568Y003513D01*
X012689Y003563D01*
X012781Y003656D01*
X012831Y003776D01*
X012831Y003907D01*
X012781Y004027D01*
X012753Y004056D01*
X013539Y004842D01*
X013676Y004842D01*
X013734Y004784D01*
X013855Y004734D01*
X013985Y004734D01*
X014106Y004784D01*
X014164Y004842D01*
X014464Y004842D01*
X014522Y004784D01*
X014642Y004734D01*
X014773Y004734D01*
X014893Y004784D01*
X014986Y004876D01*
X015036Y004997D01*
X015036Y005127D01*
X014986Y005248D01*
X014893Y005340D01*
X014773Y005390D01*
X014642Y005390D01*
X014522Y005340D01*
X014464Y005282D01*
X014164Y005282D01*
X014106Y005340D01*
X013985Y005390D01*
X013855Y005390D01*
X013734Y005340D01*
X013676Y005282D01*
X013357Y005282D01*
X012412Y004337D01*
X012283Y004208D01*
X012283Y004085D01*
X012225Y004027D01*
X012175Y003907D01*
X012175Y003776D01*
X012225Y003656D01*
X012175Y003826D02*
X010873Y003826D01*
X010939Y003984D02*
X012207Y003984D01*
X012283Y004143D02*
X010950Y004143D01*
X010918Y004301D02*
X012376Y004301D01*
X012503Y004117D02*
X012503Y003841D01*
X012503Y004117D02*
X013448Y005062D01*
X013920Y005062D01*
X014708Y005062D01*
X015010Y004935D02*
X016180Y004935D01*
X016180Y004777D02*
X014876Y004777D01*
X014539Y004777D02*
X014089Y004777D01*
X013752Y004777D02*
X013473Y004777D01*
X013315Y004618D02*
X016180Y004618D01*
X016180Y004460D02*
X013156Y004460D01*
X012998Y004301D02*
X016180Y004301D01*
X016180Y004143D02*
X012839Y004143D01*
X012799Y003984D02*
X016180Y003984D01*
X016180Y003826D02*
X012831Y003826D01*
X012786Y003667D02*
X016180Y003667D01*
X016180Y003509D02*
X005492Y003509D01*
X005687Y003350D02*
X016180Y003350D01*
X016180Y003192D02*
X005883Y003192D01*
X006088Y003033D02*
X016180Y003033D01*
X016180Y002875D02*
X006332Y002875D01*
X006576Y002716D02*
X016180Y002716D01*
X016180Y002558D02*
X006820Y002558D01*
X007064Y002399D02*
X016180Y002399D01*
X016180Y002311D02*
X016175Y002309D01*
X016083Y002216D01*
X016033Y002096D01*
X016033Y001965D01*
X016083Y001845D01*
X016175Y001752D01*
X016296Y001702D01*
X016426Y001702D01*
X016547Y001752D01*
X016639Y001845D01*
X016689Y001965D01*
X016689Y002096D01*
X016639Y002216D01*
X016620Y002235D01*
X016620Y006861D01*
X016817Y007057D01*
X016899Y007057D01*
X017019Y007107D01*
X017112Y007199D01*
X017162Y007319D01*
X017162Y007450D01*
X017112Y007571D01*
X017019Y007663D01*
X016899Y007713D01*
X016768Y007713D01*
X016648Y007663D01*
X016555Y007571D01*
X016505Y007450D01*
X016505Y007368D01*
X016309Y007172D01*
X016180Y007043D01*
X016180Y006671D01*
X016167Y006704D01*
X016075Y006797D01*
X015954Y006847D01*
X015872Y006847D01*
X015628Y007090D01*
X015593Y007175D01*
X015443Y007325D01*
X015247Y007407D01*
X015034Y007407D01*
X014838Y007325D01*
X014688Y007175D01*
X014607Y006979D01*
X014607Y006767D01*
X014688Y006571D01*
X014838Y006420D01*
X015034Y006339D01*
X015247Y006339D01*
X015443Y006420D01*
X015559Y006537D01*
X015561Y006536D01*
X015561Y006453D01*
X015611Y006333D01*
X015703Y006240D01*
X015823Y006190D01*
X015954Y006190D01*
X016075Y006240D01*
X016167Y006333D01*
X016180Y006366D01*
X016180Y002311D01*
X016107Y002241D02*
X012213Y002241D01*
X012293Y002207D02*
X012097Y002289D01*
X011885Y002289D01*
X011689Y002207D01*
X011539Y002057D01*
X011532Y002041D01*
X011532Y002096D01*
X011482Y002216D01*
X011389Y002309D01*
X011269Y002359D01*
X011138Y002359D01*
X011018Y002309D01*
X010925Y002216D01*
X010876Y002096D01*
X010876Y001965D01*
X010925Y001845D01*
X011018Y001752D01*
X011138Y001702D01*
X011263Y001702D01*
X011289Y001676D01*
X011401Y001565D01*
X011492Y001565D01*
X011539Y001452D01*
X011689Y001302D01*
X011885Y001221D01*
X012097Y001221D01*
X012293Y001302D01*
X012443Y001452D01*
X012525Y001649D01*
X012525Y001861D01*
X012443Y002057D01*
X012293Y002207D01*
X012419Y002082D02*
X016033Y002082D01*
X016050Y001924D02*
X012499Y001924D01*
X012525Y001765D02*
X016162Y001765D01*
X016361Y002030D02*
X016400Y002070D01*
X016400Y006952D01*
X016834Y007385D01*
X017067Y007154D02*
X018049Y007154D01*
X018285Y007056D02*
X018285Y007056D01*
X018746Y006996D02*
X016755Y006996D01*
X016620Y006837D02*
X019348Y006837D01*
X019405Y006996D02*
X018913Y006996D01*
X018830Y006985D02*
X018830Y006985D01*
X019346Y006520D02*
X016620Y006520D01*
X016620Y006362D02*
X019402Y006362D01*
X019511Y006203D02*
X016620Y006203D01*
X016620Y006045D02*
X019718Y006045D01*
X019880Y005886D02*
X016620Y005886D01*
X016620Y005728D02*
X019880Y005728D01*
X019880Y005569D02*
X016620Y005569D01*
X016620Y005411D02*
X019880Y005411D01*
X019880Y005252D02*
X016620Y005252D01*
X016620Y005094D02*
X019880Y005094D01*
X019880Y004935D02*
X016620Y004935D01*
X016620Y004777D02*
X019880Y004777D01*
X019904Y004618D02*
X016620Y004618D01*
X016620Y004460D02*
X023482Y004460D01*
X023324Y004301D02*
X016620Y004301D01*
X016620Y004143D02*
X023165Y004143D01*
X025040Y006362D02*
X025064Y006362D01*
X025040Y006520D02*
X025167Y006520D01*
X025270Y006679D02*
X025040Y006679D01*
X025040Y006837D02*
X025373Y006837D01*
X025476Y006996D02*
X025040Y006996D01*
X025040Y007154D02*
X025579Y007154D01*
X025669Y007313D02*
X025040Y007313D01*
X025040Y007471D02*
X025750Y007471D01*
X025831Y007630D02*
X025040Y007630D01*
X025040Y007788D02*
X025911Y007788D01*
X025992Y007947D02*
X025040Y007947D01*
X025040Y008105D02*
X026073Y008105D01*
X026154Y008264D02*
X025040Y008264D01*
X025040Y008422D02*
X026235Y008422D01*
X026303Y008581D02*
X025040Y008581D01*
X025010Y008739D02*
X026364Y008739D01*
X026424Y008898D02*
X020909Y008898D01*
X020930Y009056D02*
X022777Y009056D01*
X022743Y009070D02*
X023070Y008934D01*
X024927Y008934D01*
X025255Y009070D01*
X025506Y009321D01*
X025636Y009636D01*
X025665Y009636D01*
X025712Y009523D01*
X025862Y009373D01*
X026058Y009292D01*
X026270Y009292D01*
X026467Y009373D01*
X026617Y009523D01*
X026698Y009720D01*
X026698Y009932D01*
X026617Y010128D01*
X026467Y010278D01*
X026270Y010359D01*
X026058Y010359D01*
X025862Y010278D01*
X025712Y010128D01*
X025665Y010016D01*
X025636Y010016D01*
X025506Y010330D01*
X025255Y010581D01*
X024927Y010717D01*
X023070Y010717D01*
X022743Y010581D01*
X022492Y010330D01*
X022357Y010003D01*
X022357Y009648D01*
X022492Y009321D01*
X022743Y009070D01*
X022599Y009215D02*
X020918Y009215D01*
X020897Y009373D02*
X022471Y009373D01*
X022405Y009532D02*
X020876Y009532D01*
X020840Y009690D02*
X022357Y009690D01*
X022357Y009849D02*
X020774Y009849D01*
X020708Y010007D02*
X022358Y010007D01*
X022424Y010166D02*
X020634Y010166D01*
X020653Y010142D02*
X020653Y010142D01*
X020513Y010324D02*
X020825Y010324D01*
X020744Y010357D02*
X020594Y010508D01*
X020512Y010704D01*
X020512Y010916D01*
X020594Y011112D01*
X020744Y011262D01*
X020771Y011273D01*
X020764Y011280D01*
X020298Y011280D01*
X020073Y011373D01*
X019901Y011546D01*
X019808Y011771D01*
X019808Y012014D01*
X019901Y012240D01*
X020073Y012412D01*
X020298Y012505D01*
X021487Y012505D01*
X021712Y012412D01*
X021884Y012240D01*
X021977Y012014D01*
X021977Y011771D01*
X021884Y011546D01*
X021712Y011373D01*
X021487Y011280D01*
X021306Y011280D01*
X021348Y011262D01*
X021499Y011112D01*
X021580Y010916D01*
X021580Y010704D01*
X021499Y010508D01*
X021348Y010357D01*
X021152Y010276D01*
X020940Y010276D01*
X020744Y010357D01*
X020619Y010483D02*
X020391Y010483D01*
X020538Y010641D02*
X020236Y010641D01*
X020029Y010800D02*
X020512Y010800D01*
X020530Y010958D02*
X019772Y010958D01*
X019882Y010913D02*
X019882Y010913D01*
X019739Y011117D02*
X020598Y011117D01*
X020769Y011275D02*
X019739Y011275D01*
X019684Y011434D02*
X020013Y011434D01*
X019882Y011592D02*
X019619Y011592D01*
X019475Y011751D02*
X019816Y011751D01*
X019808Y011909D02*
X019245Y011909D01*
X019830Y012068D02*
X018338Y012068D01*
X018414Y012226D02*
X019895Y012226D01*
X020046Y012385D02*
X018469Y012385D01*
X018439Y012278D02*
X018612Y012902D01*
X018625Y012870D01*
X018775Y012720D01*
X018971Y012638D01*
X019184Y012638D01*
X019380Y012720D01*
X019530Y012870D01*
X019611Y013066D01*
X019611Y013278D01*
X019565Y013391D01*
X019586Y013412D01*
X019743Y013347D01*
X020932Y013347D01*
X021157Y013440D01*
X021329Y013613D01*
X021422Y013838D01*
X021422Y014081D01*
X021329Y014306D01*
X021157Y014479D01*
X020932Y014572D01*
X019743Y014572D01*
X019518Y014479D01*
X019346Y014306D01*
X019253Y014081D01*
X019253Y013838D01*
X019318Y013681D01*
X019296Y013659D01*
X019184Y013706D01*
X018971Y013706D01*
X018775Y013625D01*
X018708Y013558D01*
X018745Y013960D01*
X018668Y014814D01*
X018439Y015641D01*
X018067Y016414D01*
X017563Y017108D01*
X016943Y017701D01*
X016227Y018173D01*
X015438Y018510D01*
X014602Y018701D01*
X013745Y018740D01*
X012895Y018625D01*
X012079Y018359D01*
X012079Y018359D01*
X011323Y017953D01*
X010653Y017418D01*
X010088Y016772D01*
X009648Y016036D01*
X009648Y016036D01*
X009347Y015233D01*
X009347Y015233D01*
X009194Y014388D01*
X009194Y013531D01*
X009347Y012687D01*
X009347Y012687D01*
X009648Y011883D01*
X010088Y011147D01*
X010653Y010501D01*
X011323Y009966D01*
X011323Y009966D01*
X012079Y009560D01*
X012895Y009294D01*
X013745Y009179D01*
X014602Y009218D01*
X015438Y009409D01*
X015438Y009409D01*
X016227Y009746D01*
X016943Y010218D01*
X017563Y010811D01*
X017563Y010811D01*
X018067Y011505D01*
X018439Y012278D01*
X018439Y012278D01*
X018512Y012543D02*
X023841Y012543D01*
X023865Y012551D02*
X023779Y012523D01*
X023698Y012482D01*
X023625Y012429D01*
X023561Y012365D01*
X023508Y012292D01*
X023467Y012211D01*
X023439Y012125D01*
X023431Y012071D01*
X023919Y012071D01*
X023919Y012559D01*
X023865Y012551D01*
X023919Y012543D02*
X024079Y012543D01*
X024079Y012559D02*
X024079Y012071D01*
X024567Y012071D01*
X024558Y012125D01*
X024531Y012211D01*
X024490Y012292D01*
X024436Y012365D01*
X024373Y012429D01*
X024300Y012482D01*
X024219Y012523D01*
X024133Y012551D01*
X024079Y012559D01*
X024157Y012543D02*
X027354Y012543D01*
X027355Y012552D02*
X027355Y012552D01*
X027363Y012702D02*
X019336Y012702D01*
X019520Y012860D02*
X027371Y012860D01*
X027380Y013019D02*
X019592Y013019D01*
X019611Y013177D02*
X027388Y013177D01*
X027396Y013336D02*
X019588Y013336D01*
X019264Y013811D02*
X018731Y013811D01*
X018744Y013970D02*
X019253Y013970D01*
X019272Y014128D02*
X018729Y014128D01*
X018715Y014287D02*
X019338Y014287D01*
X019484Y014445D02*
X018701Y014445D01*
X018687Y014604D02*
X027395Y014604D01*
X027387Y014762D02*
X018672Y014762D01*
X018668Y014814D02*
X018668Y014814D01*
X018638Y014921D02*
X027379Y014921D01*
X027370Y015079D02*
X018594Y015079D01*
X018551Y015238D02*
X027362Y015238D01*
X027351Y015396D02*
X021533Y015396D01*
X021493Y015385D02*
X021575Y015407D01*
X021654Y015440D01*
X021728Y015483D01*
X021796Y015535D01*
X021857Y015595D01*
X021909Y015663D01*
X021951Y015737D01*
X021984Y015816D01*
X022006Y015899D01*
X022013Y015949D01*
X020498Y015949D01*
X020498Y016104D01*
X022013Y016104D01*
X022006Y016154D01*
X021984Y016237D01*
X021951Y016316D01*
X021909Y016390D01*
X021857Y016458D01*
X021796Y016518D01*
X021728Y016570D01*
X021654Y016613D01*
X021575Y016646D01*
X021493Y016668D01*
X021408Y016679D01*
X020498Y016679D01*
X020498Y016104D01*
X020343Y016104D01*
X020343Y016674D01*
X020293Y016668D01*
X020210Y016646D01*
X020131Y016613D01*
X020057Y016570D01*
X019989Y016518D01*
X019929Y016458D01*
X019877Y016390D01*
X019834Y016316D01*
X019801Y016237D01*
X019779Y016154D01*
X019772Y016104D01*
X020343Y016104D01*
X020343Y015949D01*
X020498Y015949D01*
X020498Y015374D01*
X021408Y015374D01*
X021493Y015385D01*
X021816Y015555D02*
X027326Y015555D01*
X027301Y015713D02*
X021937Y015713D01*
X021999Y015872D02*
X027275Y015872D01*
X027250Y016030D02*
X020498Y016030D01*
X020343Y016030D02*
X018252Y016030D01*
X018328Y015872D02*
X019786Y015872D01*
X019779Y015899D02*
X019801Y015816D01*
X019834Y015737D01*
X019877Y015663D01*
X019929Y015595D01*
X019989Y015535D01*
X020057Y015483D01*
X020131Y015440D01*
X020210Y015407D01*
X020293Y015385D01*
X020343Y015379D01*
X020343Y015949D01*
X019772Y015949D01*
X019779Y015899D01*
X019848Y015713D02*
X018405Y015713D01*
X018439Y015641D02*
X018439Y015641D01*
X018463Y015555D02*
X019969Y015555D01*
X020252Y015396D02*
X018507Y015396D01*
X018176Y016189D02*
X019788Y016189D01*
X019852Y016347D02*
X018099Y016347D01*
X018067Y016414D02*
X018067Y016414D01*
X018001Y016506D02*
X019977Y016506D01*
X020279Y016664D02*
X017885Y016664D01*
X017770Y016823D02*
X018221Y016823D01*
X018285Y016796D02*
X018285Y016796D01*
X017839Y016981D02*
X017655Y016981D01*
X017777Y017007D02*
X017777Y017007D01*
X017604Y017140D02*
X017530Y017140D01*
X017563Y017108D02*
X017563Y017108D01*
X017397Y017298D02*
X017364Y017298D01*
X017252Y017457D02*
X017198Y017457D01*
X017131Y017615D02*
X017032Y017615D01*
X017009Y017774D02*
X016832Y017774D01*
X017007Y017777D02*
X017007Y017777D01*
X016942Y017932D02*
X016592Y017932D01*
X016352Y018091D02*
X016877Y018091D01*
X016811Y018249D02*
X016050Y018249D01*
X015679Y018408D02*
X016780Y018408D01*
X016796Y018285D02*
X016796Y018285D01*
X016759Y018566D02*
X015194Y018566D01*
X014083Y018725D02*
X016738Y018725D01*
X016725Y018830D02*
X016725Y018830D01*
X016732Y018883D02*
X011187Y018883D01*
X011181Y018725D02*
X013633Y018725D01*
X013745Y018740D02*
X013745Y018740D01*
X012895Y018625D02*
X012895Y018625D01*
X012715Y018566D02*
X011160Y018566D01*
X011139Y018408D02*
X012227Y018408D01*
X011874Y018249D02*
X011108Y018249D01*
X011123Y018285D02*
X011123Y018285D01*
X011042Y018091D02*
X011579Y018091D01*
X011323Y017953D02*
X011323Y017953D01*
X011297Y017932D02*
X010977Y017932D01*
X010913Y017777D02*
X010913Y017777D01*
X010910Y017774D02*
X011098Y017774D01*
X010900Y017615D02*
X010788Y017615D01*
X010701Y017457D02*
X010667Y017457D01*
X010653Y017418D02*
X010653Y017418D01*
X010653Y017418D01*
X010548Y017298D02*
X010522Y017298D01*
X010409Y017140D02*
X010315Y017140D01*
X010271Y016981D02*
X010080Y016981D01*
X010142Y017007D02*
X010142Y017007D01*
X010132Y016823D02*
X009698Y016823D01*
X010024Y016664D02*
X005327Y016664D01*
X005579Y016506D02*
X009929Y016506D01*
X009834Y016347D02*
X005830Y016347D01*
X005988Y016189D02*
X009740Y016189D01*
X009646Y016030D02*
X006147Y016030D01*
X006305Y015872D02*
X009587Y015872D01*
X009527Y015713D02*
X006407Y015713D01*
X006311Y015866D02*
X006311Y015866D01*
X006507Y015555D02*
X009468Y015555D01*
X009408Y015396D02*
X006606Y015396D01*
X006692Y015238D02*
X009349Y015238D01*
X009319Y015079D02*
X006748Y015079D01*
X006803Y014921D02*
X009290Y014921D01*
X009262Y014762D02*
X006859Y014762D01*
X006901Y014640D02*
X006901Y014640D01*
X006905Y014604D02*
X009233Y014604D01*
X009204Y014445D02*
X006923Y014445D01*
X006941Y014287D02*
X009194Y014287D01*
X009194Y014128D02*
X006959Y014128D01*
X006977Y013970D02*
X009194Y013970D01*
X009194Y013811D02*
X006961Y013811D01*
X006943Y013653D02*
X009194Y013653D01*
X009200Y013494D02*
X006925Y013494D01*
X006908Y013336D02*
X009229Y013336D01*
X009258Y013177D02*
X006866Y013177D01*
X006810Y013019D02*
X009287Y013019D01*
X009315Y012860D02*
X006755Y012860D01*
X006699Y012702D02*
X009344Y012702D01*
X009401Y012543D02*
X006619Y012543D01*
X006519Y012385D02*
X009460Y012385D01*
X009520Y012226D02*
X006419Y012226D01*
X006320Y012068D02*
X009579Y012068D01*
X009639Y011909D02*
X009405Y011909D01*
X009648Y011883D02*
X009648Y011883D01*
X009635Y011751D02*
X009728Y011751D01*
X009779Y011592D02*
X009822Y011592D01*
X009844Y011434D02*
X009917Y011434D01*
X009899Y011275D02*
X010012Y011275D01*
X010088Y011147D02*
X010088Y011147D01*
X010115Y011117D02*
X009899Y011117D01*
X010032Y010958D02*
X010253Y010958D01*
X010142Y010913D02*
X010142Y010913D01*
X010289Y010800D02*
X010392Y010800D01*
X010496Y010641D02*
X010530Y010641D01*
X010653Y010501D02*
X010653Y010501D01*
X010651Y010483D02*
X010676Y010483D01*
X010773Y010324D02*
X010875Y010324D01*
X010894Y010166D02*
X011073Y010166D01*
X010913Y010142D02*
X010913Y010142D01*
X010968Y010007D02*
X011272Y010007D01*
X011034Y009849D02*
X011542Y009849D01*
X011837Y009690D02*
X011100Y009690D01*
X011136Y009532D02*
X012165Y009532D01*
X012079Y009560D02*
X012079Y009560D01*
X012653Y009373D02*
X011157Y009373D01*
X011178Y009215D02*
X013485Y009215D01*
X013745Y009179D02*
X013745Y009179D01*
X014528Y009215D02*
X016741Y009215D01*
X016725Y009090D02*
X016725Y009090D01*
X016729Y009056D02*
X011190Y009056D01*
X011169Y008898D02*
X016750Y008898D01*
X016771Y008739D02*
X011148Y008739D01*
X011128Y008581D02*
X016792Y008581D01*
X016796Y008545D02*
X016796Y008545D01*
X016847Y008422D02*
X011072Y008422D01*
X011123Y008545D02*
X011123Y008545D01*
X011006Y008264D02*
X016913Y008264D01*
X016978Y008105D02*
X010941Y008105D01*
X010913Y008037D02*
X010913Y008037D01*
X010843Y007947D02*
X017076Y007947D01*
X017007Y008037D02*
X017007Y008037D01*
X017198Y007788D02*
X010721Y007788D01*
X010600Y007630D02*
X016614Y007630D01*
X016514Y007471D02*
X010408Y007471D01*
X010202Y007313D02*
X014825Y007313D01*
X014679Y007154D02*
X009870Y007154D01*
X010142Y007267D02*
X010142Y007267D01*
X009173Y006996D02*
X014614Y006996D01*
X014607Y006837D02*
X008538Y006837D01*
X008550Y006679D02*
X014643Y006679D01*
X014739Y006520D02*
X008540Y006520D01*
X008474Y006362D02*
X014981Y006362D01*
X015301Y006362D02*
X015599Y006362D01*
X015561Y006520D02*
X015542Y006520D01*
X015889Y006519D02*
X015534Y006873D01*
X015141Y006873D01*
X015602Y007154D02*
X016292Y007154D01*
X016180Y006996D02*
X015723Y006996D01*
X015977Y006837D02*
X016180Y006837D01*
X016178Y006679D02*
X016180Y006679D01*
X016179Y006362D02*
X016180Y006362D01*
X016180Y006203D02*
X015984Y006203D01*
X015793Y006203D02*
X008352Y006203D01*
X008098Y006045D02*
X016180Y006045D01*
X016180Y005886D02*
X008040Y005886D01*
X008040Y005728D02*
X016180Y005728D01*
X016180Y005569D02*
X008040Y005569D01*
X008040Y005411D02*
X016180Y005411D01*
X016180Y005252D02*
X014981Y005252D01*
X015036Y005094D02*
X016180Y005094D01*
X016620Y003984D02*
X018524Y003984D01*
X018286Y003907D02*
X018286Y003907D01*
X018174Y003826D02*
X016620Y003826D01*
X016620Y003667D02*
X017956Y003667D01*
X017840Y003509D02*
X016620Y003509D01*
X016620Y003350D02*
X017725Y003350D01*
X017713Y003334D02*
X017713Y003334D01*
X017667Y003192D02*
X016620Y003192D01*
X016620Y003033D02*
X017615Y003033D01*
X017587Y002875D02*
X016620Y002875D01*
X016620Y002716D02*
X017587Y002716D01*
X017587Y002558D02*
X016620Y002558D01*
X016620Y002399D02*
X017587Y002399D01*
X017587Y002241D02*
X016620Y002241D01*
X016689Y002082D02*
X017587Y002082D01*
X017587Y001924D02*
X016672Y001924D01*
X016560Y001765D02*
X017587Y001765D01*
X017587Y001607D02*
X012507Y001607D01*
X012439Y001448D02*
X017587Y001448D01*
X017587Y001290D02*
X012262Y001290D01*
X011720Y001290D02*
X009432Y001290D01*
X009865Y001131D02*
X017587Y001131D01*
X017462Y000973D02*
X010457Y000973D01*
X011048Y000814D02*
X016871Y000814D01*
X015947Y000656D02*
X011973Y000656D01*
X011543Y001448D02*
X009019Y001448D01*
X008606Y001607D02*
X011359Y001607D01*
X011289Y001676D02*
X011289Y001676D01*
X011005Y001765D02*
X008264Y001765D01*
X007953Y001924D02*
X010893Y001924D01*
X010876Y002082D02*
X007642Y002082D01*
X007331Y002241D02*
X010950Y002241D01*
X011458Y002241D02*
X011769Y002241D01*
X011563Y002082D02*
X011532Y002082D01*
X010828Y004460D02*
X012534Y004460D01*
X012693Y004618D02*
X010601Y004618D01*
X010231Y004618D02*
X010035Y004618D01*
X009945Y004777D02*
X012851Y004777D01*
X013010Y004935D02*
X008040Y004935D01*
X008040Y004777D02*
X009470Y004777D01*
X009381Y004618D02*
X008015Y004618D01*
X008040Y005094D02*
X013168Y005094D01*
X013327Y005252D02*
X008040Y005252D01*
X008472Y006996D02*
X009006Y006996D01*
X009090Y006985D02*
X009090Y006985D01*
X008545Y007056D02*
X008545Y007056D01*
X007010Y008898D02*
X001914Y008898D01*
X001853Y009056D02*
X006989Y009056D01*
X006985Y009090D02*
X006985Y009090D01*
X007001Y009215D02*
X001792Y009215D01*
X001731Y009373D02*
X007022Y009373D01*
X007043Y009532D02*
X001670Y009532D01*
X001610Y009690D02*
X005596Y009690D01*
X005598Y009687D02*
X005914Y009556D01*
X006257Y009556D01*
X006573Y009687D01*
X006815Y009929D01*
X006945Y010245D01*
X006945Y010587D01*
X006815Y010903D01*
X006573Y011145D01*
X006257Y011276D01*
X005914Y011276D01*
X005598Y011145D01*
X005357Y010903D01*
X005226Y010587D01*
X005226Y010245D01*
X005357Y009929D01*
X005598Y009687D01*
X005437Y009849D02*
X001549Y009849D01*
X001498Y010007D02*
X005324Y010007D01*
X005259Y010166D02*
X001456Y010166D01*
X001413Y010324D02*
X005226Y010324D01*
X005226Y010483D02*
X001371Y010483D01*
X001328Y010641D02*
X005248Y010641D01*
X005314Y010800D02*
X001286Y010800D01*
X001243Y010958D02*
X003421Y010958D01*
X003240Y010978D02*
X003240Y010978D01*
X002845Y011117D02*
X001201Y011117D01*
X001162Y011275D02*
X002481Y011275D01*
X002229Y011434D02*
X001137Y011434D01*
X001112Y011592D02*
X001991Y011592D01*
X002014Y011569D02*
X002014Y011569D01*
X001832Y011751D02*
X001087Y011751D01*
X001062Y011909D02*
X001674Y011909D01*
X001530Y012053D02*
X001530Y012053D01*
X001520Y012068D02*
X001036Y012068D01*
X001011Y012226D02*
X001421Y012226D01*
X001321Y012385D02*
X000986Y012385D01*
X000961Y012543D02*
X001222Y012543D01*
X001141Y012702D02*
X000948Y012702D01*
X000939Y012860D02*
X001086Y012860D01*
X001030Y013019D02*
X000931Y013019D01*
X000923Y013177D02*
X000975Y013177D01*
X000939Y013279D02*
X000939Y013279D01*
X000933Y013336D02*
X000914Y013336D01*
X000906Y013494D02*
X000915Y013494D01*
X000899Y014287D02*
X000899Y014287D01*
X000907Y014445D02*
X000917Y014445D01*
X000915Y014604D02*
X000935Y014604D01*
X000924Y014762D02*
X000982Y014762D01*
X000932Y014921D02*
X001037Y014921D01*
X001093Y015079D02*
X000940Y015079D01*
X000949Y015238D02*
X001148Y015238D01*
X001165Y015286D02*
X001165Y015286D01*
X001234Y015396D02*
X000964Y015396D01*
X000989Y015555D02*
X001334Y015555D01*
X001433Y015713D02*
X001015Y015713D01*
X001040Y015872D02*
X001535Y015872D01*
X001530Y015866D02*
X001530Y015866D01*
X001694Y016030D02*
X001065Y016030D01*
X001090Y016189D02*
X001852Y016189D01*
X002011Y016347D02*
X001115Y016347D01*
X001140Y016506D02*
X002261Y016506D01*
X002513Y016664D02*
X001165Y016664D01*
X001206Y016823D02*
X002902Y016823D01*
X002593Y016714D02*
X002593Y016714D01*
X003598Y016981D02*
X001249Y016981D01*
X001291Y017140D02*
X007864Y017140D01*
X008037Y017007D02*
X008037Y017007D01*
X008099Y016981D02*
X004242Y016981D01*
X004273Y017171D02*
X004219Y017179D01*
X004133Y017207D01*
X004053Y017248D01*
X003979Y017301D01*
X003916Y017365D01*
X003863Y017438D01*
X003822Y017519D01*
X003794Y017605D01*
X003785Y017659D01*
X004273Y017659D01*
X004273Y017819D01*
X003785Y017819D01*
X003794Y017873D01*
X003822Y017959D01*
X003863Y018040D01*
X003916Y018113D01*
X003979Y018177D01*
X004053Y018230D01*
X004133Y018271D01*
X004219Y018299D01*
X004273Y018307D01*
X004273Y017819D01*
X004433Y017819D01*
X004433Y018307D01*
X004488Y018299D01*
X004573Y018271D01*
X004654Y018230D01*
X004727Y018177D01*
X004791Y018113D01*
X004844Y018040D01*
X004885Y017959D01*
X004913Y017873D01*
X004921Y017819D01*
X004433Y017819D01*
X004433Y017659D01*
X004433Y017171D01*
X004488Y017179D01*
X004573Y017207D01*
X004654Y017248D01*
X004727Y017301D01*
X004791Y017365D01*
X004844Y017438D01*
X004885Y017519D01*
X004913Y017605D01*
X004921Y017659D01*
X004433Y017659D01*
X004273Y017659D01*
X004273Y017171D01*
X004273Y017298D02*
X004433Y017298D01*
X004433Y017457D02*
X004273Y017457D01*
X004273Y017615D02*
X004433Y017615D01*
X004433Y017774D02*
X007269Y017774D01*
X007267Y017777D02*
X007267Y017777D01*
X007202Y017932D02*
X004894Y017932D01*
X004807Y018091D02*
X007137Y018091D01*
X007071Y018249D02*
X004616Y018249D01*
X004433Y018249D02*
X004273Y018249D01*
X004273Y018091D02*
X004433Y018091D01*
X004433Y017932D02*
X004273Y017932D01*
X004273Y017774D02*
X001461Y017774D01*
X001503Y017932D02*
X003813Y017932D01*
X003899Y018091D02*
X001556Y018091D01*
X001617Y018249D02*
X004090Y018249D01*
X003792Y017615D02*
X001418Y017615D01*
X001376Y017457D02*
X003853Y017457D01*
X003984Y017298D02*
X001334Y017298D01*
X001678Y018408D02*
X007040Y018408D01*
X007056Y018285D02*
X007056Y018285D01*
X007019Y018566D02*
X001739Y018566D01*
X001800Y018725D02*
X006998Y018725D01*
X006985Y018830D02*
X006985Y018830D01*
X006992Y018883D02*
X001861Y018883D01*
X001922Y019042D02*
X007012Y019042D01*
X007391Y017615D02*
X004914Y017615D01*
X004853Y017457D02*
X007512Y017457D01*
X007657Y017298D02*
X004722Y017298D01*
X004938Y016823D02*
X008481Y016823D01*
X008545Y016796D02*
X008545Y016796D01*
X009090Y016725D02*
X009090Y016725D01*
X010088Y016772D02*
X010088Y016772D01*
X011167Y019042D02*
X016752Y019042D01*
X016773Y019200D02*
X011146Y019200D01*
X011125Y019359D02*
X016794Y019359D01*
X016796Y019374D02*
X016796Y019374D01*
X016855Y019517D02*
X011064Y019517D01*
X010998Y019676D02*
X016921Y019676D01*
X016987Y019834D02*
X010932Y019834D01*
X010913Y019882D02*
X010913Y019882D01*
X010828Y019993D02*
X017091Y019993D01*
X017007Y019882D02*
X017007Y019882D01*
X017213Y020151D02*
X010706Y020151D01*
X010584Y020310D02*
X017335Y020310D01*
X017341Y020318D02*
X017341Y020318D01*
X017341Y020318D01*
X017537Y020468D02*
X012748Y020468D01*
X012807Y020492D02*
X012899Y020585D01*
X012949Y020705D01*
X012949Y020836D01*
X012899Y020956D01*
X012807Y021049D01*
X012686Y021099D01*
X012562Y021099D01*
X012339Y021322D01*
X012339Y022739D01*
X012227Y022850D01*
X011890Y023188D01*
X011941Y023209D01*
X012033Y023301D01*
X012083Y023422D01*
X012083Y023552D01*
X012033Y023673D01*
X011945Y023761D01*
X011945Y024904D01*
X011669Y025180D01*
X011558Y025291D01*
X011123Y025291D01*
X011035Y025379D01*
X010915Y025429D01*
X010784Y025429D01*
X010663Y025379D01*
X010571Y025287D01*
X010521Y025167D01*
X010521Y025036D01*
X010571Y024915D01*
X010663Y024823D01*
X010784Y024773D01*
X010915Y024773D01*
X011035Y024823D01*
X011123Y024911D01*
X011401Y024911D01*
X011565Y024747D01*
X011565Y023761D01*
X011477Y023673D01*
X011456Y023622D01*
X011400Y023677D01*
X011045Y023677D01*
X010956Y023765D01*
X010836Y023815D01*
X010705Y023815D01*
X010585Y023765D01*
X010492Y023673D01*
X010442Y023552D01*
X010442Y023422D01*
X010492Y023301D01*
X010585Y023209D01*
X010705Y023159D01*
X010836Y023159D01*
X010956Y023209D01*
X011045Y023297D01*
X011243Y023297D01*
X011959Y022582D01*
X011959Y021164D01*
X012293Y020830D01*
X012293Y020705D01*
X012343Y020585D01*
X012435Y020492D01*
X012556Y020442D01*
X012686Y020442D01*
X012807Y020492D01*
X012916Y020627D02*
X014821Y020627D01*
X014784Y020663D02*
X014876Y020571D01*
X014997Y020521D01*
X015127Y020521D01*
X015248Y020571D01*
X015340Y020663D01*
X015390Y020784D01*
X015390Y020915D01*
X015340Y021035D01*
X015252Y021123D01*
X015252Y021899D01*
X015324Y021899D01*
X015445Y021949D01*
X015537Y022041D01*
X015587Y022162D01*
X015587Y022293D01*
X015537Y022413D01*
X015445Y022505D01*
X015324Y022555D01*
X015193Y022555D01*
X015073Y022505D01*
X015007Y022439D01*
X015007Y023126D01*
X015025Y023144D01*
X015075Y023264D01*
X015075Y023395D01*
X015025Y023515D01*
X014967Y023574D01*
X014967Y023709D01*
X015049Y023743D01*
X015199Y023893D01*
X015281Y024090D01*
X015281Y024302D01*
X015199Y024498D01*
X015049Y024648D01*
X014853Y024729D01*
X014641Y024729D01*
X014445Y024648D01*
X014294Y024498D01*
X014213Y024302D01*
X014213Y024090D01*
X014294Y023893D01*
X014445Y023743D01*
X014527Y023709D01*
X014527Y023574D01*
X014469Y023515D01*
X014419Y023395D01*
X014419Y023264D01*
X014469Y023144D01*
X014487Y023126D01*
X014487Y021443D01*
X014471Y021427D01*
X014421Y021306D01*
X014421Y021176D01*
X014471Y021055D01*
X014563Y020963D01*
X014684Y020913D01*
X014734Y020913D01*
X014734Y020784D01*
X014784Y020663D01*
X014734Y020785D02*
X012949Y020785D01*
X012904Y020944D02*
X014610Y020944D01*
X014451Y021102D02*
X014215Y021102D01*
X014263Y021122D02*
X014356Y021215D01*
X014406Y021335D01*
X014406Y021466D01*
X014356Y021586D01*
X014307Y021635D01*
X014307Y021914D01*
X014395Y022002D01*
X014445Y022123D01*
X014445Y022253D01*
X014395Y022374D01*
X014307Y022462D01*
X014307Y022780D01*
X014395Y022868D01*
X014445Y022989D01*
X014445Y023119D01*
X014395Y023240D01*
X014303Y023332D01*
X014182Y023382D01*
X014052Y023382D01*
X013931Y023332D01*
X013839Y023240D01*
X013789Y023119D01*
X013789Y022989D01*
X013839Y022868D01*
X013927Y022780D01*
X013927Y022462D01*
X013839Y022374D01*
X013789Y022253D01*
X013789Y022123D01*
X013839Y022002D01*
X013927Y021914D01*
X013927Y021693D01*
X013892Y021679D01*
X013799Y021586D01*
X013750Y021466D01*
X013750Y021335D01*
X013799Y021215D01*
X013892Y021122D01*
X014012Y021072D01*
X014143Y021072D01*
X014263Y021122D01*
X014375Y021261D02*
X014421Y021261D01*
X014406Y021419D02*
X014467Y021419D01*
X014487Y021578D02*
X014359Y021578D01*
X014307Y021736D02*
X014487Y021736D01*
X014487Y021895D02*
X014307Y021895D01*
X014416Y022053D02*
X014487Y022053D01*
X014487Y022212D02*
X014445Y022212D01*
X014487Y022370D02*
X014397Y022370D01*
X014307Y022529D02*
X014487Y022529D01*
X014487Y022687D02*
X014307Y022687D01*
X014373Y022846D02*
X014487Y022846D01*
X014487Y023004D02*
X014445Y023004D01*
X014461Y023163D02*
X014427Y023163D01*
X014419Y023321D02*
X014314Y023321D01*
X014454Y023480D02*
X012083Y023480D01*
X012047Y023638D02*
X014527Y023638D01*
X014391Y023797D02*
X011945Y023797D01*
X011945Y023955D02*
X014269Y023955D01*
X014213Y024114D02*
X011945Y024114D01*
X011945Y024272D02*
X014213Y024272D01*
X014267Y024431D02*
X011945Y024431D01*
X011945Y024589D02*
X014385Y024589D01*
X014489Y024906D02*
X011943Y024906D01*
X011945Y024748D02*
X015914Y024748D01*
X016069Y024589D02*
X015108Y024589D01*
X015227Y024431D02*
X016250Y024431D01*
X016250Y024272D02*
X015281Y024272D01*
X015281Y024114D02*
X016250Y024114D01*
X016250Y023955D02*
X015225Y023955D01*
X015102Y023797D02*
X016250Y023797D01*
X016296Y023638D02*
X014967Y023638D01*
X015040Y023480D02*
X016454Y023480D01*
X016676Y023795D02*
X016630Y023841D01*
X016630Y024446D01*
X016635Y024446D01*
X016924Y024734D01*
X017191Y024468D01*
X017155Y024432D01*
X017116Y024393D01*
X017116Y024391D01*
X017028Y024303D01*
X016978Y024182D01*
X016978Y024052D01*
X017028Y023931D01*
X017120Y023839D01*
X017226Y023795D01*
X016676Y023795D01*
X016675Y023797D02*
X017222Y023797D01*
X017390Y023797D02*
X019281Y023797D01*
X019281Y023638D02*
X018211Y023638D01*
X018407Y023480D02*
X019275Y023480D01*
X019162Y023321D02*
X018498Y023321D01*
X018491Y023163D02*
X019143Y023163D01*
X019215Y023004D02*
X018389Y023004D01*
X017955Y023004D02*
X015007Y023004D01*
X015007Y022846D02*
X019281Y022846D01*
X019281Y022687D02*
X015007Y022687D01*
X015007Y022529D02*
X015129Y022529D01*
X015389Y022529D02*
X019281Y022529D01*
X019281Y022370D02*
X015555Y022370D01*
X015587Y022212D02*
X019281Y022212D01*
X019179Y022053D02*
X015542Y022053D01*
X015252Y021895D02*
X019163Y021895D01*
X019251Y021736D02*
X015252Y021736D01*
X015252Y021578D02*
X019453Y021578D01*
X019388Y021419D02*
X015252Y021419D01*
X015252Y021261D02*
X019370Y021261D01*
X019373Y021102D02*
X015273Y021102D01*
X015378Y020944D02*
X019439Y020944D01*
X019374Y020863D02*
X019374Y020863D01*
X019780Y021895D02*
X019870Y021895D01*
X019880Y022053D02*
X019763Y022053D01*
X019661Y022212D02*
X019880Y022212D01*
X019880Y022370D02*
X019661Y022370D01*
X019661Y022529D02*
X019880Y022529D01*
X019880Y022687D02*
X019661Y022687D01*
X019661Y022846D02*
X019880Y022846D01*
X019880Y023004D02*
X019728Y023004D01*
X019799Y023163D02*
X019880Y023163D01*
X019924Y023321D02*
X019781Y023321D01*
X019667Y023480D02*
X020206Y023480D01*
X020242Y023638D02*
X019661Y023638D01*
X019356Y023955D02*
X017594Y023955D01*
X017634Y024114D02*
X019331Y024114D01*
X019331Y024272D02*
X018009Y024272D01*
X018168Y024431D02*
X019385Y024431D01*
X019504Y024589D02*
X018934Y024589D01*
X018934Y024748D02*
X022011Y024748D01*
X022207Y024589D02*
X021408Y024589D01*
X021527Y024431D02*
X022403Y024431D01*
X022599Y024272D02*
X021580Y024272D01*
X021580Y024114D02*
X022794Y024114D01*
X022987Y023955D02*
X021524Y023955D01*
X021402Y023797D02*
X023145Y023797D01*
X023304Y023638D02*
X020954Y023638D01*
X020862Y023480D02*
X023462Y023480D01*
X021801Y024906D02*
X020123Y024906D01*
X020307Y025065D02*
X021557Y025065D01*
X021312Y025223D02*
X020379Y025223D01*
X020399Y025382D02*
X021068Y025382D01*
X020824Y025540D02*
X020375Y025540D01*
X020298Y025699D02*
X020549Y025699D01*
X020238Y025857D02*
X020100Y025857D01*
X019927Y026016D02*
X018934Y026016D01*
X018927Y026174D02*
X019616Y026174D01*
X019630Y025857D02*
X018934Y025857D01*
X018888Y025699D02*
X019432Y025699D01*
X019261Y026333D02*
X018768Y026333D01*
X018848Y026491D02*
X017157Y026491D01*
X016999Y026650D02*
X018435Y026650D01*
X018080Y026333D02*
X017768Y026333D01*
X017979Y026808D02*
X016840Y026808D01*
X016682Y026967D02*
X017388Y026967D01*
X016796Y027125D02*
X016523Y027125D01*
X016349Y026762D02*
X016033Y026762D01*
X015987Y026649D01*
X015837Y026499D01*
X015640Y026418D01*
X015428Y026418D01*
X015281Y026479D01*
X015281Y026452D01*
X015234Y026339D01*
X015928Y025646D01*
X015956Y025646D01*
X015874Y025728D01*
X015874Y025936D01*
X016404Y025936D01*
X016404Y025976D01*
X016404Y026506D01*
X016196Y026506D01*
X015874Y026183D01*
X015874Y025976D01*
X016404Y025976D01*
X016444Y025976D01*
X016444Y026506D01*
X016605Y026506D01*
X016349Y026762D01*
X016461Y026650D02*
X015987Y026650D01*
X015817Y026491D02*
X016182Y026491D01*
X016404Y026491D02*
X016444Y026491D01*
X016444Y026333D02*
X016404Y026333D01*
X016404Y026174D02*
X016444Y026174D01*
X016444Y026016D02*
X016404Y026016D01*
X016023Y026333D02*
X015241Y026333D01*
X015400Y026174D02*
X015874Y026174D01*
X015874Y026016D02*
X015558Y026016D01*
X015717Y025857D02*
X015874Y025857D01*
X015875Y025699D02*
X015903Y025699D01*
X015655Y025382D02*
X015281Y025382D01*
X015257Y025540D02*
X015496Y025540D01*
X015338Y025699D02*
X015180Y025699D01*
X015179Y025857D02*
X014982Y025857D01*
X015021Y026016D02*
X007992Y026016D01*
X007681Y025857D02*
X014512Y025857D01*
X014314Y025699D02*
X007370Y025699D01*
X007095Y025540D02*
X014237Y025540D01*
X014213Y025382D02*
X011030Y025382D01*
X011118Y024906D02*
X011406Y024906D01*
X011564Y024748D02*
X005908Y024748D01*
X005712Y024589D02*
X011565Y024589D01*
X011565Y024431D02*
X005516Y024431D01*
X005320Y024272D02*
X011565Y024272D01*
X011565Y024114D02*
X005125Y024114D01*
X004932Y023955D02*
X011565Y023955D01*
X011565Y023797D02*
X010881Y023797D01*
X010660Y023797D02*
X004774Y023797D01*
X004615Y023638D02*
X010478Y023638D01*
X010442Y023480D02*
X004457Y023480D01*
X006118Y024906D02*
X010580Y024906D01*
X010521Y025065D02*
X006363Y025065D01*
X006607Y025223D02*
X010545Y025223D01*
X010669Y025382D02*
X006851Y025382D01*
X008303Y026174D02*
X014376Y026174D01*
X014263Y026333D02*
X008658Y026333D01*
X009071Y026491D02*
X014213Y026491D01*
X014213Y026650D02*
X009484Y026650D01*
X009940Y026808D02*
X014273Y026808D01*
X014401Y026967D02*
X010531Y026967D01*
X011123Y027125D02*
X015028Y027125D01*
X015111Y027284D02*
X012099Y027284D01*
X011626Y025223D02*
X014233Y025223D01*
X014304Y025065D02*
X011785Y025065D01*
X011462Y023638D02*
X011439Y023638D01*
X011378Y023163D02*
X010844Y023163D01*
X010697Y023163D02*
X008040Y023163D01*
X008040Y023004D02*
X011536Y023004D01*
X011695Y022846D02*
X008040Y022846D01*
X008040Y022687D02*
X011853Y022687D01*
X011959Y022529D02*
X008040Y022529D01*
X008040Y022370D02*
X011959Y022370D01*
X011959Y022212D02*
X008040Y022212D01*
X008040Y022053D02*
X011959Y022053D01*
X011959Y021895D02*
X008049Y021895D01*
X008332Y021736D02*
X011959Y021736D01*
X011959Y021578D02*
X008466Y021578D01*
X008531Y021419D02*
X011959Y021419D01*
X011959Y021261D02*
X008550Y021261D01*
X008546Y021102D02*
X012021Y021102D01*
X012179Y020944D02*
X008480Y020944D01*
X009634Y020863D02*
X009634Y020863D01*
X009822Y020785D02*
X012293Y020785D01*
X012325Y020627D02*
X010176Y020627D01*
X010142Y020653D02*
X010142Y020653D01*
X010382Y020468D02*
X012494Y020468D01*
X012558Y021102D02*
X013941Y021102D01*
X013780Y021261D02*
X012400Y021261D01*
X012339Y021419D02*
X013750Y021419D01*
X013796Y021578D02*
X012339Y021578D01*
X012339Y021736D02*
X013927Y021736D01*
X013927Y021895D02*
X012339Y021895D01*
X012339Y022053D02*
X013818Y022053D01*
X013789Y022212D02*
X012339Y022212D01*
X012339Y022370D02*
X013837Y022370D01*
X013927Y022529D02*
X012339Y022529D01*
X012339Y022687D02*
X013927Y022687D01*
X013861Y022846D02*
X012232Y022846D01*
X012073Y023004D02*
X013789Y023004D01*
X013807Y023163D02*
X011915Y023163D01*
X012041Y023321D02*
X013920Y023321D01*
X014747Y023330D02*
X014747Y024196D01*
X015075Y023321D02*
X017846Y023321D01*
X017854Y023163D02*
X015033Y023163D01*
X016630Y023955D02*
X017018Y023955D01*
X016978Y024114D02*
X016630Y024114D01*
X016630Y024272D02*
X017015Y024272D01*
X017154Y024431D02*
X016630Y024431D01*
X016779Y024589D02*
X017069Y024589D01*
X015970Y025223D02*
X015261Y025223D01*
X018730Y025540D02*
X018740Y025540D01*
X018934Y025065D02*
X019423Y025065D01*
X019607Y024906D02*
X018934Y024906D01*
X020227Y024589D02*
X020685Y024589D01*
X020566Y024431D02*
X020345Y024431D01*
X020399Y024272D02*
X020512Y024272D01*
X020512Y024114D02*
X020399Y024114D01*
X020343Y023955D02*
X020568Y023955D01*
X020424Y023797D02*
X020221Y023797D01*
X018097Y020785D02*
X015390Y020785D01*
X015303Y020627D02*
X017743Y020627D01*
X017777Y020653D02*
X017777Y020653D01*
X020528Y017615D02*
X022481Y017615D01*
X022492Y017589D02*
X022743Y017338D01*
X023070Y017202D01*
X024927Y017202D01*
X025255Y017338D01*
X025506Y017589D01*
X025636Y017903D01*
X025665Y017903D01*
X025712Y017791D01*
X025862Y017641D01*
X026058Y017560D01*
X026270Y017560D01*
X026467Y017641D01*
X026617Y017791D01*
X026698Y017987D01*
X026698Y018200D01*
X026617Y018396D01*
X026467Y018546D01*
X026270Y018627D01*
X026058Y018627D01*
X025862Y018546D01*
X025712Y018396D01*
X025665Y018283D01*
X025636Y018283D01*
X025506Y018598D01*
X025255Y018849D01*
X024927Y018985D01*
X023070Y018985D01*
X022743Y018849D01*
X022492Y018598D01*
X022357Y018271D01*
X022357Y017916D01*
X022492Y017589D01*
X022624Y017457D02*
X020407Y017457D01*
X020262Y017298D02*
X022839Y017298D01*
X022416Y017774D02*
X020650Y017774D01*
X020653Y017777D02*
X020653Y017777D01*
X020717Y017932D02*
X022357Y017932D01*
X022357Y018091D02*
X020782Y018091D01*
X020848Y018249D02*
X022357Y018249D01*
X022413Y018408D02*
X020879Y018408D01*
X020863Y018285D02*
X020863Y018285D01*
X020900Y018566D02*
X022479Y018566D01*
X022619Y018725D02*
X020921Y018725D01*
X020927Y018883D02*
X022825Y018883D01*
X020907Y019042D02*
X026417Y019042D01*
X026356Y019200D02*
X025030Y019200D01*
X025040Y019359D02*
X026295Y019359D01*
X026224Y019517D02*
X025040Y019517D01*
X025040Y019676D02*
X026144Y019676D01*
X026063Y019834D02*
X025040Y019834D01*
X025040Y019993D02*
X025982Y019993D01*
X025901Y020151D02*
X025040Y020151D01*
X025040Y020310D02*
X025821Y020310D01*
X025740Y020468D02*
X025040Y020468D01*
X025040Y020627D02*
X025659Y020627D01*
X025566Y020785D02*
X025040Y020785D01*
X025040Y020944D02*
X025463Y020944D01*
X025360Y021102D02*
X025040Y021102D01*
X025040Y021261D02*
X025257Y021261D01*
X025154Y021419D02*
X025040Y021419D01*
X025040Y021578D02*
X025051Y021578D01*
X025172Y018883D02*
X026478Y018883D01*
X026538Y018725D02*
X025379Y018725D01*
X025519Y018566D02*
X025911Y018566D01*
X025724Y018408D02*
X025585Y018408D01*
X025582Y017774D02*
X025729Y017774D01*
X025924Y017615D02*
X025517Y017615D01*
X025374Y017457D02*
X026948Y017457D01*
X026906Y017615D02*
X026404Y017615D01*
X026599Y017774D02*
X026863Y017774D01*
X026821Y017932D02*
X026675Y017932D01*
X026698Y018091D02*
X026778Y018091D01*
X026721Y018249D02*
X026677Y018249D01*
X026660Y018408D02*
X026605Y018408D01*
X026599Y018566D02*
X026418Y018566D01*
X026991Y017298D02*
X025159Y017298D01*
X027033Y017140D02*
X020055Y017140D01*
X019882Y017007D02*
X019882Y017007D01*
X019820Y016981D02*
X027075Y016981D01*
X027118Y016823D02*
X019438Y016823D01*
X018830Y016725D02*
X018830Y016725D01*
X020343Y016664D02*
X020498Y016664D01*
X020498Y016506D02*
X020343Y016506D01*
X020343Y016347D02*
X020498Y016347D01*
X020498Y016189D02*
X020343Y016189D01*
X020343Y015872D02*
X020498Y015872D01*
X020498Y015713D02*
X020343Y015713D01*
X020343Y015555D02*
X020498Y015555D01*
X020498Y015396D02*
X020343Y015396D01*
X021191Y014445D02*
X023691Y014445D01*
X023698Y014450D02*
X023625Y014397D01*
X023561Y014333D01*
X023508Y014260D01*
X023467Y014180D01*
X023439Y014094D01*
X023431Y014040D01*
X023919Y014040D01*
X023919Y014528D01*
X023865Y014519D01*
X023779Y014491D01*
X023698Y014450D01*
X023919Y014445D02*
X024079Y014445D01*
X024079Y014528D02*
X024079Y014040D01*
X023919Y014040D01*
X023919Y013880D01*
X023431Y013880D01*
X023439Y013825D01*
X023467Y013739D01*
X023508Y013659D01*
X023561Y013586D01*
X023625Y013522D01*
X023698Y013469D01*
X023779Y013428D01*
X023865Y013400D01*
X023919Y013391D01*
X023919Y013880D01*
X024079Y013880D01*
X024079Y014040D01*
X024567Y014040D01*
X024558Y014094D01*
X024531Y014180D01*
X024490Y014260D01*
X024436Y014333D01*
X024373Y014397D01*
X024300Y014450D01*
X024219Y014491D01*
X024133Y014519D01*
X024079Y014528D01*
X024079Y014287D02*
X023919Y014287D01*
X023919Y014128D02*
X024079Y014128D01*
X024079Y013970D02*
X027429Y013970D01*
X027420Y014128D02*
X024547Y014128D01*
X024470Y014287D02*
X027412Y014287D01*
X027404Y014445D02*
X024307Y014445D01*
X024079Y013880D02*
X024567Y013880D01*
X024558Y013825D01*
X024531Y013739D01*
X024490Y013659D01*
X024436Y013586D01*
X024373Y013522D01*
X024300Y013469D01*
X024219Y013428D01*
X024133Y013400D01*
X024079Y013391D01*
X024079Y013880D01*
X024079Y013811D02*
X023919Y013811D01*
X023919Y013653D02*
X024079Y013653D01*
X024079Y013494D02*
X023919Y013494D01*
X023664Y013494D02*
X021211Y013494D01*
X021346Y013653D02*
X023513Y013653D01*
X023444Y013811D02*
X021411Y013811D01*
X021422Y013970D02*
X023919Y013970D01*
X023450Y014128D02*
X021403Y014128D01*
X021337Y014287D02*
X023527Y014287D01*
X024334Y013494D02*
X027405Y013494D01*
X027413Y013653D02*
X024485Y013653D01*
X024554Y013811D02*
X027421Y013811D01*
X027329Y012385D02*
X024417Y012385D01*
X024523Y012226D02*
X027304Y012226D01*
X027279Y012068D02*
X024079Y012068D01*
X024079Y012071D02*
X024079Y011911D01*
X024567Y011911D01*
X024558Y011857D01*
X024531Y011771D01*
X024490Y011690D01*
X024436Y011617D01*
X024373Y011553D01*
X024300Y011500D01*
X024219Y011459D01*
X024133Y011431D01*
X024079Y011423D01*
X024079Y011911D01*
X023919Y011911D01*
X023919Y011423D01*
X023865Y011431D01*
X023779Y011459D01*
X023698Y011500D01*
X023625Y011553D01*
X023561Y011617D01*
X023508Y011690D01*
X023467Y011771D01*
X023439Y011857D01*
X023431Y011911D01*
X023919Y011911D01*
X023919Y012071D01*
X024079Y012071D01*
X024079Y012226D02*
X023919Y012226D01*
X023919Y012068D02*
X021955Y012068D01*
X021977Y011909D02*
X023431Y011909D01*
X023478Y011751D02*
X021969Y011751D01*
X021903Y011592D02*
X023587Y011592D01*
X023858Y011434D02*
X021772Y011434D01*
X021494Y011117D02*
X027123Y011117D01*
X027153Y011275D02*
X021318Y011275D01*
X021562Y010958D02*
X027081Y010958D01*
X027038Y010800D02*
X021580Y010800D01*
X021554Y010641D02*
X022887Y010641D01*
X022644Y010483D02*
X021474Y010483D01*
X021268Y010324D02*
X022490Y010324D01*
X023919Y011434D02*
X024079Y011434D01*
X024140Y011434D02*
X027178Y011434D01*
X027203Y011592D02*
X024411Y011592D01*
X024520Y011751D02*
X027228Y011751D01*
X027253Y011909D02*
X024567Y011909D01*
X024079Y011909D02*
X023919Y011909D01*
X023919Y011751D02*
X024079Y011751D01*
X024079Y011592D02*
X023919Y011592D01*
X023475Y012226D02*
X021890Y012226D01*
X021739Y012385D02*
X023581Y012385D01*
X023919Y012385D02*
X024079Y012385D01*
X025110Y010641D02*
X026996Y010641D01*
X026953Y010483D02*
X025354Y010483D01*
X025508Y010324D02*
X025973Y010324D01*
X025749Y010166D02*
X025574Y010166D01*
X025593Y009532D02*
X025708Y009532D01*
X025862Y009373D02*
X025527Y009373D01*
X025399Y009215D02*
X026546Y009215D01*
X026607Y009373D02*
X026466Y009373D01*
X026620Y009532D02*
X026668Y009532D01*
X026686Y009690D02*
X026729Y009690D01*
X026698Y009849D02*
X026784Y009849D01*
X026826Y010007D02*
X026667Y010007D01*
X026579Y010166D02*
X026868Y010166D01*
X026911Y010324D02*
X026356Y010324D01*
X026485Y009056D02*
X025221Y009056D01*
X019880Y006679D02*
X016620Y006679D01*
X016450Y007313D02*
X015456Y007313D01*
X017053Y007630D02*
X017319Y007630D01*
X017153Y007471D02*
X017511Y007471D01*
X017717Y007313D02*
X017159Y007313D01*
X017777Y007267D02*
X017777Y007267D01*
X016762Y009373D02*
X015282Y009373D01*
X015725Y009532D02*
X016783Y009532D01*
X016796Y009634D02*
X016796Y009634D01*
X016819Y009690D02*
X016096Y009690D01*
X016227Y009746D02*
X016227Y009746D01*
X016382Y009849D02*
X016885Y009849D01*
X016951Y010007D02*
X016623Y010007D01*
X016863Y010166D02*
X017025Y010166D01*
X017007Y010142D02*
X017007Y010142D01*
X016943Y010218D02*
X016943Y010218D01*
X017053Y010324D02*
X017146Y010324D01*
X017219Y010483D02*
X017268Y010483D01*
X017341Y010578D02*
X017341Y010578D01*
X017341Y010578D01*
X017385Y010641D02*
X017423Y010641D01*
X017551Y010800D02*
X017630Y010800D01*
X017670Y010958D02*
X017887Y010958D01*
X017777Y010913D02*
X017777Y010913D01*
X017785Y011117D02*
X018020Y011117D01*
X018020Y011275D02*
X017900Y011275D01*
X018015Y011434D02*
X018075Y011434D01*
X018067Y011505D02*
X018067Y011505D01*
X018109Y011592D02*
X018140Y011592D01*
X018185Y011751D02*
X018284Y011751D01*
X018262Y011909D02*
X018514Y011909D01*
X018556Y012702D02*
X018819Y012702D01*
X018635Y012860D02*
X018600Y012860D01*
X018717Y013653D02*
X018843Y013653D01*
X021506Y016664D02*
X027150Y016664D01*
X027175Y016506D02*
X021809Y016506D01*
X021933Y016347D02*
X027200Y016347D01*
X027225Y016189D02*
X021997Y016189D01*
X014602Y009218D02*
X014602Y009218D01*
X012895Y009294D02*
X012895Y009294D01*
X008674Y011909D02*
X006167Y011909D01*
X006008Y011751D02*
X008444Y011751D01*
X008300Y011592D02*
X005850Y011592D01*
X005827Y011569D02*
X005827Y011569D01*
X005611Y011434D02*
X008235Y011434D01*
X008180Y011275D02*
X006259Y011275D01*
X006601Y011117D02*
X008180Y011117D01*
X008147Y010958D02*
X006760Y010958D01*
X006858Y010800D02*
X007890Y010800D01*
X007683Y010641D02*
X006923Y010641D01*
X006945Y010483D02*
X007528Y010483D01*
X007601Y010578D02*
X007601Y010578D01*
X007406Y010324D02*
X006945Y010324D01*
X006912Y010166D02*
X007285Y010166D01*
X007211Y010007D02*
X006847Y010007D01*
X006734Y009849D02*
X007145Y009849D01*
X007079Y009690D02*
X006575Y009690D01*
X007056Y009634D02*
X007056Y009634D01*
X005570Y011117D02*
X004995Y011117D01*
X005359Y011275D02*
X005912Y011275D01*
X005411Y010958D02*
X004419Y010958D01*
X004601Y010978D02*
X004601Y010978D01*
X003920Y010902D02*
X003920Y010902D01*
X002909Y008739D02*
X001975Y008739D01*
X002043Y008581D02*
X002880Y008581D01*
X002880Y008422D02*
X002124Y008422D01*
X002205Y008264D02*
X002880Y008264D01*
X002880Y008105D02*
X002286Y008105D01*
X002366Y007947D02*
X002880Y007947D01*
X002880Y007788D02*
X002447Y007788D01*
X002528Y007630D02*
X002880Y007630D01*
X002880Y007471D02*
X002609Y007471D01*
X002701Y007313D02*
X002880Y007313D01*
X002880Y007154D02*
X002798Y007154D01*
X003920Y017017D02*
X003920Y017017D01*
X002889Y019200D02*
X001982Y019200D01*
X002053Y019359D02*
X002880Y019359D01*
X002880Y019517D02*
X002134Y019517D01*
X002215Y019676D02*
X002880Y019676D01*
X002880Y019834D02*
X002296Y019834D01*
X002376Y019993D02*
X002880Y019993D01*
X002880Y020151D02*
X002457Y020151D01*
X002538Y020310D02*
X002880Y020310D01*
X002880Y020468D02*
X002619Y020468D01*
X002713Y020627D02*
X002880Y020627D01*
X002880Y020785D02*
X002810Y020785D01*
X007995Y023321D02*
X010484Y023321D01*
X013826Y000497D02*
X014093Y000497D01*
D22*
X011991Y001755D02*
X011479Y001755D01*
X011204Y002030D01*
X010416Y004117D02*
X010141Y004117D01*
X009708Y004550D01*
X019078Y013172D02*
X019865Y013960D01*
X020420Y011893D02*
X021046Y011267D01*
X021046Y010810D01*
X023999Y009826D02*
X026164Y009826D01*
X026164Y018093D02*
X023999Y018093D01*
X019471Y021952D02*
X019471Y023211D01*
X019471Y023802D01*
X019865Y024196D01*
X020534Y023487D02*
X021046Y023999D01*
X021046Y024196D01*
X019865Y025377D02*
X018845Y025377D01*
X018424Y024956D01*
X017822Y024353D01*
X017345Y024353D01*
X017306Y024314D01*
X017306Y024117D01*
X017975Y023605D02*
X016597Y023605D01*
X016440Y023763D01*
X016440Y024940D01*
X016424Y024956D01*
X015168Y024956D01*
X014747Y025377D01*
X015849Y025456D02*
X014747Y026558D01*
X015534Y026952D02*
X016428Y026952D01*
X017424Y025956D01*
X016924Y025456D02*
X017424Y024956D01*
X016924Y025456D02*
X015849Y025456D01*
X017975Y023605D02*
X018172Y023408D01*
X018172Y023251D01*
X018755Y023345D02*
X018755Y023144D01*
X015259Y022227D02*
X015062Y022030D01*
X015062Y020849D01*
X014117Y021440D02*
X014117Y022188D01*
X014117Y023054D01*
X014117Y021440D02*
X014078Y021400D01*
X012621Y020771D02*
X012149Y021243D01*
X012149Y022660D01*
X011322Y023487D01*
X010771Y023487D01*
X011755Y023487D02*
X011755Y024826D01*
X011479Y025101D01*
X010849Y025101D01*
D23*
X014747Y023330D02*
X014747Y021243D01*
X014749Y021241D01*
D24*
X002739Y021243D02*
X002564Y020966D01*
X002396Y020685D01*
X002235Y020400D01*
X002080Y020111D01*
X001933Y019818D01*
X001793Y019522D01*
X001661Y019222D01*
X001535Y018919D01*
X001418Y018613D01*
X001307Y018304D01*
X001205Y017993D01*
X001110Y017680D01*
X001022Y017364D01*
X000943Y017046D01*
X000871Y016726D01*
X000807Y016404D01*
X000751Y016081D01*
X000703Y015757D01*
X000663Y015432D01*
X000631Y015106D01*
X000607Y014779D01*
X000591Y014452D01*
X000583Y014124D01*
X000583Y013796D01*
X000591Y013468D01*
X000607Y013141D01*
X000631Y012814D01*
X000663Y012488D01*
X000703Y012163D01*
X000751Y011839D01*
X000807Y011516D01*
X000871Y011194D01*
X000943Y010874D01*
X001022Y010556D01*
X001110Y010240D01*
X001205Y009927D01*
X001307Y009616D01*
X001418Y009307D01*
X001535Y009001D01*
X001661Y008698D01*
X001793Y008398D01*
X001933Y008102D01*
X002080Y007809D01*
X002235Y007520D01*
X002396Y007235D01*
X002564Y006954D01*
X002739Y006677D01*
X002739Y006676D02*
X004360Y006676D01*
X007360Y006676D01*
X007360Y021243D02*
X004360Y021243D01*
X002739Y021243D01*
M02*
