G75*
%MOIN*%
%OFA0B0*%
%FSLAX24Y24*%
%IPPOS*%
%LPD*%
%AMOC8*
5,1,8,0,0,1.08239X$1,22.5*
%
%ADD10C,0.0105*%
%ADD11R,0.0134X0.0134*%
%ADD12R,0.0226X0.0231*%
%ADD13R,0.0225X0.0241*%
%ADD14R,0.0239X0.0240*%
%ADD15R,0.0242X0.0234*%
%ADD16R,0.0157X0.0630*%
%ADD17R,0.0744X0.0618*%
%ADD18R,0.0276X0.0354*%
%ADD19R,0.0354X0.0276*%
%ADD20R,0.0870X0.0240*%
%ADD21R,0.0315X0.0315*%
%ADD22R,0.0472X0.0315*%
%ADD23R,0.0512X0.0591*%
%ADD24R,0.0394X0.0551*%
%ADD25R,0.0315X0.0472*%
%ADD26R,0.0394X0.1811*%
%ADD27R,0.0630X0.1339*%
%ADD28R,0.0610X0.0512*%
%ADD29R,0.1024X0.0394*%
%ADD30R,0.0512X0.0748*%
%ADD31R,0.0433X0.0394*%
%ADD32R,0.0354X0.0315*%
D10*
X010472Y021988D02*
X010478Y021988D01*
X010472Y021988D02*
X010472Y022124D01*
X010478Y022124D01*
X010478Y021988D01*
X010478Y022092D02*
X010472Y022092D01*
X010669Y021988D02*
X010675Y021988D01*
X010669Y021988D02*
X010669Y022124D01*
X010675Y022124D01*
X010675Y021988D01*
X010675Y022092D02*
X010669Y022092D01*
X010866Y021988D02*
X010872Y021988D01*
X010866Y021988D02*
X010866Y022124D01*
X010872Y022124D01*
X010872Y021988D01*
X010872Y022092D02*
X010866Y022092D01*
X011063Y021988D02*
X011069Y021988D01*
X011063Y021988D02*
X011063Y022124D01*
X011069Y022124D01*
X011069Y021988D01*
X011069Y022092D02*
X011063Y022092D01*
X011228Y022283D02*
X011228Y022289D01*
X011364Y022289D01*
X011364Y022283D01*
X011228Y022283D01*
X011228Y022480D02*
X011228Y022486D01*
X011364Y022486D01*
X011364Y022480D01*
X011228Y022480D01*
X011228Y022677D02*
X011228Y022683D01*
X011364Y022683D01*
X011364Y022677D01*
X011228Y022677D01*
X011228Y022874D02*
X011228Y022880D01*
X011364Y022880D01*
X011364Y022874D01*
X011228Y022874D01*
X011069Y023175D02*
X011063Y023175D01*
X011069Y023175D02*
X011069Y023039D01*
X011063Y023039D01*
X011063Y023175D01*
X011069Y023143D02*
X011063Y023143D01*
X010872Y023175D02*
X010866Y023175D01*
X010872Y023175D02*
X010872Y023039D01*
X010866Y023039D01*
X010866Y023175D01*
X010872Y023143D02*
X010866Y023143D01*
X010675Y023175D02*
X010669Y023175D01*
X010675Y023175D02*
X010675Y023039D01*
X010669Y023039D01*
X010669Y023175D01*
X010675Y023143D02*
X010669Y023143D01*
X010478Y023175D02*
X010472Y023175D01*
X010478Y023175D02*
X010478Y023039D01*
X010472Y023039D01*
X010472Y023175D01*
X010478Y023143D02*
X010472Y023143D01*
X010313Y022880D02*
X010313Y022874D01*
X010177Y022874D01*
X010177Y022880D01*
X010313Y022880D01*
X010313Y022683D02*
X010313Y022677D01*
X010177Y022677D01*
X010177Y022683D01*
X010313Y022683D01*
X010313Y022486D02*
X010313Y022480D01*
X010177Y022480D01*
X010177Y022486D01*
X010313Y022486D01*
X010313Y022289D02*
X010313Y022283D01*
X010177Y022283D01*
X010177Y022289D01*
X010313Y022289D01*
D11*
X010273Y022080D03*
X011269Y022084D03*
X011269Y023080D03*
X010273Y023080D03*
D12*
X010618Y022422D03*
D13*
X010617Y022721D03*
D14*
X010918Y022720D03*
D15*
X010916Y022426D03*
D16*
X013576Y004353D03*
X013832Y004353D03*
X014087Y004353D03*
X014343Y004353D03*
X014343Y002700D03*
X014087Y002700D03*
X013832Y002700D03*
X013576Y002700D03*
D17*
X013960Y003526D03*
D18*
X015200Y004708D03*
X015200Y005180D03*
X015711Y005180D03*
X015711Y004708D03*
X015711Y005692D03*
X015200Y005692D03*
X015278Y003172D03*
X015790Y003172D03*
X015790Y002700D03*
X015278Y002700D03*
X015278Y002030D03*
X015790Y002030D03*
X014609Y002030D03*
X014097Y002030D03*
X015869Y020613D03*
X016381Y020613D03*
X018428Y020652D03*
X018940Y020652D03*
X013664Y020771D03*
X013152Y020771D03*
X013113Y021715D03*
X013231Y022188D03*
X012719Y022188D03*
X012837Y022621D03*
X012837Y023054D03*
X012837Y023487D03*
X012326Y023487D03*
X012326Y023054D03*
X012326Y022621D03*
X012404Y021715D03*
X011893Y021715D03*
X012050Y021243D03*
X012050Y020771D03*
X011538Y020771D03*
X011538Y021243D03*
X010239Y021125D03*
X010239Y021597D03*
X009727Y021597D03*
X009727Y021125D03*
X009727Y020652D03*
X010239Y020652D03*
X009649Y022857D03*
X009137Y022857D03*
X009885Y024156D03*
X010397Y024156D03*
X011105Y024156D03*
X011617Y024156D03*
X012326Y024117D03*
X012837Y024117D03*
X013625Y021715D03*
D19*
X009274Y023782D03*
X008841Y023782D03*
X008841Y024294D03*
X009274Y024294D03*
X024589Y020121D03*
X024589Y019609D03*
X013015Y003822D03*
X013015Y003310D03*
X011952Y003310D03*
X011952Y003822D03*
D20*
X016104Y021241D03*
X016104Y021741D03*
X016104Y022241D03*
X016104Y022741D03*
X018754Y022741D03*
X018754Y022241D03*
X018754Y021741D03*
X018754Y021241D03*
D21*
X025377Y020160D03*
X025377Y019570D03*
D22*
X008920Y020889D03*
X008920Y021597D03*
D23*
X012286Y007109D03*
X012956Y007109D03*
D24*
G36*
X006807Y017055D02*
X007085Y017333D01*
X007473Y016945D01*
X007195Y016667D01*
X006807Y017055D01*
G37*
G36*
X005930Y017403D02*
X006208Y017681D01*
X006596Y017293D01*
X006318Y017015D01*
X005930Y017403D01*
G37*
G36*
X006459Y017932D02*
X006737Y018210D01*
X007125Y017822D01*
X006847Y017544D01*
X006459Y017932D01*
G37*
D25*
X012188Y005495D03*
X012897Y005495D03*
X012897Y004629D03*
X012188Y004629D03*
D26*
X010101Y002424D03*
X009314Y002424D03*
D27*
X008369Y004471D03*
X011046Y004471D03*
D28*
G36*
X021844Y021755D02*
X021345Y022105D01*
X021638Y022523D01*
X022137Y022173D01*
X021844Y021755D01*
G37*
G36*
X022860Y023207D02*
X022361Y023557D01*
X022654Y023975D01*
X023153Y023625D01*
X022860Y023207D01*
G37*
G36*
X020297Y025002D02*
X019798Y025352D01*
X020091Y025770D01*
X020590Y025420D01*
X020297Y025002D01*
G37*
G36*
X019280Y023551D02*
X018781Y023901D01*
X019074Y024319D01*
X019573Y023969D01*
X019280Y023551D01*
G37*
D29*
X018802Y005692D03*
X016991Y005692D03*
D30*
X011971Y024826D03*
X011971Y026086D03*
X009806Y026086D03*
X009806Y024826D03*
D31*
X017011Y020613D03*
X017680Y020613D03*
X015869Y004038D03*
X015200Y004038D03*
X012956Y002542D03*
X012286Y002542D03*
D32*
X023172Y007798D03*
X023999Y008172D03*
X023172Y008546D03*
M02*
