G75*
%MOIN*%
%OFA0B0*%
%FSLAX24Y24*%
%IPPOS*%
%LPD*%
%AMOC8*
5,1,8,0,0,1.08239X$1,22.5*
%
%ADD10C,0.0080*%
%ADD11C,0.0040*%
%ADD12C,0.0006*%
%ADD13C,0.0060*%
%ADD14C,0.0100*%
%ADD15C,0.0039*%
%ADD16R,0.0089X0.0098*%
%ADD17C,0.0050*%
%ADD18C,0.0070*%
%ADD19C,0.0030*%
D10*
X018057Y021281D02*
X018059Y021296D01*
X018065Y021309D01*
X018074Y021321D01*
X018085Y021330D01*
X018099Y021336D01*
X018114Y021338D01*
X018129Y021336D01*
X018142Y021330D01*
X018154Y021321D01*
X018163Y021310D01*
X018169Y021296D01*
X018171Y021281D01*
X018169Y021266D01*
X018163Y021253D01*
X018154Y021241D01*
X018143Y021232D01*
X018129Y021226D01*
X018114Y021224D01*
X018099Y021226D01*
X018086Y021232D01*
X018074Y021241D01*
X018065Y021252D01*
X018059Y021266D01*
X018057Y021281D01*
X011420Y021932D02*
X011420Y022149D01*
X011420Y021932D02*
X011204Y021932D01*
X010337Y021932D02*
X010121Y022149D01*
X010121Y023015D02*
X010121Y023231D01*
X010337Y023231D01*
X011204Y023231D02*
X011420Y023231D01*
X011420Y023015D01*
X023526Y008723D02*
X023841Y008723D01*
X023841Y008487D01*
X023841Y007857D02*
X023841Y007621D01*
X023526Y007621D01*
D11*
X016825Y004160D02*
X016825Y004127D01*
X016791Y004093D01*
X016725Y004093D01*
X016691Y004127D01*
X016691Y004160D01*
X016725Y004193D01*
X016791Y004193D01*
X016825Y004160D01*
X016791Y004093D02*
X016825Y004060D01*
X016825Y004027D01*
X016791Y003993D01*
X016725Y003993D01*
X016691Y004027D01*
X016691Y004060D01*
X016725Y004093D01*
X016604Y003993D02*
X016470Y003993D01*
X016537Y003993D02*
X016537Y004193D01*
X016470Y004127D01*
X016383Y004160D02*
X016349Y004193D01*
X016283Y004193D01*
X016249Y004160D01*
X016249Y004027D01*
X016283Y003993D01*
X016349Y003993D01*
X016383Y004027D01*
X016369Y004541D02*
X016369Y004741D01*
X016302Y004674D01*
X016215Y004708D02*
X016181Y004741D01*
X016114Y004741D01*
X016081Y004708D01*
X016081Y004574D01*
X016114Y004541D01*
X016181Y004541D01*
X016215Y004574D01*
X016302Y004541D02*
X016436Y004541D01*
X016523Y004574D02*
X016556Y004541D01*
X016623Y004541D01*
X016657Y004574D01*
X016657Y004708D01*
X016623Y004741D01*
X016556Y004741D01*
X016523Y004708D01*
X016523Y004674D01*
X016556Y004641D01*
X016657Y004641D01*
X016494Y005135D02*
X016494Y005168D01*
X016628Y005302D01*
X016628Y005335D01*
X016494Y005335D01*
X016340Y005335D02*
X016340Y005135D01*
X016273Y005135D02*
X016407Y005135D01*
X016273Y005268D02*
X016340Y005335D01*
X016186Y005302D02*
X016152Y005335D01*
X016086Y005335D01*
X016052Y005302D01*
X016052Y005168D01*
X016086Y005135D01*
X016152Y005135D01*
X016186Y005168D01*
X014821Y004306D02*
X014621Y004306D01*
X014621Y004406D01*
X014654Y004439D01*
X014721Y004439D01*
X014755Y004406D01*
X014755Y004306D01*
X014821Y004218D02*
X014621Y004218D01*
X014688Y004152D01*
X014621Y004085D01*
X014821Y004085D01*
X014821Y003997D02*
X014688Y003997D01*
X014621Y003931D01*
X014688Y003864D01*
X014821Y003864D01*
X014721Y003864D02*
X014721Y003997D01*
X014622Y005566D02*
X014555Y005566D01*
X014522Y005599D01*
X014434Y005566D02*
X014301Y005566D01*
X014301Y005766D01*
X014522Y005732D02*
X014555Y005766D01*
X014622Y005766D01*
X014655Y005732D01*
X014655Y005699D01*
X014622Y005666D01*
X014655Y005632D01*
X014655Y005599D01*
X014622Y005566D01*
X014622Y005666D02*
X014589Y005666D01*
X012533Y006442D02*
X012500Y006409D01*
X012433Y006409D01*
X012400Y006442D01*
X012533Y006575D01*
X012533Y006442D01*
X012400Y006442D02*
X012400Y006575D01*
X012433Y006609D01*
X012500Y006609D01*
X012533Y006575D01*
X012312Y006409D02*
X012179Y006409D01*
X012246Y006409D02*
X012246Y006609D01*
X012179Y006542D01*
X012091Y006509D02*
X012058Y006475D01*
X011958Y006475D01*
X011958Y006409D02*
X011958Y006609D01*
X012058Y006609D01*
X012091Y006575D01*
X012091Y006509D01*
X012025Y006475D02*
X012091Y006409D01*
X011909Y005566D02*
X011843Y005566D01*
X011809Y005532D01*
X011722Y005532D02*
X011722Y005499D01*
X011688Y005465D01*
X011588Y005465D01*
X011588Y005365D02*
X011688Y005365D01*
X011722Y005399D01*
X011722Y005432D01*
X011688Y005465D01*
X011722Y005532D02*
X011688Y005566D01*
X011588Y005566D01*
X011588Y005365D01*
X011434Y005465D02*
X011367Y005465D01*
X011367Y005365D02*
X011367Y005566D01*
X011501Y005566D01*
X011809Y005365D02*
X011943Y005499D01*
X011943Y005532D01*
X011909Y005566D01*
X011943Y005365D02*
X011809Y005365D01*
X011843Y004640D02*
X011909Y004640D01*
X011943Y004607D01*
X011943Y004574D01*
X011909Y004540D01*
X011943Y004507D01*
X011943Y004474D01*
X011909Y004440D01*
X011843Y004440D01*
X011809Y004474D01*
X011722Y004474D02*
X011688Y004440D01*
X011588Y004440D01*
X011588Y004640D01*
X011688Y004640D01*
X011722Y004607D01*
X011722Y004574D01*
X011688Y004540D01*
X011588Y004540D01*
X011688Y004540D02*
X011722Y004507D01*
X011722Y004474D01*
X011809Y004607D02*
X011843Y004640D01*
X011876Y004540D02*
X011909Y004540D01*
X011501Y004640D02*
X011367Y004640D01*
X011367Y004440D01*
X011367Y004540D02*
X011434Y004540D01*
X012232Y003447D02*
X012332Y003447D01*
X012365Y003414D01*
X012365Y003347D01*
X012332Y003314D01*
X012232Y003314D01*
X012299Y003314D02*
X012365Y003247D01*
X012453Y003247D02*
X012586Y003247D01*
X012520Y003247D02*
X012520Y003447D01*
X012453Y003380D01*
X012674Y003414D02*
X012707Y003447D01*
X012774Y003447D01*
X012807Y003414D01*
X012807Y003380D01*
X012674Y003247D01*
X012807Y003247D01*
X012232Y003247D02*
X012232Y003447D01*
X011938Y002930D02*
X011971Y002897D01*
X011838Y002763D01*
X011871Y002730D01*
X011938Y002730D01*
X011971Y002763D01*
X011971Y002897D01*
X011938Y002930D02*
X011871Y002930D01*
X011838Y002897D01*
X011838Y002763D01*
X011750Y002730D02*
X011617Y002730D01*
X011750Y002863D01*
X011750Y002897D01*
X011717Y002930D01*
X011650Y002930D01*
X011617Y002897D01*
X011530Y002897D02*
X011496Y002930D01*
X011429Y002930D01*
X011396Y002897D01*
X011396Y002763D01*
X011429Y002730D01*
X011496Y002730D01*
X011530Y002763D01*
X012031Y002067D02*
X011997Y002034D01*
X011997Y001901D01*
X012031Y001867D01*
X012097Y001867D01*
X012131Y001901D01*
X012218Y001867D02*
X012352Y001867D01*
X012285Y001867D02*
X012285Y002067D01*
X012218Y002001D01*
X012131Y002034D02*
X012097Y002067D01*
X012031Y002067D01*
X012439Y002067D02*
X012439Y001967D01*
X012506Y002001D01*
X012539Y002001D01*
X012573Y001967D01*
X012573Y001901D01*
X012539Y001867D01*
X012473Y001867D01*
X012439Y001901D01*
X012439Y002067D02*
X012573Y002067D01*
X013846Y001734D02*
X013846Y001534D01*
X013846Y001601D02*
X013946Y001601D01*
X013980Y001634D01*
X013980Y001701D01*
X013946Y001734D01*
X013846Y001734D01*
X013913Y001601D02*
X013980Y001534D01*
X014067Y001534D02*
X014200Y001534D01*
X014134Y001534D02*
X014134Y001734D01*
X014067Y001668D01*
X014288Y001668D02*
X014355Y001734D01*
X014355Y001534D01*
X014421Y001534D02*
X014288Y001534D01*
X015185Y001577D02*
X015218Y001543D01*
X015285Y001543D01*
X015318Y001577D01*
X015406Y001543D02*
X015539Y001543D01*
X015472Y001543D02*
X015472Y001743D01*
X015406Y001677D01*
X015318Y001710D02*
X015285Y001743D01*
X015218Y001743D01*
X015185Y001710D01*
X015185Y001577D01*
X015627Y001577D02*
X015660Y001543D01*
X015727Y001543D01*
X015760Y001577D01*
X015760Y001610D01*
X015727Y001643D01*
X015693Y001643D01*
X015727Y001643D02*
X015760Y001677D01*
X015760Y001710D01*
X015727Y001743D01*
X015660Y001743D01*
X015627Y001710D01*
X016267Y002597D02*
X016267Y002797D01*
X016367Y002797D01*
X016401Y002764D01*
X016401Y002697D01*
X016367Y002664D01*
X016267Y002664D01*
X016334Y002664D02*
X016401Y002597D01*
X016488Y002597D02*
X016622Y002597D01*
X016555Y002597D02*
X016555Y002797D01*
X016488Y002731D01*
X016709Y002764D02*
X016743Y002797D01*
X016809Y002797D01*
X016843Y002764D01*
X016843Y002731D01*
X016809Y002697D01*
X016843Y002664D01*
X016843Y002631D01*
X016809Y002597D01*
X016743Y002597D01*
X016709Y002631D01*
X016776Y002697D02*
X016809Y002697D01*
X016790Y003098D02*
X016823Y003132D01*
X016823Y003165D01*
X016790Y003199D01*
X016690Y003199D01*
X016690Y003132D01*
X016723Y003098D01*
X016790Y003098D01*
X016690Y003199D02*
X016756Y003265D01*
X016823Y003299D01*
X016535Y003299D02*
X016535Y003098D01*
X016469Y003098D02*
X016602Y003098D01*
X016469Y003232D02*
X016535Y003299D01*
X016381Y003265D02*
X016348Y003299D01*
X016281Y003299D01*
X016248Y003265D01*
X016248Y003132D01*
X016281Y003098D01*
X016348Y003098D01*
X016381Y003132D01*
X010526Y002648D02*
X010526Y002448D01*
X010393Y002648D01*
X010393Y002448D01*
X010305Y002448D02*
X010305Y002648D01*
X010172Y002648D02*
X010305Y002448D01*
X010172Y002448D02*
X010172Y002648D01*
X010084Y002615D02*
X010084Y002481D01*
X010051Y002448D01*
X009984Y002448D01*
X009951Y002481D01*
X009951Y002615D01*
X009984Y002648D01*
X010051Y002648D01*
X010084Y002615D01*
X009863Y002615D02*
X009830Y002648D01*
X009763Y002648D01*
X009730Y002615D01*
X009730Y002481D01*
X009763Y002448D01*
X009830Y002448D01*
X009863Y002481D01*
X009642Y002415D02*
X009509Y002415D01*
X009354Y002448D02*
X009354Y002648D01*
X009288Y002648D02*
X009421Y002648D01*
X009200Y002615D02*
X009167Y002648D01*
X009100Y002648D01*
X009067Y002615D01*
X009067Y002581D01*
X009100Y002548D01*
X009167Y002548D01*
X009200Y002515D01*
X009200Y002481D01*
X009167Y002448D01*
X009100Y002448D01*
X009067Y002481D01*
X008946Y002481D02*
X008946Y002648D01*
X008979Y002648D02*
X008912Y002648D01*
X008946Y002481D02*
X008912Y002448D01*
X008879Y002448D01*
X008846Y002481D01*
X005735Y017341D02*
X005602Y017341D01*
X005668Y017341D02*
X005668Y017541D01*
X005602Y017475D01*
X005514Y017508D02*
X005481Y017541D01*
X005381Y017541D01*
X005381Y017341D01*
X005481Y017341D01*
X005514Y017374D01*
X005514Y017508D01*
X008812Y020362D02*
X008946Y020362D01*
X009033Y020362D02*
X009167Y020362D01*
X009100Y020362D02*
X009100Y020562D01*
X009033Y020496D01*
X008812Y020562D02*
X008812Y020362D01*
X010659Y020562D02*
X010692Y020529D01*
X010759Y020529D01*
X010792Y020562D01*
X010880Y020529D02*
X011013Y020662D01*
X011013Y020696D01*
X010980Y020729D01*
X010913Y020729D01*
X010880Y020696D01*
X010792Y020696D02*
X010759Y020729D01*
X010692Y020729D01*
X010659Y020696D01*
X010659Y020562D01*
X010880Y020529D02*
X011013Y020529D01*
X010940Y021041D02*
X010874Y021041D01*
X010840Y021074D01*
X010753Y021074D02*
X010719Y021041D01*
X010653Y021041D01*
X010619Y021074D01*
X010619Y021207D01*
X010653Y021241D01*
X010719Y021241D01*
X010753Y021207D01*
X010840Y021207D02*
X010874Y021241D01*
X010940Y021241D01*
X010974Y021207D01*
X010974Y021174D01*
X010940Y021141D01*
X010974Y021107D01*
X010974Y021074D01*
X010940Y021041D01*
X010940Y021141D02*
X010907Y021141D01*
X010862Y021468D02*
X010762Y021468D01*
X010762Y021668D01*
X010862Y021668D01*
X010895Y021635D01*
X010895Y021601D01*
X010862Y021568D01*
X010762Y021568D01*
X010862Y021568D02*
X010895Y021534D01*
X010895Y021501D01*
X010862Y021468D01*
X010983Y021468D02*
X011116Y021468D01*
X011049Y021468D02*
X011049Y021668D01*
X010983Y021601D01*
X010674Y021668D02*
X010541Y021668D01*
X010541Y021468D01*
X010541Y021568D02*
X010607Y021568D01*
X010049Y022094D02*
X010015Y022060D01*
X009949Y022060D01*
X009915Y022094D01*
X009915Y022227D01*
X009949Y022260D01*
X010015Y022260D01*
X010049Y022227D01*
X009835Y022260D02*
X009768Y022260D01*
X009801Y022260D02*
X009801Y022060D01*
X009768Y022060D02*
X009835Y022060D01*
X009680Y022060D02*
X009680Y022260D01*
X009614Y022194D01*
X009547Y022260D01*
X009547Y022060D01*
X009393Y022160D02*
X009326Y022160D01*
X009326Y022060D02*
X009326Y022260D01*
X009459Y022260D01*
X008730Y022531D02*
X008696Y022497D01*
X008630Y022497D01*
X008596Y022531D01*
X008596Y022597D02*
X008663Y022631D01*
X008696Y022631D01*
X008730Y022597D01*
X008730Y022531D01*
X008596Y022597D02*
X008596Y022697D01*
X008730Y022697D01*
X008509Y022664D02*
X008475Y022697D01*
X008409Y022697D01*
X008375Y022664D01*
X008375Y022531D01*
X008409Y022497D01*
X008475Y022497D01*
X008509Y022531D01*
X008463Y023206D02*
X008497Y023239D01*
X008463Y023206D02*
X008397Y023206D01*
X008363Y023239D01*
X008363Y023373D01*
X008397Y023406D01*
X008463Y023406D01*
X008497Y023373D01*
X008584Y023339D02*
X008651Y023406D01*
X008651Y023206D01*
X008584Y023206D02*
X008718Y023206D01*
X008805Y023206D02*
X008939Y023206D01*
X008872Y023206D02*
X008872Y023406D01*
X008805Y023339D01*
X009111Y023373D02*
X009111Y023239D01*
X009145Y023206D01*
X009212Y023206D01*
X009245Y023239D01*
X009332Y023239D02*
X009332Y023273D01*
X009366Y023306D01*
X009432Y023306D01*
X009466Y023273D01*
X009466Y023239D01*
X009432Y023206D01*
X009366Y023206D01*
X009332Y023239D01*
X009366Y023306D02*
X009332Y023339D01*
X009332Y023373D01*
X009366Y023406D01*
X009432Y023406D01*
X009466Y023373D01*
X009466Y023339D01*
X009432Y023306D01*
X009245Y023373D02*
X009212Y023406D01*
X009145Y023406D01*
X009111Y023373D01*
X009747Y024426D02*
X009814Y024426D01*
X009847Y024460D01*
X009935Y024426D02*
X010068Y024426D01*
X010001Y024426D02*
X010001Y024627D01*
X009935Y024560D01*
X009847Y024593D02*
X009814Y024627D01*
X009747Y024627D01*
X009714Y024593D01*
X009714Y024460D01*
X009747Y024426D01*
X010156Y024460D02*
X010156Y024593D01*
X010189Y024627D01*
X010256Y024627D01*
X010289Y024593D01*
X010156Y024460D01*
X010189Y024426D01*
X010256Y024426D01*
X010289Y024460D01*
X010289Y024593D01*
X011210Y024593D02*
X011210Y024460D01*
X011243Y024426D01*
X011310Y024426D01*
X011343Y024460D01*
X011431Y024460D02*
X011431Y024426D01*
X011431Y024460D02*
X011564Y024593D01*
X011564Y024627D01*
X011431Y024627D01*
X011343Y024593D02*
X011310Y024627D01*
X011243Y024627D01*
X011210Y024593D01*
X013257Y023806D02*
X013257Y023672D01*
X013290Y023639D01*
X013357Y023639D01*
X013391Y023672D01*
X013478Y023739D02*
X013612Y023739D01*
X013578Y023639D02*
X013578Y023839D01*
X013478Y023739D01*
X013391Y023806D02*
X013357Y023839D01*
X013290Y023839D01*
X013257Y023806D01*
X013304Y024036D02*
X013437Y024036D01*
X013525Y024036D02*
X013658Y024170D01*
X013658Y024203D01*
X013625Y024236D01*
X013558Y024236D01*
X013525Y024203D01*
X013525Y024036D02*
X013658Y024036D01*
X013304Y024036D02*
X013304Y024236D01*
X013257Y023130D02*
X013357Y023130D01*
X013391Y023097D01*
X013391Y023030D01*
X013357Y022997D01*
X013257Y022997D01*
X013257Y022930D02*
X013257Y023130D01*
X013324Y022997D02*
X013391Y022930D01*
X013478Y022930D02*
X013478Y022964D01*
X013612Y023097D01*
X013612Y023130D01*
X013478Y023130D01*
X013478Y022658D02*
X013478Y022558D01*
X013545Y022591D01*
X013578Y022591D01*
X013612Y022558D01*
X013612Y022491D01*
X013578Y022458D01*
X013511Y022458D01*
X013478Y022491D01*
X013391Y022458D02*
X013324Y022525D01*
X013357Y022525D02*
X013257Y022525D01*
X013257Y022458D02*
X013257Y022658D01*
X013357Y022658D01*
X013391Y022625D01*
X013391Y022558D01*
X013357Y022525D01*
X013478Y022658D02*
X013612Y022658D01*
X013572Y022304D02*
X013672Y022304D01*
X013705Y022270D01*
X013705Y022204D01*
X013672Y022170D01*
X013572Y022170D01*
X013572Y022104D02*
X013572Y022304D01*
X013639Y022170D02*
X013705Y022104D01*
X013793Y022137D02*
X013793Y022170D01*
X013826Y022204D01*
X013893Y022204D01*
X013926Y022170D01*
X013926Y022137D01*
X013893Y022104D01*
X013826Y022104D01*
X013793Y022137D01*
X013826Y022204D02*
X013793Y022237D01*
X013793Y022270D01*
X013826Y022304D01*
X013893Y022304D01*
X013926Y022270D01*
X013926Y022237D01*
X013893Y022204D01*
X014084Y021871D02*
X014184Y021871D01*
X014217Y021837D01*
X014217Y021771D01*
X014184Y021737D01*
X014084Y021737D01*
X014084Y021670D02*
X014084Y021871D01*
X014151Y021737D02*
X014217Y021670D01*
X014305Y021771D02*
X014438Y021771D01*
X014405Y021871D02*
X014305Y021771D01*
X014405Y021871D02*
X014405Y021670D01*
X013539Y020453D02*
X013472Y020453D01*
X013439Y020420D01*
X013439Y020387D01*
X013472Y020353D01*
X013572Y020353D01*
X013572Y020287D02*
X013572Y020420D01*
X013539Y020453D01*
X013572Y020287D02*
X013539Y020253D01*
X013472Y020253D01*
X013439Y020287D01*
X013351Y020287D02*
X013318Y020253D01*
X013251Y020253D01*
X013218Y020287D01*
X013218Y020420D01*
X013251Y020453D01*
X013318Y020453D01*
X013351Y020420D01*
X012824Y021159D02*
X012691Y021159D01*
X012824Y021292D01*
X012824Y021325D01*
X012791Y021359D01*
X012724Y021359D01*
X012691Y021325D01*
X012603Y021325D02*
X012603Y021259D01*
X012570Y021225D01*
X012470Y021225D01*
X012470Y021159D02*
X012470Y021359D01*
X012570Y021359D01*
X012603Y021325D01*
X012536Y021225D02*
X012603Y021159D01*
X012037Y020493D02*
X011970Y020459D01*
X011903Y020393D01*
X012003Y020393D01*
X012037Y020359D01*
X012037Y020326D01*
X012003Y020293D01*
X011937Y020293D01*
X011903Y020326D01*
X011903Y020393D01*
X011816Y020393D02*
X011782Y020359D01*
X011682Y020359D01*
X011682Y020293D02*
X011682Y020493D01*
X011782Y020493D01*
X011816Y020459D01*
X011816Y020393D01*
X011749Y020359D02*
X011816Y020293D01*
X011919Y021985D02*
X011919Y022186D01*
X012019Y022186D01*
X012052Y022152D01*
X012052Y022086D01*
X012019Y022052D01*
X011919Y022052D01*
X011985Y022052D02*
X012052Y021985D01*
X012139Y022019D02*
X012173Y021985D01*
X012240Y021985D01*
X012273Y022019D01*
X012273Y022152D01*
X012240Y022186D01*
X012173Y022186D01*
X012139Y022152D01*
X012139Y022119D01*
X012173Y022086D01*
X012273Y022086D01*
X015565Y021003D02*
X015565Y020869D01*
X015599Y020836D01*
X015665Y020836D01*
X015699Y020869D01*
X015786Y020836D02*
X015920Y020836D01*
X015853Y020836D02*
X015853Y021036D01*
X015786Y020969D01*
X015699Y021003D02*
X015665Y021036D01*
X015599Y021036D01*
X015565Y021003D01*
X016007Y021003D02*
X016041Y021036D01*
X016107Y021036D01*
X016141Y021003D01*
X016141Y020969D01*
X016007Y020836D01*
X016141Y020836D01*
X017076Y020838D02*
X017109Y020804D01*
X017176Y020804D01*
X017209Y020838D01*
X017297Y020804D02*
X017430Y020804D01*
X017364Y020804D02*
X017364Y021005D01*
X017297Y020938D01*
X017209Y020971D02*
X017176Y021005D01*
X017109Y021005D01*
X017076Y020971D01*
X017076Y020838D01*
X017518Y020904D02*
X017651Y020904D01*
X017618Y020804D02*
X017618Y021005D01*
X017518Y020904D01*
X019338Y020711D02*
X019338Y020511D01*
X019338Y020577D02*
X019438Y020577D01*
X019472Y020611D01*
X019472Y020677D01*
X019438Y020711D01*
X019338Y020711D01*
X019405Y020577D02*
X019472Y020511D01*
X019559Y020511D02*
X019693Y020511D01*
X019626Y020511D02*
X019626Y020711D01*
X019559Y020644D01*
X019780Y020611D02*
X019780Y020711D01*
X019914Y020711D01*
X019880Y020644D02*
X019914Y020611D01*
X019914Y020544D01*
X019880Y020511D01*
X019814Y020511D01*
X019780Y020544D01*
X019780Y020611D02*
X019847Y020644D01*
X019880Y020644D01*
X016613Y023273D02*
X016613Y023440D01*
X016480Y023440D02*
X016480Y023273D01*
X016513Y023240D01*
X016580Y023240D01*
X016613Y023273D01*
X016392Y023273D02*
X016359Y023240D01*
X016292Y023240D01*
X016259Y023273D01*
X016259Y023406D01*
X016292Y023440D01*
X016359Y023440D01*
X016392Y023406D01*
X016171Y023440D02*
X016171Y023240D01*
X016038Y023240D02*
X016038Y023440D01*
X016105Y023373D01*
X016171Y023440D01*
X024846Y020116D02*
X024946Y020016D01*
X024946Y020150D01*
X025046Y020116D02*
X024846Y020116D01*
X024846Y019862D02*
X025046Y019862D01*
X025046Y019795D02*
X025046Y019929D01*
X024913Y019795D02*
X024846Y019862D01*
X024879Y019708D02*
X024846Y019675D01*
X024846Y019574D01*
X025046Y019574D01*
X024980Y019574D02*
X024980Y019675D01*
X024946Y019708D01*
X024879Y019708D01*
X024980Y019641D02*
X025046Y019708D01*
X025239Y019786D02*
X025239Y019944D01*
X025515Y019944D02*
X025515Y019786D01*
X025731Y019819D02*
X025765Y019852D01*
X025898Y019852D01*
X025932Y019819D01*
X025932Y019719D01*
X025731Y019719D01*
X025731Y019819D01*
X025798Y019940D02*
X025731Y020006D01*
X025932Y020006D01*
X025932Y019940D02*
X025932Y020073D01*
X025932Y019631D02*
X025932Y019498D01*
X025731Y019498D01*
X025731Y019631D01*
X025831Y019564D02*
X025831Y019498D01*
X025932Y019410D02*
X025932Y019277D01*
X025731Y019277D01*
D12*
X013473Y004135D02*
X013473Y004081D01*
X013472Y004082D02*
X013457Y004080D01*
X013443Y004074D01*
X013430Y004066D01*
X013420Y004056D01*
X013412Y004043D01*
X013406Y004029D01*
X013404Y004014D01*
X013351Y004013D01*
X013350Y004014D01*
X013352Y004035D01*
X013358Y004055D01*
X013367Y004074D01*
X013379Y004092D01*
X013394Y004107D01*
X013412Y004119D01*
X013431Y004128D01*
X013451Y004134D01*
X013472Y004136D01*
X013472Y004131D01*
X013452Y004129D01*
X013432Y004123D01*
X013414Y004114D01*
X013398Y004103D01*
X013383Y004088D01*
X013372Y004072D01*
X013363Y004054D01*
X013357Y004034D01*
X013355Y004014D01*
X013360Y004014D01*
X013362Y004033D01*
X013368Y004052D01*
X013376Y004069D01*
X013387Y004085D01*
X013401Y004099D01*
X013417Y004110D01*
X013434Y004118D01*
X013453Y004124D01*
X013472Y004126D01*
X013472Y004121D01*
X013454Y004119D01*
X013436Y004114D01*
X013419Y004106D01*
X013404Y004095D01*
X013391Y004082D01*
X013380Y004067D01*
X013372Y004050D01*
X013367Y004032D01*
X013365Y004014D01*
X013370Y004014D01*
X013372Y004034D01*
X013379Y004053D01*
X013388Y004070D01*
X013401Y004085D01*
X013416Y004098D01*
X013433Y004107D01*
X013452Y004114D01*
X013472Y004116D01*
X013472Y004111D01*
X013453Y004109D01*
X013435Y004103D01*
X013419Y004094D01*
X013404Y004082D01*
X013392Y004067D01*
X013383Y004051D01*
X013377Y004033D01*
X013375Y004014D01*
X013380Y004014D01*
X013382Y004032D01*
X013388Y004049D01*
X013396Y004064D01*
X013408Y004078D01*
X013422Y004090D01*
X013437Y004098D01*
X013454Y004104D01*
X013472Y004106D01*
X013472Y004101D01*
X013455Y004099D01*
X013439Y004094D01*
X013424Y004085D01*
X013411Y004075D01*
X013401Y004062D01*
X013392Y004047D01*
X013387Y004031D01*
X013385Y004014D01*
X013390Y004014D01*
X013392Y004030D01*
X013397Y004045D01*
X013405Y004059D01*
X013415Y004071D01*
X013427Y004081D01*
X013441Y004089D01*
X013456Y004094D01*
X013472Y004096D01*
X013472Y004091D01*
X013455Y004088D01*
X013439Y004083D01*
X013425Y004073D01*
X013413Y004061D01*
X013403Y004047D01*
X013398Y004031D01*
X013395Y004014D01*
X013400Y004014D01*
X013402Y004030D01*
X013408Y004045D01*
X013417Y004058D01*
X013428Y004069D01*
X013441Y004078D01*
X013456Y004084D01*
X013472Y004086D01*
X013351Y003036D02*
X013405Y003036D01*
X013404Y003035D02*
X013406Y003020D01*
X013412Y003006D01*
X013420Y002993D01*
X013430Y002983D01*
X013443Y002975D01*
X013457Y002969D01*
X013472Y002967D01*
X013473Y002914D01*
X013472Y002913D01*
X013451Y002915D01*
X013431Y002921D01*
X013412Y002930D01*
X013394Y002942D01*
X013379Y002957D01*
X013367Y002975D01*
X013358Y002994D01*
X013352Y003014D01*
X013350Y003035D01*
X013355Y003035D01*
X013357Y003015D01*
X013363Y002995D01*
X013372Y002977D01*
X013383Y002961D01*
X013398Y002946D01*
X013414Y002935D01*
X013432Y002926D01*
X013452Y002920D01*
X013472Y002918D01*
X013472Y002923D01*
X013453Y002925D01*
X013434Y002931D01*
X013417Y002939D01*
X013401Y002950D01*
X013387Y002964D01*
X013376Y002980D01*
X013368Y002997D01*
X013362Y003016D01*
X013360Y003035D01*
X013365Y003035D01*
X013367Y003017D01*
X013372Y002999D01*
X013380Y002982D01*
X013391Y002967D01*
X013404Y002954D01*
X013419Y002943D01*
X013436Y002935D01*
X013454Y002930D01*
X013472Y002928D01*
X013472Y002933D01*
X013452Y002935D01*
X013433Y002942D01*
X013416Y002951D01*
X013401Y002964D01*
X013388Y002979D01*
X013379Y002996D01*
X013372Y003015D01*
X013370Y003035D01*
X013375Y003035D01*
X013377Y003016D01*
X013383Y002998D01*
X013392Y002982D01*
X013404Y002967D01*
X013419Y002955D01*
X013435Y002946D01*
X013453Y002940D01*
X013472Y002938D01*
X013472Y002943D01*
X013454Y002945D01*
X013437Y002951D01*
X013422Y002959D01*
X013408Y002971D01*
X013396Y002985D01*
X013388Y003000D01*
X013382Y003017D01*
X013380Y003035D01*
X013385Y003035D01*
X013387Y003018D01*
X013392Y003002D01*
X013401Y002987D01*
X013411Y002974D01*
X013424Y002964D01*
X013439Y002955D01*
X013455Y002950D01*
X013472Y002948D01*
X013472Y002953D01*
X013456Y002955D01*
X013441Y002960D01*
X013427Y002968D01*
X013415Y002978D01*
X013405Y002990D01*
X013397Y003004D01*
X013392Y003019D01*
X013390Y003035D01*
X013395Y003035D01*
X013398Y003018D01*
X013403Y003002D01*
X013413Y002988D01*
X013425Y002976D01*
X013439Y002966D01*
X013455Y002961D01*
X013472Y002958D01*
X013472Y002963D01*
X013456Y002965D01*
X013441Y002971D01*
X013428Y002980D01*
X013417Y002991D01*
X013408Y003004D01*
X013402Y003019D01*
X013400Y003035D01*
D13*
X013377Y003042D02*
X013377Y004011D01*
X013479Y004109D02*
X014448Y004109D01*
X014444Y004109D02*
X014461Y004108D01*
X014478Y004103D01*
X014493Y004096D01*
X014507Y004086D01*
X014519Y004074D01*
X014529Y004060D01*
X014536Y004045D01*
X014541Y004028D01*
X014542Y004011D01*
X014542Y003038D01*
X014541Y003021D01*
X014536Y003004D01*
X014529Y002989D01*
X014519Y002975D01*
X014507Y002963D01*
X014493Y002953D01*
X014478Y002946D01*
X014461Y002941D01*
X014444Y002940D01*
X014448Y002940D02*
X013479Y002940D01*
X012660Y004393D02*
X012424Y004393D01*
X012424Y004865D02*
X012660Y004865D01*
X012660Y005259D02*
X012424Y005259D01*
X012424Y005731D02*
X012660Y005731D01*
X006621Y016726D02*
X007413Y017518D01*
X007046Y017886D01*
X006254Y017094D01*
X006621Y016726D01*
X008684Y021125D02*
X008684Y021361D01*
X009156Y021361D02*
X009156Y021125D01*
X016424Y021061D02*
X018434Y021061D01*
X018434Y022921D02*
X016424Y022921D01*
D14*
X013576Y003271D02*
X013578Y003293D01*
X013584Y003315D01*
X013593Y003335D01*
X013606Y003353D01*
X013622Y003369D01*
X013640Y003382D01*
X013660Y003391D01*
X013682Y003397D01*
X013704Y003399D01*
X013726Y003397D01*
X013748Y003391D01*
X013768Y003382D01*
X013786Y003369D01*
X013802Y003353D01*
X013815Y003335D01*
X013824Y003315D01*
X013830Y003293D01*
X013832Y003271D01*
X013830Y003249D01*
X013824Y003227D01*
X013815Y003207D01*
X013802Y003189D01*
X013786Y003173D01*
X013768Y003160D01*
X013748Y003151D01*
X013726Y003145D01*
X013704Y003143D01*
X013682Y003145D01*
X013660Y003151D01*
X013640Y003160D01*
X013622Y003173D01*
X013606Y003189D01*
X013593Y003207D01*
X013584Y003227D01*
X013578Y003249D01*
X013576Y003271D01*
D15*
X019865Y013960D02*
X019867Y014088D01*
X019873Y014216D01*
X019883Y014343D01*
X019897Y014471D01*
X019914Y014597D01*
X019936Y014723D01*
X019962Y014849D01*
X019991Y014973D01*
X020024Y015097D01*
X020061Y015219D01*
X020102Y015340D01*
X020147Y015460D01*
X020195Y015579D01*
X020247Y015696D01*
X020303Y015811D01*
X020362Y015925D01*
X020424Y016036D01*
X020490Y016146D01*
X020559Y016253D01*
X020632Y016359D01*
X020708Y016462D01*
X020787Y016562D01*
X020869Y016661D01*
X020954Y016756D01*
X021042Y016849D01*
X021133Y016939D01*
X021226Y017026D01*
X021323Y017111D01*
X021421Y017192D01*
X021523Y017270D01*
X021626Y017345D01*
X021732Y017417D01*
X021840Y017486D01*
X021950Y017551D01*
X022063Y017612D01*
X022177Y017671D01*
X022292Y017725D01*
X022410Y017776D01*
X022528Y017824D01*
X022649Y017867D01*
X022770Y017907D01*
X022893Y017943D01*
X023017Y017976D01*
X023142Y018004D01*
X023267Y018029D01*
X023393Y018049D01*
X023520Y018066D01*
X023648Y018079D01*
X023775Y018088D01*
X023903Y018093D01*
X024031Y018094D01*
X024159Y018091D01*
X024287Y018084D01*
X024414Y018073D01*
X024541Y018058D01*
X024668Y018040D01*
X024794Y018017D01*
X024919Y017990D01*
X025043Y017960D01*
X025166Y017926D01*
X025289Y017888D01*
X025410Y017846D01*
X025529Y017800D01*
X025647Y017751D01*
X025764Y017698D01*
X025879Y017642D01*
X025992Y017582D01*
X026103Y017519D01*
X026212Y017452D01*
X026319Y017382D01*
X026424Y017308D01*
X026526Y017232D01*
X026626Y017152D01*
X026724Y017069D01*
X026819Y016983D01*
X026911Y016894D01*
X027000Y016803D01*
X027087Y016709D01*
X027170Y016612D01*
X027251Y016512D01*
X027328Y016411D01*
X027403Y016306D01*
X027474Y016200D01*
X027541Y016091D01*
X027606Y015981D01*
X027666Y015868D01*
X027724Y015754D01*
X027777Y015638D01*
X027827Y015520D01*
X027874Y015401D01*
X027917Y015280D01*
X027956Y015158D01*
X027991Y015035D01*
X028022Y014911D01*
X028050Y014786D01*
X028073Y014660D01*
X028093Y014534D01*
X028109Y014407D01*
X028121Y014280D01*
X028129Y014152D01*
X028133Y014024D01*
X028133Y013896D01*
X028129Y013768D01*
X028121Y013640D01*
X028109Y013513D01*
X028093Y013386D01*
X028073Y013260D01*
X028050Y013134D01*
X028022Y013009D01*
X027991Y012885D01*
X027956Y012762D01*
X027917Y012640D01*
X027874Y012519D01*
X027827Y012400D01*
X027777Y012282D01*
X027724Y012166D01*
X027666Y012052D01*
X027606Y011939D01*
X027541Y011829D01*
X027474Y011720D01*
X027403Y011614D01*
X027328Y011509D01*
X027251Y011408D01*
X027170Y011308D01*
X027087Y011211D01*
X027000Y011117D01*
X026911Y011026D01*
X026819Y010937D01*
X026724Y010851D01*
X026626Y010768D01*
X026526Y010688D01*
X026424Y010612D01*
X026319Y010538D01*
X026212Y010468D01*
X026103Y010401D01*
X025992Y010338D01*
X025879Y010278D01*
X025764Y010222D01*
X025647Y010169D01*
X025529Y010120D01*
X025410Y010074D01*
X025289Y010032D01*
X025166Y009994D01*
X025043Y009960D01*
X024919Y009930D01*
X024794Y009903D01*
X024668Y009880D01*
X024541Y009862D01*
X024414Y009847D01*
X024287Y009836D01*
X024159Y009829D01*
X024031Y009826D01*
X023903Y009827D01*
X023775Y009832D01*
X023648Y009841D01*
X023520Y009854D01*
X023393Y009871D01*
X023267Y009891D01*
X023142Y009916D01*
X023017Y009944D01*
X022893Y009977D01*
X022770Y010013D01*
X022649Y010053D01*
X022528Y010096D01*
X022410Y010144D01*
X022292Y010195D01*
X022177Y010249D01*
X022063Y010308D01*
X021950Y010369D01*
X021840Y010434D01*
X021732Y010503D01*
X021626Y010575D01*
X021523Y010650D01*
X021421Y010728D01*
X021323Y010809D01*
X021226Y010894D01*
X021133Y010981D01*
X021042Y011071D01*
X020954Y011164D01*
X020869Y011259D01*
X020787Y011358D01*
X020708Y011458D01*
X020632Y011561D01*
X020559Y011667D01*
X020490Y011774D01*
X020424Y011884D01*
X020362Y011995D01*
X020303Y012109D01*
X020247Y012224D01*
X020195Y012341D01*
X020147Y012460D01*
X020102Y012580D01*
X020061Y012701D01*
X020024Y012823D01*
X019991Y012947D01*
X019962Y013071D01*
X019936Y013197D01*
X019914Y013323D01*
X019897Y013449D01*
X019883Y013577D01*
X019873Y013704D01*
X019867Y013832D01*
X019865Y013960D01*
D16*
X025490Y019914D03*
D17*
X007660Y020260D02*
X007660Y007660D01*
X020260Y007660D01*
X020260Y020260D01*
X007660Y020260D01*
X009274Y024708D02*
X012424Y024708D01*
X012424Y026204D01*
X009274Y026204D01*
X009274Y024708D01*
X018839Y023811D02*
X020194Y025746D01*
X023096Y023714D01*
X021741Y021779D01*
X018839Y023811D01*
X020278Y023763D02*
X020280Y023815D01*
X020286Y023867D01*
X020296Y023918D01*
X020309Y023968D01*
X020327Y024018D01*
X020348Y024065D01*
X020372Y024111D01*
X020401Y024155D01*
X020432Y024197D01*
X020466Y024236D01*
X020503Y024273D01*
X020543Y024306D01*
X020586Y024337D01*
X020630Y024364D01*
X020676Y024388D01*
X020725Y024408D01*
X020774Y024424D01*
X020825Y024437D01*
X020876Y024446D01*
X020928Y024451D01*
X020980Y024452D01*
X021032Y024449D01*
X021084Y024442D01*
X021135Y024431D01*
X021185Y024417D01*
X021234Y024398D01*
X021281Y024376D01*
X021326Y024351D01*
X021370Y024322D01*
X021411Y024290D01*
X021450Y024255D01*
X021485Y024217D01*
X021518Y024176D01*
X021548Y024134D01*
X021574Y024089D01*
X021597Y024042D01*
X021616Y023993D01*
X021632Y023943D01*
X021644Y023893D01*
X021652Y023841D01*
X021656Y023789D01*
X021656Y023737D01*
X021652Y023685D01*
X021644Y023633D01*
X021632Y023583D01*
X021616Y023533D01*
X021597Y023484D01*
X021574Y023437D01*
X021548Y023392D01*
X021518Y023350D01*
X021485Y023309D01*
X021450Y023271D01*
X021411Y023236D01*
X021370Y023204D01*
X021326Y023175D01*
X021281Y023150D01*
X021234Y023128D01*
X021185Y023109D01*
X021135Y023095D01*
X021084Y023084D01*
X021032Y023077D01*
X020980Y023074D01*
X020928Y023075D01*
X020876Y023080D01*
X020825Y023089D01*
X020774Y023102D01*
X020725Y023118D01*
X020676Y023138D01*
X020630Y023162D01*
X020586Y023189D01*
X020543Y023220D01*
X020503Y023253D01*
X020466Y023290D01*
X020432Y023329D01*
X020401Y023371D01*
X020372Y023415D01*
X020348Y023461D01*
X020327Y023508D01*
X020309Y023558D01*
X020296Y023608D01*
X020286Y023659D01*
X020280Y023711D01*
X020278Y023763D01*
X019196Y006991D02*
X017030Y006991D01*
X016597Y006558D01*
X016597Y004865D01*
X017070Y004393D01*
X019196Y004393D01*
X019196Y006991D01*
X016646Y005692D02*
X016648Y005762D01*
X016654Y005832D01*
X016664Y005902D01*
X016677Y005970D01*
X016695Y006038D01*
X016716Y006105D01*
X016741Y006171D01*
X016770Y006235D01*
X016802Y006297D01*
X016838Y006358D01*
X016877Y006416D01*
X016919Y006472D01*
X016964Y006526D01*
X017012Y006577D01*
X017063Y006625D01*
X017117Y006670D01*
X017173Y006712D01*
X017231Y006751D01*
X017292Y006787D01*
X017354Y006819D01*
X017418Y006848D01*
X017484Y006873D01*
X017551Y006894D01*
X017619Y006912D01*
X017687Y006925D01*
X017757Y006935D01*
X017827Y006941D01*
X017897Y006943D01*
X017967Y006941D01*
X018037Y006935D01*
X018107Y006925D01*
X018175Y006912D01*
X018243Y006894D01*
X018310Y006873D01*
X018376Y006848D01*
X018440Y006819D01*
X018502Y006787D01*
X018563Y006751D01*
X018621Y006712D01*
X018677Y006670D01*
X018731Y006625D01*
X018782Y006577D01*
X018830Y006526D01*
X018875Y006472D01*
X018917Y006416D01*
X018956Y006358D01*
X018992Y006297D01*
X019024Y006235D01*
X019053Y006171D01*
X019078Y006105D01*
X019099Y006038D01*
X019117Y005970D01*
X019130Y005902D01*
X019140Y005832D01*
X019146Y005762D01*
X019148Y005692D01*
X019146Y005622D01*
X019140Y005552D01*
X019130Y005482D01*
X019117Y005414D01*
X019099Y005346D01*
X019078Y005279D01*
X019053Y005213D01*
X019024Y005149D01*
X018992Y005087D01*
X018956Y005026D01*
X018917Y004968D01*
X018875Y004912D01*
X018830Y004858D01*
X018782Y004807D01*
X018731Y004759D01*
X018677Y004714D01*
X018621Y004672D01*
X018563Y004633D01*
X018502Y004597D01*
X018440Y004565D01*
X018376Y004536D01*
X018310Y004511D01*
X018243Y004490D01*
X018175Y004472D01*
X018107Y004459D01*
X018037Y004449D01*
X017967Y004443D01*
X017897Y004441D01*
X017827Y004443D01*
X017757Y004449D01*
X017687Y004459D01*
X017619Y004472D01*
X017551Y004490D01*
X017484Y004511D01*
X017418Y004536D01*
X017354Y004565D01*
X017292Y004597D01*
X017231Y004633D01*
X017173Y004672D01*
X017117Y004714D01*
X017063Y004759D01*
X017012Y004807D01*
X016964Y004858D01*
X016919Y004912D01*
X016877Y004968D01*
X016838Y005026D01*
X016802Y005087D01*
X016770Y005149D01*
X016741Y005213D01*
X016716Y005279D01*
X016695Y005346D01*
X016677Y005414D01*
X016664Y005482D01*
X016654Y005552D01*
X016648Y005622D01*
X016646Y005692D01*
X011282Y003684D02*
X011282Y002109D01*
X010948Y002109D01*
X010948Y003093D01*
X010397Y003093D01*
X009019Y003093D02*
X008467Y003093D01*
X008467Y002109D01*
X008133Y002109D01*
X008133Y003684D01*
X008822Y005062D02*
X010593Y005062D01*
D18*
X010806Y001924D02*
X010806Y001598D01*
X010643Y001761D02*
X010970Y001761D01*
X008720Y001761D02*
X008393Y001761D01*
D19*
X024043Y007667D02*
X024043Y007797D01*
X024130Y007797D01*
X024191Y007797D02*
X024191Y007667D01*
X024277Y007667D01*
X024234Y007732D02*
X024191Y007732D01*
X024191Y007797D02*
X024277Y007797D01*
X024338Y007797D02*
X024425Y007797D01*
X024381Y007797D02*
X024381Y007667D01*
X024485Y007667D02*
X024572Y007753D01*
X024572Y007775D01*
X024550Y007797D01*
X024507Y007797D01*
X024485Y007775D01*
X024485Y007667D02*
X024572Y007667D01*
X024087Y007732D02*
X024043Y007732D01*
M02*
