G75*
%MOIN*%
%OFA0B0*%
%FSLAX25Y25*%
%IPPOS*%
%LPD*%
%AMOC8*
5,1,8,0,0,1.08239X$1,22.5*
%
%ADD10C,0.01200*%
%ADD11C,0.00000*%
%ADD12C,0.00500*%
D10*
X0093335Y0009796D02*
X0185855Y0009796D01*
X0185441Y0009674D01*
X0269394Y0093335D02*
X0269394Y0185855D01*
X0185855Y0269394D02*
X0093335Y0269394D01*
X0009796Y0185855D02*
X0009796Y0093335D01*
X0009795Y0093335D02*
X0010910Y0090223D01*
X0012100Y0087140D01*
X0013366Y0084086D01*
X0014706Y0081065D01*
X0016120Y0078077D01*
X0017606Y0075125D01*
X0019165Y0072211D01*
X0020794Y0069335D01*
X0022494Y0066500D01*
X0024263Y0063708D01*
X0026099Y0060960D01*
X0028003Y0058258D01*
X0029972Y0055603D01*
X0032006Y0052998D01*
X0034103Y0050443D01*
X0036262Y0047940D01*
X0038481Y0045491D01*
X0040761Y0043098D01*
X0043098Y0040761D01*
X0045491Y0038481D01*
X0047940Y0036262D01*
X0050443Y0034103D01*
X0052998Y0032006D01*
X0055603Y0029972D01*
X0058258Y0028003D01*
X0060960Y0026099D01*
X0063708Y0024263D01*
X0066500Y0022494D01*
X0069335Y0020794D01*
X0072211Y0019165D01*
X0075125Y0017606D01*
X0078077Y0016120D01*
X0081065Y0014706D01*
X0084086Y0013366D01*
X0087140Y0012100D01*
X0090223Y0010910D01*
X0093335Y0009795D01*
X0185855Y0009795D02*
X0188967Y0010910D01*
X0192050Y0012100D01*
X0195104Y0013366D01*
X0198125Y0014706D01*
X0201113Y0016120D01*
X0204065Y0017606D01*
X0206979Y0019165D01*
X0209855Y0020794D01*
X0212690Y0022494D01*
X0215482Y0024263D01*
X0218230Y0026099D01*
X0220932Y0028003D01*
X0223587Y0029972D01*
X0226192Y0032006D01*
X0228747Y0034103D01*
X0231250Y0036262D01*
X0233699Y0038481D01*
X0236092Y0040761D01*
X0238429Y0043098D01*
X0240709Y0045491D01*
X0242928Y0047940D01*
X0245087Y0050443D01*
X0247184Y0052998D01*
X0249218Y0055603D01*
X0251187Y0058258D01*
X0253091Y0060960D01*
X0254927Y0063708D01*
X0256696Y0066500D01*
X0258396Y0069335D01*
X0260025Y0072211D01*
X0261584Y0075125D01*
X0263070Y0078077D01*
X0264484Y0081065D01*
X0265824Y0084086D01*
X0267090Y0087140D01*
X0268280Y0090223D01*
X0269395Y0093335D01*
X0269395Y0185855D02*
X0268280Y0188967D01*
X0267090Y0192050D01*
X0265824Y0195104D01*
X0264484Y0198125D01*
X0263070Y0201113D01*
X0261584Y0204065D01*
X0260025Y0206979D01*
X0258396Y0209855D01*
X0256696Y0212690D01*
X0254927Y0215482D01*
X0253091Y0218230D01*
X0251187Y0220932D01*
X0249218Y0223587D01*
X0247184Y0226192D01*
X0245087Y0228747D01*
X0242928Y0231250D01*
X0240709Y0233699D01*
X0238429Y0236092D01*
X0236092Y0238429D01*
X0233699Y0240709D01*
X0231250Y0242928D01*
X0228747Y0245087D01*
X0226192Y0247184D01*
X0223587Y0249218D01*
X0220932Y0251187D01*
X0218230Y0253091D01*
X0215482Y0254927D01*
X0212690Y0256696D01*
X0209855Y0258396D01*
X0206979Y0260025D01*
X0204065Y0261584D01*
X0201113Y0263070D01*
X0198125Y0264484D01*
X0195104Y0265824D01*
X0192050Y0267090D01*
X0188967Y0268280D01*
X0185855Y0269395D01*
X0093335Y0269395D02*
X0090223Y0268280D01*
X0087140Y0267090D01*
X0084086Y0265824D01*
X0081065Y0264484D01*
X0078077Y0263070D01*
X0075125Y0261584D01*
X0072211Y0260025D01*
X0069335Y0258396D01*
X0066500Y0256696D01*
X0063708Y0254927D01*
X0060960Y0253091D01*
X0058258Y0251187D01*
X0055603Y0249218D01*
X0052998Y0247184D01*
X0050443Y0245087D01*
X0047940Y0242928D01*
X0045491Y0240709D01*
X0043098Y0238429D01*
X0040761Y0236092D01*
X0038481Y0233699D01*
X0036262Y0231250D01*
X0034103Y0228747D01*
X0032006Y0226192D01*
X0029972Y0223587D01*
X0028003Y0220932D01*
X0026099Y0218230D01*
X0024263Y0215482D01*
X0022494Y0212690D01*
X0020794Y0209855D01*
X0019165Y0206979D01*
X0017606Y0204065D01*
X0016120Y0201113D01*
X0014706Y0198125D01*
X0013366Y0195104D01*
X0012100Y0192050D01*
X0010910Y0188967D01*
X0009795Y0185855D01*
D11*
X0030895Y0139595D02*
X0030898Y0139799D01*
X0030905Y0140003D01*
X0030918Y0140206D01*
X0030935Y0140409D01*
X0030957Y0140612D01*
X0030985Y0140814D01*
X0031017Y0141015D01*
X0031055Y0141216D01*
X0031097Y0141415D01*
X0031144Y0141613D01*
X0031196Y0141811D01*
X0031253Y0142006D01*
X0031314Y0142201D01*
X0031381Y0142394D01*
X0031452Y0142585D01*
X0031527Y0142774D01*
X0031608Y0142961D01*
X0031693Y0143147D01*
X0031782Y0143330D01*
X0031876Y0143511D01*
X0031974Y0143690D01*
X0032077Y0143866D01*
X0032184Y0144039D01*
X0032295Y0144210D01*
X0032410Y0144378D01*
X0032530Y0144543D01*
X0032653Y0144706D01*
X0032781Y0144865D01*
X0032912Y0145021D01*
X0033047Y0145174D01*
X0033186Y0145323D01*
X0033328Y0145469D01*
X0033474Y0145611D01*
X0033623Y0145750D01*
X0033776Y0145885D01*
X0033932Y0146016D01*
X0034091Y0146144D01*
X0034254Y0146267D01*
X0034419Y0146387D01*
X0034587Y0146502D01*
X0034758Y0146613D01*
X0034931Y0146720D01*
X0035107Y0146823D01*
X0035286Y0146921D01*
X0035467Y0147015D01*
X0035650Y0147104D01*
X0035836Y0147189D01*
X0036023Y0147270D01*
X0036212Y0147345D01*
X0036403Y0147416D01*
X0036596Y0147483D01*
X0036791Y0147544D01*
X0036986Y0147601D01*
X0037184Y0147653D01*
X0037382Y0147700D01*
X0037581Y0147742D01*
X0037782Y0147780D01*
X0037983Y0147812D01*
X0038185Y0147840D01*
X0038388Y0147862D01*
X0038591Y0147879D01*
X0038794Y0147892D01*
X0038998Y0147899D01*
X0039202Y0147902D01*
X0039406Y0147899D01*
X0039610Y0147892D01*
X0039813Y0147879D01*
X0040016Y0147862D01*
X0040219Y0147840D01*
X0040421Y0147812D01*
X0040622Y0147780D01*
X0040823Y0147742D01*
X0041022Y0147700D01*
X0041220Y0147653D01*
X0041418Y0147601D01*
X0041613Y0147544D01*
X0041808Y0147483D01*
X0042001Y0147416D01*
X0042192Y0147345D01*
X0042381Y0147270D01*
X0042568Y0147189D01*
X0042754Y0147104D01*
X0042937Y0147015D01*
X0043118Y0146921D01*
X0043297Y0146823D01*
X0043473Y0146720D01*
X0043646Y0146613D01*
X0043817Y0146502D01*
X0043985Y0146387D01*
X0044150Y0146267D01*
X0044313Y0146144D01*
X0044472Y0146016D01*
X0044628Y0145885D01*
X0044781Y0145750D01*
X0044930Y0145611D01*
X0045076Y0145469D01*
X0045218Y0145323D01*
X0045357Y0145174D01*
X0045492Y0145021D01*
X0045623Y0144865D01*
X0045751Y0144706D01*
X0045874Y0144543D01*
X0045994Y0144378D01*
X0046109Y0144210D01*
X0046220Y0144039D01*
X0046327Y0143866D01*
X0046430Y0143690D01*
X0046528Y0143511D01*
X0046622Y0143330D01*
X0046711Y0143147D01*
X0046796Y0142961D01*
X0046877Y0142774D01*
X0046952Y0142585D01*
X0047023Y0142394D01*
X0047090Y0142201D01*
X0047151Y0142006D01*
X0047208Y0141811D01*
X0047260Y0141613D01*
X0047307Y0141415D01*
X0047349Y0141216D01*
X0047387Y0141015D01*
X0047419Y0140814D01*
X0047447Y0140612D01*
X0047469Y0140409D01*
X0047486Y0140206D01*
X0047499Y0140003D01*
X0047506Y0139799D01*
X0047509Y0139595D01*
X0047506Y0139391D01*
X0047499Y0139187D01*
X0047486Y0138984D01*
X0047469Y0138781D01*
X0047447Y0138578D01*
X0047419Y0138376D01*
X0047387Y0138175D01*
X0047349Y0137974D01*
X0047307Y0137775D01*
X0047260Y0137577D01*
X0047208Y0137379D01*
X0047151Y0137184D01*
X0047090Y0136989D01*
X0047023Y0136796D01*
X0046952Y0136605D01*
X0046877Y0136416D01*
X0046796Y0136229D01*
X0046711Y0136043D01*
X0046622Y0135860D01*
X0046528Y0135679D01*
X0046430Y0135500D01*
X0046327Y0135324D01*
X0046220Y0135151D01*
X0046109Y0134980D01*
X0045994Y0134812D01*
X0045874Y0134647D01*
X0045751Y0134484D01*
X0045623Y0134325D01*
X0045492Y0134169D01*
X0045357Y0134016D01*
X0045218Y0133867D01*
X0045076Y0133721D01*
X0044930Y0133579D01*
X0044781Y0133440D01*
X0044628Y0133305D01*
X0044472Y0133174D01*
X0044313Y0133046D01*
X0044150Y0132923D01*
X0043985Y0132803D01*
X0043817Y0132688D01*
X0043646Y0132577D01*
X0043473Y0132470D01*
X0043297Y0132367D01*
X0043118Y0132269D01*
X0042937Y0132175D01*
X0042754Y0132086D01*
X0042568Y0132001D01*
X0042381Y0131920D01*
X0042192Y0131845D01*
X0042001Y0131774D01*
X0041808Y0131707D01*
X0041613Y0131646D01*
X0041418Y0131589D01*
X0041220Y0131537D01*
X0041022Y0131490D01*
X0040823Y0131448D01*
X0040622Y0131410D01*
X0040421Y0131378D01*
X0040219Y0131350D01*
X0040016Y0131328D01*
X0039813Y0131311D01*
X0039610Y0131298D01*
X0039406Y0131291D01*
X0039202Y0131288D01*
X0038998Y0131291D01*
X0038794Y0131298D01*
X0038591Y0131311D01*
X0038388Y0131328D01*
X0038185Y0131350D01*
X0037983Y0131378D01*
X0037782Y0131410D01*
X0037581Y0131448D01*
X0037382Y0131490D01*
X0037184Y0131537D01*
X0036986Y0131589D01*
X0036791Y0131646D01*
X0036596Y0131707D01*
X0036403Y0131774D01*
X0036212Y0131845D01*
X0036023Y0131920D01*
X0035836Y0132001D01*
X0035650Y0132086D01*
X0035467Y0132175D01*
X0035286Y0132269D01*
X0035107Y0132367D01*
X0034931Y0132470D01*
X0034758Y0132577D01*
X0034587Y0132688D01*
X0034419Y0132803D01*
X0034254Y0132923D01*
X0034091Y0133046D01*
X0033932Y0133174D01*
X0033776Y0133305D01*
X0033623Y0133440D01*
X0033474Y0133579D01*
X0033328Y0133721D01*
X0033186Y0133867D01*
X0033047Y0134016D01*
X0032912Y0134169D01*
X0032781Y0134325D01*
X0032653Y0134484D01*
X0032530Y0134647D01*
X0032410Y0134812D01*
X0032295Y0134980D01*
X0032184Y0135151D01*
X0032077Y0135324D01*
X0031974Y0135500D01*
X0031876Y0135679D01*
X0031782Y0135860D01*
X0031693Y0136043D01*
X0031608Y0136229D01*
X0031527Y0136416D01*
X0031452Y0136605D01*
X0031381Y0136796D01*
X0031314Y0136989D01*
X0031253Y0137184D01*
X0031196Y0137379D01*
X0031144Y0137577D01*
X0031097Y0137775D01*
X0031055Y0137974D01*
X0031017Y0138175D01*
X0030985Y0138376D01*
X0030957Y0138578D01*
X0030935Y0138781D01*
X0030918Y0138984D01*
X0030905Y0139187D01*
X0030898Y0139391D01*
X0030895Y0139595D01*
X0078139Y0086446D02*
X0078142Y0086650D01*
X0078149Y0086854D01*
X0078162Y0087057D01*
X0078179Y0087260D01*
X0078201Y0087463D01*
X0078229Y0087665D01*
X0078261Y0087866D01*
X0078299Y0088067D01*
X0078341Y0088266D01*
X0078388Y0088464D01*
X0078440Y0088662D01*
X0078497Y0088857D01*
X0078558Y0089052D01*
X0078625Y0089245D01*
X0078696Y0089436D01*
X0078771Y0089625D01*
X0078852Y0089812D01*
X0078937Y0089998D01*
X0079026Y0090181D01*
X0079120Y0090362D01*
X0079218Y0090541D01*
X0079321Y0090717D01*
X0079428Y0090890D01*
X0079539Y0091061D01*
X0079654Y0091229D01*
X0079774Y0091394D01*
X0079897Y0091557D01*
X0080025Y0091716D01*
X0080156Y0091872D01*
X0080291Y0092025D01*
X0080430Y0092174D01*
X0080572Y0092320D01*
X0080718Y0092462D01*
X0080867Y0092601D01*
X0081020Y0092736D01*
X0081176Y0092867D01*
X0081335Y0092995D01*
X0081498Y0093118D01*
X0081663Y0093238D01*
X0081831Y0093353D01*
X0082002Y0093464D01*
X0082175Y0093571D01*
X0082351Y0093674D01*
X0082530Y0093772D01*
X0082711Y0093866D01*
X0082894Y0093955D01*
X0083080Y0094040D01*
X0083267Y0094121D01*
X0083456Y0094196D01*
X0083647Y0094267D01*
X0083840Y0094334D01*
X0084035Y0094395D01*
X0084230Y0094452D01*
X0084428Y0094504D01*
X0084626Y0094551D01*
X0084825Y0094593D01*
X0085026Y0094631D01*
X0085227Y0094663D01*
X0085429Y0094691D01*
X0085632Y0094713D01*
X0085835Y0094730D01*
X0086038Y0094743D01*
X0086242Y0094750D01*
X0086446Y0094753D01*
X0086650Y0094750D01*
X0086854Y0094743D01*
X0087057Y0094730D01*
X0087260Y0094713D01*
X0087463Y0094691D01*
X0087665Y0094663D01*
X0087866Y0094631D01*
X0088067Y0094593D01*
X0088266Y0094551D01*
X0088464Y0094504D01*
X0088662Y0094452D01*
X0088857Y0094395D01*
X0089052Y0094334D01*
X0089245Y0094267D01*
X0089436Y0094196D01*
X0089625Y0094121D01*
X0089812Y0094040D01*
X0089998Y0093955D01*
X0090181Y0093866D01*
X0090362Y0093772D01*
X0090541Y0093674D01*
X0090717Y0093571D01*
X0090890Y0093464D01*
X0091061Y0093353D01*
X0091229Y0093238D01*
X0091394Y0093118D01*
X0091557Y0092995D01*
X0091716Y0092867D01*
X0091872Y0092736D01*
X0092025Y0092601D01*
X0092174Y0092462D01*
X0092320Y0092320D01*
X0092462Y0092174D01*
X0092601Y0092025D01*
X0092736Y0091872D01*
X0092867Y0091716D01*
X0092995Y0091557D01*
X0093118Y0091394D01*
X0093238Y0091229D01*
X0093353Y0091061D01*
X0093464Y0090890D01*
X0093571Y0090717D01*
X0093674Y0090541D01*
X0093772Y0090362D01*
X0093866Y0090181D01*
X0093955Y0089998D01*
X0094040Y0089812D01*
X0094121Y0089625D01*
X0094196Y0089436D01*
X0094267Y0089245D01*
X0094334Y0089052D01*
X0094395Y0088857D01*
X0094452Y0088662D01*
X0094504Y0088464D01*
X0094551Y0088266D01*
X0094593Y0088067D01*
X0094631Y0087866D01*
X0094663Y0087665D01*
X0094691Y0087463D01*
X0094713Y0087260D01*
X0094730Y0087057D01*
X0094743Y0086854D01*
X0094750Y0086650D01*
X0094753Y0086446D01*
X0094750Y0086242D01*
X0094743Y0086038D01*
X0094730Y0085835D01*
X0094713Y0085632D01*
X0094691Y0085429D01*
X0094663Y0085227D01*
X0094631Y0085026D01*
X0094593Y0084825D01*
X0094551Y0084626D01*
X0094504Y0084428D01*
X0094452Y0084230D01*
X0094395Y0084035D01*
X0094334Y0083840D01*
X0094267Y0083647D01*
X0094196Y0083456D01*
X0094121Y0083267D01*
X0094040Y0083080D01*
X0093955Y0082894D01*
X0093866Y0082711D01*
X0093772Y0082530D01*
X0093674Y0082351D01*
X0093571Y0082175D01*
X0093464Y0082002D01*
X0093353Y0081831D01*
X0093238Y0081663D01*
X0093118Y0081498D01*
X0092995Y0081335D01*
X0092867Y0081176D01*
X0092736Y0081020D01*
X0092601Y0080867D01*
X0092462Y0080718D01*
X0092320Y0080572D01*
X0092174Y0080430D01*
X0092025Y0080291D01*
X0091872Y0080156D01*
X0091716Y0080025D01*
X0091557Y0079897D01*
X0091394Y0079774D01*
X0091229Y0079654D01*
X0091061Y0079539D01*
X0090890Y0079428D01*
X0090717Y0079321D01*
X0090541Y0079218D01*
X0090362Y0079120D01*
X0090181Y0079026D01*
X0089998Y0078937D01*
X0089812Y0078852D01*
X0089625Y0078771D01*
X0089436Y0078696D01*
X0089245Y0078625D01*
X0089052Y0078558D01*
X0088857Y0078497D01*
X0088662Y0078440D01*
X0088464Y0078388D01*
X0088266Y0078341D01*
X0088067Y0078299D01*
X0087866Y0078261D01*
X0087665Y0078229D01*
X0087463Y0078201D01*
X0087260Y0078179D01*
X0087057Y0078162D01*
X0086854Y0078149D01*
X0086650Y0078142D01*
X0086446Y0078139D01*
X0086242Y0078142D01*
X0086038Y0078149D01*
X0085835Y0078162D01*
X0085632Y0078179D01*
X0085429Y0078201D01*
X0085227Y0078229D01*
X0085026Y0078261D01*
X0084825Y0078299D01*
X0084626Y0078341D01*
X0084428Y0078388D01*
X0084230Y0078440D01*
X0084035Y0078497D01*
X0083840Y0078558D01*
X0083647Y0078625D01*
X0083456Y0078696D01*
X0083267Y0078771D01*
X0083080Y0078852D01*
X0082894Y0078937D01*
X0082711Y0079026D01*
X0082530Y0079120D01*
X0082351Y0079218D01*
X0082175Y0079321D01*
X0082002Y0079428D01*
X0081831Y0079539D01*
X0081663Y0079654D01*
X0081498Y0079774D01*
X0081335Y0079897D01*
X0081176Y0080025D01*
X0081020Y0080156D01*
X0080867Y0080291D01*
X0080718Y0080430D01*
X0080572Y0080572D01*
X0080430Y0080718D01*
X0080291Y0080867D01*
X0080156Y0081020D01*
X0080025Y0081176D01*
X0079897Y0081335D01*
X0079774Y0081498D01*
X0079654Y0081663D01*
X0079539Y0081831D01*
X0079428Y0082002D01*
X0079321Y0082175D01*
X0079218Y0082351D01*
X0079120Y0082530D01*
X0079026Y0082711D01*
X0078937Y0082894D01*
X0078852Y0083080D01*
X0078771Y0083267D01*
X0078696Y0083456D01*
X0078625Y0083647D01*
X0078558Y0083840D01*
X0078497Y0084035D01*
X0078440Y0084230D01*
X0078388Y0084428D01*
X0078341Y0084626D01*
X0078299Y0084825D01*
X0078261Y0085026D01*
X0078229Y0085227D01*
X0078201Y0085429D01*
X0078179Y0085632D01*
X0078162Y0085835D01*
X0078149Y0086038D01*
X0078142Y0086242D01*
X0078139Y0086446D01*
X0184438Y0086446D02*
X0184441Y0086650D01*
X0184448Y0086854D01*
X0184461Y0087057D01*
X0184478Y0087260D01*
X0184500Y0087463D01*
X0184528Y0087665D01*
X0184560Y0087866D01*
X0184598Y0088067D01*
X0184640Y0088266D01*
X0184687Y0088464D01*
X0184739Y0088662D01*
X0184796Y0088857D01*
X0184857Y0089052D01*
X0184924Y0089245D01*
X0184995Y0089436D01*
X0185070Y0089625D01*
X0185151Y0089812D01*
X0185236Y0089998D01*
X0185325Y0090181D01*
X0185419Y0090362D01*
X0185517Y0090541D01*
X0185620Y0090717D01*
X0185727Y0090890D01*
X0185838Y0091061D01*
X0185953Y0091229D01*
X0186073Y0091394D01*
X0186196Y0091557D01*
X0186324Y0091716D01*
X0186455Y0091872D01*
X0186590Y0092025D01*
X0186729Y0092174D01*
X0186871Y0092320D01*
X0187017Y0092462D01*
X0187166Y0092601D01*
X0187319Y0092736D01*
X0187475Y0092867D01*
X0187634Y0092995D01*
X0187797Y0093118D01*
X0187962Y0093238D01*
X0188130Y0093353D01*
X0188301Y0093464D01*
X0188474Y0093571D01*
X0188650Y0093674D01*
X0188829Y0093772D01*
X0189010Y0093866D01*
X0189193Y0093955D01*
X0189379Y0094040D01*
X0189566Y0094121D01*
X0189755Y0094196D01*
X0189946Y0094267D01*
X0190139Y0094334D01*
X0190334Y0094395D01*
X0190529Y0094452D01*
X0190727Y0094504D01*
X0190925Y0094551D01*
X0191124Y0094593D01*
X0191325Y0094631D01*
X0191526Y0094663D01*
X0191728Y0094691D01*
X0191931Y0094713D01*
X0192134Y0094730D01*
X0192337Y0094743D01*
X0192541Y0094750D01*
X0192745Y0094753D01*
X0192949Y0094750D01*
X0193153Y0094743D01*
X0193356Y0094730D01*
X0193559Y0094713D01*
X0193762Y0094691D01*
X0193964Y0094663D01*
X0194165Y0094631D01*
X0194366Y0094593D01*
X0194565Y0094551D01*
X0194763Y0094504D01*
X0194961Y0094452D01*
X0195156Y0094395D01*
X0195351Y0094334D01*
X0195544Y0094267D01*
X0195735Y0094196D01*
X0195924Y0094121D01*
X0196111Y0094040D01*
X0196297Y0093955D01*
X0196480Y0093866D01*
X0196661Y0093772D01*
X0196840Y0093674D01*
X0197016Y0093571D01*
X0197189Y0093464D01*
X0197360Y0093353D01*
X0197528Y0093238D01*
X0197693Y0093118D01*
X0197856Y0092995D01*
X0198015Y0092867D01*
X0198171Y0092736D01*
X0198324Y0092601D01*
X0198473Y0092462D01*
X0198619Y0092320D01*
X0198761Y0092174D01*
X0198900Y0092025D01*
X0199035Y0091872D01*
X0199166Y0091716D01*
X0199294Y0091557D01*
X0199417Y0091394D01*
X0199537Y0091229D01*
X0199652Y0091061D01*
X0199763Y0090890D01*
X0199870Y0090717D01*
X0199973Y0090541D01*
X0200071Y0090362D01*
X0200165Y0090181D01*
X0200254Y0089998D01*
X0200339Y0089812D01*
X0200420Y0089625D01*
X0200495Y0089436D01*
X0200566Y0089245D01*
X0200633Y0089052D01*
X0200694Y0088857D01*
X0200751Y0088662D01*
X0200803Y0088464D01*
X0200850Y0088266D01*
X0200892Y0088067D01*
X0200930Y0087866D01*
X0200962Y0087665D01*
X0200990Y0087463D01*
X0201012Y0087260D01*
X0201029Y0087057D01*
X0201042Y0086854D01*
X0201049Y0086650D01*
X0201052Y0086446D01*
X0201049Y0086242D01*
X0201042Y0086038D01*
X0201029Y0085835D01*
X0201012Y0085632D01*
X0200990Y0085429D01*
X0200962Y0085227D01*
X0200930Y0085026D01*
X0200892Y0084825D01*
X0200850Y0084626D01*
X0200803Y0084428D01*
X0200751Y0084230D01*
X0200694Y0084035D01*
X0200633Y0083840D01*
X0200566Y0083647D01*
X0200495Y0083456D01*
X0200420Y0083267D01*
X0200339Y0083080D01*
X0200254Y0082894D01*
X0200165Y0082711D01*
X0200071Y0082530D01*
X0199973Y0082351D01*
X0199870Y0082175D01*
X0199763Y0082002D01*
X0199652Y0081831D01*
X0199537Y0081663D01*
X0199417Y0081498D01*
X0199294Y0081335D01*
X0199166Y0081176D01*
X0199035Y0081020D01*
X0198900Y0080867D01*
X0198761Y0080718D01*
X0198619Y0080572D01*
X0198473Y0080430D01*
X0198324Y0080291D01*
X0198171Y0080156D01*
X0198015Y0080025D01*
X0197856Y0079897D01*
X0197693Y0079774D01*
X0197528Y0079654D01*
X0197360Y0079539D01*
X0197189Y0079428D01*
X0197016Y0079321D01*
X0196840Y0079218D01*
X0196661Y0079120D01*
X0196480Y0079026D01*
X0196297Y0078937D01*
X0196111Y0078852D01*
X0195924Y0078771D01*
X0195735Y0078696D01*
X0195544Y0078625D01*
X0195351Y0078558D01*
X0195156Y0078497D01*
X0194961Y0078440D01*
X0194763Y0078388D01*
X0194565Y0078341D01*
X0194366Y0078299D01*
X0194165Y0078261D01*
X0193964Y0078229D01*
X0193762Y0078201D01*
X0193559Y0078179D01*
X0193356Y0078162D01*
X0193153Y0078149D01*
X0192949Y0078142D01*
X0192745Y0078139D01*
X0192541Y0078142D01*
X0192337Y0078149D01*
X0192134Y0078162D01*
X0191931Y0078179D01*
X0191728Y0078201D01*
X0191526Y0078229D01*
X0191325Y0078261D01*
X0191124Y0078299D01*
X0190925Y0078341D01*
X0190727Y0078388D01*
X0190529Y0078440D01*
X0190334Y0078497D01*
X0190139Y0078558D01*
X0189946Y0078625D01*
X0189755Y0078696D01*
X0189566Y0078771D01*
X0189379Y0078852D01*
X0189193Y0078937D01*
X0189010Y0079026D01*
X0188829Y0079120D01*
X0188650Y0079218D01*
X0188474Y0079321D01*
X0188301Y0079428D01*
X0188130Y0079539D01*
X0187962Y0079654D01*
X0187797Y0079774D01*
X0187634Y0079897D01*
X0187475Y0080025D01*
X0187319Y0080156D01*
X0187166Y0080291D01*
X0187017Y0080430D01*
X0186871Y0080572D01*
X0186729Y0080718D01*
X0186590Y0080867D01*
X0186455Y0081020D01*
X0186324Y0081176D01*
X0186196Y0081335D01*
X0186073Y0081498D01*
X0185953Y0081663D01*
X0185838Y0081831D01*
X0185727Y0082002D01*
X0185620Y0082175D01*
X0185517Y0082351D01*
X0185419Y0082530D01*
X0185325Y0082711D01*
X0185236Y0082894D01*
X0185151Y0083080D01*
X0185070Y0083267D01*
X0184995Y0083456D01*
X0184924Y0083647D01*
X0184857Y0083840D01*
X0184796Y0084035D01*
X0184739Y0084230D01*
X0184687Y0084428D01*
X0184640Y0084626D01*
X0184598Y0084825D01*
X0184560Y0085026D01*
X0184528Y0085227D01*
X0184500Y0085429D01*
X0184478Y0085632D01*
X0184461Y0085835D01*
X0184448Y0086038D01*
X0184441Y0086242D01*
X0184438Y0086446D01*
X0251898Y0192450D02*
X0251900Y0192581D01*
X0251906Y0192713D01*
X0251916Y0192844D01*
X0251930Y0192975D01*
X0251948Y0193105D01*
X0251970Y0193234D01*
X0251995Y0193363D01*
X0252025Y0193491D01*
X0252059Y0193618D01*
X0252096Y0193745D01*
X0252137Y0193869D01*
X0252182Y0193993D01*
X0252231Y0194115D01*
X0252283Y0194236D01*
X0252339Y0194354D01*
X0252399Y0194472D01*
X0252462Y0194587D01*
X0252529Y0194700D01*
X0252599Y0194812D01*
X0252672Y0194921D01*
X0252748Y0195027D01*
X0252828Y0195132D01*
X0252911Y0195234D01*
X0252997Y0195333D01*
X0253086Y0195430D01*
X0253178Y0195524D01*
X0253273Y0195615D01*
X0253370Y0195704D01*
X0253470Y0195789D01*
X0253573Y0195871D01*
X0253678Y0195950D01*
X0253785Y0196026D01*
X0253895Y0196098D01*
X0254007Y0196167D01*
X0254121Y0196233D01*
X0254236Y0196295D01*
X0254354Y0196354D01*
X0254473Y0196409D01*
X0254594Y0196461D01*
X0254717Y0196508D01*
X0254841Y0196552D01*
X0254966Y0196593D01*
X0255092Y0196629D01*
X0255220Y0196662D01*
X0255348Y0196690D01*
X0255477Y0196715D01*
X0255607Y0196736D01*
X0255737Y0196753D01*
X0255868Y0196766D01*
X0255999Y0196775D01*
X0256130Y0196780D01*
X0256262Y0196781D01*
X0256393Y0196778D01*
X0256525Y0196771D01*
X0256656Y0196760D01*
X0256786Y0196745D01*
X0256916Y0196726D01*
X0257046Y0196703D01*
X0257174Y0196677D01*
X0257302Y0196646D01*
X0257429Y0196611D01*
X0257555Y0196573D01*
X0257679Y0196531D01*
X0257803Y0196485D01*
X0257924Y0196435D01*
X0258044Y0196382D01*
X0258163Y0196325D01*
X0258280Y0196265D01*
X0258394Y0196201D01*
X0258507Y0196133D01*
X0258618Y0196062D01*
X0258727Y0195988D01*
X0258833Y0195911D01*
X0258937Y0195830D01*
X0259038Y0195747D01*
X0259137Y0195660D01*
X0259233Y0195570D01*
X0259326Y0195477D01*
X0259417Y0195382D01*
X0259504Y0195284D01*
X0259589Y0195183D01*
X0259670Y0195080D01*
X0259748Y0194974D01*
X0259823Y0194866D01*
X0259895Y0194756D01*
X0259963Y0194644D01*
X0260028Y0194530D01*
X0260089Y0194413D01*
X0260147Y0194295D01*
X0260201Y0194175D01*
X0260252Y0194054D01*
X0260299Y0193931D01*
X0260342Y0193807D01*
X0260381Y0193682D01*
X0260417Y0193555D01*
X0260448Y0193427D01*
X0260476Y0193299D01*
X0260500Y0193170D01*
X0260520Y0193040D01*
X0260536Y0192909D01*
X0260548Y0192778D01*
X0260556Y0192647D01*
X0260560Y0192516D01*
X0260560Y0192384D01*
X0260556Y0192253D01*
X0260548Y0192122D01*
X0260536Y0191991D01*
X0260520Y0191860D01*
X0260500Y0191730D01*
X0260476Y0191601D01*
X0260448Y0191473D01*
X0260417Y0191345D01*
X0260381Y0191218D01*
X0260342Y0191093D01*
X0260299Y0190969D01*
X0260252Y0190846D01*
X0260201Y0190725D01*
X0260147Y0190605D01*
X0260089Y0190487D01*
X0260028Y0190370D01*
X0259963Y0190256D01*
X0259895Y0190144D01*
X0259823Y0190034D01*
X0259748Y0189926D01*
X0259670Y0189820D01*
X0259589Y0189717D01*
X0259504Y0189616D01*
X0259417Y0189518D01*
X0259326Y0189423D01*
X0259233Y0189330D01*
X0259137Y0189240D01*
X0259038Y0189153D01*
X0258937Y0189070D01*
X0258833Y0188989D01*
X0258727Y0188912D01*
X0258618Y0188838D01*
X0258507Y0188767D01*
X0258395Y0188699D01*
X0258280Y0188635D01*
X0258163Y0188575D01*
X0258044Y0188518D01*
X0257924Y0188465D01*
X0257803Y0188415D01*
X0257679Y0188369D01*
X0257555Y0188327D01*
X0257429Y0188289D01*
X0257302Y0188254D01*
X0257174Y0188223D01*
X0257046Y0188197D01*
X0256916Y0188174D01*
X0256786Y0188155D01*
X0256656Y0188140D01*
X0256525Y0188129D01*
X0256393Y0188122D01*
X0256262Y0188119D01*
X0256130Y0188120D01*
X0255999Y0188125D01*
X0255868Y0188134D01*
X0255737Y0188147D01*
X0255607Y0188164D01*
X0255477Y0188185D01*
X0255348Y0188210D01*
X0255220Y0188238D01*
X0255092Y0188271D01*
X0254966Y0188307D01*
X0254841Y0188348D01*
X0254717Y0188392D01*
X0254594Y0188439D01*
X0254473Y0188491D01*
X0254354Y0188546D01*
X0254236Y0188605D01*
X0254121Y0188667D01*
X0254007Y0188733D01*
X0253895Y0188802D01*
X0253785Y0188874D01*
X0253678Y0188950D01*
X0253573Y0189029D01*
X0253470Y0189111D01*
X0253370Y0189196D01*
X0253273Y0189285D01*
X0253178Y0189376D01*
X0253086Y0189470D01*
X0252997Y0189567D01*
X0252911Y0189666D01*
X0252828Y0189768D01*
X0252748Y0189873D01*
X0252672Y0189979D01*
X0252599Y0190088D01*
X0252529Y0190200D01*
X0252462Y0190313D01*
X0252399Y0190428D01*
X0252339Y0190546D01*
X0252283Y0190664D01*
X0252231Y0190785D01*
X0252182Y0190907D01*
X0252137Y0191031D01*
X0252096Y0191155D01*
X0252059Y0191282D01*
X0252025Y0191409D01*
X0251995Y0191537D01*
X0251970Y0191666D01*
X0251948Y0191795D01*
X0251930Y0191925D01*
X0251916Y0192056D01*
X0251906Y0192187D01*
X0251900Y0192319D01*
X0251898Y0192450D01*
X0184438Y0192745D02*
X0184441Y0192949D01*
X0184448Y0193153D01*
X0184461Y0193356D01*
X0184478Y0193559D01*
X0184500Y0193762D01*
X0184528Y0193964D01*
X0184560Y0194165D01*
X0184598Y0194366D01*
X0184640Y0194565D01*
X0184687Y0194763D01*
X0184739Y0194961D01*
X0184796Y0195156D01*
X0184857Y0195351D01*
X0184924Y0195544D01*
X0184995Y0195735D01*
X0185070Y0195924D01*
X0185151Y0196111D01*
X0185236Y0196297D01*
X0185325Y0196480D01*
X0185419Y0196661D01*
X0185517Y0196840D01*
X0185620Y0197016D01*
X0185727Y0197189D01*
X0185838Y0197360D01*
X0185953Y0197528D01*
X0186073Y0197693D01*
X0186196Y0197856D01*
X0186324Y0198015D01*
X0186455Y0198171D01*
X0186590Y0198324D01*
X0186729Y0198473D01*
X0186871Y0198619D01*
X0187017Y0198761D01*
X0187166Y0198900D01*
X0187319Y0199035D01*
X0187475Y0199166D01*
X0187634Y0199294D01*
X0187797Y0199417D01*
X0187962Y0199537D01*
X0188130Y0199652D01*
X0188301Y0199763D01*
X0188474Y0199870D01*
X0188650Y0199973D01*
X0188829Y0200071D01*
X0189010Y0200165D01*
X0189193Y0200254D01*
X0189379Y0200339D01*
X0189566Y0200420D01*
X0189755Y0200495D01*
X0189946Y0200566D01*
X0190139Y0200633D01*
X0190334Y0200694D01*
X0190529Y0200751D01*
X0190727Y0200803D01*
X0190925Y0200850D01*
X0191124Y0200892D01*
X0191325Y0200930D01*
X0191526Y0200962D01*
X0191728Y0200990D01*
X0191931Y0201012D01*
X0192134Y0201029D01*
X0192337Y0201042D01*
X0192541Y0201049D01*
X0192745Y0201052D01*
X0192949Y0201049D01*
X0193153Y0201042D01*
X0193356Y0201029D01*
X0193559Y0201012D01*
X0193762Y0200990D01*
X0193964Y0200962D01*
X0194165Y0200930D01*
X0194366Y0200892D01*
X0194565Y0200850D01*
X0194763Y0200803D01*
X0194961Y0200751D01*
X0195156Y0200694D01*
X0195351Y0200633D01*
X0195544Y0200566D01*
X0195735Y0200495D01*
X0195924Y0200420D01*
X0196111Y0200339D01*
X0196297Y0200254D01*
X0196480Y0200165D01*
X0196661Y0200071D01*
X0196840Y0199973D01*
X0197016Y0199870D01*
X0197189Y0199763D01*
X0197360Y0199652D01*
X0197528Y0199537D01*
X0197693Y0199417D01*
X0197856Y0199294D01*
X0198015Y0199166D01*
X0198171Y0199035D01*
X0198324Y0198900D01*
X0198473Y0198761D01*
X0198619Y0198619D01*
X0198761Y0198473D01*
X0198900Y0198324D01*
X0199035Y0198171D01*
X0199166Y0198015D01*
X0199294Y0197856D01*
X0199417Y0197693D01*
X0199537Y0197528D01*
X0199652Y0197360D01*
X0199763Y0197189D01*
X0199870Y0197016D01*
X0199973Y0196840D01*
X0200071Y0196661D01*
X0200165Y0196480D01*
X0200254Y0196297D01*
X0200339Y0196111D01*
X0200420Y0195924D01*
X0200495Y0195735D01*
X0200566Y0195544D01*
X0200633Y0195351D01*
X0200694Y0195156D01*
X0200751Y0194961D01*
X0200803Y0194763D01*
X0200850Y0194565D01*
X0200892Y0194366D01*
X0200930Y0194165D01*
X0200962Y0193964D01*
X0200990Y0193762D01*
X0201012Y0193559D01*
X0201029Y0193356D01*
X0201042Y0193153D01*
X0201049Y0192949D01*
X0201052Y0192745D01*
X0201049Y0192541D01*
X0201042Y0192337D01*
X0201029Y0192134D01*
X0201012Y0191931D01*
X0200990Y0191728D01*
X0200962Y0191526D01*
X0200930Y0191325D01*
X0200892Y0191124D01*
X0200850Y0190925D01*
X0200803Y0190727D01*
X0200751Y0190529D01*
X0200694Y0190334D01*
X0200633Y0190139D01*
X0200566Y0189946D01*
X0200495Y0189755D01*
X0200420Y0189566D01*
X0200339Y0189379D01*
X0200254Y0189193D01*
X0200165Y0189010D01*
X0200071Y0188829D01*
X0199973Y0188650D01*
X0199870Y0188474D01*
X0199763Y0188301D01*
X0199652Y0188130D01*
X0199537Y0187962D01*
X0199417Y0187797D01*
X0199294Y0187634D01*
X0199166Y0187475D01*
X0199035Y0187319D01*
X0198900Y0187166D01*
X0198761Y0187017D01*
X0198619Y0186871D01*
X0198473Y0186729D01*
X0198324Y0186590D01*
X0198171Y0186455D01*
X0198015Y0186324D01*
X0197856Y0186196D01*
X0197693Y0186073D01*
X0197528Y0185953D01*
X0197360Y0185838D01*
X0197189Y0185727D01*
X0197016Y0185620D01*
X0196840Y0185517D01*
X0196661Y0185419D01*
X0196480Y0185325D01*
X0196297Y0185236D01*
X0196111Y0185151D01*
X0195924Y0185070D01*
X0195735Y0184995D01*
X0195544Y0184924D01*
X0195351Y0184857D01*
X0195156Y0184796D01*
X0194961Y0184739D01*
X0194763Y0184687D01*
X0194565Y0184640D01*
X0194366Y0184598D01*
X0194165Y0184560D01*
X0193964Y0184528D01*
X0193762Y0184500D01*
X0193559Y0184478D01*
X0193356Y0184461D01*
X0193153Y0184448D01*
X0192949Y0184441D01*
X0192745Y0184438D01*
X0192541Y0184441D01*
X0192337Y0184448D01*
X0192134Y0184461D01*
X0191931Y0184478D01*
X0191728Y0184500D01*
X0191526Y0184528D01*
X0191325Y0184560D01*
X0191124Y0184598D01*
X0190925Y0184640D01*
X0190727Y0184687D01*
X0190529Y0184739D01*
X0190334Y0184796D01*
X0190139Y0184857D01*
X0189946Y0184924D01*
X0189755Y0184995D01*
X0189566Y0185070D01*
X0189379Y0185151D01*
X0189193Y0185236D01*
X0189010Y0185325D01*
X0188829Y0185419D01*
X0188650Y0185517D01*
X0188474Y0185620D01*
X0188301Y0185727D01*
X0188130Y0185838D01*
X0187962Y0185953D01*
X0187797Y0186073D01*
X0187634Y0186196D01*
X0187475Y0186324D01*
X0187319Y0186455D01*
X0187166Y0186590D01*
X0187017Y0186729D01*
X0186871Y0186871D01*
X0186729Y0187017D01*
X0186590Y0187166D01*
X0186455Y0187319D01*
X0186324Y0187475D01*
X0186196Y0187634D01*
X0186073Y0187797D01*
X0185953Y0187962D01*
X0185838Y0188130D01*
X0185727Y0188301D01*
X0185620Y0188474D01*
X0185517Y0188650D01*
X0185419Y0188829D01*
X0185325Y0189010D01*
X0185236Y0189193D01*
X0185151Y0189379D01*
X0185070Y0189566D01*
X0184995Y0189755D01*
X0184924Y0189946D01*
X0184857Y0190139D01*
X0184796Y0190334D01*
X0184739Y0190529D01*
X0184687Y0190727D01*
X0184640Y0190925D01*
X0184598Y0191124D01*
X0184560Y0191325D01*
X0184528Y0191526D01*
X0184500Y0191728D01*
X0184478Y0191931D01*
X0184461Y0192134D01*
X0184448Y0192337D01*
X0184441Y0192541D01*
X0184438Y0192745D01*
X0078139Y0192745D02*
X0078142Y0192949D01*
X0078149Y0193153D01*
X0078162Y0193356D01*
X0078179Y0193559D01*
X0078201Y0193762D01*
X0078229Y0193964D01*
X0078261Y0194165D01*
X0078299Y0194366D01*
X0078341Y0194565D01*
X0078388Y0194763D01*
X0078440Y0194961D01*
X0078497Y0195156D01*
X0078558Y0195351D01*
X0078625Y0195544D01*
X0078696Y0195735D01*
X0078771Y0195924D01*
X0078852Y0196111D01*
X0078937Y0196297D01*
X0079026Y0196480D01*
X0079120Y0196661D01*
X0079218Y0196840D01*
X0079321Y0197016D01*
X0079428Y0197189D01*
X0079539Y0197360D01*
X0079654Y0197528D01*
X0079774Y0197693D01*
X0079897Y0197856D01*
X0080025Y0198015D01*
X0080156Y0198171D01*
X0080291Y0198324D01*
X0080430Y0198473D01*
X0080572Y0198619D01*
X0080718Y0198761D01*
X0080867Y0198900D01*
X0081020Y0199035D01*
X0081176Y0199166D01*
X0081335Y0199294D01*
X0081498Y0199417D01*
X0081663Y0199537D01*
X0081831Y0199652D01*
X0082002Y0199763D01*
X0082175Y0199870D01*
X0082351Y0199973D01*
X0082530Y0200071D01*
X0082711Y0200165D01*
X0082894Y0200254D01*
X0083080Y0200339D01*
X0083267Y0200420D01*
X0083456Y0200495D01*
X0083647Y0200566D01*
X0083840Y0200633D01*
X0084035Y0200694D01*
X0084230Y0200751D01*
X0084428Y0200803D01*
X0084626Y0200850D01*
X0084825Y0200892D01*
X0085026Y0200930D01*
X0085227Y0200962D01*
X0085429Y0200990D01*
X0085632Y0201012D01*
X0085835Y0201029D01*
X0086038Y0201042D01*
X0086242Y0201049D01*
X0086446Y0201052D01*
X0086650Y0201049D01*
X0086854Y0201042D01*
X0087057Y0201029D01*
X0087260Y0201012D01*
X0087463Y0200990D01*
X0087665Y0200962D01*
X0087866Y0200930D01*
X0088067Y0200892D01*
X0088266Y0200850D01*
X0088464Y0200803D01*
X0088662Y0200751D01*
X0088857Y0200694D01*
X0089052Y0200633D01*
X0089245Y0200566D01*
X0089436Y0200495D01*
X0089625Y0200420D01*
X0089812Y0200339D01*
X0089998Y0200254D01*
X0090181Y0200165D01*
X0090362Y0200071D01*
X0090541Y0199973D01*
X0090717Y0199870D01*
X0090890Y0199763D01*
X0091061Y0199652D01*
X0091229Y0199537D01*
X0091394Y0199417D01*
X0091557Y0199294D01*
X0091716Y0199166D01*
X0091872Y0199035D01*
X0092025Y0198900D01*
X0092174Y0198761D01*
X0092320Y0198619D01*
X0092462Y0198473D01*
X0092601Y0198324D01*
X0092736Y0198171D01*
X0092867Y0198015D01*
X0092995Y0197856D01*
X0093118Y0197693D01*
X0093238Y0197528D01*
X0093353Y0197360D01*
X0093464Y0197189D01*
X0093571Y0197016D01*
X0093674Y0196840D01*
X0093772Y0196661D01*
X0093866Y0196480D01*
X0093955Y0196297D01*
X0094040Y0196111D01*
X0094121Y0195924D01*
X0094196Y0195735D01*
X0094267Y0195544D01*
X0094334Y0195351D01*
X0094395Y0195156D01*
X0094452Y0194961D01*
X0094504Y0194763D01*
X0094551Y0194565D01*
X0094593Y0194366D01*
X0094631Y0194165D01*
X0094663Y0193964D01*
X0094691Y0193762D01*
X0094713Y0193559D01*
X0094730Y0193356D01*
X0094743Y0193153D01*
X0094750Y0192949D01*
X0094753Y0192745D01*
X0094750Y0192541D01*
X0094743Y0192337D01*
X0094730Y0192134D01*
X0094713Y0191931D01*
X0094691Y0191728D01*
X0094663Y0191526D01*
X0094631Y0191325D01*
X0094593Y0191124D01*
X0094551Y0190925D01*
X0094504Y0190727D01*
X0094452Y0190529D01*
X0094395Y0190334D01*
X0094334Y0190139D01*
X0094267Y0189946D01*
X0094196Y0189755D01*
X0094121Y0189566D01*
X0094040Y0189379D01*
X0093955Y0189193D01*
X0093866Y0189010D01*
X0093772Y0188829D01*
X0093674Y0188650D01*
X0093571Y0188474D01*
X0093464Y0188301D01*
X0093353Y0188130D01*
X0093238Y0187962D01*
X0093118Y0187797D01*
X0092995Y0187634D01*
X0092867Y0187475D01*
X0092736Y0187319D01*
X0092601Y0187166D01*
X0092462Y0187017D01*
X0092320Y0186871D01*
X0092174Y0186729D01*
X0092025Y0186590D01*
X0091872Y0186455D01*
X0091716Y0186324D01*
X0091557Y0186196D01*
X0091394Y0186073D01*
X0091229Y0185953D01*
X0091061Y0185838D01*
X0090890Y0185727D01*
X0090717Y0185620D01*
X0090541Y0185517D01*
X0090362Y0185419D01*
X0090181Y0185325D01*
X0089998Y0185236D01*
X0089812Y0185151D01*
X0089625Y0185070D01*
X0089436Y0184995D01*
X0089245Y0184924D01*
X0089052Y0184857D01*
X0088857Y0184796D01*
X0088662Y0184739D01*
X0088464Y0184687D01*
X0088266Y0184640D01*
X0088067Y0184598D01*
X0087866Y0184560D01*
X0087665Y0184528D01*
X0087463Y0184500D01*
X0087260Y0184478D01*
X0087057Y0184461D01*
X0086854Y0184448D01*
X0086650Y0184441D01*
X0086446Y0184438D01*
X0086242Y0184441D01*
X0086038Y0184448D01*
X0085835Y0184461D01*
X0085632Y0184478D01*
X0085429Y0184500D01*
X0085227Y0184528D01*
X0085026Y0184560D01*
X0084825Y0184598D01*
X0084626Y0184640D01*
X0084428Y0184687D01*
X0084230Y0184739D01*
X0084035Y0184796D01*
X0083840Y0184857D01*
X0083647Y0184924D01*
X0083456Y0184995D01*
X0083267Y0185070D01*
X0083080Y0185151D01*
X0082894Y0185236D01*
X0082711Y0185325D01*
X0082530Y0185419D01*
X0082351Y0185517D01*
X0082175Y0185620D01*
X0082002Y0185727D01*
X0081831Y0185838D01*
X0081663Y0185953D01*
X0081498Y0186073D01*
X0081335Y0186196D01*
X0081176Y0186324D01*
X0081020Y0186455D01*
X0080867Y0186590D01*
X0080718Y0186729D01*
X0080572Y0186871D01*
X0080430Y0187017D01*
X0080291Y0187166D01*
X0080156Y0187319D01*
X0080025Y0187475D01*
X0079897Y0187634D01*
X0079774Y0187797D01*
X0079654Y0187962D01*
X0079539Y0188130D01*
X0079428Y0188301D01*
X0079321Y0188474D01*
X0079218Y0188650D01*
X0079120Y0188829D01*
X0079026Y0189010D01*
X0078937Y0189193D01*
X0078852Y0189379D01*
X0078771Y0189566D01*
X0078696Y0189755D01*
X0078625Y0189946D01*
X0078558Y0190139D01*
X0078497Y0190334D01*
X0078440Y0190529D01*
X0078388Y0190727D01*
X0078341Y0190925D01*
X0078299Y0191124D01*
X0078261Y0191325D01*
X0078229Y0191526D01*
X0078201Y0191728D01*
X0078179Y0191931D01*
X0078162Y0192134D01*
X0078149Y0192337D01*
X0078142Y0192541D01*
X0078139Y0192745D01*
D12*
X0092351Y0139595D02*
X0092365Y0140754D01*
X0092408Y0141913D01*
X0092479Y0143070D01*
X0092578Y0144226D01*
X0092706Y0145378D01*
X0092862Y0146527D01*
X0093047Y0147672D01*
X0093259Y0148812D01*
X0093499Y0149946D01*
X0093767Y0151074D01*
X0094062Y0152196D01*
X0094385Y0153309D01*
X0094735Y0154415D01*
X0095113Y0155511D01*
X0095517Y0156598D01*
X0095947Y0157674D01*
X0096404Y0158740D01*
X0096887Y0159794D01*
X0097396Y0160836D01*
X0097930Y0161866D01*
X0098489Y0162881D01*
X0099072Y0163883D01*
X0099681Y0164870D01*
X0100313Y0165842D01*
X0100969Y0166798D01*
X0101648Y0167738D01*
X0102350Y0168661D01*
X0103075Y0169566D01*
X0103821Y0170453D01*
X0104590Y0171322D01*
X0105379Y0172172D01*
X0106188Y0173002D01*
X0107018Y0173811D01*
X0107868Y0174600D01*
X0108737Y0175369D01*
X0109624Y0176115D01*
X0110529Y0176840D01*
X0111452Y0177542D01*
X0112392Y0178221D01*
X0113348Y0178877D01*
X0114320Y0179509D01*
X0115307Y0180118D01*
X0116309Y0180701D01*
X0117324Y0181260D01*
X0118354Y0181794D01*
X0119396Y0182303D01*
X0120450Y0182786D01*
X0121516Y0183243D01*
X0122592Y0183673D01*
X0123679Y0184077D01*
X0124775Y0184455D01*
X0125881Y0184805D01*
X0126994Y0185128D01*
X0128116Y0185423D01*
X0129244Y0185691D01*
X0130378Y0185931D01*
X0131518Y0186143D01*
X0132663Y0186328D01*
X0133812Y0186484D01*
X0134964Y0186612D01*
X0136120Y0186711D01*
X0137277Y0186782D01*
X0138436Y0186825D01*
X0139595Y0186839D01*
X0140754Y0186825D01*
X0141913Y0186782D01*
X0143070Y0186711D01*
X0144226Y0186612D01*
X0145378Y0186484D01*
X0146527Y0186328D01*
X0147672Y0186143D01*
X0148812Y0185931D01*
X0149946Y0185691D01*
X0151074Y0185423D01*
X0152196Y0185128D01*
X0153309Y0184805D01*
X0154415Y0184455D01*
X0155511Y0184077D01*
X0156598Y0183673D01*
X0157674Y0183243D01*
X0158740Y0182786D01*
X0159794Y0182303D01*
X0160836Y0181794D01*
X0161866Y0181260D01*
X0162881Y0180701D01*
X0163883Y0180118D01*
X0164870Y0179509D01*
X0165842Y0178877D01*
X0166798Y0178221D01*
X0167738Y0177542D01*
X0168661Y0176840D01*
X0169566Y0176115D01*
X0170453Y0175369D01*
X0171322Y0174600D01*
X0172172Y0173811D01*
X0173002Y0173002D01*
X0173811Y0172172D01*
X0174600Y0171322D01*
X0175369Y0170453D01*
X0176115Y0169566D01*
X0176840Y0168661D01*
X0177542Y0167738D01*
X0178221Y0166798D01*
X0178877Y0165842D01*
X0179509Y0164870D01*
X0180118Y0163883D01*
X0180701Y0162881D01*
X0181260Y0161866D01*
X0181794Y0160836D01*
X0182303Y0159794D01*
X0182786Y0158740D01*
X0183243Y0157674D01*
X0183673Y0156598D01*
X0184077Y0155511D01*
X0184455Y0154415D01*
X0184805Y0153309D01*
X0185128Y0152196D01*
X0185423Y0151074D01*
X0185691Y0149946D01*
X0185931Y0148812D01*
X0186143Y0147672D01*
X0186328Y0146527D01*
X0186484Y0145378D01*
X0186612Y0144226D01*
X0186711Y0143070D01*
X0186782Y0141913D01*
X0186825Y0140754D01*
X0186839Y0139595D01*
X0186825Y0138436D01*
X0186782Y0137277D01*
X0186711Y0136120D01*
X0186612Y0134964D01*
X0186484Y0133812D01*
X0186328Y0132663D01*
X0186143Y0131518D01*
X0185931Y0130378D01*
X0185691Y0129244D01*
X0185423Y0128116D01*
X0185128Y0126994D01*
X0184805Y0125881D01*
X0184455Y0124775D01*
X0184077Y0123679D01*
X0183673Y0122592D01*
X0183243Y0121516D01*
X0182786Y0120450D01*
X0182303Y0119396D01*
X0181794Y0118354D01*
X0181260Y0117324D01*
X0180701Y0116309D01*
X0180118Y0115307D01*
X0179509Y0114320D01*
X0178877Y0113348D01*
X0178221Y0112392D01*
X0177542Y0111452D01*
X0176840Y0110529D01*
X0176115Y0109624D01*
X0175369Y0108737D01*
X0174600Y0107868D01*
X0173811Y0107018D01*
X0173002Y0106188D01*
X0172172Y0105379D01*
X0171322Y0104590D01*
X0170453Y0103821D01*
X0169566Y0103075D01*
X0168661Y0102350D01*
X0167738Y0101648D01*
X0166798Y0100969D01*
X0165842Y0100313D01*
X0164870Y0099681D01*
X0163883Y0099072D01*
X0162881Y0098489D01*
X0161866Y0097930D01*
X0160836Y0097396D01*
X0159794Y0096887D01*
X0158740Y0096404D01*
X0157674Y0095947D01*
X0156598Y0095517D01*
X0155511Y0095113D01*
X0154415Y0094735D01*
X0153309Y0094385D01*
X0152196Y0094062D01*
X0151074Y0093767D01*
X0149946Y0093499D01*
X0148812Y0093259D01*
X0147672Y0093047D01*
X0146527Y0092862D01*
X0145378Y0092706D01*
X0144226Y0092578D01*
X0143070Y0092479D01*
X0141913Y0092408D01*
X0140754Y0092365D01*
X0139595Y0092351D01*
X0138436Y0092365D01*
X0137277Y0092408D01*
X0136120Y0092479D01*
X0134964Y0092578D01*
X0133812Y0092706D01*
X0132663Y0092862D01*
X0131518Y0093047D01*
X0130378Y0093259D01*
X0129244Y0093499D01*
X0128116Y0093767D01*
X0126994Y0094062D01*
X0125881Y0094385D01*
X0124775Y0094735D01*
X0123679Y0095113D01*
X0122592Y0095517D01*
X0121516Y0095947D01*
X0120450Y0096404D01*
X0119396Y0096887D01*
X0118354Y0097396D01*
X0117324Y0097930D01*
X0116309Y0098489D01*
X0115307Y0099072D01*
X0114320Y0099681D01*
X0113348Y0100313D01*
X0112392Y0100969D01*
X0111452Y0101648D01*
X0110529Y0102350D01*
X0109624Y0103075D01*
X0108737Y0103821D01*
X0107868Y0104590D01*
X0107018Y0105379D01*
X0106188Y0106188D01*
X0105379Y0107018D01*
X0104590Y0107868D01*
X0103821Y0108737D01*
X0103075Y0109624D01*
X0102350Y0110529D01*
X0101648Y0111452D01*
X0100969Y0112392D01*
X0100313Y0113348D01*
X0099681Y0114320D01*
X0099072Y0115307D01*
X0098489Y0116309D01*
X0097930Y0117324D01*
X0097396Y0118354D01*
X0096887Y0119396D01*
X0096404Y0120450D01*
X0095947Y0121516D01*
X0095517Y0122592D01*
X0095113Y0123679D01*
X0094735Y0124775D01*
X0094385Y0125881D01*
X0094062Y0126994D01*
X0093767Y0128116D01*
X0093499Y0129244D01*
X0093259Y0130378D01*
X0093047Y0131518D01*
X0092862Y0132663D01*
X0092706Y0133812D01*
X0092578Y0134964D01*
X0092479Y0136120D01*
X0092408Y0137277D01*
X0092365Y0138436D01*
X0092351Y0139595D01*
M02*
