G75*
%MOIN*%
%OFA0B0*%
%FSLAX25Y25*%
%IPPOS*%
%LPD*%
%AMOC8*
5,1,8,0,0,1.08239X$1,22.5*
%
%ADD10C,0.01427*%
%ADD11R,0.01739X0.01739*%
%ADD12C,0.00500*%
%ADD13R,0.04731X0.04337*%
%ADD14C,0.26384*%
%ADD15C,0.17014*%
%ADD16C,0.08668*%
%ADD17C,0.13061*%
%ADD18R,0.09100X0.02800*%
%ADD19R,0.07800X0.07800*%
%ADD20OC8,0.07800*%
%ADD21R,0.06306X0.05518*%
%ADD22R,0.04337X0.04731*%
%ADD23R,0.04337X0.05912*%
%ADD24C,0.12211*%
%ADD25R,0.06699X0.05518*%
%ADD26R,0.06699X0.12998*%
%ADD27R,0.05518X0.07880*%
%ADD28R,0.05912X0.04337*%
%ADD29C,0.16998*%
%ADD30R,0.01975X0.06699*%
%ADD31R,0.07841X0.06581*%
%ADD32R,0.05321X0.05912*%
%ADD33C,0.09061*%
%ADD34C,0.02800*%
D10*
X0104715Y0219872D02*
X0104791Y0219872D01*
X0104715Y0219872D02*
X0104715Y0221248D01*
X0104791Y0221248D01*
X0104791Y0219872D01*
X0106683Y0219872D02*
X0106759Y0219872D01*
X0106683Y0219872D02*
X0106683Y0221248D01*
X0106759Y0221248D01*
X0106759Y0219872D01*
X0108652Y0219872D02*
X0108728Y0219872D01*
X0108652Y0219872D02*
X0108652Y0221248D01*
X0108728Y0221248D01*
X0108728Y0219872D01*
X0110620Y0219872D02*
X0110696Y0219872D01*
X0110620Y0219872D02*
X0110620Y0221248D01*
X0110696Y0221248D01*
X0110696Y0219872D01*
X0112273Y0222825D02*
X0112273Y0222901D01*
X0113649Y0222901D01*
X0113649Y0222825D01*
X0112273Y0222825D01*
X0112273Y0224793D02*
X0112273Y0224869D01*
X0113649Y0224869D01*
X0113649Y0224793D01*
X0112273Y0224793D01*
X0112273Y0226762D02*
X0112273Y0226838D01*
X0113649Y0226838D01*
X0113649Y0226762D01*
X0112273Y0226762D01*
X0112273Y0228731D02*
X0112273Y0228807D01*
X0113649Y0228807D01*
X0113649Y0228731D01*
X0112273Y0228731D01*
X0110696Y0231760D02*
X0110620Y0231760D01*
X0110696Y0231760D02*
X0110696Y0230384D01*
X0110620Y0230384D01*
X0110620Y0231760D01*
X0108728Y0231760D02*
X0108652Y0231760D01*
X0108728Y0231760D02*
X0108728Y0230384D01*
X0108652Y0230384D01*
X0108652Y0231760D01*
X0106759Y0231760D02*
X0106683Y0231760D01*
X0106759Y0231760D02*
X0106759Y0230384D01*
X0106683Y0230384D01*
X0106683Y0231760D01*
X0104791Y0231760D02*
X0104715Y0231760D01*
X0104791Y0231760D02*
X0104791Y0230384D01*
X0104715Y0230384D01*
X0104715Y0231760D01*
X0103138Y0228807D02*
X0103138Y0228731D01*
X0101762Y0228731D01*
X0101762Y0228807D01*
X0103138Y0228807D01*
X0103138Y0226838D02*
X0103138Y0226762D01*
X0101762Y0226762D01*
X0101762Y0226838D01*
X0103138Y0226838D01*
X0103138Y0224869D02*
X0103138Y0224793D01*
X0101762Y0224793D01*
X0101762Y0224869D01*
X0103138Y0224869D01*
X0103138Y0222901D02*
X0103138Y0222825D01*
X0101762Y0222825D01*
X0101762Y0222901D01*
X0103138Y0222901D01*
D11*
X0102725Y0220796D03*
X0112686Y0220835D03*
X0112686Y0230796D03*
X0102725Y0230796D03*
D12*
X0062170Y0033296D02*
X0062564Y0032734D01*
X0063049Y0032249D01*
X0063611Y0031855D01*
X0064233Y0031565D01*
X0064896Y0031387D01*
X0065580Y0031328D01*
X0066263Y0031387D01*
X0066926Y0031565D01*
X0067548Y0031855D01*
X0068110Y0032249D01*
X0068595Y0032734D01*
X0068989Y0033296D01*
X0069279Y0033918D01*
X0069457Y0034581D01*
X0069517Y0035265D01*
X0069457Y0035948D01*
X0069279Y0036611D01*
X0068989Y0037233D01*
X0068595Y0037795D01*
X0068110Y0038280D01*
X0067548Y0038674D01*
X0066926Y0038964D01*
X0066263Y0039142D01*
X0065580Y0039202D01*
X0064896Y0039142D01*
X0064233Y0038964D01*
X0063611Y0038674D01*
X0063049Y0038280D01*
X0062564Y0037795D01*
X0062170Y0037233D01*
X0061880Y0036611D01*
X0061702Y0035948D01*
X0061643Y0035265D01*
X0061702Y0034581D01*
X0061880Y0033918D01*
X0062170Y0033296D01*
X0062233Y0033206D02*
X0068926Y0033206D01*
X0069180Y0033705D02*
X0061979Y0033705D01*
X0061804Y0034203D02*
X0069356Y0034203D01*
X0069467Y0034702D02*
X0061692Y0034702D01*
X0061648Y0035200D02*
X0069511Y0035200D01*
X0069479Y0035699D02*
X0061681Y0035699D01*
X0061769Y0036197D02*
X0069390Y0036197D01*
X0069240Y0036696D02*
X0061919Y0036696D01*
X0062152Y0037194D02*
X0069007Y0037194D01*
X0068667Y0037693D02*
X0062492Y0037693D01*
X0062960Y0038191D02*
X0068199Y0038191D01*
X0067514Y0038690D02*
X0063645Y0038690D01*
X0065428Y0039188D02*
X0065731Y0039188D01*
X0068569Y0032708D02*
X0062590Y0032708D01*
X0063105Y0032209D02*
X0068054Y0032209D01*
X0067238Y0031711D02*
X0063921Y0031711D01*
X0250359Y0137627D02*
X0250753Y0137065D01*
X0251238Y0136579D01*
X0251800Y0136186D01*
X0252422Y0135896D01*
X0253085Y0135718D01*
X0253769Y0135658D01*
X0254452Y0135718D01*
X0255115Y0135896D01*
X0255737Y0136186D01*
X0256299Y0136579D01*
X0256784Y0137065D01*
X0257178Y0137627D01*
X0257468Y0138249D01*
X0257646Y0138912D01*
X0257706Y0139595D01*
X0257646Y0140279D01*
X0257468Y0140942D01*
X0257178Y0141564D01*
X0256784Y0142126D01*
X0256299Y0142611D01*
X0255737Y0143005D01*
X0255115Y0143295D01*
X0254452Y0143472D01*
X0253769Y0143532D01*
X0253085Y0143472D01*
X0252422Y0143295D01*
X0251800Y0143005D01*
X0251238Y0142611D01*
X0250753Y0142126D01*
X0250359Y0141564D01*
X0250069Y0140942D01*
X0249891Y0140279D01*
X0249831Y0139595D01*
X0249891Y0138912D01*
X0250069Y0138249D01*
X0250359Y0137627D01*
X0250521Y0137395D02*
X0257016Y0137395D01*
X0257302Y0137894D02*
X0250235Y0137894D01*
X0250031Y0138392D02*
X0257506Y0138392D01*
X0257640Y0138891D02*
X0249897Y0138891D01*
X0249850Y0139389D02*
X0257687Y0139389D01*
X0257680Y0139888D02*
X0249857Y0139888D01*
X0249920Y0140386D02*
X0257617Y0140386D01*
X0257483Y0140885D02*
X0250054Y0140885D01*
X0250275Y0141383D02*
X0257262Y0141383D01*
X0256955Y0141882D02*
X0250582Y0141882D01*
X0251007Y0142380D02*
X0256530Y0142380D01*
X0255917Y0142879D02*
X0251620Y0142879D01*
X0252729Y0143377D02*
X0254808Y0143377D01*
X0256616Y0136897D02*
X0250921Y0136897D01*
X0251497Y0136398D02*
X0256040Y0136398D01*
X0255123Y0135900D02*
X0252414Y0135900D01*
X0110580Y0222942D02*
X0104831Y0222942D01*
X0104831Y0228690D01*
X0110580Y0228690D01*
X0110580Y0222942D01*
X0110580Y0223139D02*
X0104831Y0223139D01*
X0104831Y0223638D02*
X0110580Y0223638D01*
X0110580Y0224136D02*
X0104831Y0224136D01*
X0104831Y0224635D02*
X0110580Y0224635D01*
X0110580Y0225133D02*
X0104831Y0225133D01*
X0104831Y0225632D02*
X0110580Y0225632D01*
X0110580Y0226130D02*
X0104831Y0226130D01*
X0104831Y0226629D02*
X0110580Y0226629D01*
X0110580Y0227127D02*
X0104831Y0227127D01*
X0104831Y0227626D02*
X0110580Y0227626D01*
X0110580Y0228124D02*
X0104831Y0228124D01*
X0104831Y0228623D02*
X0110580Y0228623D01*
X0077153Y0244154D02*
X0077331Y0244817D01*
X0077391Y0245501D01*
X0077331Y0246184D01*
X0077153Y0246847D01*
X0076863Y0247469D01*
X0076469Y0248031D01*
X0075984Y0248517D01*
X0075422Y0248910D01*
X0074800Y0249200D01*
X0074137Y0249378D01*
X0073454Y0249438D01*
X0072770Y0249378D01*
X0072107Y0249200D01*
X0071485Y0248910D01*
X0070923Y0248517D01*
X0070438Y0248031D01*
X0070044Y0247469D01*
X0069754Y0246847D01*
X0069576Y0246184D01*
X0069517Y0245501D01*
X0069576Y0244817D01*
X0069754Y0244154D01*
X0070044Y0243532D01*
X0070438Y0242970D01*
X0070923Y0242485D01*
X0071485Y0242091D01*
X0072107Y0241801D01*
X0072770Y0241624D01*
X0073454Y0241564D01*
X0074137Y0241624D01*
X0074800Y0241801D01*
X0075422Y0242091D01*
X0075984Y0242485D01*
X0076469Y0242970D01*
X0076863Y0243532D01*
X0077153Y0244154D01*
X0077117Y0244077D02*
X0069790Y0244077D01*
X0069641Y0244575D02*
X0077266Y0244575D01*
X0077353Y0245074D02*
X0069554Y0245074D01*
X0069523Y0245572D02*
X0077384Y0245572D01*
X0077341Y0246071D02*
X0069566Y0246071D01*
X0069679Y0246569D02*
X0077228Y0246569D01*
X0077050Y0247068D02*
X0069857Y0247068D01*
X0070112Y0247566D02*
X0076795Y0247566D01*
X0076436Y0248065D02*
X0070471Y0248065D01*
X0070989Y0248563D02*
X0075918Y0248563D01*
X0075098Y0249062D02*
X0071809Y0249062D01*
X0070023Y0243578D02*
X0076884Y0243578D01*
X0076546Y0243079D02*
X0070361Y0243079D01*
X0070827Y0242581D02*
X0076080Y0242581D01*
X0075403Y0242082D02*
X0071504Y0242082D01*
X0073223Y0241584D02*
X0073684Y0241584D01*
D13*
X0095698Y0242745D03*
X0095698Y0236446D03*
X0102391Y0236446D03*
X0102391Y0242745D03*
X0112627Y0242745D03*
X0112666Y0236446D03*
X0119359Y0236446D03*
X0118985Y0230265D03*
X0125678Y0230265D03*
X0134674Y0236052D03*
X0141367Y0236052D03*
X0119320Y0242745D03*
X0133099Y0205343D03*
X0139792Y0205343D03*
X0220107Y0236839D03*
X0226800Y0236839D03*
X0170894Y0060461D03*
X0164202Y0060461D03*
X0152558Y0049467D03*
X0145865Y0049467D03*
X0145845Y0037991D03*
X0152538Y0037991D03*
X0160215Y0038139D03*
X0166908Y0038139D03*
X0167002Y0029817D03*
X0160309Y0029817D03*
X0152351Y0029817D03*
X0145658Y0029817D03*
X0134772Y0028134D03*
X0128080Y0028134D03*
D14*
X0086446Y0086446D03*
X0039202Y0139595D03*
X0086446Y0192745D03*
X0192745Y0192745D03*
X0192745Y0086446D03*
D15*
X0192745Y0086446D03*
X0086446Y0086446D03*
X0039202Y0139595D03*
X0086446Y0192745D03*
X0192745Y0192745D03*
D16*
X0209477Y0157509D02*
X0217745Y0157509D01*
X0212430Y0139595D02*
X0204162Y0139595D01*
X0209477Y0122076D02*
X0217745Y0122076D01*
D17*
X0233658Y0107115D02*
X0246320Y0107115D01*
X0246320Y0172076D02*
X0233658Y0172076D01*
D18*
X0184687Y0217824D03*
X0184687Y0222824D03*
X0184687Y0227824D03*
X0184687Y0232824D03*
X0158187Y0232824D03*
X0158187Y0227824D03*
X0158187Y0222824D03*
X0158187Y0217824D03*
D19*
X0149595Y0250737D03*
D20*
X0139595Y0250737D03*
X0129595Y0250737D03*
X0129595Y0260737D03*
X0139595Y0260737D03*
X0149595Y0260737D03*
D21*
X0092351Y0223650D03*
X0092351Y0216957D03*
D22*
X0099044Y0215776D03*
X0099044Y0209083D03*
X0161347Y0205737D03*
X0169123Y0205442D03*
X0169123Y0212135D03*
X0161347Y0212430D03*
X0144713Y0074044D03*
X0144713Y0067351D03*
X0137233Y0067351D03*
X0137233Y0074044D03*
X0127784Y0074044D03*
X0127784Y0067351D03*
X0123084Y0051859D03*
X0123084Y0045166D03*
D23*
G36*
X0065806Y0170555D02*
X0068872Y0173621D01*
X0073052Y0169441D01*
X0069986Y0166375D01*
X0065806Y0170555D01*
G37*
G36*
X0057037Y0174034D02*
X0060103Y0177100D01*
X0064283Y0172920D01*
X0061217Y0169854D01*
X0057037Y0174034D01*
G37*
G36*
X0062326Y0179324D02*
X0065392Y0182390D01*
X0069572Y0178210D01*
X0066506Y0175144D01*
X0062326Y0179324D01*
G37*
D24*
X0065776Y0212430D02*
X0077587Y0212430D01*
X0048847Y0212430D02*
X0037036Y0212430D01*
X0201603Y0212430D02*
X0213414Y0212430D01*
X0230343Y0212430D02*
X0242154Y0212430D01*
X0242154Y0066761D02*
X0230343Y0066761D01*
X0213414Y0066761D02*
X0201603Y0066761D01*
X0077587Y0066761D02*
X0065776Y0066761D01*
X0048847Y0066761D02*
X0037036Y0066761D01*
D25*
G36*
X0205763Y0234685D02*
X0211676Y0231540D01*
X0209085Y0226669D01*
X0203172Y0229814D01*
X0205763Y0234685D01*
G37*
G36*
X0214080Y0250328D02*
X0219993Y0247183D01*
X0217402Y0242312D01*
X0211489Y0245457D01*
X0214080Y0250328D01*
G37*
G36*
X0186444Y0265022D02*
X0192357Y0261877D01*
X0189766Y0257006D01*
X0183853Y0260151D01*
X0186444Y0265022D01*
G37*
G36*
X0178127Y0249379D02*
X0184040Y0246234D01*
X0181449Y0241363D01*
X0175536Y0244508D01*
X0178127Y0249379D01*
G37*
D26*
X0185461Y0052233D03*
X0185461Y0034123D03*
D27*
X0117745Y0249753D03*
X0117745Y0262351D03*
X0096091Y0262351D03*
X0096091Y0249753D03*
D28*
X0230540Y0091761D03*
X0230540Y0084280D03*
X0239202Y0088020D03*
D29*
X0188182Y0111544D03*
X0091009Y0111544D03*
D30*
X0132213Y0054502D03*
X0134772Y0054502D03*
X0137331Y0054502D03*
X0139891Y0054502D03*
X0139891Y0037966D03*
X0137331Y0037966D03*
X0134772Y0037966D03*
X0132213Y0037966D03*
D31*
X0136052Y0046234D03*
D32*
X0256229Y0185166D03*
X0256229Y0199733D03*
D33*
X0256229Y0192450D03*
D34*
X0109128Y0224438D03*
X0109083Y0227194D03*
X0106328Y0227194D03*
X0106328Y0224438D03*
M02*
