G75*
%MOIN*%
%OFA0B0*%
%FSLAX25Y25*%
%IPPOS*%
%LPD*%
%AMOC8*
5,1,8,0,0,1.08239X$1,22.5*
%
%ADD10C,0.26384*%
%ADD11C,0.17014*%
%ADD12C,0.08668*%
%ADD13C,0.13061*%
%ADD14R,0.07800X0.07800*%
%ADD15OC8,0.07800*%
%ADD16C,0.12211*%
%ADD17C,0.08274*%
%ADD18C,0.16998*%
%ADD19C,0.09061*%
%ADD20C,0.18983*%
%ADD21C,0.02800*%
D10*
X0039202Y0139595D03*
D11*
X0039202Y0139595D03*
X0086446Y0086446D03*
X0192745Y0086446D03*
X0192745Y0192745D03*
X0086446Y0192745D03*
D12*
X0204162Y0139595D02*
X0212430Y0139595D01*
X0209477Y0122076D02*
X0217745Y0122076D01*
X0217745Y0157509D02*
X0209477Y0157509D01*
D13*
X0233658Y0172076D02*
X0246320Y0172076D01*
X0246320Y0107115D02*
X0233658Y0107115D01*
D14*
X0149595Y0250737D03*
D15*
X0139595Y0250737D03*
X0129595Y0250737D03*
X0129595Y0260737D03*
X0139595Y0260737D03*
X0149595Y0260737D03*
D16*
X0048847Y0066761D02*
X0037036Y0066761D01*
X0065776Y0066761D02*
X0077587Y0066761D01*
X0201603Y0066761D02*
X0213414Y0066761D01*
X0230343Y0066761D02*
X0242154Y0066761D01*
X0242154Y0212430D02*
X0230343Y0212430D01*
X0213414Y0212430D02*
X0201603Y0212430D01*
X0077587Y0212430D02*
X0065776Y0212430D01*
X0048847Y0212430D02*
X0037036Y0212430D01*
D17*
X0043532Y0177391D03*
X0163217Y0247863D03*
X0175028Y0247863D03*
X0186839Y0249831D03*
X0186839Y0239989D03*
X0186839Y0259674D03*
X0176997Y0259674D03*
X0163217Y0259674D03*
X0245894Y0159280D03*
X0234083Y0139595D03*
X0253769Y0123847D03*
X0210461Y0108099D03*
X0196682Y0153375D03*
X0147469Y0086446D03*
X0127784Y0086446D03*
D18*
X0091009Y0111544D03*
X0188182Y0111544D03*
D19*
X0256229Y0192450D03*
D20*
X0192745Y0192745D03*
X0086446Y0192745D03*
X0086446Y0086446D03*
X0192745Y0086446D03*
D21*
X0109128Y0224438D03*
X0109083Y0227194D03*
X0106328Y0227194D03*
X0106328Y0224438D03*
M02*
