G75*
%MOIN*%
%OFA0B0*%
%FSLAX24Y24*%
%IPPOS*%
%LPD*%
%AMOC8*
5,1,8,0,0,1.08239X$1,22.5*
%
%ADD10R,0.0157X0.0630*%
%ADD11R,0.0744X0.0618*%
%ADD12R,0.0433X0.0394*%
%ADD13R,0.0394X0.0433*%
%ADD14R,0.0984X0.0394*%
%ADD15R,0.2362X0.0984*%
%ADD16R,0.0591X0.0512*%
%ADD17R,0.0354X0.0315*%
%ADD18R,0.0472X0.0472*%
%ADD19R,0.0315X0.0354*%
%ADD20R,0.0650X0.0157*%
D10*
X013576Y002503D03*
X013832Y002503D03*
X014087Y002503D03*
X014343Y002503D03*
X014343Y004156D03*
X014087Y004156D03*
X013832Y004156D03*
X013576Y004156D03*
D11*
X013960Y003330D03*
D12*
X015062Y003152D03*
X015062Y002483D03*
X015928Y002483D03*
X015928Y003152D03*
X012818Y002089D03*
X012818Y001420D03*
X020064Y002852D03*
X020064Y003522D03*
X018920Y020593D03*
X018920Y021263D03*
X018605Y025003D03*
X018605Y025672D03*
X017739Y025672D03*
X017739Y025003D03*
X010298Y023664D03*
X010298Y022995D03*
X009432Y022995D03*
X009432Y023664D03*
X008584Y023664D03*
X008584Y022995D03*
X006873Y022995D03*
X006873Y023664D03*
D13*
X010101Y002680D03*
X010101Y003349D03*
X010967Y003349D03*
X010967Y002680D03*
X010967Y002089D03*
X010967Y001420D03*
X011834Y001420D03*
X011834Y002089D03*
X011834Y002680D03*
X011834Y003349D03*
X012818Y003349D03*
X012818Y002680D03*
X015062Y003743D03*
X015062Y004412D03*
X015928Y004412D03*
X015928Y003743D03*
X018054Y020593D03*
X018054Y021263D03*
X015967Y021223D03*
X015967Y021893D03*
X015967Y022483D03*
X015967Y023152D03*
X016007Y023743D03*
X016007Y024412D03*
X016873Y024412D03*
X016873Y023743D03*
X017739Y023743D03*
X017739Y024412D03*
X018605Y024412D03*
X018605Y023743D03*
X015141Y024609D03*
X015141Y025278D03*
X014274Y025278D03*
X014274Y024609D03*
X011597Y022129D03*
X011597Y021460D03*
X010723Y021460D03*
X010723Y022129D03*
X007737Y022995D03*
X007737Y023664D03*
D14*
X016991Y022845D03*
X016991Y021845D03*
D15*
X018991Y022345D03*
D16*
X019166Y003522D03*
X019166Y002852D03*
D17*
X005290Y016927D03*
X005290Y017675D03*
X004463Y017301D03*
D18*
X016873Y025003D03*
X016873Y025830D03*
D19*
X021184Y010062D03*
X021932Y010062D03*
X021558Y009235D03*
D20*
X014609Y021135D03*
X014609Y021391D03*
X014609Y021647D03*
X014609Y021902D03*
X014609Y022158D03*
X014609Y022414D03*
X014609Y022670D03*
X014609Y022926D03*
X014609Y023182D03*
X014609Y023438D03*
X014609Y023694D03*
X014609Y023950D03*
X012523Y023950D03*
X012523Y023694D03*
X012523Y023438D03*
X012523Y023182D03*
X012523Y022926D03*
X012523Y022670D03*
X012523Y022414D03*
X012523Y022158D03*
X012523Y021902D03*
X012523Y021647D03*
X012523Y021391D03*
X012523Y021135D03*
M02*
