%
M48
M72
T01C0.0197
T02C0.0236
T03C0.0276
T04C0.0315
T05C0.0320
T06C0.0394
T07C0.0400
T08C0.0630
T09C0.0700
T10C0.0984
T11C0.1024
T12C0.1102
T13C0.1260
%
T01
X5849Y3999
X9314Y5889
X10731Y4471
X12897Y4235
X13723Y1755
X12306Y849
X9747Y1834
X10101Y8448
X6440Y11086
X7936Y12936
X8723Y16204
X5023Y18448
X3251Y18566
X2188Y17227
X8763Y21597
X9786Y22306
X9668Y24865
X8723Y25534
X9511Y26440
X11204Y26912
X12109Y25416
X13369Y25062
X13448Y26204
X14432Y26204
X15652Y24904
X15456Y22936
X13487Y22503
X14511Y20534
X12818Y19904
X16164Y19314
X17936Y19865
X18054Y18290
X19865Y17306
X21715Y18369
X24117Y16400
X26204Y17857
X25495Y19708
X21558Y14865
X19865Y15141
X21715Y13015
X20377Y10652
X19156Y12306
X17463Y8566
X18290Y7542
X18369Y4629
X17621Y1558
X22188Y3881
X25810Y8645
X24432Y11952
X26282Y13920
X17188Y26676
X6597Y24904
X2700Y10180
T02
X12483Y4816
X13969Y4816
X19589Y20023
X20062Y24708
X16184Y25278
T03
X19629Y25692
X19511Y23605
X21912Y24314
X17109Y21125
X16676Y5849
X15298Y5731
T04
X8763Y24483
X9763Y25483
X7763Y25483
T05
X11133Y25201
X11133Y26001
X17982Y6892
X17982Y6092
T06
X13960Y7267
X5849Y23802
T07
X11952Y26923
X12952Y26823
X13952Y26923
X14952Y26823
X15952Y26923
X21122Y3517
T08
X20420Y11893
X19865Y13960
X20420Y16026
T09
X20560Y21046
X23560Y21046
X23560Y6873
X20560Y6873
X7360Y6873
X4360Y6873
X4360Y21046
X7360Y21046
T10
X9038Y11125
T11
X18881Y11125
T12
X23999Y9826
X23999Y18093
T13
X3920Y13960
M30
