G75*
%MOIN*%
%OFA0B0*%
%FSLAX24Y24*%
%IPPOS*%
%LPD*%
%AMOC8*
5,1,8,0,0,1.08239X$1,22.5*
%
%ADD10C,0.0160*%
%ADD11C,0.0080*%
%ADD12C,0.0050*%
%ADD13C,0.0039*%
%ADD14C,0.0060*%
%ADD15C,0.0070*%
%ADD16C,0.0006*%
%ADD17C,0.0100*%
%ADD18R,0.0079X0.0079*%
D10*
X025219Y018999D02*
X025652Y018999D01*
D11*
X018057Y021281D02*
X018059Y021296D01*
X018065Y021309D01*
X018074Y021321D01*
X018085Y021330D01*
X018099Y021336D01*
X018114Y021338D01*
X018129Y021336D01*
X018142Y021330D01*
X018154Y021321D01*
X018163Y021310D01*
X018169Y021296D01*
X018171Y021281D01*
X018169Y021266D01*
X018163Y021253D01*
X018154Y021241D01*
X018143Y021232D01*
X018129Y021226D01*
X018114Y021224D01*
X018099Y021226D01*
X018086Y021232D01*
X018074Y021241D01*
X018065Y021252D01*
X018059Y021266D01*
X018057Y021281D01*
X011420Y021932D02*
X011420Y022149D01*
X011420Y021932D02*
X011204Y021932D01*
X010337Y021932D02*
X010121Y022149D01*
X010121Y023015D02*
X010121Y023231D01*
X010337Y023231D01*
X011204Y023231D02*
X011420Y023231D01*
X011420Y023015D01*
D12*
X010564Y002778D02*
X007434Y002778D01*
X007434Y004747D01*
X010564Y004747D01*
X010564Y002778D01*
X010864Y002570D02*
X010864Y002299D01*
X010864Y002435D02*
X010955Y002435D01*
X010864Y002570D02*
X011045Y002570D01*
X011159Y002570D02*
X011294Y002570D01*
X011339Y002525D01*
X011339Y002480D01*
X011294Y002435D01*
X011159Y002435D01*
X011159Y002570D02*
X011159Y002299D01*
X011294Y002299D01*
X011339Y002345D01*
X011339Y002390D01*
X011294Y002435D01*
X011454Y002525D02*
X011499Y002570D01*
X011589Y002570D01*
X011634Y002525D01*
X011634Y002480D01*
X011589Y002435D01*
X011634Y002390D01*
X011634Y002345D01*
X011589Y002299D01*
X011499Y002299D01*
X011454Y002345D01*
X011544Y002435D02*
X011589Y002435D01*
X011593Y003105D02*
X011503Y003105D01*
X011458Y003150D01*
X011458Y003240D02*
X011548Y003285D01*
X011593Y003285D01*
X011638Y003240D01*
X011638Y003150D01*
X011593Y003105D01*
X011458Y003240D02*
X011458Y003375D01*
X011638Y003375D01*
X011343Y003330D02*
X011298Y003375D01*
X011208Y003375D01*
X011163Y003330D01*
X011049Y003330D02*
X011004Y003375D01*
X010913Y003375D01*
X010868Y003330D01*
X010868Y003150D01*
X010913Y003105D01*
X011004Y003105D01*
X011049Y003150D01*
X011163Y003105D02*
X011343Y003285D01*
X011343Y003330D01*
X011343Y003105D02*
X011163Y003105D01*
X011163Y003737D02*
X011343Y003917D01*
X011343Y003962D01*
X011298Y004008D01*
X011208Y004008D01*
X011163Y003962D01*
X011049Y003962D02*
X011004Y004008D01*
X010914Y004008D01*
X010869Y003962D01*
X010869Y003782D01*
X010914Y003737D01*
X011004Y003737D01*
X011049Y003782D01*
X011163Y003737D02*
X011343Y003737D01*
X011458Y003782D02*
X011503Y003737D01*
X011593Y003737D01*
X011638Y003782D01*
X011638Y003827D01*
X011593Y003872D01*
X011548Y003872D01*
X011593Y003872D02*
X011638Y003917D01*
X011638Y003962D01*
X011593Y004008D01*
X011503Y004008D01*
X011458Y003962D01*
X011351Y004364D02*
X011171Y004364D01*
X011351Y004545D01*
X011351Y004590D01*
X011306Y004635D01*
X011216Y004635D01*
X011171Y004590D01*
X011056Y004590D02*
X011011Y004635D01*
X010921Y004635D01*
X010876Y004590D01*
X010876Y004409D01*
X010921Y004364D01*
X011011Y004364D01*
X011056Y004409D01*
X011466Y004500D02*
X011646Y004500D01*
X011601Y004635D02*
X011466Y004500D01*
X011601Y004635D02*
X011601Y004364D01*
X011677Y004843D02*
X011497Y004843D01*
X011677Y005023D01*
X011677Y005068D01*
X011632Y005113D01*
X011542Y005113D01*
X011497Y005068D01*
X011383Y005068D02*
X011383Y005023D01*
X011338Y004978D01*
X011202Y004978D01*
X011202Y004843D02*
X011202Y005113D01*
X011338Y005113D01*
X011383Y005068D01*
X011338Y004978D02*
X011383Y004933D01*
X011383Y004888D01*
X011338Y004843D01*
X011202Y004843D01*
X010998Y004978D02*
X010908Y004978D01*
X010908Y004843D02*
X010908Y005113D01*
X011088Y005113D01*
X010246Y005068D02*
X010246Y004978D01*
X010201Y004933D01*
X010111Y004933D01*
X010066Y004978D01*
X010066Y005159D01*
X010111Y005204D01*
X010201Y005204D01*
X010246Y005159D01*
X010246Y005068D02*
X010156Y005068D01*
X009952Y004978D02*
X009952Y005204D01*
X009771Y005204D02*
X009771Y004978D01*
X009817Y004933D01*
X009907Y004933D01*
X009952Y004978D01*
X009657Y004933D02*
X009477Y004933D01*
X009477Y005204D01*
X009362Y005159D02*
X009362Y005068D01*
X009317Y005023D01*
X009182Y005023D01*
X009182Y004933D02*
X009182Y005204D01*
X009317Y005204D01*
X009362Y005159D01*
X009068Y004888D02*
X008888Y004888D01*
X008773Y004933D02*
X008683Y005023D01*
X008728Y005023D02*
X008593Y005023D01*
X008593Y004933D02*
X008593Y005204D01*
X008728Y005204D01*
X008773Y005159D01*
X008773Y005068D01*
X008728Y005023D01*
X008478Y004933D02*
X008343Y005068D01*
X008298Y005023D02*
X008478Y005204D01*
X008298Y005204D02*
X008298Y004933D01*
X008184Y005068D02*
X008139Y005023D01*
X008004Y005023D01*
X008004Y004933D02*
X008004Y005204D01*
X008139Y005204D01*
X008184Y005159D01*
X008184Y005068D01*
X007889Y005023D02*
X007889Y004978D01*
X007844Y004933D01*
X007754Y004933D01*
X007709Y004978D01*
X007754Y005068D02*
X007844Y005068D01*
X007889Y005023D01*
X007889Y005159D02*
X007844Y005204D01*
X007754Y005204D01*
X007709Y005159D01*
X007709Y005114D01*
X007754Y005068D01*
X007660Y007660D02*
X007660Y020260D01*
X020260Y020260D01*
X020260Y007660D01*
X007660Y007660D01*
X011097Y007235D02*
X011097Y006965D01*
X011097Y007055D02*
X011232Y007055D01*
X011277Y007100D01*
X011277Y007190D01*
X011232Y007235D01*
X011097Y007235D01*
X011187Y007055D02*
X011277Y006965D01*
X011391Y007100D02*
X011572Y007100D01*
X011526Y007235D02*
X011391Y007100D01*
X011526Y006965D02*
X011526Y007235D01*
X011686Y007190D02*
X011731Y007235D01*
X011821Y007235D01*
X011866Y007190D01*
X011686Y007010D01*
X011731Y006965D01*
X011821Y006965D01*
X011866Y007010D01*
X011866Y007190D01*
X011686Y007190D02*
X011686Y007010D01*
X012268Y005845D02*
X012268Y005574D01*
X012448Y005574D01*
X012562Y005619D02*
X012607Y005574D01*
X012697Y005574D01*
X012742Y005619D01*
X012742Y005799D01*
X012562Y005619D01*
X012562Y005799D01*
X012607Y005845D01*
X012697Y005845D01*
X012742Y005799D01*
X012857Y005799D02*
X012902Y005845D01*
X012992Y005845D01*
X013037Y005799D01*
X013037Y005754D01*
X012992Y005709D01*
X013037Y005664D01*
X013037Y005619D01*
X012992Y005574D01*
X012902Y005574D01*
X012857Y005619D01*
X012947Y005709D02*
X012992Y005709D01*
X014089Y005017D02*
X014224Y005017D01*
X014269Y004972D01*
X014269Y004881D01*
X014224Y004836D01*
X014089Y004836D01*
X014089Y004746D02*
X014089Y005017D01*
X014179Y004836D02*
X014269Y004746D01*
X014384Y004746D02*
X014564Y004926D01*
X014564Y004972D01*
X014519Y005017D01*
X014429Y005017D01*
X014384Y004972D01*
X014384Y004746D02*
X014564Y004746D01*
X014678Y004791D02*
X014723Y004746D01*
X014813Y004746D01*
X014858Y004791D01*
X014858Y004836D01*
X014813Y004881D01*
X014768Y004881D01*
X014813Y004881D02*
X014858Y004926D01*
X014858Y004972D01*
X014813Y005017D01*
X014723Y005017D01*
X014678Y004972D01*
X015638Y005247D02*
X015684Y005202D01*
X015774Y005202D01*
X015819Y005247D01*
X015933Y005202D02*
X016113Y005382D01*
X016113Y005427D01*
X016068Y005472D01*
X015978Y005472D01*
X015933Y005427D01*
X015819Y005427D02*
X015774Y005472D01*
X015684Y005472D01*
X015638Y005427D01*
X015638Y005247D01*
X015933Y005202D02*
X016113Y005202D01*
X016228Y005202D02*
X016408Y005382D01*
X016408Y005427D01*
X016363Y005472D01*
X016273Y005472D01*
X016228Y005427D01*
X016228Y005202D02*
X016408Y005202D01*
X016597Y004865D02*
X016597Y006558D01*
X017030Y006991D01*
X019196Y006991D01*
X019196Y004393D01*
X017070Y004393D01*
X016597Y004865D01*
X016696Y004324D02*
X016651Y004279D01*
X016696Y004324D02*
X016786Y004324D01*
X016831Y004279D01*
X016831Y004234D01*
X016651Y004053D01*
X016831Y004053D01*
X016946Y004053D02*
X017126Y004234D01*
X017126Y004279D01*
X017081Y004324D01*
X016991Y004324D01*
X016946Y004279D01*
X016946Y004053D02*
X017126Y004053D01*
X017469Y003778D02*
X017604Y003778D01*
X017649Y003733D01*
X017649Y003643D01*
X017604Y003598D01*
X017469Y003598D01*
X017469Y003508D02*
X017469Y003778D01*
X017559Y003598D02*
X017649Y003508D01*
X017764Y003508D02*
X017944Y003688D01*
X017944Y003733D01*
X017899Y003778D01*
X017809Y003778D01*
X017764Y003733D01*
X017764Y003508D02*
X017944Y003508D01*
X018058Y003508D02*
X018239Y003508D01*
X018149Y003508D02*
X018149Y003778D01*
X018058Y003688D01*
X018113Y003137D02*
X018113Y002867D01*
X018023Y002867D02*
X018203Y002867D01*
X018160Y002654D02*
X018070Y002654D01*
X018025Y002609D01*
X018025Y002429D01*
X018205Y002609D01*
X018205Y002429D01*
X018160Y002384D01*
X018070Y002384D01*
X018025Y002429D01*
X017910Y002384D02*
X017730Y002384D01*
X017910Y002564D01*
X017910Y002609D01*
X017865Y002654D01*
X017775Y002654D01*
X017730Y002609D01*
X017615Y002609D02*
X017570Y002654D01*
X017480Y002654D01*
X017435Y002609D01*
X017435Y002429D01*
X017480Y002384D01*
X017570Y002384D01*
X017615Y002429D01*
X017569Y002867D02*
X017479Y002867D01*
X017434Y002912D01*
X017434Y003092D01*
X017479Y003137D01*
X017569Y003137D01*
X017614Y003092D01*
X017728Y003092D02*
X017773Y003137D01*
X017864Y003137D01*
X017909Y003092D01*
X017909Y003047D01*
X017728Y002867D01*
X017909Y002867D01*
X018023Y003047D02*
X018113Y003137D01*
X018160Y002654D02*
X018205Y002609D01*
X017614Y002912D02*
X017569Y002867D01*
X016537Y004053D02*
X016447Y004144D01*
X016492Y004144D02*
X016357Y004144D01*
X016357Y004053D02*
X016357Y004324D01*
X016492Y004324D01*
X016537Y004279D01*
X016537Y004189D01*
X016492Y004144D01*
X015861Y002736D02*
X015725Y002601D01*
X015906Y002601D01*
X015861Y002466D02*
X015861Y002736D01*
X015611Y002691D02*
X015566Y002736D01*
X015476Y002736D01*
X015431Y002691D01*
X015316Y002691D02*
X015316Y002601D01*
X015271Y002556D01*
X015136Y002556D01*
X015226Y002556D02*
X015316Y002466D01*
X015431Y002466D02*
X015611Y002646D01*
X015611Y002691D01*
X015611Y002466D02*
X015431Y002466D01*
X015316Y002691D02*
X015271Y002736D01*
X015136Y002736D01*
X015136Y002466D01*
X015126Y001947D02*
X015261Y001947D01*
X015306Y001902D01*
X015306Y001812D01*
X015261Y001767D01*
X015126Y001767D01*
X015216Y001767D02*
X015306Y001677D01*
X015421Y001677D02*
X015601Y001857D01*
X015601Y001902D01*
X015556Y001947D01*
X015466Y001947D01*
X015421Y001902D01*
X015421Y001677D02*
X015601Y001677D01*
X015715Y001722D02*
X015895Y001902D01*
X015895Y001722D01*
X015850Y001677D01*
X015760Y001677D01*
X015715Y001722D01*
X015715Y001902D01*
X015760Y001947D01*
X015850Y001947D01*
X015895Y001902D01*
X015126Y001947D02*
X015126Y001677D01*
X016646Y005692D02*
X016648Y005762D01*
X016654Y005832D01*
X016664Y005902D01*
X016677Y005970D01*
X016695Y006038D01*
X016716Y006105D01*
X016741Y006171D01*
X016770Y006235D01*
X016802Y006297D01*
X016838Y006358D01*
X016877Y006416D01*
X016919Y006472D01*
X016964Y006526D01*
X017012Y006577D01*
X017063Y006625D01*
X017117Y006670D01*
X017173Y006712D01*
X017231Y006751D01*
X017292Y006787D01*
X017354Y006819D01*
X017418Y006848D01*
X017484Y006873D01*
X017551Y006894D01*
X017619Y006912D01*
X017687Y006925D01*
X017757Y006935D01*
X017827Y006941D01*
X017897Y006943D01*
X017967Y006941D01*
X018037Y006935D01*
X018107Y006925D01*
X018175Y006912D01*
X018243Y006894D01*
X018310Y006873D01*
X018376Y006848D01*
X018440Y006819D01*
X018502Y006787D01*
X018563Y006751D01*
X018621Y006712D01*
X018677Y006670D01*
X018731Y006625D01*
X018782Y006577D01*
X018830Y006526D01*
X018875Y006472D01*
X018917Y006416D01*
X018956Y006358D01*
X018992Y006297D01*
X019024Y006235D01*
X019053Y006171D01*
X019078Y006105D01*
X019099Y006038D01*
X019117Y005970D01*
X019130Y005902D01*
X019140Y005832D01*
X019146Y005762D01*
X019148Y005692D01*
X019146Y005622D01*
X019140Y005552D01*
X019130Y005482D01*
X019117Y005414D01*
X019099Y005346D01*
X019078Y005279D01*
X019053Y005213D01*
X019024Y005149D01*
X018992Y005087D01*
X018956Y005026D01*
X018917Y004968D01*
X018875Y004912D01*
X018830Y004858D01*
X018782Y004807D01*
X018731Y004759D01*
X018677Y004714D01*
X018621Y004672D01*
X018563Y004633D01*
X018502Y004597D01*
X018440Y004565D01*
X018376Y004536D01*
X018310Y004511D01*
X018243Y004490D01*
X018175Y004472D01*
X018107Y004459D01*
X018037Y004449D01*
X017967Y004443D01*
X017897Y004441D01*
X017827Y004443D01*
X017757Y004449D01*
X017687Y004459D01*
X017619Y004472D01*
X017551Y004490D01*
X017484Y004511D01*
X017418Y004536D01*
X017354Y004565D01*
X017292Y004597D01*
X017231Y004633D01*
X017173Y004672D01*
X017117Y004714D01*
X017063Y004759D01*
X017012Y004807D01*
X016964Y004858D01*
X016919Y004912D01*
X016877Y004968D01*
X016838Y005026D01*
X016802Y005087D01*
X016770Y005149D01*
X016741Y005213D01*
X016716Y005279D01*
X016695Y005346D01*
X016677Y005414D01*
X016664Y005482D01*
X016654Y005552D01*
X016648Y005622D01*
X016646Y005692D01*
X019618Y005694D02*
X019618Y005514D01*
X019663Y005469D01*
X019754Y005469D01*
X019799Y005514D01*
X019913Y005604D02*
X020093Y005604D01*
X020048Y005469D02*
X020048Y005739D01*
X019913Y005604D01*
X019799Y005694D02*
X019754Y005739D01*
X019663Y005739D01*
X019618Y005694D01*
X020208Y005694D02*
X020208Y005514D01*
X020388Y005694D01*
X020388Y005514D01*
X020343Y005469D01*
X020253Y005469D01*
X020208Y005514D01*
X020208Y005694D02*
X020253Y005739D01*
X020343Y005739D01*
X020388Y005694D01*
X023016Y009001D02*
X023018Y009014D01*
X023023Y009027D01*
X023032Y009038D01*
X023043Y009045D01*
X023056Y009050D01*
X023069Y009051D01*
X023083Y009048D01*
X023095Y009042D01*
X023105Y009033D01*
X023112Y009021D01*
X023116Y009008D01*
X023116Y008994D01*
X023112Y008981D01*
X023105Y008969D01*
X023095Y008960D01*
X023083Y008954D01*
X023069Y008951D01*
X023056Y008952D01*
X023043Y008957D01*
X023032Y008964D01*
X023023Y008975D01*
X023018Y008988D01*
X023016Y009001D01*
X024565Y008341D02*
X024565Y008070D01*
X024565Y008205D02*
X024655Y008205D01*
X024565Y008341D02*
X024745Y008341D01*
X024860Y008341D02*
X024860Y008070D01*
X025040Y008070D01*
X024950Y008205D02*
X024860Y008205D01*
X024860Y008341D02*
X025040Y008341D01*
X025154Y008341D02*
X025334Y008341D01*
X025244Y008341D02*
X025244Y008070D01*
X025449Y008070D02*
X025629Y008070D01*
X025539Y008070D02*
X025539Y008341D01*
X025449Y008251D01*
X024907Y018941D02*
X024727Y018941D01*
X024817Y018941D02*
X024817Y019211D01*
X024727Y019121D01*
X024612Y019121D02*
X024567Y019076D01*
X024612Y019031D01*
X024612Y018986D01*
X024567Y018941D01*
X024477Y018941D01*
X024432Y018986D01*
X024318Y018941D02*
X024228Y019031D01*
X024273Y019031D02*
X024138Y019031D01*
X024138Y018941D02*
X024138Y019211D01*
X024273Y019211D01*
X024318Y019166D01*
X024318Y019076D01*
X024273Y019031D01*
X024432Y019166D02*
X024477Y019211D01*
X024567Y019211D01*
X024612Y019166D01*
X024612Y019121D01*
X024567Y019076D02*
X024522Y019076D01*
X024695Y020578D02*
X024875Y020578D01*
X024990Y020578D02*
X025170Y020578D01*
X025284Y020578D02*
X025419Y020578D01*
X025465Y020623D01*
X025465Y020803D01*
X025419Y020848D01*
X025284Y020848D01*
X025284Y020578D01*
X025080Y020713D02*
X024990Y020713D01*
X024990Y020848D02*
X024990Y020578D01*
X024990Y020848D02*
X025170Y020848D01*
X024695Y020848D02*
X024695Y020578D01*
X021741Y021779D02*
X023096Y023714D01*
X020194Y025746D01*
X018839Y023811D01*
X021741Y021779D01*
X020309Y020544D02*
X020129Y020364D01*
X020174Y020319D01*
X020264Y020319D01*
X020309Y020364D01*
X020309Y020544D01*
X020264Y020589D01*
X020174Y020589D01*
X020129Y020544D01*
X020129Y020364D01*
X020015Y020364D02*
X020015Y020409D01*
X019970Y020454D01*
X019925Y020454D01*
X019970Y020454D02*
X020015Y020499D01*
X020015Y020544D01*
X019970Y020589D01*
X019880Y020589D01*
X019835Y020544D01*
X019720Y020544D02*
X019720Y020454D01*
X019675Y020409D01*
X019540Y020409D01*
X019630Y020409D02*
X019720Y020319D01*
X019835Y020364D02*
X019880Y020319D01*
X019970Y020319D01*
X020015Y020364D01*
X019720Y020544D02*
X019675Y020589D01*
X019540Y020589D01*
X019540Y020319D01*
X017693Y020090D02*
X017648Y020135D01*
X017558Y020135D01*
X017513Y020090D01*
X017398Y020090D02*
X017398Y020045D01*
X017353Y020000D01*
X017398Y019955D01*
X017398Y019909D01*
X017353Y019864D01*
X017263Y019864D01*
X017218Y019909D01*
X017104Y019909D02*
X017059Y019864D01*
X016969Y019864D01*
X016924Y019909D01*
X016924Y020090D01*
X016969Y020135D01*
X017059Y020135D01*
X017104Y020090D01*
X017218Y020090D02*
X017263Y020135D01*
X017353Y020135D01*
X017398Y020090D01*
X017353Y020000D02*
X017308Y020000D01*
X017513Y019864D02*
X017693Y020045D01*
X017693Y020090D01*
X017693Y019864D02*
X017513Y019864D01*
X016324Y019886D02*
X016279Y019841D01*
X016189Y019841D01*
X016144Y019886D01*
X016029Y019886D02*
X015984Y019841D01*
X015894Y019841D01*
X015849Y019886D01*
X015735Y019886D02*
X015690Y019841D01*
X015600Y019841D01*
X015555Y019886D01*
X015555Y020066D01*
X015600Y020111D01*
X015690Y020111D01*
X015735Y020066D01*
X015849Y020066D02*
X015894Y020111D01*
X015984Y020111D01*
X016029Y020066D01*
X016029Y020021D01*
X015984Y019976D01*
X016029Y019931D01*
X016029Y019886D01*
X015984Y019976D02*
X015939Y019976D01*
X016144Y020066D02*
X016189Y020111D01*
X016279Y020111D01*
X016324Y020066D01*
X016324Y020021D01*
X016279Y019976D01*
X016324Y019931D01*
X016324Y019886D01*
X016279Y019976D02*
X016234Y019976D01*
X014991Y021400D02*
X014991Y021670D01*
X014856Y021535D01*
X015036Y021535D01*
X014955Y021794D02*
X014955Y022064D01*
X015090Y022064D01*
X015135Y022019D01*
X015135Y021929D01*
X015090Y021884D01*
X014955Y021884D01*
X015045Y021884D02*
X015135Y021794D01*
X015250Y021794D02*
X015250Y021839D01*
X015430Y022019D01*
X015430Y022064D01*
X015250Y022064D01*
X015070Y022384D02*
X014980Y022384D01*
X014935Y022429D01*
X014935Y022519D02*
X015025Y022564D01*
X015070Y022564D01*
X015115Y022519D01*
X015115Y022429D01*
X015070Y022384D01*
X014935Y022519D02*
X014935Y022654D01*
X015115Y022654D01*
X015135Y022817D02*
X015045Y022907D01*
X015090Y022907D02*
X014955Y022907D01*
X014955Y022817D02*
X014955Y023087D01*
X015090Y023087D01*
X015135Y023042D01*
X015135Y022952D01*
X015090Y022907D01*
X015250Y022907D02*
X015295Y022952D01*
X015385Y022952D01*
X015430Y022907D01*
X015430Y022862D01*
X015385Y022817D01*
X015295Y022817D01*
X015250Y022862D01*
X015250Y022907D01*
X015295Y022952D02*
X015250Y022997D01*
X015250Y023042D01*
X015295Y023087D01*
X015385Y023087D01*
X015430Y023042D01*
X015430Y022997D01*
X015385Y022952D01*
X014820Y022609D02*
X014820Y022519D01*
X014775Y022474D01*
X014640Y022474D01*
X014640Y022384D02*
X014640Y022654D01*
X014775Y022654D01*
X014820Y022609D01*
X014730Y022474D02*
X014820Y022384D01*
X014696Y021670D02*
X014561Y021670D01*
X014561Y021400D01*
X014561Y021490D02*
X014696Y021490D01*
X014741Y021535D01*
X014741Y021625D01*
X014696Y021670D01*
X014651Y021490D02*
X014741Y021400D01*
X013652Y020135D02*
X013698Y020090D01*
X013698Y020045D01*
X013652Y020000D01*
X013562Y020000D01*
X013517Y020045D01*
X013517Y020090D01*
X013562Y020135D01*
X013652Y020135D01*
X013652Y020000D02*
X013698Y019955D01*
X013698Y019909D01*
X013652Y019864D01*
X013562Y019864D01*
X013517Y019909D01*
X013517Y019955D01*
X013562Y020000D01*
X013403Y020090D02*
X013358Y020135D01*
X013268Y020135D01*
X013223Y020090D01*
X013223Y019909D01*
X013268Y019864D01*
X013358Y019864D01*
X013403Y019909D01*
X012949Y020927D02*
X012769Y020927D01*
X012949Y021108D01*
X012949Y021153D01*
X012904Y021198D01*
X012814Y021198D01*
X012769Y021153D01*
X012655Y021153D02*
X012655Y021063D01*
X012610Y021018D01*
X012475Y021018D01*
X012565Y021018D02*
X012655Y020927D01*
X012475Y020927D02*
X012475Y021198D01*
X012610Y021198D01*
X012655Y021153D01*
X012432Y021951D02*
X012342Y021951D01*
X012297Y021996D01*
X012182Y021951D02*
X012092Y022041D01*
X012137Y022041D02*
X012002Y022041D01*
X012002Y021951D02*
X012002Y022221D01*
X012137Y022221D01*
X012182Y022176D01*
X012182Y022086D01*
X012137Y022041D01*
X012297Y022176D02*
X012342Y022221D01*
X012432Y022221D01*
X012477Y022176D01*
X012477Y022131D01*
X012432Y022086D01*
X012477Y022041D01*
X012477Y021996D01*
X012432Y021951D01*
X012432Y022086D02*
X012387Y022086D01*
X012803Y022900D02*
X012893Y022900D01*
X012938Y022945D01*
X013053Y022945D02*
X013098Y022900D01*
X013188Y022900D01*
X013233Y022945D01*
X013233Y022990D01*
X013188Y023035D01*
X013143Y023035D01*
X013188Y023035D02*
X013233Y023080D01*
X013233Y023125D01*
X013188Y023170D01*
X013098Y023170D01*
X013053Y023125D01*
X012938Y023125D02*
X012893Y023170D01*
X012803Y023170D01*
X012758Y023125D01*
X012758Y022945D01*
X012803Y022900D01*
X012777Y023573D02*
X012777Y023843D01*
X012687Y023753D01*
X012572Y023798D02*
X012527Y023843D01*
X012437Y023843D01*
X012392Y023798D01*
X012392Y023618D01*
X012437Y023573D01*
X012527Y023573D01*
X012572Y023618D01*
X012687Y023573D02*
X012867Y023573D01*
X012836Y024270D02*
X012836Y024540D01*
X012746Y024450D01*
X012631Y024495D02*
X012586Y024540D01*
X012496Y024540D01*
X012451Y024495D01*
X012451Y024315D01*
X012496Y024270D01*
X012586Y024270D01*
X012631Y024315D01*
X012746Y024270D02*
X012926Y024270D01*
X013040Y024270D02*
X013221Y024270D01*
X013130Y024270D02*
X013130Y024540D01*
X013040Y024450D01*
X012424Y024857D02*
X012424Y026353D01*
X009274Y026353D01*
X009274Y024857D01*
X012424Y024857D01*
X014356Y024852D02*
X014356Y024582D01*
X014536Y024582D01*
X014651Y024627D02*
X014831Y024807D01*
X014831Y024627D01*
X014786Y024582D01*
X014696Y024582D01*
X014651Y024627D01*
X014651Y024807D01*
X014696Y024852D01*
X014786Y024852D01*
X014831Y024807D01*
X014945Y024807D02*
X014991Y024852D01*
X015081Y024852D01*
X015126Y024807D01*
X015126Y024762D01*
X014945Y024582D01*
X015126Y024582D01*
X016818Y023349D02*
X016818Y023079D01*
X016999Y023079D02*
X016999Y023349D01*
X016908Y023259D01*
X016818Y023349D01*
X017113Y023304D02*
X017113Y023124D01*
X017158Y023079D01*
X017248Y023079D01*
X017293Y023124D01*
X017408Y023124D02*
X017453Y023079D01*
X017543Y023079D01*
X017588Y023124D01*
X017588Y023349D01*
X017408Y023349D02*
X017408Y023124D01*
X017293Y023304D02*
X017248Y023349D01*
X017158Y023349D01*
X017113Y023304D01*
X020278Y023763D02*
X020280Y023815D01*
X020286Y023867D01*
X020296Y023918D01*
X020309Y023968D01*
X020327Y024018D01*
X020348Y024065D01*
X020372Y024111D01*
X020401Y024155D01*
X020432Y024197D01*
X020466Y024236D01*
X020503Y024273D01*
X020543Y024306D01*
X020586Y024337D01*
X020630Y024364D01*
X020676Y024388D01*
X020725Y024408D01*
X020774Y024424D01*
X020825Y024437D01*
X020876Y024446D01*
X020928Y024451D01*
X020980Y024452D01*
X021032Y024449D01*
X021084Y024442D01*
X021135Y024431D01*
X021185Y024417D01*
X021234Y024398D01*
X021281Y024376D01*
X021326Y024351D01*
X021370Y024322D01*
X021411Y024290D01*
X021450Y024255D01*
X021485Y024217D01*
X021518Y024176D01*
X021548Y024134D01*
X021574Y024089D01*
X021597Y024042D01*
X021616Y023993D01*
X021632Y023943D01*
X021644Y023893D01*
X021652Y023841D01*
X021656Y023789D01*
X021656Y023737D01*
X021652Y023685D01*
X021644Y023633D01*
X021632Y023583D01*
X021616Y023533D01*
X021597Y023484D01*
X021574Y023437D01*
X021548Y023392D01*
X021518Y023350D01*
X021485Y023309D01*
X021450Y023271D01*
X021411Y023236D01*
X021370Y023204D01*
X021326Y023175D01*
X021281Y023150D01*
X021234Y023128D01*
X021185Y023109D01*
X021135Y023095D01*
X021084Y023084D01*
X021032Y023077D01*
X020980Y023074D01*
X020928Y023075D01*
X020876Y023080D01*
X020825Y023089D01*
X020774Y023102D01*
X020725Y023118D01*
X020676Y023138D01*
X020630Y023162D01*
X020586Y023189D01*
X020543Y023220D01*
X020503Y023253D01*
X020466Y023290D01*
X020432Y023329D01*
X020401Y023371D01*
X020372Y023415D01*
X020348Y023461D01*
X020327Y023508D01*
X020309Y023558D01*
X020296Y023608D01*
X020286Y023659D01*
X020280Y023711D01*
X020278Y023763D01*
X012044Y020135D02*
X011954Y020090D01*
X011864Y020000D01*
X011999Y020000D01*
X012044Y019955D01*
X012044Y019909D01*
X011999Y019864D01*
X011909Y019864D01*
X011864Y019909D01*
X011864Y020000D01*
X011749Y020000D02*
X011704Y019955D01*
X011569Y019955D01*
X011659Y019955D02*
X011749Y019864D01*
X011749Y020000D02*
X011749Y020090D01*
X011704Y020135D01*
X011569Y020135D01*
X011569Y019864D01*
X011191Y021042D02*
X011191Y021312D01*
X011056Y021177D01*
X011236Y021177D01*
X010942Y021042D02*
X010761Y021042D01*
X010852Y021042D02*
X010852Y021312D01*
X010761Y021222D01*
X010647Y021267D02*
X010602Y021312D01*
X010512Y021312D01*
X010467Y021267D01*
X010467Y021087D01*
X010512Y021042D01*
X010602Y021042D01*
X010647Y021087D01*
X009997Y020607D02*
X009817Y020607D01*
X009817Y020472D01*
X009907Y020517D01*
X009952Y020517D01*
X009997Y020472D01*
X009997Y020382D01*
X009952Y020337D01*
X009862Y020337D01*
X009817Y020382D01*
X009702Y020382D02*
X009657Y020337D01*
X009567Y020337D01*
X009522Y020382D01*
X009522Y020562D01*
X009567Y020607D01*
X009657Y020607D01*
X009702Y020562D01*
X009135Y021824D02*
X008955Y021824D01*
X009045Y021824D02*
X009045Y022094D01*
X008955Y022004D01*
X008840Y021824D02*
X008660Y021824D01*
X008660Y022094D01*
X009567Y022189D02*
X009612Y022144D01*
X009702Y022144D01*
X009747Y022189D01*
X009747Y022414D01*
X009862Y022324D02*
X009952Y022414D01*
X009952Y022144D01*
X009862Y022144D02*
X010042Y022144D01*
X009567Y022189D02*
X009567Y022414D01*
X009172Y024187D02*
X009081Y024187D01*
X009036Y024232D01*
X009217Y024412D01*
X009217Y024232D01*
X009172Y024187D01*
X009036Y024232D02*
X009036Y024412D01*
X009081Y024458D01*
X009172Y024458D01*
X009217Y024412D01*
X008922Y024187D02*
X008742Y024187D01*
X008832Y024187D02*
X008832Y024458D01*
X008742Y024367D01*
X008627Y024412D02*
X008582Y024458D01*
X008492Y024458D01*
X008447Y024412D01*
X008447Y024232D01*
X008492Y024187D01*
X008582Y024187D01*
X008627Y024232D01*
X006763Y018190D02*
X006765Y018203D01*
X006770Y018216D01*
X006779Y018227D01*
X006790Y018234D01*
X006803Y018239D01*
X006816Y018240D01*
X006830Y018237D01*
X006842Y018231D01*
X006852Y018222D01*
X006859Y018210D01*
X006863Y018197D01*
X006863Y018183D01*
X006859Y018170D01*
X006852Y018158D01*
X006842Y018149D01*
X006830Y018143D01*
X006816Y018140D01*
X006803Y018141D01*
X006790Y018146D01*
X006779Y018153D01*
X006770Y018164D01*
X006765Y018177D01*
X006763Y018190D01*
X007118Y016475D02*
X007253Y016475D01*
X007298Y016430D01*
X007298Y016249D01*
X007253Y016204D01*
X007118Y016204D01*
X007118Y016475D01*
X007413Y016385D02*
X007503Y016475D01*
X007503Y016204D01*
X007413Y016204D02*
X007593Y016204D01*
D13*
X019865Y013960D02*
X019867Y014088D01*
X019873Y014216D01*
X019883Y014343D01*
X019897Y014471D01*
X019914Y014597D01*
X019936Y014723D01*
X019962Y014849D01*
X019991Y014973D01*
X020024Y015097D01*
X020061Y015219D01*
X020102Y015340D01*
X020147Y015460D01*
X020195Y015579D01*
X020247Y015696D01*
X020303Y015811D01*
X020362Y015925D01*
X020424Y016036D01*
X020490Y016146D01*
X020559Y016253D01*
X020632Y016359D01*
X020708Y016462D01*
X020787Y016562D01*
X020869Y016661D01*
X020954Y016756D01*
X021042Y016849D01*
X021133Y016939D01*
X021226Y017026D01*
X021323Y017111D01*
X021421Y017192D01*
X021523Y017270D01*
X021626Y017345D01*
X021732Y017417D01*
X021840Y017486D01*
X021950Y017551D01*
X022063Y017612D01*
X022177Y017671D01*
X022292Y017725D01*
X022410Y017776D01*
X022528Y017824D01*
X022649Y017867D01*
X022770Y017907D01*
X022893Y017943D01*
X023017Y017976D01*
X023142Y018004D01*
X023267Y018029D01*
X023393Y018049D01*
X023520Y018066D01*
X023648Y018079D01*
X023775Y018088D01*
X023903Y018093D01*
X024031Y018094D01*
X024159Y018091D01*
X024287Y018084D01*
X024414Y018073D01*
X024541Y018058D01*
X024668Y018040D01*
X024794Y018017D01*
X024919Y017990D01*
X025043Y017960D01*
X025166Y017926D01*
X025289Y017888D01*
X025410Y017846D01*
X025529Y017800D01*
X025647Y017751D01*
X025764Y017698D01*
X025879Y017642D01*
X025992Y017582D01*
X026103Y017519D01*
X026212Y017452D01*
X026319Y017382D01*
X026424Y017308D01*
X026526Y017232D01*
X026626Y017152D01*
X026724Y017069D01*
X026819Y016983D01*
X026911Y016894D01*
X027000Y016803D01*
X027087Y016709D01*
X027170Y016612D01*
X027251Y016512D01*
X027328Y016411D01*
X027403Y016306D01*
X027474Y016200D01*
X027541Y016091D01*
X027606Y015981D01*
X027666Y015868D01*
X027724Y015754D01*
X027777Y015638D01*
X027827Y015520D01*
X027874Y015401D01*
X027917Y015280D01*
X027956Y015158D01*
X027991Y015035D01*
X028022Y014911D01*
X028050Y014786D01*
X028073Y014660D01*
X028093Y014534D01*
X028109Y014407D01*
X028121Y014280D01*
X028129Y014152D01*
X028133Y014024D01*
X028133Y013896D01*
X028129Y013768D01*
X028121Y013640D01*
X028109Y013513D01*
X028093Y013386D01*
X028073Y013260D01*
X028050Y013134D01*
X028022Y013009D01*
X027991Y012885D01*
X027956Y012762D01*
X027917Y012640D01*
X027874Y012519D01*
X027827Y012400D01*
X027777Y012282D01*
X027724Y012166D01*
X027666Y012052D01*
X027606Y011939D01*
X027541Y011829D01*
X027474Y011720D01*
X027403Y011614D01*
X027328Y011509D01*
X027251Y011408D01*
X027170Y011308D01*
X027087Y011211D01*
X027000Y011117D01*
X026911Y011026D01*
X026819Y010937D01*
X026724Y010851D01*
X026626Y010768D01*
X026526Y010688D01*
X026424Y010612D01*
X026319Y010538D01*
X026212Y010468D01*
X026103Y010401D01*
X025992Y010338D01*
X025879Y010278D01*
X025764Y010222D01*
X025647Y010169D01*
X025529Y010120D01*
X025410Y010074D01*
X025289Y010032D01*
X025166Y009994D01*
X025043Y009960D01*
X024919Y009930D01*
X024794Y009903D01*
X024668Y009880D01*
X024541Y009862D01*
X024414Y009847D01*
X024287Y009836D01*
X024159Y009829D01*
X024031Y009826D01*
X023903Y009827D01*
X023775Y009832D01*
X023648Y009841D01*
X023520Y009854D01*
X023393Y009871D01*
X023267Y009891D01*
X023142Y009916D01*
X023017Y009944D01*
X022893Y009977D01*
X022770Y010013D01*
X022649Y010053D01*
X022528Y010096D01*
X022410Y010144D01*
X022292Y010195D01*
X022177Y010249D01*
X022063Y010308D01*
X021950Y010369D01*
X021840Y010434D01*
X021732Y010503D01*
X021626Y010575D01*
X021523Y010650D01*
X021421Y010728D01*
X021323Y010809D01*
X021226Y010894D01*
X021133Y010981D01*
X021042Y011071D01*
X020954Y011164D01*
X020869Y011259D01*
X020787Y011358D01*
X020708Y011458D01*
X020632Y011561D01*
X020559Y011667D01*
X020490Y011774D01*
X020424Y011884D01*
X020362Y011995D01*
X020303Y012109D01*
X020247Y012224D01*
X020195Y012341D01*
X020147Y012460D01*
X020102Y012580D01*
X020061Y012701D01*
X020024Y012823D01*
X019991Y012947D01*
X019962Y013071D01*
X019936Y013197D01*
X019914Y013323D01*
X019897Y013449D01*
X019883Y013577D01*
X019873Y013704D01*
X019867Y013832D01*
X019865Y013960D01*
D14*
X023506Y008811D02*
X023826Y008811D01*
X023826Y008591D01*
X023826Y007911D02*
X023826Y007691D01*
X023506Y007691D01*
X014940Y003857D02*
X014940Y002889D01*
X014837Y002786D02*
X013869Y002786D01*
X013771Y002889D02*
X013771Y003857D01*
X013771Y003853D02*
X013772Y003870D01*
X013777Y003887D01*
X013784Y003902D01*
X013794Y003916D01*
X013806Y003928D01*
X013820Y003938D01*
X013835Y003945D01*
X013852Y003950D01*
X013869Y003951D01*
X013869Y003952D02*
X014841Y003952D01*
X014841Y003951D02*
X014858Y003950D01*
X014875Y003945D01*
X014890Y003938D01*
X014904Y003928D01*
X014916Y003916D01*
X014926Y003902D01*
X014933Y003887D01*
X014938Y003870D01*
X014939Y003853D01*
X006425Y016726D02*
X006580Y016882D01*
X006425Y016726D02*
X006198Y016952D01*
X007061Y017363D02*
X007217Y017518D01*
X006990Y017744D01*
X008488Y023527D02*
X008444Y023570D01*
X008444Y023744D01*
X008488Y023787D01*
X008574Y023787D01*
X008618Y023744D01*
X008739Y023744D02*
X008782Y023787D01*
X008869Y023787D01*
X008912Y023744D01*
X008912Y023700D01*
X008739Y023527D01*
X008912Y023527D01*
X008618Y023570D02*
X008574Y023527D01*
X008488Y023527D01*
X016424Y022921D02*
X018434Y022921D01*
X018434Y021061D02*
X016424Y021061D01*
D15*
X010097Y002594D02*
X010097Y002267D01*
X009934Y002430D02*
X010261Y002430D01*
X008011Y002430D02*
X007684Y002430D01*
D16*
X013745Y002883D02*
X013799Y002883D01*
X013798Y002882D02*
X013800Y002867D01*
X013806Y002853D01*
X013814Y002840D01*
X013824Y002830D01*
X013837Y002822D01*
X013851Y002816D01*
X013866Y002814D01*
X013867Y002761D01*
X013866Y002760D01*
X013845Y002762D01*
X013825Y002768D01*
X013806Y002777D01*
X013788Y002789D01*
X013773Y002804D01*
X013761Y002822D01*
X013752Y002841D01*
X013746Y002861D01*
X013744Y002882D01*
X013749Y002882D01*
X013751Y002862D01*
X013757Y002842D01*
X013766Y002824D01*
X013777Y002808D01*
X013792Y002793D01*
X013808Y002782D01*
X013826Y002773D01*
X013846Y002767D01*
X013866Y002765D01*
X013866Y002770D01*
X013847Y002772D01*
X013828Y002778D01*
X013811Y002786D01*
X013795Y002797D01*
X013781Y002811D01*
X013770Y002827D01*
X013762Y002844D01*
X013756Y002863D01*
X013754Y002882D01*
X013759Y002882D01*
X013761Y002864D01*
X013766Y002846D01*
X013774Y002829D01*
X013785Y002814D01*
X013798Y002801D01*
X013813Y002790D01*
X013830Y002782D01*
X013848Y002777D01*
X013866Y002775D01*
X013866Y002780D01*
X013846Y002782D01*
X013827Y002789D01*
X013810Y002798D01*
X013795Y002811D01*
X013782Y002826D01*
X013773Y002843D01*
X013766Y002862D01*
X013764Y002882D01*
X013769Y002882D01*
X013771Y002863D01*
X013777Y002845D01*
X013786Y002829D01*
X013798Y002814D01*
X013813Y002802D01*
X013829Y002793D01*
X013847Y002787D01*
X013866Y002785D01*
X013866Y002790D01*
X013848Y002792D01*
X013831Y002798D01*
X013816Y002806D01*
X013802Y002818D01*
X013790Y002832D01*
X013782Y002847D01*
X013776Y002864D01*
X013774Y002882D01*
X013779Y002882D01*
X013781Y002865D01*
X013786Y002849D01*
X013795Y002834D01*
X013805Y002821D01*
X013818Y002811D01*
X013833Y002802D01*
X013849Y002797D01*
X013866Y002795D01*
X013866Y002800D01*
X013850Y002802D01*
X013835Y002807D01*
X013821Y002815D01*
X013809Y002825D01*
X013799Y002837D01*
X013791Y002851D01*
X013786Y002866D01*
X013784Y002882D01*
X013789Y002882D01*
X013792Y002865D01*
X013797Y002849D01*
X013807Y002835D01*
X013819Y002823D01*
X013833Y002813D01*
X013849Y002808D01*
X013866Y002805D01*
X013866Y002810D01*
X013850Y002812D01*
X013835Y002818D01*
X013822Y002827D01*
X013811Y002838D01*
X013802Y002851D01*
X013796Y002866D01*
X013794Y002882D01*
X014843Y002761D02*
X014843Y002815D01*
X014844Y002814D02*
X014859Y002816D01*
X014873Y002822D01*
X014886Y002830D01*
X014896Y002840D01*
X014904Y002853D01*
X014910Y002867D01*
X014912Y002882D01*
X014965Y002883D01*
X014966Y002882D01*
X014964Y002861D01*
X014958Y002841D01*
X014949Y002822D01*
X014937Y002804D01*
X014922Y002789D01*
X014904Y002777D01*
X014885Y002768D01*
X014865Y002762D01*
X014844Y002760D01*
X014844Y002765D01*
X014864Y002767D01*
X014884Y002773D01*
X014902Y002782D01*
X014918Y002793D01*
X014933Y002808D01*
X014944Y002824D01*
X014953Y002842D01*
X014959Y002862D01*
X014961Y002882D01*
X014956Y002882D01*
X014954Y002863D01*
X014948Y002844D01*
X014940Y002827D01*
X014929Y002811D01*
X014915Y002797D01*
X014899Y002786D01*
X014882Y002778D01*
X014863Y002772D01*
X014844Y002770D01*
X014844Y002775D01*
X014862Y002777D01*
X014880Y002782D01*
X014897Y002790D01*
X014912Y002801D01*
X014925Y002814D01*
X014936Y002829D01*
X014944Y002846D01*
X014949Y002864D01*
X014951Y002882D01*
X014946Y002882D01*
X014944Y002862D01*
X014937Y002843D01*
X014928Y002826D01*
X014915Y002811D01*
X014900Y002798D01*
X014883Y002789D01*
X014864Y002782D01*
X014844Y002780D01*
X014844Y002785D01*
X014863Y002787D01*
X014881Y002793D01*
X014897Y002802D01*
X014912Y002814D01*
X014924Y002829D01*
X014933Y002845D01*
X014939Y002863D01*
X014941Y002882D01*
X014936Y002882D01*
X014934Y002864D01*
X014928Y002847D01*
X014920Y002832D01*
X014908Y002818D01*
X014894Y002806D01*
X014879Y002798D01*
X014862Y002792D01*
X014844Y002790D01*
X014844Y002795D01*
X014861Y002797D01*
X014877Y002802D01*
X014892Y002811D01*
X014905Y002821D01*
X014915Y002834D01*
X014924Y002849D01*
X014929Y002865D01*
X014931Y002882D01*
X014926Y002882D01*
X014924Y002866D01*
X014919Y002851D01*
X014911Y002837D01*
X014901Y002825D01*
X014889Y002815D01*
X014875Y002807D01*
X014860Y002802D01*
X014844Y002800D01*
X014844Y002805D01*
X014861Y002808D01*
X014877Y002813D01*
X014891Y002823D01*
X014903Y002835D01*
X014913Y002849D01*
X014918Y002865D01*
X014921Y002882D01*
X014916Y002882D01*
X014914Y002866D01*
X014908Y002851D01*
X014899Y002838D01*
X014888Y002827D01*
X014875Y002818D01*
X014860Y002812D01*
X014844Y002810D01*
D17*
X014481Y003113D02*
X014483Y003135D01*
X014489Y003157D01*
X014498Y003177D01*
X014511Y003195D01*
X014527Y003211D01*
X014545Y003224D01*
X014565Y003233D01*
X014587Y003239D01*
X014609Y003241D01*
X014631Y003239D01*
X014653Y003233D01*
X014673Y003224D01*
X014691Y003211D01*
X014707Y003195D01*
X014720Y003177D01*
X014729Y003157D01*
X014735Y003135D01*
X014737Y003113D01*
X014735Y003091D01*
X014729Y003069D01*
X014720Y003049D01*
X014707Y003031D01*
X014691Y003015D01*
X014673Y003002D01*
X014653Y002993D01*
X014631Y002987D01*
X014609Y002985D01*
X014587Y002987D01*
X014565Y002993D01*
X014545Y003002D01*
X014527Y003015D01*
X014511Y003031D01*
X014498Y003049D01*
X014489Y003069D01*
X014483Y003091D01*
X014481Y003113D01*
D18*
X025456Y019826D03*
M02*
