G75*
%MOIN*%
%OFA0B0*%
%FSLAX24Y24*%
%IPPOS*%
%LPD*%
%AMOC8*
5,1,8,0,0,1.08239X$1,22.5*
%
%ADD10C,0.2441*%
%ADD11C,0.0945*%
%ADD12C,0.1502*%
%ADD13R,0.0740X0.0740*%
%ADD14OC8,0.0740*%
%ADD15C,0.1050*%
%ADD16C,0.0787*%
%ADD17C,0.1660*%
%ADD18C,0.0354*%
%ADD19C,0.0200*%
%ADD20C,0.0257*%
%ADD21C,0.0297*%
%ADD22C,0.0218*%
%ADD23C,0.0120*%
%ADD24C,0.0100*%
%ADD25C,0.0160*%
%ADD26C,0.0240*%
%ADD27C,0.0197*%
%ADD28C,0.0320*%
D10*
X003890Y013930D03*
D11*
X019835Y013930D02*
X020780Y013930D01*
X020390Y015996D02*
X021335Y015996D01*
X021335Y011863D02*
X020390Y011863D01*
D12*
X023218Y009796D02*
X024720Y009796D01*
X024720Y018063D02*
X023218Y018063D01*
D13*
X017863Y024768D03*
D14*
X017863Y025768D03*
X016863Y025768D03*
X015863Y025768D03*
X015863Y024768D03*
X016863Y024768D03*
D15*
X020005Y021213D02*
X021055Y021213D01*
X023005Y021213D02*
X024055Y021213D01*
X024055Y006646D02*
X023005Y006646D01*
X021055Y006646D02*
X020005Y006646D01*
X007855Y006646D02*
X006805Y006646D01*
X004855Y006646D02*
X003805Y006646D01*
X003805Y021213D02*
X004855Y021213D01*
X006805Y021213D02*
X007855Y021213D01*
D16*
X004323Y017709D03*
X013536Y024559D03*
X013536Y025741D03*
X014717Y025741D03*
X014717Y024559D03*
X019048Y024756D03*
X019028Y023733D03*
X019048Y025741D03*
X023378Y015898D03*
X024559Y015898D03*
X023378Y013930D03*
X023378Y011961D03*
X024559Y011961D03*
X021016Y010780D03*
X019048Y014717D03*
X014717Y008418D03*
X012748Y008418D03*
D17*
X009071Y011124D03*
X018788Y011124D03*
D18*
X020721Y013063D03*
X021784Y012591D03*
X023430Y010945D03*
X025156Y011286D03*
X025156Y014848D03*
X025219Y016786D03*
X023201Y016685D03*
X021626Y014914D03*
X018969Y013977D03*
X021587Y018772D03*
X019225Y021725D03*
X019008Y022729D03*
X017689Y023181D03*
X016902Y022493D03*
X017394Y021528D03*
X015863Y023304D03*
X015032Y023300D03*
X014678Y022985D03*
X014678Y022040D03*
X015034Y021211D03*
X014914Y020662D03*
X015111Y020091D03*
X013890Y019067D03*
X012926Y019796D03*
X012709Y020504D03*
X013024Y021587D03*
X013701Y023457D03*
X012945Y023930D03*
X013063Y025091D03*
X012836Y026189D03*
X010741Y023457D03*
X008894Y022985D03*
X007959Y024081D03*
X008804Y024717D03*
X008478Y025722D03*
X007100Y025246D03*
X006201Y024287D03*
X002460Y020321D03*
X002335Y018196D03*
X002335Y016321D03*
X005012Y016744D03*
X005265Y018101D03*
X007138Y015229D03*
X007926Y015859D03*
X009363Y015957D03*
X008713Y014008D03*
X007335Y012571D03*
X011351Y009678D03*
X011981Y008215D03*
X013752Y008890D03*
X015426Y008418D03*
X015878Y009244D03*
X016331Y006926D03*
X015969Y005552D03*
X015544Y004367D03*
X016685Y004284D03*
X017558Y002752D03*
X020462Y002814D03*
X021508Y004205D03*
X025248Y007276D03*
X014456Y005776D03*
X014401Y004295D03*
X012717Y003953D03*
X012993Y002713D03*
X012473Y005390D03*
X010524Y006178D03*
X008733Y005622D03*
X009486Y003034D03*
X007414Y002999D03*
X002460Y009946D03*
X002460Y011821D03*
X011725Y018556D03*
X011666Y019678D03*
X016528Y019638D03*
X019796Y025130D03*
X018469Y026286D03*
X025504Y019953D03*
D19*
X014579Y023457D03*
X014343Y024008D03*
X013083Y022709D03*
X012571Y022394D03*
X012059Y022394D03*
X010883Y022414D03*
X010878Y022689D03*
X010603Y022689D03*
X010603Y022414D03*
X012532Y020819D03*
X012926Y020819D03*
D20*
X011075Y021449D03*
D21*
X013185Y023433D03*
X010772Y023926D03*
X010701Y024485D03*
X014402Y021095D03*
X015386Y022197D03*
X021729Y011079D03*
D22*
X012394Y023378D03*
D23*
X016419Y004416D02*
X004350Y004416D01*
X004468Y004298D02*
X016388Y004298D01*
X016388Y004343D02*
X016388Y004225D01*
X016434Y004116D01*
X016517Y004032D01*
X016626Y003987D01*
X016745Y003987D01*
X016854Y004032D01*
X016937Y004116D01*
X016983Y004225D01*
X016983Y004343D01*
X016937Y004452D01*
X016865Y004524D01*
X016865Y010509D01*
X017957Y011600D01*
X017838Y011313D01*
X017838Y010935D01*
X017983Y010586D01*
X018250Y010319D01*
X018599Y010174D01*
X018977Y010174D01*
X019326Y010319D01*
X019593Y010586D01*
X019738Y010935D01*
X019738Y011313D01*
X019593Y011662D01*
X019326Y011930D01*
X018977Y012074D01*
X018599Y012074D01*
X018312Y011956D01*
X019701Y013344D01*
X019717Y013337D01*
X020898Y013337D01*
X021116Y013427D01*
X021282Y013594D01*
X021338Y013730D01*
X021414Y013730D01*
X021531Y013847D01*
X021531Y014012D01*
X021414Y014130D01*
X021338Y014130D01*
X021282Y014265D01*
X021116Y014432D01*
X020898Y014522D01*
X019717Y014522D01*
X019582Y014466D01*
X019524Y014524D01*
X019561Y014615D01*
X019561Y014819D01*
X019483Y015008D01*
X019339Y015152D01*
X019150Y015231D01*
X018945Y015231D01*
X018757Y015152D01*
X018612Y015008D01*
X018534Y014819D01*
X018534Y014615D01*
X018612Y014426D01*
X018757Y014281D01*
X018945Y014203D01*
X019150Y014203D01*
X019241Y014241D01*
X019299Y014183D01*
X019243Y014047D01*
X019243Y013812D01*
X019333Y013594D01*
X019387Y013539D01*
X017579Y011731D01*
X017894Y012342D01*
X018123Y013121D01*
X018123Y013121D01*
X018200Y013930D01*
X018123Y014738D01*
X017894Y015517D01*
X017522Y016238D01*
X017020Y016876D01*
X016407Y017408D01*
X015704Y017814D01*
X015704Y017814D01*
X014936Y018080D01*
X014133Y018195D01*
X014133Y018195D01*
X013322Y018156D01*
X013322Y018156D01*
X012533Y017965D01*
X012533Y017965D01*
X011794Y017628D01*
X011133Y017157D01*
X010573Y016569D01*
X010134Y015886D01*
X009832Y015133D01*
X009832Y015133D01*
X009678Y014335D01*
X009678Y013524D01*
X009832Y012726D01*
X010134Y011973D01*
X010134Y011973D01*
X010573Y011290D01*
X011133Y010702D01*
X011794Y010231D01*
X011794Y010231D01*
X012533Y009894D01*
X013322Y009703D01*
X014133Y009664D01*
X014936Y009779D01*
X015704Y010045D01*
X016407Y010451D01*
X016505Y010537D01*
X016505Y004524D01*
X016434Y004452D01*
X016388Y004343D01*
X016407Y004179D02*
X012911Y004179D01*
X012885Y004205D02*
X012776Y004250D01*
X012658Y004250D01*
X012549Y004205D01*
X012465Y004121D01*
X012420Y004012D01*
X012420Y003894D01*
X012465Y003785D01*
X012547Y003703D01*
X012547Y002918D01*
X012695Y002770D01*
X012695Y002654D01*
X012741Y002545D01*
X012824Y002461D01*
X012933Y002416D01*
X013052Y002416D01*
X013161Y002461D01*
X013244Y002545D01*
X013290Y002654D01*
X013290Y002772D01*
X013244Y002881D01*
X013161Y002965D01*
X013052Y003010D01*
X012936Y003010D01*
X012887Y003059D01*
X012887Y003703D01*
X012969Y003785D01*
X013014Y003894D01*
X013014Y004012D01*
X012969Y004121D01*
X012885Y004205D01*
X012994Y004061D02*
X016489Y004061D01*
X016685Y004284D02*
X016685Y010583D01*
X019835Y013733D01*
X019835Y013930D01*
X019636Y014489D02*
X019559Y014489D01*
X019558Y014607D02*
X026652Y014607D01*
X026652Y014489D02*
X020978Y014489D01*
X021177Y014370D02*
X023043Y014370D01*
X023018Y014352D02*
X022956Y014290D01*
X022905Y014220D01*
X022865Y014142D01*
X022838Y014059D01*
X022827Y013990D01*
X023318Y013990D01*
X023318Y014481D01*
X023249Y014470D01*
X023166Y014443D01*
X023088Y014403D01*
X023018Y014352D01*
X022928Y014252D02*
X021288Y014252D01*
X021337Y014133D02*
X022862Y014133D01*
X022831Y014015D02*
X021529Y014015D01*
X021531Y013896D02*
X023318Y013896D01*
X023318Y013870D02*
X022827Y013870D01*
X022838Y013800D01*
X022865Y013717D01*
X022905Y013639D01*
X022956Y013569D01*
X023018Y013507D01*
X023088Y013456D01*
X023166Y013416D01*
X023249Y013389D01*
X023318Y013378D01*
X023318Y013870D01*
X023318Y013990D01*
X023438Y013990D01*
X023438Y014481D01*
X023508Y014470D01*
X023591Y014443D01*
X023669Y014403D01*
X023739Y014352D01*
X023801Y014290D01*
X023852Y014220D01*
X023891Y014142D01*
X023918Y014059D01*
X023929Y013990D01*
X023438Y013990D01*
X023438Y013870D01*
X023929Y013870D01*
X023918Y013800D01*
X023891Y013717D01*
X023852Y013639D01*
X023801Y013569D01*
X023739Y013507D01*
X023669Y013456D01*
X023591Y013416D01*
X023508Y013389D01*
X023438Y013378D01*
X023438Y013870D01*
X023318Y013870D01*
X023318Y013778D02*
X023438Y013778D01*
X023438Y013896D02*
X026652Y013896D01*
X026652Y013778D02*
X023911Y013778D01*
X023862Y013659D02*
X026652Y013659D01*
X026652Y013541D02*
X023772Y013541D01*
X023602Y013422D02*
X026652Y013422D01*
X026652Y013304D02*
X019660Y013304D01*
X019542Y013185D02*
X026652Y013185D01*
X026652Y013067D02*
X019423Y013067D01*
X019305Y012948D02*
X026652Y012948D01*
X026652Y012830D02*
X019186Y012830D01*
X019068Y012711D02*
X026652Y012711D01*
X026652Y012593D02*
X018949Y012593D01*
X018831Y012474D02*
X023166Y012474D01*
X023088Y012435D01*
X023018Y012383D01*
X022956Y012322D01*
X022905Y012251D01*
X022865Y012174D01*
X022838Y012091D01*
X022827Y012021D01*
X023318Y012021D01*
X023318Y011901D01*
X022827Y011901D01*
X022838Y011831D01*
X022865Y011748D01*
X022905Y011671D01*
X022956Y011600D01*
X023018Y011539D01*
X023088Y011487D01*
X023166Y011448D01*
X023249Y011421D01*
X023318Y011410D01*
X023318Y011901D01*
X023438Y011901D01*
X023438Y011410D01*
X023508Y011421D01*
X023591Y011448D01*
X023669Y011487D01*
X023739Y011539D01*
X023801Y011600D01*
X023852Y011671D01*
X023891Y011748D01*
X023918Y011831D01*
X023929Y011901D01*
X023438Y011901D01*
X023438Y012021D01*
X023318Y012021D01*
X023318Y012512D01*
X023249Y012501D01*
X023166Y012474D01*
X023318Y012474D02*
X023438Y012474D01*
X023438Y012512D02*
X023438Y012021D01*
X023929Y012021D01*
X023918Y012091D01*
X023891Y012174D01*
X023852Y012251D01*
X023801Y012322D01*
X023739Y012383D01*
X023669Y012435D01*
X023591Y012474D01*
X024456Y012474D01*
X024457Y012475D02*
X024268Y012397D01*
X024124Y012252D01*
X024046Y012063D01*
X024046Y011859D01*
X024124Y011670D01*
X024268Y011526D01*
X023722Y011526D01*
X023833Y011645D02*
X024149Y011645D01*
X024085Y011763D02*
X023896Y011763D01*
X023926Y011882D02*
X024046Y011882D01*
X024046Y012000D02*
X023438Y012000D01*
X023438Y011882D02*
X023318Y011882D01*
X023318Y012000D02*
X021919Y012000D01*
X021927Y011980D02*
X021837Y012198D01*
X021671Y012365D01*
X021453Y012455D01*
X020272Y012455D01*
X020055Y012365D01*
X019888Y012198D01*
X019798Y011980D01*
X019798Y011745D01*
X019888Y011527D01*
X020055Y011360D01*
X020272Y011270D01*
X020742Y011270D01*
X020776Y011236D01*
X020725Y011215D01*
X020581Y011071D01*
X020502Y010882D01*
X020502Y010678D01*
X020581Y010489D01*
X020725Y010344D01*
X020914Y010266D01*
X021118Y010266D01*
X021307Y010344D01*
X021452Y010489D01*
X021530Y010678D01*
X021530Y010882D01*
X021452Y011071D01*
X021307Y011215D01*
X021186Y011266D01*
X021186Y011270D01*
X021453Y011270D01*
X021671Y011360D01*
X021837Y011527D01*
X021927Y011745D01*
X021927Y011980D01*
X021927Y011882D02*
X022830Y011882D01*
X022860Y011763D02*
X021927Y011763D01*
X021886Y011645D02*
X022924Y011645D01*
X023035Y011526D02*
X021836Y011526D01*
X021718Y011408D02*
X024279Y011408D01*
X024279Y011521D02*
X024268Y011526D01*
X024279Y011521D02*
X024279Y010667D01*
X023044Y010667D01*
X022724Y010534D01*
X022479Y010289D01*
X022347Y009969D01*
X022347Y009622D01*
X022479Y009302D01*
X022724Y009057D01*
X023044Y008924D01*
X024893Y008924D01*
X025214Y009057D01*
X025459Y009302D01*
X025591Y009622D01*
X025591Y009969D01*
X025459Y010289D01*
X025214Y010534D01*
X024893Y010667D01*
X024839Y010667D01*
X024839Y011521D01*
X024850Y011526D01*
X024995Y011670D01*
X025073Y011859D01*
X025073Y012063D01*
X024995Y012252D01*
X024850Y012397D01*
X024662Y012475D01*
X024457Y012475D01*
X024663Y012474D02*
X026652Y012474D01*
X026652Y012356D02*
X024891Y012356D01*
X025001Y012237D02*
X026652Y012237D01*
X026652Y012119D02*
X025050Y012119D01*
X025073Y012000D02*
X026652Y012000D01*
X026652Y011882D02*
X025073Y011882D01*
X025033Y011763D02*
X026652Y011763D01*
X026652Y011645D02*
X024969Y011645D01*
X024851Y011526D02*
X026652Y011526D01*
X026652Y011408D02*
X024839Y011408D01*
X024839Y011289D02*
X026652Y011289D01*
X026652Y011171D02*
X024839Y011171D01*
X024839Y011052D02*
X026652Y011052D01*
X026652Y010934D02*
X024839Y010934D01*
X024839Y010815D02*
X026652Y010815D01*
X026652Y010697D02*
X024839Y010697D01*
X025108Y010578D02*
X026652Y010578D01*
X026652Y010460D02*
X025288Y010460D01*
X025407Y010341D02*
X026652Y010341D01*
X026652Y010223D02*
X025486Y010223D01*
X025535Y010104D02*
X026652Y010104D01*
X026652Y009986D02*
X025584Y009986D01*
X025591Y009867D02*
X026652Y009867D01*
X026652Y009749D02*
X025591Y009749D01*
X025591Y009630D02*
X026652Y009630D01*
X026652Y009512D02*
X025545Y009512D01*
X025496Y009393D02*
X026650Y009393D01*
X026652Y009398D02*
X026280Y008431D01*
X025638Y007170D01*
X024990Y006172D01*
X024990Y008671D01*
X024954Y008706D01*
X020285Y008706D01*
X020285Y008752D01*
X020214Y009016D01*
X020077Y009254D01*
X019883Y009447D01*
X019646Y009584D01*
X019381Y009655D01*
X019107Y009655D01*
X018843Y009584D01*
X018605Y009447D01*
X018412Y009254D01*
X018275Y009016D01*
X018204Y008752D01*
X018204Y008478D01*
X018275Y008213D01*
X018412Y007976D01*
X018605Y007782D01*
X018843Y007645D01*
X019107Y007574D01*
X019381Y007574D01*
X019646Y007645D01*
X019870Y007774D01*
X019870Y007319D01*
X019784Y007296D01*
X019701Y007262D01*
X019623Y007217D01*
X019552Y007162D01*
X019488Y007099D01*
X019434Y007027D01*
X019389Y006950D01*
X019354Y006867D01*
X019331Y006780D01*
X019322Y006706D01*
X019870Y006706D01*
X019870Y006586D01*
X019322Y006586D01*
X019331Y006512D01*
X019354Y006425D01*
X019389Y006342D01*
X019434Y006265D01*
X019488Y006193D01*
X019552Y006130D01*
X019623Y006075D01*
X019701Y006030D01*
X019784Y005996D01*
X019870Y005973D01*
X019870Y004621D01*
X019905Y004586D01*
X023679Y004586D01*
X022976Y003883D01*
X021876Y002992D01*
X020689Y002221D01*
X019428Y001579D01*
X018461Y001207D01*
X009398Y001207D01*
X008431Y001579D01*
X007170Y002221D01*
X005983Y002992D01*
X004883Y003883D01*
X004180Y004586D01*
X007954Y004586D01*
X007990Y004621D01*
X007990Y006004D01*
X008220Y006099D01*
X008401Y006281D01*
X008500Y006518D01*
X008500Y006774D01*
X008401Y007011D01*
X008220Y007193D01*
X007990Y007288D01*
X007990Y007774D01*
X008213Y007645D01*
X008478Y007574D01*
X008752Y007574D01*
X009016Y007645D01*
X009254Y007782D01*
X009447Y007976D01*
X009584Y008213D01*
X009655Y008478D01*
X009655Y008752D01*
X009584Y009016D01*
X009447Y009254D01*
X009254Y009447D01*
X009016Y009584D01*
X008752Y009655D01*
X008478Y009655D01*
X008213Y009584D01*
X007976Y009447D01*
X007782Y009254D01*
X007645Y009016D01*
X007574Y008752D01*
X007574Y008706D01*
X002905Y008706D01*
X002870Y008671D01*
X002870Y006172D01*
X002221Y007170D01*
X001579Y008431D01*
X001207Y009398D01*
X001207Y018461D01*
X001579Y019428D01*
X002221Y020689D01*
X002870Y021688D01*
X002870Y019188D01*
X002905Y019153D01*
X007574Y019153D01*
X007574Y019107D01*
X007645Y018843D01*
X007782Y018605D01*
X007976Y018412D01*
X008213Y018275D01*
X008478Y018204D01*
X008752Y018204D01*
X009016Y018275D01*
X009254Y018412D01*
X009447Y018605D01*
X009584Y018843D01*
X009655Y019107D01*
X009655Y019381D01*
X009584Y019646D01*
X009447Y019883D01*
X009254Y020077D01*
X009016Y020214D01*
X008752Y020285D01*
X008478Y020285D01*
X008213Y020214D01*
X007990Y020085D01*
X007990Y020571D01*
X008220Y020666D01*
X008401Y020848D01*
X008500Y021085D01*
X008500Y021341D01*
X008401Y021578D01*
X008220Y021760D01*
X007990Y021855D01*
X007990Y023238D01*
X007954Y023273D01*
X004180Y023273D01*
X004883Y023976D01*
X005983Y024867D01*
X007170Y025638D01*
X008431Y026280D01*
X009398Y026652D01*
X014049Y026652D01*
X013956Y026559D01*
X013648Y026250D01*
X013638Y026254D01*
X013434Y026254D01*
X013245Y026176D01*
X013100Y026032D01*
X013022Y025843D01*
X013022Y025638D01*
X013100Y025450D01*
X013190Y025360D01*
X013122Y025388D01*
X013004Y025388D01*
X012895Y025343D01*
X012811Y025259D01*
X012766Y025150D01*
X012766Y025032D01*
X012775Y025010D01*
X012775Y024666D01*
X012875Y024567D01*
X013049Y024393D01*
X013100Y024268D01*
X013245Y024124D01*
X013434Y024046D01*
X013638Y024046D01*
X013827Y024124D01*
X013971Y024268D01*
X014050Y024457D01*
X014050Y024662D01*
X013971Y024850D01*
X013827Y024995D01*
X013638Y025073D01*
X013434Y025073D01*
X013361Y025043D01*
X013361Y025150D01*
X013315Y025259D01*
X013287Y025288D01*
X013434Y025227D01*
X013638Y025227D01*
X013827Y025305D01*
X013971Y025450D01*
X014050Y025638D01*
X014050Y025843D01*
X013971Y026032D01*
X013941Y026062D01*
X014197Y026319D01*
X016072Y026319D01*
X016396Y025994D01*
X016391Y025989D01*
X016082Y026298D01*
X015903Y026298D01*
X015903Y025808D01*
X015823Y025808D01*
X015823Y026298D01*
X015643Y026298D01*
X015333Y025988D01*
X015333Y025808D01*
X015823Y025808D01*
X015823Y025728D01*
X015333Y025728D01*
X015333Y025602D01*
X015231Y025703D01*
X015231Y025843D01*
X015152Y026032D01*
X015008Y026176D01*
X014819Y026254D01*
X014615Y026254D01*
X014426Y026176D01*
X014281Y026032D01*
X014203Y025843D01*
X014203Y025638D01*
X014281Y025450D01*
X014426Y025305D01*
X014615Y025227D01*
X014819Y025227D01*
X015008Y025305D01*
X015078Y025375D01*
X015256Y025198D01*
X015355Y025098D01*
X015500Y025098D01*
X015373Y024971D01*
X015373Y024729D01*
X015203Y024729D01*
X015152Y024850D01*
X015008Y024995D01*
X014819Y025073D01*
X014615Y025073D01*
X014426Y024995D01*
X014281Y024850D01*
X014203Y024662D01*
X014203Y024457D01*
X014281Y024268D01*
X014426Y024124D01*
X014615Y024046D01*
X014819Y024046D01*
X015008Y024124D01*
X015152Y024268D01*
X015203Y024389D01*
X015548Y024389D01*
X015660Y024278D01*
X016066Y024278D01*
X016353Y024565D01*
X016353Y024971D01*
X016226Y025098D01*
X016292Y025098D01*
X016396Y024994D01*
X016373Y024971D01*
X016373Y024565D01*
X016660Y024278D01*
X017066Y024278D01*
X017185Y024397D01*
X017185Y024315D01*
X016950Y024080D01*
X015335Y024080D01*
X014961Y023706D01*
X014862Y023606D01*
X014862Y023550D01*
X014780Y023468D01*
X014735Y023359D01*
X014735Y023282D01*
X014618Y023282D01*
X014509Y023237D01*
X014426Y023153D01*
X014380Y023044D01*
X014380Y022926D01*
X014426Y022816D01*
X014508Y022734D01*
X014508Y022290D01*
X014426Y022208D01*
X014380Y022099D01*
X014380Y021981D01*
X014426Y021871D01*
X014508Y021790D01*
X014508Y021342D01*
X014455Y021363D01*
X014349Y021363D01*
X014250Y021322D01*
X014174Y021247D01*
X014134Y021148D01*
X014134Y021041D01*
X014174Y020943D01*
X014250Y020867D01*
X014349Y020826D01*
X014455Y020826D01*
X014554Y020867D01*
X014611Y020924D01*
X014616Y020925D01*
X014669Y020925D01*
X014683Y020938D01*
X014701Y020942D01*
X014731Y020987D01*
X014769Y021024D01*
X014769Y021043D01*
X014777Y021055D01*
X014782Y021043D01*
X014866Y020959D01*
X014855Y020959D01*
X014745Y020914D01*
X014662Y020830D01*
X014617Y020721D01*
X014617Y020603D01*
X014662Y020493D01*
X014745Y020410D01*
X014855Y020365D01*
X014973Y020365D01*
X015082Y020410D01*
X015164Y020492D01*
X015220Y020492D01*
X015556Y020828D01*
X015556Y021988D01*
X015614Y022045D01*
X015655Y022144D01*
X015655Y022251D01*
X015614Y022349D01*
X015538Y022425D01*
X015440Y022466D01*
X015333Y022466D01*
X015250Y022431D01*
X015250Y023098D01*
X015284Y023131D01*
X015329Y023240D01*
X015329Y023359D01*
X015284Y023468D01*
X015244Y023508D01*
X015476Y023740D01*
X017090Y023740D01*
X017190Y023839D01*
X017525Y024174D01*
X017525Y024278D01*
X018282Y024278D01*
X018353Y024348D01*
X018353Y025022D01*
X018696Y025365D01*
X018757Y025305D01*
X018893Y025248D01*
X018757Y025192D01*
X018612Y025047D01*
X018534Y024858D01*
X018534Y024654D01*
X018612Y024465D01*
X018757Y024321D01*
X018936Y024246D01*
X018926Y024246D01*
X018737Y024168D01*
X018592Y024024D01*
X018514Y023835D01*
X018514Y023630D01*
X018592Y023442D01*
X018737Y023297D01*
X018858Y023247D01*
X018858Y022988D01*
X018840Y022981D01*
X018756Y022897D01*
X018711Y022788D01*
X018711Y022670D01*
X018756Y022560D01*
X018838Y022478D01*
X018838Y021812D01*
X018928Y021722D01*
X018928Y021666D01*
X018973Y021556D01*
X019056Y021473D01*
X019166Y021428D01*
X019284Y021428D01*
X019393Y021473D01*
X019429Y021509D01*
X019360Y021341D01*
X019360Y021085D01*
X019458Y020848D01*
X019639Y020666D01*
X019870Y020571D01*
X019870Y020085D01*
X019646Y020214D01*
X019381Y020285D01*
X019107Y020285D01*
X018843Y020214D01*
X018605Y020077D01*
X018412Y019883D01*
X018275Y019646D01*
X018204Y019381D01*
X018204Y019107D01*
X018275Y018843D01*
X018412Y018605D01*
X018605Y018412D01*
X018843Y018275D01*
X019107Y018204D01*
X019381Y018204D01*
X019646Y018275D01*
X019883Y018412D01*
X020077Y018605D01*
X020214Y018843D01*
X020285Y019107D01*
X020285Y019153D01*
X024954Y019153D01*
X024990Y019188D01*
X024990Y021688D01*
X025638Y020689D01*
X026280Y019428D01*
X026652Y018461D01*
X026652Y009398D01*
X026604Y009275D02*
X025431Y009275D01*
X025312Y009156D02*
X026559Y009156D01*
X026513Y009038D02*
X025166Y009038D01*
X024978Y008682D02*
X026377Y008682D01*
X026422Y008801D02*
X020272Y008801D01*
X020240Y008919D02*
X026468Y008919D01*
X026331Y008564D02*
X024990Y008564D01*
X024990Y008445D02*
X026286Y008445D01*
X026227Y008327D02*
X024990Y008327D01*
X024990Y008208D02*
X026167Y008208D01*
X026106Y008090D02*
X024990Y008090D01*
X024990Y007971D02*
X026046Y007971D01*
X025986Y007853D02*
X024990Y007853D01*
X024990Y007734D02*
X025925Y007734D01*
X025865Y007616D02*
X024990Y007616D01*
X024990Y007497D02*
X025805Y007497D01*
X025744Y007379D02*
X024990Y007379D01*
X024990Y007260D02*
X025684Y007260D01*
X025619Y007142D02*
X024990Y007142D01*
X024990Y007023D02*
X025542Y007023D01*
X025466Y006905D02*
X024990Y006905D01*
X024990Y006786D02*
X025389Y006786D01*
X025312Y006668D02*
X024990Y006668D01*
X024990Y006549D02*
X025235Y006549D01*
X025158Y006431D02*
X024990Y006431D01*
X024990Y006312D02*
X025081Y006312D01*
X025004Y006194D02*
X024990Y006194D01*
X023628Y004535D02*
X016865Y004535D01*
X016865Y004653D02*
X019870Y004653D01*
X019870Y004772D02*
X016865Y004772D01*
X016865Y004890D02*
X019870Y004890D01*
X019870Y005009D02*
X016865Y005009D01*
X016865Y005127D02*
X019870Y005127D01*
X019870Y005246D02*
X016865Y005246D01*
X016865Y005364D02*
X019870Y005364D01*
X019870Y005483D02*
X016865Y005483D01*
X016865Y005601D02*
X019870Y005601D01*
X019870Y005720D02*
X016865Y005720D01*
X016865Y005838D02*
X019870Y005838D01*
X019870Y005957D02*
X016865Y005957D01*
X016865Y006075D02*
X019624Y006075D01*
X019488Y006194D02*
X016865Y006194D01*
X016865Y006312D02*
X019406Y006312D01*
X019353Y006431D02*
X016865Y006431D01*
X016865Y006549D02*
X019326Y006549D01*
X019333Y006786D02*
X016865Y006786D01*
X016865Y006668D02*
X019870Y006668D01*
X019370Y006905D02*
X016865Y006905D01*
X016865Y007023D02*
X019431Y007023D01*
X019531Y007142D02*
X016865Y007142D01*
X016865Y007260D02*
X019698Y007260D01*
X019870Y007379D02*
X016865Y007379D01*
X016865Y007497D02*
X019870Y007497D01*
X019870Y007616D02*
X019537Y007616D01*
X019801Y007734D02*
X019870Y007734D01*
X018952Y007616D02*
X016865Y007616D01*
X016865Y007734D02*
X018688Y007734D01*
X018535Y007853D02*
X016865Y007853D01*
X016865Y007971D02*
X018416Y007971D01*
X018346Y008090D02*
X016865Y008090D01*
X016865Y008208D02*
X018278Y008208D01*
X018244Y008327D02*
X016865Y008327D01*
X016865Y008445D02*
X018212Y008445D01*
X018204Y008564D02*
X016865Y008564D01*
X016865Y008682D02*
X018204Y008682D01*
X018217Y008801D02*
X016865Y008801D01*
X016865Y008919D02*
X018249Y008919D01*
X018287Y009038D02*
X016865Y009038D01*
X016865Y009156D02*
X018355Y009156D01*
X018433Y009275D02*
X016865Y009275D01*
X016865Y009393D02*
X018551Y009393D01*
X018717Y009512D02*
X016865Y009512D01*
X016865Y009630D02*
X019013Y009630D01*
X019476Y009630D02*
X022347Y009630D01*
X022347Y009749D02*
X016865Y009749D01*
X016865Y009867D02*
X022347Y009867D01*
X022353Y009986D02*
X016865Y009986D01*
X016865Y010104D02*
X022402Y010104D01*
X022452Y010223D02*
X019093Y010223D01*
X019348Y010341D02*
X020733Y010341D01*
X020610Y010460D02*
X019467Y010460D01*
X019585Y010578D02*
X020544Y010578D01*
X020502Y010697D02*
X019639Y010697D01*
X019688Y010815D02*
X020502Y010815D01*
X020524Y010934D02*
X019737Y010934D01*
X019738Y011052D02*
X020573Y011052D01*
X020680Y011171D02*
X019738Y011171D01*
X019738Y011289D02*
X020227Y011289D01*
X020007Y011408D02*
X019699Y011408D01*
X019650Y011526D02*
X019889Y011526D01*
X019839Y011645D02*
X019601Y011645D01*
X019493Y011763D02*
X019798Y011763D01*
X019798Y011882D02*
X019374Y011882D01*
X019157Y012000D02*
X019806Y012000D01*
X019855Y012119D02*
X018475Y012119D01*
X018420Y012000D02*
X018357Y012000D01*
X018594Y012237D02*
X019927Y012237D01*
X020045Y012356D02*
X018712Y012356D01*
X018440Y012593D02*
X017968Y012593D01*
X018002Y012711D02*
X018559Y012711D01*
X018677Y012830D02*
X018037Y012830D01*
X018072Y012948D02*
X018796Y012948D01*
X018914Y013067D02*
X018107Y013067D01*
X018129Y013185D02*
X019033Y013185D01*
X019151Y013304D02*
X018140Y013304D01*
X018151Y013422D02*
X019270Y013422D01*
X019386Y013541D02*
X018163Y013541D01*
X018174Y013659D02*
X019306Y013659D01*
X019257Y013778D02*
X018185Y013778D01*
X018197Y013896D02*
X019243Y013896D01*
X019243Y014015D02*
X018192Y014015D01*
X018181Y014133D02*
X019278Y014133D01*
X018829Y014252D02*
X018169Y014252D01*
X018158Y014370D02*
X018668Y014370D01*
X018586Y014489D02*
X018147Y014489D01*
X018135Y014607D02*
X018537Y014607D01*
X018534Y014726D02*
X018124Y014726D01*
X018092Y014844D02*
X018544Y014844D01*
X018593Y014963D02*
X018057Y014963D01*
X018022Y015081D02*
X018685Y015081D01*
X018870Y015200D02*
X017987Y015200D01*
X017952Y015318D02*
X026652Y015318D01*
X026652Y015200D02*
X019225Y015200D01*
X019410Y015081D02*
X026652Y015081D01*
X026652Y014963D02*
X019502Y014963D01*
X019551Y014844D02*
X026652Y014844D01*
X026652Y014726D02*
X019561Y014726D01*
X020059Y015456D02*
X019978Y015514D01*
X019908Y015584D01*
X019849Y015665D01*
X019804Y015754D01*
X019773Y015848D01*
X019759Y015936D01*
X020330Y015936D01*
X020450Y015936D01*
X020450Y015364D01*
X021385Y015364D01*
X021483Y015380D01*
X021578Y015410D01*
X021667Y015456D01*
X021747Y015514D01*
X021817Y015584D01*
X021876Y015665D01*
X021921Y015754D01*
X021952Y015848D01*
X021966Y015936D01*
X020450Y015936D01*
X020450Y016056D01*
X021966Y016056D01*
X021952Y016145D01*
X021921Y016239D01*
X021876Y016328D01*
X021817Y016408D01*
X021747Y016479D01*
X021667Y016537D01*
X021578Y016583D01*
X021483Y016613D01*
X021385Y016629D01*
X020450Y016629D01*
X020450Y016056D01*
X020330Y016056D01*
X020330Y015936D01*
X020330Y015366D01*
X020242Y015380D01*
X020147Y015410D01*
X020059Y015456D01*
X020096Y015437D02*
X017918Y015437D01*
X017874Y015555D02*
X019937Y015555D01*
X019845Y015674D02*
X017813Y015674D01*
X017752Y015792D02*
X019792Y015792D01*
X019763Y015911D02*
X017691Y015911D01*
X017630Y016029D02*
X020330Y016029D01*
X020330Y016056D02*
X019759Y016056D01*
X019773Y016145D01*
X019804Y016239D01*
X019849Y016328D01*
X019908Y016408D01*
X019978Y016479D01*
X020059Y016537D01*
X020147Y016583D01*
X020242Y016613D01*
X020330Y016627D01*
X020330Y016056D01*
X020330Y016148D02*
X020450Y016148D01*
X020450Y016266D02*
X020330Y016266D01*
X020330Y016385D02*
X020450Y016385D01*
X020450Y016503D02*
X020330Y016503D01*
X020330Y016622D02*
X020450Y016622D01*
X020294Y016622D02*
X017221Y016622D01*
X017127Y016740D02*
X022904Y016740D01*
X022904Y016745D02*
X022904Y016626D01*
X022949Y016517D01*
X023031Y016435D01*
X023031Y016277D01*
X022943Y016189D01*
X022865Y016000D01*
X022865Y015796D01*
X022943Y015607D01*
X023087Y015463D01*
X023276Y015384D01*
X023481Y015384D01*
X023669Y015463D01*
X023814Y015607D01*
X023892Y015796D01*
X023892Y016000D01*
X023814Y016189D01*
X023669Y016334D01*
X023481Y016412D01*
X023371Y016412D01*
X023371Y016435D01*
X023453Y016517D01*
X023498Y016626D01*
X023498Y016745D01*
X023453Y016854D01*
X023370Y016937D01*
X023260Y016983D01*
X023142Y016983D01*
X023033Y016937D01*
X022949Y016854D01*
X022904Y016745D01*
X022906Y016622D02*
X021431Y016622D01*
X021714Y016503D02*
X022963Y016503D01*
X023031Y016385D02*
X021835Y016385D01*
X021907Y016266D02*
X023020Y016266D01*
X022926Y016148D02*
X021951Y016148D01*
X021962Y015911D02*
X022865Y015911D01*
X022877Y016029D02*
X020450Y016029D01*
X020450Y015911D02*
X020330Y015911D01*
X020330Y015792D02*
X020450Y015792D01*
X020450Y015674D02*
X020330Y015674D01*
X020330Y015555D02*
X020450Y015555D01*
X020450Y015437D02*
X020330Y015437D01*
X019774Y016148D02*
X017569Y016148D01*
X017500Y016266D02*
X019818Y016266D01*
X019890Y016385D02*
X017407Y016385D01*
X017314Y016503D02*
X020011Y016503D01*
X019656Y018281D02*
X022365Y018281D01*
X022347Y018237D02*
X022347Y017890D01*
X022479Y017570D01*
X022724Y017325D01*
X023044Y017192D01*
X024279Y017192D01*
X024279Y016338D01*
X024268Y016334D01*
X024124Y016189D01*
X024046Y016000D01*
X024046Y015796D01*
X024124Y015607D01*
X024268Y015463D01*
X024457Y015384D01*
X024662Y015384D01*
X024850Y015463D01*
X024995Y015607D01*
X025073Y015796D01*
X025073Y016000D01*
X024995Y016189D01*
X024850Y016334D01*
X024839Y016338D01*
X024839Y017192D01*
X024893Y017192D01*
X025214Y017325D01*
X025459Y017570D01*
X025591Y017890D01*
X025591Y018237D01*
X025459Y018557D01*
X025214Y018802D01*
X024893Y018935D01*
X023044Y018935D01*
X022724Y018802D01*
X022479Y018557D01*
X022347Y018237D01*
X022347Y018162D02*
X014363Y018162D01*
X014936Y018080D02*
X014936Y018080D01*
X015040Y018044D02*
X022347Y018044D01*
X022347Y017925D02*
X015383Y017925D01*
X015717Y017807D02*
X022381Y017807D01*
X022430Y017688D02*
X015922Y017688D01*
X016127Y017570D02*
X022480Y017570D01*
X022598Y017451D02*
X016332Y017451D01*
X016494Y017333D02*
X022717Y017333D01*
X022992Y017214D02*
X016631Y017214D01*
X016767Y017096D02*
X024279Y017096D01*
X024279Y016977D02*
X023274Y016977D01*
X023129Y016977D02*
X016904Y016977D01*
X017020Y016876D02*
X017020Y016876D01*
X017034Y016859D02*
X022954Y016859D01*
X023448Y016859D02*
X024279Y016859D01*
X024279Y016740D02*
X023498Y016740D01*
X023496Y016622D02*
X024279Y016622D01*
X024279Y016503D02*
X023439Y016503D01*
X023546Y016385D02*
X024279Y016385D01*
X024201Y016266D02*
X023737Y016266D01*
X023831Y016148D02*
X024107Y016148D01*
X024058Y016029D02*
X023880Y016029D01*
X023892Y015911D02*
X024046Y015911D01*
X024047Y015792D02*
X023890Y015792D01*
X023841Y015674D02*
X024096Y015674D01*
X024176Y015555D02*
X023762Y015555D01*
X023607Y015437D02*
X024331Y015437D01*
X024788Y015437D02*
X026652Y015437D01*
X026652Y015555D02*
X024943Y015555D01*
X025022Y015674D02*
X026652Y015674D01*
X026652Y015792D02*
X025072Y015792D01*
X025073Y015911D02*
X026652Y015911D01*
X026652Y016029D02*
X025061Y016029D01*
X025012Y016148D02*
X026652Y016148D01*
X026652Y016266D02*
X024918Y016266D01*
X024839Y016385D02*
X026652Y016385D01*
X026652Y016503D02*
X024839Y016503D01*
X024839Y016622D02*
X026652Y016622D01*
X026652Y016740D02*
X024839Y016740D01*
X024839Y016859D02*
X026652Y016859D01*
X026652Y016977D02*
X024839Y016977D01*
X024839Y017096D02*
X026652Y017096D01*
X026652Y017214D02*
X024946Y017214D01*
X025221Y017333D02*
X026652Y017333D01*
X026652Y017451D02*
X025340Y017451D01*
X025458Y017570D02*
X026652Y017570D01*
X026652Y017688D02*
X025508Y017688D01*
X025557Y017807D02*
X026652Y017807D01*
X026652Y017925D02*
X025591Y017925D01*
X025591Y018044D02*
X026652Y018044D01*
X026652Y018162D02*
X025591Y018162D01*
X025573Y018281D02*
X026652Y018281D01*
X026652Y018399D02*
X025524Y018399D01*
X025475Y018518D02*
X026630Y018518D01*
X026584Y018636D02*
X025379Y018636D01*
X025261Y018755D02*
X026539Y018755D01*
X026493Y018873D02*
X025042Y018873D01*
X024990Y019229D02*
X026357Y019229D01*
X026311Y019347D02*
X024990Y019347D01*
X024990Y019466D02*
X026261Y019466D01*
X026201Y019584D02*
X024990Y019584D01*
X024990Y019703D02*
X026141Y019703D01*
X026080Y019821D02*
X024990Y019821D01*
X024990Y019940D02*
X026020Y019940D01*
X025959Y020058D02*
X024990Y020058D01*
X024990Y020177D02*
X025899Y020177D01*
X025839Y020295D02*
X024990Y020295D01*
X024990Y020414D02*
X025778Y020414D01*
X025718Y020532D02*
X024990Y020532D01*
X024990Y020651D02*
X025658Y020651D01*
X025586Y020769D02*
X024990Y020769D01*
X024990Y020888D02*
X025509Y020888D01*
X025432Y021006D02*
X024990Y021006D01*
X024990Y021125D02*
X025355Y021125D01*
X025278Y021243D02*
X024990Y021243D01*
X024990Y021362D02*
X025201Y021362D01*
X025124Y021480D02*
X024990Y021480D01*
X024990Y021599D02*
X025047Y021599D01*
X023679Y023273D02*
X019905Y023273D01*
X019870Y023238D01*
X019870Y021855D01*
X019639Y021760D01*
X019506Y021626D01*
X019522Y021666D01*
X019522Y021784D01*
X019477Y021893D01*
X019393Y021977D01*
X019284Y022022D01*
X019178Y022022D01*
X019178Y022478D01*
X019260Y022560D01*
X019305Y022670D01*
X019305Y022788D01*
X019260Y022897D01*
X019198Y022959D01*
X019198Y023247D01*
X019319Y023297D01*
X019463Y023442D01*
X019542Y023630D01*
X019542Y023835D01*
X019463Y024024D01*
X019319Y024168D01*
X019139Y024243D01*
X019150Y024243D01*
X019339Y024321D01*
X019483Y024465D01*
X019561Y024654D01*
X019561Y024858D01*
X019505Y024993D01*
X019523Y025011D01*
X019544Y024962D01*
X019627Y024878D01*
X019737Y024833D01*
X019855Y024833D01*
X019964Y024878D01*
X020048Y024962D01*
X020093Y025071D01*
X020093Y025189D01*
X020048Y025299D01*
X019964Y025382D01*
X019855Y025427D01*
X019739Y025427D01*
X019728Y025438D01*
X019472Y025438D01*
X019483Y025450D01*
X019561Y025638D01*
X019561Y025843D01*
X019483Y026032D01*
X019339Y026176D01*
X019150Y026254D01*
X018945Y026254D01*
X018757Y026176D01*
X018612Y026032D01*
X018534Y025843D01*
X018534Y025684D01*
X018504Y025653D01*
X018108Y025258D01*
X017525Y025258D01*
X017525Y025296D01*
X017583Y025355D01*
X017660Y025278D01*
X018066Y025278D01*
X018353Y025565D01*
X018353Y025971D01*
X018066Y026258D01*
X017660Y026258D01*
X017373Y025971D01*
X017373Y025625D01*
X017353Y025605D01*
X017353Y025971D01*
X017066Y026258D01*
X016660Y026258D01*
X016636Y026235D01*
X016312Y026559D01*
X016219Y026652D01*
X018461Y026652D01*
X019428Y026280D01*
X020689Y025638D01*
X021876Y024867D01*
X022976Y023976D01*
X023679Y023273D01*
X023576Y023376D02*
X019398Y023376D01*
X019485Y023495D02*
X023458Y023495D01*
X023339Y023613D02*
X019534Y023613D01*
X019542Y023732D02*
X023221Y023732D01*
X023102Y023850D02*
X019535Y023850D01*
X019486Y023969D02*
X022984Y023969D01*
X022839Y024087D02*
X019400Y024087D01*
X019229Y024206D02*
X022693Y024206D01*
X022547Y024324D02*
X019342Y024324D01*
X019460Y024443D02*
X022400Y024443D01*
X022254Y024561D02*
X019523Y024561D01*
X019561Y024680D02*
X022108Y024680D01*
X021961Y024798D02*
X019561Y024798D01*
X019537Y024917D02*
X019589Y024917D01*
X020002Y024917D02*
X021800Y024917D01*
X021617Y025035D02*
X020078Y025035D01*
X020093Y025154D02*
X021435Y025154D01*
X021252Y025272D02*
X020059Y025272D01*
X019944Y025391D02*
X021070Y025391D01*
X020888Y025509D02*
X019508Y025509D01*
X019557Y025628D02*
X020705Y025628D01*
X020477Y025746D02*
X019561Y025746D01*
X019552Y025865D02*
X020244Y025865D01*
X020012Y025983D02*
X019503Y025983D01*
X019413Y026102D02*
X019779Y026102D01*
X019547Y026220D02*
X019232Y026220D01*
X019276Y026339D02*
X016533Y026339D01*
X016414Y026457D02*
X018968Y026457D01*
X018863Y026220D02*
X018104Y026220D01*
X018222Y026102D02*
X018682Y026102D01*
X018592Y025983D02*
X018341Y025983D01*
X018353Y025865D02*
X018543Y025865D01*
X018534Y025746D02*
X018353Y025746D01*
X018353Y025628D02*
X018478Y025628D01*
X018359Y025509D02*
X018297Y025509D01*
X018241Y025391D02*
X018178Y025391D01*
X018122Y025272D02*
X017525Y025272D01*
X017373Y025628D02*
X017353Y025628D01*
X017353Y025746D02*
X017373Y025746D01*
X017373Y025865D02*
X017353Y025865D01*
X017341Y025983D02*
X017385Y025983D01*
X017503Y026102D02*
X017222Y026102D01*
X017104Y026220D02*
X017622Y026220D01*
X018659Y026576D02*
X016296Y026576D01*
X016312Y026559D02*
X016312Y026559D01*
X016170Y026220D02*
X016160Y026220D01*
X016279Y026102D02*
X016289Y026102D01*
X015903Y026102D02*
X015823Y026102D01*
X015823Y026220D02*
X015903Y026220D01*
X015903Y025983D02*
X015823Y025983D01*
X015823Y025865D02*
X015903Y025865D01*
X015823Y025746D02*
X015231Y025746D01*
X015222Y025865D02*
X015333Y025865D01*
X015333Y025983D02*
X015173Y025983D01*
X015082Y026102D02*
X015447Y026102D01*
X015565Y026220D02*
X014902Y026220D01*
X014532Y026220D02*
X014098Y026220D01*
X013980Y026102D02*
X014351Y026102D01*
X014261Y025983D02*
X013991Y025983D01*
X014040Y025865D02*
X014212Y025865D01*
X014203Y025746D02*
X014050Y025746D01*
X014045Y025628D02*
X014208Y025628D01*
X014257Y025509D02*
X013996Y025509D01*
X013912Y025391D02*
X014340Y025391D01*
X014506Y025272D02*
X013747Y025272D01*
X013730Y025035D02*
X014523Y025035D01*
X014348Y024917D02*
X013905Y024917D01*
X013993Y024798D02*
X014260Y024798D01*
X014211Y024680D02*
X014042Y024680D01*
X014050Y024561D02*
X014203Y024561D01*
X014209Y024443D02*
X014043Y024443D01*
X013994Y024324D02*
X014258Y024324D01*
X014344Y024206D02*
X013908Y024206D01*
X013738Y024087D02*
X014515Y024087D01*
X014919Y024087D02*
X016957Y024087D01*
X017075Y024206D02*
X015090Y024206D01*
X015175Y024324D02*
X015614Y024324D01*
X016112Y024324D02*
X016614Y024324D01*
X016495Y024443D02*
X016230Y024443D01*
X016349Y024561D02*
X016377Y024561D01*
X016373Y024680D02*
X016353Y024680D01*
X016353Y024798D02*
X016373Y024798D01*
X016373Y024917D02*
X016353Y024917D01*
X016355Y025035D02*
X016289Y025035D01*
X015437Y025035D02*
X014911Y025035D01*
X015086Y024917D02*
X015373Y024917D01*
X015373Y024798D02*
X015174Y024798D01*
X015300Y025154D02*
X013359Y025154D01*
X013325Y025272D02*
X013303Y025272D01*
X013159Y025391D02*
X006789Y025391D01*
X006972Y025509D02*
X013076Y025509D01*
X013027Y025628D02*
X007154Y025628D01*
X007382Y025746D02*
X013022Y025746D01*
X013031Y025865D02*
X007615Y025865D01*
X007847Y025983D02*
X013080Y025983D01*
X013170Y026102D02*
X008080Y026102D01*
X008313Y026220D02*
X013351Y026220D01*
X013736Y026339D02*
X008583Y026339D01*
X008891Y026457D02*
X013854Y026457D01*
X013973Y026576D02*
X009200Y026576D01*
X010620Y024153D02*
X010544Y024078D01*
X010504Y023979D01*
X010504Y023872D01*
X010544Y023774D01*
X010598Y023720D01*
X010572Y023709D01*
X010489Y023625D01*
X010443Y023516D01*
X010443Y023398D01*
X010489Y023289D01*
X010572Y023205D01*
X010681Y023160D01*
X010800Y023160D01*
X010909Y023205D01*
X010991Y023287D01*
X011221Y023287D01*
X011437Y023072D01*
X011437Y020906D01*
X011536Y020807D01*
X011909Y020434D01*
X012009Y020334D01*
X012459Y020334D01*
X012541Y020252D01*
X012650Y020207D01*
X012768Y020207D01*
X012877Y020252D01*
X012961Y020336D01*
X013006Y020445D01*
X013006Y020563D01*
X012961Y020673D01*
X012877Y020756D01*
X012768Y020801D01*
X012650Y020801D01*
X012541Y020756D01*
X012459Y020674D01*
X012150Y020674D01*
X011777Y021047D01*
X011777Y023213D01*
X011462Y023528D01*
X011362Y023627D01*
X010991Y023627D01*
X010921Y023697D01*
X010924Y023698D01*
X010952Y023726D01*
X012729Y023726D01*
X012777Y023678D01*
X012886Y023632D01*
X013004Y023632D01*
X013114Y023678D01*
X013197Y023761D01*
X013242Y023870D01*
X013242Y023989D01*
X013197Y024098D01*
X013114Y024181D01*
X013004Y024227D01*
X012886Y024227D01*
X012777Y024181D01*
X012721Y024126D01*
X010952Y024126D01*
X010924Y024153D01*
X010825Y024194D01*
X010719Y024194D01*
X010620Y024153D01*
X010554Y024087D02*
X005020Y024087D01*
X004875Y023969D02*
X010504Y023969D01*
X010513Y023850D02*
X004757Y023850D01*
X004638Y023732D02*
X010586Y023732D01*
X010484Y023613D02*
X004520Y023613D01*
X004401Y023495D02*
X010443Y023495D01*
X010452Y023376D02*
X004283Y023376D01*
X005166Y024206D02*
X012835Y024206D01*
X013055Y024206D02*
X013163Y024206D01*
X013202Y024087D02*
X013334Y024087D01*
X013242Y023969D02*
X015224Y023969D01*
X015106Y023850D02*
X013234Y023850D01*
X013168Y023732D02*
X014987Y023732D01*
X014869Y023613D02*
X011376Y023613D01*
X011495Y023495D02*
X014807Y023495D01*
X014742Y023376D02*
X011613Y023376D01*
X011732Y023258D02*
X014560Y023258D01*
X014420Y023139D02*
X011777Y023139D01*
X011777Y023021D02*
X014380Y023021D01*
X014390Y022902D02*
X011777Y022902D01*
X011777Y022784D02*
X014458Y022784D01*
X014508Y022665D02*
X011777Y022665D01*
X011777Y022547D02*
X014508Y022547D01*
X014508Y022428D02*
X011777Y022428D01*
X011777Y022310D02*
X014508Y022310D01*
X014419Y022191D02*
X011777Y022191D01*
X011777Y022073D02*
X014380Y022073D01*
X014391Y021954D02*
X011777Y021954D01*
X011777Y021836D02*
X014462Y021836D01*
X014508Y021717D02*
X011777Y021717D01*
X011777Y021599D02*
X014508Y021599D01*
X014508Y021480D02*
X011777Y021480D01*
X011777Y021362D02*
X014344Y021362D01*
X014460Y021362D02*
X014508Y021362D01*
X014173Y021243D02*
X011777Y021243D01*
X011777Y021125D02*
X014134Y021125D01*
X014148Y021006D02*
X011818Y021006D01*
X011936Y020888D02*
X014230Y020888D01*
X014574Y020888D02*
X014719Y020888D01*
X014750Y021006D02*
X014819Y021006D01*
X014866Y020959D02*
X014866Y020959D01*
X014637Y020769D02*
X012847Y020769D01*
X012970Y020651D02*
X014617Y020651D01*
X014646Y020532D02*
X013006Y020532D01*
X012993Y020414D02*
X014742Y020414D01*
X015086Y020414D02*
X019870Y020414D01*
X019870Y020532D02*
X015261Y020532D01*
X015379Y020651D02*
X019677Y020651D01*
X019536Y020769D02*
X015498Y020769D01*
X015556Y020888D02*
X019441Y020888D01*
X019392Y021006D02*
X015556Y021006D01*
X015556Y021125D02*
X019360Y021125D01*
X019360Y021243D02*
X017483Y021243D01*
X017453Y021231D02*
X017562Y021276D01*
X017646Y021360D01*
X017691Y021469D01*
X017691Y021587D01*
X017646Y021696D01*
X017562Y021780D01*
X017453Y021825D01*
X017335Y021825D01*
X017226Y021780D01*
X017164Y021718D01*
X016618Y021718D01*
X016033Y022303D01*
X016033Y023053D01*
X016115Y023135D01*
X016160Y023244D01*
X016160Y023363D01*
X016115Y023472D01*
X016031Y023555D01*
X015922Y023601D01*
X015803Y023601D01*
X015694Y023555D01*
X015611Y023472D01*
X015565Y023363D01*
X015565Y023244D01*
X015611Y023135D01*
X015693Y023053D01*
X015693Y022162D01*
X016378Y021477D01*
X016477Y021378D01*
X017135Y021378D01*
X017142Y021360D01*
X017226Y021276D01*
X017335Y021231D01*
X017453Y021231D01*
X017305Y021243D02*
X015556Y021243D01*
X015556Y021362D02*
X017141Y021362D01*
X017647Y021362D02*
X019368Y021362D01*
X019400Y021480D02*
X019417Y021480D01*
X019522Y021717D02*
X019596Y021717D01*
X019501Y021836D02*
X019822Y021836D01*
X019870Y021954D02*
X019416Y021954D01*
X019178Y022073D02*
X019870Y022073D01*
X019870Y022191D02*
X019178Y022191D01*
X019178Y022310D02*
X019870Y022310D01*
X019870Y022428D02*
X019178Y022428D01*
X019246Y022547D02*
X019870Y022547D01*
X019870Y022665D02*
X019304Y022665D01*
X019305Y022784D02*
X019870Y022784D01*
X019870Y022902D02*
X019255Y022902D01*
X019198Y023021D02*
X019870Y023021D01*
X019870Y023139D02*
X019198Y023139D01*
X019223Y023258D02*
X019889Y023258D01*
X018858Y023139D02*
X017987Y023139D01*
X017987Y023122D02*
X017987Y023241D01*
X017941Y023350D01*
X017858Y023433D01*
X017748Y023479D01*
X017630Y023479D01*
X017521Y023433D01*
X017437Y023350D01*
X017392Y023241D01*
X017392Y023122D01*
X017437Y023013D01*
X017519Y022931D01*
X017519Y022720D01*
X017461Y022663D01*
X017152Y022663D01*
X017070Y022744D01*
X016961Y022790D01*
X016843Y022790D01*
X016734Y022744D01*
X016650Y022661D01*
X016605Y022552D01*
X016605Y022433D01*
X016650Y022324D01*
X016734Y022241D01*
X016843Y022195D01*
X016961Y022195D01*
X017070Y022241D01*
X017152Y022323D01*
X017602Y022323D01*
X017760Y022480D01*
X017859Y022580D01*
X017859Y022931D01*
X017941Y023013D01*
X017987Y023122D01*
X017944Y023021D02*
X018858Y023021D01*
X018761Y022902D02*
X017859Y022902D01*
X017859Y022784D02*
X018711Y022784D01*
X018713Y022665D02*
X017859Y022665D01*
X017826Y022547D02*
X018770Y022547D01*
X018838Y022428D02*
X017708Y022428D01*
X017464Y022665D02*
X017150Y022665D01*
X016976Y022784D02*
X017519Y022784D01*
X017519Y022902D02*
X016033Y022902D01*
X016033Y022784D02*
X016828Y022784D01*
X016654Y022665D02*
X016033Y022665D01*
X016033Y022547D02*
X016605Y022547D01*
X016607Y022428D02*
X016033Y022428D01*
X016033Y022310D02*
X016665Y022310D01*
X017139Y022310D02*
X018838Y022310D01*
X018838Y022191D02*
X016145Y022191D01*
X016263Y022073D02*
X018838Y022073D01*
X018838Y021954D02*
X016382Y021954D01*
X016500Y021836D02*
X018838Y021836D01*
X018928Y021717D02*
X017625Y021717D01*
X017687Y021599D02*
X018955Y021599D01*
X019049Y021480D02*
X017691Y021480D01*
X016375Y021480D02*
X015556Y021480D01*
X015556Y021599D02*
X016256Y021599D01*
X016138Y021717D02*
X015556Y021717D01*
X015556Y021836D02*
X016019Y021836D01*
X015901Y021954D02*
X015556Y021954D01*
X015625Y022073D02*
X015782Y022073D01*
X015693Y022191D02*
X015655Y022191D01*
X015630Y022310D02*
X015693Y022310D01*
X015693Y022428D02*
X015530Y022428D01*
X015693Y022547D02*
X015250Y022547D01*
X015250Y022665D02*
X015693Y022665D01*
X015693Y022784D02*
X015250Y022784D01*
X015250Y022902D02*
X015693Y022902D01*
X015693Y023021D02*
X015250Y023021D01*
X015287Y023139D02*
X015609Y023139D01*
X015565Y023258D02*
X015329Y023258D01*
X015322Y023376D02*
X015571Y023376D01*
X015633Y023495D02*
X015257Y023495D01*
X015350Y023613D02*
X018521Y023613D01*
X018514Y023732D02*
X015468Y023732D01*
X016092Y023495D02*
X018571Y023495D01*
X018658Y023376D02*
X017915Y023376D01*
X017980Y023258D02*
X018833Y023258D01*
X018521Y023850D02*
X017201Y023850D01*
X017319Y023969D02*
X018570Y023969D01*
X018656Y024087D02*
X017438Y024087D01*
X017525Y024206D02*
X018827Y024206D01*
X018753Y024324D02*
X018328Y024324D01*
X018353Y024443D02*
X018635Y024443D01*
X018572Y024561D02*
X018353Y024561D01*
X018353Y024680D02*
X018534Y024680D01*
X018534Y024798D02*
X018353Y024798D01*
X018353Y024917D02*
X018558Y024917D01*
X018607Y025035D02*
X018366Y025035D01*
X018485Y025154D02*
X018718Y025154D01*
X018603Y025272D02*
X018836Y025272D01*
X017185Y024324D02*
X017112Y024324D01*
X017464Y023376D02*
X016154Y023376D01*
X016160Y023258D02*
X017399Y023258D01*
X017392Y023139D02*
X016116Y023139D01*
X016033Y023021D02*
X017434Y023021D01*
X015181Y025272D02*
X014928Y025272D01*
X015307Y025628D02*
X015333Y025628D01*
X013077Y024324D02*
X005312Y024324D01*
X005459Y024443D02*
X012999Y024443D01*
X012880Y024561D02*
X005605Y024561D01*
X005751Y024680D02*
X012775Y024680D01*
X012775Y024798D02*
X005898Y024798D01*
X006059Y024917D02*
X012775Y024917D01*
X012766Y025035D02*
X006242Y025035D01*
X006424Y025154D02*
X012768Y025154D01*
X012824Y025272D02*
X006607Y025272D01*
X007970Y023258D02*
X010520Y023258D01*
X010961Y023258D02*
X011251Y023258D01*
X011369Y023139D02*
X007990Y023139D01*
X007990Y023021D02*
X011437Y023021D01*
X011437Y022902D02*
X007990Y022902D01*
X007990Y022784D02*
X011437Y022784D01*
X011437Y022665D02*
X007990Y022665D01*
X007990Y022547D02*
X011437Y022547D01*
X011437Y022428D02*
X007990Y022428D01*
X007990Y022310D02*
X011437Y022310D01*
X011437Y022191D02*
X007990Y022191D01*
X007990Y022073D02*
X011437Y022073D01*
X011437Y021954D02*
X007990Y021954D01*
X008037Y021836D02*
X011437Y021836D01*
X011437Y021717D02*
X008263Y021717D01*
X008381Y021599D02*
X011437Y021599D01*
X011437Y021480D02*
X008442Y021480D01*
X008491Y021362D02*
X011437Y021362D01*
X011437Y021243D02*
X008500Y021243D01*
X008500Y021125D02*
X011437Y021125D01*
X011437Y021006D02*
X008467Y021006D01*
X008418Y020888D02*
X011456Y020888D01*
X011536Y020807D02*
X011536Y020807D01*
X011574Y020769D02*
X008323Y020769D01*
X008182Y020651D02*
X011693Y020651D01*
X011811Y020532D02*
X007990Y020532D01*
X007990Y020414D02*
X011930Y020414D01*
X011909Y020434D02*
X011909Y020434D01*
X012055Y020769D02*
X012572Y020769D01*
X012498Y020295D02*
X007990Y020295D01*
X007990Y020177D02*
X008148Y020177D01*
X009082Y020177D02*
X018777Y020177D01*
X018586Y020058D02*
X009273Y020058D01*
X009391Y019940D02*
X018468Y019940D01*
X018376Y019821D02*
X009483Y019821D01*
X009552Y019703D02*
X018307Y019703D01*
X018258Y019584D02*
X009601Y019584D01*
X009633Y019466D02*
X018226Y019466D01*
X018204Y019347D02*
X009655Y019347D01*
X009655Y019229D02*
X018204Y019229D01*
X018204Y019110D02*
X009655Y019110D01*
X009624Y018992D02*
X018235Y018992D01*
X018267Y018873D02*
X009592Y018873D01*
X009533Y018755D02*
X018326Y018755D01*
X018394Y018636D02*
X009465Y018636D01*
X009359Y018518D02*
X018500Y018518D01*
X018627Y018399D02*
X009232Y018399D01*
X009026Y018281D02*
X018833Y018281D01*
X019862Y018399D02*
X022414Y018399D01*
X022463Y018518D02*
X019989Y018518D01*
X020095Y018636D02*
X022558Y018636D01*
X022677Y018755D02*
X020163Y018755D01*
X020222Y018873D02*
X022896Y018873D01*
X020285Y019110D02*
X026402Y019110D01*
X026448Y018992D02*
X020254Y018992D01*
X019870Y020177D02*
X019712Y020177D01*
X019870Y020295D02*
X012920Y020295D01*
X013438Y018162D02*
X004642Y018162D01*
X004613Y018183D02*
X004536Y018222D01*
X004453Y018249D01*
X004383Y018260D01*
X004383Y017769D01*
X004263Y017769D01*
X004263Y017649D01*
X003772Y017649D01*
X003783Y017579D01*
X003810Y017497D01*
X003850Y017419D01*
X003901Y017348D01*
X003963Y017287D01*
X004033Y017235D01*
X004111Y017196D01*
X004194Y017169D01*
X004263Y017158D01*
X004263Y017649D01*
X004383Y017649D01*
X004383Y017158D01*
X004453Y017169D01*
X004536Y017196D01*
X004613Y017235D01*
X004684Y017287D01*
X004746Y017348D01*
X004797Y017419D01*
X004836Y017497D01*
X004863Y017579D01*
X004874Y017649D01*
X004383Y017649D01*
X004383Y017769D01*
X004874Y017769D01*
X004863Y017839D01*
X004836Y017922D01*
X004797Y017999D01*
X004746Y018070D01*
X004684Y018131D01*
X004613Y018183D01*
X004765Y018044D02*
X012856Y018044D01*
X012445Y017925D02*
X004835Y017925D01*
X004868Y017807D02*
X012186Y017807D01*
X011926Y017688D02*
X004383Y017688D01*
X004383Y017570D02*
X004263Y017570D01*
X004263Y017688D02*
X001207Y017688D01*
X001207Y017570D02*
X003786Y017570D01*
X003833Y017451D02*
X001207Y017451D01*
X001207Y017333D02*
X003917Y017333D01*
X004075Y017214D02*
X001207Y017214D01*
X001207Y017096D02*
X011074Y017096D01*
X011133Y017157D02*
X011133Y017157D01*
X011213Y017214D02*
X004571Y017214D01*
X004383Y017214D02*
X004263Y017214D01*
X004263Y017333D02*
X004383Y017333D01*
X004383Y017451D02*
X004263Y017451D01*
X004263Y017769D02*
X003772Y017769D01*
X003783Y017839D01*
X003810Y017922D01*
X003850Y017999D01*
X003901Y018070D01*
X003963Y018131D01*
X004033Y018183D01*
X004111Y018222D01*
X004194Y018249D01*
X004263Y018260D01*
X004263Y017769D01*
X004263Y017807D02*
X004383Y017807D01*
X004383Y017925D02*
X004263Y017925D01*
X004263Y018044D02*
X004383Y018044D01*
X004383Y018162D02*
X004263Y018162D01*
X004005Y018162D02*
X001207Y018162D01*
X001207Y018044D02*
X003882Y018044D01*
X003812Y017925D02*
X001207Y017925D01*
X001207Y017807D02*
X003778Y017807D01*
X004730Y017333D02*
X011380Y017333D01*
X011546Y017451D02*
X004813Y017451D01*
X004860Y017570D02*
X011712Y017570D01*
X011794Y017628D02*
X011794Y017628D01*
X010961Y016977D02*
X001207Y016977D01*
X001207Y016859D02*
X010848Y016859D01*
X010736Y016740D02*
X001207Y016740D01*
X001207Y016622D02*
X010623Y016622D01*
X010573Y016569D02*
X010573Y016569D01*
X010530Y016503D02*
X001207Y016503D01*
X001207Y016385D02*
X010454Y016385D01*
X010378Y016266D02*
X001207Y016266D01*
X001207Y016148D02*
X010302Y016148D01*
X010226Y016029D02*
X001207Y016029D01*
X001207Y015911D02*
X003424Y015911D01*
X003202Y015864D02*
X003202Y015864D01*
X002706Y015607D01*
X002297Y015225D01*
X002007Y014748D01*
X002007Y014748D01*
X001856Y014209D01*
X001856Y013650D01*
X002007Y013111D01*
X002297Y012634D01*
X002706Y012252D01*
X003202Y011995D01*
X003202Y011995D01*
X003750Y011881D01*
X004308Y011919D01*
X004835Y012106D01*
X005292Y012429D01*
X005645Y012863D01*
X005868Y013375D01*
X005944Y013930D01*
X005868Y014484D01*
X005645Y014996D01*
X005645Y014996D01*
X005292Y015430D01*
X004835Y015753D01*
X004308Y015940D01*
X003750Y015978D01*
X003202Y015864D01*
X003063Y015792D02*
X001207Y015792D01*
X001207Y015674D02*
X002834Y015674D01*
X002706Y015607D02*
X002706Y015607D01*
X002650Y015555D02*
X001207Y015555D01*
X001207Y015437D02*
X002523Y015437D01*
X002396Y015318D02*
X001207Y015318D01*
X001207Y015200D02*
X002281Y015200D01*
X002297Y015225D02*
X002297Y015225D01*
X002209Y015081D02*
X001207Y015081D01*
X001207Y014963D02*
X002137Y014963D01*
X002065Y014844D02*
X001207Y014844D01*
X001207Y014726D02*
X002000Y014726D01*
X001967Y014607D02*
X001207Y014607D01*
X001207Y014489D02*
X001934Y014489D01*
X001901Y014370D02*
X001207Y014370D01*
X001207Y014252D02*
X001868Y014252D01*
X001856Y014133D02*
X001207Y014133D01*
X001207Y014015D02*
X001856Y014015D01*
X001856Y013896D02*
X001207Y013896D01*
X001207Y013778D02*
X001856Y013778D01*
X001856Y013659D02*
X001207Y013659D01*
X001207Y013541D02*
X001886Y013541D01*
X001920Y013422D02*
X001207Y013422D01*
X001207Y013304D02*
X001953Y013304D01*
X001986Y013185D02*
X001207Y013185D01*
X001207Y013067D02*
X002034Y013067D01*
X002106Y012948D02*
X001207Y012948D01*
X001207Y012830D02*
X002178Y012830D01*
X002250Y012711D02*
X001207Y012711D01*
X001207Y012593D02*
X002341Y012593D01*
X002297Y012634D02*
X002297Y012634D01*
X002468Y012474D02*
X001207Y012474D01*
X001207Y012356D02*
X002595Y012356D01*
X002735Y012237D02*
X001207Y012237D01*
X001207Y012119D02*
X002963Y012119D01*
X003192Y012000D02*
X001207Y012000D01*
X001207Y011882D02*
X003747Y011882D01*
X003750Y011881D02*
X003750Y011881D01*
X003760Y011882D02*
X008485Y011882D01*
X008533Y011930D02*
X008266Y011662D01*
X008121Y011313D01*
X008121Y010935D01*
X008266Y010586D01*
X008533Y010319D01*
X008882Y010174D01*
X009260Y010174D01*
X009609Y010319D01*
X009876Y010586D01*
X010021Y010935D01*
X010021Y011313D01*
X009876Y011662D01*
X009609Y011930D01*
X009260Y012074D01*
X008882Y012074D01*
X008533Y011930D01*
X008703Y012000D02*
X004536Y012000D01*
X004308Y011919D02*
X004308Y011919D01*
X004835Y012106D02*
X004835Y012106D01*
X004852Y012119D02*
X010075Y012119D01*
X010028Y012237D02*
X005020Y012237D01*
X005188Y012356D02*
X009981Y012356D01*
X009933Y012474D02*
X005329Y012474D01*
X005292Y012429D02*
X005292Y012429D01*
X005292Y012429D01*
X005425Y012593D02*
X009886Y012593D01*
X009838Y012711D02*
X005521Y012711D01*
X005618Y012830D02*
X009812Y012830D01*
X009832Y012726D02*
X009832Y012726D01*
X009789Y012948D02*
X005682Y012948D01*
X005645Y012863D02*
X005645Y012863D01*
X005733Y013067D02*
X009767Y013067D01*
X009744Y013185D02*
X005785Y013185D01*
X005836Y013304D02*
X009721Y013304D01*
X009698Y013422D02*
X005874Y013422D01*
X005868Y013375D02*
X005868Y013375D01*
X005890Y013541D02*
X009678Y013541D01*
X009678Y013659D02*
X005906Y013659D01*
X005923Y013778D02*
X009678Y013778D01*
X009678Y013896D02*
X005939Y013896D01*
X005932Y014015D02*
X009678Y014015D01*
X009678Y014133D02*
X005916Y014133D01*
X005899Y014252D02*
X009678Y014252D01*
X009685Y014370D02*
X005883Y014370D01*
X005868Y014484D02*
X005868Y014484D01*
X005865Y014489D02*
X009708Y014489D01*
X009731Y014607D02*
X005814Y014607D01*
X005762Y014726D02*
X009754Y014726D01*
X009776Y014844D02*
X005711Y014844D01*
X005659Y014963D02*
X009799Y014963D01*
X009822Y015081D02*
X005576Y015081D01*
X005480Y015200D02*
X009859Y015200D01*
X009906Y015318D02*
X005383Y015318D01*
X005292Y015430D02*
X005292Y015430D01*
X005283Y015437D02*
X009954Y015437D01*
X010001Y015555D02*
X005115Y015555D01*
X004947Y015674D02*
X010049Y015674D01*
X010096Y015792D02*
X004725Y015792D01*
X004835Y015753D02*
X004835Y015753D01*
X004391Y015911D02*
X010149Y015911D01*
X010134Y015886D02*
X010134Y015886D01*
X008203Y018281D02*
X001207Y018281D01*
X001207Y018399D02*
X007998Y018399D01*
X007870Y018518D02*
X001229Y018518D01*
X001275Y018636D02*
X007764Y018636D01*
X007696Y018755D02*
X001320Y018755D01*
X001366Y018873D02*
X007637Y018873D01*
X007605Y018992D02*
X001411Y018992D01*
X001457Y019110D02*
X007574Y019110D01*
X004308Y015940D02*
X004308Y015940D01*
X003750Y015978D02*
X003750Y015978D01*
X002870Y019229D02*
X001502Y019229D01*
X001548Y019347D02*
X002870Y019347D01*
X002870Y019466D02*
X001598Y019466D01*
X001658Y019584D02*
X002870Y019584D01*
X002870Y019703D02*
X001718Y019703D01*
X001779Y019821D02*
X002870Y019821D01*
X002870Y019940D02*
X001839Y019940D01*
X001900Y020058D02*
X002870Y020058D01*
X002870Y020177D02*
X001960Y020177D01*
X002020Y020295D02*
X002870Y020295D01*
X002870Y020414D02*
X002081Y020414D01*
X002141Y020532D02*
X002870Y020532D01*
X002870Y020651D02*
X002202Y020651D01*
X002273Y020769D02*
X002870Y020769D01*
X002870Y020888D02*
X002350Y020888D01*
X002427Y021006D02*
X002870Y021006D01*
X002870Y021125D02*
X002504Y021125D01*
X002581Y021243D02*
X002870Y021243D01*
X002870Y021362D02*
X002658Y021362D01*
X002735Y021480D02*
X002870Y021480D01*
X002870Y021599D02*
X002812Y021599D01*
X009439Y012000D02*
X010123Y012000D01*
X010192Y011882D02*
X009657Y011882D01*
X009776Y011763D02*
X010269Y011763D01*
X010345Y011645D02*
X009884Y011645D01*
X009933Y011526D02*
X010421Y011526D01*
X010497Y011408D02*
X009982Y011408D01*
X010021Y011289D02*
X010573Y011289D01*
X010573Y011290D02*
X010573Y011290D01*
X010686Y011171D02*
X010021Y011171D01*
X010021Y011052D02*
X010799Y011052D01*
X010912Y010934D02*
X010020Y010934D01*
X009971Y010815D02*
X011025Y010815D01*
X011133Y010702D02*
X011133Y010702D01*
X011141Y010697D02*
X009922Y010697D01*
X009868Y010578D02*
X011307Y010578D01*
X011474Y010460D02*
X009749Y010460D01*
X009631Y010341D02*
X011640Y010341D01*
X011813Y010223D02*
X009376Y010223D01*
X008766Y010223D02*
X006895Y010223D01*
X006895Y010219D02*
X006768Y009910D01*
X006531Y009674D01*
X006223Y009546D01*
X005888Y009546D01*
X005580Y009674D01*
X005343Y009910D01*
X005216Y010219D01*
X005216Y010553D01*
X005343Y010862D01*
X005580Y011098D01*
X005888Y011226D01*
X006223Y011226D01*
X006531Y011098D01*
X006768Y010862D01*
X006895Y010553D01*
X006895Y010219D01*
X006895Y010341D02*
X008511Y010341D01*
X008392Y010460D02*
X006895Y010460D01*
X006885Y010578D02*
X008274Y010578D01*
X008220Y010697D02*
X006836Y010697D01*
X006787Y010815D02*
X008171Y010815D01*
X008122Y010934D02*
X006696Y010934D01*
X006578Y011052D02*
X008121Y011052D01*
X008121Y011171D02*
X006357Y011171D01*
X005754Y011171D02*
X001207Y011171D01*
X001207Y011289D02*
X008121Y011289D01*
X008160Y011408D02*
X001207Y011408D01*
X001207Y011526D02*
X008209Y011526D01*
X008258Y011645D02*
X001207Y011645D01*
X001207Y011763D02*
X008366Y011763D01*
X006848Y010104D02*
X012073Y010104D01*
X012332Y009986D02*
X006799Y009986D01*
X006724Y009867D02*
X012644Y009867D01*
X012533Y009894D02*
X012533Y009894D01*
X013132Y009749D02*
X006606Y009749D01*
X006425Y009630D02*
X008383Y009630D01*
X008087Y009512D02*
X001207Y009512D01*
X001207Y009630D02*
X005686Y009630D01*
X005505Y009749D02*
X001207Y009749D01*
X001207Y009867D02*
X005387Y009867D01*
X005312Y009986D02*
X001207Y009986D01*
X001207Y010104D02*
X005263Y010104D01*
X005216Y010223D02*
X001207Y010223D01*
X001207Y010341D02*
X005216Y010341D01*
X005216Y010460D02*
X001207Y010460D01*
X001207Y010578D02*
X005226Y010578D01*
X005275Y010697D02*
X001207Y010697D01*
X001207Y010815D02*
X005324Y010815D01*
X005415Y010934D02*
X001207Y010934D01*
X001207Y011052D02*
X005533Y011052D01*
X007619Y008919D02*
X001391Y008919D01*
X001346Y009038D02*
X007657Y009038D01*
X007725Y009156D02*
X001300Y009156D01*
X001255Y009275D02*
X007803Y009275D01*
X007921Y009393D02*
X001209Y009393D01*
X001437Y008801D02*
X007587Y008801D01*
X007990Y007734D02*
X008058Y007734D01*
X007990Y007616D02*
X008322Y007616D01*
X007990Y007497D02*
X016505Y007497D01*
X016505Y007379D02*
X007990Y007379D01*
X008058Y007260D02*
X016505Y007260D01*
X016505Y007142D02*
X008271Y007142D01*
X008390Y007023D02*
X016505Y007023D01*
X016505Y006905D02*
X008446Y006905D01*
X008495Y006786D02*
X016505Y006786D01*
X016505Y006668D02*
X008500Y006668D01*
X008500Y006549D02*
X016505Y006549D01*
X016505Y006431D02*
X008463Y006431D01*
X008414Y006312D02*
X016505Y006312D01*
X016505Y006194D02*
X008314Y006194D01*
X008161Y006075D02*
X016505Y006075D01*
X016505Y005957D02*
X014696Y005957D01*
X014696Y005956D02*
X014624Y006028D01*
X014515Y006073D01*
X014397Y006073D01*
X014288Y006028D01*
X014212Y005952D01*
X012835Y005952D01*
X012559Y005676D01*
X012532Y005687D01*
X012414Y005687D01*
X012305Y005642D01*
X012221Y005558D01*
X012176Y005449D01*
X012176Y005331D01*
X012221Y005222D01*
X012305Y005138D01*
X012414Y005093D01*
X012532Y005093D01*
X012641Y005138D01*
X012725Y005222D01*
X012770Y005331D01*
X012770Y005378D01*
X012984Y005592D01*
X014220Y005592D01*
X014288Y005524D01*
X014397Y005479D01*
X014515Y005479D01*
X014624Y005524D01*
X014696Y005596D01*
X015670Y005596D01*
X015672Y005594D01*
X015672Y005492D01*
X015717Y005383D01*
X015801Y005300D01*
X015910Y005254D01*
X016028Y005254D01*
X016137Y005300D01*
X016221Y005383D01*
X016266Y005492D01*
X016266Y005611D01*
X016221Y005720D01*
X016137Y005803D01*
X016028Y005849D01*
X015926Y005849D01*
X015819Y005956D01*
X014696Y005956D01*
X014456Y005776D02*
X015744Y005776D01*
X015969Y005552D01*
X016054Y005838D02*
X016505Y005838D01*
X016505Y005720D02*
X016221Y005720D01*
X016266Y005601D02*
X016505Y005601D01*
X016505Y005483D02*
X016262Y005483D01*
X016202Y005364D02*
X016505Y005364D01*
X016505Y005246D02*
X012735Y005246D01*
X012770Y005364D02*
X015736Y005364D01*
X015676Y005483D02*
X014524Y005483D01*
X014388Y005483D02*
X012875Y005483D01*
X012910Y005772D02*
X012528Y005390D01*
X012473Y005390D01*
X012263Y005601D02*
X007990Y005601D01*
X007990Y005483D02*
X012189Y005483D01*
X012176Y005364D02*
X007990Y005364D01*
X007990Y005246D02*
X012211Y005246D01*
X012332Y005127D02*
X007990Y005127D01*
X007990Y005009D02*
X016505Y005009D01*
X016505Y005127D02*
X012614Y005127D01*
X012603Y005720D02*
X007990Y005720D01*
X007990Y005838D02*
X012721Y005838D01*
X012910Y005772D02*
X014452Y005772D01*
X014456Y005776D01*
X014216Y005957D02*
X007990Y005957D01*
X007990Y004890D02*
X016505Y004890D01*
X016505Y004772D02*
X007990Y004772D01*
X007990Y004653D02*
X016505Y004653D01*
X016505Y004535D02*
X004231Y004535D01*
X004587Y004179D02*
X012523Y004179D01*
X012440Y004061D02*
X004705Y004061D01*
X004824Y003942D02*
X012420Y003942D01*
X012449Y003824D02*
X004956Y003824D01*
X005102Y003705D02*
X012545Y003705D01*
X012547Y003587D02*
X005249Y003587D01*
X005395Y003468D02*
X012547Y003468D01*
X012547Y003350D02*
X005541Y003350D01*
X005688Y003231D02*
X012547Y003231D01*
X012547Y003113D02*
X005834Y003113D01*
X005980Y002994D02*
X012547Y002994D01*
X012590Y002876D02*
X006162Y002876D01*
X006345Y002757D02*
X012695Y002757D01*
X012702Y002639D02*
X006527Y002639D01*
X006710Y002520D02*
X012765Y002520D01*
X013220Y002520D02*
X021149Y002520D01*
X020967Y002402D02*
X006892Y002402D01*
X007075Y002283D02*
X020784Y002283D01*
X020578Y002165D02*
X007281Y002165D01*
X007514Y002046D02*
X020345Y002046D01*
X020113Y001928D02*
X007746Y001928D01*
X007979Y001809D02*
X019880Y001809D01*
X019648Y001691D02*
X008211Y001691D01*
X008448Y001572D02*
X019411Y001572D01*
X019102Y001454D02*
X008757Y001454D01*
X009066Y001335D02*
X018793Y001335D01*
X018485Y001217D02*
X009375Y001217D01*
X012887Y003113D02*
X022025Y003113D01*
X022171Y003231D02*
X012887Y003231D01*
X012887Y003350D02*
X022318Y003350D01*
X022464Y003468D02*
X012887Y003468D01*
X012887Y003587D02*
X022610Y003587D01*
X022757Y003705D02*
X012889Y003705D01*
X012985Y003824D02*
X022903Y003824D01*
X023035Y003942D02*
X013014Y003942D01*
X013091Y002994D02*
X021879Y002994D01*
X021697Y002876D02*
X013247Y002876D01*
X013290Y002757D02*
X021514Y002757D01*
X021332Y002639D02*
X013283Y002639D01*
X016882Y004061D02*
X023154Y004061D01*
X023272Y004179D02*
X016964Y004179D01*
X016983Y004298D02*
X023391Y004298D01*
X023509Y004416D02*
X016952Y004416D01*
X016505Y007616D02*
X008907Y007616D01*
X009171Y007734D02*
X016505Y007734D01*
X016505Y007853D02*
X009324Y007853D01*
X009443Y007971D02*
X011804Y007971D01*
X011812Y007963D02*
X011922Y007917D01*
X012040Y007917D01*
X012149Y007963D01*
X012233Y008046D01*
X012278Y008155D01*
X012278Y008172D01*
X012283Y008178D01*
X012292Y008178D01*
X012313Y008127D01*
X012457Y007982D01*
X012646Y007904D01*
X012851Y007904D01*
X013039Y007982D01*
X013184Y008127D01*
X013262Y008316D01*
X013262Y008520D01*
X013184Y008709D01*
X013039Y008853D01*
X012851Y008931D01*
X012646Y008931D01*
X012457Y008853D01*
X012313Y008709D01*
X012292Y008658D01*
X012136Y008658D01*
X012048Y008621D01*
X011938Y008512D01*
X011922Y008512D01*
X011812Y008466D01*
X011729Y008383D01*
X011684Y008274D01*
X011684Y008155D01*
X011729Y008046D01*
X011812Y007963D01*
X011711Y008090D02*
X009513Y008090D01*
X009582Y008208D02*
X011684Y008208D01*
X011705Y008327D02*
X009615Y008327D01*
X009647Y008445D02*
X011791Y008445D01*
X011990Y008564D02*
X009655Y008564D01*
X009655Y008682D02*
X012302Y008682D01*
X012405Y008801D02*
X009642Y008801D01*
X009610Y008919D02*
X012616Y008919D01*
X012881Y008919D02*
X014585Y008919D01*
X014615Y008931D02*
X014426Y008853D01*
X014281Y008709D01*
X014203Y008520D01*
X014203Y008316D01*
X014281Y008127D01*
X014426Y007982D01*
X014615Y007904D01*
X014819Y007904D01*
X015008Y007982D01*
X015152Y008127D01*
X015174Y008178D01*
X015245Y008178D01*
X015257Y008166D01*
X015366Y008121D01*
X015485Y008121D01*
X015594Y008166D01*
X015678Y008249D01*
X015723Y008359D01*
X015723Y008477D01*
X015678Y008586D01*
X015594Y008670D01*
X015485Y008715D01*
X015366Y008715D01*
X015257Y008670D01*
X015245Y008658D01*
X015174Y008658D01*
X015152Y008709D01*
X015008Y008853D01*
X014819Y008931D01*
X014615Y008931D01*
X014849Y008919D02*
X016505Y008919D01*
X016505Y008801D02*
X015061Y008801D01*
X015163Y008682D02*
X015287Y008682D01*
X015564Y008682D02*
X016505Y008682D01*
X016505Y008564D02*
X015687Y008564D01*
X015723Y008445D02*
X016505Y008445D01*
X016505Y008327D02*
X015709Y008327D01*
X015636Y008208D02*
X016505Y008208D01*
X016505Y008090D02*
X015115Y008090D01*
X014981Y007971D02*
X016505Y007971D01*
X016505Y009038D02*
X009572Y009038D01*
X009504Y009156D02*
X016505Y009156D01*
X016505Y009275D02*
X009426Y009275D01*
X009308Y009393D02*
X016505Y009393D01*
X016505Y009512D02*
X009142Y009512D01*
X008846Y009630D02*
X016505Y009630D01*
X016505Y009749D02*
X014721Y009749D01*
X014936Y009779D02*
X014936Y009779D01*
X015189Y009867D02*
X016505Y009867D01*
X016505Y009986D02*
X015532Y009986D01*
X015704Y010045D02*
X015704Y010045D01*
X015806Y010104D02*
X016505Y010104D01*
X016505Y010223D02*
X016011Y010223D01*
X016216Y010341D02*
X016505Y010341D01*
X016505Y010460D02*
X016417Y010460D01*
X016407Y010451D02*
X016407Y010451D01*
X016865Y010460D02*
X018110Y010460D01*
X017991Y010578D02*
X016935Y010578D01*
X017053Y010697D02*
X017937Y010697D01*
X017888Y010815D02*
X017172Y010815D01*
X017290Y010934D02*
X017839Y010934D01*
X017838Y011052D02*
X017409Y011052D01*
X017527Y011171D02*
X017838Y011171D01*
X017838Y011289D02*
X017646Y011289D01*
X017764Y011408D02*
X017877Y011408D01*
X017883Y011526D02*
X017926Y011526D01*
X017611Y011763D02*
X017595Y011763D01*
X017656Y011882D02*
X017729Y011882D01*
X017718Y012000D02*
X017848Y012000D01*
X017779Y012119D02*
X017966Y012119D01*
X018085Y012237D02*
X017840Y012237D01*
X017894Y012342D02*
X017894Y012342D01*
X017898Y012356D02*
X018203Y012356D01*
X018322Y012474D02*
X017933Y012474D01*
X018228Y010341D02*
X016865Y010341D01*
X016865Y010223D02*
X018483Y010223D01*
X019772Y009512D02*
X022392Y009512D01*
X022442Y009393D02*
X019938Y009393D01*
X020056Y009275D02*
X022507Y009275D01*
X022625Y009156D02*
X020134Y009156D01*
X020202Y009038D02*
X022772Y009038D01*
X022531Y010341D02*
X021299Y010341D01*
X021422Y010460D02*
X022650Y010460D01*
X022830Y010578D02*
X021489Y010578D01*
X021530Y010697D02*
X024279Y010697D01*
X024279Y010815D02*
X021530Y010815D01*
X021509Y010934D02*
X024279Y010934D01*
X024279Y011052D02*
X021459Y011052D01*
X021352Y011171D02*
X024279Y011171D01*
X024279Y011289D02*
X021498Y011289D01*
X021870Y012119D02*
X022847Y012119D01*
X022898Y012237D02*
X021798Y012237D01*
X021680Y012356D02*
X022990Y012356D01*
X023318Y012356D02*
X023438Y012356D01*
X023438Y012237D02*
X023318Y012237D01*
X023318Y012119D02*
X023438Y012119D01*
X023438Y011763D02*
X023318Y011763D01*
X023318Y011645D02*
X023438Y011645D01*
X023438Y011526D02*
X023318Y011526D01*
X023909Y012119D02*
X024069Y012119D01*
X024118Y012237D02*
X023859Y012237D01*
X023767Y012356D02*
X024227Y012356D01*
X023591Y012474D02*
X023508Y012501D01*
X023438Y012512D01*
X023438Y013422D02*
X023318Y013422D01*
X023318Y013541D02*
X023438Y013541D01*
X023438Y013659D02*
X023318Y013659D01*
X023155Y013422D02*
X021103Y013422D01*
X021229Y013541D02*
X022984Y013541D01*
X022895Y013659D02*
X021309Y013659D01*
X021462Y013778D02*
X022846Y013778D01*
X023318Y014015D02*
X023438Y014015D01*
X023438Y014133D02*
X023318Y014133D01*
X023318Y014252D02*
X023438Y014252D01*
X023438Y014370D02*
X023318Y014370D01*
X023714Y014370D02*
X026652Y014370D01*
X026652Y014252D02*
X023829Y014252D01*
X023894Y014133D02*
X026652Y014133D01*
X026652Y014015D02*
X023925Y014015D01*
X023150Y015437D02*
X021629Y015437D01*
X021788Y015555D02*
X022995Y015555D01*
X022915Y015674D02*
X021880Y015674D01*
X021934Y015792D02*
X022866Y015792D01*
X014453Y007971D02*
X013012Y007971D01*
X013147Y008090D02*
X014319Y008090D01*
X014248Y008208D02*
X013218Y008208D01*
X013262Y008327D02*
X014203Y008327D01*
X014203Y008445D02*
X013262Y008445D01*
X013244Y008564D02*
X014221Y008564D01*
X014270Y008682D02*
X013195Y008682D01*
X013092Y008801D02*
X014373Y008801D01*
X014133Y009664D02*
X014133Y009664D01*
X013322Y009703D02*
X013322Y009703D01*
X012350Y008090D02*
X012251Y008090D01*
X012157Y007971D02*
X012484Y007971D01*
X002870Y007971D02*
X001813Y007971D01*
X001873Y007853D02*
X002870Y007853D01*
X002870Y007734D02*
X001934Y007734D01*
X001994Y007616D02*
X002870Y007616D01*
X002870Y007497D02*
X002055Y007497D01*
X002115Y007379D02*
X002870Y007379D01*
X002870Y007260D02*
X002175Y007260D01*
X002240Y007142D02*
X002870Y007142D01*
X002870Y007023D02*
X002317Y007023D01*
X002394Y006905D02*
X002870Y006905D01*
X002870Y006786D02*
X002470Y006786D01*
X002547Y006668D02*
X002870Y006668D01*
X002870Y006549D02*
X002624Y006549D01*
X002701Y006431D02*
X002870Y006431D01*
X002870Y006312D02*
X002778Y006312D01*
X002855Y006194D02*
X002870Y006194D01*
X002870Y008090D02*
X001753Y008090D01*
X001692Y008208D02*
X002870Y008208D01*
X002870Y008327D02*
X001632Y008327D01*
X001573Y008445D02*
X002870Y008445D01*
X002870Y008564D02*
X001528Y008564D01*
X001482Y008682D02*
X002881Y008682D01*
D24*
X012717Y003953D02*
X012717Y002989D01*
X012993Y002713D01*
X021016Y010780D02*
X021016Y011237D01*
X020390Y011863D01*
X023378Y015898D02*
X023201Y016075D01*
X023201Y016685D01*
X019225Y021725D02*
X019166Y021725D01*
X019008Y021882D01*
X019008Y022729D01*
X019028Y022748D01*
X019028Y023733D01*
X019048Y024756D02*
X019048Y024776D01*
X019540Y025268D01*
X019658Y025268D01*
X019796Y025130D01*
X019048Y025741D02*
X018890Y025583D01*
X018674Y025583D01*
X017863Y024772D01*
X017863Y024768D01*
X017355Y024244D02*
X017020Y023910D01*
X015406Y023910D01*
X015032Y023536D01*
X015032Y023300D01*
X014678Y022985D02*
X014678Y022040D01*
X014678Y021213D01*
X014599Y021095D01*
X014402Y021095D01*
X014914Y020662D02*
X015150Y020662D01*
X015386Y020898D01*
X015386Y022197D01*
X015863Y022233D02*
X016548Y021548D01*
X017374Y021548D01*
X017394Y021528D01*
X017532Y022493D02*
X016902Y022493D01*
X017532Y022493D02*
X017689Y022650D01*
X017689Y023181D01*
X017355Y024244D02*
X017355Y025367D01*
X017756Y025768D01*
X017863Y025768D01*
X016863Y025768D02*
X016142Y026489D01*
X014126Y026489D01*
X013536Y025898D01*
X013536Y025741D01*
X013063Y025091D02*
X012945Y024973D01*
X012945Y024737D01*
X013122Y024559D01*
X013536Y024559D01*
X014717Y024559D02*
X015654Y024559D01*
X015863Y024768D01*
X015859Y024764D01*
X015426Y025268D02*
X016363Y025268D01*
X016863Y024768D01*
X015426Y025268D02*
X014953Y025741D01*
X014717Y025741D01*
X015863Y023304D02*
X015863Y022233D01*
X012709Y020504D02*
X012079Y020504D01*
X011607Y020977D01*
X011607Y023142D01*
X011292Y023457D01*
X010741Y023457D01*
D25*
X010772Y023926D02*
X012863Y023926D01*
X012945Y023930D01*
X019048Y014717D02*
X019835Y013930D01*
X021331Y013930D01*
D26*
X015426Y008418D02*
X014717Y008418D01*
X012748Y008418D02*
X012184Y008418D01*
X011981Y008215D01*
X015034Y021211D02*
X015032Y021213D01*
D27*
X015032Y023300D01*
D28*
X023969Y018063D02*
X024559Y017473D01*
X024559Y015898D01*
X024559Y011961D02*
X024559Y010386D01*
X023969Y009796D01*
M02*
