%
M48
M72
T01C0.0100
T02C0.0118
T03C0.0157
T04C0.0197
T05C0.0236
T06C0.0400
T07C0.0630
T08C0.0700
T09C0.1102
T10C0.1260
T11C0.1661
%
T01
X12532Y20819
X12926Y20819
X12571Y22394
X12059Y22394
X13083Y22709
X14579Y23457
X14343Y24008
X10878Y22689
X10603Y22689
X10603Y22414
X10883Y22414
T02
X12394Y23378
T03
X11075Y21449
T04
X13185Y23433
X10772Y23926
X10701Y24485
X14402Y21095
X15386Y22197
X21729Y11079
T05
X21784Y12591
X20721Y13063
X18969Y13977
X21626Y14914
X23201Y16685
X25219Y16786
X25156Y14848
X25156Y11286
X23430Y10945
X25248Y7276
X21508Y4205
X20462Y2814
X17558Y2752
X16685Y4284
X15544Y4367
X14401Y4295
X14456Y5776
X15969Y5552
X16331Y6926
X15426Y8418
X15878Y9244
X13752Y8890
X11981Y8215
X11351Y9678
X10524Y6178
X8733Y5622
X9486Y3034
X7414Y2999
X12473Y5390
X12717Y3953
X12993Y2713
X7335Y12571
X8713Y14008
X7138Y15229
X7926Y15859
X9363Y15957
X11725Y18556
X11666Y19678
X12926Y19796
X12709Y20504
X13024Y21587
X14678Y22040
X15034Y21211
X14914Y20662
X15111Y20091
X13890Y19067
X16528Y19638
X17394Y21528
X16902Y22493
X17689Y23181
X19008Y22729
X19225Y21725
X21587Y18772
X25504Y19953
X19796Y25130
X18469Y26286
X15863Y23304
X15032Y23300
X14678Y22985
X13701Y23457
X12945Y23930
X13063Y25091
X12836Y26189
X10741Y23457
X8894Y22985
X7959Y24081
X8804Y24717
X8478Y25722
X7100Y25246
X6201Y24287
X2460Y20321
X2335Y18196
X2335Y16321
X5012Y16744
X5265Y18101
X2460Y11821
X2460Y9946
T06
X15863Y24768
X16863Y24768
X17863Y24768
X17863Y25768
X16863Y25768
X15863Y25768
T07
X20390Y15996
X19835Y13930
X20390Y11863
T08
X4330Y6646
X7330Y6646
X20530Y6646
X23530Y6646
X23530Y21213
X20530Y21213
X7330Y21213
X4330Y21213
T09
X23969Y18063
X23969Y9796
T10
X18788Y11124
X9071Y11124
X6056Y10386
T11
X8615Y8615
X3890Y13930
X8615Y19244
X19244Y19244
X19244Y8615
M30
