G75*
%MOIN*%
%OFA0B0*%
%FSLAX24Y24*%
%IPPOS*%
%LPD*%
%AMOC8*
5,1,8,0,0,1.08239X$1,22.5*
%
%ADD10R,0.0110X0.0010*%
%ADD11R,0.0010X0.0010*%
%ADD12R,0.0030X0.0010*%
%ADD13R,0.0070X0.0010*%
%ADD14C,0.0070*%
%ADD15C,0.0320*%
%ADD16C,0.0050*%
%ADD17C,0.0080*%
%ADD18C,0.0400*%
%ADD19C,0.0040*%
%ADD20R,0.0015X0.0015*%
%ADD21R,0.0107X0.0015*%
%ADD22R,0.0123X0.0015*%
%ADD23R,0.0138X0.0015*%
%ADD24R,0.0353X0.0015*%
%ADD25R,0.0230X0.0015*%
%ADD26R,0.0261X0.0015*%
%ADD27R,0.0292X0.0015*%
%ADD28R,0.0154X0.0015*%
%ADD29R,0.0276X0.0015*%
%ADD30R,0.0322X0.0015*%
%ADD31R,0.0307X0.0015*%
%ADD32R,0.0169X0.0015*%
%ADD33R,0.0338X0.0015*%
%ADD34R,0.0384X0.0015*%
%ADD35R,0.0369X0.0015*%
%ADD36R,0.0415X0.0015*%
%ADD37R,0.0399X0.0015*%
%ADD38R,0.0445X0.0015*%
%ADD39R,0.0476X0.0015*%
%ADD40R,0.0200X0.0015*%
%ADD41R,0.0430X0.0015*%
%ADD42R,0.0077X0.0015*%
%ADD43R,0.0184X0.0015*%
%ADD44R,0.0046X0.0015*%
%ADD45R,0.0031X0.0015*%
%ADD46R,0.0246X0.0015*%
%ADD47R,0.0461X0.0015*%
%ADD48R,0.0092X0.0015*%
%ADD49R,0.0061X0.0015*%
%ADD50R,0.1981X0.0015*%
%ADD51R,0.2165X0.0015*%
%ADD52R,0.2288X0.0015*%
%ADD53R,0.2380X0.0015*%
%ADD54R,0.2472X0.0015*%
%ADD55R,0.2533X0.0015*%
%ADD56R,0.2595X0.0015*%
%ADD57R,0.0215X0.0015*%
%ADD58R,0.1075X0.0015*%
%ADD59R,0.0568X0.0015*%
%ADD60R,0.0952X0.0015*%
%ADD61R,0.0844X0.0015*%
%ADD62R,0.0537X0.0015*%
%ADD63R,0.0691X0.0015*%
%ADD64R,0.0507X0.0015*%
%ADD65R,0.0583X0.0015*%
%ADD66R,0.2365X0.0015*%
%ADD67R,0.2395X0.0015*%
%ADD68R,0.2349X0.0015*%
D10*
X014160Y005150D03*
D11*
X014200Y005160D03*
D12*
X014170Y005160D03*
X014130Y005160D03*
D13*
X014160Y005170D03*
D14*
X024772Y011220D02*
X025022Y011220D01*
X024939Y011262D02*
X024939Y011345D01*
X024897Y011387D01*
X024772Y011387D01*
X024814Y011556D02*
X024772Y011598D01*
X024814Y011556D02*
X024980Y011556D01*
X024939Y011515D02*
X024939Y011598D01*
X024939Y011711D02*
X024939Y011794D01*
X024980Y011753D02*
X024814Y011753D01*
X024772Y011794D01*
X024772Y011907D02*
X024772Y012033D01*
X024814Y012074D01*
X024897Y012074D01*
X024939Y012033D01*
X024939Y011907D01*
X024688Y011907D01*
X024772Y012202D02*
X024814Y012202D01*
X024814Y012244D01*
X024772Y012244D01*
X024772Y012202D01*
X024897Y012202D02*
X024939Y012202D01*
X024939Y012244D01*
X024897Y012244D01*
X024897Y012202D01*
X024772Y012349D02*
X025022Y012516D01*
X024772Y012644D02*
X025022Y012811D01*
X024939Y012939D02*
X024939Y013022D01*
X024980Y012980D02*
X024814Y012980D01*
X024772Y013022D01*
X024772Y013135D02*
X025022Y013135D01*
X024939Y013177D02*
X024939Y013260D01*
X024897Y013302D01*
X024772Y013302D01*
X024814Y013430D02*
X024897Y013430D01*
X024939Y013471D01*
X024939Y013555D01*
X024897Y013597D01*
X024855Y013597D01*
X024855Y013430D01*
X024814Y013430D02*
X024772Y013471D01*
X024772Y013555D01*
X024772Y013724D02*
X024772Y013850D01*
X024814Y013891D01*
X024897Y013891D01*
X024939Y013850D01*
X024939Y013724D01*
X024688Y013724D01*
X024814Y014019D02*
X024772Y014061D01*
X024772Y014186D01*
X024939Y014186D01*
X024939Y014314D02*
X024939Y014439D01*
X024897Y014481D01*
X024814Y014481D01*
X024772Y014439D01*
X024772Y014314D01*
X025022Y014314D01*
X025252Y014363D02*
X025252Y014446D01*
X025252Y014405D02*
X025419Y014405D01*
X025419Y014363D01*
X025502Y014405D02*
X025544Y014405D01*
X025732Y014456D02*
X025732Y014289D01*
X025899Y014456D01*
X025940Y014456D01*
X025982Y014414D01*
X025982Y014331D01*
X025940Y014289D01*
X025940Y014161D02*
X025774Y013995D01*
X025732Y014036D01*
X025732Y014120D01*
X025774Y014161D01*
X025940Y014161D01*
X025982Y014120D01*
X025982Y014036D01*
X025940Y013995D01*
X025774Y013995D01*
X025774Y013867D02*
X025940Y013867D01*
X025982Y013825D01*
X025982Y013742D01*
X025940Y013700D01*
X025899Y013700D01*
X025857Y013742D01*
X025857Y013867D01*
X025774Y013867D02*
X025732Y013825D01*
X025732Y013742D01*
X025774Y013700D01*
X025732Y013572D02*
X025815Y013489D01*
X025815Y013530D02*
X025815Y013405D01*
X025732Y013405D02*
X025982Y013405D01*
X025982Y013530D01*
X025940Y013572D01*
X025857Y013572D01*
X025815Y013530D01*
X025857Y013277D02*
X025815Y013236D01*
X025815Y013111D01*
X025732Y013111D02*
X025982Y013111D01*
X025982Y013236D01*
X025940Y013277D01*
X025857Y013277D01*
X025419Y013309D02*
X025377Y013351D01*
X025252Y013351D01*
X025294Y013479D02*
X025377Y013479D01*
X025419Y013521D01*
X025419Y013604D01*
X025377Y013646D01*
X025335Y013646D01*
X025335Y013479D01*
X025294Y013479D02*
X025252Y013521D01*
X025252Y013604D01*
X025294Y013774D02*
X025377Y013774D01*
X025419Y013815D01*
X025419Y013940D01*
X025502Y013940D02*
X025252Y013940D01*
X025252Y013815D01*
X025294Y013774D01*
X024939Y014019D02*
X024814Y014019D01*
X024772Y014608D02*
X024772Y014692D01*
X024772Y014650D02*
X025022Y014650D01*
X025022Y014608D01*
X024939Y014805D02*
X024939Y014847D01*
X024772Y014847D01*
X024772Y014888D02*
X024772Y014805D01*
X024814Y015001D02*
X024772Y015043D01*
X024772Y015168D01*
X024772Y015296D02*
X024939Y015296D01*
X024939Y015379D02*
X024939Y015421D01*
X024939Y015379D02*
X024855Y015296D01*
X024939Y015168D02*
X024939Y015043D01*
X024897Y015001D01*
X024814Y015001D01*
X025022Y014847D02*
X025064Y014847D01*
X025252Y014726D02*
X025377Y014726D01*
X025419Y014684D01*
X025419Y014559D01*
X025252Y014559D01*
X025732Y014626D02*
X025774Y014584D01*
X025940Y014751D01*
X025774Y014751D01*
X025732Y014709D01*
X025732Y014626D01*
X025774Y014584D02*
X025940Y014584D01*
X025982Y014626D01*
X025982Y014709D01*
X025940Y014751D01*
X025502Y015149D02*
X025252Y015149D01*
X025252Y015274D01*
X025294Y015315D01*
X025335Y015315D01*
X025377Y015274D01*
X025377Y015149D01*
X025377Y015274D02*
X025419Y015315D01*
X025460Y015315D01*
X025502Y015274D01*
X025502Y015149D01*
X025419Y015443D02*
X025252Y015443D01*
X025335Y015443D02*
X025419Y015527D01*
X025419Y015568D01*
X025377Y015689D02*
X025294Y015689D01*
X025252Y015730D01*
X025252Y015814D01*
X025294Y015856D01*
X025377Y015856D01*
X025419Y015814D01*
X025419Y015730D01*
X025377Y015689D01*
X025377Y015983D02*
X025294Y015983D01*
X025252Y016025D01*
X025252Y016109D01*
X025294Y016150D01*
X025377Y016150D01*
X025419Y016109D01*
X025419Y016025D01*
X025377Y015983D01*
X025335Y016278D02*
X025419Y016403D01*
X025502Y016524D02*
X025502Y016565D01*
X025252Y016565D01*
X025252Y016524D02*
X025252Y016607D01*
X025294Y016720D02*
X025252Y016762D01*
X025252Y016887D01*
X025210Y016887D02*
X025168Y016845D01*
X025168Y016803D01*
X025210Y016887D02*
X025419Y016887D01*
X025419Y017015D02*
X025419Y017140D01*
X025377Y017182D01*
X025252Y017182D01*
X025252Y017015D02*
X025419Y017015D01*
X025419Y016720D02*
X025294Y016720D01*
X025252Y016403D02*
X025335Y016278D01*
X025252Y016278D02*
X025502Y016278D01*
X025064Y016320D02*
X025022Y016320D01*
X024939Y016320D02*
X024772Y016320D01*
X024772Y016361D02*
X024772Y016278D01*
X024772Y016172D02*
X024772Y016131D01*
X024814Y016131D01*
X024814Y016172D01*
X024772Y016172D01*
X024772Y016003D02*
X024772Y015878D01*
X024814Y015836D01*
X024897Y015836D01*
X024939Y015878D01*
X024939Y016003D01*
X025022Y016003D02*
X024772Y016003D01*
X024772Y015708D02*
X024772Y015583D01*
X024814Y015541D01*
X024855Y015583D01*
X024855Y015708D01*
X024897Y015708D02*
X024772Y015708D01*
X024897Y015708D02*
X024939Y015667D01*
X024939Y015583D01*
X024939Y016278D02*
X024939Y016320D01*
X024897Y016475D02*
X024814Y016475D01*
X024772Y016516D01*
X024772Y016600D01*
X024814Y016641D01*
X024897Y016641D01*
X024939Y016600D01*
X024939Y016516D01*
X024897Y016475D01*
X025419Y013309D02*
X025419Y013184D01*
X025252Y013184D01*
X025252Y013056D02*
X025419Y013056D01*
X025419Y012890D02*
X025294Y012890D01*
X025252Y012931D01*
X025252Y013056D01*
X025252Y012777D02*
X025294Y012735D01*
X025460Y012735D01*
X025419Y012693D02*
X025419Y012777D01*
X025377Y012271D02*
X025377Y012104D01*
X025460Y012187D02*
X025294Y012187D01*
X025252Y011681D02*
X025377Y011681D01*
X025419Y011640D01*
X025419Y011515D01*
X025252Y011515D01*
X025419Y011394D02*
X025419Y011352D01*
X025335Y011269D01*
X025252Y011269D02*
X025419Y011269D01*
X025377Y011141D02*
X025419Y011099D01*
X025419Y011016D01*
X025377Y010974D01*
X025294Y010974D01*
X025252Y011016D01*
X025252Y011099D01*
X025294Y011141D01*
X025377Y011141D01*
X025419Y010847D02*
X025377Y010805D01*
X025377Y010680D01*
X025377Y010805D02*
X025335Y010847D01*
X025294Y010847D01*
X025252Y010805D01*
X025252Y010680D01*
X025502Y010680D01*
X025502Y010805D01*
X025460Y010847D01*
X025419Y010847D01*
X024939Y011262D02*
X024897Y011220D01*
X024897Y013135D02*
X024939Y013177D01*
D15*
X018227Y024101D02*
X018229Y024128D01*
X018235Y024155D01*
X018244Y024181D01*
X018257Y024205D01*
X018273Y024228D01*
X018292Y024247D01*
X018314Y024264D01*
X018338Y024278D01*
X018363Y024288D01*
X018390Y024295D01*
X018417Y024298D01*
X018445Y024297D01*
X018472Y024292D01*
X018498Y024284D01*
X018522Y024272D01*
X018545Y024256D01*
X018566Y024238D01*
X018583Y024217D01*
X018598Y024193D01*
X018609Y024168D01*
X018617Y024142D01*
X018621Y024115D01*
X018621Y024087D01*
X018617Y024060D01*
X018609Y024034D01*
X018598Y024009D01*
X018583Y023985D01*
X018566Y023964D01*
X018545Y023946D01*
X018523Y023930D01*
X018498Y023918D01*
X018472Y023910D01*
X018445Y023905D01*
X018417Y023904D01*
X018390Y023907D01*
X018363Y023914D01*
X018338Y023924D01*
X018314Y023938D01*
X018292Y023955D01*
X018273Y023974D01*
X018257Y023997D01*
X018244Y024021D01*
X018235Y024047D01*
X018229Y024074D01*
X018227Y024101D01*
D16*
X007760Y003926D02*
X003060Y003926D01*
X003060Y004826D01*
X007760Y004826D01*
X007760Y003926D01*
X007760Y008526D02*
X003060Y008526D01*
X003060Y004826D01*
X003060Y008526D02*
X003060Y009426D01*
X007760Y009426D01*
X007760Y008526D01*
X007760Y018493D02*
X003060Y018493D01*
X003060Y019393D01*
X003060Y023093D01*
X007760Y023093D01*
X007760Y023993D01*
X003060Y023993D01*
X003060Y023093D01*
X003060Y019393D02*
X007760Y019393D01*
X007760Y018493D01*
X017401Y026629D02*
X017446Y026584D01*
X017581Y026584D01*
X017581Y026494D02*
X017581Y026765D01*
X017446Y026765D01*
X017401Y026720D01*
X017401Y026629D01*
X017696Y026584D02*
X017696Y026539D01*
X017741Y026494D01*
X017831Y026494D01*
X017876Y026539D01*
X017831Y026629D02*
X017741Y026629D01*
X017696Y026584D01*
X017696Y026720D02*
X017741Y026765D01*
X017831Y026765D01*
X017876Y026720D01*
X017876Y026675D01*
X017831Y026629D01*
X017982Y026494D02*
X018072Y026494D01*
X018027Y026494D02*
X018027Y026765D01*
X018072Y026765D02*
X017982Y026765D01*
X020160Y023993D02*
X020160Y023093D01*
X024860Y023093D01*
X024860Y023993D01*
X020160Y023993D01*
X020160Y019393D02*
X024860Y019393D01*
X024860Y023093D01*
X024860Y019393D02*
X024860Y018493D01*
X020160Y018493D01*
X020160Y019393D01*
X020160Y009426D02*
X020160Y008526D01*
X024860Y008526D01*
X024860Y004826D01*
X020160Y004826D01*
X020160Y003926D01*
X024860Y003926D01*
X024860Y004826D01*
X024860Y008526D02*
X024860Y009426D01*
X020160Y009426D01*
D17*
X018860Y008176D02*
X012460Y008176D01*
X009560Y008176D01*
X009543Y008174D01*
X009526Y008170D01*
X009510Y008163D01*
X009496Y008153D01*
X009483Y008140D01*
X009473Y008126D01*
X009466Y008110D01*
X009462Y008093D01*
X009460Y008076D01*
X009460Y007426D01*
X009060Y007426D01*
X009043Y007424D01*
X009026Y007420D01*
X009010Y007413D01*
X008996Y007403D01*
X008983Y007390D01*
X008973Y007376D01*
X008966Y007360D01*
X008962Y007343D01*
X008960Y007326D01*
X008960Y006026D01*
X008962Y006009D01*
X008966Y005992D01*
X008973Y005976D01*
X008983Y005962D01*
X008996Y005949D01*
X009010Y005939D01*
X009026Y005932D01*
X009043Y005928D01*
X009060Y005926D01*
X009460Y005926D01*
X009460Y005276D01*
X009462Y005259D01*
X009466Y005242D01*
X009473Y005226D01*
X009483Y005212D01*
X009496Y005199D01*
X009510Y005189D01*
X009526Y005182D01*
X009543Y005178D01*
X009560Y005176D01*
X012460Y005176D01*
X018860Y005176D01*
X018877Y005178D01*
X018894Y005182D01*
X018910Y005189D01*
X018924Y005199D01*
X018937Y005212D01*
X018947Y005226D01*
X018954Y005242D01*
X018958Y005259D01*
X018960Y005276D01*
X018960Y008076D01*
X018958Y008093D01*
X018954Y008110D01*
X018947Y008126D01*
X018937Y008140D01*
X018924Y008153D01*
X018910Y008163D01*
X018894Y008170D01*
X018877Y008174D01*
X018860Y008176D01*
X012460Y008176D02*
X012460Y005176D01*
X009460Y005926D02*
X009460Y007426D01*
X009060Y019743D02*
X015460Y019743D01*
X018360Y019743D01*
X018377Y019745D01*
X018394Y019749D01*
X018410Y019756D01*
X018424Y019766D01*
X018437Y019779D01*
X018447Y019793D01*
X018454Y019809D01*
X018458Y019826D01*
X018460Y019843D01*
X018460Y020493D01*
X018860Y020493D01*
X018877Y020495D01*
X018894Y020499D01*
X018910Y020506D01*
X018924Y020516D01*
X018937Y020529D01*
X018947Y020543D01*
X018954Y020559D01*
X018958Y020576D01*
X018960Y020593D01*
X018960Y021893D01*
X018958Y021910D01*
X018954Y021927D01*
X018947Y021943D01*
X018937Y021957D01*
X018924Y021970D01*
X018910Y021980D01*
X018894Y021987D01*
X018877Y021991D01*
X018860Y021993D01*
X018460Y021993D01*
X018460Y022643D01*
X018458Y022660D01*
X018454Y022677D01*
X018447Y022693D01*
X018437Y022707D01*
X018424Y022720D01*
X018410Y022730D01*
X018394Y022737D01*
X018377Y022741D01*
X018360Y022743D01*
X015460Y022743D01*
X009060Y022743D01*
X009043Y022741D01*
X009026Y022737D01*
X009010Y022730D01*
X008996Y022720D01*
X008983Y022707D01*
X008973Y022693D01*
X008966Y022677D01*
X008962Y022660D01*
X008960Y022643D01*
X008960Y019843D01*
X008962Y019826D01*
X008966Y019809D01*
X008973Y019793D01*
X008983Y019779D01*
X008996Y019766D01*
X009010Y019756D01*
X009026Y019749D01*
X009043Y019745D01*
X009060Y019743D01*
X015460Y019743D02*
X015460Y022743D01*
X018460Y021993D02*
X018460Y020493D01*
D18*
X017760Y021243D02*
X016160Y021243D01*
X016960Y020443D02*
X016960Y022043D01*
X010960Y007476D02*
X010960Y005876D01*
X011760Y006676D02*
X010160Y006676D01*
D19*
X007325Y003176D02*
X007192Y003176D01*
X007259Y003176D02*
X007259Y002976D01*
X007104Y003009D02*
X007071Y002976D01*
X007004Y002976D01*
X006971Y003009D01*
X006971Y003042D01*
X007004Y003076D01*
X007104Y003076D01*
X007104Y003009D01*
X007104Y003076D02*
X007038Y003142D01*
X006971Y003176D01*
X010317Y002428D02*
X010317Y002394D01*
X010451Y002261D01*
X010451Y002228D01*
X010605Y002228D02*
X010605Y002428D01*
X010672Y002428D02*
X010538Y002428D01*
X010451Y002428D02*
X010317Y002428D01*
X021632Y010725D02*
X021632Y010759D01*
X021665Y010792D01*
X021765Y010792D01*
X021765Y010725D01*
X021732Y010692D01*
X021665Y010692D01*
X021632Y010725D01*
X021765Y010792D02*
X021699Y010859D01*
X021632Y010892D01*
X021920Y010892D02*
X021920Y010692D01*
X021986Y010692D02*
X021853Y010692D01*
X021986Y010826D02*
X021920Y010892D01*
X022074Y010892D02*
X022207Y010892D01*
X022141Y010892D02*
X022141Y010692D01*
X023107Y012503D02*
X023173Y012503D01*
X023207Y012537D01*
X023140Y012603D02*
X023107Y012603D01*
X023073Y012570D01*
X023073Y012537D01*
X023107Y012503D01*
X023107Y012603D02*
X023073Y012637D01*
X023073Y012670D01*
X023107Y012703D01*
X023173Y012703D01*
X023207Y012670D01*
X023294Y012703D02*
X023428Y012703D01*
X023361Y012703D02*
X023361Y012503D01*
X023285Y014550D02*
X023152Y014684D01*
X023152Y014717D01*
X023185Y014751D01*
X023252Y014751D01*
X023285Y014717D01*
X023373Y014751D02*
X023506Y014751D01*
X023440Y014751D02*
X023440Y014550D01*
X023285Y014550D02*
X023152Y014550D01*
X023243Y016283D02*
X023243Y016483D01*
X023310Y016483D02*
X023176Y016483D01*
X023089Y016383D02*
X022955Y016383D01*
X022989Y016483D02*
X023089Y016383D01*
X022989Y016283D02*
X022989Y016483D01*
X026159Y017379D02*
X026193Y017346D01*
X026259Y017346D01*
X026293Y017379D01*
X026293Y017446D02*
X026226Y017479D01*
X026193Y017479D01*
X026159Y017446D01*
X026159Y017379D01*
X026293Y017446D02*
X026293Y017546D01*
X026159Y017546D01*
X026447Y017546D02*
X026447Y017346D01*
X026514Y017346D02*
X026380Y017346D01*
X026514Y017479D02*
X026447Y017546D01*
X026601Y017546D02*
X026735Y017546D01*
X026668Y017546D02*
X026668Y017346D01*
X022298Y024393D02*
X022298Y024593D01*
X022365Y024593D02*
X022231Y024593D01*
X022144Y024560D02*
X022110Y024593D01*
X022044Y024593D01*
X022010Y024560D01*
X022010Y024426D01*
X022044Y024393D01*
X022110Y024393D01*
X022144Y024426D01*
X022110Y024493D02*
X022010Y024493D01*
X022110Y024493D02*
X022144Y024526D01*
X022144Y024560D01*
X019794Y025877D02*
X019794Y026077D01*
X019861Y026077D02*
X019727Y026077D01*
X019640Y026011D02*
X019573Y026077D01*
X019573Y025877D01*
X019640Y025877D02*
X019506Y025877D01*
X019419Y025911D02*
X019285Y026044D01*
X019285Y025911D01*
X019319Y025877D01*
X019385Y025877D01*
X019419Y025911D01*
X019419Y026044D01*
X019385Y026077D01*
X019319Y026077D01*
X019285Y026044D01*
X019366Y024908D02*
X019333Y024875D01*
X019333Y024841D01*
X019366Y024808D01*
X019433Y024808D01*
X019467Y024841D01*
X019467Y024875D01*
X019433Y024908D01*
X019366Y024908D01*
X019366Y024808D02*
X019333Y024775D01*
X019333Y024741D01*
X019366Y024708D01*
X019433Y024708D01*
X019467Y024741D01*
X019467Y024775D01*
X019433Y024808D01*
X019554Y024908D02*
X019688Y024908D01*
X019621Y024908D02*
X019621Y024708D01*
X015711Y024987D02*
X015578Y024987D01*
X015644Y024987D02*
X015644Y024787D01*
X015490Y024787D02*
X015357Y024787D01*
X015423Y024787D02*
X015423Y024987D01*
X015490Y024920D01*
X015269Y024953D02*
X015236Y024987D01*
X015169Y024987D01*
X015136Y024953D01*
X015136Y024920D01*
X015269Y024787D01*
X015136Y024787D01*
X014188Y026125D02*
X014188Y026325D01*
X014254Y026325D02*
X014121Y026325D01*
X014034Y026259D02*
X013967Y026325D01*
X013967Y026125D01*
X014034Y026125D02*
X013900Y026125D01*
X013813Y026125D02*
X013679Y026125D01*
X013746Y026125D02*
X013746Y026325D01*
X013813Y026259D01*
X014460Y027149D02*
X014527Y027149D01*
X014561Y027182D01*
X014648Y027149D02*
X014782Y027149D01*
X014715Y027149D02*
X014715Y027349D01*
X014782Y027282D01*
X014869Y027349D02*
X015003Y027349D01*
X014936Y027349D02*
X014936Y027149D01*
X014561Y027316D02*
X014527Y027349D01*
X014460Y027349D01*
X014427Y027316D01*
X014427Y027282D01*
X014460Y027249D01*
X014427Y027216D01*
X014427Y027182D01*
X014460Y027149D01*
X014460Y027249D02*
X014494Y027249D01*
X013034Y025341D02*
X012901Y025341D01*
X012967Y025341D02*
X012967Y025141D01*
X012813Y025174D02*
X012780Y025141D01*
X012713Y025141D01*
X012680Y025174D01*
X012680Y025241D01*
X012713Y025274D01*
X012746Y025274D01*
X012813Y025241D01*
X012813Y025341D01*
X012680Y025341D01*
X005317Y017900D02*
X005184Y017900D01*
X005251Y017900D02*
X005251Y017700D01*
X005096Y017700D02*
X004963Y017700D01*
X005030Y017700D02*
X005030Y017900D01*
X005096Y017833D01*
X018482Y015577D02*
X018482Y015544D01*
X018616Y015411D01*
X018616Y015377D01*
X018703Y015377D02*
X018837Y015377D01*
X018770Y015377D02*
X018770Y015577D01*
X018837Y015511D01*
X018924Y015577D02*
X019058Y015577D01*
X018991Y015577D02*
X018991Y015377D01*
X018616Y015577D02*
X018482Y015577D01*
X025757Y009275D02*
X025857Y009175D01*
X025724Y009175D01*
X025757Y009075D02*
X025757Y009275D01*
X026012Y009275D02*
X026012Y009075D01*
X026078Y009075D02*
X025945Y009075D01*
X026078Y009208D02*
X026012Y009275D01*
X026166Y009275D02*
X026299Y009275D01*
X026232Y009275D02*
X026232Y009075D01*
D20*
X017660Y000937D03*
X017629Y000937D03*
X017599Y000937D03*
X017568Y000937D03*
X017261Y000937D03*
X017230Y000937D03*
X017199Y000937D03*
X017169Y000937D03*
X016923Y000937D03*
X016892Y000937D03*
X016861Y000937D03*
X016831Y000937D03*
X016647Y000937D03*
X016616Y000937D03*
X016585Y000937D03*
X016554Y000937D03*
X016524Y000937D03*
X016493Y000937D03*
X016462Y000937D03*
X016432Y000937D03*
X016401Y000937D03*
X016370Y000937D03*
X016339Y000937D03*
X016339Y001183D03*
X016370Y001183D03*
X016401Y001183D03*
X016432Y001183D03*
X016462Y001183D03*
X016493Y001183D03*
X016524Y001183D03*
X016539Y001290D03*
X016508Y001290D03*
X016478Y001290D03*
X016447Y001290D03*
X016416Y001290D03*
X016386Y001290D03*
X016355Y001290D03*
X015756Y000937D03*
X015725Y000937D03*
X015695Y000937D03*
X015664Y000937D03*
X015572Y001152D03*
X015618Y001260D03*
X015249Y000983D03*
X015096Y001045D03*
X015065Y001045D03*
X015019Y000937D03*
X014681Y000937D03*
X014650Y000937D03*
X014620Y000937D03*
X014589Y000937D03*
X014558Y000937D03*
X014528Y000937D03*
X014190Y000937D03*
X014159Y000937D03*
X014128Y000937D03*
X014098Y000937D03*
X014067Y000937D03*
X014036Y000937D03*
X014006Y000937D03*
X013975Y000937D03*
X013944Y000937D03*
X013791Y000937D03*
X013760Y000937D03*
X013729Y000937D03*
X013699Y000937D03*
X013330Y000937D03*
X013284Y001045D03*
X013253Y001045D03*
X013176Y000937D03*
X013100Y001106D03*
X013100Y001321D03*
X013161Y001352D03*
X013253Y001382D03*
X013284Y001382D03*
X013299Y001490D03*
X013330Y001490D03*
X013207Y001490D03*
X013176Y001490D03*
X013054Y001674D03*
X013023Y001674D03*
X013023Y001889D03*
X013008Y001904D03*
X012961Y001920D03*
X012869Y001981D03*
X012839Y002012D03*
X012685Y001889D03*
X012808Y001766D03*
X012747Y002196D03*
X012747Y002227D03*
X012747Y002319D03*
X012747Y002350D03*
X012747Y002442D03*
X012747Y002473D03*
X012777Y002534D03*
X012808Y002595D03*
X012839Y002626D03*
X013008Y002672D03*
X013054Y002687D03*
X013084Y002687D03*
X013115Y002687D03*
X013146Y002687D03*
X013207Y002749D03*
X013238Y002810D03*
X013207Y002872D03*
X013192Y002887D03*
X013223Y003041D03*
X013284Y003041D03*
X013345Y003041D03*
X013407Y003041D03*
X013468Y003041D03*
X013530Y003041D03*
X013591Y003041D03*
X013652Y003041D03*
X013714Y003041D03*
X013775Y003041D03*
X013837Y003041D03*
X013898Y003041D03*
X013960Y003041D03*
X014021Y003041D03*
X014082Y003041D03*
X014144Y003041D03*
X014205Y003041D03*
X014267Y003041D03*
X014328Y003041D03*
X014389Y003041D03*
X014451Y003041D03*
X014512Y003041D03*
X014574Y003041D03*
X014635Y003041D03*
X014697Y003041D03*
X014727Y003041D03*
X014758Y003041D03*
X014819Y003041D03*
X014881Y003041D03*
X014865Y002933D03*
X014712Y002872D03*
X014681Y002872D03*
X014635Y002856D03*
X014620Y002841D03*
X014589Y002841D03*
X014543Y002826D03*
X014451Y002795D03*
X014359Y002764D03*
X014343Y002749D03*
X014343Y002687D03*
X014313Y002687D03*
X014282Y002687D03*
X014251Y002687D03*
X014221Y002687D03*
X014190Y002687D03*
X014251Y002718D03*
X014374Y002687D03*
X014405Y002687D03*
X014436Y002687D03*
X014466Y002687D03*
X014497Y002687D03*
X014528Y002687D03*
X014558Y002687D03*
X014589Y002687D03*
X014620Y002687D03*
X014650Y002687D03*
X014681Y002687D03*
X014712Y002687D03*
X014743Y002687D03*
X014773Y002687D03*
X014804Y002687D03*
X014835Y002687D03*
X014865Y002687D03*
X014881Y002672D03*
X014911Y002672D03*
X015111Y002565D03*
X015142Y002534D03*
X015142Y002503D03*
X015173Y002442D03*
X015173Y002350D03*
X015173Y002319D03*
X015173Y002227D03*
X015173Y002196D03*
X015357Y002165D03*
X015357Y002135D03*
X015357Y002258D03*
X015357Y002288D03*
X015357Y002380D03*
X015357Y002411D03*
X015357Y002503D03*
X015357Y002534D03*
X015326Y002565D03*
X015326Y002595D03*
X015295Y002657D03*
X015265Y002687D03*
X015173Y002780D03*
X015142Y002810D03*
X015142Y002841D03*
X015142Y002933D03*
X015142Y002964D03*
X015142Y003056D03*
X015142Y003087D03*
X015142Y003179D03*
X015142Y003210D03*
X014804Y003271D03*
X014804Y003363D03*
X014804Y003394D03*
X014804Y003486D03*
X014804Y003517D03*
X014804Y003609D03*
X014804Y003639D03*
X014804Y003732D03*
X014804Y003762D03*
X014804Y003854D03*
X014804Y003885D03*
X014804Y003977D03*
X014804Y004008D03*
X014804Y004100D03*
X014804Y004131D03*
X014804Y004223D03*
X014804Y004254D03*
X014773Y004315D03*
X014620Y004284D03*
X014620Y004192D03*
X014620Y004161D03*
X014620Y004069D03*
X014620Y004039D03*
X014620Y003947D03*
X014620Y003916D03*
X014620Y003824D03*
X014620Y003793D03*
X014620Y003701D03*
X014620Y003670D03*
X014620Y003578D03*
X014620Y003547D03*
X014620Y003455D03*
X014620Y003424D03*
X014620Y003332D03*
X014620Y003302D03*
X013391Y003271D03*
X013391Y003363D03*
X013391Y003394D03*
X013391Y003486D03*
X013391Y003517D03*
X013023Y003547D03*
X013023Y003455D03*
X013023Y003424D03*
X013023Y003332D03*
X013023Y003302D03*
X012854Y003256D03*
X012823Y003256D03*
X012808Y003240D03*
X012777Y003210D03*
X012777Y003179D03*
X012839Y003056D03*
X012854Y003041D03*
X012915Y003041D03*
X012977Y003041D03*
X013038Y003041D03*
X013100Y003041D03*
X013161Y003041D03*
X012977Y002887D03*
X012946Y002887D03*
X012931Y002872D03*
X012900Y002872D03*
X012839Y002841D03*
X012777Y002810D03*
X012685Y002749D03*
X012654Y002718D03*
X012562Y002534D03*
X012562Y002503D03*
X012562Y002411D03*
X012562Y002380D03*
X012562Y002288D03*
X012562Y002258D03*
X012562Y002165D03*
X012562Y002135D03*
X012301Y001474D03*
X012271Y001167D03*
X012255Y000937D03*
X012224Y000937D03*
X012194Y000937D03*
X012163Y000937D03*
X012132Y000937D03*
X012040Y000937D03*
X012010Y000937D03*
X011979Y000937D03*
X011948Y000937D03*
X011856Y001060D03*
X011825Y001060D03*
X011795Y001060D03*
X011764Y001060D03*
X011733Y001060D03*
X011702Y001060D03*
X011672Y001060D03*
X011580Y000937D03*
X011549Y000937D03*
X011518Y000937D03*
X011487Y000937D03*
X011365Y000937D03*
X011334Y000937D03*
X011303Y000937D03*
X011273Y000937D03*
X011242Y000937D03*
X011211Y000937D03*
X011180Y000937D03*
X011058Y000968D03*
X010781Y000937D03*
X010750Y000937D03*
X010720Y000937D03*
X010351Y000937D03*
X010305Y001045D03*
X010244Y001045D03*
X010198Y000937D03*
X010244Y001382D03*
X010274Y001382D03*
X010351Y001367D03*
X010351Y001490D03*
X010321Y001490D03*
X010290Y001490D03*
X010259Y001490D03*
X010228Y001490D03*
X010198Y001490D03*
X011104Y001474D03*
X011150Y001367D03*
X011764Y001521D03*
X012439Y000937D03*
X012470Y000937D03*
X012501Y000937D03*
X012532Y000937D03*
X014482Y001474D03*
X014865Y001674D03*
X014865Y001889D03*
X014896Y001889D03*
X014958Y001920D03*
X015111Y001766D03*
X015157Y001782D03*
X015203Y001828D03*
X015234Y001889D03*
X016969Y001290D03*
X017000Y001290D03*
X017030Y001290D03*
X017061Y001290D03*
X017092Y001290D03*
X017123Y001290D03*
D21*
X017215Y001306D03*
X017215Y001336D03*
X017215Y001367D03*
X017215Y001398D03*
X017215Y001428D03*
X017215Y001459D03*
X017215Y001152D03*
X017215Y001121D03*
X017215Y001091D03*
X017215Y001060D03*
X017215Y001029D03*
X017215Y000999D03*
X017215Y000968D03*
X015710Y000968D03*
X015710Y000999D03*
X015710Y001029D03*
X015710Y001060D03*
X015710Y001091D03*
X015710Y001121D03*
X015710Y001275D03*
X015710Y001306D03*
X015710Y001336D03*
X015710Y001367D03*
X015249Y001367D03*
X015249Y001336D03*
X015249Y001306D03*
X015249Y001275D03*
X015249Y001244D03*
X015249Y001213D03*
X015249Y001183D03*
X015249Y001152D03*
X015249Y001398D03*
X015249Y001428D03*
X015249Y001459D03*
X014911Y001459D03*
X014911Y001428D03*
X014911Y001398D03*
X014911Y001367D03*
X014911Y001336D03*
X014911Y001306D03*
X014911Y001275D03*
X014911Y001244D03*
X014911Y001213D03*
X014911Y001183D03*
X014911Y001152D03*
X014911Y001121D03*
X015096Y000937D03*
X014389Y001091D03*
X014389Y001121D03*
X013499Y001152D03*
X013499Y001275D03*
X013253Y000937D03*
X012486Y000968D03*
X012486Y000999D03*
X012486Y001029D03*
X012486Y001060D03*
X012486Y001091D03*
X012486Y001121D03*
X012486Y001275D03*
X012486Y001306D03*
X012486Y001336D03*
X012486Y001367D03*
X011764Y001444D03*
X010750Y001444D03*
X010750Y001474D03*
X010750Y001413D03*
X010750Y001382D03*
X010750Y001352D03*
X010750Y001321D03*
X010750Y001290D03*
X010750Y001260D03*
X010750Y001229D03*
X010750Y001198D03*
X010750Y001167D03*
X010750Y001137D03*
X010750Y001106D03*
X010750Y001075D03*
X010750Y001045D03*
X010750Y001014D03*
X010750Y000983D03*
X010750Y000952D03*
X010520Y001183D03*
X010520Y001213D03*
X010520Y001244D03*
X010274Y000937D03*
X010029Y001152D03*
X014712Y004330D03*
D22*
X014151Y001474D03*
X014151Y001459D03*
X014151Y001444D03*
X014151Y001428D03*
X014151Y001413D03*
X014151Y001398D03*
X014151Y001382D03*
X014151Y001367D03*
X014151Y001352D03*
X014151Y001336D03*
X014151Y001321D03*
X014151Y001306D03*
X014151Y001290D03*
X014151Y001275D03*
X014151Y001260D03*
X014151Y001244D03*
X014151Y001229D03*
X014151Y001213D03*
X014151Y001198D03*
X014151Y001183D03*
X014151Y001167D03*
X014151Y001152D03*
X014151Y001137D03*
X014151Y001121D03*
X014151Y001106D03*
X014151Y001091D03*
X014151Y001075D03*
X014151Y001060D03*
X014397Y001137D03*
X014443Y001306D03*
X014443Y001321D03*
X014443Y001336D03*
X014643Y001336D03*
X014643Y001321D03*
X014643Y001306D03*
X014643Y001290D03*
X014643Y001275D03*
X014643Y001352D03*
X014643Y001367D03*
X014643Y001152D03*
X014643Y001137D03*
X014643Y001121D03*
X014643Y001106D03*
X014643Y001091D03*
X014643Y001075D03*
X014643Y001060D03*
X014919Y001091D03*
X015226Y001075D03*
X015242Y001121D03*
X015487Y001275D03*
X015487Y001290D03*
X015487Y001306D03*
X015487Y001321D03*
X015487Y001336D03*
X016624Y001336D03*
X016624Y001321D03*
X016624Y001306D03*
X016624Y001290D03*
X016624Y001352D03*
X016624Y001367D03*
X016624Y001167D03*
X016624Y001152D03*
X016624Y001137D03*
X016624Y001121D03*
X016624Y001106D03*
X016624Y001091D03*
X016624Y001075D03*
X016624Y001060D03*
X016885Y001060D03*
X016885Y001075D03*
X016885Y001091D03*
X016885Y001106D03*
X016885Y001121D03*
X016885Y001137D03*
X016885Y001152D03*
X016885Y001167D03*
X016885Y001045D03*
X016885Y001029D03*
X016885Y001014D03*
X016885Y000999D03*
X016885Y000983D03*
X016885Y000968D03*
X016885Y000952D03*
X016885Y001290D03*
X016885Y001306D03*
X016885Y001321D03*
X016885Y001336D03*
X016885Y001352D03*
X016885Y001367D03*
X016885Y001382D03*
X016885Y001398D03*
X016885Y001413D03*
X016885Y001428D03*
X016885Y001444D03*
X016885Y001459D03*
X016885Y001474D03*
X017606Y001367D03*
X017606Y001352D03*
X017606Y001336D03*
X017606Y001321D03*
X017606Y001306D03*
X017606Y001290D03*
X017606Y001275D03*
X017606Y001260D03*
X017606Y001244D03*
X017606Y001229D03*
X017606Y001213D03*
X017606Y001198D03*
X017606Y001183D03*
X017606Y001167D03*
X017606Y001152D03*
X017606Y001137D03*
X017606Y001121D03*
X017606Y001106D03*
X017606Y001091D03*
X017606Y001075D03*
X017606Y001060D03*
X017606Y001045D03*
X017606Y001029D03*
X017606Y001014D03*
X017606Y000999D03*
X017606Y000983D03*
X017606Y000968D03*
X017606Y000952D03*
X013737Y000952D03*
X013737Y000968D03*
X013737Y000983D03*
X013737Y000999D03*
X013737Y001014D03*
X013737Y001029D03*
X013737Y001045D03*
X013737Y001060D03*
X013737Y001075D03*
X013737Y001091D03*
X013737Y001106D03*
X013737Y001121D03*
X013737Y001137D03*
X013737Y001152D03*
X013737Y001167D03*
X013737Y001183D03*
X013737Y001198D03*
X013737Y001213D03*
X013737Y001229D03*
X013737Y001244D03*
X013737Y001260D03*
X013737Y001275D03*
X013737Y001290D03*
X013737Y001306D03*
X013737Y001321D03*
X013737Y001336D03*
X013737Y001352D03*
X013737Y001367D03*
X013737Y001382D03*
X013737Y001398D03*
X013737Y001413D03*
X013737Y001428D03*
X013737Y001444D03*
X013737Y001459D03*
X013737Y001474D03*
X013507Y001244D03*
X013507Y001229D03*
X013507Y001213D03*
X013507Y001198D03*
X013507Y001183D03*
X012248Y001290D03*
X012248Y001306D03*
X012248Y001321D03*
X012248Y001336D03*
X011879Y001183D03*
X011848Y001244D03*
X011664Y001229D03*
X011664Y001213D03*
X011572Y001029D03*
X011557Y000999D03*
X011311Y001060D03*
X011311Y001075D03*
X011311Y001091D03*
X011311Y001106D03*
X011311Y001121D03*
X011311Y001137D03*
X011311Y001152D03*
X011311Y001167D03*
X011311Y001183D03*
X011311Y001198D03*
X011311Y001213D03*
X011311Y001229D03*
X011311Y001244D03*
X011311Y001260D03*
X011311Y001275D03*
X011311Y001290D03*
X011311Y001306D03*
X011311Y001321D03*
X011311Y001336D03*
X011311Y001352D03*
X011311Y001367D03*
X011756Y001413D03*
X011756Y001428D03*
X011940Y001060D03*
X011971Y000999D03*
X011986Y000968D03*
X010958Y001167D03*
X010958Y001183D03*
X010958Y001198D03*
X010958Y001213D03*
X010958Y001229D03*
X010958Y001260D03*
X010512Y001275D03*
X010512Y001290D03*
X010512Y001152D03*
X010512Y001137D03*
X010021Y001183D03*
X010021Y001198D03*
X010021Y001213D03*
X010021Y001244D03*
X010036Y001275D03*
D23*
X010029Y001290D03*
X010044Y001306D03*
X010029Y001260D03*
X010029Y001229D03*
X010029Y001167D03*
X010029Y001137D03*
X010044Y001121D03*
X010489Y001106D03*
X010505Y001121D03*
X010520Y001167D03*
X010520Y001198D03*
X010520Y001229D03*
X010520Y001260D03*
X010505Y001306D03*
X010489Y001321D03*
X010750Y001336D03*
X010750Y001306D03*
X010750Y001275D03*
X010750Y001244D03*
X010750Y001213D03*
X010750Y001183D03*
X010750Y001152D03*
X010750Y001121D03*
X010750Y001091D03*
X010750Y001060D03*
X010750Y001029D03*
X010750Y000999D03*
X010750Y000968D03*
X010996Y001091D03*
X010981Y001121D03*
X010981Y001137D03*
X010965Y001152D03*
X010965Y001244D03*
X010965Y001275D03*
X010981Y001290D03*
X010981Y001306D03*
X010996Y001336D03*
X010750Y001367D03*
X010750Y001398D03*
X010750Y001428D03*
X010750Y001459D03*
X011580Y001060D03*
X011580Y001045D03*
X011564Y001014D03*
X011549Y000968D03*
X011534Y000952D03*
X011641Y001183D03*
X011656Y001198D03*
X011672Y001244D03*
X011687Y001260D03*
X011841Y001260D03*
X011856Y001229D03*
X011856Y001213D03*
X011871Y001198D03*
X011948Y001045D03*
X011948Y001029D03*
X011963Y001014D03*
X011979Y000983D03*
X011994Y000952D03*
X012224Y000968D03*
X012301Y001075D03*
X012317Y001091D03*
X012486Y001106D03*
X012486Y001075D03*
X012486Y001045D03*
X012486Y001014D03*
X012486Y000983D03*
X012486Y000952D03*
X012486Y001260D03*
X012486Y001290D03*
X012486Y001321D03*
X012486Y001352D03*
X012255Y001352D03*
X012255Y001275D03*
X011764Y001398D03*
X013161Y001382D03*
X013484Y001306D03*
X013499Y001290D03*
X013499Y001260D03*
X013499Y001167D03*
X013499Y001137D03*
X013484Y001121D03*
X013161Y001045D03*
X014389Y001075D03*
X014405Y001060D03*
X014389Y001106D03*
X014405Y001152D03*
X014466Y001275D03*
X014451Y001290D03*
X014451Y001352D03*
X014466Y001367D03*
X014911Y001352D03*
X014911Y001382D03*
X014911Y001413D03*
X014911Y001444D03*
X014911Y001474D03*
X014911Y001321D03*
X014911Y001290D03*
X014911Y001260D03*
X014911Y001229D03*
X014911Y001198D03*
X014911Y001167D03*
X014911Y001137D03*
X014911Y001106D03*
X014927Y001075D03*
X015234Y001091D03*
X015249Y001106D03*
X015249Y001137D03*
X015249Y001167D03*
X015249Y001198D03*
X015249Y001229D03*
X015249Y001260D03*
X015249Y001290D03*
X015249Y001321D03*
X015249Y001352D03*
X015249Y001382D03*
X015249Y001413D03*
X015249Y001444D03*
X015249Y001474D03*
X015495Y001352D03*
X015510Y001367D03*
X015710Y001352D03*
X015710Y001321D03*
X015710Y001290D03*
X015710Y001260D03*
X015710Y001137D03*
X015710Y001106D03*
X015710Y001075D03*
X015710Y001045D03*
X015710Y001014D03*
X015710Y000983D03*
X015710Y000952D03*
X016616Y001183D03*
X017215Y001167D03*
X017215Y001137D03*
X017215Y001106D03*
X017215Y001075D03*
X017215Y001045D03*
X017215Y001014D03*
X017215Y000983D03*
X017215Y000952D03*
X017215Y001290D03*
X017215Y001321D03*
X017215Y001352D03*
X017215Y001382D03*
X017215Y001413D03*
X017215Y001444D03*
X017215Y001474D03*
D24*
X016508Y001474D03*
X016508Y001459D03*
X016508Y001444D03*
X016508Y001428D03*
X016508Y001413D03*
X016508Y001398D03*
X016508Y001382D03*
X016508Y001275D03*
X016508Y001260D03*
X016508Y001244D03*
X016508Y001229D03*
X016508Y001213D03*
X016508Y001198D03*
X016508Y001045D03*
X016508Y001029D03*
X016508Y001014D03*
X016508Y000999D03*
X016508Y000983D03*
X016508Y000968D03*
X016508Y000952D03*
X015602Y001382D03*
X014528Y001167D03*
X014528Y001045D03*
X014528Y001029D03*
X014528Y001014D03*
X013269Y000983D03*
X013269Y001444D03*
X012808Y001904D03*
X012378Y001413D03*
X012378Y001382D03*
X012378Y001229D03*
X011196Y001428D03*
X011196Y000999D03*
X013207Y003286D03*
X013207Y003409D03*
X013207Y003532D03*
X013207Y003563D03*
X013207Y003593D03*
X015111Y002672D03*
D25*
X015234Y002549D03*
X015249Y002519D03*
X015265Y002457D03*
X015265Y002426D03*
X015265Y002396D03*
X015265Y002365D03*
X015265Y002334D03*
X015265Y002304D03*
X015265Y002273D03*
X015265Y002242D03*
X015265Y002211D03*
X015265Y002181D03*
X015265Y002150D03*
X015234Y002089D03*
X015234Y002058D03*
X015664Y001474D03*
X015080Y000952D03*
X014712Y003256D03*
X014712Y003286D03*
X014712Y003317D03*
X014712Y003348D03*
X014712Y003378D03*
X014712Y003409D03*
X014712Y003440D03*
X014712Y003471D03*
X014712Y003501D03*
X014712Y003532D03*
X014712Y003563D03*
X014712Y003593D03*
X014712Y003624D03*
X014712Y003655D03*
X014712Y003686D03*
X014712Y003716D03*
X014712Y003747D03*
X014712Y003778D03*
X014712Y003808D03*
X014712Y003839D03*
X014712Y003870D03*
X014712Y003900D03*
X014712Y003931D03*
X014712Y003962D03*
X014712Y003993D03*
X014712Y004023D03*
X014712Y004054D03*
X014712Y004085D03*
X014712Y004115D03*
X014712Y004146D03*
X014712Y004177D03*
X014712Y004208D03*
X014712Y004238D03*
X012654Y002519D03*
X012654Y002488D03*
X012654Y002457D03*
X012654Y002396D03*
X012654Y002365D03*
X012654Y002334D03*
X012654Y002273D03*
X012654Y002242D03*
X012654Y002211D03*
X012654Y002181D03*
X012654Y002150D03*
X012685Y002058D03*
X012439Y001474D03*
X011764Y001321D03*
X010413Y001382D03*
D26*
X010274Y001474D03*
X010274Y000952D03*
X011764Y001275D03*
X012424Y001167D03*
X012409Y001459D03*
X012731Y001997D03*
X012700Y002027D03*
X013253Y001474D03*
X013253Y000952D03*
X014574Y000952D03*
X014574Y001444D03*
X015080Y000968D03*
X015633Y001183D03*
X015649Y001167D03*
X015633Y001459D03*
X015188Y001997D03*
X015219Y002027D03*
X015219Y002580D03*
X015188Y002611D03*
D27*
X015173Y001966D03*
X015142Y001935D03*
X015633Y001444D03*
X015618Y001428D03*
X014558Y001413D03*
X014558Y000968D03*
X014067Y000968D03*
X014067Y000983D03*
X014067Y000999D03*
X014067Y001014D03*
X014067Y001029D03*
X014067Y001045D03*
X014067Y000952D03*
X013253Y001459D03*
X012777Y001935D03*
X012747Y001966D03*
X012747Y002641D03*
X013207Y003624D03*
X011226Y001459D03*
X011226Y000968D03*
X010274Y001459D03*
X012409Y001137D03*
D28*
X012340Y001121D03*
X012324Y001106D03*
X012294Y001060D03*
X012278Y001045D03*
X012263Y001029D03*
X012248Y000999D03*
X012201Y000952D03*
X011557Y000983D03*
X010482Y001091D03*
X010482Y001336D03*
X010067Y001336D03*
X010052Y001321D03*
X010052Y001106D03*
X010067Y001091D03*
X013461Y001336D03*
X013476Y001321D03*
X013476Y001106D03*
X013476Y001091D03*
X014935Y001060D03*
X015226Y001060D03*
D29*
X014566Y001428D03*
X012708Y002611D03*
X012401Y001183D03*
X011234Y000952D03*
D30*
X012378Y001213D03*
X012393Y001198D03*
X012378Y001398D03*
X013269Y000968D03*
X014543Y000983D03*
X014543Y001213D03*
X014543Y001229D03*
X014543Y001382D03*
X015602Y001398D03*
X015618Y001413D03*
X015602Y001244D03*
X015157Y002641D03*
D31*
X014551Y001398D03*
X014551Y001260D03*
X014551Y001244D03*
X015073Y000983D03*
X015610Y001213D03*
X015625Y001198D03*
X012401Y001444D03*
X012386Y001428D03*
X010267Y000968D03*
D32*
X010090Y001060D03*
X010075Y001075D03*
X010075Y001352D03*
X010090Y001367D03*
X010459Y001367D03*
X010474Y001352D03*
X010474Y001075D03*
X010459Y001060D03*
X010996Y001106D03*
X011027Y001075D03*
X010996Y001321D03*
X011027Y001352D03*
X011042Y001367D03*
X011764Y001382D03*
X012271Y001367D03*
X012286Y001260D03*
X012255Y001014D03*
X012224Y000983D03*
X013437Y001060D03*
X013453Y001075D03*
X013453Y001352D03*
X013437Y001367D03*
X014958Y001045D03*
X015203Y001045D03*
X015510Y001260D03*
X015679Y001152D03*
X013084Y002887D03*
X014712Y004300D03*
D33*
X014981Y002918D03*
X014535Y001198D03*
X014535Y001183D03*
X014535Y000999D03*
X015073Y000999D03*
X015610Y001229D03*
X012370Y001244D03*
X011203Y001444D03*
X011203Y000983D03*
D34*
X011180Y001398D03*
X011764Y001167D03*
X011764Y001152D03*
X010274Y000983D03*
X010274Y001444D03*
X012793Y002672D03*
X013038Y002856D03*
X013207Y003317D03*
X013207Y003348D03*
X013207Y003378D03*
X013207Y003440D03*
X013207Y003471D03*
X013207Y003501D03*
X013284Y001413D03*
X013284Y001014D03*
X015080Y001029D03*
X015096Y001904D03*
X017599Y001459D03*
X017614Y001444D03*
X017599Y001428D03*
X017614Y001413D03*
X017599Y001398D03*
X017614Y001382D03*
X017614Y001474D03*
D35*
X015073Y001014D03*
X013276Y000999D03*
X013276Y001428D03*
D36*
X011764Y001137D03*
X011165Y001382D03*
X010274Y001428D03*
X010274Y000999D03*
X013207Y003256D03*
X014927Y002887D03*
D37*
X013292Y001398D03*
X013292Y001029D03*
X011173Y001029D03*
X011173Y001014D03*
X011173Y001413D03*
D38*
X011764Y001106D03*
X011764Y001091D03*
X010274Y001014D03*
X010274Y001413D03*
X013008Y002826D03*
X017046Y001275D03*
X017046Y001244D03*
X017046Y001213D03*
X017046Y001183D03*
D39*
X014896Y002856D03*
X011764Y001075D03*
X010274Y001029D03*
X010274Y001398D03*
D40*
X010121Y001382D03*
X010121Y001045D03*
X010428Y001045D03*
X011764Y001336D03*
X013407Y001382D03*
X013407Y001045D03*
X014604Y001474D03*
X015034Y002979D03*
X015034Y003010D03*
D41*
X011756Y001121D03*
X011157Y001045D03*
D42*
X011764Y001459D03*
X013130Y001060D03*
D43*
X011756Y001352D03*
X011756Y001367D03*
X011035Y001060D03*
D44*
X011764Y001505D03*
X012639Y001950D03*
X012639Y001981D03*
X012608Y002012D03*
X012608Y002043D03*
X012639Y002073D03*
X012639Y002104D03*
X012608Y002135D03*
X012608Y002165D03*
X012578Y002196D03*
X012578Y002227D03*
X012608Y002258D03*
X012608Y002288D03*
X012578Y002319D03*
X012578Y002350D03*
X012608Y002380D03*
X012608Y002411D03*
X012578Y002442D03*
X012578Y002473D03*
X012608Y002503D03*
X012608Y002534D03*
X012578Y002565D03*
X012639Y002565D03*
X012639Y002595D03*
X012608Y002626D03*
X012670Y002626D03*
X012670Y002657D03*
X012700Y002687D03*
X012700Y002718D03*
X012731Y002749D03*
X012731Y002780D03*
X012793Y002780D03*
X012793Y002749D03*
X012823Y002718D03*
X012823Y002687D03*
X012793Y002657D03*
X012793Y002626D03*
X012762Y002595D03*
X012762Y002565D03*
X012731Y002534D03*
X012731Y002503D03*
X012700Y002473D03*
X012700Y002442D03*
X012670Y002411D03*
X012670Y002380D03*
X012700Y002350D03*
X012700Y002319D03*
X012670Y002288D03*
X012670Y002258D03*
X012700Y002227D03*
X012700Y002196D03*
X012670Y002165D03*
X012670Y002135D03*
X012700Y002104D03*
X012700Y002073D03*
X012670Y002043D03*
X012670Y002012D03*
X012700Y001981D03*
X012700Y001950D03*
X012670Y001920D03*
X012731Y001920D03*
X012731Y001889D03*
X012700Y001858D03*
X012762Y001858D03*
X012762Y001828D03*
X012793Y001797D03*
X012823Y001828D03*
X012823Y001858D03*
X012793Y001889D03*
X012793Y001920D03*
X012823Y001950D03*
X012823Y001981D03*
X012793Y002012D03*
X012793Y002043D03*
X012762Y002073D03*
X012762Y002104D03*
X012731Y002135D03*
X012731Y002165D03*
X012731Y002258D03*
X012731Y002288D03*
X012731Y002380D03*
X012731Y002411D03*
X012639Y002442D03*
X012639Y002473D03*
X012670Y002503D03*
X012670Y002534D03*
X012700Y002565D03*
X012700Y002595D03*
X012731Y002626D03*
X012731Y002657D03*
X012762Y002687D03*
X012762Y002718D03*
X012854Y002749D03*
X012854Y002780D03*
X012823Y002810D03*
X012885Y002810D03*
X012885Y002841D03*
X012946Y002841D03*
X012946Y002810D03*
X012915Y002780D03*
X012915Y002749D03*
X012885Y002718D03*
X012885Y002687D03*
X012915Y002657D03*
X012946Y002687D03*
X012946Y002718D03*
X012977Y002749D03*
X012977Y002780D03*
X013008Y002810D03*
X013008Y002841D03*
X013038Y002872D03*
X013069Y002841D03*
X013069Y002810D03*
X013100Y002780D03*
X013100Y002749D03*
X013130Y002718D03*
X013161Y002749D03*
X013161Y002780D03*
X013130Y002810D03*
X013130Y002841D03*
X013100Y002872D03*
X013161Y002872D03*
X013192Y002841D03*
X013192Y002810D03*
X013223Y002780D03*
X013192Y002718D03*
X013069Y002718D03*
X013038Y002749D03*
X013038Y002780D03*
X013008Y002718D03*
X013008Y002687D03*
X012854Y002657D03*
X012639Y002687D03*
X012639Y002350D03*
X012639Y002319D03*
X012639Y002227D03*
X012639Y002196D03*
X012578Y002104D03*
X012731Y002043D03*
X012731Y002012D03*
X012762Y001981D03*
X012762Y001950D03*
X012854Y001920D03*
X012854Y001889D03*
X012885Y001858D03*
X012885Y001828D03*
X012915Y001797D03*
X012915Y001766D03*
X012885Y001736D03*
X012854Y001766D03*
X012854Y001797D03*
X012946Y001828D03*
X012946Y001858D03*
X012915Y001889D03*
X012915Y001920D03*
X012885Y001950D03*
X012977Y001889D03*
X013008Y001858D03*
X013008Y001828D03*
X013038Y001797D03*
X013038Y001766D03*
X013008Y001736D03*
X013008Y001705D03*
X013069Y001705D03*
X013069Y001736D03*
X013100Y001766D03*
X013100Y001797D03*
X013130Y001828D03*
X013130Y001858D03*
X013069Y001858D03*
X013069Y001828D03*
X013161Y001797D03*
X013161Y001766D03*
X013130Y001736D03*
X013130Y001705D03*
X013100Y001674D03*
X013161Y001674D03*
X013192Y001705D03*
X013192Y001736D03*
X013223Y001766D03*
X013223Y001797D03*
X013253Y001828D03*
X013253Y001858D03*
X013192Y001858D03*
X013192Y001828D03*
X013284Y001797D03*
X013284Y001766D03*
X013315Y001736D03*
X013315Y001705D03*
X013345Y001674D03*
X013376Y001705D03*
X013376Y001736D03*
X013345Y001766D03*
X013345Y001797D03*
X013315Y001828D03*
X013315Y001858D03*
X013376Y001858D03*
X013376Y001828D03*
X013407Y001797D03*
X013407Y001766D03*
X013437Y001736D03*
X013437Y001705D03*
X013407Y001674D03*
X013468Y001674D03*
X013499Y001705D03*
X013499Y001736D03*
X013530Y001766D03*
X013530Y001797D03*
X013560Y001828D03*
X013560Y001858D03*
X013499Y001858D03*
X013499Y001828D03*
X013468Y001797D03*
X013468Y001766D03*
X013437Y001828D03*
X013437Y001858D03*
X013591Y001797D03*
X013591Y001766D03*
X013560Y001736D03*
X013560Y001705D03*
X013530Y001674D03*
X013591Y001674D03*
X013622Y001705D03*
X013622Y001736D03*
X013652Y001766D03*
X013652Y001797D03*
X013622Y001828D03*
X013622Y001858D03*
X013683Y001858D03*
X013683Y001828D03*
X013714Y001797D03*
X013714Y001766D03*
X013745Y001736D03*
X013745Y001705D03*
X013775Y001674D03*
X013806Y001705D03*
X013806Y001736D03*
X013837Y001766D03*
X013837Y001797D03*
X013867Y001828D03*
X013867Y001858D03*
X013806Y001858D03*
X013806Y001828D03*
X013775Y001797D03*
X013775Y001766D03*
X013745Y001828D03*
X013745Y001858D03*
X013683Y001736D03*
X013683Y001705D03*
X013652Y001674D03*
X013714Y001674D03*
X013837Y001674D03*
X013867Y001705D03*
X013867Y001736D03*
X013898Y001766D03*
X013898Y001797D03*
X013929Y001828D03*
X013929Y001858D03*
X013990Y001858D03*
X013990Y001828D03*
X013960Y001797D03*
X013960Y001766D03*
X013990Y001736D03*
X013990Y001705D03*
X013960Y001674D03*
X013929Y001705D03*
X013929Y001736D03*
X013898Y001674D03*
X014021Y001674D03*
X014052Y001705D03*
X014052Y001736D03*
X014082Y001766D03*
X014082Y001797D03*
X014052Y001828D03*
X014052Y001858D03*
X014113Y001858D03*
X014113Y001828D03*
X014144Y001797D03*
X014144Y001766D03*
X014174Y001736D03*
X014174Y001705D03*
X014144Y001674D03*
X014113Y001705D03*
X014113Y001736D03*
X014082Y001674D03*
X014021Y001766D03*
X014021Y001797D03*
X014174Y001828D03*
X014174Y001858D03*
X014236Y001858D03*
X014236Y001828D03*
X014267Y001797D03*
X014267Y001766D03*
X014297Y001736D03*
X014297Y001705D03*
X014267Y001674D03*
X014236Y001705D03*
X014236Y001736D03*
X014205Y001766D03*
X014205Y001797D03*
X014297Y001828D03*
X014297Y001858D03*
X014359Y001858D03*
X014359Y001828D03*
X014389Y001797D03*
X014389Y001766D03*
X014359Y001736D03*
X014359Y001705D03*
X014389Y001674D03*
X014420Y001705D03*
X014420Y001736D03*
X014451Y001766D03*
X014451Y001797D03*
X014482Y001828D03*
X014482Y001858D03*
X014543Y001858D03*
X014543Y001828D03*
X014574Y001797D03*
X014574Y001766D03*
X014604Y001736D03*
X014604Y001705D03*
X014574Y001674D03*
X014543Y001705D03*
X014543Y001736D03*
X014512Y001766D03*
X014512Y001797D03*
X014482Y001736D03*
X014482Y001705D03*
X014512Y001674D03*
X014451Y001674D03*
X014328Y001674D03*
X014328Y001766D03*
X014328Y001797D03*
X014420Y001828D03*
X014420Y001858D03*
X014604Y001858D03*
X014604Y001828D03*
X014635Y001797D03*
X014635Y001766D03*
X014666Y001736D03*
X014666Y001705D03*
X014697Y001674D03*
X014727Y001705D03*
X014727Y001736D03*
X014697Y001766D03*
X014697Y001797D03*
X014727Y001828D03*
X014727Y001858D03*
X014666Y001858D03*
X014666Y001828D03*
X014758Y001797D03*
X014758Y001766D03*
X014789Y001736D03*
X014789Y001705D03*
X014819Y001674D03*
X014850Y001705D03*
X014850Y001736D03*
X014819Y001766D03*
X014819Y001797D03*
X014789Y001828D03*
X014789Y001858D03*
X014850Y001858D03*
X014850Y001828D03*
X014881Y001797D03*
X014881Y001766D03*
X014911Y001736D03*
X014911Y001705D03*
X014973Y001705D03*
X014973Y001736D03*
X015004Y001766D03*
X015004Y001797D03*
X015034Y001828D03*
X015034Y001858D03*
X015004Y001889D03*
X015004Y001920D03*
X015034Y001950D03*
X015065Y001920D03*
X015065Y001889D03*
X015096Y001858D03*
X015096Y001828D03*
X015126Y001797D03*
X015157Y001828D03*
X015157Y001858D03*
X015126Y001889D03*
X015126Y001920D03*
X015096Y001950D03*
X015096Y001981D03*
X015126Y002012D03*
X015126Y002043D03*
X015157Y002073D03*
X015157Y002104D03*
X015188Y002135D03*
X015188Y002165D03*
X015219Y002196D03*
X015219Y002227D03*
X015249Y002258D03*
X015249Y002288D03*
X015219Y002319D03*
X015219Y002350D03*
X015249Y002380D03*
X015249Y002411D03*
X015219Y002442D03*
X015219Y002473D03*
X015249Y002503D03*
X015249Y002534D03*
X015219Y002565D03*
X015219Y002595D03*
X015249Y002626D03*
X015249Y002657D03*
X015219Y002687D03*
X015219Y002718D03*
X015188Y002749D03*
X015157Y002718D03*
X015157Y002687D03*
X015126Y002657D03*
X015126Y002626D03*
X015096Y002595D03*
X015065Y002626D03*
X015065Y002657D03*
X015034Y002687D03*
X015034Y002718D03*
X015004Y002749D03*
X015004Y002780D03*
X015034Y002810D03*
X015034Y002841D03*
X015004Y002872D03*
X015004Y002902D03*
X015034Y002933D03*
X015034Y002964D03*
X015004Y002995D03*
X015004Y003025D03*
X015034Y003056D03*
X015034Y003087D03*
X015004Y003117D03*
X015004Y003148D03*
X015034Y003179D03*
X015034Y003210D03*
X015004Y003240D03*
X014988Y003256D03*
X014942Y003240D03*
X014927Y003256D03*
X014881Y003240D03*
X014865Y003256D03*
X014819Y003240D03*
X014789Y003210D03*
X014789Y003179D03*
X014819Y003148D03*
X014819Y003117D03*
X014789Y003087D03*
X014789Y003056D03*
X014850Y003056D03*
X014850Y003087D03*
X014881Y003117D03*
X014881Y003148D03*
X014911Y003179D03*
X014911Y003210D03*
X014850Y003210D03*
X014850Y003179D03*
X014758Y003148D03*
X014758Y003117D03*
X014727Y003087D03*
X014727Y003056D03*
X014666Y003056D03*
X014666Y003087D03*
X014697Y003117D03*
X014697Y003148D03*
X014727Y003179D03*
X014727Y003210D03*
X014697Y003240D03*
X014697Y003271D03*
X014727Y003302D03*
X014727Y003332D03*
X014697Y003363D03*
X014697Y003394D03*
X014727Y003424D03*
X014727Y003455D03*
X014697Y003486D03*
X014697Y003517D03*
X014727Y003547D03*
X014727Y003578D03*
X014697Y003609D03*
X014697Y003639D03*
X014727Y003670D03*
X014727Y003701D03*
X014697Y003732D03*
X014697Y003762D03*
X014727Y003793D03*
X014727Y003824D03*
X014697Y003854D03*
X014697Y003885D03*
X014727Y003916D03*
X014727Y003947D03*
X014697Y003977D03*
X014697Y004008D03*
X014727Y004039D03*
X014727Y004069D03*
X014697Y004100D03*
X014697Y004131D03*
X014727Y004161D03*
X014727Y004192D03*
X014697Y004223D03*
X014697Y004254D03*
X014727Y004284D03*
X014727Y004315D03*
X014666Y004315D03*
X014666Y004284D03*
X014635Y004254D03*
X014635Y004223D03*
X014666Y004192D03*
X014666Y004161D03*
X014635Y004131D03*
X014635Y004100D03*
X014666Y004069D03*
X014666Y004039D03*
X014635Y004008D03*
X014635Y003977D03*
X014666Y003947D03*
X014666Y003916D03*
X014635Y003885D03*
X014635Y003854D03*
X014666Y003824D03*
X014666Y003793D03*
X014635Y003762D03*
X014635Y003732D03*
X014666Y003701D03*
X014666Y003670D03*
X014635Y003639D03*
X014635Y003609D03*
X014666Y003578D03*
X014666Y003547D03*
X014635Y003517D03*
X014635Y003486D03*
X014666Y003455D03*
X014666Y003424D03*
X014635Y003394D03*
X014635Y003363D03*
X014666Y003332D03*
X014666Y003302D03*
X014635Y003271D03*
X014635Y003240D03*
X014604Y003210D03*
X014604Y003179D03*
X014574Y003148D03*
X014574Y003117D03*
X014604Y003087D03*
X014604Y003056D03*
X014543Y003056D03*
X014543Y003087D03*
X014512Y003117D03*
X014512Y003148D03*
X014482Y003179D03*
X014482Y003210D03*
X014512Y003240D03*
X014497Y003256D03*
X014451Y003240D03*
X014436Y003256D03*
X014420Y003210D03*
X014420Y003179D03*
X014389Y003148D03*
X014389Y003117D03*
X014359Y003087D03*
X014359Y003056D03*
X014420Y003056D03*
X014420Y003087D03*
X014451Y003117D03*
X014451Y003148D03*
X014482Y003087D03*
X014482Y003056D03*
X014543Y003179D03*
X014543Y003210D03*
X014574Y003240D03*
X014558Y003256D03*
X014666Y003210D03*
X014666Y003179D03*
X014635Y003148D03*
X014635Y003117D03*
X014758Y003240D03*
X014758Y003271D03*
X014789Y003302D03*
X014789Y003332D03*
X014758Y003363D03*
X014758Y003394D03*
X014789Y003424D03*
X014789Y003455D03*
X014758Y003486D03*
X014758Y003517D03*
X014789Y003547D03*
X014789Y003578D03*
X014758Y003609D03*
X014758Y003639D03*
X014789Y003670D03*
X014789Y003701D03*
X014758Y003732D03*
X014758Y003762D03*
X014789Y003793D03*
X014789Y003824D03*
X014758Y003854D03*
X014758Y003885D03*
X014789Y003916D03*
X014789Y003947D03*
X014758Y003977D03*
X014758Y004008D03*
X014789Y004039D03*
X014789Y004069D03*
X014758Y004100D03*
X014758Y004131D03*
X014789Y004161D03*
X014789Y004192D03*
X014758Y004223D03*
X014758Y004254D03*
X014789Y004284D03*
X015050Y003256D03*
X015065Y003240D03*
X015096Y003210D03*
X015096Y003179D03*
X015126Y003148D03*
X015126Y003117D03*
X015096Y003087D03*
X015096Y003056D03*
X015126Y003025D03*
X015126Y002995D03*
X015096Y002964D03*
X015096Y002933D03*
X015126Y002902D03*
X015126Y002872D03*
X015096Y002841D03*
X015096Y002810D03*
X015126Y002780D03*
X015126Y002749D03*
X015096Y002718D03*
X015096Y002687D03*
X015065Y002749D03*
X015065Y002780D03*
X015065Y002872D03*
X015065Y002902D03*
X015065Y002995D03*
X015065Y003025D03*
X015065Y003117D03*
X015065Y003148D03*
X014973Y003179D03*
X014973Y003210D03*
X014942Y003148D03*
X014942Y003117D03*
X014911Y003087D03*
X014911Y003056D03*
X014973Y003056D03*
X014973Y003087D03*
X014973Y002964D03*
X014973Y002933D03*
X014942Y002902D03*
X014942Y002872D03*
X014911Y002841D03*
X014911Y002810D03*
X014881Y002780D03*
X014881Y002749D03*
X014911Y002718D03*
X014911Y002687D03*
X014973Y002687D03*
X014973Y002718D03*
X014942Y002749D03*
X014942Y002780D03*
X014973Y002810D03*
X014973Y002841D03*
X014881Y002872D03*
X014881Y002902D03*
X014911Y002933D03*
X014819Y002902D03*
X014819Y002872D03*
X014789Y002841D03*
X014789Y002810D03*
X014819Y002780D03*
X014819Y002749D03*
X014789Y002718D03*
X014758Y002749D03*
X014758Y002780D03*
X014727Y002810D03*
X014727Y002841D03*
X014758Y002872D03*
X014850Y002841D03*
X014850Y002810D03*
X014850Y002718D03*
X014727Y002718D03*
X014697Y002749D03*
X014697Y002780D03*
X014666Y002810D03*
X014666Y002841D03*
X014635Y002780D03*
X014635Y002749D03*
X014604Y002718D03*
X014574Y002749D03*
X014574Y002780D03*
X014604Y002810D03*
X014543Y002810D03*
X014512Y002780D03*
X014512Y002749D03*
X014482Y002718D03*
X014451Y002749D03*
X014451Y002780D03*
X014389Y002749D03*
X014359Y002718D03*
X014420Y002718D03*
X014297Y002718D03*
X014543Y002718D03*
X014666Y002718D03*
X014297Y003056D03*
X014297Y003087D03*
X014267Y003117D03*
X014267Y003148D03*
X014297Y003179D03*
X014297Y003210D03*
X014267Y003240D03*
X014251Y003256D03*
X014205Y003240D03*
X014190Y003256D03*
X014144Y003240D03*
X014128Y003256D03*
X014082Y003240D03*
X014067Y003256D03*
X014021Y003240D03*
X014006Y003256D03*
X013960Y003240D03*
X013944Y003256D03*
X013898Y003240D03*
X013883Y003256D03*
X013837Y003240D03*
X013821Y003256D03*
X013775Y003240D03*
X013760Y003256D03*
X013714Y003240D03*
X013699Y003256D03*
X013683Y003210D03*
X013683Y003179D03*
X013652Y003148D03*
X013652Y003117D03*
X013622Y003087D03*
X013622Y003056D03*
X013683Y003056D03*
X013683Y003087D03*
X013714Y003117D03*
X013714Y003148D03*
X013745Y003179D03*
X013745Y003210D03*
X013806Y003210D03*
X013806Y003179D03*
X013837Y003148D03*
X013837Y003117D03*
X013867Y003087D03*
X013867Y003056D03*
X013806Y003056D03*
X013806Y003087D03*
X013775Y003117D03*
X013775Y003148D03*
X013745Y003087D03*
X013745Y003056D03*
X013898Y003117D03*
X013898Y003148D03*
X013867Y003179D03*
X013867Y003210D03*
X013929Y003210D03*
X013929Y003179D03*
X013960Y003148D03*
X013960Y003117D03*
X013990Y003087D03*
X013990Y003056D03*
X013929Y003056D03*
X013929Y003087D03*
X014021Y003117D03*
X014021Y003148D03*
X014052Y003179D03*
X014052Y003210D03*
X014113Y003210D03*
X014113Y003179D03*
X014082Y003148D03*
X014082Y003117D03*
X014052Y003087D03*
X014052Y003056D03*
X014113Y003056D03*
X014113Y003087D03*
X014144Y003117D03*
X014144Y003148D03*
X014174Y003179D03*
X014174Y003210D03*
X014236Y003210D03*
X014236Y003179D03*
X014205Y003148D03*
X014205Y003117D03*
X014174Y003087D03*
X014174Y003056D03*
X014236Y003056D03*
X014236Y003087D03*
X014328Y003117D03*
X014328Y003148D03*
X014359Y003179D03*
X014359Y003210D03*
X014389Y003240D03*
X014374Y003256D03*
X014328Y003240D03*
X014313Y003256D03*
X013990Y003210D03*
X013990Y003179D03*
X013652Y003240D03*
X013637Y003256D03*
X013591Y003240D03*
X013576Y003256D03*
X013530Y003240D03*
X013514Y003256D03*
X013468Y003240D03*
X013453Y003256D03*
X013407Y003240D03*
X013437Y003210D03*
X013437Y003179D03*
X013407Y003148D03*
X013407Y003117D03*
X013437Y003087D03*
X013437Y003056D03*
X013376Y003056D03*
X013376Y003087D03*
X013345Y003117D03*
X013345Y003148D03*
X013315Y003179D03*
X013315Y003210D03*
X013345Y003240D03*
X013345Y003271D03*
X013315Y003302D03*
X013315Y003332D03*
X013345Y003363D03*
X013345Y003394D03*
X013315Y003424D03*
X013315Y003455D03*
X013345Y003486D03*
X013345Y003517D03*
X013315Y003547D03*
X013315Y003578D03*
X013345Y003609D03*
X013284Y003609D03*
X013253Y003578D03*
X013253Y003547D03*
X013223Y003517D03*
X013223Y003486D03*
X013253Y003455D03*
X013253Y003424D03*
X013223Y003394D03*
X013223Y003363D03*
X013253Y003332D03*
X013253Y003302D03*
X013223Y003271D03*
X013223Y003240D03*
X013253Y003210D03*
X013253Y003179D03*
X013223Y003148D03*
X013223Y003117D03*
X013253Y003087D03*
X013253Y003056D03*
X013192Y003056D03*
X013192Y003087D03*
X013161Y003117D03*
X013161Y003148D03*
X013130Y003179D03*
X013130Y003210D03*
X013100Y003240D03*
X013100Y003271D03*
X013130Y003302D03*
X013130Y003332D03*
X013100Y003363D03*
X013100Y003394D03*
X013130Y003424D03*
X013130Y003455D03*
X013100Y003486D03*
X013100Y003517D03*
X013130Y003547D03*
X013130Y003578D03*
X013100Y003609D03*
X013069Y003578D03*
X013069Y003547D03*
X013038Y003517D03*
X013038Y003486D03*
X013069Y003455D03*
X013069Y003424D03*
X013038Y003394D03*
X013038Y003363D03*
X013069Y003332D03*
X013069Y003302D03*
X013038Y003271D03*
X013038Y003240D03*
X013008Y003210D03*
X013008Y003179D03*
X013038Y003148D03*
X013038Y003117D03*
X013008Y003087D03*
X013008Y003056D03*
X013069Y003056D03*
X013069Y003087D03*
X013100Y003117D03*
X013100Y003148D03*
X013069Y003179D03*
X013069Y003210D03*
X013161Y003240D03*
X013161Y003271D03*
X013192Y003302D03*
X013192Y003332D03*
X013161Y003363D03*
X013161Y003394D03*
X013192Y003424D03*
X013192Y003455D03*
X013161Y003486D03*
X013161Y003517D03*
X013192Y003547D03*
X013192Y003578D03*
X013223Y003609D03*
X013161Y003609D03*
X013284Y003517D03*
X013284Y003486D03*
X013284Y003394D03*
X013284Y003363D03*
X013284Y003271D03*
X013284Y003240D03*
X013284Y003148D03*
X013284Y003117D03*
X013315Y003087D03*
X013315Y003056D03*
X013376Y003179D03*
X013376Y003210D03*
X013376Y003302D03*
X013376Y003332D03*
X013376Y003424D03*
X013376Y003455D03*
X013376Y003547D03*
X013499Y003210D03*
X013499Y003179D03*
X013530Y003148D03*
X013530Y003117D03*
X013560Y003087D03*
X013560Y003056D03*
X013499Y003056D03*
X013499Y003087D03*
X013468Y003117D03*
X013468Y003148D03*
X013560Y003179D03*
X013560Y003210D03*
X013622Y003210D03*
X013622Y003179D03*
X013591Y003148D03*
X013591Y003117D03*
X013192Y003179D03*
X013192Y003210D03*
X013130Y003087D03*
X013130Y003056D03*
X012977Y003117D03*
X012977Y003148D03*
X012946Y003179D03*
X012946Y003210D03*
X012915Y003240D03*
X012900Y003256D03*
X012854Y003240D03*
X012823Y003210D03*
X012823Y003179D03*
X012793Y003148D03*
X012793Y003117D03*
X012823Y003087D03*
X012854Y003117D03*
X012854Y003148D03*
X012885Y003179D03*
X012885Y003210D03*
X012915Y003148D03*
X012915Y003117D03*
X012885Y003087D03*
X012885Y003056D03*
X012946Y003056D03*
X012946Y003087D03*
X012977Y003240D03*
X012961Y003256D03*
X012977Y002872D03*
X012977Y001797D03*
X012977Y001766D03*
X012946Y001736D03*
X012946Y001705D03*
X013223Y001674D03*
X013253Y001705D03*
X013253Y001736D03*
X013284Y001674D03*
X013253Y001490D03*
X013115Y001352D03*
X013115Y001075D03*
X014205Y001674D03*
X014635Y001674D03*
X014758Y001674D03*
X014942Y001766D03*
X014942Y001797D03*
X014911Y001828D03*
X014911Y001858D03*
X014942Y001889D03*
X014973Y001858D03*
X014973Y001828D03*
X015065Y001797D03*
X015065Y001766D03*
X015034Y001736D03*
X015188Y001889D03*
X015188Y001920D03*
X015219Y001950D03*
X015219Y001981D03*
X015249Y002012D03*
X015249Y002043D03*
X015219Y002073D03*
X015219Y002104D03*
X015249Y002135D03*
X015249Y002165D03*
X015280Y002196D03*
X015280Y002227D03*
X015311Y002258D03*
X015311Y002288D03*
X015341Y002319D03*
X015341Y002350D03*
X015311Y002380D03*
X015311Y002411D03*
X015341Y002442D03*
X015341Y002473D03*
X015311Y002503D03*
X015311Y002534D03*
X015280Y002565D03*
X015280Y002595D03*
X015188Y002626D03*
X015188Y002657D03*
X015157Y002595D03*
X015157Y002565D03*
X015188Y002534D03*
X015188Y002503D03*
X015188Y002411D03*
X015188Y002380D03*
X015188Y002288D03*
X015188Y002258D03*
X015280Y002319D03*
X015280Y002350D03*
X015280Y002442D03*
X015280Y002473D03*
X015341Y002227D03*
X015341Y002196D03*
X015311Y002165D03*
X015311Y002135D03*
X015341Y002104D03*
X015280Y002104D03*
X015280Y002073D03*
X015311Y002043D03*
X015311Y002012D03*
X015280Y001981D03*
X015280Y001950D03*
X015249Y001920D03*
X015157Y001950D03*
X015157Y001981D03*
X015188Y002012D03*
X015188Y002043D03*
X015004Y002657D03*
X015126Y003240D03*
X015111Y003256D03*
D45*
X014950Y003025D03*
X014950Y002995D03*
X015303Y002626D03*
X015165Y002473D03*
X015334Y002073D03*
X015211Y001858D03*
X013368Y003578D03*
X012616Y002657D03*
X012585Y002595D03*
X012585Y002073D03*
X013107Y001336D03*
X013107Y001091D03*
D46*
X012416Y001152D03*
X011756Y001290D03*
X011756Y001306D03*
X011249Y001474D03*
X012677Y002089D03*
X012677Y002549D03*
X012693Y002580D03*
X014581Y001459D03*
X015027Y002949D03*
D47*
X017053Y001260D03*
X017053Y001229D03*
X017053Y001198D03*
D48*
X013138Y001367D03*
D49*
X011756Y001474D03*
X011756Y001490D03*
D50*
X013960Y001689D03*
D51*
X013960Y001720D03*
D52*
X013960Y001751D03*
D53*
X013944Y001782D03*
X013944Y003133D03*
D54*
X013960Y001812D03*
D55*
X013960Y001843D03*
D56*
X013960Y001874D03*
D57*
X015042Y003041D03*
X015257Y002488D03*
X015257Y002119D03*
X014720Y004269D03*
X012647Y002426D03*
X012647Y002304D03*
X012662Y002119D03*
D58*
X014735Y002703D03*
D59*
X012946Y002734D03*
X012915Y002703D03*
D60*
X014766Y002734D03*
D61*
X014804Y002764D03*
D62*
X012961Y002764D03*
D63*
X014819Y002795D03*
D64*
X012977Y002795D03*
D65*
X014858Y002826D03*
D66*
X013967Y003071D03*
X013952Y003102D03*
D67*
X013952Y003163D03*
X013952Y003194D03*
D68*
X013960Y003225D03*
M02*
