%
M48
M72
T01C0.0236
T02C0.0320
T03C0.0354
T04C0.0400
T05C0.0440
T06C0.0571
T07C0.1260
%
T01
X3310Y7862
X4614Y10470
X1636Y13300
X7370Y14604
X13152Y15785
X15490Y16646
X13423Y12242
X17065Y8452
X14875Y7911
X14555Y6312
X17630Y4761
X18738Y11602
X8649Y7911
T02
X22691Y11823
X23691Y11823
X23716Y15145
X22716Y15145
T03
X20977Y15145
X20977Y14145
X20928Y11823
X20928Y10823
T04
X22716Y9034
X23716Y9034
X23716Y8034
X22716Y8034
X22716Y7034
X23716Y7034
T05
X23167Y4826
X23167Y3826
T06
X13374Y4097
X13374Y6066
X13374Y8034
X4318Y16892
X3137Y16892
X3137Y18073
X4318Y18073
X8649Y18073
T07
X2153Y2129
X11799Y13940
X23019Y17680
X23019Y2129
M30
