%
M48
M72
T01C0.0197
T02C0.0236
T03C0.0354
T04C0.0400
T05C0.0440
T06C0.0512
T07C0.1083
T08C0.1181
T09C0.1260
%
T01
X32750Y9820
X32750Y19466
X32750Y23009
T02
X34177Y24633
X38409Y27684
X31765Y28914
X38015Y34377
X32503Y35952
X23842Y35952
X16755Y32802
X14196Y30834
X12326Y26700
X7946Y23403
X6962Y22221
X4206Y22221
X4354Y19810
X2582Y18235
X4255Y26109
X6027Y26700
X7011Y29357
X8586Y32113
X5929Y33196
X2189Y34771
X18675Y20524
X19511Y22271
X20496Y23058
X19118Y26109
X21677Y27881
X23547Y24633
X24187Y21385
X26795Y18432
X27681Y17546
X30535Y18826
X27631Y20351
X23547Y18137
X22218Y16021
X18872Y17103
X16165Y16464
X13261Y14840
X15230Y11198
X17297Y12379
X21086Y2487
X29354Y2487
X32897Y7408
X32405Y7901
X29895Y10410
X31076Y11690
X34669Y13216
X31372Y15725
X35456Y18235
X38409Y20991
X38409Y12330
X38409Y5243
X11637Y2487
X4157Y2487
T03
X24811Y34271
X25811Y34271
X26811Y34271
X26811Y35271
X25811Y35271
X24811Y35271
T04
X22712Y35271
X21712Y35271
X20712Y35271
X19712Y35271
X18712Y35271
X17712Y35271
X16712Y35271
X15712Y35271
X14712Y35271
X13712Y35271
X12712Y35271
X11712Y35271
X10712Y35271
X9712Y35271
X8712Y35271
X7712Y35271
X6712Y35271
X5712Y35271
X4712Y35271
X3712Y35271
X3712Y34271
X4712Y34271
X5712Y34271
X6712Y34271
X7712Y34271
X8712Y34271
X9712Y34271
X10712Y34271
X11712Y34271
X12712Y34271
X13712Y34271
X14712Y34271
X15712Y34271
X16712Y34271
X17712Y34271
X18712Y34271
X19712Y34271
X20712Y34271
X21712Y34271
X22712Y34271
X1450Y33176
T05
X29929Y31227
X30929Y31227
X38311Y31424
X38311Y30424
T06
X31322Y27290
X30141Y27684
X29354Y28078
X25417Y29653
X24629Y29259
X24629Y28078
X23448Y28078
X14236Y20440
X12740Y17842
X17543Y5243
X21086Y4849
X30929Y13511
X33685Y14692
X33685Y16660
X33685Y18629
X36047Y20794
X28960Y17448
X36047Y12527
T07
X1401Y2487
X15968Y9180
X19905Y19219
X27779Y13117
X38409Y19219
X38409Y2487
X12031Y24928
X1401Y35952
X38409Y35952
T08
X34954Y33958
X33104Y32816
X34954Y31635
T09
X3763Y29653
M30
