G75*
%MOIN*%
%OFA0B0*%
%FSLAX24Y24*%
%IPPOS*%
%LPD*%
%AMOC8*
5,1,8,0,0,1.08239X$1,22.5*
%
%ADD10C,0.1890*%
%ADD11C,0.0640*%
%ADD12C,0.3937*%
%ADD13OC8,0.0760*%
%ADD14C,0.0740*%
%ADD15C,0.0768*%
%ADD16OC8,0.0600*%
%ADD17C,0.0160*%
%ADD18C,0.0354*%
%ADD19C,0.0297*%
%ADD20C,0.0320*%
%ADD21C,0.0120*%
%ADD22C,0.0240*%
D10*
X034954Y031635D03*
X033104Y032816D03*
X034954Y033958D03*
D11*
X026811Y034271D03*
X026811Y035271D03*
X025811Y035271D03*
X024811Y035271D03*
X024811Y034271D03*
X025811Y034271D03*
D12*
X003763Y029653D03*
D13*
X001450Y033176D03*
D14*
X029929Y031597D02*
X029929Y030857D01*
X030929Y030857D02*
X030929Y031597D01*
X037941Y031424D02*
X038681Y031424D01*
X038681Y030424D02*
X037941Y030424D01*
D15*
X032090Y027290D02*
X031322Y027290D01*
X030141Y026916D02*
X030141Y027684D01*
X029354Y028078D02*
X028586Y028078D01*
X026185Y029653D02*
X025417Y029653D01*
X024629Y029259D02*
X023862Y029259D01*
X023448Y028078D02*
X022681Y028078D01*
X024629Y028078D02*
X025397Y028078D01*
X015003Y020440D02*
X014236Y020440D01*
X013507Y017842D02*
X012740Y017842D01*
X017543Y005243D02*
X018311Y005243D01*
X021086Y004849D02*
X021854Y004849D01*
X030929Y013511D02*
X031696Y013511D01*
X033685Y014692D02*
X034452Y014692D01*
X034452Y016660D02*
X033685Y016660D01*
X033685Y018629D02*
X034452Y018629D01*
X036047Y020794D02*
X036814Y020794D01*
X029728Y017448D02*
X028960Y017448D01*
X036047Y012527D02*
X036814Y012527D01*
D16*
X022712Y034271D03*
X022712Y035271D03*
X021712Y035271D03*
X020712Y035271D03*
X019712Y035271D03*
X018712Y035271D03*
X017712Y035271D03*
X016712Y035271D03*
X015712Y035271D03*
X014712Y035271D03*
X013712Y035271D03*
X012712Y035271D03*
X011712Y035271D03*
X010712Y035271D03*
X009712Y035271D03*
X008712Y035271D03*
X007712Y035271D03*
X006712Y035271D03*
X005712Y035271D03*
X004712Y035271D03*
X003712Y035271D03*
X003712Y034271D03*
X004712Y034271D03*
X005712Y034271D03*
X006712Y034271D03*
X007712Y034271D03*
X008712Y034271D03*
X009712Y034271D03*
X010712Y034271D03*
X011712Y034271D03*
X012712Y034271D03*
X013712Y034271D03*
X014712Y034271D03*
X015712Y034271D03*
X016712Y034271D03*
X017712Y034271D03*
X018712Y034271D03*
X019712Y034271D03*
X020712Y034271D03*
X021712Y034271D03*
D17*
X000530Y036823D02*
X000530Y001616D01*
X039280Y001616D01*
X039280Y036823D01*
X000530Y036823D01*
X000530Y036810D02*
X039280Y036810D01*
X039280Y036652D02*
X038735Y036652D01*
X038846Y036606D02*
X038562Y036723D01*
X038256Y036723D01*
X037972Y036606D01*
X037755Y036389D01*
X037638Y036105D01*
X037638Y035798D01*
X037755Y035515D01*
X037972Y035298D01*
X038256Y035180D01*
X038562Y035180D01*
X038846Y035298D01*
X039063Y035515D01*
X039180Y035798D01*
X039180Y036105D01*
X039063Y036389D01*
X038846Y036606D01*
X038958Y036493D02*
X039280Y036493D01*
X039280Y036335D02*
X039085Y036335D01*
X039151Y036176D02*
X039280Y036176D01*
X039280Y036018D02*
X039180Y036018D01*
X039180Y035859D02*
X039280Y035859D01*
X039280Y035701D02*
X039140Y035701D01*
X039074Y035542D02*
X039280Y035542D01*
X039280Y035384D02*
X038932Y035384D01*
X038670Y035225D02*
X039280Y035225D01*
X039280Y035067D02*
X035151Y035067D01*
X035143Y035068D02*
X035034Y035081D01*
X035034Y034038D01*
X034874Y034038D01*
X034874Y035081D01*
X034766Y035068D01*
X034642Y035040D01*
X034523Y034999D01*
X034409Y034944D01*
X034302Y034877D01*
X034204Y034798D01*
X034114Y034708D01*
X034035Y034610D01*
X033968Y034503D01*
X033913Y034389D01*
X033872Y034270D01*
X033844Y034146D01*
X033831Y034038D01*
X034874Y034038D01*
X034874Y033878D01*
X033831Y033878D01*
X033844Y033769D01*
X033872Y033646D01*
X033906Y033548D01*
X033770Y033684D01*
X033523Y033827D01*
X033247Y033901D01*
X032961Y033901D01*
X032685Y033827D01*
X032438Y033684D01*
X032236Y033482D01*
X032093Y033235D01*
X032019Y032959D01*
X032019Y032673D01*
X032093Y032397D01*
X032236Y032150D01*
X032438Y031948D01*
X032685Y031805D01*
X032961Y031731D01*
X033247Y031731D01*
X033523Y031805D01*
X033770Y031948D01*
X033972Y032150D01*
X034115Y032397D01*
X034189Y032673D01*
X034189Y032959D01*
X034125Y033196D01*
X034204Y033118D01*
X034302Y033039D01*
X034409Y032972D01*
X034523Y032917D01*
X034642Y032875D01*
X034766Y032847D01*
X034874Y032835D01*
X034874Y033878D01*
X035034Y033878D01*
X035034Y034038D01*
X036077Y034038D01*
X036065Y034146D01*
X036037Y034270D01*
X035995Y034389D01*
X035940Y034503D01*
X035873Y034610D01*
X035794Y034708D01*
X035705Y034798D01*
X035606Y034877D01*
X035499Y034944D01*
X035385Y034999D01*
X035266Y035040D01*
X035143Y035068D01*
X035034Y035067D02*
X034874Y035067D01*
X034758Y035067D02*
X027224Y035067D01*
X027201Y035010D02*
X027271Y035179D01*
X027271Y035362D01*
X027201Y035531D01*
X027071Y035661D01*
X026902Y035731D01*
X026719Y035731D01*
X026550Y035661D01*
X026421Y035531D01*
X026351Y035362D01*
X026351Y035179D01*
X026421Y035010D01*
X026550Y034881D01*
X026719Y034811D01*
X026902Y034811D01*
X027071Y034881D01*
X027201Y035010D01*
X027099Y034908D02*
X034353Y034908D01*
X034155Y034750D02*
X024954Y034750D01*
X024928Y034758D02*
X024850Y034771D01*
X024819Y034771D01*
X024819Y034279D01*
X025311Y034279D01*
X025311Y034310D01*
X025298Y034388D01*
X025274Y034463D01*
X025238Y034533D01*
X025192Y034596D01*
X025136Y034652D01*
X025073Y034698D01*
X025002Y034734D01*
X024928Y034758D01*
X024902Y034811D02*
X025071Y034881D01*
X025201Y035010D01*
X025271Y035179D01*
X025271Y035362D01*
X025201Y035531D01*
X025071Y035661D01*
X024902Y035731D01*
X024719Y035731D01*
X024550Y035661D01*
X024421Y035531D01*
X024351Y035362D01*
X024351Y035179D01*
X024421Y035010D01*
X024550Y034881D01*
X024719Y034811D01*
X024902Y034811D01*
X024819Y034750D02*
X024802Y034750D01*
X024802Y034771D02*
X024771Y034771D01*
X024693Y034758D01*
X024619Y034734D01*
X024548Y034698D01*
X024485Y034652D01*
X024429Y034596D01*
X024383Y034533D01*
X024347Y034463D01*
X024323Y034388D01*
X024311Y034310D01*
X024311Y034279D01*
X024802Y034279D01*
X024802Y034262D01*
X024819Y034262D01*
X024819Y033771D01*
X024850Y033771D01*
X024928Y033783D01*
X025002Y033807D01*
X025073Y033843D01*
X025136Y033889D01*
X025192Y033945D01*
X025238Y034009D01*
X025274Y034079D01*
X025298Y034154D01*
X025311Y034231D01*
X025311Y034262D01*
X024819Y034262D01*
X024819Y034279D01*
X024802Y034279D01*
X024802Y034771D01*
X024667Y034750D02*
X022912Y034750D01*
X022911Y034751D02*
X022732Y034751D01*
X022732Y034291D01*
X022692Y034291D01*
X022692Y034751D01*
X022513Y034751D01*
X022232Y034469D01*
X022232Y034291D01*
X022692Y034291D01*
X022692Y034251D01*
X022232Y034251D01*
X022232Y034072D01*
X022513Y033791D01*
X022692Y033791D01*
X022692Y034251D01*
X022732Y034251D01*
X022732Y034291D01*
X023192Y034291D01*
X023192Y034469D01*
X022911Y034751D01*
X022894Y034831D02*
X023152Y035088D01*
X023152Y035453D01*
X022894Y035711D01*
X022530Y035711D01*
X022272Y035453D01*
X022272Y035088D01*
X022530Y034831D01*
X022894Y034831D01*
X022972Y034908D02*
X024523Y034908D01*
X024397Y035067D02*
X023130Y035067D01*
X023152Y035225D02*
X024351Y035225D01*
X024359Y035384D02*
X023152Y035384D01*
X023063Y035542D02*
X024431Y035542D01*
X024647Y035701D02*
X022904Y035701D01*
X022520Y035701D02*
X021904Y035701D01*
X021894Y035711D02*
X021530Y035711D01*
X021272Y035453D01*
X021272Y035088D01*
X021530Y034831D01*
X021894Y034831D01*
X022152Y035088D01*
X022152Y035453D01*
X021894Y035711D01*
X022063Y035542D02*
X022361Y035542D01*
X022272Y035384D02*
X022152Y035384D01*
X022152Y035225D02*
X022272Y035225D01*
X022294Y035067D02*
X022130Y035067D01*
X021972Y034908D02*
X022452Y034908D01*
X022512Y034750D02*
X018452Y034750D01*
X018530Y034711D02*
X018452Y034633D01*
X018452Y034909D01*
X018530Y034831D01*
X018894Y034831D01*
X019152Y035088D01*
X019152Y035453D01*
X018894Y035711D01*
X018530Y035711D01*
X018452Y035633D01*
X018452Y035846D01*
X018323Y035975D01*
X018028Y036270D01*
X004853Y036270D01*
X004724Y036141D01*
X004492Y035909D01*
X004492Y035673D01*
X004272Y035453D01*
X004272Y035088D01*
X004530Y034831D01*
X004894Y034831D01*
X005152Y035088D01*
X005152Y035453D01*
X004932Y035673D01*
X004932Y035727D01*
X005036Y035830D01*
X017845Y035830D01*
X018012Y035664D01*
X018012Y035650D01*
X017911Y035751D01*
X017732Y035751D01*
X017732Y035291D01*
X017692Y035291D01*
X017692Y035751D01*
X017513Y035751D01*
X017232Y035469D01*
X017232Y035291D01*
X017692Y035291D01*
X017692Y035251D01*
X017232Y035251D01*
X017232Y035072D01*
X017513Y034791D01*
X017692Y034791D01*
X017692Y035251D01*
X017732Y035251D01*
X017732Y034791D01*
X017911Y034791D01*
X018012Y034892D01*
X018012Y034593D01*
X017894Y034711D01*
X017530Y034711D01*
X017272Y034453D01*
X017272Y034088D01*
X017530Y033831D01*
X017894Y033831D01*
X018012Y033948D01*
X018012Y023361D01*
X018141Y023232D01*
X018534Y022838D01*
X020267Y022838D01*
X020316Y022789D01*
X020433Y022741D01*
X020559Y022741D01*
X020675Y022789D01*
X020764Y022878D01*
X020813Y022995D01*
X020813Y023121D01*
X020764Y023238D01*
X020675Y023327D01*
X020559Y023375D01*
X020433Y023375D01*
X020316Y023327D01*
X020267Y023278D01*
X018717Y023278D01*
X018452Y023543D01*
X018452Y033909D01*
X018530Y033831D01*
X018894Y033831D01*
X019152Y034088D01*
X019152Y034453D01*
X018894Y034711D01*
X018530Y034711D01*
X018452Y034908D02*
X018452Y034908D01*
X018012Y034750D02*
X015912Y034750D01*
X015911Y034751D02*
X015732Y034751D01*
X015732Y034291D01*
X015692Y034291D01*
X015692Y034751D01*
X015513Y034751D01*
X015232Y034469D01*
X015232Y034291D01*
X015692Y034291D01*
X015692Y034251D01*
X015232Y034251D01*
X015232Y034072D01*
X015513Y033791D01*
X015692Y033791D01*
X015692Y034251D01*
X015732Y034251D01*
X015732Y034291D01*
X016192Y034291D01*
X016192Y034469D01*
X015911Y034751D01*
X015894Y034831D02*
X016152Y035088D01*
X016152Y035453D01*
X015894Y035711D01*
X015530Y035711D01*
X015272Y035453D01*
X015272Y035088D01*
X015530Y034831D01*
X015894Y034831D01*
X015972Y034908D02*
X016452Y034908D01*
X016530Y034831D02*
X016894Y034831D01*
X017152Y035088D01*
X017152Y035453D01*
X016894Y035711D01*
X016530Y035711D01*
X016272Y035453D01*
X016272Y035088D01*
X016530Y034831D01*
X016530Y034711D02*
X016272Y034453D01*
X016272Y034088D01*
X016530Y033831D01*
X016894Y033831D01*
X017152Y034088D01*
X017152Y034453D01*
X016894Y034711D01*
X016530Y034711D01*
X016410Y034591D02*
X016070Y034591D01*
X016192Y034433D02*
X016272Y034433D01*
X016272Y034274D02*
X015732Y034274D01*
X015732Y034251D02*
X016192Y034251D01*
X016192Y034072D01*
X015911Y033791D01*
X015732Y033791D01*
X015732Y034251D01*
X015692Y034274D02*
X015152Y034274D01*
X015152Y034116D02*
X015232Y034116D01*
X015152Y034088D02*
X014894Y033831D01*
X014530Y033831D01*
X014272Y034088D01*
X014272Y034453D01*
X014530Y034711D01*
X014894Y034711D01*
X015152Y034453D01*
X015152Y034088D01*
X015021Y033957D02*
X015347Y033957D01*
X015505Y033799D02*
X012495Y033799D01*
X012530Y033831D02*
X012894Y033831D01*
X013152Y034088D01*
X013152Y034453D01*
X012894Y034711D01*
X012530Y034711D01*
X012272Y034453D01*
X012272Y034088D01*
X012530Y033831D01*
X012546Y033748D02*
X012152Y034142D01*
X012152Y034453D01*
X011894Y034711D01*
X011530Y034711D01*
X011272Y034453D01*
X011272Y034088D01*
X011530Y033831D01*
X011841Y033831D01*
X012106Y033565D01*
X012106Y032500D01*
X011940Y032333D01*
X008815Y032333D01*
X008766Y032382D01*
X008649Y032430D01*
X008523Y032430D01*
X008406Y032382D01*
X008317Y032293D01*
X008269Y032176D01*
X008269Y032050D01*
X008317Y031934D01*
X008406Y031844D01*
X008523Y031796D01*
X008649Y031796D01*
X008766Y031844D01*
X008815Y031893D01*
X008874Y031893D01*
X011940Y031893D01*
X012122Y031893D01*
X012417Y032188D01*
X012546Y032317D01*
X012546Y033748D01*
X012546Y033640D02*
X018012Y033640D01*
X018012Y033482D02*
X012546Y033482D01*
X012546Y033323D02*
X018012Y033323D01*
X018012Y033165D02*
X012546Y033165D01*
X012546Y033006D02*
X018012Y033006D01*
X018012Y032848D02*
X012546Y032848D01*
X012546Y032689D02*
X018012Y032689D01*
X018012Y032531D02*
X012546Y032531D01*
X012546Y032372D02*
X018012Y032372D01*
X018012Y032214D02*
X012443Y032214D01*
X012284Y032055D02*
X018012Y032055D01*
X018012Y031897D02*
X012126Y031897D01*
X012031Y032113D02*
X012326Y032408D01*
X012326Y033656D01*
X011712Y034271D01*
X011410Y034591D02*
X011014Y034591D01*
X010894Y034711D02*
X011152Y034453D01*
X011152Y034088D01*
X010894Y033831D01*
X010530Y033831D01*
X010272Y034088D01*
X010272Y034453D01*
X010530Y034711D01*
X010894Y034711D01*
X010894Y034831D02*
X010530Y034831D01*
X010272Y035088D01*
X010272Y035453D01*
X010530Y035711D01*
X010894Y035711D01*
X011152Y035453D01*
X011152Y035088D01*
X010894Y034831D01*
X010972Y034908D02*
X011452Y034908D01*
X011530Y034831D02*
X011894Y034831D01*
X012152Y035088D01*
X012152Y035453D01*
X011894Y035711D01*
X011530Y035711D01*
X011272Y035453D01*
X011272Y035088D01*
X011530Y034831D01*
X011294Y035067D02*
X011130Y035067D01*
X011152Y035225D02*
X011272Y035225D01*
X011272Y035384D02*
X011152Y035384D01*
X011063Y035542D02*
X011361Y035542D01*
X011520Y035701D02*
X010904Y035701D01*
X010520Y035701D02*
X009961Y035701D01*
X009911Y035751D02*
X009732Y035751D01*
X009732Y035291D01*
X009692Y035291D01*
X009692Y035751D01*
X009513Y035751D01*
X009232Y035469D01*
X009232Y035291D01*
X009692Y035291D01*
X009692Y035251D01*
X009232Y035251D01*
X009232Y035072D01*
X009513Y034791D01*
X009692Y034791D01*
X009692Y035251D01*
X009732Y035251D01*
X009732Y035291D01*
X010192Y035291D01*
X010192Y035469D01*
X009911Y035751D01*
X009732Y035701D02*
X009692Y035701D01*
X009692Y035542D02*
X009732Y035542D01*
X009732Y035384D02*
X009692Y035384D01*
X009732Y035251D02*
X010192Y035251D01*
X010192Y035072D01*
X009911Y034791D01*
X009732Y034791D01*
X009732Y035251D01*
X009732Y035225D02*
X009692Y035225D01*
X009692Y035067D02*
X009732Y035067D01*
X009732Y034908D02*
X009692Y034908D01*
X009530Y034711D02*
X009272Y034453D01*
X009272Y034088D01*
X009530Y033831D01*
X009894Y033831D01*
X010152Y034088D01*
X010152Y034453D01*
X009894Y034711D01*
X009530Y034711D01*
X009410Y034591D02*
X009014Y034591D01*
X008894Y034711D02*
X009152Y034453D01*
X009152Y034088D01*
X008894Y033831D01*
X008530Y033831D01*
X008272Y034088D01*
X008272Y034453D01*
X008530Y034711D01*
X008894Y034711D01*
X008894Y034831D02*
X009152Y035088D01*
X009152Y035453D01*
X008894Y035711D01*
X008530Y035711D01*
X008272Y035453D01*
X008272Y035088D01*
X008530Y034831D01*
X008894Y034831D01*
X008972Y034908D02*
X009396Y034908D01*
X009237Y035067D02*
X009130Y035067D01*
X009152Y035225D02*
X009232Y035225D01*
X009232Y035384D02*
X009152Y035384D01*
X009063Y035542D02*
X009305Y035542D01*
X009463Y035701D02*
X008904Y035701D01*
X008520Y035701D02*
X007904Y035701D01*
X007894Y035711D02*
X007530Y035711D01*
X007272Y035453D01*
X007272Y035142D01*
X006988Y034858D01*
X006988Y034617D01*
X006894Y034711D01*
X006530Y034711D01*
X006375Y034556D01*
X006375Y034622D01*
X006583Y034831D01*
X006894Y034831D01*
X007152Y035088D01*
X007152Y035453D01*
X006894Y035711D01*
X006530Y035711D01*
X006272Y035453D01*
X006272Y035142D01*
X006053Y034923D01*
X006053Y034895D01*
X005975Y034816D01*
X005975Y034630D01*
X005894Y034711D01*
X005530Y034711D01*
X005272Y034453D01*
X005272Y034088D01*
X005530Y033831D01*
X005894Y033831D01*
X005975Y033911D01*
X005975Y033753D01*
X006053Y033674D01*
X006053Y033646D01*
X006791Y032908D01*
X006791Y029916D01*
X006744Y030333D01*
X006518Y030979D01*
X006518Y030979D01*
X006154Y031559D01*
X006154Y031559D01*
X005670Y032043D01*
X005670Y032043D01*
X005090Y032408D01*
X004444Y032634D01*
X004444Y032634D01*
X003763Y032710D01*
X003083Y032634D01*
X003083Y032634D01*
X002437Y032408D01*
X001857Y032043D01*
X001857Y032043D01*
X001373Y031559D01*
X001008Y030979D01*
X000782Y030333D01*
X000706Y029653D01*
X000782Y028972D01*
X001008Y028326D01*
X001373Y027746D01*
X001857Y027262D01*
X002010Y027166D01*
X002010Y018512D01*
X001959Y018512D01*
X001912Y018465D01*
X001912Y017218D01*
X001959Y017171D01*
X012852Y017171D01*
X012898Y017218D01*
X012898Y017318D01*
X013612Y017318D01*
X013804Y017397D01*
X013952Y017545D01*
X014031Y017737D01*
X014031Y017946D01*
X013952Y018138D01*
X013804Y018286D01*
X013612Y018365D01*
X012898Y018365D01*
X012898Y018465D01*
X012852Y018512D01*
X003154Y018512D01*
X003154Y026663D01*
X003763Y026595D01*
X004444Y026671D01*
X005090Y026898D01*
X005670Y027262D01*
X006154Y027746D01*
X006154Y027746D01*
X006518Y028326D01*
X006744Y028972D01*
X006765Y029155D01*
X006832Y029088D01*
X006948Y029040D01*
X007074Y029040D01*
X007191Y029088D01*
X007280Y029178D01*
X007329Y029294D01*
X007329Y029420D01*
X007280Y029537D01*
X007231Y029586D01*
X007231Y033090D01*
X006375Y033947D01*
X006375Y033986D01*
X006530Y033831D01*
X006894Y033831D01*
X006988Y033924D01*
X006988Y033794D01*
X007117Y033665D01*
X007677Y033105D01*
X007677Y028661D01*
X006033Y027017D01*
X005964Y027017D01*
X005847Y026969D01*
X005758Y026879D01*
X005710Y026763D01*
X005710Y026637D01*
X005758Y026520D01*
X005847Y026431D01*
X005964Y026383D01*
X006090Y026383D01*
X006207Y026431D01*
X006296Y026520D01*
X006344Y026637D01*
X006344Y026706D01*
X008117Y028479D01*
X008117Y033287D01*
X007613Y033791D01*
X007692Y033791D01*
X007692Y034251D01*
X007732Y034251D01*
X007732Y034291D01*
X007692Y034291D01*
X007692Y034751D01*
X007513Y034751D01*
X007428Y034666D01*
X007428Y034676D01*
X007583Y034831D01*
X007894Y034831D01*
X008152Y035088D01*
X008152Y035453D01*
X007894Y035711D01*
X008063Y035542D02*
X008361Y035542D01*
X008272Y035384D02*
X008152Y035384D01*
X008152Y035225D02*
X008272Y035225D01*
X008294Y035067D02*
X008130Y035067D01*
X007972Y034908D02*
X008452Y034908D01*
X008410Y034591D02*
X008070Y034591D01*
X008192Y034469D02*
X007911Y034751D01*
X007732Y034751D01*
X007732Y034291D01*
X008192Y034291D01*
X008192Y034469D01*
X008192Y034433D02*
X008272Y034433D01*
X008272Y034274D02*
X007732Y034274D01*
X007732Y034251D02*
X008192Y034251D01*
X008192Y034072D01*
X007911Y033791D01*
X007732Y033791D01*
X007732Y034251D01*
X007732Y034116D02*
X007692Y034116D01*
X007692Y033957D02*
X007732Y033957D01*
X007732Y033799D02*
X007692Y033799D01*
X007764Y033640D02*
X012032Y033640D01*
X012106Y033482D02*
X007923Y033482D01*
X008081Y033323D02*
X012106Y033323D01*
X012106Y033165D02*
X008117Y033165D01*
X008117Y033006D02*
X012106Y033006D01*
X012106Y032848D02*
X008117Y032848D01*
X008117Y032689D02*
X012106Y032689D01*
X012106Y032531D02*
X008117Y032531D01*
X008117Y032372D02*
X008397Y032372D01*
X008284Y032214D02*
X008117Y032214D01*
X008117Y032055D02*
X008269Y032055D01*
X008354Y031897D02*
X008117Y031897D01*
X008117Y031738D02*
X018012Y031738D01*
X018012Y031580D02*
X008117Y031580D01*
X008117Y031421D02*
X018012Y031421D01*
X018012Y031263D02*
X008117Y031263D01*
X008117Y031104D02*
X014021Y031104D01*
X014017Y031103D02*
X013927Y031013D01*
X013879Y030897D01*
X013879Y030771D01*
X013927Y030654D01*
X013976Y030605D01*
X013976Y022165D01*
X011841Y020030D01*
X004582Y020030D01*
X004534Y020079D01*
X004417Y020127D01*
X004291Y020127D01*
X004174Y020079D01*
X004085Y019990D01*
X004037Y019873D01*
X004037Y019747D01*
X004085Y019630D01*
X004174Y019541D01*
X004291Y019493D01*
X004417Y019493D01*
X004534Y019541D01*
X004582Y019590D01*
X012024Y019590D01*
X014288Y021854D01*
X014416Y021983D01*
X014416Y030605D01*
X014465Y030654D01*
X014514Y030771D01*
X014514Y030897D01*
X014465Y031013D01*
X014376Y031103D01*
X014259Y031151D01*
X014133Y031151D01*
X014017Y031103D01*
X013899Y030946D02*
X008117Y030946D01*
X008117Y030787D02*
X013879Y030787D01*
X013953Y030629D02*
X008117Y030629D01*
X008117Y030470D02*
X013976Y030470D01*
X013976Y030312D02*
X008117Y030312D01*
X008117Y030153D02*
X013976Y030153D01*
X013976Y029995D02*
X008117Y029995D01*
X008117Y029836D02*
X013976Y029836D01*
X013976Y029678D02*
X008117Y029678D01*
X008117Y029519D02*
X013976Y029519D01*
X013976Y029361D02*
X008117Y029361D01*
X008117Y029202D02*
X013976Y029202D01*
X013976Y029044D02*
X008117Y029044D01*
X008117Y028885D02*
X013976Y028885D01*
X013976Y028727D02*
X008117Y028727D01*
X008117Y028568D02*
X013976Y028568D01*
X013976Y028410D02*
X008048Y028410D01*
X007897Y028570D02*
X006027Y026700D01*
X005735Y026825D02*
X004881Y026825D01*
X005090Y026898D02*
X005090Y026898D01*
X005226Y026983D02*
X005882Y026983D01*
X006158Y027142D02*
X005478Y027142D01*
X005708Y027300D02*
X006316Y027300D01*
X006475Y027459D02*
X005867Y027459D01*
X006025Y027617D02*
X006633Y027617D01*
X006792Y027776D02*
X006173Y027776D01*
X006272Y027934D02*
X006950Y027934D01*
X007109Y028093D02*
X006372Y028093D01*
X006471Y028251D02*
X007267Y028251D01*
X007426Y028410D02*
X006548Y028410D01*
X006518Y028326D02*
X006518Y028326D01*
X006603Y028568D02*
X007584Y028568D01*
X007677Y028727D02*
X006658Y028727D01*
X006714Y028885D02*
X007677Y028885D01*
X007677Y029044D02*
X007083Y029044D01*
X006940Y029044D02*
X006752Y029044D01*
X006744Y028972D02*
X006744Y028972D01*
X007011Y029357D02*
X007011Y032999D01*
X006273Y033737D01*
X006059Y033640D02*
X001722Y033640D01*
X001666Y033696D02*
X001235Y033696D01*
X000930Y033392D01*
X000930Y032961D01*
X001235Y032656D01*
X001666Y032656D01*
X001970Y032961D01*
X001970Y033392D01*
X001666Y033696D01*
X001880Y033482D02*
X006218Y033482D01*
X006376Y033323D02*
X001970Y033323D01*
X001970Y033165D02*
X006535Y033165D01*
X006693Y033006D02*
X001970Y033006D01*
X001857Y032848D02*
X006791Y032848D01*
X006791Y032689D02*
X003951Y032689D01*
X003763Y032710D02*
X003763Y032710D01*
X003575Y032689D02*
X001699Y032689D01*
X002128Y032214D02*
X000530Y032214D01*
X000530Y032372D02*
X002380Y032372D01*
X002437Y032408D02*
X002437Y032408D01*
X002789Y032531D02*
X000530Y032531D01*
X000530Y032689D02*
X001202Y032689D01*
X001043Y032848D02*
X000530Y032848D01*
X000530Y033006D02*
X000930Y033006D01*
X000930Y033165D02*
X000530Y033165D01*
X000530Y033323D02*
X000930Y033323D01*
X001020Y033482D02*
X000530Y033482D01*
X000530Y033640D02*
X001179Y033640D01*
X000530Y033799D02*
X005975Y033799D01*
X006375Y033957D02*
X006403Y033957D01*
X006523Y033799D02*
X006988Y033799D01*
X007142Y033640D02*
X006681Y033640D01*
X006840Y033482D02*
X007300Y033482D01*
X007459Y033323D02*
X006998Y033323D01*
X007157Y033165D02*
X007617Y033165D01*
X007677Y033006D02*
X007231Y033006D01*
X007231Y032848D02*
X007677Y032848D01*
X007677Y032689D02*
X007231Y032689D01*
X007231Y032531D02*
X007677Y032531D01*
X007677Y032372D02*
X007231Y032372D01*
X007231Y032214D02*
X007677Y032214D01*
X007677Y032055D02*
X007231Y032055D01*
X007231Y031897D02*
X007677Y031897D01*
X007677Y031738D02*
X007231Y031738D01*
X007231Y031580D02*
X007677Y031580D01*
X007677Y031421D02*
X007231Y031421D01*
X007231Y031263D02*
X007677Y031263D01*
X007677Y031104D02*
X007231Y031104D01*
X007231Y030946D02*
X007677Y030946D01*
X007677Y030787D02*
X007231Y030787D01*
X007231Y030629D02*
X007677Y030629D01*
X007677Y030470D02*
X007231Y030470D01*
X007231Y030312D02*
X007677Y030312D01*
X007677Y030153D02*
X007231Y030153D01*
X007231Y029995D02*
X007677Y029995D01*
X007677Y029836D02*
X007231Y029836D01*
X007231Y029678D02*
X007677Y029678D01*
X007677Y029519D02*
X007288Y029519D01*
X007329Y029361D02*
X007677Y029361D01*
X007677Y029202D02*
X007290Y029202D01*
X007897Y028570D02*
X007897Y033196D01*
X007208Y033885D01*
X007208Y034767D01*
X007712Y035271D01*
X007361Y035542D02*
X007063Y035542D01*
X007152Y035384D02*
X007272Y035384D01*
X007272Y035225D02*
X007152Y035225D01*
X007130Y035067D02*
X007197Y035067D01*
X007038Y034908D02*
X006972Y034908D01*
X006988Y034750D02*
X006502Y034750D01*
X006410Y034591D02*
X006375Y034591D01*
X006273Y034832D02*
X006712Y035271D01*
X006272Y035225D02*
X006192Y035225D01*
X006192Y035251D02*
X005732Y035251D01*
X005732Y035291D01*
X005692Y035291D01*
X005692Y035751D01*
X005513Y035751D01*
X005232Y035469D01*
X005232Y035291D01*
X005692Y035291D01*
X005692Y035251D01*
X005232Y035251D01*
X005232Y035072D01*
X005513Y034791D01*
X005692Y034791D01*
X005692Y035251D01*
X005732Y035251D01*
X005732Y034791D01*
X005911Y034791D01*
X006192Y035072D01*
X006192Y035251D01*
X006192Y035291D02*
X006192Y035469D01*
X005911Y035751D01*
X005732Y035751D01*
X005732Y035291D01*
X006192Y035291D01*
X006192Y035384D02*
X006272Y035384D01*
X006361Y035542D02*
X006119Y035542D01*
X005961Y035701D02*
X006520Y035701D01*
X006904Y035701D02*
X007520Y035701D01*
X007502Y034750D02*
X007512Y034750D01*
X007692Y034750D02*
X007732Y034750D01*
X007732Y034591D02*
X007692Y034591D01*
X007692Y034433D02*
X007732Y034433D01*
X007912Y034750D02*
X015512Y034750D01*
X015452Y034908D02*
X014972Y034908D01*
X014894Y034831D02*
X015152Y035088D01*
X015152Y035453D01*
X014894Y035711D01*
X014530Y035711D01*
X014272Y035453D01*
X014272Y035088D01*
X014530Y034831D01*
X014894Y034831D01*
X015014Y034591D02*
X015354Y034591D01*
X015232Y034433D02*
X015152Y034433D01*
X015692Y034433D02*
X015732Y034433D01*
X015732Y034591D02*
X015692Y034591D01*
X015692Y034750D02*
X015732Y034750D01*
X016130Y035067D02*
X016294Y035067D01*
X016272Y035225D02*
X016152Y035225D01*
X016152Y035384D02*
X016272Y035384D01*
X016361Y035542D02*
X016063Y035542D01*
X015904Y035701D02*
X016520Y035701D01*
X016904Y035701D02*
X017463Y035701D01*
X017305Y035542D02*
X017063Y035542D01*
X017152Y035384D02*
X017232Y035384D01*
X017232Y035225D02*
X017152Y035225D01*
X017130Y035067D02*
X017237Y035067D01*
X017396Y034908D02*
X016972Y034908D01*
X017014Y034591D02*
X017410Y034591D01*
X017272Y034433D02*
X017152Y034433D01*
X017152Y034274D02*
X017272Y034274D01*
X017272Y034116D02*
X017152Y034116D01*
X017021Y033957D02*
X017403Y033957D01*
X018012Y033799D02*
X015919Y033799D01*
X015732Y033799D02*
X015692Y033799D01*
X015692Y033957D02*
X015732Y033957D01*
X015732Y034116D02*
X015692Y034116D01*
X016077Y033957D02*
X016403Y033957D01*
X016272Y034116D02*
X016192Y034116D01*
X015294Y035067D02*
X015130Y035067D01*
X015152Y035225D02*
X015272Y035225D01*
X015272Y035384D02*
X015152Y035384D01*
X015063Y035542D02*
X015361Y035542D01*
X015520Y035701D02*
X014904Y035701D01*
X014520Y035701D02*
X013904Y035701D01*
X013894Y035711D02*
X013530Y035711D01*
X013272Y035453D01*
X013272Y035088D01*
X013530Y034831D01*
X013894Y034831D01*
X014152Y035088D01*
X014152Y035453D01*
X013894Y035711D01*
X014063Y035542D02*
X014361Y035542D01*
X014272Y035384D02*
X014152Y035384D01*
X014152Y035225D02*
X014272Y035225D01*
X014294Y035067D02*
X014130Y035067D01*
X013972Y034908D02*
X014452Y034908D01*
X014410Y034591D02*
X014014Y034591D01*
X013894Y034711D02*
X013530Y034711D01*
X013272Y034453D01*
X013272Y034088D01*
X013530Y033831D01*
X013894Y033831D01*
X014152Y034088D01*
X014152Y034453D01*
X013894Y034711D01*
X014152Y034433D02*
X014272Y034433D01*
X014272Y034274D02*
X014152Y034274D01*
X014152Y034116D02*
X014272Y034116D01*
X014403Y033957D02*
X014021Y033957D01*
X013403Y033957D02*
X013021Y033957D01*
X013152Y034116D02*
X013272Y034116D01*
X013272Y034274D02*
X013152Y034274D01*
X013152Y034433D02*
X013272Y034433D01*
X013410Y034591D02*
X013014Y034591D01*
X012911Y034791D02*
X013192Y035072D01*
X013192Y035251D01*
X012732Y035251D01*
X012732Y035291D01*
X012692Y035291D01*
X012692Y035751D01*
X012513Y035751D01*
X012232Y035469D01*
X012232Y035291D01*
X012692Y035291D01*
X012692Y035251D01*
X012232Y035251D01*
X012232Y035072D01*
X012513Y034791D01*
X012692Y034791D01*
X012692Y035251D01*
X012732Y035251D01*
X012732Y034791D01*
X012911Y034791D01*
X013028Y034908D02*
X013452Y034908D01*
X013294Y035067D02*
X013187Y035067D01*
X013192Y035225D02*
X013272Y035225D01*
X013192Y035291D02*
X013192Y035469D01*
X012911Y035751D01*
X012732Y035751D01*
X012732Y035291D01*
X013192Y035291D01*
X013192Y035384D02*
X013272Y035384D01*
X013361Y035542D02*
X013119Y035542D01*
X012961Y035701D02*
X013520Y035701D01*
X012732Y035701D02*
X012692Y035701D01*
X012692Y035542D02*
X012732Y035542D01*
X012732Y035384D02*
X012692Y035384D01*
X012692Y035225D02*
X012732Y035225D01*
X012732Y035067D02*
X012692Y035067D01*
X012692Y034908D02*
X012732Y034908D01*
X012396Y034908D02*
X011972Y034908D01*
X012130Y035067D02*
X012237Y035067D01*
X012232Y035225D02*
X012152Y035225D01*
X012152Y035384D02*
X012232Y035384D01*
X012305Y035542D02*
X012063Y035542D01*
X011904Y035701D02*
X012463Y035701D01*
X012410Y034591D02*
X012014Y034591D01*
X012152Y034433D02*
X012272Y034433D01*
X012272Y034274D02*
X012152Y034274D01*
X012178Y034116D02*
X012272Y034116D01*
X012337Y033957D02*
X012403Y033957D01*
X011873Y033799D02*
X007919Y033799D01*
X008077Y033957D02*
X008403Y033957D01*
X008272Y034116D02*
X008192Y034116D01*
X009021Y033957D02*
X009403Y033957D01*
X009272Y034116D02*
X009152Y034116D01*
X009152Y034274D02*
X009272Y034274D01*
X009272Y034433D02*
X009152Y034433D01*
X010014Y034591D02*
X010410Y034591D01*
X010272Y034433D02*
X010152Y034433D01*
X010152Y034274D02*
X010272Y034274D01*
X010272Y034116D02*
X010152Y034116D01*
X010021Y033957D02*
X010403Y033957D01*
X011021Y033957D02*
X011403Y033957D01*
X011272Y034116D02*
X011152Y034116D01*
X011152Y034274D02*
X011272Y034274D01*
X011272Y034433D02*
X011152Y034433D01*
X010452Y034908D02*
X010028Y034908D01*
X010187Y035067D02*
X010294Y035067D01*
X010272Y035225D02*
X010192Y035225D01*
X010192Y035384D02*
X010272Y035384D01*
X010361Y035542D02*
X010119Y035542D01*
X006791Y032531D02*
X004738Y032531D01*
X005090Y032408D02*
X005090Y032408D01*
X005146Y032372D02*
X006791Y032372D01*
X006791Y032214D02*
X005399Y032214D01*
X005651Y032055D02*
X006791Y032055D01*
X006791Y031897D02*
X005816Y031897D01*
X005975Y031738D02*
X006791Y031738D01*
X006791Y031580D02*
X006133Y031580D01*
X006241Y031421D02*
X006791Y031421D01*
X006791Y031263D02*
X006340Y031263D01*
X006440Y031104D02*
X006791Y031104D01*
X006791Y030946D02*
X006530Y030946D01*
X006585Y030787D02*
X006791Y030787D01*
X006791Y030629D02*
X006641Y030629D01*
X006696Y030470D02*
X006791Y030470D01*
X006744Y030333D02*
X006744Y030333D01*
X006747Y030312D02*
X006791Y030312D01*
X006791Y030153D02*
X006765Y030153D01*
X006783Y029995D02*
X006791Y029995D01*
X007890Y028251D02*
X013976Y028251D01*
X013976Y028093D02*
X007731Y028093D01*
X007573Y027934D02*
X013976Y027934D01*
X013976Y027776D02*
X007414Y027776D01*
X007256Y027617D02*
X013976Y027617D01*
X013976Y027459D02*
X007097Y027459D01*
X006939Y027300D02*
X013976Y027300D01*
X013976Y027142D02*
X006780Y027142D01*
X006622Y026983D02*
X012182Y026983D01*
X012147Y026969D02*
X012263Y027017D01*
X012389Y027017D01*
X012506Y026969D01*
X012595Y026879D01*
X012643Y026763D01*
X012643Y026637D01*
X012595Y026520D01*
X012506Y026431D01*
X012389Y026383D01*
X012320Y026383D01*
X011827Y025889D01*
X004484Y025889D01*
X004435Y025840D01*
X004319Y025792D01*
X004192Y025792D01*
X004076Y025840D01*
X003987Y025930D01*
X003938Y026046D01*
X003938Y026172D01*
X003987Y026289D01*
X004076Y026378D01*
X004192Y026426D01*
X004319Y026426D01*
X004435Y026378D01*
X004484Y026329D01*
X011645Y026329D01*
X012009Y026694D01*
X012009Y026763D01*
X012057Y026879D01*
X012147Y026969D01*
X012035Y026825D02*
X006463Y026825D01*
X006344Y026666D02*
X011982Y026666D01*
X011823Y026508D02*
X006283Y026508D01*
X005771Y026508D02*
X003154Y026508D01*
X003154Y026349D02*
X004047Y026349D01*
X003946Y026191D02*
X003154Y026191D01*
X003154Y026032D02*
X003944Y026032D01*
X004043Y025874D02*
X003154Y025874D01*
X003154Y025715D02*
X013976Y025715D01*
X013976Y025557D02*
X012493Y025557D01*
X012468Y025582D02*
X012184Y025699D01*
X011878Y025699D01*
X011594Y025582D01*
X011377Y025365D01*
X011260Y025082D01*
X011260Y024775D01*
X011377Y024491D01*
X011594Y024274D01*
X011878Y024157D01*
X012184Y024157D01*
X012468Y024274D01*
X012685Y024491D01*
X012802Y024775D01*
X012802Y025082D01*
X012685Y025365D01*
X012468Y025582D01*
X012652Y025398D02*
X013976Y025398D01*
X013976Y025240D02*
X012737Y025240D01*
X012802Y025081D02*
X013976Y025081D01*
X013976Y024923D02*
X012802Y024923D01*
X012798Y024764D02*
X013976Y024764D01*
X013976Y024606D02*
X012732Y024606D01*
X012641Y024447D02*
X013976Y024447D01*
X013976Y024289D02*
X012482Y024289D01*
X011580Y024289D02*
X003154Y024289D01*
X003154Y024447D02*
X011421Y024447D01*
X011330Y024606D02*
X003154Y024606D01*
X003154Y024764D02*
X011264Y024764D01*
X011260Y024923D02*
X003154Y024923D01*
X003154Y025081D02*
X011260Y025081D01*
X011325Y025240D02*
X003154Y025240D01*
X003154Y025398D02*
X011410Y025398D01*
X011569Y025557D02*
X003154Y025557D01*
X002010Y025557D02*
X000530Y025557D01*
X000530Y025715D02*
X002010Y025715D01*
X002010Y025874D02*
X000530Y025874D01*
X000530Y026032D02*
X002010Y026032D01*
X002010Y026191D02*
X000530Y026191D01*
X000530Y026349D02*
X002010Y026349D01*
X002010Y026508D02*
X000530Y026508D01*
X000530Y026666D02*
X002010Y026666D01*
X002010Y026825D02*
X000530Y026825D01*
X000530Y026983D02*
X002010Y026983D01*
X002010Y027142D02*
X000530Y027142D01*
X000530Y027300D02*
X001819Y027300D01*
X001857Y027262D02*
X001857Y027262D01*
X001660Y027459D02*
X000530Y027459D01*
X000530Y027617D02*
X001502Y027617D01*
X001373Y027746D02*
X001373Y027746D01*
X001373Y027746D01*
X001354Y027776D02*
X000530Y027776D01*
X000530Y027934D02*
X001254Y027934D01*
X001155Y028093D02*
X000530Y028093D01*
X000530Y028251D02*
X001055Y028251D01*
X001008Y028326D02*
X001008Y028326D01*
X000979Y028410D02*
X000530Y028410D01*
X000530Y028568D02*
X000924Y028568D01*
X000868Y028727D02*
X000530Y028727D01*
X000530Y028885D02*
X000813Y028885D01*
X000782Y028972D02*
X000782Y028972D01*
X000774Y029044D02*
X000530Y029044D01*
X000530Y029202D02*
X000756Y029202D01*
X000738Y029361D02*
X000530Y029361D01*
X000530Y029519D02*
X000721Y029519D01*
X000706Y029653D02*
X000706Y029653D01*
X000708Y029678D02*
X000530Y029678D01*
X000530Y029836D02*
X000726Y029836D01*
X000744Y029995D02*
X000530Y029995D01*
X000530Y030153D02*
X000762Y030153D01*
X000780Y030312D02*
X000530Y030312D01*
X000530Y030470D02*
X000830Y030470D01*
X000782Y030333D02*
X000782Y030333D01*
X000886Y030629D02*
X000530Y030629D01*
X000530Y030787D02*
X000941Y030787D01*
X000997Y030946D02*
X000530Y030946D01*
X000530Y031104D02*
X001087Y031104D01*
X001008Y030979D02*
X001008Y030979D01*
X001186Y031263D02*
X000530Y031263D01*
X000530Y031421D02*
X001286Y031421D01*
X001373Y031559D02*
X001373Y031559D01*
X001393Y031580D02*
X000530Y031580D01*
X000530Y031738D02*
X001552Y031738D01*
X001710Y031897D02*
X000530Y031897D01*
X000530Y032055D02*
X001876Y032055D01*
X000530Y033957D02*
X003403Y033957D01*
X003530Y033831D02*
X003894Y033831D01*
X004152Y034088D01*
X004152Y034453D01*
X003894Y034711D01*
X003530Y034711D01*
X003272Y034453D01*
X003272Y034088D01*
X003530Y033831D01*
X003272Y034116D02*
X000530Y034116D01*
X000530Y034274D02*
X003272Y034274D01*
X003272Y034433D02*
X000530Y034433D01*
X000530Y034591D02*
X003410Y034591D01*
X003530Y034831D02*
X003894Y034831D01*
X004152Y035088D01*
X004152Y035453D01*
X003894Y035711D01*
X003530Y035711D01*
X003272Y035453D01*
X003272Y035088D01*
X003530Y034831D01*
X003452Y034908D02*
X000530Y034908D01*
X000530Y034750D02*
X005975Y034750D01*
X006028Y034908D02*
X006053Y034908D01*
X006187Y035067D02*
X006197Y035067D01*
X005732Y035067D02*
X005692Y035067D01*
X005692Y035225D02*
X005732Y035225D01*
X005732Y035384D02*
X005692Y035384D01*
X005692Y035542D02*
X005732Y035542D01*
X005732Y035701D02*
X005692Y035701D01*
X005463Y035701D02*
X004932Y035701D01*
X005063Y035542D02*
X005305Y035542D01*
X005232Y035384D02*
X005152Y035384D01*
X005152Y035225D02*
X005232Y035225D01*
X005237Y035067D02*
X005130Y035067D01*
X004972Y034908D02*
X005396Y034908D01*
X005692Y034908D02*
X005732Y034908D01*
X005410Y034591D02*
X005014Y034591D01*
X004894Y034711D02*
X004530Y034711D01*
X004272Y034453D01*
X004272Y034088D01*
X004530Y033831D01*
X004894Y033831D01*
X005152Y034088D01*
X005152Y034453D01*
X004894Y034711D01*
X005152Y034433D02*
X005272Y034433D01*
X005272Y034274D02*
X005152Y034274D01*
X005152Y034116D02*
X005272Y034116D01*
X005403Y033957D02*
X005021Y033957D01*
X004403Y033957D02*
X004021Y033957D01*
X004152Y034116D02*
X004272Y034116D01*
X004272Y034274D02*
X004152Y034274D01*
X004152Y034433D02*
X004272Y034433D01*
X004410Y034591D02*
X004014Y034591D01*
X003972Y034908D02*
X004452Y034908D01*
X004294Y035067D02*
X004130Y035067D01*
X004152Y035225D02*
X004272Y035225D01*
X004272Y035384D02*
X004152Y035384D01*
X004063Y035542D02*
X004361Y035542D01*
X004492Y035701D02*
X003904Y035701D01*
X003520Y035701D02*
X002132Y035701D01*
X002172Y035798D02*
X002055Y035515D01*
X001838Y035298D01*
X001555Y035180D01*
X001248Y035180D01*
X000964Y035298D01*
X000747Y035515D01*
X000630Y035798D01*
X000630Y036105D01*
X000747Y036389D01*
X000964Y036606D01*
X001248Y036723D01*
X001555Y036723D01*
X001838Y036606D01*
X002055Y036389D01*
X002172Y036105D01*
X002172Y035798D01*
X002172Y035859D02*
X004492Y035859D01*
X004601Y036018D02*
X002172Y036018D01*
X002143Y036176D02*
X004759Y036176D01*
X004944Y036050D02*
X004712Y035818D01*
X004712Y035271D01*
X004944Y036050D02*
X017937Y036050D01*
X018232Y035755D01*
X018232Y023452D01*
X018626Y023058D01*
X020496Y023058D01*
X020789Y023179D02*
X039280Y023179D01*
X039280Y023021D02*
X020813Y023021D01*
X020748Y022862D02*
X039280Y022862D01*
X039280Y022704D02*
X014416Y022704D01*
X014416Y022862D02*
X018510Y022862D01*
X018352Y023021D02*
X014416Y023021D01*
X014416Y023179D02*
X018193Y023179D01*
X018035Y023338D02*
X014416Y023338D01*
X014416Y023496D02*
X018012Y023496D01*
X018012Y023655D02*
X014416Y023655D01*
X014416Y023813D02*
X018012Y023813D01*
X018012Y023972D02*
X014416Y023972D01*
X014416Y024130D02*
X018012Y024130D01*
X018012Y024289D02*
X014416Y024289D01*
X014416Y024447D02*
X018012Y024447D01*
X018012Y024606D02*
X014416Y024606D01*
X014416Y024764D02*
X018012Y024764D01*
X018012Y024923D02*
X014416Y024923D01*
X014416Y025081D02*
X018012Y025081D01*
X018012Y025240D02*
X014416Y025240D01*
X014416Y025398D02*
X018012Y025398D01*
X018012Y025557D02*
X014416Y025557D01*
X014416Y025715D02*
X018012Y025715D01*
X018012Y025874D02*
X014416Y025874D01*
X014416Y026032D02*
X018012Y026032D01*
X018012Y026191D02*
X014416Y026191D01*
X014416Y026349D02*
X018012Y026349D01*
X018012Y026508D02*
X014416Y026508D01*
X014416Y026666D02*
X018012Y026666D01*
X018012Y026825D02*
X014416Y026825D01*
X014416Y026983D02*
X018012Y026983D01*
X018012Y027142D02*
X014416Y027142D01*
X014416Y027300D02*
X018012Y027300D01*
X018012Y027459D02*
X014416Y027459D01*
X014416Y027617D02*
X018012Y027617D01*
X018012Y027776D02*
X014416Y027776D01*
X014416Y027934D02*
X018012Y027934D01*
X018012Y028093D02*
X014416Y028093D01*
X014416Y028251D02*
X018012Y028251D01*
X018012Y028410D02*
X014416Y028410D01*
X014416Y028568D02*
X018012Y028568D01*
X018012Y028727D02*
X014416Y028727D01*
X014416Y028885D02*
X018012Y028885D01*
X018012Y029044D02*
X014416Y029044D01*
X014416Y029202D02*
X018012Y029202D01*
X018012Y029361D02*
X014416Y029361D01*
X014416Y029519D02*
X018012Y029519D01*
X018012Y029678D02*
X014416Y029678D01*
X014416Y029836D02*
X018012Y029836D01*
X018012Y029995D02*
X014416Y029995D01*
X014416Y030153D02*
X018012Y030153D01*
X018012Y030312D02*
X014416Y030312D01*
X014416Y030470D02*
X018012Y030470D01*
X018012Y030629D02*
X014440Y030629D01*
X014514Y030787D02*
X018012Y030787D01*
X018012Y030946D02*
X014493Y030946D01*
X014372Y031104D02*
X018012Y031104D01*
X018452Y031104D02*
X029419Y031104D01*
X029419Y030946D02*
X018452Y030946D01*
X018452Y030787D02*
X029419Y030787D01*
X029419Y030756D02*
X029496Y030568D01*
X029640Y030425D01*
X029827Y030347D01*
X030030Y030347D01*
X030218Y030425D01*
X030361Y030568D01*
X030429Y030732D01*
X030496Y030568D01*
X030640Y030425D01*
X030827Y030347D01*
X031030Y030347D01*
X031218Y030425D01*
X031361Y030568D01*
X031439Y030756D01*
X031439Y031699D01*
X031361Y031886D01*
X031218Y032030D01*
X031030Y032107D01*
X030827Y032107D01*
X030640Y032030D01*
X030496Y031886D01*
X030429Y031723D01*
X030361Y031886D01*
X030218Y032030D01*
X030030Y032107D01*
X029827Y032107D01*
X029640Y032030D01*
X029496Y031886D01*
X029419Y031699D01*
X029419Y030756D01*
X029471Y030629D02*
X018452Y030629D01*
X018452Y030470D02*
X029595Y030470D01*
X030263Y030470D02*
X030595Y030470D01*
X030471Y030629D02*
X030386Y030629D01*
X031263Y030470D02*
X037391Y030470D01*
X037391Y030467D02*
X037391Y030454D01*
X038281Y030454D01*
X038281Y030394D01*
X038341Y030394D01*
X038341Y030454D01*
X039231Y030454D01*
X039231Y030467D01*
X039217Y030553D01*
X039190Y030635D01*
X039151Y030712D01*
X039100Y030783D01*
X039039Y030844D01*
X038969Y030895D01*
X038892Y030934D01*
X038857Y030945D01*
X038969Y030992D01*
X039113Y031135D01*
X039191Y031323D01*
X039191Y031526D01*
X039113Y031713D01*
X038969Y031857D01*
X038782Y031934D01*
X037839Y031934D01*
X037652Y031857D01*
X037508Y031713D01*
X037431Y031526D01*
X037431Y031323D01*
X037508Y031135D01*
X037652Y030992D01*
X037764Y030945D01*
X037729Y030934D01*
X037652Y030895D01*
X037582Y030844D01*
X037521Y030783D01*
X037470Y030712D01*
X037431Y030635D01*
X037404Y030553D01*
X037391Y030467D01*
X037391Y030394D02*
X037391Y030381D01*
X037404Y030295D01*
X037431Y030213D01*
X037470Y030136D01*
X037521Y030066D01*
X037582Y030005D01*
X037652Y029954D01*
X037729Y029915D01*
X037812Y029888D01*
X037897Y029874D01*
X038281Y029874D01*
X038281Y030394D01*
X037391Y030394D01*
X037402Y030312D02*
X018452Y030312D01*
X018452Y030153D02*
X025256Y030153D01*
X025313Y030176D02*
X025120Y030097D01*
X024973Y029949D01*
X024893Y029757D01*
X024893Y029717D01*
X024734Y029783D01*
X023758Y029783D01*
X023565Y029703D01*
X023418Y029556D01*
X023338Y029363D01*
X023338Y029155D01*
X023418Y028962D01*
X023565Y028815D01*
X023758Y028735D01*
X024734Y028735D01*
X024926Y028815D01*
X025074Y028962D01*
X025153Y029155D01*
X025153Y029195D01*
X025313Y029129D01*
X026289Y029129D01*
X026481Y029208D01*
X026629Y029356D01*
X026708Y029548D01*
X026708Y029757D01*
X026629Y029949D01*
X026481Y030097D01*
X026289Y030176D01*
X025313Y030176D01*
X025018Y029995D02*
X018452Y029995D01*
X018452Y029836D02*
X024926Y029836D01*
X025107Y029044D02*
X039280Y029044D01*
X039280Y029202D02*
X026466Y029202D01*
X026631Y029361D02*
X039280Y029361D01*
X039280Y029519D02*
X026696Y029519D01*
X026708Y029678D02*
X039280Y029678D01*
X039280Y029836D02*
X026676Y029836D01*
X026583Y029995D02*
X037596Y029995D01*
X037461Y030153D02*
X026345Y030153D01*
X025694Y028522D02*
X025501Y028602D01*
X024525Y028602D01*
X024333Y028522D01*
X024185Y028374D01*
X024106Y028182D01*
X024106Y027974D01*
X024185Y027781D01*
X024333Y027634D01*
X024525Y027554D01*
X025501Y027554D01*
X025694Y027634D01*
X025841Y027781D01*
X025921Y027974D01*
X025921Y028182D01*
X025841Y028374D01*
X025694Y028522D01*
X025582Y028568D02*
X028401Y028568D01*
X028482Y028602D02*
X028289Y028522D01*
X028142Y028374D01*
X028062Y028182D01*
X028062Y027974D01*
X028142Y027781D01*
X028289Y027634D01*
X028482Y027554D01*
X029458Y027554D01*
X029617Y027620D01*
X029617Y027373D01*
X029558Y027314D01*
X022555Y027314D01*
X021994Y027875D01*
X021994Y027944D01*
X021946Y028061D01*
X021856Y028150D01*
X021740Y028198D01*
X021614Y028198D01*
X021497Y028150D01*
X021408Y028061D01*
X021360Y027944D01*
X021360Y027818D01*
X021408Y027701D01*
X021497Y027612D01*
X021614Y027564D01*
X021683Y027564D01*
X022373Y026874D01*
X029617Y026874D01*
X029617Y026812D01*
X029697Y026620D01*
X029845Y026472D01*
X030037Y026392D01*
X030245Y026392D01*
X030438Y026472D01*
X030585Y026620D01*
X030665Y026812D01*
X030665Y027788D01*
X030585Y027981D01*
X030438Y028128D01*
X030245Y028208D01*
X030037Y028208D01*
X029878Y028142D01*
X029878Y028182D01*
X029798Y028374D01*
X029651Y028522D01*
X029458Y028602D01*
X028482Y028602D01*
X028177Y028410D02*
X025806Y028410D01*
X025892Y028251D02*
X028091Y028251D01*
X028062Y028093D02*
X025921Y028093D01*
X025905Y027934D02*
X028079Y027934D01*
X028147Y027776D02*
X025836Y027776D01*
X025654Y027617D02*
X028329Y027617D01*
X029539Y028568D02*
X039280Y028568D01*
X039280Y028410D02*
X029763Y028410D01*
X029849Y028251D02*
X039280Y028251D01*
X039280Y028093D02*
X030474Y028093D01*
X030605Y027934D02*
X039280Y027934D01*
X039280Y027776D02*
X032287Y027776D01*
X032194Y027814D02*
X032387Y027734D01*
X032534Y027587D01*
X032614Y027395D01*
X032614Y027186D01*
X032534Y026994D01*
X032387Y026846D01*
X032194Y026766D01*
X031218Y026766D01*
X031026Y026846D01*
X030878Y026994D01*
X030799Y027186D01*
X030799Y027395D01*
X030878Y027587D01*
X031026Y027734D01*
X031218Y027814D01*
X032194Y027814D01*
X032504Y027617D02*
X039280Y027617D01*
X039280Y027459D02*
X032587Y027459D01*
X032614Y027300D02*
X039280Y027300D01*
X039280Y027142D02*
X032595Y027142D01*
X032524Y026983D02*
X039280Y026983D01*
X039280Y026825D02*
X032335Y026825D01*
X031078Y026825D02*
X030665Y026825D01*
X030665Y026983D02*
X030889Y026983D01*
X030817Y027142D02*
X030665Y027142D01*
X030665Y027300D02*
X030799Y027300D01*
X030825Y027459D02*
X030665Y027459D01*
X030665Y027617D02*
X030908Y027617D01*
X031125Y027776D02*
X030665Y027776D01*
X030141Y027684D02*
X030141Y027586D01*
X029649Y027094D01*
X022464Y027094D01*
X021677Y027881D01*
X021913Y028093D02*
X022157Y028093D01*
X022157Y028182D02*
X022157Y027974D01*
X022237Y027781D01*
X022384Y027634D01*
X022576Y027554D01*
X023553Y027554D01*
X023745Y027634D01*
X023892Y027781D01*
X023972Y027974D01*
X023972Y028182D01*
X023892Y028374D01*
X023745Y028522D01*
X023553Y028602D01*
X022576Y028602D01*
X022384Y028522D01*
X022237Y028374D01*
X022157Y028182D01*
X022185Y028251D02*
X018452Y028251D01*
X018452Y028093D02*
X021440Y028093D01*
X021360Y027934D02*
X018452Y027934D01*
X018452Y027776D02*
X021377Y027776D01*
X021492Y027617D02*
X018452Y027617D01*
X018452Y027459D02*
X021788Y027459D01*
X021946Y027300D02*
X018452Y027300D01*
X018452Y027142D02*
X022105Y027142D01*
X022263Y026983D02*
X018452Y026983D01*
X018452Y026825D02*
X029617Y026825D01*
X029678Y026666D02*
X018452Y026666D01*
X018452Y026508D02*
X029809Y026508D01*
X030473Y026508D02*
X039280Y026508D01*
X039280Y026666D02*
X030605Y026666D01*
X029617Y027459D02*
X022410Y027459D01*
X022424Y027617D02*
X022252Y027617D01*
X022242Y027776D02*
X022093Y027776D01*
X022173Y027934D02*
X021994Y027934D01*
X022272Y028410D02*
X018452Y028410D01*
X018452Y028568D02*
X022496Y028568D01*
X023384Y029044D02*
X018452Y029044D01*
X018452Y029202D02*
X023338Y029202D01*
X023338Y029361D02*
X018452Y029361D01*
X018452Y029519D02*
X023403Y029519D01*
X023540Y029678D02*
X018452Y029678D01*
X018452Y028885D02*
X023495Y028885D01*
X023633Y028568D02*
X024444Y028568D01*
X024220Y028410D02*
X023857Y028410D01*
X023944Y028251D02*
X024134Y028251D01*
X024106Y028093D02*
X023972Y028093D01*
X023956Y027934D02*
X024122Y027934D01*
X024191Y027776D02*
X023887Y027776D01*
X023705Y027617D02*
X024373Y027617D01*
X024997Y028885D02*
X039280Y028885D01*
X039280Y028727D02*
X018452Y028727D01*
X018452Y026349D02*
X039280Y026349D01*
X039280Y026191D02*
X018452Y026191D01*
X018452Y026032D02*
X039280Y026032D01*
X039280Y025874D02*
X018452Y025874D01*
X018452Y025715D02*
X039280Y025715D01*
X039280Y025557D02*
X018452Y025557D01*
X018452Y025398D02*
X039280Y025398D01*
X039280Y025240D02*
X018452Y025240D01*
X018452Y025081D02*
X039280Y025081D01*
X039280Y024923D02*
X034306Y024923D01*
X034356Y024902D02*
X034240Y024950D01*
X034114Y024950D01*
X033997Y024902D01*
X033948Y024853D01*
X023775Y024853D01*
X023726Y024902D01*
X023610Y024950D01*
X023484Y024950D01*
X023367Y024902D01*
X023278Y024813D01*
X023230Y024696D01*
X023230Y024570D01*
X023278Y024453D01*
X023367Y024364D01*
X023484Y024316D01*
X023610Y024316D01*
X023726Y024364D01*
X023775Y024413D01*
X033948Y024413D01*
X033997Y024364D01*
X034114Y024316D01*
X034240Y024316D01*
X034356Y024364D01*
X034446Y024453D01*
X034494Y024570D01*
X034494Y024696D01*
X034446Y024813D01*
X034356Y024902D01*
X034466Y024764D02*
X039280Y024764D01*
X039280Y024606D02*
X034494Y024606D01*
X034439Y024447D02*
X039280Y024447D01*
X039280Y024289D02*
X018452Y024289D01*
X018452Y024447D02*
X023284Y024447D01*
X023230Y024606D02*
X018452Y024606D01*
X018452Y024764D02*
X023258Y024764D01*
X023418Y024923D02*
X018452Y024923D01*
X018452Y024130D02*
X039280Y024130D01*
X039280Y023972D02*
X018452Y023972D01*
X018452Y023813D02*
X039280Y023813D01*
X039280Y023655D02*
X018452Y023655D01*
X018499Y023496D02*
X039280Y023496D01*
X039280Y023338D02*
X020649Y023338D01*
X020342Y023338D02*
X018657Y023338D01*
X019332Y022540D02*
X019242Y022450D01*
X019194Y022334D01*
X019194Y022208D01*
X019221Y022144D01*
X019199Y022122D01*
X019174Y022122D01*
X019045Y021993D01*
X018455Y021402D01*
X018455Y020752D01*
X018406Y020703D01*
X018358Y020587D01*
X018358Y020461D01*
X018406Y020344D01*
X018495Y020255D01*
X018612Y020206D01*
X018738Y020206D01*
X018854Y020255D01*
X018944Y020344D01*
X018992Y020461D01*
X018992Y020587D01*
X018944Y020703D01*
X018895Y020752D01*
X018895Y021220D01*
X019356Y021682D01*
X019381Y021682D01*
X019553Y021854D01*
X019682Y021983D01*
X019682Y021998D01*
X019691Y022002D01*
X019780Y022091D01*
X019829Y022208D01*
X019829Y022334D01*
X019780Y022450D01*
X019691Y022540D01*
X019574Y022588D01*
X019448Y022588D01*
X019332Y022540D01*
X019345Y022545D02*
X014416Y022545D01*
X014416Y022387D02*
X019216Y022387D01*
X019194Y022228D02*
X014416Y022228D01*
X014416Y022070D02*
X019122Y022070D01*
X019265Y021902D02*
X019290Y021902D01*
X019462Y022074D01*
X019462Y022221D01*
X019511Y022271D01*
X019807Y022387D02*
X039280Y022387D01*
X039280Y022545D02*
X019678Y022545D01*
X019829Y022228D02*
X039280Y022228D01*
X039280Y022070D02*
X019759Y022070D01*
X019611Y021911D02*
X039280Y021911D01*
X039280Y021753D02*
X019452Y021753D01*
X019265Y021902D02*
X018675Y021311D01*
X018675Y020524D01*
X018969Y020643D02*
X035542Y020643D01*
X035523Y020690D02*
X035603Y020498D01*
X035750Y020350D01*
X035943Y020270D01*
X036919Y020270D01*
X037111Y020350D01*
X037259Y020498D01*
X037338Y020690D01*
X037338Y020898D01*
X037259Y021091D01*
X037111Y021238D01*
X036919Y021318D01*
X035943Y021318D01*
X035750Y021238D01*
X035603Y021091D01*
X035523Y020898D01*
X035523Y020690D01*
X035523Y020802D02*
X018895Y020802D01*
X018895Y020960D02*
X035548Y020960D01*
X035630Y021119D02*
X024369Y021119D01*
X024366Y021116D02*
X024455Y021205D01*
X024504Y021322D01*
X024504Y021448D01*
X024455Y021565D01*
X024366Y021654D01*
X024250Y021702D01*
X024123Y021702D01*
X024007Y021654D01*
X023918Y021565D01*
X023869Y021448D01*
X023869Y021322D01*
X023918Y021205D01*
X024007Y021116D01*
X024123Y021068D01*
X024250Y021068D01*
X024366Y021116D01*
X024485Y021277D02*
X035844Y021277D01*
X035616Y020485D02*
X018992Y020485D01*
X018926Y020326D02*
X035808Y020326D01*
X037053Y020326D02*
X039280Y020326D01*
X039280Y020168D02*
X015498Y020168D01*
X015486Y020144D02*
X015526Y020224D01*
X015553Y020308D01*
X015567Y020392D01*
X014284Y020392D01*
X014284Y020488D01*
X015567Y020488D01*
X015553Y020572D01*
X015526Y020656D01*
X015486Y020735D01*
X015434Y020807D01*
X015371Y020870D01*
X015299Y020922D01*
X015220Y020963D01*
X015136Y020990D01*
X015048Y021004D01*
X014284Y021004D01*
X014284Y020488D01*
X014188Y020488D01*
X014188Y021003D01*
X014104Y020990D01*
X014019Y020963D01*
X013940Y020922D01*
X013868Y020870D01*
X013806Y020807D01*
X013753Y020735D01*
X013713Y020656D01*
X013686Y020572D01*
X013672Y020488D01*
X014188Y020488D01*
X014188Y020392D01*
X014284Y020392D01*
X014284Y019876D01*
X015048Y019876D01*
X015136Y019890D01*
X015220Y019917D01*
X015299Y019958D01*
X015371Y020010D01*
X015434Y020073D01*
X015486Y020144D01*
X015370Y020009D02*
X039280Y020009D01*
X039280Y019851D02*
X038869Y019851D01*
X038846Y019873D02*
X038562Y019991D01*
X038256Y019991D01*
X037972Y019873D01*
X037755Y019656D01*
X037638Y019373D01*
X037638Y019066D01*
X037755Y018783D01*
X037972Y018566D01*
X038256Y018448D01*
X038562Y018448D01*
X038846Y018566D01*
X039063Y018783D01*
X039180Y019066D01*
X039180Y019373D01*
X039063Y019656D01*
X038846Y019873D01*
X039027Y019692D02*
X039280Y019692D01*
X039280Y019534D02*
X039114Y019534D01*
X039179Y019375D02*
X039280Y019375D01*
X039280Y019217D02*
X039180Y019217D01*
X039177Y019058D02*
X039280Y019058D01*
X039280Y018900D02*
X039111Y018900D01*
X039021Y018741D02*
X039280Y018741D01*
X039280Y018583D02*
X038863Y018583D01*
X039280Y018424D02*
X035716Y018424D01*
X035725Y018415D02*
X035636Y018504D01*
X035519Y018552D01*
X035393Y018552D01*
X035277Y018504D01*
X035187Y018415D01*
X035139Y018298D01*
X035139Y018172D01*
X035163Y018113D01*
X034856Y017806D01*
X031430Y017806D01*
X030827Y018409D01*
X033209Y018409D01*
X033240Y018332D01*
X033388Y018185D01*
X033580Y018105D01*
X034556Y018105D01*
X034749Y018185D01*
X034896Y018332D01*
X034976Y018525D01*
X034976Y018733D01*
X034896Y018926D01*
X034749Y019073D01*
X034556Y019153D01*
X033580Y019153D01*
X033388Y019073D01*
X033240Y018926D01*
X033209Y018849D01*
X030852Y018849D01*
X030852Y018889D01*
X030804Y019005D01*
X030715Y019095D01*
X030598Y019143D01*
X030472Y019143D01*
X030355Y019095D01*
X030266Y019005D01*
X030218Y018889D01*
X030218Y018763D01*
X030247Y018692D01*
X028416Y018692D01*
X028321Y018653D01*
X027460Y017792D01*
X027448Y017762D01*
X027412Y017726D01*
X027363Y017609D01*
X027363Y017483D01*
X027412Y017367D01*
X027501Y017277D01*
X027618Y017229D01*
X027744Y017229D01*
X027860Y017277D01*
X027950Y017367D01*
X027998Y017483D01*
X027998Y017594D01*
X028576Y018172D01*
X030329Y018172D01*
X031102Y017399D01*
X031175Y017326D01*
X031271Y017286D01*
X035016Y017286D01*
X035111Y017326D01*
X035677Y017891D01*
X035716Y017987D01*
X035716Y018047D01*
X035725Y018056D01*
X035773Y018172D01*
X035773Y018298D01*
X035725Y018415D01*
X035773Y018266D02*
X039280Y018266D01*
X039280Y018107D02*
X035746Y018107D01*
X035700Y017949D02*
X039280Y017949D01*
X039280Y017790D02*
X035576Y017790D01*
X035417Y017632D02*
X039280Y017632D01*
X039280Y017473D02*
X035259Y017473D01*
X035084Y017315D02*
X039280Y017315D01*
X039280Y017156D02*
X034721Y017156D01*
X034748Y017143D02*
X034669Y017183D01*
X034584Y017210D01*
X034497Y017224D01*
X033733Y017224D01*
X033733Y016708D01*
X035016Y016708D01*
X035002Y016792D01*
X034975Y016877D01*
X034935Y016956D01*
X034882Y017028D01*
X034820Y017091D01*
X034748Y017143D01*
X034904Y016998D02*
X039280Y016998D01*
X039280Y016839D02*
X034987Y016839D01*
X035016Y016612D02*
X033733Y016612D01*
X033733Y016708D01*
X033637Y016708D01*
X033637Y016612D01*
X033733Y016612D01*
X033733Y016097D01*
X034497Y016097D01*
X034584Y016110D01*
X034669Y016138D01*
X034748Y016178D01*
X034820Y016230D01*
X034882Y016293D01*
X034935Y016365D01*
X034975Y016444D01*
X035002Y016528D01*
X035016Y016612D01*
X035000Y016522D02*
X039280Y016522D01*
X039280Y016364D02*
X034934Y016364D01*
X034785Y016205D02*
X039280Y016205D01*
X039280Y016047D02*
X016893Y016047D01*
X016734Y016205D02*
X033352Y016205D01*
X033317Y016230D02*
X033389Y016178D01*
X033468Y016138D01*
X033553Y016110D01*
X033637Y016097D01*
X033637Y016612D01*
X033121Y016612D01*
X033135Y016528D01*
X033162Y016444D01*
X033202Y016365D01*
X033254Y016293D01*
X033317Y016230D01*
X033203Y016364D02*
X016576Y016364D01*
X016482Y016458D02*
X016482Y016527D01*
X016434Y016643D01*
X016345Y016732D01*
X016228Y016781D01*
X016102Y016781D01*
X015985Y016732D01*
X015896Y016643D01*
X015848Y016527D01*
X015848Y016400D01*
X015896Y016284D01*
X015985Y016195D01*
X016102Y016146D01*
X016171Y016146D01*
X017845Y014472D01*
X033209Y014472D01*
X033240Y014395D01*
X033388Y014248D01*
X033580Y014168D01*
X034556Y014168D01*
X034749Y014248D01*
X034896Y014395D01*
X034976Y014588D01*
X034976Y014796D01*
X034896Y014989D01*
X034749Y015136D01*
X034556Y015216D01*
X033580Y015216D01*
X033388Y015136D01*
X033240Y014989D01*
X033209Y014912D01*
X018028Y014912D01*
X016482Y016458D01*
X016482Y016522D02*
X033137Y016522D01*
X033121Y016708D02*
X033637Y016708D01*
X033637Y017224D01*
X033553Y017210D01*
X033468Y017183D01*
X033389Y017143D01*
X033317Y017091D01*
X033254Y017028D01*
X033202Y016956D01*
X033162Y016877D01*
X033135Y016792D01*
X033121Y016708D01*
X033150Y016839D02*
X000530Y016839D01*
X000530Y016681D02*
X015933Y016681D01*
X015848Y016522D02*
X000530Y016522D01*
X000530Y016364D02*
X015863Y016364D01*
X015975Y016205D02*
X000530Y016205D01*
X000530Y016047D02*
X016271Y016047D01*
X016429Y015888D02*
X000530Y015888D01*
X000530Y015730D02*
X016588Y015730D01*
X016746Y015571D02*
X000530Y015571D01*
X000530Y015413D02*
X016905Y015413D01*
X017063Y015254D02*
X000530Y015254D01*
X000530Y015096D02*
X017222Y015096D01*
X017380Y014937D02*
X000530Y014937D01*
X000530Y014779D02*
X017539Y014779D01*
X017697Y014620D02*
X000530Y014620D01*
X000530Y014462D02*
X033213Y014462D01*
X033333Y014303D02*
X000530Y014303D01*
X000530Y014145D02*
X039280Y014145D01*
X039280Y014303D02*
X034804Y014303D01*
X034924Y014462D02*
X039280Y014462D01*
X039280Y014620D02*
X034976Y014620D01*
X034976Y014779D02*
X039280Y014779D01*
X039280Y014937D02*
X034918Y014937D01*
X034789Y015096D02*
X039280Y015096D01*
X039280Y015254D02*
X017685Y015254D01*
X017527Y015413D02*
X039280Y015413D01*
X039280Y015571D02*
X017368Y015571D01*
X017210Y015730D02*
X039280Y015730D01*
X039280Y015888D02*
X017051Y015888D01*
X016396Y016681D02*
X033637Y016681D01*
X033733Y016681D02*
X039280Y016681D01*
X037955Y018583D02*
X034976Y018583D01*
X034973Y018741D02*
X037796Y018741D01*
X037707Y018900D02*
X034907Y018900D01*
X034764Y019058D02*
X037641Y019058D01*
X037638Y019217D02*
X020676Y019217D01*
X020676Y019066D02*
X020559Y018783D01*
X020342Y018566D01*
X020058Y018448D01*
X019752Y018448D01*
X019468Y018566D01*
X019251Y018783D01*
X019134Y019066D01*
X019134Y019373D01*
X019251Y019656D01*
X019468Y019873D01*
X019752Y019991D01*
X020058Y019991D01*
X020342Y019873D01*
X020559Y019656D01*
X020676Y019373D01*
X020676Y019066D01*
X020673Y019058D02*
X030319Y019058D01*
X030222Y018900D02*
X020607Y018900D01*
X020518Y018741D02*
X026712Y018741D01*
X026732Y018749D02*
X026615Y018701D01*
X026566Y018652D01*
X023751Y018652D01*
X023553Y018454D01*
X023484Y018454D01*
X023367Y018406D01*
X023278Y018316D01*
X023230Y018200D01*
X023230Y018074D01*
X023278Y017957D01*
X023367Y017868D01*
X023484Y017820D01*
X023610Y017820D01*
X023726Y017868D01*
X023816Y017957D01*
X023864Y018074D01*
X023864Y018143D01*
X023933Y018212D01*
X026566Y018212D01*
X026615Y018163D01*
X026732Y018115D01*
X026858Y018115D01*
X026974Y018163D01*
X027064Y018252D01*
X027112Y018369D01*
X027112Y018495D01*
X027064Y018612D01*
X026974Y018701D01*
X026858Y018749D01*
X026732Y018749D01*
X026877Y018741D02*
X030227Y018741D01*
X030535Y018826D02*
X030732Y018629D01*
X033685Y018629D01*
X033307Y018266D02*
X030971Y018266D01*
X031129Y018107D02*
X033575Y018107D01*
X033230Y018900D02*
X030848Y018900D01*
X030751Y019058D02*
X033373Y019058D01*
X034561Y018107D02*
X035157Y018107D01*
X035139Y018266D02*
X034830Y018266D01*
X034934Y018424D02*
X035197Y018424D01*
X035456Y018235D02*
X035456Y018038D01*
X034999Y017949D02*
X031288Y017949D01*
X030869Y017632D02*
X030219Y017632D01*
X030252Y017552D02*
X030172Y017745D01*
X030025Y017892D01*
X029832Y017972D01*
X028856Y017972D01*
X028663Y017892D01*
X028516Y017745D01*
X028436Y017552D01*
X028436Y017344D01*
X028516Y017151D01*
X028663Y017004D01*
X028856Y016924D01*
X029832Y016924D01*
X030025Y017004D01*
X030172Y017151D01*
X030252Y017344D01*
X030252Y017552D01*
X030252Y017473D02*
X031028Y017473D01*
X031202Y017315D02*
X030240Y017315D01*
X030174Y017156D02*
X033415Y017156D01*
X033637Y017156D02*
X033733Y017156D01*
X033733Y016998D02*
X033637Y016998D01*
X033637Y016839D02*
X033733Y016839D01*
X033733Y016522D02*
X033637Y016522D01*
X033637Y016364D02*
X033733Y016364D01*
X033733Y016205D02*
X033637Y016205D01*
X033233Y016998D02*
X030010Y016998D01*
X030126Y017790D02*
X030711Y017790D01*
X030552Y017949D02*
X029888Y017949D01*
X030394Y018107D02*
X028511Y018107D01*
X028352Y017949D02*
X028800Y017949D01*
X028562Y017790D02*
X028194Y017790D01*
X028035Y017632D02*
X028469Y017632D01*
X028436Y017473D02*
X027994Y017473D01*
X027898Y017315D02*
X028448Y017315D01*
X028514Y017156D02*
X000530Y017156D01*
X000530Y016998D02*
X028678Y016998D01*
X027681Y017546D02*
X027681Y017645D01*
X027459Y017790D02*
X014031Y017790D01*
X014030Y017949D02*
X023286Y017949D01*
X023230Y018107D02*
X013964Y018107D01*
X013824Y018266D02*
X023257Y018266D01*
X023412Y018424D02*
X012898Y018424D01*
X012898Y017315D02*
X027464Y017315D01*
X027368Y017473D02*
X013880Y017473D01*
X013987Y017632D02*
X027373Y017632D01*
X027617Y017949D02*
X023807Y017949D01*
X023864Y018107D02*
X027775Y018107D01*
X027934Y018266D02*
X027069Y018266D01*
X027112Y018424D02*
X028092Y018424D01*
X028251Y018583D02*
X027076Y018583D01*
X026795Y018432D02*
X023842Y018432D01*
X023547Y018137D01*
X023681Y018583D02*
X020359Y018583D01*
X020675Y019375D02*
X037639Y019375D01*
X037704Y019534D02*
X020610Y019534D01*
X020523Y019692D02*
X037791Y019692D01*
X037949Y019851D02*
X020365Y019851D01*
X019445Y019851D02*
X012284Y019851D01*
X012443Y020009D02*
X013869Y020009D01*
X013868Y020010D02*
X013940Y019958D01*
X014019Y019917D01*
X014104Y019890D01*
X014188Y019877D01*
X014188Y020392D01*
X013672Y020392D01*
X013686Y020308D01*
X013713Y020224D01*
X013753Y020144D01*
X013806Y020073D01*
X013868Y020010D01*
X013742Y020168D02*
X012601Y020168D01*
X012760Y020326D02*
X013683Y020326D01*
X013709Y020643D02*
X013077Y020643D01*
X013235Y020802D02*
X013802Y020802D01*
X014015Y020960D02*
X013394Y020960D01*
X013552Y021119D02*
X018455Y021119D01*
X018455Y021277D02*
X013711Y021277D01*
X013869Y021436D02*
X018488Y021436D01*
X018647Y021594D02*
X014028Y021594D01*
X014186Y021753D02*
X018805Y021753D01*
X018964Y021911D02*
X014345Y021911D01*
X014196Y022074D02*
X014196Y030834D01*
X012031Y032113D02*
X008783Y032113D01*
X008586Y032113D01*
X008776Y032372D02*
X011979Y032372D01*
X012471Y026983D02*
X013976Y026983D01*
X013976Y026825D02*
X012618Y026825D01*
X012643Y026666D02*
X013976Y026666D01*
X013976Y026508D02*
X012583Y026508D01*
X012326Y026700D02*
X011736Y026109D01*
X004255Y026109D01*
X004468Y025874D02*
X013976Y025874D01*
X013976Y026032D02*
X011970Y026032D01*
X012128Y026191D02*
X013976Y026191D01*
X013976Y026349D02*
X012287Y026349D01*
X011665Y026349D02*
X004464Y026349D01*
X004396Y026666D02*
X005710Y026666D01*
X003154Y024130D02*
X013976Y024130D01*
X013976Y023972D02*
X003154Y023972D01*
X003154Y023813D02*
X013976Y023813D01*
X013976Y023655D02*
X003154Y023655D01*
X003154Y023496D02*
X013976Y023496D01*
X013976Y023338D02*
X003154Y023338D01*
X003154Y023179D02*
X013976Y023179D01*
X013976Y023021D02*
X003154Y023021D01*
X003154Y022862D02*
X013976Y022862D01*
X013976Y022704D02*
X003154Y022704D01*
X003154Y022545D02*
X013976Y022545D01*
X013976Y022387D02*
X003154Y022387D01*
X003154Y022228D02*
X013976Y022228D01*
X013881Y022070D02*
X003154Y022070D01*
X003154Y021911D02*
X013723Y021911D01*
X013564Y021753D02*
X003154Y021753D01*
X003154Y021594D02*
X013406Y021594D01*
X013247Y021436D02*
X003154Y021436D01*
X003154Y021277D02*
X013089Y021277D01*
X012930Y021119D02*
X003154Y021119D01*
X003154Y020960D02*
X012772Y020960D01*
X012613Y020802D02*
X003154Y020802D01*
X003154Y020643D02*
X012455Y020643D01*
X012296Y020485D02*
X003154Y020485D01*
X003154Y020326D02*
X012138Y020326D01*
X011979Y020168D02*
X003154Y020168D01*
X003154Y020009D02*
X004104Y020009D01*
X004037Y019851D02*
X003154Y019851D01*
X003154Y019692D02*
X004059Y019692D01*
X004192Y019534D02*
X003154Y019534D01*
X003154Y019375D02*
X019135Y019375D01*
X019134Y019217D02*
X003154Y019217D01*
X003154Y019058D02*
X019137Y019058D01*
X019203Y018900D02*
X003154Y018900D01*
X003154Y018741D02*
X019293Y018741D01*
X019451Y018583D02*
X003154Y018583D01*
X002010Y018583D02*
X000530Y018583D01*
X000530Y018741D02*
X002010Y018741D01*
X002010Y018900D02*
X000530Y018900D01*
X000530Y019058D02*
X002010Y019058D01*
X002010Y019217D02*
X000530Y019217D01*
X000530Y019375D02*
X002010Y019375D01*
X002010Y019534D02*
X000530Y019534D01*
X000530Y019692D02*
X002010Y019692D01*
X002010Y019851D02*
X000530Y019851D01*
X000530Y020009D02*
X002010Y020009D01*
X002010Y020168D02*
X000530Y020168D01*
X000530Y020326D02*
X002010Y020326D01*
X002010Y020485D02*
X000530Y020485D01*
X000530Y020643D02*
X002010Y020643D01*
X002010Y020802D02*
X000530Y020802D01*
X000530Y020960D02*
X002010Y020960D01*
X002010Y021119D02*
X000530Y021119D01*
X000530Y021277D02*
X002010Y021277D01*
X002010Y021436D02*
X000530Y021436D01*
X000530Y021594D02*
X002010Y021594D01*
X002010Y021753D02*
X000530Y021753D01*
X000530Y021911D02*
X002010Y021911D01*
X002010Y022070D02*
X000530Y022070D01*
X000530Y022228D02*
X002010Y022228D01*
X002010Y022387D02*
X000530Y022387D01*
X000530Y022545D02*
X002010Y022545D01*
X002010Y022704D02*
X000530Y022704D01*
X000530Y022862D02*
X002010Y022862D01*
X002010Y023021D02*
X000530Y023021D01*
X000530Y023179D02*
X002010Y023179D01*
X002010Y023338D02*
X000530Y023338D01*
X000530Y023496D02*
X002010Y023496D01*
X002010Y023655D02*
X000530Y023655D01*
X000530Y023813D02*
X002010Y023813D01*
X002010Y023972D02*
X000530Y023972D01*
X000530Y024130D02*
X002010Y024130D01*
X002010Y024289D02*
X000530Y024289D01*
X000530Y024447D02*
X002010Y024447D01*
X002010Y024606D02*
X000530Y024606D01*
X000530Y024764D02*
X002010Y024764D01*
X002010Y024923D02*
X000530Y024923D01*
X000530Y025081D02*
X002010Y025081D01*
X002010Y025240D02*
X000530Y025240D01*
X000530Y025398D02*
X002010Y025398D01*
X004354Y019810D02*
X011933Y019810D01*
X014196Y022074D01*
X014188Y020960D02*
X014284Y020960D01*
X014284Y020802D02*
X014188Y020802D01*
X014188Y020643D02*
X014284Y020643D01*
X014284Y020485D02*
X018358Y020485D01*
X018381Y020643D02*
X015530Y020643D01*
X015438Y020802D02*
X018455Y020802D01*
X018455Y020960D02*
X015225Y020960D01*
X015556Y020326D02*
X018424Y020326D01*
X018895Y021119D02*
X024004Y021119D01*
X023888Y021277D02*
X018952Y021277D01*
X019110Y021436D02*
X023869Y021436D01*
X023947Y021594D02*
X019269Y021594D01*
X019287Y019692D02*
X012126Y019692D01*
X012918Y020485D02*
X014188Y020485D01*
X014188Y020326D02*
X014284Y020326D01*
X014284Y020168D02*
X014188Y020168D01*
X014188Y020009D02*
X014284Y020009D01*
X016165Y016464D02*
X017937Y014692D01*
X033685Y014692D01*
X033347Y015096D02*
X017844Y015096D01*
X018002Y014937D02*
X033219Y014937D01*
X032120Y013828D02*
X039280Y013828D01*
X039280Y013986D02*
X031918Y013986D01*
X031993Y013955D02*
X031801Y014035D01*
X030824Y014035D01*
X030632Y013955D01*
X030485Y013808D01*
X030405Y013615D01*
X030405Y013407D01*
X030485Y013214D01*
X030632Y013067D01*
X030824Y012987D01*
X031801Y012987D01*
X031993Y013067D01*
X032140Y013214D01*
X032172Y013291D01*
X034282Y013291D01*
X034352Y013222D01*
X034352Y013152D01*
X034400Y013036D01*
X034489Y012947D01*
X034606Y012898D01*
X034732Y012898D01*
X034848Y012947D01*
X034938Y013036D01*
X034986Y013152D01*
X034986Y013279D01*
X034938Y013395D01*
X034848Y013484D01*
X034732Y013533D01*
X034663Y013533D01*
X034465Y013731D01*
X032172Y013731D01*
X032140Y013808D01*
X031993Y013955D01*
X032120Y013194D02*
X034352Y013194D01*
X034401Y013035D02*
X031917Y013035D01*
X030929Y013511D02*
X034374Y013511D01*
X034669Y013216D01*
X034785Y013511D02*
X039280Y013511D01*
X039280Y013669D02*
X034526Y013669D01*
X034956Y013352D02*
X039280Y013352D01*
X039280Y013194D02*
X034986Y013194D01*
X034937Y013035D02*
X035906Y013035D01*
X035943Y013050D02*
X035750Y012971D01*
X035603Y012823D01*
X035523Y012631D01*
X035523Y012422D01*
X035603Y012230D01*
X035750Y012082D01*
X035943Y012003D01*
X036919Y012003D01*
X037111Y012082D01*
X037259Y012230D01*
X037338Y012422D01*
X037338Y012631D01*
X037259Y012823D01*
X037111Y012971D01*
X036919Y013050D01*
X035943Y013050D01*
X035656Y012877D02*
X028514Y012877D01*
X028550Y012964D02*
X028433Y012680D01*
X028216Y012463D01*
X027932Y012346D01*
X027626Y012346D01*
X027342Y012463D01*
X027125Y012680D01*
X027008Y012964D01*
X027008Y013271D01*
X027125Y013554D01*
X027342Y013771D01*
X027626Y013888D01*
X027932Y013888D01*
X028216Y013771D01*
X028433Y013554D01*
X028550Y013271D01*
X028550Y012964D01*
X028550Y013035D02*
X030708Y013035D01*
X030505Y013194D02*
X028550Y013194D01*
X028517Y013352D02*
X030427Y013352D01*
X030405Y013511D02*
X028451Y013511D01*
X028318Y013669D02*
X030427Y013669D01*
X030505Y013828D02*
X028079Y013828D01*
X027479Y013828D02*
X000530Y013828D01*
X000530Y013986D02*
X030707Y013986D01*
X028449Y012718D02*
X035559Y012718D01*
X035523Y012560D02*
X028312Y012560D01*
X028066Y012401D02*
X035532Y012401D01*
X035597Y012243D02*
X000530Y012243D01*
X000530Y012401D02*
X027492Y012401D01*
X027246Y012560D02*
X000530Y012560D01*
X000530Y012718D02*
X027109Y012718D01*
X027044Y012877D02*
X000530Y012877D01*
X000530Y013035D02*
X027008Y013035D01*
X027008Y013194D02*
X000530Y013194D01*
X000530Y013352D02*
X027042Y013352D01*
X027107Y013511D02*
X000530Y013511D01*
X000530Y013669D02*
X027240Y013669D01*
X032225Y008169D02*
X032342Y008218D01*
X032468Y008218D01*
X032585Y008169D01*
X032674Y008080D01*
X032722Y007964D01*
X032722Y007838D01*
X032674Y007721D01*
X032585Y007632D01*
X032468Y007583D01*
X032399Y007583D01*
X030626Y005811D01*
X021079Y005811D01*
X020291Y005023D01*
X018786Y005023D01*
X018755Y004946D01*
X018607Y004799D01*
X018415Y004719D01*
X017439Y004719D01*
X017246Y004799D01*
X017099Y004946D01*
X017019Y005139D01*
X017019Y005347D01*
X017099Y005540D01*
X017246Y005687D01*
X017439Y005767D01*
X018415Y005767D01*
X018607Y005687D01*
X018755Y005540D01*
X018786Y005463D01*
X020109Y005463D01*
X020768Y006122D01*
X020897Y006251D01*
X030444Y006251D01*
X032088Y007895D01*
X032088Y007964D01*
X032136Y008080D01*
X032225Y008169D01*
X032178Y008122D02*
X000530Y008122D01*
X000530Y008280D02*
X039280Y008280D01*
X039280Y008122D02*
X032633Y008122D01*
X032722Y007963D02*
X039280Y007963D01*
X039280Y007805D02*
X032709Y007805D01*
X032718Y007677D02*
X032628Y007588D01*
X032580Y007472D01*
X032580Y007402D01*
X030247Y005069D01*
X022330Y005069D01*
X022298Y005146D01*
X022151Y005294D01*
X021958Y005373D01*
X020982Y005373D01*
X020789Y005294D01*
X020642Y005146D01*
X020562Y004954D01*
X020562Y004745D01*
X020642Y004553D01*
X020789Y004405D01*
X020982Y004326D01*
X021958Y004326D01*
X022151Y004405D01*
X022298Y004553D01*
X022330Y004629D01*
X030429Y004629D01*
X032891Y007091D01*
X032960Y007091D01*
X033077Y007140D01*
X033166Y007229D01*
X033214Y007345D01*
X033214Y007472D01*
X033166Y007588D01*
X033077Y007677D01*
X032960Y007726D01*
X032834Y007726D01*
X032718Y007677D01*
X032686Y007646D02*
X032599Y007646D01*
X032587Y007488D02*
X032303Y007488D01*
X032145Y007329D02*
X032507Y007329D01*
X032348Y007171D02*
X031986Y007171D01*
X031828Y007012D02*
X032190Y007012D01*
X032031Y006854D02*
X031669Y006854D01*
X031511Y006695D02*
X031873Y006695D01*
X031714Y006537D02*
X031352Y006537D01*
X031194Y006378D02*
X031556Y006378D01*
X031397Y006220D02*
X031035Y006220D01*
X030877Y006061D02*
X031239Y006061D01*
X031080Y005903D02*
X030718Y005903D01*
X030535Y006031D02*
X032405Y007901D01*
X032088Y007963D02*
X000530Y007963D01*
X000530Y007805D02*
X031998Y007805D01*
X031839Y007646D02*
X000530Y007646D01*
X000530Y007488D02*
X031681Y007488D01*
X031522Y007329D02*
X000530Y007329D01*
X000530Y007171D02*
X031364Y007171D01*
X031205Y007012D02*
X000530Y007012D01*
X000530Y006854D02*
X031047Y006854D01*
X030888Y006695D02*
X000530Y006695D01*
X000530Y006537D02*
X030730Y006537D01*
X030571Y006378D02*
X000530Y006378D01*
X000530Y006220D02*
X020866Y006220D01*
X020707Y006061D02*
X000530Y006061D01*
X000530Y005903D02*
X020549Y005903D01*
X020390Y005744D02*
X018470Y005744D01*
X018709Y005586D02*
X020232Y005586D01*
X020200Y005243D02*
X020988Y006031D01*
X030535Y006031D01*
X030922Y005744D02*
X021012Y005744D01*
X020854Y005586D02*
X030763Y005586D01*
X030605Y005427D02*
X020695Y005427D01*
X020764Y005269D02*
X020537Y005269D01*
X020627Y005110D02*
X020378Y005110D01*
X020200Y005243D02*
X017543Y005243D01*
X017052Y005427D02*
X000530Y005427D01*
X000530Y005269D02*
X017019Y005269D01*
X017031Y005110D02*
X000530Y005110D01*
X000530Y004952D02*
X017097Y004952D01*
X017260Y004793D02*
X000530Y004793D01*
X000530Y004635D02*
X020608Y004635D01*
X020562Y004793D02*
X018593Y004793D01*
X018757Y004952D02*
X020562Y004952D01*
X020719Y004476D02*
X000530Y004476D01*
X000530Y004318D02*
X039280Y004318D01*
X039280Y004476D02*
X022221Y004476D01*
X022313Y005110D02*
X030288Y005110D01*
X030446Y005269D02*
X022176Y005269D01*
X021086Y004849D02*
X030338Y004849D01*
X032897Y007408D01*
X033108Y007171D02*
X039280Y007171D01*
X039280Y007329D02*
X033208Y007329D01*
X033208Y007488D02*
X039280Y007488D01*
X039280Y007646D02*
X033108Y007646D01*
X032812Y007012D02*
X039280Y007012D01*
X039280Y006854D02*
X032653Y006854D01*
X032495Y006695D02*
X039280Y006695D01*
X039280Y006537D02*
X032336Y006537D01*
X032178Y006378D02*
X039280Y006378D01*
X039280Y006220D02*
X032019Y006220D01*
X031861Y006061D02*
X039280Y006061D01*
X039280Y005903D02*
X031702Y005903D01*
X031544Y005744D02*
X039280Y005744D01*
X039280Y005586D02*
X031385Y005586D01*
X031227Y005427D02*
X039280Y005427D01*
X039280Y005269D02*
X031068Y005269D01*
X030910Y005110D02*
X039280Y005110D01*
X039280Y004952D02*
X030751Y004952D01*
X030593Y004793D02*
X039280Y004793D01*
X039280Y004635D02*
X030434Y004635D01*
X037638Y002641D02*
X037638Y002334D01*
X037755Y002050D01*
X037972Y001833D01*
X038256Y001716D01*
X038562Y001716D01*
X038846Y001833D01*
X039063Y002050D01*
X039180Y002334D01*
X039180Y002641D01*
X039063Y002924D01*
X038846Y003141D01*
X038562Y003259D01*
X038256Y003259D01*
X037972Y003141D01*
X037755Y002924D01*
X037638Y002641D01*
X037638Y002574D02*
X002172Y002574D01*
X002172Y002641D02*
X002172Y002334D01*
X002055Y002050D01*
X001838Y001833D01*
X001555Y001716D01*
X001248Y001716D01*
X000964Y001833D01*
X000747Y002050D01*
X000630Y002334D01*
X000630Y002641D01*
X000747Y002924D01*
X000964Y003141D01*
X001248Y003259D01*
X001555Y003259D01*
X001838Y003141D01*
X002055Y002924D01*
X002172Y002641D01*
X002134Y002733D02*
X037676Y002733D01*
X037741Y002891D02*
X002069Y002891D01*
X001930Y003050D02*
X037881Y003050D01*
X038134Y003208D02*
X001676Y003208D01*
X001126Y003208D02*
X000530Y003208D01*
X000530Y003050D02*
X000873Y003050D01*
X000734Y002891D02*
X000530Y002891D01*
X000530Y002733D02*
X000668Y002733D01*
X000630Y002574D02*
X000530Y002574D01*
X000530Y002416D02*
X000630Y002416D01*
X000662Y002257D02*
X000530Y002257D01*
X000530Y002099D02*
X000727Y002099D01*
X000857Y001940D02*
X000530Y001940D01*
X000530Y001782D02*
X001089Y001782D01*
X000530Y001623D02*
X039280Y001623D01*
X039280Y001782D02*
X038721Y001782D01*
X038953Y001940D02*
X039280Y001940D01*
X039280Y002099D02*
X039083Y002099D01*
X039149Y002257D02*
X039280Y002257D01*
X039280Y002416D02*
X039180Y002416D01*
X039180Y002574D02*
X039280Y002574D01*
X039280Y002733D02*
X039142Y002733D01*
X039077Y002891D02*
X039280Y002891D01*
X039280Y003050D02*
X038937Y003050D01*
X038684Y003208D02*
X039280Y003208D01*
X039280Y003367D02*
X000530Y003367D01*
X000530Y003525D02*
X039280Y003525D01*
X039280Y003684D02*
X000530Y003684D01*
X000530Y003842D02*
X039280Y003842D01*
X039280Y004001D02*
X000530Y004001D01*
X000530Y004159D02*
X039280Y004159D01*
X037638Y002416D02*
X002172Y002416D01*
X002141Y002257D02*
X037669Y002257D01*
X037735Y002099D02*
X002075Y002099D01*
X001945Y001940D02*
X037865Y001940D01*
X038097Y001782D02*
X001713Y001782D01*
X000530Y005586D02*
X017144Y005586D01*
X017383Y005744D02*
X000530Y005744D01*
X000530Y008439D02*
X015743Y008439D01*
X015815Y008409D02*
X015531Y008526D01*
X015314Y008743D01*
X015197Y009027D01*
X015197Y009334D01*
X015314Y009617D01*
X015531Y009834D01*
X015815Y009951D01*
X016121Y009951D01*
X016405Y009834D01*
X016622Y009617D01*
X016739Y009334D01*
X016739Y009027D01*
X016622Y008743D01*
X016405Y008526D01*
X016121Y008409D01*
X015815Y008409D01*
X016193Y008439D02*
X039280Y008439D01*
X039280Y008597D02*
X016476Y008597D01*
X016627Y008756D02*
X039280Y008756D01*
X039280Y008914D02*
X016693Y008914D01*
X016739Y009073D02*
X039280Y009073D01*
X039280Y009231D02*
X016739Y009231D01*
X016716Y009390D02*
X039280Y009390D01*
X039280Y009548D02*
X016650Y009548D01*
X016532Y009707D02*
X039280Y009707D01*
X039280Y009865D02*
X016330Y009865D01*
X015606Y009865D02*
X000530Y009865D01*
X000530Y009707D02*
X015404Y009707D01*
X015286Y009548D02*
X000530Y009548D01*
X000530Y009390D02*
X015220Y009390D01*
X015197Y009231D02*
X000530Y009231D01*
X000530Y009073D02*
X015197Y009073D01*
X015243Y008914D02*
X000530Y008914D01*
X000530Y008756D02*
X015309Y008756D01*
X015460Y008597D02*
X000530Y008597D01*
X000530Y010024D02*
X039280Y010024D01*
X039280Y010182D02*
X000530Y010182D01*
X000530Y010341D02*
X039280Y010341D01*
X039280Y010499D02*
X000530Y010499D01*
X000530Y010658D02*
X039280Y010658D01*
X039280Y010816D02*
X000530Y010816D01*
X000530Y010975D02*
X039280Y010975D01*
X039280Y011133D02*
X000530Y011133D01*
X000530Y011292D02*
X039280Y011292D01*
X039280Y011450D02*
X000530Y011450D01*
X000530Y011609D02*
X039280Y011609D01*
X039280Y011767D02*
X000530Y011767D01*
X000530Y011926D02*
X039280Y011926D01*
X039280Y012084D02*
X037113Y012084D01*
X037264Y012243D02*
X039280Y012243D01*
X039280Y012401D02*
X037330Y012401D01*
X037338Y012560D02*
X039280Y012560D01*
X039280Y012718D02*
X037302Y012718D01*
X037205Y012877D02*
X039280Y012877D01*
X039280Y013035D02*
X036956Y013035D01*
X035748Y012084D02*
X000530Y012084D01*
X000530Y017315D02*
X001912Y017315D01*
X001912Y017473D02*
X000530Y017473D01*
X000530Y017632D02*
X001912Y017632D01*
X001912Y017790D02*
X000530Y017790D01*
X000530Y017949D02*
X001912Y017949D01*
X001912Y018107D02*
X000530Y018107D01*
X000530Y018266D02*
X001912Y018266D01*
X001912Y018424D02*
X000530Y018424D01*
X004515Y019534D02*
X019200Y019534D01*
X024426Y021594D02*
X039280Y021594D01*
X039280Y021436D02*
X024504Y021436D01*
X023547Y024633D02*
X034177Y024633D01*
X034047Y024923D02*
X023676Y024923D01*
X029611Y027617D02*
X029617Y027617D01*
X031386Y030629D02*
X034527Y030629D01*
X034536Y030624D02*
X034811Y030550D01*
X035097Y030550D01*
X035373Y030624D01*
X035620Y030767D01*
X035822Y030969D01*
X035965Y031216D01*
X036039Y031492D01*
X036039Y031778D01*
X035965Y032054D01*
X035822Y032301D01*
X035620Y032503D01*
X035373Y032646D01*
X035097Y032720D01*
X034811Y032720D01*
X034536Y032646D01*
X034288Y032503D01*
X034086Y032301D01*
X033943Y032054D01*
X033869Y031778D01*
X033869Y031492D01*
X033943Y031216D01*
X034086Y030969D01*
X034288Y030767D01*
X034536Y030624D01*
X034268Y030787D02*
X031439Y030787D01*
X031439Y030946D02*
X034109Y030946D01*
X034008Y031104D02*
X031439Y031104D01*
X031439Y031263D02*
X033931Y031263D01*
X033888Y031421D02*
X031439Y031421D01*
X031439Y031580D02*
X033869Y031580D01*
X033869Y031738D02*
X033273Y031738D01*
X032935Y031738D02*
X031422Y031738D01*
X031351Y031897D02*
X032526Y031897D01*
X032330Y032055D02*
X031156Y032055D01*
X030701Y032055D02*
X030156Y032055D01*
X030351Y031897D02*
X030507Y031897D01*
X030435Y031738D02*
X030422Y031738D01*
X029701Y032055D02*
X018452Y032055D01*
X018452Y031897D02*
X029507Y031897D01*
X029435Y031738D02*
X018452Y031738D01*
X018452Y031580D02*
X029419Y031580D01*
X029419Y031421D02*
X018452Y031421D01*
X018452Y031263D02*
X029419Y031263D01*
X032107Y032372D02*
X018452Y032372D01*
X018452Y032214D02*
X032199Y032214D01*
X032057Y032531D02*
X018452Y032531D01*
X018452Y032689D02*
X032019Y032689D01*
X032019Y032848D02*
X018452Y032848D01*
X018452Y033006D02*
X032032Y033006D01*
X032074Y033165D02*
X018452Y033165D01*
X018452Y033323D02*
X032144Y033323D01*
X032235Y033482D02*
X018452Y033482D01*
X018452Y033640D02*
X032394Y033640D01*
X032636Y033799D02*
X024976Y033799D01*
X024819Y033799D02*
X024802Y033799D01*
X024802Y033771D02*
X024802Y034262D01*
X024311Y034262D01*
X024311Y034231D01*
X024323Y034154D01*
X024347Y034079D01*
X024383Y034009D01*
X024429Y033945D01*
X024485Y033889D01*
X024548Y033843D01*
X024619Y033807D01*
X024693Y033783D01*
X024771Y033771D01*
X024802Y033771D01*
X024645Y033799D02*
X022919Y033799D01*
X022911Y033791D02*
X023192Y034072D01*
X023192Y034251D01*
X022732Y034251D01*
X022732Y033791D01*
X022911Y033791D01*
X022732Y033799D02*
X022692Y033799D01*
X022692Y033957D02*
X022732Y033957D01*
X022732Y034116D02*
X022692Y034116D01*
X022692Y034274D02*
X022152Y034274D01*
X022152Y034116D02*
X022232Y034116D01*
X022152Y034088D02*
X021894Y033831D01*
X021530Y033831D01*
X021272Y034088D01*
X021272Y034453D01*
X021530Y034711D01*
X021894Y034711D01*
X022152Y034453D01*
X022152Y034088D01*
X022021Y033957D02*
X022347Y033957D01*
X022505Y033799D02*
X018452Y033799D01*
X019021Y033957D02*
X019403Y033957D01*
X019530Y033831D02*
X019272Y034088D01*
X019272Y034453D01*
X019530Y034711D01*
X019894Y034711D01*
X020152Y034453D01*
X020152Y034088D01*
X019894Y033831D01*
X019530Y033831D01*
X019272Y034116D02*
X019152Y034116D01*
X019152Y034274D02*
X019272Y034274D01*
X019272Y034433D02*
X019152Y034433D01*
X019014Y034591D02*
X019410Y034591D01*
X019513Y034791D02*
X019232Y035072D01*
X019232Y035251D01*
X019692Y035251D01*
X019692Y035291D01*
X019692Y035751D01*
X019513Y035751D01*
X019232Y035469D01*
X019232Y035291D01*
X019692Y035291D01*
X019732Y035291D01*
X019732Y035751D01*
X019911Y035751D01*
X020192Y035469D01*
X020192Y035291D01*
X019732Y035291D01*
X019732Y035251D01*
X020192Y035251D01*
X020192Y035072D01*
X019911Y034791D01*
X019732Y034791D01*
X019732Y035251D01*
X019692Y035251D01*
X019692Y034791D01*
X019513Y034791D01*
X019396Y034908D02*
X018972Y034908D01*
X019130Y035067D02*
X019237Y035067D01*
X019232Y035225D02*
X019152Y035225D01*
X019152Y035384D02*
X019232Y035384D01*
X019305Y035542D02*
X019063Y035542D01*
X018904Y035701D02*
X019463Y035701D01*
X019692Y035701D02*
X019732Y035701D01*
X019732Y035542D02*
X019692Y035542D01*
X019692Y035384D02*
X019732Y035384D01*
X019732Y035225D02*
X019692Y035225D01*
X019692Y035067D02*
X019732Y035067D01*
X019732Y034908D02*
X019692Y034908D01*
X020028Y034908D02*
X020452Y034908D01*
X020530Y034831D02*
X020894Y034831D01*
X021152Y035088D01*
X021152Y035453D01*
X020894Y035711D01*
X020530Y035711D01*
X020272Y035453D01*
X020272Y035088D01*
X020530Y034831D01*
X020530Y034711D02*
X020272Y034453D01*
X020272Y034088D01*
X020530Y033831D01*
X020894Y033831D01*
X021152Y034088D01*
X021152Y034453D01*
X020894Y034711D01*
X020530Y034711D01*
X020410Y034591D02*
X020014Y034591D01*
X020152Y034433D02*
X020272Y034433D01*
X020272Y034274D02*
X020152Y034274D01*
X020152Y034116D02*
X020272Y034116D01*
X020403Y033957D02*
X020021Y033957D01*
X021021Y033957D02*
X021403Y033957D01*
X021272Y034116D02*
X021152Y034116D01*
X021152Y034274D02*
X021272Y034274D01*
X021272Y034433D02*
X021152Y034433D01*
X021014Y034591D02*
X021410Y034591D01*
X021452Y034908D02*
X020972Y034908D01*
X021130Y035067D02*
X021294Y035067D01*
X021272Y035225D02*
X021152Y035225D01*
X021152Y035384D02*
X021272Y035384D01*
X021361Y035542D02*
X021063Y035542D01*
X020904Y035701D02*
X021520Y035701D01*
X020520Y035701D02*
X019961Y035701D01*
X020119Y035542D02*
X020361Y035542D01*
X020272Y035384D02*
X020192Y035384D01*
X020192Y035225D02*
X020272Y035225D01*
X020294Y035067D02*
X020187Y035067D01*
X018520Y035701D02*
X018452Y035701D01*
X018439Y035859D02*
X037638Y035859D01*
X037638Y036018D02*
X018280Y036018D01*
X018122Y036176D02*
X037667Y036176D01*
X037733Y036335D02*
X002077Y036335D01*
X001951Y036493D02*
X037860Y036493D01*
X038083Y036652D02*
X001727Y036652D01*
X001075Y036652D02*
X000530Y036652D01*
X000530Y036493D02*
X000852Y036493D01*
X000725Y036335D02*
X000530Y036335D01*
X000530Y036176D02*
X000659Y036176D01*
X000630Y036018D02*
X000530Y036018D01*
X000530Y035859D02*
X000630Y035859D01*
X000670Y035701D02*
X000530Y035701D01*
X000530Y035542D02*
X000736Y035542D01*
X000878Y035384D02*
X000530Y035384D01*
X000530Y035225D02*
X001140Y035225D01*
X000530Y035067D02*
X003294Y035067D01*
X003272Y035225D02*
X001663Y035225D01*
X001924Y035384D02*
X003272Y035384D01*
X003361Y035542D02*
X002066Y035542D01*
X017692Y035542D02*
X017732Y035542D01*
X017732Y035384D02*
X017692Y035384D01*
X017692Y035225D02*
X017732Y035225D01*
X017732Y035067D02*
X017692Y035067D01*
X017692Y034908D02*
X017732Y034908D01*
X017732Y035701D02*
X017692Y035701D01*
X017961Y035701D02*
X017975Y035701D01*
X022014Y034591D02*
X022354Y034591D01*
X022232Y034433D02*
X022152Y034433D01*
X022692Y034433D02*
X022732Y034433D01*
X022732Y034591D02*
X022692Y034591D01*
X022692Y034750D02*
X022732Y034750D01*
X023070Y034591D02*
X024425Y034591D01*
X024337Y034433D02*
X023192Y034433D01*
X023192Y034116D02*
X024335Y034116D01*
X024420Y033957D02*
X023077Y033957D01*
X022732Y034274D02*
X024802Y034274D01*
X024819Y034274D02*
X025351Y034274D01*
X025351Y034362D02*
X025351Y034179D01*
X025421Y034010D01*
X025550Y033881D01*
X025719Y033811D01*
X025902Y033811D01*
X026071Y033881D01*
X026201Y034010D01*
X026271Y034179D01*
X026271Y034362D01*
X026201Y034531D01*
X026071Y034661D01*
X025902Y034731D01*
X025719Y034731D01*
X025550Y034661D01*
X025421Y034531D01*
X025351Y034362D01*
X025380Y034433D02*
X025284Y034433D01*
X025196Y034591D02*
X025480Y034591D01*
X025550Y034881D02*
X025421Y035010D01*
X025351Y035179D01*
X025351Y035362D01*
X025421Y035531D01*
X025550Y035661D01*
X025719Y035731D01*
X025902Y035731D01*
X026071Y035661D01*
X026201Y035531D01*
X026271Y035362D01*
X026271Y035179D01*
X026201Y035010D01*
X026071Y034881D01*
X025902Y034811D01*
X025719Y034811D01*
X025550Y034881D01*
X025523Y034908D02*
X025099Y034908D01*
X025224Y035067D02*
X025397Y035067D01*
X025351Y035225D02*
X025271Y035225D01*
X025262Y035384D02*
X025359Y035384D01*
X025431Y035542D02*
X025190Y035542D01*
X024975Y035701D02*
X025647Y035701D01*
X025975Y035701D02*
X026647Y035701D01*
X026431Y035542D02*
X026190Y035542D01*
X026262Y035384D02*
X026359Y035384D01*
X026351Y035225D02*
X026271Y035225D01*
X026224Y035067D02*
X026397Y035067D01*
X026523Y034908D02*
X026099Y034908D01*
X026141Y034591D02*
X026480Y034591D01*
X026421Y034531D02*
X026351Y034362D01*
X026351Y034179D01*
X026421Y034010D01*
X026550Y033881D01*
X026719Y033811D01*
X026902Y033811D01*
X027071Y033881D01*
X027201Y034010D01*
X027271Y034179D01*
X027271Y034362D01*
X027201Y034531D01*
X027071Y034661D01*
X026902Y034731D01*
X026719Y034731D01*
X026550Y034661D01*
X026421Y034531D01*
X026380Y034433D02*
X026241Y034433D01*
X026271Y034274D02*
X026351Y034274D01*
X026377Y034116D02*
X026244Y034116D01*
X026148Y033957D02*
X026474Y033957D01*
X027148Y033957D02*
X034874Y033957D01*
X034874Y033799D02*
X035034Y033799D01*
X035034Y033878D02*
X035034Y032835D01*
X035143Y032847D01*
X035266Y032875D01*
X035385Y032917D01*
X035499Y032972D01*
X035606Y033039D01*
X035705Y033118D01*
X035794Y033207D01*
X035873Y033306D01*
X035940Y033413D01*
X035995Y033527D01*
X036037Y033646D01*
X036065Y033769D01*
X036077Y033878D01*
X035034Y033878D01*
X035034Y033957D02*
X039280Y033957D01*
X039280Y033799D02*
X036068Y033799D01*
X036035Y033640D02*
X039280Y033640D01*
X039280Y033482D02*
X035974Y033482D01*
X035884Y033323D02*
X039280Y033323D01*
X039280Y033165D02*
X035752Y033165D01*
X035554Y033006D02*
X039280Y033006D01*
X039280Y032848D02*
X035146Y032848D01*
X035034Y032848D02*
X034874Y032848D01*
X034762Y032848D02*
X034189Y032848D01*
X034176Y033006D02*
X034354Y033006D01*
X034156Y033165D02*
X034134Y033165D01*
X034189Y032689D02*
X034697Y032689D01*
X034874Y033006D02*
X035034Y033006D01*
X035034Y033165D02*
X034874Y033165D01*
X034874Y033323D02*
X035034Y033323D01*
X035034Y033482D02*
X034874Y033482D01*
X034874Y033640D02*
X035034Y033640D01*
X035034Y034116D02*
X034874Y034116D01*
X034874Y034274D02*
X035034Y034274D01*
X035034Y034433D02*
X034874Y034433D01*
X034874Y034591D02*
X035034Y034591D01*
X035034Y034750D02*
X034874Y034750D01*
X034874Y034908D02*
X035034Y034908D01*
X035556Y034908D02*
X039280Y034908D01*
X039280Y034750D02*
X035753Y034750D01*
X035885Y034591D02*
X039280Y034591D01*
X039280Y034433D02*
X035974Y034433D01*
X036035Y034274D02*
X039280Y034274D01*
X039280Y034116D02*
X036068Y034116D01*
X035572Y032531D02*
X039280Y032531D01*
X039280Y032689D02*
X035211Y032689D01*
X035751Y032372D02*
X039280Y032372D01*
X039280Y032214D02*
X035873Y032214D01*
X035964Y032055D02*
X039280Y032055D01*
X039280Y031897D02*
X038873Y031897D01*
X039088Y031738D02*
X039280Y031738D01*
X039280Y031580D02*
X039168Y031580D01*
X039191Y031421D02*
X039280Y031421D01*
X039280Y031263D02*
X039166Y031263D01*
X039082Y031104D02*
X039280Y031104D01*
X039280Y030946D02*
X038858Y030946D01*
X039095Y030787D02*
X039280Y030787D01*
X039280Y030629D02*
X039192Y030629D01*
X039230Y030470D02*
X039280Y030470D01*
X039231Y030394D02*
X038341Y030394D01*
X038341Y029874D01*
X038724Y029874D01*
X038809Y029888D01*
X038892Y029915D01*
X038969Y029954D01*
X039039Y030005D01*
X039100Y030066D01*
X039151Y030136D01*
X039190Y030213D01*
X039217Y030295D01*
X039231Y030381D01*
X039231Y030394D01*
X039220Y030312D02*
X039280Y030312D01*
X039280Y030153D02*
X039160Y030153D01*
X039280Y029995D02*
X039025Y029995D01*
X038341Y029995D02*
X038281Y029995D01*
X038281Y030153D02*
X038341Y030153D01*
X038341Y030312D02*
X038281Y030312D01*
X037763Y030946D02*
X035799Y030946D01*
X035901Y031104D02*
X037539Y031104D01*
X037455Y031263D02*
X035978Y031263D01*
X036020Y031421D02*
X037431Y031421D01*
X037453Y031580D02*
X036039Y031580D01*
X036039Y031738D02*
X037533Y031738D01*
X037748Y031897D02*
X036007Y031897D01*
X035641Y030787D02*
X037526Y030787D01*
X037429Y030629D02*
X035381Y030629D01*
X033901Y031897D02*
X033681Y031897D01*
X033877Y032055D02*
X033944Y032055D01*
X034009Y032214D02*
X034036Y032214D01*
X034100Y032372D02*
X034157Y032372D01*
X034151Y032531D02*
X034336Y032531D01*
X033874Y033640D02*
X033814Y033640D01*
X033840Y033799D02*
X033572Y033799D01*
X033840Y034116D02*
X027244Y034116D01*
X027271Y034274D02*
X033873Y034274D01*
X033934Y034433D02*
X027241Y034433D01*
X027141Y034591D02*
X034024Y034591D01*
X037678Y035701D02*
X026975Y035701D01*
X027190Y035542D02*
X037744Y035542D01*
X037886Y035384D02*
X027262Y035384D01*
X027271Y035225D02*
X038148Y035225D01*
X025474Y033957D02*
X025201Y033957D01*
X025286Y034116D02*
X025377Y034116D01*
X024819Y034116D02*
X024802Y034116D01*
X024802Y033957D02*
X024819Y033957D01*
X024802Y034433D02*
X024819Y034433D01*
X024802Y034591D02*
X024819Y034591D01*
X037018Y021277D02*
X039280Y021277D01*
X039280Y021119D02*
X037231Y021119D01*
X037313Y020960D02*
X039280Y020960D01*
X039280Y020802D02*
X037338Y020802D01*
X037319Y020643D02*
X039280Y020643D01*
X039280Y020485D02*
X037246Y020485D01*
D18*
X038409Y020991D03*
X035456Y018235D03*
X031372Y015725D03*
X030535Y018826D03*
X027681Y017546D03*
X026795Y018432D03*
X027631Y020351D03*
X024187Y021385D03*
X023547Y024633D03*
X020496Y023058D03*
X019511Y022271D03*
X018675Y020524D03*
X018872Y017103D03*
X016165Y016464D03*
X013261Y014840D03*
X015230Y011198D03*
X017297Y012379D03*
X022218Y016021D03*
X023547Y018137D03*
X031076Y011690D03*
X029895Y010410D03*
X032405Y007901D03*
X032897Y007408D03*
X038409Y005243D03*
X038409Y012330D03*
X034669Y013216D03*
X029354Y002487D03*
X021086Y002487D03*
X011637Y002487D03*
X004157Y002487D03*
X002582Y018235D03*
X004354Y019810D03*
X004206Y022221D03*
X006962Y022221D03*
X007946Y023403D03*
X006027Y026700D03*
X004255Y026109D03*
X007011Y029357D03*
X008586Y032113D03*
X005929Y033196D03*
X002189Y034771D03*
X012326Y026700D03*
X014196Y030834D03*
X016755Y032802D03*
X021677Y027881D03*
X019118Y026109D03*
X023842Y035952D03*
X031765Y028914D03*
X034177Y024633D03*
X038409Y027684D03*
X038015Y034377D03*
X032503Y035952D03*
D19*
X032750Y023009D03*
X032750Y019466D03*
X032750Y009820D03*
D20*
X012740Y017842D02*
X002976Y017842D01*
X002582Y018235D01*
D21*
X006273Y033737D02*
X006175Y033836D01*
X006175Y034733D01*
X006273Y034832D01*
D22*
X027681Y017645D02*
X028468Y018432D01*
X030437Y018432D01*
X031322Y017546D01*
X034964Y017546D01*
X035456Y018038D01*
M02*
