%
M48
M72
T01C0.0100
T02C0.0157
T03C0.0197
T04C0.0236
T05C0.0400
T06C0.0551
T07C0.0700
T08C0.0787
T09C0.0866
T10C0.1260
T11C0.1661
%
T01
X10633Y22444
X10633Y22719
X10908Y22719
X10913Y22444
T02
X11105Y21479
T03
X7444Y3029
X9402Y1814
X12306Y1715
X14107Y2493
X12747Y3983
X14431Y4325
X15574Y4397
X16715Y4314
X15999Y5582
X14486Y6003
X12011Y8245
X11056Y8251
X11774Y9589
X13782Y8920
X15456Y8448
X15711Y9589
X18034Y6906
X21837Y9967
X23546Y9393
X25436Y7424
X26368Y10110
X26398Y12329
X23487Y15141
X26398Y15528
X26307Y17333
X22208Y18113
X19836Y16125
X18728Y13761
X19748Y12492
X16952Y18290
X16322Y19334
X15042Y18556
X14137Y19629
X13428Y18950
X12286Y18556
X11794Y20249
X12739Y20534
X12385Y21440
X12532Y22119
X13802Y22119
X13787Y22916
X12503Y23566
X10771Y23487
X10763Y23956
X10723Y25113
X10723Y26392
X8194Y25780
X5857Y24406
X8088Y23717
X8924Y23015
X14944Y20692
X15534Y21243
X16765Y22080
X17700Y22424
X16617Y22965
X15731Y23704
X15780Y24393
X17306Y23900
X18143Y25426
X19274Y25495
X22380Y24028
X19388Y22257
X8822Y15889
X9019Y15101
X7611Y15790
X6578Y14816
X6430Y13192
X5593Y11912
X2293Y11556
X2539Y9484
X9019Y12936
X5042Y16774
X5295Y18131
X2365Y18226
X2365Y16351
X2490Y20351
X10111Y6897
X10155Y4983
X17523Y1765
X20639Y2746
X22129Y3694
T04
X17404Y10593
X19471Y23408
T05
X14960Y25074
X13960Y25074
X12960Y25074
X12960Y26074
X13960Y26074
X14960Y26074
T06
X21243Y15534
X20849Y13960
X21243Y12385
T07
X20560Y6676
X23560Y6676
X7360Y6676
X4360Y6676
X4360Y21243
X7360Y21243
X20560Y21243
X23560Y21243
T08
X23999Y17208
X23999Y10711
T09
X25623Y19245
T10
X18818Y11154
X9101Y11154
X6086Y10416
T11
X8645Y8645
X3920Y13960
X8645Y19274
X19274Y19274
X19274Y8645
M30
