G75*
%MOIN*%
%OFA0B0*%
%FSLAX24Y24*%
%IPPOS*%
%LPD*%
%AMOC8*
5,1,8,0,0,1.08239X$1,22.5*
%
%ADD10C,0.0320*%
%ADD11C,0.0100*%
%ADD12C,0.0060*%
%ADD13C,0.0080*%
%ADD14C,0.0039*%
%ADD15C,0.0050*%
%ADD16C,0.0006*%
D10*
X015570Y025036D02*
X015572Y025063D01*
X015578Y025090D01*
X015587Y025116D01*
X015600Y025140D01*
X015616Y025163D01*
X015635Y025182D01*
X015657Y025199D01*
X015681Y025213D01*
X015706Y025223D01*
X015733Y025230D01*
X015760Y025233D01*
X015788Y025232D01*
X015815Y025227D01*
X015841Y025219D01*
X015865Y025207D01*
X015888Y025191D01*
X015909Y025173D01*
X015926Y025152D01*
X015941Y025128D01*
X015952Y025103D01*
X015960Y025077D01*
X015964Y025050D01*
X015964Y025022D01*
X015960Y024995D01*
X015952Y024969D01*
X015941Y024944D01*
X015926Y024920D01*
X015909Y024899D01*
X015888Y024881D01*
X015866Y024865D01*
X015841Y024853D01*
X015815Y024845D01*
X015788Y024840D01*
X015760Y024839D01*
X015733Y024842D01*
X015706Y024849D01*
X015681Y024859D01*
X015657Y024873D01*
X015635Y024890D01*
X015616Y024909D01*
X015600Y024932D01*
X015587Y024956D01*
X015578Y024982D01*
X015572Y025009D01*
X015570Y025036D01*
D11*
X024442Y022424D02*
X024442Y022153D01*
X025426Y017847D02*
X025869Y017847D01*
X013221Y004368D02*
X013223Y004390D01*
X013229Y004412D01*
X013238Y004432D01*
X013251Y004450D01*
X013267Y004466D01*
X013285Y004479D01*
X013305Y004488D01*
X013327Y004494D01*
X013349Y004496D01*
X013371Y004494D01*
X013393Y004488D01*
X013413Y004479D01*
X013431Y004466D01*
X013447Y004450D01*
X013460Y004432D01*
X013469Y004412D01*
X013475Y004390D01*
X013477Y004368D01*
X013475Y004346D01*
X013469Y004324D01*
X013460Y004304D01*
X013447Y004286D01*
X013431Y004270D01*
X013413Y004257D01*
X013393Y004248D01*
X013371Y004242D01*
X013349Y004240D01*
X013327Y004242D01*
X013305Y004248D01*
X013285Y004257D01*
X013267Y004270D01*
X013251Y004286D01*
X013238Y004304D01*
X013229Y004324D01*
X013223Y004346D01*
X013221Y004368D01*
X018339Y002099D02*
X018782Y002099D01*
D12*
X019265Y002240D02*
X019308Y002196D01*
X019395Y002196D01*
X019439Y002240D01*
X019560Y002326D02*
X019733Y002326D01*
X019690Y002196D02*
X019690Y002456D01*
X019560Y002326D01*
X019439Y002413D02*
X019395Y002456D01*
X019308Y002456D01*
X019265Y002413D01*
X019265Y002240D01*
X019854Y002240D02*
X019898Y002196D01*
X019985Y002196D01*
X020028Y002240D01*
X020028Y002413D01*
X019854Y002240D01*
X019854Y002413D01*
X019898Y002456D01*
X019985Y002456D01*
X020028Y002413D01*
X016765Y002363D02*
X016592Y002363D01*
X016678Y002363D02*
X016678Y002623D01*
X016592Y002536D01*
X016470Y002536D02*
X016470Y002580D01*
X016427Y002623D01*
X016340Y002623D01*
X016297Y002580D01*
X016176Y002580D02*
X016132Y002623D01*
X016046Y002623D01*
X016002Y002580D01*
X016002Y002406D01*
X016046Y002363D01*
X016132Y002363D01*
X016176Y002406D01*
X016297Y002363D02*
X016470Y002536D01*
X016470Y002363D02*
X016297Y002363D01*
X015320Y002346D02*
X015146Y002346D01*
X015233Y002346D02*
X015233Y002606D01*
X015146Y002519D01*
X015025Y002519D02*
X015025Y002563D01*
X014982Y002606D01*
X014895Y002606D01*
X014852Y002563D01*
X014730Y002563D02*
X014730Y002476D01*
X014687Y002433D01*
X014557Y002433D01*
X014644Y002433D02*
X014730Y002346D01*
X014852Y002346D02*
X015025Y002519D01*
X015025Y002346D02*
X014852Y002346D01*
X014730Y002563D02*
X014687Y002606D01*
X014557Y002606D01*
X014557Y002346D01*
X014510Y003272D02*
X014510Y003532D01*
X014640Y003532D01*
X014684Y003489D01*
X014684Y003402D01*
X014640Y003359D01*
X014510Y003359D01*
X014597Y003359D02*
X014684Y003272D01*
X014805Y003272D02*
X014978Y003445D01*
X014978Y003489D01*
X014935Y003532D01*
X014848Y003532D01*
X014805Y003489D01*
X014805Y003272D02*
X014978Y003272D01*
X015100Y003272D02*
X015273Y003445D01*
X015273Y003489D01*
X015230Y003532D01*
X015143Y003532D01*
X015100Y003489D01*
X015100Y003272D02*
X015273Y003272D01*
X015959Y003326D02*
X015959Y003500D01*
X016002Y003543D01*
X016089Y003543D01*
X016132Y003500D01*
X016253Y003500D02*
X016297Y003543D01*
X016383Y003543D01*
X016427Y003500D01*
X016427Y003456D01*
X016253Y003283D01*
X016427Y003283D01*
X016548Y003283D02*
X016721Y003456D01*
X016721Y003500D01*
X016678Y003543D01*
X016591Y003543D01*
X016548Y003500D01*
X016548Y003283D02*
X016721Y003283D01*
X016132Y003326D02*
X016089Y003283D01*
X016002Y003283D01*
X015959Y003326D01*
X014188Y004135D02*
X014188Y005108D01*
X014187Y005108D02*
X014186Y005125D01*
X014181Y005142D01*
X014174Y005157D01*
X014164Y005171D01*
X014152Y005183D01*
X014138Y005193D01*
X014123Y005200D01*
X014106Y005205D01*
X014089Y005206D01*
X014093Y005206D02*
X013125Y005206D01*
X013023Y005108D02*
X013023Y004139D01*
X013125Y004037D02*
X014093Y004037D01*
X014089Y004037D02*
X014106Y004038D01*
X014123Y004043D01*
X014138Y004050D01*
X014152Y004060D01*
X014164Y004072D01*
X014174Y004086D01*
X014181Y004101D01*
X014186Y004118D01*
X014187Y004135D01*
X015640Y004777D02*
X015640Y005037D01*
X015770Y005037D01*
X015814Y004994D01*
X015814Y004907D01*
X015770Y004864D01*
X015640Y004864D01*
X015727Y004864D02*
X015814Y004777D01*
X015935Y004777D02*
X016108Y004950D01*
X016108Y004994D01*
X016065Y005037D01*
X015978Y005037D01*
X015935Y004994D01*
X015935Y004777D02*
X016108Y004777D01*
X016229Y004820D02*
X016273Y004777D01*
X016359Y004777D01*
X016403Y004820D01*
X016403Y004864D01*
X016359Y004907D01*
X016316Y004907D01*
X016359Y004907D02*
X016403Y004950D01*
X016403Y004994D01*
X016359Y005037D01*
X016273Y005037D01*
X016229Y004994D01*
X016286Y006211D02*
X016112Y006211D01*
X016286Y006385D01*
X016286Y006428D01*
X016243Y006471D01*
X016156Y006471D01*
X016112Y006428D01*
X015991Y006428D02*
X015991Y006341D01*
X015948Y006298D01*
X015818Y006298D01*
X015905Y006298D02*
X015991Y006211D01*
X015818Y006211D02*
X015818Y006471D01*
X015948Y006471D01*
X015991Y006428D01*
X016407Y006471D02*
X016407Y006341D01*
X016494Y006385D01*
X016537Y006385D01*
X016581Y006341D01*
X016581Y006255D01*
X016537Y006211D01*
X016450Y006211D01*
X016407Y006255D01*
X016407Y006471D02*
X016581Y006471D01*
X015036Y007841D02*
X015036Y008101D01*
X014906Y007971D01*
X015080Y007971D01*
X014785Y008014D02*
X014785Y008058D01*
X014742Y008101D01*
X014655Y008101D01*
X014611Y008058D01*
X014490Y008058D02*
X014447Y008101D01*
X014360Y008101D01*
X014317Y008058D01*
X014317Y007884D01*
X014360Y007841D01*
X014447Y007841D01*
X014490Y007884D01*
X014611Y007841D02*
X014785Y008014D01*
X014785Y007841D02*
X014611Y007841D01*
X014147Y007902D02*
X014104Y007858D01*
X014017Y007858D01*
X013974Y007902D01*
X014061Y007989D02*
X014104Y007989D01*
X014147Y007945D01*
X014147Y007902D01*
X014104Y007989D02*
X014147Y008032D01*
X014147Y008075D01*
X014104Y008119D01*
X014017Y008119D01*
X013974Y008075D01*
X013853Y008075D02*
X013809Y008119D01*
X013723Y008119D01*
X013679Y008075D01*
X013558Y008075D02*
X013515Y008119D01*
X013428Y008119D01*
X013385Y008075D01*
X013385Y007902D01*
X013428Y007858D01*
X013515Y007858D01*
X013558Y007902D01*
X013679Y007858D02*
X013853Y008032D01*
X013853Y008075D01*
X013853Y007858D02*
X013679Y007858D01*
X013190Y007902D02*
X013146Y007859D01*
X013060Y007859D01*
X013016Y007902D01*
X013016Y007989D02*
X013103Y008032D01*
X013146Y008032D01*
X013190Y007989D01*
X013190Y007902D01*
X013016Y007989D02*
X013016Y008119D01*
X013190Y008119D01*
X012895Y008075D02*
X012852Y008119D01*
X012765Y008119D01*
X012722Y008075D01*
X012601Y008075D02*
X012557Y008119D01*
X012470Y008119D01*
X012427Y008075D01*
X012427Y007902D01*
X012470Y007859D01*
X012557Y007859D01*
X012601Y007902D01*
X012722Y007859D02*
X012895Y008032D01*
X012895Y008075D01*
X012895Y007859D02*
X012722Y007859D01*
X011460Y006485D02*
X011374Y006442D01*
X011287Y006355D01*
X011417Y006355D01*
X011460Y006312D01*
X011460Y006268D01*
X011417Y006225D01*
X011330Y006225D01*
X011287Y006268D01*
X011287Y006355D01*
X011166Y006399D02*
X011166Y006442D01*
X011122Y006485D01*
X011036Y006485D01*
X010992Y006442D01*
X010871Y006442D02*
X010871Y006355D01*
X010828Y006312D01*
X010698Y006312D01*
X010784Y006312D02*
X010871Y006225D01*
X010992Y006225D02*
X011166Y006399D01*
X011166Y006225D02*
X010992Y006225D01*
X010871Y006442D02*
X010828Y006485D01*
X010698Y006485D01*
X010698Y006225D01*
X011960Y002440D02*
X011917Y002397D01*
X011917Y002223D01*
X011960Y002180D01*
X012047Y002180D01*
X012090Y002223D01*
X012211Y002180D02*
X012385Y002353D01*
X012385Y002397D01*
X012341Y002440D01*
X012255Y002440D01*
X012211Y002397D01*
X012090Y002397D02*
X012047Y002440D01*
X011960Y002440D01*
X012211Y002180D02*
X012385Y002180D01*
X012506Y002223D02*
X012679Y002397D01*
X012679Y002223D01*
X012636Y002180D01*
X012549Y002180D01*
X012506Y002223D01*
X012506Y002397D01*
X012549Y002440D01*
X012636Y002440D01*
X012679Y002397D01*
X024884Y008085D02*
X025204Y008085D01*
X025204Y008305D01*
X025204Y008985D02*
X025204Y009205D01*
X024884Y009205D01*
X024868Y009379D02*
X024868Y009640D01*
X025041Y009640D01*
X025162Y009640D02*
X025162Y009379D01*
X025336Y009379D01*
X025249Y009509D02*
X025162Y009509D01*
X025162Y009640D02*
X025336Y009640D01*
X025457Y009640D02*
X025631Y009640D01*
X025544Y009640D02*
X025544Y009379D01*
X025752Y009379D02*
X025925Y009379D01*
X025839Y009379D02*
X025839Y009640D01*
X025752Y009553D01*
X024955Y009509D02*
X024868Y009509D01*
X024916Y018143D02*
X025046Y018143D01*
X025090Y018186D01*
X025090Y018360D01*
X025046Y018403D01*
X024916Y018403D01*
X024916Y018143D01*
X024795Y018143D02*
X024622Y018143D01*
X024622Y018403D01*
X024795Y018403D01*
X024708Y018273D02*
X024622Y018273D01*
X024501Y018143D02*
X024327Y018143D01*
X024327Y018403D01*
X018149Y021602D02*
X016139Y021602D01*
X016133Y020091D02*
X016176Y020048D01*
X016176Y020005D01*
X016133Y019961D01*
X016176Y019918D01*
X016176Y019875D01*
X016133Y019831D01*
X016046Y019831D01*
X016003Y019875D01*
X015882Y019875D02*
X015838Y019831D01*
X015751Y019831D01*
X015708Y019875D01*
X015587Y019875D02*
X015544Y019831D01*
X015457Y019831D01*
X015413Y019875D01*
X015413Y020048D01*
X015457Y020091D01*
X015544Y020091D01*
X015587Y020048D01*
X015708Y020048D02*
X015751Y020091D01*
X015838Y020091D01*
X015882Y020048D01*
X015882Y020005D01*
X015838Y019961D01*
X015882Y019918D01*
X015882Y019875D01*
X015838Y019961D02*
X015795Y019961D01*
X016003Y020048D02*
X016046Y020091D01*
X016133Y020091D01*
X016133Y019961D02*
X016089Y019961D01*
X016680Y019883D02*
X016724Y019840D01*
X016811Y019840D01*
X016854Y019883D01*
X016975Y019883D02*
X017018Y019840D01*
X017105Y019840D01*
X017149Y019883D01*
X017149Y019927D01*
X017105Y019970D01*
X017062Y019970D01*
X017105Y019970D02*
X017149Y020013D01*
X017149Y020057D01*
X017105Y020100D01*
X017018Y020100D01*
X016975Y020057D01*
X016854Y020057D02*
X016811Y020100D01*
X016724Y020100D01*
X016680Y020057D01*
X016680Y019883D01*
X017270Y019840D02*
X017443Y020013D01*
X017443Y020057D01*
X017400Y020100D01*
X017313Y020100D01*
X017270Y020057D01*
X017270Y019840D02*
X017443Y019840D01*
X013893Y019913D02*
X013849Y019869D01*
X013763Y019869D01*
X013719Y019913D01*
X013719Y019956D01*
X013763Y020000D01*
X013849Y020000D01*
X013893Y019956D01*
X013893Y019913D01*
X013849Y020000D02*
X013893Y020043D01*
X013893Y020086D01*
X013849Y020130D01*
X013763Y020130D01*
X013719Y020086D01*
X013719Y020043D01*
X013763Y020000D01*
X013598Y020086D02*
X013555Y020130D01*
X013468Y020130D01*
X013425Y020086D01*
X013425Y019913D01*
X013468Y019869D01*
X013555Y019869D01*
X013598Y019913D01*
X010040Y022493D02*
X009867Y022493D01*
X009954Y022493D02*
X009954Y022754D01*
X009867Y022667D01*
X009746Y022754D02*
X009746Y022537D01*
X009702Y022493D01*
X009616Y022493D01*
X009572Y022537D01*
X009572Y022754D01*
X008912Y023576D02*
X008739Y023576D01*
X008912Y023750D01*
X008912Y023793D01*
X008869Y023836D01*
X008782Y023836D01*
X008739Y023793D01*
X008618Y023793D02*
X008574Y023836D01*
X008488Y023836D01*
X008444Y023793D01*
X008444Y023620D01*
X008488Y023576D01*
X008574Y023576D01*
X008618Y023620D01*
X008602Y024964D02*
X008429Y025224D01*
X008602Y025224D02*
X008429Y024964D01*
X008723Y024964D02*
X008897Y024964D01*
X008810Y024964D02*
X008810Y025224D01*
X008723Y025137D01*
X012259Y024452D02*
X012259Y024279D01*
X012303Y024236D01*
X012389Y024236D01*
X012433Y024279D01*
X012554Y024236D02*
X012727Y024236D01*
X012641Y024236D02*
X012641Y024496D01*
X012554Y024409D01*
X012433Y024452D02*
X012389Y024496D01*
X012303Y024496D01*
X012259Y024452D01*
X012371Y024035D02*
X012328Y023992D01*
X012328Y023818D01*
X012371Y023775D01*
X012458Y023775D01*
X012502Y023818D01*
X012623Y023775D02*
X012796Y023775D01*
X012710Y023775D02*
X012710Y024035D01*
X012623Y023948D01*
X012502Y023992D02*
X012458Y024035D01*
X012371Y024035D01*
X012849Y024236D02*
X013022Y024236D01*
X012935Y024236D02*
X012935Y024496D01*
X012849Y024409D01*
X012954Y023165D02*
X012911Y023122D01*
X012911Y022948D01*
X012954Y022905D01*
X013041Y022905D01*
X013084Y022948D01*
X013205Y022948D02*
X013249Y022905D01*
X013336Y022905D01*
X013379Y022948D01*
X013379Y022992D01*
X013336Y023035D01*
X013292Y023035D01*
X013336Y023035D02*
X013379Y023078D01*
X013379Y023122D01*
X013336Y023165D01*
X013249Y023165D01*
X013205Y023122D01*
X013084Y023122D02*
X013041Y023165D01*
X012954Y023165D01*
X016139Y023462D02*
X018149Y023462D01*
X017005Y023669D02*
X017005Y023886D01*
X016832Y023886D02*
X016832Y023669D01*
X016875Y023625D01*
X016962Y023625D01*
X017005Y023669D01*
X016711Y023669D02*
X016667Y023625D01*
X016581Y023625D01*
X016537Y023669D01*
X016537Y023842D01*
X016581Y023886D01*
X016667Y023886D01*
X016711Y023842D01*
X016416Y023886D02*
X016416Y023625D01*
X016243Y023625D02*
X016243Y023886D01*
X016329Y023799D01*
X016416Y023886D01*
X008701Y021942D02*
X008527Y021942D01*
X008614Y021942D02*
X008614Y022203D01*
X008527Y022116D01*
X008406Y021942D02*
X008233Y021942D01*
X008233Y022203D01*
X006990Y017744D02*
X007217Y017518D01*
X007061Y017363D01*
X006580Y016882D02*
X006425Y016726D01*
X006198Y016952D01*
X006877Y016617D02*
X006877Y016357D01*
X007007Y016357D01*
X007050Y016400D01*
X007050Y016574D01*
X007007Y016617D01*
X006877Y016617D01*
X007172Y016530D02*
X007258Y016617D01*
X007258Y016357D01*
X007172Y016357D02*
X007345Y016357D01*
D13*
X010337Y021932D02*
X010121Y022149D01*
X010121Y023015D02*
X010121Y023231D01*
X010337Y023231D01*
X011204Y023231D02*
X011420Y023231D01*
X011420Y023015D01*
X011420Y022149D02*
X011420Y021932D01*
X011204Y021932D01*
X017772Y021822D02*
X017774Y021837D01*
X017780Y021850D01*
X017789Y021862D01*
X017800Y021871D01*
X017814Y021877D01*
X017829Y021879D01*
X017844Y021877D01*
X017857Y021871D01*
X017869Y021862D01*
X017878Y021851D01*
X017884Y021837D01*
X017886Y021822D01*
X017884Y021807D01*
X017878Y021794D01*
X017869Y021782D01*
X017858Y021773D01*
X017844Y021767D01*
X017829Y021765D01*
X017814Y021767D01*
X017801Y021773D01*
X017789Y021782D01*
X017780Y021793D01*
X017774Y021807D01*
X017772Y021822D01*
D14*
X020751Y013960D02*
X020753Y014073D01*
X020759Y014187D01*
X020769Y014300D01*
X020783Y014412D01*
X020800Y014524D01*
X020822Y014635D01*
X020847Y014746D01*
X020877Y014855D01*
X020910Y014964D01*
X020947Y015071D01*
X020988Y015177D01*
X021032Y015281D01*
X021080Y015384D01*
X021131Y015485D01*
X021186Y015584D01*
X021245Y015681D01*
X021306Y015776D01*
X021371Y015869D01*
X021440Y015960D01*
X021511Y016048D01*
X021585Y016133D01*
X021663Y016216D01*
X021743Y016296D01*
X021826Y016374D01*
X021911Y016448D01*
X021999Y016519D01*
X022090Y016588D01*
X022183Y016653D01*
X022278Y016714D01*
X022375Y016773D01*
X022474Y016828D01*
X022575Y016879D01*
X022678Y016927D01*
X022782Y016971D01*
X022888Y017012D01*
X022995Y017049D01*
X023104Y017082D01*
X023213Y017112D01*
X023324Y017137D01*
X023435Y017159D01*
X023547Y017176D01*
X023659Y017190D01*
X023772Y017200D01*
X023886Y017206D01*
X023999Y017208D01*
X024112Y017206D01*
X024226Y017200D01*
X024339Y017190D01*
X024451Y017176D01*
X024563Y017159D01*
X024674Y017137D01*
X024785Y017112D01*
X024894Y017082D01*
X025003Y017049D01*
X025110Y017012D01*
X025216Y016971D01*
X025320Y016927D01*
X025423Y016879D01*
X025524Y016828D01*
X025623Y016773D01*
X025720Y016714D01*
X025815Y016653D01*
X025908Y016588D01*
X025999Y016519D01*
X026087Y016448D01*
X026172Y016374D01*
X026255Y016296D01*
X026335Y016216D01*
X026413Y016133D01*
X026487Y016048D01*
X026558Y015960D01*
X026627Y015869D01*
X026692Y015776D01*
X026753Y015681D01*
X026812Y015584D01*
X026867Y015485D01*
X026918Y015384D01*
X026966Y015281D01*
X027010Y015177D01*
X027051Y015071D01*
X027088Y014964D01*
X027121Y014855D01*
X027151Y014746D01*
X027176Y014635D01*
X027198Y014524D01*
X027215Y014412D01*
X027229Y014300D01*
X027239Y014187D01*
X027245Y014073D01*
X027247Y013960D01*
X027245Y013847D01*
X027239Y013733D01*
X027229Y013620D01*
X027215Y013508D01*
X027198Y013396D01*
X027176Y013285D01*
X027151Y013174D01*
X027121Y013065D01*
X027088Y012956D01*
X027051Y012849D01*
X027010Y012743D01*
X026966Y012639D01*
X026918Y012536D01*
X026867Y012435D01*
X026812Y012336D01*
X026753Y012239D01*
X026692Y012144D01*
X026627Y012051D01*
X026558Y011960D01*
X026487Y011872D01*
X026413Y011787D01*
X026335Y011704D01*
X026255Y011624D01*
X026172Y011546D01*
X026087Y011472D01*
X025999Y011401D01*
X025908Y011332D01*
X025815Y011267D01*
X025720Y011206D01*
X025623Y011147D01*
X025524Y011092D01*
X025423Y011041D01*
X025320Y010993D01*
X025216Y010949D01*
X025110Y010908D01*
X025003Y010871D01*
X024894Y010838D01*
X024785Y010808D01*
X024674Y010783D01*
X024563Y010761D01*
X024451Y010744D01*
X024339Y010730D01*
X024226Y010720D01*
X024112Y010714D01*
X023999Y010712D01*
X023886Y010714D01*
X023772Y010720D01*
X023659Y010730D01*
X023547Y010744D01*
X023435Y010761D01*
X023324Y010783D01*
X023213Y010808D01*
X023104Y010838D01*
X022995Y010871D01*
X022888Y010908D01*
X022782Y010949D01*
X022678Y010993D01*
X022575Y011041D01*
X022474Y011092D01*
X022375Y011147D01*
X022278Y011206D01*
X022183Y011267D01*
X022090Y011332D01*
X021999Y011401D01*
X021911Y011472D01*
X021826Y011546D01*
X021743Y011624D01*
X021663Y011704D01*
X021585Y011787D01*
X021511Y011872D01*
X021440Y011960D01*
X021371Y012051D01*
X021306Y012144D01*
X021245Y012239D01*
X021186Y012336D01*
X021131Y012435D01*
X021080Y012536D01*
X021032Y012639D01*
X020988Y012743D01*
X020947Y012849D01*
X020910Y012956D01*
X020877Y013065D01*
X020847Y013174D01*
X020822Y013285D01*
X020800Y013396D01*
X020783Y013508D01*
X020769Y013620D01*
X020759Y013733D01*
X020753Y013847D01*
X020751Y013960D01*
D15*
X006578Y011400D02*
X006578Y006578D01*
X021341Y006578D01*
X021341Y011400D01*
X023999Y011400D01*
X024394Y009395D02*
X024396Y009408D01*
X024401Y009421D01*
X024410Y009432D01*
X024421Y009439D01*
X024434Y009444D01*
X024447Y009445D01*
X024461Y009442D01*
X024473Y009436D01*
X024483Y009427D01*
X024490Y009415D01*
X024494Y009402D01*
X024494Y009388D01*
X024490Y009375D01*
X024483Y009363D01*
X024473Y009354D01*
X024461Y009348D01*
X024447Y009345D01*
X024434Y009346D01*
X024421Y009351D01*
X024410Y009358D01*
X024401Y009369D01*
X024396Y009382D01*
X024394Y009395D01*
X020260Y007660D02*
X020260Y020260D01*
X007660Y020260D01*
X007660Y007660D01*
X020260Y007660D01*
X019452Y005223D02*
X017759Y005223D01*
X017286Y004751D01*
X017286Y002625D01*
X019885Y002625D01*
X019885Y004790D01*
X019452Y005223D01*
X017335Y003924D02*
X017337Y003994D01*
X017343Y004064D01*
X017353Y004134D01*
X017366Y004202D01*
X017384Y004270D01*
X017405Y004337D01*
X017430Y004403D01*
X017459Y004467D01*
X017491Y004529D01*
X017527Y004590D01*
X017566Y004648D01*
X017608Y004704D01*
X017653Y004758D01*
X017701Y004809D01*
X017752Y004857D01*
X017806Y004902D01*
X017862Y004944D01*
X017920Y004983D01*
X017981Y005019D01*
X018043Y005051D01*
X018107Y005080D01*
X018173Y005105D01*
X018240Y005126D01*
X018308Y005144D01*
X018376Y005157D01*
X018446Y005167D01*
X018516Y005173D01*
X018586Y005175D01*
X018656Y005173D01*
X018726Y005167D01*
X018796Y005157D01*
X018864Y005144D01*
X018932Y005126D01*
X018999Y005105D01*
X019065Y005080D01*
X019129Y005051D01*
X019191Y005019D01*
X019252Y004983D01*
X019310Y004944D01*
X019366Y004902D01*
X019420Y004857D01*
X019471Y004809D01*
X019519Y004758D01*
X019564Y004704D01*
X019606Y004648D01*
X019645Y004590D01*
X019681Y004529D01*
X019713Y004467D01*
X019742Y004403D01*
X019767Y004337D01*
X019788Y004270D01*
X019806Y004202D01*
X019819Y004134D01*
X019829Y004064D01*
X019835Y003994D01*
X019837Y003924D01*
X019835Y003854D01*
X019829Y003784D01*
X019819Y003714D01*
X019806Y003646D01*
X019788Y003578D01*
X019767Y003511D01*
X019742Y003445D01*
X019713Y003381D01*
X019681Y003319D01*
X019645Y003258D01*
X019606Y003200D01*
X019564Y003144D01*
X019519Y003090D01*
X019471Y003039D01*
X019420Y002991D01*
X019366Y002946D01*
X019310Y002904D01*
X019252Y002865D01*
X019191Y002829D01*
X019129Y002797D01*
X019065Y002768D01*
X018999Y002743D01*
X018932Y002722D01*
X018864Y002704D01*
X018796Y002691D01*
X018726Y002681D01*
X018656Y002675D01*
X018586Y002673D01*
X018516Y002675D01*
X018446Y002681D01*
X018376Y002691D01*
X018308Y002704D01*
X018240Y002722D01*
X018173Y002743D01*
X018107Y002768D01*
X018043Y002797D01*
X017981Y002829D01*
X017920Y002865D01*
X017862Y002904D01*
X017806Y002946D01*
X017752Y002991D01*
X017701Y003039D01*
X017653Y003090D01*
X017608Y003144D01*
X017566Y003200D01*
X017527Y003258D01*
X017491Y003319D01*
X017459Y003381D01*
X017430Y003445D01*
X017405Y003511D01*
X017384Y003578D01*
X017366Y003646D01*
X017353Y003714D01*
X017343Y003784D01*
X017337Y003854D01*
X017335Y003924D01*
X011993Y004883D02*
X011813Y004883D01*
X011948Y005019D01*
X011948Y004748D01*
X011699Y004748D02*
X011519Y004748D01*
X011699Y004928D01*
X011699Y004973D01*
X011654Y005019D01*
X011564Y005019D01*
X011519Y004973D01*
X011404Y004973D02*
X011404Y004883D01*
X011359Y004838D01*
X011224Y004838D01*
X011224Y004748D02*
X011224Y005019D01*
X011359Y005019D01*
X011404Y004973D01*
X011314Y004838D02*
X011404Y004748D01*
X006578Y011400D02*
X003920Y011400D01*
X003920Y011401D02*
X003820Y011403D01*
X003719Y011409D01*
X003619Y011419D01*
X003520Y011433D01*
X003421Y011450D01*
X003323Y011472D01*
X003225Y011497D01*
X003129Y011526D01*
X003034Y011559D01*
X002941Y011596D01*
X002849Y011636D01*
X002758Y011680D01*
X002670Y011727D01*
X002583Y011778D01*
X002498Y011832D01*
X002416Y011890D01*
X002336Y011950D01*
X002258Y012014D01*
X002183Y012081D01*
X002111Y012151D01*
X002041Y012223D01*
X001974Y012298D01*
X001910Y012376D01*
X001850Y012456D01*
X001792Y012538D01*
X001738Y012623D01*
X001687Y012710D01*
X001640Y012798D01*
X001596Y012889D01*
X001556Y012981D01*
X001519Y013074D01*
X001486Y013169D01*
X001457Y013265D01*
X001432Y013363D01*
X001410Y013461D01*
X001393Y013560D01*
X001379Y013659D01*
X001369Y013759D01*
X001363Y013860D01*
X001361Y013960D01*
X001363Y014060D01*
X001369Y014161D01*
X001379Y014261D01*
X001393Y014360D01*
X001410Y014459D01*
X001432Y014557D01*
X001457Y014655D01*
X001486Y014751D01*
X001519Y014846D01*
X001556Y014939D01*
X001596Y015031D01*
X001640Y015122D01*
X001687Y015210D01*
X001738Y015297D01*
X001792Y015382D01*
X001850Y015464D01*
X001910Y015544D01*
X001974Y015622D01*
X002041Y015697D01*
X002111Y015769D01*
X002183Y015839D01*
X002258Y015906D01*
X002336Y015970D01*
X002416Y016030D01*
X002498Y016088D01*
X002583Y016142D01*
X002670Y016193D01*
X002758Y016240D01*
X002849Y016284D01*
X002941Y016324D01*
X003034Y016361D01*
X003129Y016394D01*
X003225Y016423D01*
X003323Y016448D01*
X003421Y016470D01*
X003520Y016487D01*
X003619Y016501D01*
X003719Y016511D01*
X003820Y016517D01*
X003920Y016519D01*
X006578Y016519D01*
X006578Y021341D01*
X021341Y021341D01*
X021341Y016519D01*
X023999Y016519D01*
X024099Y016517D01*
X024200Y016511D01*
X024300Y016501D01*
X024399Y016487D01*
X024498Y016470D01*
X024596Y016448D01*
X024694Y016423D01*
X024790Y016394D01*
X024885Y016361D01*
X024978Y016324D01*
X025070Y016284D01*
X025161Y016240D01*
X025249Y016193D01*
X025336Y016142D01*
X025421Y016088D01*
X025503Y016030D01*
X025583Y015970D01*
X025661Y015906D01*
X025736Y015839D01*
X025808Y015769D01*
X025878Y015697D01*
X025945Y015622D01*
X026009Y015544D01*
X026069Y015464D01*
X026127Y015382D01*
X026181Y015297D01*
X026232Y015210D01*
X026279Y015122D01*
X026323Y015031D01*
X026363Y014939D01*
X026400Y014846D01*
X026433Y014751D01*
X026462Y014655D01*
X026487Y014557D01*
X026509Y014459D01*
X026526Y014360D01*
X026540Y014261D01*
X026550Y014161D01*
X026556Y014060D01*
X026558Y013960D01*
X026556Y013860D01*
X026550Y013759D01*
X026540Y013659D01*
X026526Y013560D01*
X026509Y013461D01*
X026487Y013363D01*
X026462Y013265D01*
X026433Y013169D01*
X026400Y013074D01*
X026363Y012981D01*
X026323Y012889D01*
X026279Y012798D01*
X026232Y012710D01*
X026181Y012623D01*
X026127Y012538D01*
X026069Y012456D01*
X026009Y012376D01*
X025945Y012298D01*
X025878Y012223D01*
X025808Y012151D01*
X025736Y012081D01*
X025661Y012014D01*
X025583Y011950D01*
X025503Y011890D01*
X025421Y011832D01*
X025336Y011778D01*
X025249Y011727D01*
X025161Y011680D01*
X025070Y011636D01*
X024978Y011596D01*
X024885Y011559D01*
X024790Y011526D01*
X024694Y011497D01*
X024596Y011472D01*
X024498Y011450D01*
X024399Y011433D01*
X024300Y011419D01*
X024200Y011409D01*
X024099Y011403D01*
X023999Y011401D01*
X010762Y020494D02*
X010762Y020765D01*
X010627Y020629D01*
X010807Y020629D01*
X010512Y020494D02*
X010332Y020494D01*
X010422Y020494D02*
X010422Y020765D01*
X010332Y020675D01*
X010218Y020720D02*
X010173Y020765D01*
X010083Y020765D01*
X010038Y020720D01*
X010038Y020539D01*
X010083Y020494D01*
X010173Y020494D01*
X010218Y020539D01*
X006763Y018190D02*
X006765Y018203D01*
X006770Y018216D01*
X006779Y018227D01*
X006790Y018234D01*
X006803Y018239D01*
X006816Y018240D01*
X006830Y018237D01*
X006842Y018231D01*
X006852Y018222D01*
X006859Y018210D01*
X006863Y018197D01*
X006863Y018183D01*
X006859Y018170D01*
X006852Y018158D01*
X006842Y018149D01*
X006830Y018143D01*
X006816Y018140D01*
X006803Y018141D01*
X006790Y018146D01*
X006779Y018153D01*
X006770Y018164D01*
X006765Y018177D01*
X006763Y018190D01*
X008492Y024148D02*
X008582Y024148D01*
X008627Y024193D01*
X008742Y024148D02*
X008922Y024148D01*
X008832Y024148D02*
X008832Y024418D01*
X008742Y024328D01*
X008627Y024373D02*
X008582Y024418D01*
X008492Y024418D01*
X008447Y024373D01*
X008447Y024193D01*
X008492Y024148D01*
X009036Y024193D02*
X009036Y024373D01*
X009081Y024418D01*
X009172Y024418D01*
X009217Y024373D01*
X009036Y024193D01*
X009081Y024148D01*
X009172Y024148D01*
X009217Y024193D01*
X009217Y024373D01*
X009078Y024857D02*
X012227Y024857D01*
X012227Y026353D01*
X009078Y026353D01*
X009078Y024857D01*
X017658Y024373D02*
X018767Y026459D01*
X021895Y024796D01*
X020786Y022710D01*
X017658Y024373D01*
X019087Y024585D02*
X019089Y024637D01*
X019095Y024689D01*
X019105Y024740D01*
X019118Y024790D01*
X019136Y024840D01*
X019157Y024887D01*
X019181Y024933D01*
X019210Y024977D01*
X019241Y025019D01*
X019275Y025058D01*
X019312Y025095D01*
X019352Y025128D01*
X019395Y025159D01*
X019439Y025186D01*
X019485Y025210D01*
X019534Y025230D01*
X019583Y025246D01*
X019634Y025259D01*
X019685Y025268D01*
X019737Y025273D01*
X019789Y025274D01*
X019841Y025271D01*
X019893Y025264D01*
X019944Y025253D01*
X019994Y025239D01*
X020043Y025220D01*
X020090Y025198D01*
X020135Y025173D01*
X020179Y025144D01*
X020220Y025112D01*
X020259Y025077D01*
X020294Y025039D01*
X020327Y024998D01*
X020357Y024956D01*
X020383Y024911D01*
X020406Y024864D01*
X020425Y024815D01*
X020441Y024765D01*
X020453Y024715D01*
X020461Y024663D01*
X020465Y024611D01*
X020465Y024559D01*
X020461Y024507D01*
X020453Y024455D01*
X020441Y024405D01*
X020425Y024355D01*
X020406Y024306D01*
X020383Y024259D01*
X020357Y024214D01*
X020327Y024172D01*
X020294Y024131D01*
X020259Y024093D01*
X020220Y024058D01*
X020179Y024026D01*
X020135Y023997D01*
X020090Y023972D01*
X020043Y023950D01*
X019994Y023931D01*
X019944Y023917D01*
X019893Y023906D01*
X019841Y023899D01*
X019789Y023896D01*
X019737Y023897D01*
X019685Y023902D01*
X019634Y023911D01*
X019583Y023924D01*
X019534Y023940D01*
X019485Y023960D01*
X019439Y023984D01*
X019395Y024011D01*
X019352Y024042D01*
X019312Y024075D01*
X019275Y024112D01*
X019241Y024151D01*
X019210Y024193D01*
X019181Y024237D01*
X019157Y024283D01*
X019136Y024330D01*
X019118Y024380D01*
X019105Y024430D01*
X019095Y024481D01*
X019089Y024533D01*
X019087Y024585D01*
D16*
X013119Y005232D02*
X013119Y005178D01*
X013118Y005179D02*
X013103Y005177D01*
X013089Y005171D01*
X013076Y005163D01*
X013066Y005153D01*
X013058Y005140D01*
X013052Y005126D01*
X013050Y005111D01*
X012997Y005110D01*
X012996Y005111D01*
X012998Y005132D01*
X013004Y005152D01*
X013013Y005171D01*
X013025Y005189D01*
X013040Y005204D01*
X013058Y005216D01*
X013077Y005225D01*
X013097Y005231D01*
X013118Y005233D01*
X013118Y005228D01*
X013098Y005226D01*
X013078Y005220D01*
X013060Y005211D01*
X013044Y005200D01*
X013029Y005185D01*
X013018Y005169D01*
X013009Y005151D01*
X013003Y005131D01*
X013001Y005111D01*
X013006Y005111D01*
X013008Y005130D01*
X013014Y005149D01*
X013022Y005166D01*
X013033Y005182D01*
X013047Y005196D01*
X013063Y005207D01*
X013080Y005215D01*
X013099Y005221D01*
X013118Y005223D01*
X013118Y005218D01*
X013100Y005216D01*
X013082Y005211D01*
X013065Y005203D01*
X013050Y005192D01*
X013037Y005179D01*
X013026Y005164D01*
X013018Y005147D01*
X013013Y005129D01*
X013011Y005111D01*
X013016Y005111D01*
X013018Y005131D01*
X013025Y005150D01*
X013034Y005167D01*
X013047Y005182D01*
X013062Y005195D01*
X013079Y005204D01*
X013098Y005211D01*
X013118Y005213D01*
X013118Y005208D01*
X013099Y005206D01*
X013081Y005200D01*
X013065Y005191D01*
X013050Y005179D01*
X013038Y005164D01*
X013029Y005148D01*
X013023Y005130D01*
X013021Y005111D01*
X013026Y005111D01*
X013028Y005129D01*
X013034Y005146D01*
X013042Y005161D01*
X013054Y005175D01*
X013068Y005187D01*
X013083Y005195D01*
X013100Y005201D01*
X013118Y005203D01*
X013118Y005198D01*
X013101Y005196D01*
X013085Y005191D01*
X013070Y005182D01*
X013057Y005172D01*
X013047Y005159D01*
X013038Y005144D01*
X013033Y005128D01*
X013031Y005111D01*
X013036Y005111D01*
X013038Y005127D01*
X013043Y005142D01*
X013051Y005156D01*
X013061Y005168D01*
X013073Y005178D01*
X013087Y005186D01*
X013102Y005191D01*
X013118Y005193D01*
X013118Y005188D01*
X013101Y005185D01*
X013085Y005180D01*
X013071Y005170D01*
X013059Y005158D01*
X013049Y005144D01*
X013044Y005128D01*
X013041Y005111D01*
X013046Y005111D01*
X013048Y005127D01*
X013054Y005142D01*
X013063Y005155D01*
X013074Y005166D01*
X013087Y005175D01*
X013102Y005181D01*
X013118Y005183D01*
X012997Y004133D02*
X013051Y004133D01*
X013050Y004132D02*
X013052Y004117D01*
X013058Y004103D01*
X013066Y004090D01*
X013076Y004080D01*
X013089Y004072D01*
X013103Y004066D01*
X013118Y004064D01*
X013119Y004011D01*
X013118Y004010D01*
X013097Y004012D01*
X013077Y004018D01*
X013058Y004027D01*
X013040Y004039D01*
X013025Y004054D01*
X013013Y004072D01*
X013004Y004091D01*
X012998Y004111D01*
X012996Y004132D01*
X013001Y004132D01*
X013003Y004112D01*
X013009Y004092D01*
X013018Y004074D01*
X013029Y004058D01*
X013044Y004043D01*
X013060Y004032D01*
X013078Y004023D01*
X013098Y004017D01*
X013118Y004015D01*
X013118Y004020D01*
X013099Y004022D01*
X013080Y004028D01*
X013063Y004036D01*
X013047Y004047D01*
X013033Y004061D01*
X013022Y004077D01*
X013014Y004094D01*
X013008Y004113D01*
X013006Y004132D01*
X013011Y004132D01*
X013013Y004114D01*
X013018Y004096D01*
X013026Y004079D01*
X013037Y004064D01*
X013050Y004051D01*
X013065Y004040D01*
X013082Y004032D01*
X013100Y004027D01*
X013118Y004025D01*
X013118Y004030D01*
X013098Y004032D01*
X013079Y004039D01*
X013062Y004048D01*
X013047Y004061D01*
X013034Y004076D01*
X013025Y004093D01*
X013018Y004112D01*
X013016Y004132D01*
X013021Y004132D01*
X013023Y004113D01*
X013029Y004095D01*
X013038Y004079D01*
X013050Y004064D01*
X013065Y004052D01*
X013081Y004043D01*
X013099Y004037D01*
X013118Y004035D01*
X013118Y004040D01*
X013100Y004042D01*
X013083Y004048D01*
X013068Y004056D01*
X013054Y004068D01*
X013042Y004082D01*
X013034Y004097D01*
X013028Y004114D01*
X013026Y004132D01*
X013031Y004132D01*
X013033Y004115D01*
X013038Y004099D01*
X013047Y004084D01*
X013057Y004071D01*
X013070Y004061D01*
X013085Y004052D01*
X013101Y004047D01*
X013118Y004045D01*
X013118Y004050D01*
X013102Y004052D01*
X013087Y004057D01*
X013073Y004065D01*
X013061Y004075D01*
X013051Y004087D01*
X013043Y004101D01*
X013038Y004116D01*
X013036Y004132D01*
X013041Y004132D01*
X013044Y004115D01*
X013049Y004099D01*
X013059Y004085D01*
X013071Y004073D01*
X013085Y004063D01*
X013101Y004058D01*
X013118Y004055D01*
X013118Y004060D01*
X013102Y004062D01*
X013087Y004068D01*
X013074Y004077D01*
X013063Y004088D01*
X013054Y004101D01*
X013048Y004116D01*
X013046Y004132D01*
M02*
