G75*
%MOIN*%
%OFA0B0*%
%FSLAX24Y24*%
%IPPOS*%
%LPD*%
%AMOC8*
5,1,8,0,0,1.08239X$1,22.5*
%
%ADD10C,0.0105*%
%ADD11R,0.0134X0.0134*%
%ADD12R,0.0226X0.0231*%
%ADD13R,0.0225X0.0241*%
%ADD14R,0.0239X0.0240*%
%ADD15R,0.0242X0.0234*%
%ADD16R,0.0433X0.0394*%
%ADD17R,0.0870X0.0240*%
%ADD18R,0.0591X0.0512*%
%ADD19R,0.0394X0.0433*%
%ADD20R,0.0394X0.0551*%
%ADD21R,0.0630X0.0512*%
%ADD22R,0.0630X0.1260*%
%ADD23R,0.0512X0.0748*%
%ADD24R,0.0551X0.0394*%
%ADD25R,0.0157X0.0630*%
%ADD26R,0.0744X0.0618*%
%ADD27R,0.0492X0.0551*%
%ADD28C,0.2441*%
D10*
X010472Y021988D02*
X010478Y021988D01*
X010472Y021988D02*
X010472Y022124D01*
X010478Y022124D01*
X010478Y021988D01*
X010478Y022092D02*
X010472Y022092D01*
X010669Y021988D02*
X010675Y021988D01*
X010669Y021988D02*
X010669Y022124D01*
X010675Y022124D01*
X010675Y021988D01*
X010675Y022092D02*
X010669Y022092D01*
X010866Y021988D02*
X010872Y021988D01*
X010866Y021988D02*
X010866Y022124D01*
X010872Y022124D01*
X010872Y021988D01*
X010872Y022092D02*
X010866Y022092D01*
X011063Y021988D02*
X011069Y021988D01*
X011063Y021988D02*
X011063Y022124D01*
X011069Y022124D01*
X011069Y021988D01*
X011069Y022092D02*
X011063Y022092D01*
X011228Y022283D02*
X011228Y022289D01*
X011364Y022289D01*
X011364Y022283D01*
X011228Y022283D01*
X011228Y022480D02*
X011228Y022486D01*
X011364Y022486D01*
X011364Y022480D01*
X011228Y022480D01*
X011228Y022677D02*
X011228Y022683D01*
X011364Y022683D01*
X011364Y022677D01*
X011228Y022677D01*
X011228Y022874D02*
X011228Y022880D01*
X011364Y022880D01*
X011364Y022874D01*
X011228Y022874D01*
X011069Y023175D02*
X011063Y023175D01*
X011069Y023175D02*
X011069Y023039D01*
X011063Y023039D01*
X011063Y023175D01*
X011069Y023143D02*
X011063Y023143D01*
X010872Y023175D02*
X010866Y023175D01*
X010872Y023175D02*
X010872Y023039D01*
X010866Y023039D01*
X010866Y023175D01*
X010872Y023143D02*
X010866Y023143D01*
X010675Y023175D02*
X010669Y023175D01*
X010675Y023175D02*
X010675Y023039D01*
X010669Y023039D01*
X010669Y023175D01*
X010675Y023143D02*
X010669Y023143D01*
X010478Y023175D02*
X010472Y023175D01*
X010478Y023175D02*
X010478Y023039D01*
X010472Y023039D01*
X010472Y023175D01*
X010478Y023143D02*
X010472Y023143D01*
X010313Y022880D02*
X010313Y022874D01*
X010177Y022874D01*
X010177Y022880D01*
X010313Y022880D01*
X010313Y022683D02*
X010313Y022677D01*
X010177Y022677D01*
X010177Y022683D01*
X010313Y022683D01*
X010313Y022486D02*
X010313Y022480D01*
X010177Y022480D01*
X010177Y022486D01*
X010313Y022486D01*
X010313Y022289D02*
X010313Y022283D01*
X010177Y022283D01*
X010177Y022289D01*
X010313Y022289D01*
D11*
X010273Y022080D03*
X011269Y022084D03*
X011269Y023080D03*
X010273Y023080D03*
D12*
X010618Y022422D03*
D13*
X010617Y022721D03*
D14*
X010918Y022720D03*
D15*
X010916Y022426D03*
D16*
X011899Y023026D03*
X012568Y023026D03*
X011936Y023645D03*
X011932Y024274D03*
X011263Y024274D03*
X011267Y023645D03*
X010239Y023645D03*
X009570Y023645D03*
X009570Y024274D03*
X010239Y024274D03*
X013310Y020534D03*
X013979Y020534D03*
X014586Y004947D03*
X015256Y004947D03*
X015254Y003799D03*
X014585Y003799D03*
X014566Y002982D03*
X015235Y002982D03*
X016031Y002982D03*
X016700Y002982D03*
X016691Y003814D03*
X016022Y003814D03*
X013477Y002813D03*
X012808Y002813D03*
D17*
X015819Y021782D03*
X015819Y022282D03*
X015819Y022782D03*
X015819Y023282D03*
X018469Y023282D03*
X018469Y022782D03*
X018469Y022282D03*
X018469Y021782D03*
D18*
X009235Y021696D03*
X009235Y022365D03*
D19*
X009904Y021735D03*
X009904Y021066D03*
X016135Y021243D03*
X016912Y021213D03*
X016912Y020544D03*
X016135Y020574D03*
X014488Y007222D03*
X014488Y006553D03*
X013700Y006553D03*
X013700Y007222D03*
X012913Y007222D03*
X012913Y006553D03*
X012308Y005186D03*
X012308Y004517D03*
D20*
G36*
X006610Y017055D02*
X006888Y017333D01*
X007276Y016945D01*
X006998Y016667D01*
X006610Y017055D01*
G37*
G36*
X005733Y017403D02*
X006011Y017681D01*
X006399Y017293D01*
X006121Y017015D01*
X005733Y017403D01*
G37*
G36*
X006262Y017932D02*
X006540Y018210D01*
X006928Y017822D01*
X006650Y017544D01*
X006262Y017932D01*
G37*
D21*
G36*
X017822Y024910D02*
X018377Y024615D01*
X018136Y024164D01*
X017581Y024459D01*
X017822Y024910D01*
G37*
G36*
X018654Y026474D02*
X019209Y026179D01*
X018968Y025728D01*
X018413Y026023D01*
X018654Y026474D01*
G37*
G36*
X021417Y025005D02*
X021972Y024710D01*
X021731Y024259D01*
X021176Y024554D01*
X021417Y025005D01*
G37*
G36*
X020585Y023441D02*
X021140Y023146D01*
X020899Y022695D01*
X020344Y022990D01*
X020585Y023441D01*
G37*
D22*
X018586Y004830D03*
X018586Y003019D03*
D23*
X011774Y024975D03*
X011774Y026235D03*
X009609Y026235D03*
X009609Y024975D03*
D24*
X024511Y009019D03*
X025377Y008645D03*
X024511Y008271D03*
D25*
X013989Y005450D03*
X013733Y005450D03*
X013477Y005450D03*
X013221Y005450D03*
X013221Y003797D03*
X013477Y003797D03*
X013733Y003797D03*
X013989Y003797D03*
D26*
X013605Y004623D03*
D27*
X025623Y018517D03*
X025623Y019973D03*
D28*
X008645Y008645D03*
X019274Y008645D03*
X019274Y019274D03*
X008645Y019274D03*
M02*
