G75*
%MOIN*%
%OFA0B0*%
%FSLAX24Y24*%
%IPPOS*%
%LPD*%
%AMOC8*
5,1,8,0,0,1.08239X$1,22.5*
%
%ADD10C,0.2441*%
%ADD11C,0.0827*%
%ADD12C,0.1181*%
%ADD13R,0.0740X0.0740*%
%ADD14OC8,0.0740*%
%ADD15C,0.1050*%
%ADD16C,0.0787*%
%ADD17C,0.1660*%
%ADD18C,0.0337*%
%ADD19C,0.0240*%
%ADD20C,0.0297*%
%ADD21C,0.0120*%
%ADD22C,0.0100*%
%ADD23C,0.0320*%
%ADD24C,0.0160*%
%ADD25C,0.0376*%
%ADD26C,0.0240*%
D10*
X003920Y013960D03*
D11*
X020849Y013960D02*
X021676Y013960D01*
X022070Y015534D02*
X021243Y015534D01*
X021243Y012385D02*
X022070Y012385D01*
D12*
X023408Y010711D02*
X024589Y010711D01*
X024589Y017208D02*
X023408Y017208D01*
D13*
X014960Y025074D03*
D14*
X013960Y025074D03*
X012960Y025074D03*
X012960Y026074D03*
X013960Y026074D03*
X014960Y026074D03*
D15*
X020035Y021243D02*
X021085Y021243D01*
X023035Y021243D02*
X024085Y021243D01*
X007885Y021243D02*
X006835Y021243D01*
X004885Y021243D02*
X003835Y021243D01*
X003835Y006676D02*
X004885Y006676D01*
X006835Y006676D02*
X007885Y006676D01*
X020035Y006676D02*
X021085Y006676D01*
X023035Y006676D02*
X024085Y006676D01*
D16*
X021046Y010810D03*
X023408Y011991D03*
X024589Y011991D03*
X023408Y013960D03*
X023408Y015928D03*
X024589Y015928D03*
X019078Y014747D03*
X014747Y008448D03*
X012778Y008448D03*
X004353Y017739D03*
X016322Y024786D03*
X017503Y024786D03*
X018684Y024983D03*
X018684Y023999D03*
X018684Y025967D03*
X017503Y025967D03*
X016322Y025967D03*
D17*
X018818Y011154D03*
X009101Y011154D03*
D18*
X009019Y012936D03*
X008940Y014668D03*
X008822Y015889D03*
X007611Y015790D03*
X006578Y014816D03*
X006430Y013192D03*
X005593Y011912D03*
X002293Y011556D03*
X002539Y009484D03*
X010111Y006897D03*
X011056Y008015D03*
X012011Y008245D03*
X011774Y009589D03*
X013782Y008920D03*
X015456Y008448D03*
X015711Y009589D03*
X017444Y010613D03*
X019748Y012492D03*
X018728Y013761D03*
X019836Y016125D03*
X022208Y018113D03*
X023487Y015141D03*
X026398Y015528D03*
X026346Y017608D03*
X026398Y012329D03*
X026368Y010110D03*
X023546Y009393D03*
X021837Y009967D03*
X025436Y007424D03*
X022129Y003694D03*
X020639Y002746D03*
X018428Y001725D03*
X016715Y004314D03*
X015574Y004397D03*
X014431Y004325D03*
X012747Y003983D03*
X011676Y004215D03*
X010155Y004983D03*
X007444Y003029D03*
X009402Y001814D03*
X012818Y001715D03*
X014107Y002493D03*
X015999Y005582D03*
X014486Y006003D03*
X018034Y006906D03*
X005042Y016774D03*
X005295Y018131D03*
X002365Y018226D03*
X002365Y016351D03*
X002490Y020351D03*
X005857Y024406D03*
X008088Y023717D03*
X008924Y023015D03*
X010771Y023487D03*
X010763Y023956D03*
X010723Y025113D03*
X010723Y026392D03*
X008194Y025780D03*
X012503Y023566D03*
X013787Y022916D03*
X013802Y022119D03*
X012532Y022119D03*
X012385Y021440D03*
X012739Y020534D03*
X011794Y020249D03*
X013428Y018950D03*
X014137Y019629D03*
X014944Y020692D03*
X015534Y021243D03*
X016765Y022080D03*
X017700Y022424D03*
X016617Y022965D03*
X016957Y023586D03*
X017306Y023900D03*
X015731Y023704D03*
X015761Y024452D03*
X018143Y025426D03*
X019274Y025495D03*
X022380Y024028D03*
X019388Y022257D03*
X016322Y019334D03*
X015042Y018556D03*
X016952Y018290D03*
X012286Y018556D03*
D19*
X010913Y022444D03*
X010908Y022719D03*
X010633Y022719D03*
X010633Y022444D03*
D20*
X011105Y021479D03*
D21*
X012423Y003854D02*
X004969Y003854D01*
X004838Y003972D02*
X012399Y003972D01*
X012399Y003914D02*
X012452Y003786D01*
X012507Y003730D01*
X012507Y002624D01*
X012543Y002536D01*
X012870Y002209D01*
X012938Y002142D01*
X013026Y002105D01*
X014007Y002105D01*
X014095Y002142D01*
X014098Y002145D01*
X014176Y002145D01*
X014305Y002198D01*
X014403Y002296D01*
X014456Y002424D01*
X014456Y002562D01*
X014403Y002690D01*
X014305Y002788D01*
X014176Y002841D01*
X014038Y002841D01*
X013910Y002788D01*
X013812Y002690D01*
X013768Y002585D01*
X013173Y002585D01*
X012987Y002772D01*
X012987Y003730D01*
X013042Y003786D01*
X013095Y003914D01*
X013095Y004052D01*
X013042Y004181D01*
X012944Y004279D01*
X012816Y004332D01*
X012678Y004332D01*
X012550Y004279D01*
X012452Y004181D01*
X012399Y004052D01*
X012399Y003914D01*
X012414Y004091D02*
X004707Y004091D01*
X004576Y004209D02*
X012480Y004209D01*
X012668Y004328D02*
X004445Y004328D01*
X004383Y004383D02*
X004281Y004496D01*
X008034Y004496D01*
X008140Y004602D01*
X008140Y006019D01*
X008284Y006078D01*
X008482Y006277D01*
X008590Y006536D01*
X008590Y006816D01*
X016475Y006816D01*
X016475Y006698D02*
X008590Y006698D01*
X008590Y006816D02*
X008482Y007075D01*
X008284Y007274D01*
X008140Y007334D01*
X008140Y007734D01*
X008243Y007675D01*
X008508Y007604D01*
X008782Y007604D01*
X009046Y007675D01*
X009284Y007812D01*
X009477Y008006D01*
X009614Y008243D01*
X009685Y008508D01*
X009685Y008782D01*
X009614Y009046D01*
X009477Y009284D01*
X009284Y009477D01*
X009046Y009614D01*
X008782Y009685D01*
X008508Y009685D01*
X008243Y009614D01*
X008006Y009477D01*
X007812Y009284D01*
X007675Y009046D01*
X007624Y008856D01*
X002885Y008856D01*
X002780Y008751D01*
X002780Y006337D01*
X002702Y006443D01*
X002025Y007589D01*
X001467Y008798D01*
X001250Y009382D01*
X001250Y018537D01*
X001467Y019121D01*
X002025Y020330D01*
X002702Y021476D01*
X002780Y021582D01*
X002780Y019168D01*
X002885Y019063D01*
X007624Y019063D01*
X007675Y018873D01*
X007812Y018635D01*
X008006Y018442D01*
X008243Y018305D01*
X008508Y018234D01*
X008782Y018234D01*
X009046Y018305D01*
X009284Y018442D01*
X009477Y018635D01*
X009614Y018873D01*
X009685Y019137D01*
X009685Y019411D01*
X009614Y019676D01*
X009477Y019913D01*
X009284Y020107D01*
X009046Y020244D01*
X008782Y020315D01*
X008508Y020315D01*
X008243Y020244D01*
X008140Y020185D01*
X008140Y020586D01*
X008284Y020645D01*
X008482Y020844D01*
X008590Y021103D01*
X008590Y021383D01*
X008482Y021642D01*
X008284Y021841D01*
X008140Y021900D01*
X008140Y023318D01*
X008034Y023423D01*
X004281Y023423D01*
X004383Y023536D01*
X005371Y024428D01*
X006443Y025217D01*
X007589Y025894D01*
X008798Y026452D01*
X009382Y026669D01*
X013923Y026669D01*
X013877Y026624D01*
X013732Y026624D01*
X013445Y026337D01*
X013179Y026604D01*
X013000Y026604D01*
X013000Y026114D01*
X012920Y026114D01*
X012920Y026604D01*
X012740Y026604D01*
X012430Y026293D01*
X012430Y026114D01*
X012920Y026114D01*
X012920Y026034D01*
X012430Y026034D01*
X012430Y025854D01*
X012696Y025588D01*
X012410Y025302D01*
X006587Y025302D01*
X006397Y025184D02*
X012410Y025184D01*
X012410Y025302D02*
X012410Y024846D01*
X012732Y024524D01*
X013187Y024524D01*
X013460Y024796D01*
X013732Y024524D01*
X014187Y024524D01*
X014410Y024746D01*
X014410Y024629D01*
X014515Y024524D01*
X015035Y024524D01*
X015009Y024498D01*
X015009Y023897D01*
X015002Y023890D01*
X014670Y023558D01*
X014648Y023580D01*
X014553Y023619D01*
X013723Y023619D01*
X013162Y024180D01*
X013066Y024220D01*
X013021Y024220D01*
X013015Y024222D01*
X012969Y024220D01*
X012924Y024220D01*
X012918Y024217D01*
X012886Y024216D01*
X010995Y024216D01*
X010960Y024251D01*
X010832Y024304D01*
X010693Y024304D01*
X010565Y024251D01*
X010467Y024153D01*
X010414Y024025D01*
X010414Y023886D01*
X010467Y023758D01*
X010508Y023717D01*
X010475Y023684D01*
X010422Y023556D01*
X010422Y023418D01*
X010475Y023290D01*
X010573Y023192D01*
X010701Y023139D01*
X010840Y023139D01*
X010968Y023192D01*
X011033Y023257D01*
X011226Y023257D01*
X011564Y022919D01*
X011564Y020793D01*
X011919Y020439D01*
X012053Y020304D01*
X012476Y020304D01*
X012542Y020239D01*
X012670Y020186D01*
X012808Y020186D01*
X012936Y020239D01*
X013034Y020337D01*
X013087Y020465D01*
X013087Y020604D01*
X013034Y020732D01*
X012936Y020830D01*
X012808Y020883D01*
X012670Y020883D01*
X012542Y020830D01*
X012476Y020764D01*
X012244Y020764D01*
X012024Y020984D01*
X012024Y023110D01*
X011889Y023245D01*
X011438Y023696D01*
X012847Y023696D01*
X012853Y023693D01*
X012899Y023696D01*
X012911Y023696D01*
X013395Y023212D01*
X013468Y023139D01*
X013563Y023099D01*
X014389Y023099D01*
X014389Y021680D01*
X012637Y021680D01*
X012582Y021735D01*
X012454Y021788D01*
X012315Y021788D01*
X012187Y021735D01*
X012089Y021637D01*
X012036Y021509D01*
X012036Y021371D01*
X012089Y021242D01*
X012187Y021144D01*
X012315Y021091D01*
X012454Y021091D01*
X012582Y021144D01*
X012637Y021200D01*
X014549Y021200D01*
X014633Y021235D01*
X014765Y021103D01*
X014802Y021066D01*
X014842Y021027D01*
X014746Y020987D01*
X014648Y020889D01*
X014595Y020761D01*
X014595Y020623D01*
X014648Y020494D01*
X014704Y020439D01*
X014704Y019423D01*
X013811Y018530D01*
X013454Y018530D01*
X013443Y018534D01*
X013407Y018530D01*
X013370Y018530D01*
X013360Y018526D01*
X012981Y018490D01*
X012981Y018490D01*
X012178Y018263D01*
X011430Y017896D01*
X010760Y017399D01*
X010191Y016790D01*
X009741Y016088D01*
X009425Y015317D01*
X009253Y014501D01*
X009231Y013668D01*
X009359Y012844D01*
X009634Y012057D01*
X009671Y011991D01*
X009491Y012096D01*
X009234Y012164D01*
X008968Y012164D01*
X008711Y012096D01*
X008481Y011963D01*
X008293Y011775D01*
X008160Y011544D01*
X008091Y011287D01*
X008091Y011021D01*
X008160Y010765D01*
X008293Y010534D01*
X008481Y010346D01*
X008711Y010213D01*
X008968Y010144D01*
X009234Y010144D01*
X009491Y010213D01*
X009721Y010346D01*
X009909Y010534D01*
X010042Y010765D01*
X010111Y011021D01*
X010111Y011255D01*
X010582Y010694D01*
X010582Y010694D01*
X010816Y010500D01*
X010816Y008267D01*
X010761Y008212D01*
X010708Y008084D01*
X010708Y007945D01*
X010761Y007817D01*
X010859Y007719D01*
X010987Y007666D01*
X011125Y007666D01*
X011253Y007719D01*
X011351Y007817D01*
X011404Y007945D01*
X011404Y008084D01*
X011351Y008212D01*
X011296Y008267D01*
X011296Y010577D01*
X011299Y010588D01*
X011296Y010624D01*
X011296Y010637D01*
X011824Y010261D01*
X011824Y010261D01*
X012563Y009924D01*
X013352Y009733D01*
X014163Y009694D01*
X014966Y009809D01*
X015734Y010075D01*
X016437Y010481D01*
X016485Y010523D01*
X016485Y010439D01*
X016475Y010415D01*
X016475Y004567D01*
X016420Y004511D01*
X016367Y004383D01*
X016367Y004245D01*
X016420Y004116D01*
X016518Y004018D01*
X016646Y003965D01*
X016785Y003965D01*
X016913Y004018D01*
X017011Y004116D01*
X017064Y004245D01*
X017064Y004383D01*
X017011Y004511D01*
X016955Y004567D01*
X016955Y010415D01*
X016945Y010439D01*
X016945Y010518D01*
X017842Y011415D01*
X017808Y011287D01*
X017808Y011021D01*
X017877Y010765D01*
X018010Y010534D01*
X018198Y010346D01*
X018428Y010213D01*
X018685Y010144D01*
X018951Y010144D01*
X019208Y010213D01*
X019438Y010346D01*
X019626Y010534D01*
X019759Y010765D01*
X019828Y011021D01*
X019828Y011287D01*
X019759Y011544D01*
X019626Y011775D01*
X019438Y011963D01*
X019208Y012096D01*
X018951Y012164D01*
X018685Y012164D01*
X018558Y012130D01*
X019977Y013549D01*
X020001Y013559D01*
X020069Y013627D01*
X020079Y013651D01*
X020095Y013667D01*
X020095Y013691D01*
X020099Y013700D01*
X020315Y013700D01*
X020346Y013623D01*
X020513Y013456D01*
X020731Y013366D01*
X021794Y013366D01*
X022012Y013456D01*
X022179Y013623D01*
X022269Y013841D01*
X022269Y014078D01*
X022179Y014296D01*
X022012Y014463D01*
X021794Y014553D01*
X020731Y014553D01*
X020513Y014463D01*
X020346Y014296D01*
X020315Y014220D01*
X019973Y014220D01*
X019624Y014568D01*
X019651Y014633D01*
X019651Y014861D01*
X019564Y015072D01*
X019403Y015233D01*
X019192Y015321D01*
X018964Y015321D01*
X018753Y015233D01*
X018591Y015072D01*
X018504Y014861D01*
X018504Y014633D01*
X018591Y014422D01*
X018753Y014261D01*
X018964Y014173D01*
X019192Y014173D01*
X019257Y014200D01*
X019617Y013840D01*
X017684Y011907D01*
X017924Y012372D01*
X017924Y012372D01*
X018153Y013151D01*
X018153Y013151D01*
X018230Y013960D01*
X018153Y014768D01*
X017924Y015547D01*
X017552Y016268D01*
X017552Y016268D01*
X017050Y016906D01*
X017050Y016906D01*
X016437Y017438D01*
X016437Y017438D01*
X015734Y017844D01*
X015734Y017844D01*
X014966Y018110D01*
X014182Y018222D01*
X015080Y019120D01*
X015147Y019188D01*
X015184Y019276D01*
X015184Y020439D01*
X015207Y020462D01*
X016456Y020462D01*
X017303Y021308D01*
X017438Y021443D01*
X017438Y022193D01*
X017502Y022129D01*
X017630Y022076D01*
X017769Y022076D01*
X017897Y022129D01*
X017995Y022227D01*
X018048Y022355D01*
X018048Y022493D01*
X017995Y022621D01*
X017930Y022687D01*
X017930Y023608D01*
X018138Y023817D01*
X018198Y023674D01*
X018359Y023513D01*
X018570Y023425D01*
X018798Y023425D01*
X019009Y023513D01*
X019075Y023578D01*
X019123Y023530D01*
X019103Y023482D01*
X019103Y023335D01*
X019159Y023200D01*
X019263Y023096D01*
X019398Y023040D01*
X019545Y023040D01*
X019680Y023096D01*
X019780Y023196D01*
X019780Y021900D01*
X019635Y021841D01*
X019437Y021642D01*
X019330Y021383D01*
X019330Y021103D01*
X019437Y020844D01*
X019635Y020645D01*
X019780Y020586D01*
X019780Y020185D01*
X019676Y020244D01*
X019411Y020315D01*
X019137Y020315D01*
X018873Y020244D01*
X018635Y020107D01*
X018442Y019913D01*
X018305Y019676D01*
X018234Y019411D01*
X018234Y019137D01*
X018305Y018873D01*
X018442Y018635D01*
X018635Y018442D01*
X018873Y018305D01*
X019137Y018234D01*
X019411Y018234D01*
X019676Y018305D01*
X019913Y018442D01*
X020107Y018635D01*
X020244Y018873D01*
X020295Y019063D01*
X025002Y019063D01*
X025078Y018881D01*
X025259Y018700D01*
X025495Y018602D01*
X025751Y018602D01*
X025987Y018700D01*
X026168Y018881D01*
X026266Y019117D01*
X026266Y019373D01*
X026168Y019609D01*
X025987Y019790D01*
X025751Y019888D01*
X025495Y019888D01*
X025259Y019790D01*
X025140Y019671D01*
X025140Y021582D01*
X025217Y021476D01*
X025894Y020330D01*
X026452Y019121D01*
X026669Y018537D01*
X026669Y009382D01*
X026452Y008798D01*
X025894Y007589D01*
X025217Y006443D01*
X025140Y006337D01*
X025140Y008751D01*
X025034Y008856D01*
X020295Y008856D01*
X020244Y009046D01*
X020107Y009284D01*
X019913Y009477D01*
X019676Y009614D01*
X019411Y009685D01*
X019137Y009685D01*
X018873Y009614D01*
X018635Y009477D01*
X018442Y009284D01*
X018305Y009046D01*
X018234Y008782D01*
X018234Y008508D01*
X018305Y008243D01*
X018442Y008006D01*
X018635Y007812D01*
X018873Y007675D01*
X019137Y007604D01*
X019411Y007604D01*
X019676Y007675D01*
X019780Y007734D01*
X019780Y007312D01*
X019731Y007292D01*
X019653Y007247D01*
X019582Y007192D01*
X019518Y007129D01*
X019464Y007057D01*
X019419Y006980D01*
X019384Y006897D01*
X019361Y006810D01*
X019352Y006736D01*
X019780Y006736D01*
X019780Y006616D01*
X019352Y006616D01*
X019361Y006542D01*
X019384Y006455D01*
X019419Y006372D01*
X019464Y006295D01*
X019518Y006223D01*
X019582Y006160D01*
X019653Y006105D01*
X019731Y006060D01*
X019780Y006040D01*
X019780Y004602D01*
X019885Y004496D01*
X023638Y004496D01*
X023536Y004383D01*
X022548Y003491D01*
X021476Y002702D01*
X020330Y002025D01*
X019121Y001467D01*
X018537Y001250D01*
X009382Y001250D01*
X008798Y001467D01*
X007589Y002025D01*
X006443Y002702D01*
X005371Y003491D01*
X004383Y004383D01*
X004326Y004446D02*
X016393Y004446D01*
X016367Y004328D02*
X012826Y004328D01*
X013014Y004209D02*
X016382Y004209D01*
X016446Y004091D02*
X013080Y004091D01*
X013095Y003972D02*
X016630Y003972D01*
X016801Y003972D02*
X023081Y003972D01*
X022950Y003854D02*
X013070Y003854D01*
X012992Y003735D02*
X022819Y003735D01*
X022688Y003617D02*
X012987Y003617D01*
X012987Y003498D02*
X022557Y003498D01*
X022397Y003380D02*
X012987Y003380D01*
X012987Y003261D02*
X022236Y003261D01*
X022075Y003143D02*
X012987Y003143D01*
X012987Y003024D02*
X021914Y003024D01*
X021753Y002906D02*
X012987Y002906D01*
X012987Y002787D02*
X013908Y002787D01*
X013803Y002669D02*
X013090Y002669D01*
X013074Y002345D02*
X013960Y002345D01*
X014107Y002493D01*
X014412Y002669D02*
X021419Y002669D01*
X021592Y002787D02*
X014306Y002787D01*
X014456Y002550D02*
X021219Y002550D01*
X021018Y002432D02*
X014456Y002432D01*
X014410Y002313D02*
X020817Y002313D01*
X020617Y002195D02*
X014297Y002195D01*
X013074Y002345D02*
X012747Y002672D01*
X012747Y003983D01*
X012502Y003735D02*
X005100Y003735D01*
X005231Y003617D02*
X012507Y003617D01*
X012507Y003498D02*
X005362Y003498D01*
X005522Y003380D02*
X012507Y003380D01*
X012507Y003261D02*
X005683Y003261D01*
X005844Y003143D02*
X012507Y003143D01*
X012507Y003024D02*
X006005Y003024D01*
X006166Y002906D02*
X012507Y002906D01*
X012507Y002787D02*
X006327Y002787D01*
X006500Y002669D02*
X012507Y002669D01*
X012538Y002550D02*
X006700Y002550D01*
X006901Y002432D02*
X012648Y002432D01*
X012767Y002313D02*
X007102Y002313D01*
X007302Y002195D02*
X012885Y002195D01*
X009072Y001365D02*
X018847Y001365D01*
X019156Y001484D02*
X008763Y001484D01*
X008506Y001602D02*
X019413Y001602D01*
X019670Y001721D02*
X008249Y001721D01*
X007993Y001839D02*
X019926Y001839D01*
X020183Y001958D02*
X007736Y001958D01*
X007503Y002076D02*
X020416Y002076D01*
X023212Y004091D02*
X016985Y004091D01*
X017049Y004209D02*
X023343Y004209D01*
X023474Y004328D02*
X017064Y004328D01*
X017038Y004446D02*
X023593Y004446D01*
X025140Y006342D02*
X025143Y006342D01*
X025140Y006461D02*
X025227Y006461D01*
X025297Y006579D02*
X025140Y006579D01*
X025140Y006698D02*
X025367Y006698D01*
X025437Y006816D02*
X025140Y006816D01*
X025140Y006935D02*
X025507Y006935D01*
X025577Y007053D02*
X025140Y007053D01*
X025140Y007172D02*
X025647Y007172D01*
X025717Y007290D02*
X025140Y007290D01*
X025140Y007409D02*
X025787Y007409D01*
X025857Y007527D02*
X025140Y007527D01*
X025140Y007646D02*
X025920Y007646D01*
X025975Y007764D02*
X025140Y007764D01*
X025140Y007883D02*
X026029Y007883D01*
X026084Y008001D02*
X025140Y008001D01*
X025140Y008120D02*
X026139Y008120D01*
X026193Y008238D02*
X025140Y008238D01*
X025140Y008357D02*
X026248Y008357D01*
X026303Y008475D02*
X025140Y008475D01*
X025140Y008594D02*
X026357Y008594D01*
X026412Y008712D02*
X025140Y008712D01*
X025060Y008831D02*
X026464Y008831D01*
X026508Y008949D02*
X020270Y008949D01*
X020232Y009068D02*
X026552Y009068D01*
X026596Y009186D02*
X020164Y009186D01*
X020086Y009305D02*
X026641Y009305D01*
X026669Y009423D02*
X019968Y009423D01*
X019802Y009542D02*
X026669Y009542D01*
X026669Y009660D02*
X019506Y009660D01*
X019043Y009660D02*
X016955Y009660D01*
X016955Y009542D02*
X018747Y009542D01*
X018581Y009423D02*
X016955Y009423D01*
X016955Y009305D02*
X018463Y009305D01*
X018385Y009186D02*
X016955Y009186D01*
X016955Y009068D02*
X018317Y009068D01*
X018279Y008949D02*
X016955Y008949D01*
X016955Y008831D02*
X018247Y008831D01*
X018234Y008712D02*
X016955Y008712D01*
X016955Y008594D02*
X018234Y008594D01*
X018242Y008475D02*
X016955Y008475D01*
X016955Y008357D02*
X018274Y008357D01*
X018308Y008238D02*
X016955Y008238D01*
X016955Y008120D02*
X018376Y008120D01*
X018446Y008001D02*
X016955Y008001D01*
X016955Y007883D02*
X018565Y007883D01*
X018718Y007764D02*
X016955Y007764D01*
X016955Y007646D02*
X018982Y007646D01*
X019567Y007646D02*
X019780Y007646D01*
X019780Y007527D02*
X016955Y007527D01*
X016955Y007409D02*
X019780Y007409D01*
X019728Y007290D02*
X016955Y007290D01*
X016955Y007172D02*
X019561Y007172D01*
X019461Y007053D02*
X016955Y007053D01*
X016955Y006935D02*
X019400Y006935D01*
X019363Y006816D02*
X016955Y006816D01*
X016955Y006698D02*
X019780Y006698D01*
X019356Y006579D02*
X016955Y006579D01*
X016955Y006461D02*
X019383Y006461D01*
X019436Y006342D02*
X016955Y006342D01*
X016955Y006224D02*
X019518Y006224D01*
X019654Y006105D02*
X016955Y006105D01*
X016955Y005987D02*
X019780Y005987D01*
X019780Y005868D02*
X016955Y005868D01*
X016955Y005750D02*
X019780Y005750D01*
X019780Y005631D02*
X016955Y005631D01*
X016955Y005513D02*
X019780Y005513D01*
X019780Y005394D02*
X016955Y005394D01*
X016955Y005276D02*
X019780Y005276D01*
X019780Y005157D02*
X016955Y005157D01*
X016955Y005039D02*
X019780Y005039D01*
X019780Y004920D02*
X016955Y004920D01*
X016955Y004802D02*
X019780Y004802D01*
X019780Y004683D02*
X016955Y004683D01*
X016958Y004565D02*
X019817Y004565D01*
X016715Y004314D02*
X016715Y010367D01*
X016475Y010371D02*
X016246Y010371D01*
X016437Y010481D02*
X016437Y010481D01*
X016447Y010490D02*
X016485Y010490D01*
X016475Y010253D02*
X016041Y010253D01*
X015836Y010134D02*
X016475Y010134D01*
X016475Y010016D02*
X015562Y010016D01*
X015219Y009897D02*
X016475Y009897D01*
X016475Y009779D02*
X014751Y009779D01*
X014163Y009694D02*
X014163Y009694D01*
X014458Y008949D02*
X013067Y008949D01*
X013103Y008934D02*
X012893Y009021D01*
X012664Y009021D01*
X012453Y008934D01*
X012292Y008773D01*
X012282Y008748D01*
X012154Y008748D01*
X012044Y008702D01*
X011930Y008588D01*
X011813Y008540D01*
X011715Y008442D01*
X011662Y008314D01*
X011662Y008175D01*
X011715Y008047D01*
X011813Y007949D01*
X011941Y007896D01*
X012080Y007896D01*
X012208Y007949D01*
X012306Y008047D01*
X012324Y008091D01*
X012453Y007961D01*
X012664Y007874D01*
X012893Y007874D01*
X013103Y007961D01*
X013265Y008123D01*
X013352Y008334D01*
X013352Y008562D01*
X013265Y008773D01*
X013103Y008934D01*
X013207Y008831D02*
X014318Y008831D01*
X014261Y008773D02*
X014173Y008562D01*
X014173Y008334D01*
X014261Y008123D01*
X014422Y007961D01*
X014633Y007874D01*
X014861Y007874D01*
X015072Y007961D01*
X015233Y008123D01*
X015244Y008148D01*
X015269Y008148D01*
X015386Y008099D01*
X015525Y008099D01*
X015653Y008152D01*
X015751Y008250D01*
X015804Y008378D01*
X015804Y008517D01*
X015751Y008645D01*
X015653Y008743D01*
X015525Y008796D01*
X015386Y008796D01*
X015269Y008748D01*
X015244Y008748D01*
X015233Y008773D01*
X015072Y008934D01*
X014861Y009021D01*
X014633Y009021D01*
X014422Y008934D01*
X014261Y008773D01*
X014235Y008712D02*
X013290Y008712D01*
X013339Y008594D02*
X014186Y008594D01*
X014173Y008475D02*
X013352Y008475D01*
X013352Y008357D02*
X014173Y008357D01*
X014213Y008238D02*
X013313Y008238D01*
X013262Y008120D02*
X014264Y008120D01*
X014382Y008001D02*
X013143Y008001D01*
X012913Y007883D02*
X014612Y007883D01*
X014882Y007883D02*
X016475Y007883D01*
X016475Y008001D02*
X015112Y008001D01*
X015230Y008120D02*
X015337Y008120D01*
X015574Y008120D02*
X016475Y008120D01*
X016475Y008238D02*
X015739Y008238D01*
X015795Y008357D02*
X016475Y008357D01*
X016475Y008475D02*
X015804Y008475D01*
X015772Y008594D02*
X016475Y008594D01*
X016475Y008712D02*
X015684Y008712D01*
X015175Y008831D02*
X016475Y008831D01*
X016475Y008949D02*
X015036Y008949D01*
X016475Y009068D02*
X011296Y009068D01*
X011296Y009186D02*
X016475Y009186D01*
X016475Y009305D02*
X011296Y009305D01*
X011296Y009423D02*
X016475Y009423D01*
X016475Y009542D02*
X011296Y009542D01*
X011296Y009660D02*
X016475Y009660D01*
X016955Y009779D02*
X026669Y009779D01*
X026669Y009897D02*
X016955Y009897D01*
X016955Y010016D02*
X023075Y010016D01*
X022972Y010058D02*
X022755Y010275D01*
X022638Y010558D01*
X022638Y010865D01*
X022755Y011148D01*
X022972Y011365D01*
X023223Y011469D01*
X023196Y011478D01*
X023118Y011517D01*
X023048Y011569D01*
X022986Y011630D01*
X022935Y011701D01*
X022895Y011778D01*
X022868Y011861D01*
X022857Y011931D01*
X023348Y011931D01*
X023348Y012051D01*
X022857Y012051D01*
X022868Y012121D01*
X022895Y012204D01*
X022935Y012281D01*
X022986Y012352D01*
X023048Y012413D01*
X023118Y012465D01*
X023196Y012504D01*
X023279Y012531D01*
X023348Y012542D01*
X023348Y012051D01*
X023468Y012051D01*
X023468Y012542D01*
X023538Y012531D01*
X023621Y012504D01*
X024329Y012504D01*
X024264Y012477D02*
X024103Y012316D01*
X024016Y012105D01*
X024016Y011877D01*
X024103Y011666D01*
X024264Y011505D01*
X024319Y011482D01*
X023629Y011482D01*
X023699Y011517D01*
X023769Y011569D01*
X023831Y011630D01*
X023882Y011701D01*
X023921Y011778D01*
X023948Y011861D01*
X023959Y011931D01*
X023468Y011931D01*
X023468Y012051D01*
X023959Y012051D01*
X023948Y012121D01*
X023921Y012204D01*
X023882Y012281D01*
X023831Y012352D01*
X023769Y012413D01*
X023699Y012465D01*
X023621Y012504D01*
X023468Y012504D02*
X023348Y012504D01*
X023348Y012386D02*
X023468Y012386D01*
X023468Y012267D02*
X023348Y012267D01*
X023348Y012149D02*
X023468Y012149D01*
X023468Y012030D02*
X024016Y012030D01*
X024016Y011912D02*
X023956Y011912D01*
X023926Y011793D02*
X024050Y011793D01*
X024100Y011675D02*
X023863Y011675D01*
X023752Y011556D02*
X024213Y011556D01*
X024034Y012149D02*
X023939Y012149D01*
X023889Y012267D02*
X024083Y012267D01*
X024173Y012386D02*
X023797Y012386D01*
X024264Y012477D02*
X024475Y012565D01*
X024704Y012565D01*
X024914Y012477D01*
X025076Y012316D01*
X025163Y012105D01*
X025163Y011877D01*
X025076Y011666D01*
X024914Y011505D01*
X024849Y011478D01*
X024849Y011438D01*
X025026Y011365D01*
X025243Y011148D01*
X025360Y010865D01*
X025360Y010558D01*
X025243Y010275D01*
X025026Y010058D01*
X024743Y009941D01*
X023255Y009941D01*
X022972Y010058D01*
X022896Y010134D02*
X016955Y010134D01*
X016955Y010253D02*
X018360Y010253D01*
X018173Y010371D02*
X016955Y010371D01*
X016945Y010490D02*
X018055Y010490D01*
X017967Y010608D02*
X017036Y010608D01*
X017154Y010727D02*
X017899Y010727D01*
X017856Y010845D02*
X017273Y010845D01*
X017391Y010964D02*
X017824Y010964D01*
X017808Y011082D02*
X017510Y011082D01*
X017628Y011201D02*
X017808Y011201D01*
X017817Y011319D02*
X017747Y011319D01*
X017689Y011912D02*
X017686Y011912D01*
X017748Y012030D02*
X017807Y012030D01*
X017809Y012149D02*
X017926Y012149D01*
X017870Y012267D02*
X018044Y012267D01*
X017928Y012386D02*
X018163Y012386D01*
X018281Y012504D02*
X017963Y012504D01*
X017998Y012623D02*
X018400Y012623D01*
X018518Y012741D02*
X018032Y012741D01*
X018067Y012860D02*
X018637Y012860D01*
X018755Y012978D02*
X018102Y012978D01*
X018137Y013097D02*
X018874Y013097D01*
X018992Y013215D02*
X018159Y013215D01*
X018170Y013334D02*
X019111Y013334D01*
X019229Y013452D02*
X018181Y013452D01*
X018193Y013571D02*
X019348Y013571D01*
X019466Y013689D02*
X018204Y013689D01*
X018215Y013808D02*
X019585Y013808D01*
X019531Y013926D02*
X018227Y013926D01*
X018230Y013960D02*
X018230Y013960D01*
X018222Y014045D02*
X019412Y014045D01*
X019294Y014163D02*
X018211Y014163D01*
X018199Y014282D02*
X018732Y014282D01*
X018613Y014400D02*
X018188Y014400D01*
X018177Y014519D02*
X018551Y014519D01*
X018504Y014637D02*
X018165Y014637D01*
X018154Y014756D02*
X018504Y014756D01*
X018509Y014874D02*
X018122Y014874D01*
X018153Y014768D02*
X018153Y014768D01*
X018087Y014993D02*
X018558Y014993D01*
X018630Y015111D02*
X018052Y015111D01*
X018017Y015230D02*
X018749Y015230D01*
X019406Y015230D02*
X020756Y015230D01*
X020753Y015234D02*
X020806Y015161D01*
X020869Y015097D01*
X020942Y015044D01*
X021023Y015003D01*
X021109Y014975D01*
X021183Y014963D01*
X021183Y015474D01*
X021303Y015474D01*
X021303Y014961D01*
X022115Y014961D01*
X022204Y014975D01*
X022290Y015003D01*
X022370Y015044D01*
X022443Y015097D01*
X022507Y015161D01*
X022560Y015234D01*
X022601Y015314D01*
X022629Y015400D01*
X022641Y015474D01*
X021303Y015474D01*
X021303Y015594D01*
X022641Y015594D01*
X022629Y015669D01*
X022601Y015754D01*
X022560Y015835D01*
X022507Y015908D01*
X022443Y015972D01*
X022370Y016025D01*
X022290Y016066D01*
X022204Y016094D01*
X022115Y016108D01*
X021303Y016108D01*
X021303Y015594D01*
X021183Y015594D01*
X021183Y015474D01*
X020672Y015474D01*
X020684Y015400D01*
X020712Y015314D01*
X020753Y015234D01*
X020701Y015348D02*
X017982Y015348D01*
X017948Y015467D02*
X020673Y015467D01*
X020672Y015594D02*
X021183Y015594D01*
X021183Y016105D01*
X021109Y016094D01*
X021023Y016066D01*
X020942Y016025D01*
X020869Y015972D01*
X020806Y015908D01*
X020753Y015835D01*
X020712Y015754D01*
X020684Y015669D01*
X020672Y015594D01*
X020695Y015704D02*
X017843Y015704D01*
X017782Y015822D02*
X020746Y015822D01*
X020838Y015941D02*
X017721Y015941D01*
X017660Y016059D02*
X021010Y016059D01*
X021183Y016059D02*
X021303Y016059D01*
X021303Y015941D02*
X021183Y015941D01*
X021183Y015822D02*
X021303Y015822D01*
X021303Y015704D02*
X021183Y015704D01*
X021183Y015585D02*
X017904Y015585D01*
X017924Y015547D02*
X017924Y015547D01*
X017599Y016178D02*
X022891Y016178D01*
X022922Y016253D02*
X022835Y016042D01*
X022835Y016026D01*
X022822Y015996D01*
X022822Y015860D01*
X022835Y015831D01*
X022835Y015814D01*
X022922Y015603D01*
X023083Y015442D01*
X023233Y015380D01*
X023192Y015338D01*
X023139Y015210D01*
X023139Y015071D01*
X023192Y014943D01*
X023290Y014845D01*
X023418Y014792D01*
X023556Y014792D01*
X023684Y014845D01*
X023782Y014943D01*
X023836Y015071D01*
X023836Y015210D01*
X023782Y015338D01*
X023727Y015393D01*
X023727Y015439D01*
X023733Y015442D01*
X023895Y015603D01*
X023982Y015814D01*
X023982Y016042D01*
X023973Y016063D01*
X024016Y016021D01*
X024016Y015814D01*
X024103Y015603D01*
X024264Y015442D01*
X024475Y015354D01*
X024704Y015354D01*
X024914Y015442D01*
X025076Y015603D01*
X025163Y015814D01*
X025163Y016042D01*
X025076Y016253D01*
X024914Y016414D01*
X024914Y016415D02*
X026669Y016415D01*
X026669Y016533D02*
X024975Y016533D01*
X025026Y016554D02*
X025243Y016771D01*
X025360Y017054D01*
X025360Y017361D01*
X025243Y017644D01*
X025026Y017861D01*
X024743Y017978D01*
X023255Y017978D01*
X022972Y017861D01*
X022755Y017644D01*
X022638Y017361D01*
X022638Y017054D01*
X022755Y016771D01*
X022972Y016554D01*
X023197Y016461D01*
X023083Y016414D01*
X022922Y016253D01*
X022965Y016296D02*
X017530Y016296D01*
X017437Y016415D02*
X023084Y016415D01*
X023023Y016533D02*
X017344Y016533D01*
X017251Y016652D02*
X022875Y016652D01*
X022756Y016770D02*
X017157Y016770D01*
X017064Y016889D02*
X022706Y016889D01*
X022657Y017007D02*
X016934Y017007D01*
X017050Y016906D02*
X017050Y016906D01*
X016797Y017126D02*
X022638Y017126D01*
X022638Y017244D02*
X016661Y017244D01*
X016524Y017363D02*
X022639Y017363D01*
X022688Y017481D02*
X016362Y017481D01*
X016157Y017600D02*
X022737Y017600D01*
X022829Y017718D02*
X015952Y017718D01*
X015747Y017837D02*
X022948Y017837D01*
X023199Y017955D02*
X015413Y017955D01*
X015070Y018074D02*
X026669Y018074D01*
X026669Y018192D02*
X014393Y018192D01*
X014270Y018311D02*
X018863Y018311D01*
X018657Y018429D02*
X014389Y018429D01*
X014507Y018548D02*
X018530Y018548D01*
X018424Y018666D02*
X014626Y018666D01*
X014744Y018785D02*
X018356Y018785D01*
X018297Y018903D02*
X014863Y018903D01*
X014981Y019022D02*
X018265Y019022D01*
X018234Y019140D02*
X015100Y019140D01*
X015177Y019259D02*
X018234Y019259D01*
X018234Y019377D02*
X015184Y019377D01*
X015184Y019496D02*
X018256Y019496D01*
X018288Y019614D02*
X015184Y019614D01*
X015184Y019733D02*
X018337Y019733D01*
X018406Y019851D02*
X015184Y019851D01*
X015184Y019970D02*
X018498Y019970D01*
X018616Y020088D02*
X015184Y020088D01*
X015184Y020207D02*
X018807Y020207D01*
X019481Y020799D02*
X016794Y020799D01*
X016912Y020918D02*
X019406Y020918D01*
X019357Y021036D02*
X017031Y021036D01*
X017149Y021155D02*
X019330Y021155D01*
X019330Y021273D02*
X017268Y021273D01*
X017386Y021392D02*
X019333Y021392D01*
X019382Y021510D02*
X017438Y021510D01*
X017438Y021629D02*
X019431Y021629D01*
X019542Y021747D02*
X017438Y021747D01*
X017438Y021866D02*
X019695Y021866D01*
X019780Y021984D02*
X017438Y021984D01*
X017438Y022103D02*
X017565Y022103D01*
X017834Y022103D02*
X019780Y022103D01*
X019780Y022221D02*
X017989Y022221D01*
X018042Y022340D02*
X019780Y022340D01*
X019780Y022458D02*
X018048Y022458D01*
X018014Y022577D02*
X019780Y022577D01*
X019780Y022695D02*
X017930Y022695D01*
X017930Y022814D02*
X019780Y022814D01*
X019780Y022932D02*
X017930Y022932D01*
X017930Y023051D02*
X019373Y023051D01*
X019569Y023051D02*
X019780Y023051D01*
X019780Y023169D02*
X019753Y023169D01*
X019839Y023377D02*
X019839Y023482D01*
X019783Y023617D01*
X019680Y023720D01*
X019545Y023776D01*
X019527Y023776D01*
X019357Y023947D01*
X019258Y024046D01*
X019258Y024113D01*
X019170Y024324D01*
X019009Y024485D01*
X018995Y024491D01*
X019009Y024497D01*
X019170Y024658D01*
X019258Y024869D01*
X019258Y025097D01*
X019241Y025137D01*
X019251Y025147D01*
X019344Y025147D01*
X019472Y025200D01*
X019570Y025298D01*
X019623Y025426D01*
X019623Y025564D01*
X019570Y025692D01*
X019472Y025790D01*
X019344Y025843D01*
X019254Y025843D01*
X019258Y025853D01*
X019258Y026082D01*
X019170Y026292D01*
X019009Y026454D01*
X018798Y026541D01*
X018570Y026541D01*
X018359Y026454D01*
X018198Y026292D01*
X018110Y026082D01*
X018110Y025853D01*
X018143Y025774D01*
X018073Y025774D01*
X018038Y025760D01*
X018077Y025853D01*
X018077Y026082D01*
X017989Y026292D01*
X017828Y026454D01*
X017617Y026541D01*
X017389Y026541D01*
X017294Y026502D01*
X017126Y026669D01*
X018537Y026669D01*
X019121Y026452D01*
X020330Y025894D01*
X021476Y025217D01*
X022548Y024428D01*
X023536Y023536D01*
X023638Y023423D01*
X019885Y023423D01*
X019839Y023377D01*
X019839Y023406D02*
X019868Y023406D01*
X019822Y023525D02*
X023546Y023525D01*
X023417Y023643D02*
X019757Y023643D01*
X019581Y023762D02*
X023286Y023762D01*
X023155Y023880D02*
X019423Y023880D01*
X019357Y023947D02*
X019357Y023947D01*
X019305Y023999D02*
X023024Y023999D01*
X022893Y024117D02*
X019256Y024117D01*
X019207Y024236D02*
X022762Y024236D01*
X022631Y024354D02*
X019140Y024354D01*
X019022Y024473D02*
X022488Y024473D01*
X022327Y024591D02*
X019103Y024591D01*
X019192Y024710D02*
X022166Y024710D01*
X022005Y024828D02*
X019241Y024828D01*
X019258Y024947D02*
X021844Y024947D01*
X021683Y025065D02*
X019258Y025065D01*
X019433Y025184D02*
X021522Y025184D01*
X021332Y025302D02*
X019572Y025302D01*
X019621Y025421D02*
X021132Y025421D01*
X020931Y025539D02*
X019623Y025539D01*
X019584Y025658D02*
X020730Y025658D01*
X020529Y025776D02*
X019486Y025776D01*
X019258Y025895D02*
X020328Y025895D01*
X020072Y026013D02*
X019258Y026013D01*
X019237Y026132D02*
X019815Y026132D01*
X019558Y026250D02*
X019188Y026250D01*
X019094Y026369D02*
X019301Y026369D01*
X019026Y026487D02*
X018929Y026487D01*
X018708Y026606D02*
X017190Y026606D01*
X017747Y026487D02*
X018439Y026487D01*
X018274Y026369D02*
X017913Y026369D01*
X018007Y026250D02*
X018180Y026250D01*
X018131Y026132D02*
X018056Y026132D01*
X018077Y026013D02*
X018110Y026013D01*
X018110Y025895D02*
X018077Y025895D01*
X018045Y025776D02*
X018142Y025776D01*
X018083Y023762D02*
X018161Y023762D01*
X018228Y023643D02*
X017964Y023643D01*
X017930Y023525D02*
X018347Y023525D01*
X017930Y023406D02*
X019103Y023406D01*
X019121Y023525D02*
X019021Y023525D01*
X019123Y023288D02*
X017930Y023288D01*
X017930Y023169D02*
X019190Y023169D01*
X017076Y023208D02*
X017069Y023201D01*
X017063Y023195D01*
X016880Y023195D01*
X016814Y023261D01*
X016686Y023314D01*
X016548Y023314D01*
X016420Y023261D01*
X016322Y023163D01*
X016269Y023035D01*
X016269Y022896D01*
X016322Y022768D01*
X016420Y022670D01*
X016548Y022617D01*
X016686Y022617D01*
X016814Y022670D01*
X016880Y022735D01*
X016978Y022735D01*
X016978Y022359D01*
X016962Y022375D01*
X016834Y022428D01*
X016695Y022428D01*
X016567Y022375D01*
X016502Y022310D01*
X016122Y022310D01*
X016060Y022372D01*
X016060Y023500D01*
X016060Y023586D01*
X016080Y023634D01*
X016080Y023710D01*
X016752Y023710D01*
X016958Y023916D01*
X016958Y023831D01*
X017011Y023703D01*
X017076Y023638D01*
X017076Y023208D01*
X017069Y023201D02*
X017069Y023201D01*
X017076Y023288D02*
X016750Y023288D01*
X016484Y023288D02*
X016060Y023288D01*
X016060Y023406D02*
X017076Y023406D01*
X017076Y023525D02*
X016060Y023525D01*
X016060Y023500D02*
X016060Y023500D01*
X016080Y023643D02*
X017071Y023643D01*
X016986Y023762D02*
X016803Y023762D01*
X016922Y023880D02*
X016958Y023880D01*
X016328Y023169D02*
X016060Y023169D01*
X016060Y023051D02*
X016275Y023051D01*
X016269Y022932D02*
X016060Y022932D01*
X016060Y022814D02*
X016303Y022814D01*
X016395Y022695D02*
X016060Y022695D01*
X016060Y022577D02*
X016978Y022577D01*
X016978Y022695D02*
X016839Y022695D01*
X016978Y022458D02*
X016060Y022458D01*
X016092Y022340D02*
X016532Y022340D01*
X014649Y021587D02*
X014501Y021440D01*
X012385Y021440D01*
X012554Y021747D02*
X014389Y021747D01*
X014389Y021866D02*
X012024Y021866D01*
X012024Y021984D02*
X014389Y021984D01*
X014389Y022103D02*
X012024Y022103D01*
X012024Y022221D02*
X014389Y022221D01*
X014389Y022340D02*
X012024Y022340D01*
X012024Y022458D02*
X014389Y022458D01*
X014389Y022577D02*
X012024Y022577D01*
X012024Y022695D02*
X014389Y022695D01*
X014389Y022814D02*
X012024Y022814D01*
X012024Y022932D02*
X014389Y022932D01*
X014389Y023051D02*
X012024Y023051D01*
X011965Y023169D02*
X013437Y023169D01*
X013319Y023288D02*
X011847Y023288D01*
X011728Y023406D02*
X013200Y023406D01*
X013082Y023525D02*
X011610Y023525D01*
X011491Y023643D02*
X012963Y023643D01*
X013343Y023999D02*
X015009Y023999D01*
X015002Y023890D02*
X015002Y023890D01*
X014992Y023880D02*
X013462Y023880D01*
X013580Y023762D02*
X014873Y023762D01*
X014755Y023643D02*
X013699Y023643D01*
X013225Y024117D02*
X015009Y024117D01*
X015009Y024236D02*
X010975Y024236D01*
X010550Y024236D02*
X005157Y024236D01*
X005288Y024354D02*
X015009Y024354D01*
X015009Y024473D02*
X005431Y024473D01*
X005592Y024591D02*
X012664Y024591D01*
X012546Y024710D02*
X005753Y024710D01*
X005914Y024828D02*
X012427Y024828D01*
X012410Y024947D02*
X006075Y024947D01*
X006236Y025065D02*
X012410Y025065D01*
X012529Y025421D02*
X006788Y025421D01*
X006988Y025539D02*
X012647Y025539D01*
X012626Y025658D02*
X007189Y025658D01*
X007390Y025776D02*
X012508Y025776D01*
X012430Y025895D02*
X007591Y025895D01*
X007848Y026013D02*
X012430Y026013D01*
X012430Y026132D02*
X008104Y026132D01*
X008361Y026250D02*
X012430Y026250D01*
X012505Y026369D02*
X008618Y026369D01*
X008893Y026487D02*
X012623Y026487D01*
X012920Y026487D02*
X013000Y026487D01*
X013000Y026369D02*
X012920Y026369D01*
X012920Y026250D02*
X013000Y026250D01*
X013000Y026132D02*
X012920Y026132D01*
X013296Y026487D02*
X013595Y026487D01*
X013477Y026369D02*
X013414Y026369D01*
X013714Y026606D02*
X009211Y026606D01*
X010452Y024117D02*
X005026Y024117D01*
X004895Y023999D02*
X010414Y023999D01*
X010417Y023880D02*
X004764Y023880D01*
X004633Y023762D02*
X010466Y023762D01*
X010458Y023643D02*
X004502Y023643D01*
X004373Y023525D02*
X010422Y023525D01*
X010427Y023406D02*
X008051Y023406D01*
X008140Y023288D02*
X010477Y023288D01*
X010628Y023169D02*
X008140Y023169D01*
X008140Y023051D02*
X011433Y023051D01*
X011315Y023169D02*
X010913Y023169D01*
X011552Y022932D02*
X008140Y022932D01*
X008140Y022814D02*
X011564Y022814D01*
X011564Y022695D02*
X008140Y022695D01*
X008140Y022577D02*
X011564Y022577D01*
X011564Y022458D02*
X008140Y022458D01*
X008140Y022340D02*
X011564Y022340D01*
X011564Y022221D02*
X008140Y022221D01*
X008140Y022103D02*
X011564Y022103D01*
X011564Y021984D02*
X008140Y021984D01*
X008224Y021866D02*
X011564Y021866D01*
X011564Y021747D02*
X008377Y021747D01*
X008488Y021629D02*
X011564Y021629D01*
X011564Y021510D02*
X008537Y021510D01*
X008586Y021392D02*
X011564Y021392D01*
X011564Y021273D02*
X008590Y021273D01*
X008590Y021155D02*
X011564Y021155D01*
X011564Y021036D02*
X008562Y021036D01*
X008513Y020918D02*
X011564Y020918D01*
X011564Y020799D02*
X008438Y020799D01*
X008319Y020681D02*
X011677Y020681D01*
X011796Y020562D02*
X008140Y020562D01*
X008140Y020444D02*
X011914Y020444D01*
X012033Y020325D02*
X008140Y020325D01*
X008140Y020207D02*
X008178Y020207D01*
X009112Y020207D02*
X012620Y020207D01*
X012858Y020207D02*
X014704Y020207D01*
X014704Y020325D02*
X013023Y020325D01*
X013079Y020444D02*
X014699Y020444D01*
X014620Y020562D02*
X013087Y020562D01*
X013056Y020681D02*
X014595Y020681D01*
X014611Y020799D02*
X012967Y020799D01*
X012592Y021155D02*
X014714Y021155D01*
X014765Y021103D02*
X014765Y021103D01*
X014832Y021036D02*
X012024Y021036D01*
X012024Y021155D02*
X012177Y021155D01*
X012077Y021273D02*
X012024Y021273D01*
X012024Y021392D02*
X012036Y021392D01*
X012024Y021510D02*
X012037Y021510D01*
X012024Y021629D02*
X012086Y021629D01*
X012024Y021747D02*
X012216Y021747D01*
X012091Y020918D02*
X014677Y020918D01*
X014944Y020692D02*
X014944Y019324D01*
X013918Y018297D01*
X013900Y018290D02*
X013418Y018290D01*
X013900Y018290D02*
X013910Y018292D01*
X013918Y018297D01*
X013828Y018548D02*
X009389Y018548D01*
X009495Y018666D02*
X013947Y018666D01*
X014065Y018785D02*
X009563Y018785D01*
X009622Y018903D02*
X014184Y018903D01*
X014302Y019022D02*
X009654Y019022D01*
X009685Y019140D02*
X014421Y019140D01*
X014539Y019259D02*
X009685Y019259D01*
X009685Y019377D02*
X014658Y019377D01*
X014704Y019496D02*
X009663Y019496D01*
X009631Y019614D02*
X014704Y019614D01*
X014704Y019733D02*
X009582Y019733D01*
X009513Y019851D02*
X014704Y019851D01*
X014704Y019970D02*
X009421Y019970D01*
X009303Y020088D02*
X014704Y020088D01*
X015184Y020325D02*
X019780Y020325D01*
X019780Y020207D02*
X019742Y020207D01*
X019780Y020444D02*
X015188Y020444D01*
X016557Y020562D02*
X019780Y020562D01*
X019600Y020681D02*
X016675Y020681D01*
X019686Y018311D02*
X026669Y018311D01*
X026669Y018429D02*
X019892Y018429D01*
X020019Y018548D02*
X026666Y018548D01*
X026621Y018666D02*
X025906Y018666D01*
X026072Y018785D02*
X026577Y018785D01*
X026533Y018903D02*
X026177Y018903D01*
X026226Y019022D02*
X026489Y019022D01*
X026443Y019140D02*
X026266Y019140D01*
X026266Y019259D02*
X026388Y019259D01*
X026334Y019377D02*
X026264Y019377D01*
X026279Y019496D02*
X026215Y019496D01*
X026224Y019614D02*
X026163Y019614D01*
X026170Y019733D02*
X026045Y019733D01*
X026115Y019851D02*
X025840Y019851D01*
X026060Y019970D02*
X025140Y019970D01*
X025140Y020088D02*
X026005Y020088D01*
X025951Y020207D02*
X025140Y020207D01*
X025140Y020325D02*
X025896Y020325D01*
X025827Y020444D02*
X025140Y020444D01*
X025140Y020562D02*
X025757Y020562D01*
X025687Y020681D02*
X025140Y020681D01*
X025140Y020799D02*
X025617Y020799D01*
X025547Y020918D02*
X025140Y020918D01*
X025140Y021036D02*
X025477Y021036D01*
X025407Y021155D02*
X025140Y021155D01*
X025140Y021273D02*
X025337Y021273D01*
X025267Y021392D02*
X025140Y021392D01*
X025140Y021510D02*
X025192Y021510D01*
X025140Y019851D02*
X025406Y019851D01*
X025201Y019733D02*
X025140Y019733D01*
X025019Y019022D02*
X020284Y019022D01*
X020252Y018903D02*
X025068Y018903D01*
X025174Y018785D02*
X020193Y018785D01*
X020125Y018666D02*
X025340Y018666D01*
X024798Y017955D02*
X026669Y017955D01*
X026669Y017837D02*
X025050Y017837D01*
X025169Y017718D02*
X026669Y017718D01*
X026669Y017600D02*
X025261Y017600D01*
X025310Y017481D02*
X026669Y017481D01*
X026669Y017363D02*
X025359Y017363D01*
X025360Y017244D02*
X026669Y017244D01*
X026669Y017126D02*
X025360Y017126D01*
X025340Y017007D02*
X026669Y017007D01*
X026669Y016889D02*
X025291Y016889D01*
X025242Y016770D02*
X026669Y016770D01*
X026669Y016652D02*
X025123Y016652D01*
X025026Y016554D02*
X024801Y016461D01*
X024914Y016414D01*
X025033Y016296D02*
X026669Y016296D01*
X026669Y016178D02*
X025107Y016178D01*
X025156Y016059D02*
X026669Y016059D01*
X026669Y015941D02*
X025163Y015941D01*
X025163Y015822D02*
X026669Y015822D01*
X026669Y015704D02*
X025117Y015704D01*
X025058Y015585D02*
X026669Y015585D01*
X026669Y015467D02*
X024939Y015467D01*
X024240Y015467D02*
X023758Y015467D01*
X023772Y015348D02*
X026669Y015348D01*
X026669Y015230D02*
X023827Y015230D01*
X023836Y015111D02*
X026669Y015111D01*
X026669Y014993D02*
X023803Y014993D01*
X023713Y014874D02*
X026669Y014874D01*
X026669Y014756D02*
X019651Y014756D01*
X019646Y014874D02*
X023261Y014874D01*
X023171Y014993D02*
X022258Y014993D01*
X022457Y015111D02*
X023139Y015111D01*
X023147Y015230D02*
X022557Y015230D01*
X022612Y015348D02*
X023202Y015348D01*
X023059Y015467D02*
X022640Y015467D01*
X022618Y015704D02*
X022880Y015704D01*
X022835Y015822D02*
X022567Y015822D01*
X022474Y015941D02*
X022822Y015941D01*
X022842Y016059D02*
X022303Y016059D01*
X022940Y015585D02*
X021303Y015585D01*
X021303Y015467D02*
X021183Y015467D01*
X021183Y015348D02*
X021303Y015348D01*
X021303Y015230D02*
X021183Y015230D01*
X021183Y015111D02*
X021303Y015111D01*
X021303Y014993D02*
X021183Y014993D01*
X021055Y014993D02*
X019597Y014993D01*
X019525Y015111D02*
X020855Y015111D01*
X020648Y014519D02*
X019674Y014519D01*
X019651Y014637D02*
X026669Y014637D01*
X026669Y014519D02*
X021877Y014519D01*
X022075Y014400D02*
X023073Y014400D01*
X023048Y014382D02*
X022986Y014320D01*
X022935Y014250D01*
X022895Y014172D01*
X022868Y014089D01*
X022857Y014020D01*
X023348Y014020D01*
X023348Y014511D01*
X023279Y014500D01*
X023196Y014473D01*
X023118Y014433D01*
X023048Y014382D01*
X022958Y014282D02*
X022185Y014282D01*
X022234Y014163D02*
X022892Y014163D01*
X022861Y014045D02*
X022269Y014045D01*
X022269Y013926D02*
X023348Y013926D01*
X023348Y013900D02*
X022857Y013900D01*
X022868Y013830D01*
X022895Y013747D01*
X022935Y013669D01*
X022986Y013599D01*
X023048Y013537D01*
X023118Y013486D01*
X023196Y013446D01*
X023279Y013419D01*
X023348Y013408D01*
X023348Y013900D01*
X023348Y014020D01*
X023468Y014020D01*
X023468Y014511D01*
X023538Y014500D01*
X023621Y014473D01*
X023699Y014433D01*
X023769Y014382D01*
X023831Y014320D01*
X023882Y014250D01*
X023921Y014172D01*
X023948Y014089D01*
X023959Y014020D01*
X023468Y014020D01*
X023468Y013900D01*
X023959Y013900D01*
X023948Y013830D01*
X023921Y013747D01*
X023882Y013669D01*
X023831Y013599D01*
X023769Y013537D01*
X023699Y013486D01*
X023621Y013446D01*
X023538Y013419D01*
X023468Y013408D01*
X023468Y013900D01*
X023348Y013900D01*
X023348Y013808D02*
X023468Y013808D01*
X023468Y013926D02*
X026669Y013926D01*
X026669Y013808D02*
X023941Y013808D01*
X023892Y013689D02*
X026669Y013689D01*
X026669Y013571D02*
X023802Y013571D01*
X023632Y013452D02*
X026669Y013452D01*
X026669Y013334D02*
X019761Y013334D01*
X019880Y013452D02*
X020524Y013452D01*
X020399Y013571D02*
X020012Y013571D01*
X020095Y013689D02*
X020319Y013689D01*
X019865Y013763D02*
X019865Y013960D01*
X019911Y014282D02*
X020340Y014282D01*
X020451Y014400D02*
X019792Y014400D01*
X019643Y013215D02*
X026669Y013215D01*
X026669Y013097D02*
X019524Y013097D01*
X019406Y012978D02*
X021125Y012978D01*
X020907Y012888D01*
X020740Y012721D01*
X020650Y012503D01*
X020650Y012267D01*
X018695Y012267D01*
X018626Y012149D02*
X018576Y012149D01*
X018813Y012386D02*
X020650Y012386D01*
X020650Y012504D02*
X018932Y012504D01*
X019050Y012623D02*
X020699Y012623D01*
X020760Y012741D02*
X019169Y012741D01*
X019287Y012860D02*
X020879Y012860D01*
X021125Y012978D02*
X022188Y012978D01*
X026669Y012978D01*
X026669Y012860D02*
X022434Y012860D01*
X022406Y012888D02*
X022188Y012978D01*
X022406Y012888D02*
X022573Y012721D01*
X022663Y012503D01*
X022663Y012267D01*
X022928Y012267D01*
X022877Y012149D02*
X022614Y012149D01*
X022573Y012049D02*
X022663Y012267D01*
X022663Y012386D02*
X023020Y012386D01*
X023196Y012504D02*
X022663Y012504D01*
X022614Y012623D02*
X026669Y012623D01*
X026669Y012741D02*
X022553Y012741D01*
X022573Y012049D02*
X022406Y011882D01*
X022188Y011791D01*
X021306Y011791D01*
X021306Y011323D01*
X021371Y011296D01*
X021533Y011135D01*
X021620Y010924D01*
X021620Y010696D01*
X021533Y010485D01*
X021371Y010324D01*
X021160Y010236D01*
X020932Y010236D01*
X020721Y010324D01*
X020560Y010485D01*
X020472Y010696D01*
X020472Y010924D01*
X020560Y011135D01*
X020721Y011296D01*
X020786Y011323D01*
X020786Y012002D01*
X020740Y012049D01*
X020650Y012267D01*
X020699Y012149D02*
X019010Y012149D01*
X019321Y012030D02*
X020759Y012030D01*
X020786Y011912D02*
X019489Y011912D01*
X019608Y011793D02*
X020786Y011793D01*
X020786Y011675D02*
X019684Y011675D01*
X019752Y011556D02*
X020786Y011556D01*
X020786Y011438D02*
X019788Y011438D01*
X019820Y011319D02*
X020776Y011319D01*
X020625Y011201D02*
X019828Y011201D01*
X019828Y011082D02*
X020538Y011082D01*
X020489Y010964D02*
X019813Y010964D01*
X019781Y010845D02*
X020472Y010845D01*
X020472Y010727D02*
X019737Y010727D01*
X019669Y010608D02*
X020509Y010608D01*
X020558Y010490D02*
X019582Y010490D01*
X019463Y010371D02*
X020674Y010371D01*
X020893Y010253D02*
X019276Y010253D01*
X021200Y010253D02*
X022778Y010253D01*
X022715Y010371D02*
X021419Y010371D01*
X021534Y010490D02*
X022666Y010490D01*
X022638Y010608D02*
X021583Y010608D01*
X021620Y010727D02*
X022638Y010727D01*
X022638Y010845D02*
X021620Y010845D01*
X021603Y010964D02*
X022679Y010964D01*
X022728Y011082D02*
X021554Y011082D01*
X021467Y011201D02*
X022808Y011201D01*
X022926Y011319D02*
X021316Y011319D01*
X021306Y011438D02*
X023148Y011438D01*
X023065Y011556D02*
X021306Y011556D01*
X021306Y011675D02*
X022954Y011675D01*
X022890Y011793D02*
X022192Y011793D01*
X022436Y011912D02*
X022860Y011912D01*
X022554Y012030D02*
X023348Y012030D01*
X024850Y012504D02*
X026669Y012504D01*
X026669Y012386D02*
X025006Y012386D01*
X025096Y012267D02*
X026669Y012267D01*
X026669Y012149D02*
X025145Y012149D01*
X025163Y012030D02*
X026669Y012030D01*
X026669Y011912D02*
X025163Y011912D01*
X025128Y011793D02*
X026669Y011793D01*
X026669Y011675D02*
X025079Y011675D01*
X024966Y011556D02*
X026669Y011556D01*
X026669Y011438D02*
X024850Y011438D01*
X025072Y011319D02*
X026669Y011319D01*
X026669Y011201D02*
X025190Y011201D01*
X025270Y011082D02*
X026669Y011082D01*
X026669Y010964D02*
X025319Y010964D01*
X025360Y010845D02*
X026669Y010845D01*
X026669Y010727D02*
X025360Y010727D01*
X025360Y010608D02*
X026669Y010608D01*
X026669Y010490D02*
X025332Y010490D01*
X025282Y010371D02*
X026669Y010371D01*
X026669Y010253D02*
X025220Y010253D01*
X025102Y010134D02*
X026669Y010134D01*
X026669Y010016D02*
X024923Y010016D01*
X023468Y013452D02*
X023348Y013452D01*
X023348Y013571D02*
X023468Y013571D01*
X023468Y013689D02*
X023348Y013689D01*
X023185Y013452D02*
X022001Y013452D01*
X022126Y013571D02*
X023014Y013571D01*
X022925Y013689D02*
X022206Y013689D01*
X022255Y013808D02*
X022876Y013808D01*
X023348Y014045D02*
X023468Y014045D01*
X023468Y014163D02*
X023348Y014163D01*
X023348Y014282D02*
X023468Y014282D01*
X023468Y014400D02*
X023348Y014400D01*
X023744Y014400D02*
X026669Y014400D01*
X026669Y014282D02*
X023859Y014282D01*
X023924Y014163D02*
X026669Y014163D01*
X026669Y014045D02*
X023955Y014045D01*
X023487Y015141D02*
X023487Y015603D01*
X023877Y015585D02*
X024121Y015585D01*
X024061Y015704D02*
X023936Y015704D01*
X023982Y015822D02*
X024016Y015822D01*
X024016Y015941D02*
X023982Y015941D01*
X023975Y016059D02*
X023978Y016059D01*
X014966Y018110D02*
X014966Y018110D01*
X012765Y018429D02*
X009262Y018429D01*
X009056Y018311D02*
X012346Y018311D01*
X012178Y018263D02*
X012178Y018263D01*
X012033Y018192D02*
X004672Y018192D01*
X004643Y018213D02*
X004566Y018252D01*
X004483Y018279D01*
X004413Y018290D01*
X004413Y017799D01*
X004293Y017799D01*
X004293Y017679D01*
X003802Y017679D01*
X003813Y017609D01*
X003840Y017527D01*
X003880Y017449D01*
X003931Y017378D01*
X003993Y017317D01*
X004063Y017265D01*
X004141Y017226D01*
X004224Y017199D01*
X004293Y017188D01*
X004293Y017679D01*
X004413Y017679D01*
X004413Y017188D01*
X004483Y017199D01*
X004566Y017226D01*
X004643Y017265D01*
X004714Y017317D01*
X004776Y017378D01*
X004827Y017449D01*
X004866Y017527D01*
X004893Y017609D01*
X004904Y017679D01*
X004413Y017679D01*
X004413Y017799D01*
X004904Y017799D01*
X004893Y017869D01*
X004866Y017952D01*
X004827Y018029D01*
X004776Y018100D01*
X004714Y018161D01*
X004643Y018213D01*
X004795Y018074D02*
X011792Y018074D01*
X011551Y017955D02*
X004865Y017955D01*
X004898Y017837D02*
X011350Y017837D01*
X011430Y017896D02*
X011430Y017896D01*
X011191Y017718D02*
X004413Y017718D01*
X004413Y017600D02*
X004293Y017600D01*
X004293Y017718D02*
X001250Y017718D01*
X001250Y017600D02*
X003816Y017600D01*
X003863Y017481D02*
X001250Y017481D01*
X001250Y017363D02*
X003947Y017363D01*
X004105Y017244D02*
X001250Y017244D01*
X001250Y017126D02*
X010505Y017126D01*
X010616Y017244D02*
X004601Y017244D01*
X004413Y017244D02*
X004293Y017244D01*
X004293Y017363D02*
X004413Y017363D01*
X004413Y017481D02*
X004293Y017481D01*
X004293Y017799D02*
X003802Y017799D01*
X003813Y017869D01*
X003840Y017952D01*
X003880Y018029D01*
X003931Y018100D01*
X003993Y018161D01*
X004063Y018213D01*
X004141Y018252D01*
X004224Y018279D01*
X004293Y018290D01*
X004293Y017799D01*
X004293Y017837D02*
X004413Y017837D01*
X004413Y017955D02*
X004293Y017955D01*
X004293Y018074D02*
X004413Y018074D01*
X004413Y018192D02*
X004293Y018192D01*
X004035Y018192D02*
X001250Y018192D01*
X001250Y018074D02*
X003912Y018074D01*
X003842Y017955D02*
X001250Y017955D01*
X001250Y017837D02*
X003808Y017837D01*
X004760Y017363D02*
X010726Y017363D01*
X010760Y017399D02*
X010760Y017399D01*
X010871Y017481D02*
X004843Y017481D01*
X004890Y017600D02*
X011031Y017600D01*
X010394Y017007D02*
X001250Y017007D01*
X001250Y016889D02*
X010283Y016889D01*
X010191Y016790D02*
X010191Y016790D01*
X010178Y016770D02*
X001250Y016770D01*
X001250Y016652D02*
X010102Y016652D01*
X010026Y016533D02*
X001250Y016533D01*
X001250Y016415D02*
X009950Y016415D01*
X009874Y016296D02*
X001250Y016296D01*
X001250Y016178D02*
X009798Y016178D01*
X009741Y016088D02*
X009741Y016088D01*
X009729Y016059D02*
X004482Y016059D01*
X004483Y016059D02*
X003920Y016133D01*
X003358Y016059D01*
X001250Y016059D01*
X001250Y015941D02*
X003072Y015941D01*
X002833Y015842D02*
X003358Y016059D01*
X003358Y016059D01*
X002833Y015842D02*
X002833Y015842D01*
X002383Y015496D01*
X002038Y015046D01*
X001821Y014522D01*
X001747Y013960D01*
X001747Y013960D01*
X001821Y013397D01*
X002038Y012873D01*
X002038Y012873D01*
X002383Y012423D01*
X002383Y012423D01*
X002383Y012423D01*
X002833Y012077D01*
X002833Y012077D01*
X003358Y011860D01*
X003920Y011786D01*
X003920Y011786D01*
X004483Y011860D01*
X005007Y012077D01*
X005457Y012423D01*
X005802Y012873D01*
X006020Y013397D01*
X006094Y013960D01*
X006020Y014522D01*
X006020Y014522D01*
X005802Y015046D01*
X005802Y015046D01*
X005457Y015496D01*
X005007Y015842D01*
X004483Y016059D01*
X004769Y015941D02*
X009680Y015941D01*
X009632Y015822D02*
X005033Y015822D01*
X005187Y015704D02*
X009583Y015704D01*
X009535Y015585D02*
X005342Y015585D01*
X005457Y015496D02*
X005457Y015496D01*
X005480Y015467D02*
X009486Y015467D01*
X009438Y015348D02*
X005571Y015348D01*
X005662Y015230D02*
X009406Y015230D01*
X009425Y015317D02*
X009425Y015317D01*
X009381Y015111D02*
X005753Y015111D01*
X005825Y014993D02*
X009356Y014993D01*
X009331Y014874D02*
X005874Y014874D01*
X005923Y014756D02*
X009306Y014756D01*
X009281Y014637D02*
X005972Y014637D01*
X006020Y014519D02*
X009256Y014519D01*
X009253Y014501D02*
X009253Y014501D01*
X009250Y014400D02*
X006036Y014400D01*
X006051Y014282D02*
X009247Y014282D01*
X009244Y014163D02*
X006067Y014163D01*
X006082Y014045D02*
X009241Y014045D01*
X009237Y013926D02*
X006089Y013926D01*
X006074Y013808D02*
X009234Y013808D01*
X009231Y013689D02*
X006058Y013689D01*
X006042Y013571D02*
X009246Y013571D01*
X009231Y013668D02*
X009231Y013668D01*
X009264Y013452D02*
X006027Y013452D01*
X006020Y013397D02*
X006020Y013397D01*
X005993Y013334D02*
X009283Y013334D01*
X009301Y013215D02*
X005944Y013215D01*
X005895Y013097D02*
X009320Y013097D01*
X009338Y012978D02*
X005846Y012978D01*
X005802Y012873D02*
X005802Y012873D01*
X005792Y012860D02*
X009357Y012860D01*
X009359Y012844D02*
X009359Y012844D01*
X009395Y012741D02*
X005701Y012741D01*
X005610Y012623D02*
X009436Y012623D01*
X009478Y012504D02*
X005520Y012504D01*
X005457Y012423D02*
X005457Y012423D01*
X005457Y012423D01*
X005409Y012386D02*
X009519Y012386D01*
X009560Y012267D02*
X005254Y012267D01*
X005100Y012149D02*
X008909Y012149D01*
X008598Y012030D02*
X004893Y012030D01*
X005007Y012077D02*
X005007Y012077D01*
X004607Y011912D02*
X008430Y011912D01*
X008311Y011793D02*
X003973Y011793D01*
X003867Y011793D02*
X001250Y011793D01*
X001250Y011675D02*
X008235Y011675D01*
X008167Y011556D02*
X001250Y011556D01*
X001250Y011438D02*
X008131Y011438D01*
X008099Y011319D02*
X001250Y011319D01*
X001250Y011201D02*
X005784Y011201D01*
X005918Y011256D02*
X005610Y011128D01*
X005373Y010892D01*
X005246Y010583D01*
X005246Y010249D01*
X005373Y009940D01*
X005610Y009704D01*
X005918Y009576D01*
X006253Y009576D01*
X006561Y009704D01*
X006798Y009940D01*
X006925Y010249D01*
X006925Y010583D01*
X006798Y010892D01*
X006561Y011128D01*
X006253Y011256D01*
X005918Y011256D01*
X005563Y011082D02*
X001250Y011082D01*
X001250Y010964D02*
X005445Y010964D01*
X005354Y010845D02*
X001250Y010845D01*
X001250Y010727D02*
X005305Y010727D01*
X005256Y010608D02*
X001250Y010608D01*
X001250Y010490D02*
X005246Y010490D01*
X005246Y010371D02*
X001250Y010371D01*
X001250Y010253D02*
X005246Y010253D01*
X005293Y010134D02*
X001250Y010134D01*
X001250Y010016D02*
X005342Y010016D01*
X005417Y009897D02*
X001250Y009897D01*
X001250Y009779D02*
X005535Y009779D01*
X005716Y009660D02*
X001250Y009660D01*
X001250Y009542D02*
X008117Y009542D01*
X007951Y009423D02*
X001250Y009423D01*
X001278Y009305D02*
X007833Y009305D01*
X007755Y009186D02*
X001323Y009186D01*
X001367Y009068D02*
X007687Y009068D01*
X007649Y008949D02*
X001411Y008949D01*
X001455Y008831D02*
X002859Y008831D01*
X002780Y008712D02*
X001507Y008712D01*
X001562Y008594D02*
X002780Y008594D01*
X002780Y008475D02*
X001616Y008475D01*
X001671Y008357D02*
X002780Y008357D01*
X002780Y008238D02*
X001726Y008238D01*
X001780Y008120D02*
X002780Y008120D01*
X002780Y008001D02*
X001835Y008001D01*
X001890Y007883D02*
X002780Y007883D01*
X002780Y007764D02*
X001945Y007764D01*
X001999Y007646D02*
X002780Y007646D01*
X002780Y007527D02*
X002062Y007527D01*
X002132Y007409D02*
X002780Y007409D01*
X002780Y007290D02*
X002202Y007290D01*
X002272Y007172D02*
X002780Y007172D01*
X002780Y007053D02*
X002342Y007053D01*
X002412Y006935D02*
X002780Y006935D01*
X002780Y006816D02*
X002482Y006816D01*
X002552Y006698D02*
X002780Y006698D01*
X002780Y006579D02*
X002622Y006579D01*
X002692Y006461D02*
X002780Y006461D01*
X002776Y006342D02*
X002780Y006342D01*
X006455Y009660D02*
X008413Y009660D01*
X008876Y009660D02*
X010816Y009660D01*
X010816Y009542D02*
X009172Y009542D01*
X009338Y009423D02*
X010816Y009423D01*
X010816Y009305D02*
X009456Y009305D01*
X009534Y009186D02*
X010816Y009186D01*
X010816Y009068D02*
X009602Y009068D01*
X009640Y008949D02*
X010816Y008949D01*
X010816Y008831D02*
X009672Y008831D01*
X009685Y008712D02*
X010816Y008712D01*
X010816Y008594D02*
X009685Y008594D01*
X009677Y008475D02*
X010816Y008475D01*
X010816Y008357D02*
X009645Y008357D01*
X009612Y008238D02*
X010787Y008238D01*
X010722Y008120D02*
X009543Y008120D01*
X009473Y008001D02*
X010708Y008001D01*
X010734Y007883D02*
X009354Y007883D01*
X009201Y007764D02*
X010814Y007764D01*
X011056Y008015D02*
X011056Y010613D01*
X011298Y010608D02*
X011337Y010608D01*
X011296Y010490D02*
X011504Y010490D01*
X011670Y010371D02*
X011296Y010371D01*
X011296Y010253D02*
X011843Y010253D01*
X012103Y010134D02*
X011296Y010134D01*
X011296Y010016D02*
X012362Y010016D01*
X012563Y009924D02*
X012563Y009924D01*
X012674Y009897D02*
X011296Y009897D01*
X011296Y009779D02*
X013162Y009779D01*
X013352Y009733D02*
X013352Y009733D01*
X012490Y008949D02*
X011296Y008949D01*
X011296Y008831D02*
X012350Y008831D01*
X012068Y008712D02*
X011296Y008712D01*
X011296Y008594D02*
X011935Y008594D01*
X011748Y008475D02*
X011296Y008475D01*
X011296Y008357D02*
X011680Y008357D01*
X011662Y008238D02*
X011325Y008238D01*
X011390Y008120D02*
X011685Y008120D01*
X011762Y008001D02*
X011404Y008001D01*
X011378Y007883D02*
X012644Y007883D01*
X012414Y008001D02*
X012260Y008001D01*
X011298Y007764D02*
X016475Y007764D01*
X016475Y007646D02*
X008937Y007646D01*
X008352Y007646D02*
X008140Y007646D01*
X008140Y007527D02*
X016475Y007527D01*
X016475Y007409D02*
X008140Y007409D01*
X008245Y007290D02*
X016475Y007290D01*
X016475Y007172D02*
X008386Y007172D01*
X008491Y007053D02*
X016475Y007053D01*
X016475Y006935D02*
X008541Y006935D01*
X008590Y006579D02*
X016475Y006579D01*
X016475Y006461D02*
X008558Y006461D01*
X008509Y006342D02*
X014394Y006342D01*
X014417Y006351D02*
X014289Y006298D01*
X014191Y006200D01*
X014138Y006072D01*
X014138Y005934D01*
X014191Y005805D01*
X014289Y005707D01*
X014417Y005654D01*
X014555Y005654D01*
X014683Y005707D01*
X014723Y005747D01*
X015484Y005747D01*
X015629Y005603D01*
X015645Y005596D01*
X015650Y005591D01*
X015650Y005512D01*
X015704Y005384D01*
X015802Y005286D01*
X015930Y005233D01*
X016068Y005233D01*
X016196Y005286D01*
X016294Y005384D01*
X016347Y005512D01*
X016347Y005651D01*
X016294Y005779D01*
X016196Y005877D01*
X016068Y005930D01*
X015990Y005930D01*
X015910Y006009D01*
X015894Y006016D01*
X015787Y006123D01*
X015787Y006123D01*
X015719Y006191D01*
X015631Y006227D01*
X014755Y006227D01*
X014683Y006298D01*
X014555Y006351D01*
X014417Y006351D01*
X014578Y006342D02*
X016475Y006342D01*
X016475Y006224D02*
X015640Y006224D01*
X015805Y006105D02*
X016475Y006105D01*
X016475Y005987D02*
X015933Y005987D01*
X015774Y005806D02*
X015765Y005806D01*
X015584Y005987D01*
X014502Y005987D01*
X014486Y006003D01*
X014165Y005868D02*
X008140Y005868D01*
X008140Y005750D02*
X014247Y005750D01*
X014138Y005987D02*
X008140Y005987D01*
X008310Y006105D02*
X014151Y006105D01*
X014214Y006224D02*
X008429Y006224D01*
X008140Y005631D02*
X015600Y005631D01*
X015650Y005513D02*
X008140Y005513D01*
X008140Y005394D02*
X015699Y005394D01*
X015827Y005276D02*
X008140Y005276D01*
X008140Y005157D02*
X016475Y005157D01*
X016475Y005039D02*
X008140Y005039D01*
X008140Y004920D02*
X016475Y004920D01*
X016475Y004802D02*
X008140Y004802D01*
X008140Y004683D02*
X016475Y004683D01*
X016473Y004565D02*
X008103Y004565D01*
X006636Y009779D02*
X010816Y009779D01*
X010816Y009897D02*
X006754Y009897D01*
X006829Y010016D02*
X010816Y010016D01*
X010816Y010134D02*
X006878Y010134D01*
X006925Y010253D02*
X008643Y010253D01*
X008456Y010371D02*
X006925Y010371D01*
X006925Y010490D02*
X008338Y010490D01*
X008250Y010608D02*
X006915Y010608D01*
X006866Y010727D02*
X008182Y010727D01*
X008138Y010845D02*
X006817Y010845D01*
X006726Y010964D02*
X008106Y010964D01*
X008091Y011082D02*
X006608Y011082D01*
X006387Y011201D02*
X008091Y011201D01*
X009293Y012149D02*
X009602Y012149D01*
X009634Y012057D02*
X009634Y012057D01*
X009649Y012030D02*
X009604Y012030D01*
X010111Y011201D02*
X010157Y011201D01*
X010111Y011082D02*
X010256Y011082D01*
X010355Y010964D02*
X010095Y010964D01*
X010064Y010845D02*
X010455Y010845D01*
X010554Y010727D02*
X010020Y010727D01*
X009952Y010608D02*
X010686Y010608D01*
X010816Y010490D02*
X009864Y010490D01*
X009746Y010371D02*
X010816Y010371D01*
X010816Y010253D02*
X009559Y010253D01*
X004483Y011860D02*
X004483Y011860D01*
X003358Y011860D02*
X003358Y011860D01*
X003233Y011912D02*
X001250Y011912D01*
X001250Y012030D02*
X002947Y012030D01*
X002740Y012149D02*
X001250Y012149D01*
X001250Y012267D02*
X002586Y012267D01*
X002432Y012386D02*
X001250Y012386D01*
X001250Y012504D02*
X002321Y012504D01*
X002230Y012623D02*
X001250Y012623D01*
X001250Y012741D02*
X002139Y012741D01*
X002048Y012860D02*
X001250Y012860D01*
X001250Y012978D02*
X001994Y012978D01*
X001945Y013097D02*
X001250Y013097D01*
X001250Y013215D02*
X001896Y013215D01*
X001847Y013334D02*
X001250Y013334D01*
X001250Y013452D02*
X001813Y013452D01*
X001821Y013397D02*
X001821Y013397D01*
X001798Y013571D02*
X001250Y013571D01*
X001250Y013689D02*
X001782Y013689D01*
X001767Y013808D02*
X001250Y013808D01*
X001250Y013926D02*
X001751Y013926D01*
X001758Y014045D02*
X001250Y014045D01*
X001250Y014163D02*
X001773Y014163D01*
X001789Y014282D02*
X001250Y014282D01*
X001250Y014400D02*
X001805Y014400D01*
X001820Y014519D02*
X001250Y014519D01*
X001250Y014637D02*
X001868Y014637D01*
X001821Y014522D02*
X001821Y014522D01*
X001917Y014756D02*
X001250Y014756D01*
X001250Y014874D02*
X001967Y014874D01*
X002016Y014993D02*
X001250Y014993D01*
X001250Y015111D02*
X002088Y015111D01*
X002038Y015046D02*
X002038Y015046D01*
X002178Y015230D02*
X001250Y015230D01*
X001250Y015348D02*
X002269Y015348D01*
X002360Y015467D02*
X001250Y015467D01*
X001250Y015585D02*
X002499Y015585D01*
X002383Y015496D02*
X002383Y015496D01*
X002383Y015496D01*
X002653Y015704D02*
X001250Y015704D01*
X001250Y015822D02*
X002808Y015822D01*
X003920Y016133D02*
X003920Y016133D01*
X001250Y018311D02*
X008233Y018311D01*
X008028Y018429D02*
X001250Y018429D01*
X001254Y018548D02*
X007900Y018548D01*
X007794Y018666D02*
X001298Y018666D01*
X001342Y018785D02*
X007726Y018785D01*
X007667Y018903D02*
X001386Y018903D01*
X001430Y019022D02*
X007635Y019022D01*
X012209Y020799D02*
X012511Y020799D01*
X013255Y024591D02*
X013664Y024591D01*
X013546Y024710D02*
X013373Y024710D01*
X014255Y024591D02*
X014448Y024591D01*
X014410Y024710D02*
X014373Y024710D01*
X002780Y021510D02*
X002727Y021510D01*
X002780Y021392D02*
X002652Y021392D01*
X002582Y021273D02*
X002780Y021273D01*
X002780Y021155D02*
X002512Y021155D01*
X002442Y021036D02*
X002780Y021036D01*
X002780Y020918D02*
X002372Y020918D01*
X002302Y020799D02*
X002780Y020799D01*
X002780Y020681D02*
X002232Y020681D01*
X002162Y020562D02*
X002780Y020562D01*
X002780Y020444D02*
X002092Y020444D01*
X002023Y020325D02*
X002780Y020325D01*
X002780Y020207D02*
X001968Y020207D01*
X001914Y020088D02*
X002780Y020088D01*
X002780Y019970D02*
X001859Y019970D01*
X001804Y019851D02*
X002780Y019851D01*
X002780Y019733D02*
X001750Y019733D01*
X001695Y019614D02*
X002780Y019614D01*
X002780Y019496D02*
X001640Y019496D01*
X001585Y019377D02*
X002780Y019377D01*
X002780Y019259D02*
X001531Y019259D01*
X001476Y019140D02*
X002808Y019140D01*
X013418Y018290D02*
X013288Y018275D01*
X013158Y018257D01*
X013028Y018235D01*
X012899Y018209D01*
X012772Y018179D01*
X012645Y018145D01*
X012519Y018108D01*
X012394Y018066D01*
X012271Y018021D01*
X012149Y017972D01*
X012029Y017920D01*
X011910Y017864D01*
X011793Y017804D01*
X011678Y017741D01*
X011565Y017674D01*
X011454Y017604D01*
X011345Y017531D01*
X011238Y017454D01*
X011134Y017374D01*
X011032Y017291D01*
X010933Y017205D01*
X010836Y017117D01*
X010742Y017025D01*
X010651Y016930D01*
X010563Y016833D01*
X010478Y016733D01*
X010396Y016631D01*
X010317Y016526D01*
X010241Y016419D01*
X010168Y016309D01*
X010099Y016198D01*
X010033Y016084D01*
X009971Y015968D01*
X009912Y015851D01*
X009857Y015732D01*
X009805Y015611D01*
X009757Y015489D01*
X009713Y015365D01*
X009672Y015240D01*
X009636Y015114D01*
X009603Y014987D01*
X009574Y014859D01*
X009548Y014730D01*
X009527Y014601D01*
X009510Y014471D01*
X009496Y014340D01*
X009487Y014209D01*
X009482Y014078D01*
X009480Y013946D01*
X009482Y013815D01*
X009489Y013684D01*
X009499Y013553D01*
X009514Y013423D01*
X009532Y013293D01*
X009554Y013163D01*
X009580Y013034D01*
X009610Y012907D01*
X009644Y012780D01*
X009681Y012654D01*
X009723Y012529D01*
X009768Y012406D01*
X009817Y012284D01*
X009869Y012164D01*
X009925Y012045D01*
X009985Y011928D01*
X010048Y011813D01*
X010115Y011700D01*
X010185Y011589D01*
X010258Y011480D01*
X010335Y011373D01*
X010415Y011269D01*
X010498Y011167D01*
X010584Y011068D01*
X010672Y010971D01*
X010764Y010877D01*
X010859Y010786D01*
X010956Y010698D01*
X011056Y010613D01*
X016205Y005868D02*
X016475Y005868D01*
X016475Y005750D02*
X016306Y005750D01*
X016347Y005631D02*
X016475Y005631D01*
X016475Y005513D02*
X016347Y005513D01*
X016298Y005394D02*
X016475Y005394D01*
X016475Y005276D02*
X016170Y005276D01*
X015999Y005582D02*
X015774Y005806D01*
D22*
X016715Y010367D02*
X016715Y010613D01*
X019865Y013763D01*
X023162Y015928D02*
X023487Y015603D01*
X017208Y021538D02*
X016361Y020692D01*
X014944Y020692D01*
X016026Y022080D02*
X015830Y022276D01*
X015830Y023595D01*
X015822Y023612D02*
X015731Y023704D01*
X015967Y023940D01*
X016656Y023940D01*
X017503Y024786D01*
X018093Y024294D02*
X018093Y024108D01*
X018086Y024090D02*
X017700Y023704D01*
X017700Y022424D01*
X017208Y022916D02*
X017158Y022965D01*
X017299Y023106D01*
X017306Y023123D02*
X017306Y023900D01*
X018087Y024090D02*
X018092Y024098D01*
X018094Y024108D01*
X018093Y024294D02*
X018677Y024878D01*
X018684Y024895D02*
X018684Y024983D01*
X018832Y024836D01*
X018930Y024836D01*
X018930Y025150D01*
X019274Y025495D01*
X018684Y025967D02*
X018546Y025967D01*
X018529Y025960D02*
X018529Y025823D01*
X018522Y025805D02*
X018143Y025426D01*
X018522Y025805D02*
X018527Y025813D01*
X018529Y025823D01*
X018528Y025961D02*
X018533Y025965D01*
X018540Y025967D01*
X018546Y025968D01*
X017503Y025967D02*
X016814Y026656D01*
X014235Y026656D01*
X013967Y026388D01*
X013967Y026368D01*
X013960Y026351D02*
X013960Y026074D01*
X013959Y026351D02*
X013961Y026361D01*
X013966Y026369D01*
X014960Y026074D02*
X015558Y025475D01*
X015558Y024721D01*
X015239Y024402D01*
X015239Y023812D01*
X015232Y023795D02*
X014649Y023211D01*
X015232Y023794D02*
X015237Y023802D01*
X015239Y023812D01*
X015823Y023613D02*
X015828Y023605D01*
X015830Y023595D01*
X016617Y022965D02*
X017158Y022965D01*
X017208Y022916D02*
X017208Y021538D01*
X016765Y022080D02*
X016026Y022080D01*
X017299Y023105D02*
X017304Y023113D01*
X017306Y023123D01*
X018684Y023999D02*
X018824Y023858D01*
X018842Y023851D02*
X019127Y023851D01*
X019464Y023514D01*
X019471Y023497D02*
X019471Y023408D01*
X019472Y023497D02*
X019470Y023507D01*
X019465Y023515D01*
X018842Y023851D02*
X018836Y023852D01*
X018829Y023854D01*
X018824Y023858D01*
X018677Y024877D02*
X018682Y024885D01*
X018684Y024895D01*
X016322Y024786D02*
X016322Y024649D01*
X016315Y024631D02*
X015980Y024631D01*
X015761Y024452D01*
X016315Y024631D02*
X016320Y024639D01*
X016322Y024649D01*
X015584Y025475D02*
X015558Y025475D01*
X015584Y025475D02*
X016068Y025960D01*
X016086Y025967D02*
X016322Y025967D01*
X016086Y025968D02*
X016080Y025967D01*
X016073Y025965D01*
X016068Y025961D01*
X011794Y023015D02*
X011794Y020889D01*
X012149Y020534D01*
X012739Y020534D01*
X011794Y023015D02*
X011322Y023487D01*
X010771Y023487D01*
D23*
X023162Y015928D02*
X023408Y015928D01*
X023999Y016519D02*
X023999Y017208D01*
X023999Y016519D02*
X024589Y015928D01*
D24*
X020849Y013960D02*
X019865Y013960D01*
X019078Y014747D01*
X021243Y012385D02*
X021046Y012188D01*
X021046Y010810D01*
X023999Y010711D02*
X024589Y011302D01*
X024589Y011991D01*
X015534Y021243D02*
X015003Y021243D01*
X014986Y021250D02*
X014649Y021587D01*
X014649Y023211D01*
X014501Y023359D01*
X013615Y023359D01*
X013015Y023960D01*
X012975Y023960D01*
X012893Y023956D01*
X010763Y023956D01*
X014985Y021250D02*
X014990Y021246D01*
X014997Y021244D01*
X015003Y021243D01*
D25*
X019471Y023408D03*
D26*
X015456Y008448D02*
X014747Y008448D01*
X012778Y008448D02*
X012214Y008448D01*
X012011Y008245D01*
M02*
