G75*
%MOIN*%
%OFA0B0*%
%FSLAX24Y24*%
%IPPOS*%
%LPD*%
%AMOC8*
5,1,8,0,0,1.08239X$1,22.5*
%
%ADD10C,0.0160*%
%ADD11C,0.0040*%
%ADD12C,0.0050*%
%ADD13C,0.0080*%
D10*
X005298Y019471D02*
X005302Y019809D01*
X005315Y020147D01*
X005335Y020485D01*
X005364Y020822D01*
X005402Y021158D01*
X005447Y021493D01*
X005501Y021827D01*
X005563Y022159D01*
X005633Y022490D01*
X005711Y022819D01*
X005797Y023146D01*
X005891Y023471D01*
X005994Y023794D01*
X006104Y024113D01*
X006221Y024430D01*
X006347Y024744D01*
X006480Y025055D01*
X006621Y025363D01*
X006769Y025667D01*
X006925Y025967D01*
X007088Y026263D01*
X007258Y026555D01*
X007436Y026843D01*
X007620Y027127D01*
X007812Y027406D01*
X008010Y027680D01*
X008215Y027949D01*
X008426Y028213D01*
X008644Y028472D01*
X008868Y028725D01*
X009098Y028973D01*
X009334Y029215D01*
X009576Y029451D01*
X009824Y029681D01*
X010077Y029905D01*
X010336Y030123D01*
X010600Y030334D01*
X010869Y030539D01*
X011143Y030737D01*
X011422Y030929D01*
X011706Y031113D01*
X011994Y031291D01*
X012286Y031461D01*
X012582Y031624D01*
X012882Y031780D01*
X013186Y031928D01*
X013494Y032069D01*
X013805Y032202D01*
X014119Y032328D01*
X014436Y032445D01*
X014755Y032555D01*
X015078Y032658D01*
X015403Y032752D01*
X015730Y032838D01*
X016059Y032916D01*
X016390Y032986D01*
X016722Y033048D01*
X017056Y033102D01*
X017391Y033147D01*
X017727Y033185D01*
X018064Y033214D01*
X018402Y033234D01*
X018740Y033247D01*
X019078Y033251D01*
X019416Y033247D01*
X019754Y033234D01*
X020092Y033214D01*
X020429Y033185D01*
X020765Y033147D01*
X021100Y033102D01*
X021434Y033048D01*
X021766Y032986D01*
X022097Y032916D01*
X022426Y032838D01*
X022753Y032752D01*
X023078Y032658D01*
X023401Y032555D01*
X023720Y032445D01*
X024037Y032328D01*
X024351Y032202D01*
X024662Y032069D01*
X024970Y031928D01*
X025274Y031780D01*
X025574Y031624D01*
X025870Y031461D01*
X026162Y031291D01*
X026450Y031113D01*
X026734Y030929D01*
X027013Y030737D01*
X027287Y030539D01*
X027556Y030334D01*
X027820Y030123D01*
X028079Y029905D01*
X028332Y029681D01*
X028580Y029451D01*
X028822Y029215D01*
X029058Y028973D01*
X029288Y028725D01*
X029512Y028472D01*
X029730Y028213D01*
X029941Y027949D01*
X030146Y027680D01*
X030344Y027406D01*
X030536Y027127D01*
X030720Y026843D01*
X030898Y026555D01*
X031068Y026263D01*
X031231Y025967D01*
X031387Y025667D01*
X031535Y025363D01*
X031676Y025055D01*
X031809Y024744D01*
X031935Y024430D01*
X032052Y024113D01*
X032162Y023794D01*
X032265Y023471D01*
X032359Y023146D01*
X032445Y022819D01*
X032523Y022490D01*
X032593Y022159D01*
X032655Y021827D01*
X032709Y021493D01*
X032754Y021158D01*
X032792Y020822D01*
X032821Y020485D01*
X032841Y020147D01*
X032854Y019809D01*
X032858Y019471D01*
X032854Y019133D01*
X032841Y018795D01*
X032821Y018457D01*
X032792Y018120D01*
X032754Y017784D01*
X032709Y017449D01*
X032655Y017115D01*
X032593Y016783D01*
X032523Y016452D01*
X032445Y016123D01*
X032359Y015796D01*
X032265Y015471D01*
X032162Y015148D01*
X032052Y014829D01*
X031935Y014512D01*
X031809Y014198D01*
X031676Y013887D01*
X031535Y013579D01*
X031387Y013275D01*
X031231Y012975D01*
X031068Y012679D01*
X030898Y012387D01*
X030720Y012099D01*
X030536Y011815D01*
X030344Y011536D01*
X030146Y011262D01*
X029941Y010993D01*
X029730Y010729D01*
X029512Y010470D01*
X029288Y010217D01*
X029058Y009969D01*
X028822Y009727D01*
X028580Y009491D01*
X028332Y009261D01*
X028079Y009037D01*
X027820Y008819D01*
X027556Y008608D01*
X027287Y008403D01*
X027013Y008205D01*
X026734Y008013D01*
X026450Y007829D01*
X026162Y007651D01*
X025870Y007481D01*
X025574Y007318D01*
X025274Y007162D01*
X024970Y007014D01*
X024662Y006873D01*
X024351Y006740D01*
X024037Y006614D01*
X023720Y006497D01*
X023401Y006387D01*
X023078Y006284D01*
X022753Y006190D01*
X022426Y006104D01*
X022097Y006026D01*
X021766Y005956D01*
X021434Y005894D01*
X021100Y005840D01*
X020765Y005795D01*
X020429Y005757D01*
X020092Y005728D01*
X019754Y005708D01*
X019416Y005695D01*
X019078Y005691D01*
X018740Y005695D01*
X018402Y005708D01*
X018064Y005728D01*
X017727Y005757D01*
X017391Y005795D01*
X017056Y005840D01*
X016722Y005894D01*
X016390Y005956D01*
X016059Y006026D01*
X015730Y006104D01*
X015403Y006190D01*
X015078Y006284D01*
X014755Y006387D01*
X014436Y006497D01*
X014119Y006614D01*
X013805Y006740D01*
X013494Y006873D01*
X013186Y007014D01*
X012882Y007162D01*
X012582Y007318D01*
X012286Y007481D01*
X011994Y007651D01*
X011706Y007829D01*
X011422Y008013D01*
X011143Y008205D01*
X010869Y008403D01*
X010600Y008608D01*
X010336Y008819D01*
X010077Y009037D01*
X009824Y009261D01*
X009576Y009491D01*
X009334Y009727D01*
X009098Y009969D01*
X008868Y010217D01*
X008644Y010470D01*
X008426Y010729D01*
X008215Y010993D01*
X008010Y011262D01*
X007812Y011536D01*
X007620Y011815D01*
X007436Y012099D01*
X007258Y012387D01*
X007088Y012679D01*
X006925Y012975D01*
X006769Y013275D01*
X006621Y013579D01*
X006480Y013887D01*
X006347Y014198D01*
X006221Y014512D01*
X006104Y014829D01*
X005994Y015148D01*
X005891Y015471D01*
X005797Y015796D01*
X005711Y016123D01*
X005633Y016452D01*
X005563Y016783D01*
X005501Y017115D01*
X005447Y017449D01*
X005402Y017784D01*
X005364Y018120D01*
X005335Y018457D01*
X005315Y018795D01*
X005302Y019133D01*
X005298Y019471D01*
X020849Y030495D02*
X020851Y030522D01*
X020857Y030549D01*
X020866Y030575D01*
X020879Y030599D01*
X020895Y030622D01*
X020914Y030641D01*
X020936Y030658D01*
X020960Y030672D01*
X020985Y030682D01*
X021012Y030689D01*
X021039Y030692D01*
X021067Y030691D01*
X021094Y030686D01*
X021120Y030678D01*
X021144Y030666D01*
X021167Y030650D01*
X021188Y030632D01*
X021205Y030611D01*
X021220Y030587D01*
X021231Y030562D01*
X021239Y030536D01*
X021243Y030509D01*
X021243Y030481D01*
X021239Y030454D01*
X021231Y030428D01*
X021220Y030403D01*
X021205Y030379D01*
X021188Y030358D01*
X021167Y030340D01*
X021145Y030324D01*
X021120Y030312D01*
X021094Y030304D01*
X021067Y030299D01*
X021039Y030298D01*
X021012Y030301D01*
X020985Y030308D01*
X020960Y030318D01*
X020936Y030332D01*
X020914Y030349D01*
X020895Y030368D01*
X020879Y030391D01*
X020866Y030415D01*
X020857Y030441D01*
X020851Y030468D01*
X020849Y030495D01*
X036597Y017503D02*
X036599Y017530D01*
X036605Y017557D01*
X036614Y017583D01*
X036627Y017607D01*
X036643Y017630D01*
X036662Y017649D01*
X036684Y017666D01*
X036708Y017680D01*
X036733Y017690D01*
X036760Y017697D01*
X036787Y017700D01*
X036815Y017699D01*
X036842Y017694D01*
X036868Y017686D01*
X036892Y017674D01*
X036915Y017658D01*
X036936Y017640D01*
X036953Y017619D01*
X036968Y017595D01*
X036979Y017570D01*
X036987Y017544D01*
X036991Y017517D01*
X036991Y017489D01*
X036987Y017462D01*
X036979Y017436D01*
X036968Y017411D01*
X036953Y017387D01*
X036936Y017366D01*
X036915Y017348D01*
X036893Y017332D01*
X036868Y017320D01*
X036842Y017312D01*
X036815Y017307D01*
X036787Y017306D01*
X036760Y017309D01*
X036733Y017316D01*
X036708Y017326D01*
X036684Y017340D01*
X036662Y017357D01*
X036643Y017376D01*
X036627Y017399D01*
X036614Y017423D01*
X036605Y017449D01*
X036599Y017476D01*
X036597Y017503D01*
D11*
X035123Y012451D02*
X034816Y012451D01*
X034739Y012375D01*
X034739Y012144D01*
X035199Y012144D01*
X035199Y012375D01*
X035123Y012451D01*
X035199Y011991D02*
X034739Y011991D01*
X034739Y011684D02*
X035199Y011991D01*
X035199Y011684D02*
X034739Y011684D01*
X034816Y011531D02*
X034739Y011454D01*
X034739Y011300D01*
X034816Y011224D01*
X035123Y011224D01*
X035199Y011300D01*
X035199Y011454D01*
X035123Y011531D01*
X034969Y011531D01*
X034969Y011377D01*
D12*
X034915Y014045D02*
X034615Y014045D01*
X034915Y014045D02*
X035065Y014195D01*
X034915Y014345D01*
X034615Y014345D01*
X034690Y014505D02*
X034615Y014581D01*
X034615Y014731D01*
X034690Y014806D01*
X034690Y014966D02*
X034615Y015041D01*
X034615Y015191D01*
X034690Y015266D01*
X034990Y015266D02*
X035065Y015191D01*
X035065Y015041D01*
X034990Y014966D01*
X034690Y014966D01*
X034990Y014806D02*
X035065Y014731D01*
X035065Y014581D01*
X034990Y014505D01*
X034690Y014505D01*
X034649Y017996D02*
X034649Y018222D01*
X034574Y018297D01*
X034423Y018297D01*
X034348Y018222D01*
X034348Y017996D01*
X034799Y017996D01*
X034799Y018457D02*
X034348Y018457D01*
X034348Y018682D01*
X034423Y018757D01*
X034574Y018757D01*
X034649Y018682D01*
X034649Y018457D01*
X034649Y018607D02*
X034799Y018757D01*
X034724Y018917D02*
X034799Y018992D01*
X034799Y019142D01*
X034724Y019217D01*
X034423Y019217D01*
X034348Y019142D01*
X034348Y018992D01*
X034423Y018917D01*
X034724Y018917D01*
X034724Y019378D02*
X034423Y019378D01*
X034348Y019453D01*
X034348Y019603D01*
X034423Y019678D01*
X034574Y019678D02*
X034574Y019528D01*
X034574Y019678D02*
X034724Y019678D01*
X034799Y019603D01*
X034799Y019453D01*
X034724Y019378D01*
X034799Y019838D02*
X034348Y019838D01*
X034348Y020063D01*
X034423Y020138D01*
X034574Y020138D01*
X034649Y020063D01*
X034649Y019838D01*
X034649Y019988D02*
X034799Y020138D01*
X034799Y020298D02*
X034498Y020298D01*
X034348Y020448D01*
X034498Y020599D01*
X034799Y020599D01*
X034799Y020759D02*
X034348Y020759D01*
X034498Y020909D01*
X034348Y021059D01*
X034799Y021059D01*
X034799Y021219D02*
X034348Y021219D01*
X034498Y021369D01*
X034348Y021519D01*
X034799Y021519D01*
X034799Y021679D02*
X034348Y021679D01*
X034348Y021980D01*
X034348Y022140D02*
X034348Y022365D01*
X034423Y022440D01*
X034574Y022440D01*
X034649Y022365D01*
X034649Y022140D01*
X034799Y022140D02*
X034348Y022140D01*
X034649Y022290D02*
X034799Y022440D01*
X034799Y021980D02*
X034799Y021679D01*
X034574Y021679D02*
X034574Y021830D01*
X034574Y020599D02*
X034574Y020298D01*
X020246Y032526D02*
X020171Y032451D01*
X020020Y032451D01*
X019945Y032526D01*
X019945Y032826D01*
X020020Y032901D01*
X020171Y032901D01*
X020246Y032826D01*
X020246Y032526D01*
X019785Y032526D02*
X019710Y032451D01*
X019560Y032451D01*
X019485Y032526D01*
X019485Y032826D01*
X019560Y032901D01*
X019710Y032901D01*
X019785Y032826D01*
X019785Y032676D02*
X019635Y032676D01*
X019785Y032676D02*
X019785Y032526D01*
X019325Y032526D02*
X019250Y032451D01*
X019100Y032451D01*
X019025Y032526D01*
X019025Y032826D01*
X019100Y032901D01*
X019250Y032901D01*
X019325Y032826D01*
X019325Y032526D01*
X018864Y032676D02*
X018789Y032601D01*
X018564Y032601D01*
X018564Y032451D02*
X018564Y032901D01*
X018789Y032901D01*
X018864Y032826D01*
X018864Y032676D01*
D13*
X035757Y014475D02*
X036257Y014475D01*
X036507Y014225D01*
X036507Y013725D01*
X036257Y013475D01*
X036507Y013225D01*
X036507Y012725D01*
X036257Y012475D01*
X035757Y012475D01*
X035507Y012725D01*
X035507Y013225D01*
X035757Y013475D01*
X035507Y013725D01*
X035507Y014225D01*
X035757Y014475D01*
M02*
