G75*
%MOIN*%
%OFA0B0*%
%FSLAX24Y24*%
%IPPOS*%
%LPD*%
%AMOC8*
5,1,8,0,0,1.08239X$1,22.5*
%
%ADD10C,0.1320*%
%ADD11C,0.0162*%
%ADD12R,0.0194X0.0194*%
%ADD13C,0.0050*%
%ADD14R,0.0493X0.0454*%
%ADD15R,0.0454X0.0493*%
%ADD16C,0.2501*%
%ADD17C,0.1005*%
%ADD18C,0.1562*%
%ADD19R,0.0454X0.0158*%
%ADD20R,0.0800X0.0800*%
%ADD21OC8,0.0800*%
%ADD22R,0.0651X0.0572*%
%ADD23R,0.0454X0.0611*%
%ADD24C,0.1110*%
%ADD25R,0.0493X0.0493*%
%ADD26R,0.0454X0.1084*%
%ADD27R,0.0572X0.0808*%
%ADD28R,0.0611X0.0454*%
%ADD29C,0.2476*%
%ADD30C,0.1721*%
%ADD31C,0.1720*%
%ADD32R,0.0217X0.0690*%
%ADD33R,0.0804X0.0678*%
%ADD34R,0.0532X0.0532*%
%ADD35C,0.0414*%
%ADD36C,0.0260*%
%ADD37C,0.0317*%
%ADD38C,0.0357*%
%ADD39C,0.0278*%
D10*
X006056Y010386D03*
D11*
X010441Y021957D02*
X010449Y021957D01*
X010441Y021957D02*
X010441Y022095D01*
X010449Y022095D01*
X010449Y021957D01*
X010638Y021957D02*
X010646Y021957D01*
X010638Y021957D02*
X010638Y022095D01*
X010646Y022095D01*
X010646Y021957D01*
X010835Y021957D02*
X010843Y021957D01*
X010835Y021957D02*
X010835Y022095D01*
X010843Y022095D01*
X010843Y021957D01*
X011032Y021957D02*
X011040Y021957D01*
X011032Y021957D02*
X011032Y022095D01*
X011040Y022095D01*
X011040Y021957D01*
X011197Y022252D02*
X011197Y022260D01*
X011335Y022260D01*
X011335Y022252D01*
X011197Y022252D01*
X011197Y022449D02*
X011197Y022457D01*
X011335Y022457D01*
X011335Y022449D01*
X011197Y022449D01*
X011197Y022646D02*
X011197Y022654D01*
X011335Y022654D01*
X011335Y022646D01*
X011197Y022646D01*
X011197Y022843D02*
X011197Y022851D01*
X011335Y022851D01*
X011335Y022843D01*
X011197Y022843D01*
X011040Y023146D02*
X011032Y023146D01*
X011040Y023146D02*
X011040Y023008D01*
X011032Y023008D01*
X011032Y023146D01*
X010843Y023146D02*
X010835Y023146D01*
X010843Y023146D02*
X010843Y023008D01*
X010835Y023008D01*
X010835Y023146D01*
X010646Y023146D02*
X010638Y023146D01*
X010646Y023146D02*
X010646Y023008D01*
X010638Y023008D01*
X010638Y023146D01*
X010449Y023146D02*
X010441Y023146D01*
X010449Y023146D02*
X010449Y023008D01*
X010441Y023008D01*
X010441Y023146D01*
X010284Y022851D02*
X010284Y022843D01*
X010146Y022843D01*
X010146Y022851D01*
X010284Y022851D01*
X010284Y022654D02*
X010284Y022646D01*
X010146Y022646D01*
X010146Y022654D01*
X010284Y022654D01*
X010284Y022457D02*
X010284Y022449D01*
X010146Y022449D01*
X010146Y022457D01*
X010284Y022457D01*
X010284Y022260D02*
X010284Y022252D01*
X010146Y022252D01*
X010146Y022260D01*
X010284Y022260D01*
D12*
X010243Y022050D03*
X011239Y022054D03*
X011239Y023050D03*
X010243Y023050D03*
D13*
X006187Y003300D02*
X006226Y003243D01*
X006275Y003195D01*
X006331Y003156D01*
X006393Y003126D01*
X006460Y003109D01*
X006528Y003103D01*
X006596Y003109D01*
X006663Y003126D01*
X006725Y003156D01*
X006781Y003195D01*
X006830Y003243D01*
X006869Y003300D01*
X006898Y003362D01*
X006916Y003428D01*
X006922Y003496D01*
X006916Y003565D01*
X006898Y003631D01*
X006869Y003693D01*
X006830Y003750D01*
X006781Y003798D01*
X006725Y003837D01*
X006663Y003866D01*
X006596Y003884D01*
X006528Y003890D01*
X006460Y003884D01*
X006393Y003866D01*
X006331Y003837D01*
X006275Y003798D01*
X006226Y003750D01*
X006187Y003693D01*
X006158Y003631D01*
X006140Y003565D01*
X006134Y003496D01*
X006140Y003428D01*
X006158Y003362D01*
X006187Y003300D01*
X006186Y003303D02*
X006870Y003303D01*
X006893Y003351D02*
X006163Y003351D01*
X006148Y003400D02*
X006908Y003400D01*
X006917Y003448D02*
X006138Y003448D01*
X006134Y003497D02*
X006922Y003497D01*
X006917Y003545D02*
X006139Y003545D01*
X006148Y003594D02*
X006908Y003594D01*
X006893Y003642D02*
X006163Y003642D01*
X006186Y003691D02*
X006870Y003691D01*
X006837Y003739D02*
X006219Y003739D01*
X006264Y003788D02*
X006792Y003788D01*
X006727Y003836D02*
X006329Y003836D01*
X006464Y003885D02*
X006592Y003885D01*
X006837Y003254D02*
X006219Y003254D01*
X006264Y003206D02*
X006792Y003206D01*
X006727Y003157D02*
X006329Y003157D01*
X006462Y003109D02*
X006594Y003109D01*
X024218Y013733D02*
X024258Y013676D01*
X024306Y013628D01*
X024363Y013589D01*
X024425Y013560D01*
X024491Y013542D01*
X024559Y013536D01*
X024628Y013542D01*
X024694Y013560D01*
X024756Y013589D01*
X024813Y013628D01*
X024861Y013676D01*
X024900Y013733D01*
X024929Y013795D01*
X024947Y013861D01*
X024953Y013930D01*
X024947Y013998D01*
X024929Y014064D01*
X024900Y014126D01*
X024861Y014183D01*
X024813Y014231D01*
X024756Y014270D01*
X024694Y014299D01*
X024628Y014317D01*
X024559Y014323D01*
X024491Y014317D01*
X024425Y014299D01*
X024363Y014270D01*
X024306Y014231D01*
X024258Y014183D01*
X024218Y014126D01*
X024189Y014064D01*
X024172Y013998D01*
X024166Y013930D01*
X024172Y013861D01*
X024189Y013795D01*
X024218Y013733D01*
X024220Y013730D02*
X024899Y013730D01*
X024922Y013779D02*
X024197Y013779D01*
X024181Y013827D02*
X024938Y013827D01*
X024948Y013876D02*
X024170Y013876D01*
X024166Y013924D02*
X024953Y013924D01*
X024949Y013973D02*
X024170Y013973D01*
X024178Y014021D02*
X024941Y014021D01*
X024927Y014070D02*
X024192Y014070D01*
X024215Y014118D02*
X024904Y014118D01*
X024872Y014167D02*
X024247Y014167D01*
X024290Y014215D02*
X024829Y014215D01*
X024766Y014264D02*
X024353Y014264D01*
X024472Y014312D02*
X024647Y014312D01*
X024865Y013682D02*
X024254Y013682D01*
X024301Y013633D02*
X024818Y013633D01*
X024748Y013585D02*
X024371Y013585D01*
X024557Y013536D02*
X024562Y013536D01*
X011028Y022264D02*
X010453Y022264D01*
X010453Y022839D01*
X011028Y022839D01*
X011028Y022264D01*
X011028Y022266D02*
X010453Y022266D01*
X010453Y022315D02*
X011028Y022315D01*
X011028Y022363D02*
X010453Y022363D01*
X010453Y022412D02*
X011028Y022412D01*
X011028Y022460D02*
X010453Y022460D01*
X010453Y022509D02*
X011028Y022509D01*
X011028Y022557D02*
X010453Y022557D01*
X010453Y022606D02*
X011028Y022606D01*
X011028Y022654D02*
X010453Y022654D01*
X010453Y022703D02*
X011028Y022703D01*
X011028Y022751D02*
X010453Y022751D01*
X010453Y022800D02*
X011028Y022800D01*
X007670Y024352D02*
X006961Y024352D01*
X006974Y024323D02*
X007014Y024267D01*
X007062Y024218D01*
X007119Y024179D01*
X007181Y024150D01*
X007247Y024132D01*
X007315Y024126D01*
X007384Y024132D01*
X007450Y024150D01*
X007512Y024179D01*
X007568Y024218D01*
X007617Y024267D01*
X007656Y024323D01*
X007685Y024385D01*
X007703Y024452D01*
X007709Y024520D01*
X007703Y024588D01*
X007685Y024655D01*
X007656Y024717D01*
X007617Y024773D01*
X007568Y024822D01*
X007512Y024861D01*
X007450Y024890D01*
X007384Y024908D01*
X007315Y024914D01*
X007247Y024908D01*
X007181Y024890D01*
X007119Y024861D01*
X007062Y024822D01*
X007014Y024773D01*
X006974Y024717D01*
X006945Y024655D01*
X006928Y024588D01*
X006922Y024520D01*
X006928Y024452D01*
X006945Y024385D01*
X006974Y024323D01*
X006988Y024303D02*
X007642Y024303D01*
X007605Y024255D02*
X007026Y024255D01*
X007080Y024206D02*
X007551Y024206D01*
X007466Y024158D02*
X007165Y024158D01*
X006941Y024400D02*
X007689Y024400D01*
X007702Y024449D02*
X006928Y024449D01*
X006924Y024497D02*
X007707Y024497D01*
X007707Y024546D02*
X006924Y024546D01*
X006929Y024594D02*
X007702Y024594D01*
X007689Y024643D02*
X006942Y024643D01*
X006962Y024691D02*
X007668Y024691D01*
X007640Y024740D02*
X006990Y024740D01*
X007029Y024788D02*
X007602Y024788D01*
X007547Y024837D02*
X007084Y024837D01*
X007170Y024885D02*
X007461Y024885D01*
D14*
X009540Y024284D03*
X010209Y024284D03*
X010209Y023615D03*
X009540Y023615D03*
X011237Y023615D03*
X011721Y022996D03*
X011906Y023615D03*
X012390Y022996D03*
X013516Y022985D03*
X013516Y022512D03*
X013516Y022040D03*
X013516Y021567D03*
X014185Y021567D03*
X014185Y022040D03*
X014185Y022512D03*
X014185Y022985D03*
X012532Y021567D03*
X011863Y021567D03*
X012099Y021056D03*
X012099Y020504D03*
X011430Y020504D03*
X011430Y021056D03*
X013280Y020504D03*
X013949Y020504D03*
X017689Y021016D03*
X018359Y021016D03*
X020524Y022414D03*
X021193Y022414D03*
X011902Y024284D03*
X011233Y024284D03*
X014556Y004917D03*
X015226Y004917D03*
X015992Y004926D03*
X016661Y004926D03*
X016661Y003784D03*
X015992Y003784D03*
X015224Y003769D03*
X014555Y003769D03*
X014536Y002952D03*
X015205Y002952D03*
X016001Y002952D03*
X016670Y002952D03*
X011971Y002931D03*
X011302Y002931D03*
D15*
X011479Y004044D03*
X011479Y004713D03*
X012180Y004713D03*
X012180Y004044D03*
X012883Y006375D03*
X012883Y007045D03*
X013670Y007045D03*
X013670Y006375D03*
X014458Y006375D03*
X014458Y007045D03*
X009678Y006508D03*
X009678Y005839D03*
X015859Y020642D03*
X015859Y021311D03*
X016685Y021331D03*
X016685Y020662D03*
X013811Y023949D03*
X013811Y024619D03*
X009874Y021705D03*
X009874Y021036D03*
D16*
X003890Y013930D03*
D17*
X019835Y013930D02*
X020780Y013930D01*
X020390Y015996D02*
X021335Y015996D01*
X021335Y011863D02*
X020390Y011863D01*
D18*
X023218Y009796D02*
X024720Y009796D01*
X024720Y018063D02*
X023218Y018063D01*
D19*
X018462Y021971D03*
X018462Y022227D03*
X018462Y022483D03*
X018462Y022739D03*
X016247Y022739D03*
X016247Y022483D03*
X016247Y022227D03*
X016247Y021971D03*
D20*
X017863Y024768D03*
D21*
X017863Y025768D03*
X016863Y025768D03*
X015863Y025768D03*
X015863Y024768D03*
X016863Y024768D03*
D22*
X009205Y022335D03*
X009205Y021666D03*
X011981Y006697D03*
X011981Y006028D03*
X015319Y006083D03*
X015319Y006752D03*
D23*
G36*
X006537Y017025D02*
X006858Y017346D01*
X007289Y016915D01*
X006968Y016594D01*
X006537Y017025D01*
G37*
G36*
X005660Y017373D02*
X005981Y017694D01*
X006412Y017263D01*
X006091Y016942D01*
X005660Y017373D01*
G37*
G36*
X006189Y017902D02*
X006510Y018223D01*
X006941Y017792D01*
X006620Y017471D01*
X006189Y017902D01*
G37*
D24*
X006805Y021213D02*
X007855Y021213D01*
X004855Y021213D02*
X003805Y021213D01*
X003805Y006646D02*
X004855Y006646D01*
X006805Y006646D02*
X007855Y006646D01*
X020005Y006646D02*
X021055Y006646D01*
X023005Y006646D02*
X024055Y006646D01*
X024055Y021213D02*
X023005Y021213D01*
X021055Y021213D02*
X020005Y021213D01*
D25*
G36*
X020294Y023170D02*
X020641Y023517D01*
X020988Y023170D01*
X020641Y022823D01*
X020294Y023170D01*
G37*
G36*
X019319Y024145D02*
X019666Y024492D01*
X020013Y024145D01*
X019666Y023798D01*
X019319Y024145D01*
G37*
G36*
X020572Y025397D02*
X020919Y025744D01*
X021266Y025397D01*
X020919Y025050D01*
X020572Y025397D01*
G37*
G36*
X021546Y024423D02*
X021893Y024770D01*
X022240Y024423D01*
X021893Y024076D01*
X021546Y024423D01*
G37*
D26*
X018556Y004800D03*
X018556Y002989D03*
D27*
X011941Y024945D03*
X011941Y026205D03*
X009776Y026205D03*
X009776Y024945D03*
D28*
X023103Y008595D03*
X023103Y007847D03*
X023969Y008221D03*
D29*
X019256Y008603D02*
X019232Y008603D01*
X019232Y008627D01*
X019256Y008627D01*
X019256Y008603D01*
X008627Y008603D02*
X008603Y008603D01*
X008603Y008627D01*
X008627Y008627D01*
X008627Y008603D01*
X008627Y019232D02*
X008603Y019232D01*
X008603Y019256D01*
X008627Y019256D01*
X008627Y019232D01*
X019232Y019232D02*
X019256Y019232D01*
X019232Y019232D02*
X019232Y019256D01*
X019256Y019256D01*
X019256Y019232D01*
D30*
X019244Y019244D03*
X008615Y019244D03*
X008615Y008615D03*
X019244Y008615D03*
D31*
X018788Y011124D03*
X009071Y011124D03*
D32*
X013191Y005420D03*
X013447Y005420D03*
X013703Y005420D03*
X013959Y005420D03*
X013959Y003767D03*
X013703Y003767D03*
X013447Y003767D03*
X013191Y003767D03*
D33*
X013575Y004593D03*
D34*
X022473Y022414D03*
X023300Y022414D03*
D35*
X025504Y019953D03*
X025219Y016786D03*
X025156Y014848D03*
X023201Y016685D03*
X021626Y014914D03*
X020721Y013063D03*
X021784Y012591D03*
X023430Y010945D03*
X025156Y011286D03*
X025248Y007276D03*
X021508Y004205D03*
X020462Y002814D03*
X017558Y002752D03*
X016685Y004284D03*
X015544Y004367D03*
X014401Y004295D03*
X014456Y005776D03*
X015969Y005552D03*
X016331Y006926D03*
X015426Y008418D03*
X015878Y009244D03*
X013752Y008890D03*
X011981Y008215D03*
X011351Y009678D03*
X010524Y006178D03*
X008733Y005622D03*
X009486Y003034D03*
X007414Y002999D03*
X012473Y005390D03*
X012717Y003953D03*
X012993Y002713D03*
X007335Y012571D03*
X008713Y014008D03*
X007138Y015229D03*
X007926Y015859D03*
X009363Y015957D03*
X011725Y018556D03*
X011666Y019678D03*
X012926Y019796D03*
X012709Y020504D03*
X013024Y021587D03*
X014678Y022040D03*
X015034Y021211D03*
X014914Y020662D03*
X015111Y020091D03*
X013890Y019067D03*
X016528Y019638D03*
X017394Y021528D03*
X016902Y022493D03*
X017689Y023181D03*
X019008Y022729D03*
X019225Y021725D03*
X021587Y018772D03*
X018969Y013977D03*
X014678Y022985D03*
X015032Y023300D03*
X015863Y023304D03*
X013701Y023457D03*
X012945Y023930D03*
X013063Y025091D03*
X012836Y026189D03*
X010741Y023457D03*
X008894Y022985D03*
X007959Y024081D03*
X008804Y024717D03*
X008478Y025722D03*
X007100Y025246D03*
X006201Y024287D03*
X002460Y020321D03*
X002335Y018196D03*
X002335Y016321D03*
X005012Y016744D03*
X005265Y018101D03*
X002460Y011821D03*
X002460Y009946D03*
X018469Y026286D03*
X019796Y025130D03*
D36*
X014579Y023457D03*
X014343Y024008D03*
X013083Y022709D03*
X012571Y022394D03*
X012059Y022394D03*
X010883Y022414D03*
X010878Y022689D03*
X010603Y022689D03*
X010603Y022414D03*
X012532Y020819D03*
X012926Y020819D03*
D37*
X011075Y021449D03*
D38*
X013185Y023433D03*
X010772Y023926D03*
X010701Y024485D03*
X014402Y021095D03*
X015386Y022197D03*
X021729Y011079D03*
D39*
X012394Y023378D03*
M02*
