G75*
%MOIN*%
%OFA0B0*%
%FSLAX24Y24*%
%IPPOS*%
%LPD*%
%AMOC8*
5,1,8,0,0,1.08239X$1,22.5*
%
%ADD10C,0.1320*%
%ADD11C,0.2501*%
%ADD12C,0.1005*%
%ADD13C,0.1562*%
%ADD14R,0.0800X0.0800*%
%ADD15OC8,0.0800*%
%ADD16C,0.1110*%
%ADD17C,0.0847*%
%ADD18C,0.1721*%
%ADD19C,0.1720*%
%ADD20C,0.0414*%
%ADD21C,0.0260*%
%ADD22C,0.0317*%
%ADD23C,0.0357*%
%ADD24C,0.0278*%
D10*
X006056Y010386D03*
D11*
X003890Y013930D03*
D12*
X019835Y013930D02*
X020780Y013930D01*
X020390Y015996D02*
X021335Y015996D01*
X021335Y011863D02*
X020390Y011863D01*
D13*
X023218Y009796D02*
X024720Y009796D01*
X024720Y018063D02*
X023218Y018063D01*
D14*
X017863Y024768D03*
D15*
X017863Y025768D03*
X016863Y025768D03*
X015863Y025768D03*
X015863Y024768D03*
X016863Y024768D03*
D16*
X004855Y006646D02*
X003805Y006646D01*
X006805Y006646D02*
X007855Y006646D01*
X020005Y006646D02*
X021055Y006646D01*
X023005Y006646D02*
X024055Y006646D01*
X024055Y021213D02*
X023005Y021213D01*
X021055Y021213D02*
X020005Y021213D01*
X007855Y021213D02*
X006805Y021213D01*
X004855Y021213D02*
X003805Y021213D01*
D17*
X004323Y017709D03*
X013536Y024559D03*
X013536Y025741D03*
X014717Y025741D03*
X014717Y024559D03*
X019048Y024756D03*
X019028Y023733D03*
X019048Y025741D03*
X023378Y015898D03*
X024559Y015898D03*
X023378Y013930D03*
X023378Y011961D03*
X024559Y011961D03*
X021016Y010780D03*
X019048Y014717D03*
X014717Y008418D03*
X012748Y008418D03*
D18*
X008615Y008615D03*
X019244Y008615D03*
X019244Y019244D03*
X008615Y019244D03*
D19*
X009071Y011124D03*
X018788Y011124D03*
D20*
X020721Y013063D03*
X021784Y012591D03*
X023430Y010945D03*
X025156Y011286D03*
X025156Y014848D03*
X025219Y016786D03*
X023201Y016685D03*
X021626Y014914D03*
X018969Y013977D03*
X021587Y018772D03*
X019225Y021725D03*
X019008Y022729D03*
X017689Y023181D03*
X016902Y022493D03*
X017394Y021528D03*
X015863Y023304D03*
X015032Y023300D03*
X014678Y022985D03*
X014678Y022040D03*
X015034Y021211D03*
X014914Y020662D03*
X015111Y020091D03*
X013890Y019067D03*
X012926Y019796D03*
X012709Y020504D03*
X013024Y021587D03*
X013701Y023457D03*
X012945Y023930D03*
X013063Y025091D03*
X012836Y026189D03*
X010741Y023457D03*
X008894Y022985D03*
X007959Y024081D03*
X008804Y024717D03*
X008478Y025722D03*
X007100Y025246D03*
X006201Y024287D03*
X002460Y020321D03*
X002335Y018196D03*
X002335Y016321D03*
X005012Y016744D03*
X005265Y018101D03*
X007138Y015229D03*
X007926Y015859D03*
X009363Y015957D03*
X008713Y014008D03*
X007335Y012571D03*
X011351Y009678D03*
X011981Y008215D03*
X013752Y008890D03*
X015426Y008418D03*
X015878Y009244D03*
X016331Y006926D03*
X015969Y005552D03*
X015544Y004367D03*
X016685Y004284D03*
X017558Y002752D03*
X020462Y002814D03*
X021508Y004205D03*
X025248Y007276D03*
X014456Y005776D03*
X014401Y004295D03*
X012717Y003953D03*
X012993Y002713D03*
X012473Y005390D03*
X010524Y006178D03*
X008733Y005622D03*
X009486Y003034D03*
X007414Y002999D03*
X002460Y009946D03*
X002460Y011821D03*
X011725Y018556D03*
X011666Y019678D03*
X016528Y019638D03*
X019796Y025130D03*
X018469Y026286D03*
X025504Y019953D03*
D21*
X014579Y023457D03*
X014343Y024008D03*
X013083Y022709D03*
X012571Y022394D03*
X012059Y022394D03*
X010883Y022414D03*
X010878Y022689D03*
X010603Y022689D03*
X010603Y022414D03*
X012532Y020819D03*
X012926Y020819D03*
D22*
X011075Y021449D03*
D23*
X013185Y023433D03*
X010772Y023926D03*
X010701Y024485D03*
X014402Y021095D03*
X015386Y022197D03*
X021729Y011079D03*
D24*
X012394Y023378D03*
M02*
