G75*
%MOIN*%
%OFA0B0*%
%FSLAX24Y24*%
%IPPOS*%
%LPD*%
%AMOC8*
5,1,8,0,0,1.08239X$1,22.5*
%
%ADD10C,0.0000*%
%ADD11C,0.0100*%
%ADD12C,0.0120*%
%ADD13C,0.0105*%
%ADD14R,0.0134X0.0134*%
%ADD15C,0.0063*%
%ADD16R,0.0433X0.0394*%
%ADD17R,0.0394X0.0433*%
%ADD18C,0.2441*%
%ADD19C,0.0945*%
%ADD20C,0.1502*%
%ADD21R,0.0394X0.0098*%
%ADD22R,0.0740X0.0740*%
%ADD23OC8,0.0740*%
%ADD24R,0.0591X0.0512*%
%ADD25R,0.0394X0.0551*%
%ADD26C,0.1050*%
%ADD27R,0.0433X0.0433*%
%ADD28R,0.0394X0.1024*%
%ADD29C,0.0394*%
%ADD30R,0.0512X0.0748*%
%ADD31R,0.0551X0.0394*%
%ADD32C,0.2417*%
%ADD33C,0.0050*%
%ADD34C,0.1660*%
%ADD35R,0.0157X0.0630*%
%ADD36R,0.0744X0.0618*%
%ADD37R,0.0472X0.0472*%
%ADD38C,0.0354*%
%ADD39C,0.0200*%
%ADD40C,0.0257*%
%ADD41C,0.0079*%
%ADD42C,0.0160*%
%ADD43C,0.0297*%
%ADD44C,0.0218*%
%ADD45C,0.0240*%
%ADD46C,0.0320*%
D10*
X007784Y008615D02*
X007786Y008672D01*
X007792Y008729D01*
X007802Y008786D01*
X007815Y008842D01*
X007833Y008896D01*
X007854Y008950D01*
X007879Y009001D01*
X007908Y009051D01*
X007939Y009099D01*
X007974Y009144D01*
X008012Y009187D01*
X008053Y009227D01*
X008097Y009265D01*
X008143Y009299D01*
X008191Y009330D01*
X008242Y009357D01*
X008294Y009381D01*
X008347Y009402D01*
X008402Y009418D01*
X008458Y009431D01*
X008515Y009440D01*
X008572Y009445D01*
X008629Y009446D01*
X008687Y009443D01*
X008744Y009436D01*
X008800Y009425D01*
X008855Y009410D01*
X008910Y009392D01*
X008963Y009370D01*
X009014Y009344D01*
X009063Y009315D01*
X009110Y009282D01*
X009155Y009246D01*
X009198Y009208D01*
X009237Y009166D01*
X009274Y009122D01*
X009307Y009075D01*
X009337Y009026D01*
X009364Y008976D01*
X009387Y008923D01*
X009406Y008869D01*
X009422Y008814D01*
X009434Y008758D01*
X009442Y008701D01*
X009446Y008644D01*
X009446Y008586D01*
X009442Y008529D01*
X009434Y008472D01*
X009422Y008416D01*
X009406Y008361D01*
X009387Y008307D01*
X009364Y008254D01*
X009337Y008204D01*
X009307Y008155D01*
X009274Y008108D01*
X009237Y008064D01*
X009198Y008022D01*
X009155Y007984D01*
X009110Y007948D01*
X009063Y007915D01*
X009014Y007886D01*
X008963Y007860D01*
X008910Y007838D01*
X008855Y007820D01*
X008800Y007805D01*
X008744Y007794D01*
X008687Y007787D01*
X008629Y007784D01*
X008572Y007785D01*
X008515Y007790D01*
X008458Y007799D01*
X008402Y007812D01*
X008347Y007828D01*
X008294Y007849D01*
X008242Y007873D01*
X008191Y007900D01*
X008143Y007931D01*
X008097Y007965D01*
X008053Y008003D01*
X008012Y008043D01*
X007974Y008086D01*
X007939Y008131D01*
X007908Y008179D01*
X007879Y008229D01*
X007854Y008280D01*
X007833Y008334D01*
X007815Y008388D01*
X007802Y008444D01*
X007792Y008501D01*
X007786Y008558D01*
X007784Y008615D01*
X005426Y010386D02*
X005428Y010436D01*
X005434Y010486D01*
X005444Y010535D01*
X005458Y010583D01*
X005475Y010630D01*
X005496Y010675D01*
X005521Y010719D01*
X005549Y010760D01*
X005581Y010799D01*
X005615Y010836D01*
X005652Y010870D01*
X005692Y010900D01*
X005734Y010927D01*
X005778Y010951D01*
X005824Y010972D01*
X005871Y010988D01*
X005919Y011001D01*
X005969Y011010D01*
X006018Y011015D01*
X006069Y011016D01*
X006119Y011013D01*
X006168Y011006D01*
X006217Y010995D01*
X006265Y010980D01*
X006311Y010962D01*
X006356Y010940D01*
X006399Y010914D01*
X006440Y010885D01*
X006479Y010853D01*
X006515Y010818D01*
X006547Y010780D01*
X006577Y010740D01*
X006604Y010697D01*
X006627Y010653D01*
X006646Y010607D01*
X006662Y010559D01*
X006674Y010510D01*
X006682Y010461D01*
X006686Y010411D01*
X006686Y010361D01*
X006682Y010311D01*
X006674Y010262D01*
X006662Y010213D01*
X006646Y010165D01*
X006627Y010119D01*
X006604Y010075D01*
X006577Y010032D01*
X006547Y009992D01*
X006515Y009954D01*
X006479Y009919D01*
X006440Y009887D01*
X006399Y009858D01*
X006356Y009832D01*
X006311Y009810D01*
X006265Y009792D01*
X006217Y009777D01*
X006168Y009766D01*
X006119Y009759D01*
X006069Y009756D01*
X006018Y009757D01*
X005969Y009762D01*
X005919Y009771D01*
X005871Y009784D01*
X005824Y009800D01*
X005778Y009821D01*
X005734Y009845D01*
X005692Y009872D01*
X005652Y009902D01*
X005615Y009936D01*
X005581Y009973D01*
X005549Y010012D01*
X005521Y010053D01*
X005496Y010097D01*
X005475Y010142D01*
X005458Y010189D01*
X005444Y010237D01*
X005434Y010286D01*
X005428Y010336D01*
X005426Y010386D01*
X007784Y019244D02*
X007786Y019301D01*
X007792Y019358D01*
X007802Y019415D01*
X007815Y019471D01*
X007833Y019525D01*
X007854Y019579D01*
X007879Y019630D01*
X007908Y019680D01*
X007939Y019728D01*
X007974Y019773D01*
X008012Y019816D01*
X008053Y019856D01*
X008097Y019894D01*
X008143Y019928D01*
X008191Y019959D01*
X008242Y019986D01*
X008294Y020010D01*
X008347Y020031D01*
X008402Y020047D01*
X008458Y020060D01*
X008515Y020069D01*
X008572Y020074D01*
X008629Y020075D01*
X008687Y020072D01*
X008744Y020065D01*
X008800Y020054D01*
X008855Y020039D01*
X008910Y020021D01*
X008963Y019999D01*
X009014Y019973D01*
X009063Y019944D01*
X009110Y019911D01*
X009155Y019875D01*
X009198Y019837D01*
X009237Y019795D01*
X009274Y019751D01*
X009307Y019704D01*
X009337Y019655D01*
X009364Y019605D01*
X009387Y019552D01*
X009406Y019498D01*
X009422Y019443D01*
X009434Y019387D01*
X009442Y019330D01*
X009446Y019273D01*
X009446Y019215D01*
X009442Y019158D01*
X009434Y019101D01*
X009422Y019045D01*
X009406Y018990D01*
X009387Y018936D01*
X009364Y018883D01*
X009337Y018833D01*
X009307Y018784D01*
X009274Y018737D01*
X009237Y018693D01*
X009198Y018651D01*
X009155Y018613D01*
X009110Y018577D01*
X009063Y018544D01*
X009014Y018515D01*
X008963Y018489D01*
X008910Y018467D01*
X008855Y018449D01*
X008800Y018434D01*
X008744Y018423D01*
X008687Y018416D01*
X008629Y018413D01*
X008572Y018414D01*
X008515Y018419D01*
X008458Y018428D01*
X008402Y018441D01*
X008347Y018457D01*
X008294Y018478D01*
X008242Y018502D01*
X008191Y018529D01*
X008143Y018560D01*
X008097Y018594D01*
X008053Y018632D01*
X008012Y018672D01*
X007974Y018715D01*
X007939Y018760D01*
X007908Y018808D01*
X007879Y018858D01*
X007854Y018909D01*
X007833Y018963D01*
X007815Y019017D01*
X007802Y019073D01*
X007792Y019130D01*
X007786Y019187D01*
X007784Y019244D01*
X018413Y019244D02*
X018415Y019301D01*
X018421Y019358D01*
X018431Y019415D01*
X018444Y019471D01*
X018462Y019525D01*
X018483Y019579D01*
X018508Y019630D01*
X018537Y019680D01*
X018568Y019728D01*
X018603Y019773D01*
X018641Y019816D01*
X018682Y019856D01*
X018726Y019894D01*
X018772Y019928D01*
X018820Y019959D01*
X018871Y019986D01*
X018923Y020010D01*
X018976Y020031D01*
X019031Y020047D01*
X019087Y020060D01*
X019144Y020069D01*
X019201Y020074D01*
X019258Y020075D01*
X019316Y020072D01*
X019373Y020065D01*
X019429Y020054D01*
X019484Y020039D01*
X019539Y020021D01*
X019592Y019999D01*
X019643Y019973D01*
X019692Y019944D01*
X019739Y019911D01*
X019784Y019875D01*
X019827Y019837D01*
X019866Y019795D01*
X019903Y019751D01*
X019936Y019704D01*
X019966Y019655D01*
X019993Y019605D01*
X020016Y019552D01*
X020035Y019498D01*
X020051Y019443D01*
X020063Y019387D01*
X020071Y019330D01*
X020075Y019273D01*
X020075Y019215D01*
X020071Y019158D01*
X020063Y019101D01*
X020051Y019045D01*
X020035Y018990D01*
X020016Y018936D01*
X019993Y018883D01*
X019966Y018833D01*
X019936Y018784D01*
X019903Y018737D01*
X019866Y018693D01*
X019827Y018651D01*
X019784Y018613D01*
X019739Y018577D01*
X019692Y018544D01*
X019643Y018515D01*
X019592Y018489D01*
X019539Y018467D01*
X019484Y018449D01*
X019429Y018434D01*
X019373Y018423D01*
X019316Y018416D01*
X019258Y018413D01*
X019201Y018414D01*
X019144Y018419D01*
X019087Y018428D01*
X019031Y018441D01*
X018976Y018457D01*
X018923Y018478D01*
X018871Y018502D01*
X018820Y018529D01*
X018772Y018560D01*
X018726Y018594D01*
X018682Y018632D01*
X018641Y018672D01*
X018603Y018715D01*
X018568Y018760D01*
X018537Y018808D01*
X018508Y018858D01*
X018483Y018909D01*
X018462Y018963D01*
X018444Y019017D01*
X018431Y019073D01*
X018421Y019130D01*
X018415Y019187D01*
X018413Y019244D01*
X018413Y008615D02*
X018415Y008672D01*
X018421Y008729D01*
X018431Y008786D01*
X018444Y008842D01*
X018462Y008896D01*
X018483Y008950D01*
X018508Y009001D01*
X018537Y009051D01*
X018568Y009099D01*
X018603Y009144D01*
X018641Y009187D01*
X018682Y009227D01*
X018726Y009265D01*
X018772Y009299D01*
X018820Y009330D01*
X018871Y009357D01*
X018923Y009381D01*
X018976Y009402D01*
X019031Y009418D01*
X019087Y009431D01*
X019144Y009440D01*
X019201Y009445D01*
X019258Y009446D01*
X019316Y009443D01*
X019373Y009436D01*
X019429Y009425D01*
X019484Y009410D01*
X019539Y009392D01*
X019592Y009370D01*
X019643Y009344D01*
X019692Y009315D01*
X019739Y009282D01*
X019784Y009246D01*
X019827Y009208D01*
X019866Y009166D01*
X019903Y009122D01*
X019936Y009075D01*
X019966Y009026D01*
X019993Y008976D01*
X020016Y008923D01*
X020035Y008869D01*
X020051Y008814D01*
X020063Y008758D01*
X020071Y008701D01*
X020075Y008644D01*
X020075Y008586D01*
X020071Y008529D01*
X020063Y008472D01*
X020051Y008416D01*
X020035Y008361D01*
X020016Y008307D01*
X019993Y008254D01*
X019966Y008204D01*
X019936Y008155D01*
X019903Y008108D01*
X019866Y008064D01*
X019827Y008022D01*
X019784Y007984D01*
X019739Y007948D01*
X019692Y007915D01*
X019643Y007886D01*
X019592Y007860D01*
X019539Y007838D01*
X019484Y007820D01*
X019429Y007805D01*
X019373Y007794D01*
X019316Y007787D01*
X019258Y007784D01*
X019201Y007785D01*
X019144Y007790D01*
X019087Y007799D01*
X019031Y007812D01*
X018976Y007828D01*
X018923Y007849D01*
X018871Y007873D01*
X018820Y007900D01*
X018772Y007931D01*
X018726Y007965D01*
X018682Y008003D01*
X018641Y008043D01*
X018603Y008086D01*
X018568Y008131D01*
X018537Y008179D01*
X018508Y008229D01*
X018483Y008280D01*
X018462Y008334D01*
X018444Y008388D01*
X018431Y008444D01*
X018421Y008501D01*
X018415Y008558D01*
X018413Y008615D01*
D11*
X015319Y006083D02*
X015252Y006016D01*
X013963Y005420D02*
X013959Y005420D01*
X013703Y005420D02*
X013703Y006342D01*
X013670Y006375D01*
X013061Y005593D02*
X012827Y005359D01*
X012827Y004945D01*
X012595Y004713D01*
X012180Y004713D01*
X012208Y004071D02*
X012180Y004044D01*
X012208Y004071D02*
X012599Y004071D01*
X012717Y003953D01*
X013191Y003767D02*
X012854Y003430D01*
X011835Y003430D01*
X011479Y003786D01*
X011479Y004044D01*
X011479Y004713D02*
X011479Y005113D01*
X011752Y005386D01*
X012469Y005386D01*
X012473Y005390D01*
X012772Y005882D02*
X013061Y005593D01*
X013191Y005463D01*
X013191Y005420D01*
X013447Y005420D02*
X013447Y004721D01*
X013575Y004593D01*
X013447Y003767D02*
X013418Y003550D01*
X013418Y003359D01*
X013213Y003154D01*
X012194Y003154D01*
X011971Y002931D01*
X014555Y003769D02*
X014674Y003668D01*
X012178Y005941D02*
X011981Y006028D01*
X000150Y013930D02*
X000154Y014268D01*
X000167Y014606D01*
X000187Y014944D01*
X000216Y015281D01*
X000254Y015617D01*
X000299Y015952D01*
X000353Y016286D01*
X000415Y016618D01*
X000485Y016949D01*
X000563Y017278D01*
X000649Y017605D01*
X000743Y017930D01*
X000846Y018253D01*
X000956Y018572D01*
X001073Y018889D01*
X001199Y019203D01*
X001332Y019514D01*
X001473Y019822D01*
X001621Y020126D01*
X001777Y020426D01*
X001940Y020722D01*
X002110Y021014D01*
X002288Y021302D01*
X002472Y021586D01*
X002664Y021865D01*
X002862Y022139D01*
X003067Y022408D01*
X003278Y022672D01*
X003496Y022931D01*
X003720Y023184D01*
X003950Y023432D01*
X004186Y023674D01*
X004428Y023910D01*
X004676Y024140D01*
X004929Y024364D01*
X005188Y024582D01*
X005452Y024793D01*
X005721Y024998D01*
X005995Y025196D01*
X006274Y025388D01*
X006558Y025572D01*
X006846Y025750D01*
X007138Y025920D01*
X007434Y026083D01*
X007734Y026239D01*
X008038Y026387D01*
X008346Y026528D01*
X008657Y026661D01*
X008971Y026787D01*
X009288Y026904D01*
X009607Y027014D01*
X009930Y027117D01*
X010255Y027211D01*
X010582Y027297D01*
X010911Y027375D01*
X011242Y027445D01*
X011574Y027507D01*
X011908Y027561D01*
X012243Y027606D01*
X012579Y027644D01*
X012916Y027673D01*
X013254Y027693D01*
X013592Y027706D01*
X013930Y027710D01*
X014268Y027706D01*
X014606Y027693D01*
X014944Y027673D01*
X015281Y027644D01*
X015617Y027606D01*
X015952Y027561D01*
X016286Y027507D01*
X016618Y027445D01*
X016949Y027375D01*
X017278Y027297D01*
X017605Y027211D01*
X017930Y027117D01*
X018253Y027014D01*
X018572Y026904D01*
X018889Y026787D01*
X019203Y026661D01*
X019514Y026528D01*
X019822Y026387D01*
X020126Y026239D01*
X020426Y026083D01*
X020722Y025920D01*
X021014Y025750D01*
X021302Y025572D01*
X021586Y025388D01*
X021865Y025196D01*
X022139Y024998D01*
X022408Y024793D01*
X022672Y024582D01*
X022931Y024364D01*
X023184Y024140D01*
X023432Y023910D01*
X023674Y023674D01*
X023910Y023432D01*
X024140Y023184D01*
X024364Y022931D01*
X024582Y022672D01*
X024793Y022408D01*
X024998Y022139D01*
X025196Y021865D01*
X025388Y021586D01*
X025572Y021302D01*
X025750Y021014D01*
X025920Y020722D01*
X026083Y020426D01*
X026239Y020126D01*
X026387Y019822D01*
X026528Y019514D01*
X026661Y019203D01*
X026787Y018889D01*
X026904Y018572D01*
X027014Y018253D01*
X027117Y017930D01*
X027211Y017605D01*
X027297Y017278D01*
X027375Y016949D01*
X027445Y016618D01*
X027507Y016286D01*
X027561Y015952D01*
X027606Y015617D01*
X027644Y015281D01*
X027673Y014944D01*
X027693Y014606D01*
X027706Y014268D01*
X027710Y013930D01*
X027706Y013592D01*
X027693Y013254D01*
X027673Y012916D01*
X027644Y012579D01*
X027606Y012243D01*
X027561Y011908D01*
X027507Y011574D01*
X027445Y011242D01*
X027375Y010911D01*
X027297Y010582D01*
X027211Y010255D01*
X027117Y009930D01*
X027014Y009607D01*
X026904Y009288D01*
X026787Y008971D01*
X026661Y008657D01*
X026528Y008346D01*
X026387Y008038D01*
X026239Y007734D01*
X026083Y007434D01*
X025920Y007138D01*
X025750Y006846D01*
X025572Y006558D01*
X025388Y006274D01*
X025196Y005995D01*
X024998Y005721D01*
X024793Y005452D01*
X024582Y005188D01*
X024364Y004929D01*
X024140Y004676D01*
X023910Y004428D01*
X023674Y004186D01*
X023432Y003950D01*
X023184Y003720D01*
X022931Y003496D01*
X022672Y003278D01*
X022408Y003067D01*
X022139Y002862D01*
X021865Y002664D01*
X021586Y002472D01*
X021302Y002288D01*
X021014Y002110D01*
X020722Y001940D01*
X020426Y001777D01*
X020126Y001621D01*
X019822Y001473D01*
X019514Y001332D01*
X019203Y001199D01*
X018889Y001073D01*
X018572Y000956D01*
X018253Y000846D01*
X017930Y000743D01*
X017605Y000649D01*
X017278Y000563D01*
X016949Y000485D01*
X016618Y000415D01*
X016286Y000353D01*
X015952Y000299D01*
X015617Y000254D01*
X015281Y000216D01*
X014944Y000187D01*
X014606Y000167D01*
X014268Y000154D01*
X013930Y000150D01*
X013592Y000154D01*
X013254Y000167D01*
X012916Y000187D01*
X012579Y000216D01*
X012243Y000254D01*
X011908Y000299D01*
X011574Y000353D01*
X011242Y000415D01*
X010911Y000485D01*
X010582Y000563D01*
X010255Y000649D01*
X009930Y000743D01*
X009607Y000846D01*
X009288Y000956D01*
X008971Y001073D01*
X008657Y001199D01*
X008346Y001332D01*
X008038Y001473D01*
X007734Y001621D01*
X007434Y001777D01*
X007138Y001940D01*
X006846Y002110D01*
X006558Y002288D01*
X006274Y002472D01*
X005995Y002664D01*
X005721Y002862D01*
X005452Y003067D01*
X005188Y003278D01*
X004929Y003496D01*
X004676Y003720D01*
X004428Y003950D01*
X004186Y004186D01*
X003950Y004428D01*
X003720Y004676D01*
X003496Y004929D01*
X003278Y005188D01*
X003067Y005452D01*
X002862Y005721D01*
X002664Y005995D01*
X002472Y006274D01*
X002288Y006558D01*
X002110Y006846D01*
X001940Y007138D01*
X001777Y007434D01*
X001621Y007734D01*
X001473Y008038D01*
X001332Y008346D01*
X001199Y008657D01*
X001073Y008971D01*
X000956Y009288D01*
X000846Y009607D01*
X000743Y009930D01*
X000649Y010255D01*
X000563Y010582D01*
X000485Y010911D01*
X000415Y011242D01*
X000353Y011574D01*
X000299Y011908D01*
X000254Y012243D01*
X000216Y012579D01*
X000187Y012916D01*
X000167Y013254D01*
X000154Y013592D01*
X000150Y013930D01*
X009126Y023378D02*
X009658Y022847D01*
X010215Y022847D01*
X010243Y023050D02*
X010229Y023063D01*
X010032Y023063D01*
X009540Y023556D01*
X009540Y023615D01*
X009851Y023926D01*
X010772Y023926D01*
X011807Y023926D01*
X011922Y023811D01*
X011922Y023630D01*
X011906Y023615D01*
X011882Y023638D01*
X011906Y023615D02*
X011587Y023296D01*
X011630Y023252D01*
X011630Y022937D01*
X011540Y022847D01*
X011266Y022847D01*
X011595Y022847D01*
X011721Y022996D01*
X011587Y023296D02*
X011359Y023296D01*
X011239Y023176D01*
X011239Y023050D01*
X011266Y022847D02*
X011311Y022847D01*
X011266Y022650D02*
X012705Y022650D01*
X012788Y022733D01*
X012788Y023477D01*
X011981Y024284D01*
X011902Y024284D01*
X011804Y024284D01*
X011292Y024796D01*
X009894Y024796D01*
X009776Y024945D01*
X009205Y024559D02*
X009481Y024284D01*
X009540Y024284D01*
X009402Y024284D01*
X009126Y024008D01*
X009126Y023378D01*
X010085Y023050D02*
X010243Y023050D01*
X010445Y023077D02*
X010445Y023378D01*
X010209Y023615D01*
X010642Y023359D02*
X010741Y023457D01*
X010642Y023359D02*
X010642Y023077D01*
X010603Y022689D02*
X010603Y022687D01*
X010610Y022680D01*
X010741Y022552D02*
X010878Y022689D01*
X010603Y022414D02*
X010642Y022374D01*
X010642Y022026D01*
X010445Y022026D02*
X010445Y021784D01*
X010367Y021705D01*
X009874Y021705D01*
X010839Y021725D02*
X011075Y021449D01*
X011430Y021508D02*
X011430Y021056D01*
X011430Y021508D02*
X011036Y021902D01*
X011036Y022026D01*
X010839Y022026D02*
X010839Y021725D01*
X011239Y022054D02*
X011376Y022054D01*
X011863Y021567D01*
X011804Y021922D02*
X013398Y021922D01*
X013516Y022040D01*
X013516Y021567D01*
X013890Y021056D02*
X014126Y020819D01*
X014756Y020819D01*
X014914Y020662D01*
X014402Y021095D02*
X014244Y021252D01*
X012847Y021252D01*
X012532Y021567D01*
X012099Y021056D02*
X013890Y021056D01*
X014185Y021567D02*
X015229Y021567D01*
X015888Y022227D01*
X016247Y022227D01*
X016597Y022227D01*
X016744Y022079D01*
X017197Y022079D01*
X017296Y022178D01*
X017296Y024335D01*
X016863Y024768D01*
X016351Y025256D02*
X016351Y024185D01*
X016247Y024082D01*
X016247Y022739D01*
X015376Y022739D01*
X015150Y022512D01*
X014185Y022512D01*
X014185Y022040D02*
X014678Y022040D01*
X015386Y022197D02*
X015672Y022483D01*
X016247Y022483D01*
X016892Y022483D01*
X016902Y022493D01*
X016247Y021971D02*
X016247Y021700D01*
X016616Y021331D01*
X016685Y021331D01*
X016247Y021700D02*
X015859Y021311D01*
X015841Y021211D02*
X015034Y021211D01*
X014678Y022985D02*
X014185Y022985D01*
X013516Y022985D02*
X013516Y022512D01*
X013300Y022512D01*
X013142Y022355D01*
X013142Y022237D01*
X013024Y022119D01*
X011922Y022119D01*
X011587Y022453D01*
X011266Y022453D01*
X011266Y022256D02*
X011469Y022256D01*
X011804Y021922D01*
X011036Y023077D02*
X011036Y023477D01*
X011174Y023615D01*
X011237Y023615D01*
X011843Y024284D02*
X011902Y024284D01*
X013063Y025091D02*
X013339Y025091D01*
X013811Y024619D01*
X013477Y022591D02*
X013516Y022512D01*
X013280Y020504D02*
X012709Y020504D01*
X015859Y023300D02*
X015863Y023304D01*
X015863Y024768D01*
X016351Y025256D02*
X016863Y025768D01*
X017863Y024768D02*
X017689Y024595D01*
X017689Y023181D01*
X018462Y022483D02*
X018472Y022493D01*
X018811Y022493D01*
X019008Y022689D01*
X019008Y022729D01*
X019008Y022847D01*
X019422Y022217D02*
X019666Y022462D01*
X019666Y024145D01*
X019796Y024274D01*
X019796Y024364D01*
X019796Y025130D01*
X019796Y024364D02*
X020919Y025397D01*
X021193Y022414D02*
X022473Y022414D01*
X020524Y022414D02*
X020071Y022414D01*
X019402Y021744D01*
X019244Y021744D01*
X019225Y021725D01*
X019422Y022217D02*
X018472Y022217D01*
X018462Y022227D01*
X018462Y021971D02*
X018359Y021867D01*
X018359Y021370D01*
X018201Y021528D01*
X017394Y021528D01*
X018359Y021370D02*
X018359Y021016D01*
X022237Y016784D02*
X023103Y016784D01*
X023201Y016685D01*
X009776Y026205D02*
X009205Y025634D01*
X009205Y024559D01*
X009540Y024284D02*
X009520Y024244D01*
D12*
X000937Y026922D02*
X000937Y000937D01*
X026922Y000937D01*
X026922Y026922D01*
X000937Y026922D01*
X004401Y023495D02*
X008956Y023495D01*
X008956Y023613D02*
X004520Y023613D01*
X004638Y023732D02*
X008956Y023732D01*
X008956Y023850D02*
X004757Y023850D01*
X004875Y023969D02*
X008956Y023969D01*
X008956Y024079D02*
X008956Y023308D01*
X009488Y022776D01*
X009513Y022751D01*
X009265Y022751D01*
X009265Y022482D01*
X009145Y022482D01*
X009145Y022751D01*
X008889Y022751D01*
X008848Y022740D01*
X008812Y022719D01*
X008782Y022689D01*
X008761Y022653D01*
X008750Y022612D01*
X008750Y022462D01*
X008593Y022396D01*
X008435Y022239D01*
X008350Y022033D01*
X008350Y021630D01*
X008220Y021760D01*
X007983Y021858D01*
X006676Y021858D01*
X006439Y021760D01*
X006258Y021578D01*
X006222Y021493D01*
X005437Y021493D01*
X005401Y021578D01*
X005220Y021760D01*
X004983Y021858D01*
X003676Y021858D01*
X003439Y021760D01*
X003258Y021578D01*
X003160Y021341D01*
X003160Y021085D01*
X003258Y020848D01*
X003413Y020692D01*
X001369Y018649D01*
X001291Y018570D01*
X001248Y018467D01*
X001248Y009392D01*
X001291Y009289D01*
X003413Y007167D01*
X003258Y007011D01*
X003160Y006774D01*
X003160Y006518D01*
X003258Y006281D01*
X003439Y006099D01*
X003676Y006001D01*
X004983Y006001D01*
X005220Y006099D01*
X005401Y006281D01*
X005437Y006366D01*
X006222Y006366D01*
X006258Y006281D01*
X006439Y006099D01*
X006676Y006001D01*
X007983Y006001D01*
X008220Y006099D01*
X008401Y006281D01*
X008500Y006518D01*
X008500Y006774D01*
X008401Y007011D01*
X008220Y007193D01*
X007983Y007291D01*
X006676Y007291D01*
X006439Y007193D01*
X006258Y007011D01*
X006222Y006926D01*
X005437Y006926D01*
X005401Y007011D01*
X005220Y007193D01*
X004983Y007291D01*
X004081Y007291D01*
X001808Y009564D01*
X001808Y018295D01*
X004081Y020568D01*
X004983Y020568D01*
X005220Y020666D01*
X005401Y020848D01*
X005437Y020933D01*
X006222Y020933D01*
X006258Y020848D01*
X006439Y020666D01*
X006676Y020568D01*
X007983Y020568D01*
X008220Y020666D01*
X008401Y020848D01*
X008483Y021045D01*
X008593Y020935D01*
X008798Y020850D01*
X009118Y020850D01*
X009118Y020708D01*
X009203Y020502D01*
X009307Y020397D01*
X009139Y020494D01*
X008802Y020585D01*
X008427Y020585D01*
X008090Y020494D01*
X007787Y020320D01*
X007539Y020072D01*
X007365Y019769D01*
X007274Y019432D01*
X007274Y019057D01*
X007365Y018720D01*
X007539Y018417D01*
X007787Y018169D01*
X008090Y017995D01*
X008427Y017904D01*
X008802Y017904D01*
X009139Y017995D01*
X009442Y018169D01*
X009690Y018417D01*
X009865Y018720D01*
X009955Y019057D01*
X009955Y019432D01*
X009865Y019769D01*
X009690Y020072D01*
X009458Y020304D01*
X009566Y020259D01*
X009633Y020259D01*
X010021Y019871D01*
X010021Y018637D01*
X009064Y017681D01*
X007272Y017681D01*
X007174Y017779D01*
X007055Y017828D01*
X007048Y017853D01*
X007027Y017889D01*
X006844Y018072D01*
X006619Y017847D01*
X006565Y017901D01*
X006790Y018126D01*
X006607Y018309D01*
X006571Y018330D01*
X006530Y018341D01*
X006488Y018341D01*
X006447Y018330D01*
X006411Y018309D01*
X006284Y018182D01*
X006565Y017901D01*
X006511Y017847D01*
X006230Y018128D01*
X006103Y018001D01*
X006082Y017964D01*
X006071Y017923D01*
X006071Y017881D01*
X006082Y017841D01*
X006103Y017804D01*
X006285Y017622D01*
X006511Y017847D01*
X006565Y017792D01*
X006559Y017786D01*
X006540Y017779D01*
X006104Y017343D01*
X006096Y017324D01*
X006090Y017318D01*
X006036Y017372D01*
X005982Y017318D01*
X005701Y017599D01*
X005574Y017472D01*
X005553Y017435D01*
X005542Y017394D01*
X005542Y017352D01*
X005553Y017312D01*
X005574Y017275D01*
X005756Y017093D01*
X005982Y017318D01*
X006036Y017263D01*
X005811Y017038D01*
X005887Y016962D01*
X004719Y015794D01*
X004308Y015940D01*
X003750Y015978D01*
X003202Y015864D01*
X002706Y015607D01*
X002297Y015225D01*
X002007Y014748D01*
X001856Y014209D01*
X001856Y013650D01*
X002007Y013111D01*
X002297Y012634D01*
X002297Y012634D01*
X002706Y012252D01*
X003202Y011995D01*
X003750Y011881D01*
X004308Y011919D01*
X004835Y012106D01*
X005292Y012429D01*
X005645Y012863D01*
X005868Y013375D01*
X005944Y013930D01*
X005868Y014484D01*
X005740Y014778D01*
X007037Y016076D01*
X007080Y016076D01*
X007286Y016161D01*
X007366Y016241D01*
X009506Y016241D01*
X009770Y016351D01*
X011148Y017729D01*
X011351Y017931D01*
X011461Y018196D01*
X011461Y020187D01*
X011696Y020187D01*
X011741Y020233D01*
X011754Y020209D01*
X011784Y020179D01*
X011821Y020158D01*
X011861Y020147D01*
X012060Y020147D01*
X012060Y020466D01*
X012137Y020466D01*
X012137Y020147D01*
X012336Y020147D01*
X012377Y020158D01*
X012414Y020179D01*
X012443Y020209D01*
X012464Y020246D01*
X012475Y020286D01*
X012475Y020318D01*
X012541Y020252D01*
X012650Y020207D01*
X012768Y020207D01*
X012877Y020252D01*
X012943Y020318D01*
X012943Y020258D01*
X013014Y020187D01*
X013546Y020187D01*
X013615Y020256D01*
X013683Y020187D01*
X013983Y020187D01*
X014655Y019516D01*
X014772Y019399D01*
X015264Y019399D01*
X019949Y014714D01*
X020894Y014714D01*
X021367Y014240D01*
X021367Y014060D01*
X021282Y014265D01*
X021116Y014432D01*
X020898Y014522D01*
X019717Y014522D01*
X019499Y014432D01*
X019333Y014265D01*
X019243Y014047D01*
X019243Y013812D01*
X019333Y013594D01*
X019499Y013427D01*
X019717Y013337D01*
X020898Y013337D01*
X021116Y013427D01*
X021282Y013594D01*
X021367Y013800D01*
X021367Y013123D01*
X020700Y012455D01*
X020272Y012455D01*
X020055Y012365D01*
X019888Y012198D01*
X019798Y011980D01*
X019798Y011745D01*
X019888Y011527D01*
X020055Y011360D01*
X020272Y011270D01*
X021453Y011270D01*
X021671Y011360D01*
X021837Y011527D01*
X021927Y011745D01*
X021927Y011980D01*
X021837Y012198D01*
X021671Y012365D01*
X021453Y012455D01*
X021265Y012455D01*
X021650Y012840D01*
X021767Y012957D01*
X021767Y014406D01*
X021177Y014997D01*
X021060Y015114D01*
X020115Y015114D01*
X015547Y019682D01*
X015430Y019799D01*
X014938Y019799D01*
X014286Y020451D01*
X014286Y020649D01*
X014617Y020649D01*
X014617Y020603D01*
X014662Y020493D01*
X014745Y020410D01*
X014855Y020365D01*
X014973Y020365D01*
X015082Y020410D01*
X015166Y020493D01*
X015211Y020603D01*
X015211Y020721D01*
X015166Y020830D01*
X015082Y020914D01*
X015093Y020914D01*
X015202Y020959D01*
X015284Y021041D01*
X015546Y021041D01*
X015587Y021000D01*
X015564Y020987D01*
X015534Y020957D01*
X015513Y020920D01*
X015502Y020880D01*
X015502Y020681D01*
X015820Y020681D01*
X015820Y020604D01*
X015502Y020604D01*
X015502Y020405D01*
X015513Y020364D01*
X015534Y020327D01*
X015564Y020298D01*
X015600Y020276D01*
X015641Y020266D01*
X015820Y020266D01*
X015820Y020604D01*
X015897Y020604D01*
X015897Y020681D01*
X016216Y020681D01*
X016216Y020880D01*
X016205Y020920D01*
X016184Y020957D01*
X016154Y020987D01*
X016130Y021000D01*
X016176Y021045D01*
X016176Y021388D01*
X016247Y021460D01*
X016369Y021338D01*
X016369Y021065D01*
X016414Y021020D01*
X016390Y021006D01*
X016136Y021006D01*
X016176Y021125D02*
X016369Y021125D01*
X016369Y021243D02*
X016176Y021243D01*
X016176Y021362D02*
X016345Y021362D01*
X016520Y021668D02*
X016417Y021770D01*
X016417Y021802D01*
X016494Y021802D01*
X016564Y021872D01*
X016564Y022019D01*
X016574Y022009D01*
X016674Y021909D01*
X017268Y021909D01*
X017366Y022008D01*
X017466Y022107D01*
X017466Y022985D01*
X017521Y022930D01*
X017630Y022884D01*
X017748Y022884D01*
X017858Y022930D01*
X017941Y023013D01*
X017987Y023122D01*
X017987Y023241D01*
X017941Y023350D01*
X017859Y023432D01*
X017859Y024278D01*
X018282Y024278D01*
X018353Y024348D01*
X018353Y025188D01*
X018282Y025258D01*
X017443Y025258D01*
X017373Y025188D01*
X017373Y024499D01*
X017329Y024542D01*
X017353Y024565D01*
X017353Y024971D01*
X017066Y025258D01*
X016660Y025258D01*
X016521Y025119D01*
X016521Y025186D01*
X016636Y025301D01*
X016660Y025278D01*
X017066Y025278D01*
X017353Y025565D01*
X017353Y025971D01*
X017066Y026258D01*
X016660Y026258D01*
X016391Y025989D01*
X016082Y026298D01*
X015903Y026298D01*
X015903Y025808D01*
X015823Y025808D01*
X015823Y026298D01*
X015643Y026298D01*
X015333Y025988D01*
X015333Y025808D01*
X015823Y025808D01*
X015823Y025728D01*
X015333Y025728D01*
X015333Y025549D01*
X015641Y025240D01*
X015373Y024971D01*
X015373Y024565D01*
X015660Y024278D01*
X015693Y024278D01*
X015693Y023554D01*
X015611Y023472D01*
X015565Y023363D01*
X015565Y023244D01*
X015611Y023135D01*
X015694Y023052D01*
X015803Y023006D01*
X015922Y023006D01*
X016031Y023052D01*
X016077Y023098D01*
X016077Y022909D01*
X015306Y022909D01*
X015080Y022682D01*
X014522Y022682D01*
X014522Y022727D01*
X014618Y022687D01*
X014737Y022687D01*
X014846Y022733D01*
X014929Y022816D01*
X014975Y022926D01*
X014975Y023002D01*
X015091Y023002D01*
X015200Y023048D01*
X015284Y023131D01*
X015329Y023240D01*
X015329Y023359D01*
X015284Y023468D01*
X015272Y023480D01*
X015272Y023977D01*
X015235Y024065D01*
X015168Y024133D01*
X014479Y024822D01*
X014391Y024859D01*
X014128Y024859D01*
X014128Y024885D01*
X014058Y024955D01*
X013715Y024955D01*
X013409Y025261D01*
X013314Y025261D01*
X013232Y025343D01*
X013122Y025388D01*
X013004Y025388D01*
X012895Y025343D01*
X012811Y025259D01*
X012766Y025150D01*
X012766Y025032D01*
X012811Y024923D01*
X012895Y024839D01*
X013004Y024794D01*
X013122Y024794D01*
X013232Y024839D01*
X013291Y024898D01*
X013495Y024695D01*
X013495Y024352D01*
X013563Y024284D01*
X013495Y024215D01*
X013495Y024130D01*
X013166Y024130D01*
X013114Y024181D01*
X013004Y024227D01*
X012886Y024227D01*
X012777Y024181D01*
X012693Y024098D01*
X012648Y023989D01*
X012648Y023870D01*
X012658Y023847D01*
X012239Y024266D01*
X012239Y024451D01*
X012247Y024451D01*
X012317Y024522D01*
X012317Y025369D01*
X012247Y025439D01*
X011636Y025439D01*
X011565Y025369D01*
X011565Y024762D01*
X011362Y024966D01*
X010152Y024966D01*
X010152Y025369D01*
X010082Y025439D01*
X009470Y025439D01*
X009400Y025369D01*
X009400Y024605D01*
X009375Y024630D01*
X009375Y025564D01*
X009522Y025711D01*
X010082Y025711D01*
X010152Y025781D01*
X010152Y026629D01*
X010129Y026652D01*
X011588Y026652D01*
X011565Y026629D01*
X011565Y025781D01*
X011636Y025711D01*
X012247Y025711D01*
X012317Y025781D01*
X012317Y026629D01*
X012294Y026652D01*
X018461Y026652D01*
X019428Y026280D01*
X020685Y025640D01*
X020493Y025447D01*
X020493Y025348D01*
X020551Y025290D01*
X019966Y024751D01*
X019966Y024880D01*
X020048Y024962D01*
X020093Y025071D01*
X020093Y025189D01*
X020048Y025299D01*
X019964Y025382D01*
X019855Y025427D01*
X019737Y025427D01*
X019627Y025382D01*
X019544Y025299D01*
X019499Y025189D01*
X019499Y025071D01*
X019544Y024962D01*
X019626Y024880D01*
X019626Y024571D01*
X019617Y024571D01*
X019240Y024194D01*
X019240Y024095D01*
X019496Y023839D01*
X019496Y022532D01*
X019351Y022387D01*
X018946Y022387D01*
X018981Y022422D01*
X018991Y022432D01*
X019067Y022432D01*
X019177Y022477D01*
X019260Y022560D01*
X019305Y022670D01*
X019305Y022788D01*
X019260Y022897D01*
X019177Y022981D01*
X019067Y023026D01*
X018949Y023026D01*
X018840Y022981D01*
X018766Y022907D01*
X018757Y022916D01*
X018721Y022937D01*
X018680Y022948D01*
X018462Y022948D01*
X018244Y022948D01*
X018204Y022937D01*
X018167Y022916D01*
X018137Y022886D01*
X018116Y022850D01*
X018105Y022809D01*
X018105Y022739D01*
X018462Y022739D01*
X018462Y022948D01*
X018462Y022739D01*
X018462Y022739D01*
X018462Y022739D01*
X018105Y022739D01*
X018105Y022668D01*
X018116Y022628D01*
X018137Y022591D01*
X018146Y022582D01*
X018145Y022582D01*
X018145Y022384D01*
X018174Y022355D01*
X018145Y022326D01*
X018145Y022128D01*
X018174Y022099D01*
X018145Y022070D01*
X018145Y021872D01*
X018189Y021829D01*
X018189Y021698D01*
X017644Y021698D01*
X017562Y021780D01*
X017453Y021825D01*
X017335Y021825D01*
X017226Y021780D01*
X017142Y021696D01*
X017097Y021587D01*
X017097Y021469D01*
X017142Y021360D01*
X017226Y021276D01*
X017335Y021231D01*
X017353Y021231D01*
X017353Y021104D01*
X017002Y021455D01*
X017002Y021597D01*
X016932Y021668D01*
X016520Y021668D01*
X016471Y021717D02*
X017163Y021717D01*
X017102Y021599D02*
X017001Y021599D01*
X017002Y021480D02*
X017097Y021480D01*
X017095Y021362D02*
X017141Y021362D01*
X017214Y021243D02*
X017305Y021243D01*
X017332Y021125D02*
X017353Y021125D01*
X017075Y020816D02*
X017075Y018441D01*
X017117Y018338D01*
X017196Y018259D01*
X018377Y017078D01*
X018480Y017035D01*
X021589Y017035D01*
X021957Y016668D01*
X021957Y016115D01*
X021952Y016145D01*
X021921Y016239D01*
X021876Y016328D01*
X021817Y016408D01*
X021747Y016479D01*
X021667Y016537D01*
X021578Y016583D01*
X021483Y016613D01*
X021385Y016629D01*
X020450Y016629D01*
X020450Y016056D01*
X020330Y016056D01*
X020330Y015936D01*
X020450Y015936D01*
X020450Y015364D01*
X021385Y015364D01*
X021483Y015380D01*
X021578Y015410D01*
X021667Y015456D01*
X021747Y015514D01*
X021817Y015584D01*
X021876Y015665D01*
X021921Y015754D01*
X021952Y015848D01*
X021957Y015878D01*
X021957Y010173D01*
X021997Y010076D01*
X021997Y008084D01*
X021935Y008022D01*
X021836Y007924D01*
X021800Y007836D01*
X021800Y005997D01*
X020842Y005040D01*
X018872Y005040D01*
X018872Y005361D01*
X018802Y005431D01*
X018309Y005431D01*
X018239Y005361D01*
X018239Y005106D01*
X016997Y005106D01*
X016997Y005172D01*
X016927Y005242D01*
X016395Y005242D01*
X016326Y005174D01*
X016258Y005242D01*
X016172Y005242D01*
X016172Y005334D01*
X016221Y005383D01*
X016266Y005492D01*
X016266Y005611D01*
X016221Y005720D01*
X016137Y005803D01*
X016028Y005849D01*
X015910Y005849D01*
X015801Y005803D01*
X015717Y005720D01*
X015672Y005611D01*
X015672Y005492D01*
X015717Y005383D01*
X015801Y005300D01*
X015812Y005295D01*
X015812Y005242D01*
X015725Y005242D01*
X015655Y005172D01*
X015655Y004679D01*
X015725Y004609D01*
X016258Y004609D01*
X016326Y004677D01*
X016395Y004609D01*
X016927Y004609D01*
X016997Y004679D01*
X016997Y004746D01*
X018239Y004746D01*
X018239Y004238D01*
X018309Y004168D01*
X018802Y004168D01*
X018872Y004238D01*
X018872Y004560D01*
X020989Y004560D01*
X021077Y004596D01*
X021145Y004664D01*
X022176Y005695D01*
X022243Y005762D01*
X022280Y005850D01*
X022280Y007646D01*
X022707Y007646D01*
X022707Y007600D01*
X022777Y007530D01*
X023428Y007530D01*
X023498Y007600D01*
X023498Y008093D01*
X023428Y008164D01*
X023069Y008164D01*
X022988Y008169D01*
X022971Y008164D01*
X022777Y008164D01*
X022740Y008126D01*
X022477Y008126D01*
X022477Y009308D01*
X022479Y009302D01*
X022724Y009057D01*
X022979Y008952D01*
X022806Y008952D01*
X022765Y008941D01*
X022729Y008920D01*
X022699Y008890D01*
X022678Y008853D01*
X022667Y008813D01*
X022667Y008633D01*
X023064Y008633D01*
X023064Y008556D01*
X023141Y008556D01*
X023141Y008238D01*
X023399Y008238D01*
X023440Y008249D01*
X023477Y008270D01*
X023506Y008300D01*
X023527Y008336D01*
X023538Y008377D01*
X023538Y008556D01*
X023141Y008556D01*
X023141Y008633D01*
X023538Y008633D01*
X023538Y008813D01*
X023527Y008853D01*
X023506Y008890D01*
X023477Y008920D01*
X023468Y008924D01*
X023689Y008924D01*
X023689Y008538D01*
X023644Y008538D01*
X023573Y008467D01*
X023573Y007974D01*
X023644Y007904D01*
X024294Y007904D01*
X024364Y007974D01*
X024364Y008467D01*
X024294Y008538D01*
X024249Y008538D01*
X024249Y008924D01*
X024893Y008924D01*
X025214Y009057D01*
X025459Y009302D01*
X025591Y009622D01*
X025591Y009969D01*
X025459Y010289D01*
X025214Y010534D01*
X024893Y010667D01*
X023044Y010667D01*
X022724Y010534D01*
X022517Y010327D01*
X022517Y016614D01*
X022909Y016614D01*
X022949Y016517D01*
X023033Y016434D01*
X023142Y016388D01*
X023260Y016388D01*
X023370Y016434D01*
X023453Y016517D01*
X023498Y016626D01*
X023498Y016745D01*
X023453Y016854D01*
X023370Y016937D01*
X023260Y016983D01*
X023142Y016983D01*
X023073Y016954D01*
X022463Y016954D01*
X021942Y017474D01*
X021864Y017553D01*
X021761Y017595D01*
X018652Y017595D01*
X017635Y018612D01*
X017635Y020679D01*
X017655Y020699D01*
X017956Y020699D01*
X018024Y020768D01*
X018092Y020699D01*
X018625Y020699D01*
X018695Y020770D01*
X018695Y021263D01*
X018625Y021333D01*
X018529Y021333D01*
X018529Y021797D01*
X018533Y021802D01*
X018709Y021802D01*
X018779Y021872D01*
X018779Y022047D01*
X019464Y022047D01*
X019393Y021976D01*
X019393Y021977D01*
X019284Y022022D01*
X019166Y022022D01*
X019056Y021977D01*
X018973Y021893D01*
X018928Y021784D01*
X018928Y021666D01*
X018973Y021556D01*
X019056Y021473D01*
X019166Y021428D01*
X019284Y021428D01*
X019393Y021473D01*
X019429Y021509D01*
X019360Y021341D01*
X019360Y021085D01*
X019458Y020848D01*
X019639Y020666D01*
X019876Y020568D01*
X021183Y020568D01*
X021420Y020666D01*
X021601Y020848D01*
X021637Y020933D01*
X022422Y020933D01*
X022458Y020848D01*
X022639Y020666D01*
X022876Y020568D01*
X023250Y020568D01*
X023250Y018935D01*
X023044Y018935D01*
X022724Y018802D01*
X022479Y018557D01*
X022347Y018237D01*
X022347Y017890D01*
X022479Y017570D01*
X022724Y017325D01*
X023044Y017192D01*
X024893Y017192D01*
X025214Y017325D01*
X025459Y017570D01*
X025591Y017890D01*
X025591Y018237D01*
X025459Y018557D01*
X025214Y018802D01*
X024893Y018935D01*
X023810Y018935D01*
X023810Y020568D01*
X024183Y020568D01*
X024420Y020666D01*
X024601Y020848D01*
X024700Y021085D01*
X024700Y021341D01*
X024601Y021578D01*
X024420Y021760D01*
X024183Y021858D01*
X022876Y021858D01*
X022639Y021760D01*
X022458Y021578D01*
X022422Y021493D01*
X021637Y021493D01*
X021601Y021578D01*
X021420Y021760D01*
X021183Y021858D01*
X019876Y021858D01*
X019671Y021773D01*
X020142Y022244D01*
X020187Y022244D01*
X020187Y022167D01*
X020258Y022097D01*
X020790Y022097D01*
X020859Y022165D01*
X020927Y022097D01*
X021460Y022097D01*
X021530Y022167D01*
X021530Y022244D01*
X022117Y022244D01*
X022117Y022128D01*
X022187Y022058D01*
X022759Y022058D01*
X022829Y022128D01*
X022829Y022700D01*
X022759Y022770D01*
X022187Y022770D01*
X022117Y022700D01*
X022117Y022584D01*
X021530Y022584D01*
X021530Y022660D01*
X021460Y022731D01*
X020927Y022731D01*
X020859Y022662D01*
X020790Y022731D01*
X020730Y022731D01*
X020739Y022736D01*
X020873Y022870D01*
X020641Y023102D01*
X020709Y023170D01*
X020941Y022938D01*
X021075Y023072D01*
X021096Y023109D01*
X021107Y023149D01*
X021107Y023191D01*
X021096Y023232D01*
X021075Y023269D01*
X020941Y023402D01*
X020709Y023170D01*
X020641Y023239D01*
X020873Y023471D01*
X020739Y023605D01*
X020702Y023626D01*
X020662Y023637D01*
X020620Y023637D01*
X020579Y023626D01*
X020542Y023605D01*
X020409Y023471D01*
X020641Y023239D01*
X020572Y023170D01*
X020641Y023102D01*
X020409Y022870D01*
X020542Y022736D01*
X020552Y022731D01*
X020258Y022731D01*
X020187Y022660D01*
X020187Y022584D01*
X020001Y022584D01*
X019836Y022419D01*
X019836Y023839D01*
X020093Y024095D01*
X020093Y024194D01*
X019982Y024305D01*
X020792Y025049D01*
X020869Y024971D01*
X020969Y024971D01*
X021263Y025265D01*
X021851Y024883D01*
X021832Y024878D01*
X021795Y024857D01*
X021661Y024723D01*
X021893Y024491D01*
X021825Y024423D01*
X021893Y024355D01*
X021661Y024123D01*
X021795Y023989D01*
X021832Y023968D01*
X021872Y023957D01*
X021915Y023957D01*
X021955Y023968D01*
X021992Y023989D01*
X022126Y024123D01*
X021893Y024355D01*
X021962Y024423D01*
X022194Y024191D01*
X022328Y024325D01*
X022349Y024361D01*
X022360Y024402D01*
X022360Y024444D01*
X022349Y024484D01*
X022976Y023976D01*
X023976Y022976D01*
X024867Y021876D01*
X025638Y020689D01*
X026280Y019428D01*
X026652Y018461D01*
X026652Y009398D01*
X026280Y008431D01*
X025638Y007170D01*
X024867Y005983D01*
X023976Y004883D01*
X022976Y003883D01*
X021876Y002992D01*
X020689Y002221D01*
X019428Y001579D01*
X018461Y001207D01*
X009398Y001207D01*
X008431Y001579D01*
X007170Y002221D01*
X005983Y002992D01*
X004883Y003883D01*
X003883Y004883D01*
X002992Y005983D01*
X002221Y007170D01*
X001579Y008431D01*
X001207Y009398D01*
X001207Y018461D01*
X001579Y019428D01*
X002221Y020689D01*
X002992Y021876D01*
X003883Y022976D01*
X004883Y023976D01*
X005983Y024867D01*
X007170Y025638D01*
X008431Y026280D01*
X009398Y026652D01*
X009423Y026652D01*
X009400Y026629D01*
X009400Y026070D01*
X009035Y025705D01*
X009035Y024489D01*
X009135Y024389D01*
X009201Y024323D01*
X008956Y024079D01*
X008965Y024087D02*
X007516Y024087D01*
X007510Y024084D02*
X007524Y024091D01*
X007532Y024089D01*
X007555Y024105D01*
X007580Y024117D01*
X007583Y024125D01*
X007595Y024133D01*
X007604Y024133D01*
X007623Y024153D01*
X007646Y024169D01*
X007647Y024177D01*
X007658Y024188D01*
X007666Y024189D01*
X007682Y024212D01*
X007702Y024232D01*
X007702Y024240D01*
X007711Y024253D01*
X007718Y024255D01*
X007730Y024281D01*
X007746Y024303D01*
X007745Y024312D01*
X007751Y024325D01*
X007758Y024329D01*
X007765Y024356D01*
X007777Y024381D01*
X007774Y024389D01*
X007778Y024404D01*
X007785Y024409D01*
X007787Y024437D01*
X007794Y024464D01*
X007790Y024471D01*
X007791Y024486D01*
X007797Y024492D01*
X007794Y024520D01*
X007797Y024548D01*
X007791Y024554D01*
X007790Y024569D01*
X007794Y024576D01*
X007787Y024603D01*
X007785Y024631D01*
X007778Y024636D01*
X007774Y024651D01*
X007777Y024659D01*
X007765Y024684D01*
X007758Y024711D01*
X007751Y024715D01*
X007745Y024729D01*
X007746Y024737D01*
X007730Y024760D01*
X007718Y024785D01*
X007711Y024788D01*
X007702Y024800D01*
X007702Y024808D01*
X007682Y024828D01*
X007666Y024851D01*
X007658Y024852D01*
X007647Y024863D01*
X007646Y024871D01*
X007623Y024887D01*
X007604Y024907D01*
X007595Y024907D01*
X007583Y024915D01*
X007580Y024923D01*
X007555Y024935D01*
X007532Y024951D01*
X007524Y024949D01*
X007510Y024956D01*
X007506Y024963D01*
X007479Y024970D01*
X007454Y024982D01*
X007446Y024979D01*
X007432Y024983D01*
X007426Y024989D01*
X007399Y024992D01*
X007372Y024999D01*
X007364Y024995D01*
X007349Y024996D01*
X007343Y025002D01*
X007315Y024999D01*
X007288Y025002D01*
X007281Y024996D01*
X007266Y024995D01*
X007259Y024999D01*
X007232Y024992D01*
X007205Y024989D01*
X007199Y024983D01*
X007185Y024979D01*
X007177Y024982D01*
X007152Y024970D01*
X007125Y024963D01*
X007120Y024956D01*
X007107Y024949D01*
X007099Y024951D01*
X007076Y024935D01*
X007051Y024923D01*
X007048Y024915D01*
X007035Y024907D01*
X007027Y024907D01*
X007007Y024887D01*
X006985Y024871D01*
X006983Y024863D01*
X006973Y024852D01*
X006964Y024851D01*
X006948Y024828D01*
X006929Y024808D01*
X006929Y024800D01*
X006920Y024788D01*
X006912Y024785D01*
X006901Y024760D01*
X006885Y024737D01*
X006886Y024729D01*
X006880Y024715D01*
X006872Y024711D01*
X006865Y024684D01*
X006853Y024659D01*
X006856Y024651D01*
X006852Y024636D01*
X006846Y024631D01*
X006844Y024603D01*
X006836Y024576D01*
X006841Y024569D01*
X006839Y024554D01*
X006834Y024548D01*
X006836Y024520D01*
X006834Y024492D01*
X006839Y024486D01*
X006841Y024471D01*
X006836Y024464D01*
X006844Y024437D01*
X006846Y024409D01*
X006852Y024404D01*
X006856Y024389D01*
X006853Y024381D01*
X006865Y024356D01*
X006872Y024329D01*
X006880Y024325D01*
X006886Y024312D01*
X006885Y024303D01*
X006901Y024281D01*
X006912Y024255D01*
X006920Y024253D01*
X006929Y024240D01*
X006929Y024232D01*
X006948Y024212D01*
X006964Y024189D01*
X006973Y024188D01*
X006983Y024177D01*
X006985Y024169D01*
X007007Y024153D01*
X007027Y024133D01*
X007035Y024133D01*
X007048Y024125D01*
X007051Y024117D01*
X007076Y024105D01*
X007099Y024089D01*
X007107Y024091D01*
X007120Y024084D01*
X007125Y024077D01*
X007152Y024070D01*
X007177Y024058D01*
X007185Y024061D01*
X007199Y024057D01*
X007205Y024051D01*
X007232Y024048D01*
X007259Y024041D01*
X007266Y024045D01*
X007281Y024044D01*
X007288Y024039D01*
X007315Y024041D01*
X007343Y024039D01*
X007349Y024044D01*
X007364Y024045D01*
X007372Y024041D01*
X007399Y024048D01*
X007426Y024051D01*
X007432Y024057D01*
X007446Y024061D01*
X007454Y024058D01*
X007479Y024070D01*
X007506Y024077D01*
X007510Y024084D01*
X007678Y024206D02*
X009083Y024206D01*
X009200Y024324D02*
X007750Y024324D01*
X007789Y024443D02*
X009082Y024443D01*
X009135Y024389D02*
X009135Y024389D01*
X009035Y024561D02*
X007791Y024561D01*
X007768Y024680D02*
X009035Y024680D01*
X009035Y024798D02*
X007703Y024798D01*
X007582Y024917D02*
X009035Y024917D01*
X009035Y025035D02*
X006242Y025035D01*
X006424Y025154D02*
X009035Y025154D01*
X009035Y025272D02*
X006607Y025272D01*
X006789Y025391D02*
X009035Y025391D01*
X009035Y025509D02*
X006972Y025509D01*
X007154Y025628D02*
X009035Y025628D01*
X009077Y025746D02*
X007382Y025746D01*
X007615Y025865D02*
X009195Y025865D01*
X009314Y025983D02*
X007847Y025983D01*
X008080Y026102D02*
X009400Y026102D01*
X009400Y026220D02*
X008313Y026220D01*
X008583Y026339D02*
X009400Y026339D01*
X009400Y026457D02*
X008891Y026457D01*
X009200Y026576D02*
X009400Y026576D01*
X010152Y026576D02*
X011565Y026576D01*
X011565Y026457D02*
X010152Y026457D01*
X010152Y026339D02*
X011565Y026339D01*
X011565Y026220D02*
X010152Y026220D01*
X010152Y026102D02*
X011565Y026102D01*
X011565Y025983D02*
X010152Y025983D01*
X010152Y025865D02*
X011565Y025865D01*
X011601Y025746D02*
X010117Y025746D01*
X010130Y025391D02*
X011587Y025391D01*
X011565Y025272D02*
X010152Y025272D01*
X010152Y025154D02*
X011565Y025154D01*
X011565Y025035D02*
X010152Y025035D01*
X010495Y024626D02*
X010947Y024626D01*
X010918Y024609D01*
X010888Y024579D01*
X010867Y024542D01*
X010856Y024502D01*
X010856Y024322D01*
X011194Y024322D01*
X011194Y024245D01*
X010856Y024245D01*
X010856Y024181D01*
X010825Y024194D01*
X010719Y024194D01*
X010620Y024153D01*
X010586Y024119D01*
X010586Y024245D01*
X010247Y024245D01*
X010247Y024322D01*
X010586Y024322D01*
X010586Y024502D01*
X010575Y024542D01*
X010554Y024579D01*
X010524Y024609D01*
X010495Y024626D01*
X010564Y024561D02*
X010878Y024561D01*
X010856Y024443D02*
X010586Y024443D01*
X010586Y024324D02*
X010856Y024324D01*
X010856Y024206D02*
X010586Y024206D01*
X010965Y023653D02*
X011198Y023653D01*
X011198Y023576D01*
X011013Y023576D01*
X010992Y023625D01*
X010965Y023653D01*
X010998Y023613D02*
X011198Y023613D01*
X010247Y023576D02*
X010247Y023258D01*
X010262Y023258D01*
X010250Y023237D01*
X010126Y023237D01*
X010123Y023233D01*
X010102Y023233D01*
X010078Y023258D01*
X010171Y023258D01*
X010171Y023576D01*
X010247Y023576D01*
X010247Y023495D02*
X010171Y023495D01*
X010171Y023376D02*
X010247Y023376D01*
X010262Y023258D02*
X010078Y023258D01*
X009481Y022784D02*
X003727Y022784D01*
X003823Y022902D02*
X009362Y022902D01*
X009244Y023021D02*
X003927Y023021D01*
X004046Y023139D02*
X009125Y023139D01*
X009007Y023258D02*
X004164Y023258D01*
X004283Y023376D02*
X008956Y023376D01*
X008768Y022665D02*
X003631Y022665D01*
X003535Y022547D02*
X008750Y022547D01*
X008669Y022428D02*
X003439Y022428D01*
X003343Y022310D02*
X008506Y022310D01*
X008415Y022191D02*
X003247Y022191D01*
X003151Y022073D02*
X008366Y022073D01*
X008350Y021954D02*
X003055Y021954D01*
X002966Y021836D02*
X003622Y021836D01*
X003396Y021717D02*
X002889Y021717D01*
X002812Y021599D02*
X003278Y021599D01*
X003217Y021480D02*
X002735Y021480D01*
X002658Y021362D02*
X003168Y021362D01*
X003160Y021243D02*
X002581Y021243D01*
X002504Y021125D02*
X003160Y021125D01*
X003192Y021006D02*
X002427Y021006D01*
X002350Y020888D02*
X003241Y020888D01*
X003336Y020769D02*
X002273Y020769D01*
X002202Y020651D02*
X003371Y020651D01*
X003253Y020532D02*
X002141Y020532D01*
X002081Y020414D02*
X003134Y020414D01*
X003016Y020295D02*
X002020Y020295D01*
X001960Y020177D02*
X002897Y020177D01*
X002779Y020058D02*
X001900Y020058D01*
X001839Y019940D02*
X002660Y019940D01*
X002542Y019821D02*
X001779Y019821D01*
X001718Y019703D02*
X002423Y019703D01*
X002305Y019584D02*
X001658Y019584D01*
X001598Y019466D02*
X002186Y019466D01*
X002068Y019347D02*
X001548Y019347D01*
X001502Y019229D02*
X001949Y019229D01*
X001831Y019110D02*
X001457Y019110D01*
X001411Y018992D02*
X001712Y018992D01*
X001594Y018873D02*
X001366Y018873D01*
X001320Y018755D02*
X001475Y018755D01*
X001357Y018636D02*
X001275Y018636D01*
X001269Y018518D02*
X001229Y018518D01*
X001248Y018399D02*
X001207Y018399D01*
X001207Y018281D02*
X001248Y018281D01*
X001248Y018162D02*
X001207Y018162D01*
X001207Y018044D02*
X001248Y018044D01*
X001248Y017925D02*
X001207Y017925D01*
X001207Y017807D02*
X001248Y017807D01*
X001248Y017688D02*
X001207Y017688D01*
X001207Y017570D02*
X001248Y017570D01*
X001248Y017451D02*
X001207Y017451D01*
X001207Y017333D02*
X001248Y017333D01*
X001248Y017214D02*
X001207Y017214D01*
X001207Y017096D02*
X001248Y017096D01*
X001248Y016977D02*
X001207Y016977D01*
X001207Y016859D02*
X001248Y016859D01*
X001248Y016740D02*
X001207Y016740D01*
X001207Y016622D02*
X001248Y016622D01*
X001248Y016503D02*
X001207Y016503D01*
X001207Y016385D02*
X001248Y016385D01*
X001248Y016266D02*
X001207Y016266D01*
X001207Y016148D02*
X001248Y016148D01*
X001248Y016029D02*
X001207Y016029D01*
X001207Y015911D02*
X001248Y015911D01*
X001248Y015792D02*
X001207Y015792D01*
X001207Y015674D02*
X001248Y015674D01*
X001248Y015555D02*
X001207Y015555D01*
X001207Y015437D02*
X001248Y015437D01*
X001248Y015318D02*
X001207Y015318D01*
X001207Y015200D02*
X001248Y015200D01*
X001248Y015081D02*
X001207Y015081D01*
X001207Y014963D02*
X001248Y014963D01*
X001248Y014844D02*
X001207Y014844D01*
X001207Y014726D02*
X001248Y014726D01*
X001248Y014607D02*
X001207Y014607D01*
X001207Y014489D02*
X001248Y014489D01*
X001248Y014370D02*
X001207Y014370D01*
X001207Y014252D02*
X001248Y014252D01*
X001248Y014133D02*
X001207Y014133D01*
X001207Y014015D02*
X001248Y014015D01*
X001248Y013896D02*
X001207Y013896D01*
X001207Y013778D02*
X001248Y013778D01*
X001248Y013659D02*
X001207Y013659D01*
X001207Y013541D02*
X001248Y013541D01*
X001248Y013422D02*
X001207Y013422D01*
X001207Y013304D02*
X001248Y013304D01*
X001248Y013185D02*
X001207Y013185D01*
X001207Y013067D02*
X001248Y013067D01*
X001248Y012948D02*
X001207Y012948D01*
X001207Y012830D02*
X001248Y012830D01*
X001248Y012711D02*
X001207Y012711D01*
X001207Y012593D02*
X001248Y012593D01*
X001248Y012474D02*
X001207Y012474D01*
X001207Y012356D02*
X001248Y012356D01*
X001248Y012237D02*
X001207Y012237D01*
X001207Y012119D02*
X001248Y012119D01*
X001248Y012000D02*
X001207Y012000D01*
X001207Y011882D02*
X001248Y011882D01*
X001248Y011763D02*
X001207Y011763D01*
X001207Y011645D02*
X001248Y011645D01*
X001248Y011526D02*
X001207Y011526D01*
X001207Y011408D02*
X001248Y011408D01*
X001248Y011289D02*
X001207Y011289D01*
X001207Y011171D02*
X001248Y011171D01*
X001248Y011052D02*
X001207Y011052D01*
X001207Y010934D02*
X001248Y010934D01*
X001248Y010815D02*
X001207Y010815D01*
X001207Y010697D02*
X001248Y010697D01*
X001248Y010578D02*
X001207Y010578D01*
X001207Y010460D02*
X001248Y010460D01*
X001248Y010341D02*
X001207Y010341D01*
X001207Y010223D02*
X001248Y010223D01*
X001248Y010104D02*
X001207Y010104D01*
X001207Y009986D02*
X001248Y009986D01*
X001248Y009867D02*
X001207Y009867D01*
X001207Y009749D02*
X001248Y009749D01*
X001248Y009630D02*
X001207Y009630D01*
X001207Y009512D02*
X001248Y009512D01*
X001248Y009393D02*
X001209Y009393D01*
X001255Y009275D02*
X001305Y009275D01*
X001300Y009156D02*
X001424Y009156D01*
X001346Y009038D02*
X001542Y009038D01*
X001661Y008919D02*
X001391Y008919D01*
X001437Y008801D02*
X001779Y008801D01*
X001898Y008682D02*
X001482Y008682D01*
X001528Y008564D02*
X002016Y008564D01*
X002135Y008445D02*
X001573Y008445D01*
X001632Y008327D02*
X002253Y008327D01*
X002372Y008208D02*
X001692Y008208D01*
X001753Y008090D02*
X002490Y008090D01*
X002609Y007971D02*
X001813Y007971D01*
X001873Y007853D02*
X002727Y007853D01*
X002846Y007734D02*
X001934Y007734D01*
X001994Y007616D02*
X002964Y007616D01*
X003083Y007497D02*
X002055Y007497D01*
X002115Y007379D02*
X003201Y007379D01*
X003320Y007260D02*
X002175Y007260D01*
X002240Y007142D02*
X003388Y007142D01*
X003269Y007023D02*
X002317Y007023D01*
X002394Y006905D02*
X003213Y006905D01*
X003164Y006786D02*
X002470Y006786D01*
X002547Y006668D02*
X003160Y006668D01*
X003160Y006549D02*
X002624Y006549D01*
X002701Y006431D02*
X003196Y006431D01*
X003245Y006312D02*
X002778Y006312D01*
X002855Y006194D02*
X003345Y006194D01*
X003498Y006075D02*
X002932Y006075D01*
X003013Y005957D02*
X009321Y005957D01*
X009321Y005877D02*
X009639Y005877D01*
X009639Y005801D01*
X009321Y005801D01*
X009321Y005601D01*
X003301Y005601D01*
X003205Y005720D02*
X009321Y005720D01*
X009321Y005601D02*
X009332Y005561D01*
X009353Y005524D01*
X009382Y005494D01*
X009419Y005473D01*
X009460Y005462D01*
X009639Y005462D01*
X009639Y005801D01*
X009716Y005801D01*
X009716Y005877D01*
X010034Y005877D01*
X010034Y006077D01*
X010024Y006117D01*
X010002Y006154D01*
X009973Y006184D01*
X009949Y006197D01*
X009994Y006242D01*
X009994Y006775D01*
X009924Y006845D01*
X009918Y006845D01*
X009918Y007599D01*
X009881Y007688D01*
X009814Y007755D01*
X009723Y007845D01*
X009865Y008090D01*
X009955Y008427D01*
X009955Y008802D01*
X009865Y009139D01*
X009690Y009442D01*
X009442Y009690D01*
X009139Y009865D01*
X008802Y009955D01*
X008427Y009955D01*
X008090Y009865D01*
X007787Y009690D01*
X007539Y009442D01*
X007365Y009139D01*
X007274Y008802D01*
X007274Y008427D01*
X007365Y008090D01*
X007539Y007787D01*
X007787Y007539D01*
X008090Y007365D01*
X008427Y007274D01*
X008802Y007274D01*
X009139Y007365D01*
X009384Y007506D01*
X009438Y007452D01*
X009438Y006845D01*
X009431Y006845D01*
X009361Y006775D01*
X009361Y006242D01*
X009406Y006197D01*
X009382Y006184D01*
X009353Y006154D01*
X009332Y006117D01*
X009321Y006077D01*
X009321Y005877D01*
X009321Y006075D02*
X008161Y006075D01*
X008314Y006194D02*
X009400Y006194D01*
X009361Y006312D02*
X008414Y006312D01*
X008463Y006431D02*
X009361Y006431D01*
X009361Y006549D02*
X008500Y006549D01*
X008500Y006668D02*
X009361Y006668D01*
X009372Y006786D02*
X008495Y006786D01*
X008446Y006905D02*
X009438Y006905D01*
X009438Y007023D02*
X008390Y007023D01*
X008271Y007142D02*
X009438Y007142D01*
X009438Y007260D02*
X008058Y007260D01*
X008066Y007379D02*
X003993Y007379D01*
X003875Y007497D02*
X007860Y007497D01*
X007711Y007616D02*
X003756Y007616D01*
X003638Y007734D02*
X007592Y007734D01*
X007502Y007853D02*
X003519Y007853D01*
X003401Y007971D02*
X007433Y007971D01*
X007365Y008090D02*
X003282Y008090D01*
X003164Y008208D02*
X007333Y008208D01*
X007301Y008327D02*
X003045Y008327D01*
X002927Y008445D02*
X007274Y008445D01*
X007274Y008564D02*
X002808Y008564D01*
X002690Y008682D02*
X007274Y008682D01*
X007274Y008801D02*
X002571Y008801D01*
X002453Y008919D02*
X007306Y008919D01*
X007337Y009038D02*
X002334Y009038D01*
X002216Y009156D02*
X007374Y009156D01*
X007443Y009275D02*
X002097Y009275D01*
X001979Y009393D02*
X007511Y009393D01*
X007609Y009512D02*
X001860Y009512D01*
X001808Y009630D02*
X005686Y009630D01*
X005580Y009674D02*
X005888Y009546D01*
X006223Y009546D01*
X006531Y009674D01*
X006768Y009910D01*
X006895Y010219D01*
X006895Y010553D01*
X006768Y010862D01*
X006531Y011098D01*
X006223Y011226D01*
X005888Y011226D01*
X005580Y011098D01*
X005343Y010862D01*
X005216Y010553D01*
X005216Y010219D01*
X005343Y009910D01*
X005580Y009674D01*
X005505Y009749D02*
X001808Y009749D01*
X001808Y009867D02*
X005387Y009867D01*
X005312Y009986D02*
X001808Y009986D01*
X001808Y010104D02*
X005263Y010104D01*
X005216Y010223D02*
X001808Y010223D01*
X001808Y010341D02*
X005216Y010341D01*
X005216Y010460D02*
X001808Y010460D01*
X001808Y010578D02*
X005226Y010578D01*
X005275Y010697D02*
X001808Y010697D01*
X001808Y010815D02*
X005324Y010815D01*
X005415Y010934D02*
X001808Y010934D01*
X001808Y011052D02*
X005533Y011052D01*
X005754Y011171D02*
X001808Y011171D01*
X001808Y011289D02*
X008121Y011289D01*
X008121Y011313D02*
X008121Y010935D01*
X008266Y010586D01*
X008533Y010319D01*
X008882Y010174D01*
X009260Y010174D01*
X009558Y010298D01*
X011684Y008172D01*
X011684Y008155D01*
X011729Y008046D01*
X011741Y008034D01*
X011741Y007073D01*
X011636Y007073D01*
X011565Y007003D01*
X011565Y006392D01*
X011594Y006363D01*
X011565Y006334D01*
X011565Y005722D01*
X011636Y005652D01*
X012326Y005652D01*
X012376Y005702D01*
X012712Y005702D01*
X012821Y005593D01*
X012743Y005515D01*
X012725Y005558D01*
X012641Y005642D01*
X012532Y005687D01*
X012414Y005687D01*
X012305Y005642D01*
X012221Y005558D01*
X012220Y005556D01*
X011682Y005556D01*
X011582Y005457D01*
X011309Y005183D01*
X011309Y005050D01*
X011232Y005050D01*
X011162Y004979D01*
X011162Y004447D01*
X011230Y004378D01*
X011162Y004310D01*
X011162Y003777D01*
X011232Y003707D01*
X011317Y003707D01*
X011408Y003616D01*
X011765Y003260D01*
X012059Y003260D01*
X012047Y003248D01*
X011705Y003248D01*
X011660Y003203D01*
X011646Y003226D01*
X011616Y003256D01*
X011580Y003277D01*
X011539Y003288D01*
X011340Y003288D01*
X011340Y002969D01*
X011263Y002969D01*
X011263Y002893D01*
X010925Y002893D01*
X010925Y002713D01*
X010936Y002672D01*
X010957Y002636D01*
X010987Y002606D01*
X011023Y002585D01*
X011064Y002574D01*
X011263Y002574D01*
X011263Y002893D01*
X011340Y002893D01*
X011340Y002574D01*
X011539Y002574D01*
X011580Y002585D01*
X011616Y002606D01*
X011646Y002636D01*
X011660Y002659D01*
X011705Y002614D01*
X012237Y002614D01*
X012307Y002684D01*
X012307Y002984D01*
X012870Y002984D01*
X012824Y002965D01*
X012741Y002881D01*
X012695Y002772D01*
X012695Y002654D01*
X012741Y002545D01*
X012824Y002461D01*
X012933Y002416D01*
X013052Y002416D01*
X013161Y002461D01*
X013233Y002533D01*
X013536Y002533D01*
X013806Y002803D01*
X013837Y002772D01*
X014199Y002772D01*
X014199Y002705D01*
X014270Y002635D01*
X014802Y002635D01*
X014870Y002703D01*
X014939Y002635D01*
X015471Y002635D01*
X015542Y002705D01*
X015542Y002772D01*
X015664Y002772D01*
X015664Y002705D01*
X015735Y002635D01*
X016267Y002635D01*
X016312Y002680D01*
X016326Y002657D01*
X016355Y002627D01*
X016392Y002606D01*
X016433Y002595D01*
X016632Y002595D01*
X016632Y002913D01*
X016709Y002913D01*
X016709Y002990D01*
X017047Y002990D01*
X017047Y003170D01*
X017036Y003210D01*
X017015Y003247D01*
X016985Y003277D01*
X016948Y003298D01*
X016908Y003309D01*
X016709Y003309D01*
X016709Y002990D01*
X016632Y002990D01*
X016632Y003309D01*
X016433Y003309D01*
X016392Y003298D01*
X016355Y003277D01*
X016326Y003247D01*
X016312Y003223D01*
X016267Y003269D01*
X015735Y003269D01*
X015664Y003198D01*
X015664Y003132D01*
X015542Y003132D01*
X015542Y003198D01*
X015471Y003269D01*
X014939Y003269D01*
X014870Y003200D01*
X014802Y003269D01*
X014270Y003269D01*
X014199Y003198D01*
X014199Y003132D01*
X013986Y003132D01*
X013986Y003132D01*
X013889Y003228D01*
X013889Y003332D01*
X014088Y003332D01*
X014158Y003402D01*
X014158Y003587D01*
X014218Y003587D01*
X014218Y003523D01*
X014288Y003452D01*
X014821Y003452D01*
X014889Y003521D01*
X014958Y003452D01*
X015490Y003452D01*
X015560Y003523D01*
X015560Y003589D01*
X015655Y003589D01*
X015655Y003537D01*
X015725Y003467D01*
X016258Y003467D01*
X016326Y003535D01*
X016395Y003467D01*
X016927Y003467D01*
X016997Y003537D01*
X016997Y004030D01*
X016927Y004101D01*
X016923Y004101D01*
X016937Y004116D01*
X016983Y004225D01*
X016983Y004343D01*
X016937Y004452D01*
X016854Y004536D01*
X016745Y004581D01*
X016626Y004581D01*
X016517Y004536D01*
X016434Y004452D01*
X016388Y004343D01*
X016388Y004225D01*
X016434Y004116D01*
X016448Y004101D01*
X016395Y004101D01*
X016326Y004032D01*
X016258Y004101D01*
X015725Y004101D01*
X015655Y004030D01*
X015655Y003949D01*
X015560Y003949D01*
X015560Y004016D01*
X015490Y004086D01*
X014964Y004086D01*
X014964Y004524D01*
X014858Y004629D01*
X014855Y004632D01*
X014891Y004668D01*
X014960Y004600D01*
X015492Y004600D01*
X015562Y004670D01*
X015562Y005163D01*
X015492Y005234D01*
X015350Y005234D01*
X015350Y005351D01*
X015314Y005386D01*
X015377Y005449D01*
X015377Y005707D01*
X015664Y005707D01*
X015735Y005777D01*
X015735Y006389D01*
X015706Y006418D01*
X015735Y006447D01*
X015735Y007058D01*
X015664Y007128D01*
X015559Y007128D01*
X015559Y007556D01*
X015830Y007827D01*
X015898Y007895D01*
X018301Y010298D01*
X018599Y010174D01*
X018977Y010174D01*
X019326Y010319D01*
X019593Y010586D01*
X019738Y010935D01*
X019738Y011313D01*
X019593Y011662D01*
X019326Y011930D01*
X018977Y012074D01*
X018599Y012074D01*
X018250Y011930D01*
X017983Y011662D01*
X017838Y011313D01*
X017838Y010935D01*
X017962Y010637D01*
X015754Y008429D01*
X015723Y008460D01*
X015723Y008477D01*
X015678Y008586D01*
X015594Y008670D01*
X015485Y008715D01*
X015366Y008715D01*
X015257Y008670D01*
X015174Y008586D01*
X015128Y008477D01*
X015128Y008359D01*
X015174Y008249D01*
X015257Y008166D01*
X015366Y008121D01*
X015383Y008121D01*
X015414Y008090D01*
X015183Y007859D01*
X015116Y007791D01*
X015079Y007703D01*
X015079Y007128D01*
X014974Y007128D01*
X014904Y007058D01*
X014904Y006447D01*
X014933Y006418D01*
X014904Y006389D01*
X014904Y005777D01*
X014974Y005707D01*
X015017Y005707D01*
X015017Y005599D01*
X014985Y005566D01*
X014667Y005566D01*
X014708Y005608D01*
X014753Y005717D01*
X014753Y005835D01*
X014708Y005944D01*
X014636Y006016D01*
X014636Y006039D01*
X014704Y006039D01*
X014774Y006109D01*
X014774Y006642D01*
X014729Y006687D01*
X014753Y006700D01*
X014782Y006730D01*
X014804Y006766D01*
X014814Y006807D01*
X014814Y007006D01*
X014496Y007006D01*
X014496Y007083D01*
X014814Y007083D01*
X014814Y007282D01*
X014804Y007323D01*
X014782Y007359D01*
X014753Y007389D01*
X014716Y007410D01*
X014675Y007421D01*
X014496Y007421D01*
X014496Y007083D01*
X014419Y007083D01*
X014419Y007006D01*
X014101Y007006D01*
X014101Y006807D01*
X014112Y006766D01*
X014133Y006730D01*
X014162Y006700D01*
X014186Y006687D01*
X014141Y006642D01*
X014141Y006575D01*
X013987Y006575D01*
X013987Y006642D01*
X013942Y006687D01*
X013965Y006700D01*
X013995Y006730D01*
X014016Y006766D01*
X014027Y006807D01*
X014027Y007006D01*
X013709Y007006D01*
X013709Y007083D01*
X014027Y007083D01*
X014027Y007282D01*
X014016Y007323D01*
X013995Y007359D01*
X013965Y007389D01*
X013929Y007410D01*
X013888Y007421D01*
X013709Y007421D01*
X013709Y007083D01*
X013632Y007083D01*
X013632Y007421D01*
X013452Y007421D01*
X013412Y007410D01*
X013375Y007389D01*
X013345Y007359D01*
X013324Y007323D01*
X013313Y007282D01*
X013313Y007083D01*
X013632Y007083D01*
X013632Y007006D01*
X013313Y007006D01*
X013313Y006807D01*
X013324Y006766D01*
X013345Y006730D01*
X013375Y006700D01*
X013398Y006687D01*
X013353Y006642D01*
X013353Y006575D01*
X013200Y006575D01*
X013200Y006642D01*
X013155Y006687D01*
X013178Y006700D01*
X013208Y006730D01*
X013229Y006766D01*
X013240Y006807D01*
X013240Y007006D01*
X012921Y007006D01*
X012921Y007083D01*
X012844Y007083D01*
X012844Y007006D01*
X012526Y007006D01*
X012526Y006807D01*
X012537Y006766D01*
X012558Y006730D01*
X012588Y006700D01*
X012611Y006687D01*
X012566Y006642D01*
X012566Y006109D01*
X012613Y006062D01*
X012396Y006062D01*
X012396Y006334D01*
X012367Y006363D01*
X012396Y006392D01*
X012396Y007003D01*
X012326Y007073D01*
X012221Y007073D01*
X012221Y008034D01*
X012233Y008046D01*
X012278Y008155D01*
X012278Y008274D01*
X012233Y008383D01*
X012149Y008466D01*
X012040Y008512D01*
X012023Y008512D01*
X009897Y010637D01*
X010021Y010935D01*
X010021Y011313D01*
X009876Y011662D01*
X009609Y011930D01*
X009260Y012074D01*
X008882Y012074D01*
X008533Y011930D01*
X008266Y011662D01*
X008121Y011313D01*
X008160Y011408D02*
X001808Y011408D01*
X001808Y011526D02*
X008209Y011526D01*
X008258Y011645D02*
X001808Y011645D01*
X001808Y011763D02*
X008366Y011763D01*
X008485Y011882D02*
X003760Y011882D01*
X003750Y011881D02*
X003750Y011881D01*
X003747Y011882D02*
X001808Y011882D01*
X001808Y012000D02*
X003192Y012000D01*
X003202Y011995D02*
X003202Y011995D01*
X002963Y012119D02*
X001808Y012119D01*
X001808Y012237D02*
X002735Y012237D01*
X002706Y012252D02*
X002706Y012252D01*
X002595Y012356D02*
X001808Y012356D01*
X001808Y012474D02*
X002468Y012474D01*
X002341Y012593D02*
X001808Y012593D01*
X001808Y012711D02*
X002250Y012711D01*
X002178Y012830D02*
X001808Y012830D01*
X001808Y012948D02*
X002106Y012948D01*
X002034Y013067D02*
X001808Y013067D01*
X001808Y013185D02*
X001986Y013185D01*
X002007Y013111D02*
X002007Y013111D01*
X001953Y013304D02*
X001808Y013304D01*
X001808Y013422D02*
X001920Y013422D01*
X001886Y013541D02*
X001808Y013541D01*
X001808Y013659D02*
X001856Y013659D01*
X001856Y013778D02*
X001808Y013778D01*
X001808Y013896D02*
X001856Y013896D01*
X001856Y014015D02*
X001808Y014015D01*
X001808Y014133D02*
X001856Y014133D01*
X001868Y014252D02*
X001808Y014252D01*
X001808Y014370D02*
X001901Y014370D01*
X001934Y014489D02*
X001808Y014489D01*
X001808Y014607D02*
X001967Y014607D01*
X002000Y014726D02*
X001808Y014726D01*
X001808Y014844D02*
X002065Y014844D01*
X002007Y014748D02*
X002007Y014748D01*
X002137Y014963D02*
X001808Y014963D01*
X001808Y015081D02*
X002209Y015081D01*
X002281Y015200D02*
X001808Y015200D01*
X001808Y015318D02*
X002396Y015318D01*
X002523Y015437D02*
X001808Y015437D01*
X001808Y015555D02*
X002650Y015555D01*
X002706Y015607D02*
X002706Y015607D01*
X002834Y015674D02*
X001808Y015674D01*
X001808Y015792D02*
X003063Y015792D01*
X003424Y015911D02*
X001808Y015911D01*
X001808Y016029D02*
X004954Y016029D01*
X005072Y016148D02*
X001808Y016148D01*
X001808Y016266D02*
X005191Y016266D01*
X005309Y016385D02*
X001808Y016385D01*
X001808Y016503D02*
X005428Y016503D01*
X005546Y016622D02*
X001808Y016622D01*
X001808Y016740D02*
X005665Y016740D01*
X005783Y016859D02*
X001808Y016859D01*
X001808Y016977D02*
X005872Y016977D01*
X005868Y017096D02*
X005759Y017096D01*
X005754Y017096D02*
X001808Y017096D01*
X001808Y017214D02*
X005635Y017214D01*
X005547Y017333D02*
X001808Y017333D01*
X001808Y017451D02*
X005562Y017451D01*
X005672Y017570D02*
X001808Y017570D01*
X001808Y017688D02*
X005790Y017688D01*
X005755Y017653D02*
X006036Y017372D01*
X006261Y017597D01*
X006079Y017780D01*
X006042Y017801D01*
X006001Y017812D01*
X005959Y017812D01*
X005919Y017801D01*
X005882Y017780D01*
X005755Y017653D01*
X005730Y017570D02*
X005839Y017570D01*
X005848Y017451D02*
X005957Y017451D01*
X005967Y017333D02*
X005996Y017333D01*
X006076Y017333D02*
X006100Y017333D01*
X006115Y017451D02*
X006212Y017451D01*
X006233Y017570D02*
X006331Y017570D01*
X006352Y017688D02*
X006449Y017688D01*
X006470Y017807D02*
X006551Y017807D01*
X006541Y017925D02*
X006432Y017925D01*
X006422Y018044D02*
X006314Y018044D01*
X006304Y018162D02*
X001808Y018162D01*
X001808Y018044D02*
X006146Y018044D01*
X006071Y017925D02*
X001808Y017925D01*
X001808Y017807D02*
X005940Y017807D01*
X006021Y017807D02*
X006101Y017807D01*
X006170Y017688D02*
X006219Y017688D01*
X006589Y017925D02*
X006698Y017925D01*
X006707Y018044D02*
X006816Y018044D01*
X006873Y018044D02*
X008005Y018044D01*
X007800Y018162D02*
X006754Y018162D01*
X006636Y018281D02*
X007676Y018281D01*
X007557Y018399D02*
X001912Y018399D01*
X001808Y018281D02*
X006383Y018281D01*
X006991Y017925D02*
X008349Y017925D01*
X008880Y017925D02*
X009308Y017925D01*
X009224Y018044D02*
X009427Y018044D01*
X009430Y018162D02*
X009545Y018162D01*
X009553Y018281D02*
X009664Y018281D01*
X009672Y018399D02*
X009782Y018399D01*
X009748Y018518D02*
X009901Y018518D01*
X009816Y018636D02*
X010019Y018636D01*
X010021Y018755D02*
X009874Y018755D01*
X009906Y018873D02*
X010021Y018873D01*
X010021Y018992D02*
X009937Y018992D01*
X009955Y019110D02*
X010021Y019110D01*
X010021Y019229D02*
X009955Y019229D01*
X009955Y019347D02*
X010021Y019347D01*
X010021Y019466D02*
X009946Y019466D01*
X009914Y019584D02*
X010021Y019584D01*
X010021Y019703D02*
X009882Y019703D01*
X009835Y019821D02*
X010021Y019821D01*
X009952Y019940D02*
X009766Y019940D01*
X009698Y020058D02*
X009834Y020058D01*
X009715Y020177D02*
X009585Y020177D01*
X009480Y020295D02*
X009467Y020295D01*
X009291Y020414D02*
X009280Y020414D01*
X009190Y020532D02*
X008999Y020532D01*
X009141Y020651D02*
X008182Y020651D01*
X008230Y020532D02*
X004045Y020532D01*
X003926Y020414D02*
X007950Y020414D01*
X007762Y020295D02*
X003808Y020295D01*
X003689Y020177D02*
X007644Y020177D01*
X007531Y020058D02*
X003571Y020058D01*
X003452Y019940D02*
X007463Y019940D01*
X007394Y019821D02*
X003334Y019821D01*
X003215Y019703D02*
X007347Y019703D01*
X007315Y019584D02*
X003097Y019584D01*
X002978Y019466D02*
X007283Y019466D01*
X007274Y019347D02*
X002860Y019347D01*
X002741Y019229D02*
X007274Y019229D01*
X007274Y019110D02*
X002623Y019110D01*
X002504Y018992D02*
X007292Y018992D01*
X007323Y018873D02*
X002386Y018873D01*
X002267Y018755D02*
X007355Y018755D01*
X007413Y018636D02*
X002149Y018636D01*
X002030Y018518D02*
X007481Y018518D01*
X007107Y017807D02*
X009190Y017807D01*
X009071Y017688D02*
X007265Y017688D01*
X005987Y017214D02*
X005878Y017214D01*
X006990Y016029D02*
X010226Y016029D01*
X010302Y016148D02*
X007253Y016148D01*
X006872Y015911D02*
X010149Y015911D01*
X010134Y015886D02*
X009832Y015133D01*
X009678Y014335D01*
X009678Y013524D01*
X009832Y012726D01*
X010134Y011973D01*
X010134Y011973D01*
X010573Y011290D01*
X011133Y010702D01*
X011794Y010231D01*
X011794Y010231D01*
X012533Y009894D01*
X013322Y009703D01*
X014133Y009664D01*
X014936Y009779D01*
X015704Y010045D01*
X016407Y010451D01*
X017020Y010983D01*
X017522Y011621D01*
X017894Y012342D01*
X018123Y013121D01*
X018123Y013121D01*
X018200Y013930D01*
X018123Y014738D01*
X017894Y015517D01*
X017522Y016238D01*
X017522Y016238D01*
X017020Y016876D01*
X017020Y016876D01*
X016407Y017408D01*
X016407Y017408D01*
X015704Y017814D01*
X015704Y017814D01*
X014936Y018080D01*
X014133Y018195D01*
X014133Y018195D01*
X013322Y018156D01*
X013322Y018156D01*
X012533Y017965D01*
X012533Y017965D01*
X011794Y017628D01*
X011133Y017157D01*
X011133Y017157D01*
X010573Y016569D01*
X010134Y015886D01*
X010096Y015792D02*
X006753Y015792D01*
X006635Y015674D02*
X010049Y015674D01*
X010001Y015555D02*
X006516Y015555D01*
X006398Y015437D02*
X009954Y015437D01*
X009906Y015318D02*
X006279Y015318D01*
X006161Y015200D02*
X009859Y015200D01*
X009822Y015081D02*
X006042Y015081D01*
X005924Y014963D02*
X009799Y014963D01*
X009776Y014844D02*
X005805Y014844D01*
X005762Y014726D02*
X009754Y014726D01*
X009731Y014607D02*
X005814Y014607D01*
X005865Y014489D02*
X009708Y014489D01*
X009685Y014370D02*
X005883Y014370D01*
X005868Y014484D02*
X005868Y014484D01*
X005899Y014252D02*
X009678Y014252D01*
X009678Y014133D02*
X005916Y014133D01*
X005932Y014015D02*
X009678Y014015D01*
X009678Y013896D02*
X005939Y013896D01*
X005923Y013778D02*
X009678Y013778D01*
X009678Y013659D02*
X005906Y013659D01*
X005890Y013541D02*
X009678Y013541D01*
X009698Y013422D02*
X005874Y013422D01*
X005868Y013375D02*
X005868Y013375D01*
X005836Y013304D02*
X009721Y013304D01*
X009744Y013185D02*
X005785Y013185D01*
X005733Y013067D02*
X009767Y013067D01*
X009789Y012948D02*
X005682Y012948D01*
X005645Y012863D02*
X005645Y012863D01*
X005618Y012830D02*
X009812Y012830D01*
X009832Y012726D02*
X009832Y012726D01*
X009838Y012711D02*
X005521Y012711D01*
X005425Y012593D02*
X009886Y012593D01*
X009933Y012474D02*
X005329Y012474D01*
X005292Y012429D02*
X005292Y012429D01*
X005292Y012429D01*
X005188Y012356D02*
X009981Y012356D01*
X010028Y012237D02*
X005020Y012237D01*
X004852Y012119D02*
X010075Y012119D01*
X010123Y012000D02*
X009439Y012000D01*
X009657Y011882D02*
X010192Y011882D01*
X010269Y011763D02*
X009776Y011763D01*
X009884Y011645D02*
X010345Y011645D01*
X010421Y011526D02*
X009933Y011526D01*
X009982Y011408D02*
X010497Y011408D01*
X010573Y011290D02*
X010573Y011290D01*
X010573Y011289D02*
X010021Y011289D01*
X010021Y011171D02*
X010686Y011171D01*
X010799Y011052D02*
X010021Y011052D01*
X010020Y010934D02*
X010912Y010934D01*
X011025Y010815D02*
X009971Y010815D01*
X009922Y010697D02*
X011141Y010697D01*
X011133Y010702D02*
X011133Y010702D01*
X011307Y010578D02*
X009957Y010578D01*
X010075Y010460D02*
X011474Y010460D01*
X011640Y010341D02*
X010194Y010341D01*
X010312Y010223D02*
X011813Y010223D01*
X012073Y010104D02*
X010431Y010104D01*
X010549Y009986D02*
X012332Y009986D01*
X012533Y009894D02*
X012533Y009894D01*
X012644Y009867D02*
X010668Y009867D01*
X010786Y009749D02*
X013132Y009749D01*
X013322Y009703D02*
X013322Y009703D01*
X014133Y009664D02*
X014133Y009664D01*
X014721Y009749D02*
X017073Y009749D01*
X017191Y009867D02*
X015189Y009867D01*
X014936Y009779D02*
X014936Y009779D01*
X015532Y009986D02*
X017310Y009986D01*
X017428Y010104D02*
X015806Y010104D01*
X015704Y010045D02*
X015704Y010045D01*
X016011Y010223D02*
X017547Y010223D01*
X017665Y010341D02*
X016216Y010341D01*
X016407Y010451D02*
X016407Y010451D01*
X016417Y010460D02*
X017784Y010460D01*
X017902Y010578D02*
X016553Y010578D01*
X016690Y010697D02*
X017937Y010697D01*
X017888Y010815D02*
X016827Y010815D01*
X016964Y010934D02*
X017839Y010934D01*
X017838Y011052D02*
X017075Y011052D01*
X017020Y010983D02*
X017020Y010983D01*
X017020Y010983D01*
X017168Y011171D02*
X017838Y011171D01*
X017838Y011289D02*
X017261Y011289D01*
X017354Y011408D02*
X017877Y011408D01*
X017926Y011526D02*
X017448Y011526D01*
X017522Y011621D02*
X017522Y011621D01*
X017534Y011645D02*
X017975Y011645D01*
X018083Y011763D02*
X017595Y011763D01*
X017656Y011882D02*
X018202Y011882D01*
X018420Y012000D02*
X017718Y012000D01*
X017779Y012119D02*
X019855Y012119D01*
X019806Y012000D02*
X019157Y012000D01*
X019374Y011882D02*
X019798Y011882D01*
X019798Y011763D02*
X019493Y011763D01*
X019601Y011645D02*
X019839Y011645D01*
X019889Y011526D02*
X019650Y011526D01*
X019699Y011408D02*
X020007Y011408D01*
X020227Y011289D02*
X019738Y011289D01*
X019738Y011171D02*
X021957Y011171D01*
X021957Y011289D02*
X021498Y011289D01*
X021718Y011408D02*
X021957Y011408D01*
X021957Y011526D02*
X021836Y011526D01*
X021886Y011645D02*
X021957Y011645D01*
X021957Y011763D02*
X021927Y011763D01*
X021927Y011882D02*
X021957Y011882D01*
X021957Y012000D02*
X021919Y012000D01*
X021957Y012119D02*
X021870Y012119D01*
X021798Y012237D02*
X021957Y012237D01*
X021957Y012356D02*
X021680Y012356D01*
X021957Y012474D02*
X021284Y012474D01*
X021403Y012593D02*
X021957Y012593D01*
X021957Y012711D02*
X021521Y012711D01*
X021640Y012830D02*
X021957Y012830D01*
X021957Y012948D02*
X021758Y012948D01*
X021767Y013067D02*
X021957Y013067D01*
X021957Y013185D02*
X021767Y013185D01*
X021767Y013304D02*
X021957Y013304D01*
X021957Y013422D02*
X021767Y013422D01*
X021767Y013541D02*
X021957Y013541D01*
X021957Y013659D02*
X021767Y013659D01*
X021767Y013778D02*
X021957Y013778D01*
X021957Y013896D02*
X021767Y013896D01*
X021767Y014015D02*
X021957Y014015D01*
X021957Y014133D02*
X021767Y014133D01*
X021767Y014252D02*
X021957Y014252D01*
X021957Y014370D02*
X021767Y014370D01*
X021685Y014489D02*
X021957Y014489D01*
X021957Y014607D02*
X021566Y014607D01*
X021448Y014726D02*
X021957Y014726D01*
X021957Y014844D02*
X021329Y014844D01*
X021211Y014963D02*
X021957Y014963D01*
X021957Y015081D02*
X021092Y015081D01*
X021001Y014607D02*
X018135Y014607D01*
X018147Y014489D02*
X019636Y014489D01*
X019438Y014370D02*
X018158Y014370D01*
X018169Y014252D02*
X019327Y014252D01*
X019278Y014133D02*
X018181Y014133D01*
X018192Y014015D02*
X019243Y014015D01*
X019243Y013896D02*
X018197Y013896D01*
X018185Y013778D02*
X019257Y013778D01*
X019306Y013659D02*
X018174Y013659D01*
X018163Y013541D02*
X019386Y013541D01*
X019512Y013422D02*
X018151Y013422D01*
X018140Y013304D02*
X021367Y013304D01*
X021367Y013422D02*
X021103Y013422D01*
X021229Y013541D02*
X021367Y013541D01*
X021367Y013659D02*
X021309Y013659D01*
X021358Y013778D02*
X021367Y013778D01*
X021367Y014133D02*
X021337Y014133D01*
X021356Y014252D02*
X021288Y014252D01*
X021238Y014370D02*
X021177Y014370D01*
X021119Y014489D02*
X020978Y014489D01*
X020450Y015437D02*
X020330Y015437D01*
X020330Y015366D02*
X020330Y015936D01*
X019759Y015936D01*
X019773Y015848D01*
X019804Y015754D01*
X019849Y015665D01*
X019908Y015584D01*
X019978Y015514D01*
X020059Y015456D01*
X020147Y015410D01*
X020242Y015380D01*
X020330Y015366D01*
X020330Y015555D02*
X020450Y015555D01*
X020450Y015674D02*
X020330Y015674D01*
X020330Y015792D02*
X020450Y015792D01*
X020450Y015911D02*
X020330Y015911D01*
X020330Y016029D02*
X019199Y016029D01*
X019081Y016148D02*
X019774Y016148D01*
X019773Y016145D02*
X019759Y016056D01*
X020330Y016056D01*
X020330Y016627D01*
X020242Y016613D01*
X020147Y016583D01*
X020059Y016537D01*
X019978Y016479D01*
X019908Y016408D01*
X019849Y016328D01*
X019804Y016239D01*
X019773Y016145D01*
X019818Y016266D02*
X018962Y016266D01*
X018844Y016385D02*
X019890Y016385D01*
X020011Y016503D02*
X018725Y016503D01*
X018607Y016622D02*
X020294Y016622D01*
X020330Y016622D02*
X020450Y016622D01*
X020450Y016503D02*
X020330Y016503D01*
X020330Y016385D02*
X020450Y016385D01*
X020450Y016266D02*
X020330Y016266D01*
X020330Y016148D02*
X020450Y016148D01*
X019763Y015911D02*
X019318Y015911D01*
X019436Y015792D02*
X019792Y015792D01*
X019845Y015674D02*
X019555Y015674D01*
X019673Y015555D02*
X019937Y015555D01*
X019792Y015437D02*
X020096Y015437D01*
X019910Y015318D02*
X021957Y015318D01*
X021957Y015200D02*
X020029Y015200D01*
X019700Y014963D02*
X018057Y014963D01*
X018022Y015081D02*
X019582Y015081D01*
X019463Y015200D02*
X017987Y015200D01*
X017952Y015318D02*
X019345Y015318D01*
X019226Y015437D02*
X017918Y015437D01*
X017894Y015517D02*
X017894Y015517D01*
X017874Y015555D02*
X019108Y015555D01*
X018989Y015674D02*
X017813Y015674D01*
X017752Y015792D02*
X018871Y015792D01*
X018752Y015911D02*
X017691Y015911D01*
X017630Y016029D02*
X018634Y016029D01*
X018515Y016148D02*
X017569Y016148D01*
X017500Y016266D02*
X018397Y016266D01*
X018278Y016385D02*
X017407Y016385D01*
X017314Y016503D02*
X018160Y016503D01*
X018041Y016622D02*
X017221Y016622D01*
X017127Y016740D02*
X017923Y016740D01*
X017804Y016859D02*
X017034Y016859D01*
X017020Y016876D02*
X017020Y016876D01*
X016904Y016977D02*
X017686Y016977D01*
X017567Y017096D02*
X016767Y017096D01*
X016631Y017214D02*
X017449Y017214D01*
X017330Y017333D02*
X016494Y017333D01*
X016332Y017451D02*
X017212Y017451D01*
X017093Y017570D02*
X016127Y017570D01*
X015922Y017688D02*
X016975Y017688D01*
X016856Y017807D02*
X015717Y017807D01*
X015383Y017925D02*
X016738Y017925D01*
X016619Y018044D02*
X015040Y018044D01*
X014936Y018080D02*
X014936Y018080D01*
X014363Y018162D02*
X016501Y018162D01*
X016382Y018281D02*
X011461Y018281D01*
X011461Y018399D02*
X016264Y018399D01*
X016145Y018518D02*
X011461Y018518D01*
X011461Y018636D02*
X016027Y018636D01*
X015908Y018755D02*
X011461Y018755D01*
X011461Y018873D02*
X015790Y018873D01*
X015671Y018992D02*
X011461Y018992D01*
X011461Y019110D02*
X015553Y019110D01*
X015434Y019229D02*
X011461Y019229D01*
X011461Y019347D02*
X015316Y019347D01*
X015644Y019584D02*
X017075Y019584D01*
X017075Y019466D02*
X015763Y019466D01*
X015881Y019347D02*
X017075Y019347D01*
X017075Y019229D02*
X016000Y019229D01*
X016118Y019110D02*
X017075Y019110D01*
X017075Y018992D02*
X016237Y018992D01*
X016355Y018873D02*
X017075Y018873D01*
X017075Y018755D02*
X016474Y018755D01*
X016592Y018636D02*
X017075Y018636D01*
X017075Y018518D02*
X016711Y018518D01*
X016829Y018399D02*
X017092Y018399D01*
X017175Y018281D02*
X016948Y018281D01*
X017066Y018162D02*
X017293Y018162D01*
X017185Y018044D02*
X017412Y018044D01*
X017303Y017925D02*
X017530Y017925D01*
X017422Y017807D02*
X017649Y017807D01*
X017540Y017688D02*
X017767Y017688D01*
X017659Y017570D02*
X017886Y017570D01*
X017777Y017451D02*
X018004Y017451D01*
X017896Y017333D02*
X018123Y017333D01*
X018014Y017214D02*
X018241Y017214D01*
X018133Y017096D02*
X018360Y017096D01*
X018251Y016977D02*
X021647Y016977D01*
X021766Y016859D02*
X018370Y016859D01*
X018488Y016740D02*
X021884Y016740D01*
X021957Y016622D02*
X021431Y016622D01*
X021714Y016503D02*
X021957Y016503D01*
X021957Y016385D02*
X021835Y016385D01*
X021907Y016266D02*
X021957Y016266D01*
X021951Y016148D02*
X021957Y016148D01*
X021934Y015792D02*
X021957Y015792D01*
X021957Y015674D02*
X021880Y015674D01*
X021957Y015555D02*
X021788Y015555D01*
X021629Y015437D02*
X021957Y015437D01*
X022517Y015437D02*
X026652Y015437D01*
X026652Y015555D02*
X022517Y015555D01*
X022517Y015674D02*
X026652Y015674D01*
X026652Y015792D02*
X022517Y015792D01*
X022517Y015911D02*
X026652Y015911D01*
X026652Y016029D02*
X022517Y016029D01*
X022517Y016148D02*
X026652Y016148D01*
X026652Y016266D02*
X022517Y016266D01*
X022517Y016385D02*
X026652Y016385D01*
X026652Y016503D02*
X023439Y016503D01*
X023496Y016622D02*
X026652Y016622D01*
X026652Y016740D02*
X023498Y016740D01*
X023448Y016859D02*
X026652Y016859D01*
X026652Y016977D02*
X023274Y016977D01*
X023129Y016977D02*
X022439Y016977D01*
X022321Y017096D02*
X026652Y017096D01*
X026652Y017214D02*
X024946Y017214D01*
X025221Y017333D02*
X026652Y017333D01*
X026652Y017451D02*
X025340Y017451D01*
X025458Y017570D02*
X026652Y017570D01*
X026652Y017688D02*
X025508Y017688D01*
X025557Y017807D02*
X026652Y017807D01*
X026652Y017925D02*
X025591Y017925D01*
X025591Y018044D02*
X026652Y018044D01*
X026652Y018162D02*
X025591Y018162D01*
X025573Y018281D02*
X026652Y018281D01*
X026652Y018399D02*
X025524Y018399D01*
X025475Y018518D02*
X026630Y018518D01*
X026584Y018636D02*
X025379Y018636D01*
X025261Y018755D02*
X026539Y018755D01*
X026493Y018873D02*
X025042Y018873D01*
X023810Y018992D02*
X026448Y018992D01*
X026402Y019110D02*
X023810Y019110D01*
X023810Y019229D02*
X026357Y019229D01*
X026311Y019347D02*
X023810Y019347D01*
X023810Y019466D02*
X026261Y019466D01*
X026201Y019584D02*
X023810Y019584D01*
X023810Y019703D02*
X026141Y019703D01*
X026080Y019821D02*
X023810Y019821D01*
X023810Y019940D02*
X026020Y019940D01*
X025959Y020058D02*
X023810Y020058D01*
X023810Y020177D02*
X025899Y020177D01*
X025839Y020295D02*
X023810Y020295D01*
X023810Y020414D02*
X025778Y020414D01*
X025718Y020532D02*
X023810Y020532D01*
X023250Y020532D02*
X019629Y020532D01*
X019677Y020651D02*
X017635Y020651D01*
X017635Y020532D02*
X018860Y020532D01*
X018720Y020494D02*
X018417Y020320D01*
X018169Y020072D01*
X017995Y019769D01*
X017904Y019432D01*
X017904Y019057D01*
X017995Y018720D01*
X018169Y018417D01*
X018417Y018169D01*
X018720Y017995D01*
X019057Y017904D01*
X019432Y017904D01*
X019769Y017995D01*
X020072Y018169D01*
X020320Y018417D01*
X020494Y018720D01*
X020585Y019057D01*
X020585Y019432D01*
X020494Y019769D01*
X020320Y020072D01*
X020072Y020320D01*
X019769Y020494D01*
X019432Y020585D01*
X019057Y020585D01*
X018720Y020494D01*
X018579Y020414D02*
X017635Y020414D01*
X017635Y020295D02*
X018392Y020295D01*
X018274Y020177D02*
X017635Y020177D01*
X017635Y020058D02*
X018161Y020058D01*
X018093Y019940D02*
X017635Y019940D01*
X017635Y019821D02*
X018024Y019821D01*
X017977Y019703D02*
X017635Y019703D01*
X017635Y019584D02*
X017945Y019584D01*
X017913Y019466D02*
X017635Y019466D01*
X017635Y019347D02*
X017904Y019347D01*
X017904Y019229D02*
X017635Y019229D01*
X017635Y019110D02*
X017904Y019110D01*
X017922Y018992D02*
X017635Y018992D01*
X017635Y018873D02*
X017953Y018873D01*
X017985Y018755D02*
X017635Y018755D01*
X017635Y018636D02*
X018043Y018636D01*
X018111Y018518D02*
X017730Y018518D01*
X017848Y018399D02*
X018187Y018399D01*
X018306Y018281D02*
X017967Y018281D01*
X018085Y018162D02*
X018429Y018162D01*
X018635Y018044D02*
X018204Y018044D01*
X018322Y017925D02*
X018979Y017925D01*
X018559Y017688D02*
X022430Y017688D01*
X022381Y017807D02*
X018441Y017807D01*
X019510Y017925D02*
X022347Y017925D01*
X022347Y018044D02*
X019854Y018044D01*
X020060Y018162D02*
X022347Y018162D01*
X022365Y018281D02*
X020183Y018281D01*
X020302Y018399D02*
X022414Y018399D01*
X022463Y018518D02*
X020378Y018518D01*
X020446Y018636D02*
X022558Y018636D01*
X022677Y018755D02*
X020504Y018755D01*
X020536Y018873D02*
X022896Y018873D01*
X023250Y018992D02*
X020567Y018992D01*
X020585Y019110D02*
X023250Y019110D01*
X023250Y019229D02*
X020585Y019229D01*
X020585Y019347D02*
X023250Y019347D01*
X023250Y019466D02*
X020576Y019466D01*
X020544Y019584D02*
X023250Y019584D01*
X023250Y019703D02*
X020512Y019703D01*
X020465Y019821D02*
X023250Y019821D01*
X023250Y019940D02*
X020396Y019940D01*
X020328Y020058D02*
X023250Y020058D01*
X023250Y020177D02*
X020215Y020177D01*
X020097Y020295D02*
X023250Y020295D01*
X023250Y020414D02*
X019910Y020414D01*
X019536Y020769D02*
X018695Y020769D01*
X018695Y020888D02*
X019441Y020888D01*
X019392Y021006D02*
X018695Y021006D01*
X018695Y021125D02*
X019360Y021125D01*
X019360Y021243D02*
X018695Y021243D01*
X018529Y021362D02*
X019368Y021362D01*
X019400Y021480D02*
X019417Y021480D01*
X019049Y021480D02*
X018529Y021480D01*
X018529Y021599D02*
X018955Y021599D01*
X018928Y021717D02*
X018529Y021717D01*
X018743Y021836D02*
X018949Y021836D01*
X019034Y021954D02*
X018779Y021954D01*
X018987Y022428D02*
X019392Y022428D01*
X019496Y022547D02*
X019246Y022547D01*
X019304Y022665D02*
X019496Y022665D01*
X019496Y022784D02*
X019305Y022784D01*
X019255Y022902D02*
X019496Y022902D01*
X019496Y023021D02*
X019080Y023021D01*
X018936Y023021D02*
X017944Y023021D01*
X017987Y023139D02*
X019496Y023139D01*
X019496Y023258D02*
X017980Y023258D01*
X017915Y023376D02*
X019496Y023376D01*
X019496Y023495D02*
X017859Y023495D01*
X017859Y023613D02*
X019496Y023613D01*
X019496Y023732D02*
X017859Y023732D01*
X017859Y023850D02*
X019485Y023850D01*
X019367Y023969D02*
X017859Y023969D01*
X017859Y024087D02*
X019248Y024087D01*
X019251Y024206D02*
X017859Y024206D01*
X018328Y024324D02*
X019370Y024324D01*
X019488Y024443D02*
X018353Y024443D01*
X018353Y024561D02*
X019607Y024561D01*
X019626Y024680D02*
X018353Y024680D01*
X018353Y024798D02*
X019626Y024798D01*
X019589Y024917D02*
X018353Y024917D01*
X018353Y025035D02*
X019513Y025035D01*
X019499Y025154D02*
X018353Y025154D01*
X018178Y025391D02*
X019647Y025391D01*
X019533Y025272D02*
X016607Y025272D01*
X016555Y025154D02*
X016521Y025154D01*
X017170Y025154D02*
X017373Y025154D01*
X017373Y025035D02*
X017289Y025035D01*
X017353Y024917D02*
X017373Y024917D01*
X017373Y024798D02*
X017353Y024798D01*
X017353Y024680D02*
X017373Y024680D01*
X017373Y024561D02*
X017349Y024561D01*
X017660Y025278D02*
X018066Y025278D01*
X018353Y025565D01*
X018353Y025971D01*
X018066Y026258D01*
X017660Y026258D01*
X017373Y025971D01*
X017373Y025565D01*
X017660Y025278D01*
X017547Y025391D02*
X017178Y025391D01*
X017297Y025509D02*
X017429Y025509D01*
X017373Y025628D02*
X017353Y025628D01*
X017353Y025746D02*
X017373Y025746D01*
X017373Y025865D02*
X017353Y025865D01*
X017341Y025983D02*
X017385Y025983D01*
X017503Y026102D02*
X017222Y026102D01*
X017104Y026220D02*
X017622Y026220D01*
X018104Y026220D02*
X019547Y026220D01*
X019779Y026102D02*
X018222Y026102D01*
X018341Y025983D02*
X020012Y025983D01*
X020244Y025865D02*
X018353Y025865D01*
X018353Y025746D02*
X020477Y025746D01*
X020673Y025628D02*
X018353Y025628D01*
X018297Y025509D02*
X020555Y025509D01*
X020493Y025391D02*
X019944Y025391D01*
X020059Y025272D02*
X020532Y025272D01*
X020403Y025154D02*
X020093Y025154D01*
X020078Y025035D02*
X020274Y025035D01*
X020145Y024917D02*
X020002Y024917D01*
X020016Y024798D02*
X019966Y024798D01*
X020261Y024561D02*
X021499Y024561D01*
X021459Y024521D02*
X021438Y024485D01*
X021427Y024444D01*
X021427Y024402D01*
X021438Y024361D01*
X021459Y024325D01*
X021593Y024191D01*
X021825Y024423D01*
X021593Y024655D01*
X021459Y024521D01*
X021427Y024443D02*
X020132Y024443D01*
X020003Y024324D02*
X021460Y024324D01*
X021578Y024206D02*
X020081Y024206D01*
X020085Y024087D02*
X021697Y024087D01*
X021744Y024206D02*
X021608Y024206D01*
X021726Y024324D02*
X021863Y024324D01*
X021924Y024324D02*
X022061Y024324D01*
X022043Y024206D02*
X022179Y024206D01*
X022208Y024206D02*
X022693Y024206D01*
X022547Y024324D02*
X022327Y024324D01*
X022360Y024443D02*
X022400Y024443D01*
X022090Y024087D02*
X022839Y024087D01*
X022984Y023969D02*
X021957Y023969D01*
X021830Y023969D02*
X019966Y023969D01*
X019848Y023850D02*
X023102Y023850D01*
X023221Y023732D02*
X019836Y023732D01*
X019836Y023613D02*
X020557Y023613D01*
X020724Y023613D02*
X023339Y023613D01*
X023458Y023495D02*
X020849Y023495D01*
X020915Y023376D02*
X020778Y023376D01*
X020796Y023258D02*
X020660Y023258D01*
X020622Y023258D02*
X020485Y023258D01*
X020503Y023376D02*
X020367Y023376D01*
X020340Y023402D02*
X020572Y023170D01*
X020340Y022938D01*
X020206Y023072D01*
X020185Y023109D01*
X020174Y023149D01*
X020174Y023191D01*
X020185Y023232D01*
X020206Y023269D01*
X020340Y023402D01*
X020314Y023376D02*
X019836Y023376D01*
X019836Y023258D02*
X020200Y023258D01*
X020177Y023139D02*
X019836Y023139D01*
X019836Y023021D02*
X020258Y023021D01*
X020423Y023021D02*
X020559Y023021D01*
X020541Y023139D02*
X020604Y023139D01*
X020678Y023139D02*
X020740Y023139D01*
X020722Y023021D02*
X020859Y023021D01*
X020841Y022902D02*
X024036Y022902D01*
X024132Y022784D02*
X023625Y022784D01*
X023634Y022778D02*
X023598Y022799D01*
X023557Y022810D01*
X023358Y022810D01*
X023358Y022472D01*
X023696Y022472D01*
X023696Y022671D01*
X023685Y022712D01*
X023664Y022748D01*
X023634Y022778D01*
X023696Y022665D02*
X024228Y022665D01*
X024324Y022547D02*
X023696Y022547D01*
X023696Y022356D02*
X023696Y022156D01*
X023685Y022116D01*
X023664Y022079D01*
X023634Y022050D01*
X023598Y022028D01*
X023557Y022018D01*
X023358Y022018D01*
X023358Y022356D01*
X023358Y022472D01*
X023241Y022472D01*
X023241Y022356D01*
X022903Y022356D01*
X022903Y022156D01*
X022914Y022116D01*
X022935Y022079D01*
X022965Y022050D01*
X023002Y022028D01*
X023042Y022018D01*
X023241Y022018D01*
X023241Y022356D01*
X023358Y022356D01*
X023696Y022356D01*
X023696Y022310D02*
X024516Y022310D01*
X024420Y022428D02*
X023358Y022428D01*
X023241Y022428D02*
X022829Y022428D01*
X022903Y022472D02*
X022903Y022671D01*
X022914Y022712D01*
X022935Y022748D01*
X022965Y022778D01*
X023002Y022799D01*
X023042Y022810D01*
X023241Y022810D01*
X023241Y022472D01*
X022903Y022472D01*
X022903Y022547D02*
X022829Y022547D01*
X022829Y022665D02*
X022903Y022665D01*
X022975Y022784D02*
X020786Y022784D01*
X020856Y022665D02*
X020861Y022665D01*
X020495Y022784D02*
X019836Y022784D01*
X019836Y022902D02*
X020441Y022902D01*
X020192Y022665D02*
X019836Y022665D01*
X019836Y022547D02*
X019964Y022547D01*
X019845Y022428D02*
X019836Y022428D01*
X020089Y022191D02*
X020187Y022191D01*
X019970Y022073D02*
X022172Y022073D01*
X022117Y022191D02*
X021530Y022191D01*
X021237Y021836D02*
X022822Y021836D01*
X022774Y022073D02*
X022942Y022073D01*
X022903Y022191D02*
X022829Y022191D01*
X022829Y022310D02*
X022903Y022310D01*
X023241Y022310D02*
X023358Y022310D01*
X023358Y022191D02*
X023241Y022191D01*
X023241Y022073D02*
X023358Y022073D01*
X023657Y022073D02*
X024708Y022073D01*
X024612Y022191D02*
X023696Y022191D01*
X023358Y022547D02*
X023241Y022547D01*
X023241Y022665D02*
X023358Y022665D01*
X023358Y022784D02*
X023241Y022784D01*
X023695Y023258D02*
X021081Y023258D01*
X021104Y023139D02*
X023813Y023139D01*
X023932Y023021D02*
X021023Y023021D01*
X020967Y023376D02*
X023576Y023376D01*
X022117Y022665D02*
X021525Y022665D01*
X021463Y021717D02*
X022596Y021717D01*
X022478Y021599D02*
X021581Y021599D01*
X021618Y020888D02*
X022441Y020888D01*
X022536Y020769D02*
X021523Y020769D01*
X021382Y020651D02*
X022677Y020651D01*
X024237Y021836D02*
X024893Y021836D01*
X024970Y021717D02*
X024463Y021717D01*
X024581Y021599D02*
X025047Y021599D01*
X025124Y021480D02*
X024642Y021480D01*
X024691Y021362D02*
X025201Y021362D01*
X025278Y021243D02*
X024700Y021243D01*
X024700Y021125D02*
X025355Y021125D01*
X025432Y021006D02*
X024667Y021006D01*
X024618Y020888D02*
X025509Y020888D01*
X025586Y020769D02*
X024523Y020769D01*
X024382Y020651D02*
X025658Y020651D01*
X024804Y021954D02*
X019852Y021954D01*
X019822Y021836D02*
X019733Y021836D01*
X018462Y022784D02*
X018462Y022784D01*
X018462Y022902D02*
X018462Y022902D01*
X018153Y022902D02*
X017791Y022902D01*
X017587Y022902D02*
X017466Y022902D01*
X017466Y022784D02*
X018105Y022784D01*
X018106Y022665D02*
X017466Y022665D01*
X017466Y022547D02*
X018145Y022547D01*
X018145Y022428D02*
X017466Y022428D01*
X017466Y022310D02*
X018145Y022310D01*
X018145Y022191D02*
X017466Y022191D01*
X017431Y022073D02*
X018148Y022073D01*
X018145Y021954D02*
X017313Y021954D01*
X017625Y021717D02*
X018189Y021717D01*
X018182Y021836D02*
X016528Y021836D01*
X016564Y021954D02*
X016629Y021954D01*
X015859Y021311D02*
X015841Y021211D01*
X015581Y021006D02*
X015249Y021006D01*
X015108Y020888D02*
X015504Y020888D01*
X015502Y020769D02*
X015191Y020769D01*
X015211Y020651D02*
X015820Y020651D01*
X015897Y020651D02*
X016647Y020651D01*
X016647Y020623D02*
X016329Y020623D01*
X016329Y020424D01*
X016339Y020384D01*
X016361Y020347D01*
X016390Y020317D01*
X016427Y020296D01*
X016468Y020285D01*
X016647Y020285D01*
X016647Y020623D01*
X016724Y020623D01*
X016724Y020285D01*
X016903Y020285D01*
X016944Y020296D01*
X016981Y020317D01*
X017010Y020347D01*
X017031Y020384D01*
X017042Y020424D01*
X017042Y020623D01*
X016724Y020623D01*
X016724Y020700D01*
X017042Y020700D01*
X017042Y020849D01*
X017075Y020816D01*
X017075Y020769D02*
X017042Y020769D01*
X017075Y020651D02*
X016724Y020651D01*
X016647Y020623D02*
X016647Y020700D01*
X016329Y020700D01*
X016329Y020899D01*
X016339Y020940D01*
X016361Y020977D01*
X016390Y021006D01*
X016329Y020888D02*
X016213Y020888D01*
X016216Y020769D02*
X016329Y020769D01*
X016216Y020604D02*
X015897Y020604D01*
X015897Y020266D01*
X016077Y020266D01*
X016117Y020276D01*
X016154Y020298D01*
X016184Y020327D01*
X016205Y020364D01*
X016216Y020405D01*
X016216Y020604D01*
X016216Y020532D02*
X016329Y020532D01*
X016331Y020414D02*
X016216Y020414D01*
X016149Y020295D02*
X016431Y020295D01*
X016647Y020295D02*
X016724Y020295D01*
X016724Y020414D02*
X016647Y020414D01*
X016647Y020532D02*
X016724Y020532D01*
X017042Y020532D02*
X017075Y020532D01*
X017075Y020414D02*
X017039Y020414D01*
X017075Y020295D02*
X016940Y020295D01*
X017075Y020177D02*
X014560Y020177D01*
X014441Y020295D02*
X015568Y020295D01*
X015502Y020414D02*
X015086Y020414D01*
X015182Y020532D02*
X015502Y020532D01*
X015820Y020532D02*
X015897Y020532D01*
X015897Y020414D02*
X015820Y020414D01*
X015820Y020295D02*
X015897Y020295D01*
X015526Y019703D02*
X017075Y019703D01*
X017075Y019821D02*
X014915Y019821D01*
X014797Y019940D02*
X017075Y019940D01*
X017075Y020058D02*
X014678Y020058D01*
X014468Y019703D02*
X011461Y019703D01*
X011461Y019821D02*
X014350Y019821D01*
X014231Y019940D02*
X011461Y019940D01*
X011461Y020058D02*
X014113Y020058D01*
X013994Y020177D02*
X012409Y020177D01*
X012475Y020295D02*
X012498Y020295D01*
X012137Y020295D02*
X012060Y020295D01*
X012060Y020177D02*
X012137Y020177D01*
X012137Y020414D02*
X012060Y020414D01*
X011789Y020177D02*
X011461Y020177D01*
X011430Y020504D02*
X011430Y021056D01*
X011093Y021006D02*
X010922Y021006D01*
X010804Y021125D02*
X011093Y021125D01*
X011093Y021243D02*
X010767Y021243D01*
X010791Y021267D02*
X010962Y021438D01*
X011049Y021648D01*
X011260Y021438D01*
X011260Y021372D01*
X011163Y021372D01*
X011093Y021302D01*
X011093Y020835D01*
X010726Y021202D01*
X010791Y021267D01*
X010886Y021362D02*
X011152Y021362D01*
X011217Y021480D02*
X010980Y021480D01*
X011029Y021599D02*
X011099Y021599D01*
X011093Y020888D02*
X011041Y020888D01*
X011461Y019584D02*
X014587Y019584D01*
X014705Y019466D02*
X011461Y019466D01*
X011447Y018162D02*
X013438Y018162D01*
X012856Y018044D02*
X011397Y018044D01*
X011345Y017925D02*
X012445Y017925D01*
X012186Y017807D02*
X011226Y017807D01*
X011108Y017688D02*
X011926Y017688D01*
X011794Y017628D02*
X011794Y017628D01*
X011712Y017570D02*
X010989Y017570D01*
X010871Y017451D02*
X011546Y017451D01*
X011380Y017333D02*
X010752Y017333D01*
X010634Y017214D02*
X011213Y017214D01*
X011074Y017096D02*
X010515Y017096D01*
X010397Y016977D02*
X010961Y016977D01*
X010848Y016859D02*
X010278Y016859D01*
X010160Y016740D02*
X010736Y016740D01*
X010623Y016622D02*
X010041Y016622D01*
X009923Y016503D02*
X010530Y016503D01*
X010454Y016385D02*
X009804Y016385D01*
X009566Y016266D02*
X010378Y016266D01*
X012920Y020295D02*
X012943Y020295D01*
X012943Y020690D02*
X012877Y020756D01*
X012768Y020801D01*
X012650Y020801D01*
X012541Y020756D01*
X012475Y020691D01*
X012475Y020722D01*
X012464Y020763D01*
X012443Y020799D01*
X012435Y020808D01*
X012435Y020809D01*
X012435Y020886D01*
X013820Y020886D01*
X013884Y020821D01*
X013683Y020821D01*
X013615Y020753D01*
X013546Y020821D01*
X013014Y020821D01*
X012943Y020751D01*
X012943Y020690D01*
X012962Y020769D02*
X012847Y020769D01*
X012572Y020769D02*
X012461Y020769D01*
X012917Y021422D02*
X012868Y021471D01*
X012868Y021752D01*
X013180Y021752D01*
X013180Y021422D01*
X012917Y021422D01*
X012868Y021480D02*
X013180Y021480D01*
X013180Y021599D02*
X012868Y021599D01*
X012868Y021717D02*
X013180Y021717D01*
X012954Y022289D02*
X011992Y022289D01*
X011801Y022480D01*
X012776Y022480D01*
X012858Y022563D01*
X012858Y022563D01*
X012958Y022662D01*
X012958Y023547D01*
X012863Y023642D01*
X012886Y023632D01*
X013004Y023632D01*
X013114Y023678D01*
X013166Y023730D01*
X013495Y023730D01*
X013495Y023683D01*
X013565Y023613D01*
X013845Y023613D01*
X014044Y023414D01*
X014044Y023301D01*
X013919Y023301D01*
X013851Y023233D01*
X013782Y023301D01*
X013250Y023301D01*
X013180Y023231D01*
X013180Y022633D01*
X013130Y022583D01*
X012972Y022425D01*
X012972Y022307D01*
X012954Y022289D01*
X012972Y022310D02*
X011971Y022310D01*
X011853Y022428D02*
X012975Y022428D01*
X013094Y022547D02*
X012842Y022547D01*
X012958Y022665D02*
X013180Y022665D01*
X013180Y022784D02*
X012958Y022784D01*
X012958Y022902D02*
X013180Y022902D01*
X013180Y023021D02*
X012958Y023021D01*
X012958Y023139D02*
X013180Y023139D01*
X013206Y023258D02*
X012958Y023258D01*
X012958Y023376D02*
X014044Y023376D01*
X013964Y023495D02*
X012958Y023495D01*
X012892Y023613D02*
X013564Y023613D01*
X013826Y023258D02*
X013875Y023258D01*
X014444Y023301D02*
X014444Y023579D01*
X014327Y023696D01*
X014128Y023896D01*
X014128Y024215D01*
X014060Y024284D01*
X014128Y024352D01*
X014128Y024379D01*
X014244Y024379D01*
X014792Y023830D01*
X014792Y023480D01*
X014780Y023468D01*
X014735Y023359D01*
X014735Y023282D01*
X014618Y023282D01*
X014514Y023239D01*
X014452Y023301D01*
X014444Y023301D01*
X014496Y023258D02*
X014560Y023258D01*
X014444Y023376D02*
X014742Y023376D01*
X014792Y023495D02*
X014444Y023495D01*
X014411Y023613D02*
X014792Y023613D01*
X014792Y023732D02*
X014292Y023732D01*
X014327Y023696D02*
X014327Y023696D01*
X014174Y023850D02*
X014772Y023850D01*
X014653Y023969D02*
X014128Y023969D01*
X014128Y024087D02*
X014535Y024087D01*
X014416Y024206D02*
X014128Y024206D01*
X014100Y024324D02*
X014298Y024324D01*
X014621Y024680D02*
X015373Y024680D01*
X015373Y024798D02*
X014503Y024798D01*
X014740Y024561D02*
X015377Y024561D01*
X015495Y024443D02*
X014858Y024443D01*
X014977Y024324D02*
X015614Y024324D01*
X015693Y024206D02*
X015095Y024206D01*
X015214Y024087D02*
X015693Y024087D01*
X015693Y023969D02*
X015272Y023969D01*
X015272Y023850D02*
X015693Y023850D01*
X015693Y023732D02*
X015272Y023732D01*
X015272Y023613D02*
X015693Y023613D01*
X015633Y023495D02*
X015272Y023495D01*
X015322Y023376D02*
X015571Y023376D01*
X015565Y023258D02*
X015329Y023258D01*
X015287Y023139D02*
X015609Y023139D01*
X015769Y023021D02*
X015135Y023021D01*
X015299Y022902D02*
X014965Y022902D01*
X014897Y022784D02*
X015181Y022784D01*
X015956Y023021D02*
X016077Y023021D01*
X015373Y024917D02*
X014096Y024917D01*
X013635Y025035D02*
X015437Y025035D01*
X015555Y025154D02*
X013517Y025154D01*
X013303Y025272D02*
X015609Y025272D01*
X015491Y025391D02*
X012296Y025391D01*
X012317Y025272D02*
X012824Y025272D01*
X012768Y025154D02*
X012317Y025154D01*
X012317Y025035D02*
X012766Y025035D01*
X012818Y024917D02*
X012317Y024917D01*
X012317Y024798D02*
X012994Y024798D01*
X013133Y024798D02*
X013391Y024798D01*
X013495Y024680D02*
X012317Y024680D01*
X012317Y024561D02*
X013495Y024561D01*
X013495Y024443D02*
X012239Y024443D01*
X012239Y024324D02*
X013523Y024324D01*
X013495Y024206D02*
X013055Y024206D01*
X012835Y024206D02*
X012299Y024206D01*
X012418Y024087D02*
X012689Y024087D01*
X012648Y023969D02*
X012536Y023969D01*
X012655Y023850D02*
X012657Y023850D01*
X012411Y023613D02*
X012242Y023613D01*
X012242Y023495D02*
X012530Y023495D01*
X012618Y023406D02*
X012618Y023353D01*
X012429Y023353D01*
X012429Y023035D01*
X012352Y023035D01*
X012352Y023353D01*
X012228Y023353D01*
X012242Y023368D01*
X012242Y023782D01*
X012618Y023406D01*
X012618Y023376D02*
X012242Y023376D01*
X012352Y023258D02*
X012429Y023258D01*
X012429Y023139D02*
X012352Y023139D01*
X012293Y023732D02*
X012242Y023732D01*
X011565Y024798D02*
X011530Y024798D01*
X011565Y024917D02*
X011411Y024917D01*
X012282Y025746D02*
X015823Y025746D01*
X015823Y025865D02*
X015903Y025865D01*
X015903Y025983D02*
X015823Y025983D01*
X015823Y026102D02*
X015903Y026102D01*
X015903Y026220D02*
X015823Y026220D01*
X015565Y026220D02*
X012317Y026220D01*
X012317Y026102D02*
X015447Y026102D01*
X015333Y025983D02*
X012317Y025983D01*
X012317Y025865D02*
X015333Y025865D01*
X015333Y025628D02*
X009439Y025628D01*
X009375Y025509D02*
X015372Y025509D01*
X016160Y026220D02*
X016622Y026220D01*
X016503Y026102D02*
X016279Y026102D01*
X018659Y026576D02*
X012317Y026576D01*
X012317Y026457D02*
X018968Y026457D01*
X019276Y026339D02*
X012317Y026339D01*
X009422Y025391D02*
X009375Y025391D01*
X009375Y025272D02*
X009400Y025272D01*
X009400Y025154D02*
X009375Y025154D01*
X009375Y025035D02*
X009400Y025035D01*
X009400Y024917D02*
X009375Y024917D01*
X009375Y024798D02*
X009400Y024798D01*
X009400Y024680D02*
X009375Y024680D01*
X009265Y022665D02*
X009145Y022665D01*
X009145Y022547D02*
X009265Y022547D01*
X008350Y021836D02*
X008037Y021836D01*
X008263Y021717D02*
X008350Y021717D01*
X008467Y021006D02*
X008522Y021006D01*
X008418Y020888D02*
X008707Y020888D01*
X008323Y020769D02*
X009118Y020769D01*
X006622Y021836D02*
X005037Y021836D01*
X005263Y021717D02*
X006396Y021717D01*
X006278Y021599D02*
X005381Y021599D01*
X005418Y020888D02*
X006241Y020888D01*
X006336Y020769D02*
X005323Y020769D01*
X005182Y020651D02*
X006477Y020651D01*
X007115Y024087D02*
X005020Y024087D01*
X005166Y024206D02*
X006953Y024206D01*
X006880Y024324D02*
X005312Y024324D01*
X005459Y024443D02*
X006842Y024443D01*
X006840Y024561D02*
X005605Y024561D01*
X005751Y024680D02*
X006863Y024680D01*
X006927Y024798D02*
X005898Y024798D01*
X006059Y024917D02*
X007048Y024917D01*
X013598Y020769D02*
X013631Y020769D01*
X014286Y020532D02*
X014646Y020532D01*
X014742Y020414D02*
X014323Y020414D01*
X015082Y020914D02*
X015082Y020914D01*
X019836Y023495D02*
X020432Y023495D01*
X020390Y024680D02*
X021705Y024680D01*
X021687Y024561D02*
X021824Y024561D01*
X021806Y024443D02*
X021845Y024443D01*
X021736Y024798D02*
X020519Y024798D01*
X020647Y024917D02*
X021800Y024917D01*
X021617Y025035D02*
X021033Y025035D01*
X021151Y025154D02*
X021435Y025154D01*
X020806Y025035D02*
X020776Y025035D01*
X021823Y017570D02*
X022480Y017570D01*
X022598Y017451D02*
X021965Y017451D01*
X022084Y017333D02*
X022717Y017333D01*
X022992Y017214D02*
X022202Y017214D01*
X022517Y016503D02*
X022963Y016503D01*
X022517Y015318D02*
X026652Y015318D01*
X026652Y015200D02*
X022517Y015200D01*
X022517Y015081D02*
X026652Y015081D01*
X026652Y014963D02*
X022517Y014963D01*
X022517Y014844D02*
X026652Y014844D01*
X026652Y014726D02*
X022517Y014726D01*
X022517Y014607D02*
X026652Y014607D01*
X026652Y014489D02*
X022517Y014489D01*
X022517Y014370D02*
X024367Y014370D01*
X024369Y014372D02*
X024365Y014365D01*
X024351Y014359D01*
X024343Y014360D01*
X024320Y014344D01*
X024295Y014333D01*
X024292Y014325D01*
X024280Y014316D01*
X024271Y014316D01*
X024252Y014296D01*
X024229Y014281D01*
X024227Y014272D01*
X024217Y014262D01*
X024208Y014260D01*
X024192Y014237D01*
X024173Y014218D01*
X024173Y014209D01*
X024164Y014197D01*
X024156Y014194D01*
X024145Y014169D01*
X024129Y014146D01*
X024130Y014138D01*
X024124Y014124D01*
X024116Y014120D01*
X024109Y014093D01*
X024098Y014068D01*
X024100Y014060D01*
X024097Y014046D01*
X024090Y014040D01*
X024088Y014013D01*
X024081Y013986D01*
X024085Y013979D01*
X024083Y013964D01*
X024078Y013957D01*
X024080Y013930D01*
X024078Y013902D01*
X024083Y013895D01*
X024085Y013880D01*
X024081Y013873D01*
X024088Y013846D01*
X024090Y013819D01*
X024097Y013813D01*
X024100Y013799D01*
X024098Y013791D01*
X024109Y013766D01*
X024116Y013739D01*
X024124Y013735D01*
X024130Y013721D01*
X024129Y013713D01*
X024145Y013690D01*
X024156Y013665D01*
X024164Y013662D01*
X024173Y013650D01*
X024173Y013641D01*
X024192Y013622D01*
X024208Y013599D01*
X024217Y013597D01*
X024227Y013587D01*
X024229Y013579D01*
X024252Y013563D01*
X024271Y013543D01*
X024280Y013543D01*
X024292Y013534D01*
X024295Y013526D01*
X024320Y013515D01*
X024343Y013499D01*
X024351Y013500D01*
X024365Y013494D01*
X024369Y013487D01*
X024396Y013479D01*
X024421Y013468D01*
X024429Y013471D01*
X024443Y013467D01*
X024449Y013460D01*
X024476Y013458D01*
X024503Y013451D01*
X024510Y013455D01*
X024525Y013453D01*
X024532Y013448D01*
X024559Y013451D01*
X024587Y013448D01*
X024594Y013453D01*
X024609Y013455D01*
X024616Y013451D01*
X024643Y013458D01*
X024670Y013460D01*
X024676Y013467D01*
X024690Y013471D01*
X024698Y013468D01*
X024723Y013479D01*
X024750Y013487D01*
X024754Y013494D01*
X024768Y013500D01*
X024776Y013499D01*
X024799Y013515D01*
X024824Y013526D01*
X024827Y013534D01*
X024839Y013543D01*
X024848Y013543D01*
X024867Y013563D01*
X024890Y013579D01*
X024892Y013587D01*
X024902Y013597D01*
X024910Y013599D01*
X024926Y013622D01*
X024946Y013641D01*
X024946Y013650D01*
X024955Y013662D01*
X024963Y013665D01*
X024974Y013690D01*
X024990Y013713D01*
X024989Y013721D01*
X024995Y013735D01*
X025002Y013739D01*
X025010Y013766D01*
X025021Y013791D01*
X025018Y013799D01*
X025022Y013813D01*
X025029Y013819D01*
X025031Y013846D01*
X025038Y013873D01*
X025034Y013880D01*
X025035Y013895D01*
X025041Y013902D01*
X025038Y013930D01*
X025041Y013957D01*
X025035Y013964D01*
X025034Y013979D01*
X025038Y013986D01*
X025031Y014013D01*
X025029Y014040D01*
X025022Y014046D01*
X025018Y014060D01*
X025021Y014068D01*
X025010Y014093D01*
X025002Y014120D01*
X024995Y014124D01*
X024989Y014138D01*
X024990Y014146D01*
X024974Y014169D01*
X024963Y014194D01*
X024955Y014197D01*
X024946Y014209D01*
X024946Y014218D01*
X024926Y014237D01*
X024910Y014260D01*
X024902Y014262D01*
X024892Y014272D01*
X024890Y014281D01*
X024867Y014296D01*
X024848Y014316D01*
X024839Y014316D01*
X024827Y014325D01*
X024824Y014333D01*
X024799Y014344D01*
X024776Y014360D01*
X024768Y014359D01*
X024754Y014365D01*
X024750Y014372D01*
X024723Y014380D01*
X024698Y014391D01*
X024690Y014389D01*
X024676Y014392D01*
X024670Y014399D01*
X024643Y014401D01*
X024616Y014408D01*
X024609Y014404D01*
X024594Y014406D01*
X024587Y014411D01*
X024559Y014409D01*
X024532Y014411D01*
X024525Y014406D01*
X024510Y014404D01*
X024503Y014408D01*
X024476Y014401D01*
X024449Y014399D01*
X024443Y014392D01*
X024429Y014389D01*
X024421Y014391D01*
X024396Y014380D01*
X024369Y014372D01*
X024202Y014252D02*
X022517Y014252D01*
X022517Y014133D02*
X024128Y014133D01*
X024088Y014015D02*
X022517Y014015D01*
X022517Y013896D02*
X024083Y013896D01*
X024104Y013778D02*
X022517Y013778D01*
X022517Y013659D02*
X024166Y013659D01*
X024283Y013541D02*
X022517Y013541D01*
X022517Y013422D02*
X026652Y013422D01*
X026652Y013304D02*
X022517Y013304D01*
X022517Y013185D02*
X026652Y013185D01*
X026652Y013067D02*
X022517Y013067D01*
X022517Y012948D02*
X026652Y012948D01*
X026652Y012830D02*
X022517Y012830D01*
X022517Y012711D02*
X026652Y012711D01*
X026652Y012593D02*
X022517Y012593D01*
X022517Y012474D02*
X026652Y012474D01*
X026652Y012356D02*
X022517Y012356D01*
X022517Y012237D02*
X026652Y012237D01*
X026652Y012119D02*
X022517Y012119D01*
X022517Y012000D02*
X026652Y012000D01*
X026652Y011882D02*
X022517Y011882D01*
X022517Y011763D02*
X026652Y011763D01*
X026652Y011645D02*
X022517Y011645D01*
X022517Y011526D02*
X026652Y011526D01*
X026652Y011408D02*
X022517Y011408D01*
X022517Y011289D02*
X026652Y011289D01*
X026652Y011171D02*
X022517Y011171D01*
X022517Y011052D02*
X026652Y011052D01*
X026652Y010934D02*
X022517Y010934D01*
X022517Y010815D02*
X026652Y010815D01*
X026652Y010697D02*
X022517Y010697D01*
X022517Y010578D02*
X022830Y010578D01*
X022650Y010460D02*
X022517Y010460D01*
X022517Y010341D02*
X022531Y010341D01*
X021957Y010341D02*
X019348Y010341D01*
X019467Y010460D02*
X021957Y010460D01*
X021957Y010578D02*
X019585Y010578D01*
X019639Y010697D02*
X021957Y010697D01*
X021957Y010815D02*
X019688Y010815D01*
X019737Y010934D02*
X021957Y010934D01*
X021957Y011052D02*
X019738Y011052D01*
X019093Y010223D02*
X021957Y010223D01*
X021985Y010104D02*
X018107Y010104D01*
X017989Y009986D02*
X021997Y009986D01*
X021997Y009867D02*
X019760Y009867D01*
X019769Y009865D02*
X019432Y009955D01*
X019057Y009955D01*
X018720Y009865D01*
X018417Y009690D01*
X018169Y009442D01*
X017995Y009139D01*
X017904Y008802D01*
X017904Y008427D01*
X017995Y008090D01*
X018169Y007787D01*
X018417Y007539D01*
X018720Y007365D01*
X019057Y007274D01*
X019432Y007274D01*
X019769Y007365D01*
X020072Y007539D01*
X020320Y007787D01*
X020494Y008090D01*
X020585Y008427D01*
X020585Y008802D01*
X020494Y009139D01*
X020320Y009442D01*
X020072Y009690D01*
X019769Y009865D01*
X019970Y009749D02*
X021997Y009749D01*
X021997Y009630D02*
X020132Y009630D01*
X020250Y009512D02*
X021997Y009512D01*
X021997Y009393D02*
X020348Y009393D01*
X020416Y009275D02*
X021997Y009275D01*
X021997Y009156D02*
X020485Y009156D01*
X020522Y009038D02*
X021997Y009038D01*
X021997Y008919D02*
X020554Y008919D01*
X020585Y008801D02*
X021997Y008801D01*
X021997Y008682D02*
X020585Y008682D01*
X020585Y008564D02*
X021997Y008564D01*
X021997Y008445D02*
X020585Y008445D01*
X020558Y008327D02*
X021997Y008327D01*
X021997Y008208D02*
X020526Y008208D01*
X020494Y008090D02*
X021997Y008090D01*
X021884Y007971D02*
X020426Y007971D01*
X020358Y007853D02*
X021807Y007853D01*
X021800Y007734D02*
X020267Y007734D01*
X020148Y007616D02*
X021800Y007616D01*
X021800Y007497D02*
X019999Y007497D01*
X019960Y007331D02*
X019871Y007319D01*
X019784Y007296D01*
X019701Y007262D01*
X019623Y007217D01*
X019552Y007162D01*
X019488Y007099D01*
X019434Y007027D01*
X019389Y006950D01*
X019354Y006867D01*
X019331Y006780D01*
X019322Y006706D01*
X020470Y006706D01*
X020470Y007331D01*
X019960Y007331D01*
X019793Y007379D02*
X021800Y007379D01*
X021800Y007260D02*
X021361Y007260D01*
X021358Y007262D02*
X021275Y007296D01*
X021188Y007319D01*
X021099Y007331D01*
X020590Y007331D01*
X020590Y006706D01*
X021738Y006706D01*
X021728Y006780D01*
X021705Y006867D01*
X021670Y006950D01*
X021625Y007027D01*
X021571Y007099D01*
X021507Y007162D01*
X021436Y007217D01*
X021358Y007262D01*
X021528Y007142D02*
X021800Y007142D01*
X021800Y007023D02*
X021628Y007023D01*
X021689Y006905D02*
X021800Y006905D01*
X021800Y006786D02*
X021726Y006786D01*
X021800Y006668D02*
X020590Y006668D01*
X020590Y006706D02*
X020590Y006586D01*
X021738Y006586D01*
X021728Y006512D01*
X021705Y006425D01*
X021670Y006342D01*
X021625Y006265D01*
X021571Y006193D01*
X021507Y006130D01*
X021436Y006075D01*
X021358Y006030D01*
X021275Y005996D01*
X021188Y005973D01*
X021099Y005961D01*
X020590Y005961D01*
X020590Y006586D01*
X020470Y006586D01*
X020470Y005961D01*
X019960Y005961D01*
X019871Y005973D01*
X019784Y005996D01*
X019701Y006030D01*
X019623Y006075D01*
X019552Y006130D01*
X019488Y006193D01*
X019434Y006265D01*
X019389Y006342D01*
X019354Y006425D01*
X019331Y006512D01*
X019322Y006586D01*
X020470Y006586D01*
X020470Y006706D01*
X020590Y006706D01*
X020590Y006786D02*
X020470Y006786D01*
X020470Y006668D02*
X015735Y006668D01*
X015735Y006786D02*
X019333Y006786D01*
X019370Y006905D02*
X015735Y006905D01*
X015735Y007023D02*
X019431Y007023D01*
X019531Y007142D02*
X015559Y007142D01*
X015559Y007260D02*
X019698Y007260D01*
X020470Y007260D02*
X020590Y007260D01*
X020590Y007142D02*
X020470Y007142D01*
X020470Y007023D02*
X020590Y007023D01*
X020590Y006905D02*
X020470Y006905D01*
X020470Y006549D02*
X020590Y006549D01*
X020590Y006431D02*
X020470Y006431D01*
X020470Y006312D02*
X020590Y006312D01*
X020590Y006194D02*
X020470Y006194D01*
X020470Y006075D02*
X020590Y006075D01*
X021166Y005364D02*
X018869Y005364D01*
X018872Y005246D02*
X021048Y005246D01*
X020929Y005127D02*
X018872Y005127D01*
X018556Y004800D02*
X018430Y004926D01*
X016661Y004926D01*
X016997Y005127D02*
X018239Y005127D01*
X018239Y005246D02*
X016172Y005246D01*
X016202Y005364D02*
X018242Y005364D01*
X018239Y004653D02*
X016971Y004653D01*
X016855Y004535D02*
X018239Y004535D01*
X018239Y004416D02*
X016952Y004416D01*
X016983Y004298D02*
X018239Y004298D01*
X018298Y004179D02*
X016964Y004179D01*
X016967Y004061D02*
X023154Y004061D01*
X023272Y004179D02*
X018813Y004179D01*
X018872Y004298D02*
X023391Y004298D01*
X023509Y004416D02*
X018872Y004416D01*
X018872Y004535D02*
X023628Y004535D01*
X023746Y004653D02*
X021134Y004653D01*
X021253Y004772D02*
X023865Y004772D01*
X023982Y004890D02*
X021371Y004890D01*
X021490Y005009D02*
X024078Y005009D01*
X024174Y005127D02*
X021608Y005127D01*
X021727Y005246D02*
X024270Y005246D01*
X024366Y005364D02*
X021845Y005364D01*
X021964Y005483D02*
X024462Y005483D01*
X024558Y005601D02*
X022082Y005601D01*
X022176Y005695D02*
X022176Y005695D01*
X022201Y005720D02*
X024654Y005720D01*
X024750Y005838D02*
X022275Y005838D01*
X022280Y005957D02*
X024846Y005957D01*
X024927Y006075D02*
X024435Y006075D01*
X024436Y006075D02*
X024507Y006130D01*
X024571Y006193D01*
X024625Y006265D01*
X024670Y006342D01*
X024705Y006425D01*
X024728Y006512D01*
X024738Y006586D01*
X023590Y006586D01*
X023590Y006706D01*
X024738Y006706D01*
X024728Y006780D01*
X024705Y006867D01*
X024670Y006950D01*
X024625Y007027D01*
X024571Y007099D01*
X024507Y007162D01*
X024436Y007217D01*
X024358Y007262D01*
X024275Y007296D01*
X024188Y007319D01*
X024099Y007331D01*
X023590Y007331D01*
X023590Y006706D01*
X023470Y006706D01*
X023470Y007331D01*
X022960Y007331D01*
X022871Y007319D01*
X022784Y007296D01*
X022701Y007262D01*
X022623Y007217D01*
X022552Y007162D01*
X022488Y007099D01*
X022434Y007027D01*
X022389Y006950D01*
X022354Y006867D01*
X022331Y006780D01*
X022322Y006706D01*
X023470Y006706D01*
X023470Y006586D01*
X023590Y006586D01*
X023590Y005961D01*
X024099Y005961D01*
X024188Y005973D01*
X024275Y005996D01*
X024358Y006030D01*
X024436Y006075D01*
X024571Y006194D02*
X025004Y006194D01*
X025081Y006312D02*
X024653Y006312D01*
X024706Y006431D02*
X025158Y006431D01*
X025235Y006549D02*
X024733Y006549D01*
X024726Y006786D02*
X025389Y006786D01*
X025466Y006905D02*
X024689Y006905D01*
X024628Y007023D02*
X025542Y007023D01*
X025619Y007142D02*
X024528Y007142D01*
X024361Y007260D02*
X025684Y007260D01*
X025744Y007379D02*
X022280Y007379D01*
X022280Y007497D02*
X025805Y007497D01*
X025865Y007616D02*
X023498Y007616D01*
X023498Y007734D02*
X025925Y007734D01*
X025986Y007853D02*
X023498Y007853D01*
X023498Y007971D02*
X023577Y007971D01*
X023573Y008090D02*
X023498Y008090D01*
X023573Y008208D02*
X022477Y008208D01*
X022477Y008327D02*
X022684Y008327D01*
X022678Y008336D02*
X022699Y008300D01*
X022729Y008270D01*
X022765Y008249D01*
X022806Y008238D01*
X023064Y008238D01*
X023064Y008556D01*
X022667Y008556D01*
X022667Y008377D01*
X022678Y008336D01*
X022667Y008445D02*
X022477Y008445D01*
X022477Y008564D02*
X023064Y008564D01*
X023141Y008564D02*
X023689Y008564D01*
X023689Y008682D02*
X023538Y008682D01*
X023538Y008801D02*
X023689Y008801D01*
X023689Y008919D02*
X023477Y008919D01*
X023538Y008445D02*
X023573Y008445D01*
X023573Y008327D02*
X023522Y008327D01*
X023141Y008327D02*
X023064Y008327D01*
X023064Y008445D02*
X023141Y008445D01*
X022667Y008682D02*
X022477Y008682D01*
X022477Y008801D02*
X022667Y008801D01*
X022728Y008919D02*
X022477Y008919D01*
X022477Y009038D02*
X022772Y009038D01*
X022625Y009156D02*
X022477Y009156D01*
X022477Y009275D02*
X022507Y009275D01*
X022707Y007616D02*
X022280Y007616D01*
X022280Y007260D02*
X022698Y007260D01*
X022531Y007142D02*
X022280Y007142D01*
X022280Y007023D02*
X022431Y007023D01*
X022370Y006905D02*
X022280Y006905D01*
X022280Y006786D02*
X022333Y006786D01*
X022280Y006668D02*
X023470Y006668D01*
X023470Y006586D02*
X022322Y006586D01*
X022331Y006512D01*
X022354Y006425D01*
X022389Y006342D01*
X022434Y006265D01*
X022488Y006193D01*
X022552Y006130D01*
X022623Y006075D01*
X022701Y006030D01*
X022784Y005996D01*
X022871Y005973D01*
X022960Y005961D01*
X023470Y005961D01*
X023470Y006586D01*
X023470Y006549D02*
X023590Y006549D01*
X023590Y006431D02*
X023470Y006431D01*
X023470Y006312D02*
X023590Y006312D01*
X023590Y006194D02*
X023470Y006194D01*
X023470Y006075D02*
X023590Y006075D01*
X023590Y006668D02*
X025312Y006668D01*
X026046Y007971D02*
X024361Y007971D01*
X024364Y008090D02*
X026106Y008090D01*
X026167Y008208D02*
X024364Y008208D01*
X024364Y008327D02*
X026227Y008327D01*
X026286Y008445D02*
X024364Y008445D01*
X024249Y008564D02*
X026331Y008564D01*
X026377Y008682D02*
X024249Y008682D01*
X024249Y008801D02*
X026422Y008801D01*
X026468Y008919D02*
X024249Y008919D01*
X025166Y009038D02*
X026513Y009038D01*
X026559Y009156D02*
X025312Y009156D01*
X025431Y009275D02*
X026604Y009275D01*
X026650Y009393D02*
X025496Y009393D01*
X025545Y009512D02*
X026652Y009512D01*
X026652Y009630D02*
X025591Y009630D01*
X025591Y009749D02*
X026652Y009749D01*
X026652Y009867D02*
X025591Y009867D01*
X025584Y009986D02*
X026652Y009986D01*
X026652Y010104D02*
X025535Y010104D01*
X025486Y010223D02*
X026652Y010223D01*
X026652Y010341D02*
X025407Y010341D01*
X025288Y010460D02*
X026652Y010460D01*
X026652Y010578D02*
X025108Y010578D01*
X024836Y013541D02*
X026652Y013541D01*
X026652Y013659D02*
X024953Y013659D01*
X025015Y013778D02*
X026652Y013778D01*
X026652Y013896D02*
X025036Y013896D01*
X025031Y014015D02*
X026652Y014015D01*
X026652Y014133D02*
X024991Y014133D01*
X024917Y014252D02*
X026652Y014252D01*
X026652Y014370D02*
X024752Y014370D01*
X021367Y013185D02*
X018129Y013185D01*
X018107Y013067D02*
X021311Y013067D01*
X021193Y012948D02*
X018072Y012948D01*
X018037Y012830D02*
X021074Y012830D01*
X020956Y012711D02*
X018002Y012711D01*
X017968Y012593D02*
X020837Y012593D01*
X020719Y012474D02*
X017933Y012474D01*
X017898Y012356D02*
X020045Y012356D01*
X019927Y012237D02*
X017840Y012237D01*
X017894Y012342D02*
X017894Y012342D01*
X018226Y010223D02*
X018483Y010223D01*
X018729Y009867D02*
X017870Y009867D01*
X017752Y009749D02*
X018519Y009749D01*
X018357Y009630D02*
X017633Y009630D01*
X017515Y009512D02*
X018239Y009512D01*
X018141Y009393D02*
X017396Y009393D01*
X017278Y009275D02*
X018073Y009275D01*
X018004Y009156D02*
X017159Y009156D01*
X017041Y009038D02*
X017967Y009038D01*
X017935Y008919D02*
X016922Y008919D01*
X016804Y008801D02*
X017904Y008801D01*
X017904Y008682D02*
X016685Y008682D01*
X016567Y008564D02*
X017904Y008564D01*
X017904Y008445D02*
X016448Y008445D01*
X016330Y008327D02*
X017931Y008327D01*
X017963Y008208D02*
X016211Y008208D01*
X016093Y008090D02*
X017995Y008090D01*
X018063Y007971D02*
X015974Y007971D01*
X015856Y007853D02*
X018131Y007853D01*
X018222Y007734D02*
X015737Y007734D01*
X015619Y007616D02*
X018341Y007616D01*
X018490Y007497D02*
X015559Y007497D01*
X015559Y007379D02*
X018696Y007379D01*
X019326Y006549D02*
X015735Y006549D01*
X015718Y006431D02*
X019353Y006431D01*
X019406Y006312D02*
X015735Y006312D01*
X015735Y006194D02*
X019488Y006194D01*
X019624Y006075D02*
X015735Y006075D01*
X015735Y005957D02*
X021759Y005957D01*
X021800Y006075D02*
X021435Y006075D01*
X021571Y006194D02*
X021800Y006194D01*
X021800Y006312D02*
X021653Y006312D01*
X021706Y006431D02*
X021800Y006431D01*
X021800Y006549D02*
X021733Y006549D01*
X022280Y006549D02*
X022326Y006549D01*
X022353Y006431D02*
X022280Y006431D01*
X022280Y006312D02*
X022406Y006312D01*
X022488Y006194D02*
X022280Y006194D01*
X022280Y006075D02*
X022624Y006075D01*
X023470Y006786D02*
X023590Y006786D01*
X023590Y006905D02*
X023470Y006905D01*
X023470Y007023D02*
X023590Y007023D01*
X023590Y007142D02*
X023470Y007142D01*
X023470Y007260D02*
X023590Y007260D01*
X021640Y005838D02*
X016054Y005838D01*
X015884Y005838D02*
X015735Y005838D01*
X015717Y005720D02*
X015677Y005720D01*
X015672Y005601D02*
X015377Y005601D01*
X015377Y005483D02*
X015676Y005483D01*
X015736Y005364D02*
X015336Y005364D01*
X015350Y005246D02*
X015812Y005246D01*
X015655Y005127D02*
X015562Y005127D01*
X015562Y005009D02*
X015655Y005009D01*
X015655Y004890D02*
X015562Y004890D01*
X015562Y004772D02*
X015655Y004772D01*
X015681Y004653D02*
X015545Y004653D01*
X015992Y004926D02*
X015992Y005529D01*
X015969Y005552D01*
X016262Y005483D02*
X021285Y005483D01*
X021403Y005601D02*
X016266Y005601D01*
X016221Y005720D02*
X021522Y005720D01*
X023035Y003942D02*
X016997Y003942D01*
X016997Y003824D02*
X022903Y003824D01*
X022757Y003705D02*
X016997Y003705D01*
X016997Y003587D02*
X018224Y003587D01*
X018231Y003599D02*
X018210Y003562D01*
X018199Y003521D01*
X018199Y003027D01*
X018517Y003027D01*
X018517Y002950D01*
X018594Y002950D01*
X018594Y002317D01*
X018773Y002317D01*
X018814Y002328D01*
X018851Y002349D01*
X018880Y002379D01*
X018901Y002415D01*
X018912Y002456D01*
X018912Y002950D01*
X018594Y002950D01*
X018594Y003027D01*
X018912Y003027D01*
X018912Y003521D01*
X018901Y003562D01*
X018880Y003599D01*
X018851Y003628D01*
X018814Y003649D01*
X018773Y003660D01*
X018594Y003660D01*
X018594Y003027D01*
X018517Y003027D01*
X018517Y003660D01*
X018338Y003660D01*
X018297Y003649D01*
X018260Y003628D01*
X018231Y003599D01*
X018199Y003468D02*
X016928Y003468D01*
X017024Y003231D02*
X018199Y003231D01*
X018199Y003113D02*
X017047Y003113D01*
X017047Y002994D02*
X018517Y002994D01*
X018517Y002950D02*
X018199Y002950D01*
X018199Y002456D01*
X018210Y002415D01*
X018231Y002379D01*
X018260Y002349D01*
X018297Y002328D01*
X018338Y002317D01*
X018517Y002317D01*
X018517Y002950D01*
X018517Y002876D02*
X018594Y002876D01*
X018594Y002994D02*
X021879Y002994D01*
X022025Y003113D02*
X018912Y003113D01*
X018912Y003231D02*
X022171Y003231D01*
X022318Y003350D02*
X018912Y003350D01*
X018912Y003468D02*
X022464Y003468D01*
X022610Y003587D02*
X018887Y003587D01*
X018594Y003587D02*
X018517Y003587D01*
X018517Y003468D02*
X018594Y003468D01*
X018594Y003350D02*
X018517Y003350D01*
X018517Y003231D02*
X018594Y003231D01*
X018594Y003113D02*
X018517Y003113D01*
X018199Y003350D02*
X014105Y003350D01*
X014158Y003468D02*
X014273Y003468D01*
X014218Y003587D02*
X014158Y003587D01*
X013959Y003767D02*
X014552Y003767D01*
X014555Y003769D01*
X014784Y003998D01*
X014784Y004449D01*
X014556Y004677D01*
X014556Y004917D01*
X014220Y004890D02*
X014107Y004890D01*
X014107Y004924D02*
X014096Y004964D01*
X014084Y004985D01*
X014088Y004985D01*
X014158Y005056D01*
X014158Y005206D01*
X014263Y005206D01*
X014220Y005163D01*
X014220Y004670D01*
X014290Y004600D01*
X014379Y004600D01*
X014604Y004375D01*
X014604Y004086D01*
X014288Y004086D01*
X014218Y004016D01*
X014218Y003947D01*
X014158Y003947D01*
X014158Y004131D01*
X014088Y004202D01*
X014084Y004202D01*
X014096Y004223D01*
X014107Y004263D01*
X014107Y004533D01*
X013635Y004533D01*
X013635Y004653D01*
X014237Y004653D01*
X014220Y004772D02*
X014107Y004772D01*
X014107Y004653D02*
X014107Y004924D01*
X014111Y005009D02*
X014220Y005009D01*
X014220Y005127D02*
X014158Y005127D01*
X013993Y005386D02*
X015059Y005386D01*
X015197Y005524D01*
X015197Y005961D01*
X015319Y006083D01*
X014962Y005720D02*
X014753Y005720D01*
X014752Y005838D02*
X014904Y005838D01*
X014904Y005957D02*
X014696Y005957D01*
X014740Y006075D02*
X014904Y006075D01*
X014904Y006194D02*
X014774Y006194D01*
X014774Y006312D02*
X014904Y006312D01*
X014920Y006431D02*
X014774Y006431D01*
X014774Y006549D02*
X014904Y006549D01*
X014904Y006668D02*
X014749Y006668D01*
X014809Y006786D02*
X014904Y006786D01*
X014904Y006905D02*
X014814Y006905D01*
X014904Y007023D02*
X014496Y007023D01*
X014419Y007023D02*
X013709Y007023D01*
X013632Y007023D02*
X012921Y007023D01*
X012921Y007083D02*
X013240Y007083D01*
X013240Y007282D01*
X013229Y007323D01*
X013208Y007359D01*
X013178Y007389D01*
X013141Y007410D01*
X013101Y007421D01*
X012921Y007421D01*
X012921Y007083D01*
X012921Y007142D02*
X012844Y007142D01*
X012844Y007083D02*
X012844Y007421D01*
X012665Y007421D01*
X012624Y007410D01*
X012588Y007389D01*
X012558Y007359D01*
X012537Y007323D01*
X012526Y007282D01*
X012526Y007083D01*
X012844Y007083D01*
X012844Y007023D02*
X012376Y007023D01*
X012396Y006905D02*
X012526Y006905D01*
X012532Y006786D02*
X012396Y006786D01*
X012396Y006668D02*
X012592Y006668D01*
X012566Y006549D02*
X012396Y006549D01*
X012396Y006431D02*
X012566Y006431D01*
X012566Y006312D02*
X012396Y006312D01*
X012396Y006194D02*
X012566Y006194D01*
X012600Y006075D02*
X012396Y006075D01*
X012237Y005882D02*
X012178Y005941D01*
X012237Y005882D02*
X012772Y005882D01*
X012870Y006039D02*
X013129Y006039D01*
X013200Y006109D01*
X013200Y006175D01*
X013353Y006175D01*
X013353Y006109D01*
X013424Y006039D01*
X013533Y006039D01*
X013533Y005895D01*
X013447Y005895D01*
X013347Y005895D01*
X013307Y005884D01*
X013270Y005863D01*
X013262Y005855D01*
X013063Y005855D01*
X013051Y005843D01*
X012952Y005943D01*
X012952Y005957D01*
X012870Y006039D01*
X012952Y005957D02*
X013533Y005957D01*
X013447Y005895D02*
X013447Y005420D01*
X013447Y005895D01*
X013447Y005838D02*
X013447Y005838D01*
X013447Y005720D02*
X013447Y005720D01*
X013447Y005601D02*
X013447Y005601D01*
X013447Y005483D02*
X013447Y005483D01*
X013447Y005420D02*
X013447Y005420D01*
X013063Y004985D02*
X012997Y005051D01*
X012997Y004875D01*
X012898Y004775D01*
X012665Y004543D01*
X012497Y004543D01*
X012497Y004447D01*
X012428Y004378D01*
X012497Y004310D01*
X012497Y004241D01*
X012636Y004241D01*
X012658Y004250D01*
X012776Y004250D01*
X012885Y004205D01*
X012969Y004121D01*
X012993Y004064D01*
X012993Y004131D01*
X013063Y004202D01*
X013066Y004202D01*
X013054Y004223D01*
X013043Y004263D01*
X013043Y004533D01*
X013515Y004533D01*
X013515Y004653D01*
X012775Y004653D01*
X012894Y004772D02*
X013043Y004772D01*
X013043Y004890D02*
X012997Y004890D01*
X013043Y004924D02*
X013043Y004653D01*
X013515Y004653D01*
X013575Y004593D02*
X013447Y004534D01*
X013515Y004535D02*
X012497Y004535D01*
X012466Y004416D02*
X013043Y004416D01*
X013043Y004298D02*
X012497Y004298D01*
X012911Y004179D02*
X013040Y004179D01*
X013635Y004535D02*
X014444Y004535D01*
X014563Y004416D02*
X014107Y004416D01*
X014107Y004298D02*
X014604Y004298D01*
X014604Y004179D02*
X014110Y004179D01*
X014158Y004061D02*
X014263Y004061D01*
X014107Y004653D02*
X013635Y004653D01*
X013043Y004924D02*
X013054Y004964D01*
X013066Y004985D01*
X013063Y004985D01*
X013040Y005009D02*
X012997Y005009D01*
X012813Y005601D02*
X012682Y005601D01*
X012263Y005601D02*
X010034Y005601D01*
X010034Y005801D01*
X009716Y005801D01*
X009716Y005462D01*
X009895Y005462D01*
X009936Y005473D01*
X009973Y005494D01*
X010002Y005524D01*
X010024Y005561D01*
X010034Y005601D01*
X010034Y005720D02*
X011568Y005720D01*
X011565Y005838D02*
X009716Y005838D01*
X009639Y005838D02*
X003109Y005838D01*
X003397Y005483D02*
X009403Y005483D01*
X009639Y005483D02*
X009716Y005483D01*
X009716Y005601D02*
X009639Y005601D01*
X009639Y005720D02*
X009716Y005720D01*
X009952Y005483D02*
X011608Y005483D01*
X011490Y005364D02*
X003493Y005364D01*
X003589Y005246D02*
X011371Y005246D01*
X011309Y005127D02*
X003685Y005127D01*
X003781Y005009D02*
X011191Y005009D01*
X011162Y004890D02*
X003877Y004890D01*
X003994Y004772D02*
X011162Y004772D01*
X011162Y004653D02*
X004113Y004653D01*
X004231Y004535D02*
X011162Y004535D01*
X011193Y004416D02*
X004350Y004416D01*
X004468Y004298D02*
X011162Y004298D01*
X011162Y004179D02*
X004587Y004179D01*
X004705Y004061D02*
X011162Y004061D01*
X011162Y003942D02*
X006709Y003942D01*
X006719Y003939D02*
X006692Y003947D01*
X006667Y003958D01*
X006659Y003955D01*
X006644Y003959D01*
X006639Y003966D01*
X006611Y003968D01*
X006584Y003975D01*
X006577Y003971D01*
X006562Y003972D01*
X006556Y003978D01*
X006528Y003975D01*
X006500Y003978D01*
X006494Y003972D01*
X006479Y003971D01*
X006472Y003975D01*
X006445Y003968D01*
X006417Y003966D01*
X006412Y003959D01*
X006397Y003955D01*
X006389Y003958D01*
X006364Y003947D01*
X006337Y003939D01*
X006333Y003932D01*
X006319Y003926D01*
X006311Y003927D01*
X006288Y003911D01*
X006263Y003900D01*
X006260Y003892D01*
X006248Y003883D01*
X006240Y003883D01*
X006220Y003863D01*
X006197Y003847D01*
X006196Y003839D01*
X006185Y003829D01*
X006177Y003827D01*
X006161Y003804D01*
X006141Y003785D01*
X006141Y003776D01*
X006133Y003764D01*
X006125Y003761D01*
X006113Y003736D01*
X006097Y003713D01*
X006099Y003705D01*
X006092Y003691D01*
X006085Y003687D01*
X006078Y003660D01*
X006066Y003635D01*
X006069Y003627D01*
X006065Y003613D01*
X006059Y003607D01*
X006056Y003580D01*
X006049Y003553D01*
X006053Y003546D01*
X006052Y003531D01*
X006047Y003524D01*
X006049Y003496D01*
X006047Y003469D01*
X006052Y003462D01*
X006053Y003447D01*
X006049Y003440D01*
X006056Y003413D01*
X006059Y003386D01*
X006065Y003380D01*
X006069Y003366D01*
X006066Y003358D01*
X006078Y003333D01*
X006085Y003306D01*
X006092Y003302D01*
X006099Y003288D01*
X006097Y003280D01*
X006113Y003257D01*
X006125Y003232D01*
X006133Y003229D01*
X006141Y003217D01*
X006141Y003208D01*
X006161Y003189D01*
X006177Y003166D01*
X006185Y003164D01*
X006196Y003154D01*
X006197Y003145D01*
X006220Y003130D01*
X006240Y003110D01*
X006248Y003110D01*
X006260Y003101D01*
X006263Y003093D01*
X006288Y003082D01*
X006311Y003066D01*
X006319Y003067D01*
X006333Y003061D01*
X006337Y003054D01*
X006364Y003046D01*
X006389Y003035D01*
X006397Y003037D01*
X006412Y003034D01*
X006417Y003027D01*
X006445Y003025D01*
X006472Y003018D01*
X006479Y003022D01*
X006494Y003020D01*
X006500Y003015D01*
X006528Y003017D01*
X006556Y003015D01*
X006562Y003020D01*
X006577Y003022D01*
X006584Y003018D01*
X006611Y003025D01*
X006639Y003027D01*
X006644Y003034D01*
X006659Y003037D01*
X006667Y003035D01*
X006692Y003046D01*
X006719Y003054D01*
X006723Y003061D01*
X006736Y003067D01*
X006745Y003066D01*
X006767Y003082D01*
X006793Y003093D01*
X006796Y003101D01*
X006808Y003110D01*
X006816Y003110D01*
X006836Y003130D01*
X006859Y003145D01*
X006860Y003154D01*
X006871Y003164D01*
X006879Y003166D01*
X006895Y003189D01*
X006915Y003208D01*
X006915Y003217D01*
X006923Y003229D01*
X006931Y003232D01*
X006943Y003257D01*
X006959Y003280D01*
X006957Y003288D01*
X006964Y003302D01*
X006971Y003306D01*
X006978Y003333D01*
X006990Y003358D01*
X006987Y003366D01*
X006991Y003380D01*
X006997Y003386D01*
X007000Y003413D01*
X007007Y003440D01*
X007003Y003447D01*
X007004Y003462D01*
X007009Y003469D01*
X007007Y003496D01*
X007009Y003524D01*
X007004Y003531D01*
X007003Y003546D01*
X007007Y003553D01*
X007000Y003580D01*
X006997Y003607D01*
X006991Y003613D01*
X006987Y003627D01*
X006990Y003635D01*
X006978Y003660D01*
X006971Y003687D01*
X006964Y003691D01*
X006957Y003705D01*
X006959Y003713D01*
X006943Y003736D01*
X006931Y003761D01*
X006923Y003764D01*
X006915Y003776D01*
X006915Y003785D01*
X006895Y003804D01*
X006879Y003827D01*
X006871Y003829D01*
X006860Y003839D01*
X006859Y003847D01*
X006836Y003863D01*
X006816Y003883D01*
X006808Y003883D01*
X006796Y003892D01*
X006793Y003900D01*
X006767Y003911D01*
X006745Y003927D01*
X006736Y003926D01*
X006723Y003932D01*
X006719Y003939D01*
X006882Y003824D02*
X011162Y003824D01*
X011319Y003705D02*
X006957Y003705D01*
X006999Y003587D02*
X011438Y003587D01*
X011556Y003468D02*
X007009Y003468D01*
X006986Y003350D02*
X011675Y003350D01*
X011688Y003231D02*
X011641Y003231D01*
X011340Y003231D02*
X011263Y003231D01*
X011263Y003288D02*
X011064Y003288D01*
X011023Y003277D01*
X010987Y003256D01*
X010957Y003226D01*
X010936Y003190D01*
X010925Y003149D01*
X010925Y002969D01*
X011263Y002969D01*
X011263Y003288D01*
X011263Y003113D02*
X011340Y003113D01*
X011340Y002994D02*
X011263Y002994D01*
X011263Y002876D02*
X011340Y002876D01*
X011340Y002757D02*
X011263Y002757D01*
X011263Y002639D02*
X011340Y002639D01*
X011648Y002639D02*
X011680Y002639D01*
X012261Y002639D02*
X012702Y002639D01*
X012695Y002757D02*
X012307Y002757D01*
X012307Y002876D02*
X012738Y002876D01*
X012993Y002713D02*
X013461Y002713D01*
X013806Y003057D01*
X013709Y003154D01*
X013709Y003554D01*
X013693Y003569D01*
X013703Y003767D01*
X013889Y003231D02*
X014232Y003231D01*
X014536Y002952D02*
X013911Y002952D01*
X013806Y003057D01*
X013760Y002757D02*
X014199Y002757D01*
X014266Y002639D02*
X013641Y002639D01*
X013220Y002520D02*
X018199Y002520D01*
X018199Y002639D02*
X016997Y002639D01*
X016985Y002627D02*
X017015Y002657D01*
X017036Y002693D01*
X017047Y002734D01*
X017047Y002913D01*
X016709Y002913D01*
X016709Y002595D01*
X016908Y002595D01*
X016948Y002606D01*
X016985Y002627D01*
X017047Y002757D02*
X018199Y002757D01*
X018199Y002876D02*
X017047Y002876D01*
X016709Y002876D02*
X016632Y002876D01*
X016632Y002994D02*
X016709Y002994D01*
X016709Y003113D02*
X016632Y003113D01*
X016632Y003231D02*
X016709Y003231D01*
X016394Y003468D02*
X016259Y003468D01*
X016305Y003231D02*
X016317Y003231D01*
X016001Y002952D02*
X015205Y002952D01*
X014901Y003231D02*
X014840Y003231D01*
X014837Y003468D02*
X014942Y003468D01*
X015224Y003769D02*
X015977Y003769D01*
X015992Y003784D01*
X015655Y003587D02*
X015560Y003587D01*
X015506Y003468D02*
X015724Y003468D01*
X015697Y003231D02*
X015509Y003231D01*
X015542Y002757D02*
X015664Y002757D01*
X015731Y002639D02*
X015475Y002639D01*
X014935Y002639D02*
X014806Y002639D01*
X016271Y002639D02*
X016344Y002639D01*
X016632Y002639D02*
X016709Y002639D01*
X016709Y002757D02*
X016632Y002757D01*
X016661Y003784D02*
X016661Y004259D01*
X016685Y004284D01*
X016407Y004179D02*
X014964Y004179D01*
X014964Y004298D02*
X016388Y004298D01*
X016419Y004416D02*
X014964Y004416D01*
X014953Y004535D02*
X016516Y004535D01*
X016350Y004653D02*
X016302Y004653D01*
X016298Y004061D02*
X016354Y004061D01*
X015685Y004061D02*
X015515Y004061D01*
X014906Y004653D02*
X014876Y004653D01*
X015170Y004973D02*
X015226Y004917D01*
X015170Y004973D02*
X015170Y005276D01*
X015059Y005386D01*
X015017Y005601D02*
X014701Y005601D01*
X014456Y005776D02*
X014456Y006374D01*
X014458Y006375D01*
X014167Y006668D02*
X013961Y006668D01*
X014021Y006786D02*
X014106Y006786D01*
X014101Y006905D02*
X014027Y006905D01*
X014101Y007083D02*
X014419Y007083D01*
X014419Y007421D01*
X014240Y007421D01*
X014199Y007410D01*
X014162Y007389D01*
X014133Y007359D01*
X014112Y007323D01*
X014101Y007282D01*
X014101Y007083D01*
X014101Y007142D02*
X014027Y007142D01*
X014027Y007260D02*
X014101Y007260D01*
X014152Y007379D02*
X013976Y007379D01*
X013709Y007379D02*
X013632Y007379D01*
X013632Y007260D02*
X013709Y007260D01*
X013709Y007142D02*
X013632Y007142D01*
X013313Y007142D02*
X013240Y007142D01*
X013240Y007260D02*
X013313Y007260D01*
X013364Y007379D02*
X013189Y007379D01*
X012921Y007379D02*
X012844Y007379D01*
X012844Y007260D02*
X012921Y007260D01*
X012577Y007379D02*
X012221Y007379D01*
X012221Y007497D02*
X015079Y007497D01*
X015079Y007379D02*
X014763Y007379D01*
X014814Y007260D02*
X015079Y007260D01*
X015079Y007142D02*
X014814Y007142D01*
X014496Y007142D02*
X014419Y007142D01*
X014419Y007260D02*
X014496Y007260D01*
X014496Y007379D02*
X014419Y007379D01*
X015079Y007616D02*
X012221Y007616D01*
X012221Y007734D02*
X015092Y007734D01*
X015177Y007853D02*
X012221Y007853D01*
X012221Y007971D02*
X015295Y007971D01*
X015414Y008090D02*
X012251Y008090D01*
X012278Y008208D02*
X015215Y008208D01*
X015142Y008327D02*
X012256Y008327D01*
X012171Y008445D02*
X015128Y008445D01*
X015164Y008564D02*
X011971Y008564D01*
X011853Y008682D02*
X015287Y008682D01*
X015564Y008682D02*
X016006Y008682D01*
X015888Y008564D02*
X015687Y008564D01*
X015738Y008445D02*
X015769Y008445D01*
X016125Y008801D02*
X011734Y008801D01*
X011616Y008919D02*
X016243Y008919D01*
X016362Y009038D02*
X011497Y009038D01*
X011379Y009156D02*
X016480Y009156D01*
X016599Y009275D02*
X011260Y009275D01*
X011142Y009393D02*
X016717Y009393D01*
X016836Y009512D02*
X011023Y009512D01*
X010905Y009630D02*
X016954Y009630D01*
X013313Y006905D02*
X013240Y006905D01*
X013234Y006786D02*
X013319Y006786D01*
X013379Y006668D02*
X013174Y006668D01*
X013165Y006075D02*
X013387Y006075D01*
X013959Y005420D02*
X013993Y005386D01*
X012526Y007142D02*
X012221Y007142D01*
X012221Y007260D02*
X012526Y007260D01*
X011741Y007260D02*
X009918Y007260D01*
X009918Y007142D02*
X011741Y007142D01*
X011586Y007023D02*
X009918Y007023D01*
X009918Y006905D02*
X011565Y006905D01*
X011565Y006786D02*
X009983Y006786D01*
X009994Y006668D02*
X011565Y006668D01*
X011565Y006549D02*
X009994Y006549D01*
X009994Y006431D02*
X011565Y006431D01*
X011565Y006312D02*
X009994Y006312D01*
X009955Y006194D02*
X011565Y006194D01*
X011565Y006075D02*
X010034Y006075D01*
X010034Y005957D02*
X011565Y005957D01*
X011741Y007379D02*
X009918Y007379D01*
X009918Y007497D02*
X011741Y007497D01*
X011741Y007616D02*
X009911Y007616D01*
X009835Y007734D02*
X011741Y007734D01*
X011741Y007853D02*
X009728Y007853D01*
X009796Y007971D02*
X011741Y007971D01*
X011711Y008090D02*
X009864Y008090D01*
X009896Y008208D02*
X011648Y008208D01*
X011529Y008327D02*
X009928Y008327D01*
X009955Y008445D02*
X011411Y008445D01*
X011292Y008564D02*
X009955Y008564D01*
X009955Y008682D02*
X011174Y008682D01*
X011055Y008801D02*
X009955Y008801D01*
X009924Y008919D02*
X010937Y008919D01*
X010818Y009038D02*
X009892Y009038D01*
X009855Y009156D02*
X010700Y009156D01*
X010581Y009275D02*
X009787Y009275D01*
X009718Y009393D02*
X010463Y009393D01*
X010344Y009512D02*
X009620Y009512D01*
X009502Y009630D02*
X010226Y009630D01*
X010107Y009749D02*
X009340Y009749D01*
X009130Y009867D02*
X009989Y009867D01*
X009870Y009986D02*
X006799Y009986D01*
X006848Y010104D02*
X009752Y010104D01*
X009633Y010223D02*
X009376Y010223D01*
X008766Y010223D02*
X006895Y010223D01*
X006895Y010341D02*
X008511Y010341D01*
X008392Y010460D02*
X006895Y010460D01*
X006885Y010578D02*
X008274Y010578D01*
X008220Y010697D02*
X006836Y010697D01*
X006787Y010815D02*
X008171Y010815D01*
X008122Y010934D02*
X006696Y010934D01*
X006578Y011052D02*
X008121Y011052D01*
X008121Y011171D02*
X006357Y011171D01*
X006724Y009867D02*
X008099Y009867D01*
X007889Y009749D02*
X006606Y009749D01*
X006425Y009630D02*
X007727Y009630D01*
X006601Y007260D02*
X005058Y007260D01*
X005271Y007142D02*
X006388Y007142D01*
X006269Y007023D02*
X005390Y007023D01*
X005414Y006312D02*
X006245Y006312D01*
X006345Y006194D02*
X005314Y006194D01*
X005161Y006075D02*
X006498Y006075D01*
X006347Y003942D02*
X004824Y003942D01*
X004956Y003824D02*
X006174Y003824D01*
X006099Y003705D02*
X005102Y003705D01*
X005249Y003587D02*
X006057Y003587D01*
X006047Y003468D02*
X005395Y003468D01*
X005541Y003350D02*
X006070Y003350D01*
X006127Y003231D02*
X005688Y003231D01*
X005834Y003113D02*
X006237Y003113D01*
X006162Y002876D02*
X010925Y002876D01*
X010925Y002994D02*
X005980Y002994D01*
X006345Y002757D02*
X010925Y002757D01*
X010956Y002639D02*
X006527Y002639D01*
X006710Y002520D02*
X012765Y002520D01*
X010925Y003113D02*
X006819Y003113D01*
X006929Y003231D02*
X010962Y003231D01*
X009375Y001217D02*
X018485Y001217D01*
X018793Y001335D02*
X009066Y001335D01*
X008757Y001454D02*
X019102Y001454D01*
X019411Y001572D02*
X008448Y001572D01*
X008211Y001691D02*
X019648Y001691D01*
X019880Y001809D02*
X007979Y001809D01*
X007746Y001928D02*
X020113Y001928D01*
X020345Y002046D02*
X007514Y002046D01*
X007281Y002165D02*
X020578Y002165D01*
X020784Y002283D02*
X007075Y002283D01*
X006892Y002402D02*
X018217Y002402D01*
X018517Y002402D02*
X018594Y002402D01*
X018594Y002520D02*
X018517Y002520D01*
X018517Y002639D02*
X018594Y002639D01*
X018594Y002757D02*
X018517Y002757D01*
X018894Y002402D02*
X020967Y002402D01*
X021149Y002520D02*
X018912Y002520D01*
X018912Y002639D02*
X021332Y002639D01*
X021514Y002757D02*
X018912Y002757D01*
X018912Y002876D02*
X021697Y002876D01*
X019937Y014726D02*
X018124Y014726D01*
X018123Y014738D02*
X018123Y014738D01*
X018092Y014844D02*
X019819Y014844D01*
X009393Y007497D02*
X009369Y007497D01*
X009438Y007379D02*
X009164Y007379D01*
X008703Y012000D02*
X004536Y012000D01*
X004308Y011919D02*
X004308Y011919D01*
X004835Y012106D02*
X004835Y012106D01*
X004835Y015911D02*
X004391Y015911D01*
X004308Y015940D02*
X004308Y015940D01*
X003750Y015978D02*
X003750Y015978D01*
D13*
X010283Y022253D02*
X010283Y022259D01*
X010283Y022253D02*
X010147Y022253D01*
X010147Y022259D01*
X010283Y022259D01*
X010283Y022450D02*
X010283Y022456D01*
X010283Y022450D02*
X010147Y022450D01*
X010147Y022456D01*
X010283Y022456D01*
X010283Y022647D02*
X010283Y022653D01*
X010283Y022647D02*
X010147Y022647D01*
X010147Y022653D01*
X010283Y022653D01*
X010283Y022844D02*
X010283Y022850D01*
X010283Y022844D02*
X010147Y022844D01*
X010147Y022850D01*
X010283Y022850D01*
X010442Y023145D02*
X010448Y023145D01*
X010448Y023009D01*
X010442Y023009D01*
X010442Y023145D01*
X010448Y023113D02*
X010442Y023113D01*
X010639Y023145D02*
X010645Y023145D01*
X010645Y023009D01*
X010639Y023009D01*
X010639Y023145D01*
X010645Y023113D02*
X010639Y023113D01*
X010836Y023145D02*
X010842Y023145D01*
X010842Y023009D01*
X010836Y023009D01*
X010836Y023145D01*
X010842Y023113D02*
X010836Y023113D01*
X011033Y023145D02*
X011039Y023145D01*
X011039Y023009D01*
X011033Y023009D01*
X011033Y023145D01*
X011039Y023113D02*
X011033Y023113D01*
X011198Y022850D02*
X011198Y022844D01*
X011198Y022850D02*
X011334Y022850D01*
X011334Y022844D01*
X011198Y022844D01*
X011198Y022653D02*
X011198Y022647D01*
X011198Y022653D02*
X011334Y022653D01*
X011334Y022647D01*
X011198Y022647D01*
X011198Y022456D02*
X011198Y022450D01*
X011198Y022456D02*
X011334Y022456D01*
X011334Y022450D01*
X011198Y022450D01*
X011198Y022259D02*
X011198Y022253D01*
X011198Y022259D02*
X011334Y022259D01*
X011334Y022253D01*
X011198Y022253D01*
X011039Y021958D02*
X011033Y021958D01*
X011033Y022094D01*
X011039Y022094D01*
X011039Y021958D01*
X011039Y022062D02*
X011033Y022062D01*
X010842Y021958D02*
X010836Y021958D01*
X010836Y022094D01*
X010842Y022094D01*
X010842Y021958D01*
X010842Y022062D02*
X010836Y022062D01*
X010645Y021958D02*
X010639Y021958D01*
X010639Y022094D01*
X010645Y022094D01*
X010645Y021958D01*
X010645Y022062D02*
X010639Y022062D01*
X010448Y021958D02*
X010442Y021958D01*
X010442Y022094D01*
X010448Y022094D01*
X010448Y021958D01*
X010448Y022062D02*
X010442Y022062D01*
D14*
X010243Y022050D03*
X011239Y022054D03*
X011239Y023050D03*
X010243Y023050D03*
D15*
X011025Y022836D02*
X011025Y022268D01*
X010457Y022268D01*
X010457Y022836D01*
X011025Y022836D01*
X011025Y022330D02*
X010457Y022330D01*
X010457Y022392D02*
X011025Y022392D01*
X011025Y022454D02*
X010457Y022454D01*
X010457Y022516D02*
X011025Y022516D01*
X011025Y022578D02*
X010457Y022578D01*
X010457Y022640D02*
X011025Y022640D01*
X011025Y022702D02*
X010457Y022702D01*
X010457Y022764D02*
X011025Y022764D01*
X011025Y022826D02*
X010457Y022826D01*
D16*
X010209Y023615D03*
X010209Y024284D03*
X009540Y024284D03*
X009540Y023615D03*
X011237Y023615D03*
X011721Y022996D03*
X011906Y023615D03*
X012390Y022996D03*
X013516Y022985D03*
X013516Y022512D03*
X013516Y022040D03*
X013516Y021567D03*
X014185Y021567D03*
X014185Y022040D03*
X014185Y022512D03*
X014185Y022985D03*
X012532Y021567D03*
X011863Y021567D03*
X012099Y021056D03*
X012099Y020504D03*
X011430Y020504D03*
X011430Y021056D03*
X013280Y020504D03*
X013949Y020504D03*
X017689Y021016D03*
X018359Y021016D03*
X020524Y022414D03*
X021193Y022414D03*
X011902Y024284D03*
X011233Y024284D03*
X014556Y004917D03*
X015226Y004917D03*
X015992Y004926D03*
X016661Y004926D03*
X016661Y003784D03*
X015992Y003784D03*
X015224Y003769D03*
X014555Y003769D03*
X014536Y002952D03*
X015205Y002952D03*
X016001Y002952D03*
X016670Y002952D03*
X011971Y002931D03*
X011302Y002931D03*
D17*
X011479Y004044D03*
X011479Y004713D03*
X012180Y004713D03*
X012180Y004044D03*
X012883Y006375D03*
X012883Y007045D03*
X013670Y007045D03*
X013670Y006375D03*
X014458Y006375D03*
X014458Y007045D03*
X009678Y006508D03*
X009678Y005839D03*
X015859Y020642D03*
X015859Y021311D03*
X016685Y021331D03*
X016685Y020662D03*
X013811Y023949D03*
X013811Y024619D03*
X009874Y021705D03*
X009874Y021036D03*
D18*
X003890Y013930D03*
D19*
X019835Y013930D02*
X020780Y013930D01*
X020390Y015996D02*
X021335Y015996D01*
X021335Y011863D02*
X020390Y011863D01*
D20*
X023218Y009796D02*
X024720Y009796D01*
X024720Y018063D02*
X023218Y018063D01*
D21*
X018462Y021971D03*
X018462Y022227D03*
X018462Y022483D03*
X018462Y022739D03*
X016247Y022739D03*
X016247Y022483D03*
X016247Y022227D03*
X016247Y021971D03*
D22*
X017863Y024768D03*
D23*
X017863Y025768D03*
X016863Y025768D03*
X015863Y025768D03*
X015863Y024768D03*
X016863Y024768D03*
D24*
X009205Y022335D03*
X009205Y021666D03*
X011981Y006697D03*
X011981Y006028D03*
X015319Y006083D03*
X015319Y006752D03*
D25*
G36*
X006580Y017025D02*
X006858Y017303D01*
X007246Y016915D01*
X006968Y016637D01*
X006580Y017025D01*
G37*
G36*
X005703Y017373D02*
X005981Y017651D01*
X006369Y017263D01*
X006091Y016985D01*
X005703Y017373D01*
G37*
G36*
X006232Y017902D02*
X006510Y018180D01*
X006898Y017792D01*
X006620Y017514D01*
X006232Y017902D01*
G37*
D26*
X006805Y021213D02*
X007855Y021213D01*
X004855Y021213D02*
X003805Y021213D01*
X003805Y006646D02*
X004855Y006646D01*
X006805Y006646D02*
X007855Y006646D01*
X020005Y006646D02*
X021055Y006646D01*
X023005Y006646D02*
X024055Y006646D01*
X024055Y021213D02*
X023005Y021213D01*
X021055Y021213D02*
X020005Y021213D01*
D27*
G36*
X020336Y023170D02*
X020641Y023475D01*
X020946Y023170D01*
X020641Y022865D01*
X020336Y023170D01*
G37*
G36*
X019361Y024145D02*
X019666Y024450D01*
X019971Y024145D01*
X019666Y023840D01*
X019361Y024145D01*
G37*
G36*
X020614Y025397D02*
X020919Y025702D01*
X021224Y025397D01*
X020919Y025092D01*
X020614Y025397D01*
G37*
G36*
X021588Y024423D02*
X021893Y024728D01*
X022198Y024423D01*
X021893Y024118D01*
X021588Y024423D01*
G37*
D28*
X018556Y004800D03*
X018556Y002989D03*
D29*
X024559Y013930D03*
X007315Y024520D03*
X006528Y003496D03*
D30*
X009776Y024945D03*
X009776Y026205D03*
X011941Y026205D03*
X011941Y024945D03*
D31*
X023103Y008595D03*
X023103Y007847D03*
X023969Y008221D03*
D32*
X019256Y008603D02*
X019232Y008603D01*
X019232Y008627D01*
X019256Y008627D01*
X019256Y008603D01*
X008627Y008603D02*
X008603Y008603D01*
X008603Y008627D01*
X008627Y008627D01*
X008627Y008603D01*
X008627Y019232D02*
X008603Y019232D01*
X008603Y019256D01*
X008627Y019256D01*
X008627Y019232D01*
X019232Y019232D02*
X019256Y019232D01*
X019232Y019232D02*
X019232Y019256D01*
X019256Y019256D01*
X019256Y019232D01*
D33*
X009895Y013930D02*
X009897Y014057D01*
X009903Y014183D01*
X009913Y014310D01*
X009927Y014436D01*
X009945Y014561D01*
X009966Y014686D01*
X009992Y014810D01*
X010022Y014933D01*
X010055Y015056D01*
X010092Y015177D01*
X010134Y015297D01*
X010178Y015415D01*
X010227Y015532D01*
X010279Y015648D01*
X010335Y015762D01*
X010394Y015874D01*
X010457Y015984D01*
X010523Y016092D01*
X010593Y016198D01*
X010666Y016302D01*
X010742Y016403D01*
X010821Y016502D01*
X010903Y016598D01*
X010989Y016692D01*
X011077Y016783D01*
X011168Y016871D01*
X011262Y016957D01*
X011358Y017039D01*
X011457Y017118D01*
X011558Y017194D01*
X011662Y017267D01*
X011768Y017337D01*
X011876Y017403D01*
X011986Y017466D01*
X012098Y017525D01*
X012212Y017581D01*
X012328Y017633D01*
X012445Y017682D01*
X012563Y017726D01*
X012683Y017768D01*
X012804Y017805D01*
X012927Y017838D01*
X013050Y017868D01*
X013174Y017894D01*
X013299Y017915D01*
X013424Y017933D01*
X013550Y017947D01*
X013677Y017957D01*
X013803Y017963D01*
X013930Y017965D01*
X014057Y017963D01*
X014183Y017957D01*
X014310Y017947D01*
X014436Y017933D01*
X014561Y017915D01*
X014686Y017894D01*
X014810Y017868D01*
X014933Y017838D01*
X015056Y017805D01*
X015177Y017768D01*
X015297Y017726D01*
X015415Y017682D01*
X015532Y017633D01*
X015648Y017581D01*
X015762Y017525D01*
X015874Y017466D01*
X015984Y017403D01*
X016092Y017337D01*
X016198Y017267D01*
X016302Y017194D01*
X016403Y017118D01*
X016502Y017039D01*
X016598Y016957D01*
X016692Y016871D01*
X016783Y016783D01*
X016871Y016692D01*
X016957Y016598D01*
X017039Y016502D01*
X017118Y016403D01*
X017194Y016302D01*
X017267Y016198D01*
X017337Y016092D01*
X017403Y015984D01*
X017466Y015874D01*
X017525Y015762D01*
X017581Y015648D01*
X017633Y015532D01*
X017682Y015415D01*
X017726Y015297D01*
X017768Y015177D01*
X017805Y015056D01*
X017838Y014933D01*
X017868Y014810D01*
X017894Y014686D01*
X017915Y014561D01*
X017933Y014436D01*
X017947Y014310D01*
X017957Y014183D01*
X017963Y014057D01*
X017965Y013930D01*
X017963Y013803D01*
X017957Y013677D01*
X017947Y013550D01*
X017933Y013424D01*
X017915Y013299D01*
X017894Y013174D01*
X017868Y013050D01*
X017838Y012927D01*
X017805Y012804D01*
X017768Y012683D01*
X017726Y012563D01*
X017682Y012445D01*
X017633Y012328D01*
X017581Y012212D01*
X017525Y012098D01*
X017466Y011986D01*
X017403Y011876D01*
X017337Y011768D01*
X017267Y011662D01*
X017194Y011558D01*
X017118Y011457D01*
X017039Y011358D01*
X016957Y011262D01*
X016871Y011168D01*
X016783Y011077D01*
X016692Y010989D01*
X016598Y010903D01*
X016502Y010821D01*
X016403Y010742D01*
X016302Y010666D01*
X016198Y010593D01*
X016092Y010523D01*
X015984Y010457D01*
X015874Y010394D01*
X015762Y010335D01*
X015648Y010279D01*
X015532Y010227D01*
X015415Y010178D01*
X015297Y010134D01*
X015177Y010092D01*
X015056Y010055D01*
X014933Y010022D01*
X014810Y009992D01*
X014686Y009966D01*
X014561Y009945D01*
X014436Y009927D01*
X014310Y009913D01*
X014183Y009903D01*
X014057Y009897D01*
X013930Y009895D01*
X013803Y009897D01*
X013677Y009903D01*
X013550Y009913D01*
X013424Y009927D01*
X013299Y009945D01*
X013174Y009966D01*
X013050Y009992D01*
X012927Y010022D01*
X012804Y010055D01*
X012683Y010092D01*
X012563Y010134D01*
X012445Y010178D01*
X012328Y010227D01*
X012212Y010279D01*
X012098Y010335D01*
X011986Y010394D01*
X011876Y010457D01*
X011768Y010523D01*
X011662Y010593D01*
X011558Y010666D01*
X011457Y010742D01*
X011358Y010821D01*
X011262Y010903D01*
X011168Y010989D01*
X011077Y011077D01*
X010989Y011168D01*
X010903Y011262D01*
X010821Y011358D01*
X010742Y011457D01*
X010666Y011558D01*
X010593Y011662D01*
X010523Y011768D01*
X010457Y011876D01*
X010394Y011986D01*
X010335Y012098D01*
X010279Y012212D01*
X010227Y012328D01*
X010178Y012445D01*
X010134Y012563D01*
X010092Y012683D01*
X010055Y012804D01*
X010022Y012927D01*
X009992Y013050D01*
X009966Y013174D01*
X009945Y013299D01*
X009927Y013424D01*
X009913Y013550D01*
X009903Y013677D01*
X009897Y013803D01*
X009895Y013930D01*
D34*
X009071Y011124D03*
X018788Y011124D03*
D35*
X013959Y005420D03*
X013703Y005420D03*
X013447Y005420D03*
X013191Y005420D03*
X013191Y003767D03*
X013447Y003767D03*
X013703Y003767D03*
X013959Y003767D03*
D36*
X013575Y004593D03*
D37*
X022473Y022414D03*
X023300Y022414D03*
D38*
X025504Y019953D03*
X025219Y016786D03*
X025156Y014848D03*
X023201Y016685D03*
X021626Y014914D03*
X020721Y013063D03*
X021784Y012591D03*
X023430Y010945D03*
X025156Y011286D03*
X025248Y007276D03*
X021508Y004205D03*
X020462Y002814D03*
X017558Y002752D03*
X016685Y004284D03*
X015544Y004367D03*
X014401Y004295D03*
X014456Y005776D03*
X015969Y005552D03*
X016331Y006926D03*
X015426Y008418D03*
X015878Y009244D03*
X013752Y008890D03*
X011981Y008215D03*
X011351Y009678D03*
X010524Y006178D03*
X008733Y005622D03*
X009486Y003034D03*
X007414Y002999D03*
X012473Y005390D03*
X012717Y003953D03*
X012993Y002713D03*
X007335Y012571D03*
X008713Y014008D03*
X007138Y015229D03*
X007926Y015859D03*
X009363Y015957D03*
X011725Y018556D03*
X011666Y019678D03*
X012926Y019796D03*
X012709Y020504D03*
X013024Y021587D03*
X014678Y022040D03*
X015034Y021211D03*
X014914Y020662D03*
X015111Y020091D03*
X013890Y019067D03*
X016528Y019638D03*
X017394Y021528D03*
X016902Y022493D03*
X017689Y023181D03*
X019008Y022729D03*
X019225Y021725D03*
X021587Y018772D03*
X018969Y013977D03*
X014678Y022985D03*
X015032Y023300D03*
X015863Y023304D03*
X013701Y023457D03*
X012945Y023930D03*
X013063Y025091D03*
X012836Y026189D03*
X010741Y023457D03*
X008894Y022985D03*
X007959Y024081D03*
X008804Y024717D03*
X008478Y025722D03*
X007100Y025246D03*
X006201Y024287D03*
X002460Y020321D03*
X002335Y018196D03*
X002335Y016321D03*
X005012Y016744D03*
X005265Y018101D03*
X002460Y011821D03*
X002460Y009946D03*
X018469Y026286D03*
X019796Y025130D03*
D39*
X014579Y023457D03*
X014343Y024008D03*
X013083Y022709D03*
X012571Y022394D03*
X012059Y022394D03*
X010883Y022414D03*
X010878Y022689D03*
X010603Y022689D03*
X010603Y022414D03*
X012532Y020819D03*
X012926Y020819D03*
D40*
X011075Y021449D03*
D41*
X010839Y022370D02*
X010883Y022414D01*
X010878Y022689D02*
X010977Y022788D01*
X010977Y022906D01*
X011036Y022965D01*
X011036Y023077D01*
X010510Y022920D02*
X010510Y022782D01*
X010603Y022689D01*
X010520Y022772D01*
X010510Y022920D02*
X010445Y022985D01*
X010445Y023077D01*
D42*
X009933Y021036D02*
X009874Y021036D01*
X012945Y023930D02*
X013792Y023930D01*
X013811Y023949D01*
X013811Y023930D02*
X014244Y023496D01*
X014244Y023004D01*
X013949Y020504D02*
X014855Y019599D01*
X015347Y019599D01*
X020032Y014914D01*
X020977Y014914D01*
X021567Y014323D01*
X021567Y013040D01*
X020390Y011863D01*
X014458Y006375D02*
X013670Y006375D01*
X012883Y006375D01*
X013641Y006375D02*
X013670Y006375D01*
X013191Y005420D02*
X013191Y005243D01*
X013447Y004534D02*
X013447Y004376D01*
X013457Y004367D01*
X015226Y004917D02*
X015347Y004817D01*
X017355Y020819D02*
X017493Y020819D01*
X017689Y021016D01*
X017355Y020819D02*
X016843Y021331D01*
X016685Y021331D01*
D43*
X015386Y022197D03*
X014402Y021095D03*
X013185Y023433D03*
X010772Y023926D03*
X010701Y024485D03*
X021729Y011079D03*
D44*
X012394Y023378D03*
D45*
X013811Y023930D02*
X013811Y023949D01*
X013811Y024619D02*
X014343Y024619D01*
X015032Y023930D01*
X015032Y023300D01*
X014244Y023004D02*
X014185Y022985D01*
X018788Y011124D02*
X015694Y008031D01*
X015694Y008149D01*
X015426Y008418D01*
X015694Y008031D02*
X015319Y007656D01*
X015319Y006752D01*
X018556Y004800D02*
X020941Y004800D01*
X022040Y005898D01*
X022040Y007788D01*
X022138Y007886D01*
X022237Y007985D01*
X022237Y010229D01*
X022138Y007886D02*
X023024Y007886D01*
X011981Y008024D02*
X011981Y006697D01*
X011981Y008024D02*
X011981Y008215D01*
X009071Y011124D01*
X008615Y008615D02*
X009678Y007552D01*
X009678Y006508D01*
D46*
X007330Y006646D02*
X004330Y006646D01*
X001528Y009448D01*
X001528Y018411D01*
X004330Y021213D01*
X007330Y021213D01*
X009205Y021666D02*
X009244Y021705D01*
X009874Y021705D01*
X009874Y021036D02*
X010741Y020170D01*
X010741Y018339D01*
X009363Y016961D01*
X006922Y016961D01*
X006913Y016970D01*
X003890Y013947D01*
X003890Y013930D01*
X017355Y018496D02*
X017355Y020819D01*
X017355Y018496D02*
X018536Y017315D01*
X021705Y017315D01*
X022237Y016784D01*
X022237Y010229D01*
X023969Y009796D02*
X023969Y008221D01*
X023103Y007847D02*
X023024Y007886D01*
X023969Y018063D02*
X023530Y018503D01*
X023530Y021213D01*
X020530Y021213D01*
M02*
