%
M48
M72
T01C0.0100
T02C0.0118
T03C0.0157
T04C0.0197
T05C0.0236
T06C0.0400
T07C0.0630
T08C0.0700
T09C0.0787
T10C0.1102
T11C0.1260
%
T01
X12562Y20849
X12956Y20849
X12601Y22424
X12089Y22424
X11105Y21519
X10913Y22444
X10908Y22719
X10633Y22719
X10633Y22444
X13113Y22739
X14609Y23487
X14373Y24038
X16774Y20967
X17601Y20967
X15790Y20928
T02
X12424Y23408
T03
X14334Y3999
T04
X15534Y2188
X11204Y2877
X8054Y2070
X21759Y11109
X14432Y21125
X15416Y22227
X16912Y22680
X17924Y23975
X18802Y23349
X19471Y21952
X22306Y24215
X20849Y25160
X14247Y25830
X14117Y27089
X10731Y24515
X10802Y23956
X13215Y23463
T05
X5692Y3664
X6790Y2802
X9668Y4353
X8763Y5652
X10554Y6400
X11420Y4188
X11030Y3542
X10456Y1873
X11755Y798
X12306Y1912
X13369Y2267
X13723Y613
X16058Y782
X17168Y1794
X18074Y2030
X18113Y4078
X19570Y4235
X21538Y4235
X25278Y7306
X25436Y8743
X26853Y11282
X23164Y11015
X22188Y9432
X21322Y10062
X20274Y10987
X21814Y12621
X20751Y13093
X18999Y14007
X18428Y16243
X19605Y16562
X20790Y17149
X21617Y18802
X22936Y15928
X21656Y14944
X22865Y13853
X27011Y15731
X26026Y19511
X20534Y23487
X19944Y23818
X19471Y23211
X18172Y23251
X17306Y24117
X16928Y24448
X16322Y23349
X15534Y23586
X15062Y23330
X14708Y23015
X14708Y22070
X15064Y21241
X14944Y20692
X15141Y20121
X13920Y19097
X12956Y19826
X12739Y20534
X13054Y21617
X13731Y23487
X13369Y23960
X12971Y24830
X12818Y25818
X11731Y27019
X12747Y27204
X10991Y25719
X10578Y26751
X8834Y24747
X7989Y24111
X8924Y23015
X9353Y22582
X10771Y23487
X7802Y25530
X6755Y24963
X5731Y24255
X2582Y19885
X3487Y17956
X5475Y16952
X7168Y15259
X7956Y15889
X9393Y15987
X8743Y14038
X6794Y12070
X11420Y9471
X13011Y6184
X13369Y5101
X13369Y4235
X14589Y5235
X15278Y5475
X16341Y6479
X16007Y7345
X16834Y7385
X15908Y9274
X15790Y3920
X15771Y3487
X2503Y8428
X1400Y11538
X1400Y16420
X6420Y18881
X11105Y20023
X11853Y19235
X11479Y18389
X16361Y18428
X16637Y19924
X15534Y24452
X15416Y25318
X15613Y26263
X17109Y26853
X19196Y26223
T06
X18424Y25956
X18424Y24956
X17424Y24956
X17424Y25956
X16424Y25956
X16424Y24956
T07
X20420Y16026
X19865Y13960
X20420Y11893
T08
X20560Y6676
X23560Y6676
X23560Y21243
X20560Y21243
X7360Y21243
X4360Y21243
X4360Y6676
X7360Y6676
T09
X9090Y9090
X18830Y9090
X18830Y18830
X9090Y18830
T10
X23999Y18093
X23999Y9826
T11
X6086Y10416
X3920Y13960
M30
