%
M48
M72
T01C0.0236
T02C0.0354
T03C0.0400
T04C0.0440
T05C0.0630
T06C0.0700
T07C0.0787
T08C0.1102
T09C0.1260
%
T01
X1322Y1341
X3802Y2424
X10121Y1341
X18684Y1381
X26735Y4156
X28487Y1263
X31184Y3507
X31086Y8074
X29235Y9668
X22050Y7975
X14196Y13664
X15377Y14412
X13231Y16519
X12562Y17089
X11794Y16617
X12463Y15790
X11814Y15337
X11499Y14058
X11676Y13133
X11086Y13093
X10377Y13349
X9609Y12798
X9649Y14038
X9117Y14255
X9097Y14944
X9058Y15652
X9708Y15830
X10160Y16676
X10416Y17365
X10692Y17818
X9491Y17109
X7680Y17897
X7227Y16991
X7050Y16145
X5593Y17149
X5593Y18152
X5593Y19176
X7149Y21007
X8408Y21007
X8448Y19589
X9471Y19629
X13034Y19668
X14097Y17345
X15731Y16932
X11676Y11145
X8920Y10633
X7778Y10278
X7523Y12227
X7070Y13684
X1223Y9747
X1046Y22542
X1263Y30790
X1420Y38448
X16223Y38526
X26873Y38526
X39609Y38664
X50771Y38448
X57129Y38487
X57247Y30908
X47660Y28960
X46400Y28960
X44904Y28251
X45672Y26538
X43605Y26204
X47523Y25003
X47582Y27641
X57070Y22582
X46637Y15141
X49334Y8290
X49353Y6519
X47024Y6905
X47030Y5633
X48881Y4708
X48507Y4117
X46381Y3704
X47306Y1243
X56991Y1538
X56991Y8034
X56912Y14806
X38172Y8251
T02
X14727Y11834
X12956Y13605
T03
X8234Y8367
X3790Y5713
X12546Y2319
X2070Y12680
X2170Y13680
X2070Y14680
X2170Y15680
X2070Y16680
X2170Y17680
X2070Y18680
X2170Y19680
X2070Y20680
X2170Y21680
X10734Y21869
X14926Y20589
X13274Y25833
X53754Y25480
X53754Y26480
X54754Y26480
X54754Y25480
X54754Y27480
X53754Y27480
X54751Y30984
X54377Y3309
T04
X34215Y31474
X33215Y31474
T05
X35475Y17247
X34920Y15180
X35475Y13113
T06
X35754Y35480
X38754Y35480
X31154Y35480
X28154Y35480
X14954Y35480
X11954Y35480
X51954Y35480
X54954Y35480
T07
X33924Y20050
X24184Y20050
X24184Y10310
X33924Y10310
T08
X39054Y11046
X39054Y19314
T09
X33974Y12350
X24134Y12350
X18954Y15180
M30
