G75*
%MOIN*%
%OFA0B0*%
%FSLAX24Y24*%
%IPPOS*%
%LPD*%
%AMOC8*
5,1,8,0,0,1.08239X$1,22.5*
%
%ADD10C,0.0727*%
%ADD11C,0.1890*%
%ADD12C,0.0640*%
%ADD13R,0.0591X0.0512*%
%ADD14R,0.0472X0.0217*%
%ADD15R,0.0512X0.0591*%
%ADD16R,0.0394X0.0551*%
%ADD17R,0.0177X0.0394*%
%ADD18C,0.0660*%
%ADD19C,0.1300*%
%ADD20C,0.3937*%
%ADD21OC8,0.0760*%
%ADD22OC8,0.0600*%
%ADD23C,0.0160*%
%ADD24C,0.0354*%
%ADD25C,0.0240*%
%ADD26C,0.0120*%
%ADD27C,0.0320*%
D10*
X015928Y006528D02*
X016656Y006528D01*
X019471Y006135D02*
X020199Y006135D01*
X029314Y014796D02*
X030041Y014796D01*
X032070Y015977D02*
X032797Y015977D01*
X032797Y017946D02*
X032070Y017946D01*
X032070Y019914D02*
X032797Y019914D01*
X034432Y022080D02*
X035159Y022080D01*
X028073Y018733D02*
X027345Y018733D01*
X034432Y013812D02*
X035159Y013812D01*
X028526Y028242D02*
X028526Y028969D01*
X027739Y029363D02*
X027012Y029363D01*
X024530Y030938D02*
X023802Y030938D01*
X023015Y030544D02*
X022287Y030544D01*
X021834Y029363D02*
X021106Y029363D01*
X023015Y029363D02*
X023742Y029363D01*
X029708Y028576D02*
X030435Y028576D01*
X013348Y021725D02*
X012621Y021725D01*
X012542Y019087D02*
X013270Y019087D01*
D11*
X041798Y013143D03*
X042979Y014993D03*
X044121Y013143D03*
D12*
X034056Y030804D03*
X033056Y030804D03*
X033056Y031804D03*
X034056Y031804D03*
X034056Y032804D03*
X033056Y032804D03*
D13*
X029757Y026971D03*
X029757Y026302D03*
X029757Y025446D03*
X029757Y024776D03*
X030446Y022985D03*
X030446Y022316D03*
X030446Y020820D03*
X029658Y020820D03*
X029658Y020150D03*
X030446Y020150D03*
X028871Y020150D03*
X028084Y020150D03*
X028084Y020820D03*
X028871Y020820D03*
X034432Y018458D03*
X034432Y017788D03*
X034235Y026204D03*
X034235Y026873D03*
X035121Y026873D03*
X035121Y026204D03*
X011794Y030977D03*
X011794Y031647D03*
X010859Y031647D03*
X010859Y030977D03*
X009855Y030977D03*
X009855Y031647D03*
X008841Y031647D03*
X008841Y030977D03*
X007857Y030977D03*
X007857Y031647D03*
X006824Y031647D03*
X006824Y030977D03*
X005790Y030977D03*
X005790Y031647D03*
X004215Y031647D03*
X004215Y030977D03*
D14*
X030524Y026174D03*
X030524Y025426D03*
X031548Y025426D03*
X031548Y025800D03*
X031548Y026174D03*
D15*
X032621Y025406D03*
X033290Y025406D03*
X028910Y026145D03*
X028241Y026145D03*
D16*
X028202Y025397D03*
X028950Y025397D03*
X028576Y024530D03*
D17*
X028684Y023261D03*
X028940Y023261D03*
X029196Y023261D03*
X029452Y023261D03*
X029452Y021647D03*
X029196Y021647D03*
X028940Y021647D03*
X028684Y021647D03*
D18*
X041870Y008773D03*
X042650Y008773D03*
X042650Y007788D03*
X041870Y007788D03*
D19*
X043720Y005910D03*
X043720Y010650D03*
D20*
X006086Y011233D03*
D21*
X001154Y011233D03*
D22*
X003828Y033469D03*
X004828Y033469D03*
X005828Y033469D03*
X006828Y033469D03*
X007828Y033469D03*
X008828Y033469D03*
X009828Y033469D03*
X010828Y033469D03*
X011828Y033469D03*
X012828Y033469D03*
X013828Y033469D03*
X014828Y033469D03*
X015828Y033469D03*
X016828Y033469D03*
X017828Y033469D03*
X018828Y033469D03*
X019828Y033469D03*
X020828Y033469D03*
X021828Y033469D03*
X022828Y033469D03*
X022828Y034469D03*
X021828Y034469D03*
X020828Y034469D03*
X019828Y034469D03*
X018828Y034469D03*
X017828Y034469D03*
X016828Y034469D03*
X015828Y034469D03*
X014828Y034469D03*
X013828Y034469D03*
X012828Y034469D03*
X011828Y034469D03*
X010828Y034469D03*
X009828Y034469D03*
X008828Y034469D03*
X007828Y034469D03*
X006828Y034469D03*
X005828Y034469D03*
X004828Y034469D03*
X003828Y034469D03*
D23*
X000490Y035353D02*
X000490Y000540D01*
X047901Y000588D01*
X047901Y035401D01*
X000490Y035353D01*
X000490Y035337D02*
X047901Y035337D01*
X047901Y035178D02*
X047041Y035178D01*
X046985Y035201D02*
X046643Y035201D01*
X046327Y035070D01*
X046085Y034829D01*
X045954Y034512D01*
X045954Y034170D01*
X046085Y033854D01*
X046327Y033612D01*
X046643Y033481D01*
X046985Y033481D01*
X047301Y033612D01*
X047543Y033854D01*
X047674Y034170D01*
X047674Y034512D01*
X047543Y034829D01*
X047301Y035070D01*
X046985Y035201D01*
X046586Y035178D02*
X037041Y035178D01*
X036985Y035201D02*
X036643Y035201D01*
X036327Y035070D01*
X036085Y034829D01*
X035954Y034512D01*
X035954Y034170D01*
X036085Y033854D01*
X036327Y033612D01*
X036643Y033481D01*
X036985Y033481D01*
X037301Y033612D01*
X037543Y033854D01*
X037674Y034170D01*
X037674Y034512D01*
X037543Y034829D01*
X037301Y035070D01*
X036985Y035201D01*
X036586Y035178D02*
X000490Y035178D01*
X000490Y035020D02*
X036276Y035020D01*
X036117Y034861D02*
X023058Y034861D01*
X023010Y034909D02*
X022645Y034909D01*
X022388Y034652D01*
X022388Y034287D01*
X022645Y034029D01*
X023010Y034029D01*
X023268Y034287D01*
X023268Y034652D01*
X023010Y034909D01*
X023217Y034703D02*
X024454Y034703D01*
X024593Y034760D02*
X024310Y034643D01*
X024093Y034426D01*
X023976Y034142D01*
X023976Y033836D01*
X024093Y033552D01*
X024310Y033335D01*
X024593Y033218D01*
X024900Y033218D01*
X025184Y033335D01*
X025401Y033552D01*
X025518Y033836D01*
X025518Y034142D01*
X025401Y034426D01*
X025184Y034643D01*
X024900Y034760D01*
X024593Y034760D01*
X024211Y034544D02*
X023268Y034544D01*
X023268Y034386D02*
X024076Y034386D01*
X024011Y034227D02*
X023208Y034227D01*
X023049Y034069D02*
X023976Y034069D01*
X023976Y033910D02*
X023066Y033910D01*
X023026Y033949D02*
X022848Y033949D01*
X022848Y033489D01*
X023308Y033489D01*
X023308Y033668D01*
X023026Y033949D01*
X022848Y033910D02*
X022808Y033910D01*
X022808Y033949D02*
X022629Y033949D01*
X022348Y033668D01*
X022348Y033489D01*
X022808Y033489D01*
X022808Y033449D01*
X022848Y033449D01*
X022848Y033489D01*
X022808Y033489D01*
X022808Y033949D01*
X022808Y033752D02*
X022848Y033752D01*
X022848Y033593D02*
X022808Y033593D01*
X022808Y033449D02*
X022348Y033449D01*
X022348Y033271D01*
X022629Y032989D01*
X022808Y032989D01*
X022808Y033449D01*
X022808Y033435D02*
X022848Y033435D01*
X022848Y033449D02*
X022848Y032989D01*
X023026Y032989D01*
X023308Y033271D01*
X023308Y033449D01*
X022848Y033449D01*
X022848Y033276D02*
X022808Y033276D01*
X022808Y033118D02*
X022848Y033118D01*
X023155Y033118D02*
X032719Y033118D01*
X032666Y033065D02*
X032596Y032896D01*
X032596Y032713D01*
X032666Y032543D01*
X032795Y032414D01*
X032964Y032344D01*
X033147Y032344D01*
X033317Y032414D01*
X033446Y032543D01*
X033516Y032713D01*
X033516Y032896D01*
X033446Y033065D01*
X033317Y033194D01*
X033147Y033264D01*
X032964Y033264D01*
X032795Y033194D01*
X032666Y033065D01*
X032622Y032959D02*
X012556Y032959D01*
X012645Y033029D02*
X012556Y033119D01*
X012556Y031024D01*
X012427Y030895D01*
X012408Y030876D01*
X012279Y030747D01*
X012229Y030747D01*
X012229Y030663D01*
X012147Y030581D01*
X012014Y030581D01*
X012014Y029375D01*
X012063Y029326D01*
X012111Y029210D01*
X012111Y029083D01*
X012063Y028967D01*
X011974Y028878D01*
X011857Y028829D01*
X011731Y028829D01*
X011615Y028878D01*
X011525Y028967D01*
X011477Y029083D01*
X011477Y029210D01*
X011525Y029326D01*
X011574Y029375D01*
X011574Y030581D01*
X011441Y030581D01*
X011359Y030663D01*
X011359Y031291D01*
X011380Y031312D01*
X011359Y031333D01*
X011359Y031960D01*
X011441Y032042D01*
X011574Y032042D01*
X011574Y033101D01*
X011388Y033287D01*
X011388Y033652D01*
X011485Y033749D01*
X011211Y033749D01*
X011082Y033878D01*
X010931Y034029D01*
X010645Y034029D01*
X010388Y034287D01*
X010388Y034652D01*
X010645Y034909D01*
X011010Y034909D01*
X011268Y034652D01*
X011268Y034315D01*
X011393Y034189D01*
X011485Y034189D01*
X011388Y034287D01*
X011388Y034652D01*
X011645Y034909D01*
X012010Y034909D01*
X012268Y034652D01*
X012268Y034287D01*
X012170Y034189D01*
X012328Y034189D01*
X012427Y034091D01*
X012556Y033962D01*
X012556Y033819D01*
X012645Y033909D01*
X013010Y033909D01*
X013268Y033652D01*
X013268Y033287D01*
X013010Y033029D01*
X012645Y033029D01*
X012556Y033118D02*
X012557Y033118D01*
X012556Y032801D02*
X032596Y032801D01*
X032625Y032642D02*
X012556Y032642D01*
X012556Y032484D02*
X032726Y032484D01*
X032795Y032194D02*
X032666Y032065D01*
X032649Y032024D01*
X023711Y032024D01*
X023582Y031895D01*
X022795Y031108D01*
X022795Y031048D01*
X022187Y031048D01*
X022002Y030971D01*
X021860Y030830D01*
X021783Y030644D01*
X021783Y030444D01*
X021860Y030259D01*
X022002Y030117D01*
X022187Y030040D01*
X023115Y030040D01*
X023300Y030117D01*
X023442Y030259D01*
X023518Y030444D01*
X023518Y030510D01*
X023702Y030434D01*
X024630Y030434D01*
X024815Y030511D01*
X024957Y030653D01*
X024984Y030718D01*
X028637Y030718D01*
X028766Y030847D01*
X029110Y031190D01*
X032274Y031190D01*
X032372Y031092D01*
X032555Y031092D01*
X032575Y031112D01*
X032713Y031112D01*
X032666Y031065D01*
X032649Y031024D01*
X029089Y031024D01*
X027905Y029840D01*
X027839Y029867D01*
X026911Y029867D01*
X026726Y029790D01*
X026584Y029648D01*
X026508Y029463D01*
X026508Y029263D01*
X026584Y029078D01*
X026726Y028936D01*
X026911Y028859D01*
X027839Y028859D01*
X028023Y028935D01*
X028023Y028906D01*
X027518Y028402D01*
X022869Y028402D01*
X022801Y028471D01*
X022684Y028519D01*
X022558Y028519D01*
X022441Y028471D01*
X022352Y028381D01*
X022304Y028265D01*
X022304Y028139D01*
X022352Y028022D01*
X022441Y027933D01*
X022558Y027884D01*
X022684Y027884D01*
X022801Y027933D01*
X022869Y028002D01*
X027684Y028002D01*
X027801Y028119D01*
X028023Y028340D01*
X028023Y028142D01*
X028099Y027957D01*
X028241Y027815D01*
X028426Y027738D01*
X028627Y027738D01*
X028713Y027774D01*
X028140Y027201D01*
X028011Y027072D01*
X028011Y026580D01*
X027927Y026580D01*
X027845Y026498D01*
X027845Y026365D01*
X023007Y026365D01*
X022054Y027318D01*
X022054Y028909D01*
X022119Y028936D01*
X022261Y029078D01*
X022337Y029263D01*
X022337Y029463D01*
X022261Y029648D01*
X022119Y029790D01*
X021934Y029867D01*
X021006Y029867D01*
X020821Y029790D01*
X020679Y029648D01*
X020602Y029463D01*
X020602Y029263D01*
X020679Y029078D01*
X020821Y028936D01*
X021006Y028859D01*
X021614Y028859D01*
X021614Y027136D01*
X021742Y027007D01*
X022696Y026053D01*
X022825Y025925D01*
X027845Y025925D01*
X027845Y025791D01*
X027886Y025751D01*
X027865Y025730D01*
X027865Y025063D01*
X027947Y024981D01*
X028456Y024981D01*
X028539Y025063D01*
X028539Y025709D01*
X028555Y025709D01*
X028576Y025730D01*
X028596Y025709D01*
X028613Y025709D01*
X028613Y025063D01*
X028695Y024981D01*
X029205Y024981D01*
X029282Y025059D01*
X029281Y025056D01*
X029281Y024824D01*
X029709Y024824D01*
X029709Y024729D01*
X029281Y024729D01*
X029281Y024497D01*
X029294Y024451D01*
X029317Y024410D01*
X029351Y024377D01*
X029392Y024353D01*
X029438Y024341D01*
X029709Y024341D01*
X029709Y024728D01*
X029805Y024728D01*
X029805Y024341D01*
X030076Y024341D01*
X030122Y024353D01*
X030163Y024377D01*
X030196Y024410D01*
X030220Y024451D01*
X030232Y024497D01*
X030232Y024729D01*
X029805Y024729D01*
X029805Y024824D01*
X030232Y024824D01*
X030232Y025056D01*
X030220Y025102D01*
X030196Y025143D01*
X030192Y025147D01*
X030192Y025216D01*
X030230Y025178D01*
X030819Y025178D01*
X030901Y025260D01*
X030901Y025592D01*
X030819Y025674D01*
X030230Y025674D01*
X030202Y025646D01*
X030192Y025646D01*
X030192Y025760D01*
X030110Y025842D01*
X029404Y025842D01*
X029321Y025760D01*
X029321Y025147D01*
X029317Y025143D01*
X029294Y025102D01*
X029287Y025075D01*
X029287Y025730D01*
X029266Y025751D01*
X029306Y025791D01*
X029306Y025945D01*
X029365Y025945D01*
X029404Y025906D01*
X030110Y025906D01*
X030180Y025976D01*
X030230Y025926D01*
X030819Y025926D01*
X030901Y026008D01*
X030901Y026340D01*
X030819Y026422D01*
X030559Y026422D01*
X030479Y026502D01*
X030192Y026502D01*
X030192Y026601D01*
X030196Y026605D01*
X030220Y026646D01*
X030232Y026692D01*
X030232Y026923D01*
X029805Y026923D01*
X029805Y027019D01*
X030232Y027019D01*
X030232Y027251D01*
X030220Y027297D01*
X030196Y027338D01*
X030163Y027371D01*
X030122Y027395D01*
X030076Y027407D01*
X029805Y027407D01*
X029805Y027019D01*
X029709Y027019D01*
X029709Y026923D01*
X029281Y026923D01*
X029281Y026692D01*
X029294Y026646D01*
X029317Y026605D01*
X029321Y026601D01*
X029321Y026345D01*
X029306Y026345D01*
X029306Y026498D01*
X029224Y026580D01*
X028596Y026580D01*
X028576Y026559D01*
X028555Y026580D01*
X028451Y026580D01*
X028451Y026890D01*
X029159Y027598D01*
X032991Y027598D01*
X032991Y027465D01*
X032982Y027456D01*
X032934Y027340D01*
X032934Y027213D01*
X032982Y027097D01*
X033071Y027008D01*
X033188Y026959D01*
X033314Y026959D01*
X033431Y027008D01*
X033520Y027097D01*
X033568Y027213D01*
X033568Y027340D01*
X033520Y027456D01*
X033511Y027465D01*
X033511Y027771D01*
X033483Y027838D01*
X034276Y028630D01*
X034276Y030397D01*
X034317Y030414D01*
X034446Y030543D01*
X034516Y030713D01*
X034516Y030896D01*
X034446Y031065D01*
X034317Y031194D01*
X034147Y031264D01*
X033964Y031264D01*
X033795Y031194D01*
X033666Y031065D01*
X033596Y030896D01*
X033596Y030713D01*
X033666Y030543D01*
X033795Y030414D01*
X033836Y030397D01*
X033836Y028812D01*
X033101Y028078D01*
X033005Y028038D01*
X033005Y028038D01*
X028987Y028038D01*
X029030Y028142D01*
X029030Y029070D01*
X028954Y029255D01*
X028812Y029396D01*
X028627Y029473D01*
X028426Y029473D01*
X028243Y029397D01*
X028243Y029463D01*
X028216Y029529D01*
X029271Y030584D01*
X032649Y030584D01*
X032666Y030543D01*
X032795Y030414D01*
X032964Y030344D01*
X033147Y030344D01*
X033317Y030414D01*
X033446Y030543D01*
X033516Y030713D01*
X033516Y030896D01*
X033446Y031065D01*
X033399Y031112D01*
X033647Y031112D01*
X033904Y031369D01*
X033964Y031344D01*
X034147Y031344D01*
X034317Y031414D01*
X034446Y031543D01*
X034516Y031713D01*
X034516Y031896D01*
X034446Y032065D01*
X034317Y032194D01*
X034147Y032264D01*
X033964Y032264D01*
X033795Y032194D01*
X033666Y032065D01*
X033596Y031896D01*
X033596Y031713D01*
X033621Y031652D01*
X033481Y031512D01*
X033414Y031512D01*
X033446Y031543D01*
X033516Y031713D01*
X033516Y031896D01*
X033446Y032065D01*
X033317Y032194D01*
X033147Y032264D01*
X032964Y032264D01*
X032795Y032194D01*
X032768Y032167D02*
X012556Y032167D01*
X012556Y032325D02*
X033912Y032325D01*
X033939Y032316D02*
X034017Y032304D01*
X034047Y032304D01*
X034047Y032795D01*
X034065Y032795D01*
X034065Y032813D01*
X034556Y032813D01*
X034556Y032843D01*
X034544Y032921D01*
X034519Y032996D01*
X034484Y033066D01*
X034437Y033130D01*
X034382Y033185D01*
X034318Y033232D01*
X034248Y033267D01*
X034173Y033292D01*
X034095Y033304D01*
X034065Y033304D01*
X034065Y032813D01*
X034047Y032813D01*
X034047Y033304D01*
X034017Y033304D01*
X033939Y033292D01*
X033864Y033267D01*
X033794Y033232D01*
X033730Y033185D01*
X033675Y033130D01*
X033628Y033066D01*
X033593Y032996D01*
X033568Y032921D01*
X033556Y032843D01*
X033556Y032813D01*
X034047Y032813D01*
X034047Y032795D01*
X033556Y032795D01*
X033556Y032765D01*
X033568Y032687D01*
X033593Y032612D01*
X033628Y032542D01*
X033675Y032478D01*
X033730Y032423D01*
X033794Y032376D01*
X033864Y032341D01*
X033939Y032316D01*
X034047Y032325D02*
X034065Y032325D01*
X034065Y032304D02*
X034095Y032304D01*
X034173Y032316D01*
X034248Y032341D01*
X034318Y032376D01*
X034382Y032423D01*
X034437Y032478D01*
X034484Y032542D01*
X034519Y032612D01*
X034544Y032687D01*
X034556Y032765D01*
X034556Y032795D01*
X034065Y032795D01*
X034065Y032304D01*
X034200Y032325D02*
X047901Y032325D01*
X047901Y032167D02*
X034344Y032167D01*
X034469Y032008D02*
X047901Y032008D01*
X047901Y031850D02*
X034516Y031850D01*
X034507Y031691D02*
X047901Y031691D01*
X047901Y031533D02*
X034435Y031533D01*
X034220Y031374D02*
X047901Y031374D01*
X047901Y031216D02*
X034265Y031216D01*
X034449Y031057D02*
X047901Y031057D01*
X047901Y030899D02*
X034515Y030899D01*
X034516Y030740D02*
X047901Y030740D01*
X047901Y030581D02*
X034462Y030581D01*
X034326Y030423D02*
X047901Y030423D01*
X047901Y030264D02*
X034276Y030264D01*
X034276Y030106D02*
X047901Y030106D01*
X047901Y029947D02*
X034276Y029947D01*
X034276Y029789D02*
X047901Y029789D01*
X047901Y029630D02*
X034276Y029630D01*
X034276Y029472D02*
X047901Y029472D01*
X047901Y029313D02*
X034276Y029313D01*
X034276Y029155D02*
X047901Y029155D01*
X047901Y028996D02*
X034276Y028996D01*
X034276Y028838D02*
X047901Y028838D01*
X047901Y028679D02*
X034276Y028679D01*
X034167Y028521D02*
X047901Y028521D01*
X047901Y028362D02*
X034008Y028362D01*
X033850Y028204D02*
X047901Y028204D01*
X047901Y028045D02*
X033691Y028045D01*
X033533Y027887D02*
X047901Y027887D01*
X047901Y027728D02*
X033511Y027728D01*
X033511Y027570D02*
X047901Y027570D01*
X047901Y027411D02*
X033538Y027411D01*
X033568Y027253D02*
X033809Y027253D01*
X033796Y027239D02*
X033772Y027198D01*
X033760Y027153D01*
X033760Y026921D01*
X034187Y026921D01*
X034187Y026825D01*
X033760Y026825D01*
X033760Y026593D01*
X033772Y026548D01*
X033796Y026506D01*
X033800Y026502D01*
X033800Y026424D01*
X031487Y026424D01*
X031485Y026422D01*
X031254Y026422D01*
X031172Y026340D01*
X031172Y026023D01*
X031168Y026019D01*
X031144Y025978D01*
X031132Y025932D01*
X031132Y025800D01*
X031132Y025668D01*
X030825Y025668D01*
X030901Y025509D02*
X031172Y025509D01*
X031172Y025577D02*
X031172Y025260D01*
X031254Y025178D01*
X031328Y025178D01*
X031328Y024976D01*
X031240Y024888D01*
X031014Y024888D01*
X031010Y024897D01*
X030921Y024986D01*
X030804Y025035D01*
X030678Y025035D01*
X030561Y024986D01*
X030472Y024897D01*
X030424Y024780D01*
X030424Y024654D01*
X030472Y024538D01*
X030561Y024449D01*
X030678Y024400D01*
X030804Y024400D01*
X030920Y024448D01*
X031423Y024448D01*
X031552Y024577D01*
X031768Y024794D01*
X031768Y025178D01*
X031842Y025178D01*
X031871Y025206D01*
X032225Y025206D01*
X032225Y025053D01*
X032307Y024971D01*
X032920Y024971D01*
X032924Y024967D01*
X032965Y024943D01*
X033011Y024931D01*
X033242Y024931D01*
X033242Y025358D01*
X033338Y025358D01*
X033338Y024931D01*
X033570Y024931D01*
X033616Y024943D01*
X033657Y024967D01*
X033690Y025001D01*
X033714Y025042D01*
X033726Y025087D01*
X033726Y025358D01*
X033338Y025358D01*
X033338Y025454D01*
X033726Y025454D01*
X033726Y025725D01*
X033714Y025771D01*
X033690Y025812D01*
X033657Y025846D01*
X033616Y025869D01*
X033570Y025882D01*
X033338Y025882D01*
X033338Y025454D01*
X033242Y025454D01*
X033242Y025882D01*
X033011Y025882D01*
X032965Y025869D01*
X032924Y025846D01*
X032920Y025842D01*
X032307Y025842D01*
X032225Y025760D01*
X032225Y025646D01*
X031958Y025646D01*
X031964Y025668D01*
X032225Y025668D01*
X032292Y025826D02*
X031964Y025826D01*
X031964Y025800D02*
X031964Y025932D01*
X031952Y025978D01*
X031949Y025984D01*
X033800Y025984D01*
X033800Y025890D01*
X033882Y025808D01*
X034588Y025808D01*
X034670Y025890D01*
X034670Y025904D01*
X034686Y025904D01*
X034686Y025890D01*
X034768Y025808D01*
X035474Y025808D01*
X035511Y025845D01*
X039396Y025845D01*
X039438Y025827D01*
X039564Y025827D01*
X039681Y025876D01*
X039770Y025965D01*
X039818Y026081D01*
X039818Y026208D01*
X039770Y026324D01*
X039681Y026413D01*
X039564Y026462D01*
X039438Y026462D01*
X039396Y026445D01*
X035556Y026445D01*
X035556Y026502D01*
X035560Y026506D01*
X035584Y026548D01*
X035596Y026593D01*
X035596Y026825D01*
X035169Y026825D01*
X035169Y026921D01*
X035073Y026921D01*
X035073Y027309D01*
X034802Y027309D01*
X034756Y027297D01*
X034715Y027273D01*
X034682Y027239D01*
X034678Y027233D01*
X034674Y027239D01*
X034641Y027273D01*
X034600Y027297D01*
X034554Y027309D01*
X034283Y027309D01*
X034283Y026921D01*
X034187Y026921D01*
X034187Y027309D01*
X033916Y027309D01*
X033870Y027297D01*
X033829Y027273D01*
X033796Y027239D01*
X033760Y027094D02*
X033517Y027094D01*
X033760Y026936D02*
X029805Y026936D01*
X029709Y026936D02*
X028497Y026936D01*
X028451Y026777D02*
X029281Y026777D01*
X029309Y026619D02*
X028451Y026619D01*
X028231Y026981D02*
X028231Y026154D01*
X028241Y026145D01*
X022916Y026145D01*
X021834Y027227D01*
X021834Y029363D01*
X022293Y029155D02*
X022556Y029155D01*
X022588Y029078D02*
X022729Y028936D01*
X022914Y028859D01*
X023842Y028859D01*
X024027Y028936D01*
X024169Y029078D01*
X024246Y029263D01*
X024246Y029463D01*
X024169Y029648D01*
X024027Y029790D01*
X023842Y029867D01*
X022914Y029867D01*
X022729Y029790D01*
X022588Y029648D01*
X022511Y029463D01*
X022511Y029263D01*
X022588Y029078D01*
X022669Y028996D02*
X022179Y028996D01*
X022054Y028838D02*
X027955Y028838D01*
X027796Y028679D02*
X022054Y028679D01*
X022054Y028521D02*
X027638Y028521D01*
X027886Y028204D02*
X028023Y028204D01*
X028063Y028045D02*
X027728Y028045D01*
X028169Y027887D02*
X022690Y027887D01*
X022552Y027887D02*
X022054Y027887D01*
X022054Y028045D02*
X022342Y028045D01*
X022304Y028204D02*
X022054Y028204D01*
X022054Y028362D02*
X022344Y028362D01*
X022054Y027728D02*
X028667Y027728D01*
X028509Y027570D02*
X022054Y027570D01*
X022054Y027411D02*
X028350Y027411D01*
X028192Y027253D02*
X022119Y027253D01*
X022277Y027094D02*
X028033Y027094D01*
X028011Y026936D02*
X022436Y026936D01*
X022594Y026777D02*
X028011Y026777D01*
X028011Y026619D02*
X022753Y026619D01*
X022911Y026460D02*
X027845Y026460D01*
X027985Y026145D02*
X028241Y026145D01*
X027845Y025826D02*
X005567Y025826D01*
X005567Y025668D02*
X025839Y025668D01*
X025846Y025684D02*
X025798Y025568D01*
X025798Y025442D01*
X025846Y025325D01*
X025895Y025276D01*
X025895Y023642D01*
X028011Y021526D01*
X028140Y021397D01*
X028455Y021397D01*
X028455Y021392D01*
X028537Y021310D01*
X028671Y021310D01*
X028671Y021216D01*
X028518Y021216D01*
X028477Y021175D01*
X028437Y021216D01*
X027730Y021216D01*
X027648Y021134D01*
X027648Y021084D01*
X025222Y023510D01*
X006620Y023510D01*
X005567Y024562D01*
X005567Y028524D01*
X005616Y028573D01*
X005664Y028690D01*
X005664Y028816D01*
X005616Y028932D01*
X005527Y029022D01*
X005410Y029070D01*
X005284Y029070D01*
X005168Y029022D01*
X005078Y028932D01*
X005030Y028816D01*
X005030Y028690D01*
X005078Y028573D01*
X005127Y028524D01*
X005127Y024380D01*
X006308Y023199D01*
X006437Y023070D01*
X025040Y023070D01*
X027371Y020738D01*
X027500Y020610D01*
X027648Y020610D01*
X027648Y020521D01*
X027644Y020517D01*
X027621Y020476D01*
X027608Y020430D01*
X027608Y020198D01*
X028036Y020198D01*
X028036Y020103D01*
X027608Y020103D01*
X027608Y019871D01*
X027621Y019825D01*
X027644Y019784D01*
X027678Y019751D01*
X027719Y019727D01*
X027765Y019715D01*
X028036Y019715D01*
X028036Y020103D01*
X028131Y020103D01*
X028131Y019715D01*
X028403Y019715D01*
X028448Y019727D01*
X028477Y019744D01*
X028506Y019727D01*
X028552Y019715D01*
X028823Y019715D01*
X028823Y020103D01*
X028396Y020103D01*
X028132Y020103D01*
X028132Y020198D01*
X028823Y020198D01*
X028823Y020103D01*
X028919Y020103D01*
X028919Y019715D01*
X029190Y019715D01*
X029236Y019727D01*
X029277Y019751D01*
X029293Y019767D01*
X029305Y019755D01*
X030012Y019755D01*
X030024Y019767D01*
X030040Y019751D01*
X030081Y019727D01*
X030127Y019715D01*
X030398Y019715D01*
X030398Y020103D01*
X030494Y020103D01*
X030494Y020198D01*
X030921Y020198D01*
X030921Y020430D01*
X030909Y020476D01*
X030885Y020517D01*
X030881Y020521D01*
X030881Y021134D01*
X030799Y021216D01*
X030441Y021216D01*
X030055Y021601D01*
X029938Y021719D01*
X029680Y021719D01*
X029680Y021901D01*
X029598Y021983D01*
X029396Y021983D01*
X029396Y022351D01*
X029544Y022500D01*
X029661Y022617D01*
X029661Y022987D01*
X029680Y023006D01*
X029680Y023435D01*
X030068Y023435D01*
X030121Y023381D01*
X030092Y023381D01*
X030010Y023299D01*
X030010Y022686D01*
X030006Y022682D01*
X029983Y022641D01*
X029970Y022595D01*
X029970Y022364D01*
X030398Y022364D01*
X030398Y022268D01*
X030494Y022268D01*
X030494Y022364D01*
X030921Y022364D01*
X030921Y022595D01*
X030909Y022641D01*
X030885Y022682D01*
X030881Y022686D01*
X030881Y023299D01*
X030799Y023381D01*
X030646Y023381D01*
X030646Y023422D01*
X030350Y023718D01*
X030233Y023835D01*
X029465Y023835D01*
X029465Y024160D01*
X029071Y024554D01*
X028954Y024671D01*
X028913Y024671D01*
X028913Y024864D01*
X028831Y024946D01*
X028321Y024946D01*
X028239Y024864D01*
X028239Y024197D01*
X028321Y024115D01*
X028831Y024115D01*
X028888Y024172D01*
X029065Y023995D01*
X029065Y023718D01*
X029015Y023668D01*
X029015Y023638D01*
X028940Y023638D01*
X028940Y023528D01*
X028940Y023638D01*
X028828Y023638D01*
X028812Y023633D01*
X028796Y023638D01*
X028684Y023638D01*
X028684Y023528D01*
X028684Y023528D01*
X028684Y023638D01*
X028572Y023638D01*
X028526Y023625D01*
X028485Y023602D01*
X028451Y023568D01*
X028428Y023527D01*
X028415Y023481D01*
X028415Y023261D01*
X028684Y023261D01*
X028940Y023261D01*
X028940Y023261D01*
X028684Y023261D01*
X028684Y023261D01*
X028684Y023261D01*
X028415Y023261D01*
X028415Y023040D01*
X028428Y022994D01*
X028451Y022953D01*
X028485Y022920D01*
X028526Y022896D01*
X028572Y022884D01*
X028684Y022884D01*
X028796Y022884D01*
X028812Y022888D01*
X028828Y022884D01*
X028940Y022884D01*
X029052Y022884D01*
X029098Y022896D01*
X029139Y022920D01*
X029143Y022924D01*
X029261Y022924D01*
X029261Y022783D01*
X028996Y022517D01*
X028996Y021983D01*
X028537Y021983D01*
X028455Y021901D01*
X028455Y021837D01*
X028322Y021837D01*
X026335Y023824D01*
X026335Y025276D01*
X026384Y025325D01*
X026432Y025442D01*
X026432Y025568D01*
X026384Y025684D01*
X026295Y025774D01*
X026178Y025822D01*
X026052Y025822D01*
X025935Y025774D01*
X025846Y025684D01*
X025798Y025509D02*
X005567Y025509D01*
X005567Y025351D02*
X025835Y025351D01*
X025895Y025192D02*
X005567Y025192D01*
X005567Y025034D02*
X025895Y025034D01*
X025895Y024875D02*
X005567Y024875D01*
X005567Y024717D02*
X025895Y024717D01*
X025895Y024558D02*
X005571Y024558D01*
X005730Y024400D02*
X025895Y024400D01*
X025895Y024241D02*
X005888Y024241D01*
X006047Y024083D02*
X025895Y024083D01*
X025895Y023924D02*
X006205Y023924D01*
X006364Y023766D02*
X025895Y023766D01*
X025930Y023607D02*
X006522Y023607D01*
X006528Y023290D02*
X025131Y023290D01*
X027591Y020830D01*
X028074Y020830D01*
X028084Y020820D01*
X027648Y020596D02*
X000490Y020596D01*
X000490Y020754D02*
X027355Y020754D01*
X027197Y020913D02*
X000490Y020913D01*
X000490Y021071D02*
X027038Y021071D01*
X026880Y021230D02*
X013469Y021230D01*
X013449Y021222D02*
X013634Y021298D01*
X013776Y021440D01*
X013852Y021625D01*
X013852Y021825D01*
X013776Y022011D01*
X013634Y022152D01*
X013449Y022229D01*
X012521Y022229D01*
X012336Y022152D01*
X012194Y022011D01*
X012183Y021985D01*
X005307Y021985D01*
X004946Y022347D01*
X004946Y022359D01*
X004898Y022476D01*
X004808Y022565D01*
X004692Y022613D01*
X004566Y022613D01*
X004449Y022565D01*
X004360Y022476D01*
X004312Y022359D01*
X004312Y022233D01*
X004360Y022116D01*
X004449Y022027D01*
X004566Y021979D01*
X004578Y021979D01*
X005052Y021505D01*
X005148Y021465D01*
X012183Y021465D01*
X012194Y021440D01*
X012336Y021298D01*
X012521Y021222D01*
X013449Y021222D01*
X013724Y021388D02*
X026721Y021388D01*
X026563Y021547D02*
X013820Y021547D01*
X013852Y021705D02*
X026404Y021705D01*
X026246Y021864D02*
X013836Y021864D01*
X013764Y022022D02*
X026087Y022022D01*
X025929Y022181D02*
X013565Y022181D01*
X012405Y022181D02*
X005112Y022181D01*
X005270Y022022D02*
X012206Y022022D01*
X012245Y021388D02*
X000490Y021388D01*
X000490Y021230D02*
X012500Y021230D01*
X012442Y019591D02*
X012257Y019515D01*
X012115Y019373D01*
X012038Y019188D01*
X012038Y018987D01*
X012115Y018802D01*
X012257Y018660D01*
X012442Y018584D01*
X013370Y018584D01*
X013555Y018660D01*
X013697Y018802D01*
X013773Y018987D01*
X013773Y019188D01*
X013697Y019373D01*
X013555Y019515D01*
X013370Y019591D01*
X012442Y019591D01*
X012229Y019486D02*
X000490Y019486D01*
X000490Y019328D02*
X001570Y019328D01*
X001475Y019289D02*
X001258Y019072D01*
X001141Y018788D01*
X001141Y018481D01*
X001258Y018198D01*
X001475Y017981D01*
X001759Y017863D01*
X002066Y017863D01*
X002349Y017981D01*
X002566Y018198D01*
X002684Y018481D01*
X002684Y018788D01*
X002566Y019072D01*
X002349Y019289D01*
X002066Y019406D01*
X001759Y019406D01*
X001475Y019289D01*
X001356Y019169D02*
X000490Y019169D01*
X000490Y019011D02*
X001233Y019011D01*
X001168Y018852D02*
X000490Y018852D01*
X000490Y018694D02*
X001141Y018694D01*
X001141Y018535D02*
X000490Y018535D01*
X000490Y018377D02*
X001184Y018377D01*
X001250Y018218D02*
X000490Y018218D01*
X000490Y018060D02*
X001396Y018060D01*
X001667Y017901D02*
X000490Y017901D01*
X000490Y017743D02*
X031564Y017743D01*
X031566Y017737D02*
X031605Y017661D01*
X031655Y017592D01*
X031716Y017531D01*
X031785Y017481D01*
X031861Y017442D01*
X031942Y017415D01*
X032027Y017402D01*
X032029Y017402D01*
X032029Y017904D01*
X032111Y017904D01*
X032111Y017402D01*
X032840Y017402D01*
X032925Y017415D01*
X033006Y017442D01*
X033082Y017481D01*
X033151Y017531D01*
X033212Y017592D01*
X033262Y017661D01*
X033301Y017737D01*
X033328Y017818D01*
X033341Y017903D01*
X033341Y017904D01*
X032111Y017904D01*
X032111Y017987D01*
X032029Y017987D01*
X032029Y018489D01*
X032027Y018489D01*
X031942Y018476D01*
X031861Y018450D01*
X031785Y018411D01*
X031716Y018360D01*
X031655Y018300D01*
X031605Y018231D01*
X031566Y018154D01*
X031539Y018073D01*
X031526Y017989D01*
X031526Y017987D01*
X032029Y017987D01*
X032029Y017904D01*
X031526Y017904D01*
X031526Y017903D01*
X031539Y017818D01*
X031566Y017737D01*
X031526Y017901D02*
X002158Y017901D01*
X002428Y018060D02*
X031537Y018060D01*
X031598Y018218D02*
X002575Y018218D01*
X002640Y018377D02*
X026989Y018377D01*
X026918Y018448D02*
X027060Y018306D01*
X027245Y018229D01*
X028173Y018229D01*
X028358Y018306D01*
X028500Y018448D01*
X028577Y018633D01*
X028577Y018833D01*
X028500Y019019D01*
X028358Y019160D01*
X028173Y019237D01*
X027245Y019237D01*
X027060Y019160D01*
X026918Y019019D01*
X026842Y018833D01*
X026842Y018633D01*
X026918Y018448D01*
X026882Y018535D02*
X002684Y018535D01*
X002684Y018694D02*
X012223Y018694D01*
X012094Y018852D02*
X002657Y018852D01*
X002591Y019011D02*
X012038Y019011D01*
X012038Y019169D02*
X002468Y019169D01*
X002254Y019328D02*
X012097Y019328D01*
X013583Y019486D02*
X031786Y019486D01*
X031784Y019487D02*
X031970Y019411D01*
X032897Y019411D01*
X033083Y019487D01*
X033224Y019629D01*
X033301Y019814D01*
X033301Y020014D01*
X033224Y020200D01*
X033083Y020341D01*
X032897Y020418D01*
X031970Y020418D01*
X031784Y020341D01*
X031643Y020200D01*
X031566Y020014D01*
X031566Y019814D01*
X031643Y019629D01*
X031784Y019487D01*
X031636Y019645D02*
X000490Y019645D01*
X000490Y019803D02*
X027633Y019803D01*
X027608Y019962D02*
X000490Y019962D01*
X000490Y020120D02*
X028036Y020120D01*
X028132Y020120D02*
X028823Y020120D01*
X028823Y019962D02*
X028919Y019962D01*
X028919Y019803D02*
X028823Y019803D01*
X028131Y019803D02*
X028036Y019803D01*
X028036Y019962D02*
X028131Y019962D01*
X027608Y020279D02*
X000490Y020279D01*
X000490Y020437D02*
X027610Y020437D01*
X027502Y021230D02*
X028671Y021230D01*
X028459Y021388D02*
X027344Y021388D01*
X027185Y021547D02*
X027990Y021547D01*
X027832Y021705D02*
X027027Y021705D01*
X026868Y021864D02*
X027673Y021864D01*
X027515Y022022D02*
X026710Y022022D01*
X026551Y022181D02*
X027356Y022181D01*
X027198Y022339D02*
X026393Y022339D01*
X026234Y022498D02*
X027039Y022498D01*
X026881Y022656D02*
X026076Y022656D01*
X025917Y022815D02*
X026722Y022815D01*
X026564Y022973D02*
X025759Y022973D01*
X025600Y023132D02*
X026405Y023132D01*
X026247Y023290D02*
X025442Y023290D01*
X025283Y023449D02*
X026088Y023449D01*
X026115Y023733D02*
X028231Y021617D01*
X028654Y021617D01*
X028684Y021647D01*
X028455Y021864D02*
X028295Y021864D01*
X028137Y022022D02*
X028996Y022022D01*
X028996Y022181D02*
X027978Y022181D01*
X027820Y022339D02*
X028996Y022339D01*
X028996Y022498D02*
X027661Y022498D01*
X027503Y022656D02*
X029135Y022656D01*
X029261Y022815D02*
X027344Y022815D01*
X027186Y022973D02*
X028440Y022973D01*
X028415Y023132D02*
X027027Y023132D01*
X026869Y023290D02*
X028415Y023290D01*
X028415Y023449D02*
X026710Y023449D01*
X026552Y023607D02*
X028495Y023607D01*
X028684Y023607D02*
X028684Y023607D01*
X028940Y023607D02*
X028940Y023607D01*
X028940Y023528D02*
X028940Y023528D01*
X029065Y023766D02*
X026393Y023766D01*
X026335Y023924D02*
X029065Y023924D01*
X028976Y024083D02*
X026335Y024083D01*
X026335Y024241D02*
X028239Y024241D01*
X028239Y024400D02*
X026335Y024400D01*
X026335Y024558D02*
X028239Y024558D01*
X028239Y024717D02*
X026335Y024717D01*
X026335Y024875D02*
X028250Y024875D01*
X028510Y025034D02*
X028642Y025034D01*
X028613Y025192D02*
X028539Y025192D01*
X028539Y025351D02*
X028613Y025351D01*
X028613Y025509D02*
X028539Y025509D01*
X028539Y025668D02*
X028613Y025668D01*
X029287Y025668D02*
X029321Y025668D01*
X029321Y025509D02*
X029287Y025509D01*
X029287Y025351D02*
X029321Y025351D01*
X029321Y025192D02*
X029287Y025192D01*
X029281Y025034D02*
X029258Y025034D01*
X029281Y024875D02*
X028901Y024875D01*
X028913Y024717D02*
X029281Y024717D01*
X029281Y024558D02*
X029067Y024558D01*
X029225Y024400D02*
X029327Y024400D01*
X029384Y024241D02*
X047901Y024241D01*
X047901Y024083D02*
X029465Y024083D01*
X029465Y023924D02*
X047901Y023924D01*
X047901Y023766D02*
X030302Y023766D01*
X030461Y023607D02*
X047901Y023607D01*
X047901Y023449D02*
X030619Y023449D01*
X030881Y023290D02*
X047901Y023290D01*
X047901Y023132D02*
X030881Y023132D01*
X030881Y022973D02*
X047901Y022973D01*
X047901Y022815D02*
X030881Y022815D01*
X030900Y022656D02*
X047901Y022656D01*
X047901Y022498D02*
X035453Y022498D01*
X035445Y022507D02*
X035260Y022583D01*
X034332Y022583D01*
X034147Y022507D01*
X034005Y022365D01*
X033928Y022180D01*
X033928Y021979D01*
X034005Y021794D01*
X034147Y021653D01*
X034212Y021625D01*
X034212Y018853D01*
X034079Y018853D01*
X033997Y018771D01*
X033997Y018144D01*
X034017Y018123D01*
X033997Y018102D01*
X033997Y017474D01*
X034079Y017392D01*
X034212Y017392D01*
X034212Y014266D01*
X034147Y014239D01*
X034005Y014097D01*
X033928Y013912D01*
X033928Y013712D01*
X034005Y013527D01*
X034147Y013385D01*
X034332Y013308D01*
X035260Y013308D01*
X035445Y013385D01*
X035587Y013527D01*
X035663Y013712D01*
X035663Y013912D01*
X035587Y014097D01*
X035445Y014239D01*
X035260Y014316D01*
X034652Y014316D01*
X034652Y017392D01*
X034785Y017392D01*
X034867Y017474D01*
X034867Y018102D01*
X034846Y018123D01*
X034867Y018144D01*
X034867Y018771D01*
X034785Y018853D01*
X034652Y018853D01*
X034652Y021576D01*
X035260Y021576D01*
X035445Y021653D01*
X035587Y021794D01*
X035663Y021979D01*
X035663Y022180D01*
X035587Y022365D01*
X035445Y022507D01*
X035597Y022339D02*
X047901Y022339D01*
X047901Y022181D02*
X035663Y022181D01*
X035663Y022022D02*
X047901Y022022D01*
X047901Y021864D02*
X035615Y021864D01*
X035498Y021705D02*
X047901Y021705D01*
X047901Y021547D02*
X034652Y021547D01*
X034652Y021388D02*
X047901Y021388D01*
X047901Y021230D02*
X034652Y021230D01*
X034652Y021071D02*
X047901Y021071D01*
X047901Y020913D02*
X034652Y020913D01*
X034652Y020754D02*
X047901Y020754D01*
X047901Y020596D02*
X034652Y020596D01*
X034652Y020437D02*
X047901Y020437D01*
X047901Y020279D02*
X034652Y020279D01*
X034652Y020120D02*
X047901Y020120D01*
X047901Y019962D02*
X034652Y019962D01*
X034652Y019803D02*
X047901Y019803D01*
X047901Y019645D02*
X034652Y019645D01*
X034652Y019486D02*
X047901Y019486D01*
X047901Y019328D02*
X034652Y019328D01*
X034652Y019169D02*
X047901Y019169D01*
X047901Y019011D02*
X034652Y019011D01*
X034786Y018852D02*
X047901Y018852D01*
X047901Y018694D02*
X047003Y018694D01*
X046985Y018701D02*
X046643Y018701D01*
X046327Y018570D01*
X046085Y018329D01*
X045954Y018012D01*
X045954Y017670D01*
X046085Y017354D01*
X046327Y017112D01*
X046643Y016981D01*
X046985Y016981D01*
X047301Y017112D01*
X047543Y017354D01*
X047674Y017670D01*
X047674Y018012D01*
X047543Y018329D01*
X047301Y018570D01*
X046985Y018701D01*
X046625Y018694D02*
X037003Y018694D01*
X036985Y018701D02*
X036643Y018701D01*
X036327Y018570D01*
X036085Y018329D01*
X035954Y018012D01*
X035954Y017670D01*
X036085Y017354D01*
X036327Y017112D01*
X036643Y016981D01*
X036985Y016981D01*
X037301Y017112D01*
X037543Y017354D01*
X037674Y017670D01*
X037674Y018012D01*
X037543Y018329D01*
X037301Y018570D01*
X036985Y018701D01*
X036625Y018694D02*
X034867Y018694D01*
X034867Y018535D02*
X036292Y018535D01*
X036133Y018377D02*
X034867Y018377D01*
X034867Y018218D02*
X036039Y018218D01*
X035974Y018060D02*
X034867Y018060D01*
X034867Y017901D02*
X035954Y017901D01*
X035954Y017743D02*
X034867Y017743D01*
X034867Y017584D02*
X035990Y017584D01*
X036055Y017426D02*
X034819Y017426D01*
X034652Y017267D02*
X036172Y017267D01*
X036335Y017109D02*
X034652Y017109D01*
X034652Y016950D02*
X047901Y016950D01*
X047901Y016792D02*
X034652Y016792D01*
X034652Y016633D02*
X047901Y016633D01*
X047901Y016475D02*
X034652Y016475D01*
X034652Y016316D02*
X047901Y016316D01*
X047901Y016158D02*
X034652Y016158D01*
X034652Y015999D02*
X042553Y015999D01*
X042560Y016004D02*
X042313Y015861D01*
X042111Y015659D01*
X041968Y015412D01*
X041894Y015136D01*
X041894Y014850D01*
X041968Y014574D01*
X042111Y014327D01*
X042313Y014125D01*
X042560Y013982D01*
X042836Y013908D01*
X043122Y013908D01*
X043359Y013972D01*
X043281Y013893D01*
X043202Y013795D01*
X043135Y013688D01*
X043080Y013574D01*
X043038Y013454D01*
X043010Y013331D01*
X042998Y013223D01*
X044041Y013223D01*
X044041Y014266D01*
X043932Y014253D01*
X043809Y014225D01*
X043712Y014191D01*
X043847Y014327D01*
X043990Y014574D01*
X044064Y014850D01*
X044064Y015136D01*
X043990Y015412D01*
X043847Y015659D01*
X043645Y015861D01*
X043398Y016004D01*
X043122Y016078D01*
X042836Y016078D01*
X042560Y016004D01*
X042293Y015841D02*
X034652Y015841D01*
X034652Y015682D02*
X042134Y015682D01*
X042033Y015524D02*
X034652Y015524D01*
X034652Y015365D02*
X041956Y015365D01*
X041913Y015207D02*
X034652Y015207D01*
X034652Y015048D02*
X041894Y015048D01*
X041894Y014890D02*
X034652Y014890D01*
X034652Y014731D02*
X041926Y014731D01*
X041969Y014573D02*
X034652Y014573D01*
X034652Y014414D02*
X042061Y014414D01*
X042182Y014256D02*
X035404Y014256D01*
X035586Y014097D02*
X041282Y014097D01*
X041379Y014154D02*
X041132Y014011D01*
X040930Y013809D01*
X040787Y013561D01*
X040713Y013285D01*
X040713Y013000D01*
X040787Y012724D01*
X040930Y012476D01*
X041132Y012274D01*
X041379Y012132D01*
X041655Y012058D01*
X041941Y012058D01*
X042217Y012132D01*
X042464Y012274D01*
X042666Y012476D01*
X042809Y012724D01*
X042883Y013000D01*
X042883Y013285D01*
X042809Y013561D01*
X042666Y013809D01*
X042464Y014011D01*
X042217Y014154D01*
X041941Y014227D01*
X041655Y014227D01*
X041379Y014154D01*
X041060Y013939D02*
X035652Y013939D01*
X035663Y013780D02*
X040914Y013780D01*
X040822Y013622D02*
X035626Y013622D01*
X035523Y013463D02*
X040761Y013463D01*
X040718Y013305D02*
X008311Y013305D01*
X008469Y013146D02*
X040713Y013146D01*
X040716Y012988D02*
X008571Y012988D01*
X008476Y013140D02*
X008476Y013140D01*
X007992Y013624D01*
X007412Y013988D01*
X006766Y014214D01*
X006086Y014291D01*
X006086Y014291D01*
X005405Y014214D01*
X004759Y013988D01*
X004179Y013624D01*
X004179Y013624D01*
X003695Y013140D01*
X003331Y012560D01*
X003331Y012560D01*
X003104Y011914D01*
X003053Y011453D01*
X001670Y011453D01*
X001370Y011753D01*
X000939Y011753D01*
X000634Y011449D01*
X000634Y011018D01*
X000939Y010713D01*
X001370Y010713D01*
X001670Y011013D01*
X003053Y011013D01*
X003104Y010553D01*
X003104Y010553D01*
X003331Y009906D01*
X003695Y009327D01*
X003695Y009327D01*
X004179Y008843D01*
X004759Y008478D01*
X005405Y008252D01*
X006086Y008175D01*
X006766Y008252D01*
X007412Y008478D01*
X007412Y008478D01*
X007992Y008843D01*
X008476Y009327D01*
X008840Y009906D01*
X008840Y009906D01*
X009067Y010553D01*
X009118Y011013D01*
X012648Y011013D01*
X012697Y010964D01*
X012814Y010916D01*
X012940Y010916D01*
X013057Y010964D01*
X013146Y011053D01*
X013194Y011170D01*
X013194Y011296D01*
X013146Y011413D01*
X013057Y011502D01*
X012940Y011550D01*
X012814Y011550D01*
X012697Y011502D01*
X012648Y011453D01*
X009118Y011453D01*
X009067Y011914D01*
X008840Y012560D01*
X008476Y013140D01*
X008476Y013140D01*
X008671Y012829D02*
X040759Y012829D01*
X040818Y012671D02*
X008771Y012671D01*
X008840Y012560D02*
X008840Y012560D01*
X008857Y012512D02*
X040909Y012512D01*
X041052Y012354D02*
X008912Y012354D01*
X008968Y012195D02*
X041269Y012195D01*
X042327Y012195D02*
X043514Y012195D01*
X043469Y012224D02*
X043576Y012157D01*
X043690Y012102D01*
X043809Y012060D01*
X043932Y012032D01*
X044041Y012020D01*
X044041Y013063D01*
X042998Y013063D01*
X043010Y012954D01*
X043038Y012831D01*
X043080Y012711D01*
X043135Y012598D01*
X043202Y012491D01*
X043281Y012392D01*
X043370Y012303D01*
X043469Y012224D01*
X043319Y012354D02*
X042544Y012354D01*
X042687Y012512D02*
X043188Y012512D01*
X043100Y012671D02*
X042779Y012671D01*
X042837Y012829D02*
X043039Y012829D01*
X043006Y012988D02*
X042880Y012988D01*
X042883Y013146D02*
X044041Y013146D01*
X044041Y013223D02*
X044041Y013063D01*
X044201Y013063D01*
X044201Y013223D01*
X044041Y013223D01*
X044041Y013305D02*
X044201Y013305D01*
X044201Y013223D02*
X044201Y014266D01*
X044310Y014253D01*
X044433Y014225D01*
X044552Y014183D01*
X044666Y014129D01*
X044773Y014061D01*
X044872Y013983D01*
X044961Y013893D01*
X045040Y013795D01*
X045107Y013688D01*
X045162Y013574D01*
X045204Y013454D01*
X045232Y013331D01*
X045244Y013223D01*
X044201Y013223D01*
X044201Y013146D02*
X047901Y013146D01*
X047901Y012988D02*
X045236Y012988D01*
X045232Y012954D02*
X045244Y013063D01*
X044201Y013063D01*
X044201Y012020D01*
X044310Y012032D01*
X044433Y012060D01*
X044552Y012102D01*
X044666Y012157D01*
X044773Y012224D01*
X044872Y012303D01*
X044961Y012392D01*
X045040Y012491D01*
X045107Y012598D01*
X045162Y012711D01*
X045204Y012831D01*
X045232Y012954D01*
X045203Y012829D02*
X047901Y012829D01*
X047901Y012671D02*
X045142Y012671D01*
X045054Y012512D02*
X047901Y012512D01*
X047901Y012354D02*
X044923Y012354D01*
X044728Y012195D02*
X047901Y012195D01*
X047901Y012037D02*
X044332Y012037D01*
X044201Y012037D02*
X044041Y012037D01*
X043910Y012037D02*
X009023Y012037D01*
X009067Y011914D02*
X009067Y011914D01*
X009071Y011878D02*
X047901Y011878D01*
X047901Y011720D02*
X009088Y011720D01*
X009106Y011561D02*
X047901Y011561D01*
X047901Y011403D02*
X043968Y011403D01*
X043878Y011440D02*
X043563Y011440D01*
X043273Y011320D01*
X043051Y011098D01*
X042930Y010808D01*
X042930Y010493D01*
X043051Y010203D01*
X043273Y009981D01*
X043563Y009860D01*
X043878Y009860D01*
X044168Y009981D01*
X044390Y010203D01*
X044510Y010493D01*
X044510Y010808D01*
X044390Y011098D01*
X044168Y011320D01*
X043878Y011440D01*
X043473Y011403D02*
X013150Y011403D01*
X013194Y011244D02*
X043197Y011244D01*
X043046Y011086D02*
X013159Y011086D01*
X012968Y010927D02*
X042980Y010927D01*
X042930Y010769D02*
X009091Y010769D01*
X009109Y010927D02*
X012786Y010927D01*
X012877Y011233D02*
X006086Y011233D01*
X001154Y011233D01*
X000634Y011244D02*
X000490Y011244D01*
X000490Y011086D02*
X000634Y011086D01*
X000725Y010927D02*
X000490Y010927D01*
X000490Y010769D02*
X000883Y010769D01*
X000490Y010610D02*
X003098Y010610D01*
X003080Y010769D02*
X001426Y010769D01*
X001584Y010927D02*
X003062Y010927D01*
X003140Y010452D02*
X000490Y010452D01*
X000490Y010293D02*
X003195Y010293D01*
X003251Y010135D02*
X000490Y010135D01*
X000490Y009976D02*
X003306Y009976D01*
X003331Y009906D02*
X003331Y009906D01*
X003386Y009818D02*
X000490Y009818D01*
X000490Y009659D02*
X003486Y009659D01*
X003585Y009501D02*
X000490Y009501D01*
X000490Y009342D02*
X003685Y009342D01*
X003838Y009184D02*
X000490Y009184D01*
X000490Y009025D02*
X003996Y009025D01*
X004155Y008867D02*
X000490Y008867D01*
X000490Y008708D02*
X004392Y008708D01*
X004179Y008843D02*
X004179Y008843D01*
X004645Y008550D02*
X000490Y008550D01*
X000490Y008391D02*
X005007Y008391D01*
X004759Y008478D02*
X004759Y008478D01*
X005405Y008252D02*
X005405Y008252D01*
X005575Y008233D02*
X000490Y008233D01*
X000490Y008074D02*
X016831Y008074D01*
X016672Y007916D02*
X000490Y007916D01*
X000490Y007757D02*
X016514Y007757D01*
X016355Y007599D02*
X000490Y007599D01*
X000490Y007440D02*
X016197Y007440D01*
X016038Y007282D02*
X000490Y007282D01*
X000490Y007123D02*
X015880Y007123D01*
X015761Y007004D02*
X015643Y006955D01*
X015501Y006814D01*
X015424Y006629D01*
X015424Y006428D01*
X015501Y006243D01*
X015643Y006101D01*
X015828Y006025D01*
X016756Y006025D01*
X016941Y006101D01*
X017083Y006243D01*
X017159Y006428D01*
X017159Y006629D01*
X017083Y006814D01*
X016941Y006955D01*
X016756Y007032D01*
X016524Y007032D01*
X017335Y007843D01*
X036253Y007843D01*
X040808Y003289D01*
X040808Y003276D01*
X040856Y003160D01*
X040945Y003071D01*
X041062Y003022D01*
X041188Y003022D01*
X041305Y003071D01*
X041394Y003160D01*
X041442Y003276D01*
X041442Y003403D01*
X041394Y003519D01*
X041305Y003608D01*
X041188Y003657D01*
X041175Y003657D01*
X036508Y008324D01*
X036413Y008363D01*
X017176Y008363D01*
X017080Y008324D01*
X017007Y008251D01*
X015761Y007004D01*
X015666Y006965D02*
X000490Y006965D01*
X000490Y006806D02*
X015498Y006806D01*
X015432Y006648D02*
X000490Y006648D01*
X000490Y006489D02*
X015424Y006489D01*
X015465Y006331D02*
X000490Y006331D01*
X000490Y006172D02*
X015572Y006172D01*
X016615Y007123D02*
X036973Y007123D01*
X037132Y006965D02*
X016918Y006965D01*
X017086Y006806D02*
X037290Y006806D01*
X037449Y006648D02*
X017151Y006648D01*
X017159Y006489D02*
X019114Y006489D01*
X019044Y006420D02*
X019186Y006562D01*
X019371Y006638D01*
X020299Y006638D01*
X020484Y006562D01*
X020626Y006420D01*
X020636Y006395D01*
X036118Y006395D01*
X036213Y006355D01*
X039717Y002851D01*
X041039Y002851D01*
X041081Y002869D01*
X041208Y002869D01*
X041324Y002821D01*
X041413Y002732D01*
X041462Y002615D01*
X041462Y002489D01*
X041413Y002372D01*
X041324Y002283D01*
X041208Y002235D01*
X041081Y002235D01*
X040965Y002283D01*
X040917Y002331D01*
X039557Y002331D01*
X039462Y002371D01*
X039389Y002444D01*
X035958Y005875D01*
X020636Y005875D01*
X020626Y005849D01*
X020484Y005708D01*
X020299Y005631D01*
X019371Y005631D01*
X019186Y005708D01*
X019044Y005849D01*
X018968Y006035D01*
X018968Y006235D01*
X019044Y006420D01*
X019007Y006331D02*
X017119Y006331D01*
X017012Y006172D02*
X018968Y006172D01*
X018976Y006014D02*
X000490Y006014D01*
X000490Y005855D02*
X019042Y005855D01*
X019212Y005697D02*
X000490Y005697D01*
X000490Y005538D02*
X036294Y005538D01*
X036453Y005380D02*
X000490Y005380D01*
X000490Y005221D02*
X036611Y005221D01*
X036770Y005063D02*
X000490Y005063D01*
X000490Y004904D02*
X036928Y004904D01*
X037087Y004746D02*
X000490Y004746D01*
X000490Y004587D02*
X037245Y004587D01*
X037404Y004429D02*
X000490Y004429D01*
X000490Y004270D02*
X037562Y004270D01*
X037721Y004112D02*
X000490Y004112D01*
X000490Y003953D02*
X037879Y003953D01*
X038038Y003795D02*
X000490Y003795D01*
X000490Y003636D02*
X038196Y003636D01*
X038355Y003478D02*
X000490Y003478D01*
X000490Y003319D02*
X038513Y003319D01*
X038672Y003161D02*
X000490Y003161D01*
X000490Y003002D02*
X038830Y003002D01*
X038989Y002844D02*
X000490Y002844D01*
X000490Y002685D02*
X039147Y002685D01*
X039306Y002527D02*
X000490Y002527D01*
X000490Y002368D02*
X024332Y002368D01*
X024310Y002359D02*
X024093Y002143D01*
X023976Y001859D01*
X023976Y001552D01*
X024093Y001269D01*
X024310Y001052D01*
X024593Y000934D01*
X024900Y000934D01*
X025184Y001052D01*
X025401Y001269D01*
X025518Y001552D01*
X025518Y001859D01*
X025401Y002143D01*
X025184Y002359D01*
X024900Y002477D01*
X024593Y002477D01*
X024310Y002359D01*
X024160Y002210D02*
X000490Y002210D01*
X000490Y002051D02*
X024055Y002051D01*
X023990Y001893D02*
X000490Y001893D01*
X000490Y001734D02*
X023976Y001734D01*
X023976Y001576D02*
X000490Y001576D01*
X000490Y001417D02*
X024031Y001417D01*
X024103Y001259D02*
X000490Y001259D01*
X000490Y001100D02*
X024261Y001100D01*
X024575Y000942D02*
X000490Y000942D01*
X000490Y000783D02*
X047901Y000783D01*
X047901Y000625D02*
X000490Y000625D01*
X006086Y008175D02*
X006086Y008175D01*
X006596Y008233D02*
X016989Y008233D01*
X017249Y007757D02*
X036339Y007757D01*
X036498Y007599D02*
X017091Y007599D01*
X016932Y007440D02*
X036656Y007440D01*
X036815Y007282D02*
X016774Y007282D01*
X020557Y006489D02*
X037607Y006489D01*
X037766Y006331D02*
X036237Y006331D01*
X036396Y006172D02*
X037924Y006172D01*
X038083Y006014D02*
X036554Y006014D01*
X036713Y005855D02*
X038241Y005855D01*
X038400Y005697D02*
X036871Y005697D01*
X037030Y005538D02*
X038558Y005538D01*
X038717Y005380D02*
X037188Y005380D01*
X037347Y005221D02*
X038875Y005221D01*
X039034Y005063D02*
X037505Y005063D01*
X037664Y004904D02*
X039192Y004904D01*
X039351Y004746D02*
X037822Y004746D01*
X037981Y004587D02*
X039509Y004587D01*
X039668Y004429D02*
X038139Y004429D01*
X038298Y004270D02*
X039826Y004270D01*
X039985Y004112D02*
X038456Y004112D01*
X038615Y003953D02*
X040143Y003953D01*
X040302Y003795D02*
X038773Y003795D01*
X038932Y003636D02*
X040460Y003636D01*
X040619Y003478D02*
X039090Y003478D01*
X039249Y003319D02*
X040777Y003319D01*
X040856Y003161D02*
X039407Y003161D01*
X039566Y003002D02*
X047901Y003002D01*
X047901Y002844D02*
X041269Y002844D01*
X041433Y002685D02*
X047901Y002685D01*
X047901Y002527D02*
X041462Y002527D01*
X041410Y002368D02*
X047901Y002368D01*
X047901Y002210D02*
X025333Y002210D01*
X025439Y002051D02*
X047901Y002051D01*
X047901Y001893D02*
X025504Y001893D01*
X025518Y001734D02*
X047901Y001734D01*
X047901Y001576D02*
X025518Y001576D01*
X025462Y001417D02*
X047901Y001417D01*
X047901Y001259D02*
X025391Y001259D01*
X025233Y001100D02*
X047901Y001100D01*
X047901Y000942D02*
X024919Y000942D01*
X025162Y002368D02*
X039468Y002368D01*
X041394Y003161D02*
X047901Y003161D01*
X047901Y003319D02*
X041442Y003319D01*
X041411Y003478D02*
X047901Y003478D01*
X047901Y003636D02*
X041237Y003636D01*
X041037Y003795D02*
X047901Y003795D01*
X047901Y003953D02*
X040879Y003953D01*
X040720Y004112D02*
X047901Y004112D01*
X047901Y004270D02*
X040562Y004270D01*
X040403Y004429D02*
X047901Y004429D01*
X047901Y004587D02*
X040245Y004587D01*
X040086Y004746D02*
X047901Y004746D01*
X047901Y004904D02*
X039928Y004904D01*
X039769Y005063D02*
X047901Y005063D01*
X047901Y005221D02*
X044122Y005221D01*
X044168Y005241D02*
X044390Y005463D01*
X044510Y005753D01*
X044510Y006068D01*
X044390Y006358D01*
X044168Y006580D01*
X043878Y006700D01*
X043563Y006700D01*
X043273Y006580D01*
X043051Y006358D01*
X042930Y006068D01*
X042930Y005753D01*
X043051Y005463D01*
X043273Y005241D01*
X043563Y005120D01*
X043878Y005120D01*
X044168Y005241D01*
X044307Y005380D02*
X047901Y005380D01*
X047901Y005538D02*
X044422Y005538D01*
X044487Y005697D02*
X047901Y005697D01*
X047901Y005855D02*
X044510Y005855D01*
X044510Y006014D02*
X047901Y006014D01*
X047901Y006172D02*
X044467Y006172D01*
X044401Y006331D02*
X047901Y006331D01*
X047901Y006489D02*
X044259Y006489D01*
X044004Y006648D02*
X047901Y006648D01*
X047901Y006806D02*
X038026Y006806D01*
X038184Y006648D02*
X043437Y006648D01*
X043182Y006489D02*
X038343Y006489D01*
X038501Y006331D02*
X043040Y006331D01*
X042974Y006172D02*
X038660Y006172D01*
X038818Y006014D02*
X042930Y006014D01*
X042930Y005855D02*
X038977Y005855D01*
X039135Y005697D02*
X042954Y005697D01*
X043019Y005538D02*
X039294Y005538D01*
X039452Y005380D02*
X043134Y005380D01*
X043319Y005221D02*
X039611Y005221D01*
X037867Y006965D02*
X047901Y006965D01*
X047901Y007123D02*
X037709Y007123D01*
X037550Y007282D02*
X047901Y007282D01*
X047901Y007440D02*
X042967Y007440D01*
X042917Y007390D02*
X043049Y007522D01*
X043120Y007695D01*
X043120Y007882D01*
X043049Y008055D01*
X042917Y008187D01*
X042744Y008258D01*
X042557Y008258D01*
X042384Y008187D01*
X042260Y008063D01*
X042137Y008187D01*
X041964Y008258D01*
X041777Y008258D01*
X041604Y008187D01*
X041472Y008055D01*
X041400Y007882D01*
X041400Y007695D01*
X041472Y007522D01*
X041604Y007390D01*
X041777Y007318D01*
X041964Y007318D01*
X042137Y007390D01*
X042260Y007514D01*
X042384Y007390D01*
X042557Y007318D01*
X042744Y007318D01*
X042917Y007390D01*
X043081Y007599D02*
X047901Y007599D01*
X047901Y007757D02*
X043120Y007757D01*
X043106Y007916D02*
X047901Y007916D01*
X047901Y008074D02*
X043029Y008074D01*
X042805Y008233D02*
X047901Y008233D01*
X047901Y008391D02*
X042991Y008391D01*
X042983Y008384D02*
X043039Y008440D01*
X043087Y008505D01*
X043123Y008577D01*
X043148Y008653D01*
X043160Y008732D01*
X043160Y008763D01*
X042660Y008763D01*
X042660Y008783D01*
X042640Y008783D01*
X042640Y009283D01*
X042610Y009283D01*
X042531Y009270D01*
X042455Y009245D01*
X042383Y009209D01*
X042318Y009162D01*
X042261Y009105D01*
X042237Y009071D01*
X042137Y009171D01*
X041964Y009243D01*
X041777Y009243D01*
X041604Y009171D01*
X041472Y009039D01*
X041400Y008866D01*
X041400Y008679D01*
X041472Y008506D01*
X041604Y008374D01*
X041777Y008303D01*
X041964Y008303D01*
X042137Y008374D01*
X042237Y008474D01*
X042261Y008440D01*
X042318Y008384D01*
X042383Y008336D01*
X042455Y008300D01*
X042531Y008275D01*
X042610Y008263D01*
X042640Y008263D01*
X042640Y008763D01*
X042660Y008763D01*
X042660Y008263D01*
X042691Y008263D01*
X042770Y008275D01*
X042846Y008300D01*
X042918Y008336D01*
X042983Y008384D01*
X043109Y008550D02*
X047901Y008550D01*
X047901Y008708D02*
X043157Y008708D01*
X043160Y008783D02*
X043160Y008813D01*
X043148Y008892D01*
X043123Y008968D01*
X043087Y009040D01*
X043039Y009105D01*
X042983Y009162D01*
X042918Y009209D01*
X042846Y009245D01*
X042770Y009270D01*
X042691Y009283D01*
X042660Y009283D01*
X042660Y008783D01*
X043160Y008783D01*
X043152Y008867D02*
X047901Y008867D01*
X047901Y009025D02*
X043094Y009025D01*
X042952Y009184D02*
X047901Y009184D01*
X047901Y009342D02*
X008486Y009342D01*
X008476Y009327D02*
X008476Y009327D01*
X008333Y009184D02*
X041636Y009184D01*
X041467Y009025D02*
X008175Y009025D01*
X008016Y008867D02*
X041401Y008867D01*
X041400Y008708D02*
X007779Y008708D01*
X007992Y008843D02*
X007992Y008843D01*
X007526Y008550D02*
X041454Y008550D01*
X041587Y008391D02*
X007164Y008391D01*
X006766Y008252D02*
X006766Y008252D01*
X008586Y009501D02*
X047901Y009501D01*
X047901Y009659D02*
X008685Y009659D01*
X008785Y009818D02*
X047901Y009818D01*
X047901Y009976D02*
X044158Y009976D01*
X044322Y010135D02*
X047901Y010135D01*
X047901Y010293D02*
X044428Y010293D01*
X044493Y010452D02*
X047901Y010452D01*
X047901Y010610D02*
X044510Y010610D01*
X044510Y010769D02*
X047901Y010769D01*
X047901Y010927D02*
X044461Y010927D01*
X044395Y011086D02*
X047901Y011086D01*
X047901Y011244D02*
X044244Y011244D01*
X044201Y012195D02*
X044041Y012195D01*
X044041Y012354D02*
X044201Y012354D01*
X044201Y012512D02*
X044041Y012512D01*
X044041Y012671D02*
X044201Y012671D01*
X044201Y012829D02*
X044041Y012829D01*
X044041Y012988D02*
X044201Y012988D01*
X044201Y013463D02*
X044041Y013463D01*
X044041Y013622D02*
X044201Y013622D01*
X044201Y013780D02*
X044041Y013780D01*
X044041Y013939D02*
X044201Y013939D01*
X044201Y014097D02*
X044041Y014097D01*
X044041Y014256D02*
X044201Y014256D01*
X044286Y014256D02*
X047901Y014256D01*
X047901Y014414D02*
X043898Y014414D01*
X043956Y014256D02*
X043776Y014256D01*
X043989Y014573D02*
X047901Y014573D01*
X047901Y014731D02*
X044032Y014731D01*
X044064Y014890D02*
X047901Y014890D01*
X047901Y015048D02*
X044064Y015048D01*
X044045Y015207D02*
X047901Y015207D01*
X047901Y015365D02*
X044003Y015365D01*
X043925Y015524D02*
X047901Y015524D01*
X047901Y015682D02*
X043824Y015682D01*
X043665Y015841D02*
X047901Y015841D01*
X047901Y015999D02*
X043406Y015999D01*
X042361Y014097D02*
X042314Y014097D01*
X042536Y013939D02*
X042721Y013939D01*
X042683Y013780D02*
X043193Y013780D01*
X043237Y013939D02*
X043326Y013939D01*
X043103Y013622D02*
X042774Y013622D01*
X042835Y013463D02*
X043041Y013463D01*
X043007Y013305D02*
X042878Y013305D01*
X044716Y014097D02*
X047901Y014097D01*
X047901Y013939D02*
X044915Y013939D01*
X045049Y013780D02*
X047901Y013780D01*
X047901Y013622D02*
X045139Y013622D01*
X045200Y013463D02*
X047901Y013463D01*
X047901Y013305D02*
X045235Y013305D01*
X042930Y010610D02*
X009073Y010610D01*
X009067Y010553D02*
X009067Y010553D01*
X009031Y010452D02*
X042948Y010452D01*
X043013Y010293D02*
X008976Y010293D01*
X008920Y010135D02*
X043119Y010135D01*
X043283Y009976D02*
X008865Y009976D01*
X008152Y013463D02*
X034068Y013463D01*
X033965Y013622D02*
X007994Y013622D01*
X007992Y013624D02*
X007992Y013624D01*
X007743Y013780D02*
X033928Y013780D01*
X033939Y013939D02*
X024931Y013939D01*
X024900Y013926D02*
X025184Y014044D01*
X025401Y014261D01*
X025518Y014544D01*
X025518Y014851D01*
X025401Y015135D01*
X025184Y015352D01*
X024900Y015469D01*
X024593Y015469D01*
X024310Y015352D01*
X024093Y015135D01*
X023976Y014851D01*
X023976Y014544D01*
X024093Y014261D01*
X024310Y014044D01*
X024593Y013926D01*
X024900Y013926D01*
X024563Y013939D02*
X007490Y013939D01*
X007412Y013988D02*
X007412Y013988D01*
X007100Y014097D02*
X024256Y014097D01*
X024098Y014256D02*
X006396Y014256D01*
X006766Y014214D02*
X006766Y014214D01*
X005776Y014256D02*
X002561Y014256D01*
X002566Y014261D02*
X002684Y014544D01*
X002684Y014851D01*
X002566Y015135D01*
X002349Y015352D01*
X002066Y015469D01*
X001759Y015469D01*
X001475Y015352D01*
X001258Y015135D01*
X001141Y014851D01*
X001141Y014544D01*
X001258Y014261D01*
X001475Y014044D01*
X001759Y013926D01*
X002066Y013926D01*
X002349Y014044D01*
X002566Y014261D01*
X002630Y014414D02*
X024029Y014414D01*
X023976Y014573D02*
X002684Y014573D01*
X002684Y014731D02*
X023976Y014731D01*
X023992Y014890D02*
X002668Y014890D01*
X002602Y015048D02*
X024057Y015048D01*
X024165Y015207D02*
X002494Y015207D01*
X002316Y015365D02*
X024343Y015365D01*
X025150Y015365D02*
X034212Y015365D01*
X034212Y015207D02*
X030343Y015207D01*
X030327Y015223D02*
X030142Y015300D01*
X029214Y015300D01*
X029029Y015223D01*
X028887Y015081D01*
X028810Y014896D01*
X028810Y014696D01*
X028887Y014511D01*
X029029Y014369D01*
X029214Y014292D01*
X030142Y014292D01*
X030327Y014369D01*
X030468Y014511D01*
X030545Y014696D01*
X030545Y014896D01*
X030468Y015081D01*
X030327Y015223D01*
X030482Y015048D02*
X034212Y015048D01*
X034212Y014890D02*
X030545Y014890D01*
X030545Y014731D02*
X034212Y014731D01*
X034212Y014573D02*
X030494Y014573D01*
X030372Y014414D02*
X034212Y014414D01*
X034188Y014256D02*
X025396Y014256D01*
X025464Y014414D02*
X028983Y014414D01*
X028861Y014573D02*
X025518Y014573D01*
X025518Y014731D02*
X028810Y014731D01*
X028810Y014890D02*
X025502Y014890D01*
X025437Y015048D02*
X028873Y015048D01*
X029012Y015207D02*
X025329Y015207D01*
X025238Y014097D02*
X034005Y014097D01*
X034432Y013812D02*
X034432Y017788D01*
X033997Y017743D02*
X033303Y017743D01*
X033341Y017901D02*
X033997Y017901D01*
X033997Y018060D02*
X033330Y018060D01*
X033328Y018073D02*
X033301Y018154D01*
X033262Y018231D01*
X033212Y018300D01*
X033151Y018360D01*
X033082Y018411D01*
X033006Y018450D01*
X032925Y018476D01*
X032840Y018489D01*
X032111Y018489D01*
X032111Y017987D01*
X033341Y017987D01*
X033341Y017989D01*
X033328Y018073D01*
X033269Y018218D02*
X033997Y018218D01*
X033997Y018377D02*
X033129Y018377D01*
X033997Y018535D02*
X028536Y018535D01*
X028577Y018694D02*
X033997Y018694D01*
X034078Y018852D02*
X028569Y018852D01*
X028503Y019011D02*
X034212Y019011D01*
X034212Y019169D02*
X028336Y019169D01*
X028429Y018377D02*
X031738Y018377D01*
X032029Y018377D02*
X032111Y018377D01*
X032111Y018218D02*
X032029Y018218D01*
X032029Y018060D02*
X032111Y018060D01*
X032111Y017901D02*
X032029Y017901D01*
X032029Y017743D02*
X032111Y017743D01*
X032111Y017584D02*
X032029Y017584D01*
X032029Y017426D02*
X032111Y017426D01*
X031910Y017426D02*
X000490Y017426D01*
X000490Y017584D02*
X031662Y017584D01*
X031942Y016508D02*
X032027Y016521D01*
X032029Y016521D01*
X032029Y016019D01*
X032111Y016019D01*
X032111Y016521D01*
X032840Y016521D01*
X032925Y016508D01*
X033006Y016481D01*
X033082Y016442D01*
X033151Y016392D01*
X033212Y016331D01*
X033262Y016262D01*
X033301Y016186D01*
X033328Y016105D01*
X033341Y016020D01*
X033341Y016018D01*
X032111Y016018D01*
X032111Y015936D01*
X032111Y015433D01*
X032840Y015433D01*
X032925Y015447D01*
X033006Y015473D01*
X033082Y015512D01*
X033151Y015562D01*
X033212Y015623D01*
X033262Y015692D01*
X033301Y015769D01*
X033328Y015850D01*
X033341Y015934D01*
X033341Y015936D01*
X032111Y015936D01*
X032029Y015936D01*
X032029Y015433D01*
X032027Y015433D01*
X031942Y015447D01*
X031861Y015473D01*
X031785Y015512D01*
X031716Y015562D01*
X031655Y015623D01*
X031605Y015692D01*
X031566Y015769D01*
X031539Y015850D01*
X031526Y015934D01*
X031526Y015936D01*
X032029Y015936D01*
X032029Y016018D01*
X031526Y016018D01*
X031526Y016020D01*
X031539Y016105D01*
X031566Y016186D01*
X031605Y016262D01*
X031655Y016331D01*
X031716Y016392D01*
X031785Y016442D01*
X031861Y016481D01*
X031942Y016508D01*
X032029Y016475D02*
X032111Y016475D01*
X032111Y016316D02*
X032029Y016316D01*
X032029Y016158D02*
X032111Y016158D01*
X032111Y015999D02*
X034212Y015999D01*
X034212Y015841D02*
X033325Y015841D01*
X033255Y015682D02*
X034212Y015682D01*
X034212Y015524D02*
X033098Y015524D01*
X033310Y016158D02*
X034212Y016158D01*
X034212Y016316D02*
X033223Y016316D01*
X033018Y016475D02*
X034212Y016475D01*
X034212Y016633D02*
X000490Y016633D01*
X000490Y016475D02*
X031849Y016475D01*
X031644Y016316D02*
X000490Y016316D01*
X000490Y016158D02*
X031557Y016158D01*
X031542Y015841D02*
X000490Y015841D01*
X000490Y015999D02*
X032029Y015999D01*
X032029Y015841D02*
X032111Y015841D01*
X032111Y015682D02*
X032029Y015682D01*
X032029Y015524D02*
X032111Y015524D01*
X031769Y015524D02*
X000490Y015524D01*
X000490Y015682D02*
X031612Y015682D01*
X032957Y017426D02*
X034045Y017426D01*
X033997Y017584D02*
X033205Y017584D01*
X034212Y017267D02*
X000490Y017267D01*
X000490Y017109D02*
X034212Y017109D01*
X034212Y016950D02*
X000490Y016950D01*
X000490Y016792D02*
X034212Y016792D01*
X034432Y018458D02*
X034432Y022080D01*
X033976Y021864D02*
X029680Y021864D01*
X029951Y021705D02*
X034094Y021705D01*
X034212Y021547D02*
X030110Y021547D01*
X030268Y021388D02*
X034212Y021388D01*
X034212Y021230D02*
X030427Y021230D01*
X030881Y021071D02*
X034212Y021071D01*
X034212Y020913D02*
X030881Y020913D01*
X030881Y020754D02*
X034212Y020754D01*
X034212Y020596D02*
X030881Y020596D01*
X030919Y020437D02*
X034212Y020437D01*
X034212Y020279D02*
X033145Y020279D01*
X033257Y020120D02*
X034212Y020120D01*
X034212Y019962D02*
X033301Y019962D01*
X033297Y019803D02*
X034212Y019803D01*
X034212Y019645D02*
X033231Y019645D01*
X033081Y019486D02*
X034212Y019486D01*
X034212Y019328D02*
X013715Y019328D01*
X013773Y019169D02*
X027082Y019169D01*
X026915Y019011D02*
X013773Y019011D01*
X013718Y018852D02*
X026850Y018852D01*
X026842Y018694D02*
X013589Y018694D01*
X006528Y023290D02*
X005347Y024471D01*
X005347Y028753D01*
X005142Y028996D02*
X000490Y028996D01*
X000490Y028838D02*
X005039Y028838D01*
X005034Y028679D02*
X000490Y028679D01*
X000490Y028521D02*
X005127Y028521D01*
X005127Y028362D02*
X000490Y028362D01*
X000490Y028204D02*
X005127Y028204D01*
X005127Y028045D02*
X000490Y028045D01*
X000490Y027887D02*
X005127Y027887D01*
X005127Y027728D02*
X000490Y027728D01*
X000490Y027570D02*
X005127Y027570D01*
X005127Y027411D02*
X000490Y027411D01*
X000490Y027253D02*
X005127Y027253D01*
X005127Y027094D02*
X000490Y027094D01*
X000490Y026936D02*
X005127Y026936D01*
X005127Y026777D02*
X000490Y026777D01*
X000490Y026619D02*
X005127Y026619D01*
X005127Y026460D02*
X000490Y026460D01*
X000490Y026302D02*
X005127Y026302D01*
X005127Y026143D02*
X000490Y026143D01*
X000490Y025985D02*
X005127Y025985D01*
X005127Y025826D02*
X000490Y025826D01*
X000490Y025668D02*
X005127Y025668D01*
X005127Y025509D02*
X000490Y025509D01*
X000490Y025351D02*
X005127Y025351D01*
X005127Y025192D02*
X000490Y025192D01*
X000490Y025034D02*
X005127Y025034D01*
X005127Y024875D02*
X000490Y024875D01*
X000490Y024717D02*
X005127Y024717D01*
X005127Y024558D02*
X000490Y024558D01*
X000490Y024400D02*
X005127Y024400D01*
X005266Y024241D02*
X000490Y024241D01*
X000490Y024083D02*
X005425Y024083D01*
X005583Y023924D02*
X000490Y023924D01*
X000490Y023766D02*
X005742Y023766D01*
X005900Y023607D02*
X000490Y023607D01*
X000490Y023449D02*
X006059Y023449D01*
X006217Y023290D02*
X000490Y023290D01*
X000490Y023132D02*
X006376Y023132D01*
X004953Y022339D02*
X025770Y022339D01*
X025612Y022498D02*
X004876Y022498D01*
X004382Y022498D02*
X000490Y022498D01*
X000490Y022656D02*
X025453Y022656D01*
X025295Y022815D02*
X000490Y022815D01*
X000490Y022973D02*
X025136Y022973D01*
X026115Y023733D02*
X026115Y025505D01*
X026432Y025509D02*
X027865Y025509D01*
X027865Y025351D02*
X026395Y025351D01*
X026335Y025192D02*
X027865Y025192D01*
X027894Y025034D02*
X026335Y025034D01*
X026391Y025668D02*
X027865Y025668D01*
X029306Y025826D02*
X029388Y025826D01*
X029321Y026460D02*
X029306Y026460D01*
X029281Y027019D02*
X029709Y027019D01*
X029709Y027407D01*
X029438Y027407D01*
X029392Y027395D01*
X029351Y027371D01*
X029317Y027338D01*
X029294Y027297D01*
X029281Y027251D01*
X029281Y027019D01*
X029281Y027094D02*
X028656Y027094D01*
X028814Y027253D02*
X029282Y027253D01*
X028973Y027411D02*
X032964Y027411D01*
X032934Y027253D02*
X030231Y027253D01*
X030232Y027094D02*
X032984Y027094D01*
X032991Y027570D02*
X029131Y027570D01*
X029068Y027818D02*
X028231Y026981D01*
X029068Y027818D02*
X033152Y027818D01*
X034056Y028721D01*
X034056Y030804D01*
X033847Y031216D02*
X033750Y031216D01*
X033663Y031057D02*
X033449Y031057D01*
X033515Y030899D02*
X033597Y030899D01*
X033596Y030740D02*
X033516Y030740D01*
X033462Y030581D02*
X033650Y030581D01*
X033786Y030423D02*
X033326Y030423D01*
X033056Y030804D02*
X029180Y030804D01*
X027739Y029363D01*
X028239Y029472D02*
X028424Y029472D01*
X028318Y029630D02*
X033836Y029630D01*
X033836Y029472D02*
X028629Y029472D01*
X028895Y029313D02*
X033836Y029313D01*
X033836Y029155D02*
X028995Y029155D01*
X029030Y028996D02*
X029416Y028996D01*
X029422Y029003D02*
X029281Y028861D01*
X029204Y028676D01*
X029204Y028475D01*
X029281Y028290D01*
X029422Y028149D01*
X029607Y028072D01*
X030535Y028072D01*
X030720Y028149D01*
X030862Y028290D01*
X030939Y028475D01*
X030939Y028676D01*
X030862Y028861D01*
X030720Y029003D01*
X030535Y029079D01*
X029607Y029079D01*
X029422Y029003D01*
X029271Y028838D02*
X029030Y028838D01*
X029030Y028679D02*
X029205Y028679D01*
X029204Y028521D02*
X029030Y028521D01*
X029030Y028362D02*
X029251Y028362D01*
X029367Y028204D02*
X029030Y028204D01*
X028990Y028045D02*
X033023Y028045D01*
X033101Y028078D02*
X033101Y028078D01*
X033228Y028204D02*
X030776Y028204D01*
X030892Y028362D02*
X033386Y028362D01*
X033545Y028521D02*
X030939Y028521D01*
X030937Y028679D02*
X033703Y028679D01*
X033836Y028838D02*
X030872Y028838D01*
X030727Y028996D02*
X033836Y028996D01*
X033836Y029789D02*
X028476Y029789D01*
X028635Y029947D02*
X033836Y029947D01*
X033836Y030106D02*
X028793Y030106D01*
X028952Y030264D02*
X033836Y030264D01*
X032786Y030423D02*
X029110Y030423D01*
X029269Y030581D02*
X032650Y030581D01*
X032663Y031057D02*
X028976Y031057D01*
X028963Y030899D02*
X028818Y030899D01*
X028766Y030847D02*
X028766Y030847D01*
X028805Y030740D02*
X028659Y030740D01*
X028646Y030581D02*
X024886Y030581D01*
X023802Y030938D02*
X028546Y030938D01*
X029019Y031410D01*
X032365Y031410D01*
X032463Y031312D01*
X033056Y031804D02*
X023802Y031804D01*
X023015Y031017D01*
X022795Y031057D02*
X012556Y031057D01*
X012556Y031216D02*
X022902Y031216D01*
X023061Y031374D02*
X012556Y031374D01*
X012556Y031533D02*
X023219Y031533D01*
X023378Y031691D02*
X012556Y031691D01*
X012556Y031850D02*
X023536Y031850D01*
X023582Y031895D02*
X023582Y031895D01*
X023695Y032008D02*
X012556Y032008D01*
X011794Y031647D02*
X011794Y033436D01*
X011828Y033469D01*
X011388Y033435D02*
X011268Y033435D01*
X011268Y033287D02*
X011268Y033652D01*
X011010Y033909D01*
X010645Y033909D01*
X010388Y033652D01*
X010388Y033287D01*
X010639Y033036D01*
X010639Y032042D01*
X010506Y032042D01*
X010424Y031960D01*
X010424Y031333D01*
X010445Y031312D01*
X010424Y031291D01*
X010424Y030663D01*
X010506Y030581D01*
X010590Y030581D01*
X010590Y029867D01*
X010541Y029818D01*
X010493Y029702D01*
X010493Y029576D01*
X010541Y029459D01*
X010630Y029370D01*
X010747Y029321D01*
X010873Y029321D01*
X010990Y029370D01*
X011079Y029459D01*
X011127Y029576D01*
X011127Y029702D01*
X011079Y029818D01*
X011030Y029867D01*
X011030Y030581D01*
X011212Y030581D01*
X011294Y030663D01*
X011294Y031291D01*
X011274Y031312D01*
X011294Y031333D01*
X011294Y031960D01*
X011212Y032042D01*
X011079Y032042D01*
X011079Y033099D01*
X011268Y033287D01*
X011257Y033276D02*
X011399Y033276D01*
X011557Y033118D02*
X011098Y033118D01*
X011079Y032959D02*
X011574Y032959D01*
X011574Y032801D02*
X011079Y032801D01*
X011079Y032642D02*
X011574Y032642D01*
X011574Y032484D02*
X011079Y032484D01*
X011079Y032325D02*
X011574Y032325D01*
X011574Y032167D02*
X011079Y032167D01*
X011247Y032008D02*
X011406Y032008D01*
X011359Y031850D02*
X011294Y031850D01*
X011294Y031691D02*
X011359Y031691D01*
X011359Y031533D02*
X011294Y031533D01*
X011294Y031374D02*
X011359Y031374D01*
X011359Y031216D02*
X011294Y031216D01*
X011294Y031057D02*
X011359Y031057D01*
X011359Y030899D02*
X011294Y030899D01*
X011294Y030740D02*
X011359Y030740D01*
X011441Y030581D02*
X011213Y030581D01*
X011030Y030423D02*
X011574Y030423D01*
X011574Y030264D02*
X011030Y030264D01*
X011030Y030106D02*
X011574Y030106D01*
X011574Y029947D02*
X011030Y029947D01*
X011091Y029789D02*
X011574Y029789D01*
X011574Y029630D02*
X011127Y029630D01*
X011084Y029472D02*
X011574Y029472D01*
X011520Y029313D02*
X010046Y029313D01*
X010046Y029178D02*
X010046Y030581D01*
X010208Y030581D01*
X010290Y030663D01*
X010290Y031291D01*
X010270Y031312D01*
X010290Y031333D01*
X010290Y031960D01*
X010208Y032042D01*
X010075Y032042D01*
X010075Y033095D01*
X010268Y033287D01*
X010268Y033652D01*
X010010Y033909D01*
X009645Y033909D01*
X009388Y033652D01*
X009388Y033287D01*
X009635Y033040D01*
X009635Y032042D01*
X009502Y032042D01*
X009420Y031960D01*
X009420Y031333D01*
X009441Y031312D01*
X009420Y031291D01*
X009420Y030663D01*
X009502Y030581D01*
X009606Y030581D01*
X009606Y029178D01*
X009557Y029129D01*
X009509Y029013D01*
X009509Y028887D01*
X009557Y028770D01*
X009646Y028681D01*
X009763Y028633D01*
X009889Y028633D01*
X010005Y028681D01*
X010095Y028770D01*
X010143Y028887D01*
X010143Y029013D01*
X010095Y029129D01*
X010046Y029178D01*
X010069Y029155D02*
X011477Y029155D01*
X011513Y028996D02*
X010143Y028996D01*
X010123Y028838D02*
X011710Y028838D01*
X011878Y028838D02*
X021614Y028838D01*
X021614Y028679D02*
X010002Y028679D01*
X009826Y028950D02*
X009826Y030948D01*
X009855Y030977D01*
X009420Y030899D02*
X009277Y030899D01*
X009277Y031057D02*
X009420Y031057D01*
X009420Y031216D02*
X009277Y031216D01*
X009277Y031291D02*
X009277Y030663D01*
X009195Y030581D01*
X009061Y030581D01*
X009061Y029277D01*
X009110Y029228D01*
X009159Y029111D01*
X009159Y028985D01*
X009110Y028868D01*
X009021Y028779D01*
X008905Y028731D01*
X008778Y028731D01*
X008662Y028779D01*
X008573Y028868D01*
X008524Y028985D01*
X008524Y029111D01*
X008573Y029228D01*
X008621Y029277D01*
X008621Y030581D01*
X008488Y030581D01*
X008406Y030663D01*
X008406Y031291D01*
X008427Y031312D01*
X008406Y031333D01*
X008406Y031894D01*
X008292Y031781D01*
X008292Y031333D01*
X008272Y031312D01*
X008292Y031291D01*
X008292Y030663D01*
X008210Y030581D01*
X007504Y030581D01*
X007422Y030663D01*
X007422Y030757D01*
X007259Y030757D01*
X007259Y030663D01*
X007177Y030581D01*
X006470Y030581D01*
X006388Y030663D01*
X006388Y030757D01*
X006226Y030757D01*
X006226Y030663D01*
X006144Y030581D01*
X006470Y030581D01*
X006388Y030740D02*
X006226Y030740D01*
X006144Y030581D02*
X005437Y030581D01*
X005355Y030663D01*
X005355Y030757D01*
X004651Y030757D01*
X004651Y030663D01*
X004569Y030581D01*
X003862Y030581D01*
X003780Y030663D01*
X003780Y030757D01*
X003770Y030757D01*
X003306Y031221D01*
X003306Y033259D01*
X003388Y033340D01*
X003388Y033652D01*
X003645Y033909D01*
X004010Y033909D01*
X004268Y033652D01*
X004268Y033287D01*
X004010Y033029D01*
X003746Y033029D01*
X003746Y031403D01*
X003780Y031369D01*
X003780Y031960D01*
X003862Y032042D01*
X004569Y032042D01*
X004586Y032025D01*
X004586Y033089D01*
X004388Y033287D01*
X004388Y033652D01*
X004645Y033909D01*
X005010Y033909D01*
X005268Y033652D01*
X005268Y033287D01*
X005026Y033045D01*
X005026Y031713D01*
X004897Y031584D01*
X004740Y031427D01*
X004651Y031427D01*
X004651Y031333D01*
X004630Y031312D01*
X004651Y031291D01*
X004651Y031197D01*
X005355Y031197D01*
X005355Y031291D01*
X005376Y031312D01*
X005355Y031333D01*
X005355Y031960D01*
X005437Y032042D01*
X005865Y032042D01*
X006112Y032289D01*
X006112Y033131D01*
X006010Y033029D01*
X005645Y033029D01*
X005388Y033287D01*
X005388Y033652D01*
X005645Y033909D01*
X006010Y033909D01*
X006112Y033808D01*
X006112Y034064D01*
X006240Y034193D01*
X006388Y034340D01*
X006388Y034652D01*
X006645Y034909D01*
X007010Y034909D01*
X007268Y034652D01*
X007268Y034287D01*
X007010Y034029D01*
X006699Y034029D01*
X006552Y033882D01*
X006552Y033816D01*
X006645Y033909D01*
X007010Y033909D01*
X007096Y033823D01*
X007096Y034049D01*
X007225Y034178D01*
X007388Y034340D01*
X007388Y034652D01*
X007645Y034909D01*
X008010Y034909D01*
X008268Y034652D01*
X008268Y034287D01*
X008010Y034029D01*
X007699Y034029D01*
X007536Y033866D01*
X007536Y033856D01*
X007629Y033949D01*
X007808Y033949D01*
X007808Y033489D01*
X007848Y033489D01*
X007848Y033949D01*
X008026Y033949D01*
X008129Y033847D01*
X008129Y034082D01*
X008258Y034211D01*
X008388Y034340D01*
X008388Y034652D01*
X008645Y034909D01*
X009010Y034909D01*
X009268Y034652D01*
X009268Y034287D01*
X009010Y034029D01*
X008699Y034029D01*
X008569Y033900D01*
X008569Y033833D01*
X008645Y033909D01*
X009010Y033909D01*
X009268Y033652D01*
X009268Y033287D01*
X009061Y033081D01*
X009061Y032042D01*
X009195Y032042D01*
X009277Y031960D01*
X009277Y031333D01*
X009256Y031312D01*
X009277Y031291D01*
X009277Y031374D02*
X009420Y031374D01*
X009420Y031533D02*
X009277Y031533D01*
X009277Y031691D02*
X009420Y031691D01*
X009420Y031850D02*
X009277Y031850D01*
X009229Y032008D02*
X009467Y032008D01*
X009635Y032167D02*
X009061Y032167D01*
X009061Y032325D02*
X009635Y032325D01*
X009635Y032484D02*
X009061Y032484D01*
X009061Y032642D02*
X009635Y032642D01*
X009635Y032801D02*
X009061Y032801D01*
X009061Y032959D02*
X009635Y032959D01*
X009557Y033118D02*
X009098Y033118D01*
X009257Y033276D02*
X009399Y033276D01*
X009388Y033435D02*
X009268Y033435D01*
X009268Y033593D02*
X009388Y033593D01*
X009488Y033752D02*
X009168Y033752D01*
X009049Y034069D02*
X009550Y034069D01*
X009629Y033989D02*
X009808Y033989D01*
X009808Y034449D01*
X009848Y034449D01*
X009848Y034489D01*
X010308Y034489D01*
X010308Y034668D01*
X010026Y034949D01*
X009848Y034949D01*
X009848Y034489D01*
X009808Y034489D01*
X009808Y034449D01*
X009348Y034449D01*
X009348Y034271D01*
X009629Y033989D01*
X009808Y034069D02*
X009848Y034069D01*
X009848Y033989D02*
X010026Y033989D01*
X010308Y034271D01*
X010308Y034449D01*
X009848Y034449D01*
X009848Y033989D01*
X009848Y034227D02*
X009808Y034227D01*
X009808Y034386D02*
X009848Y034386D01*
X009808Y034489D02*
X009348Y034489D01*
X009348Y034668D01*
X009629Y034949D01*
X009808Y034949D01*
X009808Y034489D01*
X009808Y034544D02*
X009848Y034544D01*
X009848Y034703D02*
X009808Y034703D01*
X009808Y034861D02*
X009848Y034861D01*
X010115Y034861D02*
X010597Y034861D01*
X010439Y034703D02*
X010273Y034703D01*
X010308Y034544D02*
X010388Y034544D01*
X010388Y034386D02*
X010308Y034386D01*
X010264Y034227D02*
X010448Y034227D01*
X010606Y034069D02*
X010106Y034069D01*
X010168Y033752D02*
X010488Y033752D01*
X010388Y033593D02*
X010268Y033593D01*
X010268Y033435D02*
X010388Y033435D01*
X010399Y033276D02*
X010257Y033276D01*
X010098Y033118D02*
X010557Y033118D01*
X010639Y032959D02*
X010075Y032959D01*
X010075Y032801D02*
X010639Y032801D01*
X010639Y032642D02*
X010075Y032642D01*
X010075Y032484D02*
X010639Y032484D01*
X010639Y032325D02*
X010075Y032325D01*
X010075Y032167D02*
X010639Y032167D01*
X010471Y032008D02*
X010243Y032008D01*
X010290Y031850D02*
X010424Y031850D01*
X010424Y031691D02*
X010290Y031691D01*
X010290Y031533D02*
X010424Y031533D01*
X010424Y031374D02*
X010290Y031374D01*
X010290Y031216D02*
X010424Y031216D01*
X010424Y031057D02*
X010290Y031057D01*
X010290Y030899D02*
X010424Y030899D01*
X010424Y030740D02*
X010290Y030740D01*
X010209Y030581D02*
X010506Y030581D01*
X010590Y030423D02*
X010046Y030423D01*
X010046Y030264D02*
X010590Y030264D01*
X010590Y030106D02*
X010046Y030106D01*
X010046Y029947D02*
X010590Y029947D01*
X010529Y029789D02*
X010046Y029789D01*
X010046Y029630D02*
X010493Y029630D01*
X010536Y029472D02*
X010046Y029472D01*
X009606Y029472D02*
X009061Y029472D01*
X009061Y029630D02*
X009606Y029630D01*
X009606Y029789D02*
X009061Y029789D01*
X009061Y029947D02*
X009606Y029947D01*
X009606Y030106D02*
X009061Y030106D01*
X009061Y030264D02*
X009606Y030264D01*
X009606Y030423D02*
X009061Y030423D01*
X009195Y030581D02*
X009502Y030581D01*
X009420Y030740D02*
X009277Y030740D01*
X008841Y030977D02*
X008841Y029048D01*
X008542Y029155D02*
X000490Y029155D01*
X000490Y029313D02*
X008621Y029313D01*
X008621Y029472D02*
X000490Y029472D01*
X000490Y029630D02*
X008621Y029630D01*
X008621Y029789D02*
X000490Y029789D01*
X000490Y029947D02*
X008621Y029947D01*
X008621Y030106D02*
X000490Y030106D01*
X000490Y030264D02*
X008621Y030264D01*
X008621Y030423D02*
X000490Y030423D01*
X000490Y030581D02*
X003862Y030581D01*
X003780Y030740D02*
X000490Y030740D01*
X000490Y030899D02*
X003629Y030899D01*
X003470Y031057D02*
X000490Y031057D01*
X000490Y031216D02*
X003312Y031216D01*
X003306Y031374D02*
X000490Y031374D01*
X000490Y031533D02*
X003306Y031533D01*
X003306Y031691D02*
X000490Y031691D01*
X000490Y031850D02*
X003306Y031850D01*
X003306Y032008D02*
X000490Y032008D01*
X000490Y032167D02*
X003306Y032167D01*
X003306Y032325D02*
X000490Y032325D01*
X000490Y032484D02*
X003306Y032484D01*
X003306Y032642D02*
X000490Y032642D01*
X000490Y032801D02*
X003306Y032801D01*
X003306Y032959D02*
X000490Y032959D01*
X000490Y033118D02*
X003306Y033118D01*
X003323Y033276D02*
X002206Y033276D01*
X002066Y033218D02*
X002349Y033335D01*
X002566Y033552D01*
X002684Y033836D01*
X002684Y034142D01*
X002566Y034426D01*
X002349Y034643D01*
X002066Y034760D01*
X001759Y034760D01*
X001475Y034643D01*
X001258Y034426D01*
X001141Y034142D01*
X001141Y033836D01*
X001258Y033552D01*
X001475Y033335D01*
X001759Y033218D01*
X002066Y033218D01*
X002449Y033435D02*
X003388Y033435D01*
X003388Y033593D02*
X002583Y033593D01*
X002649Y033752D02*
X003488Y033752D01*
X003645Y034029D02*
X004010Y034029D01*
X004268Y034287D01*
X004268Y034652D01*
X004010Y034909D01*
X003645Y034909D01*
X003388Y034652D01*
X003388Y034287D01*
X003645Y034029D01*
X003606Y034069D02*
X002684Y034069D01*
X002684Y033910D02*
X006112Y033910D01*
X006026Y033989D02*
X006308Y034271D01*
X006308Y034449D01*
X005848Y034449D01*
X005848Y034489D01*
X006308Y034489D01*
X006308Y034668D01*
X006026Y034949D01*
X005848Y034949D01*
X005848Y034489D01*
X005808Y034489D01*
X005808Y034449D01*
X005848Y034449D01*
X005848Y033989D01*
X006026Y033989D01*
X006106Y034069D02*
X006116Y034069D01*
X006264Y034227D02*
X006274Y034227D01*
X006308Y034386D02*
X006388Y034386D01*
X006388Y034544D02*
X006308Y034544D01*
X006273Y034703D02*
X006439Y034703D01*
X006597Y034861D02*
X006115Y034861D01*
X005848Y034861D02*
X005808Y034861D01*
X005808Y034949D02*
X005629Y034949D01*
X005348Y034668D01*
X005348Y034489D01*
X005808Y034489D01*
X005808Y034949D01*
X005808Y034703D02*
X005848Y034703D01*
X005848Y034544D02*
X005808Y034544D01*
X005808Y034449D02*
X005348Y034449D01*
X005348Y034271D01*
X005629Y033989D01*
X005808Y033989D01*
X005808Y034449D01*
X005808Y034386D02*
X005848Y034386D01*
X005848Y034227D02*
X005808Y034227D01*
X005808Y034069D02*
X005848Y034069D01*
X005550Y034069D02*
X005049Y034069D01*
X005010Y034029D02*
X005268Y034287D01*
X005268Y034652D01*
X005010Y034909D01*
X004645Y034909D01*
X004388Y034652D01*
X004388Y034287D01*
X004645Y034029D01*
X005010Y034029D01*
X005208Y034227D02*
X005391Y034227D01*
X005348Y034386D02*
X005268Y034386D01*
X005268Y034544D02*
X005348Y034544D01*
X005382Y034703D02*
X005217Y034703D01*
X005058Y034861D02*
X005540Y034861D01*
X004597Y034861D02*
X004058Y034861D01*
X004217Y034703D02*
X004439Y034703D01*
X004388Y034544D02*
X004268Y034544D01*
X004268Y034386D02*
X004388Y034386D01*
X004448Y034227D02*
X004208Y034227D01*
X004049Y034069D02*
X004606Y034069D01*
X004488Y033752D02*
X004168Y033752D01*
X004268Y033593D02*
X004388Y033593D01*
X004388Y033435D02*
X004268Y033435D01*
X004257Y033276D02*
X004399Y033276D01*
X004557Y033118D02*
X004098Y033118D01*
X003746Y032959D02*
X004586Y032959D01*
X004586Y032801D02*
X003746Y032801D01*
X003746Y032642D02*
X004586Y032642D01*
X004586Y032484D02*
X003746Y032484D01*
X003746Y032325D02*
X004586Y032325D01*
X004586Y032167D02*
X003746Y032167D01*
X003746Y032008D02*
X003828Y032008D01*
X003780Y031850D02*
X003746Y031850D01*
X003746Y031691D02*
X003780Y031691D01*
X003780Y031533D02*
X003746Y031533D01*
X003775Y031374D02*
X003780Y031374D01*
X003526Y031312D02*
X003526Y033168D01*
X003828Y033469D01*
X003448Y034227D02*
X002649Y034227D01*
X002583Y034386D02*
X003388Y034386D01*
X003388Y034544D02*
X002448Y034544D01*
X002205Y034703D02*
X003439Y034703D01*
X003597Y034861D02*
X000490Y034861D01*
X000490Y034703D02*
X001619Y034703D01*
X001376Y034544D02*
X000490Y034544D01*
X000490Y034386D02*
X001242Y034386D01*
X001176Y034227D02*
X000490Y034227D01*
X000490Y034069D02*
X001141Y034069D01*
X001141Y033910D02*
X000490Y033910D01*
X000490Y033752D02*
X001176Y033752D01*
X001241Y033593D02*
X000490Y033593D01*
X000490Y033435D02*
X001376Y033435D01*
X001618Y033276D02*
X000490Y033276D01*
X003526Y031312D02*
X003861Y030977D01*
X004215Y030977D01*
X005790Y030977D01*
X006824Y030977D01*
X007857Y030977D01*
X008292Y030899D02*
X008406Y030899D01*
X008406Y031057D02*
X008292Y031057D01*
X008292Y031216D02*
X008406Y031216D01*
X008406Y031374D02*
X008292Y031374D01*
X008292Y031533D02*
X008406Y031533D01*
X008406Y031691D02*
X008292Y031691D01*
X008361Y031850D02*
X008406Y031850D01*
X008349Y032149D02*
X008349Y033991D01*
X008828Y034469D01*
X009268Y034544D02*
X009348Y034544D01*
X009348Y034386D02*
X009268Y034386D01*
X009208Y034227D02*
X009391Y034227D01*
X009382Y034703D02*
X009217Y034703D01*
X009058Y034861D02*
X009540Y034861D01*
X008597Y034861D02*
X008058Y034861D01*
X008217Y034703D02*
X008439Y034703D01*
X008388Y034544D02*
X008268Y034544D01*
X008268Y034386D02*
X008388Y034386D01*
X008274Y034227D02*
X008208Y034227D01*
X008129Y034069D02*
X008049Y034069D01*
X008066Y033910D02*
X008129Y033910D01*
X007848Y033910D02*
X007808Y033910D01*
X007808Y033752D02*
X007848Y033752D01*
X007848Y033593D02*
X007808Y033593D01*
X007808Y033449D02*
X007848Y033449D01*
X007848Y032989D01*
X008026Y032989D01*
X008129Y033092D01*
X008129Y032240D01*
X007932Y032042D01*
X007521Y032042D01*
X007536Y032057D01*
X007536Y033082D01*
X007629Y032989D01*
X007808Y032989D01*
X007808Y033449D01*
X007808Y033435D02*
X007848Y033435D01*
X007848Y033276D02*
X007808Y033276D01*
X007808Y033118D02*
X007848Y033118D01*
X008129Y032959D02*
X007536Y032959D01*
X007536Y032801D02*
X008129Y032801D01*
X008129Y032642D02*
X007536Y032642D01*
X007536Y032484D02*
X008129Y032484D01*
X008129Y032325D02*
X007536Y032325D01*
X007536Y032167D02*
X008056Y032167D01*
X008349Y032149D02*
X007857Y031656D01*
X007857Y031647D01*
X007316Y032149D02*
X007316Y033958D01*
X007828Y034469D01*
X007388Y034544D02*
X007268Y034544D01*
X007268Y034386D02*
X007388Y034386D01*
X007274Y034227D02*
X007208Y034227D01*
X007116Y034069D02*
X007049Y034069D01*
X007096Y033910D02*
X006579Y033910D01*
X006332Y033973D02*
X006332Y032198D01*
X005790Y031656D01*
X005790Y031647D01*
X005355Y031691D02*
X005004Y031691D01*
X005026Y031850D02*
X005355Y031850D01*
X005403Y032008D02*
X005026Y032008D01*
X005026Y032167D02*
X005989Y032167D01*
X006112Y032325D02*
X005026Y032325D01*
X005026Y032484D02*
X006112Y032484D01*
X006112Y032642D02*
X005026Y032642D01*
X005026Y032801D02*
X006112Y032801D01*
X006112Y032959D02*
X005026Y032959D01*
X005098Y033118D02*
X005557Y033118D01*
X005399Y033276D02*
X005257Y033276D01*
X005268Y033435D02*
X005388Y033435D01*
X005388Y033593D02*
X005268Y033593D01*
X005168Y033752D02*
X005488Y033752D01*
X004828Y033469D02*
X004806Y033448D01*
X004806Y031804D01*
X004649Y031647D01*
X004215Y031647D01*
X004651Y031374D02*
X005355Y031374D01*
X005355Y031216D02*
X004651Y031216D01*
X004846Y031533D02*
X005355Y031533D01*
X005355Y030740D02*
X004651Y030740D01*
X004569Y030581D02*
X005437Y030581D01*
X007177Y030581D02*
X007504Y030581D01*
X007422Y030740D02*
X007259Y030740D01*
X008211Y030581D02*
X008488Y030581D01*
X008406Y030740D02*
X008292Y030740D01*
X008841Y031647D02*
X008841Y033456D01*
X008828Y033469D01*
X008579Y033910D02*
X011050Y033910D01*
X011168Y033752D02*
X011209Y033752D01*
X011268Y033593D02*
X011388Y033593D01*
X011302Y033969D02*
X012237Y033969D01*
X012336Y033871D01*
X012336Y031115D01*
X012188Y030967D01*
X011804Y030967D01*
X011794Y030977D01*
X011794Y029147D01*
X012111Y029155D02*
X020647Y029155D01*
X020602Y029313D02*
X012068Y029313D01*
X012014Y029472D02*
X020606Y029472D01*
X020672Y029630D02*
X012014Y029630D01*
X012014Y029789D02*
X020820Y029789D01*
X020760Y028996D02*
X012075Y028996D01*
X010810Y029639D02*
X010810Y030928D01*
X010859Y030977D01*
X010859Y031647D02*
X010859Y033438D01*
X010828Y033469D01*
X011302Y033969D02*
X010828Y034444D01*
X010828Y034469D01*
X011268Y034544D02*
X011388Y034544D01*
X011388Y034386D02*
X011268Y034386D01*
X011356Y034227D02*
X011448Y034227D01*
X011439Y034703D02*
X011217Y034703D01*
X011058Y034861D02*
X011597Y034861D01*
X012058Y034861D02*
X012540Y034861D01*
X012629Y034949D02*
X012348Y034668D01*
X012348Y034489D01*
X012808Y034489D01*
X012808Y034449D01*
X012848Y034449D01*
X012848Y034489D01*
X013308Y034489D01*
X013308Y034668D01*
X013026Y034949D01*
X012848Y034949D01*
X012848Y034489D01*
X012808Y034489D01*
X012808Y034949D01*
X012629Y034949D01*
X012808Y034861D02*
X012848Y034861D01*
X012848Y034703D02*
X012808Y034703D01*
X012808Y034544D02*
X012848Y034544D01*
X012848Y034449D02*
X013308Y034449D01*
X013308Y034271D01*
X013026Y033989D01*
X012848Y033989D01*
X012848Y034449D01*
X012808Y034449D02*
X012808Y033989D01*
X012629Y033989D01*
X012348Y034271D01*
X012348Y034449D01*
X012808Y034449D01*
X012808Y034386D02*
X012848Y034386D01*
X012848Y034227D02*
X012808Y034227D01*
X012808Y034069D02*
X012848Y034069D01*
X013106Y034069D02*
X013606Y034069D01*
X013645Y034029D02*
X014010Y034029D01*
X014268Y034287D01*
X014268Y034652D01*
X014010Y034909D01*
X013645Y034909D01*
X013388Y034652D01*
X013388Y034287D01*
X013645Y034029D01*
X013645Y033909D02*
X013388Y033652D01*
X013388Y033287D01*
X013645Y033029D01*
X014010Y033029D01*
X014268Y033287D01*
X014268Y033652D01*
X014010Y033909D01*
X013645Y033909D01*
X013488Y033752D02*
X013168Y033752D01*
X013268Y033593D02*
X013388Y033593D01*
X013388Y033435D02*
X013268Y033435D01*
X013257Y033276D02*
X013399Y033276D01*
X013557Y033118D02*
X013098Y033118D01*
X012556Y033910D02*
X015589Y033910D01*
X015629Y033949D02*
X015348Y033668D01*
X015348Y033489D01*
X015808Y033489D01*
X015808Y033449D01*
X015848Y033449D01*
X015848Y033489D01*
X016308Y033489D01*
X016308Y033668D01*
X016026Y033949D01*
X015848Y033949D01*
X015848Y033489D01*
X015808Y033489D01*
X015808Y033949D01*
X015629Y033949D01*
X015645Y034029D02*
X016010Y034029D01*
X016268Y034287D01*
X016268Y034652D01*
X016010Y034909D01*
X015645Y034909D01*
X015388Y034652D01*
X015388Y034287D01*
X015645Y034029D01*
X015606Y034069D02*
X015049Y034069D01*
X015010Y034029D02*
X015268Y034287D01*
X015268Y034652D01*
X015010Y034909D01*
X014645Y034909D01*
X014388Y034652D01*
X014388Y034287D01*
X014645Y034029D01*
X015010Y034029D01*
X015010Y033909D02*
X014645Y033909D01*
X014388Y033652D01*
X014388Y033287D01*
X014645Y033029D01*
X015010Y033029D01*
X015268Y033287D01*
X015268Y033652D01*
X015010Y033909D01*
X015168Y033752D02*
X015431Y033752D01*
X015348Y033593D02*
X015268Y033593D01*
X015268Y033435D02*
X015348Y033435D01*
X015348Y033449D02*
X015348Y033271D01*
X015629Y032989D01*
X015808Y032989D01*
X015808Y033449D01*
X015348Y033449D01*
X015348Y033276D02*
X015257Y033276D01*
X015098Y033118D02*
X015501Y033118D01*
X015808Y033118D02*
X015848Y033118D01*
X015848Y032989D02*
X016026Y032989D01*
X016308Y033271D01*
X016308Y033449D01*
X015848Y033449D01*
X015848Y032989D01*
X015848Y033276D02*
X015808Y033276D01*
X015808Y033435D02*
X015848Y033435D01*
X015848Y033593D02*
X015808Y033593D01*
X015808Y033752D02*
X015848Y033752D01*
X015848Y033910D02*
X015808Y033910D01*
X016066Y033910D02*
X022589Y033910D01*
X022606Y034069D02*
X022049Y034069D01*
X022010Y034029D02*
X022268Y034287D01*
X022268Y034652D01*
X022010Y034909D01*
X021645Y034909D01*
X021388Y034652D01*
X021388Y034287D01*
X021645Y034029D01*
X022010Y034029D01*
X022010Y033909D02*
X021645Y033909D01*
X021388Y033652D01*
X021388Y033287D01*
X021645Y033029D01*
X022010Y033029D01*
X022268Y033287D01*
X022268Y033652D01*
X022010Y033909D01*
X022168Y033752D02*
X022431Y033752D01*
X022348Y033593D02*
X022268Y033593D01*
X022268Y033435D02*
X022348Y033435D01*
X022348Y033276D02*
X022257Y033276D01*
X022098Y033118D02*
X022501Y033118D01*
X023308Y033276D02*
X024453Y033276D01*
X024211Y033435D02*
X023308Y033435D01*
X023308Y033593D02*
X024076Y033593D01*
X024010Y033752D02*
X023224Y033752D01*
X022448Y034227D02*
X022208Y034227D01*
X022268Y034386D02*
X022388Y034386D01*
X022388Y034544D02*
X022268Y034544D01*
X022217Y034703D02*
X022439Y034703D01*
X022597Y034861D02*
X022058Y034861D01*
X021597Y034861D02*
X021058Y034861D01*
X021010Y034909D02*
X020645Y034909D01*
X020388Y034652D01*
X020388Y034287D01*
X020645Y034029D01*
X021010Y034029D01*
X021268Y034287D01*
X021268Y034652D01*
X021010Y034909D01*
X021217Y034703D02*
X021439Y034703D01*
X021388Y034544D02*
X021268Y034544D01*
X021268Y034386D02*
X021388Y034386D01*
X021448Y034227D02*
X021208Y034227D01*
X021049Y034069D02*
X021606Y034069D01*
X021488Y033752D02*
X021168Y033752D01*
X021268Y033652D02*
X021010Y033909D01*
X020645Y033909D01*
X020388Y033652D01*
X020388Y033287D01*
X020645Y033029D01*
X021010Y033029D01*
X021268Y033287D01*
X021268Y033652D01*
X021268Y033593D02*
X021388Y033593D01*
X021388Y033435D02*
X021268Y033435D01*
X021257Y033276D02*
X021399Y033276D01*
X021557Y033118D02*
X021098Y033118D01*
X020557Y033118D02*
X020098Y033118D01*
X020010Y033029D02*
X020268Y033287D01*
X020268Y033652D01*
X020010Y033909D01*
X019645Y033909D01*
X019388Y033652D01*
X019388Y033287D01*
X019645Y033029D01*
X020010Y033029D01*
X020257Y033276D02*
X020399Y033276D01*
X020388Y033435D02*
X020268Y033435D01*
X020268Y033593D02*
X020388Y033593D01*
X020488Y033752D02*
X020168Y033752D01*
X020026Y033989D02*
X020308Y034271D01*
X020308Y034449D01*
X019848Y034449D01*
X019848Y034489D01*
X020308Y034489D01*
X020308Y034668D01*
X020026Y034949D01*
X019848Y034949D01*
X019848Y034489D01*
X019808Y034489D01*
X019808Y034449D01*
X019848Y034449D01*
X019848Y033989D01*
X020026Y033989D01*
X020106Y034069D02*
X020606Y034069D01*
X020448Y034227D02*
X020264Y034227D01*
X020308Y034386D02*
X020388Y034386D01*
X020388Y034544D02*
X020308Y034544D01*
X020273Y034703D02*
X020439Y034703D01*
X020597Y034861D02*
X020115Y034861D01*
X019848Y034861D02*
X019808Y034861D01*
X019808Y034949D02*
X019629Y034949D01*
X019348Y034668D01*
X019348Y034489D01*
X019808Y034489D01*
X019808Y034949D01*
X019808Y034703D02*
X019848Y034703D01*
X019848Y034544D02*
X019808Y034544D01*
X019808Y034449D02*
X019348Y034449D01*
X019348Y034271D01*
X019629Y033989D01*
X019808Y033989D01*
X019808Y034449D01*
X019808Y034386D02*
X019848Y034386D01*
X019848Y034227D02*
X019808Y034227D01*
X019808Y034069D02*
X019848Y034069D01*
X019550Y034069D02*
X019049Y034069D01*
X019010Y034029D02*
X019268Y034287D01*
X019268Y034652D01*
X019010Y034909D01*
X018645Y034909D01*
X018388Y034652D01*
X018388Y034287D01*
X018645Y034029D01*
X019010Y034029D01*
X019010Y033909D02*
X018645Y033909D01*
X018388Y033652D01*
X018388Y033287D01*
X018645Y033029D01*
X019010Y033029D01*
X019268Y033287D01*
X019268Y033652D01*
X019010Y033909D01*
X019168Y033752D02*
X019488Y033752D01*
X019388Y033593D02*
X019268Y033593D01*
X019268Y033435D02*
X019388Y033435D01*
X019399Y033276D02*
X019257Y033276D01*
X019098Y033118D02*
X019557Y033118D01*
X018557Y033118D02*
X018098Y033118D01*
X018010Y033029D02*
X018268Y033287D01*
X018268Y033652D01*
X018010Y033909D01*
X017645Y033909D01*
X017388Y033652D01*
X017388Y033287D01*
X017645Y033029D01*
X018010Y033029D01*
X018257Y033276D02*
X018399Y033276D01*
X018388Y033435D02*
X018268Y033435D01*
X018268Y033593D02*
X018388Y033593D01*
X018488Y033752D02*
X018168Y033752D01*
X018026Y033989D02*
X018308Y034271D01*
X018308Y034449D01*
X017848Y034449D01*
X017848Y034489D01*
X018308Y034489D01*
X018308Y034668D01*
X018026Y034949D01*
X017848Y034949D01*
X017848Y034489D01*
X017808Y034489D01*
X017808Y034449D01*
X017848Y034449D01*
X017848Y033989D01*
X018026Y033989D01*
X018106Y034069D02*
X018606Y034069D01*
X018448Y034227D02*
X018264Y034227D01*
X018308Y034386D02*
X018388Y034386D01*
X018388Y034544D02*
X018308Y034544D01*
X018273Y034703D02*
X018439Y034703D01*
X018597Y034861D02*
X018115Y034861D01*
X017848Y034861D02*
X017808Y034861D01*
X017808Y034949D02*
X017629Y034949D01*
X017348Y034668D01*
X017348Y034489D01*
X017808Y034489D01*
X017808Y034949D01*
X017808Y034703D02*
X017848Y034703D01*
X017848Y034544D02*
X017808Y034544D01*
X017808Y034449D02*
X017348Y034449D01*
X017348Y034271D01*
X017629Y033989D01*
X017808Y033989D01*
X017808Y034449D01*
X017808Y034386D02*
X017848Y034386D01*
X017848Y034227D02*
X017808Y034227D01*
X017808Y034069D02*
X017848Y034069D01*
X017550Y034069D02*
X017049Y034069D01*
X017010Y034029D02*
X017268Y034287D01*
X017268Y034652D01*
X017010Y034909D01*
X016645Y034909D01*
X016388Y034652D01*
X016388Y034287D01*
X016645Y034029D01*
X017010Y034029D01*
X017010Y033909D02*
X016645Y033909D01*
X016388Y033652D01*
X016388Y033287D01*
X016645Y033029D01*
X017010Y033029D01*
X017268Y033287D01*
X017268Y033652D01*
X017010Y033909D01*
X017168Y033752D02*
X017488Y033752D01*
X017388Y033593D02*
X017268Y033593D01*
X017268Y033435D02*
X017388Y033435D01*
X017399Y033276D02*
X017257Y033276D01*
X017098Y033118D02*
X017557Y033118D01*
X016557Y033118D02*
X016155Y033118D01*
X016308Y033276D02*
X016399Y033276D01*
X016388Y033435D02*
X016308Y033435D01*
X016308Y033593D02*
X016388Y033593D01*
X016488Y033752D02*
X016224Y033752D01*
X016049Y034069D02*
X016606Y034069D01*
X016448Y034227D02*
X016208Y034227D01*
X016268Y034386D02*
X016388Y034386D01*
X016388Y034544D02*
X016268Y034544D01*
X016217Y034703D02*
X016439Y034703D01*
X016597Y034861D02*
X016058Y034861D01*
X015597Y034861D02*
X015058Y034861D01*
X015217Y034703D02*
X015439Y034703D01*
X015388Y034544D02*
X015268Y034544D01*
X015268Y034386D02*
X015388Y034386D01*
X015448Y034227D02*
X015208Y034227D01*
X014606Y034069D02*
X014049Y034069D01*
X014208Y034227D02*
X014448Y034227D01*
X014388Y034386D02*
X014268Y034386D01*
X014268Y034544D02*
X014388Y034544D01*
X014439Y034703D02*
X014217Y034703D01*
X014058Y034861D02*
X014597Y034861D01*
X013597Y034861D02*
X013115Y034861D01*
X013273Y034703D02*
X013439Y034703D01*
X013388Y034544D02*
X013308Y034544D01*
X013308Y034386D02*
X013388Y034386D01*
X013448Y034227D02*
X013264Y034227D01*
X012550Y034069D02*
X012449Y034069D01*
X012391Y034227D02*
X012208Y034227D01*
X012268Y034386D02*
X012348Y034386D01*
X012348Y034544D02*
X012268Y034544D01*
X012217Y034703D02*
X012382Y034703D01*
X014168Y033752D02*
X014488Y033752D01*
X014388Y033593D02*
X014268Y033593D01*
X014268Y033435D02*
X014388Y033435D01*
X014399Y033276D02*
X014257Y033276D01*
X014098Y033118D02*
X014557Y033118D01*
X017208Y034227D02*
X017391Y034227D01*
X017348Y034386D02*
X017268Y034386D01*
X017268Y034544D02*
X017348Y034544D01*
X017382Y034703D02*
X017217Y034703D01*
X017058Y034861D02*
X017540Y034861D01*
X019058Y034861D02*
X019540Y034861D01*
X019382Y034703D02*
X019217Y034703D01*
X019268Y034544D02*
X019348Y034544D01*
X019348Y034386D02*
X019268Y034386D01*
X019208Y034227D02*
X019391Y034227D01*
X021929Y030899D02*
X012430Y030899D01*
X012229Y030740D02*
X021823Y030740D01*
X021783Y030581D02*
X012148Y030581D01*
X012014Y030423D02*
X021792Y030423D01*
X021858Y030264D02*
X012014Y030264D01*
X012014Y030106D02*
X022029Y030106D01*
X022120Y029789D02*
X022728Y029789D01*
X022580Y029630D02*
X022268Y029630D01*
X022334Y029472D02*
X022515Y029472D01*
X022511Y029313D02*
X022337Y029313D01*
X021614Y028521D02*
X005567Y028521D01*
X005567Y028362D02*
X021614Y028362D01*
X021614Y028204D02*
X005567Y028204D01*
X005567Y028045D02*
X021614Y028045D01*
X021614Y027887D02*
X005567Y027887D01*
X005567Y027728D02*
X021614Y027728D01*
X021614Y027570D02*
X005567Y027570D01*
X005567Y027411D02*
X021614Y027411D01*
X021614Y027253D02*
X005567Y027253D01*
X005567Y027094D02*
X021655Y027094D01*
X021814Y026936D02*
X005567Y026936D01*
X005567Y026777D02*
X021972Y026777D01*
X022131Y026619D02*
X005567Y026619D01*
X005567Y026460D02*
X022289Y026460D01*
X022448Y026302D02*
X005567Y026302D01*
X005567Y026143D02*
X022606Y026143D01*
X022765Y025985D02*
X005567Y025985D01*
X005660Y028679D02*
X009649Y028679D01*
X009529Y028838D02*
X009080Y028838D01*
X009159Y028996D02*
X009509Y028996D01*
X009582Y029155D02*
X009140Y029155D01*
X009061Y029313D02*
X009606Y029313D01*
X008603Y028838D02*
X005655Y028838D01*
X005552Y028996D02*
X008524Y028996D01*
X012014Y029947D02*
X028012Y029947D01*
X028171Y030106D02*
X023273Y030106D01*
X023444Y030264D02*
X028329Y030264D01*
X028488Y030423D02*
X023510Y030423D01*
X024029Y029789D02*
X026725Y029789D01*
X026577Y029630D02*
X024177Y029630D01*
X024242Y029472D02*
X026511Y029472D01*
X026508Y029313D02*
X024246Y029313D01*
X024201Y029155D02*
X026552Y029155D01*
X026666Y028996D02*
X024088Y028996D01*
X025041Y033276D02*
X029965Y033276D01*
X030105Y033218D02*
X029822Y033335D01*
X029605Y033552D01*
X029487Y033836D01*
X029487Y034142D01*
X029605Y034426D01*
X029822Y034643D01*
X030105Y034760D01*
X030412Y034760D01*
X030696Y034643D01*
X030913Y034426D01*
X031030Y034142D01*
X031030Y033836D01*
X030913Y033552D01*
X030696Y033335D01*
X030412Y033218D01*
X030105Y033218D01*
X029722Y033435D02*
X025283Y033435D01*
X025418Y033593D02*
X029588Y033593D01*
X029522Y033752D02*
X025483Y033752D01*
X025518Y033910D02*
X029487Y033910D01*
X029487Y034069D02*
X025518Y034069D01*
X025483Y034227D02*
X029522Y034227D01*
X029588Y034386D02*
X025418Y034386D01*
X025283Y034544D02*
X029723Y034544D01*
X029966Y034703D02*
X025040Y034703D01*
X030552Y034703D02*
X036033Y034703D01*
X035967Y034544D02*
X030795Y034544D01*
X030929Y034386D02*
X035954Y034386D01*
X035954Y034227D02*
X030995Y034227D01*
X031030Y034069D02*
X035996Y034069D01*
X036062Y033910D02*
X031030Y033910D01*
X030995Y033752D02*
X036188Y033752D01*
X036374Y033593D02*
X030930Y033593D01*
X030795Y033435D02*
X047901Y033435D01*
X047901Y033593D02*
X047254Y033593D01*
X047440Y033752D02*
X047901Y033752D01*
X047901Y033910D02*
X047566Y033910D01*
X047632Y034069D02*
X047901Y034069D01*
X047901Y034227D02*
X047674Y034227D01*
X047674Y034386D02*
X047901Y034386D01*
X047901Y034544D02*
X047661Y034544D01*
X047595Y034703D02*
X047901Y034703D01*
X047901Y034861D02*
X047510Y034861D01*
X047352Y035020D02*
X047901Y035020D01*
X046276Y035020D02*
X037352Y035020D01*
X037510Y034861D02*
X046117Y034861D01*
X046033Y034703D02*
X037595Y034703D01*
X037661Y034544D02*
X045967Y034544D01*
X045954Y034386D02*
X037674Y034386D01*
X037674Y034227D02*
X045954Y034227D01*
X045996Y034069D02*
X037632Y034069D01*
X037566Y033910D02*
X046062Y033910D01*
X046188Y033752D02*
X037440Y033752D01*
X037254Y033593D02*
X046374Y033593D01*
X047901Y033276D02*
X034221Y033276D01*
X034065Y033276D02*
X034047Y033276D01*
X033891Y033276D02*
X030553Y033276D01*
X033386Y032484D02*
X033671Y032484D01*
X033583Y032642D02*
X033487Y032642D01*
X033516Y032801D02*
X034047Y032801D01*
X034065Y032801D02*
X047901Y032801D01*
X047901Y032959D02*
X034531Y032959D01*
X034446Y033118D02*
X047901Y033118D01*
X047901Y032642D02*
X034529Y032642D01*
X034441Y032484D02*
X047901Y032484D01*
X047901Y027253D02*
X035547Y027253D01*
X035560Y027239D02*
X035527Y027273D01*
X035486Y027297D01*
X035440Y027309D01*
X035169Y027309D01*
X035169Y026921D01*
X035596Y026921D01*
X035596Y027153D01*
X035584Y027198D01*
X035560Y027239D01*
X035596Y027094D02*
X047901Y027094D01*
X047901Y026936D02*
X035596Y026936D01*
X035596Y026777D02*
X047901Y026777D01*
X047901Y026619D02*
X035596Y026619D01*
X035556Y026460D02*
X039435Y026460D01*
X039567Y026460D02*
X047901Y026460D01*
X047901Y026302D02*
X039779Y026302D01*
X039818Y026143D02*
X047901Y026143D01*
X047901Y025985D02*
X039778Y025985D01*
X035493Y025826D02*
X047901Y025826D01*
X047901Y025668D02*
X033726Y025668D01*
X033726Y025509D02*
X047901Y025509D01*
X047901Y025351D02*
X033726Y025351D01*
X033726Y025192D02*
X047901Y025192D01*
X047901Y025034D02*
X033709Y025034D01*
X033338Y025034D02*
X033242Y025034D01*
X033242Y025192D02*
X033338Y025192D01*
X033338Y025351D02*
X033242Y025351D01*
X033242Y025509D02*
X033338Y025509D01*
X033338Y025668D02*
X033242Y025668D01*
X033242Y025826D02*
X033338Y025826D01*
X033676Y025826D02*
X033863Y025826D01*
X034235Y026204D02*
X031578Y026204D01*
X031548Y026174D01*
X031548Y025800D02*
X031132Y025800D01*
X031548Y025800D01*
X031548Y025800D01*
X031548Y025800D01*
X031964Y025800D01*
X031964Y025668D01*
X031964Y025800D02*
X031548Y025800D01*
X031548Y025426D02*
X031548Y024885D01*
X031332Y024668D01*
X030790Y024668D01*
X030741Y024717D01*
X030424Y024717D02*
X030232Y024717D01*
X030232Y024875D02*
X030463Y024875D01*
X030677Y025034D02*
X030232Y025034D01*
X030216Y025192D02*
X030192Y025192D01*
X030192Y025668D02*
X030224Y025668D01*
X030125Y025826D02*
X031132Y025826D01*
X031132Y025668D02*
X031144Y025622D01*
X031168Y025581D01*
X031172Y025577D01*
X031172Y025351D02*
X030901Y025351D01*
X030833Y025192D02*
X031239Y025192D01*
X031328Y025034D02*
X030805Y025034D01*
X030464Y024558D02*
X030232Y024558D01*
X030186Y024400D02*
X047901Y024400D01*
X047901Y024558D02*
X031533Y024558D01*
X031692Y024717D02*
X047901Y024717D01*
X047901Y024875D02*
X031768Y024875D01*
X031768Y025034D02*
X032244Y025034D01*
X032225Y025192D02*
X031857Y025192D01*
X031548Y025426D02*
X032601Y025426D01*
X032621Y025406D01*
X033800Y026460D02*
X030521Y026460D01*
X030204Y026619D02*
X033760Y026619D01*
X033760Y026777D02*
X030232Y026777D01*
X029805Y027094D02*
X029709Y027094D01*
X029709Y027253D02*
X029805Y027253D01*
X030901Y026302D02*
X031172Y026302D01*
X031172Y026143D02*
X030901Y026143D01*
X030878Y025985D02*
X031148Y025985D01*
X029805Y024717D02*
X029709Y024717D01*
X029709Y024558D02*
X029805Y024558D01*
X029805Y024400D02*
X029709Y024400D01*
X029680Y023290D02*
X030010Y023290D01*
X030010Y023132D02*
X029680Y023132D01*
X029661Y022973D02*
X030010Y022973D01*
X030010Y022815D02*
X029661Y022815D01*
X029661Y022656D02*
X029992Y022656D01*
X029970Y022498D02*
X029543Y022498D01*
X029396Y022339D02*
X030398Y022339D01*
X030398Y022268D02*
X029970Y022268D01*
X029970Y022036D01*
X029983Y021990D01*
X030006Y021949D01*
X030040Y021916D01*
X030081Y021892D01*
X030127Y021880D01*
X030398Y021880D01*
X030398Y022268D01*
X030398Y022181D02*
X030494Y022181D01*
X030494Y022268D02*
X030494Y021880D01*
X030765Y021880D01*
X030811Y021892D01*
X030852Y021916D01*
X030885Y021949D01*
X030909Y021990D01*
X030921Y022036D01*
X030921Y022268D01*
X030494Y022268D01*
X030494Y022339D02*
X033994Y022339D01*
X033929Y022181D02*
X030921Y022181D01*
X030917Y022022D02*
X033928Y022022D01*
X034138Y022498D02*
X030921Y022498D01*
X030494Y022022D02*
X030398Y022022D01*
X029974Y022022D02*
X029396Y022022D01*
X029396Y022181D02*
X029970Y022181D01*
X028940Y022884D02*
X028940Y022994D01*
X028940Y022994D01*
X028940Y022884D01*
X028940Y022973D02*
X028940Y022973D01*
X028684Y022973D02*
X028684Y022973D01*
X028684Y022994D02*
X028684Y022884D01*
X028684Y022994D01*
X028684Y022994D01*
X030494Y020120D02*
X031610Y020120D01*
X031566Y019962D02*
X030921Y019962D01*
X030921Y019871D02*
X030921Y020103D01*
X030494Y020103D01*
X030494Y019715D01*
X030765Y019715D01*
X030811Y019727D01*
X030852Y019751D01*
X030885Y019784D01*
X030909Y019825D01*
X030921Y019871D01*
X030896Y019803D02*
X031570Y019803D01*
X031722Y020279D02*
X030921Y020279D01*
X030494Y019962D02*
X030398Y019962D01*
X030398Y019803D02*
X030494Y019803D01*
X037336Y018535D02*
X046292Y018535D01*
X046133Y018377D02*
X037494Y018377D01*
X037588Y018218D02*
X046039Y018218D01*
X045974Y018060D02*
X037654Y018060D01*
X037674Y017901D02*
X045954Y017901D01*
X045954Y017743D02*
X037674Y017743D01*
X037638Y017584D02*
X045990Y017584D01*
X046055Y017426D02*
X037573Y017426D01*
X037456Y017267D02*
X046172Y017267D01*
X046335Y017109D02*
X037293Y017109D01*
X047293Y017109D02*
X047901Y017109D01*
X047901Y017267D02*
X047456Y017267D01*
X047573Y017426D02*
X047901Y017426D01*
X047901Y017584D02*
X047638Y017584D01*
X047674Y017743D02*
X047901Y017743D01*
X047901Y017901D02*
X047674Y017901D01*
X047654Y018060D02*
X047901Y018060D01*
X047901Y018218D02*
X047588Y018218D01*
X047494Y018377D02*
X047901Y018377D01*
X047901Y018535D02*
X047336Y018535D01*
X035169Y026936D02*
X035073Y026936D01*
X035073Y026921D02*
X035073Y026825D01*
X034283Y026825D01*
X034283Y026921D01*
X034710Y026921D01*
X035073Y026921D01*
X035073Y027094D02*
X035169Y027094D01*
X035169Y027253D02*
X035073Y027253D01*
X034695Y027253D02*
X034661Y027253D01*
X034283Y027253D02*
X034187Y027253D01*
X034187Y027094D02*
X034283Y027094D01*
X034283Y026936D02*
X034187Y026936D01*
X034607Y025826D02*
X034749Y025826D01*
X033502Y031533D02*
X033435Y031533D01*
X033507Y031691D02*
X033605Y031691D01*
X033596Y031850D02*
X033516Y031850D01*
X033469Y032008D02*
X033643Y032008D01*
X033768Y032167D02*
X033344Y032167D01*
X034047Y032484D02*
X034065Y032484D01*
X034065Y032642D02*
X034047Y032642D01*
X034047Y032959D02*
X034065Y032959D01*
X034065Y033118D02*
X034047Y033118D01*
X033666Y033118D02*
X033393Y033118D01*
X033490Y032959D02*
X033581Y032959D01*
X009855Y033442D02*
X009855Y031647D01*
X009855Y033442D02*
X009828Y033469D01*
X007589Y033910D02*
X007579Y033910D01*
X007439Y034703D02*
X007217Y034703D01*
X007058Y034861D02*
X007597Y034861D01*
X006828Y034469D02*
X006332Y033973D01*
X006112Y033118D02*
X006098Y033118D01*
X007316Y032149D02*
X006824Y031656D01*
X006824Y031647D01*
X004312Y022339D02*
X000490Y022339D01*
X000490Y022181D02*
X004333Y022181D01*
X004461Y022022D02*
X000490Y022022D01*
X000490Y021864D02*
X004693Y021864D01*
X004852Y021705D02*
X000490Y021705D01*
X000490Y021547D02*
X005010Y021547D01*
X001509Y015365D02*
X000490Y015365D01*
X000490Y015207D02*
X001331Y015207D01*
X001223Y015048D02*
X000490Y015048D01*
X000490Y014890D02*
X001157Y014890D01*
X001141Y014731D02*
X000490Y014731D01*
X000490Y014573D02*
X001141Y014573D01*
X001195Y014414D02*
X000490Y014414D01*
X000490Y014256D02*
X001263Y014256D01*
X001422Y014097D02*
X000490Y014097D01*
X000490Y013939D02*
X001728Y013939D01*
X002096Y013939D02*
X004681Y013939D01*
X004428Y013780D02*
X000490Y013780D01*
X000490Y013622D02*
X004177Y013622D01*
X004019Y013463D02*
X000490Y013463D01*
X000490Y013305D02*
X003860Y013305D01*
X003702Y013146D02*
X000490Y013146D01*
X000490Y012988D02*
X003600Y012988D01*
X003500Y012829D02*
X000490Y012829D01*
X000490Y012671D02*
X003400Y012671D01*
X003314Y012512D02*
X000490Y012512D01*
X000490Y012354D02*
X003259Y012354D01*
X003203Y012195D02*
X000490Y012195D01*
X000490Y012037D02*
X003148Y012037D01*
X003104Y011914D02*
X003104Y011914D01*
X003100Y011878D02*
X000490Y011878D01*
X000490Y011720D02*
X000906Y011720D01*
X000747Y011561D02*
X000490Y011561D01*
X000490Y011403D02*
X000634Y011403D01*
X001403Y011720D02*
X003083Y011720D01*
X003065Y011561D02*
X001561Y011561D01*
X002403Y014097D02*
X005071Y014097D01*
X020458Y005697D02*
X036136Y005697D01*
X035977Y005855D02*
X020628Y005855D01*
X036599Y008233D02*
X041716Y008233D01*
X041492Y008074D02*
X036758Y008074D01*
X036916Y007916D02*
X041415Y007916D01*
X041400Y007757D02*
X037075Y007757D01*
X037233Y007599D02*
X041440Y007599D01*
X041554Y007440D02*
X037392Y007440D01*
X042025Y008233D02*
X042496Y008233D01*
X042640Y008391D02*
X042660Y008391D01*
X042660Y008550D02*
X042640Y008550D01*
X042640Y008708D02*
X042660Y008708D01*
X042660Y008867D02*
X042640Y008867D01*
X042640Y009025D02*
X042660Y009025D01*
X042660Y009184D02*
X042640Y009184D01*
X042349Y009184D02*
X042105Y009184D01*
X042154Y008391D02*
X042310Y008391D01*
X042272Y008074D02*
X042249Y008074D01*
X042187Y007440D02*
X042334Y007440D01*
D24*
X037926Y010987D03*
X033202Y007247D03*
X034776Y004688D03*
X029855Y004885D03*
X024147Y007247D03*
X029658Y012168D03*
X031824Y013743D03*
X030643Y017286D03*
X028084Y017483D03*
X031824Y023192D03*
X030741Y024717D03*
X033251Y027276D03*
X039501Y026145D03*
X047178Y030082D03*
X047178Y022011D03*
X037926Y014727D03*
X026115Y025505D03*
X022621Y028202D03*
X014895Y031263D03*
X011794Y029147D03*
X010810Y029639D03*
X009826Y028950D03*
X008841Y029048D03*
X005347Y028753D03*
X003133Y030820D03*
X001312Y026538D03*
X004629Y022296D03*
X001263Y020387D03*
X012877Y011233D03*
X001115Y008822D03*
X027887Y034412D03*
X033399Y034215D03*
X041125Y003339D03*
X041145Y002552D03*
D25*
X041105Y002591D01*
X039609Y002591D01*
X036066Y006135D01*
X019471Y006135D01*
X017227Y008103D02*
X036361Y008103D01*
X041125Y003339D01*
X017227Y008103D02*
X015928Y006804D01*
X015928Y006528D01*
X012621Y021725D02*
X005200Y021725D01*
X004629Y022296D01*
X033251Y027276D02*
X033251Y027719D01*
X033152Y027818D01*
D26*
X030524Y026174D02*
X030396Y026302D01*
X029757Y026302D01*
X029599Y026145D01*
X028910Y026145D01*
X028950Y026105D01*
X028950Y025397D01*
X028202Y025397D02*
X028202Y026105D01*
X028241Y026145D01*
X029757Y025446D02*
X030505Y025446D01*
X030524Y025426D01*
X029265Y024078D02*
X028871Y024471D01*
X028635Y024471D01*
X028576Y024530D01*
X029265Y024078D02*
X029265Y023635D01*
X029215Y023586D01*
X029215Y023280D01*
X029196Y023261D01*
X029452Y023261D02*
X029461Y023251D01*
X029461Y022700D01*
X029196Y022434D01*
X029196Y021647D01*
X029215Y021627D01*
X029215Y021273D01*
X029658Y020830D01*
X029658Y020820D01*
X030249Y020682D02*
X030308Y020682D01*
X030446Y020820D01*
X030446Y020928D01*
X029855Y021519D01*
X029580Y021519D01*
X029452Y021647D01*
X028940Y021647D02*
X028920Y021627D01*
X028920Y021322D01*
X028871Y021273D01*
X028871Y020820D01*
X028084Y020820D01*
X029658Y020150D02*
X029717Y020150D01*
X030249Y020682D01*
X030446Y022985D02*
X030446Y023339D01*
X030150Y023635D01*
X029265Y023635D01*
X030446Y022985D02*
X030505Y023044D01*
X027601Y028202D02*
X022621Y028202D01*
X027601Y028202D02*
X028369Y028969D01*
X028526Y028969D01*
X032463Y031312D02*
X033564Y031312D01*
X034056Y031804D01*
D27*
X034235Y026204D02*
X035121Y026204D01*
X035180Y026145D01*
X039501Y026145D01*
M02*
