G75*
%MOIN*%
%OFA0B0*%
%FSLAX24Y24*%
%IPPOS*%
%LPD*%
%AMOC8*
5,1,8,0,0,1.08239X$1,22.5*
%
%ADD10C,0.1143*%
%ADD11C,0.0788*%
%ADD12C,0.1950*%
%ADD13C,0.0700*%
%ADD14R,0.2225X0.0454*%
%ADD15R,0.1241X0.0690*%
%ADD16R,0.0572X0.0670*%
%ADD17R,0.0532X0.0532*%
%ADD18C,0.0720*%
%ADD19C,0.1360*%
%ADD20C,0.3997*%
%ADD21OC8,0.0820*%
%ADD22C,0.1320*%
%ADD23OC8,0.0660*%
%ADD24R,0.0651X0.0690*%
%ADD25C,0.0414*%
D10*
X001912Y014698D03*
X001912Y018635D03*
X001912Y033989D03*
X024747Y033989D03*
X030259Y033989D03*
X024747Y014698D03*
X024747Y001706D03*
D11*
X020199Y006135D02*
X019471Y006135D01*
X016656Y006528D02*
X015928Y006528D01*
X029314Y014796D02*
X030041Y014796D01*
X032070Y015977D02*
X032797Y015977D01*
X032797Y017946D02*
X032070Y017946D01*
X032070Y019914D02*
X032797Y019914D01*
X034432Y022080D02*
X035159Y022080D01*
X028073Y018733D02*
X027345Y018733D01*
X034432Y013812D02*
X035159Y013812D01*
X028526Y028242D02*
X028526Y028969D01*
X027739Y029363D02*
X027012Y029363D01*
X024530Y030938D02*
X023802Y030938D01*
X023015Y030544D02*
X022287Y030544D01*
X021834Y029363D02*
X021106Y029363D01*
X023015Y029363D02*
X023742Y029363D01*
X029708Y028576D02*
X030435Y028576D01*
X013348Y021725D02*
X012621Y021725D01*
X012542Y019087D02*
X013270Y019087D01*
D12*
X041798Y013143D03*
X042979Y014993D03*
X044121Y013143D03*
D13*
X034056Y030804D03*
X033056Y030804D03*
X033056Y031804D03*
X034056Y031804D03*
X034056Y032804D03*
X033056Y032804D03*
D14*
X046213Y003290D03*
X046213Y002503D03*
D15*
X045328Y001558D03*
X045328Y004235D03*
D16*
X001509Y001952D03*
X003280Y001952D03*
X004245Y001952D03*
X006017Y001952D03*
X006981Y001971D03*
X008753Y001971D03*
X009668Y001981D03*
X011440Y001981D03*
X011440Y005111D03*
X009668Y005111D03*
X008753Y005101D03*
X006981Y005101D03*
X006017Y005082D03*
X004245Y005082D03*
X003280Y005082D03*
X001509Y005082D03*
D17*
X009688Y006804D03*
X010505Y006784D03*
X011263Y006784D03*
X011263Y007611D03*
X010505Y007611D03*
X009688Y007631D03*
X014304Y001656D03*
X015091Y001656D03*
D18*
X041870Y007788D03*
X042650Y007788D03*
X042650Y008773D03*
X041870Y008773D03*
D19*
X043720Y010650D03*
X043720Y005910D03*
D20*
X006086Y011233D03*
D21*
X001154Y011233D03*
D22*
X036814Y017841D03*
X046814Y017841D03*
X046814Y034341D03*
X036814Y034341D03*
D23*
X022828Y034469D03*
X021828Y034469D03*
X020828Y034469D03*
X020828Y033469D03*
X021828Y033469D03*
X022828Y033469D03*
X019828Y033469D03*
X018828Y033469D03*
X017828Y033469D03*
X016828Y033469D03*
X015828Y033469D03*
X014828Y033469D03*
X013828Y033469D03*
X012828Y033469D03*
X011828Y033469D03*
X010828Y033469D03*
X009828Y033469D03*
X008828Y033469D03*
X007828Y033469D03*
X006828Y033469D03*
X005828Y033469D03*
X004828Y033469D03*
X003828Y033469D03*
X003828Y034469D03*
X004828Y034469D03*
X005828Y034469D03*
X006828Y034469D03*
X007828Y034469D03*
X008828Y034469D03*
X009828Y034469D03*
X010828Y034469D03*
X011828Y034469D03*
X012828Y034469D03*
X013828Y034469D03*
X014828Y034469D03*
X015828Y034469D03*
X016828Y034469D03*
X017828Y034469D03*
X018828Y034469D03*
X019828Y034469D03*
D24*
X014698Y002965D03*
D25*
X024147Y007247D03*
X029855Y004885D03*
X033202Y007247D03*
X034776Y004688D03*
X041125Y003339D03*
X041145Y002552D03*
X037926Y010987D03*
X037926Y014727D03*
X031824Y013743D03*
X029658Y012168D03*
X030643Y017286D03*
X028084Y017483D03*
X031824Y023192D03*
X030741Y024717D03*
X033251Y027276D03*
X039501Y026145D03*
X047178Y030082D03*
X047178Y022011D03*
X033399Y034215D03*
X027887Y034412D03*
X022621Y028202D03*
X026115Y025505D03*
X014895Y031263D03*
X011794Y029147D03*
X010810Y029639D03*
X009826Y028950D03*
X008841Y029048D03*
X005347Y028753D03*
X003133Y030820D03*
X001312Y026538D03*
X004629Y022296D03*
X001263Y020387D03*
X012877Y011233D03*
X001115Y008822D03*
M02*
