G75*
%MOIN*%
%OFA0B0*%
%FSLAX24Y24*%
%IPPOS*%
%LPD*%
%AMOC8*
5,1,8,0,0,1.08239X$1,22.5*
%
%ADD10C,0.0160*%
%ADD11C,0.0000*%
%ADD12C,0.0727*%
%ADD13C,0.1890*%
%ADD14C,0.0640*%
%ADD15R,0.2165X0.0394*%
%ADD16R,0.1181X0.0630*%
%ADD17R,0.0512X0.0610*%
%ADD18R,0.0472X0.0472*%
%ADD19C,0.0660*%
%ADD20C,0.1300*%
%ADD21C,0.3937*%
%ADD22OC8,0.0760*%
%ADD23OC8,0.0600*%
%ADD24R,0.0591X0.0630*%
%ADD25C,0.0354*%
%ADD26C,0.0240*%
%ADD27C,0.0120*%
%ADD28C,0.0320*%
D10*
X000180Y000229D02*
X000180Y035662D01*
X048211Y035711D01*
X048211Y000278D01*
X000180Y000229D01*
X000490Y000540D02*
X000490Y035353D01*
X047901Y035401D01*
X047901Y000588D01*
X000490Y000540D01*
X000490Y000625D02*
X047901Y000625D01*
X047901Y000783D02*
X017283Y000783D01*
X017197Y000698D02*
X018319Y001820D01*
X018393Y001893D01*
X018432Y001989D01*
X018432Y009413D01*
X021223Y012203D01*
X027840Y012203D01*
X027936Y012243D01*
X029534Y013842D01*
X029574Y013937D01*
X029574Y014292D01*
X030142Y014292D01*
X030327Y014369D01*
X030468Y014511D01*
X030545Y014696D01*
X030545Y014896D01*
X030468Y015081D01*
X030327Y015223D01*
X030142Y015300D01*
X029214Y015300D01*
X029029Y015223D01*
X028887Y015081D01*
X028810Y014896D01*
X028810Y014696D01*
X028887Y014511D01*
X029029Y014369D01*
X029054Y014359D01*
X029054Y014097D01*
X027681Y012723D01*
X021063Y012723D01*
X020968Y012684D01*
X020895Y012611D01*
X017952Y009668D01*
X017912Y009572D01*
X017912Y002148D01*
X016942Y001178D01*
X014717Y001178D01*
X014607Y001288D01*
X014680Y001362D01*
X014680Y001378D01*
X014687Y001351D01*
X014711Y001310D01*
X014745Y001276D01*
X014786Y001252D01*
X014831Y001240D01*
X015053Y001240D01*
X015053Y001618D01*
X015130Y001618D01*
X015130Y001694D01*
X015508Y001694D01*
X015508Y001916D01*
X015495Y001962D01*
X015472Y002003D01*
X015438Y002037D01*
X015397Y002060D01*
X015351Y002073D01*
X015130Y002073D01*
X015130Y001694D01*
X015053Y001694D01*
X015053Y002073D01*
X014831Y002073D01*
X014786Y002060D01*
X014745Y002037D01*
X014711Y002003D01*
X014687Y001962D01*
X014680Y001935D01*
X014680Y001951D01*
X014598Y002033D01*
X014010Y002033D01*
X013928Y001951D01*
X013928Y001362D01*
X014010Y001280D01*
X014044Y001280D01*
X014044Y001172D01*
X014084Y001076D01*
X014389Y000771D01*
X014462Y000698D01*
X014557Y000658D01*
X017102Y000658D01*
X017197Y000698D01*
X017442Y000942D02*
X024575Y000942D01*
X024593Y000934D02*
X024900Y000934D01*
X025184Y001052D01*
X025401Y001269D01*
X025518Y001552D01*
X025518Y001859D01*
X025401Y002143D01*
X025184Y002359D01*
X024900Y002477D01*
X024593Y002477D01*
X024310Y002359D01*
X024093Y002143D01*
X023976Y001859D01*
X023976Y001552D01*
X024093Y001269D01*
X024310Y001052D01*
X024593Y000934D01*
X024919Y000942D02*
X047901Y000942D01*
X047901Y001100D02*
X025233Y001100D01*
X025391Y001259D02*
X044597Y001259D01*
X044597Y001185D02*
X044679Y001103D01*
X045976Y001103D01*
X046058Y001185D01*
X046058Y001931D01*
X045976Y002013D01*
X044679Y002013D01*
X044597Y001931D01*
X044597Y001185D01*
X044597Y001417D02*
X025462Y001417D01*
X025518Y001576D02*
X044597Y001576D01*
X044597Y001734D02*
X025518Y001734D01*
X025504Y001893D02*
X044597Y001893D01*
X044991Y002248D02*
X045073Y002166D01*
X047354Y002166D01*
X047436Y002248D01*
X047436Y002758D01*
X047354Y002840D01*
X045073Y002840D01*
X044991Y002758D01*
X044991Y002723D01*
X041417Y002723D01*
X041413Y002732D01*
X041324Y002821D01*
X041208Y002869D01*
X041081Y002869D01*
X040965Y002821D01*
X040876Y002732D01*
X040827Y002615D01*
X040827Y002489D01*
X040876Y002372D01*
X040965Y002283D01*
X041081Y002235D01*
X041208Y002235D01*
X041323Y002283D01*
X044991Y002283D01*
X044991Y002248D01*
X045029Y002210D02*
X025333Y002210D01*
X025439Y002051D02*
X047901Y002051D01*
X047901Y001893D02*
X046058Y001893D01*
X046058Y001734D02*
X047901Y001734D01*
X047901Y001576D02*
X046058Y001576D01*
X046058Y001417D02*
X047901Y001417D01*
X047901Y001259D02*
X046058Y001259D01*
X046213Y002503D02*
X041194Y002503D01*
X041145Y002552D01*
X041269Y002844D02*
X047901Y002844D01*
X047901Y003002D02*
X047403Y003002D01*
X047436Y003035D02*
X047354Y002953D01*
X045073Y002953D01*
X044991Y003035D01*
X044991Y003070D01*
X041304Y003070D01*
X041188Y003022D01*
X041062Y003022D01*
X040945Y003071D01*
X040856Y003160D01*
X040808Y003276D01*
X040808Y003403D01*
X040856Y003519D01*
X040945Y003608D01*
X041062Y003657D01*
X041188Y003657D01*
X041305Y003608D01*
X041394Y003519D01*
X041397Y003510D01*
X044991Y003510D01*
X044991Y003545D01*
X045073Y003627D01*
X047354Y003627D01*
X047436Y003545D01*
X047436Y003035D01*
X047436Y003161D02*
X047901Y003161D01*
X047901Y003319D02*
X047436Y003319D01*
X047436Y003478D02*
X047901Y003478D01*
X047901Y003636D02*
X041237Y003636D01*
X041013Y003636D02*
X018432Y003636D01*
X018432Y003478D02*
X040839Y003478D01*
X040808Y003319D02*
X018432Y003319D01*
X018432Y003161D02*
X040856Y003161D01*
X041125Y003339D02*
X041174Y003290D01*
X046213Y003290D01*
X045976Y003780D02*
X046058Y003862D01*
X046058Y004608D01*
X045976Y004690D01*
X044679Y004690D01*
X044597Y004608D01*
X044597Y003862D01*
X044679Y003780D01*
X045976Y003780D01*
X045991Y003795D02*
X047901Y003795D01*
X047901Y003953D02*
X046058Y003953D01*
X046058Y004112D02*
X047901Y004112D01*
X047901Y004270D02*
X046058Y004270D01*
X046058Y004429D02*
X047901Y004429D01*
X047901Y004587D02*
X046058Y004587D01*
X044597Y004587D02*
X018432Y004587D01*
X018432Y004429D02*
X044597Y004429D01*
X044597Y004270D02*
X018432Y004270D01*
X018432Y004112D02*
X044597Y004112D01*
X044597Y003953D02*
X018432Y003953D01*
X018432Y003795D02*
X044664Y003795D01*
X045024Y003002D02*
X018432Y003002D01*
X018432Y002844D02*
X041021Y002844D01*
X040857Y002685D02*
X018432Y002685D01*
X018432Y002527D02*
X040827Y002527D01*
X040880Y002368D02*
X025162Y002368D01*
X024332Y002368D02*
X018432Y002368D01*
X018432Y002210D02*
X024160Y002210D01*
X024055Y002051D02*
X018432Y002051D01*
X018393Y001893D02*
X023990Y001893D01*
X023976Y001734D02*
X018234Y001734D01*
X018076Y001576D02*
X023976Y001576D01*
X024031Y001417D02*
X017917Y001417D01*
X017759Y001259D02*
X024103Y001259D01*
X024261Y001100D02*
X017600Y001100D01*
X017182Y001417D02*
X015508Y001417D01*
X015508Y001396D02*
X015508Y001618D01*
X015130Y001618D01*
X015130Y001240D01*
X015351Y001240D01*
X015397Y001252D01*
X015438Y001276D01*
X015472Y001310D01*
X015495Y001351D01*
X015508Y001396D01*
X015408Y001259D02*
X017023Y001259D01*
X017340Y001576D02*
X015508Y001576D01*
X015508Y001734D02*
X017499Y001734D01*
X017657Y001893D02*
X015508Y001893D01*
X015412Y002051D02*
X017816Y002051D01*
X017912Y002210D02*
X011836Y002210D01*
X011836Y002344D02*
X011754Y002426D01*
X011126Y002426D01*
X011044Y002344D01*
X011044Y001618D01*
X011126Y001536D01*
X011754Y001536D01*
X011836Y001618D01*
X011836Y002344D01*
X011812Y002368D02*
X017912Y002368D01*
X017912Y002527D02*
X015067Y002527D01*
X015051Y002510D02*
X015133Y002592D01*
X015133Y003338D01*
X015051Y003420D01*
X014958Y003420D01*
X014958Y011293D01*
X022138Y018473D01*
X026908Y018473D01*
X026918Y018448D01*
X027060Y018306D01*
X027245Y018229D01*
X028173Y018229D01*
X028358Y018306D01*
X028500Y018448D01*
X028577Y018633D01*
X028577Y018833D01*
X028500Y019019D01*
X028358Y019160D01*
X028173Y019237D01*
X027245Y019237D01*
X027060Y019160D01*
X026918Y019019D01*
X026908Y018993D01*
X021979Y018993D01*
X021883Y018954D01*
X021810Y018880D01*
X014477Y011548D01*
X014438Y011452D01*
X014438Y003420D01*
X014344Y003420D01*
X014262Y003338D01*
X014262Y002592D01*
X014344Y002510D01*
X015051Y002510D01*
X015133Y002685D02*
X017912Y002685D01*
X017912Y002844D02*
X015133Y002844D01*
X015133Y003002D02*
X017912Y003002D01*
X017912Y003161D02*
X015133Y003161D01*
X015133Y003319D02*
X017912Y003319D01*
X017912Y003478D02*
X014958Y003478D01*
X014958Y003636D02*
X017912Y003636D01*
X017912Y003795D02*
X014958Y003795D01*
X014958Y003953D02*
X017912Y003953D01*
X017912Y004112D02*
X014958Y004112D01*
X014958Y004270D02*
X017912Y004270D01*
X017912Y004429D02*
X014958Y004429D01*
X014958Y004587D02*
X017912Y004587D01*
X017912Y004746D02*
X014958Y004746D01*
X014958Y004904D02*
X017912Y004904D01*
X017912Y005063D02*
X014958Y005063D01*
X014958Y005221D02*
X017912Y005221D01*
X017912Y005380D02*
X014958Y005380D01*
X014958Y005538D02*
X017912Y005538D01*
X017912Y005697D02*
X014958Y005697D01*
X014958Y005855D02*
X017912Y005855D01*
X017912Y006014D02*
X014958Y006014D01*
X014958Y006172D02*
X015572Y006172D01*
X015501Y006243D02*
X015643Y006101D01*
X015828Y006025D01*
X016756Y006025D01*
X016941Y006101D01*
X017083Y006243D01*
X017159Y006428D01*
X017159Y006629D01*
X017083Y006814D01*
X016941Y006955D01*
X016756Y007032D01*
X015828Y007032D01*
X015643Y006955D01*
X015501Y006814D01*
X015424Y006629D01*
X015424Y006428D01*
X015501Y006243D01*
X015465Y006331D02*
X014958Y006331D01*
X014958Y006489D02*
X015424Y006489D01*
X015432Y006648D02*
X014958Y006648D01*
X014958Y006806D02*
X015498Y006806D01*
X015666Y006965D02*
X014958Y006965D01*
X014958Y007123D02*
X017912Y007123D01*
X017912Y006965D02*
X016918Y006965D01*
X017086Y006806D02*
X017912Y006806D01*
X017912Y006648D02*
X017151Y006648D01*
X017159Y006489D02*
X017912Y006489D01*
X017912Y006331D02*
X017119Y006331D01*
X017012Y006172D02*
X017912Y006172D01*
X018432Y006172D02*
X018968Y006172D01*
X018968Y006235D02*
X018968Y006035D01*
X019044Y005849D01*
X019186Y005708D01*
X019371Y005631D01*
X020299Y005631D01*
X020484Y005708D01*
X020626Y005849D01*
X020703Y006035D01*
X020703Y006235D01*
X020626Y006420D01*
X020484Y006562D01*
X020299Y006638D01*
X019371Y006638D01*
X019186Y006562D01*
X019044Y006420D01*
X018968Y006235D01*
X019007Y006331D02*
X018432Y006331D01*
X018432Y006489D02*
X019114Y006489D01*
X018432Y006648D02*
X043437Y006648D01*
X043563Y006700D02*
X043273Y006580D01*
X043051Y006358D01*
X042930Y006068D01*
X042930Y005753D01*
X043051Y005463D01*
X043273Y005241D01*
X043563Y005120D01*
X043878Y005120D01*
X044168Y005241D01*
X044390Y005463D01*
X044510Y005753D01*
X044510Y006068D01*
X044390Y006358D01*
X044168Y006580D01*
X043878Y006700D01*
X043563Y006700D01*
X043182Y006489D02*
X020557Y006489D01*
X020663Y006331D02*
X043040Y006331D01*
X042974Y006172D02*
X020703Y006172D01*
X020694Y006014D02*
X042930Y006014D01*
X042930Y005855D02*
X020628Y005855D01*
X020458Y005697D02*
X042954Y005697D01*
X043019Y005538D02*
X018432Y005538D01*
X018432Y005380D02*
X043134Y005380D01*
X043319Y005221D02*
X018432Y005221D01*
X018432Y005063D02*
X047901Y005063D01*
X047901Y005221D02*
X044122Y005221D01*
X044307Y005380D02*
X047901Y005380D01*
X047901Y005538D02*
X044422Y005538D01*
X044487Y005697D02*
X047901Y005697D01*
X047901Y005855D02*
X044510Y005855D01*
X044510Y006014D02*
X047901Y006014D01*
X047901Y006172D02*
X044467Y006172D01*
X044401Y006331D02*
X047901Y006331D01*
X047901Y006489D02*
X044259Y006489D01*
X044004Y006648D02*
X047901Y006648D01*
X047901Y006806D02*
X018432Y006806D01*
X018432Y006965D02*
X047901Y006965D01*
X047901Y007123D02*
X018432Y007123D01*
X018432Y007282D02*
X047901Y007282D01*
X047901Y007440D02*
X042967Y007440D01*
X042917Y007390D02*
X043049Y007522D01*
X043120Y007695D01*
X043120Y007882D01*
X043049Y008055D01*
X042917Y008187D01*
X042744Y008258D01*
X042557Y008258D01*
X042384Y008187D01*
X042260Y008063D01*
X042137Y008187D01*
X041964Y008258D01*
X041777Y008258D01*
X041604Y008187D01*
X041472Y008055D01*
X041400Y007882D01*
X041400Y007695D01*
X041472Y007522D01*
X041604Y007390D01*
X041777Y007318D01*
X041964Y007318D01*
X042137Y007390D01*
X042260Y007514D01*
X042384Y007390D01*
X042557Y007318D01*
X042744Y007318D01*
X042917Y007390D01*
X043081Y007599D02*
X047901Y007599D01*
X047901Y007757D02*
X043120Y007757D01*
X043106Y007916D02*
X047901Y007916D01*
X047901Y008074D02*
X043029Y008074D01*
X042805Y008233D02*
X047901Y008233D01*
X047901Y008391D02*
X042991Y008391D01*
X042983Y008384D02*
X043039Y008440D01*
X043087Y008505D01*
X043123Y008577D01*
X043148Y008653D01*
X043160Y008732D01*
X043160Y008763D01*
X042660Y008763D01*
X042660Y008783D01*
X042640Y008783D01*
X042640Y009283D01*
X042610Y009283D01*
X042531Y009270D01*
X042455Y009245D01*
X042383Y009209D01*
X042318Y009162D01*
X042261Y009105D01*
X042237Y009071D01*
X042170Y009137D01*
X042170Y012119D01*
X042217Y012132D01*
X042464Y012274D01*
X042666Y012476D01*
X042809Y012724D01*
X042883Y013000D01*
X042883Y013285D01*
X042809Y013561D01*
X042666Y013809D01*
X042464Y014011D01*
X042217Y014154D01*
X041941Y014227D01*
X041901Y014227D01*
X041080Y015048D01*
X041080Y024925D01*
X041035Y025035D01*
X039787Y026283D01*
X039770Y026324D01*
X039681Y026413D01*
X039564Y026462D01*
X039438Y026462D01*
X039321Y026413D01*
X039232Y026324D01*
X039184Y026208D01*
X039184Y026081D01*
X039232Y025965D01*
X039321Y025876D01*
X039363Y025859D01*
X040480Y024741D01*
X040480Y014864D01*
X040526Y014754D01*
X040610Y014670D01*
X041219Y014061D01*
X041132Y014011D01*
X040930Y013809D01*
X040787Y013561D01*
X040713Y013285D01*
X040713Y013000D01*
X040787Y012724D01*
X040930Y012476D01*
X041132Y012274D01*
X041379Y012132D01*
X041570Y012080D01*
X041570Y009137D01*
X041472Y009039D01*
X041400Y008866D01*
X041400Y008679D01*
X041472Y008506D01*
X041604Y008374D01*
X041777Y008303D01*
X041964Y008303D01*
X042137Y008374D01*
X042237Y008474D01*
X042261Y008440D01*
X042318Y008384D01*
X042383Y008336D01*
X042455Y008300D01*
X042531Y008275D01*
X042610Y008263D01*
X042640Y008263D01*
X042640Y008763D01*
X042660Y008763D01*
X042660Y008263D01*
X042691Y008263D01*
X042770Y008275D01*
X042846Y008300D01*
X042918Y008336D01*
X042983Y008384D01*
X043109Y008550D02*
X047901Y008550D01*
X047901Y008708D02*
X043157Y008708D01*
X043160Y008783D02*
X043160Y008813D01*
X043148Y008892D01*
X043123Y008968D01*
X043087Y009040D01*
X043039Y009105D01*
X042983Y009162D01*
X042918Y009209D01*
X042846Y009245D01*
X042770Y009270D01*
X042691Y009283D01*
X042660Y009283D01*
X042660Y008783D01*
X043160Y008783D01*
X043152Y008867D02*
X047901Y008867D01*
X047901Y009025D02*
X043094Y009025D01*
X042952Y009184D02*
X047901Y009184D01*
X047901Y009342D02*
X042170Y009342D01*
X042170Y009184D02*
X042349Y009184D01*
X042640Y009184D02*
X042660Y009184D01*
X042660Y009025D02*
X042640Y009025D01*
X042640Y008867D02*
X042660Y008867D01*
X042660Y008708D02*
X042640Y008708D01*
X042640Y008550D02*
X042660Y008550D01*
X042660Y008391D02*
X042640Y008391D01*
X042496Y008233D02*
X042025Y008233D01*
X042154Y008391D02*
X042310Y008391D01*
X042272Y008074D02*
X042249Y008074D01*
X041716Y008233D02*
X018432Y008233D01*
X018432Y008391D02*
X041587Y008391D01*
X041454Y008550D02*
X018432Y008550D01*
X018432Y008708D02*
X041400Y008708D01*
X041401Y008867D02*
X018432Y008867D01*
X018432Y009025D02*
X041467Y009025D01*
X041570Y009184D02*
X018432Y009184D01*
X018432Y009342D02*
X041570Y009342D01*
X041570Y009501D02*
X018520Y009501D01*
X018679Y009659D02*
X041570Y009659D01*
X041570Y009818D02*
X018837Y009818D01*
X018996Y009976D02*
X041570Y009976D01*
X041570Y010135D02*
X019154Y010135D01*
X019313Y010293D02*
X041570Y010293D01*
X041570Y010452D02*
X019471Y010452D01*
X019630Y010610D02*
X041570Y010610D01*
X041570Y010769D02*
X019788Y010769D01*
X019947Y010927D02*
X041570Y010927D01*
X041570Y011086D02*
X020105Y011086D01*
X020264Y011244D02*
X041570Y011244D01*
X041570Y011403D02*
X020422Y011403D01*
X020581Y011561D02*
X041570Y011561D01*
X041570Y011720D02*
X020739Y011720D01*
X020898Y011878D02*
X041570Y011878D01*
X041570Y012037D02*
X021056Y012037D01*
X021215Y012195D02*
X041269Y012195D01*
X041052Y012354D02*
X028046Y012354D01*
X028205Y012512D02*
X040909Y012512D01*
X040818Y012671D02*
X028363Y012671D01*
X028522Y012829D02*
X040759Y012829D01*
X040716Y012988D02*
X028680Y012988D01*
X028839Y013146D02*
X040713Y013146D01*
X040718Y013305D02*
X028997Y013305D01*
X029156Y013463D02*
X034068Y013463D01*
X034005Y013527D02*
X034147Y013385D01*
X034332Y013308D01*
X035260Y013308D01*
X035445Y013385D01*
X035587Y013527D01*
X035663Y013712D01*
X035663Y013912D01*
X035587Y014097D01*
X035445Y014239D01*
X035260Y014316D01*
X034332Y014316D01*
X034147Y014239D01*
X034005Y014097D01*
X033928Y013912D01*
X033928Y013712D01*
X034005Y013527D01*
X033965Y013622D02*
X029314Y013622D01*
X029473Y013780D02*
X033928Y013780D01*
X033939Y013939D02*
X029574Y013939D01*
X029574Y014097D02*
X034005Y014097D01*
X034188Y014256D02*
X029574Y014256D01*
X029054Y014256D02*
X025396Y014256D01*
X025401Y014261D02*
X025518Y014544D01*
X025518Y014851D01*
X025401Y015135D01*
X025184Y015352D01*
X024900Y015469D01*
X024593Y015469D01*
X024310Y015352D01*
X024093Y015135D01*
X023976Y014851D01*
X023976Y014544D01*
X024093Y014261D01*
X024310Y014044D01*
X024593Y013926D01*
X024900Y013926D01*
X025184Y014044D01*
X025401Y014261D01*
X025464Y014414D02*
X028983Y014414D01*
X028861Y014573D02*
X025518Y014573D01*
X025518Y014731D02*
X028810Y014731D01*
X028810Y014890D02*
X025502Y014890D01*
X025437Y015048D02*
X028873Y015048D01*
X029012Y015207D02*
X025329Y015207D01*
X025150Y015365D02*
X040480Y015365D01*
X040480Y015207D02*
X030343Y015207D01*
X030482Y015048D02*
X040480Y015048D01*
X040480Y014890D02*
X030545Y014890D01*
X030545Y014731D02*
X040549Y014731D01*
X040707Y014573D02*
X030494Y014573D01*
X030372Y014414D02*
X040866Y014414D01*
X041024Y014256D02*
X035404Y014256D01*
X035586Y014097D02*
X041183Y014097D01*
X041060Y013939D02*
X035652Y013939D01*
X035663Y013780D02*
X040914Y013780D01*
X040822Y013622D02*
X035626Y013622D01*
X035523Y013463D02*
X040761Y013463D01*
X041873Y014256D02*
X042182Y014256D01*
X042111Y014327D02*
X042313Y014125D01*
X042560Y013982D01*
X042836Y013908D01*
X043122Y013908D01*
X043359Y013972D01*
X043281Y013893D01*
X043202Y013795D01*
X043135Y013688D01*
X043080Y013574D01*
X043038Y013454D01*
X043010Y013331D01*
X042998Y013223D01*
X044041Y013223D01*
X044041Y014266D01*
X043932Y014253D01*
X043809Y014225D01*
X043712Y014191D01*
X043847Y014327D01*
X043990Y014574D01*
X044064Y014850D01*
X044064Y015136D01*
X043990Y015412D01*
X043847Y015659D01*
X043645Y015861D01*
X043398Y016004D01*
X043122Y016078D01*
X042836Y016078D01*
X042560Y016004D01*
X042313Y015861D01*
X042111Y015659D01*
X041968Y015412D01*
X041894Y015136D01*
X041894Y014850D01*
X041968Y014574D01*
X042111Y014327D01*
X042061Y014414D02*
X041714Y014414D01*
X041556Y014573D02*
X041969Y014573D01*
X041926Y014731D02*
X041397Y014731D01*
X041239Y014890D02*
X041894Y014890D01*
X041894Y015048D02*
X041080Y015048D01*
X041080Y015207D02*
X041913Y015207D01*
X041956Y015365D02*
X041080Y015365D01*
X041080Y015524D02*
X042033Y015524D01*
X042134Y015682D02*
X041080Y015682D01*
X041080Y015841D02*
X042293Y015841D01*
X042553Y015999D02*
X041080Y015999D01*
X041080Y016158D02*
X047901Y016158D01*
X047901Y016316D02*
X041080Y016316D01*
X041080Y016475D02*
X047901Y016475D01*
X047901Y016633D02*
X041080Y016633D01*
X041080Y016792D02*
X047901Y016792D01*
X047901Y016950D02*
X041080Y016950D01*
X041080Y017109D02*
X046335Y017109D01*
X046327Y017112D02*
X046643Y016981D01*
X046985Y016981D01*
X047301Y017112D01*
X047543Y017354D01*
X047674Y017670D01*
X047674Y018012D01*
X047543Y018329D01*
X047301Y018570D01*
X046985Y018701D01*
X046643Y018701D01*
X046327Y018570D01*
X046085Y018329D01*
X045954Y018012D01*
X045954Y017670D01*
X046085Y017354D01*
X046327Y017112D01*
X046172Y017267D02*
X041080Y017267D01*
X041080Y017426D02*
X046055Y017426D01*
X045990Y017584D02*
X041080Y017584D01*
X041080Y017743D02*
X045954Y017743D01*
X045954Y017901D02*
X041080Y017901D01*
X041080Y018060D02*
X045974Y018060D01*
X046039Y018218D02*
X041080Y018218D01*
X041080Y018377D02*
X046133Y018377D01*
X046292Y018535D02*
X041080Y018535D01*
X041080Y018694D02*
X046625Y018694D01*
X047003Y018694D02*
X047901Y018694D01*
X047901Y018852D02*
X041080Y018852D01*
X041080Y019011D02*
X047901Y019011D01*
X047901Y019169D02*
X041080Y019169D01*
X041080Y019328D02*
X047901Y019328D01*
X047901Y019486D02*
X041080Y019486D01*
X041080Y019645D02*
X047901Y019645D01*
X047901Y019803D02*
X041080Y019803D01*
X041080Y019962D02*
X047901Y019962D01*
X047901Y020120D02*
X041080Y020120D01*
X041080Y020279D02*
X047901Y020279D01*
X047901Y020437D02*
X041080Y020437D01*
X041080Y020596D02*
X047901Y020596D01*
X047901Y020754D02*
X041080Y020754D01*
X041080Y020913D02*
X047901Y020913D01*
X047901Y021071D02*
X041080Y021071D01*
X041080Y021230D02*
X047901Y021230D01*
X047901Y021388D02*
X041080Y021388D01*
X041080Y021547D02*
X047901Y021547D01*
X047901Y021705D02*
X041080Y021705D01*
X041080Y021864D02*
X047901Y021864D01*
X047901Y022022D02*
X041080Y022022D01*
X041080Y022181D02*
X047901Y022181D01*
X047901Y022339D02*
X041080Y022339D01*
X041080Y022498D02*
X047901Y022498D01*
X047901Y022656D02*
X041080Y022656D01*
X041080Y022815D02*
X047901Y022815D01*
X047901Y022973D02*
X041080Y022973D01*
X041080Y023132D02*
X047901Y023132D01*
X047901Y023290D02*
X041080Y023290D01*
X041080Y023449D02*
X047901Y023449D01*
X047901Y023607D02*
X041080Y023607D01*
X041080Y023766D02*
X047901Y023766D01*
X047901Y023924D02*
X041080Y023924D01*
X041080Y024083D02*
X047901Y024083D01*
X047901Y024241D02*
X041080Y024241D01*
X041080Y024400D02*
X047901Y024400D01*
X047901Y024558D02*
X041080Y024558D01*
X041080Y024717D02*
X047901Y024717D01*
X047901Y024875D02*
X041080Y024875D01*
X041035Y025034D02*
X047901Y025034D01*
X047901Y025192D02*
X040877Y025192D01*
X040719Y025351D02*
X047901Y025351D01*
X047901Y025509D02*
X040560Y025509D01*
X040402Y025668D02*
X047901Y025668D01*
X047901Y025826D02*
X040243Y025826D01*
X040085Y025985D02*
X047901Y025985D01*
X047901Y026143D02*
X039926Y026143D01*
X039779Y026302D02*
X047901Y026302D01*
X047901Y026460D02*
X039567Y026460D01*
X039435Y026460D02*
X033511Y026460D01*
X033511Y026302D02*
X039223Y026302D01*
X039184Y026143D02*
X033511Y026143D01*
X033511Y025985D02*
X039224Y025985D01*
X039395Y025826D02*
X033511Y025826D01*
X033511Y025668D02*
X039553Y025668D01*
X039712Y025509D02*
X033511Y025509D01*
X033511Y025351D02*
X039870Y025351D01*
X040029Y025192D02*
X033511Y025192D01*
X033511Y025034D02*
X040187Y025034D01*
X040346Y024875D02*
X033511Y024875D01*
X033511Y024717D02*
X040480Y024717D01*
X040480Y024558D02*
X033511Y024558D01*
X033511Y024400D02*
X040480Y024400D01*
X040480Y024241D02*
X033511Y024241D01*
X033511Y024083D02*
X040480Y024083D01*
X040480Y023924D02*
X033511Y023924D01*
X033511Y023766D02*
X040480Y023766D01*
X040480Y023607D02*
X033511Y023607D01*
X033511Y023449D02*
X040480Y023449D01*
X040480Y023290D02*
X033511Y023290D01*
X033511Y023132D02*
X040480Y023132D01*
X040480Y022973D02*
X033511Y022973D01*
X033511Y022815D02*
X040480Y022815D01*
X040480Y022656D02*
X033428Y022656D01*
X033398Y022627D02*
X033471Y022700D01*
X033511Y022796D01*
X033511Y027088D01*
X033520Y027097D01*
X033568Y027213D01*
X033568Y027340D01*
X033520Y027456D01*
X033431Y027545D01*
X033314Y027594D01*
X033188Y027594D01*
X033071Y027545D01*
X032982Y027456D01*
X032934Y027340D01*
X032934Y027213D01*
X032982Y027097D01*
X032991Y027088D01*
X032991Y022955D01*
X031849Y021813D01*
X031810Y021718D01*
X031810Y020352D01*
X031784Y020341D01*
X031643Y020200D01*
X031566Y020014D01*
X031566Y019814D01*
X031643Y019629D01*
X031784Y019487D01*
X031970Y019411D01*
X032897Y019411D01*
X033083Y019487D01*
X033224Y019629D01*
X033301Y019814D01*
X033301Y020014D01*
X033224Y020200D01*
X033083Y020341D01*
X032897Y020418D01*
X032330Y020418D01*
X032330Y021559D01*
X033398Y022627D01*
X033269Y022498D02*
X034138Y022498D01*
X034147Y022507D02*
X034005Y022365D01*
X033928Y022180D01*
X033928Y021979D01*
X034005Y021794D01*
X034147Y021653D01*
X034332Y021576D01*
X035260Y021576D01*
X035445Y021653D01*
X035587Y021794D01*
X035663Y021979D01*
X035663Y022180D01*
X035587Y022365D01*
X035445Y022507D01*
X035260Y022583D01*
X034332Y022583D01*
X034147Y022507D01*
X033994Y022339D02*
X033111Y022339D01*
X032952Y022181D02*
X033929Y022181D01*
X033928Y022022D02*
X032794Y022022D01*
X032635Y021864D02*
X033976Y021864D01*
X034094Y021705D02*
X032477Y021705D01*
X032330Y021547D02*
X040480Y021547D01*
X040480Y021705D02*
X035498Y021705D01*
X035615Y021864D02*
X040480Y021864D01*
X040480Y022022D02*
X035663Y022022D01*
X035663Y022181D02*
X040480Y022181D01*
X040480Y022339D02*
X035597Y022339D01*
X035453Y022498D02*
X040480Y022498D01*
X040480Y021388D02*
X032330Y021388D01*
X032330Y021230D02*
X040480Y021230D01*
X040480Y021071D02*
X032330Y021071D01*
X032330Y020913D02*
X040480Y020913D01*
X040480Y020754D02*
X032330Y020754D01*
X032330Y020596D02*
X040480Y020596D01*
X040480Y020437D02*
X032330Y020437D01*
X031810Y020437D02*
X011719Y020437D01*
X011719Y020279D02*
X031722Y020279D01*
X031610Y020120D02*
X011719Y020120D01*
X011719Y019962D02*
X031566Y019962D01*
X031570Y019803D02*
X011719Y019803D01*
X011719Y019645D02*
X031636Y019645D01*
X031786Y019486D02*
X013583Y019486D01*
X013555Y019515D02*
X013370Y019591D01*
X012442Y019591D01*
X012257Y019515D01*
X012115Y019373D01*
X012038Y019188D01*
X012038Y018987D01*
X012115Y018802D01*
X012257Y018660D01*
X012322Y018633D01*
X012322Y018071D01*
X012854Y017540D01*
X012854Y011550D01*
X012814Y011550D01*
X012697Y011502D01*
X012608Y011413D01*
X012560Y011296D01*
X012560Y011170D01*
X012608Y011053D01*
X012697Y010964D01*
X012814Y010916D01*
X012940Y010916D01*
X013057Y010964D01*
X013146Y011053D01*
X013194Y011170D01*
X013194Y011239D01*
X013294Y011339D01*
X013294Y017722D01*
X013165Y017851D01*
X012762Y018253D01*
X012762Y018584D01*
X013370Y018584D01*
X013555Y018660D01*
X013697Y018802D01*
X013773Y018987D01*
X013773Y019188D01*
X013697Y019373D01*
X013555Y019515D01*
X013715Y019328D02*
X040480Y019328D01*
X040480Y019486D02*
X033081Y019486D01*
X033231Y019645D02*
X040480Y019645D01*
X040480Y019803D02*
X033297Y019803D01*
X033301Y019962D02*
X040480Y019962D01*
X040480Y020120D02*
X033257Y020120D01*
X033145Y020279D02*
X040480Y020279D01*
X040480Y019169D02*
X028336Y019169D01*
X028503Y019011D02*
X040480Y019011D01*
X040480Y018852D02*
X028569Y018852D01*
X028577Y018694D02*
X036625Y018694D01*
X036643Y018701D02*
X036327Y018570D01*
X036085Y018329D01*
X035954Y018012D01*
X035954Y017670D01*
X036085Y017354D01*
X036327Y017112D01*
X036643Y016981D01*
X036985Y016981D01*
X037301Y017112D01*
X037543Y017354D01*
X037674Y017670D01*
X037674Y018012D01*
X037543Y018329D01*
X037301Y018570D01*
X036985Y018701D01*
X036643Y018701D01*
X037003Y018694D02*
X040480Y018694D01*
X040480Y018535D02*
X037336Y018535D01*
X037494Y018377D02*
X040480Y018377D01*
X040480Y018218D02*
X037588Y018218D01*
X037654Y018060D02*
X040480Y018060D01*
X040480Y017901D02*
X037674Y017901D01*
X037674Y017743D02*
X040480Y017743D01*
X040480Y017584D02*
X037638Y017584D01*
X037573Y017426D02*
X040480Y017426D01*
X040480Y017267D02*
X037456Y017267D01*
X037293Y017109D02*
X040480Y017109D01*
X040480Y016950D02*
X020615Y016950D01*
X020457Y016792D02*
X040480Y016792D01*
X040480Y016633D02*
X020298Y016633D01*
X020140Y016475D02*
X031849Y016475D01*
X031861Y016481D02*
X031785Y016442D01*
X031716Y016392D01*
X031655Y016331D01*
X031605Y016262D01*
X031566Y016186D01*
X031539Y016105D01*
X031526Y016020D01*
X031526Y016018D01*
X032029Y016018D01*
X032029Y015936D01*
X032111Y015936D01*
X032111Y015433D01*
X032840Y015433D01*
X032925Y015447D01*
X033006Y015473D01*
X033082Y015512D01*
X033151Y015562D01*
X033212Y015623D01*
X033262Y015692D01*
X033301Y015769D01*
X033328Y015850D01*
X033341Y015934D01*
X033341Y015936D01*
X032111Y015936D01*
X032111Y016018D01*
X033341Y016018D01*
X033341Y016020D01*
X033328Y016105D01*
X033301Y016186D01*
X033262Y016262D01*
X033212Y016331D01*
X033151Y016392D01*
X033082Y016442D01*
X033006Y016481D01*
X032925Y016508D01*
X032840Y016521D01*
X032111Y016521D01*
X032111Y016019D01*
X032029Y016019D01*
X032029Y016521D01*
X032027Y016521D01*
X031942Y016508D01*
X031861Y016481D01*
X032029Y016475D02*
X032111Y016475D01*
X032111Y016316D02*
X032029Y016316D01*
X032029Y016158D02*
X032111Y016158D01*
X032111Y015999D02*
X040480Y015999D01*
X040480Y015841D02*
X033325Y015841D01*
X033255Y015682D02*
X040480Y015682D01*
X040480Y015524D02*
X033098Y015524D01*
X033310Y016158D02*
X040480Y016158D01*
X040480Y016316D02*
X033223Y016316D01*
X033018Y016475D02*
X040480Y016475D01*
X043406Y015999D02*
X047901Y015999D01*
X047901Y015841D02*
X043665Y015841D01*
X043824Y015682D02*
X047901Y015682D01*
X047901Y015524D02*
X043925Y015524D01*
X044003Y015365D02*
X047901Y015365D01*
X047901Y015207D02*
X044045Y015207D01*
X044064Y015048D02*
X047901Y015048D01*
X047901Y014890D02*
X044064Y014890D01*
X044032Y014731D02*
X047901Y014731D01*
X047901Y014573D02*
X043989Y014573D01*
X043898Y014414D02*
X047901Y014414D01*
X047901Y014256D02*
X044286Y014256D01*
X044310Y014253D02*
X044201Y014266D01*
X044201Y013223D01*
X044041Y013223D01*
X044041Y013063D01*
X042998Y013063D01*
X043010Y012954D01*
X043038Y012831D01*
X043080Y012711D01*
X043135Y012598D01*
X043202Y012491D01*
X043281Y012392D01*
X043370Y012303D01*
X043469Y012224D01*
X043576Y012157D01*
X043690Y012102D01*
X043809Y012060D01*
X043932Y012032D01*
X044041Y012020D01*
X044041Y013063D01*
X044201Y013063D01*
X044201Y013223D01*
X045244Y013223D01*
X045232Y013331D01*
X045204Y013454D01*
X045162Y013574D01*
X045107Y013688D01*
X045040Y013795D01*
X044961Y013893D01*
X044872Y013983D01*
X044773Y014061D01*
X044666Y014129D01*
X044552Y014183D01*
X044433Y014225D01*
X044310Y014253D01*
X044201Y014256D02*
X044041Y014256D01*
X043956Y014256D02*
X043776Y014256D01*
X044041Y014097D02*
X044201Y014097D01*
X044201Y013939D02*
X044041Y013939D01*
X044041Y013780D02*
X044201Y013780D01*
X044201Y013622D02*
X044041Y013622D01*
X044041Y013463D02*
X044201Y013463D01*
X044201Y013305D02*
X044041Y013305D01*
X044041Y013146D02*
X042883Y013146D01*
X042880Y012988D02*
X043006Y012988D01*
X043039Y012829D02*
X042837Y012829D01*
X042779Y012671D02*
X043100Y012671D01*
X043188Y012512D02*
X042687Y012512D01*
X042544Y012354D02*
X043319Y012354D01*
X043514Y012195D02*
X042327Y012195D01*
X042170Y012037D02*
X043910Y012037D01*
X044041Y012037D02*
X044201Y012037D01*
X044201Y012020D02*
X044310Y012032D01*
X044433Y012060D01*
X044552Y012102D01*
X044666Y012157D01*
X044773Y012224D01*
X044872Y012303D01*
X044961Y012392D01*
X045040Y012491D01*
X045107Y012598D01*
X045162Y012711D01*
X045204Y012831D01*
X045232Y012954D01*
X045244Y013063D01*
X044201Y013063D01*
X044201Y012020D01*
X044332Y012037D02*
X047901Y012037D01*
X047901Y012195D02*
X044728Y012195D01*
X044923Y012354D02*
X047901Y012354D01*
X047901Y012512D02*
X045054Y012512D01*
X045142Y012671D02*
X047901Y012671D01*
X047901Y012829D02*
X045203Y012829D01*
X045236Y012988D02*
X047901Y012988D01*
X047901Y013146D02*
X044201Y013146D01*
X044201Y012988D02*
X044041Y012988D01*
X044041Y012829D02*
X044201Y012829D01*
X044201Y012671D02*
X044041Y012671D01*
X044041Y012512D02*
X044201Y012512D01*
X044201Y012354D02*
X044041Y012354D01*
X044041Y012195D02*
X044201Y012195D01*
X043878Y011440D02*
X043563Y011440D01*
X043273Y011320D01*
X043051Y011098D01*
X042930Y010808D01*
X042930Y010493D01*
X043051Y010203D01*
X043273Y009981D01*
X043563Y009860D01*
X043878Y009860D01*
X044168Y009981D01*
X044390Y010203D01*
X044510Y010493D01*
X044510Y010808D01*
X044390Y011098D01*
X044168Y011320D01*
X043878Y011440D01*
X043968Y011403D02*
X047901Y011403D01*
X047901Y011561D02*
X042170Y011561D01*
X042170Y011403D02*
X043473Y011403D01*
X043197Y011244D02*
X042170Y011244D01*
X042170Y011086D02*
X043046Y011086D01*
X042980Y010927D02*
X042170Y010927D01*
X042170Y010769D02*
X042930Y010769D01*
X042930Y010610D02*
X042170Y010610D01*
X042170Y010452D02*
X042948Y010452D01*
X043013Y010293D02*
X042170Y010293D01*
X042170Y010135D02*
X043119Y010135D01*
X043283Y009976D02*
X042170Y009976D01*
X042170Y009818D02*
X047901Y009818D01*
X047901Y009976D02*
X044158Y009976D01*
X044322Y010135D02*
X047901Y010135D01*
X047901Y010293D02*
X044428Y010293D01*
X044493Y010452D02*
X047901Y010452D01*
X047901Y010610D02*
X044510Y010610D01*
X044510Y010769D02*
X047901Y010769D01*
X047901Y010927D02*
X044461Y010927D01*
X044395Y011086D02*
X047901Y011086D01*
X047901Y011244D02*
X044244Y011244D01*
X042170Y011720D02*
X047901Y011720D01*
X047901Y011878D02*
X042170Y011878D01*
X042878Y013305D02*
X043007Y013305D01*
X043041Y013463D02*
X042835Y013463D01*
X042774Y013622D02*
X043103Y013622D01*
X043193Y013780D02*
X042683Y013780D01*
X042721Y013939D02*
X042536Y013939D01*
X042361Y014097D02*
X042314Y014097D01*
X043237Y013939D02*
X043326Y013939D01*
X044716Y014097D02*
X047901Y014097D01*
X047901Y013939D02*
X044915Y013939D01*
X045049Y013780D02*
X047901Y013780D01*
X047901Y013622D02*
X045139Y013622D01*
X045200Y013463D02*
X047901Y013463D01*
X047901Y013305D02*
X045235Y013305D01*
X047293Y017109D02*
X047901Y017109D01*
X047901Y017267D02*
X047456Y017267D01*
X047573Y017426D02*
X047901Y017426D01*
X047901Y017584D02*
X047638Y017584D01*
X047674Y017743D02*
X047901Y017743D01*
X047901Y017901D02*
X047674Y017901D01*
X047654Y018060D02*
X047901Y018060D01*
X047901Y018218D02*
X047588Y018218D01*
X047494Y018377D02*
X047901Y018377D01*
X047901Y018535D02*
X047336Y018535D01*
X036335Y017109D02*
X020774Y017109D01*
X020932Y017267D02*
X036172Y017267D01*
X036055Y017426D02*
X032957Y017426D01*
X032925Y017415D02*
X033006Y017442D01*
X033082Y017481D01*
X033151Y017531D01*
X033212Y017592D01*
X033262Y017661D01*
X033301Y017737D01*
X033328Y017818D01*
X033341Y017903D01*
X033341Y017904D01*
X032111Y017904D01*
X032111Y017402D01*
X032840Y017402D01*
X032925Y017415D01*
X033205Y017584D02*
X035990Y017584D01*
X035954Y017743D02*
X033303Y017743D01*
X033341Y017901D02*
X035954Y017901D01*
X035974Y018060D02*
X033330Y018060D01*
X033328Y018073D02*
X033301Y018154D01*
X033262Y018231D01*
X033212Y018300D01*
X033151Y018360D01*
X033082Y018411D01*
X033006Y018450D01*
X032925Y018476D01*
X032840Y018489D01*
X032111Y018489D01*
X032111Y017987D01*
X032029Y017987D01*
X032029Y018489D01*
X032027Y018489D01*
X031942Y018476D01*
X031861Y018450D01*
X031785Y018411D01*
X031716Y018360D01*
X031655Y018300D01*
X031605Y018231D01*
X031566Y018154D01*
X031539Y018073D01*
X031526Y017989D01*
X031526Y017987D01*
X032029Y017987D01*
X032029Y017904D01*
X032111Y017904D01*
X032111Y017987D01*
X033341Y017987D01*
X033341Y017989D01*
X033328Y018073D01*
X033269Y018218D02*
X036039Y018218D01*
X036133Y018377D02*
X033129Y018377D01*
X032111Y018377D02*
X032029Y018377D01*
X032029Y018218D02*
X032111Y018218D01*
X032111Y018060D02*
X032029Y018060D01*
X032029Y017904D02*
X031526Y017904D01*
X031526Y017903D01*
X031539Y017818D01*
X031566Y017737D01*
X031605Y017661D01*
X031655Y017592D01*
X031716Y017531D01*
X031785Y017481D01*
X031861Y017442D01*
X031942Y017415D01*
X032027Y017402D01*
X032029Y017402D01*
X032029Y017904D01*
X032029Y017901D02*
X032111Y017901D01*
X032111Y017743D02*
X032029Y017743D01*
X032029Y017584D02*
X032111Y017584D01*
X032111Y017426D02*
X032029Y017426D01*
X031910Y017426D02*
X021091Y017426D01*
X021249Y017584D02*
X031662Y017584D01*
X031564Y017743D02*
X021408Y017743D01*
X021566Y017901D02*
X031526Y017901D01*
X031537Y018060D02*
X021725Y018060D01*
X021883Y018218D02*
X031598Y018218D01*
X031738Y018377D02*
X028429Y018377D01*
X028536Y018535D02*
X036292Y018535D01*
X032029Y015999D02*
X019664Y015999D01*
X019506Y015841D02*
X031542Y015841D01*
X031539Y015850D02*
X031566Y015769D01*
X031605Y015692D01*
X031655Y015623D01*
X031716Y015562D01*
X031785Y015512D01*
X031861Y015473D01*
X031942Y015447D01*
X032027Y015433D01*
X032029Y015433D01*
X032029Y015936D01*
X031526Y015936D01*
X031526Y015934D01*
X031539Y015850D01*
X031612Y015682D02*
X019347Y015682D01*
X019189Y015524D02*
X031769Y015524D01*
X032029Y015524D02*
X032111Y015524D01*
X032111Y015682D02*
X032029Y015682D01*
X032029Y015841D02*
X032111Y015841D01*
X031557Y016158D02*
X019823Y016158D01*
X019981Y016316D02*
X031644Y016316D01*
X029054Y014097D02*
X025238Y014097D01*
X024931Y013939D02*
X028896Y013939D01*
X028738Y013780D02*
X017445Y013780D01*
X017287Y013622D02*
X028579Y013622D01*
X028421Y013463D02*
X017128Y013463D01*
X016970Y013305D02*
X028262Y013305D01*
X028104Y013146D02*
X016811Y013146D01*
X016653Y012988D02*
X027945Y012988D01*
X027787Y012829D02*
X016494Y012829D01*
X016336Y012671D02*
X020955Y012671D01*
X020796Y012512D02*
X016177Y012512D01*
X016019Y012354D02*
X020638Y012354D01*
X020479Y012195D02*
X015860Y012195D01*
X015702Y012037D02*
X020321Y012037D01*
X020162Y011878D02*
X015543Y011878D01*
X015385Y011720D02*
X020004Y011720D01*
X019845Y011561D02*
X015226Y011561D01*
X015068Y011403D02*
X019687Y011403D01*
X019528Y011244D02*
X014958Y011244D01*
X014958Y011086D02*
X019370Y011086D01*
X019211Y010927D02*
X014958Y010927D01*
X014958Y010769D02*
X019053Y010769D01*
X018894Y010610D02*
X014958Y010610D01*
X014958Y010452D02*
X018736Y010452D01*
X018577Y010293D02*
X014958Y010293D01*
X014958Y010135D02*
X018419Y010135D01*
X018260Y009976D02*
X014958Y009976D01*
X014958Y009818D02*
X018102Y009818D01*
X017948Y009659D02*
X014958Y009659D01*
X014958Y009501D02*
X017912Y009501D01*
X017912Y009342D02*
X014958Y009342D01*
X014958Y009184D02*
X017912Y009184D01*
X017912Y009025D02*
X014958Y009025D01*
X014958Y008867D02*
X017912Y008867D01*
X017912Y008708D02*
X014958Y008708D01*
X014958Y008550D02*
X017912Y008550D01*
X017912Y008391D02*
X014958Y008391D01*
X014958Y008233D02*
X017912Y008233D01*
X017912Y008074D02*
X014958Y008074D01*
X014958Y007916D02*
X017912Y007916D01*
X017912Y007757D02*
X014958Y007757D01*
X014958Y007599D02*
X017912Y007599D01*
X017912Y007440D02*
X014958Y007440D01*
X014958Y007282D02*
X017912Y007282D01*
X018432Y007440D02*
X041554Y007440D01*
X041440Y007599D02*
X018432Y007599D01*
X018432Y007757D02*
X041400Y007757D01*
X041415Y007916D02*
X018432Y007916D01*
X018432Y008074D02*
X041492Y008074D01*
X042187Y007440D02*
X042334Y007440D01*
X042170Y009501D02*
X047901Y009501D01*
X047901Y009659D02*
X042170Y009659D01*
X047901Y004904D02*
X018432Y004904D01*
X018432Y004746D02*
X047901Y004746D01*
X047901Y002685D02*
X047436Y002685D01*
X047436Y002527D02*
X047901Y002527D01*
X047901Y002368D02*
X047436Y002368D01*
X047398Y002210D02*
X047901Y002210D01*
X026989Y018377D02*
X022042Y018377D01*
X021624Y018694D02*
X013589Y018694D01*
X013718Y018852D02*
X021782Y018852D01*
X021465Y018535D02*
X012762Y018535D01*
X012762Y018377D02*
X021307Y018377D01*
X021148Y018218D02*
X012797Y018218D01*
X012956Y018060D02*
X020990Y018060D01*
X020831Y017901D02*
X013114Y017901D01*
X013273Y017743D02*
X020673Y017743D01*
X020514Y017584D02*
X013294Y017584D01*
X013294Y017426D02*
X020356Y017426D01*
X020197Y017267D02*
X013294Y017267D01*
X013294Y017109D02*
X020039Y017109D01*
X019880Y016950D02*
X013294Y016950D01*
X013294Y016792D02*
X019722Y016792D01*
X019563Y016633D02*
X013294Y016633D01*
X013294Y016475D02*
X019405Y016475D01*
X019246Y016316D02*
X013294Y016316D01*
X013294Y016158D02*
X019088Y016158D01*
X018929Y015999D02*
X013294Y015999D01*
X013294Y015841D02*
X018771Y015841D01*
X018612Y015682D02*
X013294Y015682D01*
X013294Y015524D02*
X018454Y015524D01*
X018295Y015365D02*
X013294Y015365D01*
X013294Y015207D02*
X018137Y015207D01*
X017978Y015048D02*
X013294Y015048D01*
X013294Y014890D02*
X017820Y014890D01*
X017661Y014731D02*
X013294Y014731D01*
X013294Y014573D02*
X017503Y014573D01*
X017344Y014414D02*
X013294Y014414D01*
X013294Y014256D02*
X017186Y014256D01*
X017027Y014097D02*
X013294Y014097D01*
X013294Y013939D02*
X016869Y013939D01*
X016710Y013780D02*
X013294Y013780D01*
X013294Y013622D02*
X016552Y013622D01*
X016393Y013463D02*
X013294Y013463D01*
X013294Y013305D02*
X016235Y013305D01*
X016076Y013146D02*
X013294Y013146D01*
X013294Y012988D02*
X015918Y012988D01*
X015759Y012829D02*
X013294Y012829D01*
X013294Y012671D02*
X015601Y012671D01*
X015442Y012512D02*
X013294Y012512D01*
X013294Y012354D02*
X015284Y012354D01*
X015125Y012195D02*
X013294Y012195D01*
X013294Y012037D02*
X014967Y012037D01*
X014808Y011878D02*
X013294Y011878D01*
X013294Y011720D02*
X014650Y011720D01*
X014491Y011561D02*
X013294Y011561D01*
X013294Y011403D02*
X014438Y011403D01*
X014438Y011244D02*
X013199Y011244D01*
X013159Y011086D02*
X014438Y011086D01*
X014438Y010927D02*
X012968Y010927D01*
X012786Y010927D02*
X012408Y010927D01*
X012408Y010769D02*
X014438Y010769D01*
X014438Y010610D02*
X012408Y010610D01*
X012408Y010452D02*
X014438Y010452D01*
X014438Y010293D02*
X012408Y010293D01*
X012408Y010135D02*
X014438Y010135D01*
X014438Y009976D02*
X012408Y009976D01*
X012408Y009818D02*
X014438Y009818D01*
X014438Y009659D02*
X012408Y009659D01*
X012408Y009501D02*
X014438Y009501D01*
X014438Y009342D02*
X012408Y009342D01*
X012408Y009184D02*
X014438Y009184D01*
X014438Y009025D02*
X012408Y009025D01*
X012408Y008867D02*
X014438Y008867D01*
X014438Y008708D02*
X012408Y008708D01*
X012408Y008550D02*
X014438Y008550D01*
X014438Y008391D02*
X012408Y008391D01*
X012408Y008233D02*
X014438Y008233D01*
X014438Y008074D02*
X012408Y008074D01*
X012408Y007916D02*
X014438Y007916D01*
X014438Y007757D02*
X012408Y007757D01*
X012408Y007599D02*
X014438Y007599D01*
X014438Y007440D02*
X012408Y007440D01*
X012408Y007282D02*
X014438Y007282D01*
X014438Y007123D02*
X012408Y007123D01*
X012408Y006965D02*
X014438Y006965D01*
X014438Y006806D02*
X012408Y006806D01*
X012408Y006648D02*
X014438Y006648D01*
X014438Y006489D02*
X012381Y006489D01*
X012408Y006516D02*
X012408Y017623D01*
X011719Y018312D01*
X011719Y028760D01*
X011788Y028829D01*
X011857Y028829D01*
X011974Y028878D01*
X012063Y028967D01*
X012111Y029083D01*
X012111Y029210D01*
X012063Y029326D01*
X011974Y029415D01*
X011857Y029464D01*
X011731Y029464D01*
X011615Y029415D01*
X011525Y029326D01*
X011477Y029210D01*
X011477Y029140D01*
X011279Y028942D01*
X011279Y018130D01*
X011408Y018001D01*
X011968Y017441D01*
X011968Y006698D01*
X011220Y005950D01*
X011220Y005556D01*
X011126Y005556D01*
X011044Y005474D01*
X011044Y004748D01*
X011126Y004666D01*
X011754Y004666D01*
X011836Y004748D01*
X011836Y005474D01*
X011754Y005556D01*
X011660Y005556D01*
X011660Y005768D01*
X012279Y006387D01*
X012408Y006516D01*
X012188Y006607D02*
X012188Y017532D01*
X011499Y018221D01*
X011499Y028851D01*
X011794Y029147D01*
X011477Y029155D02*
X011030Y029155D01*
X011030Y029313D02*
X011520Y029313D01*
X011333Y028996D02*
X011030Y028996D01*
X011030Y028838D02*
X011279Y028838D01*
X011279Y028679D02*
X011030Y028679D01*
X011030Y028521D02*
X011279Y028521D01*
X011279Y028362D02*
X011030Y028362D01*
X011030Y028204D02*
X011279Y028204D01*
X011279Y028045D02*
X011030Y028045D01*
X011030Y027887D02*
X011279Y027887D01*
X011279Y027728D02*
X011030Y027728D01*
X011030Y027570D02*
X011279Y027570D01*
X011279Y027411D02*
X011030Y027411D01*
X011030Y027253D02*
X011279Y027253D01*
X011279Y027094D02*
X011030Y027094D01*
X011030Y026936D02*
X011279Y026936D01*
X011279Y026777D02*
X011030Y026777D01*
X011030Y026619D02*
X011279Y026619D01*
X011279Y026460D02*
X011030Y026460D01*
X011030Y026302D02*
X011279Y026302D01*
X011279Y026143D02*
X011030Y026143D01*
X011030Y025985D02*
X011279Y025985D01*
X011279Y025826D02*
X011030Y025826D01*
X011030Y025668D02*
X011279Y025668D01*
X011279Y025509D02*
X011030Y025509D01*
X011030Y025351D02*
X011279Y025351D01*
X011279Y025192D02*
X011030Y025192D01*
X011030Y025034D02*
X011279Y025034D01*
X011279Y024875D02*
X011030Y024875D01*
X011030Y024717D02*
X011279Y024717D01*
X011279Y024558D02*
X011030Y024558D01*
X011030Y024400D02*
X011279Y024400D01*
X011279Y024241D02*
X011030Y024241D01*
X011030Y024083D02*
X011279Y024083D01*
X011279Y023924D02*
X011030Y023924D01*
X011030Y023766D02*
X011279Y023766D01*
X011279Y023607D02*
X011030Y023607D01*
X011030Y023449D02*
X011279Y023449D01*
X011279Y023290D02*
X011030Y023290D01*
X011030Y023132D02*
X011279Y023132D01*
X011279Y022973D02*
X011030Y022973D01*
X011030Y022815D02*
X011279Y022815D01*
X011279Y022656D02*
X011030Y022656D01*
X011030Y022498D02*
X011279Y022498D01*
X011279Y022339D02*
X011030Y022339D01*
X011030Y022181D02*
X011279Y022181D01*
X011279Y022022D02*
X011030Y022022D01*
X011030Y021864D02*
X011279Y021864D01*
X011279Y021705D02*
X011030Y021705D01*
X011030Y021547D02*
X011279Y021547D01*
X011279Y021388D02*
X011030Y021388D01*
X011030Y021230D02*
X011279Y021230D01*
X011279Y021071D02*
X011030Y021071D01*
X011030Y020913D02*
X011279Y020913D01*
X011279Y020754D02*
X011030Y020754D01*
X011030Y020596D02*
X011279Y020596D01*
X011279Y020437D02*
X011030Y020437D01*
X011030Y020279D02*
X011279Y020279D01*
X011279Y020120D02*
X011030Y020120D01*
X011030Y019962D02*
X011279Y019962D01*
X011279Y019803D02*
X011030Y019803D01*
X011030Y019645D02*
X011279Y019645D01*
X011279Y019486D02*
X011030Y019486D01*
X011030Y019328D02*
X011279Y019328D01*
X011279Y019169D02*
X011030Y019169D01*
X011030Y019011D02*
X011279Y019011D01*
X011279Y018852D02*
X011030Y018852D01*
X011030Y018694D02*
X011279Y018694D01*
X011279Y018535D02*
X011030Y018535D01*
X011030Y018377D02*
X011279Y018377D01*
X011279Y018218D02*
X011030Y018218D01*
X011030Y018116D02*
X011030Y029410D01*
X011079Y029459D01*
X011127Y029576D01*
X011127Y029702D01*
X011079Y029818D01*
X010990Y029908D01*
X010873Y029956D01*
X010747Y029956D01*
X010630Y029908D01*
X010541Y029818D01*
X010493Y029702D01*
X010493Y029576D01*
X010541Y029459D01*
X010590Y029410D01*
X010590Y017933D01*
X010719Y017804D01*
X011043Y017481D01*
X011043Y007987D01*
X010968Y007987D01*
X010886Y007905D01*
X010886Y007317D01*
X010968Y007235D01*
X011557Y007235D01*
X011639Y007317D01*
X011639Y007905D01*
X011557Y007987D01*
X011483Y007987D01*
X011483Y017663D01*
X011030Y018116D01*
X011086Y018060D02*
X011349Y018060D01*
X011244Y017901D02*
X011508Y017901D01*
X011403Y017743D02*
X011666Y017743D01*
X011825Y017584D02*
X011483Y017584D01*
X011483Y017426D02*
X011968Y017426D01*
X011968Y017267D02*
X011483Y017267D01*
X011483Y017109D02*
X011968Y017109D01*
X011968Y016950D02*
X011483Y016950D01*
X011483Y016792D02*
X011968Y016792D01*
X011968Y016633D02*
X011483Y016633D01*
X011483Y016475D02*
X011968Y016475D01*
X011968Y016316D02*
X011483Y016316D01*
X011483Y016158D02*
X011968Y016158D01*
X011968Y015999D02*
X011483Y015999D01*
X011483Y015841D02*
X011968Y015841D01*
X011968Y015682D02*
X011483Y015682D01*
X011483Y015524D02*
X011968Y015524D01*
X011968Y015365D02*
X011483Y015365D01*
X011483Y015207D02*
X011968Y015207D01*
X011968Y015048D02*
X011483Y015048D01*
X011483Y014890D02*
X011968Y014890D01*
X011968Y014731D02*
X011483Y014731D01*
X011483Y014573D02*
X011968Y014573D01*
X011968Y014414D02*
X011483Y014414D01*
X011483Y014256D02*
X011968Y014256D01*
X011968Y014097D02*
X011483Y014097D01*
X011483Y013939D02*
X011968Y013939D01*
X011968Y013780D02*
X011483Y013780D01*
X011483Y013622D02*
X011968Y013622D01*
X011968Y013463D02*
X011483Y013463D01*
X011483Y013305D02*
X011968Y013305D01*
X011968Y013146D02*
X011483Y013146D01*
X011483Y012988D02*
X011968Y012988D01*
X011968Y012829D02*
X011483Y012829D01*
X011483Y012671D02*
X011968Y012671D01*
X011968Y012512D02*
X011483Y012512D01*
X011483Y012354D02*
X011968Y012354D01*
X011968Y012195D02*
X011483Y012195D01*
X011483Y012037D02*
X011968Y012037D01*
X011968Y011878D02*
X011483Y011878D01*
X011483Y011720D02*
X011968Y011720D01*
X011968Y011561D02*
X011483Y011561D01*
X011483Y011403D02*
X011968Y011403D01*
X011968Y011244D02*
X011483Y011244D01*
X011483Y011086D02*
X011968Y011086D01*
X011968Y010927D02*
X011483Y010927D01*
X011483Y010769D02*
X011968Y010769D01*
X011968Y010610D02*
X011483Y010610D01*
X011483Y010452D02*
X011968Y010452D01*
X011968Y010293D02*
X011483Y010293D01*
X011483Y010135D02*
X011968Y010135D01*
X011968Y009976D02*
X011483Y009976D01*
X011483Y009818D02*
X011968Y009818D01*
X011968Y009659D02*
X011483Y009659D01*
X011483Y009501D02*
X011968Y009501D01*
X011968Y009342D02*
X011483Y009342D01*
X011483Y009184D02*
X011968Y009184D01*
X011968Y009025D02*
X011483Y009025D01*
X011483Y008867D02*
X011968Y008867D01*
X011968Y008708D02*
X011483Y008708D01*
X011483Y008550D02*
X011968Y008550D01*
X011968Y008391D02*
X011483Y008391D01*
X011483Y008233D02*
X011968Y008233D01*
X011968Y008074D02*
X011483Y008074D01*
X011628Y007916D02*
X011968Y007916D01*
X011968Y007757D02*
X011639Y007757D01*
X011639Y007599D02*
X011968Y007599D01*
X011968Y007440D02*
X011639Y007440D01*
X011604Y007282D02*
X011968Y007282D01*
X011968Y007123D02*
X011647Y007123D01*
X011643Y007131D02*
X011609Y007165D01*
X011568Y007188D01*
X011523Y007201D01*
X011301Y007201D01*
X011301Y006822D01*
X011679Y006822D01*
X011679Y007044D01*
X011667Y007090D01*
X011643Y007131D01*
X011679Y006965D02*
X011968Y006965D01*
X011968Y006806D02*
X011301Y006806D01*
X011301Y006822D02*
X011301Y006746D01*
X011679Y006746D01*
X011679Y006524D01*
X011667Y006479D01*
X011643Y006438D01*
X011609Y006404D01*
X011568Y006380D01*
X011523Y006368D01*
X011301Y006368D01*
X011301Y006746D01*
X011225Y006746D01*
X011225Y006368D01*
X011003Y006368D01*
X010957Y006380D01*
X010916Y006404D01*
X010884Y006436D01*
X010852Y006404D01*
X010811Y006380D01*
X010765Y006368D01*
X010543Y006368D01*
X010543Y006746D01*
X010467Y006746D01*
X010467Y006368D01*
X010245Y006368D01*
X010199Y006380D01*
X010158Y006404D01*
X010125Y006438D01*
X010101Y006479D01*
X010094Y006505D01*
X010092Y006498D01*
X010068Y006457D01*
X010035Y006424D01*
X009994Y006400D01*
X009948Y006388D01*
X009726Y006388D01*
X009726Y006766D01*
X009726Y006842D01*
X010089Y006842D01*
X010089Y006822D01*
X010467Y006822D01*
X010467Y006746D01*
X010104Y006746D01*
X010104Y006766D01*
X009726Y006766D01*
X009650Y006766D01*
X009650Y006388D01*
X009428Y006388D01*
X009382Y006400D01*
X009341Y006424D01*
X009308Y006457D01*
X009284Y006498D01*
X009272Y006544D01*
X009272Y006766D01*
X009650Y006766D01*
X009650Y006842D01*
X009650Y007220D01*
X009428Y007220D01*
X009382Y007208D01*
X009341Y007184D01*
X009308Y007151D01*
X009284Y007110D01*
X009272Y007064D01*
X009272Y006842D01*
X009650Y006842D01*
X009726Y006842D01*
X009726Y007220D01*
X009948Y007220D01*
X009994Y007208D01*
X010035Y007184D01*
X010068Y007151D01*
X010092Y007110D01*
X010099Y007083D01*
X010101Y007090D01*
X010125Y007131D01*
X010158Y007165D01*
X010199Y007188D01*
X010245Y007201D01*
X010467Y007201D01*
X010467Y006822D01*
X010543Y006822D01*
X011225Y006822D01*
X011225Y006746D01*
X010846Y006746D01*
X010543Y006746D01*
X010543Y006822D01*
X010543Y007201D01*
X010765Y007201D01*
X010811Y007188D01*
X010852Y007165D01*
X010884Y007132D01*
X010916Y007165D01*
X010957Y007188D01*
X011003Y007201D01*
X011225Y007201D01*
X011225Y006822D01*
X011301Y006822D01*
X011225Y006806D02*
X010543Y006806D01*
X010467Y006806D02*
X009726Y006806D01*
X009650Y006806D02*
X008973Y006806D01*
X008973Y006648D02*
X009272Y006648D01*
X009289Y006489D02*
X008973Y006489D01*
X008973Y006331D02*
X011601Y006331D01*
X011670Y006489D02*
X011759Y006489D01*
X011679Y006648D02*
X011918Y006648D01*
X012188Y006607D02*
X011440Y005859D01*
X011440Y005111D01*
X011836Y005063D02*
X014438Y005063D01*
X014438Y005221D02*
X011836Y005221D01*
X011836Y005380D02*
X014438Y005380D01*
X014438Y005538D02*
X011771Y005538D01*
X011660Y005697D02*
X014438Y005697D01*
X014438Y005855D02*
X011747Y005855D01*
X011906Y006014D02*
X014438Y006014D01*
X014438Y006172D02*
X012064Y006172D01*
X012223Y006331D02*
X014438Y006331D01*
X014438Y004904D02*
X011836Y004904D01*
X011834Y004746D02*
X014438Y004746D01*
X014438Y004587D02*
X000490Y004587D01*
X000490Y004429D02*
X014438Y004429D01*
X014438Y004270D02*
X000490Y004270D01*
X000490Y004112D02*
X014438Y004112D01*
X014438Y003953D02*
X000490Y003953D01*
X000490Y003795D02*
X014438Y003795D01*
X014438Y003636D02*
X000490Y003636D01*
X000490Y003478D02*
X014438Y003478D01*
X014262Y003319D02*
X000490Y003319D01*
X000490Y003161D02*
X014262Y003161D01*
X014262Y003002D02*
X000490Y003002D01*
X000490Y002844D02*
X014262Y002844D01*
X014262Y002685D02*
X000490Y002685D01*
X000490Y002527D02*
X014328Y002527D01*
X014770Y002051D02*
X011836Y002051D01*
X011836Y001893D02*
X013928Y001893D01*
X013928Y001734D02*
X011836Y001734D01*
X011794Y001576D02*
X013928Y001576D01*
X013928Y001417D02*
X000490Y001417D01*
X000490Y001259D02*
X014044Y001259D01*
X014073Y001100D02*
X000490Y001100D01*
X000490Y000942D02*
X014218Y000942D01*
X014376Y000783D02*
X000490Y000783D01*
X000490Y001576D02*
X001125Y001576D01*
X001113Y001589D02*
X001195Y001507D01*
X001823Y001507D01*
X001905Y001589D01*
X001905Y002315D01*
X001823Y002397D01*
X001195Y002397D01*
X001113Y002315D01*
X001113Y001589D01*
X001113Y001734D02*
X000490Y001734D01*
X000490Y001893D02*
X001113Y001893D01*
X001113Y002051D02*
X000490Y002051D01*
X000490Y002210D02*
X001113Y002210D01*
X001167Y002368D02*
X000490Y002368D01*
X001851Y002368D02*
X002938Y002368D01*
X002966Y002397D02*
X002884Y002315D01*
X002884Y001589D01*
X002966Y001507D01*
X003594Y001507D01*
X003676Y001589D01*
X003676Y002315D01*
X003594Y002397D01*
X002966Y002397D01*
X002884Y002210D02*
X001905Y002210D01*
X001905Y002051D02*
X002884Y002051D01*
X002884Y001893D02*
X001905Y001893D01*
X001905Y001734D02*
X002884Y001734D01*
X002897Y001576D02*
X001892Y001576D01*
X003664Y001576D02*
X003862Y001576D01*
X003849Y001589D02*
X003931Y001507D01*
X004559Y001507D01*
X004641Y001589D01*
X004641Y002315D01*
X004559Y002397D01*
X003931Y002397D01*
X003849Y002315D01*
X003849Y001589D01*
X003849Y001734D02*
X003676Y001734D01*
X003676Y001893D02*
X003849Y001893D01*
X003849Y002051D02*
X003676Y002051D01*
X003676Y002210D02*
X003849Y002210D01*
X003903Y002368D02*
X003623Y002368D01*
X004587Y002368D02*
X005674Y002368D01*
X005703Y002397D02*
X005621Y002315D01*
X005621Y001589D01*
X005703Y001507D01*
X006331Y001507D01*
X006413Y001589D01*
X006413Y002315D01*
X006331Y002397D01*
X005703Y002397D01*
X005621Y002210D02*
X004641Y002210D01*
X004641Y002051D02*
X005621Y002051D01*
X005621Y001893D02*
X004641Y001893D01*
X004641Y001734D02*
X005621Y001734D01*
X005633Y001576D02*
X004628Y001576D01*
X006400Y001576D02*
X006618Y001576D01*
X006585Y001608D02*
X006667Y001526D01*
X007295Y001526D01*
X007377Y001608D01*
X007377Y002334D01*
X007295Y002416D01*
X006667Y002416D01*
X006585Y002334D01*
X006585Y001608D01*
X006585Y001734D02*
X006413Y001734D01*
X006413Y001893D02*
X006585Y001893D01*
X006585Y002051D02*
X006413Y002051D01*
X006413Y002210D02*
X006585Y002210D01*
X006619Y002368D02*
X006359Y002368D01*
X007343Y002368D02*
X008391Y002368D01*
X008357Y002334D02*
X008357Y001608D01*
X008439Y001526D01*
X009067Y001526D01*
X009149Y001608D01*
X009149Y002334D01*
X009067Y002416D01*
X008439Y002416D01*
X008357Y002334D01*
X008357Y002210D02*
X007377Y002210D01*
X007377Y002051D02*
X008357Y002051D01*
X008357Y001893D02*
X007377Y001893D01*
X007377Y001734D02*
X008357Y001734D01*
X008389Y001576D02*
X007345Y001576D01*
X009116Y001576D02*
X009314Y001576D01*
X009354Y001536D02*
X009982Y001536D01*
X010064Y001618D01*
X010064Y002344D01*
X009982Y002426D01*
X009354Y002426D01*
X009272Y002344D01*
X009272Y001618D01*
X009354Y001536D01*
X009272Y001734D02*
X009149Y001734D01*
X009149Y001893D02*
X009272Y001893D01*
X009272Y002051D02*
X009149Y002051D01*
X009149Y002210D02*
X009272Y002210D01*
X009296Y002368D02*
X009115Y002368D01*
X010040Y002368D02*
X011068Y002368D01*
X011044Y002210D02*
X010064Y002210D01*
X010064Y002051D02*
X011044Y002051D01*
X011044Y001893D02*
X010064Y001893D01*
X010064Y001734D02*
X011044Y001734D01*
X011086Y001576D02*
X010022Y001576D01*
X009948Y004626D02*
X009994Y004638D01*
X010035Y004662D01*
X010068Y004695D01*
X010092Y004737D01*
X010104Y004782D01*
X010104Y005063D01*
X011044Y005063D01*
X011044Y005221D02*
X010104Y005221D01*
X010104Y005159D02*
X010104Y005440D01*
X010092Y005486D01*
X010068Y005527D01*
X010035Y005560D01*
X009994Y005584D01*
X009948Y005596D01*
X009716Y005596D01*
X009716Y005159D01*
X009620Y005159D01*
X009620Y005063D01*
X009716Y005063D01*
X009716Y004626D01*
X009948Y004626D01*
X010094Y004746D02*
X011046Y004746D01*
X011044Y004904D02*
X010104Y004904D01*
X010104Y005063D02*
X009716Y005063D01*
X009620Y005063D01*
X009232Y005063D01*
X009149Y005063D01*
X009232Y005063D02*
X009232Y004782D01*
X009245Y004737D01*
X009268Y004695D01*
X009302Y004662D01*
X009343Y004638D01*
X009389Y004626D01*
X009620Y004626D01*
X009620Y005063D01*
X009620Y005159D02*
X009232Y005159D01*
X009232Y005440D01*
X009245Y005486D01*
X009268Y005527D01*
X009302Y005560D01*
X009343Y005584D01*
X009389Y005596D01*
X009620Y005596D01*
X009620Y005159D01*
X009620Y005221D02*
X009716Y005221D01*
X009716Y005159D02*
X010104Y005159D01*
X010104Y005380D02*
X011044Y005380D01*
X011108Y005538D02*
X010056Y005538D01*
X009716Y005538D02*
X009620Y005538D01*
X009620Y005380D02*
X009716Y005380D01*
X009716Y005159D02*
X009716Y005063D01*
X009716Y004904D02*
X009620Y004904D01*
X009620Y004746D02*
X009716Y004746D01*
X009242Y004746D02*
X009149Y004746D01*
X009149Y004738D02*
X009149Y005464D01*
X009067Y005546D01*
X008973Y005546D01*
X008973Y008002D01*
X009326Y008356D01*
X009455Y008485D01*
X009455Y015950D01*
X008077Y017328D01*
X008077Y031614D01*
X008440Y031978D01*
X008569Y032107D01*
X008569Y033105D01*
X008645Y033029D01*
X009010Y033029D01*
X009268Y033287D01*
X009268Y033652D01*
X009010Y033909D01*
X008645Y033909D01*
X008569Y033833D01*
X008569Y033900D01*
X008699Y034029D01*
X009010Y034029D01*
X009268Y034287D01*
X009268Y034652D01*
X009087Y034832D01*
X009511Y034832D01*
X009348Y034668D01*
X009348Y034489D01*
X009808Y034489D01*
X009808Y034449D01*
X009848Y034449D01*
X009848Y034489D01*
X010308Y034489D01*
X010308Y034668D01*
X010144Y034832D01*
X010568Y034832D01*
X010388Y034652D01*
X010388Y034287D01*
X010645Y034029D01*
X011010Y034029D01*
X011131Y034151D01*
X011131Y033878D01*
X011260Y033749D01*
X011388Y033622D01*
X011388Y033287D01*
X011645Y033029D01*
X012010Y033029D01*
X012268Y033287D01*
X012268Y033652D01*
X012010Y033909D01*
X011722Y033909D01*
X011571Y034060D01*
X011571Y034103D01*
X011645Y034029D01*
X012010Y034029D01*
X012268Y034287D01*
X012268Y034652D01*
X012010Y034909D01*
X011645Y034909D01*
X011571Y034835D01*
X011571Y034848D01*
X011276Y035143D01*
X011147Y035272D01*
X003386Y035272D01*
X003257Y035143D01*
X003140Y035026D01*
X003011Y034897D01*
X003011Y033975D01*
X003388Y033598D01*
X003388Y033287D01*
X003645Y033029D01*
X004010Y033029D01*
X004268Y033287D01*
X004268Y033652D01*
X004010Y033909D01*
X003699Y033909D01*
X003451Y034157D01*
X003451Y034224D01*
X003645Y034029D01*
X004010Y034029D01*
X004190Y034209D01*
X004465Y034209D01*
X004645Y034029D01*
X005010Y034029D01*
X005018Y034037D01*
X005127Y033927D01*
X005127Y033792D01*
X005010Y033909D01*
X004645Y033909D01*
X004388Y033652D01*
X004388Y033287D01*
X004585Y033089D01*
X004585Y030160D01*
X004408Y029983D01*
X004369Y029887D01*
X004369Y022485D01*
X004360Y022476D01*
X004312Y022359D01*
X004312Y022233D01*
X004360Y022116D01*
X004449Y022027D01*
X004566Y021979D01*
X004692Y021979D01*
X004808Y022027D01*
X004898Y022116D01*
X004946Y022233D01*
X004946Y022359D01*
X004898Y022476D01*
X004889Y022485D01*
X004889Y029728D01*
X004993Y029832D01*
X005066Y029905D01*
X005105Y030000D01*
X005105Y033125D01*
X005127Y033147D01*
X005127Y028981D01*
X005078Y028932D01*
X005030Y028816D01*
X005030Y028690D01*
X005078Y028573D01*
X005168Y028484D01*
X005284Y028436D01*
X005410Y028436D01*
X005527Y028484D01*
X005616Y028573D01*
X005664Y028690D01*
X005664Y028816D01*
X005616Y028932D01*
X005567Y028981D01*
X005567Y033107D01*
X005645Y033029D01*
X006010Y033029D01*
X006087Y033106D01*
X006087Y032264D01*
X005669Y031846D01*
X005669Y016541D01*
X001732Y012604D01*
X001732Y006910D01*
X001861Y006781D01*
X003060Y005581D01*
X003060Y005527D01*
X002966Y005527D01*
X002884Y005445D01*
X002884Y004718D01*
X002966Y004636D01*
X003594Y004636D01*
X003676Y004718D01*
X003676Y005445D01*
X003594Y005527D01*
X003500Y005527D01*
X003500Y005763D01*
X002172Y007092D01*
X002172Y012422D01*
X006109Y016359D01*
X006109Y031664D01*
X006398Y031953D01*
X006527Y032082D01*
X006527Y033148D01*
X006645Y033029D01*
X007010Y033029D01*
X007096Y033115D01*
X007096Y032289D01*
X006456Y031649D01*
X006456Y016541D01*
X002322Y012407D01*
X002322Y007107D01*
X003632Y005797D01*
X004813Y005797D01*
X005621Y004989D01*
X005621Y004718D01*
X005703Y004636D01*
X006331Y004636D01*
X006413Y004718D01*
X006413Y005445D01*
X006331Y005527D01*
X005705Y005527D01*
X005124Y006108D01*
X004996Y006237D01*
X003814Y006237D01*
X002762Y007289D01*
X002762Y012225D01*
X006896Y016359D01*
X006896Y031467D01*
X007407Y031978D01*
X007536Y032107D01*
X007536Y033082D01*
X007629Y032989D01*
X007808Y032989D01*
X007808Y033449D01*
X007848Y033449D01*
X007848Y032989D01*
X008026Y032989D01*
X008129Y033092D01*
X008129Y032289D01*
X007637Y031797D01*
X007637Y017146D01*
X007766Y017017D01*
X009015Y015768D01*
X009015Y012061D01*
X008840Y012560D01*
X008476Y013140D01*
X007992Y013624D01*
X007412Y013988D01*
X006766Y014214D01*
X006086Y014291D01*
X006086Y014291D01*
X005405Y014214D01*
X004759Y013988D01*
X004759Y013988D01*
X004179Y013624D01*
X003695Y013140D01*
X003695Y013140D01*
X003331Y012560D01*
X003104Y011914D01*
X003028Y011233D01*
X003104Y010553D01*
X003104Y010553D01*
X003331Y009906D01*
X003695Y009327D01*
X003695Y009327D01*
X004179Y008843D01*
X004759Y008478D01*
X005405Y008252D01*
X006086Y008175D01*
X006766Y008252D01*
X007412Y008478D01*
X007412Y008478D01*
X007992Y008843D01*
X008476Y009327D01*
X008840Y009906D01*
X008840Y009906D01*
X009015Y010406D01*
X009015Y008667D01*
X008533Y008185D01*
X008533Y005546D01*
X008439Y005546D01*
X008357Y005464D01*
X008357Y004738D01*
X008439Y004656D01*
X009067Y004656D01*
X009149Y004738D01*
X009149Y004904D02*
X009232Y004904D01*
X009232Y005221D02*
X009149Y005221D01*
X009149Y005380D02*
X009232Y005380D01*
X009280Y005538D02*
X009075Y005538D01*
X008973Y005697D02*
X011220Y005697D01*
X011220Y005855D02*
X008973Y005855D01*
X008973Y006014D02*
X011284Y006014D01*
X011442Y006172D02*
X008973Y006172D01*
X008533Y006172D02*
X005060Y006172D01*
X004904Y006017D02*
X003723Y006017D01*
X002542Y007198D01*
X002542Y012316D01*
X006676Y016450D01*
X006676Y031558D01*
X007316Y032198D01*
X007316Y033958D01*
X007828Y034469D01*
X008268Y034544D02*
X008388Y034544D01*
X008388Y034652D02*
X008568Y034832D01*
X008087Y034832D01*
X008268Y034652D01*
X008268Y034287D01*
X008010Y034029D01*
X007699Y034029D01*
X007536Y033866D01*
X007536Y033856D01*
X007629Y033949D01*
X007808Y033949D01*
X007808Y033489D01*
X007848Y033489D01*
X007848Y033949D01*
X008026Y033949D01*
X008129Y033847D01*
X008129Y034082D01*
X008388Y034340D01*
X008388Y034652D01*
X008439Y034703D02*
X008217Y034703D01*
X008268Y034386D02*
X008388Y034386D01*
X008274Y034227D02*
X008208Y034227D01*
X008129Y034069D02*
X008049Y034069D01*
X008066Y033910D02*
X008129Y033910D01*
X008349Y033991D02*
X008828Y034469D01*
X009268Y034544D02*
X009348Y034544D01*
X009348Y034449D02*
X009348Y034271D01*
X009629Y033989D01*
X009808Y033989D01*
X009808Y034449D01*
X009348Y034449D01*
X009348Y034386D02*
X009268Y034386D01*
X009208Y034227D02*
X009391Y034227D01*
X009550Y034069D02*
X009049Y034069D01*
X009168Y033752D02*
X009488Y033752D01*
X009388Y033652D02*
X009645Y033909D01*
X010010Y033909D01*
X010268Y033652D01*
X010268Y033287D01*
X010010Y033029D01*
X009645Y033029D01*
X009388Y033287D01*
X009388Y033652D01*
X009388Y033593D02*
X009268Y033593D01*
X009268Y033435D02*
X009388Y033435D01*
X009399Y033276D02*
X009257Y033276D01*
X009098Y033118D02*
X009557Y033118D01*
X010098Y033118D02*
X010557Y033118D01*
X010645Y033029D02*
X011010Y033029D01*
X011268Y033287D01*
X011268Y033652D01*
X011010Y033909D01*
X010645Y033909D01*
X010388Y033652D01*
X010388Y033287D01*
X010645Y033029D01*
X010399Y033276D02*
X010257Y033276D01*
X010268Y033435D02*
X010388Y033435D01*
X010388Y033593D02*
X010268Y033593D01*
X010168Y033752D02*
X010488Y033752D01*
X010606Y034069D02*
X010106Y034069D01*
X010026Y033989D02*
X010308Y034271D01*
X010308Y034449D01*
X009848Y034449D01*
X009848Y033989D01*
X010026Y033989D01*
X009848Y034069D02*
X009808Y034069D01*
X009808Y034227D02*
X009848Y034227D01*
X009848Y034386D02*
X009808Y034386D01*
X010264Y034227D02*
X010448Y034227D01*
X010388Y034386D02*
X010308Y034386D01*
X010308Y034544D02*
X010388Y034544D01*
X010439Y034703D02*
X010273Y034703D01*
X011056Y035052D02*
X003477Y035052D01*
X003231Y034806D01*
X003231Y034066D01*
X003828Y033469D01*
X004268Y033435D02*
X004388Y033435D01*
X004388Y033593D02*
X004268Y033593D01*
X004168Y033752D02*
X004488Y033752D01*
X004606Y034069D02*
X004049Y034069D01*
X003698Y033910D02*
X005127Y033910D01*
X005347Y034019D02*
X005347Y028753D01*
X005131Y028521D02*
X004889Y028521D01*
X004889Y028679D02*
X005034Y028679D01*
X005039Y028838D02*
X004889Y028838D01*
X004889Y028996D02*
X005127Y028996D01*
X005127Y029155D02*
X004889Y029155D01*
X004889Y029313D02*
X005127Y029313D01*
X005127Y029472D02*
X004889Y029472D01*
X004889Y029630D02*
X005127Y029630D01*
X005127Y029789D02*
X004950Y029789D01*
X005083Y029947D02*
X005127Y029947D01*
X005127Y030106D02*
X005105Y030106D01*
X005105Y030264D02*
X005127Y030264D01*
X005127Y030423D02*
X005105Y030423D01*
X005105Y030581D02*
X005127Y030581D01*
X005127Y030740D02*
X005105Y030740D01*
X005105Y030899D02*
X005127Y030899D01*
X005127Y031057D02*
X005105Y031057D01*
X005105Y031216D02*
X005127Y031216D01*
X005127Y031374D02*
X005105Y031374D01*
X005105Y031533D02*
X005127Y031533D01*
X005127Y031691D02*
X005105Y031691D01*
X005105Y031850D02*
X005127Y031850D01*
X005127Y032008D02*
X005105Y032008D01*
X005105Y032167D02*
X005127Y032167D01*
X005127Y032325D02*
X005105Y032325D01*
X005105Y032484D02*
X005127Y032484D01*
X005127Y032642D02*
X005105Y032642D01*
X005105Y032801D02*
X005127Y032801D01*
X005127Y032959D02*
X005105Y032959D01*
X005105Y033118D02*
X005127Y033118D01*
X005567Y032959D02*
X006087Y032959D01*
X006087Y032801D02*
X005567Y032801D01*
X005567Y032642D02*
X006087Y032642D01*
X006087Y032484D02*
X005567Y032484D01*
X005567Y032325D02*
X006087Y032325D01*
X005989Y032167D02*
X005567Y032167D01*
X005567Y032008D02*
X005831Y032008D01*
X005672Y031850D02*
X005567Y031850D01*
X005567Y031691D02*
X005669Y031691D01*
X005669Y031533D02*
X005567Y031533D01*
X005567Y031374D02*
X005669Y031374D01*
X005669Y031216D02*
X005567Y031216D01*
X005567Y031057D02*
X005669Y031057D01*
X005669Y030899D02*
X005567Y030899D01*
X005567Y030740D02*
X005669Y030740D01*
X005669Y030581D02*
X005567Y030581D01*
X005567Y030423D02*
X005669Y030423D01*
X005669Y030264D02*
X005567Y030264D01*
X005567Y030106D02*
X005669Y030106D01*
X005669Y029947D02*
X005567Y029947D01*
X005567Y029789D02*
X005669Y029789D01*
X005669Y029630D02*
X005567Y029630D01*
X005567Y029472D02*
X005669Y029472D01*
X005669Y029313D02*
X005567Y029313D01*
X005567Y029155D02*
X005669Y029155D01*
X005669Y028996D02*
X005567Y028996D01*
X005655Y028838D02*
X005669Y028838D01*
X005660Y028679D02*
X005669Y028679D01*
X005669Y028521D02*
X005564Y028521D01*
X005669Y028362D02*
X004889Y028362D01*
X004889Y028204D02*
X005669Y028204D01*
X005669Y028045D02*
X004889Y028045D01*
X004889Y027887D02*
X005669Y027887D01*
X005669Y027728D02*
X004889Y027728D01*
X004889Y027570D02*
X005669Y027570D01*
X005669Y027411D02*
X004889Y027411D01*
X004889Y027253D02*
X005669Y027253D01*
X005669Y027094D02*
X004889Y027094D01*
X004889Y026936D02*
X005669Y026936D01*
X005669Y026777D02*
X004889Y026777D01*
X004889Y026619D02*
X005669Y026619D01*
X005669Y026460D02*
X004889Y026460D01*
X004889Y026302D02*
X005669Y026302D01*
X005669Y026143D02*
X004889Y026143D01*
X004889Y025985D02*
X005669Y025985D01*
X005669Y025826D02*
X004889Y025826D01*
X004889Y025668D02*
X005669Y025668D01*
X005669Y025509D02*
X004889Y025509D01*
X004889Y025351D02*
X005669Y025351D01*
X005669Y025192D02*
X004889Y025192D01*
X004889Y025034D02*
X005669Y025034D01*
X005669Y024875D02*
X004889Y024875D01*
X004889Y024717D02*
X005669Y024717D01*
X005669Y024558D02*
X004889Y024558D01*
X004889Y024400D02*
X005669Y024400D01*
X005669Y024241D02*
X004889Y024241D01*
X004889Y024083D02*
X005669Y024083D01*
X005669Y023924D02*
X004889Y023924D01*
X004889Y023766D02*
X005669Y023766D01*
X005669Y023607D02*
X004889Y023607D01*
X004889Y023449D02*
X005669Y023449D01*
X005669Y023290D02*
X004889Y023290D01*
X004889Y023132D02*
X005669Y023132D01*
X005669Y022973D02*
X004889Y022973D01*
X004889Y022815D02*
X005669Y022815D01*
X005669Y022656D02*
X004889Y022656D01*
X004889Y022498D02*
X005669Y022498D01*
X005669Y022339D02*
X004946Y022339D01*
X004924Y022181D02*
X005669Y022181D01*
X005669Y022022D02*
X004797Y022022D01*
X004461Y022022D02*
X000490Y022022D01*
X000490Y021864D02*
X005669Y021864D01*
X005669Y021705D02*
X000490Y021705D01*
X000490Y021547D02*
X005669Y021547D01*
X005669Y021388D02*
X000490Y021388D01*
X000490Y021230D02*
X005669Y021230D01*
X005669Y021071D02*
X000490Y021071D01*
X000490Y020913D02*
X005669Y020913D01*
X005669Y020754D02*
X000490Y020754D01*
X000490Y020596D02*
X005669Y020596D01*
X005669Y020437D02*
X000490Y020437D01*
X000490Y020279D02*
X005669Y020279D01*
X005669Y020120D02*
X000490Y020120D01*
X000490Y019962D02*
X005669Y019962D01*
X005669Y019803D02*
X000490Y019803D01*
X000490Y019645D02*
X005669Y019645D01*
X005669Y019486D02*
X000490Y019486D01*
X000490Y019328D02*
X001570Y019328D01*
X001475Y019289D02*
X001258Y019072D01*
X001141Y018788D01*
X001141Y018481D01*
X001258Y018198D01*
X001475Y017981D01*
X001759Y017863D01*
X002066Y017863D01*
X002349Y017981D01*
X002566Y018198D01*
X002684Y018481D01*
X002684Y018788D01*
X002566Y019072D01*
X002349Y019289D01*
X002066Y019406D01*
X001759Y019406D01*
X001475Y019289D01*
X001356Y019169D02*
X000490Y019169D01*
X000490Y019011D02*
X001233Y019011D01*
X001168Y018852D02*
X000490Y018852D01*
X000490Y018694D02*
X001141Y018694D01*
X001141Y018535D02*
X000490Y018535D01*
X000490Y018377D02*
X001184Y018377D01*
X001250Y018218D02*
X000490Y018218D01*
X000490Y018060D02*
X001396Y018060D01*
X001667Y017901D02*
X000490Y017901D01*
X000490Y017743D02*
X005669Y017743D01*
X005669Y017901D02*
X002158Y017901D01*
X002428Y018060D02*
X005669Y018060D01*
X005669Y018218D02*
X002575Y018218D01*
X002640Y018377D02*
X005669Y018377D01*
X005669Y018535D02*
X002684Y018535D01*
X002684Y018694D02*
X005669Y018694D01*
X005669Y018852D02*
X002657Y018852D01*
X002591Y019011D02*
X005669Y019011D01*
X005669Y019169D02*
X002468Y019169D01*
X002254Y019328D02*
X005669Y019328D01*
X006109Y019328D02*
X006456Y019328D01*
X006456Y019486D02*
X006109Y019486D01*
X006109Y019645D02*
X006456Y019645D01*
X006456Y019803D02*
X006109Y019803D01*
X006109Y019962D02*
X006456Y019962D01*
X006456Y020120D02*
X006109Y020120D01*
X006109Y020279D02*
X006456Y020279D01*
X006456Y020437D02*
X006109Y020437D01*
X006109Y020596D02*
X006456Y020596D01*
X006456Y020754D02*
X006109Y020754D01*
X006109Y020913D02*
X006456Y020913D01*
X006456Y021071D02*
X006109Y021071D01*
X006109Y021230D02*
X006456Y021230D01*
X006456Y021388D02*
X006109Y021388D01*
X006109Y021547D02*
X006456Y021547D01*
X006456Y021705D02*
X006109Y021705D01*
X006109Y021864D02*
X006456Y021864D01*
X006456Y022022D02*
X006109Y022022D01*
X006109Y022181D02*
X006456Y022181D01*
X006456Y022339D02*
X006109Y022339D01*
X006109Y022498D02*
X006456Y022498D01*
X006456Y022656D02*
X006109Y022656D01*
X006109Y022815D02*
X006456Y022815D01*
X006456Y022973D02*
X006109Y022973D01*
X006109Y023132D02*
X006456Y023132D01*
X006456Y023290D02*
X006109Y023290D01*
X006109Y023449D02*
X006456Y023449D01*
X006456Y023607D02*
X006109Y023607D01*
X006109Y023766D02*
X006456Y023766D01*
X006456Y023924D02*
X006109Y023924D01*
X006109Y024083D02*
X006456Y024083D01*
X006456Y024241D02*
X006109Y024241D01*
X006109Y024400D02*
X006456Y024400D01*
X006456Y024558D02*
X006109Y024558D01*
X006109Y024717D02*
X006456Y024717D01*
X006456Y024875D02*
X006109Y024875D01*
X006109Y025034D02*
X006456Y025034D01*
X006456Y025192D02*
X006109Y025192D01*
X006109Y025351D02*
X006456Y025351D01*
X006456Y025509D02*
X006109Y025509D01*
X006109Y025668D02*
X006456Y025668D01*
X006456Y025826D02*
X006109Y025826D01*
X006109Y025985D02*
X006456Y025985D01*
X006456Y026143D02*
X006109Y026143D01*
X006109Y026302D02*
X006456Y026302D01*
X006456Y026460D02*
X006109Y026460D01*
X006109Y026619D02*
X006456Y026619D01*
X006456Y026777D02*
X006109Y026777D01*
X006109Y026936D02*
X006456Y026936D01*
X006456Y027094D02*
X006109Y027094D01*
X006109Y027253D02*
X006456Y027253D01*
X006456Y027411D02*
X006109Y027411D01*
X006109Y027570D02*
X006456Y027570D01*
X006456Y027728D02*
X006109Y027728D01*
X006109Y027887D02*
X006456Y027887D01*
X006456Y028045D02*
X006109Y028045D01*
X006109Y028204D02*
X006456Y028204D01*
X006456Y028362D02*
X006109Y028362D01*
X006109Y028521D02*
X006456Y028521D01*
X006456Y028679D02*
X006109Y028679D01*
X006109Y028838D02*
X006456Y028838D01*
X006456Y028996D02*
X006109Y028996D01*
X006109Y029155D02*
X006456Y029155D01*
X006456Y029313D02*
X006109Y029313D01*
X006109Y029472D02*
X006456Y029472D01*
X006456Y029630D02*
X006109Y029630D01*
X006109Y029789D02*
X006456Y029789D01*
X006456Y029947D02*
X006109Y029947D01*
X006109Y030106D02*
X006456Y030106D01*
X006456Y030264D02*
X006109Y030264D01*
X006109Y030423D02*
X006456Y030423D01*
X006456Y030581D02*
X006109Y030581D01*
X006109Y030740D02*
X006456Y030740D01*
X006456Y030899D02*
X006109Y030899D01*
X006109Y031057D02*
X006456Y031057D01*
X006456Y031216D02*
X006109Y031216D01*
X006109Y031374D02*
X006456Y031374D01*
X006456Y031533D02*
X006109Y031533D01*
X006136Y031691D02*
X006498Y031691D01*
X006656Y031850D02*
X006294Y031850D01*
X006453Y032008D02*
X006815Y032008D01*
X006973Y032167D02*
X006527Y032167D01*
X006527Y032325D02*
X007096Y032325D01*
X007096Y032484D02*
X006527Y032484D01*
X006527Y032642D02*
X007096Y032642D01*
X007096Y032801D02*
X006527Y032801D01*
X006527Y032959D02*
X007096Y032959D01*
X007536Y032959D02*
X008129Y032959D01*
X008129Y032801D02*
X007536Y032801D01*
X007536Y032642D02*
X008129Y032642D01*
X008129Y032484D02*
X007536Y032484D01*
X007536Y032325D02*
X008129Y032325D01*
X008007Y032167D02*
X007536Y032167D01*
X007437Y032008D02*
X007848Y032008D01*
X007690Y031850D02*
X007279Y031850D01*
X007407Y031978D02*
X007407Y031978D01*
X007637Y031691D02*
X007120Y031691D01*
X006962Y031533D02*
X007637Y031533D01*
X007637Y031374D02*
X006896Y031374D01*
X006896Y031216D02*
X007637Y031216D01*
X007637Y031057D02*
X006896Y031057D01*
X006896Y030899D02*
X007637Y030899D01*
X007637Y030740D02*
X006896Y030740D01*
X006896Y030581D02*
X007637Y030581D01*
X007637Y030423D02*
X006896Y030423D01*
X006896Y030264D02*
X007637Y030264D01*
X007637Y030106D02*
X006896Y030106D01*
X006896Y029947D02*
X007637Y029947D01*
X007637Y029789D02*
X006896Y029789D01*
X006896Y029630D02*
X007637Y029630D01*
X007637Y029472D02*
X006896Y029472D01*
X006896Y029313D02*
X007637Y029313D01*
X007637Y029155D02*
X006896Y029155D01*
X006896Y028996D02*
X007637Y028996D01*
X007637Y028838D02*
X006896Y028838D01*
X006896Y028679D02*
X007637Y028679D01*
X007637Y028521D02*
X006896Y028521D01*
X006896Y028362D02*
X007637Y028362D01*
X007637Y028204D02*
X006896Y028204D01*
X006896Y028045D02*
X007637Y028045D01*
X007637Y027887D02*
X006896Y027887D01*
X006896Y027728D02*
X007637Y027728D01*
X007637Y027570D02*
X006896Y027570D01*
X006896Y027411D02*
X007637Y027411D01*
X007637Y027253D02*
X006896Y027253D01*
X006896Y027094D02*
X007637Y027094D01*
X007637Y026936D02*
X006896Y026936D01*
X006896Y026777D02*
X007637Y026777D01*
X007637Y026619D02*
X006896Y026619D01*
X006896Y026460D02*
X007637Y026460D01*
X007637Y026302D02*
X006896Y026302D01*
X006896Y026143D02*
X007637Y026143D01*
X007637Y025985D02*
X006896Y025985D01*
X006896Y025826D02*
X007637Y025826D01*
X007637Y025668D02*
X006896Y025668D01*
X006896Y025509D02*
X007637Y025509D01*
X007637Y025351D02*
X006896Y025351D01*
X006896Y025192D02*
X007637Y025192D01*
X007637Y025034D02*
X006896Y025034D01*
X006896Y024875D02*
X007637Y024875D01*
X007637Y024717D02*
X006896Y024717D01*
X006896Y024558D02*
X007637Y024558D01*
X007637Y024400D02*
X006896Y024400D01*
X006896Y024241D02*
X007637Y024241D01*
X007637Y024083D02*
X006896Y024083D01*
X006896Y023924D02*
X007637Y023924D01*
X007637Y023766D02*
X006896Y023766D01*
X006896Y023607D02*
X007637Y023607D01*
X007637Y023449D02*
X006896Y023449D01*
X006896Y023290D02*
X007637Y023290D01*
X007637Y023132D02*
X006896Y023132D01*
X006896Y022973D02*
X007637Y022973D01*
X007637Y022815D02*
X006896Y022815D01*
X006896Y022656D02*
X007637Y022656D01*
X007637Y022498D02*
X006896Y022498D01*
X006896Y022339D02*
X007637Y022339D01*
X007637Y022181D02*
X006896Y022181D01*
X006896Y022022D02*
X007637Y022022D01*
X007637Y021864D02*
X006896Y021864D01*
X006896Y021705D02*
X007637Y021705D01*
X007637Y021547D02*
X006896Y021547D01*
X006896Y021388D02*
X007637Y021388D01*
X007637Y021230D02*
X006896Y021230D01*
X006896Y021071D02*
X007637Y021071D01*
X007637Y020913D02*
X006896Y020913D01*
X006896Y020754D02*
X007637Y020754D01*
X007637Y020596D02*
X006896Y020596D01*
X006896Y020437D02*
X007637Y020437D01*
X007637Y020279D02*
X006896Y020279D01*
X006896Y020120D02*
X007637Y020120D01*
X007637Y019962D02*
X006896Y019962D01*
X006896Y019803D02*
X007637Y019803D01*
X007637Y019645D02*
X006896Y019645D01*
X006896Y019486D02*
X007637Y019486D01*
X007637Y019328D02*
X006896Y019328D01*
X006896Y019169D02*
X007637Y019169D01*
X007637Y019011D02*
X006896Y019011D01*
X006896Y018852D02*
X007637Y018852D01*
X007637Y018694D02*
X006896Y018694D01*
X006896Y018535D02*
X007637Y018535D01*
X007637Y018377D02*
X006896Y018377D01*
X006896Y018218D02*
X007637Y018218D01*
X007637Y018060D02*
X006896Y018060D01*
X006896Y017901D02*
X007637Y017901D01*
X007637Y017743D02*
X006896Y017743D01*
X006896Y017584D02*
X007637Y017584D01*
X007637Y017426D02*
X006896Y017426D01*
X006896Y017267D02*
X007637Y017267D01*
X007674Y017109D02*
X006896Y017109D01*
X006896Y016950D02*
X007833Y016950D01*
X007991Y016792D02*
X006896Y016792D01*
X006896Y016633D02*
X008150Y016633D01*
X008308Y016475D02*
X006896Y016475D01*
X006854Y016316D02*
X008467Y016316D01*
X008625Y016158D02*
X006695Y016158D01*
X006537Y015999D02*
X008784Y015999D01*
X008942Y015841D02*
X006378Y015841D01*
X006220Y015682D02*
X009015Y015682D01*
X009015Y015524D02*
X006061Y015524D01*
X005903Y015365D02*
X009015Y015365D01*
X009015Y015207D02*
X005744Y015207D01*
X005586Y015048D02*
X009015Y015048D01*
X009015Y014890D02*
X005427Y014890D01*
X005269Y014731D02*
X009015Y014731D01*
X009015Y014573D02*
X005110Y014573D01*
X004952Y014414D02*
X009015Y014414D01*
X009015Y014256D02*
X006396Y014256D01*
X006766Y014214D02*
X006766Y014214D01*
X007100Y014097D02*
X009015Y014097D01*
X009015Y013939D02*
X007490Y013939D01*
X007412Y013988D02*
X007412Y013988D01*
X007743Y013780D02*
X009015Y013780D01*
X009015Y013622D02*
X007994Y013622D01*
X007992Y013624D02*
X007992Y013624D01*
X008152Y013463D02*
X009015Y013463D01*
X009015Y013305D02*
X008311Y013305D01*
X008469Y013146D02*
X009015Y013146D01*
X009015Y012988D02*
X008571Y012988D01*
X008476Y013140D02*
X008476Y013140D01*
X008671Y012829D02*
X009015Y012829D01*
X009015Y012671D02*
X008771Y012671D01*
X008857Y012512D02*
X009015Y012512D01*
X009015Y012354D02*
X008912Y012354D01*
X008968Y012195D02*
X009015Y012195D01*
X009455Y012195D02*
X009468Y012195D01*
X009455Y012037D02*
X009468Y012037D01*
X009455Y011878D02*
X009468Y011878D01*
X009455Y011720D02*
X009468Y011720D01*
X009455Y011561D02*
X009468Y011561D01*
X009455Y011403D02*
X009468Y011403D01*
X009455Y011244D02*
X009468Y011244D01*
X009455Y011086D02*
X009468Y011086D01*
X009455Y010927D02*
X009468Y010927D01*
X009455Y010769D02*
X009468Y010769D01*
X009455Y010610D02*
X009468Y010610D01*
X009455Y010452D02*
X009468Y010452D01*
X009455Y010293D02*
X009468Y010293D01*
X009455Y010135D02*
X009468Y010135D01*
X009455Y009976D02*
X009468Y009976D01*
X009455Y009818D02*
X009468Y009818D01*
X009455Y009659D02*
X009468Y009659D01*
X009455Y009501D02*
X009468Y009501D01*
X009455Y009342D02*
X009468Y009342D01*
X009455Y009184D02*
X009468Y009184D01*
X009455Y009025D02*
X009468Y009025D01*
X009455Y008867D02*
X009468Y008867D01*
X009455Y008708D02*
X009468Y008708D01*
X009455Y008550D02*
X009468Y008550D01*
X009468Y008391D02*
X009362Y008391D01*
X009468Y008233D02*
X009204Y008233D01*
X009045Y008074D02*
X009468Y008074D01*
X009468Y008007D02*
X009394Y008007D01*
X009312Y007925D01*
X009312Y007337D01*
X009394Y007255D01*
X009982Y007255D01*
X010064Y007337D01*
X010064Y007925D01*
X009982Y008007D01*
X009908Y008007D01*
X009908Y016580D01*
X008865Y017623D01*
X008865Y028731D01*
X008905Y028731D01*
X009021Y028779D01*
X009110Y028868D01*
X009159Y028985D01*
X009159Y029111D01*
X009110Y029228D01*
X009021Y029317D01*
X008905Y029365D01*
X008778Y029365D01*
X008662Y029317D01*
X008573Y029228D01*
X008524Y029111D01*
X008524Y029042D01*
X008425Y028942D01*
X008425Y017441D01*
X008553Y017312D01*
X009468Y016398D01*
X009468Y008007D01*
X009312Y007916D02*
X008973Y007916D01*
X008973Y007757D02*
X009312Y007757D01*
X009312Y007599D02*
X008973Y007599D01*
X008973Y007440D02*
X009312Y007440D01*
X009366Y007282D02*
X008973Y007282D01*
X008973Y007123D02*
X009292Y007123D01*
X009272Y006965D02*
X008973Y006965D01*
X008533Y006965D02*
X003086Y006965D01*
X002928Y007123D02*
X008533Y007123D01*
X008533Y007282D02*
X002769Y007282D01*
X002762Y007440D02*
X008533Y007440D01*
X008533Y007599D02*
X002762Y007599D01*
X002762Y007757D02*
X008533Y007757D01*
X008533Y007916D02*
X002762Y007916D01*
X002762Y008074D02*
X008533Y008074D01*
X008581Y008233D02*
X006596Y008233D01*
X006766Y008252D02*
X006766Y008252D01*
X007164Y008391D02*
X008740Y008391D01*
X008898Y008550D02*
X007526Y008550D01*
X007779Y008708D02*
X009015Y008708D01*
X009015Y008867D02*
X008016Y008867D01*
X007992Y008843D02*
X007992Y008843D01*
X008175Y009025D02*
X009015Y009025D01*
X009015Y009184D02*
X008333Y009184D01*
X008476Y009327D02*
X008476Y009327D01*
X008486Y009342D02*
X009015Y009342D01*
X009015Y009501D02*
X008586Y009501D01*
X008685Y009659D02*
X009015Y009659D01*
X009015Y009818D02*
X008785Y009818D01*
X008865Y009976D02*
X009015Y009976D01*
X009015Y010135D02*
X008920Y010135D01*
X008976Y010293D02*
X009015Y010293D01*
X009908Y010293D02*
X010285Y010293D01*
X010285Y010135D02*
X009908Y010135D01*
X009908Y009976D02*
X010285Y009976D01*
X010285Y009818D02*
X009908Y009818D01*
X009908Y009659D02*
X010285Y009659D01*
X010285Y009501D02*
X009908Y009501D01*
X009908Y009342D02*
X010285Y009342D01*
X010285Y009184D02*
X009908Y009184D01*
X009908Y009025D02*
X010285Y009025D01*
X010285Y008867D02*
X009908Y008867D01*
X009908Y008708D02*
X010285Y008708D01*
X010285Y008550D02*
X009908Y008550D01*
X009908Y008391D02*
X010285Y008391D01*
X010285Y008233D02*
X009908Y008233D01*
X009908Y008074D02*
X010285Y008074D01*
X010285Y007987D02*
X010211Y007987D01*
X010129Y007905D01*
X010129Y007317D01*
X010211Y007235D01*
X010799Y007235D01*
X010881Y007317D01*
X010881Y007905D01*
X010799Y007987D01*
X010725Y007987D01*
X010725Y017141D01*
X009849Y018017D01*
X009849Y028633D01*
X009889Y028633D01*
X010005Y028681D01*
X010095Y028770D01*
X010143Y028887D01*
X010143Y029013D01*
X010095Y029129D01*
X010005Y029219D01*
X009889Y029267D01*
X009763Y029267D01*
X009646Y029219D01*
X009557Y029129D01*
X009509Y029013D01*
X009509Y028944D01*
X009409Y028844D01*
X009409Y017835D01*
X009538Y017706D01*
X010285Y016959D01*
X010285Y007987D01*
X010139Y007916D02*
X010064Y007916D01*
X010064Y007757D02*
X010129Y007757D01*
X010129Y007599D02*
X010064Y007599D01*
X010064Y007440D02*
X010129Y007440D01*
X010164Y007282D02*
X010009Y007282D01*
X010084Y007123D02*
X010120Y007123D01*
X010467Y007123D02*
X010543Y007123D01*
X010543Y006965D02*
X010467Y006965D01*
X010467Y006648D02*
X010543Y006648D01*
X010543Y006489D02*
X010467Y006489D01*
X010098Y006489D02*
X010087Y006489D01*
X009726Y006489D02*
X009650Y006489D01*
X009650Y006648D02*
X009726Y006648D01*
X009726Y006965D02*
X009650Y006965D01*
X009650Y007123D02*
X009726Y007123D01*
X009688Y007631D02*
X009688Y016489D01*
X008645Y017532D01*
X008645Y028851D01*
X008841Y029048D01*
X008542Y029155D02*
X008077Y029155D01*
X008077Y029313D02*
X008658Y029313D01*
X008479Y028996D02*
X008077Y028996D01*
X008077Y028838D02*
X008425Y028838D01*
X008425Y028679D02*
X008077Y028679D01*
X008077Y028521D02*
X008425Y028521D01*
X008425Y028362D02*
X008077Y028362D01*
X008077Y028204D02*
X008425Y028204D01*
X008425Y028045D02*
X008077Y028045D01*
X008077Y027887D02*
X008425Y027887D01*
X008425Y027728D02*
X008077Y027728D01*
X008077Y027570D02*
X008425Y027570D01*
X008425Y027411D02*
X008077Y027411D01*
X008077Y027253D02*
X008425Y027253D01*
X008425Y027094D02*
X008077Y027094D01*
X008077Y026936D02*
X008425Y026936D01*
X008425Y026777D02*
X008077Y026777D01*
X008077Y026619D02*
X008425Y026619D01*
X008425Y026460D02*
X008077Y026460D01*
X008077Y026302D02*
X008425Y026302D01*
X008425Y026143D02*
X008077Y026143D01*
X008077Y025985D02*
X008425Y025985D01*
X008425Y025826D02*
X008077Y025826D01*
X008077Y025668D02*
X008425Y025668D01*
X008425Y025509D02*
X008077Y025509D01*
X008077Y025351D02*
X008425Y025351D01*
X008425Y025192D02*
X008077Y025192D01*
X008077Y025034D02*
X008425Y025034D01*
X008425Y024875D02*
X008077Y024875D01*
X008077Y024717D02*
X008425Y024717D01*
X008425Y024558D02*
X008077Y024558D01*
X008077Y024400D02*
X008425Y024400D01*
X008425Y024241D02*
X008077Y024241D01*
X008077Y024083D02*
X008425Y024083D01*
X008425Y023924D02*
X008077Y023924D01*
X008077Y023766D02*
X008425Y023766D01*
X008425Y023607D02*
X008077Y023607D01*
X008077Y023449D02*
X008425Y023449D01*
X008425Y023290D02*
X008077Y023290D01*
X008077Y023132D02*
X008425Y023132D01*
X008425Y022973D02*
X008077Y022973D01*
X008077Y022815D02*
X008425Y022815D01*
X008425Y022656D02*
X008077Y022656D01*
X008077Y022498D02*
X008425Y022498D01*
X008425Y022339D02*
X008077Y022339D01*
X008077Y022181D02*
X008425Y022181D01*
X008425Y022022D02*
X008077Y022022D01*
X008077Y021864D02*
X008425Y021864D01*
X008425Y021705D02*
X008077Y021705D01*
X008077Y021547D02*
X008425Y021547D01*
X008425Y021388D02*
X008077Y021388D01*
X008077Y021230D02*
X008425Y021230D01*
X008425Y021071D02*
X008077Y021071D01*
X008077Y020913D02*
X008425Y020913D01*
X008425Y020754D02*
X008077Y020754D01*
X008077Y020596D02*
X008425Y020596D01*
X008425Y020437D02*
X008077Y020437D01*
X008077Y020279D02*
X008425Y020279D01*
X008425Y020120D02*
X008077Y020120D01*
X008077Y019962D02*
X008425Y019962D01*
X008425Y019803D02*
X008077Y019803D01*
X008077Y019645D02*
X008425Y019645D01*
X008425Y019486D02*
X008077Y019486D01*
X008077Y019328D02*
X008425Y019328D01*
X008425Y019169D02*
X008077Y019169D01*
X008077Y019011D02*
X008425Y019011D01*
X008425Y018852D02*
X008077Y018852D01*
X008077Y018694D02*
X008425Y018694D01*
X008425Y018535D02*
X008077Y018535D01*
X008077Y018377D02*
X008425Y018377D01*
X008425Y018218D02*
X008077Y018218D01*
X008077Y018060D02*
X008425Y018060D01*
X008425Y017901D02*
X008077Y017901D01*
X008077Y017743D02*
X008425Y017743D01*
X008425Y017584D02*
X008077Y017584D01*
X008077Y017426D02*
X008440Y017426D01*
X008598Y017267D02*
X008138Y017267D01*
X008296Y017109D02*
X008757Y017109D01*
X008915Y016950D02*
X008455Y016950D01*
X008613Y016792D02*
X009074Y016792D01*
X009232Y016633D02*
X008772Y016633D01*
X008930Y016475D02*
X009391Y016475D01*
X009468Y016316D02*
X009089Y016316D01*
X009247Y016158D02*
X009468Y016158D01*
X009468Y015999D02*
X009406Y015999D01*
X009455Y015841D02*
X009468Y015841D01*
X009455Y015682D02*
X009468Y015682D01*
X009455Y015524D02*
X009468Y015524D01*
X009455Y015365D02*
X009468Y015365D01*
X009455Y015207D02*
X009468Y015207D01*
X009455Y015048D02*
X009468Y015048D01*
X009455Y014890D02*
X009468Y014890D01*
X009455Y014731D02*
X009468Y014731D01*
X009455Y014573D02*
X009468Y014573D01*
X009455Y014414D02*
X009468Y014414D01*
X009455Y014256D02*
X009468Y014256D01*
X009455Y014097D02*
X009468Y014097D01*
X009455Y013939D02*
X009468Y013939D01*
X009455Y013780D02*
X009468Y013780D01*
X009455Y013622D02*
X009468Y013622D01*
X009455Y013463D02*
X009468Y013463D01*
X009455Y013305D02*
X009468Y013305D01*
X009455Y013146D02*
X009468Y013146D01*
X009455Y012988D02*
X009468Y012988D01*
X009455Y012829D02*
X009468Y012829D01*
X009455Y012671D02*
X009468Y012671D01*
X009455Y012512D02*
X009468Y012512D01*
X009455Y012354D02*
X009468Y012354D01*
X009908Y012354D02*
X010285Y012354D01*
X010285Y012512D02*
X009908Y012512D01*
X009908Y012671D02*
X010285Y012671D01*
X010285Y012829D02*
X009908Y012829D01*
X009908Y012988D02*
X010285Y012988D01*
X010285Y013146D02*
X009908Y013146D01*
X009908Y013305D02*
X010285Y013305D01*
X010285Y013463D02*
X009908Y013463D01*
X009908Y013622D02*
X010285Y013622D01*
X010285Y013780D02*
X009908Y013780D01*
X009908Y013939D02*
X010285Y013939D01*
X010285Y014097D02*
X009908Y014097D01*
X009908Y014256D02*
X010285Y014256D01*
X010285Y014414D02*
X009908Y014414D01*
X009908Y014573D02*
X010285Y014573D01*
X010285Y014731D02*
X009908Y014731D01*
X009908Y014890D02*
X010285Y014890D01*
X010285Y015048D02*
X009908Y015048D01*
X009908Y015207D02*
X010285Y015207D01*
X010285Y015365D02*
X009908Y015365D01*
X009908Y015524D02*
X010285Y015524D01*
X010285Y015682D02*
X009908Y015682D01*
X009908Y015841D02*
X010285Y015841D01*
X010285Y015999D02*
X009908Y015999D01*
X009908Y016158D02*
X010285Y016158D01*
X010285Y016316D02*
X009908Y016316D01*
X009908Y016475D02*
X010285Y016475D01*
X010285Y016633D02*
X009855Y016633D01*
X009696Y016792D02*
X010285Y016792D01*
X010285Y016950D02*
X009538Y016950D01*
X009379Y017109D02*
X010135Y017109D01*
X009976Y017267D02*
X009221Y017267D01*
X009062Y017426D02*
X009818Y017426D01*
X009659Y017584D02*
X008904Y017584D01*
X008865Y017743D02*
X009501Y017743D01*
X009409Y017901D02*
X008865Y017901D01*
X008865Y018060D02*
X009409Y018060D01*
X009409Y018218D02*
X008865Y018218D01*
X008865Y018377D02*
X009409Y018377D01*
X009409Y018535D02*
X008865Y018535D01*
X008865Y018694D02*
X009409Y018694D01*
X009409Y018852D02*
X008865Y018852D01*
X008865Y019011D02*
X009409Y019011D01*
X009409Y019169D02*
X008865Y019169D01*
X008865Y019328D02*
X009409Y019328D01*
X009409Y019486D02*
X008865Y019486D01*
X008865Y019645D02*
X009409Y019645D01*
X009409Y019803D02*
X008865Y019803D01*
X008865Y019962D02*
X009409Y019962D01*
X009409Y020120D02*
X008865Y020120D01*
X008865Y020279D02*
X009409Y020279D01*
X009409Y020437D02*
X008865Y020437D01*
X008865Y020596D02*
X009409Y020596D01*
X009409Y020754D02*
X008865Y020754D01*
X008865Y020913D02*
X009409Y020913D01*
X009409Y021071D02*
X008865Y021071D01*
X008865Y021230D02*
X009409Y021230D01*
X009409Y021388D02*
X008865Y021388D01*
X008865Y021547D02*
X009409Y021547D01*
X009409Y021705D02*
X008865Y021705D01*
X008865Y021864D02*
X009409Y021864D01*
X009409Y022022D02*
X008865Y022022D01*
X008865Y022181D02*
X009409Y022181D01*
X009409Y022339D02*
X008865Y022339D01*
X008865Y022498D02*
X009409Y022498D01*
X009409Y022656D02*
X008865Y022656D01*
X008865Y022815D02*
X009409Y022815D01*
X009409Y022973D02*
X008865Y022973D01*
X008865Y023132D02*
X009409Y023132D01*
X009409Y023290D02*
X008865Y023290D01*
X008865Y023449D02*
X009409Y023449D01*
X009409Y023607D02*
X008865Y023607D01*
X008865Y023766D02*
X009409Y023766D01*
X009409Y023924D02*
X008865Y023924D01*
X008865Y024083D02*
X009409Y024083D01*
X009409Y024241D02*
X008865Y024241D01*
X008865Y024400D02*
X009409Y024400D01*
X009409Y024558D02*
X008865Y024558D01*
X008865Y024717D02*
X009409Y024717D01*
X009409Y024875D02*
X008865Y024875D01*
X008865Y025034D02*
X009409Y025034D01*
X009409Y025192D02*
X008865Y025192D01*
X008865Y025351D02*
X009409Y025351D01*
X009409Y025509D02*
X008865Y025509D01*
X008865Y025668D02*
X009409Y025668D01*
X009409Y025826D02*
X008865Y025826D01*
X008865Y025985D02*
X009409Y025985D01*
X009409Y026143D02*
X008865Y026143D01*
X008865Y026302D02*
X009409Y026302D01*
X009409Y026460D02*
X008865Y026460D01*
X008865Y026619D02*
X009409Y026619D01*
X009409Y026777D02*
X008865Y026777D01*
X008865Y026936D02*
X009409Y026936D01*
X009409Y027094D02*
X008865Y027094D01*
X008865Y027253D02*
X009409Y027253D01*
X009409Y027411D02*
X008865Y027411D01*
X008865Y027570D02*
X009409Y027570D01*
X009409Y027728D02*
X008865Y027728D01*
X008865Y027887D02*
X009409Y027887D01*
X009409Y028045D02*
X008865Y028045D01*
X008865Y028204D02*
X009409Y028204D01*
X009409Y028362D02*
X008865Y028362D01*
X008865Y028521D02*
X009409Y028521D01*
X009409Y028679D02*
X008865Y028679D01*
X009080Y028838D02*
X009409Y028838D01*
X009509Y028996D02*
X009159Y028996D01*
X009140Y029155D02*
X009582Y029155D01*
X009826Y028950D02*
X009629Y028753D01*
X009629Y017926D01*
X010505Y017050D01*
X010505Y007611D01*
X010881Y007599D02*
X010886Y007599D01*
X010881Y007757D02*
X010886Y007757D01*
X010870Y007916D02*
X010897Y007916D01*
X011043Y008074D02*
X010725Y008074D01*
X010725Y008233D02*
X011043Y008233D01*
X011043Y008391D02*
X010725Y008391D01*
X010725Y008550D02*
X011043Y008550D01*
X011043Y008708D02*
X010725Y008708D01*
X010725Y008867D02*
X011043Y008867D01*
X011043Y009025D02*
X010725Y009025D01*
X010725Y009184D02*
X011043Y009184D01*
X011043Y009342D02*
X010725Y009342D01*
X010725Y009501D02*
X011043Y009501D01*
X011043Y009659D02*
X010725Y009659D01*
X010725Y009818D02*
X011043Y009818D01*
X011043Y009976D02*
X010725Y009976D01*
X010725Y010135D02*
X011043Y010135D01*
X011043Y010293D02*
X010725Y010293D01*
X010725Y010452D02*
X011043Y010452D01*
X011043Y010610D02*
X010725Y010610D01*
X010725Y010769D02*
X011043Y010769D01*
X011043Y010927D02*
X010725Y010927D01*
X010725Y011086D02*
X011043Y011086D01*
X011043Y011244D02*
X010725Y011244D01*
X010725Y011403D02*
X011043Y011403D01*
X011043Y011561D02*
X010725Y011561D01*
X010725Y011720D02*
X011043Y011720D01*
X011043Y011878D02*
X010725Y011878D01*
X010725Y012037D02*
X011043Y012037D01*
X011043Y012195D02*
X010725Y012195D01*
X010725Y012354D02*
X011043Y012354D01*
X011043Y012512D02*
X010725Y012512D01*
X010725Y012671D02*
X011043Y012671D01*
X011043Y012829D02*
X010725Y012829D01*
X010725Y012988D02*
X011043Y012988D01*
X011043Y013146D02*
X010725Y013146D01*
X010725Y013305D02*
X011043Y013305D01*
X011043Y013463D02*
X010725Y013463D01*
X010725Y013622D02*
X011043Y013622D01*
X011043Y013780D02*
X010725Y013780D01*
X010725Y013939D02*
X011043Y013939D01*
X011043Y014097D02*
X010725Y014097D01*
X010725Y014256D02*
X011043Y014256D01*
X011043Y014414D02*
X010725Y014414D01*
X010725Y014573D02*
X011043Y014573D01*
X011043Y014731D02*
X010725Y014731D01*
X010725Y014890D02*
X011043Y014890D01*
X011043Y015048D02*
X010725Y015048D01*
X010725Y015207D02*
X011043Y015207D01*
X011043Y015365D02*
X010725Y015365D01*
X010725Y015524D02*
X011043Y015524D01*
X011043Y015682D02*
X010725Y015682D01*
X010725Y015841D02*
X011043Y015841D01*
X011043Y015999D02*
X010725Y015999D01*
X010725Y016158D02*
X011043Y016158D01*
X011043Y016316D02*
X010725Y016316D01*
X010725Y016475D02*
X011043Y016475D01*
X011043Y016633D02*
X010725Y016633D01*
X010725Y016792D02*
X011043Y016792D01*
X011043Y016950D02*
X010725Y016950D01*
X010725Y017109D02*
X011043Y017109D01*
X011043Y017267D02*
X010599Y017267D01*
X010440Y017426D02*
X011043Y017426D01*
X010939Y017584D02*
X010282Y017584D01*
X010123Y017743D02*
X010780Y017743D01*
X010622Y017901D02*
X009965Y017901D01*
X009849Y018060D02*
X010590Y018060D01*
X010590Y018218D02*
X009849Y018218D01*
X009849Y018377D02*
X010590Y018377D01*
X010590Y018535D02*
X009849Y018535D01*
X009849Y018694D02*
X010590Y018694D01*
X010590Y018852D02*
X009849Y018852D01*
X009849Y019011D02*
X010590Y019011D01*
X010590Y019169D02*
X009849Y019169D01*
X009849Y019328D02*
X010590Y019328D01*
X010590Y019486D02*
X009849Y019486D01*
X009849Y019645D02*
X010590Y019645D01*
X010590Y019803D02*
X009849Y019803D01*
X009849Y019962D02*
X010590Y019962D01*
X010590Y020120D02*
X009849Y020120D01*
X009849Y020279D02*
X010590Y020279D01*
X010590Y020437D02*
X009849Y020437D01*
X009849Y020596D02*
X010590Y020596D01*
X010590Y020754D02*
X009849Y020754D01*
X009849Y020913D02*
X010590Y020913D01*
X010590Y021071D02*
X009849Y021071D01*
X009849Y021230D02*
X010590Y021230D01*
X010590Y021388D02*
X009849Y021388D01*
X009849Y021547D02*
X010590Y021547D01*
X010590Y021705D02*
X009849Y021705D01*
X009849Y021864D02*
X010590Y021864D01*
X010590Y022022D02*
X009849Y022022D01*
X009849Y022181D02*
X010590Y022181D01*
X010590Y022339D02*
X009849Y022339D01*
X009849Y022498D02*
X010590Y022498D01*
X010590Y022656D02*
X009849Y022656D01*
X009849Y022815D02*
X010590Y022815D01*
X010590Y022973D02*
X009849Y022973D01*
X009849Y023132D02*
X010590Y023132D01*
X010590Y023290D02*
X009849Y023290D01*
X009849Y023449D02*
X010590Y023449D01*
X010590Y023607D02*
X009849Y023607D01*
X009849Y023766D02*
X010590Y023766D01*
X010590Y023924D02*
X009849Y023924D01*
X009849Y024083D02*
X010590Y024083D01*
X010590Y024241D02*
X009849Y024241D01*
X009849Y024400D02*
X010590Y024400D01*
X010590Y024558D02*
X009849Y024558D01*
X009849Y024717D02*
X010590Y024717D01*
X010590Y024875D02*
X009849Y024875D01*
X009849Y025034D02*
X010590Y025034D01*
X010590Y025192D02*
X009849Y025192D01*
X009849Y025351D02*
X010590Y025351D01*
X010590Y025509D02*
X009849Y025509D01*
X009849Y025668D02*
X010590Y025668D01*
X010590Y025826D02*
X009849Y025826D01*
X009849Y025985D02*
X010590Y025985D01*
X010590Y026143D02*
X009849Y026143D01*
X009849Y026302D02*
X010590Y026302D01*
X010590Y026460D02*
X009849Y026460D01*
X009849Y026619D02*
X010590Y026619D01*
X010590Y026777D02*
X009849Y026777D01*
X009849Y026936D02*
X010590Y026936D01*
X010590Y027094D02*
X009849Y027094D01*
X009849Y027253D02*
X010590Y027253D01*
X010590Y027411D02*
X009849Y027411D01*
X009849Y027570D02*
X010590Y027570D01*
X010590Y027728D02*
X009849Y027728D01*
X009849Y027887D02*
X010590Y027887D01*
X010590Y028045D02*
X009849Y028045D01*
X009849Y028204D02*
X010590Y028204D01*
X010590Y028362D02*
X009849Y028362D01*
X009849Y028521D02*
X010590Y028521D01*
X010590Y028679D02*
X010002Y028679D01*
X010123Y028838D02*
X010590Y028838D01*
X010590Y028996D02*
X010143Y028996D01*
X010069Y029155D02*
X010590Y029155D01*
X010590Y029313D02*
X009025Y029313D01*
X008077Y029472D02*
X010536Y029472D01*
X010493Y029630D02*
X008077Y029630D01*
X008077Y029789D02*
X010529Y029789D01*
X010727Y029947D02*
X008077Y029947D01*
X008077Y030106D02*
X019901Y030106D01*
X019901Y030264D02*
X008077Y030264D01*
X008077Y030423D02*
X019901Y030423D01*
X019901Y030581D02*
X008077Y030581D01*
X008077Y030740D02*
X019901Y030740D01*
X019901Y030899D02*
X008077Y030899D01*
X008077Y031057D02*
X020056Y031057D01*
X019901Y030903D02*
X019901Y028434D01*
X020018Y028317D01*
X020333Y028002D01*
X022372Y028002D01*
X022441Y027933D01*
X022558Y027884D01*
X022684Y027884D01*
X022801Y027933D01*
X022890Y028022D01*
X022938Y028139D01*
X022938Y028265D01*
X022890Y028381D01*
X022801Y028471D01*
X022684Y028519D01*
X022558Y028519D01*
X022441Y028471D01*
X022372Y028402D01*
X020499Y028402D01*
X020301Y028599D01*
X020301Y030737D01*
X021916Y032352D01*
X022034Y032469D01*
X022034Y033053D01*
X022106Y033125D01*
X022106Y032599D01*
X022235Y032470D01*
X022628Y032076D01*
X024400Y032076D01*
X025255Y031221D01*
X025255Y024774D01*
X025384Y024645D01*
X025532Y024497D01*
X030512Y024497D01*
X030561Y024449D01*
X030678Y024400D01*
X030804Y024400D01*
X030921Y024449D01*
X031010Y024538D01*
X031058Y024654D01*
X031058Y024780D01*
X031010Y024897D01*
X030921Y024986D01*
X030804Y025035D01*
X030678Y025035D01*
X030561Y024986D01*
X030512Y024937D01*
X025714Y024937D01*
X025695Y024956D01*
X025695Y031403D01*
X024711Y032387D01*
X024582Y032516D01*
X022810Y032516D01*
X022546Y032781D01*
X022546Y033073D01*
X022629Y032989D01*
X022808Y032989D01*
X022808Y033449D01*
X022848Y033449D01*
X022848Y033489D01*
X023308Y033489D01*
X023308Y033668D01*
X023026Y033949D01*
X022848Y033949D01*
X022848Y033489D01*
X022808Y033489D01*
X022808Y033949D01*
X022629Y033949D01*
X022546Y033866D01*
X022546Y034062D01*
X022268Y034340D01*
X022268Y034652D01*
X022010Y034909D01*
X021645Y034909D01*
X021388Y034652D01*
X021388Y034287D01*
X021645Y034029D01*
X021957Y034029D01*
X022106Y033880D01*
X022106Y033814D01*
X022010Y033909D01*
X021645Y033909D01*
X021388Y033652D01*
X021388Y033287D01*
X021634Y033041D01*
X021634Y032635D01*
X019901Y030903D01*
X020304Y030740D02*
X021823Y030740D01*
X021860Y030830D02*
X021783Y030644D01*
X021783Y030444D01*
X021860Y030259D01*
X022002Y030117D01*
X022187Y030040D01*
X023115Y030040D01*
X023300Y030117D01*
X023442Y030259D01*
X023518Y030444D01*
X023518Y030510D01*
X023702Y030434D01*
X024630Y030434D01*
X024815Y030511D01*
X024957Y030653D01*
X025033Y030838D01*
X025033Y031038D01*
X024957Y031223D01*
X024815Y031365D01*
X024630Y031442D01*
X023702Y031442D01*
X023517Y031365D01*
X023375Y031223D01*
X023298Y031038D01*
X023298Y030972D01*
X023115Y031048D01*
X022187Y031048D01*
X022002Y030971D01*
X021860Y030830D01*
X021929Y030899D02*
X020463Y030899D01*
X020621Y031057D02*
X023306Y031057D01*
X023372Y031216D02*
X020780Y031216D01*
X020938Y031374D02*
X023539Y031374D01*
X024468Y032008D02*
X021572Y032008D01*
X021414Y031850D02*
X024627Y031850D01*
X024785Y031691D02*
X021255Y031691D01*
X021097Y031533D02*
X024944Y031533D01*
X024793Y031374D02*
X025102Y031374D01*
X024960Y031216D02*
X025255Y031216D01*
X025255Y031057D02*
X025025Y031057D01*
X025033Y030899D02*
X025255Y030899D01*
X025255Y030740D02*
X024993Y030740D01*
X024886Y030581D02*
X025255Y030581D01*
X025255Y030423D02*
X023510Y030423D01*
X023444Y030264D02*
X025255Y030264D01*
X025255Y030106D02*
X023273Y030106D01*
X022914Y029867D02*
X022729Y029790D01*
X022588Y029648D01*
X022511Y029463D01*
X022511Y029263D01*
X022588Y029078D01*
X022729Y028936D01*
X022914Y028859D01*
X023842Y028859D01*
X024027Y028936D01*
X024169Y029078D01*
X024246Y029263D01*
X024246Y029463D01*
X024169Y029648D01*
X024027Y029790D01*
X023842Y029867D01*
X022914Y029867D01*
X022728Y029789D02*
X022120Y029789D01*
X022119Y029790D02*
X021934Y029867D01*
X021006Y029867D01*
X020821Y029790D01*
X020679Y029648D01*
X020602Y029463D01*
X020602Y029263D01*
X020679Y029078D01*
X020821Y028936D01*
X021006Y028859D01*
X021934Y028859D01*
X022119Y028936D01*
X022261Y029078D01*
X022337Y029263D01*
X022337Y029463D01*
X022261Y029648D01*
X022119Y029790D01*
X022268Y029630D02*
X022580Y029630D01*
X022515Y029472D02*
X022334Y029472D01*
X022337Y029313D02*
X022511Y029313D01*
X022556Y029155D02*
X022293Y029155D01*
X022179Y028996D02*
X022669Y028996D01*
X022898Y028362D02*
X025255Y028362D01*
X025255Y028204D02*
X022938Y028204D01*
X022900Y028045D02*
X025255Y028045D01*
X025255Y027887D02*
X022690Y027887D01*
X022552Y027887D02*
X011719Y027887D01*
X011719Y028045D02*
X020290Y028045D01*
X020131Y028204D02*
X011719Y028204D01*
X011719Y028362D02*
X019973Y028362D01*
X019901Y028521D02*
X011719Y028521D01*
X011719Y028679D02*
X019901Y028679D01*
X019901Y028838D02*
X011878Y028838D01*
X012075Y028996D02*
X019901Y028996D01*
X019901Y029155D02*
X012111Y029155D01*
X012068Y029313D02*
X019901Y029313D01*
X019901Y029472D02*
X011084Y029472D01*
X011127Y029630D02*
X019901Y029630D01*
X019901Y029789D02*
X011091Y029789D01*
X010893Y029947D02*
X019901Y029947D01*
X020301Y029947D02*
X025255Y029947D01*
X025255Y029789D02*
X024029Y029789D01*
X024177Y029630D02*
X025255Y029630D01*
X025255Y029472D02*
X024242Y029472D01*
X024246Y029313D02*
X025255Y029313D01*
X025255Y029155D02*
X024201Y029155D01*
X024088Y028996D02*
X025255Y028996D01*
X025255Y028838D02*
X020301Y028838D01*
X020301Y028996D02*
X020760Y028996D01*
X020647Y029155D02*
X020301Y029155D01*
X020301Y029313D02*
X020602Y029313D01*
X020606Y029472D02*
X020301Y029472D01*
X020301Y029630D02*
X020672Y029630D01*
X020820Y029789D02*
X020301Y029789D01*
X020301Y030106D02*
X022029Y030106D01*
X021858Y030264D02*
X020301Y030264D01*
X020301Y030423D02*
X021792Y030423D01*
X021783Y030581D02*
X020301Y030581D01*
X020214Y031216D02*
X008077Y031216D01*
X008077Y031374D02*
X020373Y031374D01*
X020531Y031533D02*
X008077Y031533D01*
X008154Y031691D02*
X020690Y031691D01*
X020848Y031850D02*
X008312Y031850D01*
X008471Y032008D02*
X021007Y032008D01*
X021165Y032167D02*
X008569Y032167D01*
X008569Y032325D02*
X021324Y032325D01*
X021482Y032484D02*
X008569Y032484D01*
X008569Y032642D02*
X021634Y032642D01*
X021634Y032801D02*
X008569Y032801D01*
X008569Y032959D02*
X021634Y032959D01*
X021557Y033118D02*
X021098Y033118D01*
X021010Y033029D02*
X021268Y033287D01*
X021268Y033652D01*
X021010Y033909D01*
X020645Y033909D01*
X020388Y033652D01*
X020388Y033287D01*
X020645Y033029D01*
X021010Y033029D01*
X021257Y033276D02*
X021399Y033276D01*
X021388Y033435D02*
X021268Y033435D01*
X021268Y033593D02*
X021388Y033593D01*
X021488Y033752D02*
X021168Y033752D01*
X021010Y034029D02*
X021268Y034287D01*
X021268Y034652D01*
X021010Y034909D01*
X020645Y034909D01*
X020388Y034652D01*
X020388Y034287D01*
X020645Y034029D01*
X021010Y034029D01*
X021049Y034069D02*
X021606Y034069D01*
X021448Y034227D02*
X021208Y034227D01*
X021268Y034386D02*
X021388Y034386D01*
X021388Y034544D02*
X021268Y034544D01*
X021217Y034703D02*
X021439Y034703D01*
X021597Y034861D02*
X021058Y034861D01*
X020597Y034861D02*
X020115Y034861D01*
X020026Y034949D02*
X019848Y034949D01*
X019848Y034489D01*
X020308Y034489D01*
X020308Y034668D01*
X020026Y034949D01*
X019848Y034861D02*
X019808Y034861D01*
X019808Y034949D02*
X019629Y034949D01*
X019348Y034668D01*
X019348Y034489D01*
X019808Y034489D01*
X019808Y034449D01*
X019848Y034449D01*
X019848Y034489D01*
X019808Y034489D01*
X019808Y034949D01*
X019808Y034703D02*
X019848Y034703D01*
X019848Y034544D02*
X019808Y034544D01*
X019808Y034449D02*
X019348Y034449D01*
X019348Y034271D01*
X019629Y033989D01*
X019808Y033989D01*
X019808Y034449D01*
X019848Y034449D02*
X019848Y033989D01*
X020026Y033989D01*
X020308Y034271D01*
X020308Y034449D01*
X019848Y034449D01*
X019848Y034386D02*
X019808Y034386D01*
X019808Y034227D02*
X019848Y034227D01*
X019848Y034069D02*
X019808Y034069D01*
X019645Y033909D02*
X019388Y033652D01*
X019388Y033287D01*
X019645Y033029D01*
X020010Y033029D01*
X020268Y033287D01*
X020268Y033652D01*
X020010Y033909D01*
X019645Y033909D01*
X019550Y034069D02*
X019049Y034069D01*
X019010Y034029D02*
X019268Y034287D01*
X019268Y034652D01*
X019010Y034909D01*
X018645Y034909D01*
X018388Y034652D01*
X018388Y034287D01*
X018645Y034029D01*
X019010Y034029D01*
X019010Y033909D02*
X018645Y033909D01*
X018388Y033652D01*
X018388Y033287D01*
X018645Y033029D01*
X019010Y033029D01*
X019268Y033287D01*
X019268Y033652D01*
X019010Y033909D01*
X019168Y033752D02*
X019488Y033752D01*
X019388Y033593D02*
X019268Y033593D01*
X019268Y033435D02*
X019388Y033435D01*
X019399Y033276D02*
X019257Y033276D01*
X019098Y033118D02*
X019557Y033118D01*
X020098Y033118D02*
X020557Y033118D01*
X020399Y033276D02*
X020257Y033276D01*
X020268Y033435D02*
X020388Y033435D01*
X020388Y033593D02*
X020268Y033593D01*
X020168Y033752D02*
X020488Y033752D01*
X020606Y034069D02*
X020106Y034069D01*
X020264Y034227D02*
X020448Y034227D01*
X020388Y034386D02*
X020308Y034386D01*
X020308Y034544D02*
X020388Y034544D01*
X020439Y034703D02*
X020273Y034703D01*
X019540Y034861D02*
X019058Y034861D01*
X019217Y034703D02*
X019382Y034703D01*
X019348Y034544D02*
X019268Y034544D01*
X019268Y034386D02*
X019348Y034386D01*
X019391Y034227D02*
X019208Y034227D01*
X018606Y034069D02*
X018106Y034069D01*
X018026Y033989D02*
X018308Y034271D01*
X018308Y034449D01*
X017848Y034449D01*
X017848Y034489D01*
X018308Y034489D01*
X018308Y034668D01*
X018026Y034949D01*
X017848Y034949D01*
X017848Y034489D01*
X017808Y034489D01*
X017808Y034449D01*
X017848Y034449D01*
X017848Y033989D01*
X018026Y033989D01*
X018010Y033909D02*
X017645Y033909D01*
X017388Y033652D01*
X017388Y033287D01*
X017645Y033029D01*
X018010Y033029D01*
X018268Y033287D01*
X018268Y033652D01*
X018010Y033909D01*
X017808Y033989D02*
X017808Y034449D01*
X017348Y034449D01*
X017348Y034271D01*
X017629Y033989D01*
X017808Y033989D01*
X017808Y034069D02*
X017848Y034069D01*
X017848Y034227D02*
X017808Y034227D01*
X017808Y034386D02*
X017848Y034386D01*
X017808Y034489D02*
X017348Y034489D01*
X017348Y034668D01*
X017629Y034949D01*
X017808Y034949D01*
X017808Y034489D01*
X017808Y034544D02*
X017848Y034544D01*
X017848Y034703D02*
X017808Y034703D01*
X017808Y034861D02*
X017848Y034861D01*
X018115Y034861D02*
X018597Y034861D01*
X018439Y034703D02*
X018273Y034703D01*
X018308Y034544D02*
X018388Y034544D01*
X018388Y034386D02*
X018308Y034386D01*
X018264Y034227D02*
X018448Y034227D01*
X018488Y033752D02*
X018168Y033752D01*
X018268Y033593D02*
X018388Y033593D01*
X018388Y033435D02*
X018268Y033435D01*
X018257Y033276D02*
X018399Y033276D01*
X018557Y033118D02*
X018098Y033118D01*
X017557Y033118D02*
X017098Y033118D01*
X017010Y033029D02*
X017268Y033287D01*
X017268Y033652D01*
X017010Y033909D01*
X016645Y033909D01*
X016388Y033652D01*
X016388Y033287D01*
X016645Y033029D01*
X017010Y033029D01*
X017257Y033276D02*
X017399Y033276D01*
X017388Y033435D02*
X017268Y033435D01*
X017268Y033593D02*
X017388Y033593D01*
X017488Y033752D02*
X017168Y033752D01*
X017010Y034029D02*
X017268Y034287D01*
X017268Y034652D01*
X017010Y034909D01*
X016645Y034909D01*
X016388Y034652D01*
X016388Y034287D01*
X016645Y034029D01*
X017010Y034029D01*
X017049Y034069D02*
X017550Y034069D01*
X017391Y034227D02*
X017208Y034227D01*
X017268Y034386D02*
X017348Y034386D01*
X017348Y034544D02*
X017268Y034544D01*
X017217Y034703D02*
X017382Y034703D01*
X017540Y034861D02*
X017058Y034861D01*
X016597Y034861D02*
X016058Y034861D01*
X016010Y034909D02*
X015645Y034909D01*
X015388Y034652D01*
X015388Y034287D01*
X015645Y034029D01*
X016010Y034029D01*
X016268Y034287D01*
X016268Y034652D01*
X016010Y034909D01*
X016217Y034703D02*
X016439Y034703D01*
X016388Y034544D02*
X016268Y034544D01*
X016268Y034386D02*
X016388Y034386D01*
X016448Y034227D02*
X016208Y034227D01*
X016049Y034069D02*
X016606Y034069D01*
X016488Y033752D02*
X016224Y033752D01*
X016308Y033668D02*
X016026Y033949D01*
X015848Y033949D01*
X015848Y033489D01*
X016308Y033489D01*
X016308Y033668D01*
X016308Y033593D02*
X016388Y033593D01*
X016388Y033435D02*
X016308Y033435D01*
X016308Y033449D02*
X015848Y033449D01*
X015848Y033489D01*
X015808Y033489D01*
X015808Y033449D01*
X015848Y033449D01*
X015848Y032989D01*
X016026Y032989D01*
X016308Y033271D01*
X016308Y033449D01*
X016308Y033276D02*
X016399Y033276D01*
X016557Y033118D02*
X016155Y033118D01*
X015848Y033118D02*
X015808Y033118D01*
X015808Y032989D02*
X015808Y033449D01*
X015348Y033449D01*
X015348Y033271D01*
X015629Y032989D01*
X015808Y032989D01*
X015808Y033276D02*
X015848Y033276D01*
X015848Y033435D02*
X015808Y033435D01*
X015808Y033489D02*
X015348Y033489D01*
X015348Y033668D01*
X015629Y033949D01*
X015808Y033949D01*
X015808Y033489D01*
X015808Y033593D02*
X015848Y033593D01*
X015848Y033752D02*
X015808Y033752D01*
X015808Y033910D02*
X015848Y033910D01*
X016066Y033910D02*
X022076Y033910D01*
X022326Y033971D02*
X021828Y034469D01*
X022268Y034544D02*
X022388Y034544D01*
X022388Y034652D02*
X022388Y034287D01*
X022645Y034029D01*
X022957Y034029D01*
X023385Y033601D01*
X023385Y032992D01*
X023514Y032864D01*
X023662Y032716D01*
X025581Y032716D01*
X025895Y032402D01*
X025895Y025733D01*
X025846Y025684D01*
X025798Y025568D01*
X025798Y025442D01*
X025846Y025325D01*
X025935Y025236D01*
X026052Y025188D01*
X026178Y025188D01*
X026295Y025236D01*
X026384Y025325D01*
X026432Y025442D01*
X026432Y025568D01*
X026384Y025684D01*
X026335Y025733D01*
X026335Y032584D01*
X026206Y032713D01*
X025763Y033156D01*
X023844Y033156D01*
X023825Y033175D01*
X023825Y033783D01*
X023268Y034340D01*
X023268Y034652D01*
X023010Y034909D01*
X022645Y034909D01*
X022388Y034652D01*
X022439Y034703D02*
X022217Y034703D01*
X022058Y034861D02*
X022597Y034861D01*
X022828Y034469D02*
X023605Y033692D01*
X023605Y033084D01*
X023753Y032936D01*
X025672Y032936D01*
X026115Y032493D01*
X026115Y025505D01*
X025798Y025509D02*
X025695Y025509D01*
X025695Y025351D02*
X025835Y025351D01*
X025695Y025192D02*
X026040Y025192D01*
X026190Y025192D02*
X032991Y025192D01*
X032991Y025034D02*
X030805Y025034D01*
X030677Y025034D02*
X025695Y025034D01*
X025475Y024865D02*
X025623Y024717D01*
X030741Y024717D01*
X031058Y024717D02*
X032991Y024717D01*
X032991Y024875D02*
X031019Y024875D01*
X031018Y024558D02*
X032991Y024558D01*
X032991Y024400D02*
X011719Y024400D01*
X011719Y024558D02*
X025471Y024558D01*
X025312Y024717D02*
X011719Y024717D01*
X011719Y024875D02*
X025255Y024875D01*
X025255Y025034D02*
X011719Y025034D01*
X011719Y025192D02*
X025255Y025192D01*
X025255Y025351D02*
X011719Y025351D01*
X011719Y025509D02*
X025255Y025509D01*
X025255Y025668D02*
X011719Y025668D01*
X011719Y025826D02*
X025255Y025826D01*
X025255Y025985D02*
X011719Y025985D01*
X011719Y026143D02*
X025255Y026143D01*
X025255Y026302D02*
X011719Y026302D01*
X011719Y026460D02*
X025255Y026460D01*
X025255Y026619D02*
X011719Y026619D01*
X011719Y026777D02*
X025255Y026777D01*
X025255Y026936D02*
X011719Y026936D01*
X011719Y027094D02*
X025255Y027094D01*
X025255Y027253D02*
X011719Y027253D01*
X011719Y027411D02*
X025255Y027411D01*
X025255Y027570D02*
X011719Y027570D01*
X011719Y027728D02*
X025255Y027728D01*
X025695Y027728D02*
X025895Y027728D01*
X025895Y027570D02*
X025695Y027570D01*
X025695Y027411D02*
X025895Y027411D01*
X025895Y027253D02*
X025695Y027253D01*
X025695Y027094D02*
X025895Y027094D01*
X025895Y026936D02*
X025695Y026936D01*
X025695Y026777D02*
X025895Y026777D01*
X025895Y026619D02*
X025695Y026619D01*
X025695Y026460D02*
X025895Y026460D01*
X025895Y026302D02*
X025695Y026302D01*
X025695Y026143D02*
X025895Y026143D01*
X025895Y025985D02*
X025695Y025985D01*
X025695Y025826D02*
X025895Y025826D01*
X025839Y025668D02*
X025695Y025668D01*
X026335Y025826D02*
X032991Y025826D01*
X032991Y025668D02*
X026391Y025668D01*
X026432Y025509D02*
X032991Y025509D01*
X032991Y025351D02*
X026395Y025351D01*
X026335Y025985D02*
X032991Y025985D01*
X032991Y026143D02*
X026335Y026143D01*
X026335Y026302D02*
X032991Y026302D01*
X032991Y026460D02*
X026335Y026460D01*
X026335Y026619D02*
X032991Y026619D01*
X032991Y026777D02*
X026335Y026777D01*
X026335Y026936D02*
X032991Y026936D01*
X032984Y027094D02*
X026335Y027094D01*
X026335Y027253D02*
X032934Y027253D01*
X032964Y027411D02*
X026335Y027411D01*
X026335Y027570D02*
X033131Y027570D01*
X033371Y027570D02*
X047901Y027570D01*
X047901Y027728D02*
X026335Y027728D01*
X026335Y027887D02*
X028169Y027887D01*
X028099Y027957D02*
X028241Y027815D01*
X028426Y027738D01*
X028627Y027738D01*
X028812Y027815D01*
X028954Y027957D01*
X029030Y028142D01*
X029030Y029070D01*
X028954Y029255D01*
X028812Y029396D01*
X028627Y029473D01*
X028426Y029473D01*
X028243Y029397D01*
X028243Y029463D01*
X028166Y029648D01*
X028024Y029790D01*
X027839Y029867D01*
X026911Y029867D01*
X026726Y029790D01*
X026584Y029648D01*
X026508Y029463D01*
X026508Y029263D01*
X026584Y029078D01*
X026726Y028936D01*
X026911Y028859D01*
X027839Y028859D01*
X028023Y028935D01*
X028023Y028142D01*
X028099Y027957D01*
X028063Y028045D02*
X026335Y028045D01*
X026335Y028204D02*
X028023Y028204D01*
X028023Y028362D02*
X026335Y028362D01*
X026335Y028521D02*
X028023Y028521D01*
X028023Y028679D02*
X026335Y028679D01*
X026335Y028838D02*
X028023Y028838D01*
X028239Y029472D02*
X028424Y029472D01*
X028629Y029472D02*
X047901Y029472D01*
X047901Y029630D02*
X028174Y029630D01*
X028026Y029789D02*
X047901Y029789D01*
X047901Y029947D02*
X026335Y029947D01*
X026335Y029789D02*
X026725Y029789D01*
X026577Y029630D02*
X026335Y029630D01*
X026335Y029472D02*
X026511Y029472D01*
X026508Y029313D02*
X026335Y029313D01*
X026335Y029155D02*
X026552Y029155D01*
X026666Y028996D02*
X026335Y028996D01*
X025895Y028996D02*
X025695Y028996D01*
X025695Y028838D02*
X025895Y028838D01*
X025895Y028679D02*
X025695Y028679D01*
X025695Y028521D02*
X025895Y028521D01*
X025895Y028362D02*
X025695Y028362D01*
X025695Y028204D02*
X025895Y028204D01*
X025895Y028045D02*
X025695Y028045D01*
X025695Y027887D02*
X025895Y027887D01*
X025255Y028521D02*
X020380Y028521D01*
X020301Y028679D02*
X025255Y028679D01*
X025695Y029155D02*
X025895Y029155D01*
X025895Y029313D02*
X025695Y029313D01*
X025695Y029472D02*
X025895Y029472D01*
X025895Y029630D02*
X025695Y029630D01*
X025695Y029789D02*
X025895Y029789D01*
X025895Y029947D02*
X025695Y029947D01*
X025695Y030106D02*
X025895Y030106D01*
X025895Y030264D02*
X025695Y030264D01*
X025695Y030423D02*
X025895Y030423D01*
X025895Y030581D02*
X025695Y030581D01*
X025695Y030740D02*
X025895Y030740D01*
X025895Y030899D02*
X025695Y030899D01*
X025695Y031057D02*
X025895Y031057D01*
X025895Y031216D02*
X025695Y031216D01*
X025695Y031374D02*
X025895Y031374D01*
X025895Y031533D02*
X025566Y031533D01*
X025407Y031691D02*
X025895Y031691D01*
X025895Y031850D02*
X025249Y031850D01*
X025090Y032008D02*
X025895Y032008D01*
X025895Y032167D02*
X024932Y032167D01*
X024773Y032325D02*
X025895Y032325D01*
X025813Y032484D02*
X024615Y032484D01*
X024491Y032296D02*
X022719Y032296D01*
X022326Y032690D01*
X022326Y033971D01*
X022546Y033910D02*
X022589Y033910D01*
X022606Y034069D02*
X022540Y034069D01*
X022448Y034227D02*
X022381Y034227D01*
X022388Y034386D02*
X022268Y034386D01*
X022828Y034469D02*
X022958Y034469D01*
X023268Y034544D02*
X024211Y034544D01*
X024310Y034643D02*
X024093Y034426D01*
X023976Y034142D01*
X023976Y033836D01*
X024093Y033552D01*
X024310Y033335D01*
X024593Y033218D01*
X024900Y033218D01*
X025184Y033335D01*
X025401Y033552D01*
X025518Y033836D01*
X025518Y034142D01*
X025401Y034426D01*
X025184Y034643D01*
X024900Y034760D01*
X024593Y034760D01*
X024310Y034643D01*
X024454Y034703D02*
X023217Y034703D01*
X023058Y034861D02*
X036117Y034861D01*
X036085Y034829D02*
X035954Y034512D01*
X035954Y034170D01*
X036085Y033854D01*
X036327Y033612D01*
X036643Y033481D01*
X036985Y033481D01*
X037301Y033612D01*
X037543Y033854D01*
X037674Y034170D01*
X037674Y034512D01*
X037543Y034829D01*
X037301Y035070D01*
X036985Y035201D01*
X036643Y035201D01*
X036327Y035070D01*
X036085Y034829D01*
X036033Y034703D02*
X030552Y034703D01*
X030412Y034760D02*
X030696Y034643D01*
X030913Y034426D01*
X031030Y034142D01*
X031030Y033836D01*
X030913Y033552D01*
X030696Y033335D01*
X030412Y033218D01*
X030105Y033218D01*
X029822Y033335D01*
X029605Y033552D01*
X029487Y033836D01*
X029487Y034142D01*
X029605Y034426D01*
X029822Y034643D01*
X030105Y034760D01*
X030412Y034760D01*
X030795Y034544D02*
X035967Y034544D01*
X035954Y034386D02*
X030929Y034386D01*
X030995Y034227D02*
X035954Y034227D01*
X035996Y034069D02*
X031030Y034069D01*
X031030Y033910D02*
X036062Y033910D01*
X036188Y033752D02*
X030995Y033752D01*
X030930Y033593D02*
X036374Y033593D01*
X037254Y033593D02*
X046374Y033593D01*
X046327Y033612D02*
X046643Y033481D01*
X046985Y033481D01*
X047301Y033612D01*
X047543Y033854D01*
X047674Y034170D01*
X047674Y034512D01*
X047543Y034829D01*
X047301Y035070D01*
X046985Y035201D01*
X046643Y035201D01*
X046327Y035070D01*
X046085Y034829D01*
X045954Y034512D01*
X045954Y034170D01*
X046085Y033854D01*
X046327Y033612D01*
X046188Y033752D02*
X037440Y033752D01*
X037566Y033910D02*
X046062Y033910D01*
X045996Y034069D02*
X037632Y034069D01*
X037674Y034227D02*
X045954Y034227D01*
X045954Y034386D02*
X037674Y034386D01*
X037661Y034544D02*
X045967Y034544D01*
X046033Y034703D02*
X037595Y034703D01*
X037510Y034861D02*
X046117Y034861D01*
X046276Y035020D02*
X037352Y035020D01*
X037041Y035178D02*
X046586Y035178D01*
X047041Y035178D02*
X047901Y035178D01*
X047901Y035020D02*
X047352Y035020D01*
X047510Y034861D02*
X047901Y034861D01*
X047901Y034703D02*
X047595Y034703D01*
X047661Y034544D02*
X047901Y034544D01*
X047901Y034386D02*
X047674Y034386D01*
X047674Y034227D02*
X047901Y034227D01*
X047901Y034069D02*
X047632Y034069D01*
X047566Y033910D02*
X047901Y033910D01*
X047901Y033752D02*
X047440Y033752D01*
X047254Y033593D02*
X047901Y033593D01*
X047901Y033435D02*
X030795Y033435D01*
X030553Y033276D02*
X033891Y033276D01*
X033864Y033267D02*
X033939Y033292D01*
X034017Y033304D01*
X034047Y033304D01*
X034047Y032813D01*
X034065Y032813D01*
X034556Y032813D01*
X034556Y032843D01*
X034544Y032921D01*
X034519Y032996D01*
X034484Y033066D01*
X034437Y033130D01*
X034382Y033185D01*
X034318Y033232D01*
X034248Y033267D01*
X034173Y033292D01*
X034095Y033304D01*
X034065Y033304D01*
X034065Y032813D01*
X034065Y032795D01*
X034556Y032795D01*
X034556Y032765D01*
X034544Y032687D01*
X034519Y032612D01*
X034484Y032542D01*
X034437Y032478D01*
X034382Y032423D01*
X034318Y032376D01*
X034248Y032341D01*
X034173Y032316D01*
X034095Y032304D01*
X034065Y032304D01*
X034065Y032795D01*
X034047Y032795D01*
X034047Y032304D01*
X034017Y032304D01*
X033939Y032316D01*
X033864Y032341D01*
X033794Y032376D01*
X033730Y032423D01*
X033675Y032478D01*
X033628Y032542D01*
X033593Y032612D01*
X033568Y032687D01*
X033556Y032765D01*
X033556Y032795D01*
X034047Y032795D01*
X034047Y032813D01*
X033556Y032813D01*
X033556Y032843D01*
X033568Y032921D01*
X033593Y032996D01*
X033628Y033066D01*
X033675Y033130D01*
X033730Y033185D01*
X033794Y033232D01*
X033864Y033267D01*
X034047Y033276D02*
X034065Y033276D01*
X034221Y033276D02*
X047901Y033276D01*
X047901Y033118D02*
X034446Y033118D01*
X034531Y032959D02*
X047901Y032959D01*
X047901Y032801D02*
X034065Y032801D01*
X034047Y032801D02*
X033516Y032801D01*
X033516Y032713D02*
X033446Y032543D01*
X033317Y032414D01*
X033147Y032344D01*
X032964Y032344D01*
X032795Y032414D01*
X032666Y032543D01*
X032596Y032713D01*
X032596Y032896D01*
X032666Y033065D01*
X032795Y033194D01*
X032964Y033264D01*
X033147Y033264D01*
X033317Y033194D01*
X033446Y033065D01*
X033516Y032896D01*
X033516Y032713D01*
X033487Y032642D02*
X033583Y032642D01*
X033671Y032484D02*
X033386Y032484D01*
X033317Y032194D02*
X033147Y032264D01*
X032964Y032264D01*
X032795Y032194D01*
X032666Y032065D01*
X032596Y031896D01*
X032596Y031713D01*
X032666Y031543D01*
X032795Y031414D01*
X032964Y031344D01*
X033147Y031344D01*
X033317Y031414D01*
X033446Y031543D01*
X033516Y031713D01*
X033516Y031896D01*
X033446Y032065D01*
X033317Y032194D01*
X033344Y032167D02*
X033768Y032167D01*
X033795Y032194D02*
X033666Y032065D01*
X033596Y031896D01*
X033596Y031713D01*
X033666Y031543D01*
X033795Y031414D01*
X033964Y031344D01*
X034147Y031344D01*
X034317Y031414D01*
X034446Y031543D01*
X034516Y031713D01*
X034516Y031896D01*
X034446Y032065D01*
X034317Y032194D01*
X034147Y032264D01*
X033964Y032264D01*
X033795Y032194D01*
X033912Y032325D02*
X026335Y032325D01*
X026335Y032167D02*
X032768Y032167D01*
X032643Y032008D02*
X026335Y032008D01*
X026335Y031850D02*
X032596Y031850D01*
X032605Y031691D02*
X026335Y031691D01*
X026335Y031533D02*
X032677Y031533D01*
X032892Y031374D02*
X026335Y031374D01*
X026335Y031216D02*
X032847Y031216D01*
X032795Y031194D02*
X032666Y031065D01*
X032596Y030896D01*
X032596Y030713D01*
X032666Y030543D01*
X032795Y030414D01*
X032964Y030344D01*
X033147Y030344D01*
X033317Y030414D01*
X033446Y030543D01*
X033516Y030713D01*
X033516Y030896D01*
X033446Y031065D01*
X033317Y031194D01*
X033147Y031264D01*
X032964Y031264D01*
X032795Y031194D01*
X032663Y031057D02*
X026335Y031057D01*
X026335Y030899D02*
X032597Y030899D01*
X032596Y030740D02*
X026335Y030740D01*
X026335Y030581D02*
X032650Y030581D01*
X032786Y030423D02*
X026335Y030423D01*
X026335Y030264D02*
X047901Y030264D01*
X047901Y030106D02*
X026335Y030106D01*
X025475Y031312D02*
X024491Y032296D01*
X023577Y032801D02*
X022546Y032801D01*
X022546Y032959D02*
X023419Y032959D01*
X023385Y033118D02*
X023155Y033118D01*
X023026Y032989D02*
X023308Y033271D01*
X023308Y033449D01*
X022848Y033449D01*
X022848Y032989D01*
X023026Y032989D01*
X022848Y033118D02*
X022808Y033118D01*
X022808Y033276D02*
X022848Y033276D01*
X022848Y033435D02*
X022808Y033435D01*
X022808Y033593D02*
X022848Y033593D01*
X022848Y033752D02*
X022808Y033752D01*
X022808Y033910D02*
X022848Y033910D01*
X023066Y033910D02*
X023076Y033910D01*
X023224Y033752D02*
X023234Y033752D01*
X023308Y033593D02*
X023385Y033593D01*
X023385Y033435D02*
X023308Y033435D01*
X023308Y033276D02*
X023385Y033276D01*
X023825Y033276D02*
X024453Y033276D01*
X024211Y033435D02*
X023825Y033435D01*
X023825Y033593D02*
X024076Y033593D01*
X024010Y033752D02*
X023825Y033752D01*
X023698Y033910D02*
X023976Y033910D01*
X023976Y034069D02*
X023540Y034069D01*
X023381Y034227D02*
X024011Y034227D01*
X024076Y034386D02*
X023268Y034386D01*
X022106Y033118D02*
X022098Y033118D01*
X022106Y032959D02*
X022034Y032959D01*
X022034Y032801D02*
X022106Y032801D01*
X022106Y032642D02*
X022034Y032642D01*
X022034Y032484D02*
X022221Y032484D01*
X022379Y032325D02*
X021889Y032325D01*
X021731Y032167D02*
X022538Y032167D01*
X022685Y032642D02*
X025655Y032642D01*
X025960Y032959D02*
X032622Y032959D01*
X032596Y032801D02*
X026119Y032801D01*
X026277Y032642D02*
X032625Y032642D01*
X032726Y032484D02*
X026335Y032484D01*
X025802Y033118D02*
X032719Y033118D01*
X033393Y033118D02*
X033666Y033118D01*
X033581Y032959D02*
X033490Y032959D01*
X034047Y032959D02*
X034065Y032959D01*
X034065Y033118D02*
X034047Y033118D01*
X034047Y032642D02*
X034065Y032642D01*
X034065Y032484D02*
X034047Y032484D01*
X034047Y032325D02*
X034065Y032325D01*
X034200Y032325D02*
X047901Y032325D01*
X047901Y032167D02*
X034344Y032167D01*
X034469Y032008D02*
X047901Y032008D01*
X047901Y031850D02*
X034516Y031850D01*
X034507Y031691D02*
X047901Y031691D01*
X047901Y031533D02*
X034435Y031533D01*
X034220Y031374D02*
X047901Y031374D01*
X047901Y031216D02*
X034265Y031216D01*
X034317Y031194D02*
X034147Y031264D01*
X033964Y031264D01*
X033795Y031194D01*
X033666Y031065D01*
X033596Y030896D01*
X033596Y030713D01*
X033666Y030543D01*
X033795Y030414D01*
X033964Y030344D01*
X034147Y030344D01*
X034317Y030414D01*
X034446Y030543D01*
X034516Y030713D01*
X034516Y030896D01*
X034446Y031065D01*
X034317Y031194D01*
X034449Y031057D02*
X047901Y031057D01*
X047901Y030899D02*
X034515Y030899D01*
X034516Y030740D02*
X047901Y030740D01*
X047901Y030581D02*
X034462Y030581D01*
X034326Y030423D02*
X047901Y030423D01*
X047901Y029313D02*
X028895Y029313D01*
X028995Y029155D02*
X047901Y029155D01*
X047901Y028996D02*
X030727Y028996D01*
X030720Y029003D02*
X030535Y029079D01*
X029607Y029079D01*
X029422Y029003D01*
X029281Y028861D01*
X029204Y028676D01*
X029204Y028475D01*
X029281Y028290D01*
X029422Y028149D01*
X029607Y028072D01*
X030535Y028072D01*
X030720Y028149D01*
X030862Y028290D01*
X030939Y028475D01*
X030939Y028676D01*
X030862Y028861D01*
X030720Y029003D01*
X030872Y028838D02*
X047901Y028838D01*
X047901Y028679D02*
X030937Y028679D01*
X030939Y028521D02*
X047901Y028521D01*
X047901Y028362D02*
X030892Y028362D01*
X030776Y028204D02*
X047901Y028204D01*
X047901Y028045D02*
X028990Y028045D01*
X029030Y028204D02*
X029367Y028204D01*
X029251Y028362D02*
X029030Y028362D01*
X029030Y028521D02*
X029204Y028521D01*
X029205Y028679D02*
X029030Y028679D01*
X029030Y028838D02*
X029271Y028838D01*
X029416Y028996D02*
X029030Y028996D01*
X028884Y027887D02*
X047901Y027887D01*
X047901Y027411D02*
X033538Y027411D01*
X033568Y027253D02*
X047901Y027253D01*
X047901Y027094D02*
X033517Y027094D01*
X033511Y026936D02*
X047901Y026936D01*
X047901Y026777D02*
X033511Y026777D01*
X033511Y026619D02*
X047901Y026619D01*
X047901Y032484D02*
X034441Y032484D01*
X034529Y032642D02*
X047901Y032642D01*
X047901Y035337D02*
X000490Y035337D01*
X000490Y035178D02*
X003292Y035178D01*
X003257Y035143D02*
X003257Y035143D01*
X003140Y035026D02*
X003140Y035026D01*
X003134Y035020D02*
X000490Y035020D01*
X000490Y034861D02*
X003011Y034861D01*
X003011Y034703D02*
X002205Y034703D01*
X002066Y034760D02*
X001759Y034760D01*
X001475Y034643D01*
X001258Y034426D01*
X001141Y034142D01*
X001141Y033836D01*
X001258Y033552D01*
X001475Y033335D01*
X001759Y033218D01*
X002066Y033218D01*
X002349Y033335D01*
X002566Y033552D01*
X002684Y033836D01*
X002684Y034142D01*
X002566Y034426D01*
X002349Y034643D01*
X002066Y034760D01*
X002448Y034544D02*
X003011Y034544D01*
X003011Y034386D02*
X002583Y034386D01*
X002649Y034227D02*
X003011Y034227D01*
X003011Y034069D02*
X002684Y034069D01*
X002684Y033910D02*
X003076Y033910D01*
X003234Y033752D02*
X002649Y033752D01*
X002583Y033593D02*
X003388Y033593D01*
X003388Y033435D02*
X002449Y033435D01*
X002206Y033276D02*
X003399Y033276D01*
X003557Y033118D02*
X000490Y033118D01*
X000490Y033276D02*
X001618Y033276D01*
X001376Y033435D02*
X000490Y033435D01*
X000490Y033593D02*
X001241Y033593D01*
X001176Y033752D02*
X000490Y033752D01*
X000490Y033910D02*
X001141Y033910D01*
X001141Y034069D02*
X000490Y034069D01*
X000490Y034227D02*
X001176Y034227D01*
X001242Y034386D02*
X000490Y034386D01*
X000490Y034544D02*
X001376Y034544D01*
X001619Y034703D02*
X000490Y034703D01*
X000490Y032959D02*
X004585Y032959D01*
X004585Y032801D02*
X000490Y032801D01*
X000490Y032642D02*
X004585Y032642D01*
X004585Y032484D02*
X000490Y032484D01*
X000490Y032325D02*
X004585Y032325D01*
X004585Y032167D02*
X000490Y032167D01*
X000490Y032008D02*
X004585Y032008D01*
X004585Y031850D02*
X000490Y031850D01*
X000490Y031691D02*
X004585Y031691D01*
X004585Y031533D02*
X000490Y031533D01*
X000490Y031374D02*
X004585Y031374D01*
X004585Y031216D02*
X000490Y031216D01*
X000490Y031057D02*
X004585Y031057D01*
X004585Y030899D02*
X000490Y030899D01*
X000490Y030740D02*
X004585Y030740D01*
X004585Y030581D02*
X000490Y030581D01*
X000490Y030423D02*
X004585Y030423D01*
X004585Y030264D02*
X000490Y030264D01*
X000490Y030106D02*
X004532Y030106D01*
X004394Y029947D02*
X000490Y029947D01*
X000490Y029789D02*
X004369Y029789D01*
X004369Y029630D02*
X000490Y029630D01*
X000490Y029472D02*
X004369Y029472D01*
X004369Y029313D02*
X000490Y029313D01*
X000490Y029155D02*
X004369Y029155D01*
X004369Y028996D02*
X000490Y028996D01*
X000490Y028838D02*
X004369Y028838D01*
X004369Y028679D02*
X000490Y028679D01*
X000490Y028521D02*
X004369Y028521D01*
X004369Y028362D02*
X000490Y028362D01*
X000490Y028204D02*
X004369Y028204D01*
X004369Y028045D02*
X000490Y028045D01*
X000490Y027887D02*
X004369Y027887D01*
X004369Y027728D02*
X000490Y027728D01*
X000490Y027570D02*
X004369Y027570D01*
X004369Y027411D02*
X000490Y027411D01*
X000490Y027253D02*
X004369Y027253D01*
X004369Y027094D02*
X000490Y027094D01*
X000490Y026936D02*
X004369Y026936D01*
X004369Y026777D02*
X000490Y026777D01*
X000490Y026619D02*
X004369Y026619D01*
X004369Y026460D02*
X000490Y026460D01*
X000490Y026302D02*
X004369Y026302D01*
X004369Y026143D02*
X000490Y026143D01*
X000490Y025985D02*
X004369Y025985D01*
X004369Y025826D02*
X000490Y025826D01*
X000490Y025668D02*
X004369Y025668D01*
X004369Y025509D02*
X000490Y025509D01*
X000490Y025351D02*
X004369Y025351D01*
X004369Y025192D02*
X000490Y025192D01*
X000490Y025034D02*
X004369Y025034D01*
X004369Y024875D02*
X000490Y024875D01*
X000490Y024717D02*
X004369Y024717D01*
X004369Y024558D02*
X000490Y024558D01*
X000490Y024400D02*
X004369Y024400D01*
X004369Y024241D02*
X000490Y024241D01*
X000490Y024083D02*
X004369Y024083D01*
X004369Y023924D02*
X000490Y023924D01*
X000490Y023766D02*
X004369Y023766D01*
X004369Y023607D02*
X000490Y023607D01*
X000490Y023449D02*
X004369Y023449D01*
X004369Y023290D02*
X000490Y023290D01*
X000490Y023132D02*
X004369Y023132D01*
X004369Y022973D02*
X000490Y022973D01*
X000490Y022815D02*
X004369Y022815D01*
X004369Y022656D02*
X000490Y022656D01*
X000490Y022498D02*
X004369Y022498D01*
X004312Y022339D02*
X000490Y022339D01*
X000490Y022181D02*
X004333Y022181D01*
X006109Y019169D02*
X006456Y019169D01*
X006456Y019011D02*
X006109Y019011D01*
X006109Y018852D02*
X006456Y018852D01*
X006456Y018694D02*
X006109Y018694D01*
X006109Y018535D02*
X006456Y018535D01*
X006456Y018377D02*
X006109Y018377D01*
X006109Y018218D02*
X006456Y018218D01*
X006456Y018060D02*
X006109Y018060D01*
X006109Y017901D02*
X006456Y017901D01*
X006456Y017743D02*
X006109Y017743D01*
X006109Y017584D02*
X006456Y017584D01*
X006456Y017426D02*
X006109Y017426D01*
X006109Y017267D02*
X006456Y017267D01*
X006456Y017109D02*
X006109Y017109D01*
X006109Y016950D02*
X006456Y016950D01*
X006456Y016792D02*
X006109Y016792D01*
X006109Y016633D02*
X006456Y016633D01*
X006390Y016475D02*
X006109Y016475D01*
X006067Y016316D02*
X006232Y016316D01*
X006073Y016158D02*
X005908Y016158D01*
X005915Y015999D02*
X005750Y015999D01*
X005756Y015841D02*
X005591Y015841D01*
X005598Y015682D02*
X005433Y015682D01*
X005439Y015524D02*
X005274Y015524D01*
X005281Y015365D02*
X005116Y015365D01*
X005122Y015207D02*
X004957Y015207D01*
X004964Y015048D02*
X004799Y015048D01*
X004805Y014890D02*
X004640Y014890D01*
X004647Y014731D02*
X004482Y014731D01*
X004488Y014573D02*
X004323Y014573D01*
X004330Y014414D02*
X004165Y014414D01*
X004171Y014256D02*
X004006Y014256D01*
X004013Y014097D02*
X003848Y014097D01*
X003854Y013939D02*
X003689Y013939D01*
X003696Y013780D02*
X003531Y013780D01*
X003537Y013622D02*
X003372Y013622D01*
X003379Y013463D02*
X003214Y013463D01*
X003220Y013305D02*
X003055Y013305D01*
X003062Y013146D02*
X002897Y013146D01*
X002903Y012988D02*
X002738Y012988D01*
X002745Y012829D02*
X002580Y012829D01*
X002586Y012671D02*
X002421Y012671D01*
X002428Y012512D02*
X002263Y012512D01*
X002322Y012354D02*
X002172Y012354D01*
X002172Y012195D02*
X002322Y012195D01*
X002322Y012037D02*
X002172Y012037D01*
X002172Y011878D02*
X002322Y011878D01*
X002322Y011720D02*
X002172Y011720D01*
X002172Y011561D02*
X002322Y011561D01*
X002322Y011403D02*
X002172Y011403D01*
X002172Y011244D02*
X002322Y011244D01*
X002322Y011086D02*
X002172Y011086D01*
X002172Y010927D02*
X002322Y010927D01*
X002322Y010769D02*
X002172Y010769D01*
X002172Y010610D02*
X002322Y010610D01*
X002322Y010452D02*
X002172Y010452D01*
X002172Y010293D02*
X002322Y010293D01*
X002322Y010135D02*
X002172Y010135D01*
X002172Y009976D02*
X002322Y009976D01*
X002322Y009818D02*
X002172Y009818D01*
X002172Y009659D02*
X002322Y009659D01*
X002322Y009501D02*
X002172Y009501D01*
X002172Y009342D02*
X002322Y009342D01*
X002322Y009184D02*
X002172Y009184D01*
X002172Y009025D02*
X002322Y009025D01*
X002322Y008867D02*
X002172Y008867D01*
X002172Y008708D02*
X002322Y008708D01*
X002322Y008550D02*
X002172Y008550D01*
X002172Y008391D02*
X002322Y008391D01*
X002322Y008233D02*
X002172Y008233D01*
X002172Y008074D02*
X002322Y008074D01*
X002322Y007916D02*
X002172Y007916D01*
X002172Y007757D02*
X002322Y007757D01*
X002322Y007599D02*
X002172Y007599D01*
X002172Y007440D02*
X002322Y007440D01*
X002322Y007282D02*
X002172Y007282D01*
X002172Y007123D02*
X002322Y007123D01*
X002299Y006965D02*
X002464Y006965D01*
X002457Y006806D02*
X002622Y006806D01*
X002616Y006648D02*
X002781Y006648D01*
X002774Y006489D02*
X002939Y006489D01*
X002933Y006331D02*
X003098Y006331D01*
X003091Y006172D02*
X003256Y006172D01*
X003250Y006014D02*
X003415Y006014D01*
X003408Y005855D02*
X003573Y005855D01*
X003500Y005697D02*
X004913Y005697D01*
X005071Y005538D02*
X004598Y005538D01*
X004611Y005531D02*
X004570Y005554D01*
X004525Y005567D01*
X004293Y005567D01*
X004293Y005130D01*
X004197Y005130D01*
X004197Y005567D01*
X003965Y005567D01*
X003920Y005554D01*
X003879Y005531D01*
X003845Y005497D01*
X003821Y005456D01*
X003809Y005410D01*
X003809Y005130D01*
X004197Y005130D01*
X004197Y005034D01*
X003809Y005034D01*
X003809Y004753D01*
X003821Y004707D01*
X003845Y004666D01*
X003879Y004632D01*
X003920Y004609D01*
X003965Y004596D01*
X004197Y004596D01*
X004197Y005034D01*
X004293Y005034D01*
X004293Y005130D01*
X004681Y005130D01*
X004681Y005410D01*
X004669Y005456D01*
X004645Y005497D01*
X004611Y005531D01*
X004681Y005380D02*
X005230Y005380D01*
X005388Y005221D02*
X004681Y005221D01*
X004681Y005034D02*
X004293Y005034D01*
X004293Y004596D01*
X004525Y004596D01*
X004570Y004609D01*
X004611Y004632D01*
X004645Y004666D01*
X004669Y004707D01*
X004681Y004753D01*
X004681Y005034D01*
X004681Y004904D02*
X005621Y004904D01*
X005621Y004746D02*
X004679Y004746D01*
X004293Y004746D02*
X004197Y004746D01*
X004197Y004904D02*
X004293Y004904D01*
X004293Y005063D02*
X005547Y005063D01*
X005839Y005082D02*
X004904Y006017D01*
X005218Y006014D02*
X008533Y006014D01*
X008533Y005855D02*
X005377Y005855D01*
X005535Y005697D02*
X008533Y005697D01*
X008431Y005538D02*
X007360Y005538D01*
X007348Y005550D02*
X007307Y005574D01*
X007261Y005586D01*
X007029Y005586D01*
X007029Y005149D01*
X007417Y005149D01*
X007417Y005430D01*
X007405Y005476D01*
X007381Y005517D01*
X007348Y005550D01*
X007417Y005380D02*
X008357Y005380D01*
X008357Y005221D02*
X007417Y005221D01*
X007417Y005053D02*
X007029Y005053D01*
X007029Y004616D01*
X007261Y004616D01*
X007307Y004628D01*
X007348Y004652D01*
X007381Y004686D01*
X007405Y004727D01*
X007417Y004772D01*
X007417Y005053D01*
X007417Y004904D02*
X008357Y004904D01*
X008357Y004746D02*
X007410Y004746D01*
X007029Y004746D02*
X006933Y004746D01*
X006933Y004616D02*
X006702Y004616D01*
X006656Y004628D01*
X006615Y004652D01*
X006581Y004686D01*
X006558Y004727D01*
X006545Y004772D01*
X006545Y005053D01*
X006933Y005053D01*
X007029Y005053D01*
X007029Y005149D01*
X006933Y005149D01*
X006933Y005053D01*
X006933Y004616D01*
X006933Y004904D02*
X007029Y004904D01*
X007029Y005063D02*
X008357Y005063D01*
X008753Y005101D02*
X008753Y008093D01*
X009235Y008576D01*
X009235Y015859D01*
X007857Y017237D01*
X007857Y031706D01*
X008349Y032198D01*
X008349Y033991D01*
X008579Y033910D02*
X011131Y033910D01*
X011131Y034069D02*
X011049Y034069D01*
X011351Y033969D02*
X011351Y034757D01*
X011056Y035052D01*
X011241Y035178D02*
X036586Y035178D01*
X036276Y035020D02*
X011400Y035020D01*
X011558Y034861D02*
X011597Y034861D01*
X012058Y034861D02*
X012540Y034861D01*
X012629Y034949D02*
X012348Y034668D01*
X012348Y034489D01*
X012808Y034489D01*
X012808Y034449D01*
X012848Y034449D01*
X012848Y034489D01*
X013308Y034489D01*
X013308Y034668D01*
X013026Y034949D01*
X012848Y034949D01*
X012848Y034489D01*
X012808Y034489D01*
X012808Y034949D01*
X012629Y034949D01*
X012808Y034861D02*
X012848Y034861D01*
X012848Y034703D02*
X012808Y034703D01*
X012808Y034544D02*
X012848Y034544D01*
X012848Y034449D02*
X013308Y034449D01*
X013308Y034271D01*
X013026Y033989D01*
X012848Y033989D01*
X012848Y034449D01*
X012808Y034449D02*
X012808Y033989D01*
X012629Y033989D01*
X012348Y034271D01*
X012348Y034449D01*
X012808Y034449D01*
X012808Y034386D02*
X012848Y034386D01*
X012848Y034227D02*
X012808Y034227D01*
X012808Y034069D02*
X012848Y034069D01*
X013010Y033909D02*
X012645Y033909D01*
X012388Y033652D01*
X012388Y033287D01*
X012645Y033029D01*
X013010Y033029D01*
X013268Y033287D01*
X013268Y033652D01*
X013010Y033909D01*
X013106Y034069D02*
X013606Y034069D01*
X013645Y034029D02*
X014010Y034029D01*
X014268Y034287D01*
X014268Y034652D01*
X014010Y034909D01*
X013645Y034909D01*
X013388Y034652D01*
X013388Y034287D01*
X013645Y034029D01*
X013645Y033909D02*
X013388Y033652D01*
X013388Y033287D01*
X013645Y033029D01*
X014010Y033029D01*
X014268Y033287D01*
X014268Y033652D01*
X014010Y033909D01*
X013645Y033909D01*
X013488Y033752D02*
X013168Y033752D01*
X013268Y033593D02*
X013388Y033593D01*
X013388Y033435D02*
X013268Y033435D01*
X013257Y033276D02*
X013399Y033276D01*
X013557Y033118D02*
X013098Y033118D01*
X012557Y033118D02*
X012098Y033118D01*
X012257Y033276D02*
X012399Y033276D01*
X012388Y033435D02*
X012268Y033435D01*
X012268Y033593D02*
X012388Y033593D01*
X012488Y033752D02*
X012168Y033752D01*
X012049Y034069D02*
X012550Y034069D01*
X012391Y034227D02*
X012208Y034227D01*
X012268Y034386D02*
X012348Y034386D01*
X012348Y034544D02*
X012268Y034544D01*
X012217Y034703D02*
X012382Y034703D01*
X013115Y034861D02*
X013597Y034861D01*
X013439Y034703D02*
X013273Y034703D01*
X013308Y034544D02*
X013388Y034544D01*
X013388Y034386D02*
X013308Y034386D01*
X013264Y034227D02*
X013448Y034227D01*
X014049Y034069D02*
X014606Y034069D01*
X014645Y034029D02*
X015010Y034029D01*
X015268Y034287D01*
X015268Y034652D01*
X015010Y034909D01*
X014645Y034909D01*
X014388Y034652D01*
X014388Y034287D01*
X014645Y034029D01*
X014645Y033909D02*
X014388Y033652D01*
X014388Y033287D01*
X014645Y033029D01*
X015010Y033029D01*
X015268Y033287D01*
X015268Y033652D01*
X015010Y033909D01*
X014645Y033909D01*
X014488Y033752D02*
X014168Y033752D01*
X014268Y033593D02*
X014388Y033593D01*
X014388Y033435D02*
X014268Y033435D01*
X014257Y033276D02*
X014399Y033276D01*
X014557Y033118D02*
X014098Y033118D01*
X015098Y033118D02*
X015501Y033118D01*
X015348Y033276D02*
X015257Y033276D01*
X015268Y033435D02*
X015348Y033435D01*
X015348Y033593D02*
X015268Y033593D01*
X015168Y033752D02*
X015431Y033752D01*
X015589Y033910D02*
X011722Y033910D01*
X011606Y034069D02*
X011571Y034069D01*
X011351Y033969D02*
X011828Y033493D01*
X011828Y033469D01*
X011388Y033435D02*
X011268Y033435D01*
X011268Y033593D02*
X011388Y033593D01*
X011258Y033752D02*
X011168Y033752D01*
X011257Y033276D02*
X011399Y033276D01*
X011557Y033118D02*
X011098Y033118D01*
X009382Y034703D02*
X009217Y034703D01*
X007848Y033910D02*
X007808Y033910D01*
X007808Y033752D02*
X007848Y033752D01*
X007848Y033593D02*
X007808Y033593D01*
X007808Y033435D02*
X007848Y033435D01*
X007848Y033276D02*
X007808Y033276D01*
X007808Y033118D02*
X007848Y033118D01*
X007589Y033910D02*
X007579Y033910D01*
X006828Y034469D02*
X006307Y033949D01*
X006307Y032173D01*
X005889Y031755D01*
X005889Y016450D01*
X001952Y012513D01*
X001952Y007001D01*
X003280Y005672D01*
X003280Y005082D01*
X002884Y005063D02*
X001557Y005063D01*
X001557Y005034D02*
X001557Y005130D01*
X001461Y005130D01*
X001461Y005567D01*
X001229Y005567D01*
X001183Y005554D01*
X001142Y005531D01*
X001109Y005497D01*
X001085Y005456D01*
X001073Y005410D01*
X001073Y005130D01*
X001461Y005130D01*
X001461Y005034D01*
X001073Y005034D01*
X001073Y004753D01*
X001085Y004707D01*
X001109Y004666D01*
X001142Y004632D01*
X001183Y004609D01*
X001229Y004596D01*
X001461Y004596D01*
X001461Y005034D01*
X001557Y005034D01*
X001945Y005034D01*
X001945Y004753D01*
X001932Y004707D01*
X001909Y004666D01*
X001875Y004632D01*
X001834Y004609D01*
X001788Y004596D01*
X001557Y004596D01*
X001557Y005034D01*
X001557Y005130D02*
X001945Y005130D01*
X001945Y005410D01*
X001932Y005456D01*
X001909Y005497D01*
X001875Y005531D01*
X001834Y005554D01*
X001788Y005567D01*
X001557Y005567D01*
X001557Y005130D01*
X001557Y005221D02*
X001461Y005221D01*
X001461Y005063D02*
X000490Y005063D01*
X000490Y005221D02*
X001073Y005221D01*
X001073Y005380D02*
X000490Y005380D01*
X000490Y005538D02*
X001156Y005538D01*
X001461Y005538D02*
X001557Y005538D01*
X001557Y005380D02*
X001461Y005380D01*
X001862Y005538D02*
X003060Y005538D01*
X002944Y005697D02*
X000490Y005697D01*
X000490Y005855D02*
X002786Y005855D01*
X002627Y006014D02*
X000490Y006014D01*
X000490Y006172D02*
X002469Y006172D01*
X002310Y006331D02*
X000490Y006331D01*
X000490Y006489D02*
X002152Y006489D01*
X001993Y006648D02*
X000490Y006648D01*
X000490Y006806D02*
X001835Y006806D01*
X001732Y006965D02*
X000490Y006965D01*
X000490Y007123D02*
X001732Y007123D01*
X001732Y007282D02*
X000490Y007282D01*
X000490Y007440D02*
X001732Y007440D01*
X001732Y007599D02*
X000490Y007599D01*
X000490Y007757D02*
X001732Y007757D01*
X001732Y007916D02*
X000490Y007916D01*
X000490Y008074D02*
X001732Y008074D01*
X001732Y008233D02*
X000490Y008233D01*
X000490Y008391D02*
X001732Y008391D01*
X001732Y008550D02*
X000490Y008550D01*
X000490Y008708D02*
X001732Y008708D01*
X001732Y008867D02*
X000490Y008867D01*
X000490Y009025D02*
X001732Y009025D01*
X001732Y009184D02*
X000490Y009184D01*
X000490Y009342D02*
X001732Y009342D01*
X001732Y009501D02*
X000490Y009501D01*
X000490Y009659D02*
X001732Y009659D01*
X001732Y009818D02*
X000490Y009818D01*
X000490Y009976D02*
X001732Y009976D01*
X001732Y010135D02*
X000490Y010135D01*
X000490Y010293D02*
X001732Y010293D01*
X001732Y010452D02*
X000490Y010452D01*
X000490Y010610D02*
X001732Y010610D01*
X001732Y010769D02*
X001426Y010769D01*
X001370Y010713D02*
X000939Y010713D01*
X000634Y011018D01*
X000634Y011449D01*
X000939Y011753D01*
X001370Y011753D01*
X001674Y011449D01*
X001674Y011018D01*
X001370Y010713D01*
X001584Y010927D02*
X001732Y010927D01*
X001732Y011086D02*
X001674Y011086D01*
X001674Y011244D02*
X001732Y011244D01*
X001732Y011403D02*
X001674Y011403D01*
X001732Y011561D02*
X001561Y011561D01*
X001403Y011720D02*
X001732Y011720D01*
X001732Y011878D02*
X000490Y011878D01*
X000490Y011720D02*
X000906Y011720D01*
X000747Y011561D02*
X000490Y011561D01*
X000490Y011403D02*
X000634Y011403D01*
X000634Y011244D02*
X000490Y011244D01*
X000490Y011086D02*
X000634Y011086D01*
X000725Y010927D02*
X000490Y010927D01*
X000490Y010769D02*
X000883Y010769D01*
X000490Y012037D02*
X001732Y012037D01*
X001732Y012195D02*
X000490Y012195D01*
X000490Y012354D02*
X001732Y012354D01*
X001732Y012512D02*
X000490Y012512D01*
X000490Y012671D02*
X001799Y012671D01*
X001957Y012829D02*
X000490Y012829D01*
X000490Y012988D02*
X002116Y012988D01*
X002274Y013146D02*
X000490Y013146D01*
X000490Y013305D02*
X002433Y013305D01*
X002591Y013463D02*
X000490Y013463D01*
X000490Y013622D02*
X002750Y013622D01*
X002908Y013780D02*
X000490Y013780D01*
X000490Y013939D02*
X001728Y013939D01*
X001759Y013926D02*
X002066Y013926D01*
X002349Y014044D01*
X002566Y014261D01*
X002684Y014544D01*
X002684Y014851D01*
X002566Y015135D01*
X002349Y015352D01*
X002066Y015469D01*
X001759Y015469D01*
X001475Y015352D01*
X001258Y015135D01*
X001141Y014851D01*
X001141Y014544D01*
X001258Y014261D01*
X001475Y014044D01*
X001759Y013926D01*
X002096Y013939D02*
X003067Y013939D01*
X003225Y014097D02*
X002403Y014097D01*
X002561Y014256D02*
X003384Y014256D01*
X003542Y014414D02*
X002630Y014414D01*
X002684Y014573D02*
X003701Y014573D01*
X003859Y014731D02*
X002684Y014731D01*
X002668Y014890D02*
X004018Y014890D01*
X004176Y015048D02*
X002602Y015048D01*
X002494Y015207D02*
X004335Y015207D01*
X004493Y015365D02*
X002316Y015365D01*
X001509Y015365D02*
X000490Y015365D01*
X000490Y015207D02*
X001331Y015207D01*
X001223Y015048D02*
X000490Y015048D01*
X000490Y014890D02*
X001157Y014890D01*
X001141Y014731D02*
X000490Y014731D01*
X000490Y014573D02*
X001141Y014573D01*
X001195Y014414D02*
X000490Y014414D01*
X000490Y014256D02*
X001263Y014256D01*
X001422Y014097D02*
X000490Y014097D01*
X000490Y015524D02*
X004652Y015524D01*
X004810Y015682D02*
X000490Y015682D01*
X000490Y015841D02*
X004969Y015841D01*
X005127Y015999D02*
X000490Y015999D01*
X000490Y016158D02*
X005286Y016158D01*
X005444Y016316D02*
X000490Y016316D01*
X000490Y016475D02*
X005603Y016475D01*
X005669Y016633D02*
X000490Y016633D01*
X000490Y016792D02*
X005669Y016792D01*
X005669Y016950D02*
X000490Y016950D01*
X000490Y017109D02*
X005669Y017109D01*
X005669Y017267D02*
X000490Y017267D01*
X000490Y017426D02*
X005669Y017426D01*
X005669Y017584D02*
X000490Y017584D01*
X004635Y014097D02*
X005071Y014097D01*
X004793Y014256D02*
X005776Y014256D01*
X005405Y014214D02*
X005405Y014214D01*
X004681Y013939D02*
X004476Y013939D01*
X004428Y013780D02*
X004318Y013780D01*
X004179Y013624D02*
X004179Y013624D01*
X004177Y013622D02*
X004159Y013622D01*
X004019Y013463D02*
X004001Y013463D01*
X003860Y013305D02*
X003842Y013305D01*
X003702Y013146D02*
X003684Y013146D01*
X003600Y012988D02*
X003525Y012988D01*
X003500Y012829D02*
X003367Y012829D01*
X003400Y012671D02*
X003208Y012671D01*
X003331Y012560D02*
X003331Y012560D01*
X003314Y012512D02*
X003050Y012512D01*
X002891Y012354D02*
X003259Y012354D01*
X003203Y012195D02*
X002762Y012195D01*
X002762Y012037D02*
X003148Y012037D01*
X003104Y011914D02*
X003104Y011914D01*
X003100Y011878D02*
X002762Y011878D01*
X002762Y011720D02*
X003083Y011720D01*
X003065Y011561D02*
X002762Y011561D01*
X002762Y011403D02*
X003047Y011403D01*
X003029Y011244D02*
X002762Y011244D01*
X002762Y011086D02*
X003044Y011086D01*
X003028Y011233D02*
X003028Y011233D01*
X003062Y010927D02*
X002762Y010927D01*
X002762Y010769D02*
X003080Y010769D01*
X003098Y010610D02*
X002762Y010610D01*
X002762Y010452D02*
X003140Y010452D01*
X003195Y010293D02*
X002762Y010293D01*
X002762Y010135D02*
X003251Y010135D01*
X003306Y009976D02*
X002762Y009976D01*
X002762Y009818D02*
X003386Y009818D01*
X003331Y009906D02*
X003331Y009906D01*
X003486Y009659D02*
X002762Y009659D01*
X002762Y009501D02*
X003585Y009501D01*
X003685Y009342D02*
X002762Y009342D01*
X002762Y009184D02*
X003838Y009184D01*
X003996Y009025D02*
X002762Y009025D01*
X002762Y008867D02*
X004155Y008867D01*
X004179Y008843D02*
X004179Y008843D01*
X004392Y008708D02*
X002762Y008708D01*
X002762Y008550D02*
X004645Y008550D01*
X004759Y008478D02*
X004759Y008478D01*
X005007Y008391D02*
X002762Y008391D01*
X002762Y008233D02*
X005575Y008233D01*
X005405Y008252D02*
X005405Y008252D01*
X006086Y008175D02*
X006086Y008175D01*
X008533Y006806D02*
X003245Y006806D01*
X003403Y006648D02*
X008533Y006648D01*
X008533Y006489D02*
X003562Y006489D01*
X003720Y006331D02*
X008533Y006331D01*
X007029Y005538D02*
X006933Y005538D01*
X006933Y005586D02*
X006702Y005586D01*
X006656Y005574D01*
X006615Y005550D01*
X006581Y005517D01*
X006558Y005476D01*
X006545Y005430D01*
X006545Y005149D01*
X006933Y005149D01*
X006933Y005586D01*
X006933Y005380D02*
X007029Y005380D01*
X007029Y005221D02*
X006933Y005221D01*
X006933Y005063D02*
X006413Y005063D01*
X006413Y005221D02*
X006545Y005221D01*
X006545Y005380D02*
X006413Y005380D01*
X006603Y005538D02*
X005694Y005538D01*
X005839Y005082D02*
X006017Y005082D01*
X006413Y004904D02*
X006545Y004904D01*
X006552Y004746D02*
X006413Y004746D01*
X004293Y005221D02*
X004197Y005221D01*
X004197Y005063D02*
X003676Y005063D01*
X003676Y005221D02*
X003809Y005221D01*
X003809Y005380D02*
X003676Y005380D01*
X003500Y005538D02*
X003892Y005538D01*
X004197Y005538D02*
X004293Y005538D01*
X004293Y005380D02*
X004197Y005380D01*
X003809Y004904D02*
X003676Y004904D01*
X003676Y004746D02*
X003811Y004746D01*
X002884Y004746D02*
X001943Y004746D01*
X001945Y004904D02*
X002884Y004904D01*
X002884Y005221D02*
X001945Y005221D01*
X001945Y005380D02*
X002884Y005380D01*
X001557Y004904D02*
X001461Y004904D01*
X001461Y004746D02*
X001557Y004746D01*
X001075Y004746D02*
X000490Y004746D01*
X000490Y004904D02*
X001073Y004904D01*
X009908Y010452D02*
X010285Y010452D01*
X010285Y010610D02*
X009908Y010610D01*
X009908Y010769D02*
X010285Y010769D01*
X010285Y010927D02*
X009908Y010927D01*
X009908Y011086D02*
X010285Y011086D01*
X010285Y011244D02*
X009908Y011244D01*
X009908Y011403D02*
X010285Y011403D01*
X010285Y011561D02*
X009908Y011561D01*
X009908Y011720D02*
X010285Y011720D01*
X010285Y011878D02*
X009908Y011878D01*
X009908Y012037D02*
X010285Y012037D01*
X010285Y012195D02*
X009908Y012195D01*
X012408Y012195D02*
X012854Y012195D01*
X012854Y012037D02*
X012408Y012037D01*
X012408Y011878D02*
X012854Y011878D01*
X012854Y011720D02*
X012408Y011720D01*
X012408Y011561D02*
X012854Y011561D01*
X013074Y011430D02*
X012877Y011233D01*
X013074Y011430D02*
X013074Y017631D01*
X012542Y018162D01*
X012542Y019087D01*
X012094Y018852D02*
X011719Y018852D01*
X011719Y018694D02*
X012223Y018694D01*
X012322Y018535D02*
X011719Y018535D01*
X011719Y018377D02*
X012322Y018377D01*
X012322Y018218D02*
X011813Y018218D01*
X011971Y018060D02*
X012333Y018060D01*
X012492Y017901D02*
X012130Y017901D01*
X012288Y017743D02*
X012650Y017743D01*
X012809Y017584D02*
X012408Y017584D01*
X012408Y017426D02*
X012854Y017426D01*
X012854Y017267D02*
X012408Y017267D01*
X012408Y017109D02*
X012854Y017109D01*
X012854Y016950D02*
X012408Y016950D01*
X012408Y016792D02*
X012854Y016792D01*
X012854Y016633D02*
X012408Y016633D01*
X012408Y016475D02*
X012854Y016475D01*
X012854Y016316D02*
X012408Y016316D01*
X012408Y016158D02*
X012854Y016158D01*
X012854Y015999D02*
X012408Y015999D01*
X012408Y015841D02*
X012854Y015841D01*
X012854Y015682D02*
X012408Y015682D01*
X012408Y015524D02*
X012854Y015524D01*
X012854Y015365D02*
X012408Y015365D01*
X012408Y015207D02*
X012854Y015207D01*
X012854Y015048D02*
X012408Y015048D01*
X012408Y014890D02*
X012854Y014890D01*
X012854Y014731D02*
X012408Y014731D01*
X012408Y014573D02*
X012854Y014573D01*
X012854Y014414D02*
X012408Y014414D01*
X012408Y014256D02*
X012854Y014256D01*
X012854Y014097D02*
X012408Y014097D01*
X012408Y013939D02*
X012854Y013939D01*
X012854Y013780D02*
X012408Y013780D01*
X012408Y013622D02*
X012854Y013622D01*
X012854Y013463D02*
X012408Y013463D01*
X012408Y013305D02*
X012854Y013305D01*
X012854Y013146D02*
X012408Y013146D01*
X012408Y012988D02*
X012854Y012988D01*
X012854Y012829D02*
X012408Y012829D01*
X012408Y012671D02*
X012854Y012671D01*
X012854Y012512D02*
X012408Y012512D01*
X012408Y012354D02*
X012854Y012354D01*
X012604Y011403D02*
X012408Y011403D01*
X012408Y011244D02*
X012560Y011244D01*
X012595Y011086D02*
X012408Y011086D01*
X011263Y007611D02*
X011263Y017572D01*
X010810Y018024D01*
X010810Y029639D01*
X010771Y029599D01*
X006557Y033118D02*
X006527Y033118D01*
X006087Y033832D02*
X006010Y033909D01*
X005645Y033909D01*
X005567Y033831D01*
X005567Y034051D01*
X005629Y033989D01*
X005808Y033989D01*
X005808Y034449D01*
X005848Y034449D01*
X005848Y034489D01*
X006308Y034489D01*
X006308Y034668D01*
X006144Y034832D01*
X006568Y034832D01*
X006388Y034652D01*
X006388Y034340D01*
X006087Y034040D01*
X006087Y033832D01*
X006087Y033910D02*
X005567Y033910D01*
X005347Y034019D02*
X004897Y034469D01*
X004828Y034469D01*
X005268Y034409D02*
X005268Y034652D01*
X005087Y034832D01*
X005511Y034832D01*
X005348Y034668D01*
X005348Y034489D01*
X005808Y034489D01*
X005808Y034449D01*
X005348Y034449D01*
X005348Y034329D01*
X005268Y034409D01*
X005292Y034386D02*
X005348Y034386D01*
X005348Y034544D02*
X005268Y034544D01*
X005217Y034703D02*
X005382Y034703D01*
X005848Y034449D02*
X005848Y033989D01*
X006026Y033989D01*
X006308Y034271D01*
X006308Y034449D01*
X005848Y034449D01*
X005848Y034386D02*
X005808Y034386D01*
X005808Y034227D02*
X005848Y034227D01*
X005848Y034069D02*
X005808Y034069D01*
X006106Y034069D02*
X006116Y034069D01*
X006264Y034227D02*
X006274Y034227D01*
X006308Y034386D02*
X006388Y034386D01*
X006388Y034544D02*
X006308Y034544D01*
X006273Y034703D02*
X006439Y034703D01*
X004557Y033118D02*
X004098Y033118D01*
X004257Y033276D02*
X004399Y033276D01*
X003606Y034069D02*
X003540Y034069D01*
X014058Y034861D02*
X014597Y034861D01*
X014439Y034703D02*
X014217Y034703D01*
X014268Y034544D02*
X014388Y034544D01*
X014388Y034386D02*
X014268Y034386D01*
X014208Y034227D02*
X014448Y034227D01*
X015049Y034069D02*
X015606Y034069D01*
X015448Y034227D02*
X015208Y034227D01*
X015268Y034386D02*
X015388Y034386D01*
X015388Y034544D02*
X015268Y034544D01*
X015217Y034703D02*
X015439Y034703D01*
X015597Y034861D02*
X015058Y034861D01*
X025040Y034703D02*
X029966Y034703D01*
X029723Y034544D02*
X025283Y034544D01*
X025418Y034386D02*
X029588Y034386D01*
X029522Y034227D02*
X025483Y034227D01*
X025518Y034069D02*
X029487Y034069D01*
X029487Y033910D02*
X025518Y033910D01*
X025483Y033752D02*
X029522Y033752D01*
X029588Y033593D02*
X025418Y033593D01*
X025283Y033435D02*
X029722Y033435D01*
X029965Y033276D02*
X025041Y033276D01*
X025475Y031312D02*
X025475Y024865D01*
X031810Y021705D02*
X013852Y021705D01*
X013852Y021625D02*
X013852Y021825D01*
X013776Y022011D01*
X013634Y022152D01*
X013449Y022229D01*
X012521Y022229D01*
X012336Y022152D01*
X012194Y022011D01*
X012117Y021825D01*
X012117Y021625D01*
X012194Y021440D01*
X012336Y021298D01*
X012521Y021222D01*
X013449Y021222D01*
X013634Y021298D01*
X013776Y021440D01*
X013852Y021625D01*
X013820Y021547D02*
X031810Y021547D01*
X031810Y021388D02*
X013724Y021388D01*
X013469Y021230D02*
X031810Y021230D01*
X031810Y021071D02*
X011719Y021071D01*
X011719Y020913D02*
X031810Y020913D01*
X031810Y020754D02*
X011719Y020754D01*
X011719Y020596D02*
X031810Y020596D01*
X031900Y021864D02*
X013836Y021864D01*
X013764Y022022D02*
X032058Y022022D01*
X032217Y022181D02*
X013565Y022181D01*
X012405Y022181D02*
X011719Y022181D01*
X011719Y022339D02*
X032375Y022339D01*
X032534Y022498D02*
X011719Y022498D01*
X011719Y022656D02*
X032692Y022656D01*
X032851Y022815D02*
X011719Y022815D01*
X011719Y022973D02*
X032991Y022973D01*
X032991Y023132D02*
X011719Y023132D01*
X011719Y023290D02*
X032991Y023290D01*
X032991Y023449D02*
X011719Y023449D01*
X011719Y023607D02*
X032991Y023607D01*
X032991Y023766D02*
X011719Y023766D01*
X011719Y023924D02*
X032991Y023924D01*
X032991Y024083D02*
X011719Y024083D01*
X011719Y024241D02*
X032991Y024241D01*
X027082Y019169D02*
X013773Y019169D01*
X013773Y019011D02*
X026915Y019011D01*
X024343Y015365D02*
X019030Y015365D01*
X018872Y015207D02*
X024165Y015207D01*
X024057Y015048D02*
X018713Y015048D01*
X018555Y014890D02*
X023992Y014890D01*
X023976Y014731D02*
X018396Y014731D01*
X018238Y014573D02*
X023976Y014573D01*
X024029Y014414D02*
X018079Y014414D01*
X017921Y014256D02*
X024098Y014256D01*
X024256Y014097D02*
X017762Y014097D01*
X017604Y013939D02*
X024563Y013939D01*
X018976Y006014D02*
X018432Y006014D01*
X018432Y005855D02*
X019042Y005855D01*
X019212Y005697D02*
X018432Y005697D01*
X015130Y002051D02*
X015053Y002051D01*
X015053Y001893D02*
X015130Y001893D01*
X015130Y001734D02*
X015053Y001734D01*
X015053Y001576D02*
X015130Y001576D01*
X015130Y001417D02*
X015053Y001417D01*
X015053Y001259D02*
X015130Y001259D01*
X014774Y001259D02*
X014636Y001259D01*
X011301Y006489D02*
X011225Y006489D01*
X011225Y006648D02*
X011301Y006648D01*
X011301Y006965D02*
X011225Y006965D01*
X011225Y007123D02*
X011301Y007123D01*
X010921Y007282D02*
X010846Y007282D01*
X010881Y007440D02*
X010886Y007440D01*
X011719Y019011D02*
X012038Y019011D01*
X012038Y019169D02*
X011719Y019169D01*
X011719Y019328D02*
X012097Y019328D01*
X012229Y019486D02*
X011719Y019486D01*
X011719Y021230D02*
X012500Y021230D01*
X012245Y021388D02*
X011719Y021388D01*
X011719Y021547D02*
X012150Y021547D01*
X012117Y021705D02*
X011719Y021705D01*
X011719Y021864D02*
X012133Y021864D01*
X012206Y022022D02*
X011719Y022022D01*
X033326Y030423D02*
X033786Y030423D01*
X033650Y030581D02*
X033462Y030581D01*
X033516Y030740D02*
X033596Y030740D01*
X033597Y030899D02*
X033515Y030899D01*
X033449Y031057D02*
X033663Y031057D01*
X033847Y031216D02*
X033265Y031216D01*
X033220Y031374D02*
X033892Y031374D01*
X033677Y031533D02*
X033435Y031533D01*
X033507Y031691D02*
X033605Y031691D01*
X033596Y031850D02*
X033516Y031850D01*
X033469Y032008D02*
X033643Y032008D01*
D11*
X029718Y033989D02*
X029720Y034035D01*
X029726Y034080D01*
X029735Y034125D01*
X029749Y034169D01*
X029766Y034212D01*
X029787Y034253D01*
X029811Y034292D01*
X029838Y034329D01*
X029868Y034363D01*
X029902Y034395D01*
X029937Y034424D01*
X029975Y034450D01*
X030015Y034472D01*
X030057Y034491D01*
X030101Y034506D01*
X030145Y034518D01*
X030190Y034526D01*
X030236Y034530D01*
X030282Y034530D01*
X030328Y034526D01*
X030373Y034518D01*
X030417Y034506D01*
X030461Y034491D01*
X030503Y034472D01*
X030543Y034450D01*
X030581Y034424D01*
X030616Y034395D01*
X030650Y034363D01*
X030680Y034329D01*
X030707Y034292D01*
X030731Y034253D01*
X030752Y034212D01*
X030769Y034169D01*
X030783Y034125D01*
X030792Y034080D01*
X030798Y034035D01*
X030800Y033989D01*
X030798Y033943D01*
X030792Y033898D01*
X030783Y033853D01*
X030769Y033809D01*
X030752Y033766D01*
X030731Y033725D01*
X030707Y033686D01*
X030680Y033649D01*
X030650Y033615D01*
X030616Y033583D01*
X030581Y033554D01*
X030543Y033528D01*
X030503Y033506D01*
X030461Y033487D01*
X030417Y033472D01*
X030373Y033460D01*
X030328Y033452D01*
X030282Y033448D01*
X030236Y033448D01*
X030190Y033452D01*
X030145Y033460D01*
X030101Y033472D01*
X030057Y033487D01*
X030015Y033506D01*
X029975Y033528D01*
X029937Y033554D01*
X029902Y033583D01*
X029868Y033615D01*
X029838Y033649D01*
X029811Y033686D01*
X029787Y033725D01*
X029766Y033766D01*
X029749Y033809D01*
X029735Y033853D01*
X029726Y033898D01*
X029720Y033943D01*
X029718Y033989D01*
X024206Y033989D02*
X024208Y034035D01*
X024214Y034080D01*
X024223Y034125D01*
X024237Y034169D01*
X024254Y034212D01*
X024275Y034253D01*
X024299Y034292D01*
X024326Y034329D01*
X024356Y034363D01*
X024390Y034395D01*
X024425Y034424D01*
X024463Y034450D01*
X024503Y034472D01*
X024545Y034491D01*
X024589Y034506D01*
X024633Y034518D01*
X024678Y034526D01*
X024724Y034530D01*
X024770Y034530D01*
X024816Y034526D01*
X024861Y034518D01*
X024905Y034506D01*
X024949Y034491D01*
X024991Y034472D01*
X025031Y034450D01*
X025069Y034424D01*
X025104Y034395D01*
X025138Y034363D01*
X025168Y034329D01*
X025195Y034292D01*
X025219Y034253D01*
X025240Y034212D01*
X025257Y034169D01*
X025271Y034125D01*
X025280Y034080D01*
X025286Y034035D01*
X025288Y033989D01*
X025286Y033943D01*
X025280Y033898D01*
X025271Y033853D01*
X025257Y033809D01*
X025240Y033766D01*
X025219Y033725D01*
X025195Y033686D01*
X025168Y033649D01*
X025138Y033615D01*
X025104Y033583D01*
X025069Y033554D01*
X025031Y033528D01*
X024991Y033506D01*
X024949Y033487D01*
X024905Y033472D01*
X024861Y033460D01*
X024816Y033452D01*
X024770Y033448D01*
X024724Y033448D01*
X024678Y033452D01*
X024633Y033460D01*
X024589Y033472D01*
X024545Y033487D01*
X024503Y033506D01*
X024463Y033528D01*
X024425Y033554D01*
X024390Y033583D01*
X024356Y033615D01*
X024326Y033649D01*
X024299Y033686D01*
X024275Y033725D01*
X024254Y033766D01*
X024237Y033809D01*
X024223Y033853D01*
X024214Y033898D01*
X024208Y033943D01*
X024206Y033989D01*
X036184Y034341D02*
X036186Y034391D01*
X036192Y034441D01*
X036202Y034490D01*
X036216Y034538D01*
X036233Y034585D01*
X036254Y034630D01*
X036279Y034674D01*
X036307Y034715D01*
X036339Y034754D01*
X036373Y034791D01*
X036410Y034825D01*
X036450Y034855D01*
X036492Y034882D01*
X036536Y034906D01*
X036582Y034927D01*
X036629Y034943D01*
X036677Y034956D01*
X036727Y034965D01*
X036776Y034970D01*
X036827Y034971D01*
X036877Y034968D01*
X036926Y034961D01*
X036975Y034950D01*
X037023Y034935D01*
X037069Y034917D01*
X037114Y034895D01*
X037157Y034869D01*
X037198Y034840D01*
X037237Y034808D01*
X037273Y034773D01*
X037305Y034735D01*
X037335Y034695D01*
X037362Y034652D01*
X037385Y034608D01*
X037404Y034562D01*
X037420Y034514D01*
X037432Y034465D01*
X037440Y034416D01*
X037444Y034366D01*
X037444Y034316D01*
X037440Y034266D01*
X037432Y034217D01*
X037420Y034168D01*
X037404Y034120D01*
X037385Y034074D01*
X037362Y034030D01*
X037335Y033987D01*
X037305Y033947D01*
X037273Y033909D01*
X037237Y033874D01*
X037198Y033842D01*
X037157Y033813D01*
X037114Y033787D01*
X037069Y033765D01*
X037023Y033747D01*
X036975Y033732D01*
X036926Y033721D01*
X036877Y033714D01*
X036827Y033711D01*
X036776Y033712D01*
X036727Y033717D01*
X036677Y033726D01*
X036629Y033739D01*
X036582Y033755D01*
X036536Y033776D01*
X036492Y033800D01*
X036450Y033827D01*
X036410Y033857D01*
X036373Y033891D01*
X036339Y033928D01*
X036307Y033967D01*
X036279Y034008D01*
X036254Y034052D01*
X036233Y034097D01*
X036216Y034144D01*
X036202Y034192D01*
X036192Y034241D01*
X036186Y034291D01*
X036184Y034341D01*
X046184Y034341D02*
X046186Y034391D01*
X046192Y034441D01*
X046202Y034490D01*
X046216Y034538D01*
X046233Y034585D01*
X046254Y034630D01*
X046279Y034674D01*
X046307Y034715D01*
X046339Y034754D01*
X046373Y034791D01*
X046410Y034825D01*
X046450Y034855D01*
X046492Y034882D01*
X046536Y034906D01*
X046582Y034927D01*
X046629Y034943D01*
X046677Y034956D01*
X046727Y034965D01*
X046776Y034970D01*
X046827Y034971D01*
X046877Y034968D01*
X046926Y034961D01*
X046975Y034950D01*
X047023Y034935D01*
X047069Y034917D01*
X047114Y034895D01*
X047157Y034869D01*
X047198Y034840D01*
X047237Y034808D01*
X047273Y034773D01*
X047305Y034735D01*
X047335Y034695D01*
X047362Y034652D01*
X047385Y034608D01*
X047404Y034562D01*
X047420Y034514D01*
X047432Y034465D01*
X047440Y034416D01*
X047444Y034366D01*
X047444Y034316D01*
X047440Y034266D01*
X047432Y034217D01*
X047420Y034168D01*
X047404Y034120D01*
X047385Y034074D01*
X047362Y034030D01*
X047335Y033987D01*
X047305Y033947D01*
X047273Y033909D01*
X047237Y033874D01*
X047198Y033842D01*
X047157Y033813D01*
X047114Y033787D01*
X047069Y033765D01*
X047023Y033747D01*
X046975Y033732D01*
X046926Y033721D01*
X046877Y033714D01*
X046827Y033711D01*
X046776Y033712D01*
X046727Y033717D01*
X046677Y033726D01*
X046629Y033739D01*
X046582Y033755D01*
X046536Y033776D01*
X046492Y033800D01*
X046450Y033827D01*
X046410Y033857D01*
X046373Y033891D01*
X046339Y033928D01*
X046307Y033967D01*
X046279Y034008D01*
X046254Y034052D01*
X046233Y034097D01*
X046216Y034144D01*
X046202Y034192D01*
X046192Y034241D01*
X046186Y034291D01*
X046184Y034341D01*
X046184Y017841D02*
X046186Y017891D01*
X046192Y017941D01*
X046202Y017990D01*
X046216Y018038D01*
X046233Y018085D01*
X046254Y018130D01*
X046279Y018174D01*
X046307Y018215D01*
X046339Y018254D01*
X046373Y018291D01*
X046410Y018325D01*
X046450Y018355D01*
X046492Y018382D01*
X046536Y018406D01*
X046582Y018427D01*
X046629Y018443D01*
X046677Y018456D01*
X046727Y018465D01*
X046776Y018470D01*
X046827Y018471D01*
X046877Y018468D01*
X046926Y018461D01*
X046975Y018450D01*
X047023Y018435D01*
X047069Y018417D01*
X047114Y018395D01*
X047157Y018369D01*
X047198Y018340D01*
X047237Y018308D01*
X047273Y018273D01*
X047305Y018235D01*
X047335Y018195D01*
X047362Y018152D01*
X047385Y018108D01*
X047404Y018062D01*
X047420Y018014D01*
X047432Y017965D01*
X047440Y017916D01*
X047444Y017866D01*
X047444Y017816D01*
X047440Y017766D01*
X047432Y017717D01*
X047420Y017668D01*
X047404Y017620D01*
X047385Y017574D01*
X047362Y017530D01*
X047335Y017487D01*
X047305Y017447D01*
X047273Y017409D01*
X047237Y017374D01*
X047198Y017342D01*
X047157Y017313D01*
X047114Y017287D01*
X047069Y017265D01*
X047023Y017247D01*
X046975Y017232D01*
X046926Y017221D01*
X046877Y017214D01*
X046827Y017211D01*
X046776Y017212D01*
X046727Y017217D01*
X046677Y017226D01*
X046629Y017239D01*
X046582Y017255D01*
X046536Y017276D01*
X046492Y017300D01*
X046450Y017327D01*
X046410Y017357D01*
X046373Y017391D01*
X046339Y017428D01*
X046307Y017467D01*
X046279Y017508D01*
X046254Y017552D01*
X046233Y017597D01*
X046216Y017644D01*
X046202Y017692D01*
X046192Y017741D01*
X046186Y017791D01*
X046184Y017841D01*
X036184Y017841D02*
X036186Y017891D01*
X036192Y017941D01*
X036202Y017990D01*
X036216Y018038D01*
X036233Y018085D01*
X036254Y018130D01*
X036279Y018174D01*
X036307Y018215D01*
X036339Y018254D01*
X036373Y018291D01*
X036410Y018325D01*
X036450Y018355D01*
X036492Y018382D01*
X036536Y018406D01*
X036582Y018427D01*
X036629Y018443D01*
X036677Y018456D01*
X036727Y018465D01*
X036776Y018470D01*
X036827Y018471D01*
X036877Y018468D01*
X036926Y018461D01*
X036975Y018450D01*
X037023Y018435D01*
X037069Y018417D01*
X037114Y018395D01*
X037157Y018369D01*
X037198Y018340D01*
X037237Y018308D01*
X037273Y018273D01*
X037305Y018235D01*
X037335Y018195D01*
X037362Y018152D01*
X037385Y018108D01*
X037404Y018062D01*
X037420Y018014D01*
X037432Y017965D01*
X037440Y017916D01*
X037444Y017866D01*
X037444Y017816D01*
X037440Y017766D01*
X037432Y017717D01*
X037420Y017668D01*
X037404Y017620D01*
X037385Y017574D01*
X037362Y017530D01*
X037335Y017487D01*
X037305Y017447D01*
X037273Y017409D01*
X037237Y017374D01*
X037198Y017342D01*
X037157Y017313D01*
X037114Y017287D01*
X037069Y017265D01*
X037023Y017247D01*
X036975Y017232D01*
X036926Y017221D01*
X036877Y017214D01*
X036827Y017211D01*
X036776Y017212D01*
X036727Y017217D01*
X036677Y017226D01*
X036629Y017239D01*
X036582Y017255D01*
X036536Y017276D01*
X036492Y017300D01*
X036450Y017327D01*
X036410Y017357D01*
X036373Y017391D01*
X036339Y017428D01*
X036307Y017467D01*
X036279Y017508D01*
X036254Y017552D01*
X036233Y017597D01*
X036216Y017644D01*
X036202Y017692D01*
X036192Y017741D01*
X036186Y017791D01*
X036184Y017841D01*
X024206Y014698D02*
X024208Y014744D01*
X024214Y014789D01*
X024223Y014834D01*
X024237Y014878D01*
X024254Y014921D01*
X024275Y014962D01*
X024299Y015001D01*
X024326Y015038D01*
X024356Y015072D01*
X024390Y015104D01*
X024425Y015133D01*
X024463Y015159D01*
X024503Y015181D01*
X024545Y015200D01*
X024589Y015215D01*
X024633Y015227D01*
X024678Y015235D01*
X024724Y015239D01*
X024770Y015239D01*
X024816Y015235D01*
X024861Y015227D01*
X024905Y015215D01*
X024949Y015200D01*
X024991Y015181D01*
X025031Y015159D01*
X025069Y015133D01*
X025104Y015104D01*
X025138Y015072D01*
X025168Y015038D01*
X025195Y015001D01*
X025219Y014962D01*
X025240Y014921D01*
X025257Y014878D01*
X025271Y014834D01*
X025280Y014789D01*
X025286Y014744D01*
X025288Y014698D01*
X025286Y014652D01*
X025280Y014607D01*
X025271Y014562D01*
X025257Y014518D01*
X025240Y014475D01*
X025219Y014434D01*
X025195Y014395D01*
X025168Y014358D01*
X025138Y014324D01*
X025104Y014292D01*
X025069Y014263D01*
X025031Y014237D01*
X024991Y014215D01*
X024949Y014196D01*
X024905Y014181D01*
X024861Y014169D01*
X024816Y014161D01*
X024770Y014157D01*
X024724Y014157D01*
X024678Y014161D01*
X024633Y014169D01*
X024589Y014181D01*
X024545Y014196D01*
X024503Y014215D01*
X024463Y014237D01*
X024425Y014263D01*
X024390Y014292D01*
X024356Y014324D01*
X024326Y014358D01*
X024299Y014395D01*
X024275Y014434D01*
X024254Y014475D01*
X024237Y014518D01*
X024223Y014562D01*
X024214Y014607D01*
X024208Y014652D01*
X024206Y014698D01*
X024206Y001706D02*
X024208Y001752D01*
X024214Y001797D01*
X024223Y001842D01*
X024237Y001886D01*
X024254Y001929D01*
X024275Y001970D01*
X024299Y002009D01*
X024326Y002046D01*
X024356Y002080D01*
X024390Y002112D01*
X024425Y002141D01*
X024463Y002167D01*
X024503Y002189D01*
X024545Y002208D01*
X024589Y002223D01*
X024633Y002235D01*
X024678Y002243D01*
X024724Y002247D01*
X024770Y002247D01*
X024816Y002243D01*
X024861Y002235D01*
X024905Y002223D01*
X024949Y002208D01*
X024991Y002189D01*
X025031Y002167D01*
X025069Y002141D01*
X025104Y002112D01*
X025138Y002080D01*
X025168Y002046D01*
X025195Y002009D01*
X025219Y001970D01*
X025240Y001929D01*
X025257Y001886D01*
X025271Y001842D01*
X025280Y001797D01*
X025286Y001752D01*
X025288Y001706D01*
X025286Y001660D01*
X025280Y001615D01*
X025271Y001570D01*
X025257Y001526D01*
X025240Y001483D01*
X025219Y001442D01*
X025195Y001403D01*
X025168Y001366D01*
X025138Y001332D01*
X025104Y001300D01*
X025069Y001271D01*
X025031Y001245D01*
X024991Y001223D01*
X024949Y001204D01*
X024905Y001189D01*
X024861Y001177D01*
X024816Y001169D01*
X024770Y001165D01*
X024724Y001165D01*
X024678Y001169D01*
X024633Y001177D01*
X024589Y001189D01*
X024545Y001204D01*
X024503Y001223D01*
X024463Y001245D01*
X024425Y001271D01*
X024390Y001300D01*
X024356Y001332D01*
X024326Y001366D01*
X024299Y001403D01*
X024275Y001442D01*
X024254Y001483D01*
X024237Y001526D01*
X024223Y001570D01*
X024214Y001615D01*
X024208Y001660D01*
X024206Y001706D01*
X001371Y014698D02*
X001373Y014744D01*
X001379Y014789D01*
X001388Y014834D01*
X001402Y014878D01*
X001419Y014921D01*
X001440Y014962D01*
X001464Y015001D01*
X001491Y015038D01*
X001521Y015072D01*
X001555Y015104D01*
X001590Y015133D01*
X001628Y015159D01*
X001668Y015181D01*
X001710Y015200D01*
X001754Y015215D01*
X001798Y015227D01*
X001843Y015235D01*
X001889Y015239D01*
X001935Y015239D01*
X001981Y015235D01*
X002026Y015227D01*
X002070Y015215D01*
X002114Y015200D01*
X002156Y015181D01*
X002196Y015159D01*
X002234Y015133D01*
X002269Y015104D01*
X002303Y015072D01*
X002333Y015038D01*
X002360Y015001D01*
X002384Y014962D01*
X002405Y014921D01*
X002422Y014878D01*
X002436Y014834D01*
X002445Y014789D01*
X002451Y014744D01*
X002453Y014698D01*
X002451Y014652D01*
X002445Y014607D01*
X002436Y014562D01*
X002422Y014518D01*
X002405Y014475D01*
X002384Y014434D01*
X002360Y014395D01*
X002333Y014358D01*
X002303Y014324D01*
X002269Y014292D01*
X002234Y014263D01*
X002196Y014237D01*
X002156Y014215D01*
X002114Y014196D01*
X002070Y014181D01*
X002026Y014169D01*
X001981Y014161D01*
X001935Y014157D01*
X001889Y014157D01*
X001843Y014161D01*
X001798Y014169D01*
X001754Y014181D01*
X001710Y014196D01*
X001668Y014215D01*
X001628Y014237D01*
X001590Y014263D01*
X001555Y014292D01*
X001521Y014324D01*
X001491Y014358D01*
X001464Y014395D01*
X001440Y014434D01*
X001419Y014475D01*
X001402Y014518D01*
X001388Y014562D01*
X001379Y014607D01*
X001373Y014652D01*
X001371Y014698D01*
X001371Y018635D02*
X001373Y018681D01*
X001379Y018726D01*
X001388Y018771D01*
X001402Y018815D01*
X001419Y018858D01*
X001440Y018899D01*
X001464Y018938D01*
X001491Y018975D01*
X001521Y019009D01*
X001555Y019041D01*
X001590Y019070D01*
X001628Y019096D01*
X001668Y019118D01*
X001710Y019137D01*
X001754Y019152D01*
X001798Y019164D01*
X001843Y019172D01*
X001889Y019176D01*
X001935Y019176D01*
X001981Y019172D01*
X002026Y019164D01*
X002070Y019152D01*
X002114Y019137D01*
X002156Y019118D01*
X002196Y019096D01*
X002234Y019070D01*
X002269Y019041D01*
X002303Y019009D01*
X002333Y018975D01*
X002360Y018938D01*
X002384Y018899D01*
X002405Y018858D01*
X002422Y018815D01*
X002436Y018771D01*
X002445Y018726D01*
X002451Y018681D01*
X002453Y018635D01*
X002451Y018589D01*
X002445Y018544D01*
X002436Y018499D01*
X002422Y018455D01*
X002405Y018412D01*
X002384Y018371D01*
X002360Y018332D01*
X002333Y018295D01*
X002303Y018261D01*
X002269Y018229D01*
X002234Y018200D01*
X002196Y018174D01*
X002156Y018152D01*
X002114Y018133D01*
X002070Y018118D01*
X002026Y018106D01*
X001981Y018098D01*
X001935Y018094D01*
X001889Y018094D01*
X001843Y018098D01*
X001798Y018106D01*
X001754Y018118D01*
X001710Y018133D01*
X001668Y018152D01*
X001628Y018174D01*
X001590Y018200D01*
X001555Y018229D01*
X001521Y018261D01*
X001491Y018295D01*
X001464Y018332D01*
X001440Y018371D01*
X001419Y018412D01*
X001402Y018455D01*
X001388Y018499D01*
X001379Y018544D01*
X001373Y018589D01*
X001371Y018635D01*
X001371Y033989D02*
X001373Y034035D01*
X001379Y034080D01*
X001388Y034125D01*
X001402Y034169D01*
X001419Y034212D01*
X001440Y034253D01*
X001464Y034292D01*
X001491Y034329D01*
X001521Y034363D01*
X001555Y034395D01*
X001590Y034424D01*
X001628Y034450D01*
X001668Y034472D01*
X001710Y034491D01*
X001754Y034506D01*
X001798Y034518D01*
X001843Y034526D01*
X001889Y034530D01*
X001935Y034530D01*
X001981Y034526D01*
X002026Y034518D01*
X002070Y034506D01*
X002114Y034491D01*
X002156Y034472D01*
X002196Y034450D01*
X002234Y034424D01*
X002269Y034395D01*
X002303Y034363D01*
X002333Y034329D01*
X002360Y034292D01*
X002384Y034253D01*
X002405Y034212D01*
X002422Y034169D01*
X002436Y034125D01*
X002445Y034080D01*
X002451Y034035D01*
X002453Y033989D01*
X002451Y033943D01*
X002445Y033898D01*
X002436Y033853D01*
X002422Y033809D01*
X002405Y033766D01*
X002384Y033725D01*
X002360Y033686D01*
X002333Y033649D01*
X002303Y033615D01*
X002269Y033583D01*
X002234Y033554D01*
X002196Y033528D01*
X002156Y033506D01*
X002114Y033487D01*
X002070Y033472D01*
X002026Y033460D01*
X001981Y033452D01*
X001935Y033448D01*
X001889Y033448D01*
X001843Y033452D01*
X001798Y033460D01*
X001754Y033472D01*
X001710Y033487D01*
X001668Y033506D01*
X001628Y033528D01*
X001590Y033554D01*
X001555Y033583D01*
X001521Y033615D01*
X001491Y033649D01*
X001464Y033686D01*
X001440Y033725D01*
X001419Y033766D01*
X001402Y033809D01*
X001388Y033853D01*
X001379Y033898D01*
X001373Y033943D01*
X001371Y033989D01*
D12*
X012621Y021725D02*
X013348Y021725D01*
X013270Y019087D02*
X012542Y019087D01*
X021106Y029363D02*
X021834Y029363D01*
X023015Y029363D02*
X023742Y029363D01*
X023015Y030544D02*
X022287Y030544D01*
X023802Y030938D02*
X024530Y030938D01*
X027012Y029363D02*
X027739Y029363D01*
X028526Y028969D02*
X028526Y028242D01*
X029708Y028576D02*
X030435Y028576D01*
X034432Y022080D02*
X035159Y022080D01*
X032797Y019914D02*
X032070Y019914D01*
X032070Y017946D02*
X032797Y017946D01*
X032797Y015977D02*
X032070Y015977D01*
X030041Y014796D02*
X029314Y014796D01*
X028073Y018733D02*
X027345Y018733D01*
X034432Y013812D02*
X035159Y013812D01*
X020199Y006135D02*
X019471Y006135D01*
X016656Y006528D02*
X015928Y006528D01*
D13*
X041798Y013143D03*
X042979Y014993D03*
X044121Y013143D03*
D14*
X034056Y030804D03*
X033056Y030804D03*
X033056Y031804D03*
X034056Y031804D03*
X034056Y032804D03*
X033056Y032804D03*
D15*
X046213Y003290D03*
X046213Y002503D03*
D16*
X045328Y001558D03*
X045328Y004235D03*
D17*
X011440Y005111D03*
X009668Y005111D03*
X008753Y005101D03*
X006981Y005101D03*
X006017Y005082D03*
X004245Y005082D03*
X003280Y005082D03*
X001509Y005082D03*
X001509Y001952D03*
X003280Y001952D03*
X004245Y001952D03*
X006017Y001952D03*
X006981Y001971D03*
X008753Y001971D03*
X009668Y001981D03*
X011440Y001981D03*
D18*
X014304Y001656D03*
X015091Y001656D03*
X011263Y006784D03*
X010505Y006784D03*
X009688Y006804D03*
X009688Y007631D03*
X010505Y007611D03*
X011263Y007611D03*
D19*
X041870Y007788D03*
X042650Y007788D03*
X042650Y008773D03*
X041870Y008773D03*
D20*
X043720Y010650D03*
X043720Y005910D03*
D21*
X006086Y011233D03*
D22*
X001154Y011233D03*
D23*
X003828Y033469D03*
X004828Y033469D03*
X005828Y033469D03*
X006828Y033469D03*
X007828Y033469D03*
X008828Y033469D03*
X009828Y033469D03*
X010828Y033469D03*
X011828Y033469D03*
X012828Y033469D03*
X013828Y033469D03*
X014828Y033469D03*
X015828Y033469D03*
X016828Y033469D03*
X017828Y033469D03*
X018828Y033469D03*
X019828Y033469D03*
X020828Y033469D03*
X021828Y033469D03*
X022828Y033469D03*
X022828Y034469D03*
X021828Y034469D03*
X020828Y034469D03*
X019828Y034469D03*
X018828Y034469D03*
X017828Y034469D03*
X016828Y034469D03*
X015828Y034469D03*
X014828Y034469D03*
X013828Y034469D03*
X012828Y034469D03*
X011828Y034469D03*
X010828Y034469D03*
X009828Y034469D03*
X008828Y034469D03*
X007828Y034469D03*
X006828Y034469D03*
X005828Y034469D03*
X004828Y034469D03*
X003828Y034469D03*
D24*
X014698Y002965D03*
D25*
X024147Y007247D03*
X029855Y004885D03*
X033202Y007247D03*
X034776Y004688D03*
X041125Y003339D03*
X041145Y002552D03*
X037926Y010987D03*
X037926Y014727D03*
X031824Y013743D03*
X029658Y012168D03*
X030643Y017286D03*
X028084Y017483D03*
X031824Y023192D03*
X030741Y024717D03*
X033251Y027276D03*
X039501Y026145D03*
X047178Y030082D03*
X047178Y022011D03*
X033399Y034215D03*
X027887Y034412D03*
X022621Y028202D03*
X026115Y025505D03*
X014895Y031263D03*
X011794Y029147D03*
X010810Y029639D03*
X009826Y028950D03*
X008841Y029048D03*
X005347Y028753D03*
X003133Y030820D03*
X001312Y026538D03*
X004629Y022296D03*
X001263Y020387D03*
X012877Y011233D03*
X001115Y008822D03*
D26*
X014304Y001656D02*
X014304Y001223D01*
X014609Y000918D01*
X017050Y000918D01*
X018172Y002040D01*
X018172Y009521D01*
X021115Y012463D01*
X027788Y012463D01*
X029314Y013989D01*
X029314Y014796D01*
X027345Y018733D02*
X022030Y018733D01*
X014698Y011400D01*
X014698Y002965D01*
X032070Y019914D02*
X032070Y021666D01*
X033251Y022847D01*
X033251Y027276D01*
X004845Y030052D02*
X004845Y033452D01*
X004828Y033469D01*
X004828Y034469D02*
X003828Y034469D01*
X004845Y030052D02*
X004629Y029836D01*
X004629Y022296D01*
D27*
X020101Y028517D02*
X020101Y030820D01*
X021834Y032552D01*
X021834Y033463D01*
X021828Y033469D01*
X020101Y028517D02*
X020416Y028202D01*
X022621Y028202D01*
D28*
X039501Y026145D02*
X040780Y024865D01*
X040780Y014924D01*
X041798Y013906D01*
X041798Y013143D01*
X041870Y013070D01*
X041870Y008773D01*
M02*
