%
M48
M72
T01C0.0236
T02C0.0354
T03C0.0360
T04C0.0400
T05C0.0485
T06C0.0900
T07C0.1083
T08C0.1181
T09C0.1260
%
T01
X1115Y8822
X12877Y11233
X24147Y7247
X29855Y4885
X33202Y7247
X34776Y4688
X41125Y3339
X41145Y2552
X37926Y10987
X37926Y14727
X31824Y13743
X29658Y12168
X30643Y17286
X28084Y17483
X31824Y23192
X30741Y24717
X33251Y27276
X39501Y26145
X47178Y30082
X47178Y22011
X33399Y34215
X27887Y34412
X22621Y28202
X26115Y25505
X14895Y31263
X11794Y29147
X10810Y29639
X9826Y28950
X8841Y29048
X5347Y28753
X3133Y30820
X1312Y26538
X4629Y22296
X1263Y20387
T02
X33056Y30804
X34056Y30804
X34056Y31804
X33056Y31804
X33056Y32804
X34056Y32804
T03
X41870Y8773
X42650Y8773
X42650Y7788
X41870Y7788
T04
X22828Y33469
X21828Y33469
X20828Y33469
X19828Y33469
X18828Y33469
X17828Y33469
X16828Y33469
X15828Y33469
X14828Y33469
X13828Y33469
X12828Y33469
X11828Y33469
X10828Y33469
X9828Y33469
X8828Y33469
X7828Y33469
X6828Y33469
X5828Y33469
X4828Y33469
X3828Y33469
X3828Y34469
X4828Y34469
X5828Y34469
X6828Y34469
X7828Y34469
X8828Y34469
X9828Y34469
X10828Y34469
X11828Y34469
X12828Y34469
X13828Y34469
X14828Y34469
X15828Y34469
X16828Y34469
X17828Y34469
X18828Y34469
X19828Y34469
X20828Y34469
X21828Y34469
X22828Y34469
X1154Y11233
T05
X12542Y19087
X12621Y21725
X21834Y29363
X23015Y29363
X23015Y30544
X23802Y30938
X27739Y29363
X28526Y28969
X29708Y28576
X34432Y22080
X32070Y19914
X32070Y17946
X32070Y15977
X29314Y14796
X27345Y18733
X34432Y13812
X19471Y6135
X15928Y6528
T06
X43720Y5910
X43720Y10650
T07
X24747Y14698
X24747Y1706
X1912Y14698
X1912Y18635
X1912Y33989
X24747Y33989
X30259Y33989
T08
X42979Y14993
X44121Y13143
X41798Y13143
T09
X36814Y17841
X46814Y17841
X46814Y34341
X36814Y34341
X6086Y11233
M30
