%
M48
M72
T01C0.0236
T02C0.0354
T03C0.0400
T04C0.0440
T05C0.0512
T06C0.1083
T07C0.1181
T08C0.1260
%
T01
X2103Y8419
X2103Y10584
X7025Y10781
X12586Y12307
X13373Y11519
X14653Y10614
X18442Y7435
X15686Y3891
X21592Y3891
X29072Y3891
X34977Y3104
X26513Y10190
X26316Y11568
X22979Y13173
X21562Y12464
X20460Y12425
X27723Y17051
X30056Y13931
X32221Y15505
X35223Y12444
X38334Y13114
X39357Y19196
X35637Y21618
X32221Y24954
X31139Y26480
X34869Y29846
X39456Y27858
X36552Y37651
X42802Y37651
X29466Y37651
X22281Y37750
X13668Y37848
X6139Y29974
X1906Y27710
X1906Y32435
X1906Y22986
X6828Y22592
X16670Y22198
X19032Y20624
X21050Y19049
X21936Y19984
X23629Y19866
X23708Y18803
X25450Y24147
X23334Y28114
X21523Y28251
T02
X33454Y32566
X33454Y33566
X34454Y33566
X34454Y32566
X34454Y34566
X33454Y34566
T03
X22934Y17216
X21934Y17216
X20934Y17216
X19934Y17216
X18934Y17216
X17934Y17216
X16934Y17216
X15934Y17216
X14934Y17216
X13934Y17216
X12934Y17216
X12934Y16216
X13934Y16216
X14934Y16216
X15934Y16216
X16934Y16216
X17934Y16216
X18934Y16216
X19934Y16216
X20934Y16216
X21934Y16216
X22934Y16216
X11934Y16216
X10934Y16216
X9934Y16216
X8934Y16216
X7934Y16216
X6934Y16216
X5934Y16216
X4934Y16216
X3934Y16216
X3934Y17216
X4934Y17216
X5934Y17216
X6934Y17216
X7934Y17216
X8934Y17216
X9934Y17216
X10934Y17216
X11934Y17216
X10273Y37877
T04
X41326Y27677
X41326Y26677
X42113Y13700
X42113Y12700
T05
X34830Y15574
X32468Y17740
X32468Y19708
X32468Y21677
X34830Y23842
X27743Y20496
X29712Y16559
X19869Y7897
X16326Y8291
X12940Y20850
X13019Y23488
X22231Y31126
X23412Y31126
X23412Y32307
X24200Y32700
X28137Y31126
X28924Y30732
X30105Y30338
T06
X1562Y1480
X2015Y16696
X2015Y35988
X1562Y38685
X24849Y35988
X30656Y35751
X46247Y38685
X24849Y16696
X27546Y14669
X37349Y10751
X46247Y1480
X25184Y3448
T07
X41261Y31490
X42403Y33340
X40080Y33340
T08
X18125Y13419
X18125Y3419
X1625Y3419
X1625Y13419
X6326Y34039
M30
