G75*
%MOIN*%
%OFA0B0*%
%FSLAX24Y24*%
%IPPOS*%
%LPD*%
%AMOC8*
5,1,8,0,0,1.08239X$1,22.5*
%
%ADD10C,0.0160*%
%ADD11C,0.0000*%
%ADD12C,0.0768*%
%ADD13C,0.1890*%
%ADD14C,0.0640*%
%ADD15R,0.0512X0.0610*%
%ADD16R,0.0472X0.0472*%
%ADD17C,0.3937*%
%ADD18OC8,0.0760*%
%ADD19OC8,0.0600*%
%ADD20C,0.0740*%
%ADD21C,0.0240*%
%ADD22C,0.0354*%
%ADD23C,0.0320*%
D10*
X000578Y000496D02*
X000578Y039590D01*
X047231Y039590D01*
X047231Y000496D01*
X000578Y000496D01*
X005735Y005102D02*
X005735Y012385D01*
X008412Y015063D01*
X015656Y015063D01*
X016129Y015535D01*
X016129Y016017D01*
X015934Y016216D01*
X017934Y016216D02*
X018137Y016013D01*
X018137Y015259D01*
X018235Y015161D01*
X017507Y014433D01*
X009633Y014433D01*
X008363Y013163D01*
X008363Y005131D01*
X009594Y014433D02*
X009633Y014433D01*
X004934Y017216D02*
X004934Y028769D01*
X006139Y029974D01*
X013019Y023488D02*
X019810Y023488D01*
X020410Y022887D01*
X020410Y019000D01*
X021296Y018114D01*
X021934Y018114D01*
X021934Y019982D01*
X021936Y019984D01*
X021050Y019049D02*
X021050Y024856D01*
X022674Y026480D01*
X026326Y026480D01*
X026611Y026480D01*
X031139Y026480D01*
X035637Y021618D02*
X035637Y016381D01*
X034830Y015574D01*
X035282Y012503D02*
X035223Y012444D01*
X035282Y012503D02*
X038373Y012503D01*
X038334Y013114D02*
X039731Y013114D01*
X027743Y017070D02*
X027743Y020496D01*
X027743Y017070D02*
X027723Y017051D01*
X022934Y016216D02*
X021934Y016216D01*
X021934Y017216D02*
X021934Y018114D01*
X019934Y016216D02*
X020131Y015391D01*
X022349Y013173D01*
X022979Y013173D01*
X021562Y013055D02*
X021562Y012464D01*
X021562Y013055D02*
X019279Y015338D01*
X019279Y015872D01*
X018934Y016216D01*
X018235Y015161D02*
X020460Y012937D01*
X020460Y012425D01*
D11*
X017495Y013419D02*
X017497Y013469D01*
X017503Y013519D01*
X017513Y013568D01*
X017527Y013616D01*
X017544Y013663D01*
X017565Y013708D01*
X017590Y013752D01*
X017618Y013793D01*
X017650Y013832D01*
X017684Y013869D01*
X017721Y013903D01*
X017761Y013933D01*
X017803Y013960D01*
X017847Y013984D01*
X017893Y014005D01*
X017940Y014021D01*
X017988Y014034D01*
X018038Y014043D01*
X018087Y014048D01*
X018138Y014049D01*
X018188Y014046D01*
X018237Y014039D01*
X018286Y014028D01*
X018334Y014013D01*
X018380Y013995D01*
X018425Y013973D01*
X018468Y013947D01*
X018509Y013918D01*
X018548Y013886D01*
X018584Y013851D01*
X018616Y013813D01*
X018646Y013773D01*
X018673Y013730D01*
X018696Y013686D01*
X018715Y013640D01*
X018731Y013592D01*
X018743Y013543D01*
X018751Y013494D01*
X018755Y013444D01*
X018755Y013394D01*
X018751Y013344D01*
X018743Y013295D01*
X018731Y013246D01*
X018715Y013198D01*
X018696Y013152D01*
X018673Y013108D01*
X018646Y013065D01*
X018616Y013025D01*
X018584Y012987D01*
X018548Y012952D01*
X018509Y012920D01*
X018468Y012891D01*
X018425Y012865D01*
X018380Y012843D01*
X018334Y012825D01*
X018286Y012810D01*
X018237Y012799D01*
X018188Y012792D01*
X018138Y012789D01*
X018087Y012790D01*
X018038Y012795D01*
X017988Y012804D01*
X017940Y012817D01*
X017893Y012833D01*
X017847Y012854D01*
X017803Y012878D01*
X017761Y012905D01*
X017721Y012935D01*
X017684Y012969D01*
X017650Y013006D01*
X017618Y013045D01*
X017590Y013086D01*
X017565Y013130D01*
X017544Y013175D01*
X017527Y013222D01*
X017513Y013270D01*
X017503Y013319D01*
X017497Y013369D01*
X017495Y013419D01*
X024308Y016696D02*
X024310Y016742D01*
X024316Y016787D01*
X024325Y016832D01*
X024339Y016876D01*
X024356Y016919D01*
X024377Y016960D01*
X024401Y016999D01*
X024428Y017036D01*
X024458Y017070D01*
X024492Y017102D01*
X024527Y017131D01*
X024565Y017157D01*
X024605Y017179D01*
X024647Y017198D01*
X024691Y017213D01*
X024735Y017225D01*
X024780Y017233D01*
X024826Y017237D01*
X024872Y017237D01*
X024918Y017233D01*
X024963Y017225D01*
X025007Y017213D01*
X025051Y017198D01*
X025093Y017179D01*
X025133Y017157D01*
X025171Y017131D01*
X025206Y017102D01*
X025240Y017070D01*
X025270Y017036D01*
X025297Y016999D01*
X025321Y016960D01*
X025342Y016919D01*
X025359Y016876D01*
X025373Y016832D01*
X025382Y016787D01*
X025388Y016742D01*
X025390Y016696D01*
X025388Y016650D01*
X025382Y016605D01*
X025373Y016560D01*
X025359Y016516D01*
X025342Y016473D01*
X025321Y016432D01*
X025297Y016393D01*
X025270Y016356D01*
X025240Y016322D01*
X025206Y016290D01*
X025171Y016261D01*
X025133Y016235D01*
X025093Y016213D01*
X025051Y016194D01*
X025007Y016179D01*
X024963Y016167D01*
X024918Y016159D01*
X024872Y016155D01*
X024826Y016155D01*
X024780Y016159D01*
X024735Y016167D01*
X024691Y016179D01*
X024647Y016194D01*
X024605Y016213D01*
X024565Y016235D01*
X024527Y016261D01*
X024492Y016290D01*
X024458Y016322D01*
X024428Y016356D01*
X024401Y016393D01*
X024377Y016432D01*
X024356Y016473D01*
X024339Y016516D01*
X024325Y016560D01*
X024316Y016605D01*
X024310Y016650D01*
X024308Y016696D01*
X027005Y014669D02*
X027007Y014715D01*
X027013Y014760D01*
X027022Y014805D01*
X027036Y014849D01*
X027053Y014892D01*
X027074Y014933D01*
X027098Y014972D01*
X027125Y015009D01*
X027155Y015043D01*
X027189Y015075D01*
X027224Y015104D01*
X027262Y015130D01*
X027302Y015152D01*
X027344Y015171D01*
X027388Y015186D01*
X027432Y015198D01*
X027477Y015206D01*
X027523Y015210D01*
X027569Y015210D01*
X027615Y015206D01*
X027660Y015198D01*
X027704Y015186D01*
X027748Y015171D01*
X027790Y015152D01*
X027830Y015130D01*
X027868Y015104D01*
X027903Y015075D01*
X027937Y015043D01*
X027967Y015009D01*
X027994Y014972D01*
X028018Y014933D01*
X028039Y014892D01*
X028056Y014849D01*
X028070Y014805D01*
X028079Y014760D01*
X028085Y014715D01*
X028087Y014669D01*
X028085Y014623D01*
X028079Y014578D01*
X028070Y014533D01*
X028056Y014489D01*
X028039Y014446D01*
X028018Y014405D01*
X027994Y014366D01*
X027967Y014329D01*
X027937Y014295D01*
X027903Y014263D01*
X027868Y014234D01*
X027830Y014208D01*
X027790Y014186D01*
X027748Y014167D01*
X027704Y014152D01*
X027660Y014140D01*
X027615Y014132D01*
X027569Y014128D01*
X027523Y014128D01*
X027477Y014132D01*
X027432Y014140D01*
X027388Y014152D01*
X027344Y014167D01*
X027302Y014186D01*
X027262Y014208D01*
X027224Y014234D01*
X027189Y014263D01*
X027155Y014295D01*
X027125Y014329D01*
X027098Y014366D01*
X027074Y014405D01*
X027053Y014446D01*
X027036Y014489D01*
X027022Y014533D01*
X027013Y014578D01*
X027007Y014623D01*
X027005Y014669D01*
X036808Y010751D02*
X036810Y010797D01*
X036816Y010842D01*
X036825Y010887D01*
X036839Y010931D01*
X036856Y010974D01*
X036877Y011015D01*
X036901Y011054D01*
X036928Y011091D01*
X036958Y011125D01*
X036992Y011157D01*
X037027Y011186D01*
X037065Y011212D01*
X037105Y011234D01*
X037147Y011253D01*
X037191Y011268D01*
X037235Y011280D01*
X037280Y011288D01*
X037326Y011292D01*
X037372Y011292D01*
X037418Y011288D01*
X037463Y011280D01*
X037507Y011268D01*
X037551Y011253D01*
X037593Y011234D01*
X037633Y011212D01*
X037671Y011186D01*
X037706Y011157D01*
X037740Y011125D01*
X037770Y011091D01*
X037797Y011054D01*
X037821Y011015D01*
X037842Y010974D01*
X037859Y010931D01*
X037873Y010887D01*
X037882Y010842D01*
X037888Y010797D01*
X037890Y010751D01*
X037888Y010705D01*
X037882Y010660D01*
X037873Y010615D01*
X037859Y010571D01*
X037842Y010528D01*
X037821Y010487D01*
X037797Y010448D01*
X037770Y010411D01*
X037740Y010377D01*
X037706Y010345D01*
X037671Y010316D01*
X037633Y010290D01*
X037593Y010268D01*
X037551Y010249D01*
X037507Y010234D01*
X037463Y010222D01*
X037418Y010214D01*
X037372Y010210D01*
X037326Y010210D01*
X037280Y010214D01*
X037235Y010222D01*
X037191Y010234D01*
X037147Y010249D01*
X037105Y010268D01*
X037065Y010290D01*
X037027Y010316D01*
X036992Y010345D01*
X036958Y010377D01*
X036928Y010411D01*
X036901Y010448D01*
X036877Y010487D01*
X036856Y010528D01*
X036839Y010571D01*
X036825Y010615D01*
X036816Y010660D01*
X036810Y010705D01*
X036808Y010751D01*
X045706Y001480D02*
X045708Y001526D01*
X045714Y001571D01*
X045723Y001616D01*
X045737Y001660D01*
X045754Y001703D01*
X045775Y001744D01*
X045799Y001783D01*
X045826Y001820D01*
X045856Y001854D01*
X045890Y001886D01*
X045925Y001915D01*
X045963Y001941D01*
X046003Y001963D01*
X046045Y001982D01*
X046089Y001997D01*
X046133Y002009D01*
X046178Y002017D01*
X046224Y002021D01*
X046270Y002021D01*
X046316Y002017D01*
X046361Y002009D01*
X046405Y001997D01*
X046449Y001982D01*
X046491Y001963D01*
X046531Y001941D01*
X046569Y001915D01*
X046604Y001886D01*
X046638Y001854D01*
X046668Y001820D01*
X046695Y001783D01*
X046719Y001744D01*
X046740Y001703D01*
X046757Y001660D01*
X046771Y001616D01*
X046780Y001571D01*
X046786Y001526D01*
X046788Y001480D01*
X046786Y001434D01*
X046780Y001389D01*
X046771Y001344D01*
X046757Y001300D01*
X046740Y001257D01*
X046719Y001216D01*
X046695Y001177D01*
X046668Y001140D01*
X046638Y001106D01*
X046604Y001074D01*
X046569Y001045D01*
X046531Y001019D01*
X046491Y000997D01*
X046449Y000978D01*
X046405Y000963D01*
X046361Y000951D01*
X046316Y000943D01*
X046270Y000939D01*
X046224Y000939D01*
X046178Y000943D01*
X046133Y000951D01*
X046089Y000963D01*
X046045Y000978D01*
X046003Y000997D01*
X045963Y001019D01*
X045925Y001045D01*
X045890Y001074D01*
X045856Y001106D01*
X045826Y001140D01*
X045799Y001177D01*
X045775Y001216D01*
X045754Y001257D01*
X045737Y001300D01*
X045723Y001344D01*
X045714Y001389D01*
X045708Y001434D01*
X045706Y001480D01*
X024643Y003448D02*
X024645Y003494D01*
X024651Y003539D01*
X024660Y003584D01*
X024674Y003628D01*
X024691Y003671D01*
X024712Y003712D01*
X024736Y003751D01*
X024763Y003788D01*
X024793Y003822D01*
X024827Y003854D01*
X024862Y003883D01*
X024900Y003909D01*
X024940Y003931D01*
X024982Y003950D01*
X025026Y003965D01*
X025070Y003977D01*
X025115Y003985D01*
X025161Y003989D01*
X025207Y003989D01*
X025253Y003985D01*
X025298Y003977D01*
X025342Y003965D01*
X025386Y003950D01*
X025428Y003931D01*
X025468Y003909D01*
X025506Y003883D01*
X025541Y003854D01*
X025575Y003822D01*
X025605Y003788D01*
X025632Y003751D01*
X025656Y003712D01*
X025677Y003671D01*
X025694Y003628D01*
X025708Y003584D01*
X025717Y003539D01*
X025723Y003494D01*
X025725Y003448D01*
X025723Y003402D01*
X025717Y003357D01*
X025708Y003312D01*
X025694Y003268D01*
X025677Y003225D01*
X025656Y003184D01*
X025632Y003145D01*
X025605Y003108D01*
X025575Y003074D01*
X025541Y003042D01*
X025506Y003013D01*
X025468Y002987D01*
X025428Y002965D01*
X025386Y002946D01*
X025342Y002931D01*
X025298Y002919D01*
X025253Y002911D01*
X025207Y002907D01*
X025161Y002907D01*
X025115Y002911D01*
X025070Y002919D01*
X025026Y002931D01*
X024982Y002946D01*
X024940Y002965D01*
X024900Y002987D01*
X024862Y003013D01*
X024827Y003042D01*
X024793Y003074D01*
X024763Y003108D01*
X024736Y003145D01*
X024712Y003184D01*
X024691Y003225D01*
X024674Y003268D01*
X024660Y003312D01*
X024651Y003357D01*
X024645Y003402D01*
X024643Y003448D01*
X017495Y003419D02*
X017497Y003469D01*
X017503Y003519D01*
X017513Y003568D01*
X017527Y003616D01*
X017544Y003663D01*
X017565Y003708D01*
X017590Y003752D01*
X017618Y003793D01*
X017650Y003832D01*
X017684Y003869D01*
X017721Y003903D01*
X017761Y003933D01*
X017803Y003960D01*
X017847Y003984D01*
X017893Y004005D01*
X017940Y004021D01*
X017988Y004034D01*
X018038Y004043D01*
X018087Y004048D01*
X018138Y004049D01*
X018188Y004046D01*
X018237Y004039D01*
X018286Y004028D01*
X018334Y004013D01*
X018380Y003995D01*
X018425Y003973D01*
X018468Y003947D01*
X018509Y003918D01*
X018548Y003886D01*
X018584Y003851D01*
X018616Y003813D01*
X018646Y003773D01*
X018673Y003730D01*
X018696Y003686D01*
X018715Y003640D01*
X018731Y003592D01*
X018743Y003543D01*
X018751Y003494D01*
X018755Y003444D01*
X018755Y003394D01*
X018751Y003344D01*
X018743Y003295D01*
X018731Y003246D01*
X018715Y003198D01*
X018696Y003152D01*
X018673Y003108D01*
X018646Y003065D01*
X018616Y003025D01*
X018584Y002987D01*
X018548Y002952D01*
X018509Y002920D01*
X018468Y002891D01*
X018425Y002865D01*
X018380Y002843D01*
X018334Y002825D01*
X018286Y002810D01*
X018237Y002799D01*
X018188Y002792D01*
X018138Y002789D01*
X018087Y002790D01*
X018038Y002795D01*
X017988Y002804D01*
X017940Y002817D01*
X017893Y002833D01*
X017847Y002854D01*
X017803Y002878D01*
X017761Y002905D01*
X017721Y002935D01*
X017684Y002969D01*
X017650Y003006D01*
X017618Y003045D01*
X017590Y003086D01*
X017565Y003130D01*
X017544Y003175D01*
X017527Y003222D01*
X017513Y003270D01*
X017503Y003319D01*
X017497Y003369D01*
X017495Y003419D01*
X000995Y003419D02*
X000997Y003469D01*
X001003Y003519D01*
X001013Y003568D01*
X001027Y003616D01*
X001044Y003663D01*
X001065Y003708D01*
X001090Y003752D01*
X001118Y003793D01*
X001150Y003832D01*
X001184Y003869D01*
X001221Y003903D01*
X001261Y003933D01*
X001303Y003960D01*
X001347Y003984D01*
X001393Y004005D01*
X001440Y004021D01*
X001488Y004034D01*
X001538Y004043D01*
X001587Y004048D01*
X001638Y004049D01*
X001688Y004046D01*
X001737Y004039D01*
X001786Y004028D01*
X001834Y004013D01*
X001880Y003995D01*
X001925Y003973D01*
X001968Y003947D01*
X002009Y003918D01*
X002048Y003886D01*
X002084Y003851D01*
X002116Y003813D01*
X002146Y003773D01*
X002173Y003730D01*
X002196Y003686D01*
X002215Y003640D01*
X002231Y003592D01*
X002243Y003543D01*
X002251Y003494D01*
X002255Y003444D01*
X002255Y003394D01*
X002251Y003344D01*
X002243Y003295D01*
X002231Y003246D01*
X002215Y003198D01*
X002196Y003152D01*
X002173Y003108D01*
X002146Y003065D01*
X002116Y003025D01*
X002084Y002987D01*
X002048Y002952D01*
X002009Y002920D01*
X001968Y002891D01*
X001925Y002865D01*
X001880Y002843D01*
X001834Y002825D01*
X001786Y002810D01*
X001737Y002799D01*
X001688Y002792D01*
X001638Y002789D01*
X001587Y002790D01*
X001538Y002795D01*
X001488Y002804D01*
X001440Y002817D01*
X001393Y002833D01*
X001347Y002854D01*
X001303Y002878D01*
X001261Y002905D01*
X001221Y002935D01*
X001184Y002969D01*
X001150Y003006D01*
X001118Y003045D01*
X001090Y003086D01*
X001065Y003130D01*
X001044Y003175D01*
X001027Y003222D01*
X001013Y003270D01*
X001003Y003319D01*
X000997Y003369D01*
X000995Y003419D01*
X001021Y001480D02*
X001023Y001526D01*
X001029Y001571D01*
X001038Y001616D01*
X001052Y001660D01*
X001069Y001703D01*
X001090Y001744D01*
X001114Y001783D01*
X001141Y001820D01*
X001171Y001854D01*
X001205Y001886D01*
X001240Y001915D01*
X001278Y001941D01*
X001318Y001963D01*
X001360Y001982D01*
X001404Y001997D01*
X001448Y002009D01*
X001493Y002017D01*
X001539Y002021D01*
X001585Y002021D01*
X001631Y002017D01*
X001676Y002009D01*
X001720Y001997D01*
X001764Y001982D01*
X001806Y001963D01*
X001846Y001941D01*
X001884Y001915D01*
X001919Y001886D01*
X001953Y001854D01*
X001983Y001820D01*
X002010Y001783D01*
X002034Y001744D01*
X002055Y001703D01*
X002072Y001660D01*
X002086Y001616D01*
X002095Y001571D01*
X002101Y001526D01*
X002103Y001480D01*
X002101Y001434D01*
X002095Y001389D01*
X002086Y001344D01*
X002072Y001300D01*
X002055Y001257D01*
X002034Y001216D01*
X002010Y001177D01*
X001983Y001140D01*
X001953Y001106D01*
X001919Y001074D01*
X001884Y001045D01*
X001846Y001019D01*
X001806Y000997D01*
X001764Y000978D01*
X001720Y000963D01*
X001676Y000951D01*
X001631Y000943D01*
X001585Y000939D01*
X001539Y000939D01*
X001493Y000943D01*
X001448Y000951D01*
X001404Y000963D01*
X001360Y000978D01*
X001318Y000997D01*
X001278Y001019D01*
X001240Y001045D01*
X001205Y001074D01*
X001171Y001106D01*
X001141Y001140D01*
X001114Y001177D01*
X001090Y001216D01*
X001069Y001257D01*
X001052Y001300D01*
X001038Y001344D01*
X001029Y001389D01*
X001023Y001434D01*
X001021Y001480D01*
X000995Y013419D02*
X000997Y013469D01*
X001003Y013519D01*
X001013Y013568D01*
X001027Y013616D01*
X001044Y013663D01*
X001065Y013708D01*
X001090Y013752D01*
X001118Y013793D01*
X001150Y013832D01*
X001184Y013869D01*
X001221Y013903D01*
X001261Y013933D01*
X001303Y013960D01*
X001347Y013984D01*
X001393Y014005D01*
X001440Y014021D01*
X001488Y014034D01*
X001538Y014043D01*
X001587Y014048D01*
X001638Y014049D01*
X001688Y014046D01*
X001737Y014039D01*
X001786Y014028D01*
X001834Y014013D01*
X001880Y013995D01*
X001925Y013973D01*
X001968Y013947D01*
X002009Y013918D01*
X002048Y013886D01*
X002084Y013851D01*
X002116Y013813D01*
X002146Y013773D01*
X002173Y013730D01*
X002196Y013686D01*
X002215Y013640D01*
X002231Y013592D01*
X002243Y013543D01*
X002251Y013494D01*
X002255Y013444D01*
X002255Y013394D01*
X002251Y013344D01*
X002243Y013295D01*
X002231Y013246D01*
X002215Y013198D01*
X002196Y013152D01*
X002173Y013108D01*
X002146Y013065D01*
X002116Y013025D01*
X002084Y012987D01*
X002048Y012952D01*
X002009Y012920D01*
X001968Y012891D01*
X001925Y012865D01*
X001880Y012843D01*
X001834Y012825D01*
X001786Y012810D01*
X001737Y012799D01*
X001688Y012792D01*
X001638Y012789D01*
X001587Y012790D01*
X001538Y012795D01*
X001488Y012804D01*
X001440Y012817D01*
X001393Y012833D01*
X001347Y012854D01*
X001303Y012878D01*
X001261Y012905D01*
X001221Y012935D01*
X001184Y012969D01*
X001150Y013006D01*
X001118Y013045D01*
X001090Y013086D01*
X001065Y013130D01*
X001044Y013175D01*
X001027Y013222D01*
X001013Y013270D01*
X001003Y013319D01*
X000997Y013369D01*
X000995Y013419D01*
X001474Y016696D02*
X001476Y016742D01*
X001482Y016787D01*
X001491Y016832D01*
X001505Y016876D01*
X001522Y016919D01*
X001543Y016960D01*
X001567Y016999D01*
X001594Y017036D01*
X001624Y017070D01*
X001658Y017102D01*
X001693Y017131D01*
X001731Y017157D01*
X001771Y017179D01*
X001813Y017198D01*
X001857Y017213D01*
X001901Y017225D01*
X001946Y017233D01*
X001992Y017237D01*
X002038Y017237D01*
X002084Y017233D01*
X002129Y017225D01*
X002173Y017213D01*
X002217Y017198D01*
X002259Y017179D01*
X002299Y017157D01*
X002337Y017131D01*
X002372Y017102D01*
X002406Y017070D01*
X002436Y017036D01*
X002463Y016999D01*
X002487Y016960D01*
X002508Y016919D01*
X002525Y016876D01*
X002539Y016832D01*
X002548Y016787D01*
X002554Y016742D01*
X002556Y016696D01*
X002554Y016650D01*
X002548Y016605D01*
X002539Y016560D01*
X002525Y016516D01*
X002508Y016473D01*
X002487Y016432D01*
X002463Y016393D01*
X002436Y016356D01*
X002406Y016322D01*
X002372Y016290D01*
X002337Y016261D01*
X002299Y016235D01*
X002259Y016213D01*
X002217Y016194D01*
X002173Y016179D01*
X002129Y016167D01*
X002084Y016159D01*
X002038Y016155D01*
X001992Y016155D01*
X001946Y016159D01*
X001901Y016167D01*
X001857Y016179D01*
X001813Y016194D01*
X001771Y016213D01*
X001731Y016235D01*
X001693Y016261D01*
X001658Y016290D01*
X001624Y016322D01*
X001594Y016356D01*
X001567Y016393D01*
X001543Y016432D01*
X001522Y016473D01*
X001505Y016516D01*
X001491Y016560D01*
X001482Y016605D01*
X001476Y016650D01*
X001474Y016696D01*
X001474Y035988D02*
X001476Y036034D01*
X001482Y036079D01*
X001491Y036124D01*
X001505Y036168D01*
X001522Y036211D01*
X001543Y036252D01*
X001567Y036291D01*
X001594Y036328D01*
X001624Y036362D01*
X001658Y036394D01*
X001693Y036423D01*
X001731Y036449D01*
X001771Y036471D01*
X001813Y036490D01*
X001857Y036505D01*
X001901Y036517D01*
X001946Y036525D01*
X001992Y036529D01*
X002038Y036529D01*
X002084Y036525D01*
X002129Y036517D01*
X002173Y036505D01*
X002217Y036490D01*
X002259Y036471D01*
X002299Y036449D01*
X002337Y036423D01*
X002372Y036394D01*
X002406Y036362D01*
X002436Y036328D01*
X002463Y036291D01*
X002487Y036252D01*
X002508Y036211D01*
X002525Y036168D01*
X002539Y036124D01*
X002548Y036079D01*
X002554Y036034D01*
X002556Y035988D01*
X002554Y035942D01*
X002548Y035897D01*
X002539Y035852D01*
X002525Y035808D01*
X002508Y035765D01*
X002487Y035724D01*
X002463Y035685D01*
X002436Y035648D01*
X002406Y035614D01*
X002372Y035582D01*
X002337Y035553D01*
X002299Y035527D01*
X002259Y035505D01*
X002217Y035486D01*
X002173Y035471D01*
X002129Y035459D01*
X002084Y035451D01*
X002038Y035447D01*
X001992Y035447D01*
X001946Y035451D01*
X001901Y035459D01*
X001857Y035471D01*
X001813Y035486D01*
X001771Y035505D01*
X001731Y035527D01*
X001693Y035553D01*
X001658Y035582D01*
X001624Y035614D01*
X001594Y035648D01*
X001567Y035685D01*
X001543Y035724D01*
X001522Y035765D01*
X001505Y035808D01*
X001491Y035852D01*
X001482Y035897D01*
X001476Y035942D01*
X001474Y035988D01*
X001021Y038685D02*
X001023Y038731D01*
X001029Y038776D01*
X001038Y038821D01*
X001052Y038865D01*
X001069Y038908D01*
X001090Y038949D01*
X001114Y038988D01*
X001141Y039025D01*
X001171Y039059D01*
X001205Y039091D01*
X001240Y039120D01*
X001278Y039146D01*
X001318Y039168D01*
X001360Y039187D01*
X001404Y039202D01*
X001448Y039214D01*
X001493Y039222D01*
X001539Y039226D01*
X001585Y039226D01*
X001631Y039222D01*
X001676Y039214D01*
X001720Y039202D01*
X001764Y039187D01*
X001806Y039168D01*
X001846Y039146D01*
X001884Y039120D01*
X001919Y039091D01*
X001953Y039059D01*
X001983Y039025D01*
X002010Y038988D01*
X002034Y038949D01*
X002055Y038908D01*
X002072Y038865D01*
X002086Y038821D01*
X002095Y038776D01*
X002101Y038731D01*
X002103Y038685D01*
X002101Y038639D01*
X002095Y038594D01*
X002086Y038549D01*
X002072Y038505D01*
X002055Y038462D01*
X002034Y038421D01*
X002010Y038382D01*
X001983Y038345D01*
X001953Y038311D01*
X001919Y038279D01*
X001884Y038250D01*
X001846Y038224D01*
X001806Y038202D01*
X001764Y038183D01*
X001720Y038168D01*
X001676Y038156D01*
X001631Y038148D01*
X001585Y038144D01*
X001539Y038144D01*
X001493Y038148D01*
X001448Y038156D01*
X001404Y038168D01*
X001360Y038183D01*
X001318Y038202D01*
X001278Y038224D01*
X001240Y038250D01*
X001205Y038279D01*
X001171Y038311D01*
X001141Y038345D01*
X001114Y038382D01*
X001090Y038421D01*
X001069Y038462D01*
X001052Y038505D01*
X001038Y038549D01*
X001029Y038594D01*
X001023Y038639D01*
X001021Y038685D01*
X024308Y035988D02*
X024310Y036034D01*
X024316Y036079D01*
X024325Y036124D01*
X024339Y036168D01*
X024356Y036211D01*
X024377Y036252D01*
X024401Y036291D01*
X024428Y036328D01*
X024458Y036362D01*
X024492Y036394D01*
X024527Y036423D01*
X024565Y036449D01*
X024605Y036471D01*
X024647Y036490D01*
X024691Y036505D01*
X024735Y036517D01*
X024780Y036525D01*
X024826Y036529D01*
X024872Y036529D01*
X024918Y036525D01*
X024963Y036517D01*
X025007Y036505D01*
X025051Y036490D01*
X025093Y036471D01*
X025133Y036449D01*
X025171Y036423D01*
X025206Y036394D01*
X025240Y036362D01*
X025270Y036328D01*
X025297Y036291D01*
X025321Y036252D01*
X025342Y036211D01*
X025359Y036168D01*
X025373Y036124D01*
X025382Y036079D01*
X025388Y036034D01*
X025390Y035988D01*
X025388Y035942D01*
X025382Y035897D01*
X025373Y035852D01*
X025359Y035808D01*
X025342Y035765D01*
X025321Y035724D01*
X025297Y035685D01*
X025270Y035648D01*
X025240Y035614D01*
X025206Y035582D01*
X025171Y035553D01*
X025133Y035527D01*
X025093Y035505D01*
X025051Y035486D01*
X025007Y035471D01*
X024963Y035459D01*
X024918Y035451D01*
X024872Y035447D01*
X024826Y035447D01*
X024780Y035451D01*
X024735Y035459D01*
X024691Y035471D01*
X024647Y035486D01*
X024605Y035505D01*
X024565Y035527D01*
X024527Y035553D01*
X024492Y035582D01*
X024458Y035614D01*
X024428Y035648D01*
X024401Y035685D01*
X024377Y035724D01*
X024356Y035765D01*
X024339Y035808D01*
X024325Y035852D01*
X024316Y035897D01*
X024310Y035942D01*
X024308Y035988D01*
X030115Y035751D02*
X030117Y035797D01*
X030123Y035842D01*
X030132Y035887D01*
X030146Y035931D01*
X030163Y035974D01*
X030184Y036015D01*
X030208Y036054D01*
X030235Y036091D01*
X030265Y036125D01*
X030299Y036157D01*
X030334Y036186D01*
X030372Y036212D01*
X030412Y036234D01*
X030454Y036253D01*
X030498Y036268D01*
X030542Y036280D01*
X030587Y036288D01*
X030633Y036292D01*
X030679Y036292D01*
X030725Y036288D01*
X030770Y036280D01*
X030814Y036268D01*
X030858Y036253D01*
X030900Y036234D01*
X030940Y036212D01*
X030978Y036186D01*
X031013Y036157D01*
X031047Y036125D01*
X031077Y036091D01*
X031104Y036054D01*
X031128Y036015D01*
X031149Y035974D01*
X031166Y035931D01*
X031180Y035887D01*
X031189Y035842D01*
X031195Y035797D01*
X031197Y035751D01*
X031195Y035705D01*
X031189Y035660D01*
X031180Y035615D01*
X031166Y035571D01*
X031149Y035528D01*
X031128Y035487D01*
X031104Y035448D01*
X031077Y035411D01*
X031047Y035377D01*
X031013Y035345D01*
X030978Y035316D01*
X030940Y035290D01*
X030900Y035268D01*
X030858Y035249D01*
X030814Y035234D01*
X030770Y035222D01*
X030725Y035214D01*
X030679Y035210D01*
X030633Y035210D01*
X030587Y035214D01*
X030542Y035222D01*
X030498Y035234D01*
X030454Y035249D01*
X030412Y035268D01*
X030372Y035290D01*
X030334Y035316D01*
X030299Y035345D01*
X030265Y035377D01*
X030235Y035411D01*
X030208Y035448D01*
X030184Y035487D01*
X030163Y035528D01*
X030146Y035571D01*
X030132Y035615D01*
X030123Y035660D01*
X030117Y035705D01*
X030115Y035751D01*
X045706Y038685D02*
X045708Y038731D01*
X045714Y038776D01*
X045723Y038821D01*
X045737Y038865D01*
X045754Y038908D01*
X045775Y038949D01*
X045799Y038988D01*
X045826Y039025D01*
X045856Y039059D01*
X045890Y039091D01*
X045925Y039120D01*
X045963Y039146D01*
X046003Y039168D01*
X046045Y039187D01*
X046089Y039202D01*
X046133Y039214D01*
X046178Y039222D01*
X046224Y039226D01*
X046270Y039226D01*
X046316Y039222D01*
X046361Y039214D01*
X046405Y039202D01*
X046449Y039187D01*
X046491Y039168D01*
X046531Y039146D01*
X046569Y039120D01*
X046604Y039091D01*
X046638Y039059D01*
X046668Y039025D01*
X046695Y038988D01*
X046719Y038949D01*
X046740Y038908D01*
X046757Y038865D01*
X046771Y038821D01*
X046780Y038776D01*
X046786Y038731D01*
X046788Y038685D01*
X046786Y038639D01*
X046780Y038594D01*
X046771Y038549D01*
X046757Y038505D01*
X046740Y038462D01*
X046719Y038421D01*
X046695Y038382D01*
X046668Y038345D01*
X046638Y038311D01*
X046604Y038279D01*
X046569Y038250D01*
X046531Y038224D01*
X046491Y038202D01*
X046449Y038183D01*
X046405Y038168D01*
X046361Y038156D01*
X046316Y038148D01*
X046270Y038144D01*
X046224Y038144D01*
X046178Y038148D01*
X046133Y038156D01*
X046089Y038168D01*
X046045Y038183D01*
X046003Y038202D01*
X045963Y038224D01*
X045925Y038250D01*
X045890Y038279D01*
X045856Y038311D01*
X045826Y038345D01*
X045799Y038382D01*
X045775Y038421D01*
X045754Y038462D01*
X045737Y038505D01*
X045723Y038549D01*
X045714Y038594D01*
X045708Y038639D01*
X045706Y038685D01*
D12*
X030873Y030338D02*
X030105Y030338D01*
X028924Y029964D02*
X028924Y030732D01*
X028137Y031126D02*
X027369Y031126D01*
X024968Y032700D02*
X024200Y032700D01*
X023412Y032307D02*
X022645Y032307D01*
X022231Y031126D02*
X021464Y031126D01*
X023412Y031126D02*
X024180Y031126D01*
X013786Y023488D02*
X013019Y023488D01*
X012940Y020850D02*
X013708Y020850D01*
X027743Y020496D02*
X028511Y020496D01*
X032468Y019708D02*
X033235Y019708D01*
X033235Y017740D02*
X032468Y017740D01*
X030479Y016559D02*
X029712Y016559D01*
X034830Y015574D02*
X035597Y015574D01*
X033235Y021677D02*
X032468Y021677D01*
X034830Y023842D02*
X035597Y023842D01*
X020637Y007897D02*
X019869Y007897D01*
X017094Y008291D02*
X016326Y008291D01*
D13*
X041261Y031490D03*
X042403Y033340D03*
X040080Y033340D03*
D14*
X034454Y033566D03*
X034454Y032566D03*
X033454Y032566D03*
X033454Y033566D03*
X033454Y034566D03*
X034454Y034566D03*
D15*
X039781Y005131D03*
X041552Y005131D03*
X042655Y005131D03*
X044426Y005131D03*
X044426Y002001D03*
X042655Y002001D03*
X041552Y002001D03*
X039781Y002001D03*
X008363Y002001D03*
X006592Y002001D03*
X005735Y001972D03*
X003964Y001972D03*
X003964Y005102D03*
X005735Y005102D03*
X006592Y005131D03*
X008363Y005131D03*
D16*
X010834Y002287D03*
X010834Y001460D03*
X012477Y001460D03*
X012477Y002287D03*
X013826Y002287D03*
X013826Y001460D03*
D17*
X006326Y034039D03*
D18*
X010273Y037877D03*
D19*
X009934Y017216D03*
X008934Y017216D03*
X007934Y017216D03*
X006934Y017216D03*
X005934Y017216D03*
X004934Y017216D03*
X003934Y017216D03*
X003934Y016216D03*
X004934Y016216D03*
X005934Y016216D03*
X006934Y016216D03*
X007934Y016216D03*
X008934Y016216D03*
X009934Y016216D03*
X010934Y016216D03*
X011934Y016216D03*
X012934Y016216D03*
X013934Y016216D03*
X014934Y016216D03*
X015934Y016216D03*
X016934Y016216D03*
X017934Y016216D03*
X018934Y016216D03*
X019934Y016216D03*
X020934Y016216D03*
X021934Y016216D03*
X022934Y016216D03*
X022934Y017216D03*
X021934Y017216D03*
X020934Y017216D03*
X019934Y017216D03*
X018934Y017216D03*
X017934Y017216D03*
X016934Y017216D03*
X015934Y017216D03*
X014934Y017216D03*
X013934Y017216D03*
X012934Y017216D03*
X011934Y017216D03*
X010934Y017216D03*
D20*
X040956Y026677D02*
X041696Y026677D01*
X041696Y027677D02*
X040956Y027677D01*
X041743Y013700D02*
X042483Y013700D01*
X042483Y012700D02*
X041743Y012700D01*
D21*
X041230Y012898D02*
X040372Y012898D01*
X040133Y013136D02*
X041401Y013136D01*
X041432Y013167D02*
X041277Y013012D01*
X041193Y012810D01*
X041193Y012591D01*
X041277Y012389D01*
X041432Y012234D01*
X041634Y012150D01*
X042593Y012150D01*
X042795Y012234D01*
X042949Y012389D01*
X043033Y012591D01*
X043033Y012810D01*
X042949Y013012D01*
X042795Y013167D01*
X042713Y013200D01*
X042795Y013234D01*
X042949Y013389D01*
X043033Y013591D01*
X043033Y013810D01*
X042949Y014012D01*
X042795Y014167D01*
X042593Y014250D01*
X041634Y014250D01*
X041432Y014167D01*
X041277Y014012D01*
X041193Y013810D01*
X041193Y013591D01*
X041277Y013389D01*
X041432Y013234D01*
X041513Y013200D01*
X041432Y013167D01*
X041291Y013375D02*
X039885Y013375D01*
X039901Y013368D02*
X039791Y013414D01*
X039672Y013414D01*
X039575Y013374D01*
X038579Y013374D01*
X038536Y013416D01*
X038405Y013471D01*
X038263Y013471D01*
X038131Y013416D01*
X038031Y013316D01*
X037976Y013185D01*
X037976Y013043D01*
X038031Y012911D01*
X038131Y012811D01*
X038231Y012769D01*
X038217Y012763D01*
X035386Y012763D01*
X035294Y012802D01*
X035152Y012802D01*
X035021Y012747D01*
X034921Y012647D01*
X034866Y012515D01*
X034866Y012373D01*
X034921Y012242D01*
X035021Y012142D01*
X035152Y012087D01*
X035294Y012087D01*
X035426Y012142D01*
X035526Y012242D01*
X035527Y012243D01*
X038209Y012243D01*
X041252Y009200D01*
X041252Y005617D01*
X041222Y005617D01*
X041116Y005511D01*
X041116Y004752D01*
X041222Y004646D01*
X041883Y004646D01*
X041988Y004752D01*
X041988Y005511D01*
X041883Y005617D01*
X041852Y005617D01*
X041852Y009384D01*
X041806Y009494D01*
X041722Y009579D01*
X038543Y012758D01*
X038475Y012786D01*
X038536Y012811D01*
X038579Y012854D01*
X039567Y012854D01*
X044126Y008295D01*
X044126Y005617D01*
X044096Y005617D01*
X043990Y005511D01*
X043990Y004752D01*
X044096Y004646D01*
X044757Y004646D01*
X044862Y004752D01*
X044862Y005511D01*
X044757Y005617D01*
X044726Y005617D01*
X044726Y008478D01*
X044681Y008589D01*
X044596Y008673D01*
X039901Y013368D01*
X039731Y013114D02*
X044426Y008419D01*
X044426Y005131D01*
X043990Y005027D02*
X043130Y005027D01*
X043130Y005123D02*
X042662Y005123D01*
X042662Y004606D01*
X042939Y004606D01*
X042995Y004621D01*
X043046Y004650D01*
X043086Y004691D01*
X043115Y004741D01*
X043130Y004797D01*
X043130Y005123D01*
X043130Y005139D02*
X043130Y005465D01*
X043115Y005521D01*
X043086Y005572D01*
X043046Y005613D01*
X042995Y005642D01*
X042939Y005657D01*
X042662Y005657D01*
X042662Y005139D01*
X042647Y005139D01*
X042647Y005123D01*
X042662Y005123D01*
X042662Y005139D01*
X043130Y005139D01*
X043130Y005266D02*
X043990Y005266D01*
X043990Y005504D02*
X043120Y005504D01*
X042662Y005504D02*
X042647Y005504D01*
X042647Y005657D02*
X042370Y005657D01*
X042314Y005642D01*
X042264Y005613D01*
X042223Y005572D01*
X042194Y005521D01*
X042179Y005465D01*
X042179Y005139D01*
X042647Y005139D01*
X042647Y005657D01*
X042647Y005266D02*
X042662Y005266D01*
X042647Y005123D02*
X042179Y005123D01*
X042179Y004797D01*
X042194Y004741D01*
X042223Y004691D01*
X042264Y004650D01*
X042314Y004621D01*
X042370Y004606D01*
X042647Y004606D01*
X042647Y005123D01*
X042647Y005027D02*
X042662Y005027D01*
X042647Y004789D02*
X042662Y004789D01*
X043128Y004789D02*
X043990Y004789D01*
X044862Y004789D02*
X046881Y004789D01*
X046881Y005027D02*
X044862Y005027D01*
X044862Y005266D02*
X046881Y005266D01*
X046881Y005504D02*
X044862Y005504D01*
X044726Y005743D02*
X046881Y005743D01*
X046881Y005981D02*
X044726Y005981D01*
X044726Y006220D02*
X046881Y006220D01*
X046881Y006458D02*
X044726Y006458D01*
X044726Y006697D02*
X046881Y006697D01*
X046881Y006935D02*
X044726Y006935D01*
X044726Y007174D02*
X046881Y007174D01*
X046881Y007412D02*
X044726Y007412D01*
X044726Y007651D02*
X046881Y007651D01*
X046881Y007889D02*
X044726Y007889D01*
X044726Y008128D02*
X046881Y008128D01*
X046881Y008366D02*
X044726Y008366D01*
X044665Y008605D02*
X046881Y008605D01*
X046881Y008843D02*
X044426Y008843D01*
X044188Y009082D02*
X046881Y009082D01*
X046881Y009320D02*
X043949Y009320D01*
X043711Y009559D02*
X046881Y009559D01*
X046881Y009797D02*
X043472Y009797D01*
X043234Y010036D02*
X046881Y010036D01*
X046881Y010274D02*
X042995Y010274D01*
X042757Y010513D02*
X046881Y010513D01*
X046881Y010751D02*
X042518Y010751D01*
X042280Y010990D02*
X046881Y010990D01*
X046881Y011228D02*
X042041Y011228D01*
X041803Y011467D02*
X046881Y011467D01*
X046881Y011705D02*
X041564Y011705D01*
X041326Y011944D02*
X046881Y011944D01*
X046881Y012182D02*
X042669Y012182D01*
X042963Y012421D02*
X046881Y012421D01*
X046881Y012659D02*
X043033Y012659D01*
X042997Y012898D02*
X046881Y012898D01*
X046881Y013136D02*
X042825Y013136D01*
X042935Y013375D02*
X046881Y013375D01*
X046881Y013613D02*
X043033Y013613D01*
X043016Y013852D02*
X046881Y013852D01*
X046881Y014090D02*
X042871Y014090D01*
X041355Y014090D02*
X028115Y014090D01*
X028006Y013981D02*
X028234Y014209D01*
X028358Y014507D01*
X028358Y014830D01*
X028234Y015128D01*
X028006Y015357D01*
X027708Y015480D01*
X027385Y015480D01*
X027087Y015357D01*
X026858Y015128D01*
X026735Y014830D01*
X026735Y014507D01*
X026858Y014209D01*
X027087Y013981D01*
X027385Y013857D01*
X027708Y013857D01*
X028006Y013981D01*
X028284Y014329D02*
X046881Y014329D01*
X046881Y014567D02*
X028358Y014567D01*
X028358Y014806D02*
X046881Y014806D01*
X046881Y015044D02*
X035791Y015044D01*
X035710Y015010D02*
X035917Y015096D01*
X036075Y015255D01*
X036161Y015462D01*
X036161Y015686D01*
X036075Y015894D01*
X035917Y016052D01*
X035746Y016123D01*
X035784Y016161D01*
X035857Y016234D01*
X035897Y016330D01*
X035897Y021373D01*
X035940Y021415D01*
X035994Y021547D01*
X035994Y021689D01*
X035940Y021820D01*
X035839Y021920D01*
X035708Y021975D01*
X035566Y021975D01*
X035434Y021920D01*
X035334Y021820D01*
X035280Y021689D01*
X035280Y021547D01*
X035334Y021415D01*
X035377Y021373D01*
X035377Y016489D01*
X035026Y016138D01*
X034718Y016138D01*
X034510Y016052D01*
X034352Y015894D01*
X034266Y015686D01*
X034266Y015462D01*
X034352Y015255D01*
X034510Y015096D01*
X034718Y015010D01*
X035710Y015010D01*
X036087Y015283D02*
X046881Y015283D01*
X046881Y015521D02*
X036161Y015521D01*
X036131Y015760D02*
X046881Y015760D01*
X046881Y015998D02*
X035971Y015998D01*
X035858Y016237D02*
X046881Y016237D01*
X046881Y016475D02*
X035897Y016475D01*
X035897Y016714D02*
X046881Y016714D01*
X046881Y016952D02*
X035897Y016952D01*
X035897Y017191D02*
X046881Y017191D01*
X046881Y017429D02*
X035897Y017429D01*
X035897Y017668D02*
X046881Y017668D01*
X046881Y017906D02*
X035897Y017906D01*
X035897Y018145D02*
X046881Y018145D01*
X046881Y018383D02*
X035897Y018383D01*
X035897Y018622D02*
X046881Y018622D01*
X046881Y018860D02*
X039479Y018860D01*
X039428Y018839D02*
X039560Y018894D01*
X039660Y018994D01*
X039714Y019125D01*
X039714Y019267D01*
X039660Y019399D01*
X039657Y019401D01*
X039657Y025667D01*
X040269Y026278D01*
X040576Y026278D01*
X040644Y026210D01*
X040846Y026127D01*
X041805Y026127D01*
X042007Y026210D01*
X042162Y026365D01*
X042246Y026567D01*
X042246Y026786D01*
X042162Y026988D01*
X042007Y027143D01*
X041975Y027157D01*
X042005Y027172D01*
X042080Y027227D01*
X042146Y027292D01*
X042200Y027367D01*
X042243Y027450D01*
X042271Y027539D01*
X042286Y027630D01*
X042286Y027677D01*
X042286Y027723D01*
X042271Y027815D01*
X042243Y027903D01*
X042200Y027986D01*
X042146Y028061D01*
X042080Y028127D01*
X042005Y028181D01*
X041922Y028223D01*
X041834Y028252D01*
X041742Y028267D01*
X041326Y028267D01*
X041326Y027677D01*
X041326Y027677D01*
X042286Y027677D01*
X041326Y027677D01*
X041326Y027677D01*
X041326Y028267D01*
X040909Y028267D01*
X040818Y028252D01*
X040729Y028223D01*
X040647Y028181D01*
X040571Y028127D01*
X040506Y028061D01*
X040451Y027986D01*
X040409Y027903D01*
X040380Y027815D01*
X040366Y027723D01*
X040366Y027677D01*
X041326Y027677D01*
X041326Y027677D01*
X040366Y027677D01*
X040366Y027630D01*
X040380Y027539D01*
X040409Y027450D01*
X040451Y027367D01*
X040506Y027292D01*
X040571Y027227D01*
X040647Y027172D01*
X040677Y027157D01*
X040644Y027143D01*
X040490Y026988D01*
X040444Y026878D01*
X040085Y026878D01*
X039975Y026833D01*
X039890Y026748D01*
X039103Y025961D01*
X039057Y025851D01*
X039057Y019401D01*
X039054Y019399D01*
X039000Y019267D01*
X039000Y019125D01*
X039054Y018994D01*
X039155Y018894D01*
X039286Y018839D01*
X039428Y018839D01*
X039236Y018860D02*
X035897Y018860D01*
X035897Y019099D02*
X039011Y019099D01*
X039029Y019337D02*
X035897Y019337D01*
X035897Y019576D02*
X039057Y019576D01*
X039057Y019814D02*
X035897Y019814D01*
X035897Y020053D02*
X039057Y020053D01*
X039057Y020291D02*
X035897Y020291D01*
X035897Y020530D02*
X039057Y020530D01*
X039057Y020768D02*
X035897Y020768D01*
X035897Y021007D02*
X039057Y021007D01*
X039057Y021245D02*
X035897Y021245D01*
X035968Y021484D02*
X039057Y021484D01*
X039057Y021722D02*
X035980Y021722D01*
X035742Y021961D02*
X039057Y021961D01*
X039057Y022199D02*
X033447Y022199D01*
X033347Y022241D02*
X033555Y022155D01*
X033713Y021996D01*
X033799Y021789D01*
X033799Y021565D01*
X033713Y021357D01*
X033555Y021199D01*
X033347Y021113D01*
X032355Y021113D01*
X032148Y021199D01*
X031990Y021357D01*
X031904Y021565D01*
X031904Y021789D01*
X031990Y021996D01*
X032148Y022155D01*
X032168Y022163D01*
X032168Y023488D01*
X032213Y023599D01*
X033380Y024766D01*
X033394Y024799D01*
X035081Y026486D01*
X035081Y029210D01*
X034802Y029489D01*
X034798Y029489D01*
X034667Y029543D01*
X034566Y029644D01*
X034512Y029775D01*
X034512Y029917D01*
X034566Y030048D01*
X034667Y030149D01*
X034798Y030203D01*
X034940Y030203D01*
X035071Y030149D01*
X035172Y030048D01*
X035226Y029917D01*
X035226Y029913D01*
X035635Y029504D01*
X035681Y029394D01*
X035681Y026302D01*
X035635Y026192D01*
X035551Y026107D01*
X033917Y024473D01*
X033903Y024440D01*
X033819Y024355D01*
X033819Y024355D01*
X032768Y023304D01*
X032768Y022241D01*
X033347Y022241D01*
X033728Y021961D02*
X035532Y021961D01*
X035293Y021722D02*
X033799Y021722D01*
X033766Y021484D02*
X035306Y021484D01*
X035377Y021245D02*
X033601Y021245D01*
X033377Y020297D02*
X033283Y020312D01*
X032475Y020312D01*
X032475Y019716D01*
X032460Y019716D01*
X032460Y020312D01*
X032420Y020312D01*
X032326Y020297D01*
X032236Y020268D01*
X032151Y020225D01*
X032074Y020169D01*
X032007Y020102D01*
X031951Y020025D01*
X031908Y019940D01*
X031879Y019850D01*
X031864Y019756D01*
X031864Y019716D01*
X032460Y019716D01*
X032460Y019700D01*
X032475Y019700D01*
X032475Y019104D01*
X033283Y019104D01*
X033377Y019119D01*
X033467Y019149D01*
X033552Y019192D01*
X033629Y019248D01*
X033696Y019315D01*
X033752Y019392D01*
X033795Y019476D01*
X033824Y019567D01*
X033839Y019661D01*
X033839Y019700D01*
X032475Y019700D01*
X032475Y019716D01*
X033839Y019716D01*
X033839Y019756D01*
X033824Y019850D01*
X033795Y019940D01*
X033752Y020025D01*
X033696Y020102D01*
X033629Y020169D01*
X033552Y020225D01*
X033467Y020268D01*
X033377Y020297D01*
X033395Y020291D02*
X035377Y020291D01*
X035377Y020053D02*
X033731Y020053D01*
X033830Y019814D02*
X035377Y019814D01*
X035377Y019576D02*
X033826Y019576D01*
X033712Y019337D02*
X035377Y019337D01*
X035377Y019099D02*
X028003Y019099D01*
X028003Y019337D02*
X031991Y019337D01*
X032007Y019315D02*
X032074Y019248D01*
X032151Y019192D01*
X032236Y019149D01*
X032326Y019119D01*
X032420Y019104D01*
X032460Y019104D01*
X032460Y019700D01*
X031864Y019700D01*
X031864Y019661D01*
X031879Y019567D01*
X031908Y019476D01*
X031951Y019392D01*
X032007Y019315D01*
X031877Y019576D02*
X028003Y019576D01*
X028003Y019814D02*
X031873Y019814D01*
X031971Y020053D02*
X028865Y020053D01*
X028830Y020018D02*
X028989Y020176D01*
X029075Y020383D01*
X029075Y020608D01*
X028989Y020815D01*
X028830Y020974D01*
X028623Y021059D01*
X027631Y021059D01*
X027424Y020974D01*
X027265Y020815D01*
X027179Y020608D01*
X027179Y020383D01*
X027265Y020176D01*
X027424Y020018D01*
X027483Y019993D01*
X027483Y017316D01*
X027421Y017253D01*
X027366Y017122D01*
X027366Y016980D01*
X027421Y016848D01*
X027521Y016748D01*
X027652Y016694D01*
X027794Y016694D01*
X027926Y016748D01*
X028026Y016848D01*
X028081Y016980D01*
X028081Y017122D01*
X028026Y017253D01*
X028003Y017276D01*
X028003Y019932D01*
X028623Y019932D01*
X028830Y020018D01*
X029036Y020291D02*
X032307Y020291D01*
X032460Y020291D02*
X032475Y020291D01*
X032460Y020053D02*
X032475Y020053D01*
X032460Y019814D02*
X032475Y019814D01*
X032460Y019576D02*
X032475Y019576D01*
X032460Y019337D02*
X032475Y019337D01*
X032475Y018344D02*
X032475Y017748D01*
X032460Y017748D01*
X032460Y018344D01*
X032420Y018344D01*
X032326Y018329D01*
X032236Y018299D01*
X032151Y018256D01*
X032074Y018200D01*
X032007Y018133D01*
X031951Y018056D01*
X031908Y017971D01*
X031879Y017881D01*
X031864Y017787D01*
X031864Y017748D01*
X032460Y017748D01*
X032460Y017732D01*
X032475Y017732D01*
X032475Y017136D01*
X033283Y017136D01*
X033377Y017151D01*
X033467Y017180D01*
X033552Y017223D01*
X033629Y017279D01*
X033696Y017346D01*
X033752Y017423D01*
X033795Y017508D01*
X033824Y017598D01*
X033839Y017692D01*
X033839Y017732D01*
X032475Y017732D01*
X032475Y017748D01*
X033839Y017748D01*
X033839Y017787D01*
X033824Y017881D01*
X033795Y017971D01*
X033752Y018056D01*
X033696Y018133D01*
X033629Y018200D01*
X033552Y018256D01*
X033467Y018299D01*
X033377Y018329D01*
X033283Y018344D01*
X032475Y018344D01*
X032460Y018145D02*
X032475Y018145D01*
X032460Y017906D02*
X032475Y017906D01*
X032460Y017732D02*
X031864Y017732D01*
X031864Y017692D01*
X031879Y017598D01*
X031908Y017508D01*
X031951Y017423D01*
X032007Y017346D01*
X032074Y017279D01*
X032151Y017223D01*
X032236Y017180D01*
X032326Y017151D01*
X032420Y017136D01*
X032460Y017136D01*
X032460Y017732D01*
X032460Y017668D02*
X032475Y017668D01*
X032460Y017429D02*
X032475Y017429D01*
X032460Y017191D02*
X032475Y017191D01*
X032215Y017191D02*
X028052Y017191D01*
X028069Y016952D02*
X029308Y016952D01*
X029234Y016878D02*
X029148Y016671D01*
X029148Y016446D01*
X029234Y016239D01*
X029392Y016081D01*
X029599Y015995D01*
X030591Y015995D01*
X030799Y016081D01*
X030957Y016239D01*
X031043Y016446D01*
X031043Y016671D01*
X030957Y016878D01*
X030799Y017037D01*
X030591Y017122D01*
X029599Y017122D01*
X029392Y017037D01*
X029234Y016878D01*
X029166Y016714D02*
X027843Y016714D01*
X027604Y016714D02*
X025661Y016714D01*
X025661Y016858D02*
X025537Y017156D01*
X025309Y017384D01*
X025011Y017508D01*
X024688Y017508D01*
X024390Y017384D01*
X024162Y017156D01*
X024038Y016858D01*
X024038Y016535D01*
X024162Y016237D01*
X023414Y016237D01*
X023414Y016272D02*
X023878Y016735D01*
X023962Y016820D01*
X024008Y016930D01*
X024008Y018598D01*
X024010Y018600D01*
X024065Y018732D01*
X024065Y018874D01*
X024010Y019005D01*
X023910Y019105D01*
X023779Y019160D01*
X023637Y019160D01*
X023505Y019105D01*
X023405Y019005D01*
X023351Y018874D01*
X023351Y018732D01*
X023405Y018600D01*
X023408Y018598D01*
X023408Y017421D01*
X023133Y017696D01*
X022735Y017696D01*
X022454Y017415D01*
X022454Y017017D01*
X022735Y016736D01*
X023030Y016736D01*
X022990Y016696D01*
X022735Y016696D01*
X022515Y016476D01*
X022353Y016476D01*
X022133Y016696D01*
X021735Y016696D01*
X021454Y016415D01*
X021454Y016017D01*
X021735Y015736D01*
X022133Y015736D01*
X022353Y015956D01*
X022515Y015956D01*
X022735Y015736D01*
X023133Y015736D01*
X023414Y016017D01*
X023414Y016272D01*
X023395Y015998D02*
X024415Y015998D01*
X024390Y016009D02*
X024688Y015885D01*
X025011Y015885D01*
X025309Y016009D01*
X025537Y016237D01*
X025661Y016535D01*
X025661Y016858D01*
X025622Y016952D02*
X027378Y016952D01*
X027395Y017191D02*
X025503Y017191D01*
X025201Y017429D02*
X027483Y017429D01*
X027483Y017668D02*
X024008Y017668D01*
X024008Y017906D02*
X027483Y017906D01*
X027483Y018145D02*
X024008Y018145D01*
X024008Y018383D02*
X027483Y018383D01*
X027483Y018622D02*
X024019Y018622D01*
X024065Y018860D02*
X027483Y018860D01*
X027483Y019099D02*
X023917Y019099D01*
X023708Y018803D02*
X023708Y016990D01*
X022934Y016216D01*
X022712Y015760D02*
X022156Y015760D01*
X021712Y015760D02*
X021213Y015760D01*
X021149Y015696D02*
X021454Y016001D01*
X021454Y016216D01*
X020934Y016216D01*
X020934Y016216D01*
X020934Y015696D01*
X020719Y015696D01*
X020414Y016001D01*
X020414Y016216D01*
X020934Y016216D01*
X020934Y016216D01*
X020934Y015696D01*
X021149Y015696D01*
X020934Y015760D02*
X020934Y015760D01*
X020934Y015998D02*
X020934Y015998D01*
X020934Y016216D02*
X020934Y016216D01*
X020414Y016216D01*
X020414Y016431D01*
X020719Y016736D01*
X020934Y016736D01*
X020934Y016216D01*
X020934Y016216D01*
X021454Y016216D01*
X021454Y016431D01*
X021149Y016736D01*
X020934Y016736D01*
X020934Y016216D01*
X020934Y016237D02*
X020934Y016237D01*
X020934Y016475D02*
X020934Y016475D01*
X020934Y016714D02*
X020934Y016714D01*
X020735Y016736D02*
X021133Y016736D01*
X021414Y017017D01*
X021414Y017415D01*
X021133Y017696D01*
X020735Y017696D01*
X020454Y017415D01*
X020454Y017017D01*
X020735Y016736D01*
X020696Y016714D02*
X019167Y016714D01*
X019149Y016696D02*
X019454Y017001D01*
X019454Y017216D01*
X018934Y017216D01*
X018934Y017216D01*
X018934Y016696D01*
X018719Y016696D01*
X018414Y017001D01*
X018414Y017216D01*
X018934Y017216D01*
X018934Y017216D01*
X018934Y016696D01*
X019149Y016696D01*
X019133Y016696D02*
X018735Y016696D01*
X018454Y016415D01*
X018454Y016017D01*
X018735Y015736D01*
X019019Y015736D01*
X019019Y015286D01*
X019058Y015191D01*
X021302Y012947D01*
X021302Y012709D01*
X021259Y012666D01*
X021205Y012535D01*
X021205Y012393D01*
X021259Y012262D01*
X021360Y012161D01*
X021491Y012107D01*
X021633Y012107D01*
X021764Y012161D01*
X021865Y012262D01*
X021919Y012393D01*
X021919Y012535D01*
X021865Y012666D01*
X021822Y012709D01*
X021822Y013106D01*
X021782Y013202D01*
X021709Y013275D01*
X019539Y015446D01*
X019539Y015923D01*
X019532Y015939D01*
X019735Y015736D01*
X019781Y015736D01*
X019871Y015361D01*
X019871Y015340D01*
X019883Y015311D01*
X019890Y015281D01*
X019902Y015263D01*
X019910Y015244D01*
X019932Y015222D01*
X019951Y015197D01*
X019969Y015186D01*
X022129Y013025D01*
X022202Y012952D01*
X022298Y012913D01*
X022734Y012913D01*
X022777Y012870D01*
X022908Y012816D01*
X023050Y012816D01*
X023182Y012870D01*
X023282Y012970D01*
X023336Y013102D01*
X023336Y013244D01*
X023282Y013375D01*
X023182Y013476D01*
X023050Y013530D01*
X022908Y013530D01*
X022777Y013476D01*
X022734Y013433D01*
X022457Y013433D01*
X020367Y015523D01*
X020281Y015884D01*
X020414Y016017D01*
X020414Y016415D01*
X020133Y016696D01*
X019735Y016696D01*
X019454Y016415D01*
X019454Y016064D01*
X019426Y016092D01*
X019414Y016104D01*
X019414Y016415D01*
X019133Y016696D01*
X018934Y016714D02*
X018934Y016714D01*
X018701Y016714D02*
X017172Y016714D01*
X017149Y016736D02*
X016934Y016736D01*
X016719Y016736D01*
X016414Y016431D01*
X016414Y016216D01*
X016414Y016001D01*
X016719Y015696D01*
X016934Y015696D01*
X016934Y016216D01*
X016934Y016216D01*
X016414Y016216D01*
X016934Y016216D01*
X016934Y016216D01*
X016934Y015696D01*
X017149Y015696D01*
X017454Y016001D01*
X017454Y016216D01*
X016934Y016216D01*
X016934Y016216D01*
X016934Y016736D01*
X016934Y016216D01*
X016934Y016216D01*
X017454Y016216D01*
X017454Y016431D01*
X017149Y016736D01*
X017133Y016736D02*
X017414Y017017D01*
X017414Y017415D01*
X017133Y017696D01*
X016735Y017696D01*
X016454Y017415D01*
X016454Y017017D01*
X016735Y016736D01*
X017133Y016736D01*
X016934Y016714D02*
X016934Y016714D01*
X016696Y016714D02*
X014172Y016714D01*
X014149Y016736D02*
X013934Y016736D01*
X013719Y016736D01*
X013414Y016431D01*
X013414Y016216D01*
X013414Y016001D01*
X013719Y015696D01*
X013934Y015696D01*
X013934Y016216D01*
X013934Y016216D01*
X013414Y016216D01*
X013934Y016216D01*
X013934Y016216D01*
X013934Y015696D01*
X014149Y015696D01*
X014454Y016001D01*
X014454Y016216D01*
X013934Y016216D01*
X013934Y016216D01*
X013934Y016736D01*
X013934Y016216D01*
X013934Y016216D01*
X014454Y016216D01*
X014454Y016431D01*
X014149Y016736D01*
X014133Y016736D02*
X014414Y017017D01*
X014414Y017415D01*
X014133Y017696D01*
X013735Y017696D01*
X013454Y017415D01*
X013454Y017017D01*
X013735Y016736D01*
X014133Y016736D01*
X013934Y016714D02*
X013934Y016714D01*
X013696Y016714D02*
X011167Y016714D01*
X011149Y016696D02*
X011454Y017001D01*
X011454Y017216D01*
X010934Y017216D01*
X010934Y017216D01*
X010934Y016696D01*
X010719Y016696D01*
X010414Y017001D01*
X010414Y017216D01*
X010934Y017216D01*
X010934Y017216D01*
X010934Y016696D01*
X011149Y016696D01*
X011133Y016696D02*
X010735Y016696D01*
X010454Y016415D01*
X010454Y016017D01*
X010735Y015736D01*
X011133Y015736D01*
X011414Y016017D01*
X011414Y016415D01*
X011133Y016696D01*
X010934Y016714D02*
X010934Y016714D01*
X010701Y016714D02*
X009172Y016714D01*
X009149Y016736D02*
X008934Y016736D01*
X008719Y016736D01*
X008414Y016431D01*
X008414Y016216D01*
X008414Y016001D01*
X008719Y015696D01*
X008934Y015696D01*
X008934Y016216D01*
X008934Y016216D01*
X008414Y016216D01*
X008934Y016216D01*
X008934Y016216D01*
X008934Y015696D01*
X009149Y015696D01*
X009454Y016001D01*
X009454Y016216D01*
X008934Y016216D01*
X008934Y016216D01*
X008934Y016736D01*
X008934Y016216D01*
X008934Y016216D01*
X009454Y016216D01*
X009454Y016431D01*
X009149Y016736D01*
X009133Y016736D02*
X009414Y017017D01*
X009414Y017415D01*
X009133Y017696D01*
X008735Y017696D01*
X008454Y017415D01*
X008454Y017017D01*
X008735Y016736D01*
X009133Y016736D01*
X008934Y016714D02*
X008934Y016714D01*
X008696Y016714D02*
X007172Y016714D01*
X007149Y016736D02*
X007454Y016431D01*
X007454Y016216D01*
X006934Y016216D01*
X006934Y016216D01*
X006934Y015696D01*
X006719Y015696D01*
X006414Y016001D01*
X006414Y016216D01*
X006934Y016216D01*
X006934Y016216D01*
X006934Y015696D01*
X007149Y015696D01*
X007454Y016001D01*
X007454Y016216D01*
X006934Y016216D01*
X006414Y016216D01*
X006414Y016431D01*
X006719Y016736D01*
X006934Y016736D01*
X006934Y016216D01*
X006934Y016216D01*
X006934Y016216D01*
X006934Y016736D01*
X007149Y016736D01*
X007133Y016736D02*
X007414Y017017D01*
X007414Y017415D01*
X007133Y017696D01*
X006735Y017696D01*
X006454Y017415D01*
X006454Y017017D01*
X006735Y016736D01*
X007133Y016736D01*
X006934Y016714D02*
X006934Y016714D01*
X006696Y016714D02*
X004167Y016714D01*
X004149Y016696D02*
X004454Y017001D01*
X004454Y017216D01*
X003934Y017216D01*
X003934Y017216D01*
X003934Y016696D01*
X003719Y016696D01*
X003414Y017001D01*
X003414Y017216D01*
X003934Y017216D01*
X003934Y017216D01*
X003934Y016696D01*
X004149Y016696D01*
X004133Y016696D02*
X003735Y016696D01*
X003454Y016415D01*
X003454Y016017D01*
X003735Y015736D01*
X004133Y015736D01*
X004414Y016017D01*
X004414Y016415D01*
X004133Y016696D01*
X003934Y016714D02*
X003934Y016714D01*
X003701Y016714D02*
X002826Y016714D01*
X002826Y016858D02*
X002703Y017156D01*
X002474Y017384D01*
X002176Y017508D01*
X001853Y017508D01*
X001555Y017384D01*
X001327Y017156D01*
X001203Y016858D01*
X001203Y016535D01*
X001327Y016237D01*
X001555Y016009D01*
X001853Y015885D01*
X002176Y015885D01*
X002474Y016009D01*
X002703Y016237D01*
X002826Y016535D01*
X002826Y016858D01*
X002787Y016952D02*
X003463Y016952D01*
X003414Y017191D02*
X002668Y017191D01*
X002366Y017429D02*
X003414Y017429D01*
X003414Y017431D02*
X003414Y017216D01*
X003934Y017216D01*
X003934Y017216D01*
X003934Y017736D01*
X003719Y017736D01*
X003414Y017431D01*
X003650Y017668D02*
X000928Y017668D01*
X000928Y017906D02*
X004674Y017906D01*
X004674Y017668D02*
X004218Y017668D01*
X004149Y017736D02*
X003934Y017736D01*
X003934Y017216D01*
X003934Y017216D01*
X004454Y017216D01*
X004454Y017431D01*
X004149Y017736D01*
X003934Y017668D02*
X003934Y017668D01*
X003934Y017429D02*
X003934Y017429D01*
X003934Y017191D02*
X003934Y017191D01*
X003934Y016952D02*
X003934Y016952D01*
X004405Y016952D02*
X004519Y016952D01*
X004454Y017017D02*
X004735Y016736D01*
X005133Y016736D01*
X005414Y017017D01*
X005414Y017415D01*
X005194Y017635D01*
X005194Y028662D01*
X006149Y029617D01*
X006210Y029617D01*
X006341Y029671D01*
X006442Y029772D01*
X006496Y029903D01*
X006496Y030045D01*
X006442Y030176D01*
X006341Y030277D01*
X006210Y030331D01*
X006068Y030331D01*
X005936Y030277D01*
X005836Y030176D01*
X005782Y030045D01*
X005782Y029984D01*
X004714Y028916D01*
X004674Y028821D01*
X004674Y017635D01*
X004454Y017415D01*
X004454Y017017D01*
X004454Y017191D02*
X004454Y017191D01*
X004454Y017429D02*
X004468Y017429D01*
X005194Y017668D02*
X005707Y017668D01*
X005735Y017696D02*
X005454Y017415D01*
X005454Y017017D01*
X005735Y016736D01*
X006133Y016736D01*
X006414Y017017D01*
X006414Y017415D01*
X006133Y017696D01*
X005735Y017696D01*
X005468Y017429D02*
X005400Y017429D01*
X005414Y017191D02*
X005454Y017191D01*
X005519Y016952D02*
X005349Y016952D01*
X005133Y016696D02*
X005414Y016415D01*
X005414Y016017D01*
X005133Y015736D01*
X004735Y015736D01*
X004454Y016017D01*
X004454Y016415D01*
X004735Y016696D01*
X005133Y016696D01*
X005354Y016475D02*
X005514Y016475D01*
X005454Y016415D02*
X005454Y016017D01*
X005735Y015736D01*
X006133Y015736D01*
X006414Y016017D01*
X006414Y016415D01*
X006133Y016696D01*
X005735Y016696D01*
X005454Y016415D01*
X005454Y016237D02*
X005414Y016237D01*
X005395Y015998D02*
X005473Y015998D01*
X005712Y015760D02*
X005156Y015760D01*
X004712Y015760D02*
X004156Y015760D01*
X004395Y015998D02*
X004473Y015998D01*
X004454Y016237D02*
X004414Y016237D01*
X004354Y016475D02*
X004514Y016475D01*
X003514Y016475D02*
X002801Y016475D01*
X002702Y016237D02*
X003454Y016237D01*
X003473Y015998D02*
X002449Y015998D01*
X001580Y015998D02*
X000928Y015998D01*
X000928Y015760D02*
X003712Y015760D01*
X002135Y014182D02*
X001804Y014319D01*
X001446Y014319D01*
X001115Y014182D01*
X000928Y013994D01*
X000928Y038171D01*
X001102Y037997D01*
X001401Y037873D01*
X001723Y037873D01*
X002022Y037997D01*
X002250Y038225D01*
X002373Y038523D01*
X002373Y038846D01*
X002250Y039144D01*
X002154Y039240D01*
X045655Y039240D01*
X045559Y039144D01*
X045436Y038846D01*
X045436Y038523D01*
X045559Y038225D01*
X045787Y037997D01*
X046086Y037873D01*
X046408Y037873D01*
X046707Y037997D01*
X046881Y038171D01*
X046881Y001993D01*
X046707Y002168D01*
X046408Y002291D01*
X046086Y002291D01*
X045787Y002168D01*
X045559Y001939D01*
X045436Y001641D01*
X045436Y001318D01*
X045559Y001020D01*
X045734Y000846D01*
X002075Y000846D01*
X002250Y001020D01*
X002373Y001318D01*
X002373Y001641D01*
X002250Y001939D01*
X002022Y002168D01*
X001723Y002291D01*
X001401Y002291D01*
X001102Y002168D01*
X000928Y001993D01*
X000928Y002843D01*
X001115Y002656D01*
X001446Y002519D01*
X001804Y002519D01*
X002135Y002656D01*
X002388Y002909D01*
X002525Y003240D01*
X002525Y003598D01*
X002388Y003929D01*
X002135Y004182D01*
X001804Y004319D01*
X001446Y004319D01*
X001115Y004182D01*
X000928Y003994D01*
X000928Y012843D01*
X001115Y012656D01*
X001446Y012519D01*
X001804Y012519D01*
X002135Y012656D01*
X002388Y012909D01*
X002525Y013240D01*
X002525Y013598D01*
X002388Y013929D01*
X002135Y014182D01*
X002226Y014090D02*
X007072Y014090D01*
X006834Y013852D02*
X002420Y013852D01*
X002519Y013613D02*
X006595Y013613D01*
X006357Y013375D02*
X002525Y013375D01*
X002482Y013136D02*
X006118Y013136D01*
X005880Y012898D02*
X002376Y012898D01*
X002138Y012659D02*
X005641Y012659D01*
X005515Y012533D02*
X005475Y012437D01*
X005475Y005587D01*
X005405Y005587D01*
X005299Y005482D01*
X005299Y004722D01*
X005405Y004617D01*
X006066Y004617D01*
X006152Y004704D01*
X006160Y004691D01*
X006201Y004650D01*
X006251Y004621D01*
X006307Y004606D01*
X006584Y004606D01*
X006584Y005123D01*
X006599Y005123D01*
X006599Y004606D01*
X006876Y004606D01*
X006932Y004621D01*
X006983Y004650D01*
X007023Y004691D01*
X007052Y004741D01*
X007067Y004797D01*
X007067Y005123D01*
X006599Y005123D01*
X006599Y005139D01*
X006584Y005139D01*
X006584Y005657D01*
X006307Y005657D01*
X006251Y005642D01*
X006201Y005613D01*
X006160Y005572D01*
X006131Y005522D01*
X006066Y005587D01*
X005995Y005587D01*
X005995Y012278D01*
X008520Y014803D01*
X015708Y014803D01*
X015804Y014842D01*
X016349Y015388D01*
X016389Y015483D01*
X016389Y015992D01*
X016414Y016017D01*
X016414Y016415D01*
X016133Y016696D01*
X015735Y016696D01*
X015454Y016415D01*
X015454Y016017D01*
X015735Y015736D01*
X015869Y015736D01*
X015869Y015643D01*
X015549Y015323D01*
X008361Y015323D01*
X008265Y015283D01*
X008192Y015210D01*
X008192Y015210D01*
X005515Y012533D01*
X005475Y012421D02*
X000928Y012421D01*
X000928Y012659D02*
X001112Y012659D01*
X000928Y012182D02*
X005475Y012182D01*
X005475Y011944D02*
X000928Y011944D01*
X000928Y011705D02*
X005475Y011705D01*
X005475Y011467D02*
X000928Y011467D01*
X000928Y011228D02*
X005475Y011228D01*
X005475Y010990D02*
X000928Y010990D01*
X000928Y010751D02*
X005475Y010751D01*
X005475Y010513D02*
X000928Y010513D01*
X000928Y010274D02*
X005475Y010274D01*
X005475Y010036D02*
X000928Y010036D01*
X000928Y009797D02*
X005475Y009797D01*
X005475Y009559D02*
X000928Y009559D01*
X000928Y009320D02*
X005475Y009320D01*
X005475Y009082D02*
X000928Y009082D01*
X000928Y008843D02*
X005475Y008843D01*
X005475Y008605D02*
X000928Y008605D01*
X000928Y008366D02*
X005475Y008366D01*
X005475Y008128D02*
X000928Y008128D01*
X000928Y007889D02*
X005475Y007889D01*
X005475Y007651D02*
X000928Y007651D01*
X000928Y007412D02*
X005475Y007412D01*
X005475Y007174D02*
X000928Y007174D01*
X000928Y006935D02*
X005475Y006935D01*
X005475Y006697D02*
X000928Y006697D01*
X000928Y006458D02*
X005475Y006458D01*
X005475Y006220D02*
X000928Y006220D01*
X000928Y005981D02*
X005475Y005981D01*
X005475Y005743D02*
X000928Y005743D01*
X000928Y005504D02*
X003510Y005504D01*
X003503Y005492D02*
X003488Y005436D01*
X003488Y005110D01*
X003956Y005110D01*
X003956Y005627D01*
X003679Y005627D01*
X003623Y005612D01*
X003573Y005583D01*
X003532Y005542D01*
X003503Y005492D01*
X003488Y005266D02*
X000928Y005266D01*
X000928Y005027D02*
X003488Y005027D01*
X003488Y005094D02*
X003488Y004768D01*
X003503Y004712D01*
X003532Y004662D01*
X003573Y004621D01*
X003623Y004592D01*
X003679Y004577D01*
X003956Y004577D01*
X003956Y005094D01*
X003972Y005094D01*
X003972Y005110D01*
X004439Y005110D01*
X004439Y005436D01*
X004424Y005492D01*
X004396Y005542D01*
X004355Y005583D01*
X004304Y005612D01*
X004248Y005627D01*
X003972Y005627D01*
X003972Y005110D01*
X003956Y005110D01*
X003956Y005094D01*
X003488Y005094D01*
X003488Y004789D02*
X000928Y004789D01*
X000928Y004550D02*
X010534Y004550D01*
X010534Y004312D02*
X001821Y004312D01*
X001429Y004312D02*
X000928Y004312D01*
X000928Y004073D02*
X001007Y004073D01*
X002243Y004073D02*
X010534Y004073D01*
X010534Y003835D02*
X002427Y003835D01*
X002525Y003596D02*
X010534Y003596D01*
X010534Y003358D02*
X002525Y003358D01*
X002475Y003119D02*
X010534Y003119D01*
X010534Y002881D02*
X002359Y002881D01*
X002101Y002642D02*
X010462Y002642D01*
X010417Y002598D02*
X010417Y001976D01*
X010500Y001894D01*
X010462Y001872D01*
X010421Y001831D01*
X010392Y001781D01*
X010377Y001725D01*
X010377Y001460D01*
X010377Y001195D01*
X010392Y001139D01*
X010421Y001089D01*
X010462Y001048D01*
X010513Y001019D01*
X010568Y001004D01*
X010834Y001004D01*
X011099Y001004D01*
X011155Y001019D01*
X011205Y001048D01*
X011246Y001089D01*
X011275Y001139D01*
X011290Y001195D01*
X011290Y001460D01*
X010834Y001460D01*
X010834Y001460D01*
X010834Y001004D01*
X010834Y001460D01*
X010834Y001460D01*
X011290Y001460D01*
X011290Y001725D01*
X011275Y001781D01*
X011246Y001831D01*
X011205Y001872D01*
X011168Y001894D01*
X011250Y001976D01*
X011250Y002598D01*
X011144Y002703D01*
X011134Y002703D01*
X011134Y010430D01*
X012653Y011949D01*
X012657Y011949D01*
X012788Y012004D01*
X012888Y012104D01*
X012943Y012236D01*
X012943Y012378D01*
X012888Y012509D01*
X012788Y012609D01*
X012657Y012664D01*
X012515Y012664D01*
X012383Y012609D01*
X012283Y012509D01*
X012228Y012378D01*
X012228Y012374D01*
X010579Y010725D01*
X010534Y010614D01*
X010534Y002703D01*
X010523Y002703D01*
X010417Y002598D01*
X010417Y002404D02*
X008777Y002404D01*
X008799Y002381D02*
X008694Y002487D01*
X008033Y002487D01*
X007927Y002381D01*
X007927Y001622D01*
X008033Y001516D01*
X008694Y001516D01*
X008799Y001622D01*
X008799Y002381D01*
X008799Y002165D02*
X010417Y002165D01*
X010467Y001927D02*
X008799Y001927D01*
X008799Y001688D02*
X010377Y001688D01*
X010377Y001460D02*
X010834Y001460D01*
X010377Y001460D01*
X010377Y001450D02*
X002373Y001450D01*
X002354Y001688D02*
X003528Y001688D01*
X003528Y001592D02*
X003633Y001487D01*
X004294Y001487D01*
X004399Y001592D01*
X004399Y002352D01*
X004294Y002457D01*
X003633Y002457D01*
X003528Y002352D01*
X003528Y001592D01*
X003528Y001927D02*
X002255Y001927D01*
X002024Y002165D02*
X003528Y002165D01*
X003580Y002404D02*
X000928Y002404D01*
X000928Y002642D02*
X001149Y002642D01*
X001100Y002165D02*
X000928Y002165D01*
X002329Y001211D02*
X010377Y001211D01*
X010834Y001211D02*
X010834Y001211D01*
X010834Y001450D02*
X010834Y001450D01*
X010834Y001460D02*
X010834Y001460D01*
X011290Y001450D02*
X012021Y001450D01*
X012021Y001460D02*
X012021Y001195D01*
X012036Y001139D01*
X012065Y001089D01*
X012106Y001048D01*
X012156Y001019D01*
X012212Y001004D01*
X012477Y001004D01*
X012477Y001460D01*
X012021Y001460D01*
X012477Y001460D01*
X012477Y001460D01*
X012477Y001460D01*
X012477Y001004D01*
X012743Y001004D01*
X012798Y001019D01*
X012849Y001048D01*
X012890Y001089D01*
X012919Y001139D01*
X012934Y001195D01*
X012934Y001460D01*
X012477Y001460D01*
X012477Y001460D01*
X012934Y001460D01*
X012934Y001725D01*
X012919Y001781D01*
X012890Y001831D01*
X012849Y001872D01*
X012811Y001894D01*
X012894Y001976D01*
X012894Y002598D01*
X012788Y002703D01*
X012777Y002703D01*
X012777Y010499D01*
X013440Y011162D01*
X013444Y011162D01*
X013575Y011216D01*
X013676Y011317D01*
X013730Y011448D01*
X013730Y011590D01*
X013676Y011722D01*
X013575Y011822D01*
X013444Y011876D01*
X013302Y011876D01*
X013171Y011822D01*
X013070Y011722D01*
X013016Y011590D01*
X013016Y011586D01*
X012223Y010793D01*
X012177Y010683D01*
X012177Y002703D01*
X012167Y002703D01*
X012061Y002598D01*
X012061Y001976D01*
X012143Y001894D01*
X012106Y001872D01*
X012065Y001831D01*
X012036Y001781D01*
X012021Y001725D01*
X012021Y001460D01*
X012021Y001688D02*
X011290Y001688D01*
X011200Y001927D02*
X012111Y001927D01*
X012061Y002165D02*
X011250Y002165D01*
X011250Y002404D02*
X012061Y002404D01*
X012106Y002642D02*
X011205Y002642D01*
X011134Y002881D02*
X012177Y002881D01*
X012177Y003119D02*
X011134Y003119D01*
X011134Y003358D02*
X012177Y003358D01*
X012177Y003596D02*
X011134Y003596D01*
X011134Y003835D02*
X012177Y003835D01*
X012177Y004073D02*
X011134Y004073D01*
X011134Y004312D02*
X012177Y004312D01*
X012177Y004550D02*
X011134Y004550D01*
X011134Y004789D02*
X012177Y004789D01*
X012177Y005027D02*
X011134Y005027D01*
X011134Y005266D02*
X012177Y005266D01*
X012177Y005504D02*
X011134Y005504D01*
X011134Y005743D02*
X012177Y005743D01*
X012177Y005981D02*
X011134Y005981D01*
X011134Y006220D02*
X012177Y006220D01*
X012177Y006458D02*
X011134Y006458D01*
X011134Y006697D02*
X012177Y006697D01*
X012177Y006935D02*
X011134Y006935D01*
X011134Y007174D02*
X012177Y007174D01*
X012177Y007412D02*
X011134Y007412D01*
X011134Y007651D02*
X012177Y007651D01*
X012177Y007889D02*
X011134Y007889D01*
X011134Y008128D02*
X012177Y008128D01*
X012177Y008366D02*
X011134Y008366D01*
X011134Y008605D02*
X012177Y008605D01*
X012177Y008843D02*
X011134Y008843D01*
X011134Y009082D02*
X012177Y009082D01*
X012177Y009320D02*
X011134Y009320D01*
X011134Y009559D02*
X012177Y009559D01*
X012177Y009797D02*
X011134Y009797D01*
X011134Y010036D02*
X012177Y010036D01*
X012177Y010274D02*
X011134Y010274D01*
X011216Y010513D02*
X012177Y010513D01*
X012205Y010751D02*
X011454Y010751D01*
X011693Y010990D02*
X012419Y010990D01*
X012658Y011228D02*
X011931Y011228D01*
X012170Y011467D02*
X012896Y011467D01*
X013063Y011705D02*
X012408Y011705D01*
X012647Y011944D02*
X038509Y011944D01*
X038270Y012182D02*
X035466Y012182D01*
X034981Y012182D02*
X021785Y012182D01*
X021919Y012421D02*
X034866Y012421D01*
X034933Y012659D02*
X021868Y012659D01*
X021822Y012898D02*
X022749Y012898D01*
X023209Y012898D02*
X038045Y012898D01*
X037976Y013136D02*
X023336Y013136D01*
X023282Y013375D02*
X038089Y013375D01*
X038578Y013375D02*
X039577Y013375D01*
X039762Y012659D02*
X038642Y012659D01*
X038373Y012503D02*
X041552Y009324D01*
X041552Y005131D01*
X041116Y005027D02*
X040256Y005027D01*
X040256Y005123D02*
X039788Y005123D01*
X039788Y004606D01*
X040065Y004606D01*
X040121Y004621D01*
X040171Y004650D01*
X040212Y004691D01*
X040241Y004741D01*
X040256Y004797D01*
X040256Y005123D01*
X040256Y005139D02*
X040256Y005465D01*
X040241Y005521D01*
X040212Y005572D01*
X040171Y005613D01*
X040121Y005642D01*
X040065Y005657D01*
X039788Y005657D01*
X039788Y005139D01*
X039773Y005139D01*
X039773Y005657D01*
X039496Y005657D01*
X039440Y005642D01*
X039390Y005613D01*
X039349Y005572D01*
X039320Y005521D01*
X039305Y005465D01*
X039305Y005139D01*
X039773Y005139D01*
X039773Y005123D01*
X039788Y005123D01*
X039788Y005139D01*
X040256Y005139D01*
X040256Y005266D02*
X041116Y005266D01*
X041116Y005504D02*
X040246Y005504D01*
X039788Y005504D02*
X039773Y005504D01*
X039773Y005266D02*
X039788Y005266D01*
X039773Y005123D02*
X039305Y005123D01*
X039305Y004797D01*
X039320Y004741D01*
X039349Y004691D01*
X039390Y004650D01*
X039440Y004621D01*
X039496Y004606D01*
X039773Y004606D01*
X039773Y005123D01*
X039773Y005027D02*
X039788Y005027D01*
X039773Y004789D02*
X039788Y004789D01*
X040254Y004789D02*
X041116Y004789D01*
X041988Y004789D02*
X042181Y004789D01*
X042179Y005027D02*
X041988Y005027D01*
X041988Y005266D02*
X042179Y005266D01*
X042189Y005504D02*
X041988Y005504D01*
X041852Y005743D02*
X044126Y005743D01*
X044126Y005981D02*
X041852Y005981D01*
X041852Y006220D02*
X044126Y006220D01*
X044126Y006458D02*
X041852Y006458D01*
X041852Y006697D02*
X044126Y006697D01*
X044126Y006935D02*
X041852Y006935D01*
X041852Y007174D02*
X044126Y007174D01*
X044126Y007412D02*
X041852Y007412D01*
X041852Y007651D02*
X044126Y007651D01*
X044126Y007889D02*
X041852Y007889D01*
X041852Y008128D02*
X044126Y008128D01*
X044055Y008366D02*
X041852Y008366D01*
X041852Y008605D02*
X043816Y008605D01*
X043578Y008843D02*
X041852Y008843D01*
X041852Y009082D02*
X043339Y009082D01*
X043101Y009320D02*
X041852Y009320D01*
X041742Y009559D02*
X042862Y009559D01*
X042624Y009797D02*
X041504Y009797D01*
X041265Y010036D02*
X042385Y010036D01*
X042147Y010274D02*
X041027Y010274D01*
X040788Y010513D02*
X041908Y010513D01*
X041670Y010751D02*
X040550Y010751D01*
X040311Y010990D02*
X041431Y010990D01*
X041193Y011228D02*
X040073Y011228D01*
X039834Y011467D02*
X040954Y011467D01*
X040716Y011705D02*
X039596Y011705D01*
X039357Y011944D02*
X040477Y011944D01*
X040239Y012182D02*
X039119Y012182D01*
X038880Y012421D02*
X040000Y012421D01*
X040610Y012659D02*
X041193Y012659D01*
X041264Y012421D02*
X040849Y012421D01*
X041087Y012182D02*
X041557Y012182D01*
X041193Y013613D02*
X022277Y013613D01*
X022038Y013852D02*
X041211Y013852D01*
X038986Y011467D02*
X037743Y011467D01*
X037809Y011439D02*
X037511Y011563D01*
X037188Y011563D01*
X036890Y011439D01*
X036662Y011211D01*
X036538Y010913D01*
X036538Y010590D01*
X036662Y010292D01*
X036890Y010064D01*
X037188Y009940D01*
X037511Y009940D01*
X037809Y010064D01*
X038037Y010292D01*
X038161Y010590D01*
X038161Y010913D01*
X038037Y011211D01*
X037809Y011439D01*
X038020Y011228D02*
X039224Y011228D01*
X039463Y010990D02*
X038129Y010990D01*
X038161Y010751D02*
X039701Y010751D01*
X039940Y010513D02*
X038129Y010513D01*
X038019Y010274D02*
X040178Y010274D01*
X040417Y010036D02*
X037741Y010036D01*
X036958Y010036D02*
X014499Y010036D01*
X014720Y010257D02*
X014126Y009663D01*
X014126Y002703D01*
X014137Y002703D01*
X014242Y002598D01*
X014242Y001976D01*
X014160Y001894D01*
X014197Y001872D01*
X014238Y001831D01*
X014267Y001781D01*
X014282Y001725D01*
X014282Y001460D01*
X013826Y001460D01*
X013826Y001460D01*
X013826Y001004D01*
X014091Y001004D01*
X014147Y001019D01*
X014197Y001048D01*
X014238Y001089D01*
X014267Y001139D01*
X014282Y001195D01*
X014282Y001460D01*
X013826Y001460D01*
X013826Y001460D01*
X013826Y001004D01*
X013561Y001004D01*
X013505Y001019D01*
X013454Y001048D01*
X013414Y001089D01*
X013385Y001139D01*
X013370Y001195D01*
X013370Y001460D01*
X013826Y001460D01*
X013826Y001460D01*
X013370Y001460D01*
X013370Y001725D01*
X013385Y001781D01*
X013414Y001831D01*
X013454Y001872D01*
X013492Y001894D01*
X013410Y001976D01*
X013410Y002598D01*
X013515Y002703D01*
X013526Y002703D01*
X013526Y009847D01*
X013571Y009957D01*
X014295Y010681D01*
X014295Y010685D01*
X014350Y010816D01*
X014450Y010916D01*
X014582Y010971D01*
X014724Y010971D01*
X014855Y010916D01*
X014955Y010816D01*
X015010Y010685D01*
X015010Y010543D01*
X014955Y010411D01*
X014855Y010311D01*
X014724Y010257D01*
X014720Y010257D01*
X014766Y010274D02*
X036679Y010274D01*
X036570Y010513D02*
X014997Y010513D01*
X014982Y010751D02*
X036538Y010751D01*
X036570Y010990D02*
X013268Y010990D01*
X013029Y010751D02*
X014323Y010751D01*
X014127Y010513D02*
X012791Y010513D01*
X012777Y010274D02*
X013889Y010274D01*
X013650Y010036D02*
X012777Y010036D01*
X012777Y009797D02*
X013526Y009797D01*
X013526Y009559D02*
X012777Y009559D01*
X012777Y009320D02*
X013526Y009320D01*
X013526Y009082D02*
X012777Y009082D01*
X012777Y008843D02*
X013526Y008843D01*
X013526Y008605D02*
X012777Y008605D01*
X012777Y008366D02*
X013526Y008366D01*
X013526Y008128D02*
X012777Y008128D01*
X012777Y007889D02*
X013526Y007889D01*
X013526Y007651D02*
X012777Y007651D01*
X012777Y007412D02*
X013526Y007412D01*
X013526Y007174D02*
X012777Y007174D01*
X012777Y006935D02*
X013526Y006935D01*
X013526Y006697D02*
X012777Y006697D01*
X012777Y006458D02*
X013526Y006458D01*
X013526Y006220D02*
X012777Y006220D01*
X012777Y005981D02*
X013526Y005981D01*
X013526Y005743D02*
X012777Y005743D01*
X012777Y005504D02*
X013526Y005504D01*
X013526Y005266D02*
X012777Y005266D01*
X012777Y005027D02*
X013526Y005027D01*
X013526Y004789D02*
X012777Y004789D01*
X012777Y004550D02*
X013526Y004550D01*
X013526Y004312D02*
X012777Y004312D01*
X012777Y004073D02*
X013526Y004073D01*
X013526Y003835D02*
X012777Y003835D01*
X012777Y003596D02*
X013526Y003596D01*
X013526Y003358D02*
X012777Y003358D01*
X012777Y003119D02*
X013526Y003119D01*
X013526Y002881D02*
X012777Y002881D01*
X012849Y002642D02*
X013454Y002642D01*
X013410Y002404D02*
X012894Y002404D01*
X012894Y002165D02*
X013410Y002165D01*
X013459Y001927D02*
X012844Y001927D01*
X012934Y001688D02*
X013370Y001688D01*
X013370Y001450D02*
X012934Y001450D01*
X012934Y001211D02*
X013370Y001211D01*
X013826Y001211D02*
X013826Y001211D01*
X013826Y001450D02*
X013826Y001450D01*
X014282Y001450D02*
X045436Y001450D01*
X045455Y001688D02*
X044862Y001688D01*
X044862Y001622D02*
X044862Y002381D01*
X044757Y002487D01*
X044096Y002487D01*
X043990Y002381D01*
X043990Y001622D01*
X044096Y001516D01*
X044757Y001516D01*
X044862Y001622D01*
X044862Y001927D02*
X045554Y001927D01*
X045785Y002165D02*
X044862Y002165D01*
X044840Y002404D02*
X046881Y002404D01*
X046881Y002642D02*
X025358Y002642D01*
X025345Y002637D02*
X025644Y002761D01*
X025872Y002989D01*
X025995Y003287D01*
X025995Y003610D01*
X025872Y003908D01*
X025644Y004136D01*
X025345Y004260D01*
X025023Y004260D01*
X024724Y004136D01*
X024496Y003908D01*
X024373Y003610D01*
X024373Y003287D01*
X024496Y002989D01*
X024724Y002761D01*
X025023Y002637D01*
X025345Y002637D01*
X025010Y002642D02*
X018601Y002642D01*
X018635Y002656D02*
X018888Y002909D01*
X019025Y003240D01*
X019025Y003598D01*
X018888Y003929D01*
X018635Y004182D01*
X018304Y004319D01*
X017946Y004319D01*
X017615Y004182D01*
X017362Y003929D01*
X017225Y003598D01*
X017225Y003240D01*
X017362Y002909D01*
X017615Y002656D01*
X017946Y002519D01*
X018304Y002519D01*
X018635Y002656D01*
X018859Y002881D02*
X024604Y002881D01*
X024442Y003119D02*
X018975Y003119D01*
X019025Y003358D02*
X024373Y003358D01*
X024373Y003596D02*
X019025Y003596D01*
X018927Y003835D02*
X024466Y003835D01*
X024661Y004073D02*
X018743Y004073D01*
X018321Y004312D02*
X046881Y004312D01*
X046881Y004550D02*
X014126Y004550D01*
X014126Y004312D02*
X017929Y004312D01*
X017507Y004073D02*
X014126Y004073D01*
X014126Y003835D02*
X017323Y003835D01*
X017225Y003596D02*
X014126Y003596D01*
X014126Y003358D02*
X017225Y003358D01*
X017275Y003119D02*
X014126Y003119D01*
X014126Y002881D02*
X017391Y002881D01*
X017649Y002642D02*
X014198Y002642D01*
X014242Y002404D02*
X039367Y002404D01*
X039345Y002381D02*
X039345Y001622D01*
X039450Y001516D01*
X040111Y001516D01*
X040216Y001622D01*
X040216Y002381D01*
X040111Y002487D01*
X039450Y002487D01*
X039345Y002381D01*
X039345Y002165D02*
X014242Y002165D01*
X014192Y001927D02*
X039345Y001927D01*
X039345Y001688D02*
X014282Y001688D01*
X013826Y002287D02*
X013826Y009787D01*
X014653Y010614D01*
X014260Y009797D02*
X040655Y009797D01*
X040894Y009559D02*
X014126Y009559D01*
X014126Y009320D02*
X041132Y009320D01*
X041252Y009082D02*
X014126Y009082D01*
X014126Y008843D02*
X016186Y008843D01*
X016214Y008855D02*
X016006Y008769D01*
X015848Y008610D01*
X015762Y008403D01*
X015762Y008179D01*
X015848Y007971D01*
X016006Y007813D01*
X016214Y007727D01*
X017206Y007727D01*
X017413Y007813D01*
X017572Y007971D01*
X017657Y008179D01*
X017657Y008403D01*
X017572Y008610D01*
X017413Y008769D01*
X017206Y008855D01*
X016214Y008855D01*
X015845Y008605D02*
X014126Y008605D01*
X014126Y008366D02*
X015762Y008366D01*
X015783Y008128D02*
X014126Y008128D01*
X014126Y007889D02*
X015930Y007889D01*
X017489Y007889D02*
X019305Y007889D01*
X019305Y007785D02*
X019391Y007578D01*
X019550Y007419D01*
X019757Y007333D01*
X020749Y007333D01*
X020956Y007419D01*
X021115Y007578D01*
X021201Y007785D01*
X021201Y008009D01*
X021115Y008217D01*
X020956Y008375D01*
X020749Y008461D01*
X019757Y008461D01*
X019550Y008375D01*
X019391Y008217D01*
X019305Y008009D01*
X019305Y007785D01*
X019361Y007651D02*
X014126Y007651D01*
X014126Y007412D02*
X019567Y007412D01*
X019354Y008128D02*
X017636Y008128D01*
X017657Y008366D02*
X019541Y008366D01*
X020965Y008366D02*
X041252Y008366D01*
X041252Y008128D02*
X021152Y008128D01*
X021201Y007889D02*
X041252Y007889D01*
X041252Y007651D02*
X021145Y007651D01*
X020939Y007412D02*
X041252Y007412D01*
X041252Y007174D02*
X014126Y007174D01*
X014126Y006935D02*
X041252Y006935D01*
X041252Y006697D02*
X014126Y006697D01*
X014126Y006458D02*
X041252Y006458D01*
X041252Y006220D02*
X014126Y006220D01*
X014126Y005981D02*
X041252Y005981D01*
X041252Y005743D02*
X014126Y005743D01*
X014126Y005504D02*
X039315Y005504D01*
X039305Y005266D02*
X014126Y005266D01*
X014126Y005027D02*
X039305Y005027D01*
X039307Y004789D02*
X014126Y004789D01*
X012477Y002287D02*
X012477Y010624D01*
X013373Y011519D01*
X013730Y011467D02*
X036956Y011467D01*
X036679Y011228D02*
X013587Y011228D01*
X013683Y011705D02*
X038747Y011705D01*
X041252Y008843D02*
X017234Y008843D01*
X017574Y008605D02*
X041252Y008605D01*
X046881Y004073D02*
X025707Y004073D01*
X025902Y003835D02*
X046881Y003835D01*
X046881Y003596D02*
X025995Y003596D01*
X025995Y003358D02*
X046881Y003358D01*
X046881Y003119D02*
X025926Y003119D01*
X025764Y002881D02*
X046881Y002881D01*
X046881Y002165D02*
X046709Y002165D01*
X045480Y001211D02*
X014282Y001211D01*
X012477Y001211D02*
X012477Y001211D01*
X012477Y001450D02*
X012477Y001450D01*
X012021Y001211D02*
X011290Y001211D01*
X010834Y002287D02*
X010834Y010555D01*
X012586Y012307D01*
X012921Y012182D02*
X020197Y012182D01*
X020157Y012222D02*
X020257Y012122D01*
X020389Y012068D01*
X020531Y012068D01*
X020662Y012122D01*
X020762Y012222D01*
X020817Y012354D01*
X020817Y012496D01*
X020762Y012627D01*
X020720Y012670D01*
X020720Y012988D01*
X020680Y013084D01*
X018397Y015367D01*
X018397Y016000D01*
X018414Y016017D01*
X018414Y016415D01*
X018133Y016696D01*
X017735Y016696D01*
X017454Y016415D01*
X017454Y016017D01*
X017735Y015736D01*
X017877Y015736D01*
X017877Y015208D01*
X017888Y015181D01*
X017399Y014693D01*
X009542Y014693D01*
X009446Y014653D01*
X009373Y014580D01*
X009345Y014513D01*
X008143Y013310D01*
X008103Y013215D01*
X008103Y005617D01*
X008033Y005617D01*
X007927Y005511D01*
X007927Y004752D01*
X008033Y004646D01*
X008694Y004646D01*
X008799Y004752D01*
X008799Y005511D01*
X008694Y005617D01*
X008623Y005617D01*
X008623Y013055D01*
X009741Y014173D01*
X017559Y014173D01*
X017654Y014212D01*
X018235Y014793D01*
X020200Y012829D01*
X020200Y012670D01*
X020157Y012627D01*
X020102Y012496D01*
X020102Y012354D01*
X020157Y012222D01*
X020102Y012421D02*
X012925Y012421D01*
X012668Y012659D02*
X017612Y012659D01*
X017615Y012656D02*
X017946Y012519D01*
X018304Y012519D01*
X018635Y012656D01*
X018888Y012909D01*
X019025Y013240D01*
X019025Y013598D01*
X018888Y013929D01*
X018635Y014182D01*
X018304Y014319D01*
X017946Y014319D01*
X017615Y014182D01*
X017362Y013929D01*
X017225Y013598D01*
X017225Y013240D01*
X017362Y012909D01*
X017615Y012656D01*
X017374Y012898D02*
X008623Y012898D01*
X008623Y012659D02*
X012503Y012659D01*
X012246Y012421D02*
X008623Y012421D01*
X008623Y012182D02*
X012037Y012182D01*
X011798Y011944D02*
X008623Y011944D01*
X008623Y011705D02*
X011560Y011705D01*
X011321Y011467D02*
X008623Y011467D01*
X008623Y011228D02*
X011083Y011228D01*
X010844Y010990D02*
X008623Y010990D01*
X008623Y010751D02*
X010606Y010751D01*
X010534Y010513D02*
X008623Y010513D01*
X008623Y010274D02*
X010534Y010274D01*
X010534Y010036D02*
X008623Y010036D01*
X008623Y009797D02*
X010534Y009797D01*
X010534Y009559D02*
X008623Y009559D01*
X008623Y009320D02*
X010534Y009320D01*
X010534Y009082D02*
X008623Y009082D01*
X008623Y008843D02*
X010534Y008843D01*
X010534Y008605D02*
X008623Y008605D01*
X008623Y008366D02*
X010534Y008366D01*
X010534Y008128D02*
X008623Y008128D01*
X008623Y007889D02*
X010534Y007889D01*
X010534Y007651D02*
X008623Y007651D01*
X008623Y007412D02*
X010534Y007412D01*
X010534Y007174D02*
X008623Y007174D01*
X008623Y006935D02*
X010534Y006935D01*
X010534Y006697D02*
X008623Y006697D01*
X008623Y006458D02*
X010534Y006458D01*
X010534Y006220D02*
X008623Y006220D01*
X008623Y005981D02*
X010534Y005981D01*
X010534Y005743D02*
X008623Y005743D01*
X008799Y005504D02*
X010534Y005504D01*
X010534Y005266D02*
X008799Y005266D01*
X008799Y005027D02*
X010534Y005027D01*
X010534Y004789D02*
X008799Y004789D01*
X007927Y004789D02*
X007065Y004789D01*
X007067Y005027D02*
X007927Y005027D01*
X007927Y005266D02*
X007067Y005266D01*
X007067Y005139D02*
X007067Y005465D01*
X007052Y005521D01*
X007023Y005572D01*
X006983Y005613D01*
X006932Y005642D01*
X006876Y005657D01*
X006599Y005657D01*
X006599Y005139D01*
X007067Y005139D01*
X007057Y005504D02*
X007927Y005504D01*
X008103Y005743D02*
X005995Y005743D01*
X005995Y005981D02*
X008103Y005981D01*
X008103Y006220D02*
X005995Y006220D01*
X005995Y006458D02*
X008103Y006458D01*
X008103Y006697D02*
X005995Y006697D01*
X005995Y006935D02*
X008103Y006935D01*
X008103Y007174D02*
X005995Y007174D01*
X005995Y007412D02*
X008103Y007412D01*
X008103Y007651D02*
X005995Y007651D01*
X005995Y007889D02*
X008103Y007889D01*
X008103Y008128D02*
X005995Y008128D01*
X005995Y008366D02*
X008103Y008366D01*
X008103Y008605D02*
X005995Y008605D01*
X005995Y008843D02*
X008103Y008843D01*
X008103Y009082D02*
X005995Y009082D01*
X005995Y009320D02*
X008103Y009320D01*
X008103Y009559D02*
X005995Y009559D01*
X005995Y009797D02*
X008103Y009797D01*
X008103Y010036D02*
X005995Y010036D01*
X005995Y010274D02*
X008103Y010274D01*
X008103Y010513D02*
X005995Y010513D01*
X005995Y010751D02*
X008103Y010751D01*
X008103Y010990D02*
X005995Y010990D01*
X005995Y011228D02*
X008103Y011228D01*
X008103Y011467D02*
X005995Y011467D01*
X005995Y011705D02*
X008103Y011705D01*
X008103Y011944D02*
X005995Y011944D01*
X005995Y012182D02*
X008103Y012182D01*
X008103Y012421D02*
X006138Y012421D01*
X006377Y012659D02*
X008103Y012659D01*
X008103Y012898D02*
X006615Y012898D01*
X006854Y013136D02*
X008103Y013136D01*
X008207Y013375D02*
X007092Y013375D01*
X007331Y013613D02*
X008446Y013613D01*
X008684Y013852D02*
X007569Y013852D01*
X007808Y014090D02*
X008923Y014090D01*
X009161Y014329D02*
X008046Y014329D01*
X008285Y014567D02*
X009368Y014567D01*
X009658Y014090D02*
X017524Y014090D01*
X017330Y013852D02*
X009420Y013852D01*
X009181Y013613D02*
X017231Y013613D01*
X017225Y013375D02*
X008943Y013375D01*
X008704Y013136D02*
X017268Y013136D01*
X018638Y012659D02*
X020189Y012659D01*
X020131Y012898D02*
X018876Y012898D01*
X018982Y013136D02*
X019892Y013136D01*
X019654Y013375D02*
X019025Y013375D01*
X019019Y013613D02*
X019415Y013613D01*
X019177Y013852D02*
X018920Y013852D01*
X018938Y014090D02*
X018726Y014090D01*
X018700Y014329D02*
X017771Y014329D01*
X018009Y014567D02*
X018461Y014567D01*
X018958Y014806D02*
X019443Y014806D01*
X019205Y015044D02*
X018720Y015044D01*
X018481Y015283D02*
X019020Y015283D01*
X019019Y015521D02*
X018397Y015521D01*
X018397Y015760D02*
X018712Y015760D01*
X018473Y015998D02*
X018397Y015998D01*
X018414Y016237D02*
X018454Y016237D01*
X018514Y016475D02*
X018354Y016475D01*
X018133Y016736D02*
X018414Y017017D01*
X018414Y017415D01*
X018133Y017696D01*
X017735Y017696D01*
X017454Y017415D01*
X017454Y017017D01*
X017735Y016736D01*
X018133Y016736D01*
X018349Y016952D02*
X018463Y016952D01*
X018414Y017191D02*
X018414Y017191D01*
X018414Y017216D02*
X018934Y017216D01*
X018934Y017216D01*
X018934Y017736D01*
X018719Y017736D01*
X018414Y017431D01*
X018414Y017216D01*
X018400Y017429D02*
X018414Y017429D01*
X018650Y017668D02*
X018161Y017668D01*
X017707Y017668D02*
X017161Y017668D01*
X017400Y017429D02*
X017468Y017429D01*
X017454Y017191D02*
X017414Y017191D01*
X017349Y016952D02*
X017519Y016952D01*
X017514Y016475D02*
X017410Y016475D01*
X017454Y016237D02*
X017454Y016237D01*
X017451Y015998D02*
X017473Y015998D01*
X017712Y015760D02*
X017213Y015760D01*
X016934Y015760D02*
X016934Y015760D01*
X016934Y015998D02*
X016934Y015998D01*
X016934Y016237D02*
X016934Y016237D01*
X016934Y016475D02*
X016934Y016475D01*
X016458Y016475D02*
X016354Y016475D01*
X016414Y016237D02*
X016414Y016237D01*
X016395Y015998D02*
X016417Y015998D01*
X016389Y015760D02*
X016655Y015760D01*
X016389Y015521D02*
X017877Y015521D01*
X017877Y015283D02*
X016244Y015283D01*
X016006Y015044D02*
X017751Y015044D01*
X017512Y014806D02*
X015716Y014806D01*
X015747Y015521D02*
X000928Y015521D01*
X000928Y015283D02*
X008265Y015283D01*
X008026Y015044D02*
X000928Y015044D01*
X000928Y014806D02*
X007788Y014806D01*
X007549Y014567D02*
X000928Y014567D01*
X000928Y014329D02*
X007311Y014329D01*
X007213Y015760D02*
X007712Y015760D01*
X007735Y015736D02*
X008133Y015736D01*
X008414Y016017D01*
X008414Y016415D01*
X008133Y016696D01*
X007735Y016696D01*
X007454Y016415D01*
X007454Y016017D01*
X007735Y015736D01*
X007473Y015998D02*
X007451Y015998D01*
X007454Y016237D02*
X007454Y016237D01*
X007410Y016475D02*
X007514Y016475D01*
X007735Y016736D02*
X007454Y017017D01*
X007454Y017415D01*
X007735Y017696D01*
X008133Y017696D01*
X008414Y017415D01*
X008414Y017017D01*
X008133Y016736D01*
X007735Y016736D01*
X007519Y016952D02*
X007349Y016952D01*
X007414Y017191D02*
X007454Y017191D01*
X007468Y017429D02*
X007400Y017429D01*
X007161Y017668D02*
X007707Y017668D01*
X008161Y017668D02*
X008707Y017668D01*
X008468Y017429D02*
X008400Y017429D01*
X008414Y017191D02*
X008454Y017191D01*
X008519Y016952D02*
X008349Y016952D01*
X008354Y016475D02*
X008458Y016475D01*
X008414Y016237D02*
X008414Y016237D01*
X008395Y015998D02*
X008417Y015998D01*
X008655Y015760D02*
X008156Y015760D01*
X008934Y015760D02*
X008934Y015760D01*
X008934Y015998D02*
X008934Y015998D01*
X008934Y016237D02*
X008934Y016237D01*
X008934Y016475D02*
X008934Y016475D01*
X009410Y016475D02*
X009514Y016475D01*
X009454Y016415D02*
X009454Y016017D01*
X009735Y015736D01*
X010133Y015736D01*
X010414Y016017D01*
X010414Y016415D01*
X010133Y016696D01*
X009735Y016696D01*
X009454Y016415D01*
X009454Y016237D02*
X009454Y016237D01*
X009451Y015998D02*
X009473Y015998D01*
X009712Y015760D02*
X009213Y015760D01*
X010156Y015760D02*
X010712Y015760D01*
X010473Y015998D02*
X010395Y015998D01*
X010414Y016237D02*
X010454Y016237D01*
X010514Y016475D02*
X010354Y016475D01*
X010133Y016736D02*
X009735Y016736D01*
X009454Y017017D01*
X009454Y017415D01*
X009735Y017696D01*
X010133Y017696D01*
X010414Y017415D01*
X010414Y017017D01*
X010133Y016736D01*
X010349Y016952D02*
X010463Y016952D01*
X010414Y017191D02*
X010414Y017191D01*
X010414Y017216D02*
X010934Y017216D01*
X010934Y017216D01*
X010934Y017736D01*
X010719Y017736D01*
X010414Y017431D01*
X010414Y017216D01*
X010400Y017429D02*
X010414Y017429D01*
X010650Y017668D02*
X010161Y017668D01*
X009707Y017668D02*
X009161Y017668D01*
X009400Y017429D02*
X009468Y017429D01*
X009454Y017191D02*
X009414Y017191D01*
X009349Y016952D02*
X009519Y016952D01*
X010934Y016952D02*
X010934Y016952D01*
X010934Y017191D02*
X010934Y017191D01*
X010934Y017216D02*
X011454Y017216D01*
X011454Y017431D01*
X011149Y017736D01*
X010934Y017736D01*
X010934Y017216D01*
X010934Y017216D01*
X010934Y017429D02*
X010934Y017429D01*
X010934Y017668D02*
X010934Y017668D01*
X011218Y017668D02*
X011707Y017668D01*
X011735Y017696D02*
X011454Y017415D01*
X011454Y017017D01*
X011735Y016736D01*
X012133Y016736D01*
X012414Y017017D01*
X012414Y017415D01*
X012133Y017696D01*
X011735Y017696D01*
X011468Y017429D02*
X011454Y017429D01*
X011454Y017191D02*
X011454Y017191D01*
X011405Y016952D02*
X011519Y016952D01*
X011735Y016696D02*
X011454Y016415D01*
X011454Y016017D01*
X011735Y015736D01*
X012133Y015736D01*
X012414Y016017D01*
X012414Y016415D01*
X012133Y016696D01*
X011735Y016696D01*
X011514Y016475D02*
X011354Y016475D01*
X011414Y016237D02*
X011454Y016237D01*
X011473Y015998D02*
X011395Y015998D01*
X011156Y015760D02*
X011712Y015760D01*
X012156Y015760D02*
X012712Y015760D01*
X012735Y015736D02*
X013133Y015736D01*
X013414Y016017D01*
X013414Y016415D01*
X013133Y016696D01*
X012735Y016696D01*
X012454Y016415D01*
X012454Y016017D01*
X012735Y015736D01*
X012473Y015998D02*
X012395Y015998D01*
X012414Y016237D02*
X012454Y016237D01*
X012514Y016475D02*
X012354Y016475D01*
X012735Y016736D02*
X013133Y016736D01*
X013414Y017017D01*
X013414Y017415D01*
X013133Y017696D01*
X012735Y017696D01*
X012454Y017415D01*
X012454Y017017D01*
X012735Y016736D01*
X012519Y016952D02*
X012349Y016952D01*
X012414Y017191D02*
X012454Y017191D01*
X012468Y017429D02*
X012400Y017429D01*
X012161Y017668D02*
X012707Y017668D01*
X013161Y017668D02*
X013707Y017668D01*
X013468Y017429D02*
X013400Y017429D01*
X013414Y017191D02*
X013454Y017191D01*
X013519Y016952D02*
X013349Y016952D01*
X013354Y016475D02*
X013458Y016475D01*
X013414Y016237D02*
X013414Y016237D01*
X013395Y015998D02*
X013417Y015998D01*
X013655Y015760D02*
X013156Y015760D01*
X013934Y015760D02*
X013934Y015760D01*
X013934Y015998D02*
X013934Y015998D01*
X013934Y016237D02*
X013934Y016237D01*
X013934Y016475D02*
X013934Y016475D01*
X014410Y016475D02*
X014514Y016475D01*
X014454Y016415D02*
X014454Y016017D01*
X014735Y015736D01*
X015133Y015736D01*
X015414Y016017D01*
X015414Y016415D01*
X015133Y016696D01*
X014735Y016696D01*
X014454Y016415D01*
X014454Y016237D02*
X014454Y016237D01*
X014451Y015998D02*
X014473Y015998D01*
X014712Y015760D02*
X014213Y015760D01*
X015156Y015760D02*
X015712Y015760D01*
X015473Y015998D02*
X015395Y015998D01*
X015414Y016237D02*
X015454Y016237D01*
X015514Y016475D02*
X015354Y016475D01*
X015133Y016736D02*
X015414Y017017D01*
X015414Y017415D01*
X015133Y017696D01*
X014735Y017696D01*
X014454Y017415D01*
X014454Y017017D01*
X014735Y016736D01*
X015133Y016736D01*
X015349Y016952D02*
X015519Y016952D01*
X015454Y017017D02*
X015735Y016736D01*
X016133Y016736D01*
X016414Y017017D01*
X016414Y017415D01*
X016133Y017696D01*
X015735Y017696D01*
X015454Y017415D01*
X015454Y017017D01*
X015454Y017191D02*
X015414Y017191D01*
X015400Y017429D02*
X015468Y017429D01*
X015707Y017668D02*
X015161Y017668D01*
X014707Y017668D02*
X014161Y017668D01*
X014400Y017429D02*
X014468Y017429D01*
X014454Y017191D02*
X014414Y017191D01*
X014349Y016952D02*
X014519Y016952D01*
X016161Y017668D02*
X016707Y017668D01*
X016468Y017429D02*
X016400Y017429D01*
X016414Y017191D02*
X016454Y017191D01*
X016519Y016952D02*
X016349Y016952D01*
X018934Y016952D02*
X018934Y016952D01*
X018934Y017191D02*
X018934Y017191D01*
X018934Y017216D02*
X019454Y017216D01*
X019454Y017431D01*
X019149Y017736D01*
X018934Y017736D01*
X018934Y017216D01*
X018934Y017216D01*
X018934Y017429D02*
X018934Y017429D01*
X018934Y017668D02*
X018934Y017668D01*
X019218Y017668D02*
X019707Y017668D01*
X019735Y017696D02*
X019454Y017415D01*
X019454Y017017D01*
X019735Y016736D01*
X020133Y016736D01*
X020414Y017017D01*
X020414Y017415D01*
X020133Y017696D01*
X019735Y017696D01*
X019468Y017429D02*
X019454Y017429D01*
X019454Y017191D02*
X019454Y017191D01*
X019405Y016952D02*
X019519Y016952D01*
X019514Y016475D02*
X019354Y016475D01*
X019414Y016237D02*
X019454Y016237D01*
X019539Y015760D02*
X019712Y015760D01*
X019833Y015521D02*
X019539Y015521D01*
X019702Y015283D02*
X019890Y015283D01*
X019940Y015044D02*
X020110Y015044D01*
X020179Y014806D02*
X020349Y014806D01*
X020417Y014567D02*
X020587Y014567D01*
X020656Y014329D02*
X020826Y014329D01*
X020894Y014090D02*
X021064Y014090D01*
X021133Y013852D02*
X021303Y013852D01*
X021371Y013613D02*
X021541Y013613D01*
X021610Y013375D02*
X021780Y013375D01*
X021810Y013136D02*
X022018Y013136D01*
X021302Y012898D02*
X020720Y012898D01*
X020730Y012659D02*
X021256Y012659D01*
X021205Y012421D02*
X020817Y012421D01*
X020722Y012182D02*
X021339Y012182D01*
X021113Y013136D02*
X020628Y013136D01*
X020389Y013375D02*
X020874Y013375D01*
X020636Y013613D02*
X020151Y013613D01*
X019912Y013852D02*
X020397Y013852D01*
X020159Y014090D02*
X019674Y014090D01*
X019435Y014329D02*
X019920Y014329D01*
X019682Y014567D02*
X019197Y014567D01*
X020369Y015521D02*
X034266Y015521D01*
X034296Y015760D02*
X023156Y015760D01*
X023617Y016475D02*
X024063Y016475D01*
X024038Y016714D02*
X023856Y016714D01*
X024008Y016952D02*
X024077Y016952D01*
X024008Y017191D02*
X024196Y017191D01*
X024008Y017429D02*
X024498Y017429D01*
X024162Y016237D02*
X024390Y016009D01*
X025284Y015998D02*
X029591Y015998D01*
X029236Y016237D02*
X025537Y016237D01*
X025636Y016475D02*
X029148Y016475D01*
X028003Y017429D02*
X031948Y017429D01*
X031868Y017668D02*
X028003Y017668D01*
X028003Y017906D02*
X031887Y017906D01*
X032018Y018145D02*
X028003Y018145D01*
X028003Y018383D02*
X035377Y018383D01*
X035377Y018145D02*
X033684Y018145D01*
X033816Y017906D02*
X035377Y017906D01*
X035377Y017668D02*
X033835Y017668D01*
X033755Y017429D02*
X035377Y017429D01*
X035377Y017191D02*
X033488Y017191D01*
X034456Y015998D02*
X030600Y015998D01*
X030955Y016237D02*
X035124Y016237D01*
X035363Y016475D02*
X031043Y016475D01*
X031025Y016714D02*
X035377Y016714D01*
X035377Y016952D02*
X030883Y016952D01*
X028269Y015044D02*
X034636Y015044D01*
X034340Y015283D02*
X028080Y015283D01*
X027013Y015283D02*
X020607Y015283D01*
X020846Y015044D02*
X026824Y015044D01*
X026735Y014806D02*
X021084Y014806D01*
X021323Y014567D02*
X026735Y014567D01*
X026809Y014329D02*
X021561Y014329D01*
X021800Y014090D02*
X026978Y014090D01*
X023007Y016714D02*
X021172Y016714D01*
X021349Y016952D02*
X021519Y016952D01*
X021454Y017017D02*
X021735Y016736D01*
X022133Y016736D01*
X022414Y017017D01*
X022414Y017415D01*
X022194Y017635D01*
X022194Y019737D01*
X022239Y019781D01*
X022293Y019913D01*
X022293Y020055D01*
X022239Y020186D01*
X022138Y020287D01*
X022007Y020341D01*
X021865Y020341D01*
X021734Y020287D01*
X021633Y020186D01*
X021579Y020055D01*
X021579Y019913D01*
X021633Y019781D01*
X021674Y019741D01*
X021674Y018374D01*
X021404Y018374D01*
X021086Y018692D01*
X021121Y018692D01*
X021253Y018746D01*
X021353Y018846D01*
X021407Y018978D01*
X021407Y019120D01*
X021353Y019251D01*
X021310Y019294D01*
X021310Y024748D01*
X022782Y026220D01*
X030894Y026220D01*
X030936Y026177D01*
X031068Y026123D01*
X031210Y026123D01*
X031341Y026177D01*
X031442Y026278D01*
X031496Y026409D01*
X031496Y026551D01*
X031442Y026682D01*
X031341Y026783D01*
X031210Y026837D01*
X031068Y026837D01*
X030936Y026783D01*
X030894Y026740D01*
X022622Y026740D01*
X022527Y026700D01*
X022454Y026627D01*
X020830Y025003D01*
X020790Y024908D01*
X020790Y019294D01*
X020747Y019251D01*
X020693Y019120D01*
X020693Y019085D01*
X020670Y019107D01*
X020670Y022939D01*
X020631Y023035D01*
X020558Y023108D01*
X020030Y023635D01*
X019957Y023708D01*
X019862Y023748D01*
X014289Y023748D01*
X014264Y023807D01*
X014106Y023966D01*
X013899Y024052D01*
X012907Y024052D01*
X012699Y023966D01*
X012541Y023807D01*
X012455Y023600D01*
X012455Y023376D01*
X012541Y023168D01*
X012699Y023010D01*
X012907Y022924D01*
X013899Y022924D01*
X014106Y023010D01*
X014264Y023168D01*
X014289Y023228D01*
X019702Y023228D01*
X020150Y022780D01*
X020150Y018948D01*
X020190Y018852D01*
X021076Y017966D01*
X021149Y017893D01*
X021245Y017854D01*
X021674Y017854D01*
X021674Y017635D01*
X021454Y017415D01*
X021454Y017017D01*
X021454Y017191D02*
X021414Y017191D01*
X021400Y017429D02*
X021468Y017429D01*
X021674Y017668D02*
X021161Y017668D01*
X021136Y017906D02*
X005194Y017906D01*
X005194Y018145D02*
X020898Y018145D01*
X020659Y018383D02*
X005194Y018383D01*
X005194Y018622D02*
X020421Y018622D01*
X020187Y018860D02*
X005194Y018860D01*
X005194Y019099D02*
X020150Y019099D01*
X020150Y019337D02*
X005194Y019337D01*
X005194Y019576D02*
X020150Y019576D01*
X020150Y019814D02*
X005194Y019814D01*
X005194Y020053D02*
X020150Y020053D01*
X020150Y020291D02*
X013832Y020291D01*
X013820Y020286D02*
X014027Y020372D01*
X014186Y020531D01*
X014272Y020738D01*
X014272Y020962D01*
X014186Y021169D01*
X014027Y021328D01*
X013820Y021414D01*
X012828Y021414D01*
X012621Y021328D01*
X012483Y021190D01*
X010837Y021190D01*
X008359Y023668D01*
X008359Y031718D01*
X008748Y032107D01*
X009117Y032695D01*
X009346Y033350D01*
X009424Y034039D01*
X009346Y034728D01*
X009346Y034728D01*
X009117Y035383D01*
X008748Y035970D01*
X008743Y035975D01*
X010085Y037317D01*
X010505Y037317D01*
X010833Y037646D01*
X010833Y038109D01*
X010505Y038437D01*
X010041Y038437D01*
X009713Y038109D01*
X009713Y037907D01*
X008262Y036456D01*
X008257Y036461D01*
X007670Y036830D01*
X007670Y036830D01*
X007015Y037059D01*
X006326Y037137D01*
X006326Y037137D01*
X005636Y037059D01*
X004982Y036830D01*
X004982Y036830D01*
X004394Y036461D01*
X003904Y035970D01*
X003535Y035383D01*
X003535Y035383D01*
X003306Y034728D01*
X003228Y034039D01*
X003228Y034039D01*
X003306Y033350D01*
X003306Y033350D01*
X003535Y032695D01*
X003535Y032695D01*
X003904Y032107D01*
X004394Y031617D01*
X004394Y031617D01*
X004982Y031248D01*
X005636Y031019D01*
X005636Y031019D01*
X006326Y030941D01*
X007015Y031019D01*
X007670Y031248D01*
X007679Y031253D01*
X007679Y023459D01*
X007730Y023334D01*
X007826Y023239D01*
X010503Y020562D01*
X010628Y020510D01*
X012483Y020510D01*
X012621Y020372D01*
X012828Y020286D01*
X013820Y020286D01*
X014185Y020530D02*
X020150Y020530D01*
X020150Y020768D02*
X014272Y020768D01*
X014253Y021007D02*
X020150Y021007D01*
X020150Y021245D02*
X014110Y021245D01*
X012538Y021245D02*
X010782Y021245D01*
X010543Y021484D02*
X020150Y021484D01*
X020150Y021722D02*
X010305Y021722D01*
X010066Y021961D02*
X020150Y021961D01*
X020150Y022199D02*
X009828Y022199D01*
X009589Y022438D02*
X020150Y022438D01*
X020150Y022676D02*
X009351Y022676D01*
X009112Y022915D02*
X020015Y022915D01*
X019777Y023153D02*
X014249Y023153D01*
X014203Y023869D02*
X020790Y023869D01*
X020790Y024107D02*
X008359Y024107D01*
X008359Y023869D02*
X012602Y023869D01*
X012467Y023630D02*
X008397Y023630D01*
X008635Y023392D02*
X012455Y023392D01*
X012556Y023153D02*
X008874Y023153D01*
X008150Y022915D02*
X005194Y022915D01*
X005194Y023153D02*
X007912Y023153D01*
X007707Y023392D02*
X005194Y023392D01*
X005194Y023630D02*
X007679Y023630D01*
X007679Y023869D02*
X005194Y023869D01*
X005194Y024107D02*
X007679Y024107D01*
X007679Y024346D02*
X005194Y024346D01*
X005194Y024584D02*
X007679Y024584D01*
X007679Y024823D02*
X005194Y024823D01*
X005194Y025061D02*
X007679Y025061D01*
X007679Y025300D02*
X005194Y025300D01*
X005194Y025538D02*
X007679Y025538D01*
X007679Y025777D02*
X005194Y025777D01*
X005194Y026015D02*
X007679Y026015D01*
X007679Y026254D02*
X005194Y026254D01*
X005194Y026492D02*
X007679Y026492D01*
X007679Y026731D02*
X005194Y026731D01*
X005194Y026969D02*
X007679Y026969D01*
X007679Y027208D02*
X005194Y027208D01*
X005194Y027446D02*
X007679Y027446D01*
X007679Y027685D02*
X005194Y027685D01*
X005194Y027923D02*
X007679Y027923D01*
X007679Y028162D02*
X005194Y028162D01*
X005194Y028400D02*
X007679Y028400D01*
X007679Y028639D02*
X005194Y028639D01*
X005410Y028877D02*
X007679Y028877D01*
X007679Y029116D02*
X005648Y029116D01*
X005887Y029354D02*
X007679Y029354D01*
X007679Y029593D02*
X006125Y029593D01*
X006466Y029831D02*
X007679Y029831D01*
X007679Y030070D02*
X006486Y030070D01*
X006265Y030308D02*
X007679Y030308D01*
X007679Y030547D02*
X000928Y030547D01*
X000928Y030785D02*
X007679Y030785D01*
X007679Y031024D02*
X007029Y031024D01*
X007015Y031019D02*
X007015Y031019D01*
X006326Y030941D02*
X006326Y030941D01*
X006012Y030308D02*
X000928Y030308D01*
X000928Y030070D02*
X005792Y030070D01*
X005628Y029831D02*
X000928Y029831D01*
X000928Y029593D02*
X005390Y029593D01*
X005151Y029354D02*
X000928Y029354D01*
X000928Y029116D02*
X004913Y029116D01*
X004697Y028877D02*
X000928Y028877D01*
X000928Y028639D02*
X004674Y028639D01*
X004674Y028400D02*
X000928Y028400D01*
X000928Y028162D02*
X004674Y028162D01*
X004674Y027923D02*
X000928Y027923D01*
X000928Y027685D02*
X004674Y027685D01*
X004674Y027446D02*
X000928Y027446D01*
X000928Y027208D02*
X004674Y027208D01*
X004674Y026969D02*
X000928Y026969D01*
X000928Y026731D02*
X004674Y026731D01*
X004674Y026492D02*
X000928Y026492D01*
X000928Y026254D02*
X004674Y026254D01*
X004674Y026015D02*
X000928Y026015D01*
X000928Y025777D02*
X004674Y025777D01*
X004674Y025538D02*
X000928Y025538D01*
X000928Y025300D02*
X004674Y025300D01*
X004674Y025061D02*
X000928Y025061D01*
X000928Y024823D02*
X004674Y024823D01*
X004674Y024584D02*
X000928Y024584D01*
X000928Y024346D02*
X004674Y024346D01*
X004674Y024107D02*
X000928Y024107D01*
X000928Y023869D02*
X004674Y023869D01*
X004674Y023630D02*
X000928Y023630D01*
X000928Y023392D02*
X004674Y023392D01*
X004674Y023153D02*
X000928Y023153D01*
X000928Y022915D02*
X004674Y022915D01*
X004674Y022676D02*
X000928Y022676D01*
X000928Y022438D02*
X004674Y022438D01*
X004674Y022199D02*
X000928Y022199D01*
X000928Y021961D02*
X004674Y021961D01*
X004674Y021722D02*
X000928Y021722D01*
X000928Y021484D02*
X004674Y021484D01*
X004674Y021245D02*
X000928Y021245D01*
X000928Y021007D02*
X004674Y021007D01*
X004674Y020768D02*
X000928Y020768D01*
X000928Y020530D02*
X004674Y020530D01*
X004674Y020291D02*
X000928Y020291D01*
X000928Y020053D02*
X004674Y020053D01*
X004674Y019814D02*
X000928Y019814D01*
X000928Y019576D02*
X004674Y019576D01*
X004674Y019337D02*
X000928Y019337D01*
X000928Y019099D02*
X004674Y019099D01*
X004674Y018860D02*
X000928Y018860D01*
X000928Y018622D02*
X004674Y018622D01*
X004674Y018383D02*
X000928Y018383D01*
X000928Y018145D02*
X004674Y018145D01*
X006161Y017668D02*
X006707Y017668D01*
X006468Y017429D02*
X006400Y017429D01*
X006414Y017191D02*
X006454Y017191D01*
X006519Y016952D02*
X006349Y016952D01*
X006354Y016475D02*
X006458Y016475D01*
X006414Y016237D02*
X006414Y016237D01*
X006395Y015998D02*
X006417Y015998D01*
X006655Y015760D02*
X006156Y015760D01*
X006934Y015760D02*
X006934Y015760D01*
X006934Y015998D02*
X006934Y015998D01*
X006934Y016237D02*
X006934Y016237D01*
X006934Y016475D02*
X006934Y016475D01*
X005194Y020291D02*
X012816Y020291D01*
X010581Y020530D02*
X005194Y020530D01*
X005194Y020768D02*
X010297Y020768D01*
X010058Y021007D02*
X005194Y021007D01*
X005194Y021245D02*
X009820Y021245D01*
X009581Y021484D02*
X005194Y021484D01*
X005194Y021722D02*
X009343Y021722D01*
X009104Y021961D02*
X005194Y021961D01*
X005194Y022199D02*
X008866Y022199D01*
X008627Y022438D02*
X005194Y022438D01*
X005194Y022676D02*
X008389Y022676D01*
X008359Y024346D02*
X020790Y024346D01*
X020790Y024584D02*
X008359Y024584D01*
X008359Y024823D02*
X020790Y024823D01*
X020888Y025061D02*
X008359Y025061D01*
X008359Y025300D02*
X021126Y025300D01*
X021365Y025538D02*
X008359Y025538D01*
X008359Y025777D02*
X021603Y025777D01*
X021842Y026015D02*
X008359Y026015D01*
X008359Y026254D02*
X022080Y026254D01*
X022319Y026492D02*
X008359Y026492D01*
X008359Y026731D02*
X022600Y026731D01*
X022577Y026015D02*
X034610Y026015D01*
X034372Y025777D02*
X022339Y025777D01*
X022100Y025538D02*
X034133Y025538D01*
X033895Y025300D02*
X021862Y025300D01*
X021623Y025061D02*
X033656Y025061D01*
X033418Y024823D02*
X021385Y024823D01*
X021310Y024584D02*
X033199Y024584D01*
X032960Y024346D02*
X021310Y024346D01*
X021310Y024107D02*
X032722Y024107D01*
X032483Y023869D02*
X021310Y023869D01*
X021310Y023630D02*
X032245Y023630D01*
X032168Y023392D02*
X021310Y023392D01*
X021310Y023153D02*
X032168Y023153D01*
X032168Y022915D02*
X021310Y022915D01*
X021310Y022676D02*
X032168Y022676D01*
X032168Y022438D02*
X021310Y022438D01*
X021310Y022199D02*
X032168Y022199D01*
X031975Y021961D02*
X021310Y021961D01*
X021310Y021722D02*
X031904Y021722D01*
X031937Y021484D02*
X021310Y021484D01*
X021310Y021245D02*
X032102Y021245D01*
X032468Y021677D02*
X032468Y023429D01*
X033649Y024610D01*
X033649Y024629D01*
X035381Y026362D01*
X035381Y029334D01*
X034869Y029846D01*
X034617Y029593D02*
X029350Y029593D01*
X029402Y029645D02*
X029244Y029486D01*
X029036Y029400D01*
X028812Y029400D01*
X028605Y029486D01*
X028446Y029645D01*
X028360Y029852D01*
X028360Y030608D01*
X028249Y030562D01*
X027257Y030562D01*
X027050Y030647D01*
X026891Y030806D01*
X026805Y031013D01*
X026805Y031238D01*
X026891Y031445D01*
X027050Y031604D01*
X027257Y031689D01*
X028249Y031689D01*
X028456Y031604D01*
X028615Y031445D01*
X028696Y031248D01*
X028812Y031296D01*
X029036Y031296D01*
X029244Y031210D01*
X029402Y031051D01*
X029488Y030844D01*
X029488Y029852D01*
X029402Y029645D01*
X029479Y029831D02*
X029856Y029831D01*
X029786Y029860D02*
X029993Y029774D01*
X030985Y029774D01*
X031192Y029860D01*
X031351Y030019D01*
X031437Y030226D01*
X031437Y030450D01*
X031351Y030658D01*
X031192Y030816D01*
X030985Y030902D01*
X029993Y030902D01*
X029786Y030816D01*
X029627Y030658D01*
X029541Y030450D01*
X029541Y030226D01*
X029627Y030019D01*
X029786Y029860D01*
X029606Y030070D02*
X029488Y030070D01*
X029488Y030308D02*
X029541Y030308D01*
X029581Y030547D02*
X029488Y030547D01*
X029488Y030785D02*
X029755Y030785D01*
X029414Y031024D02*
X040231Y031024D01*
X040213Y031055D02*
X040361Y030799D01*
X040570Y030590D01*
X040827Y030441D01*
X041113Y030365D01*
X041409Y030365D01*
X041695Y030441D01*
X041952Y030590D01*
X042161Y030799D01*
X042309Y031055D01*
X042386Y031342D01*
X042386Y031638D01*
X042309Y031924D01*
X042161Y032180D01*
X042135Y032206D01*
X042207Y032190D01*
X042283Y032181D01*
X042283Y033220D01*
X042523Y033220D01*
X042523Y033460D01*
X043561Y033460D01*
X043553Y033536D01*
X043524Y033663D01*
X043480Y033787D01*
X043424Y033904D01*
X043354Y034015D01*
X043273Y034118D01*
X043180Y034210D01*
X043078Y034292D01*
X042967Y034361D01*
X042849Y034418D01*
X042726Y034461D01*
X042598Y034490D01*
X042523Y034499D01*
X042523Y033460D01*
X042283Y033460D01*
X042283Y034499D01*
X042207Y034490D01*
X042080Y034461D01*
X041956Y034418D01*
X041838Y034361D01*
X041727Y034292D01*
X041625Y034210D01*
X041533Y034118D01*
X041451Y034015D01*
X041381Y033904D01*
X041325Y033787D01*
X041281Y033663D01*
X041252Y033536D01*
X041244Y033460D01*
X042283Y033460D01*
X042283Y033220D01*
X041244Y033220D01*
X041252Y033145D01*
X041281Y033017D01*
X041325Y032894D01*
X041381Y032776D01*
X041451Y032665D01*
X041514Y032587D01*
X041409Y032615D01*
X041113Y032615D01*
X040884Y032553D01*
X040980Y032649D01*
X041128Y032906D01*
X041205Y033192D01*
X041205Y033488D01*
X041128Y033774D01*
X040980Y034031D01*
X040770Y034240D01*
X040514Y034388D01*
X040228Y034465D01*
X039932Y034465D01*
X039646Y034388D01*
X039389Y034240D01*
X039180Y034031D01*
X039032Y033774D01*
X038955Y033488D01*
X038955Y033192D01*
X039032Y032906D01*
X039180Y032649D01*
X039389Y032440D01*
X039646Y032292D01*
X039932Y032215D01*
X040228Y032215D01*
X040457Y032277D01*
X040361Y032180D01*
X040213Y031924D01*
X040136Y031638D01*
X040136Y031342D01*
X040213Y031055D01*
X040157Y031262D02*
X029117Y031262D01*
X028731Y031262D02*
X028691Y031262D01*
X028559Y031501D02*
X040136Y031501D01*
X040163Y031739D02*
X026143Y031739D01*
X025905Y031501D02*
X026947Y031501D01*
X026815Y031262D02*
X025666Y031262D01*
X025428Y031024D02*
X026805Y031024D01*
X026912Y030785D02*
X025189Y030785D01*
X025157Y030753D02*
X025242Y030837D01*
X028671Y034266D01*
X033047Y034266D01*
X033171Y034143D01*
X033354Y034066D01*
X033171Y033990D01*
X033030Y033850D01*
X032954Y033666D01*
X032954Y033467D01*
X033030Y033283D01*
X033171Y033143D01*
X033354Y033066D01*
X033171Y032990D01*
X033030Y032850D01*
X032954Y032666D01*
X032954Y032467D01*
X033030Y032283D01*
X033171Y032143D01*
X033354Y032066D01*
X033553Y032066D01*
X033737Y032143D01*
X033878Y032283D01*
X033954Y032467D01*
X034030Y032283D01*
X034171Y032143D01*
X034354Y032066D01*
X034553Y032066D01*
X034737Y032143D01*
X034878Y032283D01*
X034954Y032467D01*
X034954Y032666D01*
X034878Y032850D01*
X034737Y032990D01*
X034553Y033066D01*
X034354Y033066D01*
X034171Y032990D01*
X034030Y032850D01*
X033954Y032666D01*
X033954Y032467D01*
X033954Y032666D01*
X033878Y032850D01*
X033737Y032990D01*
X033553Y033066D01*
X033354Y033066D01*
X033553Y033066D01*
X033737Y033143D01*
X033878Y033283D01*
X033954Y033467D01*
X034030Y033283D01*
X034171Y033143D01*
X034354Y033066D01*
X034553Y033066D01*
X034737Y033143D01*
X034878Y033283D01*
X034954Y033467D01*
X034954Y033666D01*
X034878Y033850D01*
X034737Y033990D01*
X034601Y034047D01*
X034661Y034066D01*
X034737Y034105D01*
X034806Y034155D01*
X034866Y034215D01*
X034916Y034283D01*
X034954Y034359D01*
X034980Y034440D01*
X034994Y034524D01*
X034994Y034566D01*
X034454Y034566D01*
X034454Y034566D01*
X034994Y034566D01*
X034994Y034609D01*
X034980Y034693D01*
X034954Y034774D01*
X034916Y034849D01*
X034866Y034918D01*
X034806Y034978D01*
X034737Y035028D01*
X034661Y035067D01*
X034580Y035093D01*
X034496Y035106D01*
X034454Y035106D01*
X034454Y034566D01*
X034454Y034566D01*
X034454Y035106D01*
X034411Y035106D01*
X034327Y035093D01*
X034246Y035067D01*
X034171Y035028D01*
X034102Y034978D01*
X034042Y034918D01*
X033992Y034849D01*
X033953Y034774D01*
X033934Y034714D01*
X033878Y034850D01*
X033737Y034990D01*
X033553Y035066D01*
X033354Y035066D01*
X033171Y034990D01*
X033047Y034866D01*
X028487Y034866D01*
X028376Y034821D01*
X024863Y031307D01*
X024715Y031307D01*
X024658Y031445D01*
X024500Y031604D01*
X024292Y031689D01*
X023300Y031689D01*
X023093Y031604D01*
X022934Y031445D01*
X022849Y031238D01*
X022849Y031013D01*
X022934Y030806D01*
X023093Y030647D01*
X023300Y030562D01*
X024292Y030562D01*
X024500Y030647D01*
X024559Y030707D01*
X025047Y030707D01*
X025157Y030753D01*
X024987Y031007D02*
X023531Y031007D01*
X023412Y031126D01*
X022990Y031501D02*
X022654Y031501D01*
X022709Y031445D02*
X022551Y031604D01*
X022343Y031689D01*
X021351Y031689D01*
X021144Y031604D01*
X020986Y031445D01*
X020900Y031238D01*
X020900Y031013D01*
X020986Y030806D01*
X021144Y030647D01*
X021351Y030562D01*
X021931Y030562D01*
X021931Y029156D01*
X021977Y029046D01*
X022976Y028047D01*
X022976Y028043D01*
X023031Y027911D01*
X023131Y027811D01*
X023263Y027757D01*
X023405Y027757D01*
X023536Y027811D01*
X023636Y027911D01*
X023691Y028043D01*
X023691Y028185D01*
X023636Y028316D01*
X023536Y028416D01*
X023405Y028471D01*
X023401Y028471D01*
X022531Y029340D01*
X022531Y030639D01*
X022551Y030647D01*
X022709Y030806D01*
X022795Y031013D01*
X022795Y031238D01*
X022709Y031445D01*
X022785Y031262D02*
X022859Y031262D01*
X022849Y031024D02*
X022795Y031024D01*
X022688Y030785D02*
X022955Y030785D01*
X022531Y030547D02*
X028360Y030547D01*
X028360Y030308D02*
X022531Y030308D01*
X022531Y030070D02*
X028360Y030070D01*
X028369Y029831D02*
X022531Y029831D01*
X022531Y029593D02*
X028498Y029593D01*
X031122Y029831D02*
X034512Y029831D01*
X034588Y030070D02*
X031372Y030070D01*
X031437Y030308D02*
X046881Y030308D01*
X046881Y030070D02*
X035151Y030070D01*
X035308Y029831D02*
X046881Y029831D01*
X046881Y029593D02*
X035547Y029593D01*
X035681Y029354D02*
X046881Y029354D01*
X046881Y029116D02*
X035681Y029116D01*
X035681Y028877D02*
X046881Y028877D01*
X046881Y028639D02*
X035681Y028639D01*
X035681Y028400D02*
X046881Y028400D01*
X046881Y028162D02*
X042032Y028162D01*
X042232Y027923D02*
X046881Y027923D01*
X046881Y027685D02*
X042286Y027685D01*
X042240Y027446D02*
X046881Y027446D01*
X046881Y027208D02*
X042054Y027208D01*
X042170Y026969D02*
X046881Y026969D01*
X046881Y026731D02*
X042246Y026731D01*
X042215Y026492D02*
X046881Y026492D01*
X046881Y026254D02*
X042051Y026254D01*
X041326Y026677D02*
X041227Y026578D01*
X040145Y026578D01*
X039357Y025791D01*
X039357Y019196D01*
X039686Y019337D02*
X046881Y019337D01*
X046881Y019099D02*
X039703Y019099D01*
X039657Y019576D02*
X046881Y019576D01*
X046881Y019814D02*
X039657Y019814D01*
X039657Y020053D02*
X046881Y020053D01*
X046881Y020291D02*
X039657Y020291D01*
X039657Y020530D02*
X046881Y020530D01*
X046881Y020768D02*
X039657Y020768D01*
X039657Y021007D02*
X046881Y021007D01*
X046881Y021245D02*
X039657Y021245D01*
X039657Y021484D02*
X046881Y021484D01*
X046881Y021722D02*
X039657Y021722D01*
X039657Y021961D02*
X046881Y021961D01*
X046881Y022199D02*
X039657Y022199D01*
X039657Y022438D02*
X046881Y022438D01*
X046881Y022676D02*
X039657Y022676D01*
X039657Y022915D02*
X046881Y022915D01*
X046881Y023153D02*
X039657Y023153D01*
X039657Y023392D02*
X046881Y023392D01*
X046881Y023630D02*
X039657Y023630D01*
X039657Y023869D02*
X046881Y023869D01*
X046881Y024107D02*
X039657Y024107D01*
X039657Y024346D02*
X046881Y024346D01*
X046881Y024584D02*
X039657Y024584D01*
X039657Y024823D02*
X046881Y024823D01*
X046881Y025061D02*
X039657Y025061D01*
X039657Y025300D02*
X046881Y025300D01*
X046881Y025538D02*
X039657Y025538D01*
X039767Y025777D02*
X046881Y025777D01*
X046881Y026015D02*
X040006Y026015D01*
X040244Y026254D02*
X040601Y026254D01*
X039873Y026731D02*
X035681Y026731D01*
X035681Y026969D02*
X040482Y026969D01*
X040598Y027208D02*
X035681Y027208D01*
X035681Y027446D02*
X040411Y027446D01*
X040366Y027685D02*
X039771Y027685D01*
X039758Y027655D02*
X039813Y027787D01*
X039813Y027929D01*
X039758Y028060D01*
X039658Y028161D01*
X039527Y028215D01*
X039385Y028215D01*
X039253Y028161D01*
X039153Y028060D01*
X039099Y027929D01*
X039099Y027787D01*
X039153Y027655D01*
X039253Y027555D01*
X039385Y027501D01*
X039527Y027501D01*
X039658Y027555D01*
X039758Y027655D01*
X039813Y027923D02*
X040419Y027923D01*
X040619Y028162D02*
X039656Y028162D01*
X039256Y028162D02*
X035681Y028162D01*
X035681Y027923D02*
X039099Y027923D01*
X039141Y027685D02*
X035681Y027685D01*
X035081Y027685D02*
X008359Y027685D01*
X008359Y027923D02*
X023026Y027923D01*
X022861Y028162D02*
X008359Y028162D01*
X008359Y028400D02*
X022623Y028400D01*
X022384Y028639D02*
X008359Y028639D01*
X008359Y028877D02*
X022146Y028877D01*
X021948Y029116D02*
X008359Y029116D01*
X008359Y029354D02*
X021931Y029354D01*
X021931Y029593D02*
X008359Y029593D01*
X008359Y029831D02*
X021931Y029831D01*
X021931Y030070D02*
X008359Y030070D01*
X008359Y030308D02*
X021931Y030308D01*
X021931Y030547D02*
X008359Y030547D01*
X008359Y030785D02*
X021007Y030785D01*
X020900Y031024D02*
X008359Y031024D01*
X008359Y031262D02*
X020910Y031262D01*
X021041Y031501D02*
X008359Y031501D01*
X008379Y031739D02*
X025295Y031739D01*
X025533Y031978D02*
X023881Y031978D01*
X023890Y031987D02*
X023972Y032184D01*
X024088Y032136D01*
X025080Y032136D01*
X025287Y032222D01*
X025446Y032381D01*
X025531Y032588D01*
X025531Y032812D01*
X025446Y033020D01*
X025287Y033178D01*
X025080Y033264D01*
X024088Y033264D01*
X023880Y033178D01*
X023722Y033020D01*
X023640Y032823D01*
X023525Y032870D01*
X022533Y032870D01*
X022325Y032785D01*
X022167Y032626D01*
X022081Y032419D01*
X022081Y032194D01*
X022167Y031987D01*
X022325Y031829D01*
X022533Y031743D01*
X023525Y031743D01*
X023732Y031829D01*
X023890Y031987D01*
X024602Y031501D02*
X025056Y031501D01*
X024987Y031007D02*
X028546Y034566D01*
X033454Y034566D01*
X033911Y034363D02*
X033952Y034363D01*
X033953Y034359D02*
X033992Y034283D01*
X034042Y034215D01*
X034102Y034155D01*
X034171Y034105D01*
X034246Y034066D01*
X034306Y034047D01*
X034171Y033990D01*
X034030Y033850D01*
X033954Y033666D01*
X033954Y033467D01*
X033954Y033666D01*
X033878Y033850D01*
X033737Y033990D01*
X033553Y034066D01*
X033354Y034066D01*
X033553Y034066D01*
X033737Y034143D01*
X033878Y034283D01*
X033934Y034419D01*
X033953Y034359D01*
X034144Y034124D02*
X033692Y034124D01*
X033842Y033886D02*
X034066Y033886D01*
X033954Y033647D02*
X033954Y033647D01*
X033930Y033409D02*
X033978Y033409D01*
X034143Y033170D02*
X033765Y033170D01*
X033796Y032932D02*
X034112Y032932D01*
X033965Y032693D02*
X033942Y032693D01*
X033949Y032455D02*
X033959Y032455D01*
X034097Y032216D02*
X033811Y032216D01*
X033097Y032216D02*
X026620Y032216D01*
X026382Y031978D02*
X040244Y031978D01*
X040231Y032216D02*
X040396Y032216D01*
X039928Y032216D02*
X034811Y032216D01*
X034949Y032455D02*
X039374Y032455D01*
X039154Y032693D02*
X034942Y032693D01*
X034796Y032932D02*
X039025Y032932D01*
X038961Y033170D02*
X034765Y033170D01*
X034930Y033409D02*
X038955Y033409D01*
X038997Y033647D02*
X034954Y033647D01*
X034842Y033886D02*
X039096Y033886D01*
X039273Y034124D02*
X034764Y034124D01*
X034955Y034363D02*
X039601Y034363D01*
X040558Y034363D02*
X041841Y034363D01*
X041539Y034124D02*
X040886Y034124D01*
X041064Y033886D02*
X041372Y033886D01*
X041278Y033647D02*
X041162Y033647D01*
X041205Y033409D02*
X042283Y033409D01*
X042283Y033647D02*
X042523Y033647D01*
X042523Y033409D02*
X046881Y033409D01*
X046881Y033647D02*
X043527Y033647D01*
X043433Y033886D02*
X046881Y033886D01*
X046881Y034124D02*
X043266Y034124D01*
X042964Y034363D02*
X046881Y034363D01*
X046881Y034601D02*
X034994Y034601D01*
X034921Y034840D02*
X046881Y034840D01*
X046881Y035078D02*
X034626Y035078D01*
X034454Y035078D02*
X034454Y035078D01*
X034281Y035078D02*
X031131Y035078D01*
X031116Y035064D02*
X031344Y035292D01*
X031468Y035590D01*
X031468Y035913D01*
X031344Y036211D01*
X031116Y036439D01*
X030818Y036563D01*
X030495Y036563D01*
X030197Y036439D01*
X029969Y036211D01*
X029845Y035913D01*
X029845Y035590D01*
X029969Y035292D01*
X030197Y035064D01*
X030495Y034940D01*
X030818Y034940D01*
X031116Y035064D01*
X031355Y035317D02*
X046881Y035317D01*
X046881Y035555D02*
X031453Y035555D01*
X031468Y035794D02*
X046881Y035794D01*
X046881Y036032D02*
X031418Y036032D01*
X031285Y036271D02*
X046881Y036271D01*
X046881Y036509D02*
X030948Y036509D01*
X030365Y036509D02*
X025475Y036509D01*
X025537Y036447D02*
X025309Y036676D01*
X025011Y036799D01*
X024688Y036799D01*
X024390Y036676D01*
X024162Y036447D01*
X024038Y036149D01*
X024038Y035826D01*
X024162Y035528D01*
X024390Y035300D01*
X024688Y035176D01*
X025011Y035176D01*
X025309Y035300D01*
X025537Y035528D01*
X025661Y035826D01*
X025661Y036149D01*
X025537Y036447D01*
X025610Y036271D02*
X030028Y036271D01*
X029895Y036032D02*
X025661Y036032D01*
X025647Y035794D02*
X029845Y035794D01*
X029860Y035555D02*
X025548Y035555D01*
X025326Y035317D02*
X029958Y035317D01*
X030182Y035078D02*
X009223Y035078D01*
X009140Y035317D02*
X024373Y035317D01*
X024150Y035555D02*
X009009Y035555D01*
X009117Y035383D02*
X009117Y035383D01*
X008859Y035794D02*
X024052Y035794D01*
X024038Y036032D02*
X008800Y036032D01*
X008748Y035970D02*
X008748Y035970D01*
X009038Y036271D02*
X024088Y036271D01*
X024223Y036509D02*
X009277Y036509D01*
X009515Y036748D02*
X024564Y036748D01*
X025135Y036748D02*
X046881Y036748D01*
X046881Y036986D02*
X009754Y036986D01*
X009992Y037225D02*
X046881Y037225D01*
X046881Y037463D02*
X010650Y037463D01*
X010833Y037702D02*
X046881Y037702D01*
X046881Y037940D02*
X046570Y037940D01*
X045924Y037940D02*
X010833Y037940D01*
X010763Y038179D02*
X045606Y038179D01*
X045480Y038417D02*
X010525Y038417D01*
X010020Y038417D02*
X002329Y038417D01*
X002373Y038656D02*
X045436Y038656D01*
X045456Y038894D02*
X002353Y038894D01*
X002255Y039133D02*
X045554Y039133D01*
X042523Y034363D02*
X042283Y034363D01*
X042283Y034124D02*
X042523Y034124D01*
X042523Y033886D02*
X042283Y033886D01*
X042523Y033220D02*
X043561Y033220D01*
X043553Y033145D01*
X043524Y033017D01*
X043480Y032894D01*
X043424Y032776D01*
X043354Y032665D01*
X043273Y032563D01*
X043180Y032470D01*
X043078Y032389D01*
X042967Y032319D01*
X042849Y032262D01*
X042726Y032219D01*
X042598Y032190D01*
X042523Y032181D01*
X042523Y033220D01*
X042523Y033170D02*
X042283Y033170D01*
X042283Y032932D02*
X042523Y032932D01*
X042523Y032693D02*
X042283Y032693D01*
X042283Y032455D02*
X042523Y032455D01*
X042523Y032216D02*
X042283Y032216D01*
X042278Y031978D02*
X046881Y031978D01*
X046881Y032216D02*
X042713Y032216D01*
X043161Y032455D02*
X046881Y032455D01*
X046881Y032693D02*
X043372Y032693D01*
X043494Y032932D02*
X046881Y032932D01*
X046881Y033170D02*
X043556Y033170D01*
X042359Y031739D02*
X046881Y031739D01*
X046881Y031501D02*
X042386Y031501D01*
X042364Y031262D02*
X046881Y031262D01*
X046881Y031024D02*
X042291Y031024D01*
X042147Y030785D02*
X046881Y030785D01*
X046881Y030547D02*
X041877Y030547D01*
X040644Y030547D02*
X031397Y030547D01*
X031223Y030785D02*
X040375Y030785D01*
X041005Y032693D02*
X041433Y032693D01*
X041311Y032932D02*
X041135Y032932D01*
X041199Y033170D02*
X041249Y033170D01*
X041326Y028162D02*
X041326Y028162D01*
X041326Y027923D02*
X041326Y027923D01*
X041326Y027685D02*
X041326Y027685D01*
X039634Y026492D02*
X035681Y026492D01*
X035661Y026254D02*
X039396Y026254D01*
X039157Y026015D02*
X035459Y026015D01*
X035220Y025777D02*
X039057Y025777D01*
X039057Y025538D02*
X034982Y025538D01*
X034743Y025300D02*
X039057Y025300D01*
X039057Y025061D02*
X034505Y025061D01*
X034266Y024823D02*
X039057Y024823D01*
X039057Y024584D02*
X034028Y024584D01*
X033809Y024346D02*
X034572Y024346D01*
X034510Y024320D02*
X034718Y024406D01*
X035710Y024406D01*
X035917Y024320D01*
X036075Y024161D01*
X036161Y023954D01*
X036161Y023730D01*
X036075Y023523D01*
X035917Y023364D01*
X035710Y023278D01*
X034718Y023278D01*
X034510Y023364D01*
X034352Y023523D01*
X034266Y023730D01*
X034266Y023954D01*
X034352Y024161D01*
X034510Y024320D01*
X034329Y024107D02*
X033570Y024107D01*
X033332Y023869D02*
X034266Y023869D01*
X034307Y023630D02*
X033093Y023630D01*
X032855Y023392D02*
X034483Y023392D01*
X035944Y023392D02*
X039057Y023392D01*
X039057Y023630D02*
X036120Y023630D01*
X036161Y023869D02*
X039057Y023869D01*
X039057Y024107D02*
X036098Y024107D01*
X035855Y024346D02*
X039057Y024346D01*
X039057Y023153D02*
X032768Y023153D01*
X032768Y022915D02*
X039057Y022915D01*
X039057Y022676D02*
X032768Y022676D01*
X032768Y022438D02*
X039057Y022438D01*
X035377Y021007D02*
X028751Y021007D01*
X029008Y020768D02*
X035377Y020768D01*
X035377Y020530D02*
X029075Y020530D01*
X027503Y021007D02*
X021310Y021007D01*
X021310Y020768D02*
X027246Y020768D01*
X027179Y020530D02*
X021310Y020530D01*
X021310Y020291D02*
X021745Y020291D01*
X021579Y020053D02*
X021310Y020053D01*
X021310Y019814D02*
X021620Y019814D01*
X021674Y019576D02*
X021310Y019576D01*
X021310Y019337D02*
X021674Y019337D01*
X021674Y019099D02*
X021407Y019099D01*
X021359Y018860D02*
X021674Y018860D01*
X021674Y018622D02*
X021156Y018622D01*
X021395Y018383D02*
X021674Y018383D01*
X022194Y018383D02*
X023408Y018383D01*
X023408Y018145D02*
X022194Y018145D01*
X022194Y017906D02*
X023408Y017906D01*
X023408Y017668D02*
X023161Y017668D01*
X023400Y017429D02*
X023408Y017429D01*
X022707Y017668D02*
X022194Y017668D01*
X022400Y017429D02*
X022468Y017429D01*
X022454Y017191D02*
X022414Y017191D01*
X022349Y016952D02*
X022519Y016952D01*
X021514Y016475D02*
X021410Y016475D01*
X021454Y016237D02*
X021454Y016237D01*
X021451Y015998D02*
X021473Y015998D01*
X020655Y015760D02*
X020310Y015760D01*
X020395Y015998D02*
X020417Y015998D01*
X020414Y016237D02*
X020414Y016237D01*
X020458Y016475D02*
X020354Y016475D01*
X020349Y016952D02*
X020519Y016952D01*
X020454Y017191D02*
X020414Y017191D01*
X020400Y017429D02*
X020468Y017429D01*
X020707Y017668D02*
X020161Y017668D01*
X020679Y019099D02*
X020693Y019099D01*
X020670Y019337D02*
X020790Y019337D01*
X020790Y019576D02*
X020670Y019576D01*
X020670Y019814D02*
X020790Y019814D01*
X020790Y020053D02*
X020670Y020053D01*
X020670Y020291D02*
X020790Y020291D01*
X020790Y020530D02*
X020670Y020530D01*
X020670Y020768D02*
X020790Y020768D01*
X020790Y021007D02*
X020670Y021007D01*
X020670Y021245D02*
X020790Y021245D01*
X020790Y021484D02*
X020670Y021484D01*
X020670Y021722D02*
X020790Y021722D01*
X020790Y021961D02*
X020670Y021961D01*
X020670Y022199D02*
X020790Y022199D01*
X020790Y022438D02*
X020670Y022438D01*
X020670Y022676D02*
X020790Y022676D01*
X020790Y022915D02*
X020670Y022915D01*
X020790Y023153D02*
X020512Y023153D01*
X020274Y023392D02*
X020790Y023392D01*
X020790Y023630D02*
X020035Y023630D01*
X022127Y020291D02*
X027217Y020291D01*
X027389Y020053D02*
X022293Y020053D01*
X022252Y019814D02*
X027483Y019814D01*
X027483Y019576D02*
X022194Y019576D01*
X022194Y019337D02*
X027483Y019337D01*
X028003Y018860D02*
X035377Y018860D01*
X035377Y018622D02*
X028003Y018622D01*
X023499Y019099D02*
X022194Y019099D01*
X022194Y018860D02*
X023351Y018860D01*
X023396Y018622D02*
X022194Y018622D01*
X031418Y026254D02*
X034849Y026254D01*
X035081Y026492D02*
X031496Y026492D01*
X031393Y026731D02*
X035081Y026731D01*
X035081Y026969D02*
X008359Y026969D01*
X008359Y027208D02*
X035081Y027208D01*
X035081Y027446D02*
X008359Y027446D01*
X005623Y031024D02*
X000928Y031024D01*
X000928Y031262D02*
X004959Y031262D01*
X004982Y031248D02*
X004982Y031248D01*
X004580Y031501D02*
X000928Y031501D01*
X000928Y031739D02*
X004272Y031739D01*
X004034Y031978D02*
X000928Y031978D01*
X000928Y032216D02*
X003836Y032216D01*
X003904Y032107D02*
X003904Y032107D01*
X003686Y032455D02*
X000928Y032455D01*
X000928Y032693D02*
X003536Y032693D01*
X003452Y032932D02*
X000928Y032932D01*
X000928Y033170D02*
X003368Y033170D01*
X003299Y033409D02*
X000928Y033409D01*
X000928Y033647D02*
X003272Y033647D01*
X003245Y033886D02*
X000928Y033886D01*
X000928Y034124D02*
X003238Y034124D01*
X003265Y034363D02*
X000928Y034363D01*
X000928Y034601D02*
X003291Y034601D01*
X003306Y034728D02*
X003306Y034728D01*
X003345Y034840D02*
X000928Y034840D01*
X000928Y035078D02*
X003428Y035078D01*
X003512Y035317D02*
X002491Y035317D01*
X002474Y035300D02*
X002703Y035528D01*
X002826Y035826D01*
X002826Y036149D01*
X002703Y036447D01*
X002474Y036676D01*
X002176Y036799D01*
X001853Y036799D01*
X001555Y036676D01*
X001327Y036447D01*
X001203Y036149D01*
X001203Y035826D01*
X001327Y035528D01*
X001555Y035300D01*
X001853Y035176D01*
X002176Y035176D01*
X002474Y035300D01*
X002714Y035555D02*
X003643Y035555D01*
X003793Y035794D02*
X002813Y035794D01*
X002826Y036032D02*
X003966Y036032D01*
X003904Y035970D02*
X003904Y035970D01*
X004204Y036271D02*
X002776Y036271D01*
X002641Y036509D02*
X004471Y036509D01*
X004394Y036461D02*
X004394Y036461D01*
X004851Y036748D02*
X002300Y036748D01*
X001729Y036748D02*
X000928Y036748D01*
X000928Y036986D02*
X005428Y036986D01*
X005636Y037059D02*
X005636Y037059D01*
X007015Y037059D02*
X007015Y037059D01*
X007223Y036986D02*
X008792Y036986D01*
X008554Y036748D02*
X007801Y036748D01*
X008180Y036509D02*
X008315Y036509D01*
X008257Y036461D02*
X008257Y036461D01*
X009031Y037225D02*
X000928Y037225D01*
X000928Y037463D02*
X009269Y037463D01*
X009508Y037702D02*
X000928Y037702D01*
X000928Y037940D02*
X001239Y037940D01*
X001885Y037940D02*
X009713Y037940D01*
X009782Y038179D02*
X002203Y038179D01*
X001389Y036509D02*
X000928Y036509D01*
X000928Y036271D02*
X001254Y036271D01*
X001203Y036032D02*
X000928Y036032D01*
X000928Y035794D02*
X001217Y035794D01*
X001316Y035555D02*
X000928Y035555D01*
X000928Y035317D02*
X001538Y035317D01*
X007670Y031248D02*
X007670Y031248D01*
X008618Y031978D02*
X022176Y031978D01*
X022081Y032216D02*
X008816Y032216D01*
X008966Y032455D02*
X022096Y032455D01*
X022234Y032693D02*
X009116Y032693D01*
X009200Y032932D02*
X023685Y032932D01*
X023872Y033170D02*
X009283Y033170D01*
X009353Y033409D02*
X026964Y033409D01*
X027203Y033647D02*
X009379Y033647D01*
X009406Y033886D02*
X027441Y033886D01*
X027680Y034124D02*
X009414Y034124D01*
X009424Y034039D02*
X009424Y034039D01*
X009387Y034363D02*
X027918Y034363D01*
X028157Y034601D02*
X009360Y034601D01*
X009307Y034840D02*
X028422Y034840D01*
X028528Y034124D02*
X033215Y034124D01*
X033066Y033886D02*
X028290Y033886D01*
X028051Y033647D02*
X032954Y033647D01*
X032978Y033409D02*
X027813Y033409D01*
X027574Y033170D02*
X033143Y033170D01*
X033112Y032932D02*
X027336Y032932D01*
X027097Y032693D02*
X032965Y032693D01*
X032959Y032455D02*
X026859Y032455D01*
X026487Y032932D02*
X025482Y032932D01*
X025531Y032693D02*
X026249Y032693D01*
X026010Y032455D02*
X025476Y032455D01*
X025272Y032216D02*
X025772Y032216D01*
X025295Y033170D02*
X026726Y033170D01*
X022231Y031126D02*
X022231Y029216D01*
X023334Y028114D01*
X023552Y028400D02*
X035081Y028400D01*
X035081Y028162D02*
X023691Y028162D01*
X023641Y027923D02*
X035081Y027923D01*
X035081Y028639D02*
X023233Y028639D01*
X022995Y028877D02*
X035081Y028877D01*
X035081Y029116D02*
X022756Y029116D01*
X022531Y029354D02*
X034937Y029354D01*
X034454Y034601D02*
X034454Y034601D01*
X034454Y034840D02*
X034454Y034840D01*
X033987Y034840D02*
X033882Y034840D01*
X001664Y017429D02*
X000928Y017429D01*
X000928Y017191D02*
X001362Y017191D01*
X001243Y016952D02*
X000928Y016952D01*
X000928Y016714D02*
X001203Y016714D01*
X001228Y016475D02*
X000928Y016475D01*
X000928Y016237D02*
X001327Y016237D01*
X001024Y014090D02*
X000928Y014090D01*
X003956Y005504D02*
X003972Y005504D01*
X003956Y005266D02*
X003972Y005266D01*
X003972Y005094D02*
X004439Y005094D01*
X004439Y004768D01*
X004424Y004712D01*
X004396Y004662D01*
X004355Y004621D01*
X004304Y004592D01*
X004248Y004577D01*
X003972Y004577D01*
X003972Y005094D01*
X003972Y005027D02*
X003956Y005027D01*
X003956Y004789D02*
X003972Y004789D01*
X004439Y004789D02*
X005299Y004789D01*
X005299Y005027D02*
X004439Y005027D01*
X004439Y005266D02*
X005299Y005266D01*
X005322Y005504D02*
X004417Y005504D01*
X006584Y005504D02*
X006599Y005504D01*
X006584Y005266D02*
X006599Y005266D01*
X006584Y005027D02*
X006599Y005027D01*
X006584Y004789D02*
X006599Y004789D01*
X006922Y002487D02*
X006261Y002487D01*
X006156Y002381D01*
X006156Y002367D01*
X006066Y002457D01*
X005405Y002457D01*
X005299Y002352D01*
X005299Y001592D01*
X005405Y001487D01*
X006066Y001487D01*
X006171Y001592D01*
X006171Y001606D01*
X006261Y001516D01*
X006922Y001516D01*
X007027Y001622D01*
X007027Y002381D01*
X006922Y002487D01*
X007005Y002404D02*
X007950Y002404D01*
X007927Y002165D02*
X007027Y002165D01*
X007027Y001927D02*
X007927Y001927D01*
X007927Y001688D02*
X007027Y001688D01*
X006178Y002404D02*
X006119Y002404D01*
X005351Y002404D02*
X004348Y002404D01*
X004399Y002165D02*
X005299Y002165D01*
X005299Y001927D02*
X004399Y001927D01*
X004399Y001688D02*
X005299Y001688D01*
X002202Y000973D02*
X045607Y000973D01*
X043990Y001688D02*
X043090Y001688D01*
X043090Y001622D02*
X042985Y001516D01*
X042324Y001516D01*
X042219Y001622D01*
X042219Y002381D01*
X042324Y002487D01*
X042985Y002487D01*
X043090Y002381D01*
X043090Y001622D01*
X043090Y001927D02*
X043990Y001927D01*
X043990Y002165D02*
X043090Y002165D01*
X043068Y002404D02*
X044013Y002404D01*
X042241Y002404D02*
X041966Y002404D01*
X041988Y002381D02*
X041883Y002487D01*
X041222Y002487D01*
X041116Y002381D01*
X041116Y001622D01*
X041222Y001516D01*
X041883Y001516D01*
X041988Y001622D01*
X041988Y002381D01*
X041988Y002165D02*
X042219Y002165D01*
X042219Y001927D02*
X041988Y001927D01*
X041988Y001688D02*
X042219Y001688D01*
X041116Y001688D02*
X040216Y001688D01*
X040216Y001927D02*
X041116Y001927D01*
X041116Y002165D02*
X040216Y002165D01*
X040194Y002404D02*
X041139Y002404D01*
D22*
X034977Y003104D03*
X029072Y003891D03*
X021592Y003891D03*
X018442Y007435D03*
X014653Y010614D03*
X013373Y011519D03*
X012586Y012307D03*
X007025Y010781D03*
X002103Y010584D03*
X002103Y008419D03*
X015686Y003891D03*
X020460Y012425D03*
X021562Y012464D03*
X022979Y013173D03*
X026316Y011568D03*
X026513Y010190D03*
X030056Y013931D03*
X032221Y015505D03*
X035223Y012444D03*
X038334Y013114D03*
X039357Y019196D03*
X035637Y021618D03*
X032221Y024954D03*
X031139Y026480D03*
X034869Y029846D03*
X039456Y027858D03*
X036552Y037651D03*
X042802Y037651D03*
X029466Y037651D03*
X022281Y037750D03*
X013668Y037848D03*
X006139Y029974D03*
X001906Y027710D03*
X001906Y032435D03*
X001906Y022986D03*
X006828Y022592D03*
X016670Y022198D03*
X019032Y020624D03*
X021050Y019049D03*
X021936Y019984D03*
X023629Y019866D03*
X023708Y018803D03*
X027723Y017051D03*
X025450Y024147D03*
X023334Y028114D03*
X021523Y028251D03*
D23*
X012940Y020850D02*
X010696Y020850D01*
X008019Y023527D01*
X008019Y032346D01*
X006326Y034039D01*
X010164Y037877D01*
X010273Y037877D01*
M02*
