G75*
%MOIN*%
%OFA0B0*%
%FSLAX24Y24*%
%IPPOS*%
%LPD*%
%AMOC8*
5,1,8,0,0,1.08239X$1,22.5*
%
%ADD10C,0.0160*%
%ADD11C,0.0100*%
%ADD12C,0.0110*%
%ADD13C,0.0080*%
%ADD14R,0.0015X0.0015*%
%ADD15R,0.0107X0.0015*%
%ADD16R,0.0123X0.0015*%
%ADD17R,0.0138X0.0015*%
%ADD18R,0.0353X0.0015*%
%ADD19R,0.0230X0.0015*%
%ADD20R,0.0261X0.0015*%
%ADD21R,0.0292X0.0015*%
%ADD22R,0.0154X0.0015*%
%ADD23R,0.0276X0.0015*%
%ADD24R,0.0322X0.0015*%
%ADD25R,0.0307X0.0015*%
%ADD26R,0.0169X0.0015*%
%ADD27R,0.0338X0.0015*%
%ADD28R,0.0384X0.0015*%
%ADD29R,0.0369X0.0015*%
%ADD30R,0.0415X0.0015*%
%ADD31R,0.0399X0.0015*%
%ADD32R,0.0445X0.0015*%
%ADD33R,0.0476X0.0015*%
%ADD34R,0.0200X0.0015*%
%ADD35R,0.0430X0.0015*%
%ADD36R,0.0077X0.0015*%
%ADD37R,0.0184X0.0015*%
%ADD38R,0.0046X0.0015*%
%ADD39R,0.0031X0.0015*%
%ADD40R,0.0246X0.0015*%
%ADD41R,0.0461X0.0015*%
%ADD42R,0.0092X0.0015*%
%ADD43R,0.0061X0.0015*%
%ADD44R,0.1981X0.0015*%
%ADD45R,0.2165X0.0015*%
%ADD46R,0.2288X0.0015*%
%ADD47R,0.2380X0.0015*%
%ADD48R,0.2472X0.0015*%
%ADD49R,0.2533X0.0015*%
%ADD50R,0.2595X0.0015*%
%ADD51R,0.0215X0.0015*%
%ADD52R,0.1075X0.0015*%
%ADD53R,0.0568X0.0015*%
%ADD54R,0.0952X0.0015*%
%ADD55R,0.0844X0.0015*%
%ADD56R,0.0537X0.0015*%
%ADD57R,0.0691X0.0015*%
%ADD58R,0.0507X0.0015*%
%ADD59R,0.0583X0.0015*%
%ADD60R,0.2365X0.0015*%
%ADD61R,0.2395X0.0015*%
%ADD62R,0.2349X0.0015*%
%ADD63C,0.0050*%
%ADD64C,0.0030*%
%ADD65R,0.0059X0.0118*%
%ADD66R,0.0118X0.0118*%
%ADD67C,0.0060*%
D10*
X008845Y019708D02*
X008849Y020046D01*
X008862Y020384D01*
X008882Y020722D01*
X008911Y021059D01*
X008949Y021395D01*
X008994Y021730D01*
X009048Y022064D01*
X009110Y022396D01*
X009180Y022727D01*
X009258Y023056D01*
X009344Y023383D01*
X009438Y023708D01*
X009541Y024031D01*
X009651Y024350D01*
X009768Y024667D01*
X009894Y024981D01*
X010027Y025292D01*
X010168Y025600D01*
X010316Y025904D01*
X010472Y026204D01*
X010635Y026500D01*
X010805Y026792D01*
X010983Y027080D01*
X011167Y027364D01*
X011359Y027643D01*
X011557Y027917D01*
X011762Y028186D01*
X011973Y028450D01*
X012191Y028709D01*
X012415Y028962D01*
X012645Y029210D01*
X012881Y029452D01*
X013123Y029688D01*
X013371Y029918D01*
X013624Y030142D01*
X013883Y030360D01*
X014147Y030571D01*
X014416Y030776D01*
X014690Y030974D01*
X014969Y031166D01*
X015253Y031350D01*
X015541Y031528D01*
X015833Y031698D01*
X016129Y031861D01*
X016429Y032017D01*
X016733Y032165D01*
X017041Y032306D01*
X017352Y032439D01*
X017666Y032565D01*
X017983Y032682D01*
X018302Y032792D01*
X018625Y032895D01*
X018950Y032989D01*
X019277Y033075D01*
X019606Y033153D01*
X019937Y033223D01*
X020269Y033285D01*
X020603Y033339D01*
X020938Y033384D01*
X021274Y033422D01*
X021611Y033451D01*
X021949Y033471D01*
X022287Y033484D01*
X022625Y033488D01*
X022963Y033484D01*
X023301Y033471D01*
X023639Y033451D01*
X023976Y033422D01*
X024312Y033384D01*
X024647Y033339D01*
X024981Y033285D01*
X025313Y033223D01*
X025644Y033153D01*
X025973Y033075D01*
X026300Y032989D01*
X026625Y032895D01*
X026948Y032792D01*
X027267Y032682D01*
X027584Y032565D01*
X027898Y032439D01*
X028209Y032306D01*
X028517Y032165D01*
X028821Y032017D01*
X029121Y031861D01*
X029417Y031698D01*
X029709Y031528D01*
X029997Y031350D01*
X030281Y031166D01*
X030560Y030974D01*
X030834Y030776D01*
X031103Y030571D01*
X031367Y030360D01*
X031626Y030142D01*
X031879Y029918D01*
X032127Y029688D01*
X032369Y029452D01*
X032605Y029210D01*
X032835Y028962D01*
X033059Y028709D01*
X033277Y028450D01*
X033488Y028186D01*
X033693Y027917D01*
X033891Y027643D01*
X034083Y027364D01*
X034267Y027080D01*
X034445Y026792D01*
X034615Y026500D01*
X034778Y026204D01*
X034934Y025904D01*
X035082Y025600D01*
X035223Y025292D01*
X035356Y024981D01*
X035482Y024667D01*
X035599Y024350D01*
X035709Y024031D01*
X035812Y023708D01*
X035906Y023383D01*
X035992Y023056D01*
X036070Y022727D01*
X036140Y022396D01*
X036202Y022064D01*
X036256Y021730D01*
X036301Y021395D01*
X036339Y021059D01*
X036368Y020722D01*
X036388Y020384D01*
X036401Y020046D01*
X036405Y019708D01*
X036401Y019370D01*
X036388Y019032D01*
X036368Y018694D01*
X036339Y018357D01*
X036301Y018021D01*
X036256Y017686D01*
X036202Y017352D01*
X036140Y017020D01*
X036070Y016689D01*
X035992Y016360D01*
X035906Y016033D01*
X035812Y015708D01*
X035709Y015385D01*
X035599Y015066D01*
X035482Y014749D01*
X035356Y014435D01*
X035223Y014124D01*
X035082Y013816D01*
X034934Y013512D01*
X034778Y013212D01*
X034615Y012916D01*
X034445Y012624D01*
X034267Y012336D01*
X034083Y012052D01*
X033891Y011773D01*
X033693Y011499D01*
X033488Y011230D01*
X033277Y010966D01*
X033059Y010707D01*
X032835Y010454D01*
X032605Y010206D01*
X032369Y009964D01*
X032127Y009728D01*
X031879Y009498D01*
X031626Y009274D01*
X031367Y009056D01*
X031103Y008845D01*
X030834Y008640D01*
X030560Y008442D01*
X030281Y008250D01*
X029997Y008066D01*
X029709Y007888D01*
X029417Y007718D01*
X029121Y007555D01*
X028821Y007399D01*
X028517Y007251D01*
X028209Y007110D01*
X027898Y006977D01*
X027584Y006851D01*
X027267Y006734D01*
X026948Y006624D01*
X026625Y006521D01*
X026300Y006427D01*
X025973Y006341D01*
X025644Y006263D01*
X025313Y006193D01*
X024981Y006131D01*
X024647Y006077D01*
X024312Y006032D01*
X023976Y005994D01*
X023639Y005965D01*
X023301Y005945D01*
X022963Y005932D01*
X022625Y005928D01*
X022287Y005932D01*
X021949Y005945D01*
X021611Y005965D01*
X021274Y005994D01*
X020938Y006032D01*
X020603Y006077D01*
X020269Y006131D01*
X019937Y006193D01*
X019606Y006263D01*
X019277Y006341D01*
X018950Y006427D01*
X018625Y006521D01*
X018302Y006624D01*
X017983Y006734D01*
X017666Y006851D01*
X017352Y006977D01*
X017041Y007110D01*
X016733Y007251D01*
X016429Y007399D01*
X016129Y007555D01*
X015833Y007718D01*
X015541Y007888D01*
X015253Y008066D01*
X014969Y008250D01*
X014690Y008442D01*
X014416Y008640D01*
X014147Y008845D01*
X013883Y009056D01*
X013624Y009274D01*
X013371Y009498D01*
X013123Y009728D01*
X012881Y009964D01*
X012645Y010206D01*
X012415Y010454D01*
X012191Y010707D01*
X011973Y010966D01*
X011762Y011230D01*
X011557Y011499D01*
X011359Y011773D01*
X011167Y012052D01*
X010983Y012336D01*
X010805Y012624D01*
X010635Y012916D01*
X010472Y013212D01*
X010316Y013512D01*
X010168Y013816D01*
X010027Y014124D01*
X009894Y014435D01*
X009768Y014749D01*
X009651Y015066D01*
X009541Y015385D01*
X009438Y015708D01*
X009344Y016033D01*
X009258Y016360D01*
X009180Y016689D01*
X009110Y017020D01*
X009048Y017352D01*
X008994Y017686D01*
X008949Y018021D01*
X008911Y018357D01*
X008882Y018694D01*
X008862Y019032D01*
X008849Y019370D01*
X008845Y019708D01*
X008849Y020046D01*
X008862Y020384D01*
X008882Y020722D01*
X008911Y021059D01*
X008949Y021395D01*
X008994Y021730D01*
X009048Y022064D01*
X009110Y022396D01*
X009180Y022727D01*
X009258Y023056D01*
X009344Y023383D01*
X009438Y023708D01*
X009541Y024031D01*
X009651Y024350D01*
X009768Y024667D01*
X009894Y024981D01*
X010027Y025292D01*
X010168Y025600D01*
X010316Y025904D01*
X010472Y026204D01*
X010635Y026500D01*
X010805Y026792D01*
X010983Y027080D01*
X011167Y027364D01*
X011359Y027643D01*
X011557Y027917D01*
X011762Y028186D01*
X011973Y028450D01*
X012191Y028709D01*
X012415Y028962D01*
X012645Y029210D01*
X012881Y029452D01*
X013123Y029688D01*
X013371Y029918D01*
X013624Y030142D01*
X013883Y030360D01*
X014147Y030571D01*
X014416Y030776D01*
X014690Y030974D01*
X014969Y031166D01*
X015253Y031350D01*
X015541Y031528D01*
X015833Y031698D01*
X016129Y031861D01*
X016429Y032017D01*
X016733Y032165D01*
X017041Y032306D01*
X017352Y032439D01*
X017666Y032565D01*
X017983Y032682D01*
X018302Y032792D01*
X018625Y032895D01*
X018950Y032989D01*
X019277Y033075D01*
X019606Y033153D01*
X019937Y033223D01*
X020269Y033285D01*
X020603Y033339D01*
X020938Y033384D01*
X021274Y033422D01*
X021611Y033451D01*
X021949Y033471D01*
X022287Y033484D01*
X022625Y033488D01*
X022963Y033484D01*
X023301Y033471D01*
X023639Y033451D01*
X023976Y033422D01*
X024312Y033384D01*
X024647Y033339D01*
X024981Y033285D01*
X025313Y033223D01*
X025644Y033153D01*
X025973Y033075D01*
X026300Y032989D01*
X026625Y032895D01*
X026948Y032792D01*
X027267Y032682D01*
X027584Y032565D01*
X027898Y032439D01*
X028209Y032306D01*
X028517Y032165D01*
X028821Y032017D01*
X029121Y031861D01*
X029417Y031698D01*
X029709Y031528D01*
X029997Y031350D01*
X030281Y031166D01*
X030560Y030974D01*
X030834Y030776D01*
X031103Y030571D01*
X031367Y030360D01*
X031626Y030142D01*
X031879Y029918D01*
X032127Y029688D01*
X032369Y029452D01*
X032605Y029210D01*
X032835Y028962D01*
X033059Y028709D01*
X033277Y028450D01*
X033488Y028186D01*
X033693Y027917D01*
X033891Y027643D01*
X034083Y027364D01*
X034267Y027080D01*
X034445Y026792D01*
X034615Y026500D01*
X034778Y026204D01*
X034934Y025904D01*
X035082Y025600D01*
X035223Y025292D01*
X035356Y024981D01*
X035482Y024667D01*
X035599Y024350D01*
X035709Y024031D01*
X035812Y023708D01*
X035906Y023383D01*
X035992Y023056D01*
X036070Y022727D01*
X036140Y022396D01*
X036202Y022064D01*
X036256Y021730D01*
X036301Y021395D01*
X036339Y021059D01*
X036368Y020722D01*
X036388Y020384D01*
X036401Y020046D01*
X036405Y019708D01*
X036401Y019370D01*
X036388Y019032D01*
X036368Y018694D01*
X036339Y018357D01*
X036301Y018021D01*
X036256Y017686D01*
X036202Y017352D01*
X036140Y017020D01*
X036070Y016689D01*
X035992Y016360D01*
X035906Y016033D01*
X035812Y015708D01*
X035709Y015385D01*
X035599Y015066D01*
X035482Y014749D01*
X035356Y014435D01*
X035223Y014124D01*
X035082Y013816D01*
X034934Y013512D01*
X034778Y013212D01*
X034615Y012916D01*
X034445Y012624D01*
X034267Y012336D01*
X034083Y012052D01*
X033891Y011773D01*
X033693Y011499D01*
X033488Y011230D01*
X033277Y010966D01*
X033059Y010707D01*
X032835Y010454D01*
X032605Y010206D01*
X032369Y009964D01*
X032127Y009728D01*
X031879Y009498D01*
X031626Y009274D01*
X031367Y009056D01*
X031103Y008845D01*
X030834Y008640D01*
X030560Y008442D01*
X030281Y008250D01*
X029997Y008066D01*
X029709Y007888D01*
X029417Y007718D01*
X029121Y007555D01*
X028821Y007399D01*
X028517Y007251D01*
X028209Y007110D01*
X027898Y006977D01*
X027584Y006851D01*
X027267Y006734D01*
X026948Y006624D01*
X026625Y006521D01*
X026300Y006427D01*
X025973Y006341D01*
X025644Y006263D01*
X025313Y006193D01*
X024981Y006131D01*
X024647Y006077D01*
X024312Y006032D01*
X023976Y005994D01*
X023639Y005965D01*
X023301Y005945D01*
X022963Y005932D01*
X022625Y005928D01*
X022287Y005932D01*
X021949Y005945D01*
X021611Y005965D01*
X021274Y005994D01*
X020938Y006032D01*
X020603Y006077D01*
X020269Y006131D01*
X019937Y006193D01*
X019606Y006263D01*
X019277Y006341D01*
X018950Y006427D01*
X018625Y006521D01*
X018302Y006624D01*
X017983Y006734D01*
X017666Y006851D01*
X017352Y006977D01*
X017041Y007110D01*
X016733Y007251D01*
X016429Y007399D01*
X016129Y007555D01*
X015833Y007718D01*
X015541Y007888D01*
X015253Y008066D01*
X014969Y008250D01*
X014690Y008442D01*
X014416Y008640D01*
X014147Y008845D01*
X013883Y009056D01*
X013624Y009274D01*
X013371Y009498D01*
X013123Y009728D01*
X012881Y009964D01*
X012645Y010206D01*
X012415Y010454D01*
X012191Y010707D01*
X011973Y010966D01*
X011762Y011230D01*
X011557Y011499D01*
X011359Y011773D01*
X011167Y012052D01*
X010983Y012336D01*
X010805Y012624D01*
X010635Y012916D01*
X010472Y013212D01*
X010316Y013512D01*
X010168Y013816D01*
X010027Y014124D01*
X009894Y014435D01*
X009768Y014749D01*
X009651Y015066D01*
X009541Y015385D01*
X009438Y015708D01*
X009344Y016033D01*
X009258Y016360D01*
X009180Y016689D01*
X009110Y017020D01*
X009048Y017352D01*
X008994Y017686D01*
X008949Y018021D01*
X008911Y018357D01*
X008882Y018694D01*
X008862Y019032D01*
X008849Y019370D01*
X008845Y019708D01*
D11*
X031927Y005179D02*
X031927Y004719D01*
X032234Y004719D01*
X032080Y004949D02*
X031927Y004949D01*
X031927Y005179D02*
X032234Y005179D01*
X032443Y005179D02*
X032750Y005179D01*
X032596Y005179D02*
X032596Y004719D01*
X032958Y004796D02*
X032958Y004949D01*
X033035Y005026D01*
X033188Y005026D01*
X033265Y004949D01*
X033265Y004872D01*
X032958Y004872D01*
X032958Y004796D02*
X033035Y004719D01*
X033188Y004719D01*
X033474Y004719D02*
X033704Y004719D01*
X033781Y004796D01*
X033704Y004872D01*
X033551Y004872D01*
X033474Y004949D01*
X033551Y005026D01*
X033781Y005026D01*
X033990Y005026D02*
X034143Y005026D01*
X034066Y005102D02*
X034066Y004796D01*
X034143Y004719D01*
X034849Y004719D02*
X034849Y005179D01*
X035079Y005179D01*
X035156Y005102D01*
X035156Y004949D01*
X035079Y004872D01*
X034849Y004872D01*
X035365Y004872D02*
X035595Y004872D01*
X035671Y004949D01*
X035671Y005102D01*
X035595Y005179D01*
X035365Y005179D01*
X035365Y004719D01*
X035518Y004872D02*
X035671Y004719D01*
X035880Y004796D02*
X035880Y004872D01*
X035957Y004949D01*
X036110Y004949D01*
X036187Y004872D01*
X036187Y004796D01*
X036110Y004719D01*
X035957Y004719D01*
X035880Y004796D01*
X035957Y004949D02*
X035880Y005026D01*
X035880Y005102D01*
X035957Y005179D01*
X036110Y005179D01*
X036187Y005102D01*
X036187Y005026D01*
X036110Y004949D01*
X036396Y004796D02*
X036703Y005102D01*
X036703Y004796D01*
X036626Y004719D01*
X036473Y004719D01*
X036396Y004796D01*
X036396Y005102D01*
X036473Y005179D01*
X036626Y005179D01*
X036703Y005102D01*
X036911Y005102D02*
X036911Y004796D01*
X037218Y005102D01*
X037218Y004796D01*
X037142Y004719D01*
X036988Y004719D01*
X036911Y004796D01*
X036911Y005102D02*
X036988Y005179D01*
X037142Y005179D01*
X037218Y005102D01*
X037427Y005102D02*
X037504Y005179D01*
X037657Y005179D01*
X037734Y005102D01*
X037734Y005026D01*
X037427Y004719D01*
X037734Y004719D01*
D12*
X040495Y001682D02*
X040692Y001682D01*
X040790Y001584D01*
X040790Y001486D01*
X040692Y001387D01*
X040790Y001289D01*
X040790Y001190D01*
X040692Y001092D01*
X040495Y001092D01*
X040397Y001190D01*
X040593Y001387D02*
X040692Y001387D01*
X040397Y001584D02*
X040495Y001682D01*
X043202Y001338D02*
X043595Y001338D01*
X043497Y001043D02*
X043497Y001633D01*
X043202Y001338D01*
X007522Y001338D02*
X007522Y001436D01*
X007424Y001535D01*
X007227Y001535D01*
X007129Y001436D01*
X007522Y001338D02*
X007129Y000944D01*
X007522Y000944D01*
X004963Y000944D02*
X004570Y000944D01*
X004767Y000944D02*
X004767Y001535D01*
X004570Y001338D01*
D13*
X009917Y001235D02*
X009917Y001025D01*
X010337Y001025D01*
X010197Y001025D02*
X010197Y001235D01*
X010127Y001305D01*
X009987Y001305D01*
X009917Y001235D01*
X010057Y001485D02*
X009917Y001625D01*
X010057Y001765D01*
X010337Y001765D01*
X010267Y001946D02*
X010337Y002016D01*
X010337Y002156D01*
X010267Y002226D01*
X010197Y002226D01*
X010127Y002156D01*
X010127Y002016D01*
X010057Y001946D01*
X009987Y001946D01*
X009917Y002016D01*
X009917Y002156D01*
X009987Y002226D01*
X009987Y002406D02*
X010057Y002406D01*
X010127Y002476D01*
X010127Y002616D01*
X010197Y002686D01*
X010267Y002686D01*
X010337Y002616D01*
X010337Y002476D01*
X010267Y002406D01*
X009987Y002406D02*
X009917Y002476D01*
X009917Y002616D01*
X009987Y002686D01*
X010127Y001765D02*
X010127Y001485D01*
X010057Y001485D02*
X010337Y001485D01*
X011482Y001360D02*
X011482Y001080D01*
X011902Y001080D01*
X011692Y001080D02*
X011692Y001220D01*
X011692Y001540D02*
X011692Y001820D01*
X011622Y001820D02*
X011902Y001820D01*
X011902Y002001D02*
X011902Y002141D01*
X011902Y002071D02*
X011482Y002071D01*
X011482Y002001D02*
X011482Y002141D01*
X011482Y002307D02*
X011902Y002307D01*
X011902Y002588D01*
X011622Y001820D02*
X011482Y001680D01*
X011622Y001540D01*
X011902Y001540D01*
X012968Y001631D02*
X012968Y001841D01*
X013038Y001911D01*
X013178Y001911D01*
X013248Y001841D01*
X013248Y001631D01*
X013248Y001771D02*
X013388Y001911D01*
X013318Y002091D02*
X013388Y002161D01*
X013388Y002301D01*
X013318Y002371D01*
X013178Y002371D01*
X013178Y002231D01*
X013038Y002091D02*
X013318Y002091D01*
X013038Y002091D02*
X012968Y002161D01*
X012968Y002301D01*
X013038Y002371D01*
X012968Y001631D02*
X013388Y001631D01*
X013178Y001450D02*
X013248Y001380D01*
X013248Y001170D01*
X013388Y001170D02*
X012968Y001170D01*
X012968Y001380D01*
X013038Y001450D01*
X013178Y001450D01*
X026405Y003291D02*
X026405Y003712D01*
X026545Y003572D01*
X026685Y003712D01*
X026685Y003291D01*
X026866Y003291D02*
X027146Y003572D01*
X027146Y003642D01*
X027076Y003712D01*
X026936Y003712D01*
X026866Y003642D01*
X026866Y003291D02*
X027146Y003291D01*
X030342Y034394D02*
X030342Y034814D01*
X030482Y034674D01*
X030622Y034814D01*
X030622Y034394D01*
X030803Y034394D02*
X031083Y034394D01*
X030943Y034394D02*
X030943Y034814D01*
X030803Y034674D01*
X012362Y038221D02*
X012081Y038221D01*
X012221Y038221D02*
X012221Y037801D01*
X011901Y037801D02*
X011901Y038221D01*
X011621Y038221D02*
X011901Y037801D01*
X011621Y037801D02*
X011621Y038221D01*
X011441Y038081D02*
X011441Y037801D01*
X011441Y038011D02*
X011161Y038011D01*
X011161Y038081D02*
X011301Y038221D01*
X011441Y038081D01*
X011161Y038081D02*
X011161Y037801D01*
D14*
X033652Y008853D03*
X033621Y008792D03*
X033621Y008761D03*
X033621Y008669D03*
X033621Y008638D03*
X033621Y008546D03*
X033621Y008515D03*
X033621Y008423D03*
X033621Y008392D03*
X033621Y008300D03*
X033621Y008270D03*
X033621Y008177D03*
X033621Y008147D03*
X033621Y008055D03*
X033621Y008024D03*
X033621Y007932D03*
X033621Y007901D03*
X033621Y007809D03*
X033805Y007840D03*
X033805Y007870D03*
X033805Y007963D03*
X033805Y007993D03*
X033805Y008085D03*
X033805Y008116D03*
X033805Y008208D03*
X033805Y008239D03*
X033805Y008331D03*
X033805Y008362D03*
X033805Y008454D03*
X033805Y008485D03*
X033805Y008577D03*
X033805Y008607D03*
X033805Y008700D03*
X033805Y008730D03*
X033805Y008822D03*
X033283Y007748D03*
X033283Y007717D03*
X033283Y007625D03*
X033283Y007594D03*
X033283Y007502D03*
X033283Y007471D03*
X033283Y007379D03*
X033283Y007348D03*
X033253Y007318D03*
X033160Y007226D03*
X033130Y007195D03*
X033099Y007133D03*
X033099Y007103D03*
X033068Y007072D03*
X033068Y007041D03*
X033068Y006949D03*
X033068Y006918D03*
X033068Y006826D03*
X033068Y006796D03*
X033068Y006703D03*
X033068Y006673D03*
X033253Y006734D03*
X033253Y006765D03*
X033253Y006857D03*
X033253Y006888D03*
X033253Y006980D03*
X033283Y007041D03*
X033283Y007072D03*
X033314Y007103D03*
X033514Y007210D03*
X033544Y007210D03*
X033560Y007226D03*
X033590Y007226D03*
X033621Y007226D03*
X033652Y007226D03*
X033682Y007226D03*
X033713Y007226D03*
X033744Y007226D03*
X033775Y007226D03*
X033805Y007226D03*
X033836Y007226D03*
X033867Y007226D03*
X033897Y007226D03*
X033928Y007226D03*
X033959Y007226D03*
X033990Y007226D03*
X034020Y007226D03*
X034051Y007226D03*
X034082Y007226D03*
X034112Y007226D03*
X034143Y007226D03*
X034174Y007226D03*
X034174Y007256D03*
X034205Y007226D03*
X034235Y007226D03*
X034082Y007287D03*
X034066Y007302D03*
X033974Y007333D03*
X033882Y007364D03*
X033836Y007379D03*
X033805Y007379D03*
X033790Y007394D03*
X033744Y007410D03*
X033713Y007410D03*
X033560Y007471D03*
X033544Y007579D03*
X033606Y007579D03*
X033667Y007579D03*
X033698Y007579D03*
X033729Y007579D03*
X033790Y007579D03*
X033851Y007579D03*
X033913Y007579D03*
X033974Y007579D03*
X034036Y007579D03*
X034097Y007579D03*
X034158Y007579D03*
X034220Y007579D03*
X034281Y007579D03*
X034343Y007579D03*
X034404Y007579D03*
X034466Y007579D03*
X034527Y007579D03*
X034588Y007579D03*
X034650Y007579D03*
X034711Y007579D03*
X034773Y007579D03*
X034834Y007579D03*
X034895Y007579D03*
X034957Y007579D03*
X035018Y007579D03*
X035080Y007579D03*
X035141Y007579D03*
X035203Y007579D03*
X035264Y007579D03*
X035325Y007579D03*
X035387Y007579D03*
X035448Y007579D03*
X035510Y007579D03*
X035571Y007579D03*
X035586Y007594D03*
X035648Y007717D03*
X035648Y007748D03*
X035617Y007778D03*
X035602Y007794D03*
X035571Y007794D03*
X035402Y007840D03*
X035402Y007870D03*
X035402Y007963D03*
X035402Y007993D03*
X035402Y008085D03*
X035034Y008055D03*
X035034Y008024D03*
X035034Y007932D03*
X035034Y007901D03*
X035034Y007809D03*
X035233Y007425D03*
X035218Y007410D03*
X035187Y007348D03*
X035218Y007287D03*
X035279Y007226D03*
X035310Y007226D03*
X035341Y007226D03*
X035371Y007226D03*
X035418Y007210D03*
X035586Y007164D03*
X035617Y007133D03*
X035648Y007072D03*
X035679Y007011D03*
X035679Y006980D03*
X035679Y006888D03*
X035679Y006857D03*
X035679Y006765D03*
X035679Y006734D03*
X035863Y006703D03*
X035863Y006673D03*
X035863Y006796D03*
X035863Y006826D03*
X035863Y006918D03*
X035863Y006949D03*
X035863Y007041D03*
X035863Y007072D03*
X035771Y007256D03*
X035740Y007287D03*
X035648Y007348D03*
X035586Y007379D03*
X035525Y007410D03*
X035494Y007410D03*
X035479Y007425D03*
X035448Y007425D03*
X035586Y006550D03*
X035556Y006519D03*
X035464Y006458D03*
X035418Y006442D03*
X035402Y006427D03*
X035402Y006212D03*
X035371Y006212D03*
X035249Y006028D03*
X035218Y006028D03*
X035126Y006028D03*
X035095Y006028D03*
X035141Y005920D03*
X035172Y005920D03*
X035264Y005890D03*
X035325Y005859D03*
X035325Y005644D03*
X035172Y005583D03*
X035141Y005583D03*
X035095Y005475D03*
X035249Y005475D03*
X034727Y005475D03*
X034696Y005475D03*
X034665Y005475D03*
X034634Y005475D03*
X034481Y005475D03*
X034450Y005475D03*
X034419Y005475D03*
X034389Y005475D03*
X034358Y005475D03*
X034327Y005475D03*
X034297Y005475D03*
X034266Y005475D03*
X034235Y005475D03*
X033897Y005475D03*
X033867Y005475D03*
X033836Y005475D03*
X033805Y005475D03*
X033775Y005475D03*
X033744Y005475D03*
X033406Y005475D03*
X033360Y005583D03*
X033329Y005583D03*
X033176Y005521D03*
X032853Y005690D03*
X032807Y005798D03*
X032761Y005475D03*
X032731Y005475D03*
X032700Y005475D03*
X032669Y005475D03*
X032086Y005475D03*
X032055Y005475D03*
X032024Y005475D03*
X031994Y005475D03*
X031963Y005475D03*
X031932Y005475D03*
X031901Y005475D03*
X031871Y005475D03*
X031840Y005475D03*
X031809Y005475D03*
X031779Y005475D03*
X031594Y005475D03*
X031564Y005475D03*
X031533Y005475D03*
X031502Y005475D03*
X031256Y005475D03*
X031226Y005475D03*
X031195Y005475D03*
X031164Y005475D03*
X030857Y005475D03*
X030827Y005475D03*
X030796Y005475D03*
X030765Y005475D03*
X031303Y005828D03*
X031333Y005828D03*
X031364Y005828D03*
X031395Y005828D03*
X031425Y005828D03*
X031456Y005828D03*
X031886Y005828D03*
X031917Y005828D03*
X031947Y005828D03*
X031978Y005828D03*
X032009Y005828D03*
X032040Y005828D03*
X032070Y005828D03*
X032055Y005721D03*
X032086Y005721D03*
X032024Y005721D03*
X031994Y005721D03*
X031963Y005721D03*
X031932Y005721D03*
X031901Y005721D03*
X033222Y006366D03*
X033268Y006320D03*
X033314Y006304D03*
X033191Y006427D03*
X033468Y006458D03*
X033529Y006427D03*
X033560Y006427D03*
X033560Y006212D03*
X033944Y006013D03*
X035617Y006304D03*
X035740Y006427D03*
X036124Y006013D03*
X036155Y005705D03*
X036170Y005475D03*
X036201Y005475D03*
X036231Y005475D03*
X036262Y005475D03*
X036293Y005475D03*
X036385Y005475D03*
X036416Y005475D03*
X036446Y005475D03*
X036477Y005475D03*
X036569Y005598D03*
X036600Y005598D03*
X036631Y005598D03*
X036661Y005598D03*
X036692Y005598D03*
X036723Y005598D03*
X036753Y005598D03*
X036845Y005475D03*
X036876Y005475D03*
X036907Y005475D03*
X036938Y005475D03*
X037060Y005475D03*
X037091Y005475D03*
X037122Y005475D03*
X037153Y005475D03*
X037183Y005475D03*
X037214Y005475D03*
X037245Y005475D03*
X037368Y005506D03*
X037644Y005475D03*
X037675Y005475D03*
X037705Y005475D03*
X038074Y005475D03*
X038120Y005583D03*
X038181Y005583D03*
X038227Y005475D03*
X038181Y005920D03*
X038151Y005920D03*
X038074Y005905D03*
X038074Y006028D03*
X038105Y006028D03*
X038135Y006028D03*
X038166Y006028D03*
X038197Y006028D03*
X038227Y006028D03*
X037321Y006013D03*
X037275Y005905D03*
X036661Y006059D03*
X035986Y005475D03*
X035955Y005475D03*
X035924Y005475D03*
X035894Y005475D03*
D15*
X035940Y005506D03*
X035940Y005537D03*
X035940Y005567D03*
X035940Y005598D03*
X035940Y005629D03*
X035940Y005659D03*
X035940Y005813D03*
X035940Y005844D03*
X035940Y005874D03*
X035940Y005905D03*
X036661Y005982D03*
X037675Y005982D03*
X037675Y006013D03*
X037675Y005951D03*
X037675Y005920D03*
X037675Y005890D03*
X037675Y005859D03*
X037675Y005828D03*
X037675Y005798D03*
X037675Y005767D03*
X037675Y005736D03*
X037675Y005705D03*
X037675Y005675D03*
X037675Y005644D03*
X037675Y005613D03*
X037675Y005583D03*
X037675Y005552D03*
X037675Y005521D03*
X037675Y005490D03*
X037905Y005721D03*
X037905Y005751D03*
X037905Y005782D03*
X038151Y005475D03*
X038396Y005690D03*
X035172Y005475D03*
X034926Y005690D03*
X034926Y005813D03*
X034036Y005659D03*
X034036Y005629D03*
X033514Y005659D03*
X033514Y005690D03*
X033514Y005721D03*
X033514Y005751D03*
X033514Y005782D03*
X033514Y005813D03*
X033514Y005844D03*
X033514Y005874D03*
X033514Y005905D03*
X033514Y005936D03*
X033514Y005966D03*
X033514Y005997D03*
X033176Y005997D03*
X033176Y005966D03*
X033176Y005936D03*
X033176Y005905D03*
X033176Y005874D03*
X033176Y005844D03*
X033176Y005813D03*
X033176Y005782D03*
X033176Y005751D03*
X033176Y005721D03*
X033176Y005690D03*
X033329Y005475D03*
X032715Y005506D03*
X032715Y005537D03*
X032715Y005567D03*
X032715Y005598D03*
X032715Y005629D03*
X032715Y005659D03*
X032715Y005813D03*
X032715Y005844D03*
X032715Y005874D03*
X032715Y005905D03*
X031210Y005905D03*
X031210Y005874D03*
X031210Y005844D03*
X031210Y005936D03*
X031210Y005966D03*
X031210Y005997D03*
X031210Y005690D03*
X031210Y005659D03*
X031210Y005629D03*
X031210Y005598D03*
X031210Y005567D03*
X031210Y005537D03*
X031210Y005506D03*
X033713Y008868D03*
D16*
X034274Y006013D03*
X034274Y005997D03*
X034274Y005982D03*
X034274Y005966D03*
X034274Y005951D03*
X034274Y005936D03*
X034274Y005920D03*
X034274Y005905D03*
X034274Y005890D03*
X034274Y005874D03*
X034274Y005859D03*
X034274Y005844D03*
X034274Y005828D03*
X034274Y005813D03*
X034274Y005798D03*
X034274Y005782D03*
X034274Y005767D03*
X034274Y005751D03*
X034274Y005736D03*
X034274Y005721D03*
X034274Y005705D03*
X034274Y005690D03*
X034274Y005675D03*
X034274Y005659D03*
X034274Y005644D03*
X034274Y005629D03*
X034274Y005613D03*
X034274Y005598D03*
X034028Y005675D03*
X033982Y005844D03*
X033982Y005859D03*
X033982Y005874D03*
X033782Y005874D03*
X033782Y005859D03*
X033782Y005844D03*
X033782Y005828D03*
X033782Y005813D03*
X033782Y005890D03*
X033782Y005905D03*
X033782Y005690D03*
X033782Y005675D03*
X033782Y005659D03*
X033782Y005644D03*
X033782Y005629D03*
X033782Y005613D03*
X033782Y005598D03*
X033506Y005629D03*
X033199Y005613D03*
X033183Y005659D03*
X032938Y005813D03*
X032938Y005828D03*
X032938Y005844D03*
X032938Y005859D03*
X032938Y005874D03*
X031802Y005874D03*
X031802Y005859D03*
X031802Y005844D03*
X031802Y005828D03*
X031802Y005890D03*
X031802Y005905D03*
X031802Y005705D03*
X031802Y005690D03*
X031802Y005675D03*
X031802Y005659D03*
X031802Y005644D03*
X031802Y005629D03*
X031802Y005613D03*
X031802Y005598D03*
X031541Y005598D03*
X031541Y005613D03*
X031541Y005629D03*
X031541Y005644D03*
X031541Y005659D03*
X031541Y005675D03*
X031541Y005690D03*
X031541Y005705D03*
X031541Y005583D03*
X031541Y005567D03*
X031541Y005552D03*
X031541Y005537D03*
X031541Y005521D03*
X031541Y005506D03*
X031541Y005490D03*
X031541Y005828D03*
X031541Y005844D03*
X031541Y005859D03*
X031541Y005874D03*
X031541Y005890D03*
X031541Y005905D03*
X031541Y005920D03*
X031541Y005936D03*
X031541Y005951D03*
X031541Y005966D03*
X031541Y005982D03*
X031541Y005997D03*
X031541Y006013D03*
X030819Y005905D03*
X030819Y005890D03*
X030819Y005874D03*
X030819Y005859D03*
X030819Y005844D03*
X030819Y005828D03*
X030819Y005813D03*
X030819Y005798D03*
X030819Y005782D03*
X030819Y005767D03*
X030819Y005751D03*
X030819Y005736D03*
X030819Y005721D03*
X030819Y005705D03*
X030819Y005690D03*
X030819Y005675D03*
X030819Y005659D03*
X030819Y005644D03*
X030819Y005629D03*
X030819Y005613D03*
X030819Y005598D03*
X030819Y005583D03*
X030819Y005567D03*
X030819Y005552D03*
X030819Y005537D03*
X030819Y005521D03*
X030819Y005506D03*
X030819Y005490D03*
X034688Y005490D03*
X034688Y005506D03*
X034688Y005521D03*
X034688Y005537D03*
X034688Y005552D03*
X034688Y005567D03*
X034688Y005583D03*
X034688Y005598D03*
X034688Y005613D03*
X034688Y005629D03*
X034688Y005644D03*
X034688Y005659D03*
X034688Y005675D03*
X034688Y005690D03*
X034688Y005705D03*
X034688Y005721D03*
X034688Y005736D03*
X034688Y005751D03*
X034688Y005767D03*
X034688Y005782D03*
X034688Y005798D03*
X034688Y005813D03*
X034688Y005828D03*
X034688Y005844D03*
X034688Y005859D03*
X034688Y005874D03*
X034688Y005890D03*
X034688Y005905D03*
X034688Y005920D03*
X034688Y005936D03*
X034688Y005951D03*
X034688Y005966D03*
X034688Y005982D03*
X034688Y005997D03*
X034688Y006013D03*
X034919Y005782D03*
X034919Y005767D03*
X034919Y005751D03*
X034919Y005736D03*
X034919Y005721D03*
X036178Y005828D03*
X036178Y005844D03*
X036178Y005859D03*
X036178Y005874D03*
X036546Y005721D03*
X036577Y005782D03*
X036761Y005767D03*
X036761Y005751D03*
X036853Y005567D03*
X036869Y005537D03*
X037114Y005598D03*
X037114Y005613D03*
X037114Y005629D03*
X037114Y005644D03*
X037114Y005659D03*
X037114Y005675D03*
X037114Y005690D03*
X037114Y005705D03*
X037114Y005721D03*
X037114Y005736D03*
X037114Y005751D03*
X037114Y005767D03*
X037114Y005782D03*
X037114Y005798D03*
X037114Y005813D03*
X037114Y005828D03*
X037114Y005844D03*
X037114Y005859D03*
X037114Y005874D03*
X037114Y005890D03*
X037114Y005905D03*
X037467Y005798D03*
X037467Y005767D03*
X037467Y005751D03*
X037467Y005736D03*
X037467Y005721D03*
X037467Y005705D03*
X037913Y005690D03*
X037913Y005675D03*
X037913Y005813D03*
X037913Y005828D03*
X038389Y005813D03*
X038404Y005782D03*
X038404Y005751D03*
X038404Y005736D03*
X038404Y005721D03*
X036669Y005951D03*
X036669Y005966D03*
X036485Y005598D03*
X036454Y005537D03*
X036439Y005506D03*
D17*
X036446Y005521D03*
X036431Y005490D03*
X036462Y005552D03*
X036477Y005567D03*
X036477Y005583D03*
X036554Y005736D03*
X036569Y005751D03*
X036569Y005767D03*
X036584Y005798D03*
X036738Y005798D03*
X036753Y005782D03*
X036769Y005736D03*
X036784Y005721D03*
X036845Y005598D03*
X036845Y005583D03*
X036861Y005552D03*
X036876Y005506D03*
X036892Y005490D03*
X036661Y005936D03*
X036170Y005890D03*
X036170Y005813D03*
X036108Y005629D03*
X036124Y005613D03*
X036201Y005506D03*
X035940Y005521D03*
X035940Y005490D03*
X035940Y005552D03*
X035940Y005583D03*
X035940Y005613D03*
X035940Y005644D03*
X035940Y005798D03*
X035940Y005828D03*
X035940Y005859D03*
X035940Y005890D03*
X035264Y005920D03*
X034942Y005844D03*
X034926Y005828D03*
X034926Y005798D03*
X034926Y005705D03*
X034926Y005675D03*
X034942Y005659D03*
X035264Y005583D03*
X034036Y005613D03*
X034020Y005598D03*
X034036Y005644D03*
X034020Y005690D03*
X033959Y005813D03*
X033974Y005828D03*
X033974Y005890D03*
X033959Y005905D03*
X033514Y005890D03*
X033514Y005920D03*
X033514Y005951D03*
X033514Y005982D03*
X033514Y006013D03*
X033514Y005859D03*
X033514Y005828D03*
X033514Y005798D03*
X033514Y005767D03*
X033514Y005736D03*
X033514Y005705D03*
X033514Y005675D03*
X033514Y005644D03*
X033498Y005613D03*
X033191Y005629D03*
X033176Y005644D03*
X033176Y005675D03*
X033176Y005705D03*
X033176Y005736D03*
X033176Y005767D03*
X033176Y005798D03*
X033176Y005828D03*
X033176Y005859D03*
X033176Y005890D03*
X033176Y005920D03*
X033176Y005951D03*
X033176Y005982D03*
X033176Y006013D03*
X032930Y005890D03*
X032915Y005905D03*
X032715Y005890D03*
X032715Y005859D03*
X032715Y005828D03*
X032715Y005798D03*
X032715Y005675D03*
X032715Y005644D03*
X032715Y005613D03*
X032715Y005583D03*
X032715Y005552D03*
X032715Y005521D03*
X032715Y005490D03*
X031809Y005721D03*
X031210Y005705D03*
X031210Y005675D03*
X031210Y005644D03*
X031210Y005613D03*
X031210Y005583D03*
X031210Y005552D03*
X031210Y005521D03*
X031210Y005490D03*
X031210Y005828D03*
X031210Y005859D03*
X031210Y005890D03*
X031210Y005920D03*
X031210Y005951D03*
X031210Y005982D03*
X031210Y006013D03*
X037429Y005874D03*
X037444Y005844D03*
X037444Y005828D03*
X037460Y005813D03*
X037460Y005782D03*
X037460Y005690D03*
X037444Y005675D03*
X037444Y005659D03*
X037429Y005629D03*
X037675Y005629D03*
X037675Y005659D03*
X037675Y005690D03*
X037675Y005721D03*
X037675Y005751D03*
X037675Y005782D03*
X037675Y005813D03*
X037675Y005844D03*
X037675Y005874D03*
X037675Y005905D03*
X037675Y005936D03*
X037675Y005966D03*
X037675Y005997D03*
X037920Y005844D03*
X037936Y005859D03*
X037905Y005798D03*
X037905Y005767D03*
X037905Y005736D03*
X037905Y005705D03*
X037920Y005659D03*
X037936Y005644D03*
X037675Y005598D03*
X037675Y005567D03*
X037675Y005537D03*
X037675Y005506D03*
X038381Y005659D03*
X038396Y005675D03*
X038396Y005705D03*
X038396Y005767D03*
X038396Y005798D03*
X038396Y005828D03*
X038381Y005844D03*
D18*
X037229Y005966D03*
X037229Y005537D03*
X036047Y005767D03*
X036047Y005920D03*
X036047Y005951D03*
X035617Y006442D03*
X035156Y005982D03*
X035156Y005521D03*
X033897Y005552D03*
X033897Y005567D03*
X033897Y005583D03*
X033897Y005705D03*
X032823Y005920D03*
X031917Y005920D03*
X031917Y005936D03*
X031917Y005951D03*
X031917Y005966D03*
X031917Y005982D03*
X031917Y005997D03*
X031917Y006013D03*
X031917Y005813D03*
X031917Y005798D03*
X031917Y005782D03*
X031917Y005767D03*
X031917Y005751D03*
X031917Y005736D03*
X031917Y005583D03*
X031917Y005567D03*
X031917Y005552D03*
X031917Y005537D03*
X031917Y005521D03*
X031917Y005506D03*
X031917Y005490D03*
X033314Y007210D03*
X035218Y007824D03*
X035218Y007947D03*
X035218Y008070D03*
X035218Y008101D03*
X035218Y008131D03*
D19*
X035771Y007057D03*
X035771Y007026D03*
X035771Y006995D03*
X035771Y006934D03*
X035771Y006903D03*
X035771Y006872D03*
X035771Y006811D03*
X035771Y006780D03*
X035771Y006750D03*
X035771Y006719D03*
X035771Y006688D03*
X035740Y006596D03*
X035986Y006013D03*
X036661Y005859D03*
X038012Y005920D03*
X033713Y007794D03*
X033713Y007824D03*
X033713Y007855D03*
X033713Y007886D03*
X033713Y007916D03*
X033713Y007947D03*
X033713Y007978D03*
X033713Y008009D03*
X033713Y008039D03*
X033713Y008070D03*
X033713Y008101D03*
X033713Y008131D03*
X033713Y008162D03*
X033713Y008193D03*
X033713Y008224D03*
X033713Y008254D03*
X033713Y008285D03*
X033713Y008316D03*
X033713Y008346D03*
X033713Y008377D03*
X033713Y008408D03*
X033713Y008439D03*
X033713Y008469D03*
X033713Y008500D03*
X033713Y008531D03*
X033713Y008561D03*
X033713Y008592D03*
X033713Y008623D03*
X033713Y008653D03*
X033713Y008684D03*
X033713Y008715D03*
X033713Y008746D03*
X033713Y008776D03*
X033191Y007087D03*
X033176Y007057D03*
X033160Y006995D03*
X033160Y006964D03*
X033160Y006934D03*
X033160Y006903D03*
X033160Y006872D03*
X033160Y006842D03*
X033160Y006811D03*
X033160Y006780D03*
X033160Y006750D03*
X033160Y006719D03*
X033160Y006688D03*
X033191Y006627D03*
X033191Y006596D03*
X032761Y006013D03*
X033345Y005490D03*
D20*
X033345Y005506D03*
X033851Y005490D03*
X033851Y005982D03*
X033237Y006535D03*
X033206Y006565D03*
X033206Y007118D03*
X033237Y007149D03*
X032792Y005997D03*
X032792Y005721D03*
X032777Y005705D03*
X035172Y005490D03*
X035172Y006013D03*
X035694Y006535D03*
X035725Y006565D03*
X036016Y005997D03*
X036001Y005705D03*
X036661Y005813D03*
X038151Y006013D03*
X038151Y005490D03*
D21*
X038151Y005997D03*
X037199Y005997D03*
X037199Y005506D03*
X036016Y005675D03*
X035648Y006473D03*
X035679Y006504D03*
X035679Y007179D03*
X035218Y008162D03*
X033253Y006504D03*
X033283Y006473D03*
X032792Y005982D03*
X032807Y005966D03*
X033867Y005951D03*
X033867Y005506D03*
X034358Y005506D03*
X034358Y005521D03*
X034358Y005537D03*
X034358Y005552D03*
X034358Y005567D03*
X034358Y005583D03*
X034358Y005490D03*
X035172Y005997D03*
D22*
X034965Y005874D03*
X034949Y005859D03*
X034949Y005644D03*
X034949Y005629D03*
X036085Y005659D03*
X036101Y005644D03*
X036131Y005598D03*
X036147Y005583D03*
X036162Y005567D03*
X036178Y005537D03*
X036224Y005490D03*
X036869Y005521D03*
X037943Y005629D03*
X037943Y005874D03*
X038358Y005874D03*
X038373Y005859D03*
X038373Y005644D03*
X038358Y005629D03*
X033491Y005598D03*
X033199Y005598D03*
D23*
X033859Y005966D03*
X035717Y007149D03*
X036024Y005721D03*
X037191Y005490D03*
D24*
X036047Y005751D03*
X036032Y005736D03*
X036047Y005936D03*
X035156Y005506D03*
X033882Y005521D03*
X033882Y005751D03*
X033882Y005767D03*
X033882Y005920D03*
X032823Y005936D03*
X032807Y005951D03*
X032823Y005782D03*
X033268Y007179D03*
D25*
X033874Y005936D03*
X033874Y005798D03*
X033874Y005782D03*
X033352Y005521D03*
X032815Y005751D03*
X032800Y005736D03*
X036024Y005982D03*
X036039Y005966D03*
X038158Y005506D03*
D26*
X038335Y005598D03*
X038350Y005613D03*
X038350Y005890D03*
X038335Y005905D03*
X037966Y005905D03*
X037951Y005890D03*
X037951Y005613D03*
X037966Y005598D03*
X037429Y005644D03*
X037398Y005613D03*
X037429Y005859D03*
X037398Y005890D03*
X037383Y005905D03*
X036661Y005920D03*
X036155Y005905D03*
X036139Y005798D03*
X036170Y005552D03*
X036201Y005521D03*
X034988Y005598D03*
X034972Y005613D03*
X034972Y005890D03*
X034988Y005905D03*
X033468Y005583D03*
X033222Y005583D03*
X032915Y005798D03*
X032746Y005690D03*
X035341Y007425D03*
X033713Y008838D03*
D27*
X033444Y007456D03*
X033890Y005736D03*
X033890Y005721D03*
X033890Y005537D03*
X033352Y005537D03*
X032815Y005767D03*
X036055Y005782D03*
X037222Y005982D03*
X037222Y005521D03*
D28*
X037245Y005936D03*
X036661Y005705D03*
X036661Y005690D03*
X038151Y005521D03*
X038151Y005982D03*
X035632Y007210D03*
X035387Y007394D03*
X035218Y007855D03*
X035218Y007886D03*
X035218Y007916D03*
X035218Y007978D03*
X035218Y008009D03*
X035218Y008039D03*
X033329Y006442D03*
X033345Y005567D03*
X035141Y005552D03*
X035141Y005951D03*
X030827Y005936D03*
X030811Y005951D03*
X030827Y005966D03*
X030811Y005982D03*
X030827Y005997D03*
X030811Y006013D03*
X030811Y005920D03*
D29*
X033352Y005552D03*
X035149Y005537D03*
X035149Y005966D03*
D30*
X036661Y005675D03*
X037260Y005920D03*
X038151Y005966D03*
X038151Y005537D03*
X035218Y007794D03*
X033498Y007425D03*
D31*
X035133Y005936D03*
X035133Y005567D03*
X037252Y005567D03*
X037252Y005552D03*
X037252Y005951D03*
D32*
X036661Y005644D03*
X036661Y005629D03*
X038151Y005552D03*
X038151Y005951D03*
X035418Y007364D03*
X031379Y005813D03*
X031379Y005782D03*
X031379Y005751D03*
X031379Y005721D03*
D33*
X033529Y007394D03*
X036661Y005613D03*
X038151Y005567D03*
X038151Y005936D03*
D34*
X038304Y005920D03*
X038304Y005583D03*
X037997Y005583D03*
X036661Y005874D03*
X035018Y005920D03*
X035018Y005583D03*
X033821Y006013D03*
X033391Y007517D03*
X033391Y007548D03*
D35*
X036669Y005659D03*
X037268Y005583D03*
D36*
X036661Y005997D03*
X035295Y005598D03*
D37*
X036669Y005890D03*
X036669Y005905D03*
X037391Y005598D03*
D38*
X036661Y006043D03*
X035786Y006489D03*
X035786Y006519D03*
X035755Y006550D03*
X035755Y006581D03*
X035725Y006611D03*
X035725Y006642D03*
X035755Y006673D03*
X035755Y006703D03*
X035725Y006734D03*
X035725Y006765D03*
X035755Y006796D03*
X035755Y006826D03*
X035725Y006857D03*
X035725Y006888D03*
X035755Y006918D03*
X035755Y006949D03*
X035725Y006980D03*
X035725Y007011D03*
X035755Y007041D03*
X035755Y007072D03*
X035725Y007103D03*
X035725Y007133D03*
X035755Y007164D03*
X035755Y007195D03*
X035725Y007226D03*
X035725Y007256D03*
X035694Y007287D03*
X035694Y007318D03*
X035632Y007318D03*
X035632Y007287D03*
X035602Y007256D03*
X035602Y007226D03*
X035632Y007195D03*
X035632Y007164D03*
X035663Y007133D03*
X035663Y007103D03*
X035694Y007072D03*
X035694Y007041D03*
X035694Y006949D03*
X035694Y006918D03*
X035694Y006826D03*
X035694Y006796D03*
X035694Y006703D03*
X035694Y006673D03*
X035663Y006642D03*
X035663Y006611D03*
X035632Y006581D03*
X035632Y006550D03*
X035602Y006519D03*
X035602Y006489D03*
X035632Y006458D03*
X035632Y006427D03*
X035602Y006396D03*
X035602Y006366D03*
X035632Y006335D03*
X035663Y006366D03*
X035663Y006396D03*
X035694Y006427D03*
X035694Y006458D03*
X035725Y006489D03*
X035725Y006519D03*
X035694Y006550D03*
X035694Y006581D03*
X035663Y006519D03*
X035663Y006489D03*
X035571Y006458D03*
X035571Y006427D03*
X035540Y006396D03*
X035540Y006366D03*
X035510Y006335D03*
X035510Y006304D03*
X035540Y006274D03*
X035571Y006304D03*
X035571Y006335D03*
X035479Y006366D03*
X035479Y006396D03*
X035510Y006427D03*
X035510Y006458D03*
X035540Y006489D03*
X035448Y006427D03*
X035418Y006396D03*
X035418Y006366D03*
X035448Y006335D03*
X035448Y006304D03*
X035418Y006274D03*
X035418Y006243D03*
X035479Y006243D03*
X035479Y006274D03*
X035387Y006304D03*
X035387Y006335D03*
X035356Y006366D03*
X035356Y006396D03*
X035295Y006396D03*
X035295Y006366D03*
X035325Y006335D03*
X035325Y006304D03*
X035295Y006274D03*
X035295Y006243D03*
X035325Y006212D03*
X035356Y006243D03*
X035356Y006274D03*
X035264Y006304D03*
X035264Y006335D03*
X035233Y006366D03*
X035233Y006396D03*
X035172Y006396D03*
X035172Y006366D03*
X035203Y006335D03*
X035203Y006304D03*
X035233Y006274D03*
X035233Y006243D03*
X035203Y006212D03*
X035172Y006243D03*
X035172Y006274D03*
X035141Y006304D03*
X035141Y006335D03*
X035110Y006366D03*
X035110Y006396D03*
X035049Y006396D03*
X035049Y006366D03*
X035018Y006335D03*
X035018Y006304D03*
X034988Y006274D03*
X034988Y006243D03*
X035018Y006212D03*
X035049Y006243D03*
X035049Y006274D03*
X035080Y006304D03*
X035080Y006335D03*
X035110Y006274D03*
X035110Y006243D03*
X035080Y006212D03*
X035141Y006212D03*
X035264Y006212D03*
X035172Y006028D03*
X035310Y005890D03*
X035310Y005613D03*
X034957Y006212D03*
X034926Y006243D03*
X034926Y006274D03*
X034895Y006304D03*
X034895Y006335D03*
X034865Y006366D03*
X034865Y006396D03*
X034926Y006396D03*
X034926Y006366D03*
X034957Y006335D03*
X034957Y006304D03*
X034988Y006366D03*
X034988Y006396D03*
X034834Y006335D03*
X034834Y006304D03*
X034803Y006274D03*
X034803Y006243D03*
X034773Y006212D03*
X034742Y006243D03*
X034742Y006274D03*
X034773Y006304D03*
X034773Y006335D03*
X034803Y006366D03*
X034803Y006396D03*
X034742Y006396D03*
X034742Y006366D03*
X034711Y006335D03*
X034711Y006304D03*
X034681Y006274D03*
X034681Y006243D03*
X034711Y006212D03*
X034650Y006212D03*
X034619Y006243D03*
X034619Y006274D03*
X034588Y006304D03*
X034588Y006335D03*
X034558Y006366D03*
X034558Y006396D03*
X034619Y006396D03*
X034619Y006366D03*
X034650Y006335D03*
X034650Y006304D03*
X034681Y006366D03*
X034681Y006396D03*
X034527Y006335D03*
X034527Y006304D03*
X034558Y006274D03*
X034558Y006243D03*
X034588Y006212D03*
X034527Y006212D03*
X034496Y006243D03*
X034496Y006274D03*
X034466Y006304D03*
X034466Y006335D03*
X034496Y006366D03*
X034496Y006396D03*
X034435Y006396D03*
X034435Y006366D03*
X034404Y006335D03*
X034404Y006304D03*
X034373Y006274D03*
X034373Y006243D03*
X034343Y006212D03*
X034312Y006243D03*
X034312Y006274D03*
X034281Y006304D03*
X034281Y006335D03*
X034251Y006366D03*
X034251Y006396D03*
X034312Y006396D03*
X034312Y006366D03*
X034343Y006335D03*
X034343Y006304D03*
X034373Y006366D03*
X034373Y006396D03*
X034435Y006274D03*
X034435Y006243D03*
X034466Y006212D03*
X034404Y006212D03*
X034281Y006212D03*
X034251Y006243D03*
X034251Y006274D03*
X034220Y006304D03*
X034220Y006335D03*
X034189Y006366D03*
X034189Y006396D03*
X034128Y006396D03*
X034128Y006366D03*
X034158Y006335D03*
X034158Y006304D03*
X034128Y006274D03*
X034128Y006243D03*
X034158Y006212D03*
X034189Y006243D03*
X034189Y006274D03*
X034220Y006212D03*
X034097Y006212D03*
X034066Y006243D03*
X034066Y006274D03*
X034036Y006304D03*
X034036Y006335D03*
X034066Y006366D03*
X034066Y006396D03*
X034005Y006396D03*
X034005Y006366D03*
X033974Y006335D03*
X033974Y006304D03*
X033944Y006274D03*
X033944Y006243D03*
X033974Y006212D03*
X034005Y006243D03*
X034005Y006274D03*
X034036Y006212D03*
X034097Y006304D03*
X034097Y006335D03*
X033944Y006366D03*
X033944Y006396D03*
X033882Y006396D03*
X033882Y006366D03*
X033851Y006335D03*
X033851Y006304D03*
X033821Y006274D03*
X033821Y006243D03*
X033851Y006212D03*
X033882Y006243D03*
X033882Y006274D03*
X033913Y006304D03*
X033913Y006335D03*
X033821Y006366D03*
X033821Y006396D03*
X033759Y006396D03*
X033759Y006366D03*
X033729Y006335D03*
X033729Y006304D03*
X033759Y006274D03*
X033759Y006243D03*
X033729Y006212D03*
X033698Y006243D03*
X033698Y006274D03*
X033667Y006304D03*
X033667Y006335D03*
X033636Y006366D03*
X033636Y006396D03*
X033575Y006396D03*
X033575Y006366D03*
X033606Y006335D03*
X033606Y006304D03*
X033636Y006274D03*
X033636Y006243D03*
X033606Y006212D03*
X033575Y006243D03*
X033575Y006274D03*
X033544Y006304D03*
X033544Y006335D03*
X033514Y006366D03*
X033514Y006396D03*
X033483Y006427D03*
X033452Y006396D03*
X033452Y006366D03*
X033421Y006335D03*
X033421Y006304D03*
X033391Y006274D03*
X033360Y006304D03*
X033360Y006335D03*
X033329Y006366D03*
X033329Y006396D03*
X033299Y006427D03*
X033299Y006458D03*
X033329Y006489D03*
X033329Y006519D03*
X033299Y006550D03*
X033299Y006581D03*
X033268Y006611D03*
X033268Y006642D03*
X033237Y006673D03*
X033237Y006703D03*
X033206Y006734D03*
X033206Y006765D03*
X033176Y006796D03*
X033176Y006826D03*
X033206Y006857D03*
X033206Y006888D03*
X033176Y006918D03*
X033176Y006949D03*
X033206Y006980D03*
X033206Y007011D03*
X033176Y007041D03*
X033176Y007072D03*
X033206Y007103D03*
X033206Y007133D03*
X033176Y007164D03*
X033176Y007195D03*
X033206Y007226D03*
X033206Y007256D03*
X033237Y007287D03*
X033268Y007256D03*
X033268Y007226D03*
X033299Y007195D03*
X033299Y007164D03*
X033329Y007133D03*
X033360Y007164D03*
X033360Y007195D03*
X033329Y007226D03*
X033329Y007256D03*
X033299Y007287D03*
X033299Y007318D03*
X033329Y007348D03*
X033329Y007379D03*
X033299Y007410D03*
X033299Y007440D03*
X033329Y007471D03*
X033329Y007502D03*
X033299Y007533D03*
X033299Y007563D03*
X033329Y007594D03*
X033329Y007625D03*
X033299Y007655D03*
X033299Y007686D03*
X033329Y007717D03*
X033329Y007748D03*
X033299Y007778D03*
X033314Y007794D03*
X033360Y007778D03*
X033375Y007794D03*
X033391Y007748D03*
X033391Y007717D03*
X033421Y007686D03*
X033421Y007655D03*
X033391Y007625D03*
X033391Y007594D03*
X033421Y007563D03*
X033421Y007533D03*
X033391Y007502D03*
X033391Y007471D03*
X033421Y007440D03*
X033421Y007410D03*
X033391Y007379D03*
X033391Y007348D03*
X033421Y007318D03*
X033421Y007287D03*
X033391Y007256D03*
X033391Y007226D03*
X033421Y007195D03*
X033452Y007226D03*
X033452Y007256D03*
X033483Y007287D03*
X033483Y007318D03*
X033514Y007348D03*
X033514Y007379D03*
X033544Y007410D03*
X033544Y007440D03*
X033514Y007471D03*
X033483Y007440D03*
X033483Y007410D03*
X033452Y007379D03*
X033452Y007348D03*
X033360Y007318D03*
X033360Y007287D03*
X033360Y007410D03*
X033360Y007440D03*
X033360Y007533D03*
X033360Y007563D03*
X033360Y007655D03*
X033360Y007686D03*
X033452Y007717D03*
X033452Y007748D03*
X033421Y007778D03*
X033437Y007794D03*
X033483Y007778D03*
X033498Y007794D03*
X033544Y007778D03*
X033560Y007794D03*
X033606Y007778D03*
X033636Y007748D03*
X033636Y007717D03*
X033606Y007686D03*
X033606Y007655D03*
X033636Y007625D03*
X033636Y007594D03*
X033575Y007594D03*
X033575Y007625D03*
X033544Y007655D03*
X033544Y007686D03*
X033514Y007717D03*
X033514Y007748D03*
X033575Y007748D03*
X033575Y007717D03*
X033667Y007686D03*
X033667Y007655D03*
X033698Y007625D03*
X033698Y007594D03*
X033759Y007594D03*
X033759Y007625D03*
X033729Y007655D03*
X033729Y007686D03*
X033759Y007717D03*
X033759Y007748D03*
X033729Y007778D03*
X033729Y007809D03*
X033759Y007840D03*
X033759Y007870D03*
X033729Y007901D03*
X033729Y007932D03*
X033759Y007963D03*
X033759Y007993D03*
X033729Y008024D03*
X033729Y008055D03*
X033759Y008085D03*
X033759Y008116D03*
X033729Y008147D03*
X033729Y008177D03*
X033759Y008208D03*
X033759Y008239D03*
X033729Y008270D03*
X033729Y008300D03*
X033759Y008331D03*
X033759Y008362D03*
X033729Y008392D03*
X033729Y008423D03*
X033759Y008454D03*
X033759Y008485D03*
X033729Y008515D03*
X033729Y008546D03*
X033759Y008577D03*
X033759Y008607D03*
X033729Y008638D03*
X033729Y008669D03*
X033759Y008700D03*
X033759Y008730D03*
X033729Y008761D03*
X033729Y008792D03*
X033759Y008822D03*
X033759Y008853D03*
X033698Y008853D03*
X033698Y008822D03*
X033667Y008792D03*
X033667Y008761D03*
X033636Y008730D03*
X033636Y008700D03*
X033667Y008669D03*
X033667Y008638D03*
X033636Y008607D03*
X033636Y008577D03*
X033667Y008546D03*
X033667Y008515D03*
X033636Y008485D03*
X033636Y008454D03*
X033667Y008423D03*
X033667Y008392D03*
X033636Y008362D03*
X033636Y008331D03*
X033667Y008300D03*
X033667Y008270D03*
X033636Y008239D03*
X033636Y008208D03*
X033667Y008177D03*
X033667Y008147D03*
X033636Y008116D03*
X033636Y008085D03*
X033667Y008055D03*
X033667Y008024D03*
X033636Y007993D03*
X033636Y007963D03*
X033667Y007932D03*
X033667Y007901D03*
X033636Y007870D03*
X033636Y007840D03*
X033667Y007809D03*
X033667Y007778D03*
X033698Y007748D03*
X033698Y007717D03*
X033790Y007686D03*
X033790Y007655D03*
X033821Y007625D03*
X033821Y007594D03*
X033882Y007594D03*
X033882Y007625D03*
X033851Y007655D03*
X033851Y007686D03*
X033821Y007717D03*
X033821Y007748D03*
X033851Y007778D03*
X033867Y007794D03*
X033913Y007778D03*
X033928Y007794D03*
X033974Y007778D03*
X033990Y007794D03*
X034036Y007778D03*
X034051Y007794D03*
X034097Y007778D03*
X034112Y007794D03*
X034128Y007748D03*
X034128Y007717D03*
X034158Y007686D03*
X034158Y007655D03*
X034128Y007625D03*
X034128Y007594D03*
X034189Y007594D03*
X034189Y007625D03*
X034220Y007655D03*
X034220Y007686D03*
X034251Y007717D03*
X034251Y007748D03*
X034281Y007778D03*
X034297Y007794D03*
X034343Y007778D03*
X034358Y007794D03*
X034404Y007778D03*
X034419Y007794D03*
X034435Y007748D03*
X034435Y007717D03*
X034466Y007686D03*
X034466Y007655D03*
X034496Y007625D03*
X034496Y007594D03*
X034435Y007594D03*
X034435Y007625D03*
X034404Y007655D03*
X034404Y007686D03*
X034373Y007717D03*
X034373Y007748D03*
X034312Y007748D03*
X034312Y007717D03*
X034281Y007686D03*
X034281Y007655D03*
X034251Y007625D03*
X034251Y007594D03*
X034312Y007594D03*
X034312Y007625D03*
X034343Y007655D03*
X034343Y007686D03*
X034373Y007625D03*
X034373Y007594D03*
X034527Y007655D03*
X034527Y007686D03*
X034558Y007717D03*
X034558Y007748D03*
X034588Y007778D03*
X034604Y007794D03*
X034650Y007778D03*
X034665Y007794D03*
X034711Y007778D03*
X034727Y007794D03*
X034773Y007778D03*
X034788Y007794D03*
X034834Y007778D03*
X034849Y007794D03*
X034865Y007748D03*
X034865Y007717D03*
X034895Y007686D03*
X034895Y007655D03*
X034865Y007625D03*
X034865Y007594D03*
X034926Y007594D03*
X034926Y007625D03*
X034957Y007655D03*
X034957Y007686D03*
X034988Y007717D03*
X034988Y007748D03*
X035018Y007778D03*
X035049Y007748D03*
X035049Y007717D03*
X035018Y007686D03*
X035018Y007655D03*
X034988Y007625D03*
X034988Y007594D03*
X035049Y007594D03*
X035049Y007625D03*
X035080Y007655D03*
X035080Y007686D03*
X035110Y007717D03*
X035110Y007748D03*
X035080Y007778D03*
X035080Y007809D03*
X035110Y007840D03*
X035110Y007870D03*
X035080Y007901D03*
X035080Y007932D03*
X035110Y007963D03*
X035110Y007993D03*
X035080Y008024D03*
X035080Y008055D03*
X035110Y008085D03*
X035110Y008116D03*
X035080Y008147D03*
X035141Y008147D03*
X035172Y008116D03*
X035172Y008085D03*
X035203Y008055D03*
X035203Y008024D03*
X035233Y007993D03*
X035233Y007963D03*
X035203Y007932D03*
X035203Y007901D03*
X035233Y007870D03*
X035233Y007840D03*
X035203Y007809D03*
X035203Y007778D03*
X035233Y007748D03*
X035233Y007717D03*
X035203Y007686D03*
X035203Y007655D03*
X035233Y007625D03*
X035233Y007594D03*
X035172Y007594D03*
X035172Y007625D03*
X035141Y007655D03*
X035141Y007686D03*
X035172Y007717D03*
X035172Y007748D03*
X035141Y007778D03*
X035141Y007809D03*
X035172Y007840D03*
X035172Y007870D03*
X035141Y007901D03*
X035141Y007932D03*
X035172Y007963D03*
X035172Y007993D03*
X035141Y008024D03*
X035141Y008055D03*
X035049Y008085D03*
X035049Y007993D03*
X035049Y007963D03*
X035049Y007870D03*
X035049Y007840D03*
X034972Y007794D03*
X034957Y007778D03*
X034926Y007748D03*
X034926Y007717D03*
X034895Y007778D03*
X034911Y007794D03*
X034803Y007748D03*
X034803Y007717D03*
X034773Y007686D03*
X034773Y007655D03*
X034803Y007625D03*
X034803Y007594D03*
X034742Y007594D03*
X034742Y007625D03*
X034711Y007655D03*
X034711Y007686D03*
X034681Y007717D03*
X034681Y007748D03*
X034742Y007748D03*
X034742Y007717D03*
X034834Y007686D03*
X034834Y007655D03*
X034681Y007625D03*
X034681Y007594D03*
X034619Y007594D03*
X034619Y007625D03*
X034588Y007655D03*
X034588Y007686D03*
X034619Y007717D03*
X034619Y007748D03*
X034650Y007686D03*
X034650Y007655D03*
X034558Y007625D03*
X034558Y007594D03*
X034496Y007717D03*
X034496Y007748D03*
X034466Y007778D03*
X034481Y007794D03*
X034527Y007778D03*
X034542Y007794D03*
X034235Y007794D03*
X034220Y007778D03*
X034189Y007748D03*
X034189Y007717D03*
X034158Y007778D03*
X034174Y007794D03*
X034066Y007748D03*
X034066Y007717D03*
X034036Y007686D03*
X034036Y007655D03*
X034066Y007625D03*
X034066Y007594D03*
X034005Y007594D03*
X034005Y007625D03*
X033974Y007655D03*
X033974Y007686D03*
X033944Y007717D03*
X033944Y007748D03*
X034005Y007748D03*
X034005Y007717D03*
X034097Y007686D03*
X034097Y007655D03*
X033944Y007625D03*
X033944Y007594D03*
X033913Y007655D03*
X033913Y007686D03*
X033882Y007717D03*
X033882Y007748D03*
X033790Y007778D03*
X033790Y007809D03*
X033790Y007901D03*
X033790Y007932D03*
X033790Y008024D03*
X033790Y008055D03*
X033790Y008147D03*
X033790Y008177D03*
X033790Y008270D03*
X033790Y008300D03*
X033790Y008392D03*
X033790Y008423D03*
X033790Y008515D03*
X033790Y008546D03*
X033790Y008638D03*
X033790Y008669D03*
X033790Y008761D03*
X033790Y008792D03*
X033698Y008730D03*
X033698Y008700D03*
X033698Y008607D03*
X033698Y008577D03*
X033698Y008485D03*
X033698Y008454D03*
X033698Y008362D03*
X033698Y008331D03*
X033698Y008239D03*
X033698Y008208D03*
X033698Y008116D03*
X033698Y008085D03*
X033698Y007993D03*
X033698Y007963D03*
X033698Y007870D03*
X033698Y007840D03*
X033483Y007686D03*
X033483Y007655D03*
X033514Y007625D03*
X033514Y007594D03*
X033452Y007594D03*
X033452Y007625D03*
X033452Y007502D03*
X033452Y007471D03*
X033575Y007379D03*
X033575Y007348D03*
X033606Y007318D03*
X033606Y007287D03*
X033636Y007256D03*
X033667Y007287D03*
X033667Y007318D03*
X033636Y007348D03*
X033636Y007379D03*
X033606Y007410D03*
X033606Y007440D03*
X033667Y007410D03*
X033698Y007379D03*
X033698Y007348D03*
X033729Y007318D03*
X033729Y007287D03*
X033759Y007256D03*
X033790Y007287D03*
X033790Y007318D03*
X033821Y007348D03*
X033851Y007318D03*
X033851Y007287D03*
X033821Y007256D03*
X033882Y007256D03*
X033913Y007287D03*
X033913Y007318D03*
X033882Y007348D03*
X033974Y007318D03*
X033974Y007287D03*
X033944Y007256D03*
X034005Y007256D03*
X034036Y007287D03*
X034066Y007256D03*
X034128Y007256D03*
X033759Y007348D03*
X033759Y007379D03*
X033698Y007256D03*
X033575Y007256D03*
X033544Y007287D03*
X033544Y007318D03*
X033514Y007256D03*
X033514Y007226D03*
X033268Y007133D03*
X033268Y007103D03*
X033237Y007072D03*
X033237Y007041D03*
X033237Y006949D03*
X033237Y006918D03*
X033237Y006826D03*
X033237Y006796D03*
X033145Y006765D03*
X033145Y006734D03*
X033114Y006703D03*
X033114Y006673D03*
X033084Y006642D03*
X033145Y006642D03*
X033145Y006611D03*
X033114Y006581D03*
X033114Y006550D03*
X033145Y006519D03*
X033145Y006489D03*
X033176Y006458D03*
X033206Y006489D03*
X033206Y006519D03*
X033176Y006550D03*
X033176Y006581D03*
X033206Y006611D03*
X033206Y006642D03*
X033176Y006673D03*
X033176Y006703D03*
X033084Y006734D03*
X033084Y006765D03*
X033114Y006796D03*
X033114Y006826D03*
X033084Y006857D03*
X033084Y006888D03*
X033114Y006918D03*
X033114Y006949D03*
X033084Y006980D03*
X033084Y007011D03*
X033114Y007041D03*
X033114Y007072D03*
X033145Y007103D03*
X033145Y007133D03*
X033237Y007164D03*
X033237Y007195D03*
X033145Y007011D03*
X033145Y006980D03*
X033145Y006888D03*
X033145Y006857D03*
X033237Y006581D03*
X033237Y006550D03*
X033268Y006519D03*
X033268Y006489D03*
X033237Y006458D03*
X033237Y006427D03*
X033268Y006396D03*
X033268Y006366D03*
X033299Y006335D03*
X033391Y006366D03*
X033391Y006396D03*
X033421Y006427D03*
X033421Y006458D03*
X033391Y006489D03*
X033360Y006458D03*
X033360Y006427D03*
X033483Y006335D03*
X033483Y006304D03*
X033514Y006274D03*
X033514Y006243D03*
X033452Y006243D03*
X033452Y006274D03*
X033667Y006212D03*
X033790Y006212D03*
X033790Y006304D03*
X033790Y006335D03*
X033698Y006366D03*
X033698Y006396D03*
X033913Y006212D03*
X034834Y006212D03*
X034865Y006243D03*
X034865Y006274D03*
X034895Y006212D03*
X035725Y006396D03*
X035755Y006458D03*
X035817Y006550D03*
X035817Y006581D03*
X035786Y006611D03*
X035786Y006642D03*
X035817Y006673D03*
X035817Y006703D03*
X035847Y006734D03*
X035847Y006765D03*
X035817Y006796D03*
X035817Y006826D03*
X035847Y006857D03*
X035847Y006888D03*
X035817Y006918D03*
X035817Y006949D03*
X035847Y006980D03*
X035847Y007011D03*
X035817Y007041D03*
X035817Y007072D03*
X035847Y007103D03*
X035786Y007103D03*
X035786Y007133D03*
X035817Y007164D03*
X035786Y007226D03*
X035694Y007195D03*
X035694Y007164D03*
X035663Y007226D03*
X035663Y007256D03*
X035571Y007287D03*
X035571Y007318D03*
X035540Y007348D03*
X035540Y007379D03*
X035479Y007379D03*
X035479Y007348D03*
X035510Y007318D03*
X035510Y007287D03*
X035540Y007256D03*
X035540Y007226D03*
X035510Y007195D03*
X035479Y007226D03*
X035479Y007256D03*
X035448Y007287D03*
X035448Y007318D03*
X035418Y007348D03*
X035418Y007379D03*
X035448Y007410D03*
X035387Y007410D03*
X035356Y007379D03*
X035356Y007348D03*
X035325Y007318D03*
X035325Y007287D03*
X035295Y007256D03*
X035264Y007287D03*
X035264Y007318D03*
X035295Y007348D03*
X035295Y007379D03*
X035325Y007410D03*
X035264Y007410D03*
X035233Y007379D03*
X035233Y007348D03*
X035203Y007318D03*
X035233Y007256D03*
X035356Y007256D03*
X035387Y007287D03*
X035387Y007318D03*
X035418Y007256D03*
X035418Y007226D03*
X035571Y007195D03*
X035602Y007348D03*
X035540Y007594D03*
X035540Y007625D03*
X035510Y007655D03*
X035510Y007686D03*
X035540Y007717D03*
X035540Y007748D03*
X035510Y007778D03*
X035525Y007794D03*
X035571Y007778D03*
X035602Y007748D03*
X035602Y007717D03*
X035632Y007686D03*
X035632Y007655D03*
X035602Y007625D03*
X035571Y007655D03*
X035571Y007686D03*
X035479Y007717D03*
X035479Y007748D03*
X035448Y007778D03*
X035464Y007794D03*
X035418Y007748D03*
X035418Y007717D03*
X035448Y007686D03*
X035448Y007655D03*
X035418Y007625D03*
X035418Y007594D03*
X035479Y007594D03*
X035479Y007625D03*
X035387Y007655D03*
X035387Y007686D03*
X035356Y007717D03*
X035356Y007748D03*
X035325Y007778D03*
X035325Y007809D03*
X035295Y007840D03*
X035295Y007870D03*
X035325Y007901D03*
X035325Y007932D03*
X035295Y007963D03*
X035295Y007993D03*
X035325Y008024D03*
X035325Y008055D03*
X035295Y008085D03*
X035295Y008116D03*
X035325Y008147D03*
X035356Y008116D03*
X035356Y008085D03*
X035387Y008055D03*
X035387Y008024D03*
X035356Y007993D03*
X035356Y007963D03*
X035387Y007932D03*
X035387Y007901D03*
X035356Y007870D03*
X035356Y007840D03*
X035387Y007809D03*
X035387Y007778D03*
X035295Y007748D03*
X035295Y007717D03*
X035325Y007686D03*
X035325Y007655D03*
X035295Y007625D03*
X035295Y007594D03*
X035356Y007594D03*
X035356Y007625D03*
X035264Y007655D03*
X035264Y007686D03*
X035264Y007778D03*
X035264Y007809D03*
X035264Y007901D03*
X035264Y007932D03*
X035264Y008024D03*
X035264Y008055D03*
X035233Y008085D03*
X035233Y008116D03*
X035203Y008147D03*
X035264Y008147D03*
X035110Y007625D03*
X035110Y007594D03*
X035786Y007011D03*
X035786Y006980D03*
X035786Y006888D03*
X035786Y006857D03*
X035786Y006765D03*
X035786Y006734D03*
X035847Y006642D03*
X033636Y008822D03*
D39*
X033475Y007563D03*
X033475Y007533D03*
X033122Y007164D03*
X033260Y007011D03*
X033091Y006611D03*
X033214Y006396D03*
X035318Y005874D03*
X035318Y005629D03*
X035840Y006611D03*
X035840Y007133D03*
X035809Y007195D03*
X035057Y008116D03*
D40*
X035732Y007118D03*
X035748Y007087D03*
X035748Y006627D03*
X036009Y005690D03*
X036669Y005828D03*
X036669Y005844D03*
X037176Y006013D03*
X033844Y005997D03*
X033398Y007487D03*
D41*
X031372Y005798D03*
X031372Y005767D03*
X031372Y005736D03*
D42*
X035287Y005905D03*
D43*
X036669Y006013D03*
X036669Y006028D03*
D44*
X034466Y006227D03*
D45*
X034466Y006258D03*
D46*
X034466Y006289D03*
D47*
X034481Y006320D03*
X034481Y007671D03*
D48*
X034466Y006350D03*
D49*
X034466Y006381D03*
D50*
X034466Y006412D03*
D51*
X035763Y006657D03*
X035778Y006842D03*
X035778Y006964D03*
X033706Y008807D03*
X033383Y007579D03*
X033168Y007026D03*
X033168Y006657D03*
D52*
X033690Y007241D03*
D53*
X035479Y007272D03*
X035510Y007241D03*
D54*
X033659Y007272D03*
D55*
X033621Y007302D03*
D56*
X035464Y007302D03*
D57*
X033606Y007333D03*
D58*
X035448Y007333D03*
D59*
X033567Y007364D03*
D60*
X034458Y007609D03*
X034473Y007640D03*
D61*
X034473Y007701D03*
X034473Y007732D03*
D62*
X034466Y007763D03*
D63*
X006031Y001765D02*
X003668Y001765D01*
X003668Y005309D01*
X006031Y005309D01*
X006031Y001765D01*
X006296Y001795D02*
X008658Y001795D01*
X008658Y005338D01*
X006296Y005338D01*
X006296Y001795D01*
X006788Y003566D02*
X006790Y003618D01*
X006796Y003670D01*
X006806Y003721D01*
X006819Y003771D01*
X006837Y003821D01*
X006858Y003868D01*
X006882Y003914D01*
X006911Y003958D01*
X006942Y004000D01*
X006976Y004039D01*
X007013Y004076D01*
X007053Y004109D01*
X007096Y004140D01*
X007140Y004167D01*
X007186Y004191D01*
X007235Y004211D01*
X007284Y004227D01*
X007335Y004240D01*
X007386Y004249D01*
X007438Y004254D01*
X007490Y004255D01*
X007542Y004252D01*
X007594Y004245D01*
X007645Y004234D01*
X007695Y004220D01*
X007744Y004201D01*
X007791Y004179D01*
X007836Y004154D01*
X007880Y004125D01*
X007921Y004093D01*
X007960Y004058D01*
X007995Y004020D01*
X008028Y003979D01*
X008058Y003937D01*
X008084Y003892D01*
X008107Y003845D01*
X008126Y003796D01*
X008142Y003746D01*
X008154Y003696D01*
X008162Y003644D01*
X008166Y003592D01*
X008166Y003540D01*
X008162Y003488D01*
X008154Y003436D01*
X008142Y003386D01*
X008126Y003336D01*
X008107Y003287D01*
X008084Y003240D01*
X008058Y003195D01*
X008028Y003153D01*
X007995Y003112D01*
X007960Y003074D01*
X007921Y003039D01*
X007880Y003007D01*
X007836Y002978D01*
X007791Y002953D01*
X007744Y002931D01*
X007695Y002912D01*
X007645Y002898D01*
X007594Y002887D01*
X007542Y002880D01*
X007490Y002877D01*
X007438Y002878D01*
X007386Y002883D01*
X007335Y002892D01*
X007284Y002905D01*
X007235Y002921D01*
X007186Y002941D01*
X007140Y002965D01*
X007096Y002992D01*
X007053Y003023D01*
X007013Y003056D01*
X006976Y003093D01*
X006942Y003132D01*
X006911Y003174D01*
X006882Y003218D01*
X006858Y003264D01*
X006837Y003311D01*
X006819Y003361D01*
X006806Y003411D01*
X006796Y003462D01*
X006790Y003514D01*
X006788Y003566D01*
X004160Y003537D02*
X004162Y003589D01*
X004168Y003641D01*
X004178Y003692D01*
X004191Y003742D01*
X004209Y003792D01*
X004230Y003839D01*
X004254Y003885D01*
X004283Y003929D01*
X004314Y003971D01*
X004348Y004010D01*
X004385Y004047D01*
X004425Y004080D01*
X004468Y004111D01*
X004512Y004138D01*
X004558Y004162D01*
X004607Y004182D01*
X004656Y004198D01*
X004707Y004211D01*
X004758Y004220D01*
X004810Y004225D01*
X004862Y004226D01*
X004914Y004223D01*
X004966Y004216D01*
X005017Y004205D01*
X005067Y004191D01*
X005116Y004172D01*
X005163Y004150D01*
X005208Y004125D01*
X005252Y004096D01*
X005293Y004064D01*
X005332Y004029D01*
X005367Y003991D01*
X005400Y003950D01*
X005430Y003908D01*
X005456Y003863D01*
X005479Y003816D01*
X005498Y003767D01*
X005514Y003717D01*
X005526Y003667D01*
X005534Y003615D01*
X005538Y003563D01*
X005538Y003511D01*
X005534Y003459D01*
X005526Y003407D01*
X005514Y003357D01*
X005498Y003307D01*
X005479Y003258D01*
X005456Y003211D01*
X005430Y003166D01*
X005400Y003124D01*
X005367Y003083D01*
X005332Y003045D01*
X005293Y003010D01*
X005252Y002978D01*
X005208Y002949D01*
X005163Y002924D01*
X005116Y002902D01*
X005067Y002883D01*
X005017Y002869D01*
X004966Y002858D01*
X004914Y002851D01*
X004862Y002848D01*
X004810Y002849D01*
X004758Y002854D01*
X004707Y002863D01*
X004656Y002876D01*
X004607Y002892D01*
X004558Y002912D01*
X004512Y002936D01*
X004468Y002963D01*
X004425Y002994D01*
X004385Y003027D01*
X004348Y003064D01*
X004314Y003103D01*
X004283Y003145D01*
X004254Y003189D01*
X004230Y003235D01*
X004209Y003282D01*
X004191Y003332D01*
X004178Y003382D01*
X004168Y003433D01*
X004162Y003485D01*
X004160Y003537D01*
X015826Y007791D02*
X015826Y008791D01*
X017326Y008791D01*
X017326Y007791D01*
X015826Y007791D01*
X019369Y007397D02*
X019369Y008397D01*
X020869Y008397D01*
X020869Y007397D01*
X019369Y007397D01*
X029212Y016059D02*
X029212Y017059D01*
X030712Y017059D01*
X030712Y016059D01*
X029212Y016059D01*
X031968Y017240D02*
X031968Y018240D01*
X033468Y018240D01*
X033468Y017240D01*
X031968Y017240D01*
X031968Y019208D02*
X031968Y020208D01*
X033468Y020208D01*
X033468Y019208D01*
X031968Y019208D01*
X031968Y021177D02*
X031968Y022177D01*
X033468Y022177D01*
X033468Y021177D01*
X031968Y021177D01*
X034330Y023342D02*
X034330Y024342D01*
X035830Y024342D01*
X035830Y023342D01*
X034330Y023342D01*
X028743Y020996D02*
X028743Y019996D01*
X027243Y019996D01*
X027243Y020996D01*
X028743Y020996D01*
X034330Y016074D02*
X034330Y015074D01*
X035830Y015074D01*
X035830Y016074D01*
X034330Y016074D01*
X039485Y005338D02*
X041847Y005338D01*
X041847Y001795D01*
X039485Y001795D01*
X039485Y005338D01*
X039977Y003566D02*
X039979Y003618D01*
X039985Y003670D01*
X039995Y003721D01*
X040008Y003771D01*
X040026Y003821D01*
X040047Y003868D01*
X040071Y003914D01*
X040100Y003958D01*
X040131Y004000D01*
X040165Y004039D01*
X040202Y004076D01*
X040242Y004109D01*
X040285Y004140D01*
X040329Y004167D01*
X040375Y004191D01*
X040424Y004211D01*
X040473Y004227D01*
X040524Y004240D01*
X040575Y004249D01*
X040627Y004254D01*
X040679Y004255D01*
X040731Y004252D01*
X040783Y004245D01*
X040834Y004234D01*
X040884Y004220D01*
X040933Y004201D01*
X040980Y004179D01*
X041025Y004154D01*
X041069Y004125D01*
X041110Y004093D01*
X041149Y004058D01*
X041184Y004020D01*
X041217Y003979D01*
X041247Y003937D01*
X041273Y003892D01*
X041296Y003845D01*
X041315Y003796D01*
X041331Y003746D01*
X041343Y003696D01*
X041351Y003644D01*
X041355Y003592D01*
X041355Y003540D01*
X041351Y003488D01*
X041343Y003436D01*
X041331Y003386D01*
X041315Y003336D01*
X041296Y003287D01*
X041273Y003240D01*
X041247Y003195D01*
X041217Y003153D01*
X041184Y003112D01*
X041149Y003074D01*
X041110Y003039D01*
X041069Y003007D01*
X041025Y002978D01*
X040980Y002953D01*
X040933Y002931D01*
X040884Y002912D01*
X040834Y002898D01*
X040783Y002887D01*
X040731Y002880D01*
X040679Y002877D01*
X040627Y002878D01*
X040575Y002883D01*
X040524Y002892D01*
X040473Y002905D01*
X040424Y002921D01*
X040375Y002941D01*
X040329Y002965D01*
X040285Y002992D01*
X040242Y003023D01*
X040202Y003056D01*
X040165Y003093D01*
X040131Y003132D01*
X040100Y003174D01*
X040071Y003218D01*
X040047Y003264D01*
X040026Y003311D01*
X040008Y003361D01*
X039995Y003411D01*
X039985Y003462D01*
X039979Y003514D01*
X039977Y003566D01*
X042359Y001795D02*
X042359Y005338D01*
X044721Y005338D01*
X044721Y001795D01*
X042359Y001795D01*
X042851Y003566D02*
X042853Y003618D01*
X042859Y003670D01*
X042869Y003721D01*
X042882Y003771D01*
X042900Y003821D01*
X042921Y003868D01*
X042945Y003914D01*
X042974Y003958D01*
X043005Y004000D01*
X043039Y004039D01*
X043076Y004076D01*
X043116Y004109D01*
X043159Y004140D01*
X043203Y004167D01*
X043249Y004191D01*
X043298Y004211D01*
X043347Y004227D01*
X043398Y004240D01*
X043449Y004249D01*
X043501Y004254D01*
X043553Y004255D01*
X043605Y004252D01*
X043657Y004245D01*
X043708Y004234D01*
X043758Y004220D01*
X043807Y004201D01*
X043854Y004179D01*
X043899Y004154D01*
X043943Y004125D01*
X043984Y004093D01*
X044023Y004058D01*
X044058Y004020D01*
X044091Y003979D01*
X044121Y003937D01*
X044147Y003892D01*
X044170Y003845D01*
X044189Y003796D01*
X044205Y003746D01*
X044217Y003696D01*
X044225Y003644D01*
X044229Y003592D01*
X044229Y003540D01*
X044225Y003488D01*
X044217Y003436D01*
X044205Y003386D01*
X044189Y003336D01*
X044170Y003287D01*
X044147Y003240D01*
X044121Y003195D01*
X044091Y003153D01*
X044058Y003112D01*
X044023Y003074D01*
X043984Y003039D01*
X043943Y003007D01*
X043899Y002978D01*
X043854Y002953D01*
X043807Y002931D01*
X043758Y002912D01*
X043708Y002898D01*
X043657Y002887D01*
X043605Y002880D01*
X043553Y002877D01*
X043501Y002878D01*
X043449Y002883D01*
X043398Y002892D01*
X043347Y002905D01*
X043298Y002921D01*
X043249Y002941D01*
X043203Y002965D01*
X043159Y002992D01*
X043116Y003023D01*
X043076Y003056D01*
X043039Y003093D01*
X043005Y003132D01*
X042974Y003174D01*
X042945Y003218D01*
X042921Y003264D01*
X042900Y003311D01*
X042882Y003361D01*
X042869Y003411D01*
X042859Y003462D01*
X042853Y003514D01*
X042851Y003566D01*
X013940Y020350D02*
X012440Y020350D01*
X012440Y021350D01*
X013940Y021350D01*
X013940Y020350D01*
X014019Y022988D02*
X012519Y022988D01*
X012519Y023988D01*
X014019Y023988D01*
X014019Y022988D01*
X021231Y030626D02*
X021231Y031626D01*
X022731Y031626D01*
X022731Y030626D01*
X021231Y030626D01*
X022412Y031807D02*
X022412Y032807D01*
X023912Y032807D01*
X023912Y031807D01*
X022412Y031807D01*
X022912Y031626D02*
X022912Y030626D01*
X024412Y030626D01*
X024412Y031626D01*
X022912Y031626D01*
X023700Y032200D02*
X023700Y033200D01*
X025200Y033200D01*
X025200Y032200D01*
X023700Y032200D01*
X027137Y031626D02*
X027137Y030626D01*
X028637Y030626D01*
X028637Y031626D01*
X027137Y031626D01*
X028424Y031232D02*
X029424Y031232D01*
X029424Y029732D01*
X028424Y029732D01*
X028424Y031232D01*
X029605Y030838D02*
X029605Y029838D01*
X031105Y029838D01*
X031105Y030838D01*
X029605Y030838D01*
D64*
X014096Y002797D02*
X014096Y002550D01*
X014219Y002674D02*
X013972Y002674D01*
X012871Y002674D02*
X012624Y002674D01*
X012747Y002797D02*
X012747Y002550D01*
X011227Y002674D02*
X010980Y002674D01*
X011104Y002797D02*
X011104Y002550D01*
D65*
X011070Y001814D03*
X010597Y001814D03*
X012241Y001814D03*
X012714Y001814D03*
X013590Y001814D03*
X014062Y001814D03*
D66*
X013826Y001814D03*
X012477Y001814D03*
X010834Y001814D03*
D67*
X010684Y015716D02*
X010434Y015966D01*
X010434Y017466D01*
X010684Y017716D01*
X011184Y017716D01*
X011434Y017466D01*
X011434Y015966D01*
X011184Y015716D01*
X010684Y015716D01*
X010434Y015966D02*
X010184Y015716D01*
X009684Y015716D01*
X009434Y015966D01*
X009434Y017466D01*
X009684Y017716D01*
X010184Y017716D01*
X010434Y017466D01*
X009434Y017466D02*
X009184Y017716D01*
X008684Y017716D01*
X008434Y017466D01*
X008434Y015966D01*
X008184Y015716D01*
X007684Y015716D01*
X007434Y015966D01*
X007434Y017466D01*
X007684Y017716D01*
X008184Y017716D01*
X008434Y017466D01*
X007434Y017466D02*
X007184Y017716D01*
X006684Y017716D01*
X006434Y017466D01*
X006434Y015966D01*
X006184Y015716D01*
X005684Y015716D01*
X005434Y015966D01*
X005434Y017466D01*
X005684Y017716D01*
X006184Y017716D01*
X006434Y017466D01*
X005434Y017466D02*
X005184Y017716D01*
X004684Y017716D01*
X004434Y017466D01*
X004184Y017716D01*
X003684Y017716D01*
X003434Y017466D01*
X003434Y015966D01*
X003684Y015716D01*
X004184Y015716D01*
X004434Y015966D01*
X004434Y017466D01*
X004434Y015966D02*
X004684Y015716D01*
X005184Y015716D01*
X005434Y015966D01*
X006434Y015966D02*
X006684Y015716D01*
X007184Y015716D01*
X007434Y015966D01*
X008434Y015966D02*
X008684Y015716D01*
X009184Y015716D01*
X009434Y015966D01*
X011434Y015966D02*
X011684Y015716D01*
X012184Y015716D01*
X012434Y015966D01*
X012434Y017466D01*
X012684Y017716D01*
X013184Y017716D01*
X013434Y017466D01*
X013434Y015966D01*
X013184Y015716D01*
X012684Y015716D01*
X012434Y015966D01*
X013434Y015966D02*
X013684Y015716D01*
X014184Y015716D01*
X014434Y015966D01*
X014434Y017466D01*
X014684Y017716D01*
X015184Y017716D01*
X015434Y017466D01*
X015434Y015966D01*
X015184Y015716D01*
X014684Y015716D01*
X014434Y015966D01*
X015434Y015966D02*
X015684Y015716D01*
X016184Y015716D01*
X016434Y015966D01*
X016434Y017466D01*
X016684Y017716D01*
X017184Y017716D01*
X017434Y017466D01*
X017434Y015966D01*
X017184Y015716D01*
X016684Y015716D01*
X016434Y015966D01*
X017434Y015966D02*
X017684Y015716D01*
X018184Y015716D01*
X018434Y015966D01*
X018434Y017466D01*
X018184Y017716D01*
X017684Y017716D01*
X017434Y017466D01*
X016434Y017466D02*
X016184Y017716D01*
X015684Y017716D01*
X015434Y017466D01*
X014434Y017466D02*
X014184Y017716D01*
X013684Y017716D01*
X013434Y017466D01*
X012434Y017466D02*
X012184Y017716D01*
X011684Y017716D01*
X011434Y017466D01*
X018434Y017466D02*
X018684Y017716D01*
X019184Y017716D01*
X019434Y017466D01*
X019434Y015966D01*
X019184Y015716D01*
X018684Y015716D01*
X018434Y015966D01*
X019434Y015966D02*
X019684Y015716D01*
X020184Y015716D01*
X020434Y015966D01*
X020434Y017466D01*
X020184Y017716D01*
X019684Y017716D01*
X019434Y017466D01*
X020434Y017466D02*
X020684Y017716D01*
X021184Y017716D01*
X021434Y017466D01*
X021434Y015966D01*
X021184Y015716D01*
X020684Y015716D01*
X020434Y015966D01*
X021434Y015966D02*
X021684Y015716D01*
X022184Y015716D01*
X022434Y015966D01*
X022434Y017466D01*
X022184Y017716D01*
X021684Y017716D01*
X021434Y017466D01*
X022434Y017466D02*
X022684Y017716D01*
X023184Y017716D01*
X023434Y017466D01*
X023434Y015966D01*
X023184Y015716D01*
X022684Y015716D01*
X022434Y015966D01*
X010523Y037377D02*
X010023Y037377D01*
X009773Y037627D01*
X009773Y038127D01*
X010023Y038377D01*
X010523Y038377D01*
X010773Y038127D01*
X010773Y037627D01*
X010523Y037377D01*
M02*
