G75*
%MOIN*%
%OFA0B0*%
%FSLAX24Y24*%
%IPPOS*%
%LPD*%
%AMOC8*
5,1,8,0,0,1.08239X$1,22.5*
%
%ADD10C,0.1143*%
%ADD11C,0.0828*%
%ADD12C,0.1950*%
%ADD13C,0.0700*%
%ADD14R,0.0572X0.0670*%
%ADD15R,0.0532X0.0532*%
%ADD16C,0.3997*%
%ADD17OC8,0.0820*%
%ADD18C,0.1320*%
%ADD19OC8,0.0660*%
%ADD20C,0.0800*%
%ADD21C,0.0414*%
D10*
X001562Y001480D03*
X002015Y016696D03*
X002015Y035988D03*
X001562Y038685D03*
X024849Y035988D03*
X030656Y035751D03*
X046247Y038685D03*
X024849Y016696D03*
X027546Y014669D03*
X037349Y010751D03*
X046247Y001480D03*
X025184Y003448D03*
D11*
X020637Y007897D02*
X019869Y007897D01*
X017094Y008291D02*
X016326Y008291D01*
X029712Y016559D02*
X030479Y016559D01*
X032468Y017740D02*
X033235Y017740D01*
X033235Y019708D02*
X032468Y019708D01*
X032468Y021677D02*
X033235Y021677D01*
X034830Y023842D02*
X035597Y023842D01*
X028511Y020496D02*
X027743Y020496D01*
X034830Y015574D02*
X035597Y015574D01*
X028924Y029964D02*
X028924Y030732D01*
X028137Y031126D02*
X027369Y031126D01*
X030105Y030338D02*
X030873Y030338D01*
X024968Y032700D02*
X024200Y032700D01*
X023412Y032307D02*
X022645Y032307D01*
X022231Y031126D02*
X021464Y031126D01*
X023412Y031126D02*
X024180Y031126D01*
X013786Y023488D02*
X013019Y023488D01*
X012940Y020850D02*
X013708Y020850D01*
D12*
X040080Y033340D03*
X041261Y031490D03*
X042403Y033340D03*
D13*
X034454Y033566D03*
X034454Y032566D03*
X033454Y032566D03*
X033454Y033566D03*
X033454Y034566D03*
X034454Y034566D03*
D14*
X039781Y005131D03*
X041552Y005131D03*
X042655Y005131D03*
X044426Y005131D03*
X044426Y002001D03*
X042655Y002001D03*
X041552Y002001D03*
X039781Y002001D03*
X008363Y002001D03*
X006592Y002001D03*
X005735Y001972D03*
X003964Y001972D03*
X003964Y005102D03*
X005735Y005102D03*
X006592Y005131D03*
X008363Y005131D03*
D15*
X010834Y002287D03*
X010834Y001460D03*
X012477Y001460D03*
X012477Y002287D03*
X013826Y002287D03*
X013826Y001460D03*
D16*
X006326Y034039D03*
D17*
X010273Y037877D03*
D18*
X018125Y013419D03*
X018125Y003419D03*
X001625Y003419D03*
X001625Y013419D03*
D19*
X003934Y016216D03*
X004934Y016216D03*
X005934Y016216D03*
X006934Y016216D03*
X007934Y016216D03*
X008934Y016216D03*
X009934Y016216D03*
X010934Y016216D03*
X011934Y016216D03*
X012934Y016216D03*
X013934Y016216D03*
X014934Y016216D03*
X015934Y016216D03*
X016934Y016216D03*
X017934Y016216D03*
X018934Y016216D03*
X019934Y016216D03*
X020934Y016216D03*
X021934Y016216D03*
X022934Y016216D03*
X022934Y017216D03*
X021934Y017216D03*
X020934Y017216D03*
X019934Y017216D03*
X018934Y017216D03*
X017934Y017216D03*
X016934Y017216D03*
X015934Y017216D03*
X014934Y017216D03*
X013934Y017216D03*
X012934Y017216D03*
X011934Y017216D03*
X010934Y017216D03*
X009934Y017216D03*
X008934Y017216D03*
X007934Y017216D03*
X006934Y017216D03*
X005934Y017216D03*
X004934Y017216D03*
X003934Y017216D03*
D20*
X040956Y026677D02*
X041696Y026677D01*
X041696Y027677D02*
X040956Y027677D01*
X041743Y013700D02*
X042483Y013700D01*
X042483Y012700D02*
X041743Y012700D01*
D21*
X038334Y013114D03*
X035223Y012444D03*
X032221Y015505D03*
X030056Y013931D03*
X026316Y011568D03*
X026513Y010190D03*
X022979Y013173D03*
X021562Y012464D03*
X020460Y012425D03*
X018442Y007435D03*
X014653Y010614D03*
X013373Y011519D03*
X012586Y012307D03*
X007025Y010781D03*
X002103Y010584D03*
X002103Y008419D03*
X015686Y003891D03*
X021592Y003891D03*
X029072Y003891D03*
X034977Y003104D03*
X027723Y017051D03*
X023708Y018803D03*
X023629Y019866D03*
X021936Y019984D03*
X021050Y019049D03*
X019032Y020624D03*
X016670Y022198D03*
X021523Y028251D03*
X023334Y028114D03*
X025450Y024147D03*
X031139Y026480D03*
X032221Y024954D03*
X035637Y021618D03*
X039357Y019196D03*
X039456Y027858D03*
X034869Y029846D03*
X036552Y037651D03*
X042802Y037651D03*
X029466Y037651D03*
X022281Y037750D03*
X013668Y037848D03*
X006139Y029974D03*
X001906Y027710D03*
X001906Y032435D03*
X001906Y022986D03*
X006828Y022592D03*
M02*
