G75*
%MOIN*%
%OFA0B0*%
%FSLAX24Y24*%
%IPPOS*%
%LPD*%
%AMOC8*
5,1,8,0,0,1.08239X$1,22.5*
%
%ADD10C,0.1143*%
%ADD11C,0.0828*%
%ADD12C,0.1950*%
%ADD13C,0.0700*%
%ADD14R,0.2225X0.0454*%
%ADD15R,0.1241X0.0690*%
%ADD16R,0.0651X0.0572*%
%ADD17R,0.0532X0.0277*%
%ADD18R,0.0572X0.0651*%
%ADD19R,0.0454X0.0611*%
%ADD20R,0.0237X0.0454*%
%ADD21C,0.3997*%
%ADD22OC8,0.0820*%
%ADD23C,0.1320*%
%ADD24OC8,0.0660*%
%ADD25R,0.0651X0.0690*%
%ADD26R,0.0532X0.0532*%
%ADD27C,0.0800*%
%ADD28C,0.0414*%
D10*
X001562Y001480D03*
X002015Y016696D03*
X002015Y035988D03*
X001562Y038685D03*
X024849Y035988D03*
X030656Y035751D03*
X046247Y038685D03*
X024849Y016696D03*
X027546Y014669D03*
X037349Y010751D03*
X046247Y001480D03*
X025184Y003448D03*
D11*
X020637Y007897D02*
X019869Y007897D01*
X017094Y008291D02*
X016326Y008291D01*
X029712Y016559D02*
X030479Y016559D01*
X032468Y017740D02*
X033235Y017740D01*
X033235Y019708D02*
X032468Y019708D01*
X032468Y021677D02*
X033235Y021677D01*
X034830Y023842D02*
X035597Y023842D01*
X028511Y020496D02*
X027743Y020496D01*
X034830Y015574D02*
X035597Y015574D01*
X028924Y029964D02*
X028924Y030732D01*
X028137Y031126D02*
X027369Y031126D01*
X030105Y030338D02*
X030873Y030338D01*
X024968Y032700D02*
X024200Y032700D01*
X023412Y032307D02*
X022645Y032307D01*
X022231Y031126D02*
X021464Y031126D01*
X023412Y031126D02*
X024180Y031126D01*
X013786Y023488D02*
X013019Y023488D01*
X012940Y020850D02*
X013708Y020850D01*
D12*
X040080Y033340D03*
X041261Y031490D03*
X042403Y033340D03*
D13*
X034454Y033566D03*
X034454Y032566D03*
X033454Y032566D03*
X033454Y033566D03*
X033454Y034566D03*
X034454Y034566D03*
D14*
X042871Y017011D03*
X042871Y016224D03*
D15*
X041985Y015279D03*
X041985Y017956D03*
D16*
X034830Y021519D03*
X034830Y022189D03*
X031021Y021893D03*
X030155Y021913D03*
X030155Y022582D03*
X031021Y022563D03*
X029269Y022582D03*
X029269Y021913D03*
X028403Y021913D03*
X028403Y022582D03*
X030844Y024078D03*
X030844Y024748D03*
X030155Y026401D03*
X030155Y027070D03*
X030155Y028064D03*
X030155Y028734D03*
X033097Y028773D03*
X033097Y028104D03*
X034062Y028124D03*
X034062Y028793D03*
X022349Y013862D03*
X022349Y013192D03*
X021434Y013192D03*
X020558Y013192D03*
X020558Y013862D03*
X021434Y013862D03*
X019672Y013862D03*
X019672Y013192D03*
X016690Y013192D03*
X015784Y013192D03*
X015784Y013862D03*
X016690Y013862D03*
X014534Y013862D03*
X014534Y013192D03*
X005302Y019452D03*
X005302Y020122D03*
X004121Y020122D03*
X004121Y019452D03*
D17*
X031021Y027189D03*
X031021Y027937D03*
X032044Y027937D03*
X032044Y027563D03*
X032044Y027189D03*
D18*
X033019Y027169D03*
X033688Y027169D03*
X029170Y027966D03*
X028501Y027966D03*
X022723Y018940D03*
X022054Y018940D03*
D19*
X028855Y026293D03*
X028481Y027159D03*
X029229Y027159D03*
D20*
X029338Y025023D03*
X029594Y025023D03*
X029849Y025023D03*
X029082Y025023D03*
X029082Y023409D03*
X029338Y023409D03*
X029594Y023409D03*
X029849Y023409D03*
D21*
X006326Y034039D03*
D22*
X010273Y037877D03*
D23*
X018125Y013419D03*
X018125Y003419D03*
X001625Y003419D03*
X001625Y013419D03*
D24*
X003934Y016216D03*
X004934Y016216D03*
X005934Y016216D03*
X006934Y016216D03*
X007934Y016216D03*
X008934Y016216D03*
X009934Y016216D03*
X010934Y016216D03*
X011934Y016216D03*
X012934Y016216D03*
X013934Y016216D03*
X014934Y016216D03*
X015934Y016216D03*
X016934Y016216D03*
X017934Y016216D03*
X018934Y016216D03*
X019934Y016216D03*
X020934Y016216D03*
X021934Y016216D03*
X022934Y016216D03*
X022934Y017216D03*
X021934Y017216D03*
X020934Y017216D03*
X019934Y017216D03*
X018934Y017216D03*
X017934Y017216D03*
X016934Y017216D03*
X015934Y017216D03*
X014934Y017216D03*
X013934Y017216D03*
X012934Y017216D03*
X011934Y017216D03*
X010934Y017216D03*
X009934Y017216D03*
X008934Y017216D03*
X007934Y017216D03*
X006934Y017216D03*
X005934Y017216D03*
X004934Y017216D03*
X003934Y017216D03*
D25*
X041847Y021116D03*
D26*
X041454Y019807D03*
X042241Y019807D03*
D27*
X042483Y013700D02*
X041743Y013700D01*
X041743Y012700D02*
X042483Y012700D01*
X041696Y026677D02*
X040956Y026677D01*
X040956Y027677D02*
X041696Y027677D01*
D28*
X039456Y027858D03*
X034869Y029846D03*
X031139Y026480D03*
X032221Y024954D03*
X035637Y021618D03*
X039357Y019196D03*
X038334Y013114D03*
X035223Y012444D03*
X032221Y015505D03*
X030056Y013931D03*
X026316Y011568D03*
X026513Y010190D03*
X022979Y013173D03*
X021562Y012464D03*
X020460Y012425D03*
X018442Y007435D03*
X014653Y010614D03*
X013373Y011519D03*
X012586Y012307D03*
X007025Y010781D03*
X002103Y010584D03*
X002103Y008419D03*
X015686Y003891D03*
X021592Y003891D03*
X029072Y003891D03*
X034977Y003104D03*
X027723Y017051D03*
X023708Y018803D03*
X023629Y019866D03*
X021936Y019984D03*
X021050Y019049D03*
X019032Y020624D03*
X016670Y022198D03*
X021523Y028251D03*
X023334Y028114D03*
X025450Y024147D03*
X029466Y037651D03*
X036552Y037651D03*
X042802Y037651D03*
X022281Y037750D03*
X013668Y037848D03*
X006139Y029974D03*
X001906Y027710D03*
X001906Y032435D03*
X001906Y022986D03*
X006828Y022592D03*
M02*
