G75*
%MOIN*%
%OFA0B0*%
%FSLAX24Y24*%
%IPPOS*%
%LPD*%
%AMOC8*
5,1,8,0,0,1.08239X$1,22.5*
%
%ADD10C,0.0080*%
%ADD11C,0.0050*%
%ADD12C,0.0039*%
%ADD13C,0.0060*%
%ADD14C,0.0040*%
%ADD15C,0.0070*%
%ADD16C,0.0006*%
%ADD17C,0.0100*%
D10*
X018057Y021281D02*
X018059Y021296D01*
X018065Y021309D01*
X018074Y021321D01*
X018085Y021330D01*
X018099Y021336D01*
X018114Y021338D01*
X018129Y021336D01*
X018142Y021330D01*
X018154Y021321D01*
X018163Y021310D01*
X018169Y021296D01*
X018171Y021281D01*
X018169Y021266D01*
X018163Y021253D01*
X018154Y021241D01*
X018143Y021232D01*
X018129Y021226D01*
X018114Y021224D01*
X018099Y021226D01*
X018086Y021232D01*
X018074Y021241D01*
X018065Y021252D01*
X018059Y021266D01*
X018057Y021281D01*
X011420Y021932D02*
X011420Y022149D01*
X011420Y021932D02*
X011204Y021932D01*
X010337Y021932D02*
X010121Y022149D01*
X010121Y023015D02*
X010121Y023231D01*
X010337Y023231D01*
X011204Y023231D02*
X011420Y023231D01*
X011420Y023015D01*
D11*
X007660Y020260D02*
X007660Y007660D01*
X020260Y007660D01*
X020260Y020260D01*
X007660Y020260D01*
X009601Y020382D02*
X009646Y020337D01*
X009736Y020337D01*
X009781Y020382D01*
X009895Y020382D02*
X009940Y020337D01*
X010030Y020337D01*
X010075Y020382D01*
X010075Y020562D01*
X009895Y020382D01*
X009895Y020562D01*
X009940Y020607D01*
X010030Y020607D01*
X010075Y020562D01*
X010190Y020607D02*
X010190Y020472D01*
X010280Y020517D01*
X010325Y020517D01*
X010370Y020472D01*
X010370Y020382D01*
X010325Y020337D01*
X010235Y020337D01*
X010190Y020382D01*
X010190Y020607D02*
X010370Y020607D01*
X009781Y020562D02*
X009736Y020607D01*
X009646Y020607D01*
X009601Y020562D01*
X009601Y020382D01*
X010591Y021400D02*
X010681Y021400D01*
X010726Y021445D01*
X010840Y021400D02*
X011020Y021400D01*
X010930Y021400D02*
X010930Y021670D01*
X010840Y021580D01*
X010726Y021625D02*
X010681Y021670D01*
X010591Y021670D01*
X010546Y021625D01*
X010546Y021445D01*
X010591Y021400D01*
X011135Y021535D02*
X011315Y021535D01*
X011270Y021400D02*
X011270Y021670D01*
X011135Y021535D01*
X011648Y021912D02*
X011648Y022182D01*
X011783Y022182D01*
X011828Y022137D01*
X011828Y022047D01*
X011783Y022002D01*
X011648Y022002D01*
X011738Y022002D02*
X011828Y021912D01*
X011943Y021957D02*
X012123Y022137D01*
X012123Y021957D01*
X012078Y021912D01*
X011988Y021912D01*
X011943Y021957D01*
X011943Y022137D01*
X011988Y022182D01*
X012078Y022182D01*
X012123Y022137D01*
X012237Y022137D02*
X012282Y022182D01*
X012372Y022182D01*
X012417Y022137D01*
X012417Y022092D01*
X012372Y022047D01*
X012417Y022002D01*
X012417Y021957D01*
X012372Y021912D01*
X012282Y021912D01*
X012237Y021957D01*
X012327Y022047D02*
X012372Y022047D01*
X012475Y021198D02*
X012610Y021198D01*
X012655Y021153D01*
X012655Y021063D01*
X012610Y021018D01*
X012475Y021018D01*
X012565Y021018D02*
X012655Y020927D01*
X012769Y020972D02*
X012949Y021153D01*
X012949Y020972D01*
X012904Y020927D01*
X012814Y020927D01*
X012769Y020972D01*
X012769Y021153D01*
X012814Y021198D01*
X012904Y021198D01*
X012949Y021153D01*
X013064Y021153D02*
X013109Y021198D01*
X013199Y021198D01*
X013244Y021153D01*
X013244Y021108D01*
X013064Y020927D01*
X013244Y020927D01*
X013346Y020253D02*
X013301Y020208D01*
X013301Y020028D01*
X013346Y019983D01*
X013437Y019983D01*
X013482Y020028D01*
X013596Y020028D02*
X013776Y020208D01*
X013776Y020028D01*
X013731Y019983D01*
X013641Y019983D01*
X013596Y020028D01*
X013596Y020208D01*
X013641Y020253D01*
X013731Y020253D01*
X013776Y020208D01*
X013891Y020208D02*
X013891Y020163D01*
X013936Y020118D01*
X014026Y020118D01*
X014071Y020073D01*
X014071Y020028D01*
X014026Y019983D01*
X013936Y019983D01*
X013891Y020028D01*
X013891Y020073D01*
X013936Y020118D01*
X014026Y020118D02*
X014071Y020163D01*
X014071Y020208D01*
X014026Y020253D01*
X013936Y020253D01*
X013891Y020208D01*
X013482Y020208D02*
X013437Y020253D01*
X013346Y020253D01*
X012475Y020927D02*
X012475Y021198D01*
X012398Y020213D02*
X012308Y020168D01*
X012218Y020078D01*
X012353Y020078D01*
X012398Y020033D01*
X012398Y019988D01*
X012353Y019943D01*
X012263Y019943D01*
X012218Y019988D01*
X012218Y020078D01*
X012104Y020078D02*
X012104Y020168D01*
X012059Y020213D01*
X011924Y020213D01*
X011924Y019943D01*
X011924Y020033D02*
X012059Y020033D01*
X012104Y020078D01*
X012014Y020033D02*
X012104Y019943D01*
X010042Y022144D02*
X009862Y022144D01*
X009952Y022144D02*
X009952Y022414D01*
X009862Y022324D01*
X009747Y022414D02*
X009747Y022189D01*
X009702Y022144D01*
X009612Y022144D01*
X009567Y022189D01*
X009567Y022414D01*
X009205Y024170D02*
X009115Y024170D01*
X009070Y024215D01*
X009250Y024396D01*
X009250Y024215D01*
X009205Y024170D01*
X009070Y024215D02*
X009070Y024396D01*
X009115Y024441D01*
X009205Y024441D01*
X009250Y024396D01*
X008955Y024170D02*
X008775Y024170D01*
X008865Y024170D02*
X008865Y024441D01*
X008775Y024351D01*
X008661Y024396D02*
X008616Y024441D01*
X008526Y024441D01*
X008480Y024396D01*
X008480Y024215D01*
X008526Y024170D01*
X008616Y024170D01*
X008661Y024215D01*
X009274Y024857D02*
X012424Y024857D01*
X012424Y026353D01*
X009274Y026353D01*
X009274Y024857D01*
X010736Y024785D02*
X010736Y024605D01*
X010781Y024560D01*
X010872Y024560D01*
X010917Y024605D01*
X011031Y024560D02*
X011211Y024560D01*
X011121Y024560D02*
X011121Y024830D01*
X011031Y024740D01*
X010917Y024785D02*
X010872Y024830D01*
X010781Y024830D01*
X010736Y024785D01*
X011326Y024740D02*
X011416Y024830D01*
X011416Y024560D01*
X011326Y024560D02*
X011506Y024560D01*
X012280Y023765D02*
X012235Y023720D01*
X012235Y023539D01*
X012280Y023494D01*
X012370Y023494D01*
X012415Y023539D01*
X012529Y023539D02*
X012709Y023720D01*
X012709Y023539D01*
X012664Y023494D01*
X012574Y023494D01*
X012529Y023539D01*
X012529Y023720D01*
X012574Y023765D01*
X012664Y023765D01*
X012709Y023720D01*
X012824Y023675D02*
X012914Y023765D01*
X012914Y023494D01*
X012824Y023494D02*
X013004Y023494D01*
X012912Y023209D02*
X012957Y023164D01*
X012777Y022984D01*
X012822Y022939D01*
X012912Y022939D01*
X012957Y022984D01*
X012957Y023164D01*
X012912Y023209D02*
X012822Y023209D01*
X012777Y023164D01*
X012777Y022984D01*
X012663Y022984D02*
X012618Y022939D01*
X012528Y022939D01*
X012483Y022984D01*
X012483Y023164D01*
X012528Y023209D01*
X012618Y023209D01*
X012663Y023164D01*
X013072Y023164D02*
X013117Y023209D01*
X013207Y023209D01*
X013252Y023164D01*
X013252Y023119D01*
X013207Y023074D01*
X013252Y023029D01*
X013252Y022984D01*
X013207Y022939D01*
X013117Y022939D01*
X013072Y022984D01*
X013162Y023074D02*
X013207Y023074D01*
X012415Y023720D02*
X012370Y023765D01*
X012280Y023765D01*
X012768Y024721D02*
X012948Y024721D01*
X013063Y024766D02*
X013243Y024946D01*
X013243Y024766D01*
X013198Y024721D01*
X013108Y024721D01*
X013063Y024766D01*
X013063Y024946D01*
X013108Y024991D01*
X013198Y024991D01*
X013243Y024946D01*
X013358Y024946D02*
X013403Y024991D01*
X013493Y024991D01*
X013538Y024946D01*
X013538Y024901D01*
X013358Y024721D01*
X013538Y024721D01*
X012768Y024721D02*
X012768Y024991D01*
X014719Y023166D02*
X014854Y023166D01*
X014899Y023121D01*
X014899Y023031D01*
X014854Y022986D01*
X014719Y022986D01*
X014809Y022986D02*
X014899Y022896D01*
X015013Y022941D02*
X015194Y023121D01*
X015194Y022941D01*
X015149Y022896D01*
X015058Y022896D01*
X015013Y022941D01*
X015013Y023121D01*
X015058Y023166D01*
X015149Y023166D01*
X015194Y023121D01*
X015308Y023121D02*
X015308Y023076D01*
X015353Y023031D01*
X015443Y023031D01*
X015488Y022986D01*
X015488Y022941D01*
X015443Y022896D01*
X015353Y022896D01*
X015308Y022941D01*
X015308Y022986D01*
X015353Y023031D01*
X015443Y023031D02*
X015488Y023076D01*
X015488Y023121D01*
X015443Y023166D01*
X015353Y023166D01*
X015308Y023121D01*
X015308Y022733D02*
X015308Y022598D01*
X015398Y022643D01*
X015443Y022643D01*
X015488Y022598D01*
X015488Y022508D01*
X015443Y022463D01*
X015353Y022463D01*
X015308Y022508D01*
X015194Y022508D02*
X015194Y022688D01*
X015013Y022508D01*
X015058Y022463D01*
X015149Y022463D01*
X015194Y022508D01*
X015194Y022688D02*
X015149Y022733D01*
X015058Y022733D01*
X015013Y022688D01*
X015013Y022508D01*
X014899Y022463D02*
X014809Y022553D01*
X014854Y022553D02*
X014719Y022553D01*
X014719Y022463D02*
X014719Y022733D01*
X014854Y022733D01*
X014899Y022688D01*
X014899Y022598D01*
X014854Y022553D01*
X014837Y022103D02*
X014972Y022103D01*
X015017Y022058D01*
X015017Y021968D01*
X014972Y021923D01*
X014837Y021923D01*
X014927Y021923D02*
X015017Y021833D01*
X015132Y021878D02*
X015312Y022058D01*
X015312Y021878D01*
X015267Y021833D01*
X015177Y021833D01*
X015132Y021878D01*
X015132Y022058D01*
X015177Y022103D01*
X015267Y022103D01*
X015312Y022058D01*
X015426Y022103D02*
X015606Y022103D01*
X015606Y022058D01*
X015426Y021878D01*
X015426Y021833D01*
X015207Y021709D02*
X015072Y021574D01*
X015252Y021574D01*
X015207Y021439D02*
X015207Y021709D01*
X014957Y021664D02*
X014777Y021484D01*
X014822Y021439D01*
X014912Y021439D01*
X014957Y021484D01*
X014957Y021664D01*
X014912Y021709D01*
X014822Y021709D01*
X014777Y021664D01*
X014777Y021484D01*
X014663Y021439D02*
X014573Y021529D01*
X014618Y021529D02*
X014483Y021529D01*
X014483Y021439D02*
X014483Y021709D01*
X014618Y021709D01*
X014663Y021664D01*
X014663Y021574D01*
X014618Y021529D01*
X014837Y021833D02*
X014837Y022103D01*
X015308Y022733D02*
X015488Y022733D01*
X014719Y022896D02*
X014719Y023166D01*
X016412Y023322D02*
X016412Y023592D01*
X016502Y023502D01*
X016593Y023592D01*
X016593Y023322D01*
X016707Y023367D02*
X016707Y023547D01*
X016752Y023592D01*
X016842Y023592D01*
X016887Y023547D01*
X017002Y023592D02*
X017002Y023367D01*
X017047Y023322D01*
X017137Y023322D01*
X017182Y023367D01*
X017182Y023592D01*
X016887Y023367D02*
X016842Y023322D01*
X016752Y023322D01*
X016707Y023367D01*
X018839Y023811D02*
X020194Y025746D01*
X023096Y023714D01*
X021741Y021779D01*
X018839Y023811D01*
X020278Y023763D02*
X020280Y023815D01*
X020286Y023867D01*
X020296Y023918D01*
X020309Y023968D01*
X020327Y024018D01*
X020348Y024065D01*
X020372Y024111D01*
X020401Y024155D01*
X020432Y024197D01*
X020466Y024236D01*
X020503Y024273D01*
X020543Y024306D01*
X020586Y024337D01*
X020630Y024364D01*
X020676Y024388D01*
X020725Y024408D01*
X020774Y024424D01*
X020825Y024437D01*
X020876Y024446D01*
X020928Y024451D01*
X020980Y024452D01*
X021032Y024449D01*
X021084Y024442D01*
X021135Y024431D01*
X021185Y024417D01*
X021234Y024398D01*
X021281Y024376D01*
X021326Y024351D01*
X021370Y024322D01*
X021411Y024290D01*
X021450Y024255D01*
X021485Y024217D01*
X021518Y024176D01*
X021548Y024134D01*
X021574Y024089D01*
X021597Y024042D01*
X021616Y023993D01*
X021632Y023943D01*
X021644Y023893D01*
X021652Y023841D01*
X021656Y023789D01*
X021656Y023737D01*
X021652Y023685D01*
X021644Y023633D01*
X021632Y023583D01*
X021616Y023533D01*
X021597Y023484D01*
X021574Y023437D01*
X021548Y023392D01*
X021518Y023350D01*
X021485Y023309D01*
X021450Y023271D01*
X021411Y023236D01*
X021370Y023204D01*
X021326Y023175D01*
X021281Y023150D01*
X021234Y023128D01*
X021185Y023109D01*
X021135Y023095D01*
X021084Y023084D01*
X021032Y023077D01*
X020980Y023074D01*
X020928Y023075D01*
X020876Y023080D01*
X020825Y023089D01*
X020774Y023102D01*
X020725Y023118D01*
X020676Y023138D01*
X020630Y023162D01*
X020586Y023189D01*
X020543Y023220D01*
X020503Y023253D01*
X020466Y023290D01*
X020432Y023329D01*
X020401Y023371D01*
X020372Y023415D01*
X020348Y023461D01*
X020327Y023508D01*
X020309Y023558D01*
X020296Y023608D01*
X020286Y023659D01*
X020280Y023711D01*
X020278Y023763D01*
X019201Y020274D02*
X019247Y020229D01*
X019066Y020049D01*
X019111Y020004D01*
X019201Y020004D01*
X019247Y020049D01*
X019247Y020229D01*
X019201Y020274D02*
X019111Y020274D01*
X019066Y020229D01*
X019066Y020049D01*
X018952Y020049D02*
X018907Y020004D01*
X018817Y020004D01*
X018772Y020049D01*
X018657Y020004D02*
X018567Y020094D01*
X018612Y020094D02*
X018477Y020094D01*
X018477Y020004D02*
X018477Y020274D01*
X018612Y020274D01*
X018657Y020229D01*
X018657Y020139D01*
X018612Y020094D01*
X018772Y020229D02*
X018817Y020274D01*
X018907Y020274D01*
X018952Y020229D01*
X018952Y020184D01*
X018907Y020139D01*
X018952Y020094D01*
X018952Y020049D01*
X018907Y020139D02*
X018862Y020139D01*
X017693Y020090D02*
X017648Y020135D01*
X017558Y020135D01*
X017513Y020090D01*
X017398Y020090D02*
X017398Y020045D01*
X017353Y020000D01*
X017398Y019955D01*
X017398Y019909D01*
X017353Y019864D01*
X017263Y019864D01*
X017218Y019909D01*
X017104Y019909D02*
X017059Y019864D01*
X016969Y019864D01*
X016924Y019909D01*
X016924Y020090D01*
X016969Y020135D01*
X017059Y020135D01*
X017104Y020090D01*
X017218Y020090D02*
X017263Y020135D01*
X017353Y020135D01*
X017398Y020090D01*
X017353Y020000D02*
X017308Y020000D01*
X017513Y019864D02*
X017693Y020045D01*
X017693Y020090D01*
X017693Y019864D02*
X017513Y019864D01*
X016324Y019886D02*
X016279Y019841D01*
X016189Y019841D01*
X016144Y019886D01*
X016029Y019886D02*
X015984Y019841D01*
X015894Y019841D01*
X015849Y019886D01*
X015735Y019886D02*
X015690Y019841D01*
X015600Y019841D01*
X015555Y019886D01*
X015555Y020066D01*
X015600Y020111D01*
X015690Y020111D01*
X015735Y020066D01*
X015849Y020066D02*
X015894Y020111D01*
X015984Y020111D01*
X016029Y020066D01*
X016029Y020021D01*
X015984Y019976D01*
X016029Y019931D01*
X016029Y019886D01*
X015984Y019976D02*
X015939Y019976D01*
X016144Y020066D02*
X016189Y020111D01*
X016279Y020111D01*
X016324Y020066D01*
X016324Y020021D01*
X016279Y019976D01*
X016324Y019931D01*
X016324Y019886D01*
X016279Y019976D02*
X016234Y019976D01*
X024138Y019211D02*
X024138Y018941D01*
X024138Y019031D02*
X024273Y019031D01*
X024318Y019076D01*
X024318Y019166D01*
X024273Y019211D01*
X024138Y019211D01*
X024228Y019031D02*
X024318Y018941D01*
X024432Y018986D02*
X024477Y018941D01*
X024567Y018941D01*
X024612Y018986D01*
X024612Y019031D01*
X024567Y019076D01*
X024522Y019076D01*
X024567Y019076D02*
X024612Y019121D01*
X024612Y019166D01*
X024567Y019211D01*
X024477Y019211D01*
X024432Y019166D01*
X024727Y019121D02*
X024817Y019211D01*
X024817Y018941D01*
X024727Y018941D02*
X024907Y018941D01*
X025107Y018945D02*
X025287Y018945D01*
X025401Y018945D02*
X025581Y018945D01*
X025696Y018945D02*
X025831Y018945D01*
X025876Y018990D01*
X025876Y019170D01*
X025831Y019215D01*
X025696Y019215D01*
X025696Y018945D01*
X025491Y019080D02*
X025401Y019080D01*
X025401Y019215D02*
X025401Y018945D01*
X025401Y019215D02*
X025581Y019215D01*
X025107Y019215D02*
X025107Y018945D01*
X023016Y009001D02*
X023018Y009014D01*
X023023Y009027D01*
X023032Y009038D01*
X023043Y009045D01*
X023056Y009050D01*
X023069Y009051D01*
X023083Y009048D01*
X023095Y009042D01*
X023105Y009033D01*
X023112Y009021D01*
X023116Y009008D01*
X023116Y008994D01*
X023112Y008981D01*
X023105Y008969D01*
X023095Y008960D01*
X023083Y008954D01*
X023069Y008951D01*
X023056Y008952D01*
X023043Y008957D01*
X023032Y008964D01*
X023023Y008975D01*
X023018Y008988D01*
X023016Y009001D01*
X024053Y007789D02*
X024233Y007789D01*
X024348Y007789D02*
X024348Y007519D01*
X024528Y007519D01*
X024438Y007654D02*
X024348Y007654D01*
X024348Y007789D02*
X024528Y007789D01*
X024643Y007789D02*
X024823Y007789D01*
X024733Y007789D02*
X024733Y007519D01*
X024937Y007519D02*
X025117Y007519D01*
X025027Y007519D02*
X025027Y007789D01*
X024937Y007699D01*
X024143Y007654D02*
X024053Y007654D01*
X024053Y007519D02*
X024053Y007789D01*
X019196Y006991D02*
X019196Y004393D01*
X017070Y004393D01*
X016597Y004865D01*
X016597Y006558D01*
X017030Y006991D01*
X019196Y006991D01*
X016646Y005692D02*
X016648Y005762D01*
X016654Y005832D01*
X016664Y005902D01*
X016677Y005970D01*
X016695Y006038D01*
X016716Y006105D01*
X016741Y006171D01*
X016770Y006235D01*
X016802Y006297D01*
X016838Y006358D01*
X016877Y006416D01*
X016919Y006472D01*
X016964Y006526D01*
X017012Y006577D01*
X017063Y006625D01*
X017117Y006670D01*
X017173Y006712D01*
X017231Y006751D01*
X017292Y006787D01*
X017354Y006819D01*
X017418Y006848D01*
X017484Y006873D01*
X017551Y006894D01*
X017619Y006912D01*
X017687Y006925D01*
X017757Y006935D01*
X017827Y006941D01*
X017897Y006943D01*
X017967Y006941D01*
X018037Y006935D01*
X018107Y006925D01*
X018175Y006912D01*
X018243Y006894D01*
X018310Y006873D01*
X018376Y006848D01*
X018440Y006819D01*
X018502Y006787D01*
X018563Y006751D01*
X018621Y006712D01*
X018677Y006670D01*
X018731Y006625D01*
X018782Y006577D01*
X018830Y006526D01*
X018875Y006472D01*
X018917Y006416D01*
X018956Y006358D01*
X018992Y006297D01*
X019024Y006235D01*
X019053Y006171D01*
X019078Y006105D01*
X019099Y006038D01*
X019117Y005970D01*
X019130Y005902D01*
X019140Y005832D01*
X019146Y005762D01*
X019148Y005692D01*
X019146Y005622D01*
X019140Y005552D01*
X019130Y005482D01*
X019117Y005414D01*
X019099Y005346D01*
X019078Y005279D01*
X019053Y005213D01*
X019024Y005149D01*
X018992Y005087D01*
X018956Y005026D01*
X018917Y004968D01*
X018875Y004912D01*
X018830Y004858D01*
X018782Y004807D01*
X018731Y004759D01*
X018677Y004714D01*
X018621Y004672D01*
X018563Y004633D01*
X018502Y004597D01*
X018440Y004565D01*
X018376Y004536D01*
X018310Y004511D01*
X018243Y004490D01*
X018175Y004472D01*
X018107Y004459D01*
X018037Y004449D01*
X017967Y004443D01*
X017897Y004441D01*
X017827Y004443D01*
X017757Y004449D01*
X017687Y004459D01*
X017619Y004472D01*
X017551Y004490D01*
X017484Y004511D01*
X017418Y004536D01*
X017354Y004565D01*
X017292Y004597D01*
X017231Y004633D01*
X017173Y004672D01*
X017117Y004714D01*
X017063Y004759D01*
X017012Y004807D01*
X016964Y004858D01*
X016919Y004912D01*
X016877Y004968D01*
X016838Y005026D01*
X016802Y005087D01*
X016770Y005149D01*
X016741Y005213D01*
X016716Y005279D01*
X016695Y005346D01*
X016677Y005414D01*
X016664Y005482D01*
X016654Y005552D01*
X016648Y005622D01*
X016646Y005692D01*
X015684Y005553D02*
X015638Y005598D01*
X015548Y005598D01*
X015503Y005553D01*
X015389Y005553D02*
X015344Y005598D01*
X015254Y005598D01*
X015209Y005553D01*
X015094Y005553D02*
X015049Y005598D01*
X014959Y005598D01*
X014914Y005553D01*
X014914Y005373D01*
X014959Y005328D01*
X015049Y005328D01*
X015094Y005373D01*
X015209Y005328D02*
X015389Y005508D01*
X015389Y005553D01*
X015389Y005328D02*
X015209Y005328D01*
X015503Y005328D02*
X015684Y005508D01*
X015684Y005553D01*
X015684Y005328D02*
X015503Y005328D01*
X014858Y004972D02*
X014858Y004926D01*
X014813Y004881D01*
X014858Y004836D01*
X014858Y004791D01*
X014813Y004746D01*
X014723Y004746D01*
X014678Y004791D01*
X014564Y004746D02*
X014384Y004746D01*
X014564Y004926D01*
X014564Y004972D01*
X014519Y005017D01*
X014429Y005017D01*
X014384Y004972D01*
X014269Y004972D02*
X014269Y004881D01*
X014224Y004836D01*
X014089Y004836D01*
X014089Y004746D02*
X014089Y005017D01*
X014224Y005017D01*
X014269Y004972D01*
X014179Y004836D02*
X014269Y004746D01*
X014678Y004972D02*
X014723Y005017D01*
X014813Y005017D01*
X014858Y004972D01*
X014813Y004881D02*
X014768Y004881D01*
X014567Y005811D02*
X014477Y005811D01*
X014432Y005856D01*
X014317Y005856D02*
X014317Y006036D01*
X014137Y005856D01*
X014182Y005811D01*
X014272Y005811D01*
X014317Y005856D01*
X014317Y006036D02*
X014272Y006081D01*
X014182Y006081D01*
X014137Y006036D01*
X014137Y005856D01*
X014023Y005811D02*
X013842Y005811D01*
X013842Y006081D01*
X014432Y006036D02*
X014477Y006081D01*
X014567Y006081D01*
X014612Y006036D01*
X014612Y005991D01*
X014567Y005946D01*
X014612Y005901D01*
X014612Y005856D01*
X014567Y005811D01*
X014567Y005946D02*
X014522Y005946D01*
X013002Y007477D02*
X012912Y007477D01*
X012867Y007522D01*
X013047Y007702D01*
X013047Y007522D01*
X013002Y007477D01*
X012867Y007522D02*
X012867Y007702D01*
X012912Y007747D01*
X013002Y007747D01*
X013047Y007702D01*
X012753Y007612D02*
X012572Y007612D01*
X012708Y007747D01*
X012708Y007477D01*
X012458Y007477D02*
X012368Y007567D01*
X012413Y007567D02*
X012278Y007567D01*
X012278Y007477D02*
X012278Y007747D01*
X012413Y007747D01*
X012458Y007702D01*
X012458Y007612D01*
X012413Y007567D01*
X010857Y006148D02*
X010857Y005878D01*
X010677Y006148D01*
X010677Y005878D01*
X010563Y005878D02*
X010563Y006148D01*
X010382Y006148D02*
X010382Y005878D01*
X010268Y005923D02*
X010268Y006103D01*
X010223Y006148D01*
X010133Y006148D01*
X010088Y006103D01*
X010088Y005923D01*
X010133Y005878D01*
X010223Y005878D01*
X010268Y005923D01*
X010382Y006148D02*
X010563Y005878D01*
X009973Y005923D02*
X009928Y005878D01*
X009838Y005878D01*
X009793Y005923D01*
X009793Y006103D01*
X009838Y006148D01*
X009928Y006148D01*
X009973Y006103D01*
X009679Y005833D02*
X009498Y005833D01*
X009294Y005878D02*
X009294Y006148D01*
X009204Y006148D02*
X009384Y006148D01*
X009089Y006103D02*
X009044Y006148D01*
X008954Y006148D01*
X008909Y006103D01*
X008909Y006058D01*
X008954Y006013D01*
X009044Y006013D01*
X009089Y005968D01*
X009089Y005923D01*
X009044Y005878D01*
X008954Y005878D01*
X008909Y005923D01*
X008750Y005923D02*
X008750Y006148D01*
X008705Y006148D02*
X008795Y006148D01*
X008750Y005923D02*
X008705Y005878D01*
X008659Y005878D01*
X008614Y005923D01*
X008822Y005062D02*
X010593Y005062D01*
X011372Y004617D02*
X011372Y004437D01*
X011417Y004392D01*
X011507Y004392D01*
X011552Y004437D01*
X011667Y004392D02*
X011847Y004572D01*
X011847Y004617D01*
X011802Y004662D01*
X011712Y004662D01*
X011667Y004617D01*
X011552Y004617D02*
X011507Y004662D01*
X011417Y004662D01*
X011372Y004617D01*
X011667Y004392D02*
X011847Y004392D01*
X011962Y004527D02*
X012142Y004527D01*
X012097Y004392D02*
X012097Y004662D01*
X011962Y004527D01*
X011687Y003728D02*
X011733Y003683D01*
X011733Y003638D01*
X011687Y003593D01*
X011733Y003548D01*
X011733Y003503D01*
X011687Y003458D01*
X011597Y003458D01*
X011552Y003503D01*
X011438Y003458D02*
X011258Y003458D01*
X011438Y003638D01*
X011438Y003683D01*
X011393Y003728D01*
X011303Y003728D01*
X011258Y003683D01*
X011282Y003684D02*
X011282Y002109D01*
X010948Y002109D01*
X010948Y003093D01*
X010397Y003093D01*
X010927Y003138D02*
X010972Y003093D01*
X011063Y003093D01*
X011108Y003138D01*
X011222Y003093D02*
X011402Y003273D01*
X011402Y003318D01*
X011357Y003363D01*
X011267Y003363D01*
X011222Y003318D01*
X011108Y003318D02*
X011063Y003363D01*
X010972Y003363D01*
X010927Y003318D01*
X010927Y003138D01*
X011222Y003093D02*
X011402Y003093D01*
X011517Y003138D02*
X011562Y003093D01*
X011652Y003093D01*
X011697Y003138D01*
X011697Y003228D01*
X011652Y003273D01*
X011607Y003273D01*
X011517Y003228D01*
X011517Y003363D01*
X011697Y003363D01*
X011687Y003593D02*
X011642Y003593D01*
X011552Y003683D02*
X011597Y003728D01*
X011687Y003728D01*
X011143Y003683D02*
X011098Y003728D01*
X011008Y003728D01*
X010963Y003683D01*
X010963Y003503D01*
X011008Y003458D01*
X011098Y003458D01*
X011143Y003503D01*
X011927Y002054D02*
X012108Y002054D01*
X012222Y002054D02*
X012222Y001784D01*
X012357Y001784D01*
X012402Y001829D01*
X012402Y001874D01*
X012357Y001919D01*
X012222Y001919D01*
X012222Y002054D02*
X012357Y002054D01*
X012402Y002009D01*
X012402Y001964D01*
X012357Y001919D01*
X012517Y002009D02*
X012562Y002054D01*
X012652Y002054D01*
X012697Y002009D01*
X012697Y001964D01*
X012652Y001919D01*
X012697Y001874D01*
X012697Y001829D01*
X012652Y001784D01*
X012562Y001784D01*
X012517Y001829D01*
X012607Y001919D02*
X012652Y001919D01*
X012018Y001919D02*
X011927Y001919D01*
X011927Y001784D02*
X011927Y002054D01*
X013931Y002012D02*
X014066Y002012D01*
X014112Y002057D01*
X014112Y002148D01*
X014066Y002193D01*
X013931Y002193D01*
X013931Y001922D01*
X014021Y002012D02*
X014112Y001922D01*
X014226Y001922D02*
X014406Y002102D01*
X014406Y002148D01*
X014361Y002193D01*
X014271Y002193D01*
X014226Y002148D01*
X014226Y001922D02*
X014406Y001922D01*
X014521Y002057D02*
X014701Y002057D01*
X014656Y001922D02*
X014656Y002193D01*
X014521Y002057D01*
X014936Y001439D02*
X015071Y001439D01*
X015116Y001394D01*
X015116Y001304D01*
X015071Y001259D01*
X014936Y001259D01*
X015026Y001259D02*
X015116Y001169D01*
X015230Y001169D02*
X015410Y001349D01*
X015410Y001394D01*
X015365Y001439D01*
X015275Y001439D01*
X015230Y001394D01*
X015230Y001169D02*
X015410Y001169D01*
X015525Y001214D02*
X015705Y001394D01*
X015705Y001214D01*
X015660Y001169D01*
X015570Y001169D01*
X015525Y001214D01*
X015525Y001394D01*
X015570Y001439D01*
X015660Y001439D01*
X015705Y001394D01*
X014936Y001439D02*
X014936Y001169D01*
X016254Y002429D02*
X016254Y002609D01*
X016299Y002654D01*
X016389Y002654D01*
X016434Y002609D01*
X016549Y002609D02*
X016594Y002654D01*
X016684Y002654D01*
X016729Y002609D01*
X016729Y002564D01*
X016549Y002384D01*
X016729Y002384D01*
X016844Y002429D02*
X017024Y002609D01*
X017024Y002429D01*
X016979Y002384D01*
X016889Y002384D01*
X016844Y002429D01*
X016844Y002609D01*
X016889Y002654D01*
X016979Y002654D01*
X017024Y002609D01*
X016434Y002429D02*
X016389Y002384D01*
X016299Y002384D01*
X016254Y002429D01*
X017296Y003350D02*
X017296Y003621D01*
X017431Y003621D01*
X017476Y003575D01*
X017476Y003485D01*
X017431Y003440D01*
X017296Y003440D01*
X017386Y003440D02*
X017476Y003350D01*
X017591Y003350D02*
X017771Y003530D01*
X017771Y003575D01*
X017726Y003621D01*
X017636Y003621D01*
X017591Y003575D01*
X017591Y003350D02*
X017771Y003350D01*
X017885Y003350D02*
X018065Y003350D01*
X017975Y003350D02*
X017975Y003621D01*
X017885Y003530D01*
X017925Y003891D02*
X018105Y004071D01*
X018105Y004116D01*
X018060Y004161D01*
X017970Y004161D01*
X017925Y004116D01*
X017811Y004116D02*
X017766Y004161D01*
X017676Y004161D01*
X017631Y004116D01*
X017631Y003936D01*
X017676Y003891D01*
X017766Y003891D01*
X017811Y003936D01*
X017925Y003891D02*
X018105Y003891D01*
X018220Y003891D02*
X018400Y003891D01*
X018310Y003891D02*
X018310Y004161D01*
X018220Y004071D01*
X017142Y004392D02*
X016962Y004392D01*
X017142Y004572D01*
X017142Y004617D01*
X017097Y004662D01*
X017007Y004662D01*
X016962Y004617D01*
X016847Y004617D02*
X016802Y004662D01*
X016712Y004662D01*
X016667Y004617D01*
X016552Y004617D02*
X016552Y004527D01*
X016507Y004482D01*
X016372Y004482D01*
X016372Y004392D02*
X016372Y004662D01*
X016507Y004662D01*
X016552Y004617D01*
X016462Y004482D02*
X016552Y004392D01*
X016667Y004392D02*
X016847Y004572D01*
X016847Y004617D01*
X016847Y004392D02*
X016667Y004392D01*
X014724Y003677D02*
X014724Y003587D01*
X014679Y003542D01*
X014544Y003542D01*
X014544Y003452D02*
X014544Y003722D01*
X014679Y003722D01*
X014724Y003677D01*
X014430Y003722D02*
X014430Y003452D01*
X014250Y003452D02*
X014250Y003722D01*
X014340Y003632D01*
X014430Y003722D01*
X014135Y003632D02*
X014135Y003452D01*
X014135Y003587D02*
X013955Y003587D01*
X013955Y003632D02*
X013955Y003452D01*
X013955Y003632D02*
X014045Y003722D01*
X014135Y003632D01*
X012732Y005410D02*
X012552Y005410D01*
X012732Y005590D01*
X012732Y005635D01*
X012687Y005680D01*
X012597Y005680D01*
X012552Y005635D01*
X012438Y005635D02*
X012438Y005590D01*
X012393Y005545D01*
X012258Y005545D01*
X012393Y005545D02*
X012438Y005500D01*
X012438Y005455D01*
X012393Y005410D01*
X012258Y005410D01*
X012258Y005680D01*
X012393Y005680D01*
X012438Y005635D01*
X012143Y005680D02*
X011963Y005680D01*
X011963Y005410D01*
X011963Y005545D02*
X012053Y005545D01*
X009019Y003093D02*
X008467Y003093D01*
X008467Y002109D01*
X008133Y002109D01*
X008133Y003684D01*
X007593Y016204D02*
X007413Y016204D01*
X007503Y016204D02*
X007503Y016475D01*
X007413Y016385D01*
X007298Y016430D02*
X007253Y016475D01*
X007118Y016475D01*
X007118Y016204D01*
X007253Y016204D01*
X007298Y016249D01*
X007298Y016430D01*
X006763Y018190D02*
X006765Y018203D01*
X006770Y018216D01*
X006779Y018227D01*
X006790Y018234D01*
X006803Y018239D01*
X006816Y018240D01*
X006830Y018237D01*
X006842Y018231D01*
X006852Y018222D01*
X006859Y018210D01*
X006863Y018197D01*
X006863Y018183D01*
X006859Y018170D01*
X006852Y018158D01*
X006842Y018149D01*
X006830Y018143D01*
X006816Y018140D01*
X006803Y018141D01*
X006790Y018146D01*
X006779Y018153D01*
X006770Y018164D01*
X006765Y018177D01*
X006763Y018190D01*
D12*
X019865Y013960D02*
X019867Y014088D01*
X019873Y014216D01*
X019883Y014343D01*
X019897Y014471D01*
X019914Y014597D01*
X019936Y014723D01*
X019962Y014849D01*
X019991Y014973D01*
X020024Y015097D01*
X020061Y015219D01*
X020102Y015340D01*
X020147Y015460D01*
X020195Y015579D01*
X020247Y015696D01*
X020303Y015811D01*
X020362Y015925D01*
X020424Y016036D01*
X020490Y016146D01*
X020559Y016253D01*
X020632Y016359D01*
X020708Y016462D01*
X020787Y016562D01*
X020869Y016661D01*
X020954Y016756D01*
X021042Y016849D01*
X021133Y016939D01*
X021226Y017026D01*
X021323Y017111D01*
X021421Y017192D01*
X021523Y017270D01*
X021626Y017345D01*
X021732Y017417D01*
X021840Y017486D01*
X021950Y017551D01*
X022063Y017612D01*
X022177Y017671D01*
X022292Y017725D01*
X022410Y017776D01*
X022528Y017824D01*
X022649Y017867D01*
X022770Y017907D01*
X022893Y017943D01*
X023017Y017976D01*
X023142Y018004D01*
X023267Y018029D01*
X023393Y018049D01*
X023520Y018066D01*
X023648Y018079D01*
X023775Y018088D01*
X023903Y018093D01*
X024031Y018094D01*
X024159Y018091D01*
X024287Y018084D01*
X024414Y018073D01*
X024541Y018058D01*
X024668Y018040D01*
X024794Y018017D01*
X024919Y017990D01*
X025043Y017960D01*
X025166Y017926D01*
X025289Y017888D01*
X025410Y017846D01*
X025529Y017800D01*
X025647Y017751D01*
X025764Y017698D01*
X025879Y017642D01*
X025992Y017582D01*
X026103Y017519D01*
X026212Y017452D01*
X026319Y017382D01*
X026424Y017308D01*
X026526Y017232D01*
X026626Y017152D01*
X026724Y017069D01*
X026819Y016983D01*
X026911Y016894D01*
X027000Y016803D01*
X027087Y016709D01*
X027170Y016612D01*
X027251Y016512D01*
X027328Y016411D01*
X027403Y016306D01*
X027474Y016200D01*
X027541Y016091D01*
X027606Y015981D01*
X027666Y015868D01*
X027724Y015754D01*
X027777Y015638D01*
X027827Y015520D01*
X027874Y015401D01*
X027917Y015280D01*
X027956Y015158D01*
X027991Y015035D01*
X028022Y014911D01*
X028050Y014786D01*
X028073Y014660D01*
X028093Y014534D01*
X028109Y014407D01*
X028121Y014280D01*
X028129Y014152D01*
X028133Y014024D01*
X028133Y013896D01*
X028129Y013768D01*
X028121Y013640D01*
X028109Y013513D01*
X028093Y013386D01*
X028073Y013260D01*
X028050Y013134D01*
X028022Y013009D01*
X027991Y012885D01*
X027956Y012762D01*
X027917Y012640D01*
X027874Y012519D01*
X027827Y012400D01*
X027777Y012282D01*
X027724Y012166D01*
X027666Y012052D01*
X027606Y011939D01*
X027541Y011829D01*
X027474Y011720D01*
X027403Y011614D01*
X027328Y011509D01*
X027251Y011408D01*
X027170Y011308D01*
X027087Y011211D01*
X027000Y011117D01*
X026911Y011026D01*
X026819Y010937D01*
X026724Y010851D01*
X026626Y010768D01*
X026526Y010688D01*
X026424Y010612D01*
X026319Y010538D01*
X026212Y010468D01*
X026103Y010401D01*
X025992Y010338D01*
X025879Y010278D01*
X025764Y010222D01*
X025647Y010169D01*
X025529Y010120D01*
X025410Y010074D01*
X025289Y010032D01*
X025166Y009994D01*
X025043Y009960D01*
X024919Y009930D01*
X024794Y009903D01*
X024668Y009880D01*
X024541Y009862D01*
X024414Y009847D01*
X024287Y009836D01*
X024159Y009829D01*
X024031Y009826D01*
X023903Y009827D01*
X023775Y009832D01*
X023648Y009841D01*
X023520Y009854D01*
X023393Y009871D01*
X023267Y009891D01*
X023142Y009916D01*
X023017Y009944D01*
X022893Y009977D01*
X022770Y010013D01*
X022649Y010053D01*
X022528Y010096D01*
X022410Y010144D01*
X022292Y010195D01*
X022177Y010249D01*
X022063Y010308D01*
X021950Y010369D01*
X021840Y010434D01*
X021732Y010503D01*
X021626Y010575D01*
X021523Y010650D01*
X021421Y010728D01*
X021323Y010809D01*
X021226Y010894D01*
X021133Y010981D01*
X021042Y011071D01*
X020954Y011164D01*
X020869Y011259D01*
X020787Y011358D01*
X020708Y011458D01*
X020632Y011561D01*
X020559Y011667D01*
X020490Y011774D01*
X020424Y011884D01*
X020362Y011995D01*
X020303Y012109D01*
X020247Y012224D01*
X020195Y012341D01*
X020147Y012460D01*
X020102Y012580D01*
X020061Y012701D01*
X020024Y012823D01*
X019991Y012947D01*
X019962Y013071D01*
X019936Y013197D01*
X019914Y013323D01*
X019897Y013449D01*
X019883Y013577D01*
X019873Y013704D01*
X019867Y013832D01*
X019865Y013960D01*
D13*
X023506Y008811D02*
X023826Y008811D01*
X023826Y008591D01*
X023826Y007911D02*
X023826Y007691D01*
X023506Y007691D01*
X014940Y003857D02*
X014940Y002889D01*
X014837Y002786D02*
X013869Y002786D01*
X013771Y002889D02*
X013771Y003857D01*
X013771Y003853D02*
X013772Y003870D01*
X013777Y003887D01*
X013784Y003902D01*
X013794Y003916D01*
X013806Y003928D01*
X013820Y003938D01*
X013835Y003945D01*
X013852Y003950D01*
X013869Y003951D01*
X013869Y003952D02*
X014841Y003952D01*
X014841Y003951D02*
X014858Y003950D01*
X014875Y003945D01*
X014890Y003938D01*
X014904Y003928D01*
X014916Y003916D01*
X014926Y003902D01*
X014933Y003887D01*
X014938Y003870D01*
X014939Y003853D01*
X006425Y016726D02*
X006580Y016882D01*
X006425Y016726D02*
X006198Y016952D01*
X007061Y017363D02*
X007217Y017518D01*
X006990Y017744D01*
X008566Y023527D02*
X008653Y023527D01*
X008696Y023570D01*
X008818Y023570D02*
X008991Y023744D01*
X008991Y023570D01*
X008948Y023527D01*
X008861Y023527D01*
X008818Y023570D01*
X008818Y023744D01*
X008861Y023787D01*
X008948Y023787D01*
X008991Y023744D01*
X009112Y023744D02*
X009156Y023787D01*
X009242Y023787D01*
X009286Y023744D01*
X009286Y023700D01*
X009112Y023527D01*
X009286Y023527D01*
X008696Y023744D02*
X008653Y023787D01*
X008566Y023787D01*
X008523Y023744D01*
X008523Y023570D01*
X008566Y023527D01*
X016424Y022921D02*
X018434Y022921D01*
X018434Y021061D02*
X016424Y021061D01*
D14*
X008915Y020205D02*
X008782Y020205D01*
X008849Y020205D02*
X008849Y020405D01*
X008782Y020338D01*
X008694Y020372D02*
X008661Y020405D01*
X008594Y020405D01*
X008561Y020372D01*
X008561Y020238D01*
X008694Y020372D01*
X008694Y020238D01*
X008661Y020205D01*
X008594Y020205D01*
X008561Y020238D01*
X008473Y020205D02*
X008340Y020205D01*
X008340Y020405D01*
D15*
X008393Y001761D02*
X008720Y001761D01*
X010643Y001761D02*
X010970Y001761D01*
X010806Y001924D02*
X010806Y001598D01*
D16*
X013745Y002883D02*
X013799Y002883D01*
X013798Y002882D02*
X013800Y002867D01*
X013806Y002853D01*
X013814Y002840D01*
X013824Y002830D01*
X013837Y002822D01*
X013851Y002816D01*
X013866Y002814D01*
X013867Y002761D01*
X013866Y002760D01*
X013845Y002762D01*
X013825Y002768D01*
X013806Y002777D01*
X013788Y002789D01*
X013773Y002804D01*
X013761Y002822D01*
X013752Y002841D01*
X013746Y002861D01*
X013744Y002882D01*
X013749Y002882D01*
X013751Y002862D01*
X013757Y002842D01*
X013766Y002824D01*
X013777Y002808D01*
X013792Y002793D01*
X013808Y002782D01*
X013826Y002773D01*
X013846Y002767D01*
X013866Y002765D01*
X013866Y002770D01*
X013847Y002772D01*
X013828Y002778D01*
X013811Y002786D01*
X013795Y002797D01*
X013781Y002811D01*
X013770Y002827D01*
X013762Y002844D01*
X013756Y002863D01*
X013754Y002882D01*
X013759Y002882D01*
X013761Y002864D01*
X013766Y002846D01*
X013774Y002829D01*
X013785Y002814D01*
X013798Y002801D01*
X013813Y002790D01*
X013830Y002782D01*
X013848Y002777D01*
X013866Y002775D01*
X013866Y002780D01*
X013846Y002782D01*
X013827Y002789D01*
X013810Y002798D01*
X013795Y002811D01*
X013782Y002826D01*
X013773Y002843D01*
X013766Y002862D01*
X013764Y002882D01*
X013769Y002882D01*
X013771Y002863D01*
X013777Y002845D01*
X013786Y002829D01*
X013798Y002814D01*
X013813Y002802D01*
X013829Y002793D01*
X013847Y002787D01*
X013866Y002785D01*
X013866Y002790D01*
X013848Y002792D01*
X013831Y002798D01*
X013816Y002806D01*
X013802Y002818D01*
X013790Y002832D01*
X013782Y002847D01*
X013776Y002864D01*
X013774Y002882D01*
X013779Y002882D01*
X013781Y002865D01*
X013786Y002849D01*
X013795Y002834D01*
X013805Y002821D01*
X013818Y002811D01*
X013833Y002802D01*
X013849Y002797D01*
X013866Y002795D01*
X013866Y002800D01*
X013850Y002802D01*
X013835Y002807D01*
X013821Y002815D01*
X013809Y002825D01*
X013799Y002837D01*
X013791Y002851D01*
X013786Y002866D01*
X013784Y002882D01*
X013789Y002882D01*
X013792Y002865D01*
X013797Y002849D01*
X013807Y002835D01*
X013819Y002823D01*
X013833Y002813D01*
X013849Y002808D01*
X013866Y002805D01*
X013866Y002810D01*
X013850Y002812D01*
X013835Y002818D01*
X013822Y002827D01*
X013811Y002838D01*
X013802Y002851D01*
X013796Y002866D01*
X013794Y002882D01*
X014843Y002761D02*
X014843Y002815D01*
X014844Y002814D02*
X014859Y002816D01*
X014873Y002822D01*
X014886Y002830D01*
X014896Y002840D01*
X014904Y002853D01*
X014910Y002867D01*
X014912Y002882D01*
X014965Y002883D01*
X014966Y002882D01*
X014964Y002861D01*
X014958Y002841D01*
X014949Y002822D01*
X014937Y002804D01*
X014922Y002789D01*
X014904Y002777D01*
X014885Y002768D01*
X014865Y002762D01*
X014844Y002760D01*
X014844Y002765D01*
X014864Y002767D01*
X014884Y002773D01*
X014902Y002782D01*
X014918Y002793D01*
X014933Y002808D01*
X014944Y002824D01*
X014953Y002842D01*
X014959Y002862D01*
X014961Y002882D01*
X014956Y002882D01*
X014954Y002863D01*
X014948Y002844D01*
X014940Y002827D01*
X014929Y002811D01*
X014915Y002797D01*
X014899Y002786D01*
X014882Y002778D01*
X014863Y002772D01*
X014844Y002770D01*
X014844Y002775D01*
X014862Y002777D01*
X014880Y002782D01*
X014897Y002790D01*
X014912Y002801D01*
X014925Y002814D01*
X014936Y002829D01*
X014944Y002846D01*
X014949Y002864D01*
X014951Y002882D01*
X014946Y002882D01*
X014944Y002862D01*
X014937Y002843D01*
X014928Y002826D01*
X014915Y002811D01*
X014900Y002798D01*
X014883Y002789D01*
X014864Y002782D01*
X014844Y002780D01*
X014844Y002785D01*
X014863Y002787D01*
X014881Y002793D01*
X014897Y002802D01*
X014912Y002814D01*
X014924Y002829D01*
X014933Y002845D01*
X014939Y002863D01*
X014941Y002882D01*
X014936Y002882D01*
X014934Y002864D01*
X014928Y002847D01*
X014920Y002832D01*
X014908Y002818D01*
X014894Y002806D01*
X014879Y002798D01*
X014862Y002792D01*
X014844Y002790D01*
X014844Y002795D01*
X014861Y002797D01*
X014877Y002802D01*
X014892Y002811D01*
X014905Y002821D01*
X014915Y002834D01*
X014924Y002849D01*
X014929Y002865D01*
X014931Y002882D01*
X014926Y002882D01*
X014924Y002866D01*
X014919Y002851D01*
X014911Y002837D01*
X014901Y002825D01*
X014889Y002815D01*
X014875Y002807D01*
X014860Y002802D01*
X014844Y002800D01*
X014844Y002805D01*
X014861Y002808D01*
X014877Y002813D01*
X014891Y002823D01*
X014903Y002835D01*
X014913Y002849D01*
X014918Y002865D01*
X014921Y002882D01*
X014916Y002882D01*
X014914Y002866D01*
X014908Y002851D01*
X014899Y002838D01*
X014888Y002827D01*
X014875Y002818D01*
X014860Y002812D01*
X014844Y002810D01*
D17*
X014481Y003113D02*
X014483Y003135D01*
X014489Y003157D01*
X014498Y003177D01*
X014511Y003195D01*
X014527Y003211D01*
X014545Y003224D01*
X014565Y003233D01*
X014587Y003239D01*
X014609Y003241D01*
X014631Y003239D01*
X014653Y003233D01*
X014673Y003224D01*
X014691Y003211D01*
X014707Y003195D01*
X014720Y003177D01*
X014729Y003157D01*
X014735Y003135D01*
X014737Y003113D01*
X014735Y003091D01*
X014729Y003069D01*
X014720Y003049D01*
X014707Y003031D01*
X014691Y003015D01*
X014673Y003002D01*
X014653Y002993D01*
X014631Y002987D01*
X014609Y002985D01*
X014587Y002987D01*
X014565Y002993D01*
X014545Y003002D01*
X014527Y003015D01*
X014511Y003031D01*
X014498Y003049D01*
X014489Y003069D01*
X014483Y003091D01*
X014481Y003113D01*
M02*
