G75*
%MOIN*%
%OFA0B0*%
%FSLAX24Y24*%
%IPPOS*%
%LPD*%
%AMOC8*
5,1,8,0,0,1.08239X$1,22.5*
%
%ADD10R,0.0231X0.0226*%
%ADD11R,0.0241X0.0225*%
%ADD12R,0.0240X0.0239*%
%ADD13R,0.0234X0.0242*%
%ADD14R,0.0134X0.0134*%
%ADD15C,0.0105*%
%ADD16R,0.0984X0.0394*%
%ADD17R,0.2362X0.0984*%
%ADD18R,0.0630X0.0157*%
%ADD19R,0.0618X0.0744*%
%ADD20R,0.0433X0.0394*%
%ADD21R,0.0394X0.0433*%
%ADD22R,0.0315X0.0354*%
%ADD23R,0.0240X0.0870*%
%ADD24R,0.0394X0.0394*%
%ADD25R,0.0315X0.0315*%
%ADD26R,0.0472X0.0315*%
%ADD27R,0.0315X0.0472*%
%ADD28R,0.0256X0.0866*%
%ADD29R,0.1811X0.0394*%
%ADD30R,0.1339X0.0630*%
D10*
X010760Y014787D03*
D11*
X010461Y014786D03*
D12*
X010462Y015088D03*
D13*
X010756Y015085D03*
D14*
X011099Y015438D03*
X010102Y015438D03*
X010102Y014442D03*
X011102Y014442D03*
D15*
X011194Y014642D02*
X011194Y014648D01*
X011194Y014642D02*
X011058Y014642D01*
X011058Y014648D01*
X011194Y014648D01*
X011194Y014838D02*
X011194Y014844D01*
X011194Y014838D02*
X011058Y014838D01*
X011058Y014844D01*
X011194Y014844D01*
X011194Y015035D02*
X011194Y015041D01*
X011194Y015035D02*
X011058Y015035D01*
X011058Y015041D01*
X011194Y015041D01*
X011194Y015232D02*
X011194Y015238D01*
X011194Y015232D02*
X011058Y015232D01*
X011058Y015238D01*
X011194Y015238D01*
X010899Y015397D02*
X010893Y015397D01*
X010893Y015533D01*
X010899Y015533D01*
X010899Y015397D01*
X010899Y015501D02*
X010893Y015501D01*
X010702Y015397D02*
X010696Y015397D01*
X010696Y015533D01*
X010702Y015533D01*
X010702Y015397D01*
X010702Y015501D02*
X010696Y015501D01*
X010505Y015397D02*
X010499Y015397D01*
X010499Y015533D01*
X010505Y015533D01*
X010505Y015397D01*
X010505Y015501D02*
X010499Y015501D01*
X010308Y015397D02*
X010302Y015397D01*
X010302Y015533D01*
X010308Y015533D01*
X010308Y015397D01*
X010308Y015501D02*
X010302Y015501D01*
X010007Y015238D02*
X010007Y015232D01*
X010007Y015238D02*
X010143Y015238D01*
X010143Y015232D01*
X010007Y015232D01*
X010007Y015041D02*
X010007Y015035D01*
X010007Y015041D02*
X010143Y015041D01*
X010143Y015035D01*
X010007Y015035D01*
X010007Y014844D02*
X010007Y014838D01*
X010007Y014844D02*
X010143Y014844D01*
X010143Y014838D01*
X010007Y014838D01*
X010007Y014648D02*
X010007Y014642D01*
X010007Y014648D02*
X010143Y014648D01*
X010143Y014642D01*
X010007Y014642D01*
X010302Y014482D02*
X010308Y014482D01*
X010308Y014346D01*
X010302Y014346D01*
X010302Y014482D01*
X010308Y014450D02*
X010302Y014450D01*
X010499Y014482D02*
X010505Y014482D01*
X010505Y014346D01*
X010499Y014346D01*
X010499Y014482D01*
X010505Y014450D02*
X010499Y014450D01*
X010696Y014482D02*
X010702Y014482D01*
X010702Y014346D01*
X010696Y014346D01*
X010696Y014482D01*
X010702Y014450D02*
X010696Y014450D01*
X010893Y014482D02*
X010899Y014482D01*
X010899Y014346D01*
X010893Y014346D01*
X010893Y014482D01*
X010899Y014450D02*
X010893Y014450D01*
D16*
X008054Y014440D03*
X008054Y015440D03*
D17*
X006054Y014940D03*
D18*
X048054Y005931D03*
X048054Y005675D03*
X048054Y005419D03*
X048054Y005163D03*
X049708Y005163D03*
X049708Y005419D03*
X049708Y005675D03*
X049708Y005931D03*
D19*
X048881Y005547D03*
D20*
X050742Y004318D03*
X050742Y003649D03*
X050984Y006332D03*
X050984Y007001D03*
X052125Y007021D03*
X052125Y006352D03*
X046035Y007156D03*
X045366Y007156D03*
X045495Y022227D03*
X045495Y022897D03*
X046415Y022882D03*
X046415Y022212D03*
X010659Y011898D03*
X009989Y011898D03*
D21*
X051004Y008523D03*
X051004Y007853D03*
X052125Y007873D03*
X052125Y008542D03*
X051862Y004345D03*
X051862Y003676D03*
D22*
X039840Y008111D03*
X039092Y008111D03*
X039466Y008937D03*
X015668Y016268D03*
X014920Y016268D03*
X015294Y015441D03*
D23*
X045404Y025050D03*
X045904Y025050D03*
X046404Y025050D03*
X046904Y025050D03*
X046904Y027700D03*
X046404Y027700D03*
X045904Y027700D03*
X045404Y027700D03*
D24*
X053838Y020757D03*
X054468Y020757D03*
X054468Y019182D03*
X053838Y019182D03*
D25*
X046415Y020362D03*
X046415Y020952D03*
D26*
X003775Y002963D03*
X003775Y003671D03*
X003781Y004183D03*
X003781Y004892D03*
X013256Y015072D03*
X013256Y015781D03*
X014083Y015944D03*
X014083Y016652D03*
X014084Y015440D03*
X014084Y014731D03*
X012497Y018415D03*
X011887Y018408D03*
X011296Y018408D03*
X010705Y018396D03*
X010115Y018396D03*
X009486Y018396D03*
X008895Y018389D03*
X008246Y018389D03*
X008246Y019097D03*
X008895Y019097D03*
X009486Y019104D03*
X010115Y019104D03*
X010705Y019104D03*
X011296Y019117D03*
X011887Y019117D03*
X012497Y019124D03*
D27*
X008856Y017419D03*
X008856Y016798D03*
X008147Y016798D03*
X008147Y017419D03*
X008310Y016160D03*
X007601Y016160D03*
X007601Y013689D03*
X008310Y013689D03*
X008088Y012687D03*
X008797Y012687D03*
X008797Y011811D03*
X008088Y011811D03*
X008275Y009629D03*
X008984Y009629D03*
X011864Y014649D03*
X012573Y014649D03*
X044000Y025780D03*
X044708Y025780D03*
X044708Y026680D03*
X044000Y026680D03*
X048119Y007775D03*
X048828Y007775D03*
X048828Y006905D03*
X048119Y006905D03*
X046071Y006164D03*
X045363Y006164D03*
X045377Y005141D03*
X046086Y005141D03*
X047074Y004114D03*
X047782Y004114D03*
X047763Y003263D03*
X047054Y003263D03*
D28*
X036578Y007460D03*
X036578Y008916D03*
D29*
X042601Y003113D03*
X042601Y002326D03*
D30*
X040554Y001381D03*
X040554Y004058D03*
M02*
