G75*
%MOIN*%
%OFA0B0*%
%FSLAX24Y24*%
%IPPOS*%
%LPD*%
%AMOC8*
5,1,8,0,0,1.08239X$1,22.5*
%
%ADD10C,0.0820*%
%ADD11C,0.4017*%
%ADD12C,0.1025*%
%ADD13C,0.1582*%
%ADD14R,0.0820X0.0820*%
%ADD15OC8,0.0820*%
%ADD16C,0.0820*%
%ADD17C,0.1130*%
%ADD18R,0.0634X0.0634*%
%ADD19C,0.0634*%
%ADD20C,0.0867*%
%ADD21C,0.1340*%
%ADD22C,0.0476*%
D10*
X003790Y005713D03*
X008234Y008367D03*
X002070Y012680D03*
X002170Y013680D03*
X002070Y014680D03*
X002170Y015680D03*
X002070Y016680D03*
X002170Y017680D03*
X002070Y018680D03*
X002170Y019680D03*
X002070Y020680D03*
X002170Y021680D03*
X010734Y021869D03*
X014926Y020589D03*
X013274Y025833D03*
X012546Y002319D03*
X054377Y003309D03*
X054751Y030984D03*
D11*
X018954Y015180D03*
D12*
X034920Y015180D02*
X035865Y015180D01*
X035475Y013113D02*
X036420Y013113D01*
X036420Y017247D02*
X035475Y017247D01*
D13*
X038303Y019314D02*
X039805Y019314D01*
X039805Y011046D02*
X038303Y011046D01*
D14*
X053754Y027480D03*
D15*
X054754Y027480D03*
X054754Y026480D03*
X053754Y026480D03*
X053754Y025480D03*
X054754Y025480D03*
D16*
X034215Y031104D02*
X034215Y031844D01*
X033215Y031844D02*
X033215Y031104D01*
D17*
X031679Y035480D02*
X030629Y035480D01*
X028679Y035480D02*
X027629Y035480D01*
X035229Y035480D02*
X036279Y035480D01*
X038229Y035480D02*
X039279Y035480D01*
X051429Y035480D02*
X052479Y035480D01*
X054429Y035480D02*
X055479Y035480D01*
X015479Y035480D02*
X014429Y035480D01*
X012479Y035480D02*
X011429Y035480D01*
D18*
X014727Y011834D03*
D19*
X012956Y013605D03*
D20*
X024184Y010310D03*
X033924Y010310D03*
X033924Y020050D03*
X024184Y020050D03*
D21*
X024134Y012350D03*
X033974Y012350D03*
D22*
X001322Y001341D03*
X003802Y002424D03*
X010121Y001341D03*
X018684Y001381D03*
X026735Y004156D03*
X028487Y001263D03*
X031184Y003507D03*
X031086Y008074D03*
X029235Y009668D03*
X022050Y007975D03*
X014196Y013664D03*
X015377Y014412D03*
X013231Y016519D03*
X012562Y017089D03*
X011794Y016617D03*
X012463Y015790D03*
X011814Y015337D03*
X011499Y014058D03*
X011676Y013133D03*
X011086Y013093D03*
X010377Y013349D03*
X009609Y012798D03*
X009649Y014038D03*
X009117Y014255D03*
X009097Y014944D03*
X009058Y015652D03*
X009708Y015830D03*
X010160Y016676D03*
X010416Y017365D03*
X010692Y017818D03*
X009491Y017109D03*
X007680Y017897D03*
X007227Y016991D03*
X007050Y016145D03*
X005593Y017149D03*
X005593Y018152D03*
X005593Y019176D03*
X007149Y021007D03*
X008408Y021007D03*
X008448Y019589D03*
X009471Y019629D03*
X013034Y019668D03*
X014097Y017345D03*
X015731Y016932D03*
X011676Y011145D03*
X008920Y010633D03*
X007778Y010278D03*
X007523Y012227D03*
X007070Y013684D03*
X001223Y009747D03*
X001046Y022542D03*
X001263Y030790D03*
X001420Y038448D03*
X016223Y038526D03*
X026873Y038526D03*
X039609Y038664D03*
X050771Y038448D03*
X057129Y038487D03*
X057247Y030908D03*
X047660Y028960D03*
X046400Y028960D03*
X044904Y028251D03*
X045672Y026538D03*
X043605Y026204D03*
X047523Y025003D03*
X047582Y027641D03*
X057070Y022582D03*
X046637Y015141D03*
X049334Y008290D03*
X049353Y006519D03*
X047024Y006905D03*
X047030Y005633D03*
X048881Y004708D03*
X048507Y004117D03*
X046381Y003704D03*
X047306Y001243D03*
X056991Y001538D03*
X056991Y008034D03*
X056912Y014806D03*
X038172Y008251D03*
M02*
