G75*
%MOIN*%
%OFA0B0*%
%FSLAX24Y24*%
%IPPOS*%
%LPD*%
%AMOC8*
5,1,8,0,0,1.08239X$1,22.5*
%
%ADD10C,0.1320*%
%ADD11C,0.0162*%
%ADD12R,0.0194X0.0194*%
%ADD13C,0.0050*%
%ADD14R,0.0493X0.0454*%
%ADD15R,0.0454X0.0493*%
%ADD16C,0.3997*%
%ADD17C,0.1005*%
%ADD18C,0.1562*%
%ADD19R,0.0930X0.0300*%
%ADD20R,0.0800X0.0800*%
%ADD21OC8,0.0800*%
%ADD22R,0.0651X0.0572*%
%ADD23R,0.0454X0.0611*%
%ADD24C,0.1110*%
%ADD25R,0.0572X0.0651*%
%ADD26R,0.0454X0.1871*%
%ADD27R,0.0690X0.1399*%
%ADD28R,0.0670X0.0572*%
%ADD29R,0.1084X0.0454*%
%ADD30R,0.0572X0.0808*%
%ADD31R,0.0611X0.0454*%
%ADD32C,0.0847*%
%ADD33C,0.2029*%
%ADD34R,0.0690X0.0217*%
%ADD35R,0.0678X0.0804*%
%ADD36C,0.0357*%
%ADD37C,0.0414*%
%ADD38C,0.0260*%
%ADD39C,0.0278*%
D10*
X006086Y010416D03*
X009040Y011130D03*
X018880Y011130D03*
D11*
X011070Y021987D02*
X011062Y021987D01*
X011062Y022125D01*
X011070Y022125D01*
X011070Y021987D01*
X010873Y021987D02*
X010865Y021987D01*
X010865Y022125D01*
X010873Y022125D01*
X010873Y021987D01*
X010676Y021987D02*
X010668Y021987D01*
X010668Y022125D01*
X010676Y022125D01*
X010676Y021987D01*
X010479Y021987D02*
X010471Y021987D01*
X010471Y022125D01*
X010479Y022125D01*
X010479Y021987D01*
X010314Y022282D02*
X010314Y022290D01*
X010314Y022282D02*
X010176Y022282D01*
X010176Y022290D01*
X010314Y022290D01*
X010314Y022479D02*
X010314Y022487D01*
X010314Y022479D02*
X010176Y022479D01*
X010176Y022487D01*
X010314Y022487D01*
X010314Y022676D02*
X010314Y022684D01*
X010314Y022676D02*
X010176Y022676D01*
X010176Y022684D01*
X010314Y022684D01*
X010314Y022873D02*
X010314Y022881D01*
X010314Y022873D02*
X010176Y022873D01*
X010176Y022881D01*
X010314Y022881D01*
X010471Y023176D02*
X010479Y023176D01*
X010479Y023038D01*
X010471Y023038D01*
X010471Y023176D01*
X010668Y023176D02*
X010676Y023176D01*
X010676Y023038D01*
X010668Y023038D01*
X010668Y023176D01*
X010865Y023176D02*
X010873Y023176D01*
X010873Y023038D01*
X010865Y023038D01*
X010865Y023176D01*
X011062Y023176D02*
X011070Y023176D01*
X011070Y023038D01*
X011062Y023038D01*
X011062Y023176D01*
X011227Y022881D02*
X011227Y022873D01*
X011227Y022881D02*
X011365Y022881D01*
X011365Y022873D01*
X011227Y022873D01*
X011227Y022684D02*
X011227Y022676D01*
X011227Y022684D02*
X011365Y022684D01*
X011365Y022676D01*
X011227Y022676D01*
X011227Y022487D02*
X011227Y022479D01*
X011227Y022487D02*
X011365Y022487D01*
X011365Y022479D01*
X011227Y022479D01*
X011227Y022290D02*
X011227Y022282D01*
X011227Y022290D02*
X011365Y022290D01*
X011365Y022282D01*
X011227Y022282D01*
D12*
X011269Y022084D03*
X011269Y023080D03*
X010273Y023080D03*
X010273Y022080D03*
D13*
X010483Y022294D02*
X010483Y022869D01*
X011058Y022869D01*
X011058Y022294D01*
X010483Y022294D01*
X010483Y022296D02*
X011058Y022296D01*
X011058Y022345D02*
X010483Y022345D01*
X010483Y022393D02*
X011058Y022393D01*
X011058Y022442D02*
X010483Y022442D01*
X010483Y022490D02*
X011058Y022490D01*
X011058Y022539D02*
X010483Y022539D01*
X010483Y022587D02*
X011058Y022587D01*
X011058Y022636D02*
X010483Y022636D01*
X010483Y022684D02*
X011058Y022684D01*
X011058Y022733D02*
X010483Y022733D01*
X010483Y022781D02*
X011058Y022781D01*
X011058Y022830D02*
X010483Y022830D01*
X012919Y026256D02*
X012975Y026217D01*
X013037Y026188D01*
X013104Y026170D01*
X013172Y026164D01*
X013240Y026170D01*
X013307Y026188D01*
X013369Y026217D01*
X013425Y026256D01*
X013474Y026305D01*
X013513Y026361D01*
X013542Y026423D01*
X013560Y026490D01*
X013566Y026558D01*
X013560Y026626D01*
X013542Y026693D01*
X013513Y026755D01*
X013474Y026811D01*
X013425Y026860D01*
X013369Y026899D01*
X013307Y026928D01*
X013240Y026946D01*
X013172Y026952D01*
X013104Y026946D01*
X013037Y026928D01*
X012975Y026899D01*
X012919Y026860D01*
X012871Y026811D01*
X012831Y026755D01*
X012802Y026693D01*
X012784Y026626D01*
X012778Y026558D01*
X012784Y026490D01*
X012802Y026423D01*
X012831Y026361D01*
X012871Y026305D01*
X012919Y026256D01*
X012902Y026273D02*
X013442Y026273D01*
X013485Y026322D02*
X012859Y026322D01*
X012827Y026370D02*
X013517Y026370D01*
X013540Y026419D02*
X012804Y026419D01*
X012790Y026467D02*
X013554Y026467D01*
X013562Y026516D02*
X012782Y026516D01*
X012779Y026564D02*
X013565Y026564D01*
X013561Y026613D02*
X012783Y026613D01*
X012794Y026661D02*
X013551Y026661D01*
X013534Y026710D02*
X012810Y026710D01*
X012834Y026758D02*
X013511Y026758D01*
X013477Y026807D02*
X012867Y026807D01*
X012915Y026855D02*
X013430Y026855D01*
X013359Y026904D02*
X012985Y026904D01*
X012964Y026225D02*
X013380Y026225D01*
X013263Y026176D02*
X013082Y026176D01*
X026099Y014173D02*
X026060Y014117D01*
X026031Y014055D01*
X026013Y013989D01*
X026007Y013920D01*
X026013Y013852D01*
X026031Y013786D01*
X026060Y013723D01*
X026099Y013667D01*
X026147Y013619D01*
X026204Y013579D01*
X026266Y013550D01*
X026332Y013532D01*
X026400Y013526D01*
X026469Y013532D01*
X026535Y013550D01*
X026597Y013579D01*
X026654Y013619D01*
X026702Y013667D01*
X026741Y013723D01*
X026770Y013786D01*
X026788Y013852D01*
X026794Y013920D01*
X026788Y013989D01*
X026770Y014055D01*
X026741Y014117D01*
X026702Y014173D01*
X026654Y014222D01*
X026597Y014261D01*
X026535Y014290D01*
X026469Y014308D01*
X026400Y014314D01*
X026332Y014308D01*
X026266Y014290D01*
X026204Y014261D01*
X026147Y014222D01*
X026099Y014173D01*
X026081Y014148D02*
X026720Y014148D01*
X026750Y014100D02*
X026051Y014100D01*
X026030Y014051D02*
X026771Y014051D01*
X026784Y014003D02*
X026017Y014003D01*
X026010Y013954D02*
X026791Y013954D01*
X026793Y013906D02*
X026008Y013906D01*
X026012Y013857D02*
X026789Y013857D01*
X026777Y013809D02*
X026024Y013809D01*
X026042Y013760D02*
X026759Y013760D01*
X026733Y013712D02*
X026068Y013712D01*
X026103Y013663D02*
X026698Y013663D01*
X026648Y013615D02*
X026153Y013615D01*
X026232Y013566D02*
X026569Y013566D01*
X026679Y014197D02*
X026122Y014197D01*
X026181Y014245D02*
X026620Y014245D01*
X026522Y014294D02*
X026279Y014294D01*
X007214Y003920D02*
X007243Y003858D01*
X007261Y003792D01*
X007267Y003723D01*
X007261Y003655D01*
X007243Y003589D01*
X007214Y003526D01*
X007175Y003470D01*
X007126Y003422D01*
X007070Y003382D01*
X007008Y003353D01*
X006941Y003336D01*
X006873Y003330D01*
X006805Y003336D01*
X006738Y003353D01*
X006676Y003382D01*
X006620Y003422D01*
X006571Y003470D01*
X006532Y003526D01*
X006503Y003589D01*
X006485Y003655D01*
X006479Y003723D01*
X006485Y003792D01*
X006503Y003858D01*
X006532Y003920D01*
X006571Y003976D01*
X006620Y004025D01*
X006676Y004064D01*
X006738Y004093D01*
X006805Y004111D01*
X006873Y004117D01*
X006941Y004111D01*
X007008Y004093D01*
X007070Y004064D01*
X007126Y004025D01*
X007175Y003976D01*
X007214Y003920D01*
X007216Y003915D02*
X006529Y003915D01*
X006507Y003866D02*
X007239Y003866D01*
X007254Y003818D02*
X006492Y003818D01*
X006483Y003769D02*
X007263Y003769D01*
X007266Y003721D02*
X006479Y003721D01*
X006484Y003672D02*
X007262Y003672D01*
X007252Y003624D02*
X006494Y003624D01*
X006509Y003575D02*
X007237Y003575D01*
X007214Y003527D02*
X006532Y003527D01*
X006566Y003478D02*
X007180Y003478D01*
X007134Y003430D02*
X006612Y003430D01*
X006679Y003381D02*
X007067Y003381D01*
X006906Y003333D02*
X006840Y003333D01*
X006562Y003963D02*
X007184Y003963D01*
X007139Y004012D02*
X006606Y004012D01*
X006670Y004060D02*
X007076Y004060D01*
X006951Y004109D02*
X006795Y004109D01*
D14*
X012089Y004235D03*
X012089Y003763D03*
X012089Y003251D03*
X012759Y003251D03*
X012759Y003763D03*
X012759Y004235D03*
X014019Y004393D03*
X014688Y004393D03*
X015357Y004471D03*
X015357Y005023D03*
X016026Y005023D03*
X016026Y004471D03*
X016578Y003960D03*
X016341Y003448D03*
X016341Y002975D03*
X017011Y002975D03*
X017011Y003448D03*
X017247Y003960D03*
X015751Y001755D03*
X015082Y001755D03*
X014688Y002424D03*
X014019Y002424D03*
X014176Y006400D03*
X013507Y006400D03*
X012956Y007109D03*
X012286Y007109D03*
X012129Y020534D03*
X012129Y021086D03*
X011893Y021597D03*
X012562Y021597D03*
X013546Y021597D03*
X013546Y022070D03*
X013546Y022542D03*
X013546Y023015D03*
X014215Y023015D03*
X014215Y022542D03*
X014215Y022070D03*
X014215Y021597D03*
X013979Y020534D03*
X013310Y020534D03*
X011460Y020534D03*
X011460Y021086D03*
X010200Y020928D03*
X010200Y021440D03*
X009530Y021440D03*
X009530Y020928D03*
X011751Y023026D03*
X011936Y023645D03*
X012420Y023026D03*
X011267Y023645D03*
X011263Y024314D03*
X011932Y024314D03*
X010239Y024314D03*
X009570Y024314D03*
X009570Y023645D03*
X010239Y023645D03*
X015830Y020534D03*
X016499Y020534D03*
X017011Y020534D03*
X017680Y020534D03*
X018467Y020652D03*
X019137Y020652D03*
D15*
X013841Y023979D03*
X013841Y024649D03*
X024589Y020200D03*
X024589Y019530D03*
X025456Y019530D03*
X025456Y020200D03*
D16*
X003920Y013960D03*
D17*
X019865Y013960D02*
X020810Y013960D01*
X020420Y016026D02*
X021365Y016026D01*
X021365Y011893D02*
X020420Y011893D01*
D18*
X023248Y009826D02*
X024750Y009826D01*
X024750Y018093D02*
X023248Y018093D01*
D19*
X018754Y021241D03*
X018754Y021741D03*
X018754Y022241D03*
X018754Y022741D03*
X016104Y022741D03*
X016104Y022241D03*
X016104Y021741D03*
X016104Y021241D03*
D20*
X018424Y024956D03*
D21*
X018424Y025956D03*
X017424Y025956D03*
X016424Y025956D03*
X016424Y024956D03*
X017424Y024956D03*
D22*
X008841Y021460D03*
X008841Y020790D03*
D23*
G36*
X006219Y017932D02*
X006540Y018253D01*
X006971Y017822D01*
X006650Y017501D01*
X006219Y017932D01*
G37*
G36*
X005690Y017403D02*
X006011Y017724D01*
X006442Y017293D01*
X006121Y016972D01*
X005690Y017403D01*
G37*
G36*
X006567Y017055D02*
X006888Y017376D01*
X007319Y016945D01*
X006998Y016624D01*
X006567Y017055D01*
G37*
D24*
X006835Y021243D02*
X007885Y021243D01*
X004885Y021243D02*
X003835Y021243D01*
X003835Y006676D02*
X004885Y006676D01*
X006835Y006676D02*
X007885Y006676D01*
X020035Y006676D02*
X021085Y006676D01*
X023035Y006676D02*
X024085Y006676D01*
X024085Y021243D02*
X023035Y021243D01*
X021085Y021243D02*
X020035Y021243D01*
D25*
X012759Y004944D03*
X012089Y004944D03*
X012093Y002519D03*
X012763Y002519D03*
D26*
X010101Y002424D03*
X009314Y002424D03*
D27*
X008369Y004471D03*
X011046Y004471D03*
D28*
G36*
X021851Y021713D02*
X021303Y022097D01*
X021631Y022565D01*
X022179Y022181D01*
X021851Y021713D01*
G37*
G36*
X022867Y023165D02*
X022319Y023549D01*
X022647Y024017D01*
X023195Y023633D01*
X022867Y023165D01*
G37*
G36*
X020304Y024960D02*
X019756Y025344D01*
X020084Y025812D01*
X020632Y025428D01*
X020304Y024960D01*
G37*
G36*
X019287Y023509D02*
X018739Y023893D01*
X019067Y024361D01*
X019615Y023977D01*
X019287Y023509D01*
G37*
D29*
X018802Y005692D03*
X016991Y005692D03*
D30*
X011971Y024975D03*
X011971Y026235D03*
X009806Y026235D03*
X009806Y024975D03*
D31*
X023133Y008625D03*
X023133Y007877D03*
X023999Y008251D03*
D32*
X018830Y009090D03*
X018830Y018830D03*
X009090Y018830D03*
D33*
X009090Y009090D03*
D34*
X013526Y003753D03*
X013526Y003497D03*
X013526Y003241D03*
X013526Y002985D03*
X015180Y002985D03*
X015180Y003241D03*
X015180Y003497D03*
X015180Y003753D03*
D35*
X014353Y003369D03*
D36*
X014432Y021125D03*
X015416Y022227D03*
X013814Y025239D03*
X014117Y027089D03*
X010802Y023956D03*
X018802Y023349D03*
X019471Y021952D03*
X021715Y024767D03*
D37*
X005731Y003625D03*
X007778Y002306D03*
X008763Y005652D03*
X010554Y006400D03*
X011400Y006046D03*
X012897Y005849D03*
X013487Y005101D03*
X013369Y004314D03*
X014393Y005377D03*
X016007Y005574D03*
X017050Y006794D03*
X016834Y007385D03*
X016007Y007345D03*
X014196Y007149D03*
X015908Y009274D03*
X019078Y012286D03*
X020593Y013015D03*
X021774Y012660D03*
X021656Y014944D03*
X020790Y017149D03*
X021617Y018802D03*
X018428Y016243D03*
X018960Y014058D03*
X021086Y010023D03*
X022227Y009078D03*
X025278Y007306D03*
X025436Y008743D03*
X026853Y011282D03*
X027011Y015731D03*
X026105Y018960D03*
X020534Y023487D03*
X019944Y023467D03*
X019471Y023211D03*
X018172Y023251D03*
X017306Y024117D03*
X016794Y024019D03*
X016794Y023113D03*
X015534Y023586D03*
X015062Y023330D03*
X014708Y023015D03*
X014708Y022070D03*
X015064Y021241D03*
X014944Y020692D03*
X014550Y020515D03*
X015141Y020121D03*
X013920Y019097D03*
X012739Y020534D03*
X012089Y019629D03*
X011381Y019235D03*
X011263Y020023D03*
X011479Y018389D03*
X009393Y015987D03*
X007956Y015889D03*
X007168Y015259D03*
X005475Y016952D03*
X006420Y018881D03*
X003487Y017956D03*
X002582Y019885D03*
X001400Y016420D03*
X001400Y011538D03*
X002503Y008428D03*
X006794Y012070D03*
X009215Y012227D03*
X011420Y009471D03*
X016066Y003881D03*
X015771Y003483D03*
X015298Y002424D03*
X015318Y000889D03*
X013723Y000810D03*
X013487Y001834D03*
X012188Y000849D03*
X011519Y001912D03*
X017247Y001243D03*
X019570Y004235D03*
X021538Y004235D03*
X017798Y005219D03*
X016361Y018428D03*
X016637Y019924D03*
X013054Y021617D03*
X013259Y023526D03*
X013369Y023960D03*
X012774Y024436D03*
X012975Y025463D03*
X010991Y025719D03*
X010578Y026751D03*
X008834Y024747D03*
X007989Y024111D03*
X008924Y023015D03*
X009353Y022582D03*
X010771Y023487D03*
X010731Y024515D03*
X007897Y025672D03*
X006755Y024963D03*
X005731Y024255D03*
X015416Y025318D03*
X015534Y024452D03*
X015613Y026263D03*
X017109Y026853D03*
X019471Y026026D03*
D38*
X014609Y023487D03*
X014176Y024314D03*
X013113Y022936D03*
X012759Y022385D03*
X012089Y022424D03*
X011105Y021519D03*
X010913Y022444D03*
X010908Y022719D03*
X010633Y022719D03*
X010633Y022444D03*
X012956Y020849D03*
D39*
X012424Y023448D03*
M02*
