G75*
%MOIN*%
%OFA0B0*%
%FSLAX24Y24*%
%IPPOS*%
%LPD*%
%AMOC8*
5,1,8,0,0,1.08239X$1,22.5*
%
%ADD10C,0.1320*%
%ADD11C,0.3997*%
%ADD12C,0.1005*%
%ADD13C,0.1562*%
%ADD14R,0.0800X0.0800*%
%ADD15OC8,0.0800*%
%ADD16C,0.1110*%
%ADD17C,0.0847*%
%ADD18C,0.2029*%
%ADD19C,0.0357*%
%ADD20C,0.0414*%
%ADD21C,0.0260*%
%ADD22C,0.0278*%
D10*
X006086Y010416D03*
X009040Y011130D03*
X018880Y011130D03*
D11*
X003920Y013960D03*
D12*
X019865Y013960D02*
X020810Y013960D01*
X020420Y016026D02*
X021365Y016026D01*
X021365Y011893D02*
X020420Y011893D01*
D13*
X023248Y009826D02*
X024750Y009826D01*
X024750Y018093D02*
X023248Y018093D01*
D14*
X018424Y024956D03*
D15*
X018424Y025956D03*
X017424Y025956D03*
X016424Y025956D03*
X016424Y024956D03*
X017424Y024956D03*
D16*
X020035Y021243D02*
X021085Y021243D01*
X023035Y021243D02*
X024085Y021243D01*
X024085Y006676D02*
X023035Y006676D01*
X021085Y006676D02*
X020035Y006676D01*
X007885Y006676D02*
X006835Y006676D01*
X004885Y006676D02*
X003835Y006676D01*
X003835Y021243D02*
X004885Y021243D01*
X006835Y021243D02*
X007885Y021243D01*
D17*
X009090Y018830D03*
X004353Y017739D03*
X014747Y024196D03*
X014747Y025377D03*
X014747Y026558D03*
X015534Y026952D03*
X019865Y025377D03*
X019865Y024196D03*
X021046Y024196D03*
X018830Y018830D03*
X023999Y013960D03*
X023999Y011991D03*
X026164Y009826D03*
X021046Y010810D03*
X018830Y009090D03*
X015101Y007149D03*
X012109Y006164D03*
X011519Y001243D03*
X019078Y013172D03*
X026164Y018093D03*
D18*
X009090Y009090D03*
D19*
X014432Y021125D03*
X015416Y022227D03*
X013814Y025239D03*
X014117Y027089D03*
X010802Y023956D03*
X018802Y023349D03*
X019471Y021952D03*
X021715Y024767D03*
D20*
X005731Y003625D03*
X007778Y002306D03*
X008763Y005652D03*
X010554Y006400D03*
X011400Y006046D03*
X012897Y005849D03*
X013487Y005101D03*
X013369Y004314D03*
X014393Y005377D03*
X016007Y005574D03*
X017050Y006794D03*
X016834Y007385D03*
X016007Y007345D03*
X014196Y007149D03*
X015908Y009274D03*
X019078Y012286D03*
X020593Y013015D03*
X021774Y012660D03*
X021656Y014944D03*
X020790Y017149D03*
X021617Y018802D03*
X018428Y016243D03*
X018960Y014058D03*
X021086Y010023D03*
X022227Y009078D03*
X025278Y007306D03*
X025436Y008743D03*
X026853Y011282D03*
X027011Y015731D03*
X026105Y018960D03*
X020534Y023487D03*
X019944Y023467D03*
X019471Y023211D03*
X018172Y023251D03*
X017306Y024117D03*
X016794Y024019D03*
X016794Y023113D03*
X015534Y023586D03*
X015062Y023330D03*
X014708Y023015D03*
X014708Y022070D03*
X015064Y021241D03*
X014944Y020692D03*
X014550Y020515D03*
X015141Y020121D03*
X013920Y019097D03*
X012739Y020534D03*
X012089Y019629D03*
X011381Y019235D03*
X011263Y020023D03*
X011479Y018389D03*
X009393Y015987D03*
X007956Y015889D03*
X007168Y015259D03*
X005475Y016952D03*
X006420Y018881D03*
X003487Y017956D03*
X002582Y019885D03*
X001400Y016420D03*
X001400Y011538D03*
X002503Y008428D03*
X006794Y012070D03*
X009215Y012227D03*
X011420Y009471D03*
X016066Y003881D03*
X015771Y003483D03*
X015298Y002424D03*
X015318Y000889D03*
X013723Y000810D03*
X013487Y001834D03*
X012188Y000849D03*
X011519Y001912D03*
X017247Y001243D03*
X019570Y004235D03*
X021538Y004235D03*
X017798Y005219D03*
X016361Y018428D03*
X016637Y019924D03*
X013054Y021617D03*
X013259Y023526D03*
X013369Y023960D03*
X012774Y024436D03*
X012975Y025463D03*
X010991Y025719D03*
X010578Y026751D03*
X008834Y024747D03*
X007989Y024111D03*
X008924Y023015D03*
X009353Y022582D03*
X010771Y023487D03*
X010731Y024515D03*
X007897Y025672D03*
X006755Y024963D03*
X005731Y024255D03*
X015416Y025318D03*
X015534Y024452D03*
X015613Y026263D03*
X017109Y026853D03*
X019471Y026026D03*
D21*
X014609Y023487D03*
X014176Y024314D03*
X013113Y022936D03*
X012759Y022385D03*
X012089Y022424D03*
X011105Y021519D03*
X010913Y022444D03*
X010908Y022719D03*
X010633Y022719D03*
X010633Y022444D03*
X012956Y020849D03*
D22*
X012424Y023448D03*
M02*
