G75*
%MOIN*%
%OFA0B0*%
%FSLAX24Y24*%
%IPPOS*%
%LPD*%
%AMOC8*
5,1,8,0,0,1.08239X$1,22.5*
%
%ADD10R,0.0010X0.0010*%
%ADD11R,0.0070X0.0010*%
%ADD12R,0.0080X0.0010*%
%ADD13R,0.0090X0.0010*%
%ADD14R,0.0230X0.0010*%
%ADD15R,0.0150X0.0010*%
%ADD16R,0.0170X0.0010*%
%ADD17R,0.0190X0.0010*%
%ADD18R,0.0100X0.0010*%
%ADD19R,0.0180X0.0010*%
%ADD20R,0.0210X0.0010*%
%ADD21R,0.0200X0.0010*%
%ADD22R,0.0110X0.0010*%
%ADD23R,0.0220X0.0010*%
%ADD24R,0.0250X0.0010*%
%ADD25R,0.0240X0.0010*%
%ADD26R,0.0270X0.0010*%
%ADD27R,0.0260X0.0010*%
%ADD28R,0.0290X0.0010*%
%ADD29R,0.0310X0.0010*%
%ADD30R,0.0130X0.0010*%
%ADD31R,0.0280X0.0010*%
%ADD32R,0.0050X0.0010*%
%ADD33R,0.0120X0.0010*%
%ADD34R,0.0030X0.0010*%
%ADD35R,0.0020X0.0010*%
%ADD36R,0.0160X0.0010*%
%ADD37R,0.0300X0.0010*%
%ADD38R,0.0060X0.0010*%
%ADD39R,0.0040X0.0010*%
%ADD40R,0.1290X0.0010*%
%ADD41R,0.1410X0.0010*%
%ADD42R,0.1490X0.0010*%
%ADD43R,0.1550X0.0010*%
%ADD44R,0.1610X0.0010*%
%ADD45R,0.1650X0.0010*%
%ADD46R,0.1690X0.0010*%
%ADD47R,0.0140X0.0010*%
%ADD48R,0.0700X0.0010*%
%ADD49R,0.0370X0.0010*%
%ADD50R,0.0620X0.0010*%
%ADD51R,0.0550X0.0010*%
%ADD52R,0.0350X0.0010*%
%ADD53R,0.0450X0.0010*%
%ADD54R,0.0330X0.0010*%
%ADD55R,0.0380X0.0010*%
%ADD56R,0.1540X0.0010*%
%ADD57R,0.1560X0.0010*%
%ADD58R,0.1530X0.0010*%
%ADD59C,0.0060*%
%ADD60C,0.0050*%
%ADD61C,0.0080*%
%ADD62C,0.0400*%
D10*
X011220Y002960D03*
X011250Y003030D03*
X011290Y003030D03*
X011320Y002960D03*
X011560Y002960D03*
X011580Y002960D03*
X011600Y002960D03*
X011780Y002980D03*
X011860Y002960D03*
X011880Y002960D03*
X011900Y002960D03*
X011920Y002960D03*
X011940Y002960D03*
X011960Y002960D03*
X011980Y002960D03*
X012060Y002960D03*
X012080Y002960D03*
X012100Y002960D03*
X012120Y002960D03*
X012180Y003040D03*
X012200Y003040D03*
X012220Y003040D03*
X012240Y003040D03*
X012260Y003040D03*
X012280Y003040D03*
X012300Y003040D03*
X012360Y002960D03*
X012380Y002960D03*
X012400Y002960D03*
X012420Y002960D03*
X012480Y002960D03*
X012500Y002960D03*
X012520Y002960D03*
X012540Y002960D03*
X012560Y002960D03*
X012680Y002960D03*
X012700Y002960D03*
X012720Y002960D03*
X012740Y002960D03*
X012570Y003110D03*
X012590Y003310D03*
X012240Y003340D03*
X011840Y003240D03*
X011810Y003310D03*
X011320Y003320D03*
X011300Y003320D03*
X011280Y003320D03*
X011260Y003320D03*
X011240Y003320D03*
X011220Y003320D03*
X011250Y003250D03*
X011270Y003250D03*
X011320Y003240D03*
X012760Y003740D03*
X012760Y003760D03*
X012760Y003820D03*
X012760Y003840D03*
X012760Y003900D03*
X012760Y003920D03*
X012760Y003980D03*
X012760Y004000D03*
X012880Y003960D03*
X012880Y003940D03*
X012880Y003880D03*
X012880Y003860D03*
X012880Y003800D03*
X012880Y003780D03*
X012940Y003660D03*
X012960Y003640D03*
X013020Y003600D03*
X013050Y003590D03*
X013060Y003580D03*
X013060Y003440D03*
X013080Y003440D03*
X013160Y003320D03*
X013180Y003320D03*
X013240Y003320D03*
X013260Y003320D03*
X013230Y003250D03*
X013210Y003250D03*
X013150Y003230D03*
X013110Y003210D03*
X013110Y003070D03*
X013210Y003030D03*
X013230Y003030D03*
X013260Y002960D03*
X013160Y002960D03*
X013500Y002960D03*
X013520Y002960D03*
X013540Y002960D03*
X013560Y002960D03*
X013660Y002960D03*
X013680Y002960D03*
X013700Y002960D03*
X013720Y002960D03*
X013740Y002960D03*
X013760Y002960D03*
X013780Y002960D03*
X013800Y002960D03*
X013820Y002960D03*
X014040Y002960D03*
X014060Y002960D03*
X014080Y002960D03*
X014100Y002960D03*
X014120Y002960D03*
X014140Y002960D03*
X014360Y002960D03*
X014390Y003030D03*
X014410Y003030D03*
X014510Y002990D03*
X014720Y003100D03*
X014750Y003170D03*
X014780Y002960D03*
X014800Y002960D03*
X014820Y002960D03*
X014840Y002960D03*
X015220Y002960D03*
X015240Y002960D03*
X015260Y002960D03*
X015280Y002960D03*
X015300Y002960D03*
X015320Y002960D03*
X015340Y002960D03*
X015360Y002960D03*
X015380Y002960D03*
X015400Y002960D03*
X015420Y002960D03*
X015540Y002960D03*
X015560Y002960D03*
X015580Y002960D03*
X015600Y002960D03*
X015760Y002960D03*
X015780Y002960D03*
X015800Y002960D03*
X015820Y002960D03*
X016020Y002960D03*
X016040Y002960D03*
X016060Y002960D03*
X016080Y002960D03*
X015730Y003190D03*
X015710Y003190D03*
X015690Y003190D03*
X015670Y003190D03*
X015650Y003190D03*
X015630Y003190D03*
X015350Y003190D03*
X015330Y003190D03*
X015310Y003190D03*
X015290Y003190D03*
X015270Y003190D03*
X015250Y003190D03*
X015230Y003190D03*
X015220Y003120D03*
X015240Y003120D03*
X015260Y003120D03*
X015280Y003120D03*
X015300Y003120D03*
X015320Y003120D03*
X015340Y003120D03*
X014480Y003540D03*
X014450Y003510D03*
X014420Y003500D03*
X014500Y003580D03*
X014580Y003740D03*
X014580Y003760D03*
X014580Y003820D03*
X014580Y003840D03*
X014580Y003900D03*
X014580Y003920D03*
X014580Y003980D03*
X014580Y004000D03*
X014560Y004020D03*
X014560Y004040D03*
X014540Y004080D03*
X014520Y004100D03*
X014460Y004160D03*
X014440Y004180D03*
X014440Y004200D03*
X014440Y004260D03*
X014440Y004280D03*
X014440Y004340D03*
X014440Y004360D03*
X014440Y004420D03*
X014440Y004440D03*
X014270Y004330D03*
X014230Y004330D03*
X014190Y004330D03*
X014170Y004330D03*
X014150Y004330D03*
X014110Y004330D03*
X014070Y004330D03*
X014030Y004330D03*
X013990Y004330D03*
X013950Y004330D03*
X013910Y004330D03*
X013870Y004330D03*
X013830Y004330D03*
X013790Y004330D03*
X013750Y004330D03*
X013710Y004330D03*
X013670Y004330D03*
X013630Y004330D03*
X013590Y004330D03*
X013550Y004330D03*
X013510Y004330D03*
X013470Y004330D03*
X013430Y004330D03*
X013390Y004330D03*
X013350Y004330D03*
X013310Y004330D03*
X013270Y004330D03*
X013230Y004330D03*
X013190Y004330D03*
X013150Y004330D03*
X013110Y004330D03*
X013070Y004330D03*
X013030Y004330D03*
X012990Y004330D03*
X012950Y004330D03*
X012940Y004340D03*
X012900Y004420D03*
X012900Y004440D03*
X012920Y004460D03*
X012930Y004470D03*
X012950Y004470D03*
X013060Y004500D03*
X013060Y004520D03*
X013060Y004580D03*
X013060Y004600D03*
X013060Y004660D03*
X013300Y004640D03*
X013300Y004620D03*
X013300Y004560D03*
X013300Y004540D03*
X013300Y004480D03*
X013170Y004230D03*
X013180Y004220D03*
X013200Y004180D03*
X013180Y004140D03*
X013140Y004100D03*
X013120Y004100D03*
X013100Y004100D03*
X013080Y004100D03*
X013050Y004090D03*
X012940Y004060D03*
X012920Y004040D03*
X012900Y004000D03*
X012820Y004120D03*
X012840Y004140D03*
X012900Y004180D03*
X012940Y004200D03*
X012980Y004220D03*
X013000Y004220D03*
X013010Y004230D03*
X013030Y004230D03*
X013820Y004100D03*
X013840Y004100D03*
X013860Y004100D03*
X013860Y004120D03*
X013880Y004100D03*
X013900Y004100D03*
X013920Y004100D03*
X013940Y004100D03*
X013960Y004100D03*
X013980Y004100D03*
X014000Y004100D03*
X014020Y004100D03*
X014040Y004100D03*
X014060Y004100D03*
X014080Y004100D03*
X014100Y004100D03*
X014120Y004100D03*
X014140Y004100D03*
X014160Y004100D03*
X014180Y004100D03*
X014200Y004100D03*
X014220Y004100D03*
X014240Y004100D03*
X014260Y004100D03*
X014270Y004090D03*
X014290Y004090D03*
X014420Y004020D03*
X014440Y004000D03*
X014440Y003980D03*
X014460Y003940D03*
X014460Y003880D03*
X014460Y003860D03*
X014460Y003800D03*
X014460Y003780D03*
X014320Y003600D03*
X014280Y003580D03*
X014260Y003580D03*
X014260Y003440D03*
X014010Y003310D03*
X013920Y004140D03*
X013930Y004150D03*
X013990Y004170D03*
X014050Y004190D03*
X014080Y004200D03*
X014100Y004200D03*
X014110Y004210D03*
X014140Y004220D03*
X014160Y004220D03*
X014260Y004260D03*
X014220Y004480D03*
X014220Y004540D03*
X014220Y004560D03*
X014220Y004620D03*
X014220Y004640D03*
X014220Y004700D03*
X014220Y004720D03*
X014220Y004780D03*
X014220Y004800D03*
X014220Y004860D03*
X014220Y004880D03*
X014220Y004940D03*
X014220Y004960D03*
X014220Y005020D03*
X014220Y005040D03*
X014220Y005100D03*
X014220Y005120D03*
X014200Y005160D03*
X014100Y005140D03*
X014100Y005080D03*
X014100Y005060D03*
X014100Y005000D03*
X014100Y004980D03*
X014100Y004920D03*
X014100Y004900D03*
X014100Y004840D03*
X014100Y004820D03*
X014100Y004760D03*
X014100Y004740D03*
X014100Y004680D03*
X014100Y004660D03*
X014100Y004600D03*
X014100Y004580D03*
X014100Y004520D03*
X014100Y004500D03*
X012920Y003500D03*
X012840Y003580D03*
D11*
X012710Y003240D03*
X012710Y003220D03*
X012710Y003200D03*
X012710Y003180D03*
X012710Y003080D03*
X012710Y003060D03*
X012710Y003040D03*
X012710Y003020D03*
X012710Y003000D03*
X012710Y002980D03*
X012240Y003290D03*
X011580Y003290D03*
X011580Y003310D03*
X011580Y003270D03*
X011580Y003250D03*
X011580Y003230D03*
X011580Y003210D03*
X011580Y003190D03*
X011580Y003170D03*
X011580Y003150D03*
X011580Y003130D03*
X011580Y003110D03*
X011580Y003090D03*
X011580Y003070D03*
X011580Y003050D03*
X011580Y003030D03*
X011580Y003010D03*
X011580Y002990D03*
X011580Y002970D03*
X011430Y003120D03*
X011430Y003140D03*
X011430Y003160D03*
X011270Y002960D03*
X011110Y003100D03*
X013210Y002960D03*
X013370Y003100D03*
X013370Y003180D03*
X013950Y003080D03*
X013950Y003060D03*
X014290Y003080D03*
X014290Y003100D03*
X014290Y003120D03*
X014290Y003140D03*
X014290Y003160D03*
X014290Y003180D03*
X014290Y003200D03*
X014290Y003220D03*
X014290Y003240D03*
X014290Y003260D03*
X014290Y003280D03*
X014290Y003300D03*
X014510Y003300D03*
X014510Y003280D03*
X014510Y003260D03*
X014510Y003240D03*
X014510Y003220D03*
X014510Y003200D03*
X014510Y003180D03*
X014510Y003160D03*
X014510Y003140D03*
X014510Y003120D03*
X014510Y003100D03*
X014410Y002960D03*
X014810Y002980D03*
X014810Y003000D03*
X014810Y003020D03*
X014810Y003040D03*
X014810Y003060D03*
X014810Y003080D03*
X014810Y003180D03*
X014810Y003200D03*
X014810Y003220D03*
X014810Y003240D03*
X015790Y003240D03*
X015790Y003260D03*
X015790Y003280D03*
X015790Y003300D03*
X015790Y003220D03*
X015790Y003200D03*
X015790Y003100D03*
X015790Y003080D03*
X015790Y003060D03*
X015790Y003040D03*
X015790Y003020D03*
X015790Y003000D03*
X015790Y002980D03*
X014160Y005170D03*
D12*
X013795Y003310D03*
X013795Y003300D03*
X013795Y003290D03*
X013795Y003280D03*
X013795Y003270D03*
X013795Y003260D03*
X013795Y003250D03*
X013795Y003240D03*
X013795Y003230D03*
X013795Y003220D03*
X013795Y003210D03*
X013795Y003200D03*
X013795Y003190D03*
X013795Y003180D03*
X013795Y003170D03*
X013795Y003160D03*
X013795Y003150D03*
X013795Y003140D03*
X013795Y003130D03*
X013795Y003120D03*
X013795Y003110D03*
X013795Y003100D03*
X013795Y003090D03*
X013795Y003080D03*
X013795Y003070D03*
X013795Y003060D03*
X013795Y003050D03*
X013795Y003040D03*
X013955Y003090D03*
X013985Y003200D03*
X013985Y003210D03*
X013985Y003220D03*
X014115Y003220D03*
X014115Y003230D03*
X014115Y003240D03*
X014115Y003210D03*
X014115Y003200D03*
X014115Y003190D03*
X014115Y003180D03*
X014115Y003100D03*
X014115Y003090D03*
X014115Y003080D03*
X014115Y003070D03*
X014115Y003060D03*
X014115Y003050D03*
X014115Y003040D03*
X014295Y003060D03*
X014495Y003050D03*
X014505Y003080D03*
X014665Y003180D03*
X014665Y003190D03*
X014665Y003200D03*
X014665Y003210D03*
X014665Y003220D03*
X015405Y003220D03*
X015405Y003230D03*
X015405Y003240D03*
X015405Y003210D03*
X015405Y003200D03*
X015405Y003190D03*
X015405Y003110D03*
X015405Y003100D03*
X015405Y003090D03*
X015405Y003080D03*
X015405Y003070D03*
X015405Y003060D03*
X015405Y003050D03*
X015405Y003040D03*
X015575Y003040D03*
X015575Y003050D03*
X015575Y003060D03*
X015575Y003070D03*
X015575Y003080D03*
X015575Y003090D03*
X015575Y003100D03*
X015575Y003110D03*
X015575Y003190D03*
X015575Y003200D03*
X015575Y003210D03*
X015575Y003220D03*
X015575Y003230D03*
X015575Y003240D03*
X015575Y003250D03*
X015575Y003260D03*
X015575Y003270D03*
X015575Y003280D03*
X015575Y003290D03*
X015575Y003300D03*
X015575Y003310D03*
X015575Y003030D03*
X015575Y003020D03*
X015575Y003010D03*
X015575Y003000D03*
X015575Y002990D03*
X015575Y002980D03*
X015575Y002970D03*
X016045Y002970D03*
X016045Y002980D03*
X016045Y002990D03*
X016045Y003000D03*
X016045Y003010D03*
X016045Y003020D03*
X016045Y003030D03*
X016045Y003040D03*
X016045Y003050D03*
X016045Y003060D03*
X016045Y003070D03*
X016045Y003080D03*
X016045Y003090D03*
X016045Y003100D03*
X016045Y003110D03*
X016045Y003120D03*
X016045Y003130D03*
X016045Y003140D03*
X016045Y003150D03*
X016045Y003160D03*
X016045Y003170D03*
X016045Y003180D03*
X016045Y003190D03*
X016045Y003200D03*
X016045Y003210D03*
X016045Y003220D03*
X016045Y003230D03*
X016045Y003240D03*
X013525Y003240D03*
X013525Y003250D03*
X013525Y003260D03*
X013525Y003270D03*
X013525Y003280D03*
X013525Y003290D03*
X013525Y003300D03*
X013525Y003310D03*
X013525Y003230D03*
X013525Y003220D03*
X013525Y003210D03*
X013525Y003200D03*
X013525Y003190D03*
X013525Y003180D03*
X013525Y003170D03*
X013525Y003160D03*
X013525Y003150D03*
X013525Y003140D03*
X013525Y003130D03*
X013525Y003120D03*
X013525Y003110D03*
X013525Y003100D03*
X013525Y003090D03*
X013525Y003080D03*
X013525Y003070D03*
X013525Y003060D03*
X013525Y003050D03*
X013525Y003040D03*
X013525Y003030D03*
X013525Y003020D03*
X013525Y003010D03*
X013525Y003000D03*
X013525Y002990D03*
X013525Y002980D03*
X013525Y002970D03*
X013375Y003120D03*
X013375Y003130D03*
X013375Y003140D03*
X013375Y003150D03*
X013375Y003160D03*
X012555Y003190D03*
X012555Y003200D03*
X012555Y003210D03*
X012555Y003220D03*
X012315Y003120D03*
X012295Y003160D03*
X012175Y003150D03*
X012175Y003140D03*
X012115Y003020D03*
X012105Y003000D03*
X011945Y003040D03*
X011945Y003050D03*
X011945Y003060D03*
X011945Y003070D03*
X011945Y003080D03*
X011945Y003090D03*
X011945Y003100D03*
X011945Y003110D03*
X011945Y003120D03*
X011945Y003130D03*
X011945Y003140D03*
X011945Y003150D03*
X011945Y003160D03*
X011945Y003170D03*
X011945Y003180D03*
X011945Y003190D03*
X011945Y003200D03*
X011945Y003210D03*
X011945Y003220D03*
X011945Y003230D03*
X011945Y003240D03*
X011715Y003170D03*
X011715Y003150D03*
X011715Y003140D03*
X011715Y003130D03*
X011715Y003120D03*
X011715Y003110D03*
X011425Y003100D03*
X011425Y003090D03*
X011425Y003180D03*
X011425Y003190D03*
X011115Y003180D03*
X011105Y003160D03*
X011105Y003140D03*
X011105Y003130D03*
X011105Y003120D03*
X012235Y003270D03*
X012235Y003280D03*
X012355Y003040D03*
X012375Y003000D03*
X012385Y002980D03*
D13*
X012380Y002990D03*
X012370Y003010D03*
X012360Y003020D03*
X012360Y003030D03*
X012390Y002970D03*
X012540Y002980D03*
X012590Y003050D03*
X012600Y003060D03*
X012710Y003070D03*
X012710Y003050D03*
X012710Y003030D03*
X012710Y003010D03*
X012710Y002990D03*
X012710Y002970D03*
X012710Y003170D03*
X012710Y003190D03*
X012710Y003210D03*
X012710Y003230D03*
X012560Y003230D03*
X012560Y003180D03*
X012310Y003130D03*
X012300Y003140D03*
X012300Y003150D03*
X012290Y003170D03*
X012190Y003170D03*
X012180Y003160D03*
X012170Y003130D03*
X012160Y003120D03*
X012120Y003040D03*
X012120Y003030D03*
X012110Y003010D03*
X012100Y002980D03*
X012090Y002970D03*
X012240Y003260D03*
X011740Y003220D03*
X011730Y003200D03*
X011730Y003190D03*
X011720Y003180D03*
X011720Y003160D03*
X011720Y003100D03*
X011730Y003090D03*
X011730Y003080D03*
X011740Y003060D03*
X011580Y003060D03*
X011580Y003040D03*
X011580Y003020D03*
X011580Y003000D03*
X011580Y002980D03*
X011580Y003080D03*
X011580Y003100D03*
X011580Y003120D03*
X011580Y003140D03*
X011580Y003160D03*
X011580Y003180D03*
X011580Y003200D03*
X011580Y003220D03*
X011580Y003240D03*
X011580Y003260D03*
X011580Y003280D03*
X011580Y003300D03*
X011420Y003200D03*
X011410Y003210D03*
X011430Y003170D03*
X011430Y003150D03*
X011430Y003130D03*
X011430Y003110D03*
X011420Y003080D03*
X011410Y003070D03*
X011120Y003080D03*
X011110Y003090D03*
X011110Y003110D03*
X011110Y003150D03*
X011110Y003170D03*
X011110Y003190D03*
X011120Y003200D03*
X013150Y003250D03*
X013360Y003200D03*
X013370Y003190D03*
X013370Y003170D03*
X013370Y003110D03*
X013370Y003090D03*
X013360Y003080D03*
X013150Y003030D03*
X013950Y003050D03*
X013960Y003040D03*
X013950Y003070D03*
X013960Y003100D03*
X014000Y003180D03*
X013990Y003190D03*
X013990Y003230D03*
X014000Y003240D03*
X014290Y003250D03*
X014290Y003270D03*
X014290Y003290D03*
X014290Y003310D03*
X014290Y003230D03*
X014290Y003210D03*
X014290Y003190D03*
X014290Y003170D03*
X014290Y003150D03*
X014290Y003130D03*
X014290Y003110D03*
X014290Y003090D03*
X014290Y003070D03*
X014300Y003050D03*
X014500Y003060D03*
X014510Y003070D03*
X014510Y003090D03*
X014510Y003110D03*
X014510Y003130D03*
X014510Y003150D03*
X014510Y003170D03*
X014510Y003190D03*
X014510Y003210D03*
X014510Y003230D03*
X014510Y003250D03*
X014510Y003270D03*
X014510Y003290D03*
X014510Y003310D03*
X014670Y003230D03*
X014680Y003240D03*
X014810Y003230D03*
X014810Y003210D03*
X014810Y003190D03*
X014810Y003170D03*
X014810Y003090D03*
X014810Y003070D03*
X014810Y003050D03*
X014810Y003030D03*
X014810Y003010D03*
X014810Y002990D03*
X014810Y002970D03*
X015400Y003120D03*
X015790Y003110D03*
X015790Y003090D03*
X015790Y003070D03*
X015790Y003050D03*
X015790Y003030D03*
X015790Y003010D03*
X015790Y002990D03*
X015790Y002970D03*
X015790Y003190D03*
X015790Y003210D03*
X015790Y003230D03*
X015790Y003250D03*
X015790Y003270D03*
X015790Y003290D03*
X015790Y003310D03*
D14*
X015330Y003310D03*
X015330Y003300D03*
X015330Y003290D03*
X015330Y003280D03*
X015330Y003270D03*
X015330Y003260D03*
X015330Y003250D03*
X015330Y003180D03*
X015330Y003170D03*
X015330Y003160D03*
X015330Y003150D03*
X015330Y003140D03*
X015330Y003130D03*
X015330Y003030D03*
X015330Y003020D03*
X015330Y003010D03*
X015330Y003000D03*
X015330Y002990D03*
X015330Y002980D03*
X015330Y002970D03*
X014740Y003250D03*
X014040Y003110D03*
X014040Y003030D03*
X014040Y003020D03*
X014040Y003010D03*
X013220Y002990D03*
X013220Y003290D03*
X012920Y003590D03*
X012640Y003270D03*
X012640Y003250D03*
X012640Y003150D03*
X011870Y003280D03*
X011870Y003000D03*
X013180Y004490D03*
X013180Y004570D03*
X013180Y004650D03*
X013180Y004670D03*
X013180Y004690D03*
X014420Y004090D03*
D15*
X014500Y004010D03*
X014510Y003990D03*
X014520Y003950D03*
X014520Y003930D03*
X014520Y003910D03*
X014520Y003890D03*
X014520Y003870D03*
X014520Y003850D03*
X014520Y003830D03*
X014520Y003810D03*
X014520Y003790D03*
X014520Y003770D03*
X014520Y003750D03*
X014500Y003710D03*
X014500Y003690D03*
X014780Y003310D03*
X014400Y002970D03*
X012840Y003690D03*
X012820Y003750D03*
X012820Y003770D03*
X012820Y003790D03*
X012820Y003810D03*
X012820Y003830D03*
X012820Y003870D03*
X012820Y003890D03*
X012820Y003910D03*
X012820Y003950D03*
X012820Y003970D03*
X012820Y003990D03*
X012680Y003310D03*
X012240Y003210D03*
X011360Y003250D03*
X014160Y004470D03*
X014160Y004490D03*
X014160Y004510D03*
X014160Y004530D03*
X014160Y004550D03*
X014160Y004570D03*
X014160Y004590D03*
X014160Y004610D03*
X014160Y004630D03*
X014160Y004650D03*
X014160Y004670D03*
X014160Y004690D03*
X014160Y004710D03*
X014160Y004730D03*
X014160Y004750D03*
X014160Y004770D03*
X014160Y004790D03*
X014160Y004810D03*
X014160Y004830D03*
X014160Y004850D03*
X014160Y004870D03*
X014160Y004890D03*
X014160Y004910D03*
X014160Y004930D03*
X014160Y004950D03*
X014160Y004970D03*
X014160Y004990D03*
X014160Y005010D03*
X014160Y005030D03*
X014160Y005050D03*
X014160Y005070D03*
X014160Y005090D03*
X014160Y005110D03*
D16*
X014470Y004050D03*
X014490Y004030D03*
X014490Y003670D03*
X014470Y003650D03*
X014760Y003300D03*
X014760Y003120D03*
X014770Y003110D03*
X014400Y002980D03*
X014070Y002970D03*
X014070Y003290D03*
X013210Y003310D03*
X013210Y002970D03*
X012670Y003110D03*
X012660Y003300D03*
X012240Y003180D03*
X012850Y003670D03*
X012870Y003650D03*
X011270Y003310D03*
X011270Y002970D03*
D17*
X011270Y003300D03*
X011890Y003300D03*
X011890Y002980D03*
X012660Y003090D03*
X012900Y003610D03*
X012880Y003630D03*
X012880Y004070D03*
X013180Y004710D03*
X013210Y003300D03*
X013740Y003030D03*
X013740Y003020D03*
X013740Y003010D03*
X013740Y003000D03*
X013740Y002990D03*
X013740Y002980D03*
X013740Y002970D03*
X014060Y002980D03*
X014060Y003270D03*
X014440Y003610D03*
X014460Y003630D03*
X014760Y003290D03*
X014750Y003280D03*
D18*
X014495Y003040D03*
X014305Y003040D03*
X013355Y003060D03*
X013355Y003070D03*
X013355Y003210D03*
X013345Y003220D03*
X012615Y003080D03*
X012605Y003070D03*
X012585Y003040D03*
X012575Y003030D03*
X012565Y003020D03*
X012555Y003000D03*
X012525Y002970D03*
X012105Y002990D03*
X011405Y003060D03*
X011405Y003220D03*
X011135Y003220D03*
X011125Y003210D03*
X011125Y003070D03*
X011135Y003060D03*
D19*
X011895Y002970D03*
X012655Y003120D03*
X012855Y004050D03*
X014065Y003280D03*
D20*
X014050Y003250D03*
X014050Y003150D03*
X014050Y003140D03*
X014050Y002990D03*
X014740Y003160D03*
X014740Y003260D03*
X014750Y003270D03*
X014450Y004070D03*
X013220Y002980D03*
X012650Y003130D03*
X012640Y003140D03*
X012640Y003260D03*
D21*
X012645Y003280D03*
X012655Y003290D03*
X014055Y003260D03*
X014055Y003170D03*
X014055Y003160D03*
X014395Y002990D03*
X014745Y003140D03*
X014755Y003130D03*
X011265Y002980D03*
D22*
X011150Y003040D03*
X011140Y003050D03*
X011140Y003230D03*
X011150Y003240D03*
X011390Y003240D03*
X011400Y003230D03*
X011400Y003050D03*
X011390Y003040D03*
X011740Y003070D03*
X011760Y003050D03*
X011740Y003210D03*
X011760Y003230D03*
X011770Y003240D03*
X012240Y003250D03*
X012570Y003240D03*
X012580Y003170D03*
X012560Y003010D03*
X012540Y002990D03*
X013330Y003040D03*
X013340Y003050D03*
X013340Y003230D03*
X013330Y003240D03*
X014320Y003030D03*
X014480Y003030D03*
X014680Y003170D03*
X014790Y003100D03*
X013100Y004230D03*
X014160Y005150D03*
D23*
X014335Y004250D03*
X014045Y003130D03*
X014045Y003120D03*
X014045Y003000D03*
X014395Y003000D03*
X014745Y003150D03*
X012635Y003160D03*
X011875Y003290D03*
X011875Y002990D03*
D24*
X011860Y003260D03*
X012240Y003110D03*
X012240Y003100D03*
X013230Y003010D03*
X013230Y003270D03*
X012910Y004090D03*
X013070Y004210D03*
X013180Y004510D03*
X013180Y004530D03*
X013180Y004550D03*
X013180Y004590D03*
X013180Y004610D03*
X013180Y004630D03*
X014410Y003590D03*
X014400Y003020D03*
X016040Y003260D03*
X016050Y003270D03*
X016040Y003280D03*
X016050Y003290D03*
X016040Y003300D03*
X016050Y003310D03*
X016050Y003250D03*
X011270Y003290D03*
X011270Y002990D03*
D25*
X013225Y003000D03*
X013225Y003280D03*
X014395Y003010D03*
D26*
X014300Y004230D03*
X013180Y004470D03*
X012240Y003090D03*
X011850Y003250D03*
X011270Y003280D03*
X011270Y003000D03*
D27*
X011855Y003010D03*
X011855Y003020D03*
X011855Y003270D03*
X013235Y003260D03*
X013235Y003020D03*
D28*
X012240Y003060D03*
X012240Y003070D03*
X011270Y003010D03*
X011270Y003270D03*
X013050Y004190D03*
X015680Y003180D03*
X015680Y003160D03*
X015680Y003140D03*
X015680Y003120D03*
D29*
X014280Y004210D03*
X012240Y003050D03*
X011270Y003020D03*
X011270Y003260D03*
D30*
X011170Y003250D03*
X011170Y003030D03*
X011370Y003030D03*
X012240Y003220D03*
X013310Y003250D03*
X013310Y003030D03*
X014090Y003310D03*
X014370Y004290D03*
X014370Y004310D03*
D31*
X012235Y003080D03*
X011845Y003030D03*
D32*
X012240Y003300D03*
X013130Y003040D03*
D33*
X012235Y003230D03*
X012235Y003240D03*
X011765Y003040D03*
D34*
X012240Y003330D03*
X012810Y003620D03*
X012810Y003640D03*
X012790Y003660D03*
X012790Y003680D03*
X012810Y003700D03*
X012810Y003720D03*
X012790Y003740D03*
X012790Y003760D03*
X012770Y003780D03*
X012770Y003800D03*
X012790Y003820D03*
X012790Y003840D03*
X012770Y003860D03*
X012770Y003880D03*
X012790Y003900D03*
X012790Y003920D03*
X012770Y003940D03*
X012770Y003960D03*
X012790Y003980D03*
X012790Y004000D03*
X012770Y004020D03*
X012810Y004020D03*
X012810Y004040D03*
X012790Y004060D03*
X012830Y004060D03*
X012830Y004080D03*
X012810Y004100D03*
X012850Y004100D03*
X012850Y004120D03*
X012870Y004140D03*
X012870Y004160D03*
X012910Y004160D03*
X012910Y004140D03*
X012890Y004120D03*
X012890Y004100D03*
X012870Y004080D03*
X012870Y004060D03*
X012850Y004040D03*
X012850Y004020D03*
X012830Y004000D03*
X012830Y003980D03*
X012810Y003960D03*
X012810Y003940D03*
X012830Y003920D03*
X012830Y003900D03*
X012810Y003880D03*
X012810Y003860D03*
X012830Y003840D03*
X012830Y003820D03*
X012810Y003800D03*
X012810Y003780D03*
X012830Y003760D03*
X012830Y003740D03*
X012850Y003720D03*
X012850Y003700D03*
X012830Y003680D03*
X012830Y003660D03*
X012850Y003640D03*
X012850Y003620D03*
X012830Y003600D03*
X012870Y003600D03*
X012870Y003580D03*
X012850Y003560D03*
X012890Y003560D03*
X012890Y003540D03*
X012910Y003520D03*
X012930Y003540D03*
X012930Y003560D03*
X012910Y003580D03*
X012910Y003600D03*
X012890Y003620D03*
X012890Y003640D03*
X012870Y003660D03*
X012870Y003680D03*
X012890Y003700D03*
X012890Y003720D03*
X012870Y003740D03*
X012870Y003760D03*
X012850Y003780D03*
X012850Y003800D03*
X012870Y003820D03*
X012870Y003840D03*
X012850Y003860D03*
X012850Y003880D03*
X012870Y003900D03*
X012870Y003920D03*
X012850Y003940D03*
X012850Y003960D03*
X012870Y003980D03*
X012870Y004000D03*
X012890Y004020D03*
X012890Y004040D03*
X012910Y004060D03*
X012910Y004080D03*
X012930Y004100D03*
X012930Y004120D03*
X012950Y004140D03*
X012950Y004160D03*
X012930Y004180D03*
X012970Y004180D03*
X012970Y004200D03*
X013010Y004200D03*
X013010Y004180D03*
X013030Y004160D03*
X013030Y004140D03*
X013010Y004120D03*
X013010Y004100D03*
X012990Y004080D03*
X012970Y004100D03*
X012970Y004120D03*
X012990Y004140D03*
X012990Y004160D03*
X013050Y004180D03*
X013050Y004200D03*
X013030Y004220D03*
X013070Y004220D03*
X013090Y004200D03*
X013090Y004180D03*
X013070Y004160D03*
X013070Y004140D03*
X013050Y004120D03*
X013050Y004100D03*
X013090Y004120D03*
X013110Y004140D03*
X013110Y004160D03*
X013130Y004180D03*
X013130Y004200D03*
X013110Y004220D03*
X013150Y004220D03*
X013170Y004200D03*
X013170Y004180D03*
X013150Y004160D03*
X013150Y004140D03*
X013130Y004120D03*
X013170Y004120D03*
X013190Y004160D03*
X013170Y004340D03*
X013170Y004360D03*
X013150Y004380D03*
X013150Y004400D03*
X013130Y004420D03*
X013130Y004440D03*
X013110Y004460D03*
X013110Y004480D03*
X013090Y004500D03*
X013090Y004520D03*
X013070Y004540D03*
X013070Y004560D03*
X013090Y004580D03*
X013090Y004600D03*
X013070Y004620D03*
X013070Y004640D03*
X013090Y004660D03*
X013090Y004680D03*
X013110Y004700D03*
X013130Y004680D03*
X013130Y004660D03*
X013110Y004640D03*
X013110Y004620D03*
X013130Y004600D03*
X013130Y004580D03*
X013110Y004560D03*
X013110Y004540D03*
X013130Y004520D03*
X013130Y004500D03*
X013150Y004480D03*
X013150Y004460D03*
X013170Y004440D03*
X013170Y004420D03*
X013190Y004400D03*
X013190Y004380D03*
X013210Y004360D03*
X013210Y004340D03*
X013250Y004340D03*
X013250Y004360D03*
X013230Y004380D03*
X013230Y004400D03*
X013210Y004420D03*
X013210Y004440D03*
X013190Y004460D03*
X013190Y004480D03*
X013170Y004500D03*
X013170Y004520D03*
X013150Y004540D03*
X013150Y004560D03*
X013170Y004580D03*
X013170Y004600D03*
X013150Y004620D03*
X013150Y004640D03*
X013170Y004660D03*
X013170Y004680D03*
X013150Y004700D03*
X013190Y004700D03*
X013210Y004680D03*
X013210Y004660D03*
X013190Y004640D03*
X013190Y004620D03*
X013210Y004600D03*
X013210Y004580D03*
X013190Y004560D03*
X013190Y004540D03*
X013210Y004520D03*
X013210Y004500D03*
X013230Y004480D03*
X013230Y004460D03*
X013250Y004440D03*
X013250Y004420D03*
X013270Y004400D03*
X013270Y004380D03*
X013290Y004360D03*
X013290Y004340D03*
X013330Y004340D03*
X013330Y004360D03*
X013310Y004380D03*
X013310Y004400D03*
X013290Y004420D03*
X013290Y004440D03*
X013310Y004460D03*
X013330Y004440D03*
X013330Y004420D03*
X013350Y004400D03*
X013350Y004380D03*
X013370Y004360D03*
X013370Y004340D03*
X013410Y004340D03*
X013410Y004360D03*
X013390Y004380D03*
X013390Y004400D03*
X013370Y004420D03*
X013370Y004440D03*
X013350Y004460D03*
X013340Y004470D03*
X013380Y004470D03*
X013390Y004460D03*
X013410Y004440D03*
X013410Y004420D03*
X013430Y004400D03*
X013430Y004380D03*
X013450Y004360D03*
X013450Y004340D03*
X013490Y004340D03*
X013490Y004360D03*
X013470Y004380D03*
X013470Y004400D03*
X013450Y004420D03*
X013450Y004440D03*
X013430Y004460D03*
X013420Y004470D03*
X013460Y004470D03*
X013470Y004460D03*
X013490Y004440D03*
X013490Y004420D03*
X013510Y004400D03*
X013510Y004380D03*
X013530Y004360D03*
X013530Y004340D03*
X013570Y004340D03*
X013570Y004360D03*
X013590Y004380D03*
X013590Y004400D03*
X013570Y004420D03*
X013570Y004440D03*
X013590Y004460D03*
X013580Y004470D03*
X013550Y004460D03*
X013540Y004470D03*
X013510Y004460D03*
X013500Y004470D03*
X013530Y004440D03*
X013530Y004420D03*
X013550Y004400D03*
X013550Y004380D03*
X013610Y004360D03*
X013610Y004340D03*
X013650Y004340D03*
X013650Y004360D03*
X013630Y004380D03*
X013630Y004400D03*
X013610Y004420D03*
X013610Y004440D03*
X013630Y004460D03*
X013620Y004470D03*
X013660Y004470D03*
X013670Y004460D03*
X013650Y004440D03*
X013650Y004420D03*
X013670Y004400D03*
X013670Y004380D03*
X013690Y004360D03*
X013690Y004340D03*
X013730Y004340D03*
X013730Y004360D03*
X013710Y004380D03*
X013710Y004400D03*
X013690Y004420D03*
X013690Y004440D03*
X013710Y004460D03*
X013700Y004470D03*
X013740Y004470D03*
X013750Y004460D03*
X013730Y004440D03*
X013730Y004420D03*
X013750Y004400D03*
X013750Y004380D03*
X013770Y004360D03*
X013770Y004340D03*
X013810Y004340D03*
X013810Y004360D03*
X013790Y004380D03*
X013790Y004400D03*
X013770Y004420D03*
X013770Y004440D03*
X013790Y004460D03*
X013780Y004470D03*
X013820Y004470D03*
X013830Y004460D03*
X013810Y004440D03*
X013810Y004420D03*
X013830Y004400D03*
X013830Y004380D03*
X013850Y004360D03*
X013850Y004340D03*
X013890Y004340D03*
X013890Y004360D03*
X013870Y004380D03*
X013870Y004400D03*
X013850Y004420D03*
X013850Y004440D03*
X013870Y004460D03*
X013860Y004470D03*
X013900Y004470D03*
X013910Y004460D03*
X013890Y004440D03*
X013890Y004420D03*
X013910Y004400D03*
X013910Y004380D03*
X013930Y004360D03*
X013930Y004340D03*
X013970Y004340D03*
X013970Y004360D03*
X013950Y004380D03*
X013950Y004400D03*
X013930Y004420D03*
X013930Y004440D03*
X013950Y004460D03*
X013940Y004470D03*
X013980Y004470D03*
X013990Y004460D03*
X013970Y004440D03*
X013970Y004420D03*
X013990Y004400D03*
X013990Y004380D03*
X014010Y004360D03*
X014010Y004340D03*
X014050Y004340D03*
X014050Y004360D03*
X014030Y004380D03*
X014030Y004400D03*
X014010Y004420D03*
X014010Y004440D03*
X014030Y004460D03*
X014020Y004470D03*
X014060Y004470D03*
X014070Y004460D03*
X014050Y004440D03*
X014050Y004420D03*
X014070Y004400D03*
X014070Y004380D03*
X014090Y004360D03*
X014090Y004340D03*
X014130Y004340D03*
X014130Y004360D03*
X014150Y004380D03*
X014150Y004400D03*
X014130Y004420D03*
X014130Y004440D03*
X014150Y004460D03*
X014150Y004480D03*
X014130Y004500D03*
X014130Y004520D03*
X014150Y004540D03*
X014150Y004560D03*
X014130Y004580D03*
X014130Y004600D03*
X014150Y004620D03*
X014150Y004640D03*
X014130Y004660D03*
X014130Y004680D03*
X014150Y004700D03*
X014150Y004720D03*
X014130Y004740D03*
X014130Y004760D03*
X014150Y004780D03*
X014150Y004800D03*
X014130Y004820D03*
X014130Y004840D03*
X014150Y004860D03*
X014150Y004880D03*
X014130Y004900D03*
X014130Y004920D03*
X014150Y004940D03*
X014150Y004960D03*
X014130Y004980D03*
X014130Y005000D03*
X014150Y005020D03*
X014150Y005040D03*
X014130Y005060D03*
X014130Y005080D03*
X014150Y005100D03*
X014150Y005120D03*
X014130Y005140D03*
X014130Y005160D03*
X014170Y005160D03*
X014170Y005140D03*
X014190Y005120D03*
X014190Y005100D03*
X014170Y005080D03*
X014170Y005060D03*
X014190Y005040D03*
X014190Y005020D03*
X014170Y005000D03*
X014170Y004980D03*
X014190Y004960D03*
X014190Y004940D03*
X014170Y004920D03*
X014170Y004900D03*
X014190Y004880D03*
X014190Y004860D03*
X014170Y004840D03*
X014170Y004820D03*
X014190Y004800D03*
X014190Y004780D03*
X014170Y004760D03*
X014170Y004740D03*
X014190Y004720D03*
X014190Y004700D03*
X014170Y004680D03*
X014170Y004660D03*
X014190Y004640D03*
X014190Y004620D03*
X014170Y004600D03*
X014170Y004580D03*
X014190Y004560D03*
X014190Y004540D03*
X014170Y004520D03*
X014170Y004500D03*
X014190Y004480D03*
X014190Y004460D03*
X014170Y004440D03*
X014170Y004420D03*
X014190Y004400D03*
X014190Y004380D03*
X014170Y004360D03*
X014170Y004340D03*
X014210Y004340D03*
X014210Y004360D03*
X014230Y004380D03*
X014230Y004400D03*
X014210Y004420D03*
X014210Y004440D03*
X014230Y004460D03*
X014250Y004440D03*
X014250Y004420D03*
X014270Y004400D03*
X014270Y004380D03*
X014250Y004360D03*
X014250Y004340D03*
X014290Y004340D03*
X014290Y004360D03*
X014310Y004380D03*
X014310Y004400D03*
X014290Y004420D03*
X014290Y004440D03*
X014270Y004460D03*
X014260Y004470D03*
X014300Y004470D03*
X014310Y004460D03*
X014330Y004440D03*
X014330Y004420D03*
X014350Y004400D03*
X014350Y004380D03*
X014330Y004360D03*
X014330Y004340D03*
X014350Y004320D03*
X014350Y004300D03*
X014330Y004280D03*
X014330Y004260D03*
X014310Y004240D03*
X014310Y004220D03*
X014290Y004200D03*
X014290Y004180D03*
X014270Y004160D03*
X014270Y004140D03*
X014250Y004120D03*
X014230Y004140D03*
X014230Y004160D03*
X014210Y004180D03*
X014210Y004200D03*
X014190Y004220D03*
X014170Y004200D03*
X014170Y004180D03*
X014150Y004160D03*
X014150Y004140D03*
X014130Y004120D03*
X014110Y004140D03*
X014110Y004160D03*
X014090Y004180D03*
X014070Y004160D03*
X014070Y004140D03*
X014050Y004120D03*
X014030Y004140D03*
X014030Y004160D03*
X014050Y004180D03*
X013990Y004160D03*
X013990Y004140D03*
X013970Y004120D03*
X013950Y004140D03*
X013930Y004120D03*
X013890Y004120D03*
X014010Y004120D03*
X014090Y004120D03*
X014130Y004180D03*
X014130Y004200D03*
X014190Y004160D03*
X014190Y004140D03*
X014170Y004120D03*
X014210Y004120D03*
X014250Y004180D03*
X014250Y004200D03*
X014230Y004220D03*
X014230Y004240D03*
X014270Y004240D03*
X014270Y004220D03*
X014290Y004260D03*
X014350Y004240D03*
X014350Y004220D03*
X014330Y004200D03*
X014330Y004180D03*
X014310Y004160D03*
X014310Y004140D03*
X014290Y004120D03*
X014290Y004100D03*
X014330Y004100D03*
X014330Y004120D03*
X014350Y004140D03*
X014350Y004160D03*
X014370Y004180D03*
X014370Y004200D03*
X014390Y004220D03*
X014390Y004240D03*
X014370Y004260D03*
X014370Y004280D03*
X014390Y004300D03*
X014390Y004320D03*
X014370Y004340D03*
X014370Y004360D03*
X014390Y004380D03*
X014390Y004400D03*
X014370Y004420D03*
X014370Y004440D03*
X014350Y004460D03*
X014340Y004470D03*
X014380Y004470D03*
X014390Y004460D03*
X014410Y004440D03*
X014410Y004420D03*
X014430Y004400D03*
X014430Y004380D03*
X014410Y004360D03*
X014410Y004340D03*
X014430Y004320D03*
X014430Y004300D03*
X014410Y004280D03*
X014410Y004260D03*
X014430Y004240D03*
X014430Y004220D03*
X014410Y004200D03*
X014410Y004180D03*
X014430Y004160D03*
X014430Y004140D03*
X014410Y004120D03*
X014410Y004100D03*
X014430Y004080D03*
X014430Y004060D03*
X014410Y004040D03*
X014390Y004060D03*
X014390Y004080D03*
X014370Y004100D03*
X014370Y004120D03*
X014390Y004140D03*
X014390Y004160D03*
X014450Y004120D03*
X014450Y004100D03*
X014470Y004080D03*
X014470Y004060D03*
X014450Y004040D03*
X014450Y004020D03*
X014470Y004000D03*
X014470Y003980D03*
X014490Y003960D03*
X014490Y003940D03*
X014470Y003920D03*
X014470Y003900D03*
X014490Y003880D03*
X014490Y003860D03*
X014470Y003840D03*
X014470Y003820D03*
X014490Y003800D03*
X014490Y003780D03*
X014470Y003760D03*
X014470Y003740D03*
X014450Y003720D03*
X014450Y003700D03*
X014430Y003680D03*
X014430Y003660D03*
X014410Y003640D03*
X014410Y003620D03*
X014430Y003600D03*
X014430Y003580D03*
X014410Y003560D03*
X014410Y003540D03*
X014430Y003520D03*
X014450Y003540D03*
X014450Y003560D03*
X014470Y003580D03*
X014470Y003600D03*
X014450Y003620D03*
X014450Y003640D03*
X014470Y003660D03*
X014470Y003680D03*
X014490Y003700D03*
X014490Y003720D03*
X014510Y003740D03*
X014510Y003760D03*
X014530Y003780D03*
X014530Y003800D03*
X014510Y003820D03*
X014510Y003840D03*
X014530Y003860D03*
X014530Y003880D03*
X014510Y003900D03*
X014510Y003920D03*
X014530Y003940D03*
X014530Y003960D03*
X014510Y003980D03*
X014510Y004000D03*
X014490Y004020D03*
X014490Y004040D03*
X014510Y004060D03*
X014510Y004080D03*
X014490Y004100D03*
X014490Y004120D03*
X014470Y004140D03*
X014530Y004040D03*
X014530Y004020D03*
X014550Y004000D03*
X014550Y003980D03*
X014570Y003960D03*
X014570Y003940D03*
X014550Y003920D03*
X014550Y003900D03*
X014570Y003880D03*
X014570Y003860D03*
X014550Y003840D03*
X014550Y003820D03*
X014570Y003800D03*
X014570Y003780D03*
X014550Y003760D03*
X014550Y003740D03*
X014530Y003720D03*
X014530Y003700D03*
X014510Y003680D03*
X014510Y003660D03*
X014490Y003640D03*
X014490Y003620D03*
X014510Y003600D03*
X014530Y003620D03*
X014530Y003640D03*
X014550Y003660D03*
X014550Y003680D03*
X014570Y003720D03*
X014390Y003600D03*
X014390Y003580D03*
X014370Y003560D03*
X014370Y003540D03*
X014350Y003520D03*
X014350Y003500D03*
X014330Y003480D03*
X014330Y003460D03*
X014290Y003460D03*
X014290Y003480D03*
X014270Y003500D03*
X014270Y003520D03*
X014250Y003540D03*
X014250Y003560D03*
X014210Y003560D03*
X014210Y003540D03*
X014190Y003520D03*
X014190Y003500D03*
X014170Y003480D03*
X014170Y003460D03*
X014150Y003440D03*
X014130Y003460D03*
X014130Y003480D03*
X014150Y003500D03*
X014150Y003520D03*
X014130Y003540D03*
X014130Y003560D03*
X014170Y003560D03*
X014170Y003540D03*
X014230Y003520D03*
X014230Y003500D03*
X014210Y003480D03*
X014210Y003460D03*
X014190Y003440D03*
X014230Y003440D03*
X014250Y003460D03*
X014250Y003480D03*
X014310Y003500D03*
X014310Y003520D03*
X014290Y003540D03*
X014290Y003560D03*
X014310Y003580D03*
X014330Y003560D03*
X014330Y003540D03*
X014350Y003580D03*
X014350Y003600D03*
X014370Y003620D03*
X014390Y003520D03*
X014390Y003500D03*
X014370Y003480D03*
X014110Y003500D03*
X014110Y003520D03*
X014090Y003540D03*
X014090Y003560D03*
X014050Y003560D03*
X014050Y003540D03*
X014030Y003520D03*
X014030Y003500D03*
X014010Y003480D03*
X014010Y003460D03*
X013990Y003440D03*
X013970Y003460D03*
X013970Y003480D03*
X013950Y003500D03*
X013950Y003520D03*
X013930Y003540D03*
X013930Y003560D03*
X013890Y003560D03*
X013890Y003540D03*
X013870Y003520D03*
X013870Y003500D03*
X013850Y003480D03*
X013850Y003460D03*
X013870Y003440D03*
X013890Y003460D03*
X013890Y003480D03*
X013910Y003500D03*
X013910Y003520D03*
X013930Y003480D03*
X013930Y003460D03*
X013910Y003440D03*
X013950Y003440D03*
X013990Y003500D03*
X013990Y003520D03*
X013970Y003540D03*
X013970Y003560D03*
X014010Y003560D03*
X014010Y003540D03*
X014070Y003520D03*
X014070Y003500D03*
X014050Y003480D03*
X014050Y003460D03*
X014030Y003440D03*
X014070Y003440D03*
X014090Y003460D03*
X014090Y003480D03*
X014110Y003440D03*
X013850Y003540D03*
X013850Y003560D03*
X013810Y003560D03*
X013810Y003540D03*
X013790Y003520D03*
X013790Y003500D03*
X013770Y003480D03*
X013770Y003460D03*
X013750Y003440D03*
X013730Y003460D03*
X013730Y003480D03*
X013710Y003500D03*
X013710Y003520D03*
X013690Y003540D03*
X013690Y003560D03*
X013650Y003560D03*
X013650Y003540D03*
X013630Y003520D03*
X013630Y003500D03*
X013610Y003480D03*
X013610Y003460D03*
X013590Y003440D03*
X013570Y003460D03*
X013570Y003480D03*
X013590Y003500D03*
X013590Y003520D03*
X013570Y003540D03*
X013570Y003560D03*
X013610Y003560D03*
X013610Y003540D03*
X013670Y003520D03*
X013670Y003500D03*
X013650Y003480D03*
X013650Y003460D03*
X013630Y003440D03*
X013670Y003440D03*
X013690Y003460D03*
X013690Y003480D03*
X013710Y003440D03*
X013750Y003500D03*
X013750Y003520D03*
X013730Y003540D03*
X013730Y003560D03*
X013770Y003560D03*
X013770Y003540D03*
X013830Y003520D03*
X013830Y003500D03*
X013810Y003480D03*
X013810Y003460D03*
X013790Y003440D03*
X013830Y003440D03*
X013550Y003440D03*
X013530Y003460D03*
X013530Y003480D03*
X013510Y003500D03*
X013510Y003520D03*
X013490Y003540D03*
X013490Y003560D03*
X013450Y003560D03*
X013450Y003540D03*
X013430Y003520D03*
X013430Y003500D03*
X013410Y003480D03*
X013410Y003460D03*
X013390Y003440D03*
X013370Y003460D03*
X013370Y003480D03*
X013350Y003500D03*
X013350Y003520D03*
X013330Y003540D03*
X013330Y003560D03*
X013290Y003560D03*
X013290Y003540D03*
X013310Y003520D03*
X013310Y003500D03*
X013290Y003480D03*
X013290Y003460D03*
X013310Y003440D03*
X013330Y003460D03*
X013330Y003480D03*
X013350Y003440D03*
X013390Y003500D03*
X013390Y003520D03*
X013370Y003540D03*
X013370Y003560D03*
X013410Y003560D03*
X013410Y003540D03*
X013470Y003520D03*
X013470Y003500D03*
X013450Y003480D03*
X013450Y003460D03*
X013430Y003440D03*
X013470Y003440D03*
X013490Y003460D03*
X013490Y003480D03*
X013510Y003440D03*
X013550Y003500D03*
X013550Y003520D03*
X013530Y003540D03*
X013530Y003560D03*
X013270Y003520D03*
X013270Y003500D03*
X013250Y003480D03*
X013250Y003460D03*
X013230Y003440D03*
X013210Y003460D03*
X013210Y003480D03*
X013190Y003500D03*
X013190Y003520D03*
X013170Y003540D03*
X013170Y003560D03*
X013130Y003560D03*
X013130Y003540D03*
X013110Y003520D03*
X013110Y003500D03*
X013090Y003480D03*
X013090Y003460D03*
X013110Y003440D03*
X013130Y003460D03*
X013130Y003480D03*
X013150Y003500D03*
X013150Y003520D03*
X013170Y003480D03*
X013170Y003460D03*
X013150Y003440D03*
X013190Y003440D03*
X013230Y003500D03*
X013230Y003520D03*
X013210Y003540D03*
X013210Y003560D03*
X013250Y003560D03*
X013250Y003540D03*
X013270Y003440D03*
X013210Y003320D03*
X013120Y003230D03*
X013120Y003050D03*
X013050Y003460D03*
X013050Y003480D03*
X013030Y003500D03*
X013030Y003520D03*
X013010Y003540D03*
X013010Y003560D03*
X013030Y003580D03*
X013050Y003560D03*
X013050Y003540D03*
X013070Y003520D03*
X013070Y003500D03*
X013090Y003540D03*
X013090Y003560D03*
X012990Y003580D03*
X012990Y003600D03*
X012970Y003620D03*
X012950Y003600D03*
X012950Y003580D03*
X012970Y003560D03*
X012970Y003540D03*
X012950Y003520D03*
X012950Y003500D03*
X012970Y003480D03*
X012990Y003500D03*
X012990Y003520D03*
X013010Y003480D03*
X013010Y003460D03*
X012930Y003620D03*
X012930Y003640D03*
X012910Y003660D03*
X012910Y003680D03*
X012770Y003720D03*
X012950Y004080D03*
X012970Y004340D03*
X012970Y004360D03*
X012950Y004380D03*
X012950Y004400D03*
X012930Y004420D03*
X012930Y004440D03*
X012950Y004460D03*
X012970Y004440D03*
X012970Y004420D03*
X012990Y004400D03*
X012990Y004380D03*
X013010Y004360D03*
X013010Y004340D03*
X013050Y004340D03*
X013050Y004360D03*
X013030Y004380D03*
X013030Y004400D03*
X013010Y004420D03*
X013010Y004440D03*
X013030Y004460D03*
X013020Y004470D03*
X012990Y004460D03*
X012980Y004470D03*
X013050Y004440D03*
X013050Y004420D03*
X013070Y004400D03*
X013070Y004380D03*
X013090Y004360D03*
X013090Y004340D03*
X013130Y004340D03*
X013130Y004360D03*
X013110Y004380D03*
X013110Y004400D03*
X013090Y004420D03*
X013090Y004440D03*
X013070Y004460D03*
X013070Y004480D03*
X013230Y004540D03*
X013230Y004560D03*
X013250Y004580D03*
X013250Y004600D03*
X013230Y004620D03*
X013230Y004640D03*
X013250Y004660D03*
X013250Y004680D03*
X013230Y004700D03*
X013270Y004700D03*
X013290Y004660D03*
X013270Y004640D03*
X013270Y004620D03*
X013290Y004600D03*
X013290Y004580D03*
X013270Y004560D03*
X013270Y004540D03*
X013250Y004520D03*
X013250Y004500D03*
X013270Y004480D03*
X013270Y004460D03*
X013290Y004500D03*
X013290Y004520D03*
X012930Y004360D03*
X012910Y004380D03*
X012910Y004400D03*
X014090Y004420D03*
X014090Y004440D03*
X014110Y004460D03*
X014110Y004480D03*
X014110Y004540D03*
X014110Y004560D03*
X014110Y004620D03*
X014110Y004640D03*
X014110Y004700D03*
X014110Y004720D03*
X014110Y004780D03*
X014110Y004800D03*
X014110Y004860D03*
X014110Y004880D03*
X014110Y004940D03*
X014110Y004960D03*
X014110Y005020D03*
X014110Y005040D03*
X014110Y005100D03*
X014110Y005120D03*
X014210Y005140D03*
X014210Y005080D03*
X014210Y005060D03*
X014210Y005000D03*
X014210Y004980D03*
X014210Y004920D03*
X014210Y004900D03*
X014210Y004840D03*
X014210Y004820D03*
X014210Y004760D03*
X014210Y004740D03*
X014210Y004680D03*
X014210Y004660D03*
X014210Y004600D03*
X014210Y004580D03*
X014210Y004520D03*
X014210Y004500D03*
X014110Y004400D03*
X014110Y004380D03*
X014350Y004080D03*
X014430Y004460D03*
X014420Y004470D03*
D35*
X014315Y004320D03*
X014315Y004300D03*
X014545Y004060D03*
X014455Y003960D03*
X014565Y003700D03*
X014485Y003560D03*
X013285Y004680D03*
X012795Y004080D03*
X012775Y004040D03*
X012775Y003700D03*
X013115Y003220D03*
X013115Y003060D03*
D36*
X012665Y003100D03*
X012235Y003190D03*
X012235Y003200D03*
X011905Y003310D03*
X012835Y003710D03*
X012835Y004010D03*
X012845Y004030D03*
X014075Y003300D03*
X014365Y004270D03*
D37*
X015685Y003170D03*
X015685Y003150D03*
X015685Y003130D03*
D38*
X013135Y003240D03*
D39*
X012235Y003310D03*
X012235Y003320D03*
D40*
X013670Y003450D03*
D41*
X013670Y003470D03*
D42*
X013670Y003490D03*
D43*
X013660Y003510D03*
X013660Y004390D03*
D44*
X013670Y003530D03*
D45*
X013670Y003550D03*
D46*
X013670Y003570D03*
D47*
X012825Y003730D03*
X012815Y003850D03*
X012815Y003930D03*
X014375Y004330D03*
X014515Y003970D03*
X014515Y003730D03*
X014165Y005130D03*
D48*
X014175Y004110D03*
D49*
X013010Y004130D03*
X012990Y004110D03*
D50*
X014195Y004130D03*
D51*
X014220Y004150D03*
D52*
X013020Y004150D03*
D53*
X014230Y004170D03*
D54*
X013030Y004170D03*
D55*
X014255Y004190D03*
D56*
X013675Y004350D03*
X013665Y004370D03*
D57*
X013665Y004410D03*
X013665Y004430D03*
D58*
X013670Y004450D03*
D59*
X024736Y011026D02*
X024736Y011156D01*
X024780Y011199D01*
X024953Y011199D01*
X024996Y011156D01*
X024996Y011026D01*
X024736Y011026D01*
X024823Y011320D02*
X024736Y011407D01*
X024823Y011494D01*
X024996Y011494D01*
X024996Y011615D02*
X024996Y011788D01*
X024996Y011702D02*
X024736Y011702D01*
X024736Y011910D02*
X024996Y012083D01*
X024996Y012204D02*
X024996Y012334D01*
X024953Y012378D01*
X024780Y012378D01*
X024736Y012334D01*
X024736Y012204D01*
X024996Y012204D01*
X025216Y012199D02*
X025216Y012329D01*
X025476Y012329D01*
X025390Y012329D02*
X025390Y012199D01*
X025346Y012155D01*
X025260Y012155D01*
X025216Y012199D01*
X025390Y012040D02*
X025390Y011996D01*
X025303Y011910D01*
X025216Y011910D02*
X025390Y011910D01*
X025346Y011788D02*
X025216Y011788D01*
X025216Y011658D01*
X025260Y011615D01*
X025303Y011658D01*
X025303Y011788D01*
X025346Y011788D02*
X025390Y011745D01*
X025390Y011658D01*
X025346Y011494D02*
X025390Y011450D01*
X025390Y011364D01*
X025346Y011320D01*
X025260Y011320D01*
X025216Y011364D01*
X025216Y011450D01*
X025260Y011494D01*
X025346Y011494D01*
X025303Y011199D02*
X025260Y011199D01*
X025216Y011156D01*
X025216Y011026D01*
X025476Y011026D01*
X025476Y011156D01*
X025433Y011199D01*
X025390Y011199D01*
X025346Y011156D01*
X025346Y011026D01*
X025346Y011156D02*
X025303Y011199D01*
X024996Y011320D02*
X024823Y011320D01*
X024866Y012499D02*
X024866Y012586D01*
X024736Y012499D02*
X024996Y012499D01*
X024996Y012672D01*
X024996Y012794D02*
X024910Y012880D01*
X024996Y012967D01*
X024736Y012967D01*
X024736Y012794D02*
X024996Y012794D01*
X025216Y012788D02*
X025476Y012788D01*
X025476Y012875D02*
X025216Y012875D01*
X025303Y012918D02*
X025303Y012744D01*
X025390Y012744D02*
X025390Y012875D01*
X025390Y012918D01*
X025476Y013334D02*
X025216Y013334D01*
X025303Y013334D02*
X025303Y013464D01*
X025346Y013507D01*
X025433Y013507D01*
X025476Y013464D01*
X025476Y013334D01*
X025476Y013628D02*
X025216Y013628D01*
X025303Y013628D02*
X025303Y013759D01*
X025346Y013802D01*
X025433Y013802D01*
X025476Y013759D01*
X025476Y013628D01*
X025303Y013715D02*
X025216Y013802D01*
X025260Y013923D02*
X025216Y013966D01*
X025216Y014053D01*
X025260Y014097D01*
X025433Y014097D01*
X025476Y014053D01*
X025476Y013966D01*
X025433Y013923D01*
X025390Y013923D01*
X025346Y013966D01*
X025346Y014097D01*
X025260Y014218D02*
X025433Y014391D01*
X025260Y014391D01*
X025216Y014348D01*
X025216Y014261D01*
X025260Y014218D01*
X025433Y014218D01*
X025476Y014261D01*
X025476Y014348D01*
X025433Y014391D01*
X025390Y014512D02*
X025476Y014599D01*
X025216Y014599D01*
X025216Y014512D02*
X025216Y014686D01*
X025216Y014807D02*
X025260Y014807D01*
X025433Y014981D01*
X025476Y014981D01*
X025476Y014807D01*
X024910Y014807D02*
X024736Y014807D01*
X024823Y014807D02*
X024910Y014894D01*
X024910Y014937D01*
X024866Y015053D02*
X024780Y015053D01*
X024736Y015096D01*
X024736Y015183D01*
X024780Y015226D01*
X024866Y015226D01*
X024910Y015183D01*
X024910Y015096D01*
X024866Y015053D01*
X024866Y015347D02*
X024780Y015347D01*
X024736Y015391D01*
X024736Y015521D01*
X024996Y015521D01*
X024910Y015521D02*
X024910Y015391D01*
X024866Y015347D01*
X024910Y015642D02*
X024780Y015642D01*
X024736Y015685D01*
X024736Y015815D01*
X024910Y015815D01*
X024866Y015937D02*
X024780Y015937D01*
X024736Y015980D01*
X024736Y016110D01*
X024780Y016275D02*
X024736Y016318D01*
X024780Y016275D02*
X024953Y016275D01*
X024910Y016318D02*
X024910Y016231D01*
X024910Y016110D02*
X024910Y015980D01*
X024866Y015937D01*
X024910Y016428D02*
X024910Y016471D01*
X024736Y016471D01*
X024736Y016428D02*
X024736Y016514D01*
X024780Y016624D02*
X024736Y016667D01*
X024736Y016754D01*
X024780Y016798D01*
X024866Y016798D01*
X024910Y016754D01*
X024910Y016667D01*
X024866Y016624D01*
X024780Y016624D01*
X024996Y016471D02*
X025040Y016471D01*
X024910Y016919D02*
X024736Y016919D01*
X024736Y017092D02*
X024866Y017092D01*
X024910Y017049D01*
X024910Y016919D01*
X024866Y014686D02*
X024780Y014686D01*
X024736Y014643D01*
X024736Y014512D01*
X024649Y014512D02*
X024910Y014512D01*
X024910Y014643D01*
X024866Y014686D01*
X024866Y014391D02*
X024866Y014218D01*
X024866Y014097D02*
X024823Y014097D01*
X024823Y013923D01*
X024780Y013923D02*
X024866Y013923D01*
X024910Y013966D01*
X024910Y014053D01*
X024866Y014097D01*
X024736Y014053D02*
X024736Y013966D01*
X024780Y013923D01*
X024910Y013808D02*
X024910Y013764D01*
X024823Y013678D01*
X024736Y013678D02*
X024910Y013678D01*
X024953Y013556D02*
X024866Y013556D01*
X024823Y013513D01*
X024823Y013383D01*
X024736Y013383D02*
X024996Y013383D01*
X024996Y013513D01*
X024953Y013556D01*
D60*
X007760Y003926D02*
X003060Y003926D01*
X003060Y004826D01*
X007760Y004826D01*
X007760Y003926D01*
X012063Y001519D02*
X012063Y001474D01*
X012243Y001293D01*
X012243Y001248D01*
X012357Y001383D02*
X012402Y001338D01*
X012538Y001338D01*
X012538Y001248D02*
X012538Y001519D01*
X012402Y001519D01*
X012357Y001474D01*
X012357Y001383D01*
X012243Y001519D02*
X012063Y001519D01*
X012652Y001519D02*
X012832Y001519D01*
X012742Y001519D02*
X012742Y001248D01*
X012710Y006248D02*
X012620Y006248D01*
X012575Y006293D01*
X012575Y006338D01*
X012620Y006383D01*
X012755Y006383D01*
X012755Y006293D01*
X012710Y006248D01*
X012755Y006383D02*
X012665Y006474D01*
X012575Y006519D01*
X012869Y006474D02*
X012869Y006383D01*
X012914Y006338D01*
X013049Y006338D01*
X013049Y006248D02*
X013049Y006519D01*
X012914Y006519D01*
X012869Y006474D01*
X013164Y006519D02*
X013344Y006519D01*
X013254Y006519D02*
X013254Y006248D01*
X014661Y007761D02*
X014841Y007761D01*
X014706Y007897D01*
X014706Y007626D01*
X014956Y007761D02*
X015001Y007716D01*
X015136Y007716D01*
X015136Y007626D02*
X015136Y007897D01*
X015001Y007897D01*
X014956Y007851D01*
X014956Y007761D01*
X015250Y007897D02*
X015431Y007897D01*
X015341Y007897D02*
X015341Y007626D01*
X020160Y008526D02*
X024860Y008526D01*
X024860Y004826D01*
X020160Y004826D01*
X020160Y003926D01*
X024860Y003926D01*
X024860Y004826D01*
X024860Y008526D02*
X024860Y009426D01*
X020160Y009426D01*
X020160Y008526D01*
X021656Y010697D02*
X021611Y010742D01*
X021611Y010787D01*
X021656Y010832D01*
X021791Y010832D01*
X021791Y010742D01*
X021746Y010697D01*
X021656Y010697D01*
X021791Y010832D02*
X021701Y010922D01*
X021611Y010967D01*
X021995Y010967D02*
X021995Y010697D01*
X022085Y010697D02*
X021905Y010697D01*
X022085Y010877D02*
X021995Y010967D01*
X022200Y010922D02*
X022200Y010832D01*
X022245Y010787D01*
X022380Y010787D01*
X022380Y010697D02*
X022380Y010967D01*
X022245Y010967D01*
X022200Y010922D01*
X022495Y010967D02*
X022675Y010967D01*
X022585Y010967D02*
X022585Y010697D01*
X023249Y012666D02*
X023340Y012666D01*
X023385Y012711D01*
X023295Y012801D02*
X023249Y012801D01*
X023204Y012756D01*
X023204Y012711D01*
X023249Y012666D01*
X023249Y012801D02*
X023204Y012846D01*
X023204Y012891D01*
X023249Y012936D01*
X023340Y012936D01*
X023385Y012891D01*
X023499Y012891D02*
X023499Y012801D01*
X023544Y012756D01*
X023679Y012756D01*
X023679Y012666D02*
X023679Y012936D01*
X023544Y012936D01*
X023499Y012891D01*
X023794Y012936D02*
X023974Y012936D01*
X023884Y012936D02*
X023884Y012666D01*
X023884Y014752D02*
X023884Y015023D01*
X023974Y015023D02*
X023794Y015023D01*
X023679Y015023D02*
X023679Y014752D01*
X023679Y014842D02*
X023544Y014842D01*
X023499Y014887D01*
X023499Y014977D01*
X023544Y015023D01*
X023679Y015023D01*
X023385Y014977D02*
X023340Y015023D01*
X023249Y015023D01*
X023204Y014977D01*
X023204Y014932D01*
X023385Y014752D01*
X023204Y014752D01*
X025553Y017075D02*
X025643Y017075D01*
X025688Y017120D01*
X025688Y017210D02*
X025598Y017255D01*
X025553Y017255D01*
X025508Y017210D01*
X025508Y017120D01*
X025553Y017075D01*
X025688Y017210D02*
X025688Y017345D01*
X025508Y017345D01*
X025893Y017345D02*
X025893Y017075D01*
X025983Y017075D02*
X025803Y017075D01*
X025983Y017255D02*
X025893Y017345D01*
X026098Y017300D02*
X026098Y017210D01*
X026143Y017165D01*
X026278Y017165D01*
X026278Y017075D02*
X026278Y017345D01*
X026143Y017345D01*
X026098Y017300D01*
X026392Y017345D02*
X026572Y017345D01*
X026482Y017345D02*
X026482Y017075D01*
X024860Y018493D02*
X024860Y019393D01*
X020160Y019393D01*
X020160Y018493D01*
X024860Y018493D01*
X024860Y019393D02*
X024860Y023093D01*
X020160Y023093D01*
X020160Y023993D01*
X024860Y023993D01*
X024860Y023093D01*
X022427Y024122D02*
X022427Y024393D01*
X022517Y024393D02*
X022337Y024393D01*
X022223Y024393D02*
X022223Y024122D01*
X022223Y024212D02*
X022087Y024212D01*
X022042Y024257D01*
X022042Y024348D01*
X022087Y024393D01*
X022223Y024393D01*
X021928Y024348D02*
X021928Y024303D01*
X021883Y024257D01*
X021748Y024257D01*
X021748Y024167D02*
X021748Y024348D01*
X021793Y024393D01*
X021883Y024393D01*
X021928Y024348D01*
X021928Y024167D02*
X021883Y024122D01*
X021793Y024122D01*
X021748Y024167D01*
X021049Y024674D02*
X021049Y024944D01*
X021139Y024944D02*
X020959Y024944D01*
X020845Y024944D02*
X020845Y024674D01*
X020845Y024764D02*
X020709Y024764D01*
X020664Y024809D01*
X020664Y024899D01*
X020709Y024944D01*
X020845Y024944D01*
X020550Y024854D02*
X020460Y024944D01*
X020460Y024674D01*
X020550Y024674D02*
X020370Y024674D01*
X020255Y024719D02*
X020075Y024899D01*
X020075Y024719D01*
X020120Y024674D01*
X020210Y024674D01*
X020255Y024719D01*
X020255Y024899D01*
X020210Y024944D01*
X020120Y024944D01*
X020075Y024899D01*
X019249Y024274D02*
X019069Y024274D01*
X019159Y024274D02*
X019159Y024004D01*
X018955Y024004D02*
X018955Y024274D01*
X018820Y024274D01*
X018775Y024229D01*
X018775Y024139D01*
X018820Y024094D01*
X018955Y024094D01*
X018660Y024094D02*
X018615Y024139D01*
X018525Y024139D01*
X018480Y024094D01*
X018480Y024049D01*
X018525Y024004D01*
X018615Y024004D01*
X018660Y024049D01*
X018660Y024094D01*
X018615Y024139D02*
X018660Y024184D01*
X018660Y024229D01*
X018615Y024274D01*
X018525Y024274D01*
X018480Y024229D01*
X018480Y024184D01*
X018525Y024139D01*
X016061Y024314D02*
X015880Y024314D01*
X015970Y024314D02*
X015970Y024044D01*
X015766Y024044D02*
X015766Y024314D01*
X015631Y024314D01*
X015586Y024269D01*
X015586Y024179D01*
X015631Y024134D01*
X015766Y024134D01*
X015471Y024179D02*
X015471Y024314D01*
X015291Y024314D01*
X015336Y024224D02*
X015291Y024179D01*
X015291Y024089D01*
X015336Y024044D01*
X015426Y024044D01*
X015471Y024089D01*
X015471Y024179D02*
X015381Y024224D01*
X015336Y024224D01*
X014199Y025185D02*
X014199Y025456D01*
X014289Y025456D02*
X014109Y025456D01*
X013994Y025456D02*
X013859Y025456D01*
X013814Y025411D01*
X013814Y025320D01*
X013859Y025275D01*
X013994Y025275D01*
X013994Y025185D02*
X013994Y025456D01*
X013700Y025366D02*
X013609Y025456D01*
X013609Y025185D01*
X013519Y025185D02*
X013700Y025185D01*
X013405Y025185D02*
X013225Y025366D01*
X013225Y025411D01*
X013270Y025456D01*
X013360Y025456D01*
X013405Y025411D01*
X013405Y025185D02*
X013225Y025185D01*
X013422Y025894D02*
X013602Y025894D01*
X013512Y025894D02*
X013512Y026164D01*
X013602Y026074D01*
X013716Y025894D02*
X013896Y025894D01*
X013806Y025894D02*
X013806Y026164D01*
X013896Y026074D01*
X014011Y026029D02*
X014056Y025984D01*
X014191Y025984D01*
X014191Y025894D02*
X014191Y026164D01*
X014056Y026164D01*
X014011Y026119D01*
X014011Y026029D01*
X014306Y026164D02*
X014486Y026164D01*
X014396Y026164D02*
X014396Y025894D01*
X014408Y027154D02*
X014228Y027154D01*
X014318Y027154D02*
X014318Y027424D01*
X014408Y027334D01*
X014523Y027379D02*
X014523Y027289D01*
X014568Y027244D01*
X014703Y027244D01*
X014703Y027154D02*
X014703Y027424D01*
X014568Y027424D01*
X014523Y027379D01*
X014817Y027424D02*
X014998Y027424D01*
X014907Y027424D02*
X014907Y027154D01*
X014114Y027199D02*
X014069Y027154D01*
X013978Y027154D01*
X013933Y027199D01*
X013933Y027244D01*
X013978Y027289D01*
X014023Y027289D01*
X013978Y027289D02*
X013933Y027334D01*
X013933Y027379D01*
X013978Y027424D01*
X014069Y027424D01*
X014114Y027379D01*
X017283Y026798D02*
X017283Y026708D01*
X017328Y026663D01*
X017463Y026663D01*
X017463Y026573D02*
X017463Y026843D01*
X017328Y026843D01*
X017283Y026798D01*
X017578Y026798D02*
X017623Y026843D01*
X017713Y026843D01*
X017758Y026798D01*
X017758Y026753D01*
X017713Y026708D01*
X017623Y026708D01*
X017578Y026663D01*
X017578Y026618D01*
X017623Y026573D01*
X017713Y026573D01*
X017758Y026618D01*
X017864Y026573D02*
X017954Y026573D01*
X017909Y026573D02*
X017909Y026843D01*
X017954Y026843D02*
X017864Y026843D01*
X007760Y023993D02*
X007760Y023093D01*
X003060Y023093D01*
X003060Y019393D01*
X007760Y019393D01*
X007760Y018493D01*
X003060Y018493D01*
X003060Y019393D01*
X004672Y018605D02*
X004672Y018335D01*
X004582Y018335D02*
X004763Y018335D01*
X004877Y018470D02*
X004922Y018425D01*
X005057Y018425D01*
X005057Y018335D02*
X005057Y018605D01*
X004922Y018605D01*
X004877Y018560D01*
X004877Y018470D01*
X004763Y018515D02*
X004672Y018605D01*
X005172Y018605D02*
X005352Y018605D01*
X005262Y018605D02*
X005262Y018335D01*
X003060Y023093D02*
X003060Y023993D01*
X007760Y023993D01*
X018382Y012582D02*
X018382Y012536D01*
X018562Y012356D01*
X018562Y012311D01*
X018677Y012311D02*
X018857Y012311D01*
X018767Y012311D02*
X018767Y012582D01*
X018857Y012491D01*
X018972Y012446D02*
X019017Y012401D01*
X019152Y012401D01*
X019152Y012311D02*
X019152Y012582D01*
X019017Y012582D01*
X018972Y012536D01*
X018972Y012446D01*
X019266Y012582D02*
X019446Y012582D01*
X019356Y012582D02*
X019356Y012311D01*
X018562Y012582D02*
X018382Y012582D01*
X025275Y009350D02*
X025275Y009080D01*
X025230Y009215D02*
X025410Y009215D01*
X025275Y009350D01*
X025615Y009350D02*
X025615Y009080D01*
X025705Y009080D02*
X025525Y009080D01*
X025705Y009260D02*
X025615Y009350D01*
X025819Y009305D02*
X025819Y009215D01*
X025864Y009170D01*
X026000Y009170D01*
X026000Y009080D02*
X026000Y009350D01*
X025864Y009350D01*
X025819Y009305D01*
X026114Y009350D02*
X026294Y009350D01*
X026204Y009350D02*
X026204Y009080D01*
X007760Y009426D02*
X007760Y008526D01*
X003060Y008526D01*
X003060Y004826D01*
X003060Y008526D02*
X003060Y009426D01*
X007760Y009426D01*
D61*
X009460Y008076D02*
X009460Y007426D01*
X009060Y007426D01*
X009043Y007424D01*
X009026Y007420D01*
X009010Y007413D01*
X008996Y007403D01*
X008983Y007390D01*
X008973Y007376D01*
X008966Y007360D01*
X008962Y007343D01*
X008960Y007326D01*
X008960Y006026D01*
X008962Y006009D01*
X008966Y005992D01*
X008973Y005976D01*
X008983Y005962D01*
X008996Y005949D01*
X009010Y005939D01*
X009026Y005932D01*
X009043Y005928D01*
X009060Y005926D01*
X009460Y005926D01*
X009460Y005276D01*
X009462Y005259D01*
X009466Y005242D01*
X009473Y005226D01*
X009483Y005212D01*
X009496Y005199D01*
X009510Y005189D01*
X009526Y005182D01*
X009543Y005178D01*
X009560Y005176D01*
X012460Y005176D01*
X018860Y005176D01*
X018877Y005178D01*
X018894Y005182D01*
X018910Y005189D01*
X018924Y005199D01*
X018937Y005212D01*
X018947Y005226D01*
X018954Y005242D01*
X018958Y005259D01*
X018960Y005276D01*
X018960Y008076D01*
X018958Y008093D01*
X018954Y008110D01*
X018947Y008126D01*
X018937Y008140D01*
X018924Y008153D01*
X018910Y008163D01*
X018894Y008170D01*
X018877Y008174D01*
X018860Y008176D01*
X012460Y008176D01*
X009560Y008176D01*
X009543Y008174D01*
X009526Y008170D01*
X009510Y008163D01*
X009496Y008153D01*
X009483Y008140D01*
X009473Y008126D01*
X009466Y008110D01*
X009462Y008093D01*
X009460Y008076D01*
X009460Y007426D02*
X009460Y005926D01*
X012460Y005176D02*
X012460Y008176D01*
X015460Y019743D02*
X009060Y019743D01*
X009043Y019745D01*
X009026Y019749D01*
X009010Y019756D01*
X008996Y019766D01*
X008983Y019779D01*
X008973Y019793D01*
X008966Y019809D01*
X008962Y019826D01*
X008960Y019843D01*
X008960Y022643D01*
X008962Y022660D01*
X008966Y022677D01*
X008973Y022693D01*
X008983Y022707D01*
X008996Y022720D01*
X009010Y022730D01*
X009026Y022737D01*
X009043Y022741D01*
X009060Y022743D01*
X015460Y022743D01*
X018360Y022743D01*
X018377Y022741D01*
X018394Y022737D01*
X018410Y022730D01*
X018424Y022720D01*
X018437Y022707D01*
X018447Y022693D01*
X018454Y022677D01*
X018458Y022660D01*
X018460Y022643D01*
X018460Y021993D01*
X018860Y021993D01*
X018877Y021991D01*
X018894Y021987D01*
X018910Y021980D01*
X018924Y021970D01*
X018937Y021957D01*
X018947Y021943D01*
X018954Y021927D01*
X018958Y021910D01*
X018960Y021893D01*
X018960Y020593D01*
X018958Y020576D01*
X018954Y020559D01*
X018947Y020543D01*
X018937Y020529D01*
X018924Y020516D01*
X018910Y020506D01*
X018894Y020499D01*
X018877Y020495D01*
X018860Y020493D01*
X018460Y020493D01*
X018460Y021993D01*
X018460Y020493D02*
X018460Y019843D01*
X018458Y019826D01*
X018454Y019809D01*
X018447Y019793D01*
X018437Y019779D01*
X018424Y019766D01*
X018410Y019756D01*
X018394Y019749D01*
X018377Y019745D01*
X018360Y019743D01*
X015460Y019743D01*
X015460Y022743D01*
D62*
X016160Y021243D02*
X017760Y021243D01*
X016960Y020443D02*
X016960Y022043D01*
X010960Y007476D02*
X010960Y005876D01*
X011760Y006676D02*
X010160Y006676D01*
M02*
